<?xml version="1.0" standalone="no"?>
<!DOCTYPE svg PUBLIC "-//W3C//DTD SVG 1.1//EN" "http://www.w3.org/Graphics/SVG/1.1/DTD/svg11.dtd" >
<svg xmlns="http://www.w3.org/2000/svg" xmlns:xlink="http://www.w3.org/1999/xlink" version="1.1">
<metadata>
Created by FontForge 20170731 at Sat Apr  1 04:44:59 2023
 By Aleksey,,,
UniqueFont
</metadata>
<defs>
<font id="PlasmaCircleDots-Bold" horiz-adv-x="500" >
  <font-face 
    font-family="Plasma-Circle-Dots Bold"
    font-weight="950"
    font-stretch="normal"
    units-per-em="2010"
    panose-1="0 0 4 0 0 0 0 0 0 0"
    ascent="1608"
    descent="-402"
    bbox="-489 -850 2007 2054.01"
    underline-thickness="60"
    underline-position="-1000"
    unicode-range="U+0020-FEFC"
  />
<missing-glyph horiz-adv-x="1005" 
d="M126 0v1181h753v-1181h-753zM251 126h503v929h-503v-929z" />
    <glyph glyph-name="glyph72" unicode="&#x651;&#x64b;" horiz-adv-x="0" 
d="M-146 1701l25 5q50 11 75 43q18 -18 49 -13q64 11 93 43q24 25 18 66q-1 12 -5 25q-6 25 -25 77q-31 77 -39 76q-8 -3 -46 -30l-38 -29l23 -41q13 -27 15 -38q2 -15 -9 -21l-34 -8l-1 4q-4 11 -8.5 25.5t-10 28.5t-8.5 24q-11 25 -13 25.5t-3 -0.5l-1 -1q-6 -1 -45 -20
l-38 -21l6 -10q4 -11 11 -28q11 -33 12 -38t-2 -10.5t-10 -7.5l-23 -5q-12 -2 -16 9l-20 96l-86 -20l28 -131q3 -18 23 -42q32 -38 93 -34q2 0 10 1zM-100 1432l-28 74l285 106l28 -74zM-143 1547l-28 74l284 106l28 -74z" />
    <glyph glyph-name="shaddadammatan-arab.isol" unicode="&#x651;&#x64c;" horiz-adv-x="0" arabic-form="isolated" 
d="M-55 1221l26 5q50 11 74 43q18 -18 50 -13q63 11 93 43q23 25 18 66q-2 12 -6 25q-5 25 -25 77q-30 77 -38 76q-9 -3 -47 -30l-38 -29l24 -41q13 -27 14 -38q2 -15 -9 -21l-33 -8l-2 4q-3 11 -7.5 25.5t-10 28.5t-9.5 24q-10 25 -12 25.5t-3 -0.5l-1 -1q-6 -1 -46 -20
l-37 -21l5 -10q5 -11 11 -28q12 -33 12 -38q1 -5 -1.5 -10.5t-9.5 -7.5l-24 -5q-12 -2 -15 9l-21 96l-86 -20l29 -131q2 -18 23 -42q31 -38 92 -34q2 0 10 1zM-10 1740v0v0q-36 13 -69 1q-34 -13 -51 -48l-1 -3q-20 -51 13 -99l-65 -64l111 -43l96 113q7 8 12 19l2 3
q14 35 1 69t-48 51zM-131 1800v0q-61 -24 -78 -73t-12 -92.5l5 -43.5l61 11q-11 35 -10 60.5t9.5 42.5t19.5 27t19.5 14.5l8.5 4.5z" />
    <glyph glyph-name="shaddakasratan-arab.isol" unicode="&#x651;&#x64d;" horiz-adv-x="0" arabic-form="isolated" 
d="M-138 1732l25 5q50 11 75 43q18 -18 49 -13q64 11 93 43q24 25 18 66q-1 12 -5 25q-6 25 -25 77q-31 77 -39 76q-8 -3 -46 -30l-38 -29l23 -41q13 -27 15 -38q2 -15 -9 -21l-34 -8l-1 4q-4 11 -8.5 25.5t-10 28.5t-8.5 24q-11 25 -13 25.5t-3 -0.5l-1 -1q-6 -1 -45 -20
l-38 -21l6 -10q4 -11 11 -28q11 -33 12 -38t-2 -10.5t-10 -7.5l-23 -5q-12 -2 -16 9l-20 96l-86 -20l28 -131q3 -18 23 -42q32 -38 93 -34q2 0 10 1zM-92 1463l-28 74l285 106l28 -74zM-135 1578l-28 74l284 106l28 -74z" />
    <glyph glyph-name="shaddafatha-arab.isol" unicode="&#x651;&#x64e;" horiz-adv-x="580" arabic-form="isolated" 
d="M260 1284l25 5q50 11 75 43q18 -18 49 -13q64 11 93 43q24 25 18 66q-1 12 -5 25q-6 25 -25 77q-31 77 -39 76q-8 -3 -46 -30l-38 -29l23 -41q13 -27 15 -38q2 -15 -9 -21l-34 -8l-1 4q-4 11 -8.5 25.5t-10 28.5t-8.5 24q-11 25 -13 25.5t-3 -0.5l-1 -1q-6 -1 -45 -20
l-38 -21l6 -10q4 -11 11 -28q11 -33 12 -38t-2 -10.5t-10 -7.5l-23 -5q-12 -2 -16 9l-20 96l-86 -20l28 -131q3 -18 23 -42q32 -38 93 -34q2 0 10 1zM96 1535l-47 84l323 179l47 -84z" />
    <glyph glyph-name="shaddadamma-arab.isol" unicode="&#x651;&#x64f;" arabic-form="isolated" 
d="M180 1221l25 5q50 11 75 43q18 -18 49 -13q64 11 93 43q24 25 18 66q-1 12 -5 25q-6 25 -25 77q-31 77 -39 76q-8 -3 -46 -30l-38 -29l23 -41q13 -27 15 -38q2 -15 -9 -21l-34 -8l-1 4q-4 11 -8.5 25.5t-10 28.5t-8.5 24q-11 25 -13 25.5t-3 -0.5l-1 -1q-6 -1 -45 -20
l-38 -21l6 -10q4 -11 11 -28q11 -33 12 -38t-2 -10.5t-10 -7.5l-23 -5q-12 -2 -16 9l-20 96l-86 -20l28 -131q3 -18 23 -42q32 -38 93 -34q2 0 10 1zM203 1760v0v0q-38 10 -72 -8q-34 -17 -46 -56l-1 -3q-14 -56 27 -102l-60 -75l121 -30l85 130q7 10 10 21l2 4q9 39 -8 72
q-18 34 -56 47h-2z" />
    <glyph glyph-name="shaddakasra-arab.isol" unicode="&#x651;&#x650;" arabic-form="isolated" 
d="M186 1412l25 5q50 11 75 43q18 -18 49 -13q64 11 93 43q24 25 18 66q-1 12 -5 25q-6 25 -25 77q-31 77 -39 76q-8 -3 -46 -30l-38 -29l23 -41q13 -27 15 -38q2 -15 -9 -21l-34 -8l-1 4q-4 11 -8.5 25.5t-10 28.5t-8.5 24q-11 25 -13 25.5t-3 -0.5l-1 -1q-6 -1 -45 -20
l-38 -21l6 -10q4 -11 11 -28q11 -33 12 -38t-2 -10.5t-10 -7.5l-23 -5q-12 -2 -16 9l-20 96l-86 -20l28 -131q3 -18 23 -42q32 -38 93 -34q2 0 10 1zM189 1258l-28 74l284 106l28 -74z" />
    <glyph glyph-name="allah-arab.isol" unicode="&#xfedf;&#xfee0;&#xfeea;" horiz-adv-x="1841" arabic-form="isolated" 
d="M1184 1356v0l0.5 -20t-6 -45.5t-26.5 -46.5q-7 -7 -17 -13v0q-13 -8 -33 -10h-1q-5 -1 -10 -1l-19 -2h-10q-28 -3 -45 17q-20 -24 -60 -25l-11 -1v0l-18 -2q-8 -1 -16 1q-21 2 -37 10q-39 24 -51.5 63t-12.5 54v1v3l-9 77l89 18q2 2 5.5 -5.5t11.5 -45.5q5 -24 7 -47
q2 -8 9 -8h1l21 2q15 4 13 20l-12 64l69 18q3 2 6.5 -5t11.5 -45q3 -19 5 -37q1 -7 9 -7l14 1h1h3q15 4 14 20l-15 76l95 20q2 2 5.5 -6t11.5 -45q5 -25 7 -48zM1019 1655v0l-9 -180l-65 -1l-15 184zM1760 1122v0l14 -800q-9 -139 -103.5 -229t-232.5 -93h-38v0h-74v0h-67
q-89 0 -154 60q-70 -49 -158 -58h-1l-71 -2l1 1v0l-1 -1h-14v0h-47h-3q-30 1 -58 9q-67 19 -112 70q-39 -36 -99 -59q-64 -23 -131 -21l-227 6q-68 4 -107 46.5t-57.5 104.5t-23.5 123.5t-3.5 104l1.5 42.5l2 52t16 127t49 149.5t100.5 124t169.5 48.5q83 -3 145 -24l249 48
l13 -467q2 -39 1 -65v-2h14v0h51q28 0 47.5 20t19.5 49l-12 594l377 43l12 -707h29v0h51q28 0 47.5 20t19.5 50l-12 597zM440 388v0q25 25 6 58l-45 59q-27 29 -60 6l-60 -53q-27 -32 0 -61q7 -7 18 -9q50 -13 116 -10q15 1 25 10z" />
    <glyph glyph-name="lamalefmaddaabove-arab.isol" unicode="&#xfedf;&#xfe82;" horiz-adv-x="902" arabic-form="isolated" 
d="M502 486v0l-11 684l377 -47l14 -801q-9 -138 -103.5 -228.5t-233.5 -93.5h-38v0h-470v417h398q29 0 48.5 20t18.5 49v0zM30 1055v0v0l358 -5l38 -600l5 -94l11 -226l-288 -50l-55 416zM426 450v0v0l5 -79v-15zM-49 1122v0l40 187q12 49 53 78q18 13 43 19.5t57.5 1
t73.5 -29.5q63 -34 111 -34.5t80 15t48 30.5h9l-49 -262z" />
    <glyph glyph-name="lamalefmaddaabove-arab.fina" unicode="&#xfee0;&#xfe82;" horiz-adv-x="899" arabic-form="final" 
d="M879 416v0h37v-416h-35q-38 0 -72.5 20.5t-63.5 47.5q-87 -65 -201 -66h-38v0h-471v416h73l-11 80l-68 558l358 -5l37 -599l3 -34h7q28 0 47.5 20t19.5 49l-12 684l377 -47zM-55 1122v0l40 187q12 49 53 78q18 13 43 19.5t57.5 1t73.5 -29.5q63 -34 111 -34.5t80 15
t48 30.5h9l-49 -262z" />
    <glyph glyph-name="lamalefhamzaabove-arab.isol" unicode="&#xfedf;&#xfe84;" horiz-adv-x="894" arabic-form="isolated" 
d="M490 486v0l-12 684l378 -47l13 -801q-9 -138 -103.5 -228.5t-232.5 -93.5h-38v0h-471v417h399q28 0 47.5 20t19.5 49v0zM18 1055v0v0l358 -5l37 -600l5 -94l12 -226l-288 -50l-56 416zM413 450v0v0l6 -79q0 -8 -1 -15zM307 1345v0l37 -174h-1l1 -1l-274 -59l-50 -11
l-39 181l41 9q-8 37 -8.5 71t1.5 56.5l2 22.5l3.5 9t14 24.5t31.5 35.5t55 41.5t84 43.5l76 -173l-65.5 -19t-82.5 -43z" />
    <glyph glyph-name="lamalefhamzaabove-arab.fina" unicode="&#xfee0;&#xfe84;" horiz-adv-x="909" arabic-form="final" 
d="M886 416v0h38v-416h-35q-39 0 -73.5 20.5t-63.5 47.5q-86 -65 -201 -66h-38v0h-470v416h72l-10 80l-68 558l358 -5l37 -599l2 -34h8q28 0 47.5 20t19.5 49l-12 684l377 -47zM313 1345v0l37 -174h-1l1 -1l-274 -59l-50 -11l-39 181l41 9q-8 37 -8.5 71t1.5 56.5l2 22.5
l3.5 9t14 24.5t31.5 35.5t55 41.5t84 43.5l76 -173l-65.5 -19t-82.5 -43z" />
    <glyph glyph-name="lamalefhamzabelow-arab.isol" unicode="&#xfedf;&#xfe88;" horiz-adv-x="897" arabic-form="isolated" 
d="M493 486v0l-12 684l377 -47l14 -801q-9 -138 -103.5 -228.5t-232.5 -93.5h-38v0h-471v417h399q28 0 47.5 20t19.5 49v0zM21 1055v0v0l358 -5l37 -600l5 -94l12 -226l-288 -50l-56 416zM416 450v0v0l6 -79q0 -8 -1 -15zM810 -245v0l37 -174h-1l1 -1l-274 -59l-50 -11
l-39 181l41 9q-8 37 -8.5 71t1.5 56.5l2 22.5l3.5 9t14 24.5t31.5 35.5t55 41.5t84 43.5l76 -173l-65.5 -19t-82.5 -43z" />
    <glyph glyph-name="lamalefhamzabelow-arab.fina" unicode="&#xfee0;&#xfe88;" horiz-adv-x="906" arabic-form="final" 
d="M883 416v0h37v-416h-35q-38 0 -72.5 20.5t-63.5 47.5q-87 -65 -201 -66h-38v0h-471v416h73l-11 80l-68 558l358 -5l37 -599l3 -34h7q28 0 47.5 20t19.5 49l-12 684l377 -47zM837 -275v0l37 -174h-1l1 -1l-273 -59l-50 -11l-40 181l41 9q-7 37 -8 71t1 56.5l2 22.5l3.5 9
t14.5 24.5t31.5 35.5t54.5 41.5t85 43.5l76 -173l-66 -19t-82 -43z" />
    <glyph glyph-name="lamalef-arab.isol" unicode="&#xfedf;&#xfe8e;" horiz-adv-x="904" arabic-form="isolated" 
d="M509 486v0l-12 684l377 -47l14 -801q-9 -138 -103.5 -228.5t-232.5 -93.5h-38v0h-471v417h399q28 0 47.5 20t19.5 49v0zM37 1055v0v0l358 -5l37 -600l5 -94l12 -226l-288 -50l-56 416zM432 450v0v0l6 -79q0 -8 -1 -15z" />
    <glyph glyph-name="lamalef-arab.fina" unicode="&#xfee0;&#xfe8e;" horiz-adv-x="941" arabic-form="final" 
d="M881 416v0h77v-416h-75q-38 0 -72.5 20.5t-63.5 47.5q-87 -65 -201 -66h-38v0h-471v416h73l-11 80l-68 558l358 -5l37 -599l3 -34h7q28 0 47.5 20t19.5 49l-12 684l377 -47z" />
    <glyph glyph-name="alefmaddaabove-arab" unicode="&#x622;" arabic-form="isolated" 
d="M462 1011v0l-399 -42l19 -568l4 -110l10 -263l330 -28l22 488zM25 1034v0l15 190q6 50 42 85q16 15 40 25t57 8.5t77 -18.5q66 -26 114 -20.5t77.5 25.5t42.5 37l10 1l-13 -266z" />
    <glyph glyph-name="alefhamzaabove-arab" unicode="&#x623;" horiz-adv-x="448" arabic-form="isolated" 
d="M432 1141v0l-414 -43l18 -698l5 -110l10 -263l338 -27l22 487zM343 1440v0l39 -174h-1h2l-273 -64l-50 -12l-42 181l41 9q-8 37 -9.5 71t0.5 56.5l2 22.5l3 9t13.5 24.5t31 36t54 42.5t83.5 45l79 -172l-65.5 -20t-81.5 -44z" />
    <glyph glyph-name="wawhamzaabove-arab" unicode="&#x624;" horiz-adv-x="781" arabic-form="isolated" 
d="M410 915v0q130 -3 203 -73.5t105 -162.5t38 -164.5l6 -72.5v-416q-18 -139 -82.5 -214.5t-138.5 -108.5t-121 -46l-30 -10l-57 -15l-94 316l42 9q98 18 155.5 33.5t81.5 25.5l24 10h-208q-67 0 -130 24q-87 37 -129 98.5t-53 125t-7 106.5q2 37 2 74q-1 50 7 126
t43 152.5t116 128.5t227 54zM475 420v0q28 29 1 61l-58 55q-32 24 -60 -4l-47 -58q-20 -33 5 -59q10 -9 24 -11q66 -4 117 7q10 3 18 9zM497 1201v0l40 -174h-1h1l-273 -64l-50 -12l-42 181l41 9q-8 37 -9 71t0.5 56.5l1.5 22.5l3.5 9t13.5 24.5t30.5 36t54.5 42.5t84 45
l79 -172l-65.5 -20t-81.5 -44z" />
    <glyph glyph-name="alefhamzabelow-arab" unicode="&#x625;" horiz-adv-x="442" arabic-form="isolated" 
d="M373 -280v0l40 -174h-1h1l-272 -64l-50 -12l-42 181l40 9q-8 37 -9 71t0.5 56.5l1.5 22.5l3.5 9t14 24.5t31 36t54 42.5t83.5 45l79 -172l-65.5 -20t-81.5 -44zM429 1141v0l-414 -43l18 -698l4 -110l11 -263l337 -27l22 487zM33 400v0l3 -92q0 -9 1 -18z" />
    <glyph glyph-name="yehhamzaabove-arab" unicode="&#x626;" horiz-adv-x="1082" arabic-form="isolated" 
d="M802 478v0l174 -178q112 -127 50 -284q-35 -82 -75 -127q-109 -108 -267 -133l-266 -39q-145 -17 -254.5 69t-120.5 231l-22 548l290 14l11 -450l33 -5.5t84 -7.5q93 -6 185 31l-71 104l-147 203q-60 87 -7 178q79 117 183.5 199.5t186 126.5l81.5 44l226 -361l-98 -50.5
t-176 -112.5zM377 1000v0l40 -174h-1h1l-273 -64l-49 -12l-43 181l41 9q-8 37 -9 71t0.5 56.5l1.5 22.5l3.5 9t13.5 24.5t30.5 36t54.5 42.5t84 45l79 -172l-65.5 -20t-81.5 -44z" />
    <glyph glyph-name="alef-arab" unicode="&#x627;" horiz-adv-x="452" arabic-form="isolated" 
d="M436 1141v0l-414 -43l18 -698l4 -110l11 -263l337 -27l22 487zM40 400v0l3 -92q0 -9 1 -18z" />
    <glyph glyph-name="beh-arab" unicode="&#x628;" horiz-adv-x="1269" arabic-form="isolated" 
d="M1252 279v0q1 -117 -81.5 -198t-196.5 -81h-109h-346h-45h-79h-108q-115 0 -197.5 81t-81.5 198q10 190 34.5 339.5l24.5 149.5l361 -69q-29 -101 -47 -231q-2 -22 12 -37.5t35 -15.5h46h45h313q22 0 36 15.5t12 37.5q-30 190 -70 352l360 69l35.5 -206.5t46.5 -403.5z
M476 -190v0q0 -54 36 -91t90 -39q55 0 91.5 36t39.5 90q-1 55 -36.5 91.5t-90.5 39.5q-54 -1 -91 -36.5t-39 -90.5z" />
    <glyph glyph-name="tehmarbuta-arab" unicode="&#x629;" horiz-adv-x="765" arabic-form="isolated" 
d="M215 1221v0l120 -132l-1 -1l1 1l-206 -189l-38 -35l-125 137l31 28q-25 29 -43 58t-27 49l-9 20l-2 9.5t-0.5 28.5t9.5 46.5t26.5 63.5t51.5 80l152 -111l-47 -49.5t-49 -78.5zM404 1066v0q171 -147 244.5 -304.5t83 -302t-12.5 -251.5q-16 -80 -73.5 -132t-139.5 -58
l-251 -17q-91 -4 -158 48.5t-85 140.5q-22 125 -11.5 217t39 155t62 101t58 55l24.5 17l-73 75zM466 413v0q29 30 1 64l-61 57q-33 24 -62 -5l-48 -60q-21 -34 5 -61q10 -9 25 -11q68 -5 121 7q11 3 19 9z" />
    <glyph glyph-name="teh-arab" unicode="&#x62a;" horiz-adv-x="1271" arabic-form="isolated" 
d="M1255 279v0q1 -117 -81.5 -198t-196.5 -81h-109h-346h-45h-79h-108q-115 0 -197.5 81t-81.5 198q10 190 34.5 339.5l24.5 149.5l361 -69q-29 -101 -47 -231q-2 -22 12 -37.5t35 -15.5h46h45h313q22 0 36 15.5t12 37.5q-30 190 -70 352l360 69l35.5 -206.5t46.5 -403.5z
M510 914v0q-4 55 -41.5 89.5t-92.5 34.5q-54 -4 -89 -41.5t-34 -92.5q3 -54 41 -89t92 -34q55 4 89.5 41.5t34.5 91.5zM748 924v0q-3 54 -40.5 89t-92.5 34q-54 -4 -89 -41.5t-34 -91.5q3 -55 40.5 -89.5t92.5 -34.5q54 4 89 41.5t34 92.5z" />
    <glyph glyph-name="theh-arab" unicode="&#x62b;" horiz-adv-x="1268" arabic-form="isolated" 
d="M1252 279v0q1 -117 -81.5 -198t-196.5 -81h-109h-346h-45h-79h-108q-115 0 -197.5 81t-81.5 198q10 190 34.5 339.5l24.5 149.5l361 -69q-29 -101 -47 -231q-2 -22 12 -37.5t35 -15.5h46h45h313q22 0 36 15.5t12 37.5q-30 190 -70 352l360 69l35.5 -206.5t46.5 -403.5z
M493 900q2 -55 39 -90.5t91 -35.5q55 2 90.5 38.5t36.5 91.5q-3 55 -39.5 90.5t-91.5 35.5q-54 -2 -90 -38.5t-36 -91.5v0zM254 896q2 -54 39 -90t91 -36q55 2 90.5 39t36.5 91q-3 55 -39.5 90.5t-91.5 36.5q-54 -3 -90 -39.5t-36 -91.5v0zM377 1137q2 -55 38.5 -90.5
t91.5 -35.5q55 2 90.5 38.5t35.5 91.5q-2 55 -38.5 90.5t-91.5 35.5q-55 -2 -90.5 -38.5t-35.5 -91.5v0z" />
    <glyph glyph-name="jeem-arab" unicode="&#x62c;" horiz-adv-x="832" arabic-form="isolated" 
d="M798 481v0l-104 350l-102 14q-91 68 -170.5 103.5t-145.5 47t-117.5 7t-87.5 -16.5t-55 -23l-19 -11l50 -375l124 15q41 5 90 -4t83 -31l52 -33q1 0 3 1l99 -332q38 31 65 59l211 205zM498 193v0l-99 332q-2 -1 -3 -1l1 -1l-57 -19q-106 -43 -188 -111q-84 -69 -126 -161
v-190h70q135 7 235 51t167 100v0zM647 -244v0l-327 262l178 175v0l-99 332q-2 -1 -3 -1q-29 -9 -56 -20q-106 -43 -188 -111q-84 -69 -126 -161q-62 -138 -32.5 -284.5t150.5 -253.5l255 -218zM654 -80q53 0 90.5 37.5t37.5 90.5q0 54 -37.5 91.5t-90.5 37.5t-91 -37.5
t-38 -91.5q0 -53 38 -90.5t91 -37.5z" />
    <glyph glyph-name="hah-arab" unicode="&#x62d;" horiz-adv-x="824" arabic-form="isolated" 
d="M786 481v0l-104 350l-102 14q-91 68 -170.5 103.5t-145.5 47t-117.5 7t-87.5 -16.5t-55 -23l-19 -11l50 -375l124 15q41 5 90 -4t83 -31l52 -33q1 0 3 1l99 -332q38 31 65 59l211 205zM486 193v0l-99 332q-2 -1 -3 -1l1 -1l-57 -19q-106 -43 -188 -111q-84 -69 -126 -161
v-190h70q135 7 235 51t167 100v0zM635 -244v0l-327 262l178 175v0l-99 332q-2 -1 -3 -1q-29 -9 -56 -20q-106 -43 -188 -111q-84 -69 -126 -161q-62 -138 -32.5 -284.5t150.5 -253.5l255 -218z" />
    <glyph glyph-name="khah-arab" unicode="&#x62e;" horiz-adv-x="836" arabic-form="isolated" 
d="M798 481v0l-104 350l-102 14q-91 68 -170.5 103.5t-145.5 47t-117.5 7t-87.5 -16.5t-55 -23l-19 -11l50 -375l124 15q41 5 90 -4t83 -31l52 -33q1 0 3 1l99 -332q38 31 65 59l211 205zM498 193v0l-99 332q-2 -1 -3 -1l1 -1l-57 -19q-106 -43 -188 -111q-84 -69 -126 -161
v-190h70q135 7 235 51t167 100v0zM647 -244v0l-327 262l178 175v0l-99 332q-2 -1 -3 -1q-29 -9 -56 -20q-106 -43 -188 -111q-84 -69 -126 -161q-62 -138 -32.5 -284.5t150.5 -253.5l255 -218zM568 980q53 0 90.5 37.5t37.5 90.5q0 54 -37.5 91.5t-90.5 37.5t-91 -37.5
t-38 -91.5q0 -53 38 -90.5t91 -37.5z" />
    <glyph glyph-name="dal-arab" unicode="&#x62f;" horiz-adv-x="692" arabic-form="isolated" 
d="M137 996v0q151 -30 247 -71t148.5 -82t72 -68.5l19.5 -27.5l18.5 -59.5t33 -149t7 -186.5t-55.5 -177q-52 -76 -148 -114t-197.5 -50t-174 -11l-72.5 1l-2 400l374 113q-9 13 -32 23t-55.5 17t-68.5 11.5t-71 7.5t-64 4.5t-46 1.5h-17z" />
    <glyph glyph-name="thal-arab" unicode="&#x630;" horiz-adv-x="677" arabic-form="isolated" 
d="M114 996v0q151 -30 247 -71t148.5 -82t72 -68.5l19.5 -27.5l18.5 -59.5t33 -149t7 -186.5t-55.5 -177q-52 -76 -148 -114t-197.5 -50t-174 -11l-72.5 1l-2 400l374 113q-9 13 -32 23t-55.5 17t-68.5 11.5t-71 7.5t-64 4.5t-46 1.5h-17zM387 1152v0q0 53 -37.5 90.5
t-91.5 37.5q-53 0 -90.5 -37.5t-37.5 -90.5t37.5 -90.5t90.5 -37.5q54 0 91.5 37.5t37.5 90.5z" />
    <glyph glyph-name="reh-arab" unicode="&#x631;" horiz-adv-x="531" arabic-form="isolated" 
d="M86 743v0q26 -97 38 -182t11.5 -158t-9.5 -134t-24.5 -110.5t-33.5 -88.5t-36 -68t-33 -47.5t-24.5 -27.5l-9.5 -9l324 -258q117 117 167.5 266.5t55.5 303.5t-13.5 285t-40.5 212.5l-22 81.5z" />
    <glyph glyph-name="zain-arab" unicode="&#x632;" horiz-adv-x="539" arabic-form="isolated" 
d="M95 773v0q26 -97 38 -182t11.5 -158t-9.5 -134t-24.5 -110.5t-33.5 -88.5t-36 -68t-33 -47.5t-24.5 -27.5l-9.5 -9l324 -258q117 117 167.5 266.5t55.5 303.5t-13.5 285t-40.5 212.5l-22 81.5zM332 1012v0q0 53 -37.5 90.5t-91.5 37.5q-53 0 -90.5 -37.5t-37.5 -90.5
t37.5 -90.5t90.5 -37.5q54 0 91.5 37.5t37.5 90.5z" />
    <glyph glyph-name="seen-arab" unicode="&#x633;" horiz-adv-x="1982" arabic-form="isolated" 
d="M1966 279v0q1 -117 -81.5 -198t-196.5 -81h-109h-43h-35h-18v1q-85 6 -133 70q-32 -27 -60.5 -42.5t-63.5 -22t-88 -6.5h-62q-36 -136 -140.5 -223.5t-244.5 -87.5h-338q-89 0 -163 57t-118 152.5t-44 211.5v0q3 42 7 85q14 167 29 299l15 132l358 -80q-3 -15 -7 -40
q-11 -71 -20 -173q-11 -113 -18 -175q-2 -22 12 -37.5t35 -15.5h241q21 0 35 15.5t12 37.5q-14 122 -45 364q-15 116 -25 157l361 68l41 -331h25q26 1 39.5 20t11.5 45q-7 91 -16.5 157l-9.5 66l152.5 21.5t175.5 21.5q7 0 13 -5.5t14 -43t20 -126.5q7 -67 8 -128
q3 -25 28 -28h14h13q21 0 35 15.5t12 37.5q-29 189 -70 351l361 69l35 -206.5t46 -403.5z" />
    <glyph glyph-name="sheen-arab" unicode="&#x634;" horiz-adv-x="1968" arabic-form="isolated" 
d="M1952 279v0q1 -117 -81.5 -198t-196.5 -81h-109h-43h-35h-18v1q-85 6 -133 70q-32 -27 -60.5 -42.5t-63.5 -22t-88 -6.5h-62q-36 -136 -140.5 -223.5t-244.5 -87.5h-338q-89 0 -163 57t-118 152.5t-44 211.5v0q3 42 7 85q14 167 29 299l15 132l358 -80q-3 -15 -7 -40
q-11 -71 -20 -173q-11 -113 -18 -175q-2 -22 12 -37.5t35 -15.5h241q21 0 35 15.5t12 37.5q-14 122 -45 364q-15 116 -25 157l361 68l41 -331h25q26 1 39.5 20t11.5 45q-7 91 -16.5 157l-9.5 66l152.5 21.5t175.5 21.5q7 0 13 -5.5t14 -43t20 -126.5q7 -67 8 -128
q3 -25 28 -28h14h13q21 0 35 15.5t12 37.5q-29 189 -70 351l361 69l35 -206.5t46 -403.5zM1153 963q2 -55 39 -90.5t91 -35.5q55 2 90.5 38.5t36.5 91.5q-3 55 -39.5 90.5t-91.5 35.5q-54 -2 -90 -38.5t-36 -91.5v0zM914 959q2 -54 39 -90t91 -36q55 2 90.5 39t36.5 91
q-3 55 -39.5 90.5t-91.5 36.5q-54 -3 -90 -39.5t-36 -91.5v0zM1037 1200q2 -55 39 -90.5t91 -35.5q55 2 90.5 38.5t36.5 91.5q-3 55 -39.5 90.5t-91.5 35.5q-54 -2 -90 -38.5t-36 -91.5v0zM1037 1200q2 -55 39 -90.5t91 -35.5q55 2 90.5 38.5t36.5 91.5q-3 55 -39.5 90.5
t-91.5 35.5q-54 -2 -90 -38.5t-36 -91.5v0z" />
    <glyph glyph-name="sad-arab" unicode="&#x635;" horiz-adv-x="1797" arabic-form="isolated" 
d="M1775 417v0l1.5 -43t-4.5 -105.5t-27 -124.5v-1q0 -4 -22.5 -38.5t-72.5 -68.5t-134 -36h-1h-379q-60 -1 -117 18q-46 -116 -144 -187.5t-224 -71.5h-308q-89 0 -163 57t-118 152.5t-44 211.5v0q3 42 7 85q14 167 29 299l15 132l358 -80q-3 -15 -7 -40q-11 -71 -20 -173
q-11 -113 -18 -175q-2 -22 12 -37.5t35 -15.5h191h20q21 0 35 15.5t12 37.5q-7 58 -23 196q-11 86 -22 168q-15 116 -25 157l361 68l14 -141q92 83 206.5 156t247.5 80q130 -3 199.5 -76t97 -170t30 -173zM1511 393v0l59 -50l-66 103v0q-11 19 -36 55q-24 33 -79.5 27
t-122 -35.5t-124.5 -67.5h283q29 0 57 -13q14 -7 28 -19h1z" />
    <glyph glyph-name="dad-arab" unicode="&#x636;" horiz-adv-x="1787" arabic-form="isolated" 
d="M1771 417v0l1.5 -43t-4.5 -105.5t-27 -124.5v-1q0 -4 -22.5 -38.5t-72.5 -68.5t-134 -36h-1h-379q-60 -1 -117 18q-46 -116 -144 -187.5t-224 -71.5h-308q-89 0 -163 57t-118 152.5t-44 211.5v0q3 42 7 85q14 167 29 299l15 132l358 -80q-3 -15 -7 -40q-11 -71 -20 -173
q-11 -113 -18 -175q-2 -22 12 -37.5t35 -15.5h191h20q21 0 35 15.5t12 37.5q-7 58 -23 196q-11 86 -22 168q-15 116 -25 157l361 68l14 -141q92 83 206.5 156t247.5 80q130 -3 199.5 -76t97 -170t30 -173zM1507 393v0l59 -50l-66 103v0q-11 19 -36 55q-24 33 -79.5 27
t-122 -35.5t-124.5 -67.5h283q29 0 57 -13q14 -7 28 -19h1zM1197 1053v0q0 53 -37.5 90.5t-90.5 37.5t-90.5 -37.5t-37.5 -90.5t37.5 -90.5t90.5 -37.5t90.5 37.5t37.5 90.5z" />
    <glyph glyph-name="tah-arab" unicode="&#x637;" horiz-adv-x="1101" arabic-form="isolated" 
d="M1098 426v0l2 -43.5t-3 -106t-25 -124.5v0v0q0 -3 -12 -25t-38.5 -50t-70 -49.5t-106.5 -23.5v0l-380 -5q-67 -2 -131 21q-60 22 -99 59q-70 -79 -173 -79h-21l-20 417h45l-23 696l332 57v-436q65 68 147 114q111 62 239 67q105 1 170.5 -47t100.5 -121t49 -146.5
t15.5 -124zM833 396v0l59 -50l-66 103v0q-11 19 -35 55q-25 33 -80 27t-121.5 -35.5t-125.5 -67.5h283q30 0 57 -13q14 -7 29 -19v0zM458 0h-394v150h394v-150z" />
    <glyph glyph-name="zah-arab" unicode="&#x638;" horiz-adv-x="1128" arabic-form="isolated" 
d="M1105 426v0l2 -43.5t-3 -106t-25 -124.5v0v0q0 -3 -12 -25t-38.5 -50t-70 -49.5t-106.5 -23.5v0l-380 -5q-67 -2 -131 21q-60 22 -99 59q-70 -79 -173 -79h-21l-20 417h45l-23 696l332 57v-436q65 68 147 114q111 62 239 67q105 1 170.5 -47t100.5 -121t49 -146.5
t15.5 -124zM840 396v0l59 -50l-66 103v0q-11 19 -35 55q-25 33 -80 27t-121.5 -35.5t-125.5 -67.5h283q30 0 57 -13q14 -7 29 -19v0zM465 0h-394v150h394v-150zM748 1118v0q0 53 -38 90.5t-91 37.5t-90.5 -37.5t-37.5 -90.5t37.5 -90.5t90.5 -37.5t91 37.5t38 90.5z" />
    <glyph glyph-name="ain-arab" unicode="&#x639;" horiz-adv-x="760" arabic-form="isolated" 
d="M380 495v0l323 -98v-28l-2 -368h1l-1 -1h-378q-5 0 -9 -5v0q-5 -8 2 -15l319 -255l-248 -280l-255 218q-121 107 -150.5 253.5t32.5 284.5q2 3 3 6q15 30 34 59v146q1 72 12 138q15 84 32 138.5l17 54.5l11.5 17.5t40.5 45.5t81 61t133 64q89 36 221 61l38 -186l47 -230
l-72.5 -3t-153.5 -15t-119 -37q-6 -5 -10 -10z" />
    <glyph glyph-name="ghain-arab" unicode="&#x63a;" horiz-adv-x="767" arabic-form="isolated" 
d="M386 495v0l323 -98v-28l-2 -368h1l-1 -1h-378q-5 0 -9 -5v0q-5 -8 2 -15l319 -255l-248 -280l-255 218q-121 107 -150.5 253.5t32.5 284.5q2 3 3 6q15 30 34 59v146q1 72 12 138q15 84 32 138.5l17 54.5l11.5 17.5t40.5 45.5t81 61t133 64q89 36 221 61l38 -186l47 -230
l-72.5 -3t-153.5 -15t-119 -37q-6 -5 -10 -10zM367 1108v0q0 53 -38 90.5t-91 37.5t-90.5 -37.5t-37.5 -90.5t37.5 -90.5t90.5 -37.5t91 37.5t38 90.5z" />
    <glyph glyph-name="feh-arab" unicode="&#x641;" horiz-adv-x="1419" arabic-form="isolated" 
d="M1391 426v0l2 -63.5t-11.5 -145t-54.5 -144t-125 -68.5l-227 -4q-22 0 -43 -1h-320h-7h-308q-115 0 -197.5 81t-81.5 199q10 189 34.5 339l24.5 150l361 -69q-14 -49 -26.5 -108.5t-20.5 -122.5q-2 -22 12 -37.5t35 -15.5h169v0h59v2q-9 50 -3.5 131.5t42 166.5t120 145
t229.5 66q130 0 201 -74t99.5 -173t32.5 -176.5zM1104 397v0q28 29 0 61l-60 53q-32 23 -60 -6l-44 -59q-20 -33 6 -58q10 -9 24 -11q66 -2 116 11q11 2 18 9zM1065 1101v0q0 53 -38 90.5t-91 37.5t-90.5 -37.5t-37.5 -90.5t37.5 -90.5t90.5 -37.5t91 37.5t38 90.5z" />
    <glyph glyph-name="qaf-arab" unicode="&#x642;" horiz-adv-x="1119" arabic-form="isolated" 
d="M1100 133v0v-20q0 -115 -53.5 -210t-143.5 -151.5t-201 -56.5h-348q-89 0 -163 56.5t-118 152t-44 212.5v0q3 42 7 85q14 160 29 244l15 84l255 -49q-2 -15 -7 -40q-12 -35 -16 -101q-10 -114 -17 -175q-2 -22 12 -38t35 -16h409q7 0 14 3l-76 -1q-68 -2 -132 21h-1
q-41 16 -73 44h-1h1q-39 33 -61 80q-32 68 -45 113t-15 66.5l-2 21.5v2q-2 50 7.5 131.5t48 166.5t122.5 145t230 66q123 0 191.5 -67t98 -160t35.5 -170.5t4 -99.5v-7v0q2 -16 1 -78v-1zM802 450v0q28 30 0 62l-60 53q-32 23 -60 -6l-3 -4l-41 -56q-20 -33 6 -58
q10 -9 25 -10q14 -1 28 -1q49 2 87 11q11 3 18 9zM707 1163v0q-6 54 -45 87t-94 30q-54 -6 -87 -45.5t-30 -93.5q6 -54 45.5 -87t93.5 -30q55 6 88 45t29 94zM945 1183v0q-6 55 -45 88t-94 29q-54 -6 -87 -45t-30 -94q6 -54 45.5 -87t93.5 -30q55 6 88 45.5t29 93.5z" />
    <glyph glyph-name="kaf-arab" unicode="&#x643;" horiz-adv-x="1306" arabic-form="isolated" 
d="M1164 492v0q26 -20 54 -45.5t48 -56t20 -63.5l1 -150q0 -63 -53.5 -120t-116.5 -57h-473h-43h-151h-108q-115 0 -197.5 81t-81.5 198q10 190 34.5 339.5l24.5 149.5l361 -68q-29 -102 -47 -231q-2 -22 12 -38t35 -16h119v0h132l-140 279q-47 95 18 178q95 104 206.5 179
t194.5 115.5l83 40.5l211 -481l-104.5 -36t-190.5 -86l137 -101q8 -5 15 -11v0v0z" />
    <glyph glyph-name="lam-arab" unicode="&#x644;" horiz-adv-x="1068" arabic-form="isolated" 
d="M1036 427v0l-12 704l-378 -43l9 -411l3 -183v-4v-387q-12 -9 -27 -9h-200q-21 0 -35 16t-12 38q7 61 18 175q9 102 20 173q4 25 7 39l-358 81l-15 -132.5t-29 -298.5q-4 -43 -7 -85v0q0 -117 44 -212.5t118 -152t163 -56.5h297q139 0 245 88q140 121 145 307l4 353v0z
" />
    <glyph glyph-name="meem-arab" unicode="&#x645;" horiz-adv-x="1011" arabic-form="isolated" 
d="M999 415v0v-63t-15.5 -144t-58.5 -142.5t-127 -65.5l-227 1q-68 0 -131 24q-36 15 -64 35l13 -385l-371 11l19 673q8 67 76 72l141 -4v2q0 50 12 131.5t53 165t126.5 141t231.5 59.5q130 -4 198.5 -80t94.5 -175.5t27.5 -177.5zM712 394v0q28 29 1 62l-58 55
q-32 24 -60 -5l-46 -58q-21 -32 4 -58q10 -9 24 -11q66 -5 117 7q10 2 18 8z" />
    <glyph glyph-name="noon-arab" unicode="&#x646;" horiz-adv-x="1103" arabic-form="isolated" 
d="M1089 130v0v20q-2 19 -4 39q-20 206 -43.5 393.5l-23.5 187.5l-361 -68q10 -41 25 -157q31 -243 45 -364q2 -22 -12 -37.5t-35 -15.5h-241q-21 0 -35 15.5t-12 37.5q7 62 18 175q9 102 20 173q4 25 7 40l-358 80l-15 -132t-29 -299q-4 -43 -7 -85v0q0 -117 44 -212
t118 -152t163 -57h338q111 0 201 56.5t143.5 151.5t53.5 210zM563 782v0q0 53 -37.5 90.5t-90.5 37.5t-91 -37.5t-38 -90.5t38 -90.5t91 -37.5t90.5 37.5t37.5 90.5z" />
    <glyph glyph-name="heh-arab" unicode="&#x647;" horiz-adv-x="758" arabic-form="isolated" 
d="M356 1066v0q172 -147 245.5 -304.5t82.5 -302t-12 -251.5q-16 -80 -74 -132t-139 -58l-252 -17q-90 -4 -157 48.5t-85 140.5q-22 125 -12 217t39 155t62 101t58 55l25 17l-73 75zM418 413v0q30 30 2 64l-61 57q-33 24 -62 -5l-48 -60q-21 -34 5 -61q10 -9 25 -11
q68 -5 120 7q12 3 19 9z" />
    <glyph glyph-name="waw-arab" unicode="&#x648;" horiz-adv-x="781" arabic-form="isolated" 
d="M408 915v0q130 -3 203 -73.5t105 -162.5t38 -164.5l6 -72.5v-416q-18 -139 -82.5 -214.5t-138.5 -108.5t-121 -46l-30 -10l-57 -15l-94 316l42 9q98 18 155.5 33.5t81.5 25.5l24 10h-208q-67 0 -130 24q-87 37 -129 98.5t-53 125t-7 106.5q2 37 2 74q-1 50 7 126
t43 152.5t116 128.5t227 54zM473 420v0q28 29 1 61l-58 55q-32 24 -60 -4l-47 -58q-20 -33 5 -59q10 -9 24 -11q66 -4 117 7q10 3 18 9z" />
    <glyph glyph-name="alefmaksura-arab" unicode="&#x649;" horiz-adv-x="1084" arabic-form="isolated" 
d="M800 565v0l174 -178q112 -127 50 -284q-35 -82 -75 -127q-109 -108 -267 -133l-266 -39q-145 -17 -254.5 69t-120.5 231l-22 548l290 14l11 -440l33 -5.5t84 -7.5q93 -6 185 31l-71 94l-147 203q-60 87 -7 178q79 117 183.5 199.5t186 126.5l81.5 44l226 -361l-98 -50.5
t-176 -112.5z" />
    <glyph glyph-name="yeh-arab" unicode="&#x64a;" horiz-adv-x="1029" arabic-form="isolated" 
d="M788 478v0l174 -178q112 -127 50 -284q-35 -82 -75 -127q-109 -108 -267 -133l-266 -39q-145 -17 -254.5 69t-120.5 231l-22 548l290 14l11 -450l33 -5.5t84 -7.5q93 -6 185 31l-71 104l-147 203q-60 87 -7 178q79 117 183.5 199.5t186 126.5l81.5 44l226 -361l-98 -50.5
t-176 -112.5z" />
    <glyph glyph-name="peh-arab" unicode="&#x67e;" horiz-adv-x="1272" arabic-form="isolated" 
d="M1253 279v0q1 -117 -81.5 -198t-196.5 -81h-109h-346h-45h-79h-108q-115 0 -197.5 81t-81.5 198q10 190 34.5 339.5l24.5 149.5l361 -69q-29 -101 -47 -231q-2 -22 12 -37.5t35 -15.5h46h45h313q22 0 36 15.5t12 37.5q-30 190 -70 352l360 69l35.5 -206.5t46.5 -403.5z
M617 -190v0q0 -54 36 -91t90 -39q55 0 91.5 36t39.5 90q-1 55 -36.5 91.5t-90.5 39.5q-54 -1 -91 -36.5t-39 -90.5zM378 -186v0q0 -55 36 -91.5t90 -38.5q55 0 91.5 35.5t39.5 90.5q-1 55 -36.5 91.5t-90.5 38.5q-54 0 -91 -35.5t-39 -90.5zM501 -427v0q0 -54 35.5 -91
t90.5 -39q55 0 91.5 36t38.5 90q0 55 -35.5 91.5t-90.5 39.5q-55 -1 -91.5 -36.5t-38.5 -90.5z" />
    <glyph glyph-name="tcheh-arab" unicode="&#x686;" horiz-adv-x="838" arabic-form="isolated" 
d="M798 481v0l-104 350l-102 14q-91 68 -170.5 103.5t-145.5 47t-117.5 7t-87.5 -16.5t-55 -23l-19 -11l50 -375l124 15q41 5 90 -4t83 -31l52 -33q1 0 3 1l99 -332q38 31 65 59l211 205zM498 193v0l-99 332q-2 -1 -3 -1l1 -1l-57 -19q-106 -43 -188 -111q-84 -69 -126 -161
v-190h70q135 7 235 51t167 100v0zM647 -244v0l-327 262l178 175v0l-99 332q-2 -1 -3 -1q-29 -9 -56 -20q-106 -43 -188 -111q-84 -69 -126 -161q-62 -138 -32.5 -284.5t150.5 -253.5l255 -218zM644 102v0q5 -70 76 -78q71 5 78 76q-5 70 -76 78q-70 -5 -78 -76zM500 104v0
q6 -70 76 -78q71 6 79 76q-6 71 -76 78q-71 -5 -79 -76zM574 -40v0q6 -71 76 -79q71 6 79 76q-6 71 -76 79q-71 -6 -79 -76z" />
    <glyph glyph-name="jeh-arab" unicode="&#x698;" horiz-adv-x="527" arabic-form="isolated" 
d="M59 753v0q27 -97 38.5 -182t11 -158t-9.5 -134t-24 -110.5t-33.5 -88.5t-36.5 -68t-33 -47.5t-24.5 -27.5l-9.5 -9l324 -258q117 117 167.5 266.5t55.5 303.5t-13.5 285t-40.5 212.5l-22 81.5zM182 994v0q-15 53 -59 79t-97 14q-53 -15 -79 -59t-14 -97q15 -52 59 -78.5
t97 -14.5q53 15 79 59t14 97zM414 1053v0q-15 52 -59 78.5t-97 14.5q-53 -15 -79 -59t-14 -97q14 -53 58 -79t98 -14q52 15 78.5 59t14.5 97zM230 1263v0q-15 52 -59 78.5t-97 14.5q-53 -15 -79 -59t-14 -97q14 -53 58 -79t98 -14q52 15 78.5 59t14.5 97z" />
    <glyph glyph-name="gaf-arab" unicode="&#x6af;" horiz-adv-x="1292" arabic-form="isolated" 
d="M1149 492v0q26 -20 54 -45.5t48 -56t20 -63.5l1 -150q0 -63 -53.5 -120t-116.5 -57h-473h-43h-151h-108q-115 0 -197.5 81t-81.5 198q10 190 34.5 339.5l24.5 149.5l361 -68q-29 -102 -47 -231q-2 -22 12 -38t35 -16h119v0h132l-140 279q-47 95 18 178q95 104 206.5 179
t194.5 115.5l83 40.5l211 -481l-104.5 -36t-190.5 -86l137 -101q8 -5 15 -11v0v0zM734 1321v0q-67 -76 -122.5 -203t-106.5 -287l65 67.5t149 146t150 120.5z" />
    <glyph glyph-name="peh-arab.fina" unicode="&#x67e;" horiz-adv-x="1358" arabic-form="final" 
d="M1242 416v0h146v-416h-37q-107 0 -178 83q-84 -83 -199 -83h-109h-346h-45h-79h-108q-115 0 -197.5 81t-81.5 198q10 190 34.5 339.5l24.5 149.5l361 -69q-29 -101 -47 -231q-2 -22 12 -37.5t35 -15.5h46h45h313q22 0 36 15.5t12 37.5q-30 190 -70 352l360 69l26.5 -148
t45.5 -325zM591 -190v0q1 -54 36.5 -91t90.5 -39q54 0 91 36t39 90q0 55 -36 91.5t-90 39.5q-55 -1 -91.5 -36.5t-39.5 -90.5zM352 -186v0q1 -55 36.5 -91.5t90.5 -38.5q54 0 91 35.5t39 90.5q0 55 -36 91.5t-90 38.5q-55 0 -91.5 -35.5t-39.5 -90.5zM475 -427v0
q1 -54 36.5 -91t90.5 -39q54 0 91 36t39 90q0 55 -36 91.5t-90 39.5q-55 -1 -91.5 -36.5t-39.5 -90.5z" />
    <glyph glyph-name="peh-arab.init" unicode="&#x67e;" horiz-adv-x="476" arabic-form="initial" 
d="M471 280v0q1 -118 -81.5 -199t-197.5 -81h-108h-97v416h64q21 0 35 15.5t12 37.5q-29 190 -70 352l361 68l35 -206t47 -403zM258 -179v0q0 -54 36 -91t90 -39q55 0 91.5 36t39.5 90q-1 55 -36.5 91.5t-90.5 39.5q-54 -1 -91 -36.5t-39 -90.5zM19 -175v0q0 -55 36 -91.5
t90 -38.5q55 0 92 35.5t39 90.5q-1 55 -36.5 91.5t-90.5 38.5q-54 0 -91 -35.5t-39 -90.5zM142 -416v0q0 -54 36 -91t90 -39q55 0 91.5 36t39.5 90q-1 55 -36.5 91.5t-90.5 39.5q-54 -1 -91 -36.5t-39 -90.5z" />
    <glyph glyph-name="peh-arab.medi" unicode="&#x67e;" horiz-adv-x="475" arabic-form="medial" 
d="M488 416v0l3 -416h-62q-47 0 -86.5 17.5t-65.5 53.5q-32 -27 -60.5 -42.5t-63.5 -22t-88 -6.5h-82l5 416h24q25 1 38.5 20t12.5 45q-8 93 -19 178.5l-11 85.5l152 21.5t176 21.5q7 0 13 -7t14 -45t20 -128q9 -85 11 -164q3 -25 29 -28h40zM233 -179v0q1 -54 36.5 -91
t90.5 -39q54 0 91 36t39 90q0 55 -36 91.5t-90 39.5q-55 -1 -91.5 -36.5t-39.5 -90.5zM-6 -175v0q1 -55 36.5 -91.5t90.5 -38.5q54 0 91 35.5t39 90.5q0 55 -36 91.5t-90 38.5q-55 0 -91.5 -35.5t-39.5 -90.5zM117 -416v0q1 -54 36.5 -91t90.5 -39q54 0 91 36t39 90
q0 55 -36 91.5t-90 39.5q-55 -1 -91.5 -36.5t-39.5 -90.5z" />
    <glyph glyph-name="tcheh-arab.fina" unicode="&#x686;" horiz-adv-x="913" arabic-form="final" 
d="M755 416h142v-416h-107q-90 0 -155 59.5t-75 150.5q-27 -29 -65 -60v0q-67 -56 -167 -99.5t-235 -50.5h-70v189q42 92 126 161q82 69 188 112l57 19h-1l-52 33q-34 22 -83 31.5t-90 4.5l-124 -15l-50 374l27 16t78 29.5t123.5 11t164.5 -37.5t201 -117l158 -4l111 -308
q-18 -9 -102 -83v0zM644 -286l-248 -280l-255 218q-121 107 -150.5 253.5t32.5 283.5q42 92 126 161q82 69 188 112q27 11 56 19q1 1 3 1l99 -332v0l-178 -175l327 -261v0zM700 -83q7 65 72 70q65 -7 70 -72q-7 -65 -72 -70q-65 7 -70 72v0zM567 -81q8 65 73 70
q65 -7 70 -72q-7 -65 -73 -70q-65 7 -70 72v0zM636 -214q7 65 72 70q65 -7 70 -72q-7 -66 -72 -71q-65 8 -70 73v0z" />
    <glyph glyph-name="tcheh-arab.init" unicode="&#x686;" horiz-adv-x="816" arabic-form="initial" 
d="M839 499q-19 -9 -119 -98q-77 -70 -143 -151q-35 -45 -102 -100.5t-167 -99t-234 -50.5h-85v416h61q98 8 171 23t114 28.5l41 13.5l-87 58q-70 45 -153 36l-125 -15l-49 374l27 16t77.5 29.5t123.5 11t165 -37.5t201 -117l153 -5l130 -332v0zM361 -160v0q1 -54 36.5 -91
t89.5 -39q55 0 92 36t39 90q-1 55 -36.5 91.5t-89.5 39.5q-55 -1 -92 -36.5t-39 -90.5zM122 -156v0q1 -55 36.5 -91.5t90.5 -38.5q54 0 91 35.5t39 90.5q-1 55 -36.5 91.5t-89.5 38.5q-55 0 -92 -35.5t-39 -90.5zM245 -397v0q1 -54 36.5 -91t89.5 -39q55 0 92 36t39 90
q-1 55 -36.5 91.5t-90.5 39.5q-54 -1 -91 -36.5t-39 -90.5z" />
    <glyph glyph-name="tcheh-arab.medi" unicode="&#x686;" horiz-adv-x="808" arabic-form="medial" 
d="M812 499v0q-18 -8 -103 -83h113v-416h-77q-91 0 -155.5 60t-75.5 151q-41 -45 -106.5 -91.5t-155 -80t-205.5 -39.5h-69v416h45q98 8 171 23t114 28.5l41 13.5l-53 34q-35 22 -83.5 31t-89.5 5l-125 -15l-49 374l27 16t77.5 29.5t123.5 10.5t165 -37.5t201 -116.5l158 -4
zM401 -160v0q1 -54 36.5 -91t90.5 -39q54 0 91 36t39 90q0 55 -36 91.5t-90 39.5q-55 -1 -91.5 -36.5t-39.5 -90.5zM162 -156v0q1 -55 36.5 -91.5t90.5 -38.5q54 0 91 35.5t39 90.5q0 55 -36 91.5t-90 38.5q-55 0 -91.5 -35.5t-39.5 -90.5zM285 -397v0q1 -54 36.5 -91
t90.5 -39q54 0 91 36t39 90q0 55 -36 91.5t-90 39.5q-55 -1 -91.5 -36.5t-39.5 -90.5z" />
    <glyph glyph-name="jeh-arab.fina" unicode="&#x698;" horiz-adv-x="546" arabic-form="final" 
d="M482 416v0h82l-6 -416h-70q-12 0 -24 6q-1 0 -2 1q-22 -106 -70 -203.5t-129 -177.5l-324 258l27 30t61.5 92t59 160t22 233t-48.5 310l350 66l26 -101t43 -258h3zM182 924v0q-15 53 -59 79t-97 14q-53 -15 -79 -59t-14 -97q15 -52 59 -78.5t97 -14.5q53 15 79 59t14 97z
M414 983v0q-15 52 -59 78.5t-97 14.5q-53 -15 -79 -59t-14 -97q14 -53 58 -79t98 -14q52 15 78.5 59t14.5 97zM230 1193v0q-15 52 -59 78.5t-97 14.5q-53 -15 -79 -59t-14 -97q14 -53 58 -79t98 -14q52 15 78.5 59t14.5 97z" />
    <glyph glyph-name="keheh-arab.fina" unicode="&#x6a9;" horiz-adv-x="1276" arabic-form="final" 
d="M981 599v-1q22 -22 65.5 -87.5t68.5 -94.5h189v-416h-22q-48 0 -80 18.5t-62 51.5q-22 -32 -65 -51t-84 -19h-384h-44h-167h-108q-115 0 -197.5 81t-81.5 198q10 190 34.5 339.5l24.5 149.5l361 -68q-29 -102 -47 -231q-2 -22 12 -38t35 -16h135v0h132l-140 279
q-47 95 18 178q95 104 206.5 179t194.5 115.5l83 40.5l211 -481l-104.5 -36.5t-191.5 -86.5l-7 6q8 -5 15 -10z" />
    <glyph glyph-name="keheh-arab.init" unicode="&#x6a9;" horiz-adv-x="773" arabic-form="initial" 
d="M604 492v0q26 -19 58.5 -45t58 -56t25.5 -63v-174q0 -64 -45 -109t-109 -45h-611l1 416h191l-139 278q-47 95 18 178q95 105 206.5 180t194.5 115.5l83 40.5l211 -482l-104.5 -36t-190.5 -86l137 -100q8 -5 15 -11v-1v0z" />
    <glyph glyph-name="keheh-arab.medi" unicode="&#x6a9;" horiz-adv-x="739" arabic-form="medial" 
d="M-18 0v0v416h45v0h131l-140 279q-47 94 19 177q95 105 206.5 180t194.5 115.5l83 40.5l211 -482l-104.5 -36t-190.5 -86l-1 1q4 -3 8 -7v0q22 -22 65 -87.5t69 -94.5h188v-416h-21q-49 0 -80.5 19t-61.5 51q-23 -32 -66 -51t-83 -19h-472z" />
    <glyph glyph-name="gaf-arab.fina" unicode="&#x6af;" horiz-adv-x="1279" arabic-form="final" 
d="M703 1321v0q-67 -76 -122 -203t-106 -287l65 67.5t149 146t150 120.5zM981 599v-1q22 -22 65.5 -87.5t68.5 -94.5h189v-416h-22q-48 0 -80 18.5t-62 51.5q-22 -32 -65 -51t-84 -19h-384h-44h-167h-108q-115 0 -197.5 81t-81.5 198q10 190 34.5 339.5l24.5 149.5l361 -68
q-29 -102 -47 -231q-2 -22 12 -38t35 -16h135v0h132l-140 279q-47 95 18 178q95 104 206.5 179t194.5 115.5l83 40.5l211 -481l-104.5 -36.5t-191.5 -86.5l-7 6q8 -5 15 -10z" />
    <glyph glyph-name="gaf-arab.init" unicode="&#x6af;" horiz-adv-x="759" arabic-form="initial" 
d="M606 492v0q26 -19 59 -45t58 -56t25 -63v-174q0 -64 -45 -109t-109 -45h-611l1 416h192l-140 278q-47 95 18 178q95 105 206.5 180t194.5 115.5l83 40.5l211 -482l-104.5 -36t-190.5 -86l137 -100q8 -5 15 -11v-1v0zM204 1360v0q-67 -76 -122 -203t-106 -287l65 67.5
t149 146t150 120.5z" />
    <glyph glyph-name="gaf-arab.medi" unicode="&#x6af;" horiz-adv-x="734" arabic-form="medial" 
d="M156 1329v0q-67 -76 -122 -203t-106 -287l65 67.5t149 146t150 120.5zM-23 0v0v416h44v0h132l-140 279q-47 94 19 177q95 105 206 180t194 115.5l83 40.5l212 -482l-104.5 -36t-190.5 -86l-1 1q4 -3 7 -7h1q22 -22 65 -87.5t69 -94.5h188v-416h-21q-49 0 -80.5 19
t-62.5 51q-22 -32 -65 -51t-83 -19h-472z" />
    <glyph glyph-name="hehyehabove-arab.fina" unicode="&#x6c0;" horiz-adv-x="848" arabic-form="final" 
d="M723 416v0h122v-416h-47q-103 0 -173 78q-39 -36 -99 -59q-64 -22 -131 -20l-227 6q-68 3 -107 45.5t-57.5 104.5t-23.5 124t-3.5 104l1.5 42l2 52t16 127.5t49 150t100.5 123.5t169.5 49q83 -3 145 -25l249 48l13 -466v0q2 -39 1 -65v-3zM424 387v0q25 25 6 58l-45 60
q-27 29 -60 6l-60 -53q-27 -32 0 -62q7 -6 18 -9q50 -13 116 -10q15 1 25 10zM491 1204v0l37 -174h-1l1 -1l-274 -59l-50 -11l-39 181l41 9q-8 37 -8.5 71t1.5 56.5l2 22.5l3.5 9t14 24.5t31.5 35.5t55 41.5t84 43.5l76 -173l-65.5 -19t-82.5 -43z" />
    <glyph glyph-name="farsiyeh-arab.fina" unicode="&#x6cc;" horiz-adv-x="997" arabic-form="final" 
d="M1015 416v0v0v0v-416h-65q34 -99 -1.5 -178t-113.5 -138q-69 -56 -153 -74t-173.5 -16.5t-173.5 3.5q-181 16 -250 105.5t-69.5 220.5t25 271t34.5 256l308 -31l-68 -420q43 -19 106.5 -31t135.5 38l4 -8l-115 156l97 262h472z" />
    <glyph glyph-name="farsiyeh-arab.init" unicode="&#x6cc;" horiz-adv-x="485" arabic-form="initial" 
d="M465 280v0q1 -118 -81.5 -199t-197.5 -81h-108h-97v416h64q21 0 35 15.5t12 37.5q-29 190 -70 352l361 68l35 -206t47 -403zM243 -181v0q-4 55 -41.5 89.5t-92.5 34.5q-54 -4 -89 -41.5t-34 -92.5q4 -54 41.5 -89t91.5 -34q55 4 90 41.5t34 91.5zM482 -171v0
q-4 54 -41.5 89t-92.5 34q-54 -4 -89 -41.5t-34 -91.5q3 -55 41 -89.5t92 -34.5q55 4 89.5 41.5t34.5 92.5z" />
    <glyph glyph-name="farsiyeh-arab.medi" unicode="&#x6cc;" horiz-adv-x="477" arabic-form="medial" 
d="M489 416v0l3 -416h-62q-47 0 -86.5 17.5t-65.5 53.5q-32 -27 -60.5 -42.5t-63.5 -22t-88 -6.5h-82l5 416h24q25 1 38.5 20t12.5 45q-8 93 -19 178.5l-11 85.5l152 21.5t176 21.5q7 0 13 -7t14 -45t20 -128q9 -85 11 -164q3 -25 29 -28h40zM255 -181v0q-3 55 -40.5 89.5
t-92.5 34.5q-54 -4 -89 -41.5t-34 -92.5q3 -54 40.5 -89t92.5 -34q54 4 89 41.5t34 91.5zM494 -181v0q-3 54 -41 89t-92 34q-55 -4 -89.5 -41.5t-34.5 -91.5q4 -55 41.5 -89.5t92.5 -34.5q54 4 89 41.5t34 92.5z" />
    <glyph glyph-name="alefmaddaabove-arab.fina" unicode="&#x622;" horiz-adv-x="507" arabic-form="final" 
d="M404 486v0q0 -30 19.5 -50t47.5 -20h62v-416h-133v0h-38q-139 3 -233.5 93t-103.5 229l14 800l377 47zM-20 1190v0l15 190q6 50 42 85q16 15 40 25t57 8.5t77 -18.5q66 -26 114 -20.5t77.5 25.5t42.5 37l10 1l-13 -266z" />
    <glyph glyph-name="alefhamzaabove-arab.fina" unicode="&#x623;" horiz-adv-x="498" arabic-form="final" 
d="M400 486v0q0 -30 19.5 -50t47.5 -20h61v-416h-132h-1h-37q-139 3 -233.5 93t-103.5 229l14 800l377 47zM332 1440v0l39 -174h-1h2l-273 -64l-50 -12l-42 181l41 9q-8 37 -9.5 71t0.5 56.5l2 22.5l3 9t13.5 24.5t31 36t54 42.5t83.5 45l79 -172l-65.5 -20t-81.5 -44z" />
    <glyph glyph-name="wawhamzaabove-arab.fina" unicode="&#x624;" horiz-adv-x="793" arabic-form="final" 
d="M761 416v0h37l-6 -416h-31q-18 -140 -82.5 -215t-138.5 -108t-121 -46l-30 -10l-57 -16l-94 316l42 9q98 18 155.5 34t81.5 26l24 10h-208q-67 0 -130 24q-87 37 -129 98.5t-53 125t-7 106.5q2 37 2 74q-1 49 7 125t43 153t116 129t227 54q130 -4 203 -74t104.5 -162
t38 -164t6.5 -73zM489 389v0q28 28 1 61l-58 55q-32 24 -60 -5l-47 -58q-20 -32 5 -58q10 -9 24 -11q66 -5 117 7q10 2 18 9zM499 1181v0l39 -174h-1h1l-272 -64l-50 -12l-42 181l40 9q-8 37 -9 71t0.5 56.5l1.5 22.5l3.5 9t14 24.5t31 36t54 42.5t83.5 45l79 -172
l-65.5 -20t-81.5 -44z" />
    <glyph glyph-name="alefhamzabelow-arab.fina" unicode="&#x625;" horiz-adv-x="487" arabic-form="final" 
d="M392 486v0q0 -30 19.5 -50t47.5 -20h61v-416h-132v0h-38q-139 3 -233.5 93t-103.5 229l14 800l377 47zM450 -290v0l39 -174h-1h2l-273 -64l-50 -12l-42 181l41 9q-8 37 -9.5 71t0.5 56.5l2 22.5l3 9t13.5 24.5t31 36t54 42.5t84.5 45l78 -172l-65 -20t-82 -44z" />
    <glyph glyph-name="yehhamzaabove-arab.fina" unicode="&#x626;" horiz-adv-x="827" arabic-form="final" 
d="M374 769v0l40 -174h-1h1l-272 -64l-50 -12l-42 181l40 9q-8 37 -9 71t0.5 56.5l1.5 22.5l3.5 9t14 24.5t31 36t54 42.5t83.5 45l79 -172l-65.5 -20t-81.5 -44zM850 416v0v0v0v-416h-65q34 -99 -1.5 -178t-113.5 -138q-69 -56 -153 -74t-173.5 -16.5t-173.5 3.5
q-181 16 -250 105.5t-69.5 220.5t25 271t34.5 256l308 -31l-68 -420q43 -19 106.5 -31t135.5 38l4 -8l-115 156l97 262h472z" />
    <glyph glyph-name="yehhamzaabove-arab.init" unicode="&#x626;" horiz-adv-x="479" arabic-form="initial" 
d="M471 280v0q1 -118 -81.5 -199t-197.5 -81h-108h-97v416h64q21 0 35 15.5t12 37.5q-29 190 -70 352l361 68l35 -206t47 -403zM316 1150v0l39 -174h-1h1l-272 -64l-50 -12l-42 181l41 9q-8 37 -9.5 71t0 56.5l1.5 22.5l3.5 9t14 24.5t31 36t54 42.5t83.5 45l79 -172
l-65.5 -20t-81.5 -44z" />
    <glyph glyph-name="yehhamzaabove-arab.medi" unicode="&#x626;" horiz-adv-x="473" arabic-form="medial" 
d="M490 416v0l2 -416h-62q-47 0 -86.5 17.5t-64.5 53.5q-32 -27 -60.5 -42.5t-63.5 -22t-88 -6.5h-82l4 416h24q26 1 39.5 20t11.5 45q-7 93 -18.5 178.5l-11.5 85.5l152.5 21.5t176.5 21.5q7 0 13 -7t13.5 -45t20.5 -128q9 -85 10 -164q4 -25 29 -28h41zM299 1050v0
l39 -174h-1h2l-273 -64l-50 -12l-42 181l41 9q-8 37 -9.5 71t0.5 56.5l2 22.5l3 9t13.5 24.5t31 36t54 42.5t83.5 45l79 -172l-65.5 -20t-81.5 -44z" />
    <glyph glyph-name="alef-arab.fina" unicode="&#x627;" arabic-form="final" 
d="M404 486v0q0 -30 19.5 -50t47.5 -20h61v-416h-132v0h-38q-139 3 -233.5 93t-103.5 229l14 800l377 47z" />
    <glyph glyph-name="beh-arab.fina" unicode="&#x628;" horiz-adv-x="1365" arabic-form="final" 
d="M1241 416v0h146v-416h-37q-107 0 -178 83q-84 -83 -199 -83h-109h-346h-45h-79h-108q-115 0 -197.5 81t-81.5 198q10 190 34.5 339.5l24.5 149.5l361 -69q-29 -101 -47 -231q-2 -22 12 -37.5t35 -15.5h46h45h313q22 0 36 15.5t12 37.5q-25 185 -60 342l360 69
l21.5 -143.5t40.5 -319.5zM500 -190v0q1 -54 36.5 -91t90.5 -39q54 0 91 36t39 90q0 55 -36 91.5t-90 39.5q-55 -1 -91.5 -36.5t-39.5 -90.5z" />
    <glyph glyph-name="beh-arab.init" unicode="&#x628;" horiz-adv-x="472" arabic-form="initial" 
d="M466 280v0q1 -118 -81.5 -199t-197.5 -81h-108h-97v416h64q21 0 35 15.5t12 37.5q-29 190 -70 352l361 68l35 -206t47 -403zM361 -201v0q8 54 -21 96t-82 53q-54 9 -96.5 -20.5t-53.5 -82.5q-8 -54 21 -96t82 -54q54 -8 96.5 21t53.5 83z" />
    <glyph glyph-name="beh-arab.medi" unicode="&#x628;" horiz-adv-x="476" arabic-form="medial" 
d="M488 416v0l3 -416h-62q-47 0 -86.5 17.5t-65.5 53.5q-32 -27 -60.5 -42.5t-63.5 -22t-88 -6.5h-82l5 416h24q25 1 38.5 20t12.5 45q-8 93 -19 178.5l-11 85.5l152 21.5t176 21.5q7 0 13 -7t14 -45t20 -128q9 -85 11 -164q3 -25 29 -28h40zM371 -201v0q9 54 -20.5 96
t-82.5 53q-54 9 -96 -20.5t-53 -82.5q-9 -54 20 -96t83 -54q54 -8 96 21t53 83z" />
    <glyph glyph-name="teh-arab.fina" unicode="&#x62a;" horiz-adv-x="1363" arabic-form="final" 
d="M1242 416v0h146v-416h-37q-107 0 -178 83q-84 -83 -199 -83h-109h-346h-45h-79h-108q-115 0 -197.5 81t-81.5 198q10 190 34.5 339.5l24.5 149.5l361 -69q-29 -101 -47 -231q-2 -22 12 -37.5t35 -15.5h46h45h313q22 0 36 15.5t12 37.5q-30 190 -70 352l360 69l26.5 -148
t45.5 -325zM512 904v0q-3 55 -40.5 89.5t-92.5 34.5q-54 -4 -89 -41.5t-34 -92.5q3 -54 40.5 -89t92.5 -34q54 4 89 41.5t34 91.5zM751 914v0q-3 54 -41 89t-92 34q-55 -4 -89.5 -41.5t-34.5 -91.5q4 -55 41.5 -89.5t92.5 -34.5q54 4 89 41.5t34 92.5z" />
    <glyph glyph-name="teh-arab.init" unicode="&#x62a;" horiz-adv-x="477" arabic-form="initial" 
d="M452 280v0q1 -118 -81.5 -199t-196.5 -81h-109h-97v416h64q22 0 36 15.5t12 37.5q-30 190 -70 352l360 68l35.5 -206t46.5 -403zM173 1057v0q-15 53 -59 79t-98 14q-52 -15 -78 -59.5t-14 -97.5q15 -52 59 -78t97 -14q53 15 79 59t14 97zM404 1117v0q-15 52 -59 78
t-97 14q-53 -15 -79 -59t-13 -97q14 -53 58.5 -79t97.5 -14q52 15 78.5 59.5t13.5 97.5z" />
    <glyph glyph-name="teh-arab.medi" unicode="&#x62a;" horiz-adv-x="475" arabic-form="medial" 
d="M482 416v0l2 -416h-62q-47 0 -86.5 17.5t-64.5 53.5q-32 -27 -60.5 -42.5t-63.5 -22t-88 -6.5h-83l5 416h24q25 1 39 20t12 45q-7 93 -18.5 178.5l-11.5 85.5l152.5 21.5t176.5 21.5q7 0 12.5 -7t13.5 -45t21 -128q8 -85 10 -164q4 -25 29 -28h41zM195 965v0
q-9 54 -50 85t-95 25q-54 -9 -85 -49.5t-25 -94.5q9 -54 50 -85t95 -25q54 8 85 49t25 95zM431 998v0q-8 53 -49 84t-95 25q-54 -8 -85 -49t-25 -95q9 -54 49.5 -85t95.5 -25q53 9 84.5 49.5t24.5 95.5z" />
    <glyph glyph-name="theh-arab.fina" unicode="&#x62b;" horiz-adv-x="1368" arabic-form="final" 
d="M1241 416v0h146v-416h-37q-107 0 -178 83q-84 -83 -199 -83h-109h-346h-45h-79h-108q-115 0 -197.5 81t-81.5 198q10 190 34.5 339.5l24.5 149.5l361 -69q-29 -101 -47 -231q-2 -22 12 -37.5t35 -15.5h46h45h313q22 0 36 15.5t12 37.5q-30 190 -70 352l360 69l26.5 -148
t45.5 -325zM507 890q3 -55 39.5 -90.5t91.5 -35.5q54 2 90 38.5t36 91.5q-2 55 -39 90.5t-91 35.5q-55 -2 -90.5 -38.5t-36.5 -91.5v0zM268 886q3 -54 39.5 -90t91.5 -36q54 2 90 39t36 91q-2 55 -39 90.5t-91 36.5q-55 -3 -90.5 -39.5t-36.5 -91.5v0zM391 1127
q3 -55 39.5 -90.5t91.5 -35.5q54 2 90 38.5t36 91.5q-2 55 -39 90.5t-91 35.5q-55 -2 -90.5 -38.5t-36.5 -91.5v0z" />
    <glyph glyph-name="theh-arab.init" unicode="&#x62b;" horiz-adv-x="473" arabic-form="initial" 
d="M467 280v0q1 -118 -81.5 -199t-197.5 -81h-108h-97v416h64q21 0 35 15.5t12 37.5q-29 190 -70 352l361 68l35 -206t47 -403zM180 1062q2 -55 39 -90.5t91 -35.5q55 2 90.5 38.5t36.5 91.5q-2 55 -39 90.5t-92 35.5q-54 -2 -89.5 -38.5t-36.5 -91.5v0zM-59 1058
q2 -54 39 -90t91 -36q55 2 90.5 39t36.5 91q-2 55 -39 90.5t-92 36.5q-54 -3 -89.5 -39.5t-36.5 -91.5v0zM64 1299q2 -55 39 -90.5t91 -35.5q55 2 90.5 38.5t36.5 91.5q-2 55 -39 90.5t-92 35.5q-54 -2 -90 -38.5t-36 -91.5v0zM180 1062q2 -55 39 -90.5t91 -35.5
q55 2 90.5 38.5t36.5 91.5q-2 55 -39 90.5t-92 35.5q-54 -2 -89.5 -38.5t-36.5 -91.5v0zM-59 1058q2 -54 39 -90t91 -36q55 2 90.5 39t36.5 91q-2 55 -39 90.5t-92 36.5q-54 -3 -89.5 -39.5t-36.5 -91.5v0zM64 1299q2 -55 39 -90.5t91 -35.5q55 2 90.5 38.5t36.5 91.5
q-2 55 -39 90.5t-92 35.5q-54 -2 -90 -38.5t-36 -91.5v0z" />
    <glyph glyph-name="theh-arab.medi" unicode="&#x62b;" horiz-adv-x="480" arabic-form="medial" 
d="M491 416v0l2 -416h-62q-47 0 -86.5 17.5t-64.5 53.5q-32 -27 -60.5 -42.5t-63.5 -22t-88 -6.5h-82l4 416h24q25 1 39 20t12 45q-7 93 -18.5 178.5l-11.5 85.5l152.5 21.5t176.5 21.5q7 0 13 -7t13.5 -45t20.5 -128q9 -85 10 -164q4 -25 29 -28h41zM192 968
q2 -55 39 -90.5t91 -35.5q55 2 90.5 38.5t36.5 91.5q-2 55 -39 90.5t-92 35.5q-54 -2 -89.5 -38.5t-36.5 -91.5v0zM-47 964q2 -54 39 -90t91 -36q55 2 90.5 39t36.5 91q-2 55 -39 90.5t-92 36.5q-54 -3 -89.5 -39.5t-36.5 -91.5v0zM76 1205q2 -55 39 -90.5t91 -35.5
q55 2 90.5 38.5t36.5 91.5q-2 55 -39 90.5t-92 35.5q-54 -2 -90 -38.5t-36 -91.5v0z" />
    <glyph glyph-name="jeem-arab.fina" unicode="&#x62c;" horiz-adv-x="913" arabic-form="final" 
d="M938 0h-107q-90 0 -155 59.5t-75 150.5q-62 -68 -175.5 -134t-291.5 -76h-70v189q43 91 125.5 161t188.5 112l57 19h-1q-48 33 -88.5 52t-108.5 19l-28 -2l-125 -15l-49 374l24 14t69 28.5t110 14.5q75 0 173.5 -33t217.5 -122l158 -4l111 -308q-17 -9 -103 -83h143v-416
zM760 -275q-53 0 -90.5 37.5t-37.5 90.5q0 54 37.5 91.5t90.5 37.5t90.5 -37.5t37.5 -91.5q0 -53 -37.5 -90.5t-90.5 -37.5zM437 -566l-256 218q-79 69 -119 159.5t-40 185.5q0 102 43.5 194.5t124.5 158.5q49 40 111.5 76t132.5 55q2 1 3 1l99 -332l-178 -175l326 -261z
" />
    <glyph glyph-name="jeem-arab.init" unicode="&#x62c;" horiz-adv-x="809" arabic-form="initial" 
d="M832 499q-19 -9 -119 -98q-77 -70 -143 -151q-35 -45 -102 -100.5t-167 -99t-234 -50.5h-85v416h61q98 8 171 23t114 28.5l41 13.5l-87 58q-70 45 -153 36l-125 -15l-49 374l27 16t77.5 29.5t123.5 11t165 -37.5t201 -117l153 -5l130 -332v0zM490 -181v0q8 54 -21 96
t-82 53q-54 9 -96.5 -20.5t-53.5 -82.5q-8 -54 21 -96t83 -54q54 -8 96 21t53 83z" />
    <glyph glyph-name="jeem-arab.medi" unicode="&#x62c;" horiz-adv-x="811" arabic-form="medial" 
d="M815 499v0q-18 -8 -103 -83h113v-416h-77q-91 0 -155.5 60t-75.5 151q-41 -45 -106.5 -91.5t-155 -80t-205.5 -39.5h-69v416h45q98 8 171 23t114 28.5l41 13.5l-53 34q-35 22 -83.5 31t-89.5 5l-125 -15l-49 374l27 16t77.5 29.5t123.5 10.5t165 -37.5t201 -116.5l158 -4
zM540 -181v0q9 54 -20.5 96t-82.5 53q-54 9 -96 -20.5t-53 -82.5q-9 -54 20 -96t83 -54q54 -8 96 21t53 83z" />
    <glyph glyph-name="hah-arab.fina" unicode="&#x62d;" horiz-adv-x="917" arabic-form="final" 
d="M792 416h142v-416h-107q-90 0 -155 59.5t-75 150.5q-27 -29 -65 -60v0q-67 -56 -167 -99.5t-235 -50.5h-70v189q42 92 126 161q82 69 188 112l57 19h-1l-52 33q-34 22 -83 31.5t-90 4.5l-124 -15l-50 374l27 16t78 29.5t123.5 11t164.5 -37.5t201 -117l158 -4l111 -308
q-18 -9 -102 -83v0zM681 -286l-248 -280l-255 218q-121 107 -150.5 253.5t32.5 283.5q42 92 126 161q82 69 188 112q27 11 56 19q1 1 3 1l99 -332v0l-178 -175l327 -261v0z" />
    <glyph glyph-name="hah-arab.init" unicode="&#x62d;" horiz-adv-x="823" arabic-form="initial" 
d="M841 499q-19 -9 -119 -98q-77 -70 -143 -151q-35 -45 -102 -100.5t-167 -99t-234 -50.5h-85v416h61q98 8 171 23t114 28.5l41 13.5l-87 58q-70 45 -153 36l-125 -15l-49 374l27 16t77.5 29.5t123.5 11t165 -37.5t201 -117l153 -5l130 -332v0z" />
    <glyph glyph-name="hah-arab.medi" unicode="&#x62d;" horiz-adv-x="812" arabic-form="medial" 
d="M821 499v0q-18 -8 -103 -83h113v-416h-77q-91 0 -155.5 60t-75.5 151q-41 -45 -106.5 -91.5t-155 -80t-205.5 -39.5h-69v416h45q98 8 171 23t114 28.5l41 13.5l-53 34q-35 22 -83.5 31t-89.5 5l-125 -15l-49 374l27 16t77.5 29.5t123.5 10.5t165 -37.5t201 -116.5l158 -4
z" />
    <glyph glyph-name="khah-arab.fina" unicode="&#x62e;" horiz-adv-x="916" arabic-form="final" 
d="M754 1068v0v0q0 54 -37.5 91.5t-90.5 37.5t-90.5 -37.5t-37.5 -91.5q0 -53 37.5 -90.5t90.5 -37.5t90.5 37.5t37.5 90.5zM525 150l-178 -175l327 -261l-248 -280l-255 218q-121 107 -150.5 253.5t32.5 283.5q42 92 126 161q82 69 188 112q27 11 56 19l-52 33
q-34 22 -83 31.5t-90 4.5l-124 -15l-50 374h1q0 1 1 1l25 15q27 16 78 29.5t123.5 11t164.5 -37.5t201 -117l158 -4l111 -308q-18 -9 -102 -83h142v-416h-107q-90 0 -155 59.5t-75 150.5q-27 -29 -65 -60z" />
    <glyph glyph-name="khah-arab.init" unicode="&#x62e;" horiz-adv-x="825" arabic-form="initial" 
d="M841 499q-19 -9 -119 -98q-77 -70 -143 -151q-35 -45 -102 -100.5t-167 -99t-234 -50.5h-85v416h61q98 8 171 23t114 28.5l41 13.5l-87 58q-70 45 -153 36l-125 -15l-49 374l27 16t77.5 29.5t123.5 11t165 -37.5t201 -117l153 -5l130 -332v0zM401 1161v0q0 53 -37.5 90.5
t-90.5 37.5q-54 0 -91.5 -37.5t-37.5 -90.5t37.5 -90.5t91.5 -37.5q53 0 90.5 37.5t37.5 90.5z" />
    <glyph glyph-name="khah-arab.medi" unicode="&#x62e;" horiz-adv-x="817" arabic-form="medial" 
d="M821 499v0q-18 -8 -103 -83h103v-416h-67q-91 0 -155.5 60t-75.5 151q-41 -45 -106.5 -91.5t-155 -80t-205.5 -39.5h-69v416h45q98 8 171 23t114 28.5l41 13.5l-53 34q-35 22 -83.5 31t-89.5 5l-125 -15l-49 374l27 16t77.5 29.5t123.5 10.5t165 -37.5t201 -116.5l158 -4
zM448 1131v0q0 53 -37.5 90.5t-90.5 37.5t-91 -37.5t-38 -90.5t38 -90.5t91 -37.5t90.5 37.5t37.5 90.5z" />
    <glyph glyph-name="dal-arab.fina" unicode="&#x62f;" horiz-adv-x="736" arabic-form="final" 
d="M681 416v0h74v-416h-45q-53 0 -104 27q-39 22 -86 57q-96 -50 -208.5 -67t-196.5 -16l-84 1l-2 400l374 113q-9 13 -32 23t-55.5 17t-68.5 11.5t-71 7t-64 4t-46 2l-17 0.5l84 417q151 -30 247 -71.5t148.5 -82t72 -68.5l19.5 -28l15 -47.5t30 -122.5t16 -161z" />
    <glyph glyph-name="thal-arab.fina" unicode="&#x630;" horiz-adv-x="717" arabic-form="final" 
d="M668 416v0h74v-416h-45q-53 0 -104 27q-39 22 -86 57q-96 -50 -208.5 -67t-196.5 -16l-84 1l-2 400l374 113q-9 13 -32 23t-55.5 17t-68.5 11.5t-71 7t-64 4t-46 2l-17 0.5l84 417q151 -30 247 -71.5t148.5 -82t72 -68.5l19.5 -28l15 -47.5t30 -122.5t16 -161zM392 1152
v0q0 53 -37.5 90.5t-91.5 37.5q-53 0 -90.5 -37.5t-37.5 -90.5t37.5 -90.5t90.5 -37.5q54 0 91.5 37.5t37.5 90.5z" />
    <glyph glyph-name="reh-arab.fina" unicode="&#x631;" horiz-adv-x="551" arabic-form="final" 
d="M496 416v0h82l-6 -416h-70q-12 0 -24 6q-1 0 -2 1q-21 -106 -69.5 -203.5t-129.5 -177.5l-324 258l27.5 30t61.5 92t58.5 160t22 233t-48.5 310l350 66l26 -101t43 -258h3z" />
    <glyph glyph-name="zain-arab.fina" unicode="&#x632;" horiz-adv-x="549" arabic-form="final" 
d="M496 416v0h82l-6 -416h-70q-12 0 -24 6q-1 0 -2 1q-21 -106 -69.5 -203.5t-129.5 -177.5l-324 258l27.5 30t61.5 92t58.5 160t22 233t-48.5 310l350 66l26 -101t43 -258h3zM280 948v0q0 53 -37.5 90.5t-90.5 37.5t-90.5 -37.5t-37.5 -90.5t37.5 -90.5t90.5 -37.5
t90.5 37.5t37.5 90.5z" />
    <glyph glyph-name="seen-arab.fina" unicode="&#x633;" horiz-adv-x="1985" arabic-form="final" 
d="M2005 416v0l2 -416l-62 -1q-47 0 -86.5 18t-64.5 53q-32 -27 -60.5 -42.5t-63.5 -21.5t-88 -6h-71h-21q-47 0 -86.5 17.5t-64.5 53.5q-32 -27 -60.5 -42.5t-63.5 -22t-88 -6.5h-55q-38 -133 -141.5 -218t-241.5 -85h-338q-89 0 -163 57t-118 152t-44 212v0q3 42 7 85
q14 167 29 299l15 132l358 -80q-3 -15 -7 -40q-11 -71 -20 -173q-11 -113 -18 -175q-2 -22 12 -37.5t35 -15.5h241q21 0 35 15.5t12 37.5q-14 122 -45 364q-15 116 -25 157l361 68l42 -339h15q25 1 39 20t12 45q-7 91 -17 157l-10 66l152.5 21.5t176.5 21.5q7 0 13 -5.5
t13.5 -43t20.5 -126.5q7 -67 7 -128q4 -26 29 -28l12 -1h7q25 2 39 21t12 45q-7 93 -18.5 178l-11.5 85l152.5 21.5t176.5 21.5q7 0 12.5 -6.5t13.5 -44.5t21 -128q9 -85 10 -165q4 -25 29 -27h41z" />
    <glyph glyph-name="seen-arab.init" unicode="&#x633;" horiz-adv-x="1376" arabic-form="initial" 
d="M1365 280v0v0q1 -118 -81.5 -199t-197.5 -81h-108h-97v417h64q21 0 35 15t12 37q-29 190 -70 352l361 68l35 -206t47 -403zM932 417v0v0l2 -417h-34q-47 0 -86.5 18t-65.5 54q-31 -28 -60 -43.5t-64 -21.5t-88 -6h-82l5 415l24 1q25 1 38.5 20t12.5 45q-7 90 -17 156.5
l-10 66.5l152.5 21.5t175.5 21.5q8 0 13.5 -6t13.5 -43t21 -127q7 -66 7 -127q3 -26 29 -28h13zM496 416v0v0l2 -415l-62 -1q-47 0 -86.5 17.5t-64.5 53.5q-32 -27 -61 -42.5t-64 -22t-88 -6.5h-82v416h29q25 1 38.5 20t12.5 45q-7 93 -18.5 178.5l-11.5 85.5l152.5 21.5
t175.5 21.5q7 0 13 -7t14 -45t20 -128q9 -84 11 -164q3 -25 29 -28h41z" />
    <glyph glyph-name="seen-arab.medi" unicode="&#x633;" horiz-adv-x="1392" arabic-form="medial" 
d="M486 1l-62 -1q-47 0 -86.5 17.5t-64.5 53.5q-32 -27 -61 -42.5t-63.5 -22t-87.5 -6.5h-83v416h29q25 1 38.5 20t12.5 45q-7 94 -18 179h-1v5q0 2 -1 3v6l-1 1v4q-1 4 -1 8v2q-1 4 -1 7v1q-1 1 -1 3v2q0 2 -1 4v5q-1 1 -1 2q-3 25 -4 31v1q8 1 153 22q152 21 175 21h1
q7 2 13 -6.5t13.5 -46.5t19.5 -126q8 -65 10 -133q0 -17 1 -32q3 -25 29 -27h28q25 1 38.5 20t12.5 45q-7 91 -17 157v1q0 2 -1 3v6h-1v6l-1 1v4q-6 38 -7 44v1q8 1 153 22q152 21 175 21h2q6 2 12 -6t13.5 -45.5t20.5 -123.5q6 -50 6 -89q0 -18 1 -39q3 -26 29 -28l13 -1
h14q25 2 38.5 21t12.5 45q-8 93 -19 178v2q-1 6 -2 11v6q-1 0 -1 1v6l-1 1v7q0 1 -1 1v1q-5 41 -6 48v1q8 1 153 22q152 21 175 21h1q7 2 12.5 -6.5t13.5 -46.5t20 -126q8 -65 10 -134q0 -17 1 -32q3 -25 29 -27h40l3 -416h-62q-47 0 -86.5 18t-65.5 53q-32 -27 -60.5 -42.5
t-63.5 -21.5t-88 -6h-99q-47 0 -86.5 17.5t-65.5 53.5q-31 -27 -60 -42.5t-64 -22t-88 -6.5h-38z" />
    <glyph glyph-name="sheen-arab.fina" unicode="&#x634;" horiz-adv-x="1980" arabic-form="final" 
d="M1997 416v0l2 -416l-62 -1q-47 0 -86.5 18t-64.5 53q-32 -27 -60.5 -42.5t-63.5 -21.5t-88 -6h-71h-21q-47 0 -86.5 17.5t-64.5 53.5q-32 -27 -60.5 -42.5t-63.5 -22t-88 -6.5h-55q-38 -133 -141.5 -218t-241.5 -85h-338q-89 0 -163 57t-118 152t-44 212v0q3 42 7 85
q14 167 29 299l15 132l358 -80q-3 -15 -7 -40q-11 -71 -20 -173q-11 -113 -18 -175q-2 -22 12 -37.5t35 -15.5h241q21 0 35 15.5t12 37.5q-14 122 -45 364q-15 116 -25 157l361 68l42 -339h15q25 1 39 20t12 45q-7 91 -17 157l-10 66l152.5 21.5t176.5 21.5q7 0 13 -5.5
t13.5 -43t20.5 -126.5q7 -67 7 -128q4 -26 29 -28l12 -1h7q25 2 39 21t12 45q-7 93 -18.5 178l-11.5 85l152.5 21.5t176.5 21.5q7 0 12.5 -6.5t13.5 -44.5t21 -128q9 -85 10 -165q4 -25 29 -27h41zM1104 973q3 -55 39.5 -90.5t91.5 -35.5q54 2 90 38.5t36 91.5
q-2 55 -39 90.5t-91 35.5q-55 -2 -90.5 -38.5t-36.5 -91.5v0zM865 969q3 -54 39.5 -90t91.5 -36q54 2 90 39t36 91q-2 55 -39 90.5t-91 36.5q-55 -3 -90.5 -39.5t-36.5 -91.5v0zM988 1210q3 -55 39.5 -90.5t91.5 -35.5q54 2 90 38.5t36 91.5q-2 55 -39 90.5t-91 35.5
q-55 -2 -90.5 -38.5t-36.5 -91.5v0zM988 1210q3 -55 39.5 -90.5t91.5 -35.5q54 2 90 38.5t36 91.5q-2 55 -39 90.5t-91 35.5q-55 -2 -90.5 -38.5t-36.5 -91.5v0z" />
    <glyph glyph-name="sheen-arab.init" unicode="&#x634;" horiz-adv-x="1370" arabic-form="initial" 
d="M1356 280v0v0q1 -118 -81.5 -199t-197.5 -81h-108h-97v417h64q21 0 35 15t12 37q-29 190 -70 352l361 68l35 -206t47 -403zM923 417v0v0l2 -417h-34q-47 0 -86.5 18t-65.5 54q-31 -28 -60 -43.5t-64 -21.5t-88 -6h-82l5 415l24 1q25 1 38.5 20t12.5 45q-7 90 -17 156.5
l-10 66.5l152.5 21.5t175.5 21.5q8 0 13.5 -6t13.5 -43t21 -127q7 -66 7 -127q3 -26 29 -28h13zM487 416v0v0l2 -415l-62 -1q-47 0 -86.5 17.5t-64.5 53.5q-32 -27 -61 -42.5t-64 -22t-88 -6.5h-82v416h29q25 1 38.5 20t12.5 45q-7 93 -18.5 178.5l-11.5 85.5l152.5 21.5
t175.5 21.5q7 0 13 -7t14 -45t20 -128q9 -84 11 -164q3 -25 29 -28h41zM583 983q3 -55 39.5 -90.5t91.5 -35.5q54 2 90 38.5t36 91.5q-2 55 -39 90.5t-91 35.5q-55 -2 -90.5 -38.5t-36.5 -91.5v0zM344 979q3 -54 39.5 -90t91.5 -36q54 2 90 39t36 91q-2 55 -39 90.5
t-91 36.5q-55 -3 -90.5 -39.5t-36.5 -91.5v0zM467 1220q3 -55 39.5 -90.5t91.5 -35.5q54 2 90 38.5t36 91.5q-2 55 -39 90.5t-91 35.5q-55 -2 -90.5 -38.5t-36.5 -91.5v0zM583 983q3 -55 39.5 -90.5t91.5 -35.5q54 2 90 38.5t36 91.5q-2 55 -39 90.5t-91 35.5
q-55 -2 -90.5 -38.5t-36.5 -91.5v0zM344 979q3 -54 39.5 -90t91.5 -36q54 2 90 39t36 91q-2 55 -39 90.5t-91 36.5q-55 -3 -90.5 -39.5t-36.5 -91.5v0zM467 1220q3 -55 39.5 -90.5t91.5 -35.5q54 2 90 38.5t36 91.5q-2 55 -39 90.5t-91 35.5q-55 -2 -90.5 -38.5t-36.5 -91.5
v0z" />
    <glyph glyph-name="sheen-arab.medi" unicode="&#x634;" horiz-adv-x="1391" arabic-form="medial" 
d="M620 973q2 -55 39 -90.5t91 -35.5q55 2 90.5 38.5t36.5 91.5q-2 55 -39 90.5t-92 35.5q-54 -2 -89.5 -38.5t-36.5 -91.5v0zM381 969q2 -54 39 -90t91 -36q55 2 90.5 39t36.5 91q-2 55 -39 90.5t-92 36.5q-54 -3 -89.5 -39.5t-36.5 -91.5v0zM504 1210q2 -55 39 -90.5
t91 -35.5q55 2 90.5 38.5t36.5 91.5q-2 55 -39 90.5t-92 35.5q-54 -2 -90 -38.5t-36 -91.5v0zM620 973q2 -55 39 -90.5t91 -35.5q55 2 90.5 38.5t36.5 91.5q-2 55 -39 90.5t-92 35.5q-54 -2 -89.5 -38.5t-36.5 -91.5v0zM381 969q2 -54 39 -90t91 -36q55 2 90.5 39t36.5 91
q-2 55 -39 90.5t-92 36.5q-54 -3 -89.5 -39.5t-36.5 -91.5v0zM504 1210q2 -55 39 -90.5t91 -35.5q55 2 90.5 38.5t36.5 91.5q-2 55 -39 90.5t-92 35.5q-54 -2 -90 -38.5t-36 -91.5v0zM491 1l-62 -1q-47 0 -86.5 17.5t-64.5 53.5q-32 -27 -61 -42.5t-63.5 -22t-87.5 -6.5h-83
v416h29q25 1 38.5 20t12.5 45q-7 94 -18 179h-1v7l-1 1v7h-1v6q0 1 -1 1v7l-1 1v7h-1v2q-5 39 -6 45v1q8 1 153 22q152 21 175 21h1q7 2 13 -6.5t13.5 -46.5t19.5 -126q8 -65 10 -133q0 -17 1 -32q3 -25 29 -27h28q25 1 38.5 20t12.5 45q-7 91 -17 157v1q0 2 -1 3v6h-1v6
l-1 1v4q-6 38 -7 44v1q8 1 153 22q152 21 175 21h2q6 2 12 -6t13.5 -45.5t20.5 -123.5q6 -50 6 -89q0 -18 1 -39q3 -26 29 -28l13 -1h14q25 2 38.5 21t12.5 45q-8 93 -19 178v2q-1 6 -2 11v6q-1 0 -1 1v6l-1 1v7q0 1 -1 1v1q-5 41 -6 48v1q8 1 153 22q152 21 175 21h1
q7 2 12.5 -6.5t13.5 -46.5t20 -126q8 -65 10 -134q0 -17 1 -32q3 -25 29 -27h40l3 -416h-62q-47 0 -86.5 18t-65.5 53q-32 -27 -60.5 -42.5t-63.5 -21.5t-88 -6h-99q-47 0 -86.5 17.5t-65.5 53.5q-31 -27 -60 -42.5t-64 -22t-88 -6.5h-38z" />
    <glyph glyph-name="sad-arab.fina" unicode="&#x635;" horiz-adv-x="1843" arabic-form="final" 
d="M1777 416v0h97v-416h-28q-95 0 -160 62q-27 -25 -68.5 -43t-100.5 -19h-1h-379q-60 -1 -117 18q-46 -116 -144 -187.5t-224 -71.5h-308q-89 0 -163 57t-118 152.5t-44 211.5v0q3 42 7 85q14 167 29 299l15 132l358 -80q-3 -15 -7 -40q-11 -71 -20 -173q-11 -113 -18 -175
q-2 -22 12 -37.5t35 -15.5h191h20q21 0 35 15.5t12 37.5q-7 58 -23 196q-11 86 -22 168q-15 116 -25 157l361 68l14 -141q92 83 206.5 156t247.5 80q130 -3 199.5 -76t97 -170t30 -173l2.5 -76zM1512 393v0l59 -50l-66 103v0q-11 19 -36 55q-24 33 -79.5 27t-122 -35.5
t-124.5 -67.5h283q29 0 57 -13q14 -7 28 -19h1z" />
    <glyph glyph-name="sad-arab.init" unicode="&#x635;" horiz-adv-x="1157" arabic-form="initial" 
d="M1138 425v0l2 -43t-3.5 -106t-24.5 -125v0q-1 -5 -22.5 -39.5t-71.5 -69t-133 -38.5h-1l-379 -6q-68 -2 -132 21q-60 23 -98 59q-70 -78 -174 -78h-115v416h73l-55 353l309 67l31 -170q91 106 206.5 174.5t250.5 74.5q130 -1 201 -73t99.5 -168.5t32.5 -172.5zM872 395v0
l60 -50l-66 103v0q-12 19 -36 55q-24 33 -79.5 27.5t-122 -35.5t-124.5 -68h282q30 0 58 -13q14 -6 28 -18v-1z" />
    <glyph glyph-name="sad-arab.medi" unicode="&#x635;" horiz-adv-x="1185" arabic-form="medial" 
d="M1139 416v0h71v-416h-27q-85 2 -146 57q-52 -46 -152 -52h-1l-379 -5q-68 -2 -132 20q-60 23 -98 60q-67 -75 -174 -80h-115v416h73l-55 355l309 66l31 -169q91 106 206.5 174t250.5 74q130 0 201 -72.5t99.5 -169t32.5 -172l4 -75.5zM872 397v0l60 -50l-66 102v1
q-12 18 -36 55q-24 33 -79.5 27t-122 -35.5t-124.5 -67.5h282q30 0 58 -13q14 -7 28 -19v0z" />
    <glyph glyph-name="dad-arab.fina" unicode="&#x636;" horiz-adv-x="1849" arabic-form="final" 
d="M1783 416v0h97v-416h-28q-95 0 -160 62q-27 -25 -68.5 -43t-100.5 -19h-1h-379q-60 -1 -117 18q-46 -116 -144 -187.5t-224 -71.5h-308q-89 0 -163 57t-118 152.5t-44 211.5v0q3 42 7 85q14 167 29 299l15 132l358 -80q-3 -15 -7 -40q-11 -71 -20 -173q-11 -113 -18 -175
q-2 -22 12 -37.5t35 -15.5h191h20q21 0 35 15.5t12 37.5q-7 58 -23 196q-11 86 -22 168q-15 116 -25 157l361 68l14 -141q92 83 206.5 156t247.5 80q130 -3 199.5 -76t97 -170t30 -173l2.5 -76zM1518 393v0l59 -50l-66 103v0q-11 19 -36 55q-24 33 -79.5 27t-122 -35.5
t-124.5 -67.5h283q29 0 57 -13q14 -7 28 -19h1zM1266 1053v0q0 53 -37.5 90.5t-90.5 37.5t-91 -37.5t-38 -90.5t38 -90.5t91 -37.5t90.5 37.5t37.5 90.5z" />
    <glyph glyph-name="dad-arab.init" unicode="&#x636;" horiz-adv-x="1157" arabic-form="initial" 
d="M1136 425v0l2 -43t-3.5 -106t-24.5 -125v0q-1 -5 -22.5 -39.5t-71.5 -69t-133 -38.5h-1l-379 -6q-68 -2 -132 21q-60 23 -98 59q-70 -78 -174 -78h-115v416h73l-55 353l309 67l31 -170q91 106 206.5 174.5t250.5 74.5q130 -1 201 -73t99.5 -168.5t32.5 -172.5zM870 395v0
l60 -50l-66 103v0q-12 19 -36 55q-24 33 -79.5 27.5t-122 -35.5t-124.5 -68h282q30 0 58 -13q14 -6 28 -18v-1zM584 1048v0q0 53 -37.5 90.5t-90.5 37.5q-54 0 -91.5 -37.5t-37.5 -90.5t37.5 -90.5t91.5 -37.5q53 0 90.5 37.5t37.5 90.5z" />
    <glyph glyph-name="dad-arab.medi" unicode="&#x636;" horiz-adv-x="1176" arabic-form="medial" 
d="M1131 416v0h71v-416h-27q-85 2 -146 57q-52 -46 -152 -52h-1l-379 -5q-68 -2 -132 20q-60 23 -98 60q-67 -75 -174 -80h-115v416h73l-55 355l309 66l31 -169q91 106 206.5 174t250.5 74q130 0 201 -72.5t99.5 -169t32.5 -172l4 -75.5zM864 397v0l60 -50l-66 102v1
q-12 18 -36 55q-24 33 -79.5 27t-122 -35.5t-124.5 -67.5h282q30 0 58 -13q14 -7 28 -19v0zM582 1068v0q0 53 -37.5 90.5t-91.5 37.5q-53 0 -90.5 -37.5t-37.5 -90.5t37.5 -90.5t90.5 -37.5q54 0 91.5 37.5t37.5 90.5z" />
    <glyph glyph-name="tah-arab.fina" unicode="&#x637;" horiz-adv-x="1173" arabic-form="final" 
d="M1104 416v0h96v-416h-28q-96 0 -160 63v1q-27 -24 -67 -41t-95 -19v0l-380 -5q-21 -1 -42 1h-361h-25l-16 416h45l-23 697l332 57v-436q65 68 147 114q111 62 239 67q131 0 201.5 -72.5t99 -169t32.5 -172l4 -75.5zM838 396v0l59 -50l-66 102v1q-11 18 -35 55
q-25 33 -80 27t-121.5 -35.5t-125.5 -67.5h283q30 0 57 -13q14 -7 29 -19v0z" />
    <glyph glyph-name="tah-arab.init" unicode="&#x637;" horiz-adv-x="1084" arabic-form="initial" 
d="M1061 426v0l2 -43.5t-3 -106t-25 -124.5v0q0 -5 -22 -40t-71.5 -69.5t-133.5 -38.5v0l-380 -5q-67 -2 -131 21q-60 22 -99 59q-70 -79 -173 -79h-41v417h45l-23 696l332 57v-436q65 68 147 114q111 62 239 67q131 0 201.5 -72t99 -168.5t32.5 -172.5zM796 396v0l59 -50
l-66 103v0q-11 19 -35 55q-25 33 -80 27t-121.5 -35.5t-125.5 -67.5h283q30 0 57 -13q14 -7 29 -19v0z" />
    <glyph glyph-name="tah-arab.medi" unicode="&#x637;" horiz-adv-x="1126" arabic-form="medial" 
d="M1063 416v0h96v-416h-28q-96 0 -160 63v1q-27 -24 -67 -41t-95 -19v0l-380 -5q-67 -2 -131 20q-60 23 -99 60q-70 -79 -173 -79h-41v416h45l-23 697l332 57v-436q65 68 147 114q111 62 239 67q131 0 201.5 -72.5t99 -169t32.5 -172l4 -75.5zM797 396v0l59 -50l-66 102v1
q-11 18 -35 55q-25 33 -80 27t-121.5 -35.5t-125.5 -67.5h283q30 0 57 -13q14 -7 29 -19v0z" />
    <glyph glyph-name="zah-arab.fina" unicode="&#x638;" horiz-adv-x="1166" arabic-form="final" 
d="M1104 416v0h96v-416h-28q-96 0 -160 63v1q-27 -24 -67 -41t-95 -19v0l-380 -5q-21 -1 -42 1h-361h-25l-16 416h45l-23 697l332 57v-436q65 68 147 114q111 62 239 67q131 0 201.5 -72.5t99 -169t32.5 -172l4 -75.5zM838 396v0l59 -50l-66 102v1q-11 18 -35 55
q-25 33 -80 27t-121.5 -35.5t-125.5 -67.5h283q30 0 57 -13q14 -7 29 -19v0zM760 1128v0q0 53 -38 90.5t-91 37.5t-90.5 -37.5t-37.5 -90.5t37.5 -90.5t90.5 -37.5t91 37.5t38 90.5z" />
    <glyph glyph-name="zah-arab.init" unicode="&#x638;" horiz-adv-x="1084" arabic-form="initial" 
d="M1061 426v0l2 -43.5t-3 -106t-25 -124.5v0q0 -5 -22 -40t-71.5 -69.5t-133.5 -38.5v0l-380 -5q-67 -2 -131 21q-60 22 -99 59q-70 -79 -173 -79h-41v417h45l-23 696l332 57v-436q65 68 147 114q111 62 239 67q131 0 201.5 -72t99 -168.5t32.5 -172.5zM796 396v0l59 -50
l-66 103v0q-11 19 -35 55q-25 33 -80 27t-121.5 -35.5t-125.5 -67.5h283q30 0 57 -13q14 -7 29 -19v0zM714 1108v0q0 53 -38 90.5t-91 37.5t-90.5 -37.5t-37.5 -90.5t37.5 -90.5t90.5 -37.5t91 37.5t38 90.5z" />
    <glyph glyph-name="zah-arab.medi" unicode="&#x638;" horiz-adv-x="1126" arabic-form="medial" 
d="M1063 416v0h96v-416h-28q-96 0 -160 63v1q-27 -24 -67 -41t-95 -19v0l-380 -5q-67 -2 -131 20q-60 23 -99 60q-70 -79 -173 -79h-41v416h45l-23 697l332 57v-436q65 68 147 114q111 62 239 67q131 0 201.5 -72.5t99 -169t32.5 -172l4 -75.5zM797 396v0l59 -50l-66 102v1
q-11 18 -35 55q-25 33 -80 27t-121.5 -35.5t-125.5 -67.5h283q30 0 57 -13q14 -7 29 -19v0zM708 1109v0q0 53 -38 90.5t-91 37.5t-90.5 -37.5t-37.5 -90.5t37.5 -90.5t90.5 -37.5t91 37.5t38 90.5z" />
    <glyph glyph-name="ain-arab.fina" unicode="&#x639;" horiz-adv-x="810" arabic-form="final" 
d="M835 0v0h-461q-5 0 -8 -3v0q-8 -10 1 -18l315 -253l-247 -280l-255 218q-78 67 -118 154.5t-42 181.5q-2 105 42 201q42 92 126 161l10 8v0l-72 93q-5 6 -10 13v0v0q-41 62 -54 144q-12 77 17.5 142.5t89.5 106.5t137 41l486 -4v-249q0 -19 -8 -36l-108 -204h159v-417z
" />
    <glyph glyph-name="ain-arab.init" unicode="&#x639;" horiz-adv-x="695" arabic-form="initial" 
d="M673 401v0l-2 -400h-2l2 -1h-629h-55v416h34q2 85 16.5 160t29.5 123l15 48l12 18t42.5 47.5t86 63t140.5 65.5t206 55l85 -417l-80.5 -3.5t-165 -17.5t-109.5 -44z" />
    <glyph glyph-name="ain-arab.medi" unicode="&#x639;" horiz-adv-x="783" arabic-form="medial" 
d="M798 416v-416h-304q-50 0 -75 19t-33.5 37.5l-8.5 18.5q-17 -36 -46.5 -52t-55 -19.5l-25.5 -3.5h-267v416h167q-55 34 -84.5 91t-40.5 123q-12 77 17.5 142.5t89.5 106.5t137 41l486 -4v-249q0 -19 -8 -36l-108 -215h159v0z" />
    <glyph glyph-name="ghain-arab.fina" unicode="&#x63a;" horiz-adv-x="812" arabic-form="final" 
d="M835 0v0h-461q-5 0 -8 -3v0q-8 -10 1 -18l315 -253l-247 -280l-255 218q-78 67 -118 154.5t-42 181.5q-2 105 42 201q42 92 126 161l10 8v0l-72 93q-5 6 -10 13v0v0q-41 62 -54 144q-12 77 17.5 142.5t89.5 106.5t137 41l486 -4v-249q0 -19 -8 -36l-108 -204h159v-417z
M603 1128v0q0 53 -37.5 90.5t-90.5 37.5q-54 0 -91.5 -37.5t-37.5 -90.5t37.5 -90.5t91.5 -37.5q53 0 90.5 37.5t37.5 90.5z" />
    <glyph glyph-name="ghain-arab.init" unicode="&#x63a;" horiz-adv-x="709" arabic-form="initial" 
d="M678 401v0l-2 -400h-2l2 -1h-629h-55v416h34q2 85 16.5 160t29.5 123l15 48l12 18t42.5 47.5t86 63t140.5 65.5t206 55l85 -417l-80.5 -3.5t-165 -17.5t-109.5 -44zM357 1131v0q0 53 -37.5 90.5t-90.5 37.5q-54 0 -91.5 -37.5t-37.5 -90.5t37.5 -90.5t91.5 -37.5
q53 0 90.5 37.5t37.5 90.5z" />
    <glyph glyph-name="ghain-arab.medi" unicode="&#x63a;" horiz-adv-x="790" arabic-form="medial" 
d="M521 1131v0q0 53 -38 90.5t-91 37.5t-90.5 -37.5t-37.5 -90.5t37.5 -90.5t90.5 -37.5t91 37.5t38 90.5zM804 416v-416h-304q-50 0 -75 19t-33.5 37.5l-8.5 18.5q-17 -36 -46.5 -52t-55 -19.5l-25.5 -3.5h-267v416h167q-55 34 -84.5 91t-40.5 123q-12 77 17.5 142.5
t89.5 106.5t137 41l486 -4v-249q0 -19 -8 -36l-108 -215h159v0z" />
    <glyph glyph-name="feh-arab.fina" unicode="&#x641;" horiz-adv-x="1499" arabic-form="final" 
d="M1398 417v0h122v-417h-27q-99 0 -165 67q-41 -57 -121 -62l-226 -6q-22 -1 -44 1h-321v0h-315q-115 0 -197.5 81t-81.5 198q10 190 34.5 339.5l24.5 149.5l361 -68q-14 -50 -26.5 -109t-20.5 -122q-2 -22 12 -38t35 -16h151h23h56v3q-10 49 -4 130.5t42.5 166.5t120 145
t229.5 66q104 1 169.5 -48t100.5 -123t49 -148.5t16 -126.5l2 -52zM1110 396v0q28 29 0 62l-60 53q-33 23 -60 -7l-45 -59q-19 -33 7 -58q9 -9 24 -10q66 -3 116 10q11 3 18 9zM1067 1092v0q0 53 -37.5 90.5t-91.5 37.5q-53 0 -90.5 -37.5t-37.5 -90.5t37.5 -90.5
t90.5 -37.5q54 0 91.5 37.5t37.5 90.5z" />
    <glyph glyph-name="feh-arab.init" unicode="&#x641;" horiz-adv-x="782" arabic-form="initial" 
d="M764 425v0l1.5 -63t-11.5 -144.5t-54.5 -144.5t-125.5 -69l-226 -4h-44h-326l2 416h59v2q-10 50 -4 131.5t42.5 166t120 144.5t229.5 66q130 0 200.5 -74t99.5 -173t33 -176.5zM477 396v0q28 29 0 61l-60 53q-33 23 -60 -6l-45 -59q-19 -33 7 -58q9 -9 24 -10
q66 -3 116 10q11 2 18 9zM461 1111v0q0 53 -38 90.5t-91 37.5t-90.5 -37.5t-37.5 -90.5t37.5 -90.5t90.5 -37.5t91 37.5t38 90.5z" />
    <glyph glyph-name="feh-arab.medi" unicode="&#x641;" horiz-adv-x="891" arabic-form="medial" 
d="M785 416v0h122v-416h-27q-99 0 -165 67q-41 -58 -121 -63l-226 -6q-22 0 -44 2h-346l2 416h79v2q-10 50 -4 131.5t42.5 166t120 144.5t229.5 66q104 1 169.5 -48t100.5 -123t49 -149t16 -126.5l2 -51.5zM497 396v0q28 29 0 61l-60 53q-33 23 -60 -6l-45 -59
q-19 -33 7 -58q9 -9 24 -10q66 -3 116 10q11 2 18 9zM481 1111v0q0 53 -38 90.5t-91 37.5t-90.5 -37.5t-37.5 -90.5t37.5 -90.5t90.5 -37.5t91 37.5t38 90.5z" />
    <glyph glyph-name="qaf-arab.fina" unicode="&#x642;" horiz-adv-x="1219" arabic-form="final" 
d="M709 1163v0v0q-6 54 -45 87t-94 30q-54 -7 -87 -46t-30 -93q6 -55 45.5 -88t93.5 -29q55 6 88 45t29 94zM947 1183v0v0q-6 54 -45 87t-94 30q-54 -6 -87 -45t-30 -94q6 -54 45.5 -87t93.5 -30q55 6 88 45.5t29 93.5zM485 177v0h-1v0h1zM1100 416v0h139v-416h-21
q-40 0 -68 13t-53 36q-15 -101 -70 -180.5t-138.5 -126.5t-184.5 -47h-348q-89 0 -163 56.5t-118 152t-44 211.5v0q3 43 7 86q14 160 29 244l15 84l255 -49q-2 -15 -7 -40q-12 -36 -16 -102q-10 -113 -17 -174q-2 -22 12 -38t35 -16h409q7 0 14 2h-76q-68 -2 -132 21h-1
q-41 15 -73 44h-1q-38 33 -60 79q-32 69 -45 113.5t-15 66l-2 21.5v3q-2 50 7.5 131.5t48 166.5t122.5 144.5t230 66.5q123 0 191.5 -67t98 -160t35.5 -171t4 -99v-7v0q1 -11 1 -49zM804 450v0q28 29 0 61l-60 54q-32 23 -60 -7l-3 -4l-41 -55q-20 -33 6 -58q10 -9 25 -10
q14 -1 28 -1q49 1 87 11q11 2 18 9z" />
    <glyph glyph-name="qaf-arab.init" unicode="&#x642;" horiz-adv-x="786" arabic-form="initial" 
d="M769 425v0l1.5 -63t-11.5 -144.5t-54.5 -144.5t-125.5 -69l-226 -4h-44h-326l2 416h59v2q-10 50 -4 131.5t42.5 166t120 144.5t229.5 66q130 0 200.5 -74t99.5 -173t33 -176.5zM482 396v0q28 29 0 61l-60 53q-33 23 -60 -6l-45 -59q-19 -33 7 -58q9 -9 24 -10
q66 -3 116 10q11 2 18 9zM356 1109v0q-6 54 -45.5 87t-93.5 30q-55 -6 -88 -45.5t-29 -93.5q6 -54 45 -87t94 -30q54 6 87 45t30 94zM594 1129v0q-6 55 -45.5 88t-93.5 29q-55 -6 -88 -45t-29 -94q6 -54 45 -87t94 -30q54 6 87 45.5t30 93.5zM769 425v0l1.5 -63
t-11.5 -144.5t-54.5 -144.5t-125.5 -69l-226 -4h-44h-326l2 416h59v2q-10 50 -4 131.5t42.5 166t120 144.5t229.5 66q130 0 200.5 -74t99.5 -173t33 -176.5zM482 396v0q28 29 0 61l-60 53q-33 23 -60 -6l-45 -59q-19 -33 7 -58q9 -9 24 -10q66 -3 116 10q11 2 18 9z" />
    <glyph glyph-name="qaf-arab.medi" unicode="&#x642;" horiz-adv-x="869" arabic-form="medial" 
d="M778 416v0h122v-416h-27q-99 0 -165 67q-41 -58 -121 -63l-226 -6q-22 0 -44 2h-336l2 416h69v2q-10 50 -4 131.5t42.5 166t120 144.5t229.5 66q104 1 169.5 -48t100.5 -123t49 -149t16 -126.5l2 -51.5zM490 396v0q28 29 0 61l-60 53q-33 23 -60 -6l-45 -59
q-19 -33 7 -58q9 -9 24 -10q66 -3 116 10q11 2 18 9zM381 1105v0q-6 54 -45 87t-94 30q-54 -6 -87 -45.5t-29 -93.5q6 -54 45 -87t93 -30q55 6 88 45t29 94zM620 1125v0q-6 55 -45.5 88t-93.5 29q-55 -6 -88 -45t-29 -94q6 -54 45 -87t94 -30q54 6 87 45.5t30 93.5z" />
    <glyph glyph-name="lam-arab.fina" unicode="&#x644;" horiz-adv-x="1100" arabic-form="final" 
d="M1036 417v0h77v-417h-67q-5 0 -10 1h-5q-31 -144 -137.5 -237t-251.5 -93h-297q-89 0 -163 57t-118 152.5t-44 211.5v0q3 42 7 85q14 167 29 299l15 132l358 -80q-3 -15 -7 -40q-11 -71 -20 -173q-11 -113 -18 -175q-2 -22 12 -37.5t35 -15.5h200q15 0 27 9v387v4l-3 183
l-9 411l378 43l12 -704v-1v-2z" />
    <glyph glyph-name="lam-arab.init" unicode="&#x644;" horiz-adv-x="503" arabic-form="initial" 
d="M102 486l-11 603l377 43l13 -810q-9 -139 -103 -229t-233 -93h-38v0h-123v416h51q29 0 48 20t19 50v0z" />
    <glyph glyph-name="lam-arab.medi" unicode="&#x644;" horiz-adv-x="525" arabic-form="medial" 
d="M479 416v0h77v-416h-66q-89 0 -155 60q-83 -58 -191 -60h-38v0h-123v417h51q29 0 48 20t19 49l-11 594l377 43z" />
    <glyph glyph-name="meem-arab.fina" unicode="&#x645;" horiz-adv-x="1052" arabic-form="final" 
d="M986 416v0h79v-416h-21q-60 0 -101 51l-16 24q-42 -69 -130 -76l-227 -6q-68 -2 -131 21q-37 14 -66 33l25 -384h-372v674q0 30 21.5 51.5t51.5 21.5v0h142v2q-2 51 8 132.5t48.5 166t122 144.5t229.5 66q130 0 201 -74t99.5 -172.5t32.5 -176l4 -77.5v-5zM699 391v0
q28 29 0 61l-60 53q-32 23 -60 -6l-44 -59q-20 -33 6 -58q10 -9 24 -10q66 -3 116 10q11 2 18 9z" />
    <glyph glyph-name="meem-arab.init" unicode="&#x645;" horiz-adv-x="837" arabic-form="initial" 
d="M823 425v0l1.5 -63t-11.5 -144.5t-54.5 -144.5t-124.5 -68l-227 -6q-68 -2 -132 20q-60 23 -99 59q-69 -78 -173 -78h-17v416h92v3q-2 49 8 130.5t48 166.5t122 144.5t230 66.5q130 -1 200.5 -75t99.5 -172.5t33 -176.5zM536 396v0q28 30 0 62l-60 53q-33 23 -60 -6
l-44 -60q-20 -33 6 -58q10 -9 24 -10q66 -3 116 10q11 3 18 9z" />
    <glyph glyph-name="meem-arab.medi" unicode="&#x645;" horiz-adv-x="940" arabic-form="medial" 
d="M815 416v0h145v-416h-17q-111 0 -182 89q-41 -77 -136 -84l-227 -6q-68 -2 -131 20q-59 23 -98 58q-69 -77 -172 -77h-17v416h89v3q-2 49 8 130.5t48.5 166.5t122 144.5t229.5 66.5q131 -1 201.5 -75t99 -172.5t32.5 -176.5l4 -78zM528 396v0q27 30 0 62l-61 53
q-32 23 -59 -6l-45 -60q-20 -33 6 -58q10 -9 25 -10q65 -3 116 10q10 3 18 9z" />
    <glyph glyph-name="noon-arab.fina" unicode="&#x646;" horiz-adv-x="1118" arabic-form="final" 
d="M1145 417v0v-417h-75q-41 -128 -143 -208.5t-236 -80.5h-338q-89 0 -163 57t-118 152.5t-44 211.5v0q3 42 7 85q14 167 29 299l15 132l358 -80q-3 -15 -7 -40q-11 -71 -20 -173q-11 -113 -18 -175q-2 -22 12 -37.5t35 -15.5h241q21 0 35 15.5t12 37.5q-14 122 -45 364
q-15 116 -25 157l361 68l43 -352h84zM483 641v0q-53 0 -91 37.5t-38 90.5t38 91t91 38t90.5 -38t37.5 -91t-37.5 -90.5t-90.5 -37.5z" />
    <glyph glyph-name="noon-arab.init" unicode="&#x646;" horiz-adv-x="475" arabic-form="initial" 
d="M471 280v0q1 -118 -81.5 -199t-197.5 -81h-108h-97v416h64q21 0 35 15.5t12 37.5q-29 190 -70 352l361 68l35 -206t47 -403zM267 1023v0q8 54 -21 96t-82 53q-54 9 -96.5 -20.5t-53.5 -82.5q-8 -54 21 -96t82 -54q54 -8 96.5 21t53.5 83z" />
    <glyph glyph-name="noon-arab.medi" unicode="&#x646;" horiz-adv-x="479" arabic-form="medial" 
d="M492 416v0l3 -416h-62q-47 0 -86.5 17.5t-65.5 53.5q-32 -27 -60.5 -42.5t-63.5 -22t-88 -6.5h-82l5 416h24q25 1 38.5 20t12.5 45q-8 93 -19 178.5l-11 85.5l152 21.5t176 21.5q7 0 13 -7t14 -45t20 -128q9 -85 11 -164q3 -25 29 -28h40zM295 939v0q9 54 -20.5 96
t-82.5 53q-54 9 -96 -20.5t-53 -82.5q-9 -54 20 -96t83 -54q54 -8 96 21t53 83z" />
    <glyph glyph-name="heh-arab.fina" unicode="&#x647;" horiz-adv-x="856" arabic-form="final" 
d="M731 416v0h122v-416h-47q-103 0 -173 78q-39 -36 -99 -59q-64 -22 -131 -20l-227 6q-68 3 -107 45.5t-57.5 104.5t-23.5 124t-3.5 104l1.5 42l2 52t16 127.5t49 150t100.5 123.5t169.5 49q83 -3 145 -25l249 48l13 -466v0q2 -39 1 -65v-3zM432 387v0q25 25 6 58l-45 60
q-27 29 -60 6l-60 -53q-27 -32 0 -62q7 -6 18 -9q50 -13 116 -10q15 1 25 10z" />
    <glyph glyph-name="heh-arab.init" unicode="&#x647;" horiz-adv-x="1034" arabic-form="initial" 
d="M970 525v0q37 -79 37 -168q0 -60 -17 -124q-28 -101 -97 -183q-89 -106 -193 -106q-29 0 -59 8l-48 14l-232 80q-39 -18 -120 -29.5t-142 -15.5h-1q-6 -1 -12 -1h-102v417h72v8q0 27 -2 53q-3 106 15 218q9 56 51.5 88t98.5 26l43 -6l6 126l190 143l119 -105v0q0 -1 1 -1
q41 -37 81 -77l215 -217q59 -74 96 -148zM545 471v0q-1 1 -1 2l16 -2q-50 59 -112 99t-107 38q-25 -2 -38 -24q-22 -39 -34 -59h1l-41 -84l-20 -36l51 52v0q13 13 25 19q16 10 34 11zM786 400v0q31 26 7 61l-52 61q-30 27 -61 1l-51 -53q-24 -30 -2 -58q9 -10 23 -14
q65 -11 117 -5q11 2 19 7z" />
    <glyph glyph-name="heh-arab.medi" unicode="&#x647;" horiz-adv-x="638" arabic-form="medial" 
d="M682 416v-416h-72q-26 0 -45 4q-40 11 -57 32.5t-20 39.5q-2 8 -2 12v-9l5 -79q7 -53 19 -98t40 -97l-292 -130l-15.5 12t-35.5 46t-37 98.5t-21 168.5v94q0 -1 -1 -8.5t-4.5 -18t-11 -22.5t-21 -22t-35 -16.5t-51.5 -6.5h-69v416h192l69 365l339 -82l-21 -86t-40 -197
h187v0z" />
    <glyph glyph-name="waw-arab.fina" unicode="&#x648;" horiz-adv-x="786" arabic-form="final" 
d="M764 416v0h37l-6 -416h-31q-18 -140 -82.5 -215t-138.5 -108t-121 -46l-30 -10l-57 -16l-94 316l42 9q98 18 155.5 34t81.5 26l24 10h-208q-67 0 -130 24q-87 37 -129 98.5t-53 125t-7 106.5q2 37 2 74q-1 49 7 125t43 153t116 129t227 54q130 -4 203 -74t104.5 -162
t38 -164t6.5 -73zM492 389v0q28 28 1 61l-58 55q-32 24 -60 -5l-47 -58q-20 -32 5 -58q10 -9 24 -11q66 -5 117 7q10 2 18 9z" />
    <glyph glyph-name="alefmaksura-arab.fina" unicode="&#x649;" horiz-adv-x="816" arabic-form="final" 
d="M845 416v0v0v0v-416h-65q34 -99 -1.5 -178t-113.5 -138q-69 -56 -153 -74t-173.5 -16.5t-173.5 3.5q-181 16 -250 105.5t-69.5 220.5t25 271t34.5 256l308 -31l-68 -420q43 -19 106.5 -31t135.5 38l4 -8l-115 156l97 262h472z" />
    <glyph glyph-name=".notdef" horiz-adv-x="1005" 
d="M126 0v1181h753v-1181h-753zM251 126h503v929h-503v-929z" />
    <glyph glyph-name=".null" horiz-adv-x="0" 
 />
    <glyph glyph-name="nonmarkingreturn" horiz-adv-x="670" 
 />
    <glyph glyph-name="space" unicode=" " horiz-adv-x="100" 
 />
    <glyph glyph-name="exclam" unicode="!" horiz-adv-x="438" 
d="M396 1101v0l-353 -38l17 -362l3 -101l10 -239l291 -25l20 443zM223 0h-3q-61 5 -97.5 46.5t-36.5 97.5v5q4 60 46 97.5t100 37.5h3q60 -5 97 -46t37 -98v-5q-5 -60 -46.5 -97.5t-99.5 -37.5z" />
    <glyph glyph-name="percent" unicode="%" horiz-adv-x="957" 
d="M324 -96l-234 165l543 847l235 -164zM781 34h-3q-64 5 -103 48.5t-39 103.5v6q5 63 49 102.5t106 39.5h3q63 -6 102 -49t39 -103v-6q-5 -63 -48.5 -102.5t-105.5 -39.5zM175 479h-3q-64 5 -103 48.5t-39 103.5v5q5 64 49 103.5t106 39.5h3q63 -6 102 -49.5t39 -102.5v-6
q-5 -63 -48.5 -102.5t-105.5 -39.5z" />
    <glyph glyph-name="parenleft" unicode="(" horiz-adv-x="606" 
d="M-65 1119l246 -138l-36.5 -44t-83.5 -121.5t-82 -181t-36.5 -224.5t53.5 -250t189 -258l-191 -194l-50 42t-115.5 124.5t-118 203t-61.5 277.5t55 348.5t231 415.5v0z" />
    <glyph glyph-name="parenright" unicode=")" horiz-adv-x="627" 
d="M301 1119v0q167 -224 231 -415.5t55 -348.5t-61.5 -277.5t-118 -203t-116 -124.5l-50.5 -42l-190 194q134 129 189 258t53.5 250t-37 224.5t-82 181t-83 121.5l-36.5 44z" />
    <glyph glyph-name="asterisk" unicode="*" horiz-adv-x="900" 
d="M585 260v-195l-241 -1v177l-134 -92l-131 203l166 114l-181 109l118 211l161 -97v190l241 1v-181l150 103l132 -204l-175 -120l171 -103l-118 -211z" />
    <glyph glyph-name="plus" unicode="+" horiz-adv-x="799" 
d="M261 354l-223 -1l-1 277l223 1l-2 231l277 1l2 -230l226 1v-278l-225 -1l2 -237l-277 -1z" />
    <glyph glyph-name="comma" unicode="," horiz-adv-x="413" 
d="M212 275q-69 0 -118 -44t-54 -114v-6q0 -100 88 -160l-69 -151h217l88 255q7 19 8 40l1 7q0 69 -44 118t-114 55h-3z" />
    <glyph glyph-name="hyphenminus" unicode="-" horiz-adv-x="745" 
d="M73 427v238h522v-237z" />
    <glyph glyph-name="period" unicode="." horiz-adv-x="422" 
d="M198 23h-3q-67 5 -107.5 50.5t-40.5 107.5v6q5 66 51 107t110 41h3q66 -6 106.5 -51t40.5 -107v-6q-5 -66 -50.5 -107t-109.5 -41z" />
    <glyph glyph-name="slash" unicode="/" horiz-adv-x="894" 
d="M292 -51l-244 171l566 882l244 -171z" />
    <glyph glyph-name="zero" unicode="0" horiz-adv-x="700" 
d="M351 758v0q130 0 222 -92t92 -222t-92 -222t-222 -92t-222 92t-92 222t92 222t222 92zM351 369v0q31 0 53 22t22 53q0 30 -22 52t-53 22t-53 -22t-22 -52q0 -31 22 -53t53 -22z" />
    <glyph glyph-name="zero" unicode="&#x6f0;" horiz-adv-x="700" 
d="M351 758v0q130 0 222 -92t92 -222t-92 -222t-222 -92t-222 92t-92 222t92 222t222 92zM351 369v0q31 0 53 22t22 53q0 30 -22 52t-53 22t-53 -22t-22 -52q0 -31 22 -53t53 -22z" />
    <glyph glyph-name="zero" unicode="&#x660;" horiz-adv-x="700" 
d="M351 758v0q130 0 222 -92t92 -222t-92 -222t-222 -92t-222 92t-92 222t92 222t222 92zM351 369v0q31 0 53 22t22 53q0 30 -22 52t-53 22t-53 -22t-22 -52q0 -31 22 -53t53 -22z" />
    <glyph glyph-name="one" unicode="1" 
d="M473 630v0q-2 98 -21 205t-38.5 183.5l-19.5 76.5l-306 -32l-62 -7q41 -161 57.5 -294.5t16.5 -149.5v0l6 -223v-359l13 -2l327 -26l25 -2z" />
    <glyph glyph-name="one" unicode="&#x6f1;" 
d="M473 630v0q-2 98 -21 205t-38.5 183.5l-19.5 76.5l-306 -32l-62 -7q41 -161 57.5 -294.5t16.5 -149.5v0l6 -223v-359l13 -2l327 -26l25 -2z" />
    <glyph glyph-name="one" unicode="&#x661;" 
d="M473 630v0q-2 98 -21 205t-38.5 183.5l-19.5 76.5l-306 -32l-62 -7q41 -161 57.5 -294.5t16.5 -149.5v0l6 -223v-359l13 -2l327 -26l25 -2z" />
    <glyph glyph-name="two" unicode="2" horiz-adv-x="937" 
d="M900 676v0v-14q0 -79 -37 -159.5t-99.5 -135t-138.5 -54.5h-126l-1 -343l-25 2l-327 26l-13 2v359l-6 223v0q0 16 -16.5 149.5t-57.5 294.5l62 7l306 32l31.5 -129.5t44.5 -274.5h53q15 0 24.5 11t8.5 26q-10 84 -31 252q-11 80 -18 109l317 47l16.5 -130t30.5 -273
q1 -13 2 -27z" />
    <glyph glyph-name="two" unicode="&#x6f2;" horiz-adv-x="937" 
d="M900 676v0v-14q0 -79 -37 -159.5t-99.5 -135t-138.5 -54.5h-126l-1 -343l-25 2l-327 26l-13 2v359l-6 223v0q0 16 -16.5 149.5t-57.5 294.5l62 7l306 32l31.5 -129.5t44.5 -274.5h53q15 0 24.5 11t8.5 26q-10 84 -31 252q-11 80 -18 109l317 47l16.5 -130t30.5 -273
q1 -13 2 -27z" />
    <glyph glyph-name="two" unicode="&#x662;" horiz-adv-x="937" 
d="M900 676v0v-14q0 -79 -37 -159.5t-99.5 -135t-138.5 -54.5h-126l-1 -343l-25 2l-327 26l-13 2v359l-6 223v0q0 16 -16.5 149.5t-57.5 294.5l62 7l306 32l31.5 -129.5t44.5 -274.5h53q15 0 24.5 11t8.5 26q-10 84 -31 252q-11 80 -18 109l317 47l16.5 -130t30.5 -273
q1 -13 2 -27z" />
    <glyph glyph-name="three" unicode="3" horiz-adv-x="1321" 
d="M1275 691v0v-14q0 -120 -80 -234q-38 -52 -88 -83.5t-107 -31.5h-251q-24 0 -47 9q-3 1 -6 3q-3 -2 -5 -3q-42 -21 -88 -21h-102l-1 -344l-25 2l-327 27l-13 1v360l-6 223v0q0 16 -16.5 149.5t-57.5 294.5l62 6l306 33l31.5 -129.5t44.5 -275.5h25h12q15 0 24.5 11
t8.5 26q2 -10 -7 64v0q-17 122 -30 191l293 48l18.5 -80.5t32.5 -216.5q1 -14 2 -27q1 -2 1 -4h46q15 0 24.5 11t8.5 26q-10 84 -31 252q-11 81 -18 109l317 48l16.5 -130.5t30.5 -272.5q1 -14 2 -27z" />
    <glyph glyph-name="three" unicode="&#x6f3;" horiz-adv-x="1321" 
d="M1275 691v0v-14q0 -120 -80 -234q-38 -52 -88 -83.5t-107 -31.5h-251q-24 0 -47 9q-3 1 -6 3q-3 -2 -5 -3q-42 -21 -88 -21h-102l-1 -344l-25 2l-327 27l-13 1v360l-6 223v0q0 16 -16.5 149.5t-57.5 294.5l62 6l306 33l31.5 -129.5t44.5 -275.5h25h12q15 0 24.5 11
t8.5 26q2 -10 -7 64v0q-17 122 -30 191l293 48l18.5 -80.5t32.5 -216.5q1 -14 2 -27q1 -2 1 -4h46q15 0 24.5 11t8.5 26q-10 84 -31 252q-11 81 -18 109l317 48l16.5 -130.5t30.5 -272.5q1 -14 2 -27z" />
    <glyph glyph-name="three" unicode="&#x663;" horiz-adv-x="1321" 
d="M1275 691v0v-14q0 -120 -80 -234q-38 -52 -88 -83.5t-107 -31.5h-251q-24 0 -47 9q-3 1 -6 3q-3 -2 -5 -3q-42 -21 -88 -21h-102l-1 -344l-25 2l-327 27l-13 1v360l-6 223v0q0 16 -16.5 149.5t-57.5 294.5l62 6l306 33l31.5 -129.5t44.5 -275.5h25h12q15 0 24.5 11
t8.5 26q2 -10 -7 64v0q-17 122 -30 191l293 48l18.5 -80.5t32.5 -216.5q1 -14 2 -27q1 -2 1 -4h46q15 0 24.5 11t8.5 26q-10 84 -31 252q-11 81 -18 109l317 48l16.5 -130.5t30.5 -272.5q1 -14 2 -27z" />
    <glyph glyph-name="four" unicode="4" horiz-adv-x="1147" 
d="M1100 652v0l-2 -362h-2l2 -2h-570h-6l3 -319l-25 2l-338 28l-15 1v372l-6 230v1q0 16 -17 154t-59 304l64 7l309 34l28.5 -116.5t45.5 -256.5q11 98 31.5 167l20.5 69l11 16.5t39 43t77.5 57t127 59.5t187.5 50l76 -377l-73 -3.5t-149 -16t-99 -39.5z" />
    <glyph glyph-name="four" unicode="&#x6f4;" horiz-adv-x="1147" 
d="M1100 652v0l-2 -362h-2l2 -2h-570h-6l3 -319l-25 2l-338 28l-15 1v372l-6 230v1q0 16 -17 154t-59 304l64 7l309 34l28.5 -116.5t45.5 -256.5q11 98 31.5 167l20.5 69l11 16.5t39 43t77.5 57t127 59.5t187.5 50l76 -377l-73 -3.5t-149 -16t-99 -39.5z" />
    <glyph glyph-name="four" unicode="&#x664;" horiz-adv-x="1147" 
d="M1100 652v0l-2 -362h-2l2 -2h-570h-6l3 -319l-25 2l-338 28l-15 1v372l-6 230v1q0 16 -17 154t-59 304l64 7l309 34l28.5 -116.5t45.5 -256.5q11 98 31.5 167l20.5 69l11 16.5t39 43t77.5 57t127 59.5t187.5 50l76 -377l-73 -3.5t-149 -16t-99 -39.5z" />
    <glyph glyph-name="five" unicode="5" horiz-adv-x="998" 
d="M474 1239v0q212 -177 303 -370t102.5 -371t-15.5 -311q-19 -99 -91 -163.5t-172 -72.5l-312 -20q-111 -5 -194 60t-106 174q-27 154 -14 268t48.5 192t76.5 125t71.5 67.5l30.5 20.5l-90 94zM613 397v0q28 25 30.5 62t-27.5 66l-121 113q-29 26 -64.5 23t-60.5 -32
l-96 -121q-23 -30 -19 -63.5t29 -57.5q20 -18 50 -22q136 -10 241 14q23 5 38 18z" />
    <glyph glyph-name="five" unicode="&#x6f5;" horiz-adv-x="998" 
d="M474 1239v0q212 -177 303 -370t102.5 -371t-15.5 -311q-19 -99 -91 -163.5t-172 -72.5l-312 -20q-111 -5 -194 60t-106 174q-27 154 -14 268t48.5 192t76.5 125t71.5 67.5l30.5 20.5l-90 94zM613 397v0q28 25 30.5 62t-27.5 66l-121 113q-29 26 -64.5 23t-60.5 -32
l-96 -121q-23 -30 -19 -63.5t29 -57.5q20 -18 50 -22q136 -10 241 14q23 5 38 18z" />
    <glyph glyph-name="five" unicode="&#x665;" horiz-adv-x="998" 
d="M474 1239v0q212 -177 303 -370t102.5 -371t-15.5 -311q-19 -99 -91 -163.5t-172 -72.5l-312 -20q-111 -5 -194 60t-106 174q-27 154 -14 268t48.5 192t76.5 125t71.5 67.5l30.5 20.5l-90 94zM613 397v0q28 25 30.5 62t-27.5 66l-121 113q-29 26 -64.5 23t-60.5 -32
l-96 -121q-23 -30 -19 -63.5t29 -57.5q20 -18 50 -22q136 -10 241 14q23 5 38 18z" />
    <glyph glyph-name="six" unicode="6" horiz-adv-x="954" 
d="M911 637v0l-283 252l-34 -21l-284 -176q-3 14 4.5 37t23 50.5t35 56.5t39.5 56t37 48.5t28 34l11 12.5l-353 202q-74 -127 -105 -222t-34.5 -158t4 -94.5l7.5 -31.5l24.5 -41t69 -99t105.5 -113l35 -31l-208 -315l24 -12l307 -156l14 -6l170 267l123 173v0q4 5 38 50
q68 92 202 237z" />
    <glyph glyph-name="six" unicode="&#x6f6;" horiz-adv-x="954" 
d="M911 637v0l-283 252l-34 -21l-284 -176q-3 14 4.5 37t23 50.5t35 56.5t39.5 56t37 48.5t28 34l11 12.5l-353 202q-74 -127 -105 -222t-34.5 -158t4 -94.5l7.5 -31.5l24.5 -41t69 -99t105.5 -113l35 -31l-208 -315l24 -12l307 -156l14 -6l170 267l123 173v0q4 5 38 50
q68 92 202 237z" />
    <glyph glyph-name="six" unicode="&#x666;" horiz-adv-x="954" 
d="M911 637v0l-283 252l-34 -21l-284 -176q-3 14 4.5 37t23 50.5t35 56.5t39.5 56t37 48.5t28 34l11 12.5l-353 202q-74 -127 -105 -222t-34.5 -158t4 -94.5l7.5 -31.5l24.5 -41t69 -99t105.5 -113l35 -31l-208 -315l24 -12l307 -156l14 -6l170 267l123 173v0q4 5 38 50
q68 92 202 237z" />
    <glyph glyph-name="seven" unicode="7" horiz-adv-x="1000" 
d="M298 1154v0l-335 -187q96 -182 141 -294q22 -54 24 -61v0l5 -14q73 -194 130 -395l46 -169l25 -7l336 -73l14 -3l46 159q57 201 130 396l5 13v1q2 6 24 60q45 112 141 295l-335 187l-173 -449z" />
    <glyph glyph-name="seven" unicode="&#x6f7;" horiz-adv-x="1000" 
d="M298 1154v0l-335 -187q96 -182 141 -294q22 -54 24 -61v0l5 -14q73 -194 130 -395l46 -169l25 -7l336 -73l14 -3l46 159q57 201 130 396l5 13v1q2 6 24 60q45 112 141 295l-335 187l-173 -449z" />
    <glyph glyph-name="seven" unicode="&#x667;" horiz-adv-x="1000" 
d="M298 1154v0l-335 -187q96 -182 141 -294q22 -54 24 -61v0l5 -14q73 -194 130 -395l46 -169l25 -7l336 -73l14 -3l46 159q57 201 130 396l5 13v1q2 6 24 60q45 112 141 295l-335 187l-173 -449z" />
    <glyph glyph-name="eight" unicode="8" horiz-adv-x="1000" 
d="M303 -100v0l-335 187q96 182 141 294q22 55 24 61v0l5 14q73 195 130 395l46 160l25 6l336 83l14 3l46 -159q57 -201 130 -395l5 -14v0q2 -7 24 -61q45 -112 141 -294l-335 -187l-173 448z" />
    <glyph glyph-name="eight" unicode="&#x6f8;" horiz-adv-x="1000" 
d="M303 -100v0l-335 187q96 182 141 294q22 55 24 61v0l5 14q73 195 130 395l46 160l25 6l336 83l14 3l46 -159q57 -201 130 -395l5 -14v0q2 -7 24 -61q45 -112 141 -294l-335 -187l-173 448z" />
    <glyph glyph-name="eight" unicode="&#x668;" horiz-adv-x="1000" 
d="M303 -100v0l-335 187q96 182 141 294q22 55 24 61v0l5 14q73 195 130 395l46 160l25 6l336 83l14 3l46 -159q57 -201 130 -395l5 -14v0q2 -7 24 -61q45 -112 141 -294l-335 -187l-173 448z" />
    <glyph glyph-name="nine" unicode="9" horiz-adv-x="886" 
d="M842 69v0l10 -43l-14 -4l-332 -67l-14 -5q-26 121 -36 245l-11 119h-66q-68 0 -133 25q-86 37 -127.5 98.5t-52.5 124.5t-7 106q2 37 2 74q-1 50 7 126t43 152.5t116 128.5t227 55q120 -3 191 -64t105.5 -144.5t44.5 -156.5q8 -48 9.5 -78l1.5 -30v-35
q-8 -128 -7.5 -219.5t1.5 -101.5v0l6 -61l4 -40q12 -73 32 -205zM537 695v0q17 15 18.5 37t-16.5 39l-72 68q-11 9 -24 12q-29 6 -50 -18l-57 -72q-26 -40 5 -72q12 -11 30 -13q23 -2 46 -2q54 1 98 10q13 3 22 11z" />
    <glyph glyph-name="nine" unicode="&#x6f9;" horiz-adv-x="886" 
d="M842 69v0l10 -43l-14 -4l-332 -67l-14 -5q-26 121 -36 245l-11 119h-66q-68 0 -133 25q-86 37 -127.5 98.5t-52.5 124.5t-7 106q2 37 2 74q-1 50 7 126t43 152.5t116 128.5t227 55q120 -3 191 -64t105.5 -144.5t44.5 -156.5q8 -48 9.5 -78l1.5 -30v-35
q-8 -128 -7.5 -219.5t1.5 -101.5v0l6 -61l4 -40q12 -73 32 -205zM537 695v0q17 15 18.5 37t-16.5 39l-72 68q-11 9 -24 12q-29 6 -50 -18l-57 -72q-26 -40 5 -72q12 -11 30 -13q23 -2 46 -2q54 1 98 10q13 3 22 11z" />
    <glyph glyph-name="nine" unicode="&#x669;" horiz-adv-x="886" 
d="M842 69v0l10 -43l-14 -4l-332 -67l-14 -5q-26 121 -36 245l-11 119h-66q-68 0 -133 25q-86 37 -127.5 98.5t-52.5 124.5t-7 106q2 37 2 74q-1 50 7 126t43 152.5t116 128.5t227 55q120 -3 191 -64t105.5 -144.5t44.5 -156.5q8 -48 9.5 -78l1.5 -30v-35
q-8 -128 -7.5 -219.5t1.5 -101.5v0l6 -61l4 -40q12 -73 32 -205zM537 695v0q17 15 18.5 37t-16.5 39l-72 68q-11 9 -24 12q-29 6 -50 -18l-57 -72q-26 -40 5 -72q12 -11 30 -13q23 -2 46 -2q54 1 98 10q13 3 22 11z" />
    <glyph glyph-name="colon" unicode=":" horiz-adv-x="424" 
d="M211 0h-3q-58 4 -93 43.5t-35 93.5v6q4 57 44 92.5t96 35.5h2q58 -5 93 -44t35 -93v-5q-4 -58 -43.5 -93.5t-95.5 -35.5zM211 350h-3q-58 4 -93 43.5t-35 93.5v6q4 57 44 92.5t96 35.5h2q58 -5 93 -44t35 -93v-5q-4 -58 -43.5 -93.5t-95.5 -35.5z" />
    <glyph glyph-name="equal" unicode="=" horiz-adv-x="632" 
d="M53 242v238h522v-237zM53 557v238h522v-237z" />
    <glyph glyph-name="bracketleft" unicode="[" horiz-adv-x="459" 
d="M325 -126h95v221h-42q-40 0 -57 17.5t-17 49.5v830q0 32 17 49.5t57 17.5h42v221h-95q-131 0 -207 -67.5t-76 -190.5v-890q0 -123 76 -190.5t207 -67.5z" />
    <glyph glyph-name="bracketright" unicode="]" horiz-adv-x="467" 
d="M144 -126q131 0 207 67.5t76 190.5v890q0 123 -76 190.5t-207 67.5h-95v-221h42q40 0 57 -17.5t17 -49.5v-830q0 -32 -17 -49.5t-57 -17.5h-42v-221h95z" />
    <glyph glyph-name="braceleft" unicode="{" horiz-adv-x="597" 
d="M432 -128h95v222h-42q-40 0 -57 17.5t-17 49.5q0 20 10 100q13 92 13 134q0 73 -34 120t-101 59v3q67 12 101 59t34 121q0 41 -13 133q-10 80 -10 100q0 33 17 50.5t57 17.5h42v221h-95q-131 0 -207 -67.5t-76 -191.5q0 -52 17 -147q14 -74 14 -105q0 -41 -25.5 -60
t-89.5 -19v-226q63 0 89 -20.5t26 -59.5q0 -31 -14 -105q-17 -95 -17 -147q0 -124 76 -191.5t207 -67.5z" />
    <glyph glyph-name="braceright" unicode="}" horiz-adv-x="544" 
d="M133 -128q131 0 207 67.5t76 191.5q0 52 -17 147q-14 74 -14 105q0 39 26 59.5t89 20.5v226q-64 0 -89.5 19t-25.5 60q0 31 14 105q17 95 17 147q0 124 -76 191.5t-207 67.5h-95v-221h42q40 0 57 -17.5t17 -50.5q0 -20 -10 -100q-13 -92 -13 -133q0 -74 34 -121t101 -59
v-3q-67 -12 -101 -59t-34 -120q0 -42 13 -134q10 -80 10 -100q0 -32 -17 -49.5t-57 -17.5h-42v-222h95z" />
    <glyph glyph-name="guillemotleft" unicode="&#xab;" horiz-adv-x="786" 
d="M393 501q-60 -58 -63 -137t51 -142v0l1 1l191 -209l148 131l-192 211l207 193l-135 145l-208 -193v0zM67 501q-60 -58 -63.5 -137t51.5 -142v0v1l192 -209l147 131l-192 211l207 193l-135 145l-207 -193v0z" />
    <glyph glyph-name="periodcentered" unicode="&#xb7;" horiz-adv-x="522" 
d="M364 776q0 -95 -103 -95q-43 0 -72.5 26.5t-29.5 68.5q0 95 102 95q103 0 103 -95z" />
    <glyph glyph-name="periodcentered" unicode="&#x2219;" horiz-adv-x="522" 
d="M364 776q0 -95 -103 -95q-43 0 -72.5 26.5t-29.5 68.5q0 95 102 95q103 0 103 -95z" />
    <glyph glyph-name="periodcentered" unicode="&#x2d9;" horiz-adv-x="522" 
d="M364 776q0 -95 -103 -95q-43 0 -72.5 26.5t-29.5 68.5q0 95 102 95q103 0 103 -95z" />
    <glyph glyph-name="guillemotright" unicode="&#xbb;" horiz-adv-x="783" 
d="M367 501v0l-207 193l-135 -145l207 -193l-192 -211l147 -131l192 209v-1v0q55 63 51.5 142t-63.5 137zM694 501v0l-208 193l-134 -145l207 -193l-193 -211l148 -131l191 209l1 -1v0q55 63 51.5 142t-63.5 137z" />
    <glyph glyph-name="multiply" unicode="&#xd7;" horiz-adv-x="803" 
d="M550 122l-496 528l203 190l496 -529zM238 132l-193 199l520 506l194 -200z" />
    <glyph glyph-name="divide" unicode="&#xf7;" horiz-adv-x="928" 
d="M198 261v248h560v-247zM470 8h-3q-45 4 -72.5 34.5t-27.5 73.5v3q3 45 33.5 72.5t71.5 27.5q48 0 79 -34q27 -31 27 -74v-3q-3 -45 -34 -72.5t-74 -27.5zM470 560h-3q-45 4 -72.5 34.5t-27.5 73.5v3q3 45 33.5 72.5t71.5 27.5q48 0 79 -34q27 -31 27 -74v-3
q-3 -45 -34 -72.5t-74 -27.5z" />
    <glyph glyph-name="arabiccomma" unicode="&#x60c;" horiz-adv-x="403" 
d="M191 0q69 0 118 44t54 114v6q0 100 -88 160l69 151h-217l-88 -255q-7 -19 -8 -40l-1 -7q0 -69 44 -118t114 -55h3z" />
    <glyph glyph-name="arabicsemicolon" unicode="&#x61b;" horiz-adv-x="427" 
d="M199 315q69 0 118 44t54 114v6q0 100 -88 160l69 151h-217l-88 -255q-7 -19 -8 -40l-1 -7q0 -69 44 -118t114 -55h3zM211 0h-3q-58 4 -93 43.5t-35 93.5v6q4 57 44 92.5t96 35.5h2q58 -5 93 -44t35 -93v-5q-4 -58 -43.5 -93.5t-95.5 -35.5z" />
    <glyph glyph-name="arabicquestionmark" unicode="&#x61f;" horiz-adv-x="608" 
d="M545 375v0l1 319l-299 90q8 10 26 18t44 13.5t55 9.5t57 6t51 3t37 1.5l14 0.5l-64 301q-122 -12 -199.5 -38.5t-119.5 -56t-58 -51l-16 -21.5l-12 -38.5t-23.5 -98t-12.5 -128.5l-0.5 -33.5t3.5 -83t17 -98.5t39 -83t70 -34h390l-3 2h3zM226 373v-105l319 34v73z
M379 -70h-3q-61 5 -97.5 46.5t-36.5 97.5v5q4 60 46 97.5t100 37.5h3q60 -5 97 -46t37 -98v-5q-5 -60 -46.5 -97.5t-99.5 -37.5z" />
    <glyph glyph-name="hamza-arab" unicode="&#x621;" horiz-adv-x="700" 
d="M625 471v0l75 -326l-2 -1l2 -1l-513 -121l-94 -22l-80 340l77 18q-16 70 -18 134t1 106l3 42l6 17t25.5 47t58 68t102 80t158.5 85l148 -324l-65 -18.5t-131 -46t-80 -56.5z" />
    <glyph glyph-name="arabictatweelmod" unicode="&#x640;" horiz-adv-x="102" 
d="M111 416v-416h-123v416h123v0z" />
    <glyph glyph-name="arabicfathatancomb" unicode="&#x64b;" 
d="M147 1247l-47 84l323 179l47 -84zM74 1377l-47 84l323 179l47 -84z" />
    <glyph glyph-name="arabicdammatancomb" unicode="&#x64c;" horiz-adv-x="517" 
d="M323 1622v0v0q-53 21 -104 2q-51 -20 -75 -72l-2 -5q-30 -77 20 -149l-98 -96l167 -65l144 170q11 13 18 29l3 5q20 53 1 104t-71 76zM141 1713v0q-56 -20 -85.5 -57.5t-40 -81t-10.5 -83.5t5 -66l5 -26l90 16q-16 52 -14.5 90.5t14.5 64t29.5 41t29.5 22l13 6.5z" />
    <glyph glyph-name="arabickasratancomb" unicode="&#x64d;" 
d="M147 -850l-47 84l323 179l47 -84zM74 -720l-47 84l323 179l47 -84z" />
    <glyph glyph-name="arabicfathacomb" unicode="&#x64e;" horiz-adv-x="465" 
d="M104 1272l-47 84l323 179l47 -84z" />
    <glyph glyph-name="arabicdammacomb" unicode="&#x64f;" horiz-adv-x="429" 
d="M274 1592v0v0q-55 14 -103 -12q-48 -25 -66 -80l-2 -5q-20 -80 39 -146l-86 -107l174 -44l122 187q9 14 14 30l2 6q14 55 -11 103q-26 48 -80 67z" />
    <glyph glyph-name="arabickasracomb" unicode="&#x650;" horiz-adv-x="434" 
d="M81 -800l-47 84l323 179l47 -84z" />
    <glyph glyph-name="arabicshaddacomb" unicode="&#x651;" horiz-adv-x="465" 
d="M180 1221l25 5q50 11 75 43q18 -18 49 -13q64 11 93 43q24 25 18 66q-1 12 -5 25q-6 25 -25 77q-31 77 -39 76q-8 -3 -46 -30l-38 -29l23 -41q13 -27 15 -38q2 -15 -9 -21l-34 -8l-1 4q-4 11 -8.5 25.5t-10 28.5t-8.5 24q-11 25 -13 25.5t-3 -0.5l-1 -1q-6 -1 -45 -20
l-38 -21l6 -10q4 -11 11 -28q11 -33 12 -38t-2 -10.5t-10 -7.5l-23 -5q-12 -2 -16 9l-20 96l-86 -20l28 -131q3 -18 23 -42q32 -38 93 -34q2 0 10 1z" />
    <glyph glyph-name="arabicsukuncomb" unicode="&#x652;" horiz-adv-x="410" 
d="M210 1090h-6q-74 6 -119.5 56.5t-45.5 120.5v6q6 74 56.5 119.5t120.5 45.5h6q74 -6 119.5 -56.5t45.5 -120.5v-6q-6 -74 -56.5 -119.5t-120.5 -45.5zM211 1209q25 0 42.5 17t17.5 42t-17.5 42.5t-42.5 17.5q-24 0 -41.5 -17.5t-17.5 -42.5t17.5 -42t41.5 -17z" />
    <glyph glyph-name="zwnj" unicode="&#x200c;" horiz-adv-x="31" 
 />
    <glyph glyph-name="zwj" unicode="&#x200d;" horiz-adv-x="31" 
 />
    <glyph glyph-name="lefttorightmark" unicode="&#x200e;" horiz-adv-x="31" 
d="M207 1100l-92 -94l-23 20l60 60h-121v-1086h-31v1115h148l-56 57l23 21z" />
    <glyph glyph-name="righttoleftmark" unicode="&#x200f;" horiz-adv-x="31" 
d="M31 0h-31v1086h-121l59 -60l-20 -20l-95 94l95 93l20 -21l-57 -57h150v-1115z" />
    <glyph glyph-name="quoteleft" unicode="&#x2018;" horiz-adv-x="463" 
d="M224 925q69 0 118 44t54 114v6q0 100 -88 160l69 151h-217l-88 -255q-7 -19 -8 -40l-1 -7q0 -69 44 -118t114 -55h3z" />
    <glyph glyph-name="quoteright" unicode="&#x2019;" horiz-adv-x="469" 
d="M241 1400q-69 0 -118 -44t-54 -114v-6q0 -100 88 -160l-69 -151h217l88 255q7 19 8 40l1 7q0 69 -44 118t-114 55h-3z" />
    <glyph glyph-name="quotedblleft" unicode="&#x201c;" horiz-adv-x="783" 
d="M207 925q69 0 118 44t54 114v6q0 100 -88 160l69 151h-217l-88 -255q-7 -19 -8 -40l-1 -7q0 -69 44 -118t114 -55h3zM574 925q69 0 118 44t54 114v6q0 100 -88 160l69 151h-217l-88 -255q-7 -19 -8 -40l-1 -7q0 -69 44 -118t114 -55h3z" />
    <glyph glyph-name="quotedblright" unicode="&#x201d;" horiz-adv-x="781" 
d="M579 1400q-69 0 -118 -44t-54 -114v-6q0 -100 88 -160l-69 -151h217l88 255q7 19 8 40l1 7q0 69 -44 118t-114 55h-3zM212 1400q-69 0 -118 -44t-54 -114v-6q0 -100 88 -160l-69 -151h217l88 255q7 19 8 40l1 7q0 69 -44 118t-114 55h-3z" />
    <glyph glyph-name="guilsinglleft" unicode="&#x2039;" horiz-adv-x="477" 
d="M74 501q-60 -58 -63.5 -137t51.5 -142v0v1l192 -209l147 131l-192 211l207 193l-135 145l-207 -193v0z" />
    <glyph glyph-name="guilsinglright" unicode="&#x203a;" horiz-adv-x="460" 
d="M371 501v0l-207 193l-135 -145l207 -193l-192 -211l147 -131l192 209v-1v0q55 63 51.5 142t-63.5 137z" />
    <glyph glyph-name="glyph56" unicode="&#xe820;" horiz-adv-x="451" 
d="M91 1237l-47 84l323 179l47 -84z" />
    <glyph glyph-name="glyph57" unicode="&#xe821;" horiz-adv-x="381" 
d="M239 1595v0v0q-55 14 -103 -12q-48 -25 -66 -80l-2 -5q-20 -80 39 -146l-86 -107l174 -44l122 187q9 14 14 30l2 6q14 55 -11 103q-26 48 -80 67z" />
    <glyph glyph-name="glyph58" unicode="&#xe822;" horiz-adv-x="0" 
d="M-2 1153h-6q-74 6 -119.5 56.5t-45.5 120.5v6q6 74 56.5 119.5t120.5 45.5h6q74 -6 119.5 -56.5t45.5 -120.5v-6q-6 -74 -56.5 -119.5t-120.5 -45.5zM-1 1272q25 0 42.5 17t17.5 42t-17.5 42.5t-42.5 17.5q-24 0 -41.5 -17.5t-17.5 -42.5t17.5 -42t41.5 -17z" />
    <glyph glyph-name="glyph59" unicode="&#xe823;" 
d="M139 1159l-47 84l323 179l47 -84zM66 1289l-47 84l323 179l47 -84z" />
    <glyph glyph-name="glyph60" unicode="&#xe824;" horiz-adv-x="484" 
d="M-171 1585v0v0q-53 21 -104 2q-51 -20 -75 -72l-2 -5q-30 -77 20 -149l-98 -96l167 -65l144 170q11 13 18 29l3 5q20 53 1 104t-71 76zM-353 1676v0q-56 -20 -85.5 -57.5t-40 -81t-10.5 -83.5t5 -66l5 -26l90 16q-16 52 -14.5 90.5t14.5 64t29.5 41t29.5 22l13 6.5z" />
    <glyph glyph-name="glyph61" unicode="&#xe825;" horiz-adv-x="498" 
d="M200 1178l25 5q50 11 75 43q18 -18 49 -13q64 11 93 43q24 25 18 66q-1 12 -5 25q-6 25 -25 77q-31 77 -39 76q-8 -3 -46 -30l-38 -29l23 -41q13 -27 15 -38q2 -15 -9 -21l-34 -8l-1 4q-4 11 -8.5 25.5t-10 28.5t-8.5 24q-11 25 -13 25.5t-3 -0.5l-1 -1q-6 -1 -45 -20
l-38 -21l6 -10q4 -11 11 -28q11 -33 12 -38t-2 -10.5t-10 -7.5l-23 -5q-12 -2 -16 9l-20 96l-86 -20l28 -131q3 -18 23 -42q32 -38 93 -34q2 0 10 1z" />
    <glyph glyph-name="glyph62" unicode="&#xe826;" horiz-adv-x="0" 
d="M-237 -238l-47 84l323 179l47 -84z" />
    <glyph glyph-name="glyph63" unicode="&#xe827;" horiz-adv-x="0" 
d="M-249 -294l-47 84l323 179l47 -84zM-322 -164l-47 84l323 179l47 -84z" />
    <glyph glyph-name="glyph64" unicode="&#xe828;" horiz-adv-x="552" 
d="M254 1177l25 5q50 11 75 43q18 -18 49 -13q64 11 93 43q24 25 18 66q-1 12 -5 25q-6 25 -25 77q-31 77 -39 76q-8 -3 -46 -30l-38 -29l23 -41q13 -27 15 -38q2 -15 -9 -21l-34 -8l-1 4q-4 11 -8.5 25.5t-10 28.5t-8.5 24q-11 25 -13 25.5t-3 -0.5l-1 -1q-6 -1 -45 -20
l-38 -21l6 -10q4 -11 11 -28q11 -33 12 -38t-2 -10.5t-10 -7.5l-23 -5q-12 -2 -16 9l-20 96l-86 -20l28 -131q3 -18 23 -42q32 -38 93 -34q2 0 10 1zM90 1428l-47 84l323 179l47 -84z" />
    <glyph glyph-name="glyph65" unicode="&#xe829;" 
d="M180 1221l25 5q50 11 75 43q18 -18 49 -13q64 11 93 43q24 25 18 66q-1 12 -5 25q-6 25 -25 77q-31 77 -39 76q-8 -3 -46 -30l-38 -29l23 -41q13 -27 15 -38q2 -15 -9 -21l-34 -8l-1 4q-4 11 -8.5 25.5t-10 28.5t-8.5 24q-11 25 -13 25.5t-3 -0.5l-1 -1q-6 -1 -45 -20
l-38 -21l6 -10q4 -11 11 -28q11 -33 12 -38t-2 -10.5t-10 -7.5l-23 -5q-12 -2 -16 9l-20 96l-86 -20l28 -131q3 -18 23 -42q32 -38 93 -34q2 0 10 1zM203 1760v0v0q-38 10 -72 -8q-34 -17 -46 -56l-1 -3q-14 -56 27 -102l-60 -75l121 -30l85 130q7 10 10 21l2 4q9 39 -8 72
q-18 34 -56 47h-2z" />
    <glyph glyph-name="glyph66" unicode="&#xe82a;" horiz-adv-x="527" 
d="M181 1398l25 5q50 11 75 43q18 -18 49 -13q64 11 93 43q24 25 18 66q-1 12 -5 25q-6 25 -25 77q-31 77 -39 76q-8 -3 -46 -30l-38 -29l23 -41q13 -27 15 -38q2 -15 -9 -21l-34 -8l-1 4q-4 11 -8.5 25.5t-10 28.5t-8.5 24q-11 25 -13 25.5t-3 -0.5l-1 -1q-6 -1 -45 -20
l-38 -21l6 -10q4 -11 11 -28q11 -33 12 -38t-2 -10.5t-10 -7.5l-23 -5q-12 -2 -16 9l-20 96l-86 -20l28 -131q3 -18 23 -42q32 -38 93 -34q2 0 10 1zM227 1129l-28 74l285 106l28 -74zM184 1244l-28 74l284 106l28 -74z" />
    </font>
</defs>
</svg>
