<?xml version="1.0" standalone="no"?>
<!DOCTYPE svg PUBLIC "-//W3C//DTD SVG 1.1//EN" "http://www.w3.org/Graphics/SVG/1.1/DTD/svg11.dtd" >
<svg xmlns="http://www.w3.org/2000/svg" xmlns:xlink="http://www.w3.org/1999/xlink" version="1.1">
<metadata>
Created by FontForge 20170731 at Wed Apr  6 17:12:59 2022
 By Aleksey,,,
Copyright (c) 2021 by www.fontiran.com (Moslem Ebrahimi). All rights reserved.
</metadata>
<defs>
<font id="IRANSansXFaNum-Bold" horiz-adv-x="0" >
  <font-face 
    font-family="IRANSansXFaNum"
    font-weight="700"
    font-stretch="normal"
    units-per-em="1000"
    panose-1="0 0 0 0 0 0 0 0 0 0"
    ascent="800"
    descent="-200"
    x-height="528"
    cap-height="711"
    bbox="-93 -510 2334 1066"
    underline-thickness="32"
    underline-position="-261"
    unicode-range="U+000D-FEFF"
  />
<missing-glyph horiz-adv-x="255" 
d="M38 429h179v-433h-179v433zM208 4v417h-161v-417h161z" />
    <glyph glyph-name="uni06AA" unicode="&#x6a9;&#x621;&#x621;" horiz-adv-x="1239" 
d="M145.5 49.5q-100.5 60.5 -100.5 166.5q0 44 11.5 95t29.5 91l96 -46q-12 -42 -19.5 -74.5t-5.5 -56.5q7 -38 80.5 -63t201.5 -25v-1h7q218 0 386 7t265 19q0 33 -23 49.5t-89 23.5t-203 7q-171 0 -259 12t-130 43q-6 30 -6 58q0 87 51 161t138.5 121.5t192.5 61.5
l27 -135q-82 -13 -147 -40.5t-105.5 -60t-56.5 -62.5q40 -12 121 -17t278 -5q150 0 226 -45.5t76 -142.5q0 -59 -21.5 -94t-64 -53t-112.5 -28q-105 -15 -220.5 -21.5t-323.5 -6.5h-7h-9h-1q-183 1 -283.5 61.5z" />
    <glyph glyph-name="uni06BE" unicode="&#x647;&#x621;&#x621;" horiz-adv-x="743" 
d="M147 150q-30 44 -30 91q0 11 4 33q13 64 47 117l-30 9l54 138q196 -58 307.5 -112t156.5 -108t45 -117q0 -43 -17 -94q-17 -52 -70.5 -78t-128.5 -26q-81 0 -163 28q-96 -31 -282 -31l33 149q51 0 74 1zM249.5 214.5q24.5 -22.5 66.5 -40.5q79 26 79 83q0 26 -16 48.5
t-40 32.5l-9 3l-9 2q-3 1 -10 1q-32 0 -59 -25t-27 -58q0 -24 24.5 -46.5zM500 135q93 0 93 46q0 45 -104 96q1 -21 -2 -47q-9 -55 -29 -93q15 -2 42 -2z" />
    <glyph glyph-name="uni06C0" unicode="&#x647;&#x654;" horiz-adv-x="476" 
d="M93.5 46q-51.5 50 -51.5 129q0 31 9 65q20 82 88 162l-34 21l76 113q132 -80 199 -161.5t67 -172.5q0 -61 -27.5 -107.5t-75 -72.5t-106.5 -26q-93 0 -144.5 50zM103 643q58 1 91 14.5t47 32.5q-12 7 -58 20q-32 11 -46.5 17.5t-23.5 18.5t-9 34q0 39 20.5 72.5t52.5 53
t64 19.5q41 0 66 -19l-30 -56q-3 1 -11.5 3t-21.5 3q-30 0 -54.5 -18.5t-31.5 -45.5q10 -5 53 -18q45 -13 65 -26t21 -41q0 -34 -23.5 -65.5t-69.5 -50t-110 -15.5zM170 160q25 -19 75 -19q40 0 66.5 15t31.5 39q-7 33 -35.5 68.5t-80.5 76.5q-79 -74 -80 -127
q-2 -34 23 -53z" />
    <glyph glyph-name="uni06D2" unicode="&#x649;&#x621;&#x621;" horiz-adv-x="975" 
d="M52 111q0 77 45.5 151.5t112.5 121.5t125 47q37 0 68.5 -23t51.5 -49t27 -40l-86 -75q-8 11 -29 24.5t-44 13.5q-37 0 -72 -23.5t-59 -53t-27 -42.5q6 -4 42.5 -11.5t101 -13.5t150.5 -6q169 -1 280 4.5t215 13.5l-51 -149l-33 -3q-87 -7 -169 -11t-217 -4
q-137 0 -221 8.5t-130 24.5t-74 41q-7 25 -7 54z" />
    <glyph glyph-name="uni06D3" unicode="&#x626;&#x621;&#x621;" horiz-adv-x="975" 
d="M52 111q0 77 45.5 151.5t112.5 121.5t125 47q37 0 68.5 -23t51.5 -49t27 -40l-86 -75q-8 11 -29 24.5t-44 13.5q-37 0 -72 -23.5t-59 -53t-27 -42.5q6 -4 42.5 -11.5t101 -13.5t150.5 -6q169 -1 280 4.5t215 13.5l-51 -149l-33 -3q-87 -7 -169 -11t-217 -4
q-137 0 -221 8.5t-130 24.5t-74 41q-7 25 -7 54zM160 535l56 17q-15 17 -22 43q-2 7 -2 21q0 34 21.5 63.5t53.5 37.5q12 4 28 4q24 0 68 -14l-17 -67q-30 10 -52 10q-25 0 -37.5 -13.5t-8.5 -28.5q2 -13 16.5 -23t37.5 -7l77 24v-67l-219 -68v68z" />
    <glyph glyph-name="uni06C0.fina" unicode="&#xfeea;&#x654;" horiz-adv-x="518" arabic-form="final" 
d="M422.5 16q-35.5 16 -59.5 50q-60 -18 -116 -18q-90 0 -147.5 43.5t-57.5 118.5q0 87 64 147t172 104l-7 60l116 25q23 -214 32 -282q6 -50 14.5 -74t25 -32.5t48.5 -8.5h17l8 -75l-8 -74h-17q-49 0 -84.5 16zM73 558q58 1 91 14.5t48 32.5q-9 4 -59 20q-32 11 -46.5 17.5
t-23.5 18.5t-9 34q0 39 20.5 72.5t52.5 53t65 19.5q38 0 65 -19l-30 -57q-18 6 -35 6q-28 0 -52.5 -18.5t-30.5 -44.5q6 -4 52 -18t65.5 -26.5t20.5 -40.5q0 -34 -23.5 -65.5t-69.5 -50.5t-110 -16zM173.5 202q24.5 -15 65.5 -15q33 0 75 12q-3 15 -7 45l-12 87
q-57 -18 -99 -44.5t-44 -48.5q-3 -21 21.5 -36z" />
    <glyph glyph-name="uni06C1.fina" unicode="&#xfeea;&#x621;&#x621;" horiz-adv-x="579" arabic-form="final" 
d="M584 149l8 -75l-8 -74h-6q-100 0 -173.5 56t-120.5 142q-44 -20 -88.5 -78.5t-65.5 -123.5l-86 55q11 57 41.5 113.5t71.5 100.5t83 65q29 16 56 16q45 0 80 -51q5 -7 33 -51t71 -69.5t96 -25.5h8z" />
    <glyph glyph-name="uni06C1.medi" unicode="&#xfeec;&#xfe8c;&#xfe8c;&#xfe8c;&#xfe8c;" horiz-adv-x="525" arabic-form="medial" 
d="M197.5 -148.5q-59.5 83.5 -75.5 180.5q-45 -32 -114 -32h-13v148h25q52 0 72 16.5t27 50.5l101 22l-1 -38q0 -177 67 -283q4 60 35.5 114t80 86.5t101.5 32.5h27l8 -75l-8 -74h-27q-55 0 -85 -36.5t-30 -86.5q0 -41 20 -73l-74 -72q-77 36 -136.5 119.5z" />
    <glyph glyph-name="uni06BE.fina" unicode="&#xfeea;&#x621;&#x621;&#x621;&#x621;" horiz-adv-x="589" arabic-form="final" 
d="M397 -240q-51 0 -100.5 27t-86 81t-47.5 132h-14l-67 1l-44 125l125 9q9 91 33 164.5t41.5 108t39.5 72.5l81 23q70 -38 113.5 -110t43.5 -148q0 -52 -18 -94q28 -2 97 -2l8 -75l-8 -74q-26 0 -66 2q26 -49 26 -97q0 -65 -50 -108q-45 -37 -107 -37zM378.5 187.5
q38.5 28.5 38.5 60.5q0 26 -23.5 59.5t-56.5 50.5q-23 -32 -41.5 -90.5t-25.5 -121.5q70 13 108.5 41.5zM329.5 -71.5q35.5 -29.5 75.5 -29.5q19 0 36 7q4 4 4 13q0 23 -21.5 55.5t-65.5 56.5q-34 -14 -81 -22q17 -51 52.5 -80.5z" />
    <glyph glyph-name="uni06BE.medi" unicode="&#xfeec;&#xfe8c;&#xfe8c;&#xfe8c;" horiz-adv-x="685" arabic-form="medial" 
d="M-4 149h16q50 0 73 1q-30 44 -30 91q0 11 4 33q13 64 48 118q-13 3 -31 8l55 138q197 -60 308 -114.5t156 -107.5t45 -115q0 -25 -6 -52h55l8 -75l-8 -74q-60 0 -103.5 2t-84.5 9q-32 -8 -78 -8q-82 0 -160 27q-91 -30 -251 -30h-16v149zM251 173q83 27 83 83
q0 25 -14 47.5t-37 33.5l-24 8q-3 1 -10 1q-32 0 -59 -26t-27 -59q0 -48 88 -88zM440 132q36 0 59.5 8.5t29.5 25.5q3 8 3 14q0 46 -105 98q1 -21 -2 -48q-9 -56 -30 -95q24 -3 45 -3z" />
    <glyph glyph-name="uni06D2.fina" unicode="&#xfbfd;&#x621;&#x621;" horiz-adv-x="444" arabic-form="final" 
d="M53 -141q0 76 45.5 143t125 107t175.5 40h50l8 -75l-8 -74h-50q-68 0 -120.5 -19t-82.5 -42.5t-33 -33.5q30 -11 91.5 -18.5t147.5 -7.5q160 0 321 7l-52 -149q-108 -7 -269 -7q-136 0 -219.5 17.5t-121.5 51.5q-8 32 -8 60z" />
    <glyph glyph-name="uni06D3.fina" unicode="&#xfe8a;&#x621;&#x621;" horiz-adv-x="444" arabic-form="final" 
d="M53 -141q0 76 45.5 143t125 107t175.5 40h50l8 -75l-8 -74h-50q-68 0 -120.5 -19t-82.5 -42.5t-33 -33.5q30 -11 91.5 -18.5t147.5 -7.5q160 0 321 7l-52 -149q-108 -7 -269 -7q-136 0 -219.5 17.5t-121.5 51.5q-8 32 -8 60zM98 241l56 17q-15 17 -22 43q-2 7 -2 21
q0 35 21.5 64.5t53.5 36.5q12 4 28 4q24 0 68 -14l-17 -67q-30 10 -52 10t-35 -11t-13 -25q0 -13 14 -25t40 -11l79 25v-68l-219 -67v67z" />
    <glyph glyph-name="uni06440622" unicode="&#xfedf;&#xfe82;" horiz-adv-x="589" arabic-form="isolated" 
d="M546 300q-1 -103 -63 -176t-163.5 -111t-221.5 -42l-35 137q44 3 88 9q11 31 11 69q0 128 -118 394l105 73q59 -121 89.5 -228t30.5 -190q0 -54 -14 -98q80 21 125 59.5t45 101.5q-1 100 -9 188t-24 227l125 27q32 -243 29 -440zM56 768.5q29 24.5 62 24.5q16 0 29.5 -4
t34.5 -13q30 -15 51 -15q17 0 34.5 10.5t28.5 27.5l45 -39q-22 -33 -50 -51.5t-58 -18.5q-27 0 -65 18q-32 14 -48 14q-19 0 -36 -13.5t-27 -37.5l-49 28q19 45 48 69.5z" />
    <glyph glyph-name="uni06440622.fina" unicode="&#xfee0;&#xfe82;" horiz-adv-x="658" arabic-form="final" 
d="M480 120q-60 -69 -161 -107t-221 -42l-35 137q44 3 88 9q11 31 11 69q0 128 -118 394l105 73q59 -121 89.5 -228t30.5 -190q0 -54 -14 -98q80 21 125 59.5t45 101.5q-1 100 -9 188t-24 227l125 27q32 -243 29 -440v-8q3 -56 13 -86.5t32 -43.5t62 -13h11v-149h-13
q-128 0 -171 120zM57.5 768.5q28.5 24.5 62.5 24.5q17 0 30.5 -4.5t32.5 -12.5q32 -15 51 -15q17 0 34.5 10.5t28.5 27.5l45 -39q-22 -33 -50 -51.5t-58 -18.5q-27 0 -65 18q-12 5 -24 9.5t-23 4.5q-19 0 -36.5 -13.5t-27.5 -37.5l-49 28q20 45 48.5 69.5z" />
    <glyph glyph-name="uni06440623" unicode="&#xfedf;&#xfe84;" horiz-adv-x="589" arabic-form="isolated" 
d="M546 300q-1 -103 -63 -176t-163.5 -111t-221.5 -42l-35 137q44 3 88 9q11 31 11 69q0 128 -118 394l105 73q59 -121 89.5 -228t30.5 -190q0 -54 -14 -98q80 21 125 59.5t45 101.5q-1 100 -9 188t-24 227l125 27q32 -243 29 -440zM11 723l56 17q-15 17 -22 43q-2 7 -2 21
q0 35 21.5 64.5t53.5 36.5q12 4 28 4q24 0 68 -14l-17 -67q-30 10 -52 10t-35 -11t-13 -25q0 -13 14 -25t40 -11l79 25v-68l-219 -67v67z" />
    <glyph glyph-name="uni06440623.fina" unicode="&#xfee0;&#xfe84;" horiz-adv-x="658" arabic-form="final" 
d="M480 120q-60 -69 -161 -107t-221 -42l-35 137q44 3 88 9q11 31 11 69q0 128 -118 394l105 73q59 -121 89.5 -228t30.5 -190q0 -54 -14 -98q80 21 125 59.5t45 101.5q-1 100 -9 188t-24 227l125 27q32 -243 29 -440v-8q3 -56 13 -86.5t32 -43.5t62 -13h11v-149h-13
q-128 0 -171 120zM11 723l56 17q-15 17 -22 43q-2 7 -2 21q0 35 21.5 64.5t53.5 36.5q12 4 28 4q24 0 68 -14l-17 -67q-30 10 -52 10t-35 -11t-13 -25q0 -13 14 -25t40 -11l79 25v-68l-219 -67v67z" />
    <glyph glyph-name="uni06440625" unicode="&#xfedf;&#xfe88;" horiz-adv-x="589" arabic-form="isolated" 
d="M546 300q-1 -103 -63 -176t-163.5 -111t-221.5 -42l-35 137q44 3 88 9q11 31 11 69q0 128 -118 394l105 73q59 -121 89.5 -228t30.5 -190q0 -54 -14 -98q80 21 125 59.5t45 101.5q-1 100 -9 188t-24 227l125 27q32 -243 29 -440zM44 -263l56 17q-15 17 -22 43q-2 7 -2 21
q0 34 21.5 63.5t53.5 37.5q12 4 28 4q25 0 69 -14l-18 -67q-30 10 -52 10t-34 -11t-12 -26q0 -13 14 -25t40 -10l77 24v-67l-219 -68v68z" />
    <glyph glyph-name="uni06440625.fina" unicode="&#xfee0;&#xfe88;" horiz-adv-x="658" arabic-form="final" 
d="M480 120q-60 -69 -161 -107t-221 -42l-35 137q44 3 88 9q11 31 11 69q0 128 -118 394l105 73q59 -121 89.5 -228t30.5 -190q0 -54 -14 -98q80 21 125 59.5t45 101.5q-1 100 -9 188t-24 227l125 27q32 -243 29 -440v-8q3 -56 13 -86.5t32 -43.5t62 -13h11v-149h-13
q-128 0 -171 120zM44 -259l56 17q-18 19 -22 43q-2 7 -2 21q0 34 21.5 63.5t53.5 37.5q14 3 26 3q26 0 71 -14l-18 -67q-28 11 -53 11q-9 0 -13 -1q-16 -4 -24.5 -14t-8.5 -21q0 -13 14.5 -25.5t40.5 -10.5l77 24v-68l-219 -67v68z" />
    <glyph glyph-name="uni06440627" unicode="&#xfedf;&#xfe8e;" horiz-adv-x="589" arabic-form="isolated" 
d="M546 300q-1 -103 -63 -176t-163.5 -111t-221.5 -42l-35 137q44 3 88 9q11 31 11 69q0 128 -118 394l105 73q59 -121 89.5 -228t30.5 -190q0 -54 -14 -98q80 21 125 59.5t45 101.5q-1 100 -9 188t-24 227l125 27q32 -243 29 -440z" />
    <glyph glyph-name="uni06440627.fina" unicode="&#xfee0;&#xfe8e;" horiz-adv-x="659" arabic-form="final" 
d="M480 120q-60 -69 -161 -107t-221 -42l-35 137q44 3 88 9q11 31 11 69q0 128 -118 394l105 73q59 -121 89.5 -228t30.5 -190q0 -54 -14 -98q80 21 125 59.5t45 101.5q-1 100 -9 188t-24 227l125 27q32 -243 29 -440v-8q3 -56 13 -86.5t32 -43.5t62 -13h11v-149h-13
q-128 0 -171 120z" />
    <glyph glyph-name="uni06AA.001" unicode="&#x6af;&#x621;&#x621;" horiz-adv-x="1239" 
d="M145.5 49.5q-100.5 60.5 -100.5 166.5q0 44 11.5 95t29.5 91l96 -46q-12 -42 -19.5 -74.5t-5.5 -56.5q7 -38 80.5 -63t201.5 -25v-1h7q218 0 386 7t265 19q0 33 -23 49.5t-89 23.5t-203 7q-171 0 -259 12t-130 43q-6 30 -6 58q0 87 51 161t138.5 121.5t192.5 61.5
l27 -135q-82 -13 -147 -40.5t-105.5 -60t-56.5 -62.5q40 -12 121 -17t278 -5q150 0 226 -45.5t76 -142.5q0 -59 -21.5 -94t-64 -53t-112.5 -28q-105 -15 -220.5 -21.5t-323.5 -6.5h-7h-9h-1q-183 1 -283.5 61.5zM486.5 717q75.5 52 156.5 72l13 -61q-73 -18 -142.5 -65.5
t-109.5 -107.5l-27 56q34 54 109.5 106z" />
    <glyph glyph-name="uni06AA.fina" unicode="&#xfb8f;&#x621;&#x621;" horiz-adv-x="1252" 
d="M1137 65q-44 -35 -147 -49q-105 -15 -220.5 -21.5t-323.5 -6.5h-7h-9h-1q-183 1 -283.5 61.5t-100.5 166.5q0 44 11.5 95t29.5 91l96 -46q-12 -42 -19.5 -74.5t-5.5 -56.5q7 -38 80.5 -63t201.5 -25v-1h7q218 0 386 7t265 19q0 33 -23 49.5t-89 23.5t-203 7
q-171 0 -259 12t-130 43q-6 30 -6 58q0 87 51 161t138.5 121.5t192.5 61.5l27 -135q-82 -13 -147 -40.5t-105.5 -60t-56.5 -62.5q40 -12 121 -17t278 -5q156 0 232.5 -49.5t69.5 -155.5q7 -14 22.5 -19.5t41.5 -5.5h8l8 -75l-8 -74h-8q-72 0 -115 65z" />
    <glyph glyph-name="uni06AA.fina.001" unicode="&#xfb93;&#x621;&#x621;" horiz-adv-x="1252" 
d="M1137 65q-44 -35 -147 -49q-105 -15 -220.5 -21.5t-323.5 -6.5h-7h-9h-1q-183 1 -283.5 61.5t-100.5 166.5q0 44 11.5 95t29.5 91l96 -46q-12 -42 -19.5 -74.5t-5.5 -56.5q7 -38 80.5 -63t201.5 -25v-1h7q218 0 386 7t265 19q0 33 -23 49.5t-89 23.5t-203 7
q-171 0 -259 12t-130 43q-6 30 -6 58q0 87 51 161t138.5 121.5t192.5 61.5l27 -135q-82 -13 -147 -40.5t-105.5 -60t-56.5 -62.5q40 -12 121 -17t278 -5q156 0 232.5 -49.5t69.5 -155.5q7 -14 22.5 -19.5t41.5 -5.5h8l8 -75l-8 -74h-8q-72 0 -115 65zM486.5 709
q75.5 52 156.5 72l13 -60q-73 -19 -142.5 -66.5t-109.5 -107.5l-27 56q34 54 109.5 106z" />
    <glyph glyph-name="uni06AA.medi" unicode="&#xfb91;&#xfe8c;&#xfe8c;" horiz-adv-x="918" 
d="M852 17q-28 17 -49 45q-48 -40 -147 -45q-113 -7 -282.5 -12t-350.5 -5h-28v149h28q217 0 429 3.5t311 10.5q0 33 -23 49.5t-89 23.5t-203 7q-171 0 -259 12t-130 43q-6 30 -6 58q0 87 51 160.5t138 121.5t193 62l27 -135q-82 -13 -147 -40.5t-106 -60t-56 -62.5
q40 -13 122 -18t277 -5q150 0 226 -45t76 -142q0 -15 -1 -23q8 -11 22 -15.5t38 -4.5h10v-149h-10q-33 0 -61 17z" />
    <glyph glyph-name="uni06AA.medi.001" unicode="&#xfb95;&#xfe8c;&#xfe8c;" horiz-adv-x="918" 
d="M852 17q-28 17 -49 45q-48 -40 -147 -45q-113 -7 -282.5 -12t-350.5 -5h-28v149h28q217 0 429 3.5t311 10.5q0 33 -23 49.5t-89 23.5t-203 7q-171 0 -259 12t-130 43q-6 30 -6 58q0 87 51 160.5t138 121.5t193 62l27 -135q-82 -13 -147 -40.5t-106 -60t-56 -62.5
q40 -13 122 -18t277 -5q150 0 226 -45t76 -142q0 -15 -1 -23q8 -11 22 -15.5t38 -4.5h10v-149h-10q-33 0 -61 17zM146.5 709.5q75.5 52.5 157.5 72.5l13 -61q-73 -18 -142.5 -65.5t-109.5 -107.5l-27 55q33 54 108.5 106.5z" />
    <glyph glyph-name="uni06AA.init" unicode="&#xfb90;&#xfe8c;&#xfe8c;" horiz-adv-x="905" 
d="M-5 149h28q217 0 429 3.5t311 10.5q0 33 -23 49.5t-89 23.5t-203 7q-171 0 -259 12t-130 43q-6 30 -6 58q0 87 51 160.5t138 121.5t193 62l27 -135q-82 -13 -147 -40.5t-106 -60t-56 -62.5q40 -13 122 -18t277 -5q150 0 226 -45t76 -142q0 -87 -49 -128.5t-149 -46.5
q-113 -7 -282.5 -12t-350.5 -5h-28v149z" />
    <glyph glyph-name="uni06AA.init.001" unicode="&#xfb94;&#xfe8c;&#xfe8c;" horiz-adv-x="905" 
d="M-5 149h28q217 0 429 3.5t311 10.5q0 33 -23 49.5t-89 23.5t-203 7q-171 0 -259 12t-130 43q-6 30 -6 58q0 87 51 160.5t138 121.5t193 62l27 -135q-82 -13 -147 -40.5t-106 -60t-56 -62.5q40 -13 122 -18t277 -5q150 0 226 -45t76 -142q0 -87 -49 -128.5t-149 -46.5
q-113 -7 -282.5 -12t-350.5 -5h-28v149zM146.5 709.5q75.5 52.5 157.5 72.5l13 -61q-73 -18 -142.5 -65.5t-109.5 -107.5l-27 55q33 54 108.5 106.5z" />
    <glyph glyph-name="uni0647.fina.alt" unicode="&#xfeea;&#x621;&#x621;&#x621;" horiz-adv-x="673" 
d="M410 30q-78 -27 -161 -27q-75 0 -129 26t-70 78q-17 56 -17 94q0 62 45 115t156 107.5t308 114.5l55 -138q-18 -5 -31 -8q35 -54 48 -118q4 -22 4 -33q0 -47 -30 -91q23 -1 73 -1h16v-149h-16q-160 0 -251 30zM173.5 140.5q23.5 -8.5 59.5 -8.5q21 0 45 3q-21 39 -30 95
q-3 27 -2 48q-105 -52 -105 -98q0 -6 3 -14q6 -17 29.5 -25.5zM422 173q88 40 88 88q0 24 -15 44.5t-37.5 31.5t-43.5 8l-24 -8q-23 -11 -37 -33.5t-14 -47.5q0 -56 83 -83z" />
    <glyph glyph-name="uni0647.medi.alt" unicode="&#xfeec;&#xfe8c;&#xfe8c;" horiz-adv-x="483" 
d="M203 -230.5q-58 30.5 -99 88.5t-54 142h-25h-29v149h29h25q12 104 48 200t73 130l72 17q71 -40 114 -107.5t43 -143.5q0 -70 -36 -123q48 27 101 27h24l8 -75l-8 -74h-23q-43 0 -70 -23t-27 -57q0 -32 24 -63l-66 -121q-66 3 -124 33.5zM259.5 196.5q36.5 23.5 36.5 50.5
q0 24 -19.5 52t-53.5 50q-21 -30 -38.5 -80.5t-26.5 -108.5q65 13 101.5 36.5zM201 -62.5q27 -30.5 62 -43.5q-4 20 -4 43q0 71 37 123q-54 -34 -135 -49q13 -43 40 -73.5z" />
    <glyph glyph-name="uni0647.init.alt" unicode="&#xfeeb;&#xfe8c;&#xfe8c;" horiz-adv-x="482" 
d="M52 150q10 89 37 170t56 130l103 47q63 -39 104.5 -101t41.5 -137q0 -108 -82 -175q104 -55 119 -156q2 -16 2 -25q0 -45 -21 -82t-57.5 -59t-81.5 -22q-56 0 -103.5 31t-79 90t-40.5 140q-16 -1 -48 -1h-7v149h6q35 0 51 1zM197 -90q32 -39 76 -39q25 0 39 14t11 34
q-6 36 -44 63.5t-103 36.5l-21 -4q10 -66 42 -105zM290 257q0 30 -22.5 59t-52.5 46q-17 -37 -32 -91.5t-23 -110.5q130 23 130 97z" />
    <glyph glyph-name="uni06D2.fina.alt2" unicode="&#xfbfd;&#x621;&#x621;&#x621;&#x621;&#x621;" horiz-adv-x="413" 
d="M51 -141q0 76 45.5 143t125 107t175.5 40h21l8 -75l-8 -74h-21q-69 0 -121 -19t-82 -42.5t-33 -34.5q10 -6 60.5 -15.5t132.5 -9.5q105 0 239 3l-51 -149q-83 -3 -188 -3q-130 0 -196.5 17t-98.5 52q-8 32 -8 60z" />
    <glyph glyph-name="uni06D2.fina.alt3" unicode="&#xfbfd;&#x621;&#x621;&#x621;&#x621;" horiz-adv-x="444" 
d="M53 -141q0 76 45.5 143t125 107t175.5 40h50l8 -75l-8 -74h-50q-68 0 -120.5 -19t-82.5 -42.5t-33 -33.5q30 -11 91.5 -18.5t147.5 -7.5q160 0 321 7l-52 -149q-108 -7 -269 -7q-136 0 -219.5 17.5t-121.5 51.5q-8 32 -8 60z" />
    <glyph glyph-name="uni06D2.fina.alt4" unicode="&#xfbfd;&#x621;&#x621;&#x621;" horiz-adv-x="420" 
d="M40 -142q0 77 45.5 144t125 107t175.5 40h40l8 -75l-8 -74h-40q-69 0 -121.5 -19t-82.5 -42.5t-32 -33.5q39 -11 114 -18.5t177 -7.5q160 0 370 8l-52 -148q-157 -9 -318 -9q-178 0 -266.5 16.5t-127.5 52.5q-7 28 -7 59z" />
    <glyph glyph-name="uni06440671" unicode="&#xfedf;&#xfb51;" horiz-adv-x="589" 
d="M546 300q-1 -103 -63 -176t-163.5 -111t-221.5 -42l-35 137q44 3 88 9q11 31 11 69q0 128 -118 394l105 73q59 -121 89.5 -228t30.5 -190q0 -54 -14 -98q80 21 125 59.5t45 101.5q-1 100 -9 188t-24 227l125 27q32 -243 29 -440zM99 766q12 0 30 -5q26 49 64 77.5
t77 28.5q35 0 59.5 -25t24.5 -62q0 -38 -27.5 -67t-70.5 -37q-18 -3 -33 -3q-34 0 -79 15q-18 5 -29.5 7.5t-20.5 1.5q-21 -1 -40 -26l-44 29q36 66 89 66zM229 737q11 0 17 1q28 4 44 15.5t16 23.5q0 10 -11.5 17.5t-26.5 7.5q-22 0 -45.5 -15t-42.5 -42q29 -8 49 -8z" />
    <glyph glyph-name="uni06440671.fina" unicode="&#xfee0;&#xfb51;" horiz-adv-x="658" 
d="M480 120q-60 -69 -161 -107t-221 -42l-35 137q44 3 88 9q11 31 11 69q0 128 -118 394l105 73q59 -121 89.5 -228t30.5 -190q0 -54 -14 -98q80 21 125 59.5t45 101.5q-1 100 -9 188t-24 227l125 27q32 -243 29 -440v-8q3 -56 13 -86.5t32 -43.5t62 -13h11v-149h-13
q-128 0 -171 120zM42.5 748q22.5 18 49.5 18q12 0 30 -5q26 49 64.5 77.5t77.5 28.5q35 0 59 -24.5t24 -60.5q0 -39 -27 -68.5t-71 -37.5q-16 -3 -33 -3q-32 0 -79 15q-17 5 -29 7.5t-20 1.5q-15 -1 -26 -10t-14 -16l-44 29q16 30 38.5 48zM223 737q11 0 16 1q28 4 44 15.5
t16 24.5q0 10 -11.5 17t-26.5 7q-22 0 -45 -15t-42 -42q29 -8 49 -8z" />
    <glyph glyph-name="uni06A90644" unicode="&#xfb90;&#xfede;" horiz-adv-x="1147" 
d="M645 43q-13 -144 -94 -224t-218 -80q-79 0 -146 32t-106.5 92.5t-39.5 140.5q0 59 21 132t48 127l96 -44q-26 -58 -39.5 -101.5t-13.5 -89.5q0 -62 49.5 -101t130.5 -39q102 0 154.5 52t49.5 157q-5 173 -18 346.5t-26 269.5l125 27q15 -118 26 -509q11 -42 40.5 -62
t86.5 -20q69 0 105.5 13t55.5 37q-10 53 -63 128t-146 159l13 130l371 156l41 -119l-290 -123q26 -22 70 -78t79 -125.5t35 -129.5q0 -21 -4 -37q-19 -80 -92 -120t-175 -40q-77 0 -126 43z" />
    <glyph glyph-name="uni06A90644.fina" unicode="&#xfb91;&#xfede;" horiz-adv-x="1211" 
d="M645 43q-13 -144 -94 -224t-218 -80q-79 0 -146 32t-106.5 92.5t-39.5 140.5q0 59 21 132t48 127l96 -44q-26 -58 -39.5 -101.5t-13.5 -89.5q0 -62 49.5 -101t130.5 -39q102 0 154.5 52t49.5 157q-5 173 -18 346.5t-26 269.5l125 27q15 -118 26 -509q11 -42 40.5 -62
t86.5 -20q69 0 105.5 13t55.5 37q-10 53 -63 128t-146 159l13 130l371 156l41 -119l-290 -123q23 -19 63 -69t71 -105q68 -114 115 -160.5t96 -46.5h16l8 -75l-8 -74h-16q-49 0 -91 29t-88 92q-30 -61 -97.5 -91t-155.5 -30q-77 0 -126 43z" />
    <glyph glyph-name="uni06AF0644" unicode="&#xfb94;&#xfede;" horiz-adv-x="1147" 
d="M645 43q-12 -144 -93.5 -224t-218.5 -80q-79 0 -146 32t-106.5 92.5t-39.5 140.5q0 59 21 132t48 127l96 -44q-26 -58 -39.5 -101.5t-13.5 -89.5q0 -62 49.5 -101t130.5 -39q102 0 154.5 52t49.5 157q-5 173 -18 346.5t-26 269.5l125 27q15 -118 26 -509q11 -42 40.5 -62
t86.5 -20q125 0 161 50q-13 51 -63 116.5t-146 143.5l13 130l371 156l41 -119l-290 -123q29 -25 72 -73.5t77.5 -111.5t34.5 -121q0 -21 -4 -37q-20 -80 -92.5 -120t-174.5 -40q-77 0 -126 43zM743 705l325 134l17 -48l-348 -146z" />
    <glyph glyph-name="uni06AF0644.fina" unicode="&#xfb95;&#xfede;" horiz-adv-x="1212" 
d="M645 43q-13 -144 -94 -224t-218 -80q-79 0 -146 32t-106.5 92.5t-39.5 140.5q0 59 21 132t48 127l96 -44q-26 -58 -39.5 -101.5t-13.5 -89.5q0 -62 49.5 -101t130.5 -39q102 0 154.5 52t49.5 157q-5 173 -18 346.5t-26 269.5l125 27q15 -118 26 -509q11 -42 40.5 -62
t86.5 -20q125 0 161 50q-13 51 -63 116.5t-146 143.5l13 130l371 156l41 -119l-290 -123q25 -21 63 -63.5t68 -90.5l1 1q53 -82 87.5 -124.5t63 -59.5t63.5 -17h16l8 -75l-8 -74h-16q-49 0 -91.5 28.5t-90.5 89.5q-31 -59 -97.5 -88.5t-153.5 -29.5q-77 0 -126 43zM743 705
l325 134l17 -48l-348 -146z" />
    <glyph glyph-name="uni064406440647" unicode="&#xfedf;&#xfee0;&#x651;&#x670;&#xfeea;" horiz-adv-x="991" 
d="M625 57q-52 -61 -136 -61q-92 0 -140 67q-62 -17 -114 -17q-87 0 -141 41t-54 113q0 82 61.5 141.5t168.5 96.5l-8 59l117 26q2 -33 28 -273q4 -38 11 -60t23 -34t46 -12q37 0 57 19t21 44q-7 172 -19 309l117 27q11 -133 21 -347q3 -16 22.5 -33t54.5 -17q37 0 56 19.5
t19 54.5q0 34 -12 166.5t-23 227.5l117 26q11 -93 21.5 -226t10.5 -184q0 -72 -23.5 -124.5t-65.5 -80.5t-96 -28q-85 0 -140 60zM165.5 189q25.5 -13 65.5 -13q33 0 72 11v2l-7 53q-3 18 -5.5 39t-6.5 44q-61 -21 -102.5 -49t-41.5 -54q0 -20 25.5 -33zM477 745l47 -18
q-9 -21 -9 -38q0 -11 7 -18t19 -7q37 0 37 52q0 12 -1 19l47 8q8 -71 44 -71q13 0 20 6.5t7 18.5q0 4 -2 12q-5 15 -28 55l47 27q17 -28 26.5 -49t9.5 -45q0 -39 -20.5 -65t-57.5 -26q-41 0 -64 33q-11 -18 -28.5 -28.5t-36.5 -10.5q-38 0 -58.5 22.5t-20.5 54.5q0 31 15 68
zM631 953q4 -54 4 -95q0 -25 -2 -69l-54 2q2 44 2 66q0 41 -4 91z" />
    <glyph glyph-name="uniFDF2" unicode="&#x627;&#xfedf;&#xfee0;&#xfeea;" horiz-adv-x="1209" 
d="M625 57q-52 -61 -136 -61q-92 0 -140 67q-62 -17 -114 -17q-87 0 -141 41t-54 113q0 82 61.5 141.5t168.5 96.5l-8 59l117 26q2 -33 28 -273q4 -38 11 -60t23 -34t46 -12q37 0 57 19t21 44q-7 172 -19 309l117 27q11 -133 21 -347q3 -16 22.5 -33t54.5 -17q37 0 56 19.5
t19 54.5q0 34 -12 166.5t-23 227.5l117 26q11 -93 21.5 -226t10.5 -184q0 -72 -23.5 -124.5t-65.5 -80.5t-96 -28q-85 0 -140 60zM165.5 189q25.5 -13 65.5 -13q33 0 72 11v2l-7 53q-3 18 -5.5 39t-6.5 44q-61 -21 -102.5 -49t-41.5 -54q0 -20 25.5 -33zM477 745l47 -18
q-9 -21 -9 -38q0 -11 7 -18t19 -7q37 0 37 52q0 12 -1 19l47 8q8 -71 44 -71q13 0 20 6.5t7 18.5q0 4 -2 12q-5 15 -28 55l47 27q17 -28 26.5 -49t9.5 -45q0 -39 -20.5 -65t-57.5 -26q-41 0 -64 33q-11 -18 -28.5 -28.5t-36.5 -10.5q-38 0 -58.5 22.5t-20.5 54.5q0 31 15 68
zM631 953q4 -54 4 -95q0 -25 -2 -69l-54 2q2 44 2 66q0 41 -4 91zM1134 741q9 -60 16.5 -203t7.5 -280q0 -170 -13 -265l-118 13q10 66 10 204t-8.5 289.5t-19.5 212.5z" />
    <glyph glyph-name="uniFDFC.001" unicode="&#x631;&#xfbfe;&#xfe8e;&#x644;&#x621;" horiz-adv-x="1484" 
d="M1198.5 -27q56.5 28 90 58t36.5 55q1 5 1 18q0 39 -8.5 112t-15.5 119l118 26q17 -94 17 -190q0 -48 -7 -101q-15 -99 -98 -168.5t-217 -103.5l-41 129q68 18 124.5 46zM70.5 146.5q20.5 67.5 48.5 127.5l97 -45q-27 -61 -40.5 -103t-13.5 -86q0 -63 46.5 -99.5
t126.5 -36.5q95 0 139 49t40 157q-7 213 -28 440l78 133l145 36q15 4 30 4q36 0 56.5 -24.5t22.5 -70.5l15 -366q2 -54 8.5 -79t25.5 -35.5t60 -10.5q151 0 170 52q-3 40 -24 102.5t-32 83.5l105 57q19 -38 40 -111.5t21 -126.5q0 -103 -69 -154.5t-215 -51.5q-76 0 -120 28
t-63 83t-21 144q-5 212 -13 351l-100 -27l4 -103q6 -134 13 -347q4 -175 -70 -268.5t-218 -93.5q-78 0 -143 32t-103.5 92t-38.5 141q0 59 20.5 126.5zM655 -128q11 -1 36 -1q72 0 157 10t142 25l37 -126q-134 -29 -277 -29q-70 0 -120 7z" />
    <glyph glyph-name="uniFDFC.002" unicode="&#x631;&#xfbfe;&#xfe8e;&#x644;&#x621;&#x621;" horiz-adv-x="1378" 
d="M1161 145.5q60 39.5 60 82.5q0 37 -15 114.5t-32 144.5l115 45q17 -63 27.5 -136.5t10.5 -132.5q0 -32 -2 -46q-9 -105 -82 -170t-210 -102l-40 129q108 32 168 71.5zM70.5 291q20.5 72 39.5 113l103 -57q-16 -35 -33.5 -90.5t-19.5 -95.5q19 -53 169 -53q42 0 63.5 11
t29 37.5t4.5 77.5q-15 247 -30 423l78 133l142 36q15 4 31 4q36 0 57 -25t22 -71l15 -334q2 -54 9 -79t26 -35.5t60 -10.5q75 0 112.5 13.5t44.5 39.5q-4 51 -36 139l105 53q14 -33 27.5 -89t13.5 -109q0 -97 -68 -146.5t-203 -49.5q-76 0 -120 28t-63.5 83.5t-21.5 144.5
v24q-4 188 -12 296l-101 -28q16 -250 20 -427q3 -137 -45 -212t-159 -75q-146 0 -213 51.5t-67 154.5q0 53 20.5 125zM565 24q16 -1 52 -1q73 0 152.5 8.5t129.5 20.5l33 -126q-112 -25 -248 -25q-82 0 -146 10z" />
    <glyph glyph-name="tomaan" unicode="&#xfe97;&#xfeee;&#xfee3;&#xfe8e;&#x646;&#x621;" horiz-adv-x="2384" 
d="M174 307.5q-14 -44.5 -14 -91.5q0 -81 52.5 -122t150.5 -41q69 0 121.5 25t81 64t28.5 80q0 39 -25 124.5t-53 162.5l77 151l175 61q24 10 46 10q35 0 55.5 -24t22.5 -65q3 -47 5.5 -121t3.5 -113q2 -93 4 -134q2 -53 9.5 -78.5t26 -36t57.5 -10.5h22q37 0 70 23t59 70
q52 95 96 141t99 46q54 0 94 -35t61.5 -91t21.5 -116q0 -58 -21 -105.5t-61 -72.5q-22 -14 -55 -14q-76 0 -202 80q-31 -38 -73 -56.5t-92 -18.5h-19q-76 0 -120.5 28t-64 83.5t-21.5 143.5l-1 69q-1 92 -3 151.5t-8 117.5l-151 -50q26 -75 47.5 -162t21.5 -156
q0 -90 -44.5 -163.5t-121 -115.5t-169.5 -42t-163.5 35.5t-110 101.5t-39.5 154q0 18 1 28q6 100 68 234l97 -45q-28 -60 -42 -104.5zM434 597l5 -126l-127 -13l-20 123zM1331.5 147q38.5 -17 58.5 -17q9 0 13 3q20 13 20 51q0 40 -23 75.5t-59 35.5q-23 0 -46.5 -23
t-50.5 -78q49 -30 87.5 -47zM1767 -82q85 28 115 81q-108 2 -175 22.5t-95 78.5q-17 35 -17 84q0 59 25.5 118t70 97t96.5 38t96 -39t73 -105t39 -144h44q86 0 130.5 13t54.5 39q-3 39 -23.5 99.5t-32.5 86.5l106 57q19 -41 39.5 -113.5t20.5 -125.5q0 -102 -72 -153.5
t-223 -51.5h-47q-26 -111 -129 -175t-270 -68l-47 129q136 4 221 32zM1765 157.5q46 -7.5 123 -8.5q-13 66 -43.5 110.5t-69.5 44.5q-20 0 -37.5 -15t-28 -37.5t-10.5 -42.5q0 -15 6 -24q14 -20 60 -27.5zM2054.5 655.5q87.5 10.5 169.5 10.5q24 0 64 -2l-24 -124
q-15 1 -46 1q-72 0 -153.5 -8t-136.5 -21l-23 117q62 16 149.5 26.5z" />
    <glyph glyph-name="tomaan.001" unicode="&#xfe97;&#xfeee;&#xfee3;&#xfe8e;&#x646;&#x621;&#x621;" horiz-adv-x="1955" 
d="M175.5 306.5q-13.5 -43.5 -13.5 -90.5q0 -81 52.5 -122.5t150.5 -41.5q69 0 121.5 25t80.5 64.5t28 80.5q0 66 -77 286l77 152l207 60q18 6 34 6q35 0 55.5 -25t21.5 -69l8 -211q1 -34 2 -71.5t3 -75.5q2 -52 9 -77.5t26 -36.5t58 -11h19q78 0 129 93q36 65 62.5 104
t57 62t67.5 23q60 0 105.5 -42t72.5 -106.5t36 -133.5h41q166 0 189 50q-3 40 -24.5 104.5t-31.5 84.5l102 56q19 -41 39.5 -113t20.5 -125q0 -102 -71 -153.5t-221 -52.5h-48q-26 -111 -128.5 -175t-269.5 -68l-47 129q132 4 216.5 32.5t115.5 81.5l-49 1q-69 4 -119 21
t-83 52q-31 -37 -73 -55.5t-92 -18.5h-18q-111 1 -156.5 62.5t-47.5 192.5l-1 68q-1 92 -3 152t-8 118l-170 -50q68 -207 68 -318q0 -90 -44.5 -163.5t-120.5 -115.5t-169 -42t-164.5 35.5t-110.5 102t-39 154.5q0 63 21.5 133.5t48.5 127.5l96 -45q-28 -62 -41.5 -105.5z
M430 604l5 -126l-127 -13l-20 123zM1396 150q17 -1 52 -1q2 30 -8 65t-31.5 59t-51.5 24q-49 0 -92 -100q41 -44 131 -47zM1641 682.5q93 11.5 178 11.5q32 0 47 -1l-23 -119q-77 2 -175.5 -7.5t-161.5 -25.5l-23 112q65 18 158 29.5z" />
    <glyph glyph-name="tomaan.002" unicode="&#xfe97;&#xfeee;&#xfee3;&#xfe8e;&#x646;&#x621;&#x621;&#x621;" horiz-adv-x="1820" 
d="M1234.5 2q85.5 27 117.5 70l-46 1q-131 5 -194 64q-57 -66 -148 -66q-65 0 -104 24t-58 73.5t-23 131.5l-13 246l-161 -47q64 -165 64 -290q0 -87 -41.5 -158.5t-114.5 -113t-163 -41.5t-158 35.5t-105 100t-37 148.5q0 105 59 233l97 -47q-23 -53 -33.5 -89t-10.5 -79
q0 -74 46.5 -113.5t141.5 -39.5q63 0 111.5 24t75 61t26.5 76q0 45 -19.5 109.5t-51.5 145.5l77 154l200 56q18 5 32 5q34 0 54.5 -25t22.5 -70q3 -54 5 -96.5t4 -73.5q2 -64 4 -94q2 -40 8.5 -60.5t22.5 -28.5t47 -8q38 0 61.5 16t48.5 65q36 69 59.5 106t53 60t67.5 23
q58 0 102 -40t70.5 -102.5t35.5 -130.5q98 1 141 12.5t53 35.5q-2 36 -21.5 93.5t-31.5 83.5l105 56q19 -47 38 -112.5t19 -115.5q0 -100 -71.5 -148t-235.5 -49q-28 -106 -129.5 -167t-255.5 -64l-50 130q121 3 206.5 30zM408 566l5 -125l-125 -13l-20 122zM1301 220
q16 -1 60 -1q-5 50 -32 92t-65 42q-25 0 -48 -25.5t-39 -68.5q43 -37 124 -39zM1496 715.5q85 10.5 166 10.5q36 0 53 -1l-21 -119l-37 1q-70 0 -149 -8.5t-132 -21.5l-24 112q59 16 144 26.5z" />
    <glyph glyph-name="tomaan.003" unicode="&#xfe97;&#xfeee;&#xfee3;&#xfee6;&#x621;" horiz-adv-x="1546" 
d="M961.5 0.5q84.5 27.5 116.5 71.5q-32 0 -46 1q-131 5 -194 64q-55 -64 -152 -64h-44q-36 -81 -114.5 -129t-177.5 -48q-90 0 -158 35.5t-105 100t-37 148.5q0 105 59 233l97 -47q-23 -53 -33.5 -89t-10.5 -79q0 -74 46.5 -113.5t141.5 -39.5q64 0 113.5 23.5t76 60.5
t23.5 75q-7 72 -49 220l105 41q43 -140 49 -248h21q41 0 65.5 16.5t50.5 67.5q36 69 59.5 106t53 60t67.5 23q58 0 102 -40t70.5 -102.5t35.5 -130.5q98 1 141 12.5t53 35.5q-2 36 -21.5 93.5t-31.5 83.5l105 56q19 -47 38 -112.5t19 -115.5q0 -100 -71.5 -148t-235.5 -49
q-28 -107 -128.5 -168.5t-253.5 -64.5l-50 130q120 3 204.5 30.5zM414 580l4 -124l-124 -13l-20 121zM1027 220q16 -1 60 -1q-5 50 -32 92t-65 42q-25 0 -48 -25.5t-40 -68.5q43 -37 125 -39zM1218 710q85 11 165 11q36 0 53 -1l-21 -119l-35 1q-69 0 -149 -9t-134 -22
l-25 112q61 16 146 27z" />
    <glyph glyph-name="uni0621" unicode="&#x621;" horiz-adv-x="430" arabic-form="isolated" 
d="M40 42l82 26q-41 43 -41 104q0 41 21 76.5t56.5 58t76.5 23.5q23 0 55.5 -7t58.5 -18l-32 -94q-17 6 -41 11.5t-38 5.5q-29 -1 -50.5 -18.5t-21.5 -39.5t23.5 -40t58.5 -18q12 0 25 3l105 33l12 -102l-337 -105z" />
    <glyph glyph-name="uni0622" unicode="&#x622;" horiz-adv-x="270" arabic-form="isolated" 
d="M69 171q0 119 -7.5 253t-16.5 198l125 28q7 -63 13.5 -189t6.5 -247q0 -129 -9 -221l-118 13q6 50 6 165zM-19.5 784.5q26.5 24.5 56.5 27.5l11 1q17 0 31 -4.5t31 -13.5q32 -15 52 -15q17 0 34.5 10.5t28.5 27.5l45 -38q-22 -34 -50 -52t-58 -18q-17 0 -32 4.5t-33 13.5
q-12 5 -25 9.5t-24 4.5q-19 0 -35.5 -14t-26.5 -38l-49 29q17 41 43.5 65.5z" />
    <glyph glyph-name="uni0623" unicode="&#x623;" horiz-adv-x="251" arabic-form="isolated" 
d="M69 171q0 119 -7.5 253t-16.5 198l125 28q7 -63 13.5 -189t6.5 -247q0 -129 -9 -221l-118 13q6 50 6 165zM6 737l56 17q-16 19 -22 43q-2 7 -2 21q0 34 21.5 63.5t53.5 37.5q14 3 27 3q26 0 70 -14l-17 -67q-30 11 -54 11q-9 0 -13 -1q-15 -4 -23.5 -14t-8.5 -22
q0 -13 14 -25.5t41 -9.5l77 24v-68l-220 -67v68z" />
    <glyph glyph-name="uni0624" unicode="&#x624;" horiz-adv-x="500" arabic-form="isolated" 
d="M248.5 -93.5q75.5 39.5 98.5 95.5q-27 -4 -60 -4q-73 0 -131.5 25.5t-82.5 76.5q-18 39 -18 86q0 59 25 117.5t69 96t96 37.5q60 0 109 -52t77 -136t28 -175q0 -140 -101 -236t-279 -130l-46 129q140 30 215.5 69.5zM91 551l56 17q-18 19 -22 43q-2 7 -2 21
q0 34 21.5 63.5t53.5 37.5q12 3 26 3q26 0 70 -14l-17 -67q-28 11 -53 11q-9 0 -13 -1q-16 -4 -24.5 -14t-8.5 -22q0 -13 14 -25.5t41 -9.5l77 24v-68l-219 -67v68zM221 153.5q41 -10.5 92 -10.5q24 0 36 1q-14 68 -45.5 114t-70.5 46q-20 0 -37.5 -15t-28 -37t-10.5 -41
q0 -16 8 -27q15 -20 56 -30.5z" />
    <glyph glyph-name="uni0625" unicode="&#x625;" horiz-adv-x="246" arabic-form="isolated" 
d="M74 210q0 138 -8.5 289.5t-19.5 212.5l125 29q9 -58 16 -203t7 -285q0 -173 -12 -260l-118 13q10 66 10 204zM15 -234l56 17q-18 19 -22 43q-2 7 -2 21q0 34 21.5 63.5t53.5 37.5q14 3 26 3q26 0 71 -14l-18 -67q-28 11 -51 11t-35.5 -10.5t-12.5 -25.5q0 -12 13.5 -25
t37.5 -12l81 25v-68l-219 -67v68z" />
    <glyph glyph-name="uni0626" unicode="&#x626;" horiz-adv-x="769" arabic-form="isolated" 
d="M187 -202q-73 37 -112.5 109.5t-32.5 173.5q6 96 68 233l97 -44q-27 -61 -40.5 -105.5t-13.5 -90.5q0 -83 51.5 -124t150.5 -41q81 0 145 28.5t92 71.5q1 3 -63 19l-53 15q-79 23 -112 55t-33 90q0 81 41 155t108 120t142 46q30 0 61 -8.5t43 -20.5l-42 -129q-10 4 -29 7
t-34 3q-41 0 -78.5 -17.5t-63.5 -46t-35 -61.5q-1 -4 -1 -10q0 -17 23.5 -29.5t88.5 -27.5q91 -21 123.5 -52.5t32.5 -73.5q0 -73 -47 -138t-128.5 -104.5t-180.5 -39.5q-95 0 -168 37zM124 433l56 17q-15 17 -22 43q-2 7 -2 21q0 34 21.5 63.5t53.5 37.5q12 4 28 4
q24 0 68 -14l-17 -67q-30 10 -52 10t-35 -11t-13 -25q0 -13 14.5 -26t41.5 -10l77 24v-67l-219 -68v68z" />
    <glyph glyph-name="uni0627" unicode="&#x627;" horiz-adv-x="247" arabic-form="isolated" 
d="M74 210q0 138 -8.5 289.5t-19.5 212.5l125 29q9 -58 16 -203t7 -285q0 -173 -12 -260l-118 13q10 66 10 204z" />
    <glyph glyph-name="uni0628" unicode="&#x628;" horiz-adv-x="857" arabic-form="isolated" 
d="M150 44q-100 55 -109 152q-1 8 -1 24q0 43 12 93t29 89l96 -46q-29 -91 -26 -131q7 -38 79.5 -62.5t198.5 -25.5q91 0 154.5 10t95.5 23t34 21q-8 47 -27.5 104.5t-33.5 90.5l105 58q24 -54 42 -122.5t18 -120.5q0 -104 -105 -157.5t-278 -55.5h-9h-1q-174 1 -274 56z
M426 -86q31 -30 61 -61l31 -31l-92 -92l-93 92z" />
    <glyph glyph-name="uni0629" unicode="&#x629;" horiz-adv-x="476" arabic-form="isolated" 
d="M93.5 46q-51.5 50 -51.5 129q0 31 9 65q20 82 88 162l-34 21l76 113q132 -80 199 -161.5t67 -172.5q0 -61 -27.5 -107.5t-75 -72.5t-106.5 -26q-93 0 -144.5 50zM118 713l42 42l84 -85l-84 -84l-85 84q21 22 43 43zM170 160q25 -19 75 -19q40 0 66.5 15t31.5 39
q-7 33 -35.5 68.5t-80.5 76.5q-79 -74 -80 -127q-2 -34 23 -53zM294 713l42 42l84 -85l-84 -84l-85 84q21 22 43 43z" />
    <glyph glyph-name="uni062A" unicode="&#x62a;" horiz-adv-x="857" arabic-form="isolated" 
d="M150 44q-100 55 -109 152q-1 8 -1 24q0 43 12 93t29 89l96 -46q-29 -91 -26 -131q7 -38 79.5 -62.5t198.5 -25.5q91 0 154.5 10t95.5 23t34 21q-8 47 -27.5 104.5t-33.5 90.5l105 58q24 -54 42 -122.5t18 -120.5q0 -104 -105 -157.5t-278 -55.5h-9h-1q-174 1 -274 56z
M340 507l84 -84l-84 -85l-57 57l-28 28zM516 507l84 -84l-84 -85l-57 57l-28 28z" />
    <glyph glyph-name="uni062B" unicode="&#x62b;" horiz-adv-x="857" arabic-form="isolated" 
d="M150 44q-100 55 -109 152q-1 8 -1 24q0 43 12 93t29 89l96 -46q-29 -91 -26 -131q7 -38 79.5 -62.5t198.5 -25.5q91 0 154.5 10t95.5 23t34 21q-8 47 -27.5 104.5t-33.5 90.5l105 58q24 -54 42 -122.5t18 -120.5q0 -104 -105 -157.5t-278 -55.5h-9h-1q-174 1 -274 56z
M282 448q27 26 53 53l80 -79q-9 -10 -60 -61l-20 -20l-32 32l-47 49zM429 610l70 -70l-70 -72l-71 72zM524 501q26 -27 53 -53l26 -26l-47 -49l-32 -32l-81 81q28 26 81 79z" />
    <glyph glyph-name="uni062C" unicode="&#x62c;" horiz-adv-x="722" arabic-form="isolated" 
d="M212 -354q-79 34 -125 98.5t-46 151.5q0 150 116.5 250t324.5 137q-66 46 -108.5 66t-82.5 20q-38 0 -67.5 -21t-45.5 -47l-84 61q77 150 200 150q57 0 111.5 -26.5t145.5 -92.5q49 -35 76 -51.5t58 -27.5l-17 -143q-151 0 -265.5 -36t-179 -95t-73.5 -124
q-4 -44 29.5 -79.5t94.5 -56t137 -20.5q70 0 132 15t98 29l54 -114q-136 -78 -308 -78q-96 0 -175 34zM402 41q31 -30 61 -61l31 -31l-92 -92l-93 92z" />
    <glyph glyph-name="uni062D" unicode="&#x62d;" horiz-adv-x="722" arabic-form="isolated" 
d="M212 -354q-79 34 -125 98.5t-46 151.5q0 150 116.5 250t324.5 137q-66 46 -108.5 66t-82.5 20q-38 0 -67.5 -21t-45.5 -47l-84 61q77 150 200 150q57 0 111.5 -26.5t145.5 -92.5q49 -35 76 -51.5t58 -27.5l-17 -143q-151 0 -265.5 -36t-179 -95t-73.5 -124
q-4 -44 29.5 -79.5t94.5 -56t137 -20.5q70 0 132 15t98 29l54 -114q-136 -78 -308 -78q-96 0 -175 34z" />
    <glyph glyph-name="uni062E" unicode="&#x62e;" horiz-adv-x="722" arabic-form="isolated" 
d="M225 697q30 31 61 61q47 -45 92 -92q-30 -31 -61 -61l-31 -31l-92 92zM157.5 146q116.5 100 324.5 137q-66 46 -108.5 66t-82.5 20q-38 0 -67.5 -21t-45.5 -47l-84 61q77 150 200 150q57 0 111.5 -26.5t145.5 -92.5q49 -35 76 -51.5t58 -27.5l-17 -143q-151 0 -265.5 -36
t-179 -95t-73.5 -124q-4 -44 29.5 -79.5t94.5 -56t137 -20.5q70 0 132 15t98 29l54 -114q-136 -78 -308 -78q-96 0 -175 34t-125 98.5t-46 151.5q0 150 116.5 250z" />
    <glyph glyph-name="uni062F" unicode="&#x62f;" horiz-adv-x="529" arabic-form="isolated" 
d="M114 21.5q-58 26.5 -90 53.5l54 105q36 -18 74 -31t93 -13q54 1 88.5 12.5t45.5 25.5q1 2 1 8q0 21 -18.5 55.5t-65 82t-124.5 100.5l72 131q116 -82 183.5 -179t67.5 -185q0 -42 -16 -77q-24 -56 -85 -85.5t-135 -29.5q-87 0 -145 26.5z" />
    <glyph glyph-name="uni0630" unicode="&#x630;" horiz-adv-x="529" arabic-form="isolated" 
d="M114 21.5q-58 26.5 -90 53.5l54 105q36 -18 74 -31t93 -13q54 1 88.5 12.5t45.5 25.5q1 2 1 8q0 21 -18.5 55.5t-65 82t-124.5 100.5l72 131q116 -82 183.5 -179t67.5 -185q0 -42 -16 -77q-24 -56 -85 -85.5t-135 -29.5q-87 0 -145 26.5zM224 793q31 -30 61 -61l31 -31
l-92 -92l-93 92z" />
    <glyph glyph-name="uni0631" unicode="&#x631;" horiz-adv-x="386" arabic-form="isolated" 
d="M121 -103.5q55 35.5 86.5 70.5t31.5 60q0 41 -53 223l-5 20l112 44q24 -69 38 -147.5t14 -139.5q0 -98 -77 -181.5t-207 -137.5l-61 126q66 27 121 62.5z" />
    <glyph glyph-name="uni0632" unicode="&#x632;" horiz-adv-x="386" arabic-form="isolated" 
d="M121 -103.5q55 35.5 86.5 70.5t31.5 60q0 41 -53 223l-5 20l112 44q24 -69 38 -147.5t14 -139.5q0 -98 -77 -181.5t-207 -137.5l-61 126q66 27 121 62.5zM221 589q30 -31 61 -61l31 -31l-23 -23q-58 -58 -69 -70l-93 93z" />
    <glyph glyph-name="uni0633" unicode="&#x633;" horiz-adv-x="1225" arabic-form="isolated" 
d="M933.5 23q-33.5 22 -51.5 62q-57 -85 -134 -85h-1h-2q-26 0 -53 12q-4 -83 -47 -152.5t-118 -110.5t-171 -41q-93 0 -164 35.5t-110.5 101.5t-39.5 155q0 18 1 28q3 57 23.5 119t45.5 114l96 -44q-26 -60 -40 -105.5t-14 -92.5q0 -82 52 -122.5t150 -40.5
q70 0 122.5 24.5t80 64t27.5 83.5q0 59 -64 240l107 56q16 -41 28 -83q12 -35 22 -53.5t27 -28.5t46 -10q49 1 77 55q23 46 33 117l104 -5q-4 -16 -7.5 -45.5t-3.5 -48.5q0 -73 60 -73h1q30 0 46.5 17t16.5 44t-20.5 86t-34.5 90l103 56q19 -41 40 -112.5t21 -125.5
q0 -55 -21.5 -101.5t-60.5 -74.5t-88 -28h-5q-46 1 -79.5 23z" />
    <glyph glyph-name="uni0634" unicode="&#x634;" horiz-adv-x="1225" arabic-form="isolated" 
d="M933.5 23q-33.5 22 -51.5 62q-57 -85 -134 -85h-1h-2q-26 0 -53 12q-4 -83 -47 -152.5t-118 -110.5t-171 -41q-93 0 -164 35.5t-110.5 101.5t-39.5 155q0 18 1 28q3 57 23.5 119t45.5 114l96 -44q-26 -60 -40 -105.5t-14 -92.5q0 -82 52 -122.5t150 -40.5
q70 0 122.5 24.5t80 64t27.5 83.5q0 59 -64 240l107 56q16 -41 28 -83q12 -35 22 -53.5t27 -28.5t46 -10q49 1 77 55q23 46 33 117l104 -5q-4 -16 -7.5 -45.5t-3.5 -48.5q0 -73 60 -73h1q30 0 46.5 17t16.5 44t-20.5 86t-34.5 90l103 56q19 -41 40 -112.5t21 -125.5
q0 -55 -21.5 -101.5t-60.5 -74.5t-88 -28h-5q-46 1 -79.5 23zM803 595l80 -79l-80 -81l-79 81zM897 704l70 -70q-46 -48 -70 -71l-47 47l-24 24zM960 563l32 32l79 -79l-79 -81l-27 27l-54 54z" />
    <glyph glyph-name="uni0635" unicode="&#x635;" horiz-adv-x="1290" arabic-form="isolated" 
d="M192 -256.5q-71 35.5 -110.5 101.5t-39.5 155q0 18 1 28q3 57 23.5 119t45.5 114l96 -44q-26 -60 -40 -105.5t-14 -92.5q0 -82 52 -122.5t150 -40.5q70 0 122.5 24.5t80 64t27.5 83.5q0 37 -21.5 107.5t-37.5 106.5l106 57l12 -29v0q15 -38 28.5 -62.5t29.5 -39.5
q70 125 163 203.5t189 79.5q61 0 108.5 -28.5t72 -78t19.5 -109.5q-7 -79 -58 -137t-136 -89t-192 -31q-102 0 -177 46q-1 -86 -43.5 -158t-118.5 -115t-174 -43q-93 0 -164 35.5zM843 124q12 -1 35 -1q79 0 141.5 20t97 50.5t34.5 58.5q0 24 -23.5 40.5t-63.5 16.5
q-68 0 -137 -50t-126 -132z" />
    <glyph glyph-name="uni0636" unicode="&#x636;" horiz-adv-x="1290" arabic-form="isolated" 
d="M192 -256.5q-71 35.5 -110.5 101.5t-39.5 155q0 18 1 28q3 57 23.5 119t45.5 114l96 -44q-26 -60 -40 -105.5t-14 -92.5q0 -82 52 -122.5t150 -40.5q70 0 122.5 24.5t80 64t27.5 83.5q0 37 -21.5 107.5t-37.5 106.5l106 57l12 -29v0q15 -38 28.5 -62.5t29.5 -39.5
q70 125 163 203.5t189 79.5q61 0 108.5 -28.5t72 -78t19.5 -109.5q-7 -79 -58 -137t-136 -89t-192 -31q-102 0 -177 46q-1 -86 -43.5 -158t-118.5 -115t-174 -43q-93 0 -164 35.5zM843 124q12 -1 35 -1q79 0 141.5 20t97 50.5t34.5 58.5q0 24 -23.5 40.5t-63.5 16.5
q-68 0 -137 -50t-126 -132zM961 652q30 31 61 61q47 -45 92 -92q-30 -31 -61 -61l-31 -31l-92 92z" />
    <glyph glyph-name="uni0637" unicode="&#x637;" horiz-adv-x="791" arabic-form="isolated" 
d="M189 148q20 38 45 76q2 36 2 61q0 98 -11 232t-21 195l125 28q8 -61 15.5 -166t6.5 -210q104 92 205 92q58 0 103.5 -24.5t71.5 -68.5t26 -99q0 -85 -51.5 -148.5t-143 -97.5t-206.5 -34q-88 0 -171 17.5t-152 48.5l42 135q52 -24 114 -37zM332 130q92 -3 165.5 16.5
t114 51t40.5 62.5q0 23 -22 39.5t-60 16.5q-67 0 -137.5 -47.5t-132.5 -136.5q22 -2 32 -2z" />
    <glyph glyph-name="uni0638" unicode="&#x638;" horiz-adv-x="791" arabic-form="isolated" 
d="M189 148q20 38 45 76q2 36 2 61q0 98 -11 232t-21 195l125 28q8 -61 15.5 -166t6.5 -210q104 92 205 92q58 0 103.5 -24.5t71.5 -68.5t26 -99q0 -85 -51.5 -148.5t-143 -97.5t-206.5 -34q-88 0 -171 17.5t-152 48.5l42 135q52 -24 114 -37zM332 130q92 -3 165.5 16.5
t114 51t40.5 62.5q0 23 -22 39.5t-60 16.5q-67 0 -137.5 -47.5t-132.5 -136.5q22 -2 32 -2zM520 718l31 31l92 -92q-11 -12 -69 -70l-23 -23l-92 93q31 30 61 61z" />
    <glyph glyph-name="uni0639" unicode="&#x639;" horiz-adv-x="708" arabic-form="isolated" 
d="M581.5 -360.5q-77.5 -27.5 -198.5 -27.5q-95 0 -172.5 34.5t-123 99t-45.5 151.5q0 172 146 287q-48 26 -74.5 72.5t-26.5 108.5q0 60 30 113.5t81.5 86t111.5 32.5q48 0 95.5 -20.5t88.5 -55.5l-49 -99q-69 28 -127 28q-35 0 -64 -13t-45 -32.5t-16 -39.5
q0 -22 18.5 -42.5t49.5 -33t66 -12.5q20 0 37 4q58 23 140 46l27 -131q-183 -56 -273.5 -126t-106.5 -154q-3 -44 30 -79.5t93.5 -56t135.5 -20.5q74 0 137 16t94 28l55 -114q-37 -23 -114.5 -50.5z" />
    <glyph glyph-name="uni063A" unicode="&#x63a;" horiz-adv-x="708" arabic-form="isolated" 
d="M581.5 -360.5q-77.5 -27.5 -198.5 -27.5q-95 0 -172.5 34.5t-123 99t-45.5 151.5q0 172 146 287q-48 26 -74.5 72.5t-26.5 108.5q0 60 30 113.5t81.5 86t111.5 32.5q48 0 95.5 -20.5t88.5 -55.5l-49 -99q-69 28 -127 28q-35 0 -64 -13t-45 -32.5t-16 -39.5
q0 -22 18.5 -42.5t49.5 -33t66 -12.5q20 0 37 4q58 23 140 46l27 -131q-183 -56 -273.5 -126t-106.5 -154q-3 -44 30 -79.5t93.5 -56t135.5 -20.5q74 0 137 16t94 28l55 -114q-37 -23 -114.5 -50.5zM295 863q45 -47 92 -92l-92 -93q-47 46 -93 93z" />
    <glyph glyph-name="uni0641" unicode="&#x641;" horiz-adv-x="899" arabic-form="isolated" 
d="M434 -12h-9q-175 1 -275 56t-109 152q-1 8 -1 24q0 43 12 93t29 89l96 -46q-29 -91 -26 -131q7 -38 81 -63t202 -25h5q117 1 189.5 16t105.5 49q-28 -2 -43 -2q-71 0 -126.5 25t-80.5 73q-18 39 -18 85q0 57 24.5 111.5t67.5 89t95 34.5q59 0 106 -46.5t73.5 -122.5
t26.5 -161q0 -139 -104 -219t-318 -81h-3zM636 865l31 -31q31 -30 61 -61l-92 -93l-92 93zM629.5 349q40.5 -11 91.5 -11q22 0 33 1q-14 65 -43.5 108.5t-68.5 43.5q-31 0 -53 -27.5t-22 -57.5q0 -16 7 -26q15 -20 55.5 -31z" />
    <glyph glyph-name="uni0642" unicode="&#x642;" horiz-adv-x="736" arabic-form="isolated" 
d="M192 -211.5q-71 35.5 -110.5 102t-39.5 154.5q0 18 1 28q3 58 23.5 120t45.5 113l96 -44q-27 -61 -40.5 -105.5t-13.5 -92.5q0 -81 52.5 -121.5t149.5 -40.5q91 0 153 40t76 106q-35 -5 -64 -5q-72 0 -130 25.5t-82 76.5q-18 39 -18 87q0 59 25 117.5t68.5 96t94.5 37.5
q62 0 111 -52.5t77 -136.5t28 -175q0 -113 -44 -195.5t-120.5 -126.5t-174.5 -44q-93 0 -164 35.5zM388 720l84 -84l-84 -85l-28 28l-57 57zM455 200q40 -11 87 -11q15 0 41 2q-12 62 -39.5 106.5t-64.5 50.5q-4 1 -12 1q-30 0 -52 -30t-22 -62q0 -16 8 -27q14 -19 54 -30z
M564 720l84 -84l-84 -85l-28 28l-57 57z" />
    <glyph glyph-name="uni0643" unicode="&#x643;" horiz-adv-x="889" arabic-form="isolated" 
d="M424 -13v1q-174 1 -274 56t-109 152q-1 8 -1 24q0 43 12 93t29 89l96 -46q-29 -91 -26 -131q7 -38 81 -63t202 -25v-1h24q82 0 139 18t76 43q-8 50 -59 115.5t-150 146.5l14 130l371 156l40 -119l-289 -123q29 -25 72 -73.5t77.5 -111.5t34.5 -121q0 -21 -4 -37
q-21 -82 -108 -127t-214 -45z" />
    <glyph glyph-name="uni0644" unicode="&#x644;" horiz-adv-x="689" arabic-form="isolated" 
d="M188 -229q-67 32 -106.5 92.5t-39.5 140.5q0 58 21 129.5t48 129.5l97 -44q-27 -59 -40.5 -102.5t-13.5 -88.5q0 -62 50 -101t131 -39q102 0 154 52t49 157q-5 173 -18 346.5t-26 269.5l125 27q17 -128 29 -636q2 -113 -34.5 -195t-107.5 -126t-171 -44q-80 0 -147 32z
" />
    <glyph glyph-name="uni0645" unicode="&#x645;" horiz-adv-x="604" arabic-form="isolated" 
d="M38 50q0 46 1 66q2 57 37.5 93.5t88.5 36.5q8 0 24 -2q39 87 91.5 136t109.5 49q54 0 95 -34.5t62.5 -89t21.5 -114.5q0 -59 -21.5 -108t-63.5 -74q-23 -14 -54 -14q-39 0 -101 23.5t-157 75.5q-2 1 -5 1q-7 0 -8 -8q-2 -122 26 -415l3 -36l-124 -28q-26 277 -26 442z
M434 131q9 0 13 3q10 7 15.5 20.5t5.5 31.5q0 40 -22 74.5t-57 34.5q-44 0 -99 -101q102 -63 144 -63z" />
    <glyph glyph-name="uni0646" unicode="&#x646;" horiz-adv-x="727" arabic-form="isolated" 
d="M168 158.5q-14 -45.5 -14 -92.5q0 -82 52 -122t150 -40q70 0 122.5 24t80 63.5t27.5 83.5q0 57 -64 240l107 56q63 -169 63 -296q0 -87 -42 -160t-118.5 -116.5t-175.5 -43.5q-93 0 -164 35.5t-110.5 101.5t-39.5 155q0 18 1 28q3 57 23.5 119t45.5 114l96 -44
q-26 -60 -40 -105.5zM377 460l92 -92l-92 -93q-46 47 -93 93z" />
    <glyph glyph-name="uni0647" unicode="&#x647;" horiz-adv-x="476" arabic-form="isolated" 
d="M93.5 46q-51.5 50 -51.5 129q0 31 9 65q20 82 88 162l-34 21l76 113q132 -80 199 -161.5t67 -172.5q0 -61 -27.5 -107.5t-75 -72.5t-106.5 -26q-93 0 -144.5 50zM170 160q25 -19 75 -19q40 0 66.5 15t31.5 39q-7 33 -35.5 68.5t-80.5 76.5q-79 -74 -80 -127
q-2 -34 23 -53z" />
    <glyph glyph-name="uni0648" unicode="&#x648;" horiz-adv-x="500" arabic-form="isolated" 
d="M248.5 -93.5q75.5 39.5 98.5 95.5q-27 -4 -60 -4q-73 0 -131.5 25.5t-82.5 76.5q-18 39 -18 86q0 59 25 117.5t69 96t96 37.5q60 0 109 -52t77 -136t28 -175q0 -140 -101 -236t-279 -130l-46 129q140 30 215.5 69.5zM221 153.5q41 -10.5 92 -10.5q24 0 36 1
q-14 68 -45.5 114t-70.5 46q-20 0 -37.5 -15t-28 -37t-10.5 -41q0 -16 8 -27q15 -20 56 -30.5z" />
    <glyph glyph-name="uni0649" unicode="&#x649;" horiz-adv-x="770" arabic-form="isolated" 
d="M187 -202q-73 37 -112.5 109.5t-32.5 173.5q6 96 68 233l97 -44q-27 -61 -40.5 -105.5t-13.5 -90.5q0 -83 51.5 -124t150.5 -41q81 0 145 28.5t92 71.5q1 3 -63 19l-53 15q-79 23 -112 55t-33 90q0 81 41 155t108 120t142 46q30 0 61 -8.5t43 -20.5l-42 -129q-10 4 -29 7
t-34 3q-41 0 -78.5 -17.5t-63.5 -46t-35 -61.5q-1 -4 -1 -10q0 -17 23.5 -29.5t88.5 -27.5q91 -21 123.5 -52.5t32.5 -73.5q0 -73 -47 -138t-128.5 -104.5t-180.5 -39.5q-95 0 -168 37z" />
    <glyph glyph-name="uni064A" unicode="&#x64a;" horiz-adv-x="770" arabic-form="isolated" 
d="M187 -202q-73 37 -112.5 109.5t-32.5 173.5q6 96 68 233l97 -44q-27 -61 -40.5 -105.5t-13.5 -90.5q0 -83 51.5 -124t150.5 -41q81 0 145 28.5t92 71.5q1 3 -63 19l-53 15q-79 23 -112 55t-33 90q0 81 41 155t108 120t142 46q30 0 61 -8.5t43 -20.5l-42 -129q-10 4 -29 7
t-34 3q-41 0 -78.5 -17.5t-63.5 -46t-35 -61.5q-1 -4 -1 -10q0 -17 23.5 -29.5t88.5 -27.5q91 -21 123.5 -52.5t32.5 -73.5q0 -73 -47 -138t-128.5 -104.5t-180.5 -39.5q-95 0 -168 37z" />
    <glyph glyph-name="uni066E.init" unicode="&#x66e;" horiz-adv-x="336" 
d="M-5 149h53q72 0 103.5 16t31.5 48q0 21 -21 82.5t-33 90.5l105 58q19 -42 39.5 -112.5t20.5 -123.5q0 -102 -63.5 -155t-182.5 -53h-53v149z" />
    <glyph glyph-name="uni066E.medi" unicode="&#x66e;" horiz-adv-x="335" 
d="M-5 149h6q76 0 110.5 16t39.5 52q2 16 2 25q0 24 -5 55.5t-6 39.5l104 20q13 -74 13 -165q4 -17 22.5 -30t52.5 -13h6l8 -75l-8 -74h-6q-40 0 -74.5 19t-58.5 50q-29 -36 -78.5 -52.5t-121.5 -16.5h-6v149z" />
    <glyph glyph-name="uni066E.fina" unicode="&#x66e;" horiz-adv-x="950" 
d="M151 43q-101 55 -110 153q-1 8 -1 24q0 43 12 93t29 89l96 -46q-29 -91 -26 -131q7 -38 80 -62.5t200 -25.5q129 1 200.5 17.5t109 53.5t63.5 107l104 -12q-19 -57 -19 -92q0 -32 16.5 -47t49.5 -15l8 -75l-8 -74q-56 0 -98.5 33t-51.5 85q-62 -73 -151.5 -101.5
t-224.5 -28.5q-177 0 -278 55z" />
    <glyph glyph-name="uni066F.fina" unicode="&#x66f;" horiz-adv-x="726" 
d="M192 -256.5q-71 35.5 -110.5 101.5t-39.5 155q0 18 1 28q3 57 23.5 119t45.5 114l96 -44q-27 -61 -40.5 -105.5t-13.5 -92.5q0 -81 52 -122t150 -41q89 0 151.5 39.5t76.5 104.5q-109 1 -178 22t-97 79q-18 39 -18 86q0 59 25 117t68.5 95.5t95.5 37.5q53 0 97 -40
t73.5 -106t39.5 -142h41l8 -75l-8 -74h-41q-13 -91 -59 -157t-117 -100.5t-158 -34.5q-93 0 -164 35.5zM460.5 157.5q46.5 -7.5 121.5 -8.5q-14 65 -44 110t-70 45q-20 0 -37.5 -14.5t-27.5 -36.5t-10 -42q0 -16 7 -26q14 -20 60.5 -27.5z" />
    <glyph glyph-name="uni0671" unicode="&#x671;" horiz-adv-x="270" arabic-form="isolated" 
d="M69 171q0 119 -7.5 253t-16.5 198l125 28q7 -63 13.5 -189t6.5 -247q0 -129 -9 -221l-118 13q6 50 6 165zM15 775q5 1 14 1q11 0 31 -5q27 49 63.5 77.5t74.5 28.5q36 0 61 -24.5t25 -61.5q0 -38 -27.5 -67t-70.5 -38q-18 -3 -33 -3q-34 0 -79 15q-30 10 -44 10
q-24 0 -34.5 -12.5t-11.5 -13.5l-44 29q32 59 75 64zM158 747q6 0 18 2q28 4 44 15.5t16 23.5q0 10 -12 17t-28 7q-22 0 -44.5 -14.5t-40.5 -41.5q31 -9 47 -9z" />
    <glyph glyph-name="uni0679" unicode="&#x679;" horiz-adv-x="857" arabic-form="isolated" 
d="M150 44q-100 55 -109 152q-1 8 -1 24q0 43 12 93t29 89l96 -46q-29 -91 -26 -131q7 -38 79.5 -62.5t198.5 -25.5q91 0 154.5 10t95.5 23t34 21q-8 47 -27.5 104.5t-33.5 90.5l105 58q24 -54 42 -122.5t18 -120.5q0 -104 -105 -157.5t-278 -55.5h-9h-1q-174 1 -274 56z
M308 431l29 -8l20 28q0 27 -5 75t-11 85l54 11q8 -44 13 -115q38 32 77 32q40 0 62 -28t22 -62q0 -27 -17 -51.5t-52.5 -40.5t-89.5 -16q-39 0 -74.5 11.5t-47.5 18.5zM411 412q61 -3 84.5 9t23.5 28q0 10 -7 17t-21 7q-23 0 -47.5 -16.5t-46.5 -43.5z" />
    <glyph glyph-name="uni067E" unicode="&#x67e;" horiz-adv-x="857" arabic-form="isolated" 
d="M150 44q-100 55 -109 152q-1 8 -1 24q0 43 12 93t29 89l96 -46q-29 -91 -26 -131q7 -38 79.5 -62.5t198.5 -25.5q91 0 154.5 10t95.5 23t34 21q-8 47 -27.5 104.5t-33.5 90.5l105 58q24 -54 42 -122.5t18 -120.5q0 -104 -105 -157.5t-278 -55.5h-9h-1q-174 1 -274 56z
M284 -121l47 49l54 -54l27 -27l-81 -79l-79 79zM426 -200l47 -47l24 -24l-71 -70l-70 70zM520 -72q10 -11 60 -61l20 -20l-80 -79l-80 79z" />
    <glyph glyph-name="uni0686" unicode="&#x686;" horiz-adv-x="722" arabic-form="isolated" 
d="M212 -354q-79 34 -125 98.5t-46 151.5q0 150 116.5 250t324.5 137q-66 46 -108.5 66t-82.5 20q-38 0 -67.5 -21t-45.5 -47l-84 61q77 150 200 150q57 0 111.5 -26.5t145.5 -92.5q49 -35 76 -51.5t58 -27.5l-17 -143q-151 0 -265.5 -36t-179 -95t-73.5 -124
q-4 -44 29.5 -79.5t94.5 -56t137 -20.5q70 0 132 15t98 29l54 -114q-136 -78 -308 -78q-96 0 -175 34zM333 60l78 -78q-32 -30 -47 -46l-31 -30l-77 76zM425 -63l68 -69l-23 -23l-45 -45l-68 68zM515 60l26 -26l52 -52l-78 -76l-77 76z" />
    <glyph glyph-name="uni0695.fina" unicode="&#x695;" horiz-adv-x="408" 
d="M344 12q-6 -94 -82 -173.5t-201 -130.5l-61 126q66 27 121 62.5t86.5 70.5t31.5 60q0 41 -53 223l-5 20l112 44q11 -31 26 -89q13 -41 32.5 -58.5t51.5 -17.5h9l8 -75l-8 -74h-9q-32 0 -59 12zM91 -323q12 -16 28 -48t24 -58q7 27 23 61.5t28 53.5l45 -41
q-18 -28 -38 -67t-32 -72l-48 -16q-11 31 -32.5 73.5t-40.5 71.5z" />
    <glyph glyph-name="uni0698" unicode="&#x698;" horiz-adv-x="421" arabic-form="isolated" 
d="M121 -103.5q55 35.5 86.5 70.5t31.5 60q0 41 -53 223l-5 20l112 44q24 -69 38 -147.5t14 -139.5q0 -98 -77 -181.5t-207 -137.5l-61 126q66 27 121 62.5zM132 565l80 -79l-80 -80l-53 53l-27 27zM226 674l70 -70q-24 -23 -70 -71l-24 24l-47 47zM321 565l79 -79l-79 -80
l-81 80z" />
    <glyph glyph-name="uni06A1.init" unicode="&#x6a1;" horiz-adv-x="471" 
d="M-5 149h15q119 0 189.5 11.5t104.5 41.5q-28 -2 -41 -2q-72 0 -127.5 25t-79.5 73q-18 39 -18 86q0 57 24 111t67 88.5t95 34.5q59 0 106 -46.5t73.5 -122.5t26.5 -161q0 -138 -103.5 -213t-318.5 -75h-13v149zM199 349.5q39 -11.5 88 -11.5q13 0 39 2q-13 64 -44 107.5
t-69 43.5q-31 0 -53 -27.5t-22 -57.5q0 -16 7 -26q15 -19 54 -30.5z" />
    <glyph glyph-name="uni06A1.medi" unicode="&#x6a1;" horiz-adv-x="469" 
d="M-6 149h24q43 0 62 1q-27 44 -27 93q0 9 2 25q9 59 37 107t68.5 76t85.5 28q52 0 92 -32t61 -82t21 -103q0 -11 -2 -31q-6 -43 -25 -82h84l8 -75l-8 -74h-60q-94 0 -176 29q-87 -29 -223 -29h-24v149zM180.5 213q19.5 -23 54.5 -39q56 21 78 72l1 11q0 31 -20 57.5
t-54 26.5q-31 0 -54 -25t-27 -57q2 -23 21.5 -46z" />
    <glyph glyph-name="uni06A1.fina" unicode="&#x6a1;" horiz-adv-x="896" 
d="M434 -12h-9h-1q-174 1 -274 56t-109 152q-1 8 -1 24q0 43 12 93t29 89l96 -46q-29 -91 -26 -131q7 -38 81 -63t202 -25h3q28 0 74 2q-33 50 -33 103q0 8 2 26q9 59 36.5 107t68 76t86.5 28q51 0 90.5 -31.5t61 -81.5t21.5 -103q0 -21 -2 -32q-6 -41 -25 -82h84l8 -75
l-8 -74h-60q-92 0 -168 26q-94 -38 -236 -38h-3zM606 211.5q20 -23.5 56 -39.5q54 26 76 74l1 11q0 31 -20.5 57.5t-54.5 26.5q-31 0 -53.5 -25t-26.5 -57q2 -24 22 -47.5z" />
    <glyph glyph-name="uni06A4" unicode="&#x6a4;" horiz-adv-x="899" arabic-form="isolated" 
d="M434 -12h-9q-175 1 -275 56t-109 152q-1 8 -1 24q0 43 12 93t29 89l96 -46q-29 -91 -26 -131q7 -38 81 -63t202 -25h5q117 1 189.5 16t105.5 49q-28 -2 -43 -2q-71 0 -126.5 25t-80.5 73q-18 39 -18 85q0 57 24.5 111.5t67.5 89t95 34.5q59 0 106 -46.5t73.5 -122.5
t26.5 -161q0 -139 -104 -219t-318 -81h-3zM551 836l80 -79l-80 -81l-80 81zM629.5 349q40.5 -11 91.5 -11q22 0 33 1q-14 65 -43.5 108.5t-68.5 43.5q-31 0 -53 -27.5t-22 -57.5q0 -16 7 -26q15 -20 55.5 -31zM645 945q34 -36 70 -70l-70 -71l-47 47l-24 24zM740 836l79 -79
l-79 -81l-81 81z" />
    <glyph glyph-name="uni06A9" unicode="&#x6a9;" horiz-adv-x="889" arabic-form="isolated" 
d="M424 -13v1q-174 1 -274 56t-109 152q-1 8 -1 24q0 43 12 93t29 89l96 -46q-29 -91 -26 -131q7 -38 81 -63t202 -25v-1h24q82 0 139 18t76 43q-8 50 -59 115.5t-150 146.5l14 130l371 156l40 -119l-289 -123q29 -25 72 -73.5t77.5 -111.5t34.5 -121q0 -21 -4 -37
q-21 -82 -108 -127t-214 -45z" />
    <glyph glyph-name="uni06AF" unicode="&#x6af;" horiz-adv-x="889" arabic-form="isolated" 
d="M424 -13v1q-174 1 -274 56t-109 152q-1 8 -1 24q0 43 12 93t29 89l96 -46q-29 -91 -26 -131q7 -38 81 -63t202 -25v-1h24q84 0 139 13.5t74 36.5q-19 100 -207 249l13 130l372 157l40 -119l-289 -123q68 -57 124.5 -129.5t56.5 -149.5q0 -23 -5 -41q-21 -82 -106.5 -127
t-211.5 -45zM487 685l324 134l17 -48l-348 -146z" />
    <glyph glyph-name="uni06B5.init" unicode="&#x6b5;" horiz-adv-x="284" 
d="M-5 149h31q52 0 75.5 21t23.5 65q-1 69 -11.5 243.5t-18.5 234.5l125 27q7 -59 15.5 -242.5t8.5 -254.5q0 -68 -27.5 -123.5t-76.5 -87.5t-111 -32h-34v149zM91 939q12 -16 28 -47.5t24 -57.5q7 27 23 61.5t29 52.5l44 -41q-19 -28 -38.5 -67t-31.5 -72l-48 -16
q-11 32 -32 73.5t-41 71.5z" />
    <glyph glyph-name="uni06B5.medi" unicode="&#x6b5;" horiz-adv-x="303" 
d="M223.5 20q-35.5 20 -62.5 55q-23 -35 -59.5 -55t-82.5 -20h-24v149h21q50 0 72.5 18.5t22.5 62.5v2q-3 71 -12 239t-16 240l125 28q8 -81 17 -367l6 -141q2 -44 18.5 -63t47.5 -19h10l8 -75l-8 -74h-10q-38 0 -73.5 20zM90 943q12 -16 28 -47.5t24 -57.5q7 27 22.5 61
t28.5 53l45 -40q-19 -29 -38.5 -68.5t-31.5 -71.5l-48 -16q-11 32 -32 73.5t-41 71.5z" />
    <glyph glyph-name="uni06B5.fina" unicode="&#x6b5;" horiz-adv-x="758" 
d="M646 36q-14 -140 -95.5 -218.5t-215.5 -78.5q-80 0 -147 32t-106.5 92.5t-39.5 140.5q0 58 21 129.5t48 129.5l97 -44q-27 -59 -40.5 -102.5t-13.5 -88.5q0 -62 50 -101t131 -39q102 0 154 52t49 157q-5 173 -18 346.5t-26 269.5l125 27q16 -122 25 -489h1
q3 -44 11.5 -65t30 -29t65.5 -8h11l8 -75l-8 -74h-11q-65 0 -106 36zM498 956q12 -16 28 -47.5t24 -57.5q7 27 23 61.5t29 52.5l44 -41q-19 -28 -38.5 -67t-31.5 -72l-48 -16q-10 31 -31 72.5t-42 72.5z" />
    <glyph glyph-name="uni06C2.fina" unicode="&#x6c2;" horiz-adv-x="579" 
d="M135 431l56 17q-18 21 -22 43q-2 7 -2 21q0 35 21.5 64.5t53.5 36.5q12 4 28 4q25 0 69 -14l-18 -67q-30 10 -52 10t-34 -11t-12 -26q0 -12 13.5 -24t38.5 -11l79 25v-68l-219 -67v67zM85.5 164.5q30.5 56.5 71.5 100.5t83 65q29 16 56 16q45 0 80 -51q5 -7 33 -51
t71 -69.5t96 -25.5h8l8 -75l-8 -74h-6q-100 0 -173.5 56t-120.5 142q-44 -20 -88.5 -78.5t-65.5 -123.5l-86 55q11 57 41.5 113.5z" />
    <glyph glyph-name="uni06C3.fina" unicode="&#x6c3;" horiz-adv-x="579" 
d="M584 149l8 -75l-8 -74h-6q-100 0 -173.5 56t-120.5 142q-44 -20 -88.5 -78.5t-65.5 -123.5l-86 55q11 57 41.5 113.5t71.5 100.5t83 65q29 16 56 16q45 0 80 -51q5 -7 33 -51t71 -69.5t96 -25.5h8zM207 568l85 -84l-42 -42q-21 -22 -43 -43l-84 85zM383 568l85 -84
l-42 -42q-21 -22 -43 -43l-84 85z" />
    <glyph glyph-name="uni06C6" unicode="&#x6c6;" horiz-adv-x="500" arabic-form="isolated" 
d="M248.5 -93.5q75.5 39.5 98.5 95.5q-27 -4 -60 -4q-73 0 -131.5 25.5t-82.5 76.5q-18 39 -18 86q0 59 25 117.5t69 96t96 37.5q60 0 109 -52t77 -136t28 -175q0 -140 -101 -236t-279 -130l-46 129q140 30 215.5 69.5zM173 687q12 -17 27.5 -48.5t23.5 -56.5q8 28 24 62
t28 52l44 -40q-18 -29 -37.5 -68t-31.5 -72l-49 -16q-10 32 -31.5 73.5t-41.5 71.5zM221 153.5q41 -10.5 92 -10.5q24 0 36 1q-14 68 -45.5 114t-70.5 46q-20 0 -37.5 -15t-28 -37t-10.5 -41q0 -16 8 -27q15 -20 56 -30.5z" />
    <glyph glyph-name="uni06C7" unicode="&#x6c7;" horiz-adv-x="500" arabic-form="isolated" 
d="M248.5 -93.5q75.5 39.5 98.5 95.5q-27 -4 -60 -4q-73 0 -131.5 25.5t-82.5 76.5q-18 39 -18 86q0 59 25 117.5t69 96t96 37.5q60 0 109 -52t77 -136t28 -175q0 -140 -101 -236t-279 -130l-46 129q140 30 215.5 69.5zM243 580q-33 5 -54 24.5t-26 50.5q-1 4 -1 13
q0 26 13.5 48.5t35.5 36t45 13.5q14 0 23 -4q28 -10 42 -37t14 -61q0 -49 -23 -86q-25 -42 -76.5 -64t-108.5 -23l-16 59q91 4 132 30zM221 153.5q41 -10.5 92 -10.5q24 0 36 1q-14 68 -45.5 114t-70.5 46q-20 0 -37.5 -15t-28 -37t-10.5 -41q0 -16 8 -27q15 -20 56 -30.5z
M231.5 644q18.5 -13 49.5 -13q3 12 3 22q0 23 -10.5 39.5t-27.5 16.5q-13 0 -23 -10.5t-10 -24.5q0 -17 18.5 -30z" />
    <glyph glyph-name="uni06CC" unicode="&#x6cc;" horiz-adv-x="769" arabic-form="isolated" 
d="M187 -202q-73 37 -112.5 109.5t-32.5 173.5q6 96 68 233l97 -44q-27 -61 -40.5 -105.5t-13.5 -90.5q0 -83 51.5 -124t150.5 -41q81 0 145 28.5t92 71.5q1 3 -63 19l-53 15q-79 23 -112 55t-33 90q0 81 41 155t108 120t142 46q30 0 61 -8.5t43 -20.5l-42 -129q-10 4 -29 7
t-34 3q-41 0 -78.5 -17.5t-63.5 -46t-35 -61.5q-1 -4 -1 -10q0 -17 23.5 -29.5t88.5 -27.5q91 -21 123.5 -52.5t32.5 -73.5q0 -73 -47 -138t-128.5 -104.5t-180.5 -39.5q-95 0 -168 37z" />
    <glyph glyph-name="uni06CE.init" unicode="&#x6ce;" horiz-adv-x="376" 
d="M230 609q-20 -39 -32 -72l-48 -16q-11 32 -32.5 74t-40.5 70l43 42q12 -16 28 -47.5t24 -57.5q7 27 23 61t29 53l44 -40q-18 -28 -38 -67zM5 -85l28 -28l57 -57l-85 -84l-84 84zM-5 149h48q99 0 140 17t41 52q-1 22 -23 84.5t-32 83.5l106 58q20 -42 40 -111.5t20 -121.5
q-1 -102 -69 -156.5t-201 -54.5h-70v149zM181 -85l28 -28l57 -57l-85 -84l-84 84z" />
    <glyph glyph-name="uni06CE.medi" unicode="&#x6ce;" horiz-adv-x="390" 
d="M222.5 492.5q-19.5 -39.5 -31.5 -71.5l-48 -16q-11 32 -32 73.5t-41 71.5l43 42q12 -16 28 -47.5t24 -57.5q7 27 22.5 61t28.5 53l45 -40q-19 -29 -38.5 -68.5zM-6 -84l28 -28l57 -57l-85 -84l-84 84zM-5 149h7q90 0 134 9.5t58 28.5t14 55q0 29 -10 95l103 20
q14 -73 14 -165q4 -17 22 -30t52 -13h6l8 -75l-8 -74h-6q-40 0 -74 19t-58 50q-29 -37 -88 -53t-167 -16h-7v149zM170 -84l28 -28l57 -57l-85 -84l-84 84z" />
    <glyph glyph-name="uni06CE.fina" unicode="&#x6ce;" horiz-adv-x="760" 
d="M186.5 -251.5q-73.5 37.5 -112.5 110t-32 173.5q6 98 68 232l97 -44q-26 -59 -40 -104t-14 -92q0 -83 52 -123.5t150 -40.5q54 0 102.5 12t83 30t47.5 36q-18 17 -76 48.5t-120 54.5l31 140q164 -32 289 -32h53l8 -75l-8 -74h-53q-19 0 -57 2q37 -37 37 -71
q0 -50 -45 -101.5t-122.5 -85t-169.5 -33.5q-95 0 -168.5 37.5zM233 467q12 -17 27.5 -48.5t23.5 -56.5q8 27 24 61t28 53l45 -40q-18 -28 -38 -67t-32 -72l-48 -16q-11 32 -32.5 74t-41.5 70z" />
    <glyph glyph-name="uni06D5.fina" unicode="&#x6d5;" horiz-adv-x="518" 
d="M422.5 16q-35.5 16 -59.5 50q-60 -18 -116 -18q-90 0 -147.5 43.5t-57.5 118.5q0 87 64 147t172 104l-7 60l116 25q23 -214 32 -282q6 -50 14.5 -74t25 -32.5t48.5 -8.5h17l8 -75l-8 -74h-17q-49 0 -84.5 16zM173.5 202q24.5 -15 65.5 -15q33 0 75 12q-3 15 -7 45l-12 87
q-57 -18 -99 -44.5t-44 -48.5q-3 -21 21.5 -36z" />
    <glyph glyph-name="uni0671.fina" unicode="&#x671;" horiz-adv-x="268" arabic-form="final" 
d="M111 63q-48 63 -50 192q-2 116 -5.5 199.5t-12.5 167.5l124 28q14 -148 14 -386q0 -46 6.5 -70t25 -34.5t55.5 -10.5h5l8 -75l-8 -74h-5q-109 0 -157 63zM-1 761.5q23 17.5 50 17.5q15 0 30 -4q26 48 64 76.5t77 28.5q35 0 59 -24t24 -61q0 -39 -27 -68.5t-71 -37.5
q-16 -3 -33 -3q-32 0 -79 15q-29 10 -44 10q-17 0 -28.5 -9t-16.5 -17l-44 29q16 30 39 47.5zM178 750q5 0 17 2q28 4 44 15.5t16 24.5q0 10 -12.5 16.5t-27.5 6.5q-21 0 -43.5 -15t-40.5 -41q31 -9 47 -9z" />
    <glyph glyph-name="uni067E.fina" unicode="&#x67e;" horiz-adv-x="950" arabic-form="final" 
d="M151 43q-101 55 -110 153q-1 8 -1 24q0 43 12 93t29 89l96 -46q-29 -91 -26 -131q7 -38 80 -62.5t200 -25.5q129 1 200.5 17.5t109 53.5t63.5 107l104 -12q-19 -57 -19 -92q0 -32 16.5 -47t49.5 -15l8 -75l-8 -74q-56 0 -98.5 33t-51.5 85q-62 -73 -151.5 -101.5
t-224.5 -28.5q-177 0 -278 55zM303 -117l47 49l54 -54l27 -27l-81 -79l-79 79zM445 -196l47 -47l24 -24l-71 -70l-70 70zM539 -68q10 -11 60 -61l20 -20l-80 -79l-80 79z" />
    <glyph glyph-name="uni067E.init" unicode="&#x67e;" horiz-adv-x="376" arabic-form="initial" 
d="M-5 149h48q99 0 140 17t41 52q-1 22 -23 84.5t-32 83.5l106 58q20 -42 40 -111.5t20 -121.5q-1 -102 -69 -156.5t-201 -54.5h-70v149zM-34 -117l47 49l54 -54l27 -27l-81 -79l-79 79zM108 -196l47 -47l24 -24l-71 -70l-70 70zM202 -68q10 -11 60 -61l20 -20l-80 -79
l-80 79z" />
    <glyph glyph-name="uni067E.medi" unicode="&#x67e;" horiz-adv-x="390" arabic-form="medial" 
d="M-5 149h7q90 0 134 9.5t58 28.5t14 55q0 29 -10 95l103 20q14 -73 14 -165q4 -17 22 -30t52 -13h6l8 -75l-8 -74h-6q-40 0 -74 19t-58 50q-29 -37 -88 -53t-167 -16h-7v149zM-59 -118l47 49l54 -54l27 -27l-81 -79l-79 79zM83 -197l47 -47l24 -24l-71 -70l-70 70z
M177 -69q10 -11 60 -61l20 -20l-80 -79l-80 79z" />
    <glyph glyph-name="uni0679.fina" unicode="&#x679;" horiz-adv-x="950" arabic-form="final" 
d="M151 43q-101 55 -110 153q-1 8 -1 24q0 43 12 93t29 89l96 -46q-29 -91 -26 -131q7 -38 80 -62.5t200 -25.5q129 1 200.5 17.5t109 53.5t63.5 107l104 -12q-19 -57 -19 -92q0 -32 16.5 -47t49.5 -15l8 -75l-8 -74q-56 0 -98.5 33t-51.5 85q-62 -73 -151.5 -101.5
t-224.5 -28.5q-177 0 -278 55zM339 408l30 -9q9 16 19 28q0 28 -5 77.5t-11 83.5l54 11q9 -53 14 -115q37 32 76 32q40 0 62 -28t22 -62q0 -44 -39.5 -76t-119.5 -32q-38 0 -64.5 8.5t-57.5 20.5zM442 388q62 -2 85 10t23 29q0 9 -7 16t-22 7q-22 0 -47 -17t-46 -44z" />
    <glyph glyph-name="uni0679.init" unicode="&#x679;" horiz-adv-x="376" arabic-form="initial" 
d="M-5 149h48q99 0 140 17t41 52q-1 22 -23 84.5t-32 83.5l106 58q20 -42 40 -111.5t20 -121.5q-1 -102 -69 -156.5t-201 -54.5h-70v149zM22 594q20 -6 30 -8q12 18 19 27q0 28 -5 77.5t-11 83.5l54 11q9 -53 14 -115q37 32 76 32q40 0 62 -28t22 -62q0 -44 -39.5 -76
t-119.5 -32q-38 0 -64.5 8.5t-57.5 20.5zM125 574q58 -2 82.5 9t25.5 26q2 10 -5.5 18.5t-24.5 8.5q-22 0 -46.5 -17t-45.5 -44z" />
    <glyph glyph-name="uni0679.medi" unicode="&#x679;" horiz-adv-x="390" arabic-form="medial" 
d="M-5 149h7q90 0 134 9.5t58 28.5t14 55q0 29 -10 95l103 20q14 -73 14 -165q4 -17 22 -30t52 -13h6l8 -75l-8 -74h-6q-40 0 -74 19t-58 50q-29 -37 -88 -53t-167 -16h-7v149zM36 491q20 -6 30 -8q8 14 18 27q1 26 -4 74t-11 87l54 11q8 -44 13 -115q37 32 77 32t62 -28
t22 -62q0 -27 -17 -52t-52.5 -40.5t-89.5 -15.5q-53 0 -87 14t-36 15zM139 471q60 -2 84 9.5t24 27.5q0 10 -7 17.5t-22 7.5q-23 0 -47.5 -16.5t-45.5 -44.5z" />
    <glyph glyph-name="uni06A4.fina" unicode="&#x6a4;" horiz-adv-x="896" arabic-form="final" 
d="M434 -12h-9h-1q-174 1 -274 56t-109 152q-1 8 -1 24q0 43 12 93t29 89l96 -46q-29 -91 -26 -131q7 -38 81 -63t202 -25h3q28 0 74 2q-33 50 -33 103q0 8 2 26q9 59 36.5 107t68 76t86.5 28q51 0 90.5 -31.5t61 -81.5t21.5 -103q0 -21 -2 -32q-6 -41 -25 -82h84l8 -75
l-8 -74h-60q-92 0 -168 26q-94 -38 -236 -38h-3zM579 719l80 -79l-80 -81l-80 81zM606 211.5q20 -23.5 56 -39.5q54 26 76 74l1 11q0 31 -20.5 57.5t-54.5 26.5q-31 0 -53.5 -25t-26.5 -57q2 -24 22 -47.5zM625 781q24 23 47 47l71 -70l-24 -24l-47 -47l-70 71zM767 719
q27 -26 53 -53l26 -26l-79 -81l-80 81z" />
    <glyph glyph-name="uni06A4.init" unicode="&#x6a4;" horiz-adv-x="471" arabic-form="initial" 
d="M-5 149h15q119 0 189.5 11.5t104.5 41.5q-28 -2 -41 -2q-72 0 -127.5 25t-79.5 73q-18 39 -18 86q0 57 24 111t67 88.5t95 34.5q59 0 106 -46.5t73.5 -122.5t26.5 -161q0 -138 -103.5 -213t-318.5 -75h-13v149zM131 835l80 -79l-80 -81l-80 81zM199 349.5
q39 -11.5 88 -11.5q13 0 39 2q-13 64 -44 107.5t-69 43.5q-31 0 -53 -27.5t-22 -57.5q0 -16 7 -26q15 -19 54 -30.5zM225 944q34 -36 70 -70l-70 -71l-47 47l-24 24zM271 788l49 47l26 -26q26 -27 53 -53l-79 -81l-54 54l-27 27z" />
    <glyph glyph-name="uni06A4.medi" unicode="&#x6a4;" horiz-adv-x="469" arabic-form="medial" 
d="M-6 149h24q43 0 62 1q-27 44 -27 93q0 9 2 25q9 59 37 107t68.5 76t85.5 28q52 0 92 -32t61 -82t21 -103q0 -11 -2 -31q-6 -43 -25 -82h84l8 -75l-8 -74h-60q-94 0 -176 29q-87 -29 -223 -29h-24v149zM144 711l80 -79l-80 -80l-53 53l-27 27zM180.5 213
q19.5 -23 54.5 -39q56 21 78 72l1 11q0 31 -20 57.5t-54 26.5q-31 0 -54 -25t-27 -57q2 -23 21.5 -46zM238 820l70 -70q-24 -23 -70 -71l-24 24l-47 47zM333 711l79 -79l-79 -80l-81 80z" />
    <glyph glyph-name="uni0686.fina" unicode="&#x686;" horiz-adv-x="742" arabic-form="final" 
d="M212 -354q-79 34 -125 98.5t-46 151.5q0 150 116.5 250t324.5 137q-66 46 -108.5 66t-82.5 20q-38 0 -67.5 -21t-45.5 -47l-84 61q77 150 200 150q57 0 111.5 -26.5t145.5 -92.5q49 -35 76 -51.5t58 -27.5l-17 -143h-25q28 -22 87 -22h17l8 -75l-8 -74h-17
q-81 0 -135.5 43.5t-72.5 117.5q-109 -15 -190.5 -53t-127.5 -88t-54 -104q-4 -44 29.5 -79.5t94.5 -56t137 -20.5q70 0 132 15t98 29l54 -114q-136 -78 -308 -78q-96 0 -175 34zM330 60l78 -78q-32 -30 -47 -46l-31 -30l-77 76zM422 -63l68 -69l-23 -23l-45 -45l-68 68z
M512 60l26 -26l52 -52l-78 -76l-77 76z" />
    <glyph glyph-name="uni0686.init" unicode="&#x686;" horiz-adv-x="688" arabic-form="initial" 
d="M-6 149h75q113 0 212 23.5t209 79.5q-27 11 -71 33q-88 45 -153 45q-38 0 -67.5 -20.5t-45.5 -46.5l-84 61q76 149 201 149q42 0 81 -14t114 -52q58 -30 98.5 -46t89.5 -26l5 -134q-27 -8 -106 -51q-6 -4 -11 -6.5l-9 -4.5q-99 -52 -172 -81t-149 -43.5t-172 -14.5h-45
v149zM205 -116l47 49l54 -54l27 -27l-81 -79l-79 79zM347 -195l47 -47l24 -24l-71 -70l-70 70zM441 -67q10 -11 60 -61l20 -20l-80 -79l-80 79z" />
    <glyph glyph-name="uni0686.medi" unicode="&#x686;" horiz-adv-x="756" arabic-form="medial" 
d="M499 122q-130 -66 -229 -93.5t-231 -28.5h-45v149h75q113 0 212 23.5t209 79.5q-27 11 -71 33q-88 45 -153 45q-38 0 -67.5 -20.5t-45.5 -46.5l-84 61q76 149 201 149q42 0 81 -14t114 -52q58 -30 98.5 -46t89.5 -26l5 -134q-19 -5 -54 -23q46 -29 108 -29h49l8 -75
l-8 -74h-10q-189 1 -252 122zM210 -116l47 49l54 -54l27 -27l-81 -79l-79 79zM352 -195l47 -47l24 -24l-71 -70l-70 70zM446 -67q10 -11 60 -61l20 -20l-80 -79l-80 79z" />
    <glyph glyph-name="uni0688.fina" unicode="&#x688;" horiz-adv-x="582" arabic-form="final" 
d="M496.5 16.5q-34.5 16.5 -62.5 49.5q-73 -71 -181 -71q-122 0 -229 80l54 105q32 -17 70 -30.5t90 -13.5q79 0 137 37l-137 313l103 56l137 -324q16 -40 37 -54.5t60 -14.5h12l8 -75l-8 -74h-12q-44 0 -78.5 16.5zM204 704q20 -6 30 -8q12 18 19 27q0 27 -4.5 76.5
t-10.5 84.5l53 11q9 -53 14 -115q37 32 76 32q40 0 62 -28t22 -62q0 -27 -16.5 -51.5t-52.5 -40.5t-90 -16q-39 0 -71.5 10.5t-50.5 19.5zM307 685q60 -3 84.5 8.5t24.5 27.5q0 10 -7 17.5t-22 7.5q-22 0 -46.5 -16.5t-47.5 -43.5q5 -1 14 -1z" />
    <glyph glyph-name="uni0698.fina" unicode="&#x698;" horiz-adv-x="408" arabic-form="final" 
d="M344 12q-6 -94 -82 -173.5t-201 -130.5l-61 126q66 27 121 62.5t86.5 70.5t31.5 60q0 41 -53 223l-5 20l112 44q11 -31 26 -89q13 -41 32.5 -58.5t51.5 -17.5h9l8 -75l-8 -74h-9q-32 0 -59 12zM132 565l80 -79l-80 -80l-53 53l-27 27zM226 674l70 -70q-24 -23 -70 -71
l-24 24l-47 47zM321 565l79 -79l-79 -80l-81 80z" />
    <glyph glyph-name="uni0691.fina" unicode="&#x691;" horiz-adv-x="408" arabic-form="final" 
d="M344 12q-6 -94 -82 -173.5t-201 -130.5l-61 126q66 27 121 62.5t86.5 70.5t31.5 60q0 41 -53 223l-5 20l112 44q11 -31 26 -89q13 -41 32.5 -58.5t51.5 -17.5h9l8 -75l-8 -74h-9q-32 0 -59 12zM132 468l30 -9q9 16 19 28q1 26 -4 74t-11 87l53 11q9 -53 14 -115
q39 32 77 32q39 0 61 -28t22 -62q0 -44 -39.5 -76t-119.5 -32q-53 0 -86.5 14t-35.5 15zM235 448q60 -2 84.5 9.5t24.5 27.5q0 10 -7 17.5t-22 7.5q-23 0 -48 -17t-46 -44z" />
    <glyph glyph-name="uni06A9.fina" unicode="&#x6a9;" horiz-adv-x="952" arabic-form="final" 
d="M849.5 28.5q-43.5 28.5 -91.5 88.5q-35 -62 -116 -95.5t-189 -33.5l-34 -1v1q-172 1 -270.5 56t-107.5 152q-1 8 -1 24q0 43 12 93t29 89l96 -46q-29 -91 -26 -131q7 -38 81 -63t202 -25v-1h19q82 0 139 18t76 43q-8 50 -58.5 116t-150.5 146l14 130l371 156l40 -119
l-289 -123q24 -20 61 -61t68 -88q53 -83 88.5 -126t65 -61t63.5 -18h16l8 -75l-8 -74h-16q-48 0 -91.5 28.5z" />
    <glyph glyph-name="uni06A9.init" unicode="&#x6a9;" horiz-adv-x="460" arabic-form="initial" 
d="M-5 149h34q85 0 141 13.5t74 36.5q-8 48 -59 114t-150 146l14 130l371 156l40 -119l-289 -123q33 -28 75.5 -76.5t76 -109.5t33.5 -118q0 -17 -5 -39q-20 -81 -106 -120.5t-216 -39.5h-34v149z" />
    <glyph glyph-name="uni06A9.medi" unicode="&#x6a9;" horiz-adv-x="526" arabic-form="medial" 
d="M423.5 28q-42.5 28 -90.5 88q-34 -59 -113.5 -87.5t-190.5 -28.5h-34v149h34q85 0 141 13.5t74 36.5q-8 48 -59 114t-150 146l14 130l371 156l40 -119l-289 -123q34 -29 78 -79t73 -106q45 -68 76 -104t58 -50.5t58 -14.5h17l8 -75l-8 -74h-17q-48 0 -90.5 28z" />
    <glyph glyph-name="uni06AF.fina" unicode="&#x6af;" horiz-adv-x="944" arabic-form="final" 
d="M842.5 27q-45.5 27 -92.5 81q-37 -58 -115 -89t-182 -31l-34 -1v1q-172 1 -270.5 56t-107.5 152q-1 8 -1 24q0 43 12 93t29 89l96 -46q-29 -91 -26 -131q7 -38 81 -63t202 -25v-1h19q84 0 139 13.5t74 36.5q-19 101 -207 249l13 130l372 157l40 -119l-289 -123
q94 -80 139 -152q64 -94 111.5 -136.5t89.5 -42.5h14l8 -75l-8 -74h-14q-47 0 -92.5 27zM482 685l325 134l16 -48l-347 -146z" />
    <glyph glyph-name="uni06AF.init" unicode="&#x6af;" horiz-adv-x="460" arabic-form="initial" 
d="M-5 149h34q85 0 140 13t74 35q-14 93 -208 246l13 130l372 157l40 -119l-289 -123q64 -55 123 -134t59 -157q0 -17 -5 -37q-20 -81 -105 -120.5t-214 -39.5h-34v149zM59 694l325 133l17 -48l-348 -145z" />
    <glyph glyph-name="uni06AF.medi" unicode="&#x6af;" horiz-adv-x="520" arabic-form="medial" 
d="M421.5 30q-42.5 30 -89.5 88q-34 -60 -113 -89t-190 -29h-34v149h34q85 0 140 13t74 35q-14 93 -208 246l13 130l372 157l40 -119l-289 -123q92 -81 139 -161q64 -89 111.5 -133.5t87.5 -44.5h17l8 -75l-8 -74h-17q-45 0 -87.5 30zM59 694l325 133l17 -48l-348 -145z" />
    <glyph glyph-name="uni06BA.fina" unicode="&#x6ba;" horiz-adv-x="749" arabic-form="final" 
d="M692 13q-4 -84 -47 -153.5t-118 -110.5t-171 -41q-93 0 -164 35.5t-110.5 101.5t-39.5 155q0 18 1 28q3 57 23.5 119t45.5 114l96 -44q-26 -60 -40 -105.5t-14 -92.5q0 -82 52 -122.5t150 -40.5q70 0 122.5 24.5t80 64t27.5 83.5q0 57 -64 240l107 56q20 -56 32 -96
q16 -45 34 -62t52 -17h7l8 -75l-8 -74h-7q-29 0 -55 13z" />
    <glyph glyph-name="uni06C1.init" unicode="&#x6c1;" horiz-adv-x="419" arabic-form="initial" 
d="M-11 74l8 75h89q99 0 140 17t41 52q0 22 -21 81.5t-33 86.5l105 58q20 -43 40 -110.5t20 -119.5q0 -104 -67.5 -159t-201.5 -55h-112zM101.5 -155q38.5 65 99.5 103l55 -55q-76 -58 -101 -119q6 3 18 3q34 0 59.5 -25t25.5 -62q0 -36 -26 -61.5t-61 -25.5
q-47 -2 -77.5 31t-30.5 84q0 62 38.5 127z" />
    <glyph glyph-name="uni06BE.init" unicode="&#x6be;" horiz-adv-x="673" arabic-form="initial" 
d="M-4 149h16q50 0 73 1q-30 44 -30 91q0 11 4 33q13 64 48 118q-13 3 -31 8l55 138q197 -60 308 -114.5t156 -107.5t45 -115q0 -38 -17 -94q-16 -52 -70 -78t-129 -26q-83 0 -161 27q-91 -30 -251 -30h-16v149zM251 173q83 27 83 83q0 25 -14 47.5t-37 33.5l-24 8
q-3 1 -10 1q-32 0 -59 -26t-27 -59q0 -48 88 -88zM440 132q36 0 59.5 8.5t29.5 25.5q3 8 3 14q0 46 -105 98q1 -21 -2 -48q-9 -56 -30 -95q24 -3 45 -3z" />
    <glyph glyph-name="uni06C7.fina" unicode="&#x6c7;" horiz-adv-x="488" arabic-form="final" 
d="M246 -94.5q76 38.5 100 93.5q-110 2 -178 22.5t-95 78.5q-18 39 -18 86q0 59 25 117.5t69 96t96 37.5t96 -39t73.5 -105t39.5 -144h42l8 -75l-8 -74h-45q-25 -111 -121.5 -187t-250.5 -105l-46 129q137 30 213 68.5zM251 583q-38 6 -60 29t-22 59q0 39 29 68t65 29
q12 0 23 -4q27 -10 41 -37t14 -61q0 -48 -22 -86q-24 -42 -76 -63.5t-109 -23.5l-17 59q93 4 134 31zM226 157.5q47 -7.5 122 -8.5q-14 66 -45 110.5t-70 44.5q-20 0 -37.5 -14.5t-27.5 -36.5t-10 -42q0 -17 7 -27q14 -19 61 -26.5zM238.5 646.5q18.5 -13.5 49.5 -12.5
q3 11 3 22q0 22 -11 38.5t-28 16.5q-13 0 -22.5 -10t-9.5 -23q0 -18 18.5 -31.5z" />
    <glyph glyph-name="uni06C6.fina" unicode="&#x6c6;" horiz-adv-x="488" arabic-form="final" 
d="M246 -94.5q76 38.5 100 93.5q-110 2 -178 22.5t-95 78.5q-18 39 -18 86q0 59 25 117.5t69 96t96 37.5t96 -39t73.5 -105t39.5 -144h42l8 -75l-8 -74h-45q-25 -111 -121.5 -187t-250.5 -105l-46 129q137 30 213 68.5zM173 685q12 -17 27.5 -48.5t23.5 -56.5q8 28 24 62
t28 52l44 -40q-18 -27 -37 -66t-32 -73l-49 -16q-10 32 -31.5 74t-41.5 70zM226 157.5q47 -7.5 122 -8.5q-14 66 -45 110.5t-70 44.5q-20 0 -37.5 -14.5t-27.5 -36.5t-10 -42q0 -17 7 -27q14 -19 61 -26.5z" />
    <glyph glyph-name="uni06C9.fina" unicode="&#x6c9;" horiz-adv-x="488" arabic-form="final" 
d="M246 -94.5q76 38.5 100 93.5q-110 2 -178 22.5t-95 78.5q-18 39 -18 86q0 59 25 117.5t69 96t96 37.5t96 -39t73.5 -105t39.5 -144h42l8 -75l-8 -74h-45q-25 -111 -121.5 -187t-250.5 -105l-46 129q137 30 213 68.5zM169.5 608q21.5 42 31.5 73l48 -16q12 -33 32 -72
t38 -67l-44 -40q-13 19 -29 53t-23 61q-8 -26 -24 -57.5t-28 -47.5l-43 42q20 29 41.5 71zM226 157.5q47 -7.5 122 -8.5q-14 66 -45 110.5t-70 44.5q-20 0 -37.5 -14.5t-27.5 -36.5t-10 -42q0 -17 7 -27q14 -19 61 -26.5z" />
    <glyph glyph-name="uni06CC.fina" unicode="&#x6cc;" horiz-adv-x="760" arabic-form="final" 
d="M186.5 -251.5q-73.5 37.5 -112.5 110t-32 173.5q6 98 68 232l97 -44q-26 -59 -40 -104t-14 -92q0 -83 52 -123.5t150 -40.5q54 0 102.5 12t83 30t47.5 36q-18 17 -76 48.5t-120 54.5l31 140q164 -32 289 -32h53l8 -75l-8 -74h-53q-19 0 -57 2q37 -37 37 -71
q0 -50 -45 -101.5t-122.5 -85t-169.5 -33.5q-95 0 -168.5 37.5z" />
    <glyph glyph-name="uni06CC.init" unicode="&#x6cc;" horiz-adv-x="376" arabic-form="initial" 
d="M-5 149h48q99 0 140 17t41 52q-1 22 -23 84.5t-32 83.5l106 58q20 -42 40 -111.5t20 -121.5q-1 -102 -69 -156.5t-201 -54.5h-70v149zM5 -85l28 -28l57 -57l-85 -84l-84 84zM181 -85l28 -28l57 -57l-85 -84l-84 84z" />
    <glyph glyph-name="uni06CC.medi" unicode="&#x6cc;" horiz-adv-x="390" arabic-form="medial" 
d="M-5 149h7q90 0 134 9.5t58 28.5t14 55q0 29 -10 95l103 20q14 -73 14 -165q4 -17 22 -30t52 -13h6l8 -75l-8 -74h-6q-40 0 -74 19t-58 50q-29 -37 -88 -53t-167 -16h-7v149zM-6 -84l28 -28l57 -57l-85 -84l-84 84zM170 -84l28 -28l57 -57l-85 -84l-84 84z" />
    <glyph glyph-name="uniFDFC" unicode="&#xfdfc;" horiz-adv-x="1487" arabic-form="isolated" 
d="M1198.5 -27q56.5 28 90 58t36.5 55q1 5 1 18q0 39 -8.5 112t-15.5 119l118 26q17 -94 17 -190q0 -48 -7 -101q-15 -99 -98 -168.5t-217 -103.5l-41 129q68 18 124.5 46zM70.5 146.5q20.5 67.5 48.5 127.5l97 -45q-27 -61 -40.5 -103t-13.5 -86q0 -63 46.5 -99.5
t126.5 -36.5q95 0 139 49t40 157q-7 213 -28 440l78 133l145 36q15 4 30 4q36 0 56.5 -24.5t22.5 -70.5l15 -366q2 -54 8.5 -79t25.5 -35.5t60 -10.5q151 0 170 52q-3 40 -24 102.5t-32 83.5l105 57q19 -38 40 -111.5t21 -126.5q0 -103 -69 -154.5t-215 -51.5q-76 0 -120 28
t-63 83t-21 144q-5 212 -13 351l-100 -27l4 -103q6 -134 13 -347q4 -175 -70 -268.5t-218 -93.5q-78 0 -143 32t-103.5 92t-38.5 141q0 59 20.5 126.5zM655 -128q11 -1 36 -1q72 0 157 10t142 25l37 -126q-134 -29 -277 -29q-70 0 -120 7z" />
    <glyph glyph-name="uni0622.fina" unicode="&#x622;" horiz-adv-x="268" arabic-form="final" 
d="M111 63q-48 63 -50 192q-2 116 -5.5 199.5t-12.5 167.5l124 28q14 -148 14 -386q0 -46 6.5 -70t25 -34.5t55.5 -10.5h5l8 -75l-8 -74h-5q-109 0 -157 63zM-8 788.5q30 24.5 63 24.5q26 0 62 -18q32 -15 51 -15q17 0 35 10.5t29 27.5l45 -38q-22 -34 -50 -52t-59 -18
q-28 0 -66 18q-12 5 -24 9.5t-23 4.5q-19 0 -36 -13.5t-27 -38.5l-49 29q19 45 49 69.5z" />
    <glyph glyph-name="uni0623.fina" unicode="&#x623;" horiz-adv-x="268" arabic-form="final" 
d="M111 63q-48 63 -50 192q-2 116 -5.5 199.5t-12.5 167.5l124 28q14 -148 14 -386q0 -46 6.5 -70t25 -34.5t55.5 -10.5h5l8 -75l-8 -74h-5q-109 0 -157 63zM17 735l57 17q-17 21 -23 43q-2 7 -2 21q0 34 21.5 64t53.5 37q12 4 29 4q24 0 68 -14l-17 -67q-32 10 -53 10
q-22 0 -34.5 -11t-12.5 -25q0 -13 14 -25t40 -11l79 25v-68l-220 -67v67z" />
    <glyph glyph-name="uni0624.fina" unicode="&#x624;" horiz-adv-x="488" arabic-form="final" 
d="M246 -94.5q76 38.5 100 93.5q-110 2 -178 22.5t-95 78.5q-18 39 -18 86q0 59 25 117.5t69 96t96 37.5t96 -39t73.5 -105t39.5 -144h42l8 -75l-8 -74h-45q-25 -111 -121.5 -187t-250.5 -105l-46 129q137 30 213 68.5zM91 551l56 17q-18 19 -22 43q-2 7 -2 21
q0 34 21.5 63.5t53.5 37.5q12 3 26 3q26 0 70 -14l-17 -67q-28 11 -53 11q-9 0 -13 -1q-16 -4 -24.5 -14t-8.5 -22q0 -13 14 -25.5t41 -9.5l77 24v-68l-219 -67v68zM226 157.5q47 -7.5 122 -8.5q-14 66 -45 110.5t-70 44.5q-20 0 -37.5 -14.5t-27.5 -36.5t-10 -42
q0 -17 7 -27q14 -19 61 -26.5z" />
    <glyph glyph-name="uni0625.fina" unicode="&#x625;" horiz-adv-x="279" arabic-form="final" 
d="M120.5 63q-48.5 63 -48.5 192q-1 123 -7.5 249.5t-18.5 208.5l124 27q10 -73 16 -197.5t6 -230.5v-38q-1 -51 5 -77t24.5 -37t57.5 -11h5l8 -75l-8 -74h-5q-110 0 -158.5 63zM33 -221l56 17q-16 19 -22 43q-2 7 -2 21q0 34 21.5 63.5t53.5 37.5q14 3 27 3q26 0 70 -14
l-17 -67q-28 11 -52 11q-22 0 -35 -11t-13 -25q0 -13 13.5 -25.5t38.5 -11.5l81 25v-68l-220 -67v68z" />
    <glyph glyph-name="uni0626.fina" unicode="&#x626;" horiz-adv-x="760" arabic-form="final" 
d="M186.5 -251.5q-73.5 37.5 -112.5 110t-32 173.5q6 98 68 232l97 -44q-26 -59 -40 -104t-14 -92q0 -83 52 -123.5t150 -40.5q54 0 102.5 12t83 30t47.5 36q-18 17 -76 48.5t-120 54.5l31 140q164 -32 289 -32h53l8 -75l-8 -74h-53q-19 0 -57 2q37 -37 37 -71
q0 -50 -45 -101.5t-122.5 -85t-169.5 -33.5q-95 0 -168.5 37.5zM136 375l56 17q-18 19 -22 43q-2 7 -2 21q0 34 21.5 63.5t53.5 37.5q12 3 26 3q26 0 70 -14l-17 -67q-28 11 -51 11q-25 0 -38 -13t-9 -29q2 -12 15.5 -22t35.5 -9l80 25v-68l-219 -67v68z" />
    <glyph glyph-name="uni0626.init" unicode="&#x626;" horiz-adv-x="336" arabic-form="initial" 
d="M-5 149h53q72 0 103.5 16t31.5 48q0 21 -21 82.5t-33 90.5l105 58q19 -42 39.5 -112.5t20.5 -123.5q0 -102 -63.5 -155t-182.5 -53h-53v149zM14 537l57 17q-17 21 -23 43q-2 7 -2 21q0 34 21.5 64t53.5 37q12 4 29 4q24 0 68 -14l-17 -67q-32 10 -53 10q-22 0 -34.5 -11
t-12.5 -25q0 -13 14 -25t40 -11l79 25v-68l-220 -67v67z" />
    <glyph glyph-name="uni0626.medi" unicode="&#x626;" horiz-adv-x="335" arabic-form="medial" 
d="M-5 149h6q76 0 110.5 16t39.5 52q2 16 2 25q0 24 -5 55.5t-6 39.5l104 20q13 -74 13 -165q4 -17 22.5 -30t52.5 -13h6l8 -75l-8 -74h-6q-40 0 -74.5 19t-58.5 50q-29 -36 -78.5 -52.5t-121.5 -16.5h-6v149zM24 472l57 17q-17 18 -23 43q-2 7 -2 21q0 34 21.5 63.5
t53.5 37.5q12 4 29 4q24 0 68 -14l-17 -67q-32 10 -53 10q-22 0 -34.5 -11t-12.5 -25q0 -13 14.5 -26t41.5 -10l77 24v-67l-220 -68v68z" />
    <glyph glyph-name="uni0627.fina" unicode="&#x627;" horiz-adv-x="279" arabic-form="final" 
d="M120.5 63q-48.5 63 -48.5 192q-1 123 -7.5 249.5t-18.5 208.5l124 27q10 -73 16 -197.5t6 -230.5v-38q-1 -51 5 -77t24.5 -37t57.5 -11h5l8 -75l-8 -74h-5q-110 0 -158.5 63z" />
    <glyph glyph-name="uni0628.fina" unicode="&#x628;" horiz-adv-x="950" arabic-form="final" 
d="M151 43q-101 55 -110 153q-1 8 -1 24q0 43 12 93t29 89l96 -46q-29 -91 -26 -131q7 -38 80 -62.5t200 -25.5q129 1 200.5 17.5t109 53.5t63.5 107l104 -12q-19 -57 -19 -92q0 -32 16.5 -47t49.5 -15l8 -75l-8 -74q-56 0 -98.5 33t-51.5 85q-62 -73 -151.5 -101.5
t-224.5 -28.5q-177 0 -278 55zM449 -85q31 -30 61 -61l31 -31l-92 -92l-93 92z" />
    <glyph glyph-name="uni0628.init" unicode="&#x628;" horiz-adv-x="336" arabic-form="initial" 
d="M-5 149h53q72 0 103.5 16t31.5 48q0 21 -21 82.5t-33 90.5l105 58q19 -42 39.5 -112.5t20.5 -123.5q0 -102 -63.5 -155t-182.5 -53h-53v149zM73 -79q31 -30 61 -61l31 -31l-92 -92l-93 92z" />
    <glyph glyph-name="uni0628.medi" unicode="&#x628;" horiz-adv-x="335" arabic-form="medial" 
d="M-5 149h6q76 0 110.5 16t39.5 52q2 16 2 25q0 24 -5 55.5t-6 39.5l104 20q13 -74 13 -165q4 -17 22.5 -30t52.5 -13h6l8 -75l-8 -74h-6q-40 0 -74.5 19t-58.5 50q-29 -36 -78.5 -52.5t-121.5 -16.5h-6v149zM57 -80q31 -30 61 -61l31 -31l-92 -92l-93 92z" />
    <glyph glyph-name="uni0629.fina" unicode="&#x629;" horiz-adv-x="518" arabic-form="final" 
d="M422.5 16q-35.5 16 -59.5 50q-60 -18 -116 -18q-90 0 -147.5 43.5t-57.5 118.5q0 87 64 147t172 104l-7 60l116 25q23 -214 32 -282q6 -50 14.5 -74t25 -32.5t48.5 -8.5h17l8 -75l-8 -74h-17q-49 0 -84.5 16zM179 770l85 -84l-56 -56l-29 -29l-84 85zM173.5 202
q24.5 -15 65.5 -15q33 0 75 12q-3 15 -7 45l-12 87q-57 -18 -99 -44.5t-44 -48.5q-3 -21 21.5 -36zM355 770l85 -84l-56 -56l-29 -29l-84 85z" />
    <glyph glyph-name="uni062A.fina" unicode="&#x62a;" horiz-adv-x="950" arabic-form="final" 
d="M151 43q-101 55 -110 153q-1 8 -1 24q0 43 12 93t29 89l96 -46q-29 -91 -26 -131q7 -38 80 -62.5t200 -25.5q129 1 200.5 17.5t109 53.5t63.5 107l104 -12q-19 -57 -19 -92q0 -32 16.5 -47t49.5 -15l8 -75l-8 -74q-56 0 -98.5 33t-51.5 85q-62 -73 -151.5 -101.5
t-224.5 -28.5q-177 0 -278 55zM376 504l84 -84l-84 -85l-85 85zM552 504l84 -84l-84 -85l-85 85z" />
    <glyph glyph-name="uni062A.init" unicode="&#x62a;" horiz-adv-x="376" arabic-form="initial" 
d="M-5 149h48q99 0 140 17t41 52q-1 22 -23 84.5t-32 83.5l106 58q20 -42 40 -111.5t20 -121.5q-1 -102 -69 -156.5t-201 -54.5h-70v149zM88 650l84 -84l-84 -85l-28 28l-57 57zM264 650l84 -84l-84 -85l-28 28l-57 57z" />
    <glyph glyph-name="uni062A.medi" unicode="&#x62a;" horiz-adv-x="390" arabic-form="medial" 
d="M-5 149h7q90 0 134 9.5t58 28.5t14 55q0 29 -10 95l103 20q14 -73 14 -165q4 -17 22 -30t52 -13h6l8 -75l-8 -74h-6q-40 0 -74 19t-58 50q-29 -37 -88 -53t-167 -16h-7v149zM74 596l84 -84l-84 -85l-85 85zM250 596l84 -84l-84 -85l-85 85z" />
    <glyph glyph-name="uni062B.fina" unicode="&#x62b;" horiz-adv-x="950" arabic-form="final" 
d="M151 43q-101 55 -110 153q-1 8 -1 24q0 43 12 93t29 89l96 -46q-29 -91 -26 -131q7 -38 80 -62.5t200 -25.5q129 1 200.5 17.5t109 53.5t63.5 107l104 -12q-19 -57 -19 -92q0 -32 16.5 -47t49.5 -15l8 -75l-8 -74q-56 0 -98.5 33t-51.5 85q-62 -73 -151.5 -101.5
t-224.5 -28.5q-177 0 -278 55zM321 449l48 48q26 -27 80 -79l-80 -81l-34 34l-46 47zM463 606q34 -36 70 -70l-70 -72l-71 72zM558 497q39 -40 79 -79l-79 -81q-41 40 -81 81z" />
    <glyph glyph-name="uni062B.init" unicode="&#x62b;" horiz-adv-x="376" arabic-form="initial" 
d="M-5 149h48q99 0 140 17t41 52q-1 22 -23 84.5t-32 83.5l106 58q20 -42 40 -111.5t20 -121.5q-1 -102 -69 -156.5t-201 -54.5h-70v149zM87 645l80 -79l-27 -27l-53 -53q-19 21 -40 40l-40 40zM181 754l70 -70q-24 -23 -70 -71l-24 24l-47 47zM227 598l49 47l26 -26
q26 -27 53 -53l-79 -80l-81 80z" />
    <glyph glyph-name="uni062B.medi" unicode="&#x62b;" horiz-adv-x="390" arabic-form="medial" 
d="M-5 149h7q90 0 134 9.5t58 28.5t14 55q0 29 -10 95l103 20q14 -73 14 -165q4 -17 22 -30t52 -13h6l8 -75l-8 -74h-6q-40 0 -74 19t-58 50q-29 -37 -88 -53t-167 -16h-7v149zM63 593l80 -79l-27 -27l-53 -53l-27 27l-53 53q26 27 80 79zM156 703l71 -71l-47 -47l-24 -24
l-70 71zM251 593q40 -39 79 -79l-79 -80l-80 80z" />
    <glyph glyph-name="uni062C.fina" unicode="&#x62c;" horiz-adv-x="742" arabic-form="final" 
d="M212 -354q-79 34 -125 98.5t-46 151.5q0 150 116.5 250t324.5 137q-66 46 -108.5 66t-82.5 20q-38 0 -67.5 -21t-45.5 -47l-84 61q77 150 200 150q57 0 111.5 -26.5t145.5 -92.5q49 -35 76 -51.5t58 -27.5l-17 -143h-25q28 -22 87 -22h17l8 -75l-8 -74h-17
q-81 0 -135.5 43.5t-72.5 117.5q-109 -15 -190.5 -53t-127.5 -88t-54 -104q-4 -44 29.5 -79.5t94.5 -56t137 -20.5q70 0 132 15t98 29l54 -114q-136 -78 -308 -78q-96 0 -175 34zM397 37q31 -30 61 -61l31 -31l-92 -92l-93 92z" />
    <glyph glyph-name="uni062C.init" unicode="&#x62c;" horiz-adv-x="688" arabic-form="initial" 
d="M-6 149h75q113 0 212 23.5t209 79.5q-27 11 -71 33q-88 45 -153 45q-38 0 -67.5 -20.5t-45.5 -46.5l-84 61q76 149 201 149q42 0 81 -14t114 -52q58 -30 98.5 -46t89.5 -26l5 -134q-27 -8 -106 -51q-6 -4 -11 -6.5l-9 -4.5q-99 -52 -172 -81t-149 -43.5t-172 -14.5h-45
v149zM334 -76q31 -30 61 -61l31 -31l-92 -92l-93 92z" />
    <glyph glyph-name="uni062C.medi" unicode="&#x62c;" horiz-adv-x="756" arabic-form="medial" 
d="M499 122q-130 -66 -229 -93.5t-231 -28.5h-45v149h75q113 0 212 23.5t209 79.5q-27 11 -71 33q-88 45 -153 45q-38 0 -67.5 -20.5t-45.5 -46.5l-84 61q76 149 201 149q42 0 81 -14t114 -52q58 -30 98.5 -46t89.5 -26l5 -134q-19 -5 -54 -23q46 -29 108 -29h49l8 -75
l-8 -74h-10q-189 1 -252 122zM334 -75q31 -30 61 -61l31 -31l-92 -92l-93 92z" />
    <glyph glyph-name="uni062D.fina" unicode="&#x62d;" horiz-adv-x="742" arabic-form="final" 
d="M212 -354q-79 34 -125 98.5t-46 151.5q0 150 116.5 250t324.5 137q-66 46 -108.5 66t-82.5 20q-38 0 -67.5 -21t-45.5 -47l-84 61q77 150 200 150q57 0 111.5 -26.5t145.5 -92.5q49 -35 76 -51.5t58 -27.5l-17 -143h-25q28 -22 87 -22h17l8 -75l-8 -74h-17
q-81 0 -135.5 43.5t-72.5 117.5q-109 -15 -190.5 -53t-127.5 -88t-54 -104q-4 -44 29.5 -79.5t94.5 -56t137 -20.5q70 0 132 15t98 29l54 -114q-136 -78 -308 -78q-96 0 -175 34z" />
    <glyph glyph-name="uni062D.init" unicode="&#x62d;" horiz-adv-x="688" arabic-form="initial" 
d="M-6 149h75q113 0 212 23.5t209 79.5q-27 11 -71 33q-88 45 -153 45q-38 0 -67.5 -20.5t-45.5 -46.5l-84 61q76 149 201 149q42 0 81 -14t114 -52q58 -30 98.5 -46t89.5 -26l5 -134q-27 -8 -106 -51q-6 -4 -11 -6.5l-9 -4.5q-99 -52 -172 -81t-149 -43.5t-172 -14.5h-45
v149z" />
    <glyph glyph-name="uni062D.medi" unicode="&#x62d;" horiz-adv-x="757" arabic-form="medial" 
d="M499 122q-130 -66 -229 -93.5t-231 -28.5h-45v149h75q113 0 212 23.5t209 79.5q-27 11 -71 33q-88 45 -153 45q-38 0 -67.5 -20.5t-45.5 -46.5l-84 61q76 149 201 149q42 0 81 -14t114 -52q58 -30 98.5 -46t89.5 -26l5 -134q-19 -5 -54 -23q46 -29 108 -29h49l8 -75
l-8 -74h-10q-189 1 -252 122z" />
    <glyph glyph-name="uni062E.fina" unicode="&#x62e;" horiz-adv-x="742" arabic-form="final" 
d="M212 -354q-79 34 -125 98.5t-46 151.5q0 150 116.5 250t324.5 137q-66 46 -108.5 66t-82.5 20q-38 0 -67.5 -21t-45.5 -47l-84 61q77 150 200 150q57 0 111.5 -26.5t145.5 -92.5q49 -35 76 -51.5t58 -27.5l-17 -143h-25q28 -22 87 -22h17l8 -75l-8 -74h-17
q-81 0 -135.5 43.5t-72.5 117.5q-109 -15 -190.5 -53t-127.5 -88t-54 -104q-4 -44 29.5 -79.5t94.5 -56t137 -20.5q70 0 132 15t98 29l54 -114q-136 -78 -308 -78q-96 0 -175 34zM267 758q31 -30 61 -61l31 -31l-92 -92l-93 92z" />
    <glyph glyph-name="uni062E.init" unicode="&#x62e;" horiz-adv-x="688" arabic-form="initial" 
d="M-6 149h75q113 0 212 23.5t209 79.5q-27 11 -71 33q-88 45 -153 45q-38 0 -67.5 -20.5t-45.5 -46.5l-84 61q76 149 201 149q42 0 81 -14t114 -52q58 -30 98.5 -46t89.5 -26l5 -134q-27 -8 -106 -51q-6 -4 -11 -6.5l-9 -4.5q-99 -52 -172 -81t-149 -43.5t-172 -14.5h-45
v149zM252 696l31 31l92 -92q-11 -12 -69 -70l-23 -23l-92 93q31 30 61 61z" />
    <glyph glyph-name="uni062E.medi" unicode="&#x62e;" horiz-adv-x="756" arabic-form="medial" 
d="M499 122q-130 -66 -229 -93.5t-231 -28.5h-45v149h75q113 0 212 23.5t209 79.5q-27 11 -71 33q-88 45 -153 45q-38 0 -67.5 -20.5t-45.5 -46.5l-84 61q76 149 201 149q42 0 81 -14t114 -52q58 -30 98.5 -46t89.5 -26l5 -134q-19 -5 -54 -23q46 -29 108 -29h49l8 -75
l-8 -74h-10q-189 1 -252 122zM252 696l31 31l92 -92q-11 -12 -69 -70l-23 -23l-92 93q31 30 61 61z" />
    <glyph glyph-name="uni062F.fina" unicode="&#x62f;" horiz-adv-x="582" arabic-form="final" 
d="M496.5 16.5q-34.5 16.5 -62.5 49.5q-73 -71 -181 -71q-122 0 -229 80l54 105q32 -17 70 -30.5t90 -13.5q79 0 137 37l-137 313l103 56l137 -324q16 -40 37 -54.5t60 -14.5h12l8 -75l-8 -74h-12q-44 0 -78.5 16.5z" />
    <glyph glyph-name="uni0630.fina" unicode="&#x630;" horiz-adv-x="582" arabic-form="final" 
d="M496.5 16.5q-34.5 16.5 -62.5 49.5q-73 -71 -181 -71q-122 0 -229 80l54 105q32 -17 70 -30.5t90 -13.5q79 0 137 37l-137 313l103 56l137 -324q16 -40 37 -54.5t60 -14.5h12l8 -75l-8 -74h-12q-44 0 -78.5 16.5zM238 732q30 31 61 61q47 -45 92 -92q-30 -31 -61 -61
l-31 -31l-92 92z" />
    <glyph glyph-name="uni0631.fina" unicode="&#x631;" horiz-adv-x="408" arabic-form="final" 
d="M344 12q-6 -94 -82 -173.5t-201 -130.5l-61 126q66 27 121 62.5t86.5 70.5t31.5 60q0 41 -53 223l-5 20l112 44q11 -31 26 -89q13 -41 32.5 -58.5t51.5 -17.5h9l8 -75l-8 -74h-9q-32 0 -59 12z" />
    <glyph glyph-name="uni0632.fina" unicode="&#x632;" horiz-adv-x="408" arabic-form="final" 
d="M344 12q-6 -94 -82 -173.5t-201 -130.5l-61 126q66 27 121 62.5t86.5 70.5t31.5 60q0 41 -53 223l-5 20l112 44q11 -31 26 -89q13 -41 32.5 -58.5t51.5 -17.5h9l8 -75l-8 -74h-9q-32 0 -59 12zM220 589l92 -92l-92 -93q-46 47 -93 93z" />
    <glyph glyph-name="uni0633.fina" unicode="&#x633;" horiz-adv-x="1276" arabic-form="final" 
d="M1145 66q-24 -31 -57 -48t-70 -18h-3h-3q-46 1 -79 23t-51 62q-57 -85 -134 -85h-1h-2q-26 0 -53 12q-4 -83 -47 -152.5t-118 -110.5t-171 -41q-93 0 -164 35.5t-110.5 101.5t-39.5 155q0 18 1 28q3 57 23.5 119t45.5 114l96 -44q-26 -60 -40 -105.5t-14 -92.5
q0 -82 52 -122.5t150 -40.5q70 0 122.5 24.5t80 64t27.5 83.5q0 59 -64 240l107 56q16 -41 28 -83q12 -35 22 -53.5t27 -28.5t46 -10q49 1 77 55q23 46 33 117l104 -5q-4 -16 -7.5 -45.5t-3.5 -48.5q0 -73 60 -73q24 0 45.5 9t33.5 23q-9 37 -27 135l103 28q12 -64 19 -98
t13 -51q8 -23 25.5 -34.5t48.5 -11.5h6l8 -75l-8 -74h-6q-80 0 -131 66z" />
    <glyph glyph-name="uni0633.init" unicode="&#x633;" horiz-adv-x="763" arabic-form="initial" 
d="M472.5 23q-33.5 22 -51.5 62q-56 -84 -133 -85h-5q-43 0 -75 23t-45 61q-32 -41 -73.5 -62.5t-88.5 -21.5h-3l-8 74l8 75h5q31 0 61 13.5t45 33.5q21 24 32 54t20 64l104 -11q-1 -5 -11 -39.5t-10 -62.5q0 -52 42 -52h2q52 0 80 55q23 46 33 117l104 -5
q-4 -16 -7.5 -45.5t-3.5 -48.5q0 -73 60 -73h1q30 0 46.5 17t16.5 44t-20.5 86t-34.5 90l103 56q19 -41 40 -112.5t21 -125.5q0 -55 -21.5 -101.5t-60.5 -74.5t-88 -28h-5q-46 1 -79.5 23z" />
    <glyph glyph-name="uni0633.medi" unicode="&#x633;" horiz-adv-x="815" arabic-form="medial" 
d="M684 66q-24 -31 -57 -48t-70 -18h-3h-3q-46 1 -79 23t-51 62q-56 -84 -133 -85h-5q-43 0 -75 23t-45 61q-32 -41 -73.5 -62.5t-88.5 -21.5h-3l-8 74l8 75h5q31 0 61 13.5t45 33.5q21 24 32 54t20 64l104 -11q-1 -5 -11 -39.5t-10 -62.5q0 -52 42 -52h2q52 0 80 55
q23 46 33 117l104 -5q-4 -16 -7.5 -45.5t-3.5 -48.5q0 -73 60 -73q24 0 45.5 9t33.5 23q-9 37 -27 135l103 28q12 -64 19 -98t13 -51q8 -23 25.5 -34.5t48.5 -11.5h6l8 -75l-8 -74h-6q-80 0 -131 66z" />
    <glyph glyph-name="uni0634.fina" unicode="&#x634;" horiz-adv-x="1276" arabic-form="final" 
d="M1145 66q-24 -31 -57 -48t-70 -18h-3h-3q-46 1 -79 23t-51 62q-57 -85 -134 -85h-1h-2q-26 0 -53 12q-4 -83 -47 -152.5t-118 -110.5t-171 -41q-93 0 -164 35.5t-110.5 101.5t-39.5 155q0 18 1 28q3 57 23.5 119t45.5 114l96 -44q-26 -60 -40 -105.5t-14 -92.5
q0 -82 52 -122.5t150 -40.5q70 0 122.5 24.5t80 64t27.5 83.5q0 59 -64 240l107 56q16 -41 28 -83q12 -35 22 -53.5t27 -28.5t46 -10q49 1 77 55q23 46 33 117l104 -5q-4 -16 -7.5 -45.5t-3.5 -48.5q0 -73 60 -73q24 0 45.5 9t33.5 23q-9 37 -27 135l103 28q12 -64 19 -98
t13 -51q8 -23 25.5 -34.5t48.5 -11.5h6l8 -75l-8 -74h-6q-80 0 -131 66zM815 587l80 -79l-80 -81l-79 81zM909 696l70 -70q-46 -48 -70 -71l-47 47l-24 24zM972 555l32 32l79 -79l-79 -81l-27 27l-54 54z" />
    <glyph glyph-name="uni0634.init" unicode="&#x634;" horiz-adv-x="763" arabic-form="initial" 
d="M472.5 23q-33.5 22 -51.5 62q-56 -84 -133 -85h-5q-43 0 -75 23t-45 61q-32 -41 -73.5 -62.5t-88.5 -21.5h-3l-8 74l8 75h5q31 0 61 13.5t45 33.5q21 24 32 54t20 64l104 -11q-1 -5 -11 -39.5t-10 -62.5q0 -52 42 -52h2q52 0 80 55q23 46 33 117l104 -5
q-4 -16 -7.5 -45.5t-3.5 -48.5q0 -73 60 -73h1q30 0 46.5 17t16.5 44t-20.5 86t-34.5 90l103 56q19 -41 40 -112.5t21 -125.5q0 -55 -21.5 -101.5t-60.5 -74.5t-88 -28h-5q-46 1 -79.5 23zM355 622l80 -79l-80 -81l-80 81q54 52 80 79zM449 731q34 -36 70 -70l-70 -72
l-71 72zM544 622q26 -27 53 -53l26 -26l-47 -49l-32 -32l-27 27l-54 54z" />
    <glyph glyph-name="uni0634.medi" unicode="&#x634;" horiz-adv-x="815" arabic-form="medial" 
d="M684 66q-24 -31 -57 -48t-70 -18h-3h-3q-46 1 -79 23t-51 62q-56 -84 -133 -85h-5q-43 0 -75 23t-45 61q-32 -41 -73.5 -62.5t-88.5 -21.5h-3l-8 74l8 75h5q31 0 61 13.5t45 33.5q21 24 32 54t20 64l104 -11q-1 -5 -11 -39.5t-10 -62.5q0 -52 42 -52h2q52 0 80 55
q23 46 33 117l104 -5q-4 -16 -7.5 -45.5t-3.5 -48.5q0 -73 60 -73q24 0 45.5 9t33.5 23q-9 37 -27 135l103 28q12 -64 19 -98t13 -51q8 -23 25.5 -34.5t48.5 -11.5h6l8 -75l-8 -74h-6q-80 0 -131 66zM370 579l80 -79l-53 -53l-27 -27l-79 80zM441 665l23 23q36 -34 70 -70
l-70 -71l-70 71q23 24 47 47zM559 579l79 -79l-79 -80l-80 80z" />
    <glyph glyph-name="uni0635.fina" unicode="&#x635;" horiz-adv-x="1295" arabic-form="final" 
d="M192 -256.5q-71 35.5 -110.5 101.5t-39.5 155q0 18 1 28q3 57 23.5 119t45.5 114l96 -44q-26 -60 -40 -105.5t-14 -92.5q0 -82 52 -122.5t150 -40.5q70 0 122.5 24.5t80 64t27.5 83.5q0 37 -21.5 107.5t-37.5 106.5l106 57l12 -29v0q15 -38 28.5 -62.5t29.5 -39.5
q70 125 163 203.5t189 79.5q57 0 103 -25.5t72 -70t26 -99.5t-26 -109q46 2 71 2l8 -75l-8 -74q-77 0 -127 3t-89 16q-91 -41 -216 -41q-102 0 -177 46q-1 -86 -43.5 -158t-118.5 -115t-174 -43q-93 0 -164 35.5zM843 124q12 -1 35 -1q79 0 141.5 20t97 50.5t34.5 58.5
q0 24 -23.5 40.5t-63.5 16.5q-68 0 -137 -50t-126 -132z" />
    <glyph glyph-name="uni0635.init" unicode="&#x635;" horiz-adv-x="877" arabic-form="initial" 
d="M-6 149h14q47 0 76 20.5t46 64t27 117.5l104 -22q-6 -37 -6 -68q0 -62 28 -94q75 134 168 209t186 75q57 0 102.5 -24.5t71.5 -68t26 -98.5q0 -85 -51 -149t-142 -98t-207 -34q-184 0 -246 118q-30 -48 -74 -72.5t-109 -24.5h-14v149zM412 125q92 -2 165.5 17t114.5 50.5
t41 61.5q0 24 -22.5 40.5t-62.5 16.5q-66 0 -136 -48t-131 -136q20 -2 31 -2z" />
    <glyph glyph-name="uni0635.medi" unicode="&#x635;" horiz-adv-x="875" arabic-form="medial" 
d="M729 2.5q-48 2.5 -83 11.5q-90 -35 -209 -35q-184 0 -246 118q-30 -48 -74 -72.5t-109 -24.5h-14v149h14q47 0 76 20.5t46 64t27 117.5l104 -22q-6 -37 -6 -68q0 -62 28 -94q75 134 168 209t186 75q57 0 102.5 -24.5t71.5 -68t26 -98.5q0 -60 -28 -113q44 2 66 2h4l8 -75
l-8 -74h-5q-97 0 -145 2.5zM412 125q92 -2 165.5 17t114.5 50.5t41 61.5q0 24 -22.5 40.5t-62.5 16.5q-66 0 -136 -48t-131 -136q20 -2 31 -2z" />
    <glyph glyph-name="uni0636.fina" unicode="&#x636;" horiz-adv-x="1295" arabic-form="final" 
d="M192 -256.5q-71 35.5 -110.5 101.5t-39.5 155q0 18 1 28q3 57 23.5 119t45.5 114l96 -44q-26 -60 -40 -105.5t-14 -92.5q0 -82 52 -122.5t150 -40.5q70 0 122.5 24.5t80 64t27.5 83.5q0 37 -21.5 107.5t-37.5 106.5l106 57l12 -29v0q15 -38 28.5 -62.5t29.5 -39.5
q70 125 163 203.5t189 79.5q57 0 103 -25.5t72 -70t26 -99.5t-26 -109q46 2 71 2l8 -75l-8 -74q-77 0 -127 3t-89 16q-91 -41 -216 -41q-102 0 -177 46q-1 -86 -43.5 -158t-118.5 -115t-174 -43q-93 0 -164 35.5zM843 124q12 -1 35 -1q79 0 141.5 20t97 50.5t34.5 58.5
q0 24 -23.5 40.5t-63.5 16.5q-68 0 -137 -50t-126 -132zM955 652q30 31 61 61q47 -45 92 -92q-30 -31 -61 -61l-31 -31l-92 92z" />
    <glyph glyph-name="uni0636.init" unicode="&#x636;" horiz-adv-x="877" arabic-form="initial" 
d="M-6 149h14q47 0 76 20.5t46 64t27 117.5l104 -22q-6 -37 -6 -68q0 -62 28 -94q75 134 168 209t186 75q57 0 102.5 -24.5t71.5 -68t26 -98.5q0 -85 -51 -149t-142 -98t-207 -34q-184 0 -246 118q-30 -48 -74 -72.5t-109 -24.5h-14v149zM412 125q92 -2 165.5 17t114.5 50.5
t41 61.5q0 24 -22.5 40.5t-62.5 16.5q-66 0 -136 -48t-131 -136q20 -2 31 -2zM598 710l31 -31q31 -30 61 -61l-92 -93l-92 93z" />
    <glyph glyph-name="uni0636.medi" unicode="&#x636;" horiz-adv-x="875" arabic-form="medial" 
d="M729 2.5q-48 2.5 -83 11.5q-90 -35 -209 -35q-184 0 -246 118q-30 -48 -74 -72.5t-109 -24.5h-14v149h14q47 0 76 20.5t46 64t27 117.5l104 -22q-6 -37 -6 -68q0 -62 28 -94q75 134 168 209t186 75q57 0 102.5 -24.5t71.5 -68t26 -98.5q0 -60 -28 -113q44 2 66 2h4l8 -75
l-8 -74h-5q-97 0 -145 2.5zM412 125q92 -2 165.5 17t114.5 50.5t41 61.5q0 24 -22.5 40.5t-62.5 16.5q-66 0 -136 -48t-131 -136q20 -2 31 -2zM598 710l31 -31q31 -30 61 -61l-92 -93l-92 93z" />
    <glyph glyph-name="uni0637.fina" unicode="&#x637;" horiz-adv-x="793" arabic-form="final" 
d="M189 148q20 38 45 76q2 36 2 61q0 98 -11 232t-21 195l125 28q8 -61 15.5 -166t6.5 -210q104 92 205 92q58 0 103.5 -24.5t71.5 -68.5t26 -99q0 -64 -30 -116l79 1l8 -75l-8 -74q-88 0 -146 4t-98 14q-91 -34 -206 -34q-88 0 -171 17.5t-152 48.5l42 135q52 -24 114 -37z
M332 130q92 -3 165.5 16.5t114 51t40.5 62.5q0 23 -22 39.5t-60 16.5q-67 0 -137.5 -47.5t-132.5 -136.5q22 -2 32 -2z" />
    <glyph glyph-name="uni0637.init" unicode="&#x637;" horiz-adv-x="702" arabic-form="initial" 
d="M84 149q26 49 53 91q2 38 2 65q0 95 -11 220t-21 187l125 28q9 -59 16.5 -158t6.5 -202q103 92 205 92q57 0 103 -24.5t72 -68.5t26 -99q0 -85 -51.5 -148.5t-142.5 -97.5t-206 -34h-266v149h89zM236 146q91 -2 163 16.5t113 48.5t44 61q2 25 -20 42.5t-62 17.5
q-65 0 -136 -48.5t-134 -136.5z" />
    <glyph glyph-name="uni0637.medi" unicode="&#x637;" horiz-adv-x="701" arabic-form="medial" 
d="M84 149q26 49 53 91q2 38 2 65q0 95 -11 220t-21 187l125 28q9 -59 16.5 -158t6.5 -202q103 92 205 92q57 0 103 -24.5t72 -68.5t26 -99q0 -73 -40 -132l80 1l8 -75l-8 -74q-101 0 -163 4.5t-101 19.5q-78 -24 -176 -24h-266v149h89zM236 146q91 -2 163 16.5t113 48.5
t44 61q2 25 -20 42.5t-62 17.5q-65 0 -136 -48.5t-134 -136.5z" />
    <glyph glyph-name="uni0638.fina" unicode="&#x638;" horiz-adv-x="793" arabic-form="final" 
d="M189 148q20 38 45 76q2 36 2 61q0 98 -11 232t-21 195l125 28q8 -61 15.5 -166t6.5 -210q104 92 205 92q58 0 103.5 -24.5t71.5 -68.5t26 -99q0 -64 -30 -116l79 1l8 -75l-8 -74q-88 0 -146 4t-98 14q-91 -34 -206 -34q-88 0 -171 17.5t-152 48.5l42 135q52 -24 114 -37z
M332 130q92 -3 165.5 16.5t114 51t40.5 62.5q0 23 -22 39.5t-60 16.5q-67 0 -137.5 -47.5t-132.5 -136.5q22 -2 32 -2zM521 718l31 31l92 -92q-11 -12 -69 -70l-23 -23l-92 93q31 30 61 61z" />
    <glyph glyph-name="uni0638.init" unicode="&#x638;" horiz-adv-x="702" arabic-form="initial" 
d="M84 149q26 49 53 91q2 38 2 65q0 95 -11 220t-21 187l125 28q9 -59 16.5 -158t6.5 -202q103 92 205 92q57 0 103 -24.5t72 -68.5t26 -99q0 -85 -51.5 -148.5t-142.5 -97.5t-206 -34h-266v149h89zM236 146q91 -2 163 16.5t113 48.5t44 61q2 25 -20 42.5t-62 17.5
q-65 0 -136 -48.5t-134 -136.5zM453 749q45 -47 92 -92l-92 -93l-31 31l-62 62z" />
    <glyph glyph-name="uni0638.medi" unicode="&#x638;" horiz-adv-x="701" arabic-form="medial" 
d="M84 149q26 49 53 91q2 38 2 65q0 95 -11 220t-21 187l125 28q9 -59 16.5 -158t6.5 -202q103 92 205 92q57 0 103 -24.5t72 -68.5t26 -99q0 -73 -40 -132l80 1l8 -75l-8 -74q-101 0 -163 4.5t-101 19.5q-78 -24 -176 -24h-266v149h89zM236 146q91 -2 163 16.5t113 48.5
t44 61q2 25 -20 42.5t-62 17.5q-65 0 -136 -48.5t-134 -136.5zM453 749q45 -47 92 -92l-92 -93l-31 31l-62 62z" />
    <glyph glyph-name="uni0639.fina" unicode="&#x639;" horiz-adv-x="600" arabic-form="final" 
d="M604 149l8 -75l-8 -74h-20q-159 0 -282 84q-67 -31 -108.5 -64.5t-42.5 -72.5q-1 -5 -1 -15q0 -32 23 -60t66.5 -44.5t101.5 -16.5q65 0 113 13t78 27l55 -114q-43 -33 -110 -54t-136 -21q-83 0 -151.5 34t-108.5 93.5t-40 132.5q0 25 4 45q24 134 151 206
q-52 53 -116 137l5 99q45 44 112 67t139 23q86 0 151 -31t80 -87q4 -15 4 -32q0 -47 -31 -95t-86 -89q57 -16 130 -16h20zM322 231q127 56 132 106q-9 17 -38.5 26t-67.5 9q-36 0 -71.5 -8.5t-61.5 -25.5q54 -66 107 -107z" />
    <glyph glyph-name="uni0639.init" unicode="&#x639;" horiz-adv-x="535" arabic-form="initial" 
d="M-5 149h12q59 0 87 1q-28 48 -28 107t30 112t81.5 85t111.5 32q49 0 96 -21t87 -56l-48 -100q-64 28 -122 28q-16 0 -24 -1q-45 -4 -76 -28.5t-31 -52.5q0 -23 19.5 -44t52 -33.5t70.5 -12.5q95 13 163 37l28 -132q-174 -70 -497 -70h-12v149z" />
    <glyph glyph-name="uni0639.medi" unicode="&#x639;" horiz-adv-x="567" arabic-form="medial" 
d="M-5 149h27q68 0 133 10q-50 50 -110 127l4 99q45 45 112 68t139 23q62 0 115.5 -17t86 -50t32.5 -78q0 -41 -26 -85.5t-73 -87.5q48 -9 106 -9h31l8 -75l-8 -74h-31q-80 0 -142 14t-118 45q-128 -59 -259 -59h-27v149zM307 206q45 24 72.5 52.5t39.5 54.5
q-10 17 -39 26.5t-67 9.5q-36 0 -71.5 -9t-61.5 -26q62 -68 127 -108z" />
    <glyph glyph-name="uni063A.fina" unicode="&#x63a;" horiz-adv-x="600" arabic-form="final" 
d="M604 149l8 -75l-8 -74h-20q-159 0 -282 84q-67 -31 -108.5 -64.5t-42.5 -72.5q-1 -5 -1 -15q0 -32 23 -60t66.5 -44.5t101.5 -16.5q65 0 113 13t78 27l55 -114q-43 -33 -110 -54t-136 -21q-83 0 -151.5 34t-108.5 93.5t-40 132.5q0 25 4 45q24 134 151 206
q-52 53 -116 137l5 99q45 44 112 67t139 23q86 0 151 -31t80 -87q4 -15 4 -32q0 -47 -31 -95t-86 -89q57 -16 130 -16h20zM322 231q127 56 132 106q-9 17 -38.5 26t-67.5 9q-36 0 -71.5 -8.5t-61.5 -25.5q54 -66 107 -107zM324 725l31 -31q31 -30 61 -61l-92 -93l-92 93z
" />
    <glyph glyph-name="uni063A.init" unicode="&#x63a;" horiz-adv-x="534" arabic-form="initial" 
d="M-5 149h12q59 0 87 1q-28 48 -28 107t30 112t81.5 85t111.5 32q49 0 96 -21t87 -56l-48 -100q-64 28 -122 28q-16 0 -24 -1q-45 -4 -76 -28.5t-31 -52.5q0 -23 19.5 -44t52 -33.5t70.5 -12.5q95 13 163 37l28 -132q-174 -70 -497 -70h-12v149zM275 739q45 -47 92 -92
l-92 -93l-62 62l-31 31z" />
    <glyph glyph-name="uni063A.medi" unicode="&#x63a;" horiz-adv-x="567" arabic-form="medial" 
d="M-5 149h27q68 0 133 10q-50 50 -110 127l4 99q45 45 112 68t139 23q62 0 115.5 -17t86 -50t32.5 -78q0 -41 -26 -85.5t-73 -87.5q48 -9 106 -9h31l8 -75l-8 -74h-31q-80 0 -142 14t-118 45q-128 -59 -259 -59h-27v149zM307 206q45 24 72.5 52.5t39.5 54.5
q-10 17 -39 26.5t-67 9.5q-36 0 -71.5 -9t-61.5 -26q62 -68 127 -108zM261 686l31 31l92 -92l-92 -93l-92 93q31 30 61 61z" />
    <glyph glyph-name="uni0641.fina" unicode="&#x641;" horiz-adv-x="896" arabic-form="final" 
d="M434 -12h-9h-1q-174 1 -274 56t-109 152q-1 8 -1 24q0 43 12 93t29 89l96 -46q-29 -91 -26 -131q7 -38 81 -63t202 -25h3q28 0 74 2q-33 50 -33 103q0 8 2 26q9 59 36.5 107t68 76t86.5 28q51 0 90.5 -31.5t61 -81.5t21.5 -103q0 -21 -2 -32q-6 -41 -25 -82h84l8 -75
l-8 -74h-60q-92 0 -168 26q-94 -38 -236 -38h-3zM606 211.5q20 -23.5 56 -39.5q54 26 76 74l1 11q0 31 -20.5 57.5t-54.5 26.5q-31 0 -53.5 -25t-26.5 -57q2 -24 22 -47.5zM609 654q58 58 70 69l92 -92l-31 -31q-31 -30 -61 -61l-93 92z" />
    <glyph glyph-name="uni0641.init" unicode="&#x641;" horiz-adv-x="471" arabic-form="initial" 
d="M-5 149h15q119 0 189.5 11.5t104.5 41.5q-28 -2 -41 -2q-72 0 -127.5 25t-79.5 73q-18 39 -18 86q0 57 24 111t67 88.5t95 34.5q59 0 106 -46.5t73.5 -122.5t26.5 -161q0 -138 -103.5 -213t-318.5 -75h-13v149zM144 804q30 31 61 61q47 -45 92 -92q-30 -31 -61 -61
l-31 -31l-92 92zM199 349.5q39 -11.5 88 -11.5q13 0 39 2q-13 64 -44 107.5t-69 43.5q-31 0 -53 -27.5t-22 -57.5q0 -16 7 -26q15 -19 54 -30.5z" />
    <glyph glyph-name="uni0641.medi" unicode="&#x641;" horiz-adv-x="469" arabic-form="medial" 
d="M-6 149h24q43 0 62 1q-27 44 -27 93q0 9 2 25q9 59 37 107t68.5 76t85.5 28q52 0 92 -32t61 -82t21 -103q0 -11 -2 -31q-6 -43 -25 -82h84l8 -75l-8 -74h-60q-94 0 -176 29q-87 -29 -223 -29h-24v149zM244 723q45 -47 92 -92l-92 -93l-93 93zM180.5 213
q19.5 -23 54.5 -39q56 21 78 72l1 11q0 31 -20 57.5t-54 26.5q-31 0 -54 -25t-27 -57q2 -23 21.5 -46z" />
    <glyph glyph-name="uni0642.fina" unicode="&#x642;" horiz-adv-x="727" arabic-form="final" 
d="M192 -256.5q-71 35.5 -110.5 101.5t-39.5 155q0 18 1 28q3 57 23.5 119t45.5 114l96 -44q-27 -61 -40.5 -105.5t-13.5 -92.5q0 -81 52 -122t150 -41q89 0 151.5 39.5t76.5 104.5q-109 1 -178 22t-97 79q-18 39 -18 86q0 59 25 117t68.5 95.5t95.5 37.5q53 0 97 -40
t73.5 -106t39.5 -142h41l8 -75l-8 -74h-41q-13 -91 -59 -157t-117 -100.5t-158 -34.5q-93 0 -164 35.5zM390 674l84 -84l-84 -85q-42 43 -85 85zM460.5 157.5q46.5 -7.5 121.5 -8.5q-14 65 -44 110t-70 45q-20 0 -37.5 -14.5t-27.5 -36.5t-10 -42q0 -16 7 -26
q14 -20 60.5 -27.5zM566 674l84 -84l-84 -85q-42 43 -85 85z" />
    <glyph glyph-name="uni0642.init" unicode="&#x642;" horiz-adv-x="471" arabic-form="initial" 
d="M-5 149h15q119 0 189.5 11.5t104.5 41.5q-28 -2 -41 -2q-72 0 -127.5 25t-79.5 73q-18 39 -18 86q0 57 24 111t67 88.5t95 34.5q59 0 106 -46.5t73.5 -122.5t26.5 -161q0 -138 -103.5 -213t-318.5 -75h-13v149zM135 839l85 -84l-42 -42q-21 -22 -43 -43l-84 85z
M199 349.5q39 -11.5 88 -11.5q13 0 39 2q-13 64 -44 107.5t-69 43.5q-31 0 -53 -27.5t-22 -57.5q0 -16 7 -26q15 -19 54 -30.5zM311 839l85 -84l-42 -42q-21 -22 -43 -43l-84 85z" />
    <glyph glyph-name="uni0642.medi" unicode="&#x642;" horiz-adv-x="469" arabic-form="medial" 
d="M-6 149h24q43 0 62 1q-27 44 -27 93q0 9 2 25q9 59 37 107t68.5 76t85.5 28q52 0 92 -32t61 -82t21 -103q0 -11 -2 -31q-6 -43 -25 -82h84l8 -75l-8 -74h-60q-94 0 -176 29q-87 -29 -223 -29h-24v149zM157 704l85 -85l-85 -84l-84 84zM180.5 213q19.5 -23 54.5 -39
q56 21 78 72l1 11q0 31 -20 57.5t-54 26.5q-31 0 -54 -25t-27 -57q2 -23 21.5 -46zM333 704l85 -85l-85 -84l-84 84z" />
    <glyph glyph-name="uni0643.fina" unicode="&#x643;" horiz-adv-x="952" arabic-form="final" 
d="M849.5 28.5q-43.5 28.5 -91.5 88.5q-35 -62 -116 -95.5t-189 -33.5l-34 -1v1q-172 1 -270.5 56t-107.5 152q-1 8 -1 24q0 43 12 93t29 89l96 -46q-29 -91 -26 -131q7 -38 81 -63t202 -25v-1h19q82 0 139 18t76 43q-8 50 -58.5 116t-150.5 146l14 130l371 156l40 -119
l-289 -123q24 -20 61 -61t68 -88q53 -83 88.5 -126t65 -61t63.5 -18h16l8 -75l-8 -74h-16q-48 0 -91.5 28.5z" />
    <glyph glyph-name="uni0643.init" unicode="&#x643;" horiz-adv-x="461" arabic-form="initial" 
d="M-5 149h34q85 0 141 13.5t74 36.5q-8 48 -59 114t-150 146l14 130l371 156l40 -119l-289 -123q33 -28 75.5 -76.5t76 -109.5t33.5 -118q0 -17 -5 -39q-20 -81 -106 -120.5t-216 -39.5h-34v149z" />
    <glyph glyph-name="uni0643.medi" unicode="&#x643;" horiz-adv-x="526" arabic-form="medial" 
d="M423.5 28q-42.5 28 -90.5 88q-34 -59 -113.5 -87.5t-190.5 -28.5h-34v149h34q85 0 141 13.5t74 36.5q-8 48 -59 114t-150 146l14 130l371 156l40 -119l-289 -123q34 -29 78 -79t73 -106q45 -68 76 -104t58 -50.5t58 -14.5h17l8 -75l-8 -74h-17q-48 0 -90.5 28z" />
    <glyph glyph-name="uni0644.fina" unicode="&#x644;" horiz-adv-x="758" arabic-form="final" 
d="M646 36q-14 -140 -95.5 -218.5t-215.5 -78.5q-80 0 -147 32t-106.5 92.5t-39.5 140.5q0 58 21 129.5t48 129.5l97 -44q-27 -59 -40.5 -102.5t-13.5 -88.5q0 -62 50 -101t131 -39q102 0 154 52t49 157q-5 173 -18 346.5t-26 269.5l125 27q16 -122 25 -489h1
q3 -44 11.5 -65t30 -29t65.5 -8h11l8 -75l-8 -74h-11q-65 0 -106 36z" />
    <glyph glyph-name="uni0644.init" unicode="&#x644;" horiz-adv-x="284" arabic-form="initial" 
d="M-5 149h31q52 0 75.5 21t23.5 65q-1 69 -11.5 243.5t-18.5 234.5l125 27q7 -59 15.5 -242.5t8.5 -254.5q0 -68 -27.5 -123.5t-76.5 -87.5t-111 -32h-34v149z" />
    <glyph glyph-name="uni0644.medi" unicode="&#x644;" horiz-adv-x="302" arabic-form="medial" 
d="M223.5 20q-35.5 20 -62.5 55q-23 -35 -59.5 -55t-82.5 -20h-24v149h21q50 0 72.5 18.5t22.5 62.5v2q-3 71 -12 239t-16 240l125 28q8 -81 17 -367l6 -141q2 -44 18.5 -63t47.5 -19h10l8 -75l-8 -74h-10q-38 0 -73.5 20z" />
    <glyph glyph-name="uni0645.fina" unicode="&#x645;" horiz-adv-x="632" arabic-form="final" 
d="M39 44q0 50 1 72q2 57 36 93.5t86 36.5q8 0 24 -2q40 85 93 135t109 50q62 0 100.5 -40t65.5 -117q23 -69 39 -96t38 -27h6l8 -75l-8 -74h-6q-31 0 -57.5 16.5t-45.5 46.5q-7 -17 -19.5 -31.5t-27.5 -22.5q-23 -14 -52 -14q-38 0 -99 23.5t-160 75.5q-4 2 -6 2
q-7 0 -7 -9q-2 -119 23 -389q1 -20 3 -36t2 -26l-123 -28q-23 284 -23 436zM373 147q40 -16 65.5 -20t31.5 -2q1 6 1 19q0 31 -10 66.5t-30 60t-47 24.5q-22 0 -46 -25t-52 -76q47 -31 87 -47z" />
    <glyph glyph-name="uni0645.init" unicode="&#x645;" horiz-adv-x="562" arabic-form="initial" 
d="M-2 149h18q78 0 128 94q50 93 96 139.5t103 46.5q54 0 95 -34.5t62.5 -89t21.5 -114.5q0 -58 -22 -107.5t-64 -74.5q-22 -14 -54 -14q-77 0 -204 80q-62 -75 -164 -75h-19zM327 147.5q38 -16.5 58 -16.5q10 0 14 3q10 7 15.5 20.5t5.5 31.5q0 40 -22 74.5t-58 34.5
q-45 0 -98 -102q47 -29 85 -45.5z" />
    <glyph glyph-name="uni0645.medi" unicode="&#x645;" horiz-adv-x="593" arabic-form="medial" 
d="M-5 149h21q77 0 128 94q51 92 98 139t103 47q61 0 100 -40t65 -117q23 -70 38.5 -96.5t37.5 -26.5h12l8 -75l-8 -74h-12q-31 0 -57 16.5t-44 46.5q-7 -17 -20 -31t-29 -23q-21 -14 -54 -14q-76 0 -203 80q-31 -38 -73 -56.5t-92 -18.5h-19v149zM339.5 140
q47.5 -17 76.5 -17q9 0 12 1q1 5 1 17q0 31 -10.5 67t-31 61.5t-47.5 25.5q-45 0 -98 -102q50 -36 97.5 -53z" />
    <glyph glyph-name="uni0646.fina" unicode="&#x646;" horiz-adv-x="749" arabic-form="final" 
d="M692 13q-4 -84 -47 -153.5t-118 -110.5t-171 -41q-93 0 -164 35.5t-110.5 101.5t-39.5 155q0 18 1 28q3 57 23.5 119t45.5 114l96 -44q-26 -60 -40 -105.5t-14 -92.5q0 -82 52 -122.5t150 -40.5q70 0 122.5 24.5t80 64t27.5 83.5q0 57 -64 240l107 56q20 -56 32 -96
q16 -45 34 -62t52 -17h7l8 -75l-8 -74h-7q-29 0 -55 13zM377 413q31 -30 61 -61l31 -31l-92 -92l-93 92z" />
    <glyph glyph-name="uni0646.init" unicode="&#x646;" horiz-adv-x="336" arabic-form="initial" 
d="M-5 149h53q72 0 103.5 16t31.5 48q0 21 -21 82.5t-33 90.5l105 58q19 -42 39.5 -112.5t20.5 -123.5q0 -102 -63.5 -155t-182.5 -53h-53v149zM117 637l31 31l92 -92l-92 -93l-92 93q31 30 61 61z" />
    <glyph glyph-name="uni0646.medi" unicode="&#x646;" horiz-adv-x="335" arabic-form="medial" 
d="M-5 149h6q76 0 110.5 16t39.5 52q2 16 2 25q0 24 -5 55.5t-6 39.5l104 20q13 -74 13 -165q4 -17 22.5 -30t52.5 -13h6l8 -75l-8 -74h-6q-40 0 -74.5 19t-58.5 50q-29 -36 -78.5 -52.5t-121.5 -16.5h-6v149zM127 612l92 -92l-92 -93q-46 47 -93 93z" />
    <glyph glyph-name="uni0647.fina" unicode="&#x647;" horiz-adv-x="518" arabic-form="final" 
d="M422.5 16q-35.5 16 -59.5 50q-60 -18 -116 -18q-90 0 -147.5 43.5t-57.5 118.5q0 87 64 147t172 104l-7 60l116 25q23 -214 32 -282q6 -50 14.5 -74t25 -32.5t48.5 -8.5h17l8 -75l-8 -74h-17q-49 0 -84.5 16zM173.5 202q24.5 -15 65.5 -15q33 0 75 12q-3 15 -7 45l-12 87
q-57 -18 -99 -44.5t-44 -48.5q-3 -21 21.5 -36z" />
    <glyph glyph-name="uni0647.init" unicode="&#x647;" horiz-adv-x="673" arabic-form="initial" 
d="M-4 149h16q50 0 73 1q-30 44 -30 91q0 11 4 33q13 64 48 118q-13 3 -31 8l55 138q197 -60 308 -114.5t156 -107.5t45 -115q0 -38 -17 -94q-16 -52 -70 -78t-129 -26q-83 0 -161 27q-91 -30 -251 -30h-16v149zM251 173q83 27 83 83q0 25 -14 47.5t-37 33.5l-24 8
q-3 1 -10 1q-32 0 -59 -26t-27 -59q0 -48 88 -88zM440 132q36 0 59.5 8.5t29.5 25.5q3 8 3 14q0 46 -105 98q1 -21 -2 -48q-9 -56 -30 -95q24 -3 45 -3z" />
    <glyph glyph-name="uni0647.medi" unicode="&#x647;" horiz-adv-x="495" arabic-form="medial" 
d="M-4 149h69q22 189 112 331l80 23q70 -38 113.5 -110t43.5 -148q0 -50 -19 -94q31 -2 106 -2l8 -75l-8 -74q-29 0 -75 2q25 -50 25 -99q0 -68 -47 -106q-22 -18 -49.5 -27.5t-56.5 -9.5q-52 0 -101 27t-85.5 81t-47.5 131h-22h-46v150zM279 189.5q38 25.5 38 58.5
q0 26 -23.5 59.5t-56.5 50.5q-22 -31 -40 -86t-27 -117q71 9 109 34.5zM228 -70.5q36 -30.5 77 -30.5q19 0 36 7q3 4 3 14q0 25 -22 56.5t-68 55.5q-36 -14 -79 -21q17 -51 53 -81.5z" />
    <glyph glyph-name="uni0648.fina" unicode="&#x648;" horiz-adv-x="488" arabic-form="final" 
d="M246 -94.5q76 38.5 100 93.5q-110 2 -178 22.5t-95 78.5q-18 39 -18 86q0 59 25 117.5t69 96t96 37.5t96 -39t73.5 -105t39.5 -144h42l8 -75l-8 -74h-45q-25 -111 -121.5 -187t-250.5 -105l-46 129q137 30 213 68.5zM226 157.5q47 -7.5 122 -8.5q-14 66 -45 110.5
t-70 44.5q-20 0 -37.5 -14.5t-27.5 -36.5t-10 -42q0 -17 7 -27q14 -19 61 -26.5z" />
    <glyph glyph-name="uni0649.fina" unicode="&#x649;" horiz-adv-x="760" arabic-form="final" 
d="M186.5 -251.5q-73.5 37.5 -112.5 110t-32 173.5q6 98 68 232l97 -44q-26 -59 -40 -104t-14 -92q0 -83 52 -123.5t150 -40.5q54 0 102.5 12t83 30t47.5 36q-18 17 -76 48.5t-120 54.5l31 140q164 -32 289 -32h53l8 -75l-8 -74h-53q-19 0 -57 2q37 -37 37 -71
q0 -50 -45 -101.5t-122.5 -85t-169.5 -33.5q-95 0 -168.5 37.5z" />
    <glyph glyph-name="uni064A.fina" unicode="&#x64a;" horiz-adv-x="760" arabic-form="final" 
d="M186.5 -251.5q-73.5 37.5 -112.5 110t-32 173.5q6 98 68 232l97 -44q-26 -59 -40 -104t-14 -92q0 -83 52 -123.5t150 -40.5q54 0 102.5 12t83 30t47.5 36q-18 17 -76 48.5t-120 54.5l31 140q164 -32 289 -32h53l8 -75l-8 -74h-53q-19 0 -57 2q37 -37 37 -71
q0 -50 -45 -101.5t-122.5 -85t-169.5 -33.5q-95 0 -168.5 37.5z" />
    <glyph glyph-name="uni064A.init" unicode="&#x64a;" horiz-adv-x="376" arabic-form="initial" 
d="M-5 149h48q99 0 140 17t41 52q-1 22 -23 84.5t-32 83.5l106 58q20 -42 40 -111.5t20 -121.5q-1 -102 -69 -156.5t-201 -54.5h-70v149zM5 -85l28 -28l57 -57l-85 -84l-84 84zM181 -85l28 -28l57 -57l-85 -84l-84 84z" />
    <glyph glyph-name="uni064A.medi" unicode="&#x64a;" horiz-adv-x="390" arabic-form="medial" 
d="M-5 149h7q90 0 134 9.5t58 28.5t14 55q0 29 -10 95l103 20q14 -73 14 -165q4 -17 22 -30t52 -13h6l8 -75l-8 -74h-6q-40 0 -74 19t-58 50q-29 -37 -88 -53t-167 -16h-7v149zM-6 -84l28 -28l57 -57l-85 -84l-84 84zM170 -84l28 -28l57 -57l-85 -84l-84 84z" />
    <glyph glyph-name=".notdef" horiz-adv-x="255" 
d="M38 429h179v-433h-179v433zM208 4v417h-161v-417h161z" />
    <glyph glyph-name=".null" 
 />
    <glyph glyph-name="nonmarkingreturn" unicode="&#xd;" horiz-adv-x="255" 
 />
    <glyph glyph-name="space" unicode=" " horiz-adv-x="204" 
 />
    <glyph glyph-name="exclam" unicode="!" horiz-adv-x="298" 
d="M205 233h-109l-16 496h140zM91 129.5q24 23.5 60 23.5q35 0 59.5 -24t24.5 -58q0 -36 -24.5 -60.5t-59.5 -24.5q-36 0 -60 24.5t-24 60.5q0 35 24 58.5z" />
    <glyph glyph-name="quotedbl" unicode="&#x22;" horiz-adv-x="339" 
d="M329 681l-14 -193h-85v262h99v-69zM56 683v67h99v-69l-14 -193h-86z" />
    <glyph glyph-name="numbersign" unicode="#" horiz-adv-x="595" 
d="M329 200h-99l-35 -200h-87l36 200h-112v81h126l26 146h-115v81h129l36 203h86l-36 -203h99l36 203h86l-36 -203h108v-81h-122l-26 -146h111v-81h-125l-35 -200h-87zM342 281l27 146h-99l-26 -146h98z" />
    <glyph glyph-name="dollar" unicode="$" horiz-adv-x="572" 
d="M358 259q-17 15 -36 24t-54 23q-53 20 -83 38q-57 31 -85 74t-28 105q0 81 52 134t141 63v104h75v-106q87 -12 136 -71.5t49 -155.5h-135q0 58 -25 91t-69 33q-43 0 -66 -24t-23 -67q0 -44 29 -70q16 -14 38.5 -25.5t58.5 -25.5q36 -13 69 -30q61 -32 92 -76.5t31 -109.5
q0 -83 -51.5 -135t-142.5 -60v-96h-75v96q-100 10 -155 69.5t-55 158.5h135q0 -60 28.5 -92t82.5 -32q46 0 72 24.5t26 65.5q0 47 -32 73z" />
    <glyph glyph-name="percent" unicode="%" horiz-adv-x="738" 
d="M89 680q42 41 111 41q70 0 111.5 -40.5t41.5 -108.5v-35q0 -65 -42 -105.5t-110 -40.5q-70 0 -112 40.5t-42 108.5v34q0 65 42 106zM155 486.5q17 -19.5 46 -19.5t45 19.5t16 56.5v31q0 31 -16.5 50.5t-45.5 19.5q-28 0 -45 -19.5t-17 -51.5v-36q0 -31 17 -50.5zM509 645
l66 -36l-347 -556l-66 37zM388 174q0 66 42 106.5t111 40.5q70 0 112 -40.5t42 -109.5v-34q0 -66 -42 -106.5t-111 -40.5t-111.5 40.5t-42.5 108.5v35zM496 87q18 -20 46 -20t44 16.5t18 46.5v44q0 32 -17 51t-46 19q-28 0 -45 -19t-18 -50v-38q0 -30 18 -50z" />
    <glyph glyph-name="ampersand" unicode="&#x26;" horiz-adv-x="653" 
d="M113 464q-16 36 -16 73q0 84 52.5 134t139.5 50q51 0 92 -21.5t64 -58.5t23 -83q0 -45 -24 -83.5t-75 -75.5l-43 -31l129 -150q30 57 30 126h115q0 -135 -64 -220l106 -124h-154l-39 45q-77 -55 -181 -55q-70 0 -122.5 25t-81 70.5t-28.5 105.5q0 51 28 92.5t102 95.5
q-37 49 -53 85zM199.5 124.5q28.5 -28.5 74.5 -28.5q55 0 102 34l-146 170q-31 -27 -45 -51.5t-14 -50.5q0 -45 28.5 -73.5zM264 442l42 29q27 18 38 36t11 44q0 27 -19 45.5t-47 18.5q-32 0 -51.5 -21t-19.5 -55q0 -37 46 -97z" />
    <glyph glyph-name="quotesingle" unicode="'" horiz-adv-x="188" 
d="M144 681l-14 -193h-86v262h100v-69z" />
    <glyph glyph-name="parenleft" unicode="(" horiz-adv-x="425" 
d="M223.5 545q-66.5 -112 -66.5 -265q0 -157 65.5 -266t156.5 -188l-74 -89q-118 91 -195.5 228.5t-77.5 314.5q0 179 77 315.5t196 228.5l74 -89q-89 -78 -155.5 -190z" />
    <glyph glyph-name="parenright" unicode=")" horiz-adv-x="425" 
d="M316 595.5q77 -136.5 77 -315.5q0 -177 -77.5 -314.5t-195.5 -228.5l-74 89q91 79 156.5 188t65.5 266q0 153 -66.5 265t-155.5 190l74 89q119 -92 196 -228.5z" />
    <glyph glyph-name="asterisk" unicode="*" horiz-adv-x="451" 
d="M168 472l-155 44l28 85l153 -60l-10 170h93l-9 -173l148 58l29 -85l-157 -44l103 -131l-75 -53l-90 142l-89 -137l-75 50z" />
    <glyph glyph-name="plus" unicode="+" horiz-adv-x="547" 
d="M337 394h178v-118h-178v-205h-129v205h-180v118h180v195h129v-195z" />
    <glyph glyph-name="comma" unicode="," horiz-adv-x="273" 
d="M63.5 -62q12.5 38 13.5 73v121h131v-105q-1 -59 -31 -120.5t-76 -100.5l-80 42q30 52 42.5 90z" />
    <glyph glyph-name="hyphen" unicode="-" horiz-adv-x="380" 
d="M323 252h-271v106h271v-106z" />
    <glyph glyph-name="period" unicode="." horiz-adv-x="344" 
d="M108.5 26q-25.5 26 -25.5 64t25.5 63t63.5 25t63.5 -25.5t25.5 -62.5q0 -38 -25.5 -64t-63.5 -26t-63.5 26z" />
    <glyph glyph-name="slash" unicode="/" horiz-adv-x="375" 
d="M98 -61h-104l264 772h104z" />
    <glyph glyph-name="zero" unicode="0" horiz-adv-x="478" 
d="M142 53q-40 24 -64 64t-24 87t24 87.5t64 64t87 23.5q48 0 88.5 -23.5t64.5 -63.5t24 -88q0 -47 -24 -87t-64.5 -64t-88.5 -24q-47 0 -87 24zM184.5 157q18.5 -19 44.5 -19q27 0 45.5 19t18.5 47t-18.5 46.5t-45.5 18.5q-26 0 -44.5 -19t-18.5 -46q0 -28 18.5 -47z" />
    <glyph glyph-name="one" unicode="1" horiz-adv-x="348" 
d="M142 80q0 161 -17 291q-22 163 -75 285l111 67q62 -126 85 -333q12 -120 12 -267q0 -41 -2 -123h-115q1 27 1 80z" />
    <glyph glyph-name="two" unicode="2" horiz-adv-x="552" 
d="M139 80q0 161 -17 291q-22 166 -74 285l111 67q17 -35 33 -82q16 -42 29.5 -65t35.5 -36.5t58 -13.5q96 0 96 125q0 23 -3 50l105 21q9 -43 9 -87q0 -70 -23 -128.5t-69.5 -94t-112.5 -35.5q-39 0 -74 16v-3q12 -113 12 -282q0 -72 -1 -108h-116q1 27 1 80z" />
    <glyph glyph-name="three" unicode="3" horiz-adv-x="709" 
d="M489 567q15 -35 43 -35q18 0 28.5 19t10.5 55t-12 87l102 34q18 -66 18 -127q0 -93 -39.5 -152.5t-106.5 -59.5q-65 0 -110 71q-21 -39 -51 -60.5t-66 -21.5q-34 0 -63 12q12 -113 12 -282q0 -72 -1 -107h-116q1 27 1 80q0 161 -17 291q-22 166 -74 285l111 67
q20 -40 33 -83q25 -62 46.5 -88.5t57.5 -26.5q31 0 51 28t20 82q0 16 -1 25v4l100 17q8 -79 23 -114z" />
    <glyph glyph-name="four" unicode="4" horiz-adv-x="686" 
d="M142 80q0 161 -17 291q-22 163 -75 285l111 67q28 -57 48 -130q13 -39 31 -69q7 53 38 99t78.5 73t101.5 27q90 0 185 -77l-50 -102q-69 29 -122 29q-54 0 -89.5 -23.5t-35.5 -60.5q0 -31 34.5 -54t92.5 -23q68 0 154 36l31 -131q-44 -23 -97.5 -36.5t-108.5 -13.5
q-116 0 -201 63q7 -88 7 -202q0 -42 -2 -128h-115q1 27 1 80z" />
    <glyph glyph-name="five" unicode="5" horiz-adv-x="642" 
d="M92.5 419.5q43.5 89.5 105.5 168.5q-22 14 -33 20l73 127q158 -111 262 -242t104 -287q0 -65 -20 -113.5t-56 -75t-82 -26.5q-33 0 -64 15.5t-54 49.5q-39 -65 -119 -65q-78 0 -124.5 60t-46.5 157q0 12 2 40q9 82 52.5 171.5zM147 226q0 -42 18 -64t50 -22q35 0 50 34.5
t15 68.5l90 15q3 -43 16.5 -80.5t47.5 -37.5q64 0 64 87q0 75 -56 150.5t-150 146.5q-123 -137 -142 -265q-3 -18 -3 -33z" />
    <glyph glyph-name="six" unicode="6" horiz-adv-x="570" 
d="M200 293q-52 27 -81.5 79.5t-29.5 112.5q0 52 22.5 102.5t68.5 87.5t112 47q16 2 25 2q42 0 86 -17t70 -38l-49 -102q-40 17 -84 17q-22 0 -34 -2q-50 -6 -79.5 -35.5t-28.5 -61.5q0 -23 27.5 -41.5t71.5 -18.5q50 0 105 26q53 30 103 50l26 -147q-117 -44 -225 -141.5
t-165 -237.5l-102 50q50 151 161 268z" />
    <glyph glyph-name="seven" unicode="7" horiz-adv-x="644" 
d="M532.5 463q-50.5 -109 -94.5 -234t-62 -234h-108q-13 108 -56.5 233t-96 233.5t-94.5 175.5l105 77q48 -75 101.5 -202t95.5 -268q41 143 94 269.5t101 200.5l105 -77q-40 -65 -90.5 -174z" />
    <glyph glyph-name="eight" unicode="8" horiz-adv-x="644" 
d="M111.5 229q50.5 109 94.5 235t62 234h108q13 -108 56.5 -233t96 -233.5t94.5 -174.5l-105 -78q-49 77 -103 204t-94 268q-41 -143 -94 -270t-101 -202l-105 78q40 63 90.5 172z" />
    <glyph glyph-name="nine" unicode="9" horiz-adv-x="542" 
d="M342.5 103.5q-15.5 88.5 -24.5 191.5q-46 -12 -95 -12q-86 0 -135 51.5t-49 144.5q0 56 24.5 113t67 94.5t93.5 37.5q74 0 114.5 -53.5t53.5 -112t26 -149.5l5 -38q17 -124 31 -206t33 -128l-110 -68q-19 46 -34.5 134.5zM165 447q20 -16 63 -16q46 0 79 13
q-7 59 -29 100.5t-59 41.5q-31 0 -52.5 -29.5t-21.5 -67.5q0 -26 20 -42z" />
    <glyph glyph-name="colon" unicode=":" horiz-adv-x="297" 
d="M85 329q-25 26 -25 64t25 63t63 25t64 -25.5t26 -62.5q0 -38 -26 -64t-64 -26t-63 26zM85 147q25 25 63 25t64 -25t26 -62q0 -38 -26 -64t-64 -26t-63 26t-25 64q0 37 25 62z" />
    <glyph glyph-name="semicolon" unicode=";" horiz-adv-x="332" 
d="M97 -61.5q13 38.5 14 72.5v121h130v-105q-1 -60 -30.5 -121.5t-75.5 -99.5l-80 42q29 52 42 90.5zM113.5 450q25.5 25 63.5 25t64 -25t26 -62q0 -38 -26 -64.5t-64 -26.5t-63.5 26.5t-25.5 64.5q0 37 25.5 62z" />
    <glyph glyph-name="less" unicode="&#x3c;" horiz-adv-x="509" 
d="M164 304l282 -103v-128l-419 179v107l419 179v-128z" />
    <glyph glyph-name="equal" unicode="=" horiz-adv-x="571" 
d="M501 371h-434v107h434v-107zM67 268h434v-107h-434v107z" />
    <glyph glyph-name="greater" unicode="&#x3e;" horiz-adv-x="517" 
d="M347 306l-289 105v127l425 -179v-107l-425 -179v127z" />
    <glyph glyph-name="question" unicode="?" horiz-adv-x="494" 
d="M185.5 315.5q14.5 38.5 50.5 72.5q43 41 54 54q33 38 33 79q0 43 -20 65.5t-60 22.5q-38 0 -60.5 -23.5t-23.5 -63.5h-135q1 91 59 143t160 52t158.5 -50t56.5 -141q0 -41 -17.5 -78t-54.5 -74q-19 -17 -55 -53q-21 -21 -30 -46.5t-10 -63.5h-121q1 66 15.5 104.5z
M174.5 119q23.5 23 58.5 23t58.5 -23t23.5 -57q0 -35 -23.5 -59t-58.5 -24t-58.5 24t-23.5 59q0 34 23.5 57z" />
    <glyph glyph-name="at" unicode="@" horiz-adv-x="904" 
d="M97 450q53 109 150.5 177.5t224.5 68.5q122 0 209.5 -52.5t132 -151t40.5 -233.5q-2 -79 -29 -139.5t-74 -94.5t-107 -35q-89 0 -119 66q-51 -65 -129 -65q-58 0 -99.5 42t-41.5 139q0 11 2 37q6 68 35 131t78.5 103t111.5 40q60 0 99 -19.5t52 -34.5l-24 -254
q-3 -25 -3 -45q0 -42 12.5 -54t41.5 -12q51 0 80.5 56t29.5 158q0 164 -76 251t-223 87q-100 0 -176.5 -56t-117.5 -148.5t-41 -198.5q0 -171 76 -262.5t232 -91.5q37 0 84 9.5t73 24.5l18 -71q-34 -20 -83 -31.5t-97 -11.5q-202 0 -298.5 122t-96.5 323q0 117 53 226z
M360 174q0 -57 17.5 -78.5t53.5 -21.5q25 0 43.5 19t36.5 61q1 3 1 8l21 232q-19 10 -48 9q-51 0 -83.5 -53t-40.5 -141q-1 -13 -1 -35z" />
    <glyph glyph-name="A" unicode="A" horiz-adv-x="669" 
d="M465 154h-260l-52 -154h-148l264 711h130l266 -711h-148zM429 264l-95 281l-93 -281h188z" />
    <glyph glyph-name="B" unicode="B" horiz-adv-x="636" 
d="M66 0v711h245q129 0 195 -49.5t66 -144.5q0 -53 -26.5 -92t-75.5 -58q57 -15 88 -57t31 -102q0 -101 -64.5 -154t-187.5 -54h-271zM335 110q54 0 84 26t30 73q0 105 -109 105h-135v-204h130zM316 412q58 0 87 24t29 69q0 51 -29 73.5t-92 22.5h-106v-189h111z" />
    <glyph glyph-name="C" unicode="C" horiz-adv-x="654" 
d="M587 122.5q-28 -55.5 -90.5 -94t-161.5 -38.5q-89 0 -154.5 41t-101 118t-35.5 183v49q0 70 25.5 147.5t91 135t176.5 57.5q123 0 197.5 -66t85.5 -183h-140q-5 72 -40 105t-103 33q-75 0 -113 -56t-38 -167v-58q0 -115 36.5 -171t112.5 -56q68 0 103 31t41 102h140
q-4 -57 -32 -112.5z" />
    <glyph glyph-name="D" unicode="D" horiz-adv-x="650" 
d="M66 0v711h217q95 0 168 -42.5t114 -119t41 -174.5v-37q0 -99 -40 -175.5t-113 -119.5t-169 -43h-218zM281 110q88 0 135.5 58.5t47.5 169.5v35q0 111 -46.5 169t-133.5 59h-79v-491h76z" />
    <glyph glyph-name="E" unicode="E" horiz-adv-x="563" 
d="M491 312h-286v-202h334v-110h-473v711h472v-110h-333v-182h286v-107z" />
    <glyph glyph-name="F" unicode="F" horiz-adv-x="549" 
d="M491 295h-286v-295h-139v711h461v-110h-322v-196h286v-110z" />
    <glyph glyph-name="G" unicode="G" horiz-adv-x="682" 
d="M514.5 16.5q-71.5 -26.5 -160.5 -26.5q-91 0 -159.5 39.5t-106.5 113.5t-39 173l-1 62q-1 98 32.5 176t100.5 122.5t163 44.5q124 0 195 -59t85 -174h-136q-11 64 -45 93.5t-95 29.5q-76 0 -117 -59.5t-41 -170.5v-49q0 -112 43.5 -172t127.5 -60q85 0 123 38v130h-137
v102h277v-280q-38 -47 -109.5 -73.5z" />
    <glyph glyph-name="H" unicode="H" horiz-adv-x="707" 
d="M640 0h-139v310h-296v-310h-139v711h139v-292h296v292h139v-711z" />
    <glyph glyph-name="I" unicode="I" horiz-adv-x="290" 
d="M215 0h-140v711h140v-711z" />
    <glyph glyph-name="J" unicode="J" horiz-adv-x="558" 
d="M354 711h141v-494q0 -66 -29.5 -117.5t-83 -80.5t-124.5 -29q-113 0 -175 57t-62 160h140q0 -107 97 -107q45 0 70.5 31t25.5 85v495z" />
    <glyph glyph-name="K" unicode="K" horiz-adv-x="635" 
d="M282 291l-77 -82v-209h-139v711h139v-329l65 86l190 243h172l-256 -315l265 -396h-167z" />
    <glyph glyph-name="L" unicode="L" horiz-adv-x="540" 
d="M206 110h313v-110h-453v711h140v-601z" />
    <glyph glyph-name="M" unicode="M" horiz-adv-x="875" 
d="M249 711l188 -529l188 529h184v-711h-141v210l14 324l-197 -534h-96l-197 533l13 -323v-210h-139v711h183z" />
    <glyph glyph-name="N" unicode="N" horiz-adv-x="706" 
d="M640 0h-140l-294 484v-484h-140v711h140l295 -485v485h139v-711z" />
    <glyph glyph-name="O" unicode="O" horiz-adv-x="689" 
d="M608 154.5q-37 -78.5 -105 -121.5t-158 -43q-88 0 -156.5 42.5t-106.5 119t-38 176.5v45q0 102 36 181t104 123t160 44q90 0 158.5 -42.5t105.5 -121t37 -182.5v-37q0 -105 -37 -183.5zM226.5 163.5q41.5 -61.5 118.5 -61.5q76 0 116.5 59.5t41.5 171.5v41q0 114 -41 174
t-118 60q-75 0 -116.5 -56.5t-42.5 -161.5v-52q0 -113 41.5 -174.5z" />
    <glyph glyph-name="P" unicode="P" horiz-adv-x="643" 
d="M205 256v-256h-139v711h274q80 0 140.5 -29.5t92.5 -82t32 -119.5q0 -105 -70.5 -164.5t-196.5 -59.5h-133zM340 366q60 0 91.5 29t31.5 84t-32 88t-88 34h-138v-235h135z" />
    <glyph glyph-name="Q" unicode="Q" horiz-adv-x="689" 
d="M612 164.5q-32 -74.5 -91 -118.5l119 -94l-89 -78l-151 121q-32 -5 -56 -5q-88 0 -156.5 42.5t-107 119.5t-38.5 178v43q0 105 37.5 183.5t106 121.5t157.5 43q90 0 158 -43t105.5 -121.5t37.5 -180.5v-38q0 -99 -32 -173.5zM225 163.5q41 -61.5 119 -61.5
q76 0 116.5 59.5t41.5 171.5v41q0 114 -41 174t-118 60q-76 0 -117 -59.5t-42 -170.5v-40q0 -113 41 -174.5z" />
    <glyph glyph-name="R" unicode="R" horiz-adv-x="638" 
d="M328 266h-123v-266h-140v711h262q125 0 193.5 -55.5t68.5 -159.5q0 -70 -33 -119.5t-96 -76.5l155 -293v-7h-150zM328 375q56 0 88 30t32 82q0 54 -31 83.5t-89 30.5h-123v-226h123z" />
    <glyph glyph-name="S" unicode="S" horiz-adv-x="617" 
d="M430 228q-9 18 -29 31q-20 14 -46 24.5t-65 22.5q-69 23 -99 38q-132 65 -132 180q0 60 35 105t94.5 69t131.5 24q74 0 133.5 -27.5t93 -77.5t33.5 -114h-141q0 52 -32 81t-90 29q-54 0 -86 -24t-32 -65q0 -39 41 -65q20 -14 42.5 -23t67.5 -24q6 -2 44.5 -15t72.5 -32
q113 -64 113 -178q0 -91 -69 -143.5t-188 -52.5q-75 0 -140.5 26t-105.5 78t-40 126h141q0 -60 37 -91t108 -31q55 0 85.5 23t30.5 64q0 24 -9 42z" />
    <glyph glyph-name="T" unicode="T" horiz-adv-x="617" 
d="M597 601h-220v-601h-140v601h-217v110h577v-110z" />
    <glyph glyph-name="U" unicode="U" horiz-adv-x="658" 
d="M600 711v-476q0 -110 -71 -175.5t-200 -69.5q-82 0 -143.5 29.5t-94.5 84.5t-33 130v477h141v-476q0 -66 33.5 -100.5t96.5 -34.5q64 0 97.5 34.5t33.5 100.5v476h140z" />
    <glyph glyph-name="V" unicode="V" horiz-adv-x="651" 
d="M310 216l15 -50l15 51l151 494h156l-249 -711h-146l-247 711h154z" />
    <glyph glyph-name="W" unicode="W" horiz-adv-x="876" 
d="M605 280l16 -69l12 73l87 427h140l-160 -711h-141l-104 401l-16 71l-15 -71l-106 -401h-140l-160 711h140l87 -428l12 -72l16 69l107 431h119z" />
    <glyph glyph-name="X" unicode="X" horiz-adv-x="634" 
d="M317 460l138 251h162l-209 -353l214 -358h-164l-141 255l-142 -255h-163l215 358l-210 353h162z" />
    <glyph glyph-name="Y" unicode="Y" horiz-adv-x="617" 
d="M308 383l153 328h153l-235 -452v-259h-142v259l-235 452h154z" />
    <glyph glyph-name="Z" unicode="Z" horiz-adv-x="606" 
d="M209 110h367v-110h-540v82l359 519h-358v110h530v-80z" />
    <glyph glyph-name="bracketleft" unicode="[" horiz-adv-x="275" 
d="M267 723h-71v-785h71v-101h-207v988h207v-102z" />
    <glyph glyph-name="backslash" unicode="\" horiz-adv-x="375" 
d="M117 711l265 -772h-105l-264 772h104z" />
    <glyph glyph-name="bracketright" unicode="]" horiz-adv-x="275" 
d="M6 825h207v-988h-207v101h73v785h-73v102z" />
    <glyph glyph-name="asciicircum" unicode="^" horiz-adv-x="435" 
d="M246 514l-18 94l-97 -252h-108l146 355h98l146 -355h-108z" />
    <glyph glyph-name="underscore" unicode="_" horiz-adv-x="445" 
d="M444 -103h-443v103h443v-103z" />
    <glyph glyph-name="a" unicode="a" horiz-adv-x="536" 
d="M350 51q-52 -61 -137 -61q-50 0 -91 20.5t-64.5 57t-23.5 80.5q0 84 63.5 129t181.5 45h66v33q0 41 -21 63t-62 22q-37 0 -59 -18.5t-22 -49.5h-134q0 46 28.5 84t79 60t114.5 22q97 0 153 -47.5t58 -131.5v-237q0 -72 20 -114v-8h-136q-8 18 -14 51zM190 110
q20 -18 53 -18t61 16.5t41 40.5v94h-57q-118 0 -118 -85q0 -30 20 -48z" />
    <glyph glyph-name="b" unicode="b" horiz-adv-x="562" 
d="M474 61.5q-55 -71.5 -150 -71.5q-89 0 -140 67l-7 -57h-122v750h136v-270q49 58 131 58q97 0 152 -71.5t55 -199.5v-8q0 -126 -55 -197.5zM289 97q55 0 79.5 42.5t24.5 130.5q0 161 -105 161q-31 0 -57 -15.5t-40 -42.5v-218q28 -58 98 -58z" />
    <glyph glyph-name="c" unicode="c" horiz-adv-x="521" 
d="M340 119.5q26 23.5 27 60.5h127q-1 -52 -29 -95.5t-77.5 -69t-111.5 -25.5q-113 0 -178 72.5t-65 198.5v11q0 77 28 137t82.5 94.5t131.5 34.5q98 0 157.5 -55.5t61.5 -148.5h-127q-1 45 -27 71.5t-67 26.5q-104 0 -105 -160v-16q-1 -82 25.5 -121t80.5 -39q40 0 66 23.5
z" />
    <glyph glyph-name="d" unicode="d" horiz-adv-x="563" 
d="M58.5 411q25.5 61 72.5 94t110 33q79 0 130 -59v271h135v-750h-122l-7 57q-51 -67 -137 -67q-62 0 -109 33.5t-72.5 96.5t-25.5 148q0 82 25.5 143zM196 138.5q27 -41.5 78 -41.5q67 0 97 58v218q-30 58 -96 58q-49 0 -76.5 -38.5t-29.5 -110.5v-24q0 -78 27 -119.5z" />
    <glyph glyph-name="e" unicode="e" horiz-adv-x="538" 
d="M160 22.5q-59 32.5 -91.5 91.5t-32.5 137v14q0 78 29.5 140t85 97.5t130.5 35.5q108 0 169.5 -69t61.5 -193v-54h-339v-2q6 -56 41.5 -90t90.5 -34q81 0 129 61l67 -70q-32 -46 -85.5 -71.5t-119.5 -25.5q-77 0 -136 32.5zM379 314v10q-2 52 -27.5 80t-71.5 28
q-43 0 -71 -30.5t-35 -87.5h205z" />
    <glyph glyph-name="f" unicode="f" horiz-adv-x="356" 
d="M95 0v432h-80v96h80v47q0 88 50 136.5t141 48.5q34 0 71 -9l-2 -102q-16 4 -44 4q-40 0 -60.5 -20t-20.5 -58v-47h107v-96h-107v-432h-135z" />
    <glyph glyph-name="g" unicode="g" horiz-adv-x="569" 
d="M62 412.5q27 60.5 75 93t111 32.5q89 0 138 -61l5 51h123v-511q0 -47 -23 -98.5t-79 -89t-149 -37.5q-58 0 -112.5 23t-83.5 61l61 80q49 -61 129 -61q59 0 90 31.5t31 91.5v28q-50 -56 -131 -56q-63 0 -111 34t-74.5 96t-26.5 145v6q0 81 27 141.5zM199.5 140
q29.5 -43 82.5 -43q66 0 96 53v229q-31 52 -95 52q-54 0 -83.5 -44t-29.5 -129q0 -75 29.5 -118z" />
    <glyph glyph-name="h" unicode="h" horiz-adv-x="559" 
d="M331 538q86 0 129.5 -50t44.5 -149v-339h-135v338q-1 48 -21.5 70.5t-65.5 22.5q-32 0 -56.5 -14t-38.5 -39v-378h-136v750h136v-281q56 69 143 69z" />
    <glyph glyph-name="i" unicode="i" horiz-adv-x="262" 
d="M199 0h-136v528h136v-528zM75.5 715.5q20.5 19.5 55.5 19.5q34 0 55 -19.5t21 -49.5t-21 -49.5t-55 -19.5q-35 0 -55.5 19.5t-20.5 49.5t20.5 49.5z" />
    <glyph glyph-name="j" unicode="j" horiz-adv-x="258" 
d="M199 528v-563q0 -87 -46 -132.5t-131 -45.5q-34 0 -69 8v104q21 -4 45 -4q33 0 49 17t16 53v563h136zM73 715.5q21 19.5 56 19.5q34 0 55 -19.5t21 -49.5t-21 -49.5t-56 -19.5q-34 0 -55 19.5t-21 49.5t21 49.5z" />
    <glyph glyph-name="k" unicode="k" horiz-adv-x="531" 
d="M241 216l-50 -52v-164h-135v750h135v-420l30 36l140 162h162l-194 -218l211 -310h-156z" />
    <glyph glyph-name="l" unicode="l" horiz-adv-x="262" 
d="M199 0h-136v750h136v-750z" />
    <glyph glyph-name="m" unicode="m" horiz-adv-x="867" 
d="M182 528l5 -60q55 70 153 70q104 0 141 -82q57 82 161 82q83 0 125.5 -47.5t43.5 -142.5v-348h-135v339q0 48 -18.5 70t-64.5 22q-33 0 -55 -16q-28 -18 -38 -54l1 -7v-354h-135v338q0 48 -19.5 70.5t-64.5 22.5q-31 0 -54 -13q-24 -16 -38 -43v-375h-135v528h127z" />
    <glyph glyph-name="n" unicode="n" horiz-adv-x="559" 
d="M180 528l5 -64q56 74 153 74q165 0 167 -194v-344h-135v340q-1 48 -20.5 69.5t-66.5 21.5q-32 0 -56.5 -15t-38.5 -42v-374h-135v528h127z" />
    <glyph glyph-name="o" unicode="o" horiz-adv-x="565" 
d="M60 404q29 61 85.5 97.5t136.5 36.5q75 0 131.5 -33.5t87 -95t30.5 -144.5v-6q0 -81 -31 -142t-87 -94t-130 -33q-73 0 -129 32t-87.5 90.5t-33.5 137.5v19q-2 74 27 135zM198 138q30 -42 85 -42q54 0 83.5 41t30.5 118v14q0 77 -30 120t-85 43q-52 0 -81.5 -39
t-32.5 -113v-21q0 -79 30 -121z" />
    <glyph glyph-name="p" unicode="p" horiz-adv-x="562" 
d="M503 117.5q-25 -60.5 -71.5 -94t-108.5 -33.5q-82 0 -132 56v-249h-136v731h126l5 -53q50 63 136 63q96 0 151 -71.5t55 -198.5v-9q0 -81 -25 -141.5zM288 96q49 0 76.5 40.5t28.5 119.5v14q0 78 -27.5 119.5t-78.5 41.5q-69 0 -96 -54v-226q28 -55 97 -55z" />
    <glyph glyph-name="q" unicode="q" horiz-adv-x="564" 
d="M89 466.5q56 71.5 152 71.5q87 0 138 -65l8 55h119v-731h-136v249q-50 -56 -130 -56q-62 0 -108.5 32.5t-72.5 93.5t-26 144v10q0 125 56 196.5zM196.5 138q27.5 -42 77.5 -42q68 0 96 54v229q-29 53 -95 53q-49 0 -76.5 -38.5t-29.5 -113.5v-21q0 -79 27.5 -121z" />
    <glyph glyph-name="r" unicode="r" horiz-adv-x="363" 
d="M299 410q-82 0 -108 -60v-350h-136v528h129l3 -65q44 75 120 75q26 0 44 -6l-2 -126q-14 4 -50 4z" />
    <glyph glyph-name="s" unicode="s" horiz-adv-x="514" 
d="M317.5 189q-26.5 16 -85.5 29q-93 20 -139.5 59t-46.5 99q0 46 26.5 83t74 58t108.5 21q65 0 114.5 -21.5t77 -59.5t27.5 -88h-135q0 34 -23 54.5t-62 20.5q-35 0 -57 -17.5t-22 -44.5q0 -29 29.5 -43t83.5 -27q28 -6 39 -10q75 -21 111.5 -57.5t36.5 -94.5
q0 -47 -28 -83.5t-77.5 -56.5t-113.5 -20q-62 0 -114 23t-82.5 63.5t-30.5 90.5h128q1 -40 28.5 -61t72.5 -21q41 0 63.5 16.5t22.5 43.5q0 28 -26.5 44z" />
    <glyph glyph-name="t" unicode="t" horiz-adv-x="337" 
d="M219 658v-130h92v-96h-92v-276q0 -31 12 -44.5t43 -13.5q14 0 42 4v-100q-40 -12 -83 -12q-149 0 -149 154v288h-79v96h79v130h135z" />
    <glyph glyph-name="u" unicode="u" horiz-adv-x="559" 
d="M378 0l-3 55q-53 -65 -147 -65q-86 0 -130.5 50t-45.5 146v342h136v-342q0 -89 78 -89q76 0 103 55v376h136v-528h-127z" />
    <glyph glyph-name="v" unicode="v" horiz-adv-x="504" 
d="M251 167l103 361h141l-180 -528h-128l-180 528h141z" />
    <glyph glyph-name="w" unicode="w" horiz-adv-x="736" 
d="M206 242l13 -63l99 349h98l100 -348l12 62l61 286h130l-136 -528h-113l-89 299l-15 49l-14 -49l-88 -299h-113l-136 528h130z" />
    <glyph glyph-name="x" unicode="x" horiz-adv-x="507" 
d="M254 364l93 164h145l-153 -259l160 -269h-146l-98 173l-98 -173h-146l159 269l-152 259h146z" />
    <glyph glyph-name="y" unicode="y" horiz-adv-x="500" 
d="M251 191l6 22l96 315h144l-214 -614l-9 -22q-46 -105 -156 -105q-26 1 -61 8v101q7 -1 22 -1q39 -1 60 13t33 49l17 42l-186 529h145z" />
    <glyph glyph-name="z" unicode="z" horiz-adv-x="507" 
d="M205 106h268v-106h-437v82l258 340h-250v106h421v-79z" />
    <glyph glyph-name="braceleft" unicode="{" horiz-adv-x="330" 
d="M113 50v97q0 107 -89 107v95q89 0 89 107v102q1 88 44.5 142.5t130.5 79.5l26 -74q-77 -27 -79 -147v-103q0 -110 -87 -155q87 -45 87 -155v-103q2 -119 79 -146l-26 -74q-175 50 -175 227z" />
    <glyph glyph-name="bar" unicode="|" horiz-adv-x="251" 
d="M168 -132h-84v843h84v-843z" />
    <glyph glyph-name="braceright" unicode="}" horiz-adv-x="324" 
d="M95 43v103q0 110 86 155q-86 45 -86 155v103q-1 120 -79 147l26 74q87 -25 130 -79.5t44 -142.5v-102q0 -107 89 -107v-95q-89 0 -89 -107v-97q0 -178 -174 -227l-26 74q76 27 79 146z" />
    <glyph glyph-name="asciitilde" unicode="~" horiz-adv-x="651" 
d="M576.5 282.5q-20.5 -45.5 -57 -71t-83.5 -25.5q-33 0 -62 12q-14 6 -30.5 18.5t-31.5 25.5q-28 25 -49.5 38t-42.5 13q-29 0 -47.5 -24.5t-18.5 -64.5l-101 1q0 89 44 143t117 54q36 0 69 -15q24 -12 63 -45q30 -25 47 -36t36 -11q30 0 49 25.5t19 65.5h100
q0 -58 -20.5 -103.5z" />
    <glyph glyph-name="uni00A0" unicode="&#xa0;" horiz-adv-x="204" 
 />
    <glyph glyph-name="brokenbar" unicode="&#xa6;" horiz-adv-x="250" 
d="M64 -132v387h122v-387h-122zM64 711h122v-370h-122v370z" />
    <glyph glyph-name="copyright" unicode="&#xa9;" horiz-adv-x="785" 
d="M214 39.5q-79 49.5 -125 133.5t-46 183q0 113 47 195.5t126 126t173 43.5q96 0 175.5 -45.5t125.5 -129t46 -190.5q0 -101 -46.5 -185t-126 -132.5t-174.5 -48.5q-96 0 -175 49.5zM139 203q38 -70 104 -111.5t146 -41.5t146 41t104 111t38 154q0 86 -37.5 155.5
t-103.5 109.5t-147 40q-76 0 -141.5 -33t-106 -102t-40.5 -170q0 -83 38 -153zM213 385q0 85 46.5 137t123.5 52q78 0 120.5 -40.5t42.5 -113.5h-74q0 89 -89 89q-45 0 -70.5 -33t-25.5 -91v-58q0 -58 25.5 -91t70.5 -33t66.5 20t21.5 68h74q0 -74 -42 -113.5t-120 -39.5
t-124 52t-46 140v55z" />
    <glyph glyph-name="guillemotleft" unicode="&#xab;" horiz-adv-x="438" 
d="M338 145q16 -36 50 -76l-58 -59q-45 43 -71.5 93.5t-26.5 115.5t26.5 115.5t71.5 93.5l58 -59q-35 -40 -50.5 -75.5t-15.5 -74.5q0 -38 16 -74zM58.5 362.5q30.5 62.5 81.5 116.5l63 -72q-39 -49 -57.5 -94.5t-18.5 -93.5t18.5 -93.5t57.5 -94.5l-63 -72
q-51 54 -81.5 116.5t-30.5 143.5t30.5 143.5z" />
    <glyph glyph-name="logicalnot" unicode="&#xac;" horiz-adv-x="551" 
d="M469 183h-96v128h-312v81h408v-209z" />
    <glyph glyph-name="registered" unicode="&#xae;" horiz-adv-x="785" 
d="M318 319v-165h-72v415h137q75 0 116.5 -33t41.5 -94q0 -55 -57 -87q55 -25 55 -106q0 -67 8 -87v-8h-74q-4 12 -5 41t-1 36v27q-2 32 -18 46t-50 15h-81zM90 551.5q47 82.5 126 126t173 43.5q96 0 175.5 -46t125.5 -129t46 -190q0 -100 -46.5 -184t-126 -133t-174.5 -49
q-96 0 -175.5 49.5t-125 133.5t-45.5 183q0 113 47 195.5zM138.5 203q37.5 -70 104 -111.5t146.5 -41.5t146 41t104 111t38 154q0 86 -37.5 155.5t-103.5 109.5t-147 40q-76 0 -141.5 -33t-106 -102t-40.5 -170q0 -83 37.5 -153zM386 383q37 1 60 16.5t23 41.5
q0 35 -18 49.5t-64 14.5h-69v-122h68z" />
    <glyph glyph-name="degree" unicode="&#xb0;" horiz-adv-x="393" 
d="M83 654.5q18 30.5 48 48.5t65 18t65 -18t47.5 -48.5t17.5 -66.5q0 -35 -17.5 -65t-47.5 -47.5t-65 -17.5t-65 17.5t-48 47.5t-18 65q0 36 18 66.5zM146 589q0 -15 7.5 -27t20.5 -19q12 -5 22 -5q14 0 26 7.5t19 20.5q5 10 5 23q0 14 -7.5 27t-20.5 20q-9 5 -22 5
q-14 0 -26 -8t-19 -22q-5 -9 -5 -22z" />
    <glyph glyph-name="plusminus" unicode="&#xb1;" horiz-adv-x="536" 
d="M328 452h163v-109h-163v-183h-119v183h-166v109h166v174h119v-174zM56 107h420v-107h-420v107z" />
    <glyph glyph-name="uni00B2" unicode="&#xb2;" horiz-adv-x="372" 
d="M337 285h-300v64l142 129q25 22 38 43t13 34q0 21 -13 32.5t-37 11.5q-26 0 -40.5 -15.5t-14.5 -40.5l-94 3q0 58 40 94t105 36q71 0 110.5 -31t39.5 -89q0 -43 -33 -82q-23 -28 -72 -64l-58 -49h174v-76z" />
    <glyph glyph-name="uni00B3" unicode="&#xb3;" horiz-adv-x="372" 
d="M133 513h42q29 0 44 12t15 33q0 19 -14 30t-41 11q-22 0 -37 -9t-15 -24h-96q0 49 40.5 79.5t105.5 30.5q71 0 112 -30t41 -81q0 -28 -17 -49t-50 -33q74 -21 74 -90q0 -51 -44 -82t-116 -31q-69 0 -111 32.5t-42 86.5h97q0 -18 17 -30.5t45 -12.5t42.5 12.5t14.5 32.5
q0 48 -63 48h-44v64z" />
    <glyph glyph-name="uni00B5" unicode="&#xb5;" horiz-adv-x="611" 
d="M204 528v-308q1 -65 21.5 -94t69.5 -29q76 0 103 56v375h136v-528h-126l-3 38q-45 -48 -113 -48q-53 0 -88 24v-217h-136v731h136z" />
    <glyph glyph-name="uni00B9" unicode="&#xb9;" horiz-adv-x="372" 
d="M256 285h-96v273l-94 -21v74l180 58h10v-384z" />
    <glyph glyph-name="guillemotright" unicode="&#xbb;" horiz-adv-x="438" 
d="M100.5 293.5q-15.5 35.5 -50.5 75.5l57 59q45 -43 72 -93.5t27 -115.5t-27 -115.5t-72 -93.5l-57 59q34 40 50 76t16 74q0 39 -15.5 74.5zM291.5 125.5q18.5 45.5 18.5 93.5t-18.5 93.5t-57.5 94.5l64 72q51 -54 81.5 -116.5t30.5 -143.5t-30.5 -143.5t-81.5 -116.5
l-64 72q39 49 57.5 94.5z" />
    <glyph glyph-name="onequarter" unicode="&#xbc;" horiz-adv-x="797" 
d="M237 266h-96v273l-94 -21v73l181 59h9v-384zM539 645l67 -36l-347 -556l-67 37zM606 441h97v-228h44v-78h-44v-79h-97v79h-170l-6 62zM606 213v112l-8 -12l-75 -100h83z" />
    <glyph glyph-name="onehalf" unicode="&#xbd;" horiz-adv-x="848" 
d="M237 266h-96v273l-94 -21v73l181 59h9v-384zM539 645l67 -36l-347 -556l-67 37zM535 420q40 36 105 36q71 0 110 -31.5t39 -88.5q0 -43 -33 -82q-20 -26 -71 -65l-59 -48h175v-76h-301v64l142 129q25 22 38 42.5t13 34.5q0 21 -12.5 32.5t-37.5 11.5q-26 0 -40.5 -15.5
t-14.5 -40.5l-93 3q0 58 40 94z" />
    <glyph glyph-name="threequarters" unicode="&#xbe;" horiz-adv-x="843" 
d="M158 500h42q59 0 59 45q0 18 -14 29.5t-40 11.5q-22 0 -37.5 -9t-15.5 -24h-96q0 48 41 78.5t105 30.5q72 0 112.5 -29.5t40.5 -80.5q0 -29 -17 -50t-50 -33q74 -19 74 -90q0 -50 -44 -81.5t-116 -31.5q-69 0 -111 32.5t-42 86.5h98q0 -18 16.5 -30t44.5 -12q29 0 43 12
t14 33q0 47 -62 47h-45v65zM594 645l67 -36l-347 -556l-67 37zM652 450h98v-228h44v-77h-44v-80h-97v80h-170l-6 61zM653 222v112l-8 -12l-75 -100h83z" />
    <glyph glyph-name="multiply" unicode="&#xd7;" horiz-adv-x="531" 
d="M33 176l152 155l-152 155l80 78l150 -153l150 153l80 -78l-152 -155l152 -155l-79 -77l-151 152l-150 -152z" />
    <glyph glyph-name="divide" unicode="&#xf7;" horiz-adv-x="570" 
d="M532 282h-501v108h501v-108zM227 186.5q22 19.5 55 19.5q34 0 55.5 -19t21.5 -51q0 -31 -22 -50.5t-56 -19.5q-33 1 -54.5 20.5t-21.5 49.5q0 31 22 50.5zM227 583q22 19 56 19q33 0 54.5 -19t21.5 -50t-22 -50.5t-55 -19.5t-55 19.5t-22 49.5q0 32 22 51z" />
    <glyph glyph-name="uni060C" unicode="&#x60c;" horiz-adv-x="310" 
d="M84.5 29q-30.5 33 -30.5 84q0 62 38.5 127t99.5 103l56 -55q-74 -55 -101 -118q2 0 7 1.5t10 1.5q35 0 60 -25.5t25 -61.5t-26 -62t-60 -26q-48 -2 -78.5 31z" />
    <glyph glyph-name="uni0615" unicode="&#x615;" 
d="M37 541q17 25 19 28q1 27 -4 74.5t-11 85.5l54 11q8 -44 13 -114q37 32 77 32q39 0 61.5 -28.5t22.5 -61.5q0 -27 -17 -52t-52.5 -40.5t-89.5 -15.5q-39 0 -73 10.5t-50 18.5l21 60zM111 530q60 -2 84 9.5t24 27.5q0 10 -7 17t-21 7q-23 0 -47.5 -16t-46.5 -44z" />
    <glyph glyph-name="uni061B" unicode="&#x61b;" horiz-adv-x="310" 
d="M91.5 21.5q-25.5 26.5 -25.5 64.5q0 37 25.5 62t63.5 25t64 -25t26 -62q0 -38 -26 -64.5t-64 -26.5t-63.5 26.5zM98.5 541.5q38.5 65.5 99.5 103.5l56 -55q-76 -58 -101 -119q6 3 17 3q35 0 60 -25t25 -62q0 -36 -26 -61.5t-60 -25.5q-48 -2 -78.5 30.5t-30.5 84.5
q0 61 38.5 126.5z" />
    <glyph glyph-name="uni061F" unicode="&#x61f;" horiz-adv-x="524" 
d="M221 10.5q-24 24.5 -24 59.5t24 59t60 24q35 0 59.5 -24t24.5 -59t-24.5 -59.5t-59.5 -24.5q-36 0 -60 24.5zM80.5 654.5q28.5 50.5 77 81.5t106.5 31q59 0 106.5 -31t74.5 -82.5t28 -111.5l-102 -12q-1 24 -13 50.5t-35.5 44.5t-58.5 18q-43 0 -72.5 -29.5t-29.5 -70.5
q0 -22 7 -35.5t24.5 -29.5t66.5 -53q14 -10 21 -16q23 -18 33 -36.5t13 -45t3 -80.5v-28h-101v61q0 20 -56 69q-48 41 -71 64.5t-36.5 55.5t-13.5 78q0 57 28.5 107.5z" />
    <glyph glyph-name="uni0640" unicode="&#x640;" horiz-adv-x="198" 
d="M-5 149h208l8 -75l-8 -74h-208v149z" />
    <glyph glyph-name="uni064B" unicode="&#x64b;" 
d="M-5 511l220 68v-68l-220 -67v67zM-5 626l220 67v-67l-220 -67v67z" />
    <glyph glyph-name="uni064C" unicode="&#x64c;" 
d="M165 536q-38 6 -60 29t-22 59q0 39 29 68t65 29q12 0 23 -4q27 -10 41 -37t14 -61q0 -48 -22 -86q-24 -42 -76 -63.5t-109 -23.5l-17 59q93 4 134 31zM-20 626q0 69 94 146l34 -33q-66 -65 -66 -106q0 -30 36 -60l-40 -50q-58 49 -58 103zM152.5 599.5
q18.5 -13.5 49.5 -12.5q3 11 3 22q0 22 -11 38.5t-28 16.5q-13 0 -22.5 -10t-9.5 -23q0 -18 18.5 -31.5z" />
    <glyph glyph-name="uni064D" unicode="&#x64d;" 
d="M-5 -226l220 68v-68l-220 -67v67zM-5 -112l220 68v-67l-220 -68v67z" />
    <glyph glyph-name="uni064E" unicode="&#x64e;" 
d="M-5 511l220 68v-68l-220 -67v67z" />
    <glyph glyph-name="uni064F" unicode="&#x64f;" 
d="M138 536q-38 6 -60 29t-22 59q0 39 29 68t65 29q12 0 23 -4q27 -10 41 -37t14 -61q0 -48 -22 -86q-24 -42 -76 -63.5t-109 -23.5l-17 59q93 4 134 31zM125.5 599.5q18.5 -13.5 49.5 -12.5q3 11 3 22q0 22 -11 38.5t-28 16.5q-13 0 -22.5 -10t-9.5 -23q0 -18 18.5 -31.5z
" />
    <glyph glyph-name="uni0650" unicode="&#x650;" 
d="M-5 -249l220 68v-68l-220 -67v67z" />
    <glyph glyph-name="uni0651" unicode="&#x651;" 
d="M14 528q0 -11 7 -18t19 -7q37 0 37 52q0 12 -1 19l47 8q8 -71 44 -71q13 0 20 6.5t7 18.5q0 4 -2 12q-5 15 -28 55l47 27q17 -28 26.5 -49t9.5 -45q0 -39 -20.5 -65t-57.5 -26q-41 0 -64 33q-11 -18 -28.5 -28.5t-36.5 -10.5q-38 0 -58.5 22.5t-20.5 54.5q0 31 15 68
l47 -18q-9 -21 -9 -38z" />
    <glyph glyph-name="uni0652" unicode="&#x652;" 
d="M131.5 621q27.5 -33 27.5 -77q0 -41 -27.5 -71t-67.5 -30q-39 1 -64.5 32.5t-25.5 72.5q0 27 13 51t33.5 39t42.5 15q41 1 68.5 -32zM36.5 517.5q10.5 -12.5 27.5 -12.5q19 0 31 11.5t12 29.5q0 19 -12 32t-31 13q-16 0 -27 -13t-11 -30q0 -18 10.5 -30.5z" />
    <glyph glyph-name="uni0653" unicode="&#x653;" 
d="M19 527q24 25 58 25q20 0 36.5 -6t19.5 -7q12 -5 24.5 -8.5t25.5 -3.5q18 0 30.5 8.5t23.5 19.5l41 -40q-17 -24 -41 -41.5t-54 -17.5q-23 0 -51 13q-30 12 -49 12q-34 0 -49 -39l-51 24q12 36 36 61z" />
    <glyph glyph-name="uni0654" unicode="&#x654;" 
d="M14 526l56 17q-16 19 -22 43q-2 7 -2 21q0 34 21.5 63.5t53.5 37.5q14 3 27 3q29 0 70 -13l-17 -68q-30 11 -54 11q-21 0 -33.5 -11t-12.5 -25q0 -13 14.5 -26t41.5 -10l77 24v-67l-220 -68v68z" />
    <glyph glyph-name="uni0655" unicode="&#x655;" 
d="M13 -232l56 17q-18 21 -22 43q-2 7 -2 21q0 35 21.5 64.5t53.5 36.5q12 4 28 4q24 0 68 -14l-17 -67q-30 10 -52 10q-25 0 -37.5 -13.5t-8.5 -28.5q2 -12 15.5 -21.5t36.5 -8.5l79 25v-68l-219 -67v67z" />
    <glyph glyph-name="uni0656" unicode="&#x656;" 
d="M72 -197q0 -29 -2 -85l-54 2q2 54 2 82q0 50 -4 112l54 6q4 -66 4 -117z" />
    <glyph glyph-name="uni0658" unicode="&#x658;" 
d="M44.5 647q-8.5 -28 -8.5 -50q0 -79 94 -79q58 0 83 23t25 56q0 23 -10 67.5t-11 48.5l50 22q25 -82 25 -138q0 -36 -17.5 -70t-54 -56.5t-90.5 -22.5q-67 0 -108 41.5t-41 107.5q0 44 29 116l51 -24q-8 -14 -16.5 -42z" />
    <glyph glyph-name="uni065A" unicode="&#x65a;" 
d="M150 556q-20 -39 -32 -72l-48 -16q-10 31 -31.5 73t-41.5 71l43 42q12 -16 28 -47.5t24 -57.5q7 27 23 61t29 53l44 -40q-18 -28 -38 -67z" />
    <glyph glyph-name="uni065B" unicode="&#x65b;" 
d="M115 522q-16 34 -23 61q-8 -26 -24 -57.5t-28 -47.5l-43 42q20 29 41.5 71t31.5 73l48 -16q12 -33 32 -72t38 -67l-44 -40q-13 19 -29 53z" />
    <glyph glyph-name="uni0660" unicode="&#x660;" horiz-adv-x="478" 
d="M142 53q-40 24 -64 64t-24 87t24 87.5t64 64t87 23.5q48 0 88.5 -23.5t64.5 -63.5t24 -88q0 -47 -24 -87t-64.5 -64t-88.5 -24q-47 0 -87 24zM184.5 157q18.5 -19 44.5 -19q27 0 45.5 19t18.5 47t-18.5 46.5t-45.5 18.5q-26 0 -44.5 -19t-18.5 -46q0 -28 18.5 -47z" />
    <glyph glyph-name="uni0661" unicode="&#x661;" horiz-adv-x="348" 
d="M142 80q0 161 -17 291q-22 163 -75 285l111 67q62 -126 85 -333q12 -120 12 -267q0 -41 -2 -123h-115q1 27 1 80z" />
    <glyph glyph-name="uni0662" unicode="&#x662;" horiz-adv-x="552" 
d="M139 80q0 161 -17 291q-22 166 -74 285l111 67q17 -35 33 -82q16 -42 29.5 -65t35.5 -36.5t58 -13.5q96 0 96 125q0 23 -3 50l105 21q9 -43 9 -87q0 -70 -23 -128.5t-69.5 -94t-112.5 -35.5q-39 0 -74 16v-3q12 -113 12 -282q0 -72 -1 -108h-116q1 27 1 80z" />
    <glyph glyph-name="uni0663" unicode="&#x663;" horiz-adv-x="709" 
d="M489 567q15 -35 43 -35q18 0 28.5 19t10.5 55t-12 87l102 34q18 -66 18 -127q0 -93 -39.5 -152.5t-106.5 -59.5q-65 0 -110 71q-21 -39 -51 -60.5t-66 -21.5q-34 0 -63 12q12 -113 12 -282q0 -72 -1 -107h-116q1 27 1 80q0 161 -17 291q-22 166 -74 285l111 67
q20 -40 33 -83q25 -62 46.5 -88.5t57.5 -26.5q31 0 51 28t20 82q0 16 -1 25v4l100 17q8 -79 23 -114z" />
    <glyph glyph-name="uni0664" unicode="&#x664;" horiz-adv-x="686" 
d="M142 80q0 161 -17 291q-22 163 -75 285l111 67q28 -57 48 -130q13 -39 31 -69q7 53 38 99t78.5 73t101.5 27q90 0 185 -77l-50 -102q-69 29 -122 29q-54 0 -89.5 -23.5t-35.5 -60.5q0 -31 34.5 -54t92.5 -23q68 0 154 36l31 -131q-44 -23 -97.5 -36.5t-108.5 -13.5
q-116 0 -201 63q7 -88 7 -202q0 -42 -2 -128h-115q1 27 1 80z" />
    <glyph glyph-name="uni0665" unicode="&#x665;" horiz-adv-x="642" 
d="M92.5 419.5q43.5 89.5 105.5 168.5q-22 14 -33 20l73 127q158 -111 262 -242t104 -287q0 -65 -20 -113.5t-56 -75t-82 -26.5q-33 0 -64 15.5t-54 49.5q-39 -65 -119 -65q-78 0 -124.5 60t-46.5 157q0 12 2 40q9 82 52.5 171.5zM147 226q0 -42 18 -64t50 -22q35 0 50 34.5
t15 68.5l90 15q3 -43 16.5 -80.5t47.5 -37.5q64 0 64 87q0 75 -56 150.5t-150 146.5q-123 -137 -142 -265q-3 -18 -3 -33z" />
    <glyph glyph-name="uni0666" unicode="&#x666;" horiz-adv-x="570" 
d="M200 293q-52 27 -81.5 79.5t-29.5 112.5q0 52 22.5 102.5t68.5 87.5t112 47q16 2 25 2q42 0 86 -17t70 -38l-49 -102q-40 17 -84 17q-22 0 -34 -2q-50 -6 -79.5 -35.5t-28.5 -61.5q0 -23 27.5 -41.5t71.5 -18.5q50 0 105 26q53 30 103 50l26 -147q-117 -44 -225 -141.5
t-165 -237.5l-102 50q50 151 161 268z" />
    <glyph glyph-name="uni0667" unicode="&#x667;" horiz-adv-x="644" 
d="M532.5 468q-50.5 -109 -94.5 -234t-62 -234h-108q-13 108 -56.5 233t-96 233.5t-94.5 174.5l105 78q48 -77 102 -203.5t95 -267.5q41 144 94 270.5t101 200.5l105 -78q-40 -64 -90.5 -173z" />
    <glyph glyph-name="uni0668" unicode="&#x668;" horiz-adv-x="644" 
d="M111.5 229q50.5 109 94.5 235t62 234h108q13 -108 56.5 -233t96 -233.5t94.5 -174.5l-105 -78q-49 77 -103 204t-94 268q-41 -143 -94 -270t-101 -202l-105 78q40 63 90.5 172z" />
    <glyph glyph-name="uni0669" unicode="&#x669;" horiz-adv-x="542" 
d="M342.5 103.5q-15.5 88.5 -24.5 191.5q-46 -12 -95 -12q-86 0 -135 51.5t-49 144.5q0 56 24.5 113t67 94.5t93.5 37.5q74 0 114.5 -53.5t53.5 -112t26 -149.5l5 -38q17 -124 31 -206t33 -128l-110 -68q-19 46 -34.5 134.5zM165 447q20 -16 63 -16q46 0 79 13
q-7 59 -29 100.5t-59 41.5q-31 0 -52.5 -29.5t-21.5 -67.5q0 -26 20 -42z" />
    <glyph glyph-name="uni066A" unicode="&#x66a;" horiz-adv-x="549" 
d="M134 696l96 -97l-96 -97l-98 97zM349 718h128l-283 -748h-126zM423 175l96 -97l-96 -97l-98 97z" />
    <glyph glyph-name="uni066B" unicode="&#x66b;" horiz-adv-x="386" 
d="M34 -35l216 494h109l-216 -494h-109z" />
    <glyph glyph-name="uni066C" unicode="&#x66c;" horiz-adv-x="243" 
d="M96 107h122l-106 -238h-89z" />
    <glyph glyph-name="uni066D" unicode="&#x66d;" horiz-adv-x="742" 
d="M237 486l68 -158l-2 -1l-158 66l1 93h91zM117 325l159 -64v-2l-159 -65l-65 67zM145 126l157 67l2 -1l-67 -158l-92 1v91zM323 307.5q20 19.5 48 19.5q27 0 47 -19.5t20 -47.5q0 -29 -19.5 -48.5t-47.5 -19.5q-29 0 -48.5 19.5t-19.5 48.5q0 28 20 47.5zM369 164h2
l65 -158l-66 -65l-65 64zM372 578l64 -64l-63 -159h-2l-65 159zM439 192l158 -66l-1 -93h-92l-67 158zM505 485l92 -1v-91l-157 -67l-2 1zM466 260l159 65l65 -66l-65 -65l-159 64v2z" />
    <glyph glyph-name="uni066E" unicode="&#x66e;" horiz-adv-x="857" 
d="M150 44q-100 55 -109 152q-1 8 -1 24q0 43 12 93t29 89l96 -46q-29 -91 -26 -131q7 -38 79.5 -62.5t198.5 -25.5q91 0 154.5 10t95.5 23t34 21q-8 47 -27.5 104.5t-33.5 90.5l105 58q24 -54 42 -122.5t18 -120.5q0 -104 -105 -157.5t-278 -55.5h-9h-1q-174 1 -274 56z
" />
    <glyph glyph-name="uni066F" unicode="&#x66f;" horiz-adv-x="736" 
d="M192 -256.5q-71 35.5 -110.5 101.5t-39.5 155q0 18 1 28q3 57 23.5 119t45.5 114l96 -44q-27 -61 -40.5 -105.5t-13.5 -92.5q0 -81 52 -122t150 -41q91 0 153 40.5t76 106.5q-35 -5 -64 -5q-72 0 -130 25.5t-82 76.5q-18 39 -18 86q0 59 25 117.5t68.5 96t94.5 37.5
q62 0 111 -52.5t77 -136.5t28 -175q0 -112 -44 -195t-121 -126.5t-174 -43.5q-93 0 -164 35.5zM454.5 154q38.5 -11 84.5 -11q23 0 44 3q-13 67 -43.5 112.5t-71.5 45.5q-20 0 -37.5 -14.5t-27.5 -36t-10 -41.5q0 -17 8 -28q15 -19 53.5 -30z" />
    <glyph glyph-name="uni0670" unicode="&#x670;" 
d="M64 563q0 -29 -2 -85l-54 2q2 54 2 82q0 50 -4 112l54 6q4 -66 4 -117z" />
    <glyph glyph-name="uni0688" unicode="&#x688;" horiz-adv-x="529" 
d="M114 21.5q-58 26.5 -90 53.5l54 105q36 -18 74 -31t93 -13q54 1 88.5 12.5t45.5 25.5q1 2 1 8q0 21 -18.5 55.5t-65 82t-124.5 100.5l72 131q116 -82 183.5 -179t67.5 -185q0 -42 -16 -77q-24 -56 -85 -85.5t-135 -29.5q-87 0 -145 26.5zM115 704q20 -6 30 -8
q12 18 19 27q0 28 -5 78t-11 83l54 11q9 -53 14 -115q37 32 76 32q40 0 62 -28t22 -62q0 -27 -16.5 -51.5t-52.5 -40.5t-90 -16q-39 0 -74.5 11.5t-47.5 18.5zM218 685q58 -3 82.5 8t25.5 26q2 10 -5.5 18.5t-22.5 8.5q-22 0 -46.5 -16.5t-47.5 -43.5z" />
    <glyph glyph-name="uni0691" unicode="&#x691;" horiz-adv-x="386" 
d="M121 -103.5q55 35.5 86.5 70.5t31.5 60q0 41 -53 223l-5 20l112 44q24 -69 38 -147.5t14 -139.5q0 -98 -77 -181.5t-207 -137.5l-61 126q66 27 121 62.5zM120 468l30 -9q9 16 19 28q1 26 -4 74t-11 87l53 11q9 -53 14 -115q39 32 77 32q39 0 61 -28t22 -62
q0 -44 -39.5 -76t-119.5 -32q-53 0 -86.5 14t-35.5 15zM223 448q60 -2 84.5 9.5t24.5 27.5q0 10 -7 17.5t-22 7.5q-23 0 -48 -17t-46 -44z" />
    <glyph glyph-name="uni0695" unicode="&#x695;" horiz-adv-x="386" 
d="M121 -103.5q55 35.5 86.5 70.5t31.5 60q0 41 -53 223l-5 20l112 44q24 -69 38 -147.5t14 -139.5q0 -98 -77 -181.5t-207 -137.5l-61 126q66 27 121 62.5zM91 -323q12 -16 28 -48t24 -58q7 27 23 61.5t28 53.5l45 -41q-18 -28 -38 -67t-32 -72l-48 -16q-11 31 -32.5 73.5
t-40.5 71.5z" />
    <glyph glyph-name="uni06A1" unicode="&#x6a1;" horiz-adv-x="899" 
d="M434 -12h-9q-175 1 -275 56t-109 152q-1 8 -1 24q0 43 12 93t29 89l96 -46q-29 -91 -26 -131q7 -38 81 -63t202 -25h5q117 1 189.5 16t105.5 49q-28 -2 -43 -2q-71 0 -126.5 25t-80.5 73q-18 39 -18 85q0 57 24.5 111.5t67.5 89t95 34.5q59 0 106 -46.5t73.5 -122.5
t26.5 -161q0 -139 -104 -219t-318 -81h-3zM629.5 349q40.5 -11 91.5 -11q22 0 33 1q-14 65 -43.5 108.5t-68.5 43.5q-31 0 -53 -27.5t-22 -57.5q0 -16 7 -26q15 -20 55.5 -31z" />
    <glyph glyph-name="uni06B5" unicode="&#x6b5;" horiz-adv-x="689" 
d="M188 -229q-67 32 -106.5 92.5t-39.5 140.5q0 58 21 129.5t48 129.5l97 -44q-27 -59 -40.5 -102.5t-13.5 -88.5q0 -62 50 -101t131 -39q102 0 154 52t49 157q-5 173 -18 346.5t-26 269.5l125 27q17 -128 29 -636q2 -113 -34.5 -195t-107.5 -126t-171 -44q-80 0 -147 32z
M498 956q12 -16 28 -47.5t24 -57.5q7 27 23 61.5t29 52.5l44 -41q-19 -28 -38.5 -67t-31.5 -72l-48 -16q-10 31 -31 72.5t-42 72.5z" />
    <glyph glyph-name="uni06BA" unicode="&#x6ba;" horiz-adv-x="727" 
d="M168 111.5q-14 -45.5 -14 -92.5q0 -82 52 -122.5t150 -40.5q70 0 122.5 24.5t80 64t27.5 83.5q0 57 -64 240l107 56q63 -169 63 -296q0 -87 -42 -160t-118.5 -116.5t-175.5 -43.5q-93 0 -164 35.5t-110.5 101.5t-39.5 155q0 18 1 28q3 57 23.5 119t45.5 114l96 -44
q-26 -60 -40 -105.5z" />
    <glyph glyph-name="uni06C1" unicode="&#x6c1;" horiz-adv-x="476" 
d="M93.5 46q-51.5 50 -51.5 129q0 31 9 65q20 82 88 162l-34 21l76 113q132 -80 199 -161.5t67 -172.5q0 -61 -27.5 -107.5t-75 -72.5t-106.5 -26q-93 0 -144.5 50zM170 160q25 -19 75 -19q40 0 66.5 15t31.5 39q-7 33 -35.5 68.5t-80.5 76.5q-79 -74 -80 -127
q-2 -34 23 -53z" />
    <glyph glyph-name="uni06C2" unicode="&#x6c2;" horiz-adv-x="476" 
d="M93.5 46q-51.5 50 -51.5 129q0 31 9 65q20 82 88 162l-34 21l76 113q132 -80 199 -161.5t67 -172.5q0 -61 -27.5 -107.5t-75 -72.5t-106.5 -26q-93 0 -144.5 50zM99 653l56 17q-18 19 -22 43q-2 7 -2 21q0 34 21.5 63.5t53.5 37.5q12 3 26 3q26 0 70 -14l-17 -67
q-28 11 -53 11q-9 0 -13 -1q-18 -5 -26.5 -16.5t-5.5 -24.5q2 -13 16.5 -23t37.5 -7l77 24v-68l-219 -67v68zM170 160q25 -19 75 -19q40 0 66.5 15t31.5 39q-7 33 -35.5 68.5t-80.5 76.5q-79 -74 -80 -127q-2 -34 23 -53z" />
    <glyph glyph-name="uni06C3" unicode="&#x6c3;" horiz-adv-x="476" 
d="M93.5 46q-51.5 50 -51.5 129q0 31 9 65q20 82 88 162l-34 21l76 113q132 -80 199 -161.5t67 -172.5q0 -61 -27.5 -107.5t-75 -72.5t-106.5 -26q-93 0 -144.5 50zM118 713l42 42l84 -85l-84 -84l-85 84q21 22 43 43zM170 160q25 -19 75 -19q40 0 66.5 15t31.5 39
q-7 33 -35.5 68.5t-80.5 76.5q-79 -74 -80 -127q-2 -34 23 -53zM294 713l42 42l84 -85l-84 -84l-85 84q21 22 43 43z" />
    <glyph glyph-name="uni06C9" unicode="&#x6c9;" horiz-adv-x="500" 
d="M248.5 -93.5q75.5 39.5 98.5 95.5q-27 -4 -60 -4q-73 0 -131.5 25.5t-82.5 76.5q-18 39 -18 86q0 59 25 117.5t69 96t96 37.5q60 0 109 -52t77 -136t28 -175q0 -140 -101 -236t-279 -130l-46 129q140 30 215.5 69.5zM169.5 608q21.5 42 31.5 73l48 -16q12 -33 32 -72
t38 -67l-44 -40q-13 19 -29 53t-23 61q-8 -26 -24 -57.5t-28 -47.5l-43 42q20 29 41.5 71zM221 153.5q41 -10.5 92 -10.5q24 0 36 1q-14 68 -45.5 114t-70.5 46q-20 0 -37.5 -15t-28 -37t-10.5 -41q0 -16 8 -27q15 -20 56 -30.5z" />
    <glyph glyph-name="uni06CE" unicode="&#x6ce;" horiz-adv-x="769" 
d="M187 -202q-73 37 -112.5 109.5t-32.5 173.5q6 96 68 233l97 -44q-27 -61 -40.5 -105.5t-13.5 -90.5q0 -83 51.5 -124t150.5 -41q81 0 145 28.5t92 71.5q1 3 -63 19l-53 15q-79 23 -112 55t-33 90q0 81 41 155t108 120t142 46q30 0 61 -8.5t43 -20.5l-42 -129q-10 4 -29 7
t-34 3q-41 0 -78.5 -17.5t-63.5 -46t-35 -61.5q-1 -4 -1 -10q0 -17 23.5 -29.5t88.5 -27.5q91 -21 123.5 -52.5t32.5 -73.5q0 -73 -47 -138t-128.5 -104.5t-180.5 -39.5q-95 0 -168 37zM188 575q12 -16 28 -48t24 -58q7 27 23 62t29 53l44 -41q-18 -28 -38 -67t-32 -72
l-48 -16q-11 31 -32.5 73.5t-40.5 71.5z" />
    <glyph glyph-name="uni06D4" unicode="&#x6d4;" horiz-adv-x="344" 
d="M108.5 26q-25.5 26 -25.5 64t25.5 63t63.5 25t63.5 -25.5t25.5 -62.5q0 -38 -25.5 -64t-63.5 -26t-63.5 26z" />
    <glyph glyph-name="uni06D5" unicode="&#x6d5;" horiz-adv-x="476" 
d="M93.5 46q-51.5 50 -51.5 129q0 31 9 65q20 82 88 162l-34 21l76 113q132 -80 199 -161.5t67 -172.5q0 -61 -27.5 -107.5t-75 -72.5t-106.5 -26q-93 0 -144.5 50zM170 160q25 -19 75 -19q40 0 66.5 15t31.5 39q-7 33 -35.5 68.5t-80.5 76.5q-79 -74 -80 -127
q-2 -34 23 -53z" />
    <glyph glyph-name="uni06F0" unicode="&#x6f0;" horiz-adv-x="478" 
d="M142 53q-40 24 -64 64t-24 87t24 87.5t64 64t87 23.5q48 0 88.5 -23.5t64.5 -63.5t24 -88q0 -47 -24 -87t-64.5 -64t-88.5 -24q-47 0 -87 24zM184.5 157q18.5 -19 44.5 -19q27 0 45.5 19t18.5 47t-18.5 46.5t-45.5 18.5q-26 0 -44.5 -19t-18.5 -46q0 -28 18.5 -47z" />
    <glyph glyph-name="uni06F1" unicode="&#x6f1;" horiz-adv-x="348" 
d="M142 80q0 161 -17 291q-22 163 -75 285l111 67q62 -126 85 -333q12 -120 12 -267q0 -41 -2 -123h-115q1 27 1 80z" />
    <glyph glyph-name="uni06F2" unicode="&#x6f2;" horiz-adv-x="552" 
d="M139 80q0 161 -17 291q-22 166 -74 285l111 67q17 -35 33 -82q16 -42 29.5 -65t35.5 -36.5t58 -13.5q96 0 96 125q0 23 -3 50l105 21q9 -43 9 -87q0 -70 -23 -128.5t-69.5 -94t-112.5 -35.5q-39 0 -74 16v-3q12 -113 12 -282q0 -72 -1 -108h-116q1 27 1 80z" />
    <glyph glyph-name="uni06F3" unicode="&#x6f3;" horiz-adv-x="709" 
d="M489 567q15 -35 43 -35q18 0 28.5 19t10.5 55t-12 87l102 34q18 -66 18 -127q0 -93 -39.5 -152.5t-106.5 -59.5q-65 0 -110 71q-21 -39 -51 -60.5t-66 -21.5q-34 0 -63 12q12 -113 12 -282q0 -72 -1 -107h-116q1 27 1 80q0 161 -17 291q-22 166 -74 285l111 67
q20 -40 33 -83q25 -62 46.5 -88.5t57.5 -26.5q31 0 51 28t20 82q0 16 -1 25v4l100 17q8 -79 23 -114z" />
    <glyph glyph-name="uni06F4" unicode="&#x6f4;" horiz-adv-x="686" 
d="M142 80q0 161 -17 291q-22 163 -75 285l111 67q28 -57 48 -130q13 -39 31 -69q7 53 38 99t78.5 73t101.5 27q90 0 185 -77l-50 -102q-69 29 -122 29q-54 0 -89.5 -23.5t-35.5 -60.5q0 -31 34.5 -54t92.5 -23q68 0 154 36l31 -131q-44 -23 -97.5 -36.5t-108.5 -13.5
q-116 0 -201 63q7 -88 7 -202q0 -42 -2 -128h-115q1 27 1 80z" />
    <glyph glyph-name="uni06F5" unicode="&#x6f5;" horiz-adv-x="642" 
d="M92.5 419.5q43.5 89.5 105.5 168.5q-22 14 -33 20l73 127q158 -111 262 -242t104 -287q0 -65 -20 -113.5t-56 -75t-82 -26.5q-33 0 -64 15.5t-54 49.5q-39 -65 -119 -65q-78 0 -124.5 60t-46.5 157q0 12 2 40q9 82 52.5 171.5zM147 226q0 -42 18 -64t50 -22q35 0 50 34.5
t15 68.5l90 15q3 -43 16.5 -80.5t47.5 -37.5q64 0 64 87q0 75 -56 150.5t-150 146.5q-123 -137 -142 -265q-3 -18 -3 -33z" />
    <glyph glyph-name="uni06F6" unicode="&#x6f6;" horiz-adv-x="570" 
d="M200 293q-52 27 -81.5 79.5t-29.5 112.5q0 52 22.5 102.5t68.5 87.5t112 47q16 2 25 2q42 0 86 -17t70 -38l-49 -102q-40 17 -84 17q-22 0 -34 -2q-50 -6 -79.5 -35.5t-28.5 -61.5q0 -23 27.5 -41.5t71.5 -18.5q50 0 105 26q53 30 103 50l26 -147q-117 -44 -225 -141.5
t-165 -237.5l-102 50q50 151 161 268z" />
    <glyph glyph-name="uni06F7" unicode="&#x6f7;" horiz-adv-x="644" 
d="M532.5 463q-50.5 -109 -94.5 -234t-62 -234h-108q-13 108 -56.5 233t-96 233.5t-94.5 175.5l105 77q48 -75 101.5 -202t95.5 -268q41 143 94 269.5t101 200.5l105 -77q-40 -65 -90.5 -174z" />
    <glyph glyph-name="uni06F8" unicode="&#x6f8;" horiz-adv-x="644" 
d="M111.5 229q50.5 109 94.5 235t62 234h108q13 -108 56.5 -233t96 -233.5t94.5 -174.5l-105 -78q-49 77 -103 204t-94 268q-41 -143 -94 -270t-101 -202l-105 78q40 63 90.5 172z" />
    <glyph glyph-name="uni06F9" unicode="&#x6f9;" horiz-adv-x="542" 
d="M342.5 103.5q-15.5 88.5 -24.5 191.5q-46 -12 -95 -12q-86 0 -135 51.5t-49 144.5q0 56 24.5 113t67 94.5t93.5 37.5q74 0 114.5 -53.5t53.5 -112t26 -149.5l5 -38q17 -124 31 -206t33 -128l-110 -68q-19 46 -34.5 134.5zM165 447q20 -16 63 -16q46 0 79 13
q-7 59 -29 100.5t-59 41.5q-31 0 -52.5 -29.5t-21.5 -67.5q0 -26 20 -42z" />
    <glyph glyph-name="uni2009" unicode="&#x2009;" horiz-adv-x="92" 
 />
    <glyph glyph-name="uni200A" unicode="&#x200a;" horiz-adv-x="64" 
 />
    <glyph glyph-name="uni200B" unicode="&#x200b;" 
 />
    <glyph glyph-name="uni200C" unicode="&#x200c;" 
 />
    <glyph glyph-name="uni200D" unicode="&#x200d;" 
 />
    <glyph glyph-name="uni200E" unicode="&#x200e;" 
 />
    <glyph glyph-name="uni200F" unicode="&#x200f;" 
 />
    <glyph glyph-name="quoteleft" unicode="&#x2018;" horiz-adv-x="240" 
d="M180.5 631q-12.5 -38 -13.5 -73v-121h-131v105q1 59 31 120.5t76 100.5l80 -42q-30 -52 -42.5 -90z" />
    <glyph glyph-name="quoteright" unicode="&#x2019;" horiz-adv-x="240" 
d="M59.5 574.5q12.5 37.5 13.5 72.5v121h130v-105q-1 -60 -30.5 -121.5t-75.5 -100.5l-80 43q30 53 42.5 90.5z" />
    <glyph glyph-name="quotedblleft" unicode="&#x201c;" horiz-adv-x="458" 
d="M398 632q-13 -38 -14 -73v-120h-130v104q1 59 31 121t76 101l80 -43q-30 -52 -43 -90zM45 543q0 59 30 120.5t76 101.5l80 -43q-30 -53 -42.5 -90.5t-13.5 -72.5v-120h-130v104z" />
    <glyph glyph-name="quotedblright" unicode="&#x201d;" horiz-adv-x="449" 
d="M59 478.5q13 38.5 14 73.5v120h130v-104q-1 -60 -30.5 -122t-75.5 -100l-80 42q29 52 42 90.5zM269 478.5q13 38.5 14 73.5v120h130v-104q-1 -60 -31 -121.5t-76 -100.5l-80 42q30 52 43 90.5z" />
    <glyph glyph-name="quotedblbase" unicode="&#x201e;" horiz-adv-x="462" 
d="M64 -62q13 38 14 73v121h130v-105q-1 -60 -30.5 -121.5t-75.5 -99.5l-81 42q30 52 43 90zM274 -62q13 38 14 73v121h130v-105q-1 -59 -31 -120.5t-76 -100.5l-80 42q30 52 43 90z" />
    <glyph glyph-name="bullet" unicode="&#x2022;" horiz-adv-x="532" 
d="M185 -3.5q-37 21.5 -58.5 58.5t-21.5 81t21.5 81t58.5 58.5t81 21.5t81 -21.5t58.5 -58.5t21.5 -81t-21.5 -81t-58.5 -58.5t-81 -21.5t-81 21.5z" />
    <glyph glyph-name="ellipsis" unicode="&#x2026;" horiz-adv-x="913" 
d="M103 26q-25 26 -25 64t25 63t63 25t64 -25.5t26 -62.5q0 -38 -26 -64t-64 -26t-63 26zM391.5 153q25.5 25 63.5 25t63.5 -25.5t25.5 -62.5q0 -38 -25.5 -64t-63.5 -26t-63.5 26t-25.5 64t25.5 63zM681.5 153q25.5 25 63.5 25t64 -25.5t26 -62.5q0 -38 -26 -64t-64 -26
t-63.5 26t-25.5 64t25.5 63z" />
    <glyph glyph-name="minute" unicode="&#x2032;" horiz-adv-x="176" 
d="M144 681l-14 -193h-86v262h100v-69z" />
    <glyph glyph-name="second" unicode="&#x2033;" horiz-adv-x="356" 
d="M332 681l-14 -193h-86l1 195v67h99v-69zM58 750h100v-69l-14 -193h-86v262z" />
    <glyph glyph-name="guilsinglleft" unicode="&#x2039;" horiz-adv-x="253" 
d="M145.5 125.5q18.5 -45.5 57.5 -94.5l-63 -72q-51 54 -81.5 116.5t-30.5 143.5t30.5 143.5t81.5 116.5l63 -72q-39 -49 -57.5 -94.5t-18.5 -93.5t18.5 -93.5z" />
    <glyph glyph-name="guilsinglright" unicode="&#x203a;" horiz-adv-x="253" 
d="M107.5 312.5q-18.5 45.5 -57.5 94.5l63 72q51 -54 81.5 -116.5t30.5 -143.5t-30.5 -143.5t-81.5 -116.5l-63 72q39 49 57.5 94.5t18.5 93.5t-18.5 93.5z" />
    <glyph glyph-name="fraction" unicode="&#x2044;" horiz-adv-x="446" 
d="M82 53l-66 37l347 555l66 -36z" />
    <glyph glyph-name="uni2070" unicode="&#x2070;" horiz-adv-x="372" 
d="M296 321q-39 -41 -110 -41t-110.5 40.5t-40.5 114.5v81q0 77 40 118.5t110 41.5t110 -42t40 -117v-79q0 -76 -39 -117zM145 374.5q13 -18.5 41 -18.5q51 0 53 71v93q0 79 -54 79q-50 0 -53 -73v-93q0 -40 13 -58.5z" />
    <glyph glyph-name="uni2074" unicode="&#x2074;" horiz-adv-x="372" 
d="M299 442h44v-78h-44v-79h-97v79h-170l-6 62l176 244h97v-228zM202 442v112l-8 -12l-75 -100h83z" />
    <glyph glyph-name="uni2075" unicode="&#x2075;" horiz-adv-x="372" 
d="M44 472l26 198h244v-75h-165l-11 -70q35 13 66 13q64 0 98 -32.5t34 -91.5q0 -60 -41.5 -97t-108.5 -37q-63 0 -106.5 32t-44.5 81h97q2 -37 54 -37q26 0 39.5 15t13.5 43t-15 43t-45 15q-33 0 -58 -18z" />
    <glyph glyph-name="uni2076" unicode="&#x2076;" horiz-adv-x="372" 
d="M174.5 576.5q-33.5 -22.5 -40.5 -66.5q35 32 87 32q57 0 90 -35t33 -94q0 -57 -42.5 -95t-108.5 -38q-74 0 -116 40t-42 113v28q0 103 62 160t180 57v-78q-69 -1 -102.5 -23.5zM191 356q24 0 40 16.5t16 40.5q0 53 -57 53q-19 0 -34.5 -7t-23.5 -20v-18q0 -65 59 -65z
" />
    <glyph glyph-name="uni2077" unicode="&#x2077;" horiz-adv-x="372" 
d="M336 617l-163 -332h-102l164 308h-210v77h311v-53z" />
    <glyph glyph-name="uni2078" unicode="&#x2078;" horiz-adv-x="372" 
d="M75.5 309.5q-40.5 29.5 -40.5 81.5q0 64 65 92q-56 29 -56 84q0 50 38 79.5t103 29.5q66 0 104 -29t38 -80q0 -57 -56 -84q65 -29 65 -92q0 -52 -40 -81.5t-110 -29.5t-110.5 29.5zM147.5 368q15.5 -12 38.5 -12t38.5 12t15.5 32q0 21 -14.5 32t-40.5 11t-39.5 -11
t-13.5 -32q0 -20 15.5 -32zM152.5 530.5q11.5 -10.5 33.5 -10.5q21 0 32.5 10.5t11.5 29.5t-11.5 29t-33.5 10q-44 0 -44 -39q0 -19 11.5 -29.5z" />
    <glyph glyph-name="uni2079" unicode="&#x2079;" horiz-adv-x="372" 
d="M198 371.5q30 16.5 37 63.5q-31 -27 -74 -27q-61 0 -94 33.5t-33 94.5q0 39 19.5 71t53.5 50.5t76 18.5q70 0 109 -40.5t41 -113.5v-31q0 -105 -55.5 -157.5t-172.5 -53.5v75q63 0 93 16.5zM145 494q15 -15 42 -15q33 0 50 22v36q0 62 -54 62q-24 0 -38.5 -18.5
t-14.5 -45.5q0 -26 15 -41z" />
    <glyph glyph-name="uni2080" unicode="&#x2080;" horiz-adv-x="372" 
d="M296 36q-39 -41 -110 -41t-110.5 40.5t-40.5 114.5v81q0 77 40 118.5t110 41.5t110 -42t40 -117v-79q0 -76 -39 -117zM145 89.5q13 -18.5 41 -18.5q51 0 53 71v93q0 79 -54 79q-50 0 -53 -73v-93q0 -40 13 -58.5z" />
    <glyph glyph-name="uni2081" unicode="&#x2081;" horiz-adv-x="372" 
d="M256 0h-96v273l-94 -21v74l180 58h10v-384z" />
    <glyph glyph-name="uni2082" unicode="&#x2082;" horiz-adv-x="372" 
d="M337 0h-300v64l142 129q25 22 38 43t13 34q0 21 -13 32.5t-37 11.5q-26 0 -40.5 -15.5t-14.5 -40.5l-94 3q0 58 40 94t105 36q71 0 110.5 -31t39.5 -89q0 -43 -33 -82q-23 -28 -72 -64l-58 -49h174v-76z" />
    <glyph glyph-name="uni2083" unicode="&#x2083;" horiz-adv-x="372" 
d="M133 228h42q29 0 44 12t15 33q0 19 -14 30t-41 11q-22 0 -37 -9t-15 -24h-96q0 49 40.5 79.5t105.5 30.5q71 0 112 -30t41 -81q0 -28 -17 -49t-50 -33q74 -21 74 -90q0 -51 -44 -82t-116 -31q-69 0 -111 32.5t-42 86.5h97q0 -18 17 -30.5t45 -12.5t42.5 12.5t14.5 32.5
q0 48 -63 48h-44v64z" />
    <glyph glyph-name="uni2084" unicode="&#x2084;" horiz-adv-x="372" 
d="M299 157h44v-78h-44v-79h-97v79h-170l-6 62l176 244h97v-228zM202 157v112l-8 -12l-75 -100h83z" />
    <glyph glyph-name="uni2085" unicode="&#x2085;" horiz-adv-x="372" 
d="M44 187l26 198h244v-75h-165l-11 -70q35 13 66 13q64 0 98 -32.5t34 -91.5q0 -60 -41.5 -97t-108.5 -37q-63 0 -106.5 32t-44.5 81h97q2 -37 54 -37q26 0 39.5 15t13.5 43t-15 43t-45 15q-33 0 -58 -18z" />
    <glyph glyph-name="uni2086" unicode="&#x2086;" horiz-adv-x="372" 
d="M174.5 291.5q-33.5 -22.5 -40.5 -66.5q35 32 87 32q57 0 90 -35t33 -94q0 -57 -42.5 -95t-108.5 -38q-74 0 -116 40t-42 113v28q0 103 62 160t180 57v-78q-69 -1 -102.5 -23.5zM191 71q24 0 40 16.5t16 40.5q0 53 -57 53q-19 0 -34.5 -7t-23.5 -20v-18q0 -65 59 -65z" />
    <glyph glyph-name="uni2087" unicode="&#x2087;" horiz-adv-x="372" 
d="M336 332l-163 -332h-102l164 308h-210v77h311v-53z" />
    <glyph glyph-name="uni2088" unicode="&#x2088;" horiz-adv-x="372" 
d="M75.5 24.5q-40.5 29.5 -40.5 81.5q0 64 65 92q-56 29 -56 84q0 50 38 79.5t103 29.5q66 0 104 -29t38 -80q0 -57 -56 -84q65 -29 65 -92q0 -52 -40 -81.5t-110 -29.5t-110.5 29.5zM147.5 83q15.5 -12 38.5 -12t38.5 12t15.5 32q0 21 -14.5 32t-40.5 11t-39.5 -11
t-13.5 -32q0 -20 15.5 -32zM152.5 245.5q11.5 -10.5 33.5 -10.5q21 0 32.5 10.5t11.5 29.5t-11.5 29t-33.5 10q-44 0 -44 -39q0 -19 11.5 -29.5z" />
    <glyph glyph-name="uni2089" unicode="&#x2089;" horiz-adv-x="372" 
d="M198 86.5q30 16.5 37 63.5q-31 -27 -74 -27q-61 0 -94 33.5t-33 94.5q0 39 19.5 71t53.5 50.5t76 18.5q70 0 109 -40.5t41 -113.5v-31q0 -105 -55.5 -157.5t-172.5 -53.5v75q63 0 93 16.5zM145 209q15 -15 42 -15q33 0 50 22v36q0 62 -54 62q-24 0 -38.5 -18.5
t-14.5 -45.5q0 -26 15 -41z" />
    <glyph glyph-name="trademark" unicode="&#x2122;" horiz-adv-x="630" 
d="M496 622l-56 -175h-34l-56 177v-177h-61v264h75l59 -183l63 183h70v-264h-60v175zM57 711h198v-50h-65v-213h-66v213h-67v50z" />
    <glyph glyph-name="partialdiff" unicode="&#x2202;" horiz-adv-x="572" 
d="M161 22q-56 32 -86 91t-30 139v7q0 73 28 129t80.5 86.5t122.5 30.5q84 0 141 -60q-16 94 -60 146t-107 52q-54 0 -120 -27l-21 96q74 37 152 37q86 0 149 -45.5t96.5 -133.5t33.5 -212v-42q0 -99 -31 -172.5t-87.5 -113.5t-130.5 -40t-130 32zM208 134q29 -39 83 -39
q55 0 84.5 47t29.5 136l-1 51q-16 34 -45 52t-67 18q-54 0 -83.5 -37.5t-29.5 -107.5v-11q0 -70 29 -109z" />
    <glyph glyph-name="product" unicode="&#x220f;" horiz-adv-x="690" 
d="M614 -121h-136v729h-262v-729h-135v832h533v-832z" />
    <glyph glyph-name="summation" unicode="&#x2211;" horiz-adv-x="623" 
d="M450 284l-241 -310h393v-106h-574v72l280 352l-280 347v72h555v-106h-373l240 -306v-15z" />
    <glyph glyph-name="minus" unicode="&#x2212;" horiz-adv-x="557" 
d="M493 296h-421v107h421v-107z" />
    <glyph glyph-name="uni2215" unicode="&#x2215;" horiz-adv-x="600" 
d="M378 771l106 -32l-262 -815l-105 32z" />
    <glyph glyph-name="radical" unicode="&#x221a;" horiz-adv-x="564" 
d="M281 144l162 567h108l-209 -711h-114l-95 265h-106v107h184z" />
    <glyph glyph-name="infinity" unicode="&#x221e;" horiz-adv-x="1047" 
d="M167 24.5q-57 34.5 -88.5 97t-31.5 142.5q0 56 22.5 119t78.5 109t148 46q141 0 226 -154q40 75 98 114.5t129 39.5q73 0 129.5 -35t88 -98.5t31.5 -145.5q0 -54 -24.5 -116.5t-80.5 -107.5t-145 -45q-70 0 -128 40.5t-98 116.5q-41 -78 -98.5 -117.5t-126.5 -39.5
q-73 0 -130 34.5zM212.5 142.5q34.5 -44.5 90.5 -44.5q36 0 67.5 28.5t53.5 67.5t30 69v8q-6 27 -28.5 64.5t-55 65.5t-68.5 28q-57 0 -90.5 -45t-33.5 -125q0 -72 34.5 -116.5zM620 196.5q23 -39.5 55.5 -69t66.5 -29.5q56 0 90 45.5t34 125.5q0 71 -34 115.5t-89 44.5
q-36 0 -68.5 -27t-54.5 -64.5t-29 -66.5v-8q6 -27 29 -66.5z" />
    <glyph glyph-name="integral" unicode="&#x222b;" horiz-adv-x="286" 
d="M159 -165.5q-47 -47.5 -135 -47.5q-35 0 -70 8l9 103q23 -5 41 -5q67 0 67 75v608q0 88 49.5 136.5t141.5 48.5q29 0 78 -11l-12 -100q-23 5 -48 5q-74 0 -74 -82v-601q0 -90 -47 -137.5z" />
    <glyph glyph-name="approxequal" unicode="&#x2248;" horiz-adv-x="575" 
d="M106 483.5q32 13.5 65 13.5q34 0 59 -8.5t61 -26.5q32 -17 56.5 -25.5t55.5 -8.5q63 0 112 62v-110q-25 -27 -51 -40t-58 -13q-31 0 -55.5 8.5t-61.5 26.5q-35 18 -60 26.5t-56 7.5q-34 0 -68 -16.5t-56 -44.5v110q25 25 57 38.5zM49 240q51 52 121 52q31 0 56.5 -9
t64.5 -27q34 -16 58 -24.5t51 -8.5q66 0 114 62l1 -110q-49 -52 -112 -52q-31 0 -58 9t-62 27q-36 17 -59 25t-51 8q-34 0 -67 -16t-57 -46v110z" />
    <glyph glyph-name="notequal" unicode="&#x2260;" horiz-adv-x="571" 
d="M501 161h-269l-58 -108l-57 29l43 79h-93v107h151l55 103h-206v107h264l60 109l56 -31l-44 -78h98v-107h-155l-56 -103h211v-107z" />
    <glyph glyph-name="lessequal" unicode="&#x2264;" horiz-adv-x="511" 
d="M164 370l282 -95v-119l-419 166v99l419 166v-118zM35 123h421v-107h-421v107z" />
    <glyph glyph-name="greaterequal" unicode="&#x2265;" horiz-adv-x="513" 
d="M347 374l-289 97v117l425 -166v-98l-425 -167v118zM57 124h421v-107h-421v107z" />
    <glyph glyph-name="uniFBB2" unicode="&#xfbb2;" 
d="M91 414q31 -30 61 -61l31 -31l-92 -92l-93 92z" />
    <glyph glyph-name="uniFBB3" unicode="&#xfbb3;" 
d="M68 -78l23 23l31 -31q30 -31 61 -61l-92 -93l-93 93q12 11 70 69z" />
    <glyph glyph-name="uniFBB4" unicode="&#xfbb4;" 
d="M80 407l84 -84l-84 -85l-28 28l-57 57zM256 407l84 -84l-84 -85l-28 28l-57 57z" />
    <glyph glyph-name="uniFBB5" unicode="&#xfbb5;" 
d="M298 -143q-22 -21 -43 -43l-84 85l84 84l85 -84zM79 -17l85 -84l-42 -42q-22 -21 -43 -43l-84 85z" />
    <glyph glyph-name="uniFBB6" unicode="&#xfbb6;" 
d="M77 305l80 -79l-80 -81q-9 11 -60 61l-20 20zM171 414l70 -70l-70 -71l-47 47l-24 24zM266 305l79 -79l-32 -32l-47 -49l-54 54l-27 27z" />
    <glyph glyph-name="uniFBB9" unicode="&#xfbb9;" 
d="M266 -178l-80 79l80 81l79 -81zM77 -18l27 -27l54 -54l-49 -47l-32 -32l-79 79zM172 -146l47 -47l24 -24l-71 -70l-70 70q46 48 70 71z" />
    <glyph glyph-name="uniFD3E" unicode="&#xfd3e;" horiz-adv-x="425" 
d="M223.5 545q-66.5 -112 -66.5 -265q0 -157 65.5 -266t156.5 -188l-74 -89q-118 91 -195.5 228.5t-77.5 314.5q0 179 77 315.5t196 228.5l74 -89q-89 -78 -155.5 -190z" />
    <glyph glyph-name="uniFD3F" unicode="&#xfd3f;" horiz-adv-x="425" 
d="M316 595.5q77 -136.5 77 -315.5q0 -177 -77.5 -314.5t-195.5 -228.5l-74 89q91 79 156.5 188t65.5 266q0 153 -66.5 265t-155.5 190l74 89q119 -92 196 -228.5z" />
    <glyph glyph-name="uniFEFF" unicode="&#xfeff;" 
 />
    <glyph glyph-name="uni0627.001" horiz-adv-x="251" 
d="M69 171q0 119 -7.5 253t-16.5 198l125 28q7 -63 13.5 -189t6.5 -247q0 -129 -9 -221l-118 13q6 50 6 165z" />
    <glyph glyph-name="uni0627.fina.001" horiz-adv-x="268" 
d="M111 63q-48 63 -50 192q-2 116 -5.5 199.5t-12.5 167.5l124 28q14 -148 14 -386q0 -46 6.5 -70t25 -34.5t55.5 -10.5h5l8 -75l-8 -74h-5q-109 0 -157 63z" />
    <glyph glyph-name="uni066E.001" horiz-adv-x="428" 
d="M-7 55q0 28 2 82q92 0 157 10t97.5 23t34.5 21q-8 47 -27.5 104.5t-33.5 90.5l105 58q24 -54 42 -122.5t18 -120.5q0 -105 -108 -159t-285 -54q-2 46 -2 67z" />
    <glyph glyph-name="uni066E.fina.001" horiz-adv-x="429" 
d="M152.5 42q-102.5 55 -111.5 154q-1 8 -1 24q0 43 12 93t29 89l96 -46q-29 -91 -26 -131q7 -38 81 -63t202 -25q2 -25 2 -74q0 -50 -2 -75q-179 -1 -281.5 54z" />
    <glyph glyph-name="uni066E.fina.002" horiz-adv-x="521" 
d="M-4 62q0 50 1 75q131 0 203.5 16.5t110.5 53.5t64 108l104 -12q-19 -56 -19 -91q0 -63 66 -63l8 -74l-8 -75q-56 0 -98.5 33t-51.5 85q-62 -73 -152 -101.5t-227 -28.5q-1 25 -1 74z" />
    <glyph glyph-name="uni066E.medi.001" horiz-adv-x="390" 
d="M-5 149h7q90 0 134 9.5t58 28.5t14 55q0 29 -10 95l103 20q14 -73 14 -165q4 -17 22 -30t52 -13h6l8 -75l-8 -74h-6q-40 0 -74 19t-58 50q-29 -37 -88 -53t-167 -16h-7v149z" />
    <glyph glyph-name="uni066E.medi.002" horiz-adv-x="337" 
d="M198 65q-61 -65 -196 -65h-7v149h6q128 0 152 48l-29 132l100 34q22 -92 37 -150q10 -34 28 -49t48 -15h5l8 -75l-8 -74h-5q-92 0 -139 65z" />
    <glyph glyph-name="uni066E.medi.003" horiz-adv-x="395" 
d="M254 69q-36 -36 -97.5 -52.5t-154.5 -16.5h-7v149h6q90 0 141.5 12.5t68.5 38.5l-28 129l99 34q22 -92 37 -150q10 -34 28 -49t48 -15h5l8 -75l-8 -74h-4q-95 0 -142 69z" />
    <glyph glyph-name="uni066E.init.001" horiz-adv-x="376" 
d="M-5 149h48q99 0 140 17t41 52q-1 22 -23 84.5t-32 83.5l106 58q20 -42 40 -111.5t20 -121.5q-1 -102 -69 -156.5t-201 -54.5h-70v149z" />
    <glyph glyph-name="uni0628.medi.001" horiz-adv-x="337" 
d="M198 65q-61 -65 -196 -65h-7v149h6q128 0 152 48l-29 132l100 34q22 -92 37 -150q10 -34 28 -49t48 -15h5l8 -75l-8 -74h-5q-92 0 -139 65zM60 -78q31 -30 61 -61l31 -31l-92 -92l-93 92z" />
    <glyph glyph-name="uni0628.medi.alt" horiz-adv-x="335" 
d="M-5 149h6q76 0 110.5 16t39.5 52q2 16 2 25q0 24 -5 55.5t-6 39.5l104 20q13 -74 13 -165q4 -17 22.5 -30t52.5 -13h6l8 -75l-8 -74h-6q-40 0 -74.5 19t-58.5 50q-29 -36 -78.5 -52.5t-121.5 -16.5h-6v149zM125 -78q31 -30 61 -61l31 -31l-92 -92l-93 92z" />
    <glyph glyph-name="uni0628.medi.alt.001" horiz-adv-x="395" 
d="M254 69q-36 -36 -97.5 -52.5t-154.5 -16.5h-7v149h6q90 0 141.5 12.5t68.5 38.5l-28 129l99 34q22 -92 37 -150q10 -34 28 -49t48 -15h5l8 -75l-8 -74h-4q-95 0 -142 69zM138 -78q31 -30 61 -61l31 -31l-92 -92l-93 92z" />
    <glyph glyph-name="uni0628.init.alt" horiz-adv-x="336" 
d="M-5 149h53q72 0 103.5 16t31.5 48q0 21 -21 82.5t-33 90.5l105 58q19 -42 39.5 -112.5t20.5 -123.5q0 -102 -63.5 -155t-182.5 -53h-53v149zM123 -78q31 -30 61 -61l31 -31l-92 -92l-93 92z" />
    <glyph glyph-name="uni067E.medi.001" horiz-adv-x="395" 
d="M207 -228l-80 79l80 81q10 -11 60 -61l20 -20zM-29 -117l47 49l54 -54l27 -27l-81 -79l-79 79zM-5 149h6q90 0 141.5 12.5t68.5 38.5l-28 129l99 34q22 -92 37 -150q10 -34 28 -49t48 -15h5l8 -75l-8 -74h-4q-95 0 -142 69q-36 -36 -97.5 -52.5t-154.5 -16.5h-7v149z
M113 -196l47 -47l24 -24l-71 -70l-70 70z" />
    <glyph glyph-name="uni067E.medi.alt" horiz-adv-x="390" 
d="M-5 149h7q90 0 134 9.5t58 28.5t14 55q0 29 -10 95l103 20q14 -73 14 -165q4 -17 22 -30t52 -13h6l8 -75l-8 -74h-6q-40 0 -74 19t-58 50q-29 -37 -88 -53t-167 -16h-7v149zM31 -118l47 49l54 -54l27 -27l-81 -79l-79 79zM173 -197l47 -47l24 -24l-71 -70l-70 70z
M267 -69q10 -11 60 -61l20 -20l-80 -79l-80 79z" />
    <glyph glyph-name="uni067E.medi.alt.001" horiz-adv-x="395" 
d="M267 -229l-80 79l80 81q10 -11 60 -61l20 -20zM-5 149h6q90 0 141.5 12.5t68.5 38.5l-28 129l99 34q22 -92 37 -150q10 -34 28 -49t48 -15h5l8 -75l-8 -74h-4q-95 0 -142 69q-36 -36 -97.5 -52.5t-154.5 -16.5h-7v149zM31 -118l47 49l54 -54l27 -27l-81 -79l-79 79z
M173 -197l47 -47l24 -24l-71 -70l-70 70z" />
    <glyph glyph-name="uni067E.init.alt" horiz-adv-x="420" 
d="M-11 74l8 75h89q99 0 140 17t41 52q0 22 -21 81.5t-33 86.5l105 58q20 -43 40 -110.5t20 -119.5q0 -104 -67.5 -159t-201.5 -55h-112zM38 -118l47 49l54 -54l27 -27l-81 -79l-79 79zM180 -197l47 -47l24 -24l-71 -70l-70 70zM274 -69q10 -11 60 -61l20 -20l-80 -79
l-80 79z" />
    <glyph glyph-name="uni062A.medi.001" horiz-adv-x="395" 
d="M254 69q-36 -36 -97.5 -52.5t-154.5 -16.5h-7v149h6q90 0 141.5 12.5t68.5 38.5l-28 129l99 34q22 -92 37 -150q10 -34 28 -49t48 -15h5l8 -75l-8 -74h-4q-95 0 -142 69zM101 598l84 -84l-84 -85l-57 57l-28 28zM277 598l84 -84l-84 -85l-57 57l-28 28z" />
    <glyph glyph-name="uni062A.medi.002" horiz-adv-x="437" 
d="M296 68q-36 -35 -97.5 -51.5t-152.5 -16.5h-49l-8 74l8 75h46q90 0 141.5 12.5t67.5 38.5l-28 129l100 34q22 -92 37 -150q10 -34 28 -49t48 -15h5l8 -75l-8 -74h-5q-94 0 -141 68zM126 598l84 -84l-84 -85l-85 85zM302 598l84 -84l-84 -85l-85 85z" />
    <glyph glyph-name="uni062A.medi.alt" horiz-adv-x="433" 
d="M-11 74l8 75h47q90 0 134 9.5t58 28.5t14 55q0 24 -5 55.5t-6 39.5l104 20q14 -73 14 -165q3 -16 21 -29.5t53 -13.5h6l8 -75l-8 -74h-6q-40 0 -74 19t-58 50q-30 -36 -88.5 -52.5t-164.5 -16.5h-49zM109 596l84 -84l-84 -85l-28 28l-57 57zM285 596l84 -84l-84 -85
l-28 28l-57 57z" />
    <glyph glyph-name="uni062A.init.alt" horiz-adv-x="418" 
d="M-11 74l8 75h87q99 0 140 16.5t41 51.5q0 21 -21.5 82t-32.5 87l105 58q20 -41 40.5 -110.5t20.5 -122.5q-1 -102 -69 -156.5t-201 -54.5h-110zM130 650l84 -84l-84 -85l-57 57l-28 28zM306 650l84 -84l-84 -85l-57 57l-28 28z" />
    <glyph glyph-name="uni062B.medi.001" horiz-adv-x="395" 
d="M254 69q-36 -36 -97.5 -52.5t-154.5 -16.5h-7v149h6q90 0 141.5 12.5t68.5 38.5l-28 129l99 34q22 -92 37 -150q10 -34 28 -49t48 -15h5l8 -75l-8 -74h-4q-95 0 -142 69zM93 594l80 -79l-20 -20q-50 -50 -60 -61l-80 81zM163 680l23 23l71 -70l-24 -24l-47 -47l-70 71
q23 24 47 47zM281 594q27 -26 53 -53l26 -26l-79 -81l-80 81z" />
    <glyph glyph-name="uni062B.medi.002" horiz-adv-x="437" 
d="M296 68q-36 -35 -97.5 -51.5t-152.5 -16.5h-49l-8 74l8 75h46q90 0 141.5 12.5t67.5 38.5l-28 129l100 34q22 -92 37 -150q10 -34 28 -49t48 -15h5l8 -75l-8 -74h-5q-94 0 -141 68zM117 594l80 -79l-80 -81q-9 11 -60 61l-20 20zM211 703l70 -70l-70 -71l-47 47l-24 24z
M306 594l79 -79l-32 -32l-47 -49l-54 54l-27 27z" />
    <glyph glyph-name="uni062B.medi.alt" horiz-adv-x="433" 
d="M-11 74l8 75h47q90 0 134 9.5t58 28.5t14 55q0 24 -5 55.5t-6 39.5l104 20q14 -73 14 -165q3 -16 21 -29.5t53 -13.5h6l8 -75l-8 -74h-6q-40 0 -74 19t-58 50q-30 -36 -88.5 -52.5t-164.5 -16.5h-49zM83 567l26 26q54 -52 80 -79l-53 -53l-27 -27l-79 80q26 27 53 53z
M203 703l70 -71l-70 -71l-24 24l-47 47zM298 593l26 -26q27 -26 53 -53l-79 -80l-81 80z" />
    <glyph glyph-name="uni062B.init.alt" horiz-adv-x="418" 
d="M-11 74l8 75h87q99 0 140 16.5t41 51.5q0 21 -21.5 82t-32.5 87l105 58q20 -41 40.5 -110.5t20.5 -122.5q-1 -102 -69 -156.5t-201 -54.5h-110zM117 645l80 -79l-27 -27l-53 -53l-27 27l-53 53zM187 731l23 23l71 -70l-47 -47l-24 -24l-70 71q23 24 47 47zM305 645
q27 -26 53 -53l26 -26l-79 -80l-80 80z" />
    <glyph glyph-name="uni0679.medi.001" horiz-adv-x="395" 
d="M254 69q-36 -36 -97.5 -52.5t-154.5 -16.5h-7v149h6q90 0 141.5 12.5t68.5 38.5l-28 129l99 34q22 -92 37 -150q10 -34 28 -49t48 -15h5l8 -75l-8 -74h-4q-95 0 -142 69zM36 508l29 -8q12 18 19 27q1 27 -4 75t-11 86l54 11q8 -44 13 -115q37 32 77 32t62 -28t22 -62
q0 -27 -17 -51.5t-52.5 -40.5t-89.5 -16q-39 0 -72.5 10.5t-50.5 19.5zM139 489q60 -3 84 8.5t24 27.5q0 10 -6.5 17.5t-21.5 7.5q-23 0 -47.5 -16t-46.5 -44z" />
    <glyph glyph-name="uni062D.fina.001" horiz-adv-x="722" 
d="M212 -354q-79 34 -125 98.5t-46 151.5q0 150 116.5 250t324.5 137q-66 46 -108.5 66t-82.5 20q-38 0 -67.5 -21t-45.5 -47l-84 61q77 150 200 150q57 0 111.5 -26.5t145.5 -92.5q49 -35 76 -51.5t58 -27.5l-17 -143q-151 0 -265.5 -36t-179 -95t-73.5 -124
q-4 -44 29.5 -79.5t94.5 -56t137 -20.5q70 0 132 15t98 29l54 -114q-136 -78 -308 -78q-96 0 -175 34z" />
    <glyph glyph-name="uni0631.003" horiz-adv-x="408" 
d="M293 50q-42 50 -70 140l90 55q14 -53 34 -74.5t56 -21.5h9l8 -75l-8 -74h-9q-68 0 -110 50z" />
    <glyph glyph-name="uni0633.001" horiz-adv-x="665" 
d="M192 -256.5q-71 35.5 -110.5 101.5t-39.5 155q0 18 1 28q3 57 23.5 119t45.5 114l96 -44q-26 -60 -40 -105.5t-14 -92.5q0 -82 52 -122.5t150 -40.5q70 0 122.5 24.5t80 64t27.5 83.5q0 59 -64 240l107 56q63 -171 63 -296q0 -87 -42 -160t-118.5 -116.5t-175.5 -43.5
q-93 0 -164 35.5z" />
    <glyph glyph-name="uni0633.fina.001" horiz-adv-x="80" 
d="M-27.5 53.5q-44.5 53.5 -65.5 137.5l84 52q12 -36 22.5 -55.5t28.5 -29t48 -9.5l-7 -149q-66 0 -110.5 53.5z" />
    <glyph glyph-name="uni0633.medi.002" horiz-adv-x="262" 
d="M130 66q-24 -31 -57.5 -48.5t-71.5 -17.5h-3v149h3q23 0 45 9t34 23q-9 37 -27 135l103 28q11 -64 18.5 -97t13.5 -52q8 -23 25.5 -34.5t48.5 -11.5h6l7 -75l-8 -74h-5q-81 0 -132 66z" />
    <glyph glyph-name="uni0633.init.001" horiz-adv-x="210" 
d="M-1 149h3q29 0 46 17t17 44t-20.5 86t-34.5 90l102 56q19 -39 40 -111.5t21 -126.5q0 -56 -22 -102.5t-61 -74t-88 -27.5h-3v149z" />
    <glyph glyph-name="uni0633.init.002" horiz-adv-x="269" 
d="M-1 149h5q51 0 79 55q19 38 34 117l103 -5q-11 -66 -11 -94q0 -73 61 -73h2l8 -75l-8 -74h-2q-48 0 -82 22t-52 64q-57 -86 -135 -86h-2v149z" />
    <glyph glyph-name="uni0633.init.003" horiz-adv-x="285" 
d="M-2 0l-8 74l8 75h5q31 0 61 13.5t45 33.5q21 24 32 54t20 64l104 -11q-1 -5 -11 -39.5t-10 -62.5q0 -52 42 -52h2l8 -75l-8 -74h-5q-43 0 -75 23t-45 61q-32 -41 -73.5 -62.5t-88.5 -21.5h-3z" />
    <glyph glyph-name="uni0635.medi.001" horiz-adv-x="202" 
d="M207 149l8 -75l-8 -74q-101 0 -163 7t-96 35l63 97q130 10 196 10z" />
    <glyph glyph-name="uni06A1.medi.001" horiz-adv-x="467" 
d="M-4 -12l-8 75l8 74h12q28 0 74 2q-33 50 -33 103q0 8 2 26q9 59 36.5 107t68 76t86.5 28q51 0 90.5 -31.5t61 -81.5t21.5 -103q0 -21 -2 -32q-6 -41 -25 -82h84l8 -75l-8 -74h-60q-92 0 -167 26q-96 -38 -237 -38h-12zM177 211.5q20 -23.5 56 -39.5q54 26 76 74l1 11
q0 31 -20.5 57.5t-54.5 26.5q-31 0 -53.5 -25t-26.5 -57q2 -24 22 -47.5z" />
    <glyph glyph-name="uni06A1.init.001" horiz-adv-x="471" 
d="M3 -12l-11 74l4 75h14q117 1 190 16t106 49q-28 -2 -43 -2q-72 0 -127.5 25t-79.5 73q-18 39 -18 86q0 57 24 111t67 88.5t95 34.5q59 0 106 -46.5t73.5 -122.5t26.5 -161q0 -139 -104 -219t-318 -81h-5zM199 349.5q39 -11.5 88 -11.5q13 0 39 2q-13 64 -44 107.5
t-69 43.5q-31 0 -53 -27.5t-22 -57.5q0 -16 7 -26q15 -19 54 -30.5z" />
    <glyph glyph-name="uni0643.init.alt" horiz-adv-x="461" 
d="M-5 -12l-8 74l8 74h34q82 0 139 18t76 43q-8 50 -58.5 116t-150.5 146l14 130l371 156l40 -119l-289 -123q30 -25 72.5 -73.5t77.5 -111.5t35 -120q0 -18 -5 -38q-21 -82 -108 -127t-214 -45h-34z" />
    <glyph glyph-name="uni0643.init.alt3" horiz-adv-x="460" 
d="M-5 -12l-8 74l8 74h34q84 0 139 13.5t74 36.5q-19 101 -207 249l13 130l372 157l40 -119l-289 -123q68 -57 125 -130t57 -150q0 -18 -5 -40q-21 -82 -107 -127t-212 -45h-34zM58 685l325 134l16 -48l-347 -146z" />
    <glyph glyph-name="uni0644.001" horiz-adv-x="689" 
d="M188 -229q-67 32 -106.5 92.5t-39.5 140.5q0 58 21 129.5t48 129.5l97 -44q-27 -59 -40.5 -102.5t-13.5 -88.5q0 -62 50 -101t131 -39q102 0 154 52t49 157q-5 173 -18 346.5t-26 269.5l125 27q17 -128 29 -636q2 -113 -34.5 -195t-107.5 -126t-171 -44q-80 0 -147 32z
" />
    <glyph glyph-name="uni0646.medi.001" horiz-adv-x="337" 
d="M198 65q-61 -65 -196 -65h-7v149h6q128 0 152 48l-29 132l100 34q22 -92 37 -150q10 -34 28 -49t48 -15h5l8 -75l-8 -74h-5q-92 0 -139 65zM110 581l31 31l92 -92q-11 -12 -69 -70l-23 -23l-92 93q31 30 61 61z" />
    <glyph glyph-name="uni0649.fina.001" horiz-adv-x="707" 
d="M194 -255q-71 34 -112 100t-41 159q0 61 21.5 132.5t48.5 127.5l96 -44q-26 -59 -40 -104t-14 -92q0 -83 52 -123.5t150 -40.5q54 0 102.5 12t83 30t47.5 36q-18 17 -76 48.5t-120 54.5l31 140q87 -17 151 -24.5t126 -7.5h15l8 -75l-8 -74h-15q-15 0 -45 2q37 -37 37 -72
q0 -50 -45 -101t-122.5 -84.5t-169.5 -33.5q-90 0 -161 34z" />
    <glyph glyph-name="uni064A.fina.001" horiz-adv-x="707" 
d="M194 -255q-71 34 -112 100t-41 159q0 61 21.5 132.5t48.5 127.5l96 -44q-26 -59 -40 -104t-14 -92q0 -83 52 -123.5t150 -40.5q54 0 102.5 12t83 30t47.5 36q-18 17 -76 48.5t-120 54.5l31 140q87 -17 151 -24.5t126 -7.5h15l8 -75l-8 -74h-15q-15 0 -45 2q37 -37 37 -72
q0 -50 -45 -101t-122.5 -84.5t-169.5 -33.5q-90 0 -161 34z" />
    <glyph glyph-name="uni064A.medi.001" horiz-adv-x="395" 
d="M254 69q-36 -36 -97.5 -52.5t-154.5 -16.5h-7v149h6q90 0 141.5 12.5t68.5 38.5l-28 129l99 34q22 -92 37 -150q10 -34 28 -49t48 -15h5l8 -75l-8 -74h-4q-95 0 -142 69zM19 -84l28 -28l57 -57l-85 -84l-84 84zM195 -84l28 -28l57 -57l-85 -84l-84 84z" />
    <glyph glyph-name="uni064A.medi.alt" horiz-adv-x="390" 
d="M-5 149h7q90 0 134 9.5t58 28.5t14 55q0 29 -10 95l103 20q14 -73 14 -165q4 -17 22 -30t52 -13h6l8 -75l-8 -74h-6q-40 0 -74 19t-58 50q-29 -37 -88 -53t-167 -16h-7v149zM82 -85l28 -28l57 -57l-85 -84l-84 84zM258 -85l28 -28l57 -57l-85 -84l-84 84z" />
    <glyph glyph-name="uni064A.medi.alt.001" horiz-adv-x="395" 
d="M254 69q-36 -36 -97.5 -52.5t-154.5 -16.5h-7v149h6q90 0 141.5 12.5t68.5 38.5l-28 129l99 34q22 -92 37 -150q10 -34 28 -49t48 -15h5l8 -75l-8 -74h-4q-95 0 -142 69zM82 -84l28 -28l57 -57l-85 -84l-84 84zM258 -84l28 -28l57 -57l-85 -84l-84 84z" />
    <glyph glyph-name="uni064A.init.alt" horiz-adv-x="414" 
d="M-11 74l8 75h84q99 0 140 17t41 52q-1 22 -23 84.5t-32 83.5l106 58q20 -42 40 -111.5t20 -121.5q-1 -102 -69 -156.5t-201 -54.5h-106zM81 -84l28 -28l57 -57l-85 -84l-84 84zM257 -84l28 -28l57 -57l-85 -84l-84 84z" />
    <glyph glyph-name="uni0626.fina.001" horiz-adv-x="707" 
d="M194 -255q-71 34 -112 100t-41 159q0 61 21.5 132.5t48.5 127.5l96 -44q-26 -59 -40 -104t-14 -92q0 -83 52 -123.5t150 -40.5q54 0 102.5 12t83 30t47.5 36q-18 17 -76 48.5t-120 54.5l31 140q87 -17 151 -24.5t126 -7.5h15l8 -75l-8 -74h-15q-15 0 -45 2q37 -37 37 -72
q0 -50 -45 -101t-122.5 -84.5t-169.5 -33.5q-90 0 -161 34zM147 386l56 17q-18 19 -22 43q-2 7 -2 21q0 34 21.5 63.5t53.5 37.5q14 3 26 3q29 0 70 -13l-17 -68q-28 11 -53 11q-24 0 -36.5 -13.5t-8.5 -28.5q2 -13 16.5 -23t37.5 -7l77 24v-67l-219 -68v68z" />
    <glyph glyph-name="uni0626.medi.001" horiz-adv-x="337" 
d="M198 65q-61 -65 -196 -65h-7v149h6q128 0 152 48l-29 132l100 34q22 -92 37 -150q10 -34 28 -49t48 -15h5l8 -75l-8 -74h-5q-92 0 -139 65zM15 488l56 17q-18 19 -22 43q-2 7 -2 21q0 34 21.5 63.5t53.5 37.5q12 3 26 3q26 0 70 -14l-17 -67q-28 11 -53 11q-9 0 -13 -1
q-18 -5 -26.5 -16.5t-5.5 -24.5q2 -13 16.5 -23t37.5 -7l77 24v-68l-219 -67v68z" />
    <glyph glyph-name="uni06CE.fina.001" horiz-adv-x="707" 
d="M194 -255q-71 34 -112 100t-41 159q0 61 21.5 132.5t48.5 127.5l96 -44q-26 -59 -40 -104t-14 -92q0 -83 52 -123.5t150 -40.5q54 0 102.5 12t83 30t47.5 36q-18 17 -76 48.5t-120 54.5l31 140q87 -17 151 -24.5t126 -7.5h15l8 -75l-8 -74h-15q-15 0 -45 2q37 -37 37 -72
q0 -50 -45 -101t-122.5 -84.5t-169.5 -33.5q-90 0 -161 34zM224 458q12 -16 28 -48t24 -58q7 27 23 61.5t28 53.5l45 -41q-18 -28 -38 -67t-32 -72l-48 -16q-11 31 -32.5 73.5t-40.5 71.5z" />
    <glyph glyph-name="uni06CE.medi.001" horiz-adv-x="395" 
d="M221 501q-19 -39 -32 -73l-49 -16q-10 32 -31.5 74t-41.5 70l44 42q12 -17 27.5 -48.5t23.5 -56.5q8 28 24 62t28 52l44 -40q-18 -27 -37 -66zM19 -84l28 -28l57 -57l-85 -84l-84 84zM-5 149h6q90 0 141.5 12.5t68.5 38.5l-28 129l99 34q22 -92 37 -150q10 -34 28 -49
t48 -15h5l8 -75l-8 -74h-4q-95 0 -142 69q-36 -36 -97.5 -52.5t-154.5 -16.5h-7v149zM195 -84l28 -28l57 -57l-85 -84l-84 84z" />
    <glyph glyph-name="uni06CE.medi.alt" horiz-adv-x="390" 
d="M225 501q-19 -39 -32 -73l-49 -16q-10 32 -31.5 74t-41.5 71l44 42q12 -16 27.5 -48.5t23.5 -57.5q8 28 24 62.5t28 52.5l44 -41q-18 -27 -37 -66zM-5 149h7q90 0 134 9.5t58 28.5t14 55q0 29 -10 95l103 20q14 -73 14 -165q4 -17 22 -30t52 -13h6l8 -75l-8 -74h-6
q-40 0 -74 19t-58 50q-29 -37 -88 -53t-167 -16h-7v149zM82 -85l28 -28l57 -57l-85 -84l-84 84zM258 -85l28 -28l57 -57l-85 -84l-84 84z" />
    <glyph glyph-name="uni06CE.medi.alt.001" horiz-adv-x="395" 
d="M220.5 498q-19.5 -39 -31.5 -72l-49 -16q-10 32 -31.5 73.5t-41.5 71.5l44 42q12 -17 27.5 -48.5t23.5 -56.5q8 28 24 62t28 52l44 -40q-18 -29 -37.5 -68zM-5 149h6q90 0 141.5 12.5t68.5 38.5l-28 129l99 34q22 -92 37 -150q10 -34 28 -49t48 -15h5l8 -75l-8 -74h-4
q-95 0 -142 69q-36 -36 -97.5 -52.5t-154.5 -16.5h-7v149zM82 -84l28 -28l57 -57l-85 -84l-84 84zM258 -84l28 -28l57 -57l-85 -84l-84 84z" />
    <glyph glyph-name="uni06CE.init.alt" horiz-adv-x="414" 
d="M226 610q-19 -39 -32 -73l-49 -16q-10 32 -31.5 74t-41.5 71l44 42q12 -16 27.5 -48.5t23.5 -57.5q8 28 24 62.5t28 52.5l44 -41q-18 -27 -37 -66zM-3 149h84q99 0 140 17t41 52q-1 22 -23 84.5t-32 83.5l106 58q20 -42 40 -111.5t20 -121.5q-1 -102 -69 -156.5
t-201 -54.5h-106l-8 74zM81 -84l28 -28l57 -57l-85 -84l-84 84zM257 -84l28 -28l57 -57l-85 -84l-84 84z" />
    <glyph glyph-name="uni06CC.fina.001" horiz-adv-x="707" 
d="M194 -255q-71 34 -112 100t-41 159q0 61 21.5 132.5t48.5 127.5l96 -44q-26 -59 -40 -104t-14 -92q0 -83 52 -123.5t150 -40.5q54 0 102.5 12t83 30t47.5 36q-18 17 -76 48.5t-120 54.5l31 140q87 -17 151 -24.5t126 -7.5h15l8 -75l-8 -74h-15q-15 0 -45 2q37 -37 37 -72
q0 -50 -45 -101t-122.5 -84.5t-169.5 -33.5q-90 0 -161 34z" />
    <glyph glyph-name="uni06CC.medi.001" horiz-adv-x="395" 
d="M254 69q-36 -36 -97.5 -52.5t-154.5 -16.5h-7v149h6q90 0 141.5 12.5t68.5 38.5l-28 129l99 34q22 -92 37 -150q10 -34 28 -49t48 -15h5l8 -75l-8 -74h-4q-95 0 -142 69zM19 -84l28 -28l57 -57l-85 -84l-84 84zM195 -84l28 -28l57 -57l-85 -84l-84 84z" />
    <glyph glyph-name="uni06CC.medi.alt" horiz-adv-x="390" 
d="M-5 149h7q90 0 134 9.5t58 28.5t14 55q0 29 -10 95l103 20q14 -73 14 -165q4 -17 22 -30t52 -13h6l8 -75l-8 -74h-6q-40 0 -74 19t-58 50q-29 -37 -88 -53t-167 -16h-7v149zM82 -85l28 -28l57 -57l-85 -84l-84 84zM258 -85l28 -28l57 -57l-85 -84l-84 84z" />
    <glyph glyph-name="uni06CC.medi.alt.001" horiz-adv-x="395" 
d="M254 69q-36 -36 -97.5 -52.5t-154.5 -16.5h-7v149h6q90 0 141.5 12.5t68.5 38.5l-28 129l99 34q22 -92 37 -150q10 -34 28 -49t48 -15h5l8 -75l-8 -74h-4q-95 0 -142 69zM82 -84l28 -28l57 -57l-85 -84l-84 84zM258 -84l28 -28l57 -57l-85 -84l-84 84z" />
    <glyph glyph-name="uni06CC.init.alt" horiz-adv-x="414" 
d="M-11 74l8 75h84q99 0 140 17t41 52q-1 22 -23 84.5t-32 83.5l106 58q20 -42 40 -111.5t20 -121.5q-1 -102 -69 -156.5t-201 -54.5h-106zM81 -84l28 -28l57 -57l-85 -84l-84 84zM257 -84l28 -28l57 -57l-85 -84l-84 84z" />
    <glyph glyph-name="uni06D2.fina.alt" horiz-adv-x="460" 
d="M53 -141q0 77 45 143.5t123.5 106.5t174.5 40h69l8 -75l-8 -74h-69q-68 0 -120.5 -19t-82 -42.5t-31.5 -33.5q3 -3 25 -9.5t58 -11.5t81 -5l121 1l-51 -149l-87 -1q-94 0 -151.5 17t-96.5 52q-8 32 -8 60z" />
    <glyph glyph-name="uni06D3.fina.alt" horiz-adv-x="460" 
d="M53 -141q0 77 45 143.5t123.5 106.5t174.5 40h69l8 -75l-8 -74h-69q-68 0 -120.5 -19t-82 -42.5t-31.5 -33.5q3 -3 25 -9.5t58 -11.5t81 -5l121 1l-51 -149l-87 -1q-94 0 -151.5 17t-96.5 52q-8 32 -8 60zM98 233l56 17q-18 19 -22 43q-2 7 -2 21q0 34 21.5 63.5
t53.5 37.5q14 3 26 3q29 0 70 -13l-17 -68q-28 11 -53 11q-22 0 -34 -11t-12 -26q0 -13 14.5 -25.5t40.5 -9.5l77 24v-67l-219 -68v68z" />
    <glyph glyph-name="uni06D3.fina.alt2" horiz-adv-x="413" 
d="M51 -141q0 76 45.5 143t125 107t175.5 40h21l8 -75l-8 -74h-21q-69 0 -121 -19t-82 -42.5t-33 -34.5q10 -6 60.5 -15.5t132.5 -9.5q105 0 239 3l-51 -149q-83 -3 -188 -3q-130 0 -196.5 17t-98.5 52q-8 32 -8 60zM112 246l56 17q-18 19 -22 43q-2 7 -2 21q0 34 21.5 63.5
t53.5 37.5q12 3 26 3q26 0 70 -14l-17 -67q-28 11 -53 11q-9 0 -13 -1q-18 -5 -26.5 -16.5t-5.5 -24.5q2 -13 16.5 -23t37.5 -7l77 24v-68l-219 -67v68z" />
    <glyph glyph-name="uni0640.001" horiz-adv-x="42" 
d="M-3 0l-8 74l8 75h49v-149h-49z" />
    <glyph glyph-name="uni06B50627" horiz-adv-x="589" 
d="M546 300q-1 -103 -63 -176t-163.5 -111t-221.5 -42l-35 137q44 3 88 9q11 31 11 69q0 128 -118 394l105 73q59 -121 89.5 -228t30.5 -190q0 -54 -14 -98q80 21 125 59.5t45 101.5q-1 100 -9 188t-24 227l125 27q32 -243 29 -440zM406 957q12 -17 27.5 -48.5t23.5 -56.5
q8 27 24 61t28 53l45 -40q-18 -28 -38 -67t-32 -72l-48 -16q-11 32 -32.5 74t-41.5 70z" />
    <glyph glyph-name="uni06B50627.fina" horiz-adv-x="658" 
d="M480 120q-60 -69 -161 -107t-221 -42l-35 137q44 3 88 9q11 31 11 69q0 128 -118 394l105 73q59 -121 89.5 -228t30.5 -190q0 -54 -14 -98q80 21 125 59.5t45 101.5q-1 100 -9 188t-24 227l125 27q32 -243 29 -440v-8q3 -56 13 -86.5t32 -43.5t62 -13h11v-149h-13
q-128 0 -171 120zM406 957q12 -16 28 -47.5t24 -57.5q7 27 22.5 61t28.5 53l45 -40q-18 -28 -38 -67t-32 -72l-48 -16q-11 32 -32.5 74t-40.5 70z" />
    <glyph glyph-name="uni0664.ss03" horiz-adv-x="680" 
d="M134 80q0 161 -17 291q-22 163 -75 285l111 67q28 -57 48 -130q13 -39 31 -69q7 53 38 99t78.5 73t101.5 27q90 0 185 -77l-50 -102q-69 29 -123 29q-55 0 -91.5 -25.5t-32.5 -63.5q2 -29 36.5 -50.5t89.5 -21.5q69 0 155 36l31 -131q-44 -23 -97.5 -36.5t-108.5 -13.5
q-116 0 -201 63q7 -88 7 -202q0 -42 -2 -128h-115q1 27 1 80z" />
    <glyph glyph-name="uni0665.ss03" horiz-adv-x="680" 
d="M108.5 419.5q43.5 89.5 105.5 168.5q-22 14 -33 20l73 127q158 -111 262 -242t104 -287q0 -65 -20 -113.5t-56 -75t-82 -26.5q-33 0 -64 15.5t-54 49.5q-39 -65 -119 -65q-78 0 -124.5 60t-46.5 157q0 12 2 40q9 82 52.5 171.5zM163 226q0 -42 18 -64t50 -22
q35 0 50 34.5t15 68.5l90 15q3 -43 16.5 -80.5t47.5 -37.5q64 0 64 87q0 75 -56 150.5t-150 146.5q-123 -137 -142 -265q-3 -18 -3 -33z" />
    <glyph glyph-name="uni0666.ss03" horiz-adv-x="680" 
d="M255 293q-52 27 -81.5 79.5t-29.5 112.5q0 52 22.5 102.5t68.5 87.5t112 47q16 2 25 2q42 0 86 -17t70 -38l-49 -102q-40 17 -84 17q-22 0 -34 -2q-49 -6 -79 -35.5t-30 -61.5q1 -23 28.5 -41.5t71.5 -18.5q50 0 105 26q53 30 103 50l25 -147q-117 -44 -224.5 -141.5
t-164.5 -237.5l-102 50q50 151 161 268z" />
    <glyph glyph-name="uni06F0.ss03" horiz-adv-x="680" 
d="M248.5 53q-40.5 24 -64.5 64t-24 87t24 87.5t64.5 64t87.5 23.5q48 0 88.5 -23.5t64.5 -63.5t24 -88q0 -47 -24 -87t-64.5 -64t-88.5 -24q-47 0 -87.5 24zM291 157q19 -19 45 -19q27 0 45.5 19t18.5 47t-18.5 46.5t-45.5 18.5q-26 0 -45 -19t-19 -46q0 -28 19 -47z" />
    <glyph glyph-name="uni06F1.ss03" horiz-adv-x="680" 
d="M296 80q0 161 -17 291q-24 168 -75 285l111 67q63 -128 84 -333q13 -117 13 -269q0 -41 -2 -121h-115q1 27 1 80z" />
    <glyph glyph-name="uni06F2.ss03" horiz-adv-x="680" 
d="M209 80q0 161 -17 291q-22 163 -75 285l111 67q16 -33 31 -75q17 -45 30.5 -69t36 -38.5t59.5 -14.5q96 0 96 126q0 24 -3 49l105 21q8 -46 8 -85q0 -71 -22.5 -130t-68.5 -94.5t-113 -35.5q-39 0 -74 16v-3q12 -120 12 -267q0 -41 -2 -123h-115q1 27 1 80z" />
    <glyph glyph-name="uni06F3.ss03" horiz-adv-x="680" 
d="M478 567q15 -35 43 -35q18 0 28.5 19t10.5 55t-12 87l102 34q18 -66 18 -127q0 -93 -39.5 -152.5t-106.5 -59.5q-65 0 -110 71q-21 -39 -51 -60.5t-66 -21.5q-34 0 -63 12q12 -120 12 -266q0 -41 -2 -123h-115q1 27 1 80q0 161 -17 291q-22 166 -74 285l111 67
q12 -25 29 -71q27 -70 48.5 -98.5t59.5 -28.5q31 0 51 28t20 82q0 16 -1 25v4l100 17q8 -79 23 -114z" />
    <glyph glyph-name="uni06F4.ss03" horiz-adv-x="680" 
d="M133 80q0 161 -17 291q-24 168 -75 285l111 67q30 -61 47 -129q13 -37 32 -70q7 53 38 99t78.5 73t101.5 27q90 0 185 -77l-50 -102q-69 29 -123 29q-55 0 -91.5 -25.5t-32.5 -63.5q2 -30 36 -51t90 -21q69 0 155 36l31 -131q-44 -22 -98 -36t-109 -14q-116 0 -200 63
q7 -88 7 -202q0 -42 -2 -128h-115q1 27 1 80z" />
    <glyph glyph-name="uni06F5.ss03" horiz-adv-x="680" 
d="M109.5 419.5q43.5 89.5 105.5 168.5q-22 14 -33 20l73 127q158 -112 261.5 -242t103.5 -285q0 -65 -20 -114.5t-56 -76t-82 -26.5q-73 0 -117 65q-40 -65 -119 -65q-78 0 -124.5 60t-46.5 155q0 28 2 42q9 82 52.5 171.5zM163 227q0 -42 18.5 -64.5t50.5 -22.5
q35 0 50 35t14 68l91 15q3 -43 16 -80.5t47 -37.5q65 0 65 87q0 139 -206 296q-122 -135 -143 -264q-3 -18 -3 -32z" />
    <glyph glyph-name="uni06F6.ss03" horiz-adv-x="680" 
d="M257 293q-52 27 -81.5 79.5t-29.5 112.5q0 52 22.5 102.5t68.5 87.5t112 47q16 2 25 2q42 0 86 -17t70 -38l-48 -102q-42 17 -85 17q-22 0 -34 -2q-50 -6 -79.5 -35.5t-28.5 -61.5q0 -23 27.5 -41.5t71.5 -18.5q50 0 105 26q53 30 103 50l26 -147q-117 -44 -225 -141.5
t-165 -237.5l-102 50q50 151 161 268z" />
    <glyph glyph-name="uni06F7.ss03" horiz-adv-x="680" 
d="M537.5 468q-50.5 -109 -94.5 -234t-62 -234h-108q-13 108 -56.5 233t-96 233.5t-94.5 174.5l105 78q48 -77 102 -203.5t95 -267.5q41 144 94 270.5t101 200.5l105 -78q-40 -64 -90.5 -173z" />
    <glyph glyph-name="uni06F8.ss03" horiz-adv-x="680" 
d="M114.5 230q50.5 109 94.5 234.5t62 233.5h108q13 -108 56.5 -233t96 -233.5t94.5 -174.5l-105 -78q-48 76 -102 203t-95 268q-41 -143 -94 -269.5t-101 -201.5l-105 78q40 64 90.5 173z" />
    <glyph glyph-name="uni06F9.ss03" horiz-adv-x="680" 
d="M411.5 104q-15.5 89 -24.5 191q-46 -12 -95 -12q-86 0 -135 51.5t-49 144.5q0 56 24.5 113t67 94.5t93.5 37.5q74 0 114.5 -54t54.5 -114.5t25 -146.5l5 -37q17 -125 31.5 -207t33.5 -128l-111 -68q-19 46 -34.5 135zM234.5 447.5q20.5 -16.5 62.5 -16.5q45 0 80 13
q-8 59 -30 100.5t-59 41.5q-31 0 -52.5 -29.5t-21.5 -67.5q0 -25 20.5 -41.5z" />
    <glyph glyph-name="uni06F4.urdu" horiz-adv-x="686" 
d="M142 80q0 161 -17 291q-22 163 -75 285l111 67q28 -57 48 -130q13 -39 31 -69q7 53 38 99t78.5 73t101.5 27q90 0 185 -77l-50 -102q-69 29 -122 29q-54 0 -89.5 -23.5t-35.5 -60.5q0 -31 34.5 -54t92.5 -23q68 0 154 36l31 -131q-44 -23 -97.5 -36.5t-108.5 -13.5
q-116 0 -201 63q7 -88 7 -202q0 -42 -2 -128h-115q1 27 1 80z" />
    <glyph glyph-name="uni06F7.urdu" horiz-adv-x="644" 
d="M532.5 463q-50.5 -109 -94.5 -234t-62 -234h-108q-13 108 -56.5 233t-96 233.5t-94.5 175.5l105 77q48 -75 101.5 -202t95.5 -268q41 143 94 269.5t101 200.5l105 -77q-40 -65 -90.5 -174z" />
    <glyph glyph-name="zero.ss02" horiz-adv-x="478" 
d="M142 53q-40 24 -64 64t-24 87t24 87.5t64 64t87 23.5q48 0 88.5 -23.5t64.5 -63.5t24 -88q0 -47 -24 -87t-64.5 -64t-88.5 -24q-47 0 -87 24zM184.5 157q18.5 -19 44.5 -19q27 0 45.5 19t18.5 47t-18.5 46.5t-45.5 18.5q-26 0 -44.5 -19t-18.5 -46q0 -28 18.5 -47z" />
    <glyph glyph-name="one.ss02" horiz-adv-x="348" 
d="M142 80q0 161 -17 291q-22 163 -75 285l111 67q62 -126 85 -333q12 -120 12 -267q0 -41 -2 -123h-115q1 27 1 80z" />
    <glyph glyph-name="two.ss02" horiz-adv-x="552" 
d="M139 80q0 161 -17 291q-22 166 -74 285l111 67q17 -35 33 -82q16 -42 29.5 -65t35.5 -36.5t58 -13.5q96 0 96 125q0 23 -3 50l105 21q9 -43 9 -87q0 -70 -23 -128.5t-69.5 -94t-112.5 -35.5q-39 0 -74 16v-3q12 -113 12 -282q0 -72 -1 -108h-116q1 27 1 80z" />
    <glyph glyph-name="three.ss02" horiz-adv-x="709" 
d="M489 567q15 -35 43 -35q18 0 28.5 19t10.5 55t-12 87l102 34q18 -66 18 -127q0 -93 -39.5 -152.5t-106.5 -59.5q-65 0 -110 71q-21 -39 -51 -60.5t-66 -21.5q-34 0 -63 12q12 -113 12 -282q0 -72 -1 -107h-116q1 27 1 80q0 161 -17 291q-22 166 -74 285l111 67
q20 -40 33 -83q25 -62 46.5 -88.5t57.5 -26.5q31 0 51 28t20 82q0 16 -1 25v4l100 17q8 -79 23 -114z" />
    <glyph glyph-name="four.ss02" horiz-adv-x="686" 
d="M142 80q0 161 -17 291q-22 163 -75 285l111 67q28 -57 48 -130q13 -39 31 -69q7 53 38 99t78.5 73t101.5 27q90 0 185 -77l-50 -102q-69 29 -122 29q-54 0 -89.5 -23.5t-35.5 -60.5q0 -31 34.5 -54t92.5 -23q68 0 154 36l31 -131q-44 -23 -97.5 -36.5t-108.5 -13.5
q-116 0 -201 63q7 -88 7 -202q0 -42 -2 -128h-115q1 27 1 80z" />
    <glyph glyph-name="five.ss02" horiz-adv-x="642" 
d="M92.5 419.5q43.5 89.5 105.5 168.5q-22 14 -33 20l73 127q158 -111 262 -242t104 -287q0 -65 -20 -113.5t-56 -75t-82 -26.5q-33 0 -64 15.5t-54 49.5q-39 -65 -119 -65q-78 0 -124.5 60t-46.5 157q0 12 2 40q9 82 52.5 171.5zM147 226q0 -42 18 -64t50 -22q35 0 50 34.5
t15 68.5l90 15q3 -43 16.5 -80.5t47.5 -37.5q64 0 64 87q0 75 -56 150.5t-150 146.5q-123 -137 -142 -265q-3 -18 -3 -33z" />
    <glyph glyph-name="six.ss02" horiz-adv-x="569" 
d="M200 293q-52 27 -81.5 79.5t-29.5 112.5q0 52 22.5 102.5t68.5 87.5t112 47q16 2 25 2q42 0 86 -17t70 -38l-49 -102q-40 17 -84 17q-22 0 -34 -2q-50 -6 -79.5 -35.5t-28.5 -61.5q0 -23 27.5 -41.5t71.5 -18.5q50 0 105 26q53 30 103 50l26 -147q-117 -44 -225 -141.5
t-165 -237.5l-102 50q50 151 161 268z" />
    <glyph glyph-name="seven.ss02" horiz-adv-x="644" 
d="M532.5 468q-50.5 -109 -94.5 -234t-62 -234h-108q-13 108 -56.5 233t-96 233.5t-94.5 174.5l105 78q48 -77 102 -203.5t95 -267.5q41 144 94 270.5t101 200.5l105 -78q-40 -64 -90.5 -173z" />
    <glyph glyph-name="eight.ss02" horiz-adv-x="644" 
d="M111.5 229q50.5 109 94.5 235t62 234h108q13 -108 56.5 -233t96 -233.5t94.5 -174.5l-105 -78q-49 77 -103 204t-94 268q-41 -143 -94 -270t-101 -202l-105 78q40 63 90.5 172z" />
    <glyph glyph-name="nine.ss02" horiz-adv-x="542" 
d="M342.5 103.5q-15.5 88.5 -24.5 191.5q-46 -12 -95 -12q-86 0 -135 51.5t-49 144.5q0 56 24.5 113t67 94.5t93.5 37.5q74 0 114.5 -53.5t53.5 -112t26 -149.5l5 -38q17 -124 31 -206t33 -128l-110 -68q-19 46 -34.5 134.5zM165 447q20 -16 63 -16q46 0 79 13
q-7 59 -29 100.5t-59 41.5q-31 0 -52.5 -29.5t-21.5 -67.5q0 -26 20 -42z" />
    <glyph glyph-name="zero.ss03" horiz-adv-x="680" 
d="M248.5 53q-40.5 24 -64.5 64t-24 87t24 87.5t64.5 64t87.5 23.5q48 0 88.5 -23.5t64.5 -63.5t24 -88q0 -47 -24 -87t-64.5 -64t-88.5 -24q-47 0 -87.5 24zM291 157q19 -19 45 -19q27 0 45.5 19t18.5 47t-18.5 46.5t-45.5 18.5q-26 0 -45 -19t-19 -46q0 -28 19 -47z" />
    <glyph glyph-name="one.ss03" horiz-adv-x="680" 
d="M296 80q0 161 -17 291q-24 168 -75 285l111 67q63 -128 84 -333q13 -117 13 -269q0 -41 -2 -121h-115q1 27 1 80z" />
    <glyph glyph-name="two.ss03" horiz-adv-x="680" 
d="M209 80q0 161 -17 291q-22 163 -75 285l111 67q16 -33 31 -75q17 -45 30.5 -69t36 -38.5t59.5 -14.5q96 0 96 126q0 24 -3 49l105 21q8 -46 8 -85q0 -71 -22.5 -130t-68.5 -94.5t-113 -35.5q-39 0 -74 16v-3q12 -120 12 -267q0 -41 -2 -123h-115q1 27 1 80z" />
    <glyph glyph-name="three.ss03" horiz-adv-x="680" 
d="M478 567q15 -35 43 -35q18 0 28.5 19t10.5 55t-12 87l102 34q18 -66 18 -127q0 -93 -39.5 -152.5t-106.5 -59.5q-65 0 -110 71q-21 -39 -51 -60.5t-66 -21.5q-34 0 -63 12q12 -120 12 -266q0 -41 -2 -123h-115q1 27 1 80q0 161 -17 291q-22 166 -74 285l111 67
q12 -25 29 -71q27 -70 48.5 -98.5t59.5 -28.5q31 0 51 28t20 82q0 16 -1 25v4l100 17q8 -79 23 -114z" />
    <glyph glyph-name="four.ss03" horiz-adv-x="680" 
d="M133 80q0 161 -17 291q-24 168 -75 285l111 67q30 -61 47 -129q13 -37 32 -70q7 53 38 99t78.5 73t101.5 27q90 0 185 -77l-50 -102q-69 29 -123 29q-55 0 -91.5 -25.5t-32.5 -63.5q2 -30 36 -51t90 -21q69 0 155 36l31 -131q-44 -22 -98 -36t-109 -14q-116 0 -200 63
q7 -88 7 -202q0 -42 -2 -128h-115q1 27 1 80z" />
    <glyph glyph-name="five.ss03" horiz-adv-x="680" 
d="M109.5 419.5q43.5 89.5 105.5 168.5q-22 14 -33 20l73 127q158 -112 261.5 -242t103.5 -285q0 -65 -20 -114.5t-56 -76t-82 -26.5q-73 0 -117 65q-40 -65 -119 -65q-78 0 -124.5 60t-46.5 155q0 28 2 42q9 82 52.5 171.5zM163 227q0 -42 18.5 -64.5t50.5 -22.5
q35 0 50 35t14 68l91 15q3 -43 16 -80.5t47 -37.5q65 0 65 87q0 139 -206 296q-122 -135 -143 -264q-3 -18 -3 -32z" />
    <glyph glyph-name="six.ss03" horiz-adv-x="680" 
d="M257 293q-52 27 -81.5 79.5t-29.5 112.5q0 52 22.5 102.5t68.5 87.5t112 47q16 2 25 2q42 0 86 -17t70 -38l-48 -102q-42 17 -85 17q-22 0 -34 -2q-50 -6 -79.5 -35.5t-28.5 -61.5q0 -23 27.5 -41.5t71.5 -18.5q50 0 105 26q53 30 103 50l26 -147q-117 -44 -225 -141.5
t-165 -237.5l-102 50q50 151 161 268z" />
    <glyph glyph-name="seven.ss03" horiz-adv-x="680" 
d="M537.5 468q-50.5 -109 -94.5 -234t-62 -234h-108q-13 108 -56.5 233t-96 233.5t-94.5 174.5l105 78q48 -77 102 -203.5t95 -267.5q41 144 94 270.5t101 200.5l105 -78q-40 -64 -90.5 -173z" />
    <glyph glyph-name="eight.ss03" horiz-adv-x="680" 
d="M114.5 230q50.5 109 94.5 234.5t62 233.5h108q13 -108 56.5 -233t96 -233.5t94.5 -174.5l-105 -78q-48 76 -102 203t-95 268q-41 -143 -94 -269.5t-101 -201.5l-105 78q40 64 90.5 173z" />
    <glyph glyph-name="nine.ss03" horiz-adv-x="680" 
d="M411.5 104q-15.5 89 -24.5 191q-46 -12 -95 -12q-86 0 -135 51.5t-49 144.5q0 56 24.5 113t67 94.5t93.5 37.5q74 0 114.5 -54t54.5 -114.5t25 -146.5l5 -37q17 -125 31.5 -207t33.5 -128l-111 -68q-19 46 -34.5 135zM234.5 447.5q20.5 -16.5 62.5 -16.5q45 0 80 13
q-8 59 -30 100.5t-59 41.5q-31 0 -52.5 -29.5t-21.5 -67.5q0 -25 20.5 -41.5z" />
    <glyph glyph-name="zero.dnom" horiz-adv-x="372" 
d="M296 36q-39 -41 -110 -41t-110.5 40.5t-40.5 114.5v81q0 77 40 118.5t110 41.5t110 -42t40 -117v-79q0 -76 -39 -117zM145 89.5q13 -18.5 41 -18.5q51 0 53 71v93q0 79 -54 79q-50 0 -53 -73v-93q0 -40 13 -58.5z" />
    <glyph glyph-name="one.dnom" horiz-adv-x="372" 
d="M256 0h-96v273l-94 -21v74l180 58h10v-384z" />
    <glyph glyph-name="two.dnom" horiz-adv-x="372" 
d="M337 0h-300v64l142 129q25 22 38 43t13 34q0 21 -13 32.5t-37 11.5q-26 0 -40.5 -15.5t-14.5 -40.5l-94 3q0 58 40 94t105 36q71 0 110.5 -31t39.5 -89q0 -43 -33 -82q-23 -28 -72 -64l-58 -49h174v-76z" />
    <glyph glyph-name="three.dnom" horiz-adv-x="372" 
d="M133 228h42q29 0 44 12t15 33q0 19 -14 30t-41 11q-22 0 -37 -9t-15 -24h-96q0 49 40.5 79.5t105.5 30.5q71 0 112 -30t41 -81q0 -28 -17 -49t-50 -33q74 -21 74 -90q0 -51 -44 -82t-116 -31q-69 0 -111 32.5t-42 86.5h97q0 -18 17 -30.5t45 -12.5t42.5 12.5t14.5 32.5
q0 48 -63 48h-44v64z" />
    <glyph glyph-name="four.dnom" horiz-adv-x="372" 
d="M299 157h44v-78h-44v-79h-97v79h-170l-6 62l176 244h97v-228zM202 157v112l-8 -12l-75 -100h83z" />
    </font>
</defs>
</svg>
