<?xml version="1.0" standalone="no"?>
<!DOCTYPE svg PUBLIC "-//W3C//DTD SVG 1.1//EN" "http://www.w3.org/Graphics/SVG/1.1/DTD/svg11.dtd" >
<svg xmlns="http://www.w3.org/2000/svg" xmlns:xlink="http://www.w3.org/1999/xlink" version="1.1">
<metadata>
Created by FontForge 20170731 at Wed Apr  6 17:12:56 2022
 By Aleksey,,,
Copyright (c) 2021 by www.fontiran.com (Moslem Ebrahimi). All rights reserved.
</metadata>
<defs>
<font id="IRANSansXFaNum-UltraLight" horiz-adv-x="0" >
  <font-face 
    font-family="IRANSansXFaNum UltraLight"
    font-weight="200"
    font-stretch="normal"
    units-per-em="1000"
    panose-1="0 0 0 0 0 0 0 0 0 0"
    ascent="800"
    descent="-200"
    x-height="528"
    cap-height="711"
    bbox="-65 -478 2149 993"
    underline-thickness="13"
    underline-position="-231"
    unicode-range="U+000D-FEFF"
  />
<missing-glyph horiz-adv-x="255" 
d="M38 429h179v-433h-179v433zM208 4v417h-161v-417h161z" />
    <glyph glyph-name="uni06AA" unicode="&#x6a9;&#x621;&#x621;" horiz-adv-x="1208" 
d="M145 36q-94 45 -103 134q-1 9 -1 26q0 39 10 80t25 75l41 -21q-30 -72 -30 -132q0 -15 1 -22q8 -65 87.5 -99t227.5 -34h10q260 0 454 7.5t246 21.5q3 18 3 33q0 46 -33 71.5t-107 37t-206 14.5q-196 5 -277 11t-116 23q-1 6 -1 17q0 62 43.5 121t118 101.5t164.5 59.5
l12 -44q-81 -18 -145.5 -53.5t-103.5 -79.5t-47 -85q31 -10 87 -13.5t199 -6.5l121 -3q180 -4 256.5 -43t76.5 -116q0 -38 -8 -57.5t-27 -28.5t-56 -14q-79 -11 -245.5 -18t-408.5 -7h-4q-170 -1 -264 44z" />
    <glyph glyph-name="uni06BE" unicode="&#x647;&#x621;&#x621;" horiz-adv-x="653" 
d="M223 64q-47 29 -72.5 65t-21.5 76q6 50 33 92.5t65 64.5l-46 14l15 48q220 -64 317.5 -140.5t97.5 -159.5q0 -22 -6 -43q-11 -40 -53 -60t-102 -20q-76 0 -161 31q-89 -32 -246 -32l17 51q98 0 163 13zM204.5 139.5q33.5 -31.5 89.5 -53.5q45 20 68.5 51.5t23.5 74.5
q0 49 -28 84.5t-71 35.5q-26 0 -51.5 -18t-42 -47.5t-19.5 -61.5q-3 -34 30.5 -65.5zM457 52q44 0 73 12.5t35 38.5q2 12 2 18q0 40 -37.5 83t-114.5 83q15 -34 15 -75q0 -93 -75 -146q54 -14 102 -14z" />
    <glyph glyph-name="uni06C0" unicode="&#x647;&#x654;" horiz-adv-x="409" 
d="M86 40q-45 41 -45 104q0 17 5 39q23 96 115 183q-7 5 -17 11t-23 14l24 42q119 -71 173.5 -135.5t54.5 -139.5q0 -14 -1 -22q-6 -60 -53 -98.5t-113 -38.5q-75 0 -120 41zM87 149q0 -46 31.5 -73t87.5 -27q49 0 83.5 26t38.5 67q5 53 -25 99.5t-103 98.5
q-46 -39 -74.5 -81.5t-36.5 -84.5q-2 -9 -2 -25zM112 510q39 0 67 10.5t42 25t15 28.5q0 4 -49 18q-36 10 -53 20t-17 31q0 33 17 60t44 43t55 16q26 0 46 -10l-15 -33q-12 6 -29 6q-32 0 -58 -23t-29 -56q0 -2 11 -6t21.5 -7t16.5 -5q37 -10 54 -20t17 -30q0 -26 -18 -50.5
t-54.5 -39.5t-88.5 -15z" />
    <glyph glyph-name="uni06D2" unicode="&#x649;&#x621;&#x621;" horiz-adv-x="931" 
d="M44 77q0 53 45.5 116t107.5 107.5t105 44.5q30 0 56 -23.5t45 -57.5l-34 -26q-14 24 -32 40t-36 16q-33 0 -80.5 -35t-87 -82.5t-46.5 -77.5q11 -9 49.5 -20.5t101.5 -20.5t143 -9l90 -1q240 0 440 16l-19 -51q-204 -16 -441 -16h-70q-267 4 -336 66q-1 5 -1 14z" />
    <glyph glyph-name="uni06D3" unicode="&#x626;&#x621;&#x621;" horiz-adv-x="932" 
d="M44 77q0 53 45.5 116t107.5 107.5t105 44.5q30 0 56 -23.5t45 -57.5l-34 -26q-14 24 -32 40t-36 16q-33 0 -80.5 -35t-87 -82.5t-46.5 -77.5q11 -9 49.5 -20.5t101.5 -20.5t143 -9l90 -1q240 0 440 16l-19 -51q-204 -16 -441 -16h-70q-267 4 -336 66q-1 5 -1 14zM133 405
l71 24q-19 12 -30.5 30.5t-11.5 40.5q0 35 26.5 61t64.5 26q29 0 65 -13l-10 -36q-31 12 -55 12q-26 0 -42.5 -15t-16.5 -36q0 -17 18 -33t44 -20l85 28v-38l-208 -68v37z" />
    <glyph glyph-name="uni06C0.fina" unicode="&#xfeea;&#x654;" horiz-adv-x="457" arabic-form="final" 
d="M369.5 18q-33.5 18 -52.5 57q-58 -18 -111 -18q-77 0 -123.5 35.5t-39.5 96.5q6 57 68.5 106t160.5 80q-1 22 -5 59l47 9q13 -161 23 -261q8 -74 33 -102.5t83 -28.5h10l3 -26l-3 -25h-10q-50 0 -83.5 18zM86 449q38 0 66 10t42.5 24.5t15.5 28.5q0 6 -50 18
q-38 11 -54 21t-16 31q0 32 17.5 59.5t45 43.5t55.5 16q26 0 44 -11l-15 -33q-9 6 -29 6q-32 0 -58 -23t-28 -56q0 -3 14 -7.5t34 -10.5q36 -9 53.5 -19.5t17.5 -30.5q0 -26 -18 -50t-54 -39t-89 -15zM119.5 127.5q32.5 -19.5 84.5 -19.5q46 0 97 16q-4 16 -8 51
q-5 55 -16 150q-82 -26 -136 -67t-54 -78q0 -33 32.5 -52.5z" />
    <glyph glyph-name="uni06C1.fina" unicode="&#xfeea;&#x621;&#x621;" horiz-adv-x="507" arabic-form="final" 
d="M513 51l3 -26l-3 -25h-7q-93 0 -156.5 59.5t-104.5 145.5q-32 -11 -67 -42.5t-61 -78t-34 -99.5l-36 23q8 57 37 108t68.5 86.5t76.5 49.5q13 5 21 5q21 0 36 -26q38 -78 89 -129t131 -51h7z" />
    <glyph glyph-name="uni06C1.medi" unicode="&#xfeec;&#xfe8c;&#xfe8c;&#xfe8c;&#xfe8c;" horiz-adv-x="429" arabic-form="medial" 
d="M172 -121q-45 73 -55 166q-19 -22 -48 -33.5t-63 -11.5h-12v51h14q48 0 75 21t33 65l43 2q-5 -97 23.5 -176t84.5 -124q-5 25 -5 44q0 44 19 83t54 62t80 23h19l3 -26l-3 -25h-19q-54 0 -81.5 -34.5t-27.5 -86.5q0 -40 15 -79l-33 -29q-71 35 -116 108z" />
    <glyph glyph-name="uni06BE.fina" unicode="&#xfeea;&#x621;&#x621;&#x621;&#x621;" horiz-adv-x="528" arabic-form="final" 
d="M387.5 -229q-22.5 -9 -46.5 -9q-45 0 -89 27.5t-75 82.5t-38 131q-34 -2 -52 -2l-34 -1l-13 42l60 3q13 0 37 2q1 104 34 196.5t66 139.5l36 13q61 -34 96.5 -86.5t35.5 -109.5q0 -76 -55 -125q40 -13 83.5 -18.5t100.5 -5.5l3 -26l-3 -25q-79 0 -144 17q32 -32 49.5 -69
t17.5 -72q0 -47 -31 -79q-16 -17 -38.5 -26zM314 109q48 40 48 93q0 39 -26 77t-72 66q-29 -45 -54 -126t-26 -166q82 16 130 56zM217 -100q25 -45 59.5 -67.5t67.5 -22.5q34 0 53 21q15 16 15 44q0 40 -30.5 87.5t-81.5 80.5q-49 -25 -114 -34q6 -64 31 -109z" />
    <glyph glyph-name="uni06BE.medi" unicode="&#xfeec;&#xfe8c;&#xfe8c;&#xfe8c;" horiz-adv-x="591" arabic-form="medial" 
d="M457 53q27 5 45 17t22 32q2 12 2 18q0 40 -38.5 84t-117.5 85q16 -37 16 -75q0 -94 -77 -151q72 -17 121 -13l3 4q7 -1 24 -1zM-4 51h13q105 0 171 14q-47 29 -72.5 65t-21.5 75q5 50 32 92.5t66 65.5l-20 6l-26 7l15 48q414 -126 414 -300q0 -22 -6 -43q-4 -16 -15 -30
h51l2 -26l-2 -25q-83 0 -152 4q-19 -3 -40 -3q-79 0 -157 31q-87 -32 -239 -32h-13v51zM158 138.5q33 -31.5 89 -54.5q96 40 96 130q0 48 -28 83.5t-71 35.5q-26 0 -52 -18t-43.5 -48t-20.5 -62q-3 -35 30 -66.5z" />
    <glyph glyph-name="uni06D2.fina" unicode="&#xfbfd;&#x621;&#x621;" horiz-adv-x="407" arabic-form="final" 
d="M47 -119q0 50 35.5 88.5t97.5 60t140 21.5h88l3 -26l-3 -25h-88q-62 0 -113.5 -14.5t-82.5 -37.5t-35 -47q21 -15 83.5 -27t170.5 -12q212 0 338 7l-18 -50q-107 -8 -320 -8q-126 0 -191 13.5t-104 39.5q-1 6 -1 17z" />
    <glyph glyph-name="uni06D3.fina" unicode="&#xfe8a;&#x621;&#x621;" horiz-adv-x="407" arabic-form="final" 
d="M47 -119q0 50 35.5 88.5t97.5 60t140 21.5h88l3 -26l-3 -25h-88q-62 0 -113.5 -14.5t-82.5 -37.5t-35 -47q21 -15 83.5 -27t170.5 -12q212 0 338 7l-18 -50q-107 -8 -320 -8q-126 0 -191 13.5t-104 39.5q-1 6 -1 17zM106 128l71 23q-20 13 -31 31.5t-11 39.5
q0 29 18.5 53.5t47.5 31.5q12 3 25 3q29 0 65 -13l-10 -36q-3 1 -20.5 6.5t-35.5 5.5q-25 0 -41.5 -16t-16.5 -36q0 -17 17 -33t44 -20l86 28v-37l-208 -69v38z" />
    <glyph glyph-name="uni06440622" unicode="&#xfedf;&#xfe82;" horiz-adv-x="524" arabic-form="isolated" 
d="M471.5 456.5q6.5 -87.5 6.5 -196.5q0 -137 -112.5 -201t-269.5 -75l-11 49q55 5 96 13q7 32 7 63q0 85 -32.5 207.5t-81.5 242.5l41 26q54 -127 86 -253.5t32 -214.5q0 -38 -5 -61q205 54 202 205q-2 110 -8 195.5t-17 199.5l46 10q14 -122 20.5 -209.5zM49.5 675
q24.5 22 55.5 22q17 0 30 -3.5t33 -11.5q16 -7 27.5 -10.5t24.5 -3.5q19 0 40 12t34 31l25 -22q-18 -27 -45 -43t-54 -16q-17 0 -30 3.5t-31 11.5q-16 7 -27.5 10.5t-25.5 3.5q-22 0 -39.5 -15.5t-27.5 -45.5l-29 14q15 41 39.5 63z" />
    <glyph glyph-name="uni06440622.fina" unicode="&#xfee0;&#xfe82;" horiz-adv-x="600" arabic-form="final" 
d="M499 39q-35 39 -48 106q-43 -77 -140 -115t-214 -46l-12 49q55 5 97 13q7 32 7 63q0 85 -32.5 207.5t-81.5 242.5l40 26q55 -128 87 -255t32 -216q0 -30 -5 -58q205 54 202 205q-2 111 -8 197.5t-18 197.5l47 10q13 -117 19.5 -205t7.5 -198v-1v-1v-1q1 -102 25.5 -155.5
t89.5 -53.5h10v-51h-10q-60 0 -95 39zM49.5 675q24.5 22 55.5 22q16 0 29 -3.5t33 -11.5q18 -7 29 -10.5t24 -3.5q19 0 39.5 12t33.5 31l26 -22q-19 -27 -46 -43t-53 -16q-17 0 -30 3.5t-31 11.5q-16 7 -27.5 10.5t-25.5 3.5q-22 0 -39.5 -15.5t-28.5 -45.5l-29 14
q16 41 40.5 63z" />
    <glyph glyph-name="uni06440623" unicode="&#xfedf;&#xfe84;" horiz-adv-x="515" arabic-form="isolated" 
d="M463 454.5q6 -86.5 6 -194.5q0 -137 -112 -201t-270 -75l-11 49q55 5 96 13q7 25 7 64q0 85 -32.5 207t-81.5 242l41 26q55 -127 87 -254t32 -216q0 -30 -5 -58q201 53 201 199q0 109 -6 191.5t-19 208.5l47 10q14 -125 20 -211.5zM20 637l71 23q-20 12 -31.5 30.5
t-11.5 40.5q0 29 18.5 53.5t47.5 31.5q12 3 25 3q29 0 65 -13l-9 -36q-4 1 -22 6.5t-35 5.5q-25 0 -41 -15.5t-16 -35.5q0 -7 1 -10q3 -15 20 -27.5t40 -16.5l85 28v-37l-207 -69v38z" />
    <glyph glyph-name="uni06440623.fina" unicode="&#xfee0;&#xfe84;" horiz-adv-x="591" arabic-form="final" 
d="M489 39.5q-35 39.5 -48 106.5q-43 -78 -140 -116t-214 -46l-11 49q55 5 96 13q7 25 7 64q0 85 -32.5 207t-81.5 242l41 26q55 -127 87 -254t32 -216q0 -30 -5 -58q201 53 201 199q0 109 -6 191.5t-19 208.5l47 10q13 -119 19 -207t7 -198v-1q1 -102 25.5 -155.5
t90.5 -53.5h9v-51h-9q-61 0 -96 39.5zM20 637l71 23q-20 12 -31.5 30.5t-11.5 40.5q0 29 18.5 53.5t47.5 31.5q12 3 25 3q29 0 65 -13l-9 -36q-4 1 -22 6.5t-35 5.5q-25 0 -41 -15.5t-16 -35.5q0 -7 1 -10q3 -15 20 -27.5t40 -16.5l85 28v-37l-207 -69v38z" />
    <glyph glyph-name="uni06440625" unicode="&#xfedf;&#xfe88;" horiz-adv-x="519" arabic-form="isolated" 
d="M467 454.5q6 -86.5 6 -194.5q0 -137 -112 -201t-270 -75l-11 49q55 5 96 13q7 25 7 64q0 85 -32.5 207t-81.5 242l41 26q55 -127 87 -254t32 -216q0 -30 -5 -58q201 53 201 199q0 109 -6 191.5t-19 208.5l47 10q14 -125 20 -211.5zM71 -235l71 24q-19 12 -30.5 30.5
t-11.5 40.5q0 35 26.5 61t64.5 26q29 0 65 -13l-10 -36q-31 12 -55 12q-26 0 -42.5 -15t-16.5 -36q0 -17 18 -33t44 -20l85 28v-38l-208 -68v37z" />
    <glyph glyph-name="uni06440625.fina" unicode="&#xfee0;&#xfe88;" horiz-adv-x="595" arabic-form="final" 
d="M493 39.5q-35 39.5 -48 106.5q-43 -78 -140 -116t-214 -46l-11 49q55 5 96 13q7 25 7 64q0 85 -32.5 207t-81.5 242l41 26q55 -127 87 -254t32 -216q0 -30 -5 -58q201 53 201 199q0 109 -6 191.5t-19 208.5l47 10q13 -119 19 -207t7 -198v-1q1 -102 25.5 -155.5
t90.5 -53.5h9v-51h-9q-61 0 -96 39.5zM71 -235l71 24q-19 12 -30.5 30.5t-11.5 40.5q0 35 26.5 61t64.5 26q29 0 65 -13l-10 -36q-31 12 -55 12q-26 0 -42.5 -15t-16.5 -36q0 -17 18 -33t44 -20l85 28v-38l-208 -68v37z" />
    <glyph glyph-name="uni06440627" unicode="&#xfedf;&#xfe8e;" horiz-adv-x="519" arabic-form="isolated" 
d="M467 454.5q6 -86.5 6 -194.5q0 -137 -112 -201t-270 -75l-11 49q55 5 96 13q7 25 7 64q0 85 -32.5 207t-81.5 242l41 26q55 -127 87 -254t32 -216q0 -30 -5 -58q201 53 201 199q0 109 -6 191.5t-19 208.5l47 10q14 -125 20 -211.5z" />
    <glyph glyph-name="uni06440627.fina" unicode="&#xfee0;&#xfe8e;" horiz-adv-x="595" arabic-form="final" 
d="M493 39.5q-35 39.5 -48 106.5q-43 -78 -140 -116t-214 -46l-11 49q55 5 96 13q7 25 7 64q0 85 -32.5 207t-81.5 242l41 26q55 -127 87 -254t32 -216q0 -30 -5 -58q201 53 201 199q0 109 -6 191.5t-19 208.5l47 10q13 -119 19 -207t7 -198v-1q1 -102 25.5 -155.5
t90.5 -53.5h9v-51h-9q-61 0 -96 39.5z" />
    <glyph glyph-name="uni06AA.001" unicode="&#x6af;&#x621;&#x621;" horiz-adv-x="1208" 
d="M145 36q-94 45 -103 134q-1 9 -1 26q0 39 10 80t25 75l41 -21q-30 -72 -30 -132q0 -15 1 -22q8 -65 87.5 -99t227.5 -34h10q260 0 454 7.5t246 21.5q3 18 3 33q0 46 -33 71.5t-107 37t-206 14.5q-196 5 -277 11t-116 23q-1 6 -1 17q0 62 43.5 121t118 101.5t164.5 59.5
l12 -44q-81 -18 -145.5 -53.5t-103.5 -79.5t-47 -85q31 -10 87 -13.5t199 -6.5l121 -3q180 -4 256.5 -43t76.5 -116q0 -38 -8 -57.5t-27 -28.5t-56 -14q-79 -11 -245.5 -18t-408.5 -7h-4q-170 -1 -264 44zM471 576.5q73 44.5 143 59.5l4 -36q-63 -15 -130.5 -56.5
t-105.5 -92.5l-21 28q37 53 110 97.5z" />
    <glyph glyph-name="uni06AA.fina" unicode="&#xfb8f;&#x621;&#x621;" horiz-adv-x="1214" 
d="M1166.5 10.5q-20.5 10.5 -31.5 28.5q-19 -16 -68 -22q-79 -11 -245.5 -18t-408.5 -7h-4q-170 -1 -264 44t-103 134q-1 9 -1 26q0 39 10 80t25 75l41 -21q-30 -72 -30 -132q0 -15 1 -22q8 -65 87.5 -99t227.5 -34h10q260 0 454 7.5t246 21.5q3 18 3 33q0 46 -33 71.5
t-107 37t-206 14.5q-196 5 -277 11t-116 23q-1 6 -1 17q0 62 43.5 121t118 101.5t164.5 59.5l12 -44q-81 -18 -145.5 -53.5t-103.5 -79.5t-47 -85q31 -10 87 -13.5t199 -6.5l121 -3q180 -4 256.5 -43t76.5 -116q0 -14 -2 -34q3 -19 18 -25.5t40 -6.5h6l2 -26l-2 -25h-6
q-27 0 -47.5 10.5z" />
    <glyph glyph-name="uni06AA.fina.001" unicode="&#xfb93;&#x621;&#x621;" horiz-adv-x="1214" 
d="M1166.5 10.5q-20.5 10.5 -31.5 28.5q-19 -16 -68 -22q-79 -11 -245.5 -18t-408.5 -7h-4q-170 -1 -264 44t-103 134q-1 9 -1 26q0 39 10 80t25 75l41 -21q-30 -72 -30 -132q0 -15 1 -22q8 -65 87.5 -99t227.5 -34h10q260 0 454 7.5t246 21.5q3 18 3 33q0 46 -33 71.5
t-107 37t-206 14.5q-196 5 -277 11t-116 23q-1 6 -1 17q0 62 43.5 121t118 101.5t164.5 59.5l12 -44q-81 -18 -145.5 -53.5t-103.5 -79.5t-47 -85q31 -10 87 -13.5t199 -6.5l121 -3q180 -4 256.5 -43t76.5 -116q0 -14 -2 -34q3 -19 18 -25.5t40 -6.5h6l2 -26l-2 -25h-6
q-27 0 -47.5 10.5zM472 575q73 45 142 60l4 -37q-63 -15 -130 -56t-106 -92l-20 28q37 52 110 97z" />
    <glyph glyph-name="uni06AA.medi" unicode="&#xfb91;&#xfe8c;&#xfe8c;" horiz-adv-x="891" 
d="M841 11q-20 11 -30 29q-10 -8 -25 -12t-40 -6q-85 -8 -293.5 -15t-430.5 -7h-28v51h28q247 0 480.5 7.5t289.5 18.5q3 18 3 33q0 46 -33 71.5t-107 37.5t-207 15q-193 4 -275 10t-118 24q-1 5 -1 16q0 62 43.5 120.5t118.5 102t165 60.5l12 -45q-81 -17 -145.5 -53
t-103.5 -79.5t-47 -84.5q32 -10 94.5 -14t227.5 -7l84 -2q123 -3 196.5 -22t105.5 -53t32 -87q0 -24 -5 -44q8 -25 54 -25h10v-51h-10q-25 0 -45 11z" />
    <glyph glyph-name="uni06AA.medi.001" unicode="&#xfb95;&#xfe8c;&#xfe8c;" horiz-adv-x="891" 
d="M841 11q-20 11 -30 29q-10 -8 -25 -12t-40 -6q-85 -8 -293.5 -15t-430.5 -7h-28v51h28q247 0 480.5 7.5t289.5 18.5q3 18 3 33q0 46 -33 71.5t-107 37.5t-207 15q-193 4 -275 10t-118 24q-1 5 -1 16q0 62 43.5 120.5t118.5 102t165 60.5l12 -45q-81 -17 -145.5 -53
t-103.5 -79.5t-47 -84.5q32 -10 94.5 -14t227.5 -7l84 -2q123 -3 196.5 -22t105.5 -53t32 -87q0 -24 -5 -44q8 -25 54 -25h10v-51h-10q-25 0 -45 11zM153.5 579.5q73.5 45.5 142.5 59.5l4 -37q-64 -15 -131 -56t-105 -92l-21 28q37 52 110.5 97.5z" />
    <glyph glyph-name="uni06AA.init" unicode="&#xfb90;&#xfe8c;&#xfe8c;" horiz-adv-x="887" 
d="M-6 51h28q247 0 480.5 7.5t289.5 18.5q3 18 3 33q0 46 -33 71.5t-107 37.5t-207 15q-193 4 -275 10t-118 24q-1 5 -1 16q0 62 43.5 120.5t118.5 102t165 60.5l12 -45q-81 -17 -145.5 -53t-103.5 -79.5t-47 -84.5q32 -10 94.5 -14t227.5 -7l84 -2q125 -3 198.5 -22.5
t105.5 -55t30 -89.5q-2 -36 -10 -54.5t-26.5 -27t-54.5 -11.5q-85 -8 -293.5 -15t-430.5 -7h-28v51z" />
    <glyph glyph-name="uni06AA.init.001" unicode="&#xfb94;&#xfe8c;&#xfe8c;" horiz-adv-x="887" 
d="M-6 51h28q247 0 480.5 7.5t289.5 18.5q3 18 3 33q0 46 -33 71.5t-107 37.5t-207 15q-193 4 -275 10t-118 24q-1 5 -1 16q0 62 43.5 120.5t118.5 102t165 60.5l12 -45q-81 -17 -145.5 -53t-103.5 -79.5t-47 -84.5q32 -10 94.5 -14t227.5 -7l84 -2q125 -3 198.5 -22.5
t105.5 -55t30 -89.5q-2 -36 -10 -54.5t-26.5 -27t-54.5 -11.5q-85 -8 -293.5 -15t-430.5 -7h-28v51zM153.5 579.5q73.5 45.5 142.5 59.5l4 -37q-64 -15 -131 -56t-105 -92l-21 28q37 52 110.5 97.5z" />
    <glyph glyph-name="uni0647.fina.alt" unicode="&#xfeea;&#x621;&#x621;&#x621;" horiz-adv-x="608" 
d="M360 32q-85 -31 -160 -31q-60 0 -101 20t-52 60q-6 21 -6 43q0 174 414 300l15 -48l-26 -7l-20 -6q39 -23 66 -65.5t32 -92.5q4 -39 -21.5 -75t-72.5 -65q66 -14 171 -14h13v-51h-13q-152 0 -239 32zM112.5 66.5q30.5 -17.5 82.5 -17.5q48 0 104 14q-77 57 -77 151
q0 38 16 75q-79 -41 -117.5 -85t-38.5 -84q0 -36 30.5 -53.5zM361 84q56 23 89 54.5t30 66.5q-3 32 -20.5 62t-43.5 48t-52 18q-42 0 -70.5 -36t-28.5 -84q0 -89 96 -129z" />
    <glyph glyph-name="uni0647.medi.alt" unicode="&#xfeec;&#xfe8c;&#xfe8c;" horiz-adv-x="428" 
d="M204.5 -220q-47.5 31 -84 87t-43.5 135q-38 -2 -60 -2h-21v51h21q22 0 58 2q1 69 18 136t39 118t40 76l38 13q62 -34 97.5 -87t35.5 -111q0 -75 -58.5 -124t-161.5 -66q8 -74 46 -125t86 -77q-18 39 -18 82q0 45 22.5 82t62 59t90.5 22h22l3 -26l-3 -25h-21
q-59 -1 -93.5 -32.5t-34.5 -82.5t34 -103l-23 -41q-44 8 -91.5 39zM253.5 110q45.5 38 45.5 94q0 39 -26 76.5t-71 65.5q-29 -43 -54 -123t-27 -164q87 13 132.5 51z" />
    <glyph glyph-name="uni0647.init.alt" unicode="&#xfeeb;&#xfe8c;&#xfe8c;" horiz-adv-x="395" 
d="M60 53q3 85 30.5 171.5t54.5 132.5l48 19q49 -28 87 -77.5t38 -113.5q0 -46 -25.5 -82.5t-73.5 -60.5q56 -29 91 -75t35 -94q0 -50 -31 -77.5t-74 -27.5q-45 0 -84 30.5t-64 84t-31 120.5q-28 -3 -61 -3h-5v51h5q22 0 60 2zM231 103.5q45 32.5 45 78.5q0 49 -33 87.5
t-70 55.5q-22 -45 -45 -121.5t-25 -145.5q83 13 128 45.5zM150 -129q38 -53 92 -53q26 0 44 13.5t18 38.5q0 42 -39 85.5t-101 65.5q-26 -8 -59 -13q7 -84 45 -137z" />
    <glyph glyph-name="uni06D2.fina.alt2" unicode="&#xfbfd;&#x621;&#x621;&#x621;&#x621;&#x621;" horiz-adv-x="340" 
d="M45 -120q0 50 35 89t97.5 60.5t140.5 21.5h27l3 -26l-3 -25h-27q-62 0 -113.5 -14.5t-82.5 -38t-35 -47.5q17 -16 69 -27t125 -11q131 0 238 3l-18 -50q-88 -4 -220 -4q-104 0 -158.5 14t-76.5 39q-1 6 -1 16z" />
    <glyph glyph-name="uni06D2.fina.alt3" unicode="&#xfbfd;&#x621;&#x621;&#x621;&#x621;" horiz-adv-x="406" 
d="M47 -119q0 50 35.5 88.5t97.5 60t140 21.5h88l3 -26l-3 -25h-88q-62 0 -113.5 -14.5t-82.5 -37.5t-35 -47q21 -15 83.5 -27t170.5 -12q212 0 338 7l-18 -50q-107 -8 -320 -8q-126 0 -191 13.5t-104 39.5q-1 6 -1 17z" />
    <glyph glyph-name="uni06D2.fina.alt4" unicode="&#xfbfd;&#x621;&#x621;&#x621;" horiz-adv-x="391" 
d="M42 -119q0 50 35.5 88.5t97.5 60t140 21.5h83l3 -26l-3 -25h-83q-62 0 -113.5 -14.5t-82.5 -37.5t-35 -47q20 -14 88.5 -26.5t176.5 -12.5q212 0 411 8l-18 -51q-180 -8 -393 -8q-127 0 -197.5 14t-108.5 39q-1 6 -1 17z" />
    <glyph glyph-name="uni06440671" unicode="&#xfedf;&#xfb51;" horiz-adv-x="519" 
d="M467 454.5q6 -86.5 6 -194.5q0 -137 -112 -201t-270 -75l-11 49q55 5 96 13q7 25 7 64q0 85 -32.5 207t-81.5 242l41 26q55 -127 87 -254t32 -216q0 -30 -5 -58q201 53 201 199q0 109 -6 191.5t-19 208.5l47 10q14 -125 20 -211.5zM42.5 658q16.5 13 34.5 16q5 1 14 1
q12 0 22 -3q24 44 58.5 69t70.5 25q29 0 50 -18.5t21 -46.5q0 -35 -32 -60t-79 -25q-35 0 -77 14q-24 7 -33 7q-4 0 -14 -2q-10 -1 -17.5 -7t-12.5 -12t-7 -8l-27 18q12 19 28.5 32zM202 652q34 0 57 14t24 33q0 13 -12 21.5t-29 8.5q-27 0 -52.5 -18t-45.5 -49
q36 -10 58 -10z" />
    <glyph glyph-name="uni06440671.fina" unicode="&#xfee0;&#xfb51;" horiz-adv-x="595" 
d="M493 39.5q-35 39.5 -48 106.5q-43 -78 -140 -116t-214 -46l-11 49q55 5 96 13q7 25 7 64q0 85 -32.5 207t-81.5 242l41 26q55 -127 87 -254t32 -216q0 -30 -5 -58q201 53 201 199q0 109 -6 191.5t-19 208.5l47 10q13 -119 19 -207t7 -198v-1q1 -102 25.5 -155.5
t90.5 -53.5h9v-51h-9q-61 0 -96 39.5zM42.5 658q16.5 13 34.5 16q5 1 14 1q12 0 22 -3q24 44 58.5 69t70.5 25q29 0 50 -18.5t21 -46.5q0 -35 -32 -60t-79 -25q-35 0 -77 14q-24 7 -33 7q-4 0 -14 -2q-10 -1 -17.5 -7t-12.5 -12t-7 -8l-27 18q12 19 28.5 32zM202 652
q34 0 57 14t24 33q0 13 -12 21.5t-29 8.5q-27 0 -52.5 -18t-45.5 -49q36 -10 58 -10z" />
    <glyph glyph-name="uni06A90644" unicode="&#xfb90;&#xfede;" horiz-adv-x="1055" 
d="M584 60q3 -146 -70 -225t-211 -79q-75 0 -135 30.5t-94 86t-34 126.5q0 49 17.5 111t45.5 116l40 -20q-25 -51 -40.5 -104t-16.5 -96q0 -59 27 -104t76 -70.5t114 -25.5q123 0 182 68t53 200l-13 285q-10 250 -16 298l46 10q7 -46 16 -290l8 -194h1q4 -67 39 -99.5
t92 -32.5q76 0 116.5 19.5t61.5 62.5q9 18 9 42q0 61 -61 146t-165 170l6 47l361 157l16 -44l-329 -143q96 -82 156 -172.5t60 -164.5q0 -31 -12 -58q-28 -59 -80 -86t-139 -27q-83 0 -127 60z" />
    <glyph glyph-name="uni06A90644.fina" unicode="&#xfb91;&#xfede;" horiz-adv-x="1157" 
d="M584 60q3 -146 -70 -225t-211 -79q-75 0 -135 30.5t-94 86t-34 126.5q0 49 17.5 111t45.5 116l40 -20q-25 -51 -40.5 -104t-16.5 -96q0 -59 27 -104t76 -70.5t114 -25.5q123 0 182 68t53 200l-13 285q-10 250 -16 298l46 10q7 -46 16 -290l8 -194h1q4 -67 39 -99.5
t92 -32.5q76 0 116.5 19.5t61.5 62.5q9 18 9 42q0 61 -61 146t-165 170l6 47l361 157l16 -44l-329 -143q120 -103 179 -210q55 -96 92 -147t73.5 -75.5t81.5 -24.5h10l2 -26l-2 -25h-10q-61 0 -109 38t-101 124q-2 -27 -12 -49q-29 -59 -80.5 -86t-138.5 -27q-83 0 -127 60z
" />
    <glyph glyph-name="uni06AF0644" unicode="&#xfb94;&#xfede;" horiz-adv-x="1055" 
d="M584 60q3 -146 -70 -225t-211 -79q-75 0 -135 30.5t-94 86t-34 126.5q0 49 17.5 111t45.5 116l40 -20q-25 -51 -40.5 -104t-16.5 -96q0 -59 27 -104t76 -70.5t114 -25.5q123 0 182 68t53 200l-13 285q-10 250 -16 298l46 10q7 -46 16 -290l8 -194h1q4 -67 39 -99.5
t92 -32.5q75 0 117 20t61 62q8 16 8 41q0 62 -60 145.5t-165 167.5l6 46l361 158l16 -44l-329 -143q97 -83 157 -172t60 -161q0 -32 -13 -58q-29 -59 -80.5 -86t-138.5 -27q-83 0 -127 60zM680 637l312 136l14 -31l-330 -144z" />
    <glyph glyph-name="uni06AF0644.fina" unicode="&#xfb95;&#xfede;" horiz-adv-x="1158" 
d="M584 60q3 -146 -70 -225t-211 -79q-75 0 -135 30.5t-94 86t-34 126.5q0 49 17.5 111t45.5 116l40 -20q-25 -51 -40.5 -104t-16.5 -96q0 -59 27 -104t76 -70.5t114 -25.5q123 0 182 68t53 200l-13 285q-10 250 -16 298l46 10q7 -46 16 -290l8 -194h1q4 -67 39 -99.5
t92 -32.5q75 0 117 20t61 62q8 16 8 41q0 62 -60 145.5t-165 167.5l6 46l361 158l16 -44l-329 -143q110 -93 169 -191l9 -15q56 -97 93 -148t73 -75t82 -24h10l2 -26l-2 -25h-10q-61 0 -109 38t-101 123q-1 -25 -12 -48q-29 -59 -80.5 -86t-138.5 -27q-83 0 -127 60z
M680 637l312 136l14 -31l-330 -144z" />
    <glyph glyph-name="uni064406440647" unicode="&#xfedf;&#xfee0;&#x651;&#x670;&#xfeea;" horiz-adv-x="914" 
d="M648 18q-34 18 -57 51q-21 -34 -56 -52t-79 -18q-104 0 -138 85q-55 -17 -111 -17q-74 0 -120.5 31t-46.5 85q0 62 67.5 120t167.5 92l-5 54l46 9q5 -64 13 -144.5t15 -141.5q7 -64 32 -93t79 -29q44 0 73.5 20.5t38.5 55.5q-9 187 -19 322l47 10q8 -123 15 -267
q2 -22 4 -66q13 -34 41.5 -54t67.5 -20q48 0 76.5 35t28.5 95q0 31 -15 176t-25 225l47 9q9 -72 23.5 -224.5t14.5 -184.5q0 -82 -41.5 -132t-107.5 -50q-42 0 -76 18zM117.5 136.5q33.5 -18.5 86.5 -18.5q49 0 100 16l-3 21l-21 191q-53 -17 -98 -45t-71.5 -58.5
t-26.5 -56.5q0 -31 33.5 -49.5zM442 651l28 -13q-1 -3 -5.5 -17t-4.5 -27q0 -15 9.5 -24t26.5 -9q22 0 34.5 20t11.5 64l30 6q4 -42 15.5 -62.5t33.5 -20.5q20 0 30 10.5t10 26.5q0 14 -9 36t-22 39l27 20q36 -60 36 -93q0 -34 -19 -55t-53 -21q-41 0 -61 37
q-10 -21 -27 -32.5t-37 -11.5q-32 0 -50 19.5t-18 49.5q1 30 14 58zM577 864q3 -37 3 -90q0 -48 -1 -71l-34 -2q2 42 2 67q0 44 -4 92z" />
    <glyph glyph-name="uniFDF2" unicode="&#x627;&#xfedf;&#xfee0;&#xfeea;" horiz-adv-x="1067" 
d="M648 18q-34 18 -57 51q-21 -34 -56 -52t-79 -18q-104 0 -138 85q-55 -17 -111 -17q-74 0 -120.5 31t-46.5 85q0 62 67.5 120t167.5 92l-5 54l46 9q5 -64 13 -144.5t15 -141.5q7 -64 32 -93t79 -29q44 0 73.5 20.5t38.5 55.5q-9 187 -19 322l47 10q8 -123 15 -267
q2 -22 4 -66q13 -34 41.5 -54t67.5 -20q48 0 76.5 35t28.5 95q0 31 -15 176t-25 225l47 9q9 -72 23.5 -224.5t14.5 -184.5q0 -82 -41.5 -132t-107.5 -50q-42 0 -76 18zM117.5 136.5q33.5 -18.5 86.5 -18.5q49 0 100 16l-3 21l-21 191q-53 -17 -98 -45t-71.5 -58.5
t-26.5 -56.5q0 -31 33.5 -49.5zM442 651l28 -13q-1 -3 -5.5 -17t-4.5 -27q0 -15 9.5 -24t26.5 -9q22 0 34.5 20t11.5 64l30 6q4 -42 15.5 -62.5t33.5 -20.5q20 0 30 10.5t10 26.5q0 14 -9 36t-22 39l27 20q36 -60 36 -93q0 -34 -19 -55t-53 -21q-41 0 -61 37
q-10 -21 -27 -32.5t-37 -11.5q-32 0 -50 19.5t-18 49.5q1 30 14 58zM577 864q3 -37 3 -90q0 -48 -1 -71l-34 -2q2 42 2 67q0 44 -4 92zM998 677q5 -35 10.5 -192.5t5.5 -295.5q0 -117 -5 -180l-47 5q4 48 4 173q0 135 -4.5 291t-9.5 190z" />
    <glyph glyph-name="uniFDFC.001" unicode="&#x631;&#xfbfe;&#xfe8e;&#x644;&#x621;" horiz-adv-x="1280" 
d="M1078 -88q57 33 93.5 76t40.5 85q1 8 1 30q0 87 -22 233l45 9q21 -143 21 -234q0 -18 -2 -44q-6 -55 -46.5 -107t-104 -89.5t-136.5 -50.5l-12 47q65 12 122 45zM110 239l39 -21q-55 -109 -56 -186q0 -90 51.5 -142.5t144.5 -52.5q111 0 161 59.5t44 196.5
q-18 373 -25 488l33 52l141 29q10 2 14 2q28 0 31 -38q9 -151 15 -369l3 -75q3 -77 9.5 -109t32.5 -48t87 -16q110 0 154 26t44 81q-1 40 -18.5 98.5t-35.5 96.5l41 22q19 -42 37.5 -106.5t18.5 -110.5q0 -80 -57.5 -118.5t-188.5 -38.5q-75 0 -110.5 22t-47 66t-14.5 133
q-2 90 -7 230.5t-9 206.5l-126 -27q9 -190 22 -494q7 -161 -56 -235.5t-193 -74.5q-71 0 -125.5 30.5t-84 85.5t-29.5 127q0 90 60 210zM581 -153q50 -6 114 -6q110 0 178 13l11 -47q-79 -12 -181 -12q-72 0 -133 7z" />
    <glyph glyph-name="uniFDFC.002" unicode="&#x631;&#xfbfe;&#xfe8e;&#x644;&#x621;&#x621;" horiz-adv-x="1289" 
d="M1101 97q53 46 53 121q0 41 -15.5 118.5t-35.5 137.5l42 16q22 -66 37 -144.5t15 -127.5q0 -95 -62.5 -152.5t-186.5 -93.5l-13 46q113 33 166 79zM122 246q19 66 37 104l39 -22q-16 -31 -33.5 -91.5t-17.5 -103.5q0 -55 41.5 -81.5t143.5 -26.5q55 0 85.5 13t43.5 43.5
t13 85.5q0 26 -1 41l-7 113q-6 82 -12.5 178t-10.5 145l33 52l139 31q10 2 14 2q33 0 35 -41l17 -341q3 -70 11.5 -103.5t34 -49.5t80.5 -16q88 0 131 28.5t37 73.5q-7 48 -17.5 88.5t-13.5 50.5l41 14q2 -8 10 -37t14 -57.5t9 -56.5q1 -5 1 -15q0 -62 -57 -100.5
t-158 -38.5q-69 0 -104.5 23.5t-48 68t-15.5 123.5q-3 96 -7.5 190t-8.5 153l-133 -33q11 -129 28 -437q1 -15 1 -42q0 -104 -42 -151.5t-141 -47.5q-123 0 -176.5 39.5t-53.5 118.5q0 47 19 113zM548 -26q34 -2 53 -2q65 0 136 8.5t122 21.5l9 -46q-54 -13 -125.5 -21
t-138.5 -8q-24 0 -62 2z" />
    <glyph glyph-name="tomaan" unicode="&#xfe97;&#xfeee;&#xfee3;&#xfe8e;&#x646;&#x621;" horiz-adv-x="2199" 
d="M109.5 272q-15.5 -56 -15.5 -106q0 -101 64 -160.5t174 -59.5q88 0 147.5 33.5t88 84.5t28.5 103q0 79 -90 369l-8 27l32 55l223 50q12 2 16 2q30 0 32 -37q5 -77 15 -340q1 -18 1 -35.5t1 -33.5q3 -75 10 -108t33 -49t85 -16h18q44 0 80.5 22.5t59.5 66.5
q34 65 57.5 102.5t55 65.5t68.5 28q41 0 73.5 -29t50 -75t17.5 -93t-17 -83t-52 -53q-14 -7 -35 -7q-67 0 -202 87q-27 -41 -68 -62t-89 -21h-18q-75 0 -111 22.5t-48 67.5t-15 132q-7 287 -16 398l-214 -46q2 -5 5 -15.5t9 -28.5q34 -107 58.5 -202.5t24.5 -160.5
q0 -64 -35 -126.5t-104 -103.5t-167 -41q-96 0 -159.5 39.5t-93 100t-29.5 125.5q0 60 18.5 124t44.5 114l40 -18q-28 -53 -43.5 -109zM379 459l3 -74l-75 -7l-9 74zM1249 64.5q47 -20.5 74 -20.5q11 0 18 3q23 11 34.5 36t11.5 57q0 35 -13 69.5t-37 56.5t-54 22
q-38 0 -68.5 -41t-71.5 -122q59 -40 106 -60.5zM1701.5 -130q78.5 47 88.5 129q-105 0 -172.5 14.5t-94.5 62.5q-16 29 -16 68q0 46 20.5 93t54.5 77.5t71 30.5q55 0 94 -45.5t60 -113.5t25 -135h32v0q129 0 185 25.5t56 80.5q0 41 -17.5 98t-35.5 98l40 21q19 -41 38 -106
t19 -111q0 -78 -66.5 -117t-211.5 -40h-39q-10 -103 -97 -162.5t-245 -75.5l-12 47q145 14 223.5 61zM1641 60.5q61 -10.5 149 -10.5q-3 58 -19.5 114t-46 93t-71.5 38q-25 0 -49 -22.5t-39 -57t-15 -66.5q0 -28 11 -46q19 -32 80 -42.5zM1953 565q73 0 113 -5l-11 -47
q-49 6 -113 6q-99 0 -171 -12l-8 45q81 13 190 13z" />
    <glyph glyph-name="tomaan.001" unicode="&#xfe97;&#xfeee;&#xfee3;&#xfe8e;&#x646;&#x621;&#x621;" horiz-adv-x="1805" 
d="M110 272q-16 -56 -16 -106q0 -101 64 -160.5t174 -59.5q89 0 148.5 33.5t87.5 84.5t28 103q0 72 -82 341l-15 52l32 54l212 49q12 2 15 2q30 0 33 -36q5 -66 9 -186.5t6 -158.5l2 -61q2 -75 9.5 -108t33.5 -49t85 -16h16q44 0 80.5 22.5t59.5 66.5q12 21 25 49
q26 52 44.5 83t43.5 52t56 21q56 0 95 -46t60 -114t24 -134h30q129 0 186 26t59 79q-1 41 -19 102t-35 96l38 20q19 -42 37.5 -106.5t18.5 -110.5q0 -77 -65.5 -116t-209.5 -41h-41q-8 -103 -95 -162.5t-245 -75.5l-13 48q293 28 312 190q-54 0 -81 1q-67 0 -117.5 20
t-92.5 61q-28 -40 -68 -61t-88 -21h-19q-73 0 -108.5 22.5t-47.5 67.5t-15 132q-2 83 -6.5 206.5t-9.5 188.5l-203 -46l16 -54q33 -103 56.5 -194.5t23.5 -154.5q0 -64 -35 -126.5t-104 -103.5t-167 -41q-96 0 -159.5 39.5t-93 100.5t-29.5 126q0 60 19 124t45 113l40 -18
q-28 -53 -44 -109zM383 451l3 -73l-75 -8l-9 74zM1207.5 71.5q45.5 -20.5 105.5 -21.5h85q-2 55 -17.5 111.5t-46 95t-73.5 38.5q-32 0 -55.5 -32t-54.5 -97q-4 -8 -9 -18.5t-11 -22.5q31 -33 76.5 -53.5zM1502.5 568q71.5 7 133.5 7q29 0 41 -1l-9 -47q-32 2 -51 2
q-58 0 -121.5 -7t-110.5 -18l-10 45q56 12 127.5 19z" />
    <glyph glyph-name="tomaan.002" unicode="&#xfe97;&#xfeee;&#xfee3;&#xfe8e;&#x646;&#x621;&#x621;&#x621;" horiz-adv-x="1494" 
d="M1072 29.5q73 40.5 86 104.5l-53 1q-123 0 -197 64q-48 -65 -129 -65q-41 0 -64 13t-33.5 44.5t-13.5 90.5l-3 64q-2 39 -6 125t-7 126l-167 -41q23 -61 45.5 -160.5t22.5 -169.5q0 -58 -28 -113t-86 -91t-141 -36q-84 0 -139.5 35.5t-82 90t-26.5 114.5q0 48 11 87
t29 78l39 -21q-17 -38 -26 -70.5t-9 -73.5q0 -80 50 -135t154 -55q71 0 118.5 29t70.5 73t23 90q0 64 -23.5 165.5t-45.5 153.5l25 51l184 44q4 1 11 1q15 0 23.5 -10t10.5 -27q5 -67 12 -243q2 -58 3 -72q3 -46 9 -68.5t20 -30.5t41 -8q40 0 65.5 16.5t44.5 52.5l14 32
q31 72 62 115t76 43q51 0 86 -39.5t53.5 -99.5t22.5 -123q77 0 120 10.5t60 30t17 52.5q0 34 -15 84t-32 88l39 20q18 -42 34.5 -96.5t16.5 -95.5q0 -79 -64.5 -108.5t-177.5 -30.5q-13 -89 -96 -141t-198 -65l-14 48q105 12 178 52.5zM324 486l3 -69l-70 -6l-8 68z
M1105 183h57q-5 82 -36.5 146t-78.5 64q-28 0 -52 -29.5t-32.5 -47.5t-31.5 -74q60 -59 174 -59zM1227 644q59 6 114 6q41 0 59 -2l-3 -46q-18 2 -57 2q-52 0 -108.5 -6t-99.5 -16l-10 46q46 10 105 16z" />
    <glyph glyph-name="tomaan.003" unicode="&#xfe97;&#xfeee;&#xfee3;&#xfee6;&#x621;" horiz-adv-x="1265" 
d="M850 28.5q71 41.5 84 105.5l-54 1q-121 0 -197 64q-23 -31 -54 -47t-78 -16h-14q-25 -66 -86 -108t-153 -42q-84 0 -139.5 35.5t-82 90t-26.5 114.5q0 48 11 87t29 78l39 -21q-17 -38 -26 -70.5t-9 -73.5q0 -80 50 -135t154 -55q70 0 117.5 27t71 69t23.5 87
q0 36 -13.5 89.5t-29.5 99.5l39 19q17 -46 31 -101t16 -100q0 -22 -3 -43h5q43 1 67.5 17.5t42.5 52.5l16 35q31 71 61.5 113t75.5 42q50 0 85 -39.5t54 -99.5t23 -123q74 0 115.5 10.5t58.5 30t17 52.5q0 35 -14.5 85t-31.5 87l39 20q18 -42 34.5 -96.5t16.5 -95.5
q0 -79 -64 -108.5t-174 -30.5q-13 -90 -94 -142.5t-194 -65.5l-14 47q104 13 175 54.5zM328 483l3 -68l-69 -7l-9 69zM880 183h57q-4 82 -35.5 146t-79.5 64q-28 0 -52 -29.5t-36 -55.5t-28 -67q61 -58 174 -58zM977 610q59 6 114 6q42 0 60 -2l-4 -46q-18 2 -57 2
q-52 0 -108.5 -6t-99.5 -16l-10 46q46 10 105 16z" />
    <glyph glyph-name="uni0621" unicode="&#x621;" horiz-adv-x="406" arabic-form="isolated" 
d="M39 20l135 45q-35 17 -56.5 49t-21.5 70q0 34 18 64t48 47.5t66 17.5t93 -22l-14 -40q-24 9 -42.5 14t-36.5 5q-39 0 -67 -25.5t-28 -60.5q0 -36 31.5 -63.5t75.5 -27.5q17 0 30 4l87 29l9 -42l-317 -106z" />
    <glyph glyph-name="uni0622" unicode="&#x622;" horiz-adv-x="256" arabic-form="isolated" 
d="M96 159q0 115 -4.5 244.5t-9.5 164.5l46 10q6 -34 11 -161t5 -249q0 -120 -5 -170l-47 6q4 47 4 155zM-13 688.5q25 21.5 56 21.5q27 0 61 -15q4 -1 20 -7t33 -6q19 0 39.5 11.5t33.5 30.5l26 -22q-19 -26 -46 -42.5t-53 -16.5q-17 0 -30.5 4t-31.5 12q-16 7 -27.5 10.5
t-26.5 3.5q-20 -1 -37.5 -16.5t-28.5 -44.5l-29 14q16 41 41 62.5z" />
    <glyph glyph-name="uni0623" unicode="&#x623;" horiz-adv-x="226" arabic-form="isolated" 
d="M96 159q0 115 -4.5 244.5t-9.5 164.5l46 10q6 -34 11 -161t5 -249q0 -120 -5 -170l-47 6q4 47 4 155zM14 640l71 24q-19 12 -30.5 30.5t-11.5 40.5q0 35 26.5 61t64.5 26q29 0 65 -13l-10 -36q-31 12 -55 12q-26 0 -42.5 -15t-16.5 -36q0 -17 18 -33t44 -20l85 28v-38
l-208 -68v37z" />
    <glyph glyph-name="uni0624" unicode="&#x624;" horiz-adv-x="423" arabic-form="isolated" 
d="M254 -144q78 61 85 149q-40 -10 -89 -10q-60 0 -108 18t-69 58q-16 29 -16 70q0 47 20 94.5t53.5 78.5t70.5 31q58 0 99 -51.5t61.5 -126.5t20.5 -142q0 -114 -88 -194t-251 -115l-13 47q146 32 224 93zM99 430l72 24q-20 12 -31.5 30.5t-11.5 40.5q0 29 18.5 53.5
t47.5 31.5q12 3 24 3q27 0 66 -13l-10 -37q-29 12 -54 12q-26 0 -43 -15t-17 -36q0 -17 18 -33t44 -20l85 28v-37l-208 -69v37zM164 58.5q39 -12.5 90 -12.5q43 0 85 8q-7 92 -43 166t-96 75q-25 0 -48.5 -23t-38 -58.5t-14.5 -68.5q0 -27 11 -47q15 -27 54 -39.5z" />
    <glyph glyph-name="uni0625" unicode="&#x625;" horiz-adv-x="202" arabic-form="isolated" 
d="M84 176q0 135 -4.5 291t-9.5 190l47 10q5 -33 10 -185.5t5 -292.5q0 -141 -5 -191l-47 6q4 47 4 172zM-2 -241l72 24q-20 12 -31.5 30.5t-11.5 40.5q0 29 18.5 53.5t47.5 31.5q12 3 24 3q27 0 66 -13l-10 -37q-29 12 -54 12q-26 0 -43 -15t-17 -36q0 -17 18 -33t44 -20
l85 28v-37l-208 -69v37z" />
    <glyph glyph-name="uni0626" unicode="&#x626;" horiz-adv-x="713" arabic-form="isolated" 
d="M177 -208.5q-64 32.5 -100 92.5t-36 137q0 58 18 122.5t44 119.5l40 -19q-58 -124 -58 -217q0 -100 64.5 -158.5t172.5 -58.5q81 0 142 29t94 71t35 79q-1 14 -26 25.5t-101 26.5t-107 37t-31 66q0 69 36 130.5t95 98.5t126 37q24 0 47 -5.5t38 -14.5l-17 -44
q-30 13 -69 13q-55 0 -104 -30t-78.5 -78.5t-29.5 -98.5q0 -17 9 -27.5t33.5 -19.5t72.5 -19q62 -13 93 -23.5t44 -25.5t13 -41q0 -53 -39.5 -108.5t-111.5 -92t-164 -36.5q-81 0 -145 32.5zM134 364l71 24q-20 12 -31.5 30.5t-11.5 40.5q0 29 18.5 53.5t47.5 31.5
q12 3 24 3q30 0 66 -13l-9 -37q-31 12 -55 12q-26 0 -42.5 -15t-16.5 -35q0 -7 1 -10q3 -15 20.5 -28t40.5 -16l84 28v-37l-207 -69v37z" />
    <glyph glyph-name="uni0627" unicode="&#x627;" horiz-adv-x="202" arabic-form="isolated" 
d="M84 176q0 135 -4.5 291t-9.5 190l47 10q5 -33 10 -185.5t5 -292.5q0 -141 -5 -191l-47 6q4 47 4 172z" />
    <glyph glyph-name="uni0628" unicode="&#x628;" horiz-adv-x="804" arabic-form="isolated" 
d="M142.5 37q-92.5 45 -101.5 133q-1 9 -1 26q0 39 10 80t25 75l41 -21q-30 -72 -30 -132q0 -15 1 -22q8 -65 87 -99t226 -34q93 0 163.5 15.5t110 38.5t44.5 46q-1 35 -21.5 106t-33.5 102l42 23q17 -40 37.5 -114.5t20.5 -111.5q0 -44 -46.5 -80t-128.5 -56t-186 -20
q-167 0 -259.5 45zM404 -106l55 -56l-19 -19l-36 -36l-56 56z" />
    <glyph glyph-name="uni0629" unicode="&#x629;" horiz-adv-x="409" arabic-form="isolated" 
d="M86 40q-45 41 -45 104q0 17 5 39q23 96 115 183q-7 5 -17 11t-23 14l24 42q119 -71 173.5 -135.5t54.5 -139.5q0 -14 -1 -22q-6 -60 -53 -98.5t-113 -38.5q-75 0 -120 41zM133 605l56 -55l-56 -55l-18 18l-37 37zM87 149q0 -46 31.5 -73t87.5 -27q49 0 83.5 26t38.5 67
q5 53 -25 99.5t-103 98.5q-46 -39 -74.5 -81.5t-36.5 -84.5q-2 -9 -2 -25zM286 605l55 -55q-27 -28 -55 -55l-55 55q27 28 55 55z" />
    <glyph glyph-name="uni062A" unicode="&#x62a;" horiz-adv-x="804" arabic-form="isolated" 
d="M142.5 37q-92.5 45 -101.5 133q-1 9 -1 26q0 39 10 80t25 75l41 -21q-30 -72 -30 -132q0 -15 1 -22q8 -65 87 -99t226 -34q93 0 163.5 15.5t110 38.5t44.5 46q-1 35 -21.5 106t-33.5 102l42 23q17 -40 37.5 -114.5t20.5 -111.5q0 -44 -46.5 -80t-128.5 -56t-186 -20
q-167 0 -259.5 45zM306 388l19 19l56 -56l-56 -55l-55 56zM477 407l56 -56l-55 -55l-56 56q28 27 55 55z" />
    <glyph glyph-name="uni062B" unicode="&#x62b;" horiz-adv-x="804" arabic-form="isolated" 
d="M142.5 37q-92.5 45 -101.5 133q-1 9 -1 26q0 39 10 80t25 75l41 -21q-30 -72 -30 -132q0 -15 1 -22q8 -65 87 -99t226 -34q93 0 163.5 15.5t110 38.5t44.5 46q-1 35 -21.5 106t-33.5 102l42 23q17 -40 37.5 -114.5t20.5 -111.5q0 -44 -46.5 -80t-128.5 -56t-186 -20
q-167 0 -259.5 45zM318 366l18 -18l37 -37q-37 -36 -55 -54l-54 55zM404 461l49 -49l-49 -48l-48 49zM471 348l18 18l55 -55l-18 -18l-36 -36q-27 28 -55 55z" />
    <glyph glyph-name="uni062C" unicode="&#x62c;" horiz-adv-x="678" arabic-form="isolated" 
d="M194.5 -307q-72.5 33 -113.5 92.5t-41 135.5q0 100 62 175.5t177.5 118.5t273.5 48q-26 16 -76 52q-71 51 -118.5 75t-96.5 24q-44 0 -80.5 -26t-58.5 -69l-34 21q29 59 73.5 91t98.5 32q56 0 109 -27t130 -82q51 -37 80.5 -56t60.5 -30l-6 -49q-169 2 -293 -34
t-189.5 -104.5t-65.5 -158.5q0 -61 35 -109t97 -75t142 -27q88 0 153 16.5t104 33.5l16 -41q-38 -19 -107 -39.5t-171 -20.5q-89 0 -161.5 33zM368 10l55 -56l-19 -19l-36 -36l-56 56z" />
    <glyph glyph-name="uni062D" unicode="&#x62d;" horiz-adv-x="678" arabic-form="isolated" 
d="M194.5 -307q-72.5 33 -113.5 92.5t-41 135.5q0 100 62 175.5t177.5 118.5t273.5 48q-26 16 -76 52q-71 51 -118.5 75t-96.5 24q-44 0 -80.5 -26t-58.5 -69l-34 21q29 59 73.5 91t98.5 32q56 0 109 -27t130 -82q51 -37 80.5 -56t60.5 -30l-6 -49q-169 2 -293 -34
t-189.5 -104.5t-65.5 -158.5q0 -61 35 -109t97 -75t142 -27q88 0 153 16.5t104 33.5l16 -41q-38 -19 -107 -39.5t-171 -20.5q-89 0 -161.5 33z" />
    <glyph glyph-name="uni062E" unicode="&#x62e;" horiz-adv-x="678" arabic-form="isolated" 
d="M257 691l28 -27l27 -28l-19 -19l-36 -36l-56 55zM102 96.5q62 75.5 177.5 118.5t273.5 48q-26 16 -76 52q-71 51 -118.5 75t-96.5 24q-44 0 -80.5 -26t-58.5 -69l-34 21q29 59 73.5 91t98.5 32q56 0 109 -27t130 -82q51 -37 80.5 -56t60.5 -30l-6 -49q-169 2 -293 -34
t-189.5 -104.5t-65.5 -158.5q0 -61 35 -109t97 -75t142 -27q88 0 153 16.5t104 33.5l16 -41q-38 -19 -107 -39.5t-171 -20.5q-89 0 -161.5 33t-113.5 92.5t-41 135.5q0 100 62 175.5z" />
    <glyph glyph-name="uni062F" unicode="&#x62f;" horiz-adv-x="474" arabic-form="isolated" 
d="M106 17q-48 19 -76 42l23 40q72 -51 174 -51q62 0 102.5 16t51.5 40q8 18 8 36q0 54 -53.5 127.5t-155.5 153.5l26 43q109 -85 168.5 -169t59.5 -154q0 -33 -13 -59q-18 -40 -68.5 -62t-123.5 -22q-75 0 -123 19z" />
    <glyph glyph-name="uni0630" unicode="&#x630;" horiz-adv-x="474" arabic-form="isolated" 
d="M106 17q-48 19 -76 42l23 40q72 -51 174 -51q62 0 102.5 16t51.5 40q8 18 8 36q0 54 -53.5 127.5t-155.5 153.5l26 43q109 -85 168.5 -169t59.5 -154q0 -33 -13 -59q-18 -40 -68.5 -62t-123.5 -22q-75 0 -123 19zM195 651l18 -18l37 -37l-55 -55l-56 55z" />
    <glyph glyph-name="uni0631" unicode="&#x631;" horiz-adv-x="316" arabic-form="isolated" 
d="M116 -182q53 37 83.5 81.5t30.5 86.5q0 32 -14 105t-36 154l46 16q21 -77 36 -154t15 -121q0 -54 -35 -108t-95 -97t-131 -65l-16 46q63 19 116 56z" />
    <glyph glyph-name="uni0632" unicode="&#x632;" horiz-adv-x="317" arabic-form="isolated" 
d="M116 -182q53 37 83.5 81.5t30.5 86.5q0 32 -14 105t-36 154l46 16q21 -77 36 -154t15 -121q0 -54 -35 -108t-95 -97t-131 -65l-16 46q63 19 116 56zM186 476l18 -18l37 -37l-55 -55l-56 55z" />
    <glyph glyph-name="uni0633" unicode="&#x633;" horiz-adv-x="1156" arabic-form="isolated" 
d="M892 32q-32 31 -38 88q-19 -51 -58.5 -85.5t-85.5 -34.5h-2q-49 0 -80 36q2 -34 2 -50q0 -63 -34.5 -125.5t-103.5 -103.5t-168 -41q-96 0 -159.5 39.5t-93 100.5t-29.5 125q0 61 19 125.5t45 112.5l41 -19q-25 -52 -41 -107t-17 -106q0 -102 62.5 -161t172.5 -59
q89 0 147.5 33t85.5 83.5t27 102.5q0 48 -10.5 98t-31.5 130l-9 32l44 17l28 -101q14 -55 37 -83t68 -28q32 0 58.5 20t49.5 60q13 22 22.5 56.5t19.5 82.5l42 -4q-2 -9 -8 -42t-6 -63q0 -110 93 -110q43 0 67 26.5t24 74.5q0 41 -18 102t-36 97l42 23q20 -42 39 -107
t19 -115q0 -65 -38 -108t-97 -44h-4q-55 1 -87 32z" />
    <glyph glyph-name="uni0634" unicode="&#x634;" horiz-adv-x="1156" arabic-form="isolated" 
d="M892 32q-32 31 -38 88q-19 -51 -58.5 -85.5t-85.5 -34.5h-2q-49 0 -80 36q2 -34 2 -50q0 -63 -34.5 -125.5t-103.5 -103.5t-168 -41q-96 0 -159.5 39.5t-93 100.5t-29.5 125q0 61 19 125.5t45 112.5l41 -19q-25 -52 -41 -107t-17 -106q0 -102 62.5 -161t172.5 -59
q89 0 147.5 33t85.5 83.5t27 102.5q0 48 -10.5 98t-31.5 130l-9 32l44 17l28 -101q14 -55 37 -83t68 -28q32 0 58.5 20t49.5 60q13 22 22.5 56.5t19.5 82.5l42 -4q-2 -9 -8 -42t-6 -63q0 -110 93 -110q43 0 67 26.5t24 74.5q0 41 -18 102t-36 97l42 23q20 -42 39 -107
t19 -115q0 -65 -38 -108t-97 -44h-4q-55 1 -87 32zM788 513l55 -54q-18 -18 -55 -54l-53 54zM874 608l49 -48l-49 -49l-48 49zM924 477l36 36l54 -54l-36 -36l-18 -18l-54 54z" />
    <glyph glyph-name="uni0635" unicode="&#x635;" horiz-adv-x="1243" arabic-form="isolated" 
d="M164.5 -244.5q-63.5 39.5 -93 100.5t-29.5 125q0 61 19 125.5t45 112.5l41 -19q-58 -120 -58 -214q0 -101 63 -160t172 -59q89 0 147.5 33t85.5 83.5t27 102.5q0 56 -17.5 122.5t-44.5 131.5l44 21q18 -46 20 -52q38 -90 96 -131q60 103 151.5 191.5t198.5 88.5
q48 0 86.5 -20.5t61 -56.5t22.5 -79q0 -65 -42.5 -116t-117 -79.5t-166.5 -28.5q-85 0 -147 22.5t-107 72.5q8 -48 8 -87q0 -63 -34.5 -125.5t-103.5 -103.5t-168 -41q-96 0 -159.5 39.5zM878 29q76 0 138 21t99.5 57.5t42.5 81.5q3 31 -11.5 58.5t-44.5 44t-68 16.5
q-94 0 -176.5 -79.5t-137.5 -172.5q61 -27 158 -27z" />
    <glyph glyph-name="uni0636" unicode="&#x636;" horiz-adv-x="1243" arabic-form="isolated" 
d="M164.5 -244.5q-63.5 39.5 -93 100.5t-29.5 125q0 61 19 125.5t45 112.5l41 -19q-58 -120 -58 -214q0 -101 63 -160t172 -59q89 0 147.5 33t85.5 83.5t27 102.5q0 56 -17.5 122.5t-44.5 131.5l44 21q18 -46 20 -52q38 -90 96 -131q60 103 151.5 191.5t198.5 88.5
q48 0 86.5 -20.5t61 -56.5t22.5 -79q0 -65 -42.5 -116t-117 -79.5t-166.5 -28.5q-85 0 -147 22.5t-107 72.5q8 -48 8 -87q0 -63 -34.5 -125.5t-103.5 -103.5t-168 -41q-96 0 -159.5 39.5zM878 29q76 0 138 21t99.5 57.5t42.5 81.5q3 31 -11.5 58.5t-44.5 44t-68 16.5
q-94 0 -176.5 -79.5t-137.5 -172.5q61 -27 158 -27zM1003 549l55 -56l-19 -19l-36 -36l-56 56z" />
    <glyph glyph-name="uni0637" unicode="&#x637;" horiz-adv-x="740" arabic-form="isolated" 
d="M160 65q34 62 76 116q4 45 4 120q0 98 -6.5 209t-12.5 147l46 10q6 -39 13 -139.5t7 -194.5q0 -64 -2 -93q61 66 123.5 101t122.5 35q49 0 87.5 -19.5t60.5 -54.5t22 -78q0 -66 -48 -118t-132 -81t-190 -29q-90 0 -171.5 17.5t-139.5 44.5l16 46q54 -24 124 -39zM331 47
q94 0 168 24t115.5 64.5t41.5 88.5q0 45 -34.5 74t-90.5 29q-79 -1 -165 -72.5t-160 -197.5q63 -10 125 -10z" />
    <glyph glyph-name="uni0638" unicode="&#x638;" horiz-adv-x="740" arabic-form="isolated" 
d="M160 65q34 62 76 116q4 45 4 120q0 98 -6.5 209t-12.5 147l46 10q6 -39 13 -139.5t7 -194.5q0 -64 -2 -93q61 66 123.5 101t122.5 35q49 0 87.5 -19.5t60.5 -54.5t22 -78q0 -66 -48 -118t-132 -81t-190 -29q-90 0 -171.5 17.5t-139.5 44.5l16 46q54 -24 124 -39zM331 47
q94 0 168 24t115.5 64.5t41.5 88.5q0 45 -34.5 74t-90.5 29q-79 -1 -165 -72.5t-160 -197.5q63 -10 125 -10zM471 588l37 37l55 -56l-36 -36l-19 -19l-55 56z" />
    <glyph glyph-name="uni0639" unicode="&#x639;" horiz-adv-x="665" arabic-form="isolated" 
d="M511 -322.5q-73 -17.5 -155 -17.5q-89 0 -161 33.5t-113 93t-41 134.5q0 163 186 275q-62 17 -101.5 64.5t-39.5 108.5q0 45 22.5 84t61.5 64.5t86 30.5l14 1q37 0 78.5 -16.5t77.5 -45.5l-23 -37q-31 23 -65.5 35.5t-65.5 12.5q-40 0 -72 -18t-50 -48t-18 -64
q0 -36 23 -67.5t61.5 -49.5t82.5 -17q70 31 153 53l11 -48q-90 -22 -175 -64t-142.5 -106.5t-57.5 -147.5q0 -61 34.5 -108.5t97 -74.5t142.5 -27q73 0 140.5 14.5t116.5 35.5l15 -41q-50 -25 -123 -42.5z" />
    <glyph glyph-name="uni063A" unicode="&#x63a;" horiz-adv-x="664" arabic-form="isolated" 
d="M511 -322.5q-73 -17.5 -155 -17.5q-89 0 -161 33.5t-113 93t-41 134.5q0 163 186 275q-62 17 -101.5 64.5t-39.5 108.5q0 45 22.5 84t61.5 64.5t86 30.5l14 1q37 0 78.5 -16.5t77.5 -45.5l-23 -37q-31 23 -65.5 35.5t-65.5 12.5q-40 0 -72 -18t-50 -48t-18 -64
q0 -36 23 -67.5t61.5 -49.5t82.5 -17q70 31 153 53l11 -48q-90 -22 -175 -64t-142.5 -106.5t-57.5 -147.5q0 -61 34.5 -108.5t97 -74.5t142.5 -27q73 0 140.5 14.5t116.5 35.5l15 -41q-50 -25 -123 -42.5zM259 739l55 -56l-55 -55l-56 56z" />
    <glyph glyph-name="uni0641" unicode="&#x641;" horiz-adv-x="829" arabic-form="isolated" 
d="M408 -8q-170 -1 -264 44t-103 134q-1 9 -1 26q0 39 10 80t25 75l41 -21q-30 -72 -30 -132q0 -15 1 -22q8 -65 87.5 -99t228.5 -34h6q131 0 215.5 26.5t110.5 75.5q-12 -1 -39 -1q-163 0 -204 73q-17 30 -17 72q0 44 19.5 88t53 72t71.5 28q52 0 90 -39t58 -99.5
t20 -122.5q0 -25 -3 -48q-13 -83 -109.5 -129t-265.5 -47h-1zM592.5 205.5q47.5 -12.5 107.5 -12.5q19 0 47 2q3 53 -11.5 107t-45 89.5t-73.5 35.5q-26 0 -49 -20t-37.5 -51.5t-14.5 -61.5q0 -26 12 -46q17 -30 64.5 -42.5zM620 668l55 -56q-28 -27 -55 -55l-56 56z" />
    <glyph glyph-name="uni0642" unicode="&#x642;" horiz-adv-x="675" arabic-form="isolated" 
d="M164.5 -207.5q-63.5 39.5 -93 100t-29.5 125.5q0 60 19 124.5t45 113.5l41 -20q-58 -118 -58 -213q0 -100 63 -160t172 -60q78 0 138 29t94 83t35 126q-43 -9 -89 -9q-60 0 -109 17.5t-70 57.5q-15 29 -15 71q0 47 19.5 94.5t52.5 78.5t70 31q60 0 102 -53t62 -129.5
t20 -144.5q0 -93 -39.5 -161t-109.5 -104.5t-161 -36.5q-96 0 -159.5 39.5zM349 550l19 19l55 -56l-18 -18l-37 -37l-55 56zM415.5 95q39.5 -13 89.5 -13q48 0 84 9q-3 56 -20 111.5t-47.5 92t-72.5 36.5q-25 0 -48 -22.5t-37 -57t-14 -67.5q0 -30 11 -49q15 -27 54.5 -40z
M520 569l56 -56q-28 -27 -55 -55l-56 56z" />
    <glyph glyph-name="uni0643" unicode="&#x643;" horiz-adv-x="843" arabic-form="isolated" 
d="M408 -8q-170 -1 -264 44t-103 134q-1 9 -1 26q0 39 10 80t25 75l41 -21q-30 -72 -30 -132q0 -15 1 -22q8 -65 87 -99t226 -34h19q107 0 171.5 22.5t85.5 65.5q10 19 10 45q0 66 -61.5 156t-165.5 173l7 47l361 158l16 -44l-329 -144q95 -80 156 -176t61 -172
q0 -35 -13 -61q-28 -59 -103.5 -90t-195.5 -31h-11z" />
    <glyph glyph-name="uni0644" unicode="&#x644;" horiz-adv-x="627" arabic-form="isolated" 
d="M168 -213.5q-60 30.5 -94 86t-34 126.5q0 49 17.5 111t45.5 116l40 -20q-25 -51 -40.5 -104t-16.5 -96q0 -59 27 -104t76 -70.5t114 -25.5q123 0 182 68t53 200l-13 285q-10 250 -16 298l46 10q7 -47 16 -289q6 -157 13 -302q7 -154 -66 -237t-215 -83q-75 0 -135 30.5z
" />
    <glyph glyph-name="uni0645" unicode="&#x645;" horiz-adv-x="513" arabic-form="isolated" 
d="M56 -299q-15 200 -15 318q0 40 1 57q2 35 22 57t49 22q18 0 37 -10q31 60 54.5 98t55.5 65.5t69 27.5q43 0 75.5 -28.5t50 -73t17.5 -92.5q0 -47 -18 -84.5t-54 -54.5q-14 -7 -35 -7q-35 0 -90 24t-140 77q-9 6 -19 6t-17 -7.5t-8 -23.5q-2 -40 -2 -65q0 -81 13 -276
l4 -65l-47 -8zM292 64.5q46 -20.5 73 -20.5q9 0 19 4q22 11 33.5 35.5t11.5 56.5q0 35 -12.5 69.5t-35.5 56.5t-52 22q-26 0 -50 -23t-42 -53t-50 -88q59 -39 105 -59.5z" />
    <glyph glyph-name="uni0646" unicode="&#x646;" horiz-adv-x="672" arabic-form="isolated" 
d="M105 129q-16 -56 -16 -106q0 -101 63 -160t172 -59q89 0 147.5 33t85.5 83.5t27 103.5q0 47 -10.5 97t-31.5 130l-9 32l44 17q28 -97 40.5 -158.5t12.5 -117.5q0 -63 -34.5 -125.5t-103.5 -103.5t-168 -41q-96 0 -159.5 39.5t-93 100t-29.5 125.5q0 60 19 124.5t45 113.5
l41 -20q-26 -52 -42 -108zM348 329l18 -18l37 -37l-55 -55l-56 55z" />
    <glyph glyph-name="uni0647" unicode="&#x647;" horiz-adv-x="409" arabic-form="isolated" 
d="M86 40q-45 41 -45 104q0 17 5 39q23 96 115 183q-7 5 -17 11t-23 14l24 42q119 -71 173.5 -135.5t54.5 -139.5q0 -14 -1 -22q-6 -60 -53 -98.5t-113 -38.5q-75 0 -120 41zM87 149q0 -46 31.5 -73t87.5 -27q49 0 83.5 26t38.5 67q5 53 -25 99.5t-103 98.5
q-46 -39 -74.5 -81.5t-36.5 -84.5q-2 -9 -2 -25z" />
    <glyph glyph-name="uni0648" unicode="&#x648;" horiz-adv-x="423" arabic-form="isolated" 
d="M254 -144q78 61 85 149q-40 -10 -89 -10q-60 0 -108 18t-69 58q-16 29 -16 70q0 47 20 94.5t53.5 78.5t70.5 31q58 0 99 -51.5t61.5 -126.5t20.5 -142q0 -114 -88 -194t-251 -115l-13 47q146 32 224 93zM164 58.5q39 -12.5 90 -12.5q43 0 85 8q-7 92 -43 166t-96 75
q-25 0 -48.5 -23t-38 -58.5t-14.5 -68.5q0 -27 11 -47q15 -27 54 -39.5z" />
    <glyph glyph-name="uni0649" unicode="&#x649;" horiz-adv-x="712" arabic-form="isolated" 
d="M177 -208.5q-64 32.5 -100 92.5t-36 137q0 58 18 122.5t44 119.5l40 -19q-58 -124 -58 -217q0 -100 64.5 -158.5t172.5 -58.5q81 0 142 29t94 71t35 79q-1 14 -26 25.5t-101 26.5t-107 37t-31 66q0 69 36 130.5t95 98.5t126 37q24 0 47 -5.5t38 -14.5l-17 -44
q-30 13 -69 13q-55 0 -104 -30t-78.5 -78.5t-29.5 -98.5q0 -17 9 -27.5t33.5 -19.5t72.5 -19q62 -13 93 -23.5t44 -25.5t13 -41q0 -53 -39.5 -108.5t-111.5 -92t-164 -36.5q-81 0 -145 32.5z" />
    <glyph glyph-name="uni064A" unicode="&#x64a;" horiz-adv-x="712" arabic-form="isolated" 
d="M177 -208.5q-64 32.5 -100 92.5t-36 137q0 58 18 122.5t44 119.5l40 -19q-58 -124 -58 -217q0 -100 64.5 -158.5t172.5 -58.5q81 0 142 29t94 71t35 79q-1 14 -26 25.5t-101 26.5t-107 37t-31 66q0 69 36 130.5t95 98.5t126 37q24 0 47 -5.5t38 -14.5l-17 -44
q-30 13 -69 13q-55 0 -104 -30t-78.5 -78.5t-29.5 -98.5q0 -17 9 -27.5t33.5 -19.5t72.5 -19q62 -13 93 -23.5t44 -25.5t13 -41q0 -53 -39.5 -108.5t-111.5 -92t-164 -36.5q-81 0 -145 32.5z" />
    <glyph glyph-name="uni066E.init" unicode="&#x66e;" horiz-adv-x="304" 
d="M-5 51h52q87 0 128.5 26t41.5 79q0 37 -18.5 99t-35.5 97l43 22q19 -41 38 -105.5t19 -110.5q0 -79 -55.5 -118.5t-160.5 -39.5h-52v51z" />
    <glyph glyph-name="uni066E.medi" unicode="&#x66e;" horiz-adv-x="338" 
d="M-5 51h6q71 0 111.5 15t59.5 47q12 20 12 65q0 40 -10 110l45 10q7 -45 9.5 -91t0.5 -73q4 -41 32.5 -62t73.5 -21h9l2 -26l-2 -25h-10q-47 0 -82.5 20.5t-48.5 58.5q-22 -41 -71.5 -60t-130.5 -19h-6v51z" />
    <glyph glyph-name="uni066E.fina" unicode="&#x66e;" horiz-adv-x="933" 
d="M142.5 37q-92.5 45 -101.5 133q-1 9 -1 26q0 39 10 80t25 75l41 -21q-30 -72 -30 -132q0 -15 1 -22q8 -65 87.5 -99t228.5 -34q174 0 271.5 52.5t130.5 161.5l46 -5q-19 -55 -19 -95q0 -50 27 -78t79 -28l3 -26l-3 -25q-67 0 -107.5 39t-36.5 106q-102 -153 -392 -153
q-167 0 -259.5 45z" />
    <glyph glyph-name="uni066F.fina" unicode="&#x66f;" horiz-adv-x="665" 
d="M164.5 -244.5q-63.5 39.5 -93 100.5t-29.5 125q0 61 19 125.5t45 112.5l41 -19q-58 -120 -58 -214q0 -100 63 -159.5t172 -59.5q78 0 137.5 28t93.5 81t36 124q-103 -1 -171.5 13.5t-94.5 62.5q-17 30 -17 70q0 46 20 92.5t53.5 76.5t70.5 30q55 0 94.5 -46t61 -114.5
t25.5 -133.5h37l3 -26l-3 -25h-37q-3 -88 -43 -152t-109 -98t-157 -34q-96 0 -159.5 39.5zM442.5 60.5q61.5 -10.5 147.5 -10.5q-3 57 -19.5 113t-47 93.5t-73.5 37.5q-25 0 -48.5 -22t-38 -55.5t-14.5 -65.5q0 -27 12 -48q20 -32 81.5 -42.5z" />
    <glyph glyph-name="uni0671" unicode="&#x671;" horiz-adv-x="226" arabic-form="isolated" 
d="M96 159q0 115 -4.5 244.5t-9.5 164.5l46 10q6 -34 11 -161t5 -249q0 -120 -5 -170l-47 6q4 47 4 155zM-17.5 677.5q16.5 12.5 35.5 15.5q5 1 14 1q12 0 22 -3q24 44 58.5 69t70.5 25q30 0 50.5 -18.5t20.5 -46.5q0 -30 -23.5 -53t-60.5 -29q-15 -3 -29 -3q-35 0 -75 14
q-25 7 -35 7q-8 0 -12 -1q-11 -2 -19 -9t-18 -19l-27 18q11 20 27.5 32.5zM143 671q33 0 56.5 14.5t24.5 32.5q0 13 -12 22t-29 9q-27 0 -52.5 -18t-45.5 -50q36 -10 58 -10z" />
    <glyph glyph-name="uni0679" unicode="&#x679;" horiz-adv-x="804" arabic-form="isolated" 
d="M142.5 37q-92.5 45 -101.5 133q-1 9 -1 26q0 39 10 80t25 75l41 -21q-30 -72 -30 -132q0 -15 1 -22q8 -65 87 -99t226 -34q93 0 163.5 15.5t110 38.5t44.5 46q-1 35 -21.5 106t-33.5 102l42 23q17 -40 37.5 -114.5t20.5 -111.5q0 -44 -46.5 -80t-128.5 -56t-186 -20
q-167 0 -259.5 45zM300 344q6 -3 33 -11q11 19 22 34q1 24 -2.5 69.5t-8.5 79.5l33 5q9 -55 12 -117q39 37 77 37q31 0 50.5 -20.5t19.5 -46.5q0 -21 -15.5 -40.5t-47 -32.5t-76.5 -13q-32 0 -61.5 7t-48.5 15zM397 325q54 0 80 15.5t26 33.5q0 13 -9.5 21.5t-27.5 8.5
q-25 -1 -50 -22t-47 -55q18 -2 28 -2z" />
    <glyph glyph-name="uni067E" unicode="&#x67e;" horiz-adv-x="804" arabic-form="isolated" 
d="M142.5 37q-92.5 45 -101.5 133q-1 9 -1 26q0 39 10 80t25 75l41 -21q-30 -72 -30 -132q0 -15 1 -22q8 -65 87 -99t226 -34q93 0 163.5 15.5t110 38.5t44.5 46q-1 35 -21.5 106t-33.5 102l42 23q17 -40 37.5 -114.5t20.5 -111.5q0 -44 -46.5 -80t-128.5 -56t-186 -20
q-167 0 -259.5 45zM315 -86l54 -55l-54 -53l-54 54zM401 -193l48 -49l-48 -48l-49 49zM487 -86l53 -55l-53 -53l-55 54z" />
    <glyph glyph-name="uni0686" unicode="&#x686;" horiz-adv-x="678" arabic-form="isolated" 
d="M194.5 -307q-72.5 33 -113.5 92.5t-41 135.5q0 100 62 175.5t177.5 118.5t273.5 48q-26 16 -76 52q-71 51 -118.5 75t-96.5 24q-44 0 -80.5 -26t-58.5 -69l-34 21q29 59 73.5 91t98.5 32q56 0 109 -27t130 -82q51 -37 80.5 -56t60.5 -30l-6 -49q-169 2 -293 -34
t-189.5 -104.5t-65.5 -158.5q0 -61 35 -109t97 -75t142 -27q88 0 153 16.5t104 33.5l16 -41q-38 -19 -107 -39.5t-171 -20.5q-89 0 -161.5 33zM293 35l54 -54l-53 -54l-55 54zM346 -103l32 32l49 -49l-49 -48l-48 49zM464 35l53 -54l-53 -54l-54 54z" />
    <glyph glyph-name="uni0695.fina" unicode="&#x695;" horiz-adv-x="349" 
d="M274 27q3 -22 3 -41q0 -54 -35 -108t-95 -97t-131 -65l-16 46q63 19 116 56t83.5 81.5t30.5 86.5q0 32 -14 105t-36 154l46 16q15 -55 26 -106q15 -57 37 -80.5t60 -23.5h6l2 -26l-2 -25h-6q-45 0 -75 27zM71 -314q38 -55 61 -109q21 64 58 118l26 -22q-48 -69 -67 -137
l-31 -14q-10 34 -30.5 72.5t-41.5 68.5z" />
    <glyph glyph-name="uni0698" unicode="&#x698;" horiz-adv-x="353" arabic-form="isolated" 
d="M116 -182q53 37 83.5 81.5t30.5 86.5q0 32 -14 105t-36 154l46 16q21 -77 36 -154t15 -121q0 -54 -35 -108t-95 -97t-131 -65l-16 46q63 19 116 56zM112 475l37 -37l18 -18l-55 -54l-53 55zM198 570l49 -49l-49 -48l-48 49zM248 439l36 36l54 -55l-18 -18l-36 -36l-54 55
z" />
    <glyph glyph-name="uni06A1.init" unicode="&#x6a1;" horiz-adv-x="424" 
d="M-6 51h9q133 0 216 23.5t111 70.5q-12 -1 -40 -1q-163 0 -203 73q-17 30 -17 72q0 44 19.5 88t53 72t71.5 28q53 0 91.5 -38.5t58 -98.5t19.5 -122q0 -18 -4 -50q-13 -82 -108.5 -125t-266.5 -43h-10v51zM187 205.5q47 -12.5 106 -12.5q19 0 49 2q2 53 -12.5 107
t-45 89.5t-72.5 35.5q-26 0 -49 -20.5t-37 -52t-14 -62.5q0 -25 11 -45q17 -29 64 -41.5z" />
    <glyph glyph-name="uni06A1.medi" unicode="&#x6a1;" horiz-adv-x="470" 
d="M-6 51h24q79 0 146 10q-39 26 -59.5 59.5t-20.5 72.5q0 13 1 20q6 48 30 88t58.5 63t71.5 23q38 0 71 -25.5t52.5 -66t19.5 -83.5q0 -98 -85 -152q47 -9 103 -9h70l3 -26l-3 -25h-60q-103 0 -182 28q-84 -28 -216 -28h-24v51zM152 132.5q27 -33.5 81 -53.5q96 34 109 116
q1 5 1 16q0 49 -29 86.5t-71 37.5q-41 0 -73.5 -37.5t-40.5 -91.5q-4 -40 23 -73.5z" />
    <glyph glyph-name="uni06A1.fina" unicode="&#x6a1;" horiz-adv-x="874" 
d="M408 -8q-170 -1 -264 44t-103 134q-1 9 -1 26q0 39 10 80t25 75l41 -21q-30 -72 -30 -132q0 -15 1 -22q8 -65 87.5 -99t228.5 -34h9q95 0 162 14q-42 26 -64.5 60.5t-22.5 75.5q0 13 1 20q6 48 30 87.5t58.5 63t71.5 23.5q39 0 72 -25.5t52 -66.5t19 -84q0 -94 -83 -152
q50 -8 102 -8h69l3 -26l-3 -25h-60q-101 0 -177 26q-89 -34 -230 -34h-4zM556 131.5q28 -33.5 84 -54.5q91 38 106 118q1 5 1 15q0 49 -29 87t-71 38q-41 0 -74 -37.5t-41 -91.5q-4 -41 24 -74.5z" />
    <glyph glyph-name="uni06A4" unicode="&#x6a4;" horiz-adv-x="829" arabic-form="isolated" 
d="M408 -8q-170 -1 -264 44t-103 134q-1 9 -1 26q0 39 10 80t25 75l41 -21q-30 -72 -30 -132q0 -15 1 -22q8 -65 87.5 -99t228.5 -34h6q131 0 215.5 26.5t110.5 75.5q-12 -1 -39 -1q-163 0 -204 73q-17 30 -17 72q0 44 19.5 88t53 72t71.5 28q52 0 90 -39t58 -99.5
t20 -122.5q0 -25 -3 -48q-13 -83 -109.5 -129t-265.5 -47h-1zM527 654l55 -54l-55 -54l-54 54zM592.5 205.5q47.5 -12.5 107.5 -12.5q19 0 47 2q3 53 -11.5 107t-45 89.5t-73.5 35.5q-26 0 -49 -20t-37.5 -51.5t-14.5 -61.5q0 -26 12 -46q17 -30 64.5 -42.5zM613 749l49 -48
l-49 -49l-48 49zM680 636l18 18l55 -54l-36 -36l-18 -18l-55 54z" />
    <glyph glyph-name="uni06A9" unicode="&#x6a9;" horiz-adv-x="843" arabic-form="isolated" 
d="M408 -8q-170 -1 -264 44t-103 134q-1 9 -1 26q0 39 10 80t25 75l41 -21q-30 -72 -30 -132q0 -15 1 -22q8 -65 87 -99t226 -34h19q107 0 171.5 22.5t85.5 65.5q10 19 10 45q0 66 -61.5 156t-165.5 173l7 47l361 158l16 -44l-329 -144q95 -80 156 -176t61 -172
q0 -35 -13 -61q-28 -59 -103.5 -90t-195.5 -31h-11z" />
    <glyph glyph-name="uni06AF" unicode="&#x6af;" horiz-adv-x="842" arabic-form="isolated" 
d="M408 -8q-170 -1 -264 44t-103 134q-1 9 -1 26q0 39 10 80t25 75l41 -21q-30 -72 -30 -132q0 -15 1 -22q8 -65 87 -99t226 -34h18q204 0 249 89q10 19 10 41q0 51 -54.5 116.5t-164.5 151.5l7 47l362 158l16 -44l-329 -144q100 -83 153.5 -153.5t53.5 -132.5
q0 -29 -14 -59q-58 -121 -289 -121h-10zM469 601l312 136l14 -30l-330 -144z" />
    <glyph glyph-name="uni06B5.init" unicode="&#x6b5;" horiz-adv-x="238" 
d="M-5 51h34q63 0 92 29.5t29 89.5q0 42 -9.5 244.5t-15.5 242.5l47 9q6 -41 15 -243t9 -249q0 -82 -43.5 -128t-123.5 -46h-34v51zM85 854q37 -53 61 -109q11 33 26.5 64.5t31.5 53.5l26 -22q-46 -64 -67 -137l-32 -14q-9 34 -29.5 73t-42.5 68z" />
    <glyph glyph-name="uni06B5.medi" unicode="&#x6b5;" horiz-adv-x="292" 
d="M215.5 21q-30.5 21 -48.5 59q-35 -80 -140 -80h-32v51h32q63 0 92.5 30t28.5 90v5q-2 79 -9 264t-10 217l47 9q5 -40 10.5 -238.5t6.5 -218.5l1 -32q6 -126 92 -126h11l3 -26l-3 -25h-11q-40 0 -70.5 21zM90 854q37 -53 61 -109q21 64 58 118l26 -22q-48 -69 -67 -137
l-31 -14q-10 33 -30.5 72.5t-41.5 68.5z" />
    <glyph glyph-name="uni06B5.fina" unicode="&#x6b5;" horiz-adv-x="681" 
d="M584 43q-2 -138 -75 -212.5t-206 -74.5q-75 0 -135 30.5t-94 86t-34 126.5q0 49 17.5 111t45.5 116l40 -20q-25 -51 -40.5 -104t-16.5 -96q0 -59 27 -104t76 -70.5t114 -25.5q123 0 182 68t53 200l-13 285q-10 250 -16 298l46 10q7 -47 16 -291l8 -197h1q4 -72 24 -100
t71 -28h11l3 -26l-3 -25h-11q-61 0 -91 43zM469 868q37 -53 61 -109q21 64 58 118l26 -22q-48 -69 -67 -137l-31 -14q-10 33 -30.5 72.5t-41.5 68.5z" />
    <glyph glyph-name="uni06C2.fina" unicode="&#x6c2;" horiz-adv-x="507" 
d="M110 320l71 23q-32 21 -40 53q-2 6 -2 19q0 29 18 53t47 31q12 3 25 3q30 0 66 -13l-10 -36q-3 1 -20.5 6.5t-36.5 5.5q-25 0 -41 -15.5t-16 -35.5q0 -17 17 -33.5t44 -20.5l85 28v-37l-207 -69v38zM84 116q29 51 68.5 86.5t76.5 49.5q13 5 21 5q21 0 36 -26
q38 -78 89 -129t131 -51h7l3 -26l-3 -25h-7q-93 0 -156.5 59.5t-104.5 145.5q-32 -11 -67 -42.5t-61 -78t-34 -99.5l-36 23q8 57 37 108z" />
    <glyph glyph-name="uni06C3.fina" unicode="&#x6c3;" horiz-adv-x="507" 
d="M513 51l3 -26l-3 -25h-7q-93 0 -156.5 59.5t-104.5 145.5q-32 -11 -67 -42.5t-61 -78t-34 -99.5l-36 23q8 57 37 108t68.5 86.5t76.5 49.5q13 5 21 5q21 0 36 -26q38 -78 89 -129t131 -51h7zM174 435l56 -56l-56 -55l-55 56zM290 399l36 36l56 -56l-36 -36l-19 -19
l-56 56z" />
    <glyph glyph-name="uni06C6" unicode="&#x6c6;" horiz-adv-x="423" arabic-form="isolated" 
d="M254 -144q78 61 85 149q-40 -10 -89 -10q-60 0 -108 18t-69 58q-16 29 -16 70q0 47 20 94.5t53.5 78.5t70.5 31q58 0 99 -51.5t61.5 -126.5t20.5 -142q0 -114 -88 -194t-251 -115l-13 47q146 32 224 93zM164 58.5q39 -12.5 90 -12.5q43 0 85 8q-7 92 -43 166t-96 75
q-25 0 -48.5 -23t-38 -58.5t-14.5 -68.5q0 -27 11 -47q15 -27 54 -39.5zM141 582q39 -53 61 -109q24 68 58 118l27 -22q-46 -64 -68 -137l-31 -14q-9 34 -29.5 73t-42.5 68z" />
    <glyph glyph-name="uni06C7" unicode="&#x6c7;" horiz-adv-x="423" arabic-form="isolated" 
d="M254 -144q78 61 85 149q-40 -10 -89 -10q-60 0 -108 18t-69 58q-16 29 -16 70q0 47 20 94.5t53.5 78.5t70.5 31q58 0 99 -51.5t61.5 -126.5t20.5 -142q0 -114 -88 -194t-251 -115l-13 47q146 32 224 93zM164 58.5q39 -12.5 90 -12.5q43 0 85 8q-7 92 -43 166t-96 75
q-25 0 -48.5 -23t-38 -58.5t-14.5 -68.5q0 -27 11 -47q15 -27 54 -39.5zM194.5 457q33.5 10 59.5 33q-41 0 -65 22.5t-24 58.5q0 33 24 57.5t54 24.5q10 0 20 -3q26 -7 40.5 -30t14.5 -53q0 -46 -30 -85q-27 -36 -70.5 -53t-90.5 -21l-8 35q42 4 75.5 14zM217 535
q23 -15 61 -14q9 20 9 40q0 25 -12 42t-34 17q-19 0 -33 -14t-14 -33q0 -23 23 -38z" />
    <glyph glyph-name="uni06CC" unicode="&#x6cc;" horiz-adv-x="713" arabic-form="isolated" 
d="M177 -208.5q-64 32.5 -100 92.5t-36 137q0 58 18 122.5t44 119.5l40 -19q-58 -124 -58 -217q0 -100 64.5 -158.5t172.5 -58.5q81 0 142 29t94 71t35 79q-1 14 -26 25.5t-101 26.5t-107 37t-31 66q0 69 36 130.5t95 98.5t126 37q24 0 47 -5.5t38 -14.5l-17 -44
q-30 13 -69 13q-55 0 -104 -30t-78.5 -78.5t-29.5 -98.5q0 -17 9 -27.5t33.5 -19.5t72.5 -19q62 -13 93 -23.5t44 -25.5t13 -41q0 -53 -39.5 -108.5t-111.5 -92t-164 -36.5q-81 0 -145 32.5z" />
    <glyph glyph-name="uni06CE.init" unicode="&#x6ce;" horiz-adv-x="330" 
d="M191 459l-32 -14q-9 34 -29.5 73t-42.5 68l26 23q37 -53 61 -109q11 33 26.5 64.5t31.5 53.5l26 -22q-46 -64 -67 -137zM-32 -144l36 36l56 -56l-36 -36l-19 -19l-56 56zM-6 51h35q112 0 162.5 25.5t50.5 79.5q0 37 -18 97.5t-35 98.5l42 22q20 -40 39 -104.5t19 -110.5
q0 -80 -63.5 -119.5t-192.5 -39.5h-39v51zM130 -135l27 27l55 -56l-55 -55l-55 56q13 15 28 28z" />
    <glyph glyph-name="uni06CE.medi" unicode="&#x6ce;" horiz-adv-x="390" 
d="M177 352l-32 -14q-9 34 -29.5 73t-42.5 68l26 23q38 -55 61 -109q11 33 26.5 64.5t31.5 53.5l26 -22q-47 -65 -67 -137zM-31 -141l36 36l56 -56l-36 -36l-19 -19l-56 56zM-5 51h6q79 0 123.5 6t66 19t34.5 36q12 19 12 63q0 34 -11 113l45 10q7 -45 9.5 -91t0.5 -73
q4 -41 32 -62t74 -21h9l2 -26l-2 -25h-10q-46 0 -81 20t-49 57q-21 -43 -79.5 -60t-175.5 -17h-6v51zM131 -132l27 27l55 -56l-55 -55l-55 56q13 15 28 28z" />
    <glyph glyph-name="uni06CE.fina" unicode="&#x6ce;" horiz-adv-x="706" 
d="M183.5 -240q-66.5 32 -104.5 91.5t-38 138.5q0 58 18 122t44 119l40 -18q-57 -122 -57 -217q0 -102 67 -160t181 -58q65 0 122 17t92.5 43t39.5 51q-1 24 -65 66t-149 79l11 49q62 -14 141.5 -23t148.5 -9h36l3 -26l-3 -25h-36q-64 0 -165 11q128 -68 124 -123
q-3 -43 -44 -79.5t-108.5 -58.5t-146.5 -22q-85 0 -151.5 32zM225 374q38 -51 61 -109q24 68 58 118l27 -22q-46 -63 -68 -137l-31 -14q-9 34 -29.5 73t-42.5 68z" />
    <glyph glyph-name="uni06D5.fina" unicode="&#x6d5;" horiz-adv-x="457" 
d="M369.5 18q-33.5 18 -52.5 57q-58 -18 -111 -18q-77 0 -123.5 35.5t-39.5 96.5q6 57 68.5 106t160.5 80q-1 22 -5 59l47 9q13 -161 23 -261q8 -74 33 -102.5t83 -28.5h10l3 -26l-3 -25h-10q-50 0 -83.5 18zM119.5 127.5q32.5 -19.5 84.5 -19.5q46 0 97 16q-4 16 -8 51
q-5 55 -16 150q-82 -26 -136 -67t-54 -78q0 -33 32.5 -52.5z" />
    <glyph glyph-name="uni0671.fina" unicode="&#x671;" horiz-adv-x="274" arabic-form="final" 
d="M164.5 23q-36.5 23 -48.5 69.5t-10 129.5v41q0 82 -3.5 174.5t-9.5 130.5l46 9q6 -40 10.5 -138.5t4.5 -179.5v-35q-1 -17 -1 -48q0 -48 9 -74t35 -38.5t77 -12.5h6l2 -26l-2 -25h-6q-73 0 -109.5 23zM27.5 678q16.5 13 34.5 16q5 1 14 1q12 0 22 -3q25 44 59 69t71 25
q29 0 50 -19t21 -47q0 -30 -24 -52.5t-60 -29.5q-15 -3 -30 -3q-35 0 -75 14q-29 8 -34 8q-16 0 -27 -8t-23 -22l-26 19q11 19 27.5 32zM186 672q35 0 58 14t24 32q0 13 -12 22t-29 9q-26 0 -51.5 -18t-45.5 -49q28 -10 56 -10z" />
    <glyph glyph-name="uni067E.fina" unicode="&#x67e;" horiz-adv-x="933" arabic-form="final" 
d="M142.5 37q-92.5 45 -101.5 133q-1 9 -1 26q0 39 10 80t25 75l41 -21q-30 -72 -30 -132q0 -15 1 -22q8 -65 87.5 -99t228.5 -34q174 0 271.5 52.5t130.5 161.5l46 -5q-19 -55 -19 -95q0 -50 27 -78t79 -28l3 -26l-3 -25q-67 0 -107.5 39t-36.5 106q-102 -153 -392 -153
q-167 0 -259.5 45zM336 -86l54 -55l-54 -53l-54 54zM422 -193l48 -49l-48 -48l-49 49zM508 -86l53 -55l-53 -53l-55 54z" />
    <glyph glyph-name="uni067E.init" unicode="&#x67e;" horiz-adv-x="329" arabic-form="initial" 
d="M-6 51h35q112 0 162.5 25.5t50.5 79.5q0 37 -18 97.5t-35 98.5l42 22q20 -40 39 -104.5t19 -110.5q0 -80 -63.5 -119.5t-192.5 -39.5h-39v51zM-2 -86l54 -55l-54 -53l-54 54zM84 -193l48 -49l-48 -48l-49 49zM170 -86l53 -55l-53 -53l-55 54z" />
    <glyph glyph-name="uni067E.medi" unicode="&#x67e;" horiz-adv-x="390" arabic-form="medial" 
d="M-5 51h6q79 0 123.5 6t66 19t34.5 36q12 19 12 63q0 34 -11 113l45 10q7 -45 9.5 -91t0.5 -73q4 -41 32 -62t74 -21h9l2 -26l-2 -25h-10q-46 0 -81 20t-49 57q-21 -43 -79.5 -60t-175.5 -17h-6v51zM7 -87l54 -55l-54 -53l-54 54zM93 -194l48 -49l-48 -48l-49 49zM179 -87
l53 -55l-53 -53l-55 54z" />
    <glyph glyph-name="uni0679.fina" unicode="&#x679;" horiz-adv-x="933" arabic-form="final" 
d="M142.5 37q-92.5 45 -101.5 133q-1 9 -1 26q0 39 10 80t25 75l41 -21q-30 -72 -30 -132q0 -15 1 -22q8 -65 87.5 -99t228.5 -34q174 0 271.5 52.5t130.5 161.5l46 -5q-19 -55 -19 -95q0 -50 27 -78t79 -28l3 -26l-3 -25q-67 0 -107.5 39t-36.5 106q-102 -153 -392 -153
q-167 0 -259.5 45zM335 340q10 -5 32 -10q14 22 23 33q1 24 -2.5 69.5t-8.5 79.5l33 5q9 -59 11 -116q41 36 77 36q31 0 50.5 -20.5t19.5 -46.5q0 -21 -15.5 -40.5t-47 -32.5t-76.5 -13q-32 0 -61.5 7t-48.5 15zM431 321q53 0 79 14.5t27 32.5q2 14 -8 23t-29 9
q-25 -1 -50 -22t-47 -55q18 -2 28 -2z" />
    <glyph glyph-name="uni0679.init" unicode="&#x679;" horiz-adv-x="329" arabic-form="initial" 
d="M-6 51h35q112 0 162.5 25.5t50.5 79.5q0 37 -18 97.5t-35 98.5l42 22q20 -40 39 -104.5t19 -110.5q0 -80 -63.5 -119.5t-192.5 -39.5h-39v51zM23 473q10 -5 32 -10q17 27 23 34q1 23 -2.5 69t-8.5 80l33 5q9 -59 11 -116q40 35 77 35q31 0 50.5 -20.5t19.5 -46.5
q0 -21 -15.5 -40.5t-47 -32.5t-76.5 -13q-32 0 -62 7t-48 16zM123 455q51 0 76 14t26 33q2 13 -7 22t-27 9q-25 0 -51 -21.5t-49 -55.5q10 -1 32 -1z" />
    <glyph glyph-name="uni0679.medi" unicode="&#x679;" horiz-adv-x="390" arabic-form="medial" 
d="M-5 51h6q79 0 123.5 6t66 19t34.5 36q12 19 12 63q0 34 -11 113l45 10q7 -45 9.5 -91t0.5 -73q4 -41 32 -62t74 -21h9l2 -26l-2 -25h-10q-46 0 -81 20t-49 57q-21 -43 -79.5 -60t-175.5 -17h-6v51zM35 398q10 -5 32 -10l23 34q1 25 -2.5 69.5t-8.5 78.5l33 5
q9 -59 11 -116q41 36 77 36q31 0 50.5 -20t19.5 -46q0 -21 -15 -41t-46.5 -33t-77.5 -13q-32 0 -61 7t-48 15zM132 379q53 0 79.5 15.5t26.5 33.5q0 13 -9.5 21.5t-28.5 8.5q-25 -1 -50 -22t-46 -55q16 -2 28 -2z" />
    <glyph glyph-name="uni06A4.fina" unicode="&#x6a4;" horiz-adv-x="874" arabic-form="final" 
d="M408 -8q-170 -1 -264 44t-103 134q-1 9 -1 26q0 39 10 80t25 75l41 -21q-30 -72 -30 -132q0 -15 1 -22q8 -65 87.5 -99t228.5 -34h9q95 0 162 14q-42 26 -64.5 60.5t-22.5 75.5q0 13 1 20q6 48 30 87.5t58.5 63t71.5 23.5q39 0 72 -25.5t52 -66.5t19 -84q0 -94 -83 -152
q50 -8 102 -8h69l3 -26l-3 -25h-60q-101 0 -177 26q-89 -34 -230 -34h-4zM563 572l54 -54l-36 -36l-18 -18l-54 54zM556 131.5q28 -33.5 84 -54.5q91 38 106 118q1 5 1 15q0 49 -29 87t-71 38q-41 0 -74 -37.5t-41 -91.5q-4 -41 24 -74.5zM649 667l48 -48l-48 -49l-49 49z
M734 572l54 -54l-53 -54l-55 54z" />
    <glyph glyph-name="uni06A4.init" unicode="&#x6a4;" horiz-adv-x="424" arabic-form="initial" 
d="M-6 51h9q133 0 216 23.5t111 70.5q-12 -1 -40 -1q-163 0 -203 73q-17 30 -17 72q0 44 19.5 88t53 72t71.5 28q53 0 91.5 -38.5t58 -98.5t19.5 -122q0 -18 -4 -50q-13 -82 -108.5 -125t-266.5 -43h-10v51zM128 648l55 -54l-55 -54l-54 54zM187 205.5q47 -12.5 106 -12.5
q19 0 49 2q2 53 -12.5 107t-45 89.5t-72.5 35.5q-26 0 -49 -20.5t-37 -52t-14 -62.5q0 -25 11 -45q17 -29 64 -41.5zM214 743l49 -48l-49 -49l-48 49zM281 630l18 18l55 -54l-36 -36l-18 -18l-55 54z" />
    <glyph glyph-name="uni06A4.medi" unicode="&#x6a4;" horiz-adv-x="470" arabic-form="medial" 
d="M-6 51h24q79 0 146 10q-39 26 -59.5 59.5t-20.5 72.5q0 13 1 20q6 48 30 88t58.5 63t71.5 23q38 0 71 -25.5t52.5 -66t19.5 -83.5q0 -98 -85 -152q47 -9 103 -9h70l3 -26l-3 -25h-60q-103 0 -182 28q-84 -28 -216 -28h-24v51zM154 571l37 -37l18 -18l-55 -54l-53 55z
M152 132.5q27 -33.5 81 -53.5q96 34 109 116q1 5 1 16q0 49 -29 86.5t-71 37.5q-41 0 -73.5 -37.5t-40.5 -91.5q-4 -40 23 -73.5zM240 666l49 -49l-49 -48l-48 49zM290 535l36 36l54 -55l-18 -18l-36 -36l-54 55z" />
    <glyph glyph-name="uni0686.fina" unicode="&#x686;" horiz-adv-x="713" arabic-form="final" 
d="M194.5 -307q-72.5 33 -113.5 92.5t-41 135.5q0 100 62 175.5t177.5 118.5t273.5 48q-26 16 -76 52q-71 51 -118.5 75t-96.5 24q-44 0 -80.5 -26t-58.5 -69l-34 21q29 59 73.5 91t98.5 32q56 0 109 -27t130 -82q51 -37 80.5 -56t60.5 -30l-6 -49q-49 0 -72 -1
q-1 -9 -1 -26q0 -65 37 -103t103 -38h16l3 -26l-3 -25h-16q-85 0 -132.5 50t-47.5 135q0 9 2 31q-136 -10 -234.5 -49t-150.5 -102t-52 -143q0 -61 35 -109t97 -75t142 -27q88 0 153 16.5t104 33.5l16 -41q-38 -19 -107 -39.5t-171 -20.5q-89 0 -161.5 33zM293 35l54 -54
l-53 -54l-55 54zM346 -103l32 32l49 -49l-49 -48l-48 49zM464 35l53 -54l-53 -54l-54 54z" />
    <glyph glyph-name="uni0686.init" unicode="&#x686;" horiz-adv-x="697" arabic-form="initial" 
d="M-6 51h92q128 0 235 35.5t222 96.5l60 30q-62 16 -153 59q-53 27 -89.5 40.5t-75.5 13.5q-43 0 -79 -26t-58 -69l-34 22q29 59 74 91t99 32q42 0 79 -14t103 -47q63 -32 103.5 -49t92.5 -27l2 -47q-19 -5 -43 -16.5t-63 -32.5q-83 -43 -149 -72t-150 -50t-176 -21h-92v51
zM246 -86l54 -55l-54 -53l-54 54zM332 -193l48 -49l-48 -48l-49 49zM418 -86l53 -55l-53 -53l-55 54z" />
    <glyph glyph-name="uni0686.medi" unicode="&#x686;" horiz-adv-x="758" arabic-form="medial" 
d="M618.5 34q-51.5 33 -72.5 101q-120 -62 -226.5 -98.5t-233.5 -36.5h-92v51h92q128 0 235 35.5t222 96.5l60 30q-62 16 -153 59q-53 27 -89.5 40.5t-75.5 13.5q-43 0 -79 -26t-58 -69l-34 22q29 59 74 91t99 32q42 0 79 -14t103 -47q63 -32 103.5 -49t92.5 -27l2 -47
q-27 -8 -85 -38q35 -102 171 -103h10l2 -26l-2 -25h-10q-83 1 -134.5 34zM263 -84l54 -55l-54 -53l-54 54zM349 -191l48 -49l-48 -48l-49 49zM435 -84l53 -55l-53 -53l-55 54z" />
    <glyph glyph-name="uni0688.fina" unicode="&#x688;" horiz-adv-x="563" arabic-form="final" 
d="M479.5 17q-33.5 17 -58.5 53q-42 -32 -89 -52.5t-108 -20.5q-116 0 -194 62l23 40q73 -52 168 -52q55 0 97 16.5t80 43.5l-9 20l-138 325l43 22l137 -324q22 -54 51 -76.5t75 -22.5h11l3 -26l-3 -25h-11q-44 0 -77.5 17zM177 596q6 -3 33 -11q11 19 22 34q1 23 -2.5 69.5
t-8.5 79.5l33 6q9 -54 12 -118q39 37 77 37q31 0 50.5 -20.5t19.5 -46.5q0 -21 -15.5 -40.5t-47 -32.5t-76.5 -13q-32 0 -61.5 7t-48.5 15zM278 578q52 0 77 15t25 33q0 13 -8.5 21.5t-26.5 8.5q-25 0 -50.5 -21t-48.5 -56z" />
    <glyph glyph-name="uni0698.fina" unicode="&#x698;" horiz-adv-x="349" arabic-form="final" 
d="M274 27q3 -22 3 -41q0 -54 -35 -108t-95 -97t-131 -65l-16 46q63 19 116 56t83.5 81.5t30.5 86.5q0 32 -14 105t-36 154l46 16q15 -55 26 -106q15 -57 37 -80.5t60 -23.5h6l2 -26l-2 -25h-6q-45 0 -75 27zM112 475l37 -37l18 -18l-55 -54l-53 55zM198 570l49 -49l-49 -48
l-48 49zM248 439l36 36l54 -55l-18 -18l-36 -36l-54 55z" />
    <glyph glyph-name="uni0691.fina" unicode="&#x691;" horiz-adv-x="349" arabic-form="final" 
d="M274 27q3 -22 3 -41q0 -54 -35 -108t-95 -97t-131 -65l-16 46q63 19 116 56t83.5 81.5t30.5 86.5q0 32 -14 105t-36 154l46 16q15 -55 26 -106q15 -57 37 -80.5t60 -23.5h6l2 -26l-2 -25h-6q-45 0 -75 27zM114 400q10 -5 32 -10q14 22 23 33q1 24 -2.5 69.5t-8.5 79.5
l33 5q9 -59 11 -116q41 36 77 36q31 0 50.5 -20.5t19.5 -46.5q0 -21 -15.5 -40.5t-47 -32.5t-76.5 -13q-32 0 -61.5 7t-48.5 15zM210 381q53 0 79 14.5t27 32.5q2 14 -8 23t-29 9q-25 -1 -50 -22t-47 -55q18 -2 28 -2z" />
    <glyph glyph-name="uni06A9.fina" unicode="&#x6a9;" horiz-adv-x="944" arabic-form="final" 
d="M832 41.5q-49 41.5 -102 126.5q-2 -31 -13 -55q-28 -59 -103.5 -90t-195.5 -31h-10q-170 -1 -264 44t-103 134q-1 9 -1 26q0 39 10 80t25 75l41 -21q-30 -72 -30 -132q0 -15 1 -22q8 -65 86.5 -99t225.5 -34h19q107 0 171.5 22.5t85.5 65.5q10 19 10 45q0 66 -61.5 156
t-165.5 173l7 47l361 158l16 -44l-329 -144q56 -47 102.5 -102.5t75.5 -110.5q59 -102 95.5 -153.5t72.5 -78t81 -26.5h10l2 -26l-2 -25h-10q-59 0 -108 41.5z" />
    <glyph glyph-name="uni06A9.init" unicode="&#x6a9;" horiz-adv-x="438" arabic-form="initial" 
d="M-5 51h19q109 0 172.5 20t84.5 62q10 19 10 42q0 61 -61 143.5t-166 167.5l7 47l361 158l16 -44l-329 -143q97 -82 157 -171t60 -161q0 -33 -13 -59q-27 -58 -101.5 -85.5t-197.5 -27.5h-19v51z" />
    <glyph glyph-name="uni06A9.medi" unicode="&#x6a9;" horiz-adv-x="539" arabic-form="medial" 
d="M425.5 37q-47.5 37 -99.5 122q-3 -27 -13 -46q-27 -58 -101.5 -85.5t-197.5 -27.5h-19v51h19q109 0 172.5 20t84.5 62q10 19 10 42q0 61 -61 143.5t-166 167.5l7 47l361 158l16 -44l-329 -143q62 -53 110.5 -110t75.5 -111q54 -91 89.5 -139t70.5 -70.5t80 -22.5h9l3 -26
l-3 -25h-9q-62 0 -109.5 37z" />
    <glyph glyph-name="uni06AF.fina" unicode="&#x6af;" horiz-adv-x="925" arabic-form="final" 
d="M815.5 33.5q-43.5 33.5 -97.5 118.5q-3 -19 -12 -39q-58 -121 -289 -121h-9q-170 -1 -264 44t-103 134q-1 9 -1 26q0 39 10 80t25 75l41 -21q-30 -72 -30 -132q0 -15 1 -22q8 -65 86.5 -99t225.5 -34h18q204 0 249 89q10 19 10 41q0 51 -54.5 116.5t-164.5 151.5l7 47
l362 158l16 -44l-329 -144q134 -111 180 -195q59 -91 91.5 -133t62.5 -60.5t72 -18.5h11l2 -26l-2 -25h-11q-60 0 -103.5 33.5zM468 601l312 136l14 -30l-330 -144z" />
    <glyph glyph-name="uni06AF.init" unicode="&#x6af;" horiz-adv-x="437" arabic-form="initial" 
d="M-5 51h18q107 0 167.5 19.5t82.5 61.5q11 20 11 43q0 58 -57.5 135.5t-162.5 159.5l6 46l362 158l16 -43l-329 -144q96 -80 151.5 -161.5t55.5 -150.5q0 -32 -14 -62q-28 -59 -98.5 -86t-190.5 -27h-18v51zM70 631l312 136l14 -31l-330 -144z" />
    <glyph glyph-name="uni06AF.medi" unicode="&#x6af;" horiz-adv-x="520" arabic-form="medial" 
d="M410 35.5q-43 35.5 -95 122.5q-3 -25 -13 -45q-28 -59 -98.5 -86t-190.5 -27h-18v51h18q107 0 167.5 19.5t82.5 61.5q11 20 11 43q0 58 -57.5 135.5t-162.5 159.5l6 46l362 158l16 -43l-329 -144q61 -50 107 -103.5t72 -104.5q53 -94 85 -140t64.5 -67t78.5 -21h10l3 -26
l-3 -25h-10q-63 0 -106 35.5zM70 631l312 136l14 -31l-330 -144z" />
    <glyph glyph-name="uni06BA.fina" unicode="&#x6ba;" horiz-adv-x="703" arabic-form="final" 
d="M627 39q3 -27 3 -53q0 -63 -34.5 -125.5t-103.5 -103.5t-168 -41q-96 0 -159.5 39.5t-93 100.5t-29.5 125q0 61 19 125.5t45 112.5l41 -19q-58 -120 -58 -214q0 -102 63 -160.5t172 -58.5q89 0 147.5 33t85.5 83.5t27 102.5q0 48 -10.5 98t-31.5 130l-9 32l44 17
q14 -45 29 -107q17 -58 38 -81.5t60 -23.5h4l3 -26l-3 -25h-4q-46 0 -77 39z" />
    <glyph glyph-name="uni06C1.init" unicode="&#x6c1;" horiz-adv-x="336" arabic-form="initial" 
d="M-3 25l2 26h37q113 0 163.5 25.5t50.5 79.5q0 37 -18.5 98t-35.5 98l42 22q20 -40 39 -104.5t19 -110.5q0 -80 -63 -119.5t-193 -39.5h-41zM82 -111q27 44 70 70l18 -24q-45 -32 -60 -63.5t-17 -53.5q2 2 9 4.5t17 2.5q19 0 33.5 -14t14.5 -34t-14.5 -34t-33.5 -14
q-29 -1 -46.5 19.5t-17.5 54.5q0 42 27 86z" />
    <glyph glyph-name="uni06BE.init" unicode="&#x6be;" horiz-adv-x="608" arabic-form="initial" 
d="M-4 51h13q105 0 171 14q-47 29 -72.5 65t-21.5 75q5 50 32 92.5t66 65.5l-20 6l-26 7l15 48q414 -126 414 -300q0 -22 -6 -43q-11 -40 -52 -60t-101 -20q-75 0 -160 31q-87 -32 -239 -32h-13v51zM158 138.5q33 -31.5 89 -54.5q96 40 96 130q0 48 -28 83.5t-71 35.5
q-26 0 -52 -18t-43.5 -48t-20.5 -62q-3 -35 30 -66.5zM413 49q52 0 82.5 17.5t30.5 53.5q0 40 -38.5 84t-117.5 85q16 -37 16 -75q0 -94 -77 -151q56 -14 104 -14z" />
    <glyph glyph-name="uni06C7.fina" unicode="&#x6c7;" horiz-adv-x="420" arabic-form="final" 
d="M260 -145.5q78 59.5 87 144.5q-105 0 -172.5 14.5t-93.5 62.5q-17 31 -17 70q0 45 20.5 91.5t53.5 77t70 30.5q55 0 94.5 -45.5t60.5 -113.5t25 -135h39l3 -26l-3 -25h-39q-10 -105 -97 -178.5t-240 -105.5l-13 47q144 32 222 91.5zM197.5 60q61.5 -10 149.5 -10
q-4 58 -20.5 114t-46.5 93t-72 38q-25 0 -48.5 -22.5t-38.5 -57t-15 -67.5q0 -28 11 -46q19 -32 80.5 -42zM253 491q-40 0 -64.5 22t-24.5 57q0 34 24 58.5t55 24.5q10 0 20 -3q26 -7 40 -30t14 -53q0 -46 -30 -85q-48 -63 -160 -74l-8 36q90 6 134 47zM216.5 535
q23.5 -14 61.5 -13q9 18 9 39q0 24 -12 41.5t-35 17.5q-19 0 -33 -14t-14 -34q0 -23 23.5 -37z" />
    <glyph glyph-name="uni06C6.fina" unicode="&#x6c6;" horiz-adv-x="420" arabic-form="final" 
d="M260 -145.5q78 59.5 87 144.5q-105 0 -172.5 14.5t-93.5 62.5q-17 31 -17 70q0 45 20.5 91.5t53.5 77t70 30.5q55 0 94.5 -45.5t60.5 -113.5t25 -135h39l3 -26l-3 -25h-39q-10 -105 -97 -178.5t-240 -105.5l-13 47q144 32 222 91.5zM141 582q38 -51 61 -109q24 68 58 118
l27 -22q-46 -63 -68 -137l-31 -14q-9 34 -29.5 73t-42.5 68zM197.5 60q61.5 -10 149.5 -10q-4 58 -20.5 114t-46.5 93t-72 38q-25 0 -48.5 -22.5t-38.5 -57t-15 -67.5q0 -28 11 -46q19 -32 80.5 -42z" />
    <glyph glyph-name="uni06C9.fina" unicode="&#x6c9;" horiz-adv-x="420" arabic-form="final" 
d="M260 -145.5q78 59.5 87 144.5q-105 0 -172.5 14.5t-93.5 62.5q-17 31 -17 70q0 45 20.5 91.5t53.5 77t70 30.5q55 0 94.5 -45.5t60.5 -113.5t25 -135h39l3 -26l-3 -25h-39q-10 -105 -97 -178.5t-240 -105.5l-13 47q144 32 222 91.5zM197.5 60q61.5 -10 149.5 -10
q-4 58 -20.5 114t-46.5 93t-72 38q-25 0 -48.5 -22.5t-38.5 -57t-15 -67.5q0 -28 11 -46q19 -32 80.5 -42zM170.5 509q20.5 39 29.5 73l32 -14q21 -73 67 -137l-26 -22q-16 22 -31.5 53.5t-26.5 64.5q-24 -56 -61 -109l-26 23q22 29 42.5 68z" />
    <glyph glyph-name="uni06CC.fina" unicode="&#x6cc;" horiz-adv-x="706" arabic-form="final" 
d="M183.5 -240q-66.5 32 -104.5 91.5t-38 138.5q0 58 18 122t44 119l40 -18q-57 -122 -57 -217q0 -102 67 -160t181 -58q65 0 122 17t92.5 43t39.5 51q-1 24 -65 66t-149 79l11 49q62 -14 141.5 -23t148.5 -9h36l3 -26l-3 -25h-36q-64 0 -165 11q128 -68 124 -123
q-3 -43 -44 -79.5t-108.5 -58.5t-146.5 -22q-85 0 -151.5 32z" />
    <glyph glyph-name="uni06CC.init" unicode="&#x6cc;" horiz-adv-x="329" arabic-form="initial" 
d="M-6 51h35q112 0 162.5 25.5t50.5 79.5q0 37 -18 97.5t-35 98.5l42 22q20 -40 39 -104.5t19 -110.5q0 -80 -63.5 -119.5t-192.5 -39.5h-39v51zM-32 -144l36 36l56 -56l-36 -36l-19 -19l-56 56zM130 -135l27 27l55 -56l-55 -55l-55 56q13 15 28 28z" />
    <glyph glyph-name="uni06CC.medi" unicode="&#x6cc;" horiz-adv-x="390" arabic-form="medial" 
d="M-5 51h6q79 0 123.5 6t66 19t34.5 36q12 19 12 63q0 34 -11 113l45 10q7 -45 9.5 -91t0.5 -73q4 -41 32 -62t74 -21h9l2 -26l-2 -25h-10q-46 0 -81 20t-49 57q-21 -43 -79.5 -60t-175.5 -17h-6v51zM-31 -141l36 36l56 -56l-36 -36l-19 -19l-56 56zM131 -132l27 27l55 -56
l-55 -55l-55 56q13 15 28 28z" />
    <glyph glyph-name="uniFDFC" unicode="&#xfdfc;" horiz-adv-x="1308" arabic-form="isolated" 
d="M1078 -88q57 33 93.5 76t40.5 85q1 8 1 30q0 87 -22 233l45 9q21 -143 21 -234q0 -18 -2 -44q-6 -55 -46.5 -107t-104 -89.5t-136.5 -50.5l-12 47q65 12 122 45zM110 239l39 -21q-55 -109 -56 -186q0 -90 51.5 -142.5t144.5 -52.5q111 0 161 59.5t44 196.5
q-18 373 -25 488l33 52l141 29q10 2 14 2q28 0 31 -38q9 -151 15 -369l3 -75q3 -77 9.5 -109t32.5 -48t87 -16q110 0 154 26t44 81q-1 40 -18.5 98.5t-35.5 96.5l41 22q19 -42 37.5 -106.5t18.5 -110.5q0 -80 -57.5 -118.5t-188.5 -38.5q-75 0 -110.5 22t-47 66t-14.5 133
q-2 90 -7 230.5t-9 206.5l-126 -27q9 -190 22 -494q7 -161 -56 -235.5t-193 -74.5q-71 0 -125.5 30.5t-84 85.5t-29.5 127q0 90 60 210zM581 -153q50 -6 114 -6q110 0 178 13l11 -47q-79 -12 -181 -12q-72 0 -133 7z" />
    <glyph glyph-name="uni0622.fina" unicode="&#x622;" horiz-adv-x="274" arabic-form="final" 
d="M164.5 23q-36.5 23 -48.5 69.5t-10 129.5v41q0 82 -3.5 174.5t-9.5 130.5l46 9q6 -40 10.5 -138.5t4.5 -179.5v-35q-1 -17 -1 -48q0 -48 9 -74t35 -38.5t77 -12.5h6l2 -26l-2 -25h-6q-73 0 -109.5 23zM26.5 688.5q24.5 21.5 55.5 21.5q29 0 61 -15q3 -1 19.5 -7t34.5 -6
q19 0 39.5 11.5t33.5 30.5l26 -22q-19 -26 -46 -42.5t-53 -16.5q-18 0 -31.5 4t-31.5 12q-16 7 -27.5 10.5t-26.5 3.5q-20 -1 -37 -16.5t-28 -44.5l-29 14q16 41 40.5 62.5z" />
    <glyph glyph-name="uni0623.fina" unicode="&#x623;" horiz-adv-x="274" arabic-form="final" 
d="M164.5 23q-36.5 23 -48.5 69.5t-10 129.5v41q0 82 -3.5 174.5t-9.5 130.5l46 9q6 -40 10.5 -138.5t4.5 -179.5v-35q-1 -17 -1 -48q0 -48 9 -74t35 -38.5t77 -12.5h6l2 -26l-2 -25h-6q-73 0 -109.5 23zM36 639l71 24q-20 12 -31.5 30.5t-11.5 40.5q0 29 18.5 53.5
t47.5 31.5q12 3 24 3q30 0 66 -13l-9 -37q-31 12 -55 12q-26 0 -42.5 -15t-16.5 -35q0 -7 1 -10q3 -15 20.5 -28t40.5 -16l84 28v-37l-207 -69v37z" />
    <glyph glyph-name="uni0624.fina" unicode="&#x624;" horiz-adv-x="420" arabic-form="final" 
d="M260 -145.5q78 59.5 87 144.5q-105 0 -172.5 14.5t-93.5 62.5q-17 31 -17 70q0 45 20.5 91.5t53.5 77t70 30.5q55 0 94.5 -45.5t60.5 -113.5t25 -135h39l3 -26l-3 -25h-39q-10 -105 -97 -178.5t-240 -105.5l-13 47q144 32 222 91.5zM99 430l72 24q-20 12 -31.5 30.5
t-11.5 40.5q0 29 18.5 53.5t47.5 31.5q12 3 24 3q27 0 66 -13l-10 -37q-29 12 -54 12q-26 0 -43 -15t-17 -36q0 -17 18 -33t44 -20l85 28v-37l-208 -69v37zM197.5 60q61.5 -10 149.5 -10q-4 58 -20.5 114t-46.5 93t-72 38q-25 0 -48.5 -22.5t-38.5 -57t-15 -67.5
q0 -28 11 -46q19 -32 80.5 -42z" />
    <glyph glyph-name="uni0625.fina" unicode="&#x625;" horiz-adv-x="251" arabic-form="final" 
d="M142 23q-37 23 -49 69.5t-10 129.5l1 58q0 98 -4 219t-10 158l47 10q6 -38 10 -159.5t4 -219.5q0 -48 -1 -64l-1 -37q0 -53 9 -81t35 -41.5t78 -13.5h5l3 -26l-3 -25h-5q-72 0 -109 23zM28 -236l71 24q-20 11 -31.5 30t-11.5 41q0 35 26.5 61t64.5 26q29 0 65 -13l-9 -36
q-31 12 -56 12t-41.5 -15t-16.5 -35q0 -7 1 -10q3 -15 20.5 -28t40.5 -16l84 28v-38l-207 -68v37z" />
    <glyph glyph-name="uni0626.fina" unicode="&#x626;" horiz-adv-x="706" arabic-form="final" 
d="M183.5 -240q-66.5 32 -104.5 91.5t-38 138.5q0 58 18 122t44 119l40 -18q-57 -122 -57 -217q0 -102 67 -160t181 -58q65 0 122 17t92.5 43t39.5 51q-1 24 -65 66t-149 79l11 49q62 -14 141.5 -23t148.5 -9h36l3 -26l-3 -25h-36q-64 0 -165 11q128 -68 124 -123
q-3 -43 -44 -79.5t-108.5 -58.5t-146.5 -22q-85 0 -151.5 32zM136 313l71 24q-42 27 -42 72q0 35 25.5 61t63.5 26q28 0 67 -13l-10 -37q-29 12 -55 12t-42.5 -15t-16.5 -35q0 -7 1 -10q4 -15 21 -27.5t40 -16.5l84 28v-37l-207 -69v37z" />
    <glyph glyph-name="uni0626.init" unicode="&#x626;" horiz-adv-x="304" arabic-form="initial" 
d="M-5 51h52q87 0 128.5 26t41.5 79q0 37 -18.5 99t-35.5 97l43 22q19 -41 38 -105.5t19 -110.5q0 -79 -55.5 -118.5t-160.5 -39.5h-52v51zM8 450l71 24q-19 12 -30.5 30.5t-11.5 40.5q0 35 26.5 61t64.5 26q29 0 65 -13l-10 -36q-31 12 -55 12q-26 0 -42.5 -15t-16.5 -36
q0 -17 18 -33t44 -20l85 28v-38l-208 -68v37z" />
    <glyph glyph-name="uni0626.medi" unicode="&#x626;" horiz-adv-x="338" arabic-form="medial" 
d="M-5 51h6q71 0 111.5 15t59.5 47q12 20 12 65q0 40 -10 110l45 10q7 -45 9.5 -91t0.5 -73q4 -41 32.5 -62t73.5 -21h9l2 -26l-2 -25h-10q-47 0 -82.5 20.5t-48.5 58.5q-22 -41 -71.5 -60t-130.5 -19h-6v51zM23 403l71 24q-32 21 -40 53q-2 6 -2 19q0 29 18 52.5t47 30.5
q12 3 25 3q30 0 66 -13l-10 -36q-31 12 -56 12t-41.5 -15t-16.5 -35q0 -7 1 -10q4 -15 21 -27.5t40 -16.5l84 28v-38l-207 -68v37z" />
    <glyph glyph-name="uni0627.fina" unicode="&#x627;" horiz-adv-x="251" arabic-form="final" 
d="M142 23q-37 23 -49 69.5t-10 129.5l1 58q0 98 -4 219t-10 158l47 10q6 -38 10 -159.5t4 -219.5q0 -48 -1 -64l-1 -37q0 -53 9 -81t35 -41.5t78 -13.5h5l3 -26l-3 -25h-5q-72 0 -109 23z" />
    <glyph glyph-name="uni0628.fina" unicode="&#x628;" horiz-adv-x="933" arabic-form="final" 
d="M142.5 37q-92.5 45 -101.5 133q-1 9 -1 26q0 39 10 80t25 75l41 -21q-30 -72 -30 -132q0 -15 1 -22q8 -65 87.5 -99t228.5 -34q174 0 271.5 52.5t130.5 161.5l46 -5q-19 -55 -19 -95q0 -50 27 -78t79 -28l3 -26l-3 -25q-67 0 -107.5 39t-36.5 106q-102 -153 -392 -153
q-167 0 -259.5 45zM428 -107l55 -56l-19 -19l-36 -36l-56 56z" />
    <glyph glyph-name="uni0628.init" unicode="&#x628;" horiz-adv-x="304" arabic-form="initial" 
d="M-5 51h52q87 0 128.5 26t41.5 79q0 37 -18.5 99t-35.5 97l43 22q19 -41 38 -105.5t19 -110.5q0 -79 -55.5 -118.5t-160.5 -39.5h-52v51zM71 -106l55 -56l-19 -19l-36 -36l-56 56z" />
    <glyph glyph-name="uni0628.medi" unicode="&#x628;" horiz-adv-x="338" arabic-form="medial" 
d="M-5 51h6q71 0 111.5 15t59.5 47q12 20 12 65q0 40 -10 110l45 10q7 -45 9.5 -91t0.5 -73q4 -41 32.5 -62t73.5 -21h9l2 -26l-2 -25h-10q-47 0 -82.5 20.5t-48.5 58.5q-22 -41 -71.5 -60t-130.5 -19h-6v51zM61 -106l55 -56l-19 -19l-36 -36l-56 56z" />
    <glyph glyph-name="uni0629.fina" unicode="&#x629;" horiz-adv-x="457" arabic-form="final" 
d="M369.5 18q-33.5 18 -52.5 57q-58 -18 -111 -18q-77 0 -123.5 35.5t-39.5 96.5q6 57 68.5 106t160.5 80q-1 22 -5 59l47 9q13 -161 23 -261q8 -74 33 -102.5t83 -28.5h10l3 -26l-3 -25h-10q-50 0 -83.5 18zM119.5 127.5q32.5 -19.5 84.5 -19.5q46 0 97 16q-4 16 -8 51
q-5 55 -16 150q-82 -26 -136 -67t-54 -78q0 -33 32.5 -52.5zM162 614l55 -56l-27 -27q-15 -13 -28 -28l-55 56zM295 595l19 19l56 -56l-19 -19l-36 -36l-56 56z" />
    <glyph glyph-name="uni062A.fina" unicode="&#x62a;" horiz-adv-x="933" arabic-form="final" 
d="M142.5 37q-92.5 45 -101.5 133q-1 9 -1 26q0 39 10 80t25 75l41 -21q-30 -72 -30 -132q0 -15 1 -22q8 -65 87.5 -99t228.5 -34q174 0 271.5 52.5t130.5 161.5l46 -5q-19 -55 -19 -95q0 -50 27 -78t79 -28l3 -26l-3 -25q-67 0 -107.5 39t-36.5 106q-102 -153 -392 -153
q-167 0 -259.5 45zM354 392l56 -56l-56 -55l-55 56zM470 356l36 36l56 -56l-36 -36l-19 -19l-56 56z" />
    <glyph glyph-name="uni062A.init" unicode="&#x62a;" horiz-adv-x="329" arabic-form="initial" 
d="M-6 51h35q112 0 162.5 25.5t50.5 79.5q0 37 -18 97.5t-35 98.5l42 22q20 -40 39 -104.5t19 -110.5q0 -80 -63.5 -119.5t-192.5 -39.5h-39v51zM87 560l55 -55l-37 -37l-18 -18l-37 37l-18 18q27 28 55 55zM203 524l36 36l56 -55l-55 -55l-56 55z" />
    <glyph glyph-name="uni062A.medi" unicode="&#x62a;" horiz-adv-x="390" arabic-form="medial" 
d="M-5 51h6q79 0 123.5 6t66 19t34.5 36q12 19 12 63q0 34 -11 113l45 10q7 -45 9.5 -91t0.5 -73q4 -41 32 -62t74 -21h9l2 -26l-2 -25h-10q-46 0 -81 20t-49 57q-21 -43 -79.5 -60t-175.5 -17h-6v51zM85 498l56 -56l-56 -55l-55 56zM201 462l36 36l56 -56l-36 -36l-19 -19
l-56 56z" />
    <glyph glyph-name="uni062B.fina" unicode="&#x62b;" horiz-adv-x="933" arabic-form="final" 
d="M142.5 37q-92.5 45 -101.5 133q-1 9 -1 26q0 39 10 80t25 75l41 -21q-30 -72 -30 -132q0 -15 1 -22q8 -65 87.5 -99t228.5 -34q174 0 271.5 52.5t130.5 161.5l46 -5q-19 -55 -19 -95q0 -50 27 -78t79 -28l3 -26l-3 -25q-67 0 -107.5 39t-36.5 106q-102 -153 -392 -153
q-167 0 -259.5 45zM348 362l54 -55l-18 -18l-36 -36l-54 55zM434 457l48 -49l-48 -48l-49 49zM519 362l54 -55l-53 -54l-55 55z" />
    <glyph glyph-name="uni062B.init" unicode="&#x62b;" horiz-adv-x="329" arabic-form="initial" 
d="M-6 51h35q112 0 162.5 25.5t50.5 79.5q0 37 -18 97.5t-35 98.5l42 22q20 -40 39 -104.5t19 -110.5q0 -80 -63.5 -119.5t-192.5 -39.5h-39v51zM89 560l37 -37l18 -18l-55 -54l-53 55zM175 655l49 -49l-49 -48l-48 49zM225 524l36 36l54 -55l-18 -18l-36 -36l-54 55z" />
    <glyph glyph-name="uni062B.medi" unicode="&#x62b;" horiz-adv-x="390" arabic-form="medial" 
d="M-5 51h6q79 0 123.5 6t66 19t34.5 36q12 19 12 63q0 34 -11 113l45 10q7 -45 9.5 -91t0.5 -73q4 -41 32 -62t74 -21h9l2 -26l-2 -25h-10q-46 0 -81 20t-49 57q-21 -43 -79.5 -60t-175.5 -17h-6v51zM72 500l37 -37l18 -18l-55 -54l-53 55zM158 595l49 -49l-49 -48l-48 49z
M208 464l36 36l54 -55l-18 -18l-36 -36l-54 55z" />
    <glyph glyph-name="uni062C.fina" unicode="&#x62c;" horiz-adv-x="713" arabic-form="final" 
d="M194.5 -307q-72.5 33 -113.5 92.5t-41 135.5q0 100 62 175.5t177.5 118.5t273.5 48q-26 16 -76 52q-71 51 -118.5 75t-96.5 24q-44 0 -80.5 -26t-58.5 -69l-34 21q29 59 73.5 91t98.5 32q56 0 109 -27t130 -82q51 -37 80.5 -56t60.5 -30l-6 -49q-49 0 -72 -1
q-1 -9 -1 -26q0 -65 37 -103t103 -38h16l3 -26l-3 -25h-16q-85 0 -132.5 50t-47.5 135q0 9 2 31q-136 -10 -234.5 -49t-150.5 -102t-52 -143q0 -61 35 -109t97 -75t142 -27q88 0 153 16.5t104 33.5l16 -41q-38 -19 -107 -39.5t-171 -20.5q-89 0 -161.5 33zM367 10l55 -56
l-19 -19l-36 -36l-56 56z" />
    <glyph glyph-name="uni062C.init" unicode="&#x62c;" horiz-adv-x="697" arabic-form="initial" 
d="M-6 51h92q128 0 235 35.5t222 96.5l60 30q-62 16 -153 59q-53 27 -89.5 40.5t-75.5 13.5q-43 0 -79 -26t-58 -69l-34 22q29 59 74 91t99 32q42 0 79 -14t103 -47q63 -32 103.5 -49t92.5 -27l2 -47q-19 -5 -43 -16.5t-63 -32.5q-83 -43 -149 -72t-150 -50t-176 -21h-92v51
zM321 -101l55 -56l-19 -19l-36 -36l-56 56z" />
    <glyph glyph-name="uni062C.medi" unicode="&#x62c;" horiz-adv-x="758" arabic-form="medial" 
d="M618.5 34q-51.5 33 -72.5 101q-120 -62 -226.5 -98.5t-233.5 -36.5h-92v51h92q128 0 235 35.5t222 96.5l60 30q-62 16 -153 59q-53 27 -89.5 40.5t-75.5 13.5q-43 0 -79 -26t-58 -69l-34 22q29 59 74 91t99 32q42 0 79 -14t103 -47q63 -32 103.5 -49t92.5 -27l2 -47
q-27 -8 -85 -38q35 -102 171 -103h10l2 -26l-2 -25h-10q-83 1 -134.5 34zM321 -101l55 -56l-19 -19l-36 -36l-56 56z" />
    <glyph glyph-name="uni062D.fina" unicode="&#x62d;" horiz-adv-x="713" arabic-form="final" 
d="M194.5 -307q-72.5 33 -113.5 92.5t-41 135.5q0 100 62 175.5t177.5 118.5t273.5 48q-26 16 -76 52q-71 51 -118.5 75t-96.5 24q-44 0 -80.5 -26t-58.5 -69l-34 21q29 59 73.5 91t98.5 32q56 0 109 -27t130 -82q51 -37 80.5 -56t60.5 -30l-6 -49q-49 0 -72 -1
q-1 -9 -1 -26q0 -65 37 -103t103 -38h16l3 -26l-3 -25h-16q-85 0 -132.5 50t-47.5 135q0 9 2 31q-136 -10 -234.5 -49t-150.5 -102t-52 -143q0 -61 35 -109t97 -75t142 -27q88 0 153 16.5t104 33.5l16 -41q-38 -19 -107 -39.5t-171 -20.5q-89 0 -161.5 33z" />
    <glyph glyph-name="uni062D.init" unicode="&#x62d;" horiz-adv-x="697" arabic-form="initial" 
d="M-6 51h92q128 0 235 35.5t222 96.5l60 30q-62 16 -153 59q-53 27 -89.5 40.5t-75.5 13.5q-43 0 -79 -26t-58 -69l-34 22q29 59 74 91t99 32q42 0 79 -14t103 -47q63 -32 103.5 -49t92.5 -27l2 -47q-19 -5 -43 -16.5t-63 -32.5q-83 -43 -149 -72t-150 -50t-176 -21h-92v51
z" />
    <glyph glyph-name="uni062D.medi" unicode="&#x62d;" horiz-adv-x="758" arabic-form="medial" 
d="M618.5 34q-51.5 33 -72.5 101q-120 -62 -226.5 -98.5t-233.5 -36.5h-92v51h92q128 0 235 35.5t222 96.5l60 30q-62 16 -153 59q-53 27 -89.5 40.5t-75.5 13.5q-43 0 -79 -26t-58 -69l-34 22q29 59 74 91t99 32q42 0 79 -14t103 -47q63 -32 103.5 -49t92.5 -27l2 -47
q-27 -8 -85 -38q35 -102 171 -103h10l2 -26l-2 -25h-10q-83 1 -134.5 34z" />
    <glyph glyph-name="uni062E.fina" unicode="&#x62e;" horiz-adv-x="713" arabic-form="final" 
d="M194.5 -307q-72.5 33 -113.5 92.5t-41 135.5q0 100 62 175.5t177.5 118.5t273.5 48q-26 16 -76 52q-71 51 -118.5 75t-96.5 24q-44 0 -80.5 -26t-58.5 -69l-34 21q29 59 73.5 91t98.5 32q56 0 109 -27t130 -82q51 -37 80.5 -56t60.5 -30l-6 -49q-49 0 -72 -1
q-1 -9 -1 -26q0 -65 37 -103t103 -38h16l3 -26l-3 -25h-16q-85 0 -132.5 50t-47.5 135q0 9 2 31q-136 -10 -234.5 -49t-150.5 -102t-52 -143q0 -61 35 -109t97 -75t142 -27q88 0 153 16.5t104 33.5l16 -41q-38 -19 -107 -39.5t-171 -20.5q-89 0 -161.5 33zM257 691l28 -27
l27 -28l-19 -19l-36 -36l-56 55z" />
    <glyph glyph-name="uni062E.init" unicode="&#x62e;" horiz-adv-x="697" arabic-form="initial" 
d="M-6 51h92q128 0 235 35.5t222 96.5l60 30q-62 16 -153 59q-53 27 -89.5 40.5t-75.5 13.5q-43 0 -79 -26t-58 -69l-34 22q29 59 74 91t99 32q42 0 79 -14t103 -47q63 -32 103.5 -49t92.5 -27l2 -47q-19 -5 -43 -16.5t-63 -32.5q-83 -43 -149 -72t-150 -50t-176 -21h-92v51
zM277 578l55 -56l-55 -55l-56 56z" />
    <glyph glyph-name="uni062E.medi" unicode="&#x62e;" horiz-adv-x="758" arabic-form="medial" 
d="M618.5 34q-51.5 33 -72.5 101q-120 -62 -226.5 -98.5t-233.5 -36.5h-92v51h92q128 0 235 35.5t222 96.5l60 30q-62 16 -153 59q-53 27 -89.5 40.5t-75.5 13.5q-43 0 -79 -26t-58 -69l-34 22q29 59 74 91t99 32q42 0 79 -14t103 -47q63 -32 103.5 -49t92.5 -27l2 -47
q-27 -8 -85 -38q35 -102 171 -103h10l2 -26l-2 -25h-10q-83 1 -134.5 34zM277 578l55 -56l-55 -55l-56 56z" />
    <glyph glyph-name="uni062F.fina" unicode="&#x62f;" horiz-adv-x="563" arabic-form="final" 
d="M479.5 17q-33.5 17 -58.5 53q-42 -32 -89 -52.5t-108 -20.5q-116 0 -194 62l23 40q73 -52 168 -52q55 0 97 16.5t80 43.5l-9 20l-138 325l43 22l137 -324q22 -54 51 -76.5t75 -22.5h11l3 -26l-3 -25h-11q-44 0 -77.5 17z" />
    <glyph glyph-name="uni0630.fina" unicode="&#x630;" horiz-adv-x="563" arabic-form="final" 
d="M479.5 17q-33.5 17 -58.5 53q-42 -32 -89 -52.5t-108 -20.5q-116 0 -194 62l23 40q73 -52 168 -52q55 0 97 16.5t80 43.5l-9 20l-138 325l43 22l137 -324q22 -54 51 -76.5t75 -22.5h11l3 -26l-3 -25h-11q-44 0 -77.5 17zM250 625l27 27l55 -56l-55 -55l-55 56
q13 15 28 28z" />
    <glyph glyph-name="uni0631.fina" unicode="&#x631;" horiz-adv-x="349" arabic-form="final" 
d="M274 27q3 -22 3 -41q0 -54 -35 -108t-95 -97t-131 -65l-16 46q63 19 116 56t83.5 81.5t30.5 86.5q0 32 -14 105t-36 154l46 16q15 -55 26 -106q15 -57 37 -80.5t60 -23.5h6l2 -26l-2 -25h-6q-45 0 -75 27z" />
    <glyph glyph-name="uni0632.fina" unicode="&#x632;" horiz-adv-x="349" arabic-form="final" 
d="M274 27q3 -22 3 -41q0 -54 -35 -108t-95 -97t-131 -65l-16 46q63 19 116 56t83.5 81.5t30.5 86.5q0 32 -14 105t-36 154l46 16q15 -55 26 -106q15 -57 37 -80.5t60 -23.5h6l2 -26l-2 -25h-6q-45 0 -75 27zM185 476l28 -27l27 -28l-19 -19l-36 -36l-56 55z" />
    <glyph glyph-name="uni0633.fina" unicode="&#x633;" horiz-adv-x="1223" arabic-form="final" 
d="M1151.5 17q-31.5 17 -50.5 49q-19 -30 -50.5 -47.5t-67.5 -18.5h-4q-55 1 -87 32t-38 88q-19 -51 -58.5 -85.5t-85.5 -34.5h-2q-49 0 -80 36q2 -34 2 -50q0 -63 -34.5 -125.5t-103.5 -103.5t-168 -41q-96 0 -159.5 39.5t-93 100.5t-29.5 125q0 61 19 125.5t45 112.5
l41 -19q-25 -52 -41 -107t-17 -106q0 -102 62.5 -161t172.5 -59q89 0 147.5 33t85.5 83.5t27 102.5q0 48 -10.5 98t-31.5 130l-9 32l44 17l28 -101q14 -55 37 -83t68 -28q32 0 58.5 20t49.5 60q13 22 22.5 56.5t19.5 82.5l42 -4q-2 -9 -8 -42t-6 -63q0 -110 93 -110
q32 0 60.5 16.5t40.5 40.5q-12 42 -35 167l43 11q25 -132 36 -164q23 -71 97 -71h6l3 -26l-3 -25h-6q-40 0 -71.5 17z" />
    <glyph glyph-name="uni0633.init" unicode="&#x633;" horiz-adv-x="730" arabic-form="initial" 
d="M466.5 32.5q-31.5 31.5 -37.5 87.5q-19 -50 -58.5 -84.5t-85.5 -35.5h-3q-48 0 -77 31t-31 83q-31 -56 -75 -85t-98 -29h-5l-2 25l2 26h5q41 0 75.5 19.5t55.5 52.5q36 55 57 134l43 -5q-12 -47 -16 -69t-5 -47q0 -41 18 -63t54 -22h2q32 0 58.5 20t49.5 60q22 38 41 139
l43 -4q-2 -9 -8 -42t-6 -63q0 -110 92 -110q43 0 67 26.5t24 74.5q0 41 -18 102t-36 97l42 23q20 -42 39 -107t19 -115q0 -65 -37.5 -107.5t-96.5 -44.5h-2h-1v0h-2q-55 1 -86.5 32.5z" />
    <glyph glyph-name="uni0633.medi" unicode="&#x633;" horiz-adv-x="797" arabic-form="medial" 
d="M725.5 17q-31.5 17 -50.5 49q-19 -30 -50 -47.5t-67 -18.5h-2h-1v0h-2q-55 1 -86.5 32.5t-37.5 87.5q-19 -50 -58.5 -84.5t-85.5 -35.5h-3q-48 0 -77 31t-31 83q-31 -56 -75 -85t-98 -29h-5l-2 25l2 26h5q41 0 75.5 19.5t55.5 52.5q36 55 57 134l43 -5q-12 -47 -16 -69
t-5 -47q0 -41 18 -63t54 -22h2q32 0 58.5 20t49.5 60q22 38 41 139l43 -4q-2 -9 -8 -42t-6 -63q0 -110 92 -110q32 0 60.5 16.5t40.5 40.5q-12 42 -35 167l43 11q25 -132 36 -164q23 -71 97 -71h6l3 -26l-3 -25h-6q-40 0 -71.5 17z" />
    <glyph glyph-name="uni0634.fina" unicode="&#x634;" horiz-adv-x="1223" arabic-form="final" 
d="M1151.5 17q-31.5 17 -50.5 49q-19 -30 -50.5 -47.5t-67.5 -18.5h-4q-55 1 -87 32t-38 88q-19 -51 -58.5 -85.5t-85.5 -34.5h-2q-49 0 -80 36q2 -34 2 -50q0 -63 -34.5 -125.5t-103.5 -103.5t-168 -41q-96 0 -159.5 39.5t-93 100.5t-29.5 125q0 61 19 125.5t45 112.5
l41 -19q-25 -52 -41 -107t-17 -106q0 -102 62.5 -161t172.5 -59q89 0 147.5 33t85.5 83.5t27 102.5q0 48 -10.5 98t-31.5 130l-9 32l44 17l28 -101q14 -55 37 -83t68 -28q32 0 58.5 20t49.5 60q13 22 22.5 56.5t19.5 82.5l42 -4q-2 -9 -8 -42t-6 -63q0 -110 93 -110
q32 0 60.5 16.5t40.5 40.5q-12 42 -35 167l43 11q25 -132 36 -164q23 -71 97 -71h6l3 -26l-3 -25h-6q-40 0 -71.5 17zM794 485l54 -54l-36 -36l-18 -18l-54 54zM880 580l48 -48l-48 -49l-49 49zM965 485l54 -54l-53 -54l-55 54z" />
    <glyph glyph-name="uni0634.init" unicode="&#x634;" horiz-adv-x="730" arabic-form="initial" 
d="M466.5 32.5q-31.5 31.5 -37.5 87.5q-19 -50 -58.5 -84.5t-85.5 -35.5h-3q-48 0 -77 31t-31 83q-31 -56 -75 -85t-98 -29h-5l-2 25l2 26h5q41 0 75.5 19.5t55.5 52.5q36 55 57 134l43 -5q-12 -47 -16 -69t-5 -47q0 -41 18 -63t54 -22h2q32 0 58.5 20t49.5 60q22 38 41 139
l43 -4q-2 -9 -8 -42t-6 -63q0 -110 92 -110q43 0 67 26.5t24 74.5q0 41 -18 102t-36 97l42 23q20 -42 39 -107t19 -115q0 -65 -37.5 -107.5t-96.5 -44.5h-2h-1v0h-2q-55 1 -86.5 32.5zM366 517l55 -54l-55 -54l-54 55zM452 613l49 -49l-49 -48l-48 49zM537 517l55 -54
l-54 -54l-55 55z" />
    <glyph glyph-name="uni0634.medi" unicode="&#x634;" horiz-adv-x="797" arabic-form="medial" 
d="M725.5 17q-31.5 17 -50.5 49q-19 -30 -50 -47.5t-67 -18.5h-2h-1v0h-2q-55 1 -86.5 32.5t-37.5 87.5q-19 -50 -58.5 -84.5t-85.5 -35.5h-3q-48 0 -77 31t-31 83q-31 -56 -75 -85t-98 -29h-5l-2 25l2 26h5q41 0 75.5 19.5t55.5 52.5q36 55 57 134l43 -5q-12 -47 -16 -69
t-5 -47q0 -41 18 -63t54 -22h2q32 0 58.5 20t49.5 60q22 38 41 139l43 -4q-2 -9 -8 -42t-6 -63q0 -110 92 -110q32 0 60.5 16.5t40.5 40.5q-12 42 -35 167l43 11q25 -132 36 -164q23 -71 97 -71h6l3 -26l-3 -25h-6q-40 0 -71.5 17zM372 484l18 -18l37 -37q-37 -36 -55 -54
l-54 55zM458 579l49 -49l-49 -48l-48 49zM525 466l18 18l55 -55l-18 -18l-36 -36q-27 28 -55 55z" />
    <glyph glyph-name="uni0635.fina" unicode="&#x635;" horiz-adv-x="1264" arabic-form="final" 
d="M164.5 -244.5q-63.5 39.5 -93 100.5t-29.5 125q0 61 19 125.5t45 112.5l41 -19q-58 -120 -58 -214q0 -101 63 -160t172 -59q89 0 147.5 33t85.5 83.5t27 102.5q0 56 -17.5 122.5t-44.5 131.5l44 21q18 -46 20 -52q38 -90 96 -131q60 103 151.5 191.5t198.5 88.5
q48 0 86.5 -20.5t61 -56.5t22.5 -79q0 -46 -22 -86t-63 -70q72 5 153 5l3 -26l-3 -25q-89 0 -137 2t-78 9q-79 -33 -179 -33q-85 0 -147 22.5t-107 72.5q8 -48 8 -87q0 -63 -34.5 -125.5t-103.5 -103.5t-168 -41q-96 0 -159.5 39.5zM878 29q76 0 138 21t99.5 57.5t42.5 81.5
q3 31 -11.5 58.5t-44.5 44t-68 16.5q-94 0 -176.5 -79.5t-137.5 -172.5q61 -27 158 -27z" />
    <glyph glyph-name="uni0635.init" unicode="&#x635;" horiz-adv-x="848" arabic-form="initial" 
d="M-6 51h15q54 0 89 23t56.5 72.5t33.5 133.5l43 -8q-6 -40 -6 -72q0 -93 54 -133q76 137 171.5 214.5t187.5 77.5q49 0 87.5 -19.5t60.5 -54.5t22 -79q0 -66 -47.5 -117.5t-131.5 -80.5t-189 -29q-124 0 -181 43.5t-64 108.5q-24 -60 -65.5 -95.5t-121.5 -35.5h-14v51z
M438 30q90 0 163 22t115.5 60.5t45.5 84.5q5 49 -29 80.5t-93 31.5q-80 0 -165 -69.5t-157 -193.5q48 -16 120 -16z" />
    <glyph glyph-name="uni0635.medi" unicode="&#x635;" horiz-adv-x="863" arabic-form="medial" 
d="M719 2.5q-48 2.5 -75 10.5q-90 -34 -207 -34q-122 0 -178.5 43.5t-63.5 108.5q-24 -60 -65.5 -95.5t-121.5 -35.5h-14v51h15q54 0 89 23t56.5 72.5t33.5 133.5l43 -8q-6 -40 -6 -72q0 -93 54 -133q76 137 171.5 214.5t187.5 77.5q49 0 87.5 -19.5t60.5 -54.5t22 -79
q0 -49 -26.5 -90t-75.5 -72q75 7 157 7h5l3 -26l-3 -25h-5q-96 0 -144 2.5zM438 30q90 0 163 22t115.5 60.5t45.5 84.5q5 49 -29 80.5t-93 31.5q-80 0 -165 -69.5t-157 -193.5q48 -16 120 -16z" />
    <glyph glyph-name="uni0636.fina" unicode="&#x636;" horiz-adv-x="1264" arabic-form="final" 
d="M164.5 -244.5q-63.5 39.5 -93 100.5t-29.5 125q0 61 19 125.5t45 112.5l41 -19q-58 -120 -58 -214q0 -101 63 -160t172 -59q89 0 147.5 33t85.5 83.5t27 102.5q0 56 -17.5 122.5t-44.5 131.5l44 21q18 -46 20 -52q38 -90 96 -131q60 103 151.5 191.5t198.5 88.5
q48 0 86.5 -20.5t61 -56.5t22.5 -79q0 -46 -22 -86t-63 -70q72 5 153 5l3 -26l-3 -25q-89 0 -137 2t-78 9q-79 -33 -179 -33q-85 0 -147 22.5t-107 72.5q8 -48 8 -87q0 -63 -34.5 -125.5t-103.5 -103.5t-168 -41q-96 0 -159.5 39.5zM878 29q76 0 138 21t99.5 57.5t42.5 81.5
q3 31 -11.5 58.5t-44.5 44t-68 16.5q-94 0 -176.5 -79.5t-137.5 -172.5q61 -27 158 -27zM1003 549l55 -56l-19 -19l-36 -36l-56 56z" />
    <glyph glyph-name="uni0636.init" unicode="&#x636;" horiz-adv-x="848" arabic-form="initial" 
d="M-6 51h15q54 0 89 23t56.5 72.5t33.5 133.5l43 -8q-6 -40 -6 -72q0 -93 54 -133q76 137 171.5 214.5t187.5 77.5q49 0 87.5 -19.5t60.5 -54.5t22 -79q0 -66 -47.5 -117.5t-131.5 -80.5t-189 -29q-124 0 -181 43.5t-64 108.5q-24 -60 -65.5 -95.5t-121.5 -35.5h-14v51z
M438 30q90 0 163 22t115.5 60.5t45.5 84.5q5 49 -29 80.5t-93 31.5q-80 0 -165 -69.5t-157 -193.5q48 -16 120 -16zM608 537l18 -18l37 -37l-55 -55l-56 55z" />
    <glyph glyph-name="uni0636.medi" unicode="&#x636;" horiz-adv-x="863" arabic-form="medial" 
d="M719 2.5q-48 2.5 -75 10.5q-90 -34 -207 -34q-122 0 -178.5 43.5t-63.5 108.5q-24 -60 -65.5 -95.5t-121.5 -35.5h-14v51h15q54 0 89 23t56.5 72.5t33.5 133.5l43 -8q-6 -40 -6 -72q0 -93 54 -133q76 137 171.5 214.5t187.5 77.5q49 0 87.5 -19.5t60.5 -54.5t22 -79
q0 -49 -26.5 -90t-75.5 -72q75 7 157 7h5l3 -26l-3 -25h-5q-96 0 -144 2.5zM438 30q90 0 163 22t115.5 60.5t45.5 84.5q5 49 -29 80.5t-93 31.5q-80 0 -165 -69.5t-157 -193.5q48 -16 120 -16zM608 537l18 -18l37 -37l-55 -55l-56 55z" />
    <glyph glyph-name="uni0637.fina" unicode="&#x637;" horiz-adv-x="742" arabic-form="final" 
d="M160 65q34 62 76 116q4 45 4 120q0 98 -6.5 209t-12.5 147l46 10q6 -39 13 -139.5t7 -194.5q0 -64 -2 -93q61 66 123.5 101t122.5 35q49 0 87.5 -19.5t60.5 -54.5t22 -78q0 -56 -34.5 -102t-95.5 -76q129 6 179 5l2 -26l-3 -25q-190 0 -264 14q-70 -18 -154 -18
q-90 0 -171.5 17.5t-139.5 44.5l16 46q54 -24 124 -39zM331 47q94 0 168 24t115.5 64.5t41.5 88.5q0 45 -34.5 74t-90.5 29q-79 -1 -165 -72.5t-160 -197.5q63 -10 125 -10z" />
    <glyph glyph-name="uni0637.init" unicode="&#x637;" horiz-adv-x="683" arabic-form="initial" 
d="M91 51q45 79 86 132q3 44 3 107q0 97 -6 213.5t-11 153.5l46 10q6 -35 12 -138t6 -198q0 -34 -2 -90q62 67 125 102.5t123 35.5q51 0 91 -21.5t60.5 -60t16.5 -85.5q-5 -63 -53.5 -111t-130.5 -74.5t-184 -26.5h-278v51h96zM269 50q95 0 170 23.5t117 64t42 89.5
q0 45 -33.5 73.5t-88.5 28.5q-81 0 -169.5 -74t-164.5 -205h127z" />
    <glyph glyph-name="uni0637.medi" unicode="&#x637;" horiz-adv-x="686" arabic-form="medial" 
d="M91 51q45 79 86 132q3 44 3 107q0 97 -6 213.5t-11 153.5l46 10q6 -35 12 -138t6 -198q0 -34 -2 -90q62 67 125 102.5t123 35.5q48 0 86.5 -19.5t60.5 -54t22 -77.5q0 -58 -36 -105t-102 -78q98 6 188 6l2 -26l-2 -25q-205 0 -277 15q-64 -15 -142 -15h-278v51h96z
M269 50q95 0 170 23.5t117 64t42 89.5q0 45 -33.5 73.5t-88.5 28.5q-81 0 -169.5 -74t-164.5 -205h127z" />
    <glyph glyph-name="uni0638.fina" unicode="&#x638;" horiz-adv-x="742" arabic-form="final" 
d="M160 65q34 62 76 116q4 45 4 120q0 98 -6.5 209t-12.5 147l46 10q6 -39 13 -139.5t7 -194.5q0 -64 -2 -93q61 66 123.5 101t122.5 35q49 0 87.5 -19.5t60.5 -54.5t22 -78q0 -56 -34.5 -102t-95.5 -76q129 6 179 5l2 -26l-3 -25q-190 0 -264 14q-70 -18 -154 -18
q-90 0 -171.5 17.5t-139.5 44.5l16 46q54 -24 124 -39zM331 47q94 0 168 24t115.5 64.5t41.5 88.5q0 45 -34.5 74t-90.5 29q-79 -1 -165 -72.5t-160 -197.5q63 -10 125 -10zM509 625l55 -56l-19 -19l-36 -36l-56 56z" />
    <glyph glyph-name="uni0638.init" unicode="&#x638;" horiz-adv-x="683" arabic-form="initial" 
d="M91 51q45 79 86 132q3 44 3 107q0 97 -6 213.5t-11 153.5l46 10q6 -35 12 -138t6 -198q0 -34 -2 -90q62 67 125 102.5t123 35.5q51 0 91 -21.5t60.5 -60t16.5 -85.5q-5 -63 -53.5 -111t-130.5 -74.5t-184 -26.5h-278v51h96zM269 50q95 0 170 23.5t117 64t42 89.5
q0 45 -33.5 73.5t-88.5 28.5q-81 0 -169.5 -74t-164.5 -205h127zM456 625l55 -56l-55 -55l-56 56z" />
    <glyph glyph-name="uni0638.medi" unicode="&#x638;" horiz-adv-x="686" arabic-form="medial" 
d="M91 51q45 79 86 132q3 44 3 107q0 97 -6 213.5t-11 153.5l46 10q6 -35 12 -138t6 -198q0 -34 -2 -90q62 67 125 102.5t123 35.5q48 0 86.5 -19.5t60.5 -54t22 -77.5q0 -58 -36 -105t-102 -78q98 6 188 6l2 -26l-2 -25q-205 0 -277 15q-64 -15 -142 -15h-278v51h96z
M269 50q95 0 170 23.5t117 64t42 89.5q0 45 -33.5 73.5t-88.5 28.5q-81 0 -169.5 -74t-164.5 -205h127zM456 625l55 -56l-55 -55l-56 56z" />
    <glyph glyph-name="uni0639.fina" unicode="&#x639;" horiz-adv-x="536" arabic-form="final" 
d="M542 51l2 -26l-2 -25h-21q-84 0 -148.5 23.5t-121.5 71.5q-73 -41 -115.5 -82.5t-47.5 -94.5q-2 -18 -2 -26q0 -48 28.5 -87.5t79.5 -62.5t114 -23q59 0 115 16t89 40l22 -41q-42 -30 -102.5 -48t-123.5 -18q-74 0 -135.5 30t-97 82t-35.5 115q0 10 2 30q9 66 54 113.5
t118 89.5q-32 31 -64.5 70t-78.5 99l2 34q37 37 95.5 56t120.5 19q67 0 117.5 -22t64.5 -62q6 -16 6 -32q0 -48 -47 -87.5t-129 -81.5l-5 -3q47 -33 101.5 -50t123.5 -17h21zM193.5 215q31.5 -37 62.5 -65l25 13q79 40 115 67.5t36 58.5q0 11 -2 16q-10 24 -50.5 39.5
t-92.5 15.5q-47 0 -91.5 -13t-76.5 -40q43 -55 74.5 -92z" />
    <glyph glyph-name="uni0639.init" unicode="&#x639;" horiz-adv-x="520" arabic-form="initial" 
d="M-5 51h12q113 0 182 4q-43 25 -67.5 65t-24.5 87t25 88t68.5 65t94.5 24q78 0 149 -62l-22 -36q-61 48 -125 48q-41 0 -74.5 -17t-52 -46.5t-18.5 -63.5q0 -38 24 -70t65 -51t91 -18q84 13 147 39l13 -46q-81 -34 -186 -47.5t-289 -13.5h-12v51z" />
    <glyph glyph-name="uni0639.medi" unicode="&#x639;" horiz-adv-x="534" arabic-form="medial" 
d="M-5 51h17q120 0 220 43q-69 57 -164 178l2 34q38 37 96 56t121 19q67 0 117 -22t64 -62q1 -3 1 -10q0 -22 -17 -55t-50 -70.5t-79 -69.5q79 -41 194 -41h22l2 -26l-2 -25h-22q-74 0 -132.5 15.5t-109.5 47.5q-117 -63 -263 -63h-17v51zM203 185.5q38 -39.5 77 -66.5
q46 27 79 60.5t50 61.5t18 40q-9 24 -49 39.5t-93 15.5q-46 0 -90.5 -13t-76.5 -40q47 -58 85 -97.5z" />
    <glyph glyph-name="uni063A.fina" unicode="&#x63a;" horiz-adv-x="536" arabic-form="final" 
d="M542 51l2 -26l-2 -25h-21q-84 0 -148.5 23.5t-121.5 71.5q-73 -41 -115.5 -82.5t-47.5 -94.5q-2 -18 -2 -26q0 -48 28.5 -87.5t79.5 -62.5t114 -23q59 0 115 16t89 40l22 -41q-42 -30 -102.5 -48t-123.5 -18q-74 0 -135.5 30t-97 82t-35.5 115q0 10 2 30q9 66 54 113.5
t118 89.5q-32 31 -64.5 70t-78.5 99l2 34q37 37 95.5 56t120.5 19q67 0 117.5 -22t64.5 -62q6 -16 6 -32q0 -48 -47 -87.5t-129 -81.5l-5 -3q47 -33 101.5 -50t123.5 -17h21zM193.5 215q31.5 -37 62.5 -65l25 13q79 40 115 67.5t36 58.5q0 11 -2 16q-10 24 -50.5 39.5
t-92.5 15.5q-47 0 -91.5 -13t-76.5 -40q43 -55 74.5 -92zM250 556l27 27l55 -56l-55 -55l-55 56q13 15 28 28z" />
    <glyph glyph-name="uni063A.init" unicode="&#x63a;" horiz-adv-x="520" arabic-form="initial" 
d="M-5 51h12q113 0 182 4q-43 25 -67.5 65t-24.5 87t25 88t68.5 65t94.5 24q78 0 149 -62l-22 -36q-61 48 -125 48q-41 0 -74.5 -17t-52 -46.5t-18.5 -63.5q0 -38 24 -70t65 -51t91 -18q84 13 147 39l13 -46q-81 -34 -186 -47.5t-289 -13.5h-12v51zM269 579l55 -56l-55 -55
l-56 56z" />
    <glyph glyph-name="uni063A.medi" unicode="&#x63a;" horiz-adv-x="534" arabic-form="medial" 
d="M-5 51h17q120 0 220 43q-69 57 -164 178l2 34q38 37 96 56t121 19q67 0 117 -22t64 -62q1 -3 1 -10q0 -22 -17 -55t-50 -70.5t-79 -69.5q79 -41 194 -41h22l2 -26l-2 -25h-22q-74 0 -132.5 15.5t-109.5 47.5q-117 -63 -263 -63h-17v51zM203 185.5q38 -39.5 77 -66.5
q46 27 79 60.5t50 61.5t18 40q-9 24 -49 39.5t-93 15.5q-46 0 -90.5 -13t-76.5 -40q47 -58 85 -97.5zM281 561l55 -56l-36 -36l-19 -19l-56 56z" />
    <glyph glyph-name="uni0641.fina" unicode="&#x641;" horiz-adv-x="874" arabic-form="final" 
d="M408 -8q-170 -1 -264 44t-103 134q-1 9 -1 26q0 39 10 80t25 75l41 -21q-30 -72 -30 -132q0 -15 1 -22q8 -65 87.5 -99t228.5 -34h9q95 0 162 14q-42 26 -64.5 60.5t-22.5 75.5q0 13 1 20q6 48 30 87.5t58.5 63t71.5 23.5q39 0 72 -25.5t52 -66.5t19 -84q0 -94 -83 -152
q50 -8 102 -8h69l3 -26l-3 -25h-60q-101 0 -177 26q-89 -34 -230 -34h-4zM556 131.5q28 -33.5 84 -54.5q91 38 106 118q1 5 1 15q0 49 -29 87t-71 38q-41 0 -74 -37.5t-41 -91.5q-4 -41 24 -74.5zM656 559l28 -27l27 -28l-19 -19l-36 -36l-56 55z" />
    <glyph glyph-name="uni0641.init" unicode="&#x641;" horiz-adv-x="424" arabic-form="initial" 
d="M-6 51h9q133 0 216 23.5t111 70.5q-12 -1 -40 -1q-163 0 -203 73q-17 30 -17 72q0 44 19.5 88t53 72t71.5 28q53 0 91.5 -38.5t58 -98.5t19.5 -122q0 -18 -4 -50q-13 -82 -108.5 -125t-266.5 -43h-10v51zM187 205.5q47 -12.5 106 -12.5q19 0 49 2q2 53 -12.5 107
t-45 89.5t-72.5 35.5q-26 0 -49 -20.5t-37 -52t-14 -62.5q0 -25 11 -45q17 -29 64 -41.5zM207 676l28 -27l27 -28l-19 -19l-36 -36l-56 55z" />
    <glyph glyph-name="uni0641.medi" unicode="&#x641;" horiz-adv-x="470" arabic-form="medial" 
d="M-6 51h24q79 0 146 10q-39 26 -59.5 59.5t-20.5 72.5q0 13 1 20q6 48 30 88t58.5 63t71.5 23q38 0 71 -25.5t52.5 -66t19.5 -83.5q0 -98 -85 -152q47 -9 103 -9h70l3 -26l-3 -25h-60q-103 0 -182 28q-84 -28 -216 -28h-24v51zM152 132.5q27 -33.5 81 -53.5q96 34 109 116
q1 5 1 16q0 49 -29 86.5t-71 37.5q-41 0 -73.5 -37.5t-40.5 -91.5q-4 -40 23 -73.5zM209 521l37 37l55 -56l-36 -36l-19 -19l-55 56z" />
    <glyph glyph-name="uni0642.fina" unicode="&#x642;" horiz-adv-x="665" arabic-form="final" 
d="M164.5 -244.5q-63.5 39.5 -93 100.5t-29.5 125q0 61 19 125.5t45 112.5l41 -19q-58 -120 -58 -214q0 -100 63 -159.5t172 -59.5q78 0 137.5 28t93.5 81t36 124q-103 -1 -171.5 13.5t-94.5 62.5q-17 30 -17 70q0 46 20 92.5t53.5 76.5t70.5 30q55 0 94.5 -46t61 -114.5
t25.5 -133.5h37l3 -26l-3 -25h-37q-3 -88 -43 -152t-109 -98t-157 -34q-96 0 -159.5 39.5zM369 533l56 -56l-56 -55l-55 56q28 27 55 55zM442.5 60.5q61.5 -10.5 147.5 -10.5q-3 57 -19.5 113t-47 93.5t-73.5 37.5q-25 0 -48.5 -22t-38 -55.5t-14.5 -65.5q0 -27 12 -48
q20 -32 81.5 -42.5zM522 533l55 -56l-36 -36l-19 -19l-55 56z" />
    <glyph glyph-name="uni0642.init" unicode="&#x642;" horiz-adv-x="424" arabic-form="initial" 
d="M-6 51h9q133 0 216 23.5t111 70.5q-12 -1 -40 -1q-163 0 -203 73q-17 30 -17 72q0 44 19.5 88t53 72t71.5 28q53 0 91.5 -38.5t58 -98.5t19.5 -122q0 -18 -4 -50q-13 -82 -108.5 -125t-266.5 -43h-10v51zM118 652l19 19l55 -56l-18 -18l-37 -37l-55 56zM187 205.5
q47 -12.5 106 -12.5q19 0 49 2q2 53 -12.5 107t-45 89.5t-72.5 35.5q-26 0 -49 -20.5t-37 -52t-14 -62.5q0 -25 11 -45q17 -29 64 -41.5zM289 671l56 -56q-28 -27 -55 -55l-56 56z" />
    <glyph glyph-name="uni0642.medi" unicode="&#x642;" horiz-adv-x="470" arabic-form="medial" 
d="M-6 51h24q79 0 146 10q-39 26 -59.5 59.5t-20.5 72.5q0 13 1 20q6 48 30 88t58.5 63t71.5 23q38 0 71 -25.5t52.5 -66t19.5 -83.5q0 -98 -85 -152q47 -9 103 -9h70l3 -26l-3 -25h-60q-103 0 -182 28q-84 -28 -216 -28h-24v51zM165 554l56 -55l-56 -55l-18 18l-37 37z
M152 132.5q27 -33.5 81 -53.5q96 34 109 116q1 5 1 16q0 49 -29 86.5t-71 37.5q-41 0 -73.5 -37.5t-40.5 -91.5q-4 -40 23 -73.5zM318 554l55 -55q-27 -28 -55 -55l-55 55q27 28 55 55z" />
    <glyph glyph-name="uni0643.fina" unicode="&#x643;" horiz-adv-x="944" arabic-form="final" 
d="M832 41.5q-49 41.5 -102 126.5q-2 -31 -13 -55q-28 -59 -103.5 -90t-195.5 -31h-10q-170 -1 -264 44t-103 134q-1 9 -1 26q0 39 10 80t25 75l41 -21q-30 -72 -30 -132q0 -15 1 -22q8 -65 86.5 -99t225.5 -34h19q107 0 171.5 22.5t85.5 65.5q10 19 10 45q0 66 -61.5 156
t-165.5 173l7 47l361 158l16 -44l-329 -144q56 -47 102.5 -102.5t75.5 -110.5q59 -102 95.5 -153.5t72.5 -78t81 -26.5h10l2 -26l-2 -25h-10q-59 0 -108 41.5z" />
    <glyph glyph-name="uni0643.init" unicode="&#x643;" horiz-adv-x="438" arabic-form="initial" 
d="M-5 51h19q109 0 172.5 20t84.5 62q10 19 10 42q0 61 -61 143.5t-166 167.5l7 47l361 158l16 -44l-329 -143q97 -82 157 -171t60 -161q0 -33 -13 -59q-27 -58 -101.5 -85.5t-197.5 -27.5h-19v51z" />
    <glyph glyph-name="uni0643.medi" unicode="&#x643;" horiz-adv-x="539" arabic-form="medial" 
d="M425.5 37q-47.5 37 -99.5 122q-3 -27 -13 -46q-27 -58 -101.5 -85.5t-197.5 -27.5h-19v51h19q109 0 172.5 20t84.5 62q10 19 10 42q0 61 -61 143.5t-166 167.5l7 47l361 158l16 -44l-329 -143q62 -53 110.5 -110t75.5 -111q54 -91 89.5 -139t70.5 -70.5t80 -22.5h9l3 -26
l-3 -25h-9q-62 0 -109.5 37z" />
    <glyph glyph-name="uni0644.fina" unicode="&#x644;" horiz-adv-x="681" arabic-form="final" 
d="M584 43q-2 -138 -75 -212.5t-206 -74.5q-75 0 -135 30.5t-94 86t-34 126.5q0 49 17.5 111t45.5 116l40 -20q-25 -51 -40.5 -104t-16.5 -96q0 -59 27 -104t76 -70.5t114 -25.5q123 0 182 68t53 200l-13 285q-10 250 -16 298l46 10q7 -47 16 -291l8 -197h1q4 -72 24 -100
t71 -28h11l3 -26l-3 -25h-11q-61 0 -91 43z" />
    <glyph glyph-name="uni0644.init" unicode="&#x644;" horiz-adv-x="237" arabic-form="initial" 
d="M-5 51h34q63 0 92 29.5t29 89.5q0 42 -9.5 244.5t-15.5 242.5l47 9q6 -41 15 -243t9 -249q0 -82 -43.5 -128t-123.5 -46h-34v51z" />
    <glyph glyph-name="uni0644.medi" unicode="&#x644;" horiz-adv-x="292" arabic-form="medial" 
d="M215.5 21q-30.5 21 -48.5 59q-35 -80 -140 -80h-32v51h32q63 0 92.5 30t28.5 90v5q-2 79 -9 264t-10 217l47 9q5 -40 10.5 -238.5t6.5 -218.5l1 -32q6 -126 92 -126h11l3 -26l-3 -25h-11q-40 0 -70.5 21z" />
    <glyph glyph-name="uni0645.fina" unicode="&#x645;" horiz-adv-x="557" arabic-form="final" 
d="M42 13q0 44 1 63q2 35 21.5 57t46.5 22q19 0 36 -10q34 64 57 100.5t54 63.5t69 27q55 0 91 -45.5t47 -113.5q19 -126 91 -126h6l3 -26l-3 -25h-6q-44 0 -68 25t-32 60q-5 -29 -20.5 -50.5t-37.5 -31.5q-14 -7 -35 -7q-34 0 -89 24t-141 77q-9 6 -19 6t-17 -7.5t-8 -22.5
q-2 -40 -2 -65q0 -98 12 -280l4 -62l-45 -8q-16 244 -16 355zM294 63.5q48 -20.5 76 -20.5q10 0 17 3q19 11 29 34.5t10 54.5q0 36 -12.5 71.5t-35.5 58.5t-52 23q-35 0 -64 -36.5t-66 -106.5l-11 -20q61 -41 109 -61.5z" />
    <glyph glyph-name="uni0645.init" unicode="&#x645;" horiz-adv-x="519" arabic-form="initial" 
d="M-5 51h19q44 0 80.5 22.5t59.5 66.5q32 62 56 101.5t56 67t70 27.5q43 0 75.5 -28.5t50 -73t17.5 -92.5q0 -47 -18 -84.5t-54 -54.5q-14 -7 -34 -7q-68 0 -202 87q-29 -41 -69.5 -62t-88.5 -21h-18v51zM299.5 65q46.5 -20 73.5 -20q11 0 18 3q22 10 33 34.5t11 57.5
q0 35 -12.5 69.5t-35 56.5t-51.5 22q-37 0 -69 -41.5t-73 -122.5q59 -39 105.5 -59z" />
    <glyph glyph-name="uni0645.medi" unicode="&#x645;" horiz-adv-x="567" arabic-form="medial" 
d="M-5 51h19q44 0 80 23t59 66q37 69 59.5 105t54 63.5t69.5 27.5q55 0 91 -46t47 -113q12 -63 32 -94.5t59 -31.5h8l3 -26l-3 -25h-8q-43 0 -66.5 24.5t-32.5 60.5q-4 -29 -20.5 -50.5t-38.5 -31.5q-14 -7 -35 -7q-68 0 -201 87q-28 -41 -69 -62t-89 -21h-18v51zM301 64
q48 -21 76 -21q12 0 19 3q19 11 29 34.5t10 54.5q0 36 -12.5 71.5t-35 58.5t-51.5 23q-27 0 -50.5 -22t-43 -54t-48.5 -87q59 -40 107 -61z" />
    <glyph glyph-name="uni0646.fina" unicode="&#x646;" horiz-adv-x="703" arabic-form="final" 
d="M627 39q3 -27 3 -53q0 -63 -34.5 -125.5t-103.5 -103.5t-168 -41q-96 0 -159.5 39.5t-93 100.5t-29.5 125q0 61 19 125.5t45 112.5l41 -19q-58 -120 -58 -214q0 -102 63 -160.5t172 -58.5q89 0 147.5 33t85.5 83.5t27 102.5q0 48 -10.5 98t-31.5 130l-9 32l44 17
q14 -45 29 -107q17 -58 38 -81.5t60 -23.5h4l3 -26l-3 -25h-4q-46 0 -77 39zM348 292l55 -56q-28 -27 -55 -55l-56 56z" />
    <glyph glyph-name="uni0646.init" unicode="&#x646;" horiz-adv-x="304" arabic-form="initial" 
d="M-5 51h52q87 0 128.5 26t41.5 79q0 37 -18.5 99t-35.5 97l43 22q19 -41 38 -105.5t19 -110.5q0 -79 -55.5 -118.5t-160.5 -39.5h-52v51zM157 563l55 -56l-55 -55l-56 56z" />
    <glyph glyph-name="uni0646.medi" unicode="&#x646;" horiz-adv-x="338" arabic-form="medial" 
d="M-5 51h6q71 0 111.5 15t59.5 47q12 20 12 65q0 40 -10 110l45 10q7 -45 9.5 -91t0.5 -73q4 -41 32.5 -62t73.5 -21h9l2 -26l-2 -25h-10q-47 0 -82.5 20.5t-48.5 58.5q-22 -41 -71.5 -60t-130.5 -19h-6v51zM123 499l18 -18l37 -37l-55 -55l-56 55z" />
    <glyph glyph-name="uni0647.fina" unicode="&#x647;" horiz-adv-x="457" arabic-form="final" 
d="M369.5 18q-33.5 18 -52.5 57q-58 -18 -111 -18q-77 0 -123.5 35.5t-39.5 96.5q6 57 68.5 106t160.5 80q-1 22 -5 59l47 9q13 -161 23 -261q8 -74 33 -102.5t83 -28.5h10l3 -26l-3 -25h-10q-50 0 -83.5 18zM119.5 127.5q32.5 -19.5 84.5 -19.5q46 0 97 16q-4 16 -8 51
q-5 55 -16 150q-82 -26 -136 -67t-54 -78q0 -33 32.5 -52.5z" />
    <glyph glyph-name="uni0647.init" unicode="&#x647;" horiz-adv-x="608" arabic-form="initial" 
d="M-4 51h13q105 0 171 14q-47 29 -72.5 65t-21.5 75q5 50 32 92.5t66 65.5l-20 6l-26 7l15 48q414 -126 414 -300q0 -22 -6 -43q-11 -40 -52 -60t-101 -20q-75 0 -160 31q-87 -32 -239 -32h-13v51zM158 138.5q33 -31.5 89 -54.5q96 40 96 130q0 48 -28 83.5t-71 35.5
q-26 0 -52 -18t-43.5 -48t-20.5 -62q-3 -35 30 -66.5zM413 49q52 0 82.5 17.5t30.5 53.5q0 40 -38.5 84t-117.5 85q16 -37 16 -75q0 -94 -77 -151q56 -14 104 -14z" />
    <glyph glyph-name="uni0647.medi" unicode="&#x647;" horiz-adv-x="476" arabic-form="medial" 
d="M-4 51h33q20 0 52 2q2 71 19 138t39 116.5t41 75.5l36 13q60 -34 96 -86.5t36 -109.5q0 -75 -57 -124q76 -25 192 -25l2 -26l-2 -25q-82 0 -152 19q32 -33 49.5 -71t17.5 -74q0 -46 -30 -77q-33 -35 -85 -35q-44 0 -88 27.5t-74.5 82t-37.5 130.5q-38 -2 -59 -2h-28v51z
M258 109.5q47 37.5 47 92.5q0 39 -26 77t-72 66q-29 -44 -54 -123.5t-28 -163.5q86 14 133 51.5zM158.5 -100q25.5 -45 60 -67.5t67.5 -22.5t54 21q15 16 15 44q0 40 -30.5 87.5t-82.5 80.5q-49 -24 -115 -35q6 -63 31.5 -108z" />
    <glyph glyph-name="uni0648.fina" unicode="&#x648;" horiz-adv-x="420" arabic-form="final" 
d="M260 -145.5q78 59.5 87 144.5q-105 0 -172.5 14.5t-93.5 62.5q-17 31 -17 70q0 45 20.5 91.5t53.5 77t70 30.5q55 0 94.5 -45.5t60.5 -113.5t25 -135h39l3 -26l-3 -25h-39q-10 -105 -97 -178.5t-240 -105.5l-13 47q144 32 222 91.5zM197.5 60q61.5 -10 149.5 -10
q-4 58 -20.5 114t-46.5 93t-72 38q-25 0 -48.5 -22.5t-38.5 -57t-15 -67.5q0 -28 11 -46q19 -32 80.5 -42z" />
    <glyph glyph-name="uni0649.fina" unicode="&#x649;" horiz-adv-x="706" arabic-form="final" 
d="M183.5 -240q-66.5 32 -104.5 91.5t-38 138.5q0 58 18 122t44 119l40 -18q-57 -122 -57 -217q0 -102 67 -160t181 -58q65 0 122 17t92.5 43t39.5 51q-1 24 -65 66t-149 79l11 49q62 -14 141.5 -23t148.5 -9h36l3 -26l-3 -25h-36q-64 0 -165 11q128 -68 124 -123
q-3 -43 -44 -79.5t-108.5 -58.5t-146.5 -22q-85 0 -151.5 32z" />
    <glyph glyph-name="uni064A.fina" unicode="&#x64a;" horiz-adv-x="706" arabic-form="final" 
d="M183.5 -240q-66.5 32 -104.5 91.5t-38 138.5q0 58 18 122t44 119l40 -18q-57 -122 -57 -217q0 -102 67 -160t181 -58q65 0 122 17t92.5 43t39.5 51q-1 24 -65 66t-149 79l11 49q62 -14 141.5 -23t148.5 -9h36l3 -26l-3 -25h-36q-64 0 -165 11q128 -68 124 -123
q-3 -43 -44 -79.5t-108.5 -58.5t-146.5 -22q-85 0 -151.5 32z" />
    <glyph glyph-name="uni064A.init" unicode="&#x64a;" horiz-adv-x="329" arabic-form="initial" 
d="M-6 51h35q112 0 162.5 25.5t50.5 79.5q0 37 -18 97.5t-35 98.5l42 22q20 -40 39 -104.5t19 -110.5q0 -80 -63.5 -119.5t-192.5 -39.5h-39v51zM-32 -144l36 36l56 -56l-36 -36l-19 -19l-56 56zM130 -135l27 27l55 -56l-55 -55l-55 56q13 15 28 28z" />
    <glyph glyph-name="uni064A.medi" unicode="&#x64a;" horiz-adv-x="390" arabic-form="medial" 
d="M-5 51h6q79 0 123.5 6t66 19t34.5 36q12 19 12 63q0 34 -11 113l45 10q7 -45 9.5 -91t0.5 -73q4 -41 32 -62t74 -21h9l2 -26l-2 -25h-10q-46 0 -81 20t-49 57q-21 -43 -79.5 -60t-175.5 -17h-6v51zM-31 -141l36 36l56 -56l-36 -36l-19 -19l-56 56zM131 -132l27 27l55 -56
l-55 -55l-55 56q13 15 28 28z" />
    <glyph glyph-name=".notdef" horiz-adv-x="255" 
d="M38 429h179v-433h-179v433zM208 4v417h-161v-417h161z" />
    <glyph glyph-name=".null" 
 />
    <glyph glyph-name="nonmarkingreturn" unicode="&#xd;" horiz-adv-x="255" 
 />
    <glyph glyph-name="space" unicode=" " horiz-adv-x="300" 
 />
    <glyph glyph-name="exclam" unicode="!" horiz-adv-x="234" 
d="M142 198h-45l-3 513h50zM84.5 74.5q14.5 14.5 34.5 14.5t34.5 -14.5t14.5 -34.5t-14.5 -34.5t-34.5 -14.5t-34.5 14.5t-14.5 34.5t14.5 34.5z" />
    <glyph glyph-name="quotedbl" unicode="&#x22;" horiz-adv-x="230" 
d="M209 677l-8 -140h-38l4 144v69h42v-73zM64 681v69h43v-73l-9 -140h-37z" />
    <glyph glyph-name="numbersign" unicode="#" horiz-adv-x="570" 
d="M366 200h-161l-38 -200h-41l37 200h-127v40h135l41 227h-139v41h147l38 203h41l-38 -203h162l39 203h41l-38 -203h116v-41h-124l-42 -227h129v-40h-136l-38 -200h-41zM373 240l43 227h-162l-42 -227h161z" />
    <glyph glyph-name="dollar" unicode="$" horiz-adv-x="552" 
d="M419 253q-22 24 -52.5 40.5t-93.5 42.5l-37 16q-83 34 -118.5 75.5t-35.5 109.5q0 80 50 129t134 54v97h42v-97q87 -7 135 -63t48 -152h-48q0 78 -42.5 125t-114.5 47t-114.5 -38t-42.5 -101q0 -51 25 -80q20 -25 56 -43t110 -48q66 -25 103 -49.5t54.5 -58.5t17.5 -85
q0 -79 -50 -128t-136 -55v-93h-42v93q-100 5 -155 60.5t-55 151.5h48q0 -80 47.5 -125t131.5 -45q72 0 117.5 39.5t45.5 100.5q0 49 -28 80z" />
    <glyph glyph-name="percent" unicode="%" horiz-adv-x="741" 
d="M72 649q18 34 49.5 53t69.5 19q60 0 98.5 -42t38.5 -107v-35q0 -63 -38.5 -104.5t-97.5 -41.5q-60 0 -99 41.5t-39 107.5v34q0 41 18 75zM121.5 459q26.5 -31 70.5 -31q43 0 69.5 30.5t26.5 80.5v35q0 48 -26.5 78.5t-70.5 30.5q-43 0 -69.5 -30.5t-26.5 -81.5v-34
q0 -47 26.5 -78zM525 637l32 -21l-347 -555l-32 20zM416 174q0 63 38.5 105t97.5 42q60 0 99 -42t39 -108v-35q0 -63 -39 -104.5t-98 -41.5q-60 0 -98.5 41.5t-38.5 107.5v35zM483 57.5q27 -30.5 70 -30.5q44 0 70 30.5t26 81.5v35q0 50 -26 79.5t-71 29.5q-44 0 -70 -30
t-26 -81v-36q0 -48 27 -78.5z" />
    <glyph glyph-name="ampersand" unicode="&#x26;" horiz-adv-x="613" 
d="M137.5 483.5q-18.5 39.5 -18.5 79.5q0 72 43.5 115t115.5 43q64 0 105 -38.5t41 -97.5q0 -37 -22.5 -72.5t-71.5 -74.5l-68 -53l207 -239q49 73 49 169h45q0 -118 -63 -204l96 -111h-59l-66 76q-89 -86 -199 -86q-100 0 -159 51t-59 137q0 52 31.5 99t114.5 113
q-44 54 -62.5 93.5zM148 72.5q46 -39.5 124 -39.5q48 0 91.5 19.5t78.5 57.5l-215 247q-68 -56 -96.5 -97.5t-28.5 -81.5q0 -66 46 -105.5zM236 416l76 59q34 28 50 54.5t16 55.5q0 41 -28 67.5t-72 26.5q-50 0 -80.5 -32t-30.5 -83q0 -67 69 -148z" />
    <glyph glyph-name="quotesingle" unicode="'" horiz-adv-x="169" 
d="M107 677l-9 -140h-37l3 144v69h43v-73z" />
    <glyph glyph-name="parenleft" unicode="(" horiz-adv-x="351" 
d="M142 513q-61 -107 -61 -263q0 -150 62 -261t147 -185l-29 -36q-92 77 -160 199t-68 283q0 290 228 482l29 -36q-87 -76 -148 -183z" />
    <glyph glyph-name="parenright" unicode=")" horiz-adv-x="351" 
d="M318 250q0 -161 -68 -283t-160 -199l-29 36q85 74 147 185t62 261q0 156 -61 263t-148 183l29 36q228 -192 228 -482z" />
    <glyph glyph-name="asterisk" unicode="*" horiz-adv-x="422" 
d="M182 491l-167 55l12 42l168 -61l-1 184h43l-4 -185l162 64l15 -42l-168 -59l114 -148l-36 -26l-109 152l-103 -151l-35 24z" />
    <glyph glyph-name="plus" unicode="+" horiz-adv-x="564" 
d="M301 356h223v-46h-223v-239h-48v239h-216v46h216v233h48v-233z" />
    <glyph glyph-name="comma" unicode="," horiz-adv-x="215" 
d="M91 5v93h51v-81q0 -46 -18.5 -89t-51.5 -75l-31 24q50 68 50 128z" />
    <glyph glyph-name="hyphen" unicode="-" horiz-adv-x="289" 
d="M258 296h-232v42h232v-42z" />
    <glyph glyph-name="period" unicode="." horiz-adv-x="259" 
d="M94.5 17.5q-14.5 14.5 -14.5 34.5t14.5 34.5t34.5 14.5t34.5 -14.5t14.5 -34.5t-14.5 -34.5t-34.5 -14.5t-34.5 14.5z" />
    <glyph glyph-name="slash" unicode="/" horiz-adv-x="392" 
d="M63 -61h-47l296 772h48z" />
    <glyph glyph-name="zero" unicode="0" horiz-adv-x="431" 
d="M139 77.5q-33 19.5 -52.5 52t-19.5 71.5t19.5 71.5t52.5 52t71 19.5t71 -19t52 -52t19 -72t-19 -72t-52 -52t-71 -19t-71 19.5zM141.5 132.5q27.5 -27.5 68.5 -27.5t68.5 27.5t27.5 68.5t-27.5 68.5t-68.5 27.5t-68.5 -27.5t-27.5 -68.5t27.5 -68.5z" />
    <glyph glyph-name="one" unicode="1" horiz-adv-x="368" 
d="M176.5 190q-4.5 101 -13.5 171q-18 144 -74 274l45 25q57 -123 78 -293q8 -73 12.5 -177t3.5 -190h-47q0 89 -4.5 190z" />
    <glyph glyph-name="two" unicode="2" horiz-adv-x="496" 
d="M167.5 190q-4.5 101 -13.5 171q-18 147 -75 274l46 25q15 -33 26 -65q2 -4 7 -19q18 -48 32.5 -73.5t41 -41.5t69.5 -16q65 0 92.5 41.5t27.5 109.5q0 30 -5 65l43 7q6 -36 6 -72q0 -88 -40 -145.5t-122 -58.5q-69 0 -109 37l9 -62q8 -73 12.5 -177t3.5 -190h-47
q0 89 -4.5 190z" />
    <glyph glyph-name="three" unicode="3" horiz-adv-x="633" 
d="M441.5 498q18.5 -43 58.5 -43q30 0 45 28.5t15 77.5q0 40 -11 95l42 10q13 -58 13 -105q0 -71 -26.5 -114.5t-77.5 -43.5q-69 0 -100 84q-16 -45 -47 -70t-72 -25q-51 0 -88 39q4 -24 10 -64q8 -73 12.5 -177t3.5 -190h-47q0 89 -4.5 190t-13.5 171q-18 147 -75 274
l46 25q16 -36 23 -56q29 -81 56.5 -120t74.5 -39q50 0 76 42.5t22 126.5h1l-1 18l41 7q5 -98 23.5 -141z" />
    <glyph glyph-name="four" unicode="4" horiz-adv-x="634" 
d="M269 411q-20 36 -20 75q0 47 23.5 87.5t65 64.5t92.5 24q73 0 153 -62l-23 -39q-29 23 -66.5 37t-73.5 11q-56 -5 -91 -40t-35 -83q0 -30 16.5 -57.5t48.5 -45.5t76 -18q70 0 155 49l18 -45q-39 -26 -89 -41.5t-101 -15.5q-60 0 -114.5 23t-97.5 73l6 -41
q8 -73 12.5 -177t3.5 -190h-47q0 89 -4.5 190t-13.5 171q-18 144 -74 274l45 25q14 -29 35 -90q32 -104 100 -159z" />
    <glyph glyph-name="five" unicode="5" horiz-adv-x="596" 
d="M113.5 394.5q51.5 102.5 125.5 200.5l-29 25l29 44q137 -121 219.5 -237t82.5 -249q0 -89 -38 -135t-96 -46q-31 0 -58 18.5t-44 57.5q-18 -39 -46 -57t-62 -18q-65 0 -103.5 52t-38.5 134q0 19 1 28q6 80 57.5 182.5zM101 184q0 -62 26 -98t71 -36q37 0 61.5 35
t23.5 108l43 8q1 -79 23.5 -115.5t56.5 -36.5q90 0 90 133q0 100 -59.5 193t-162.5 188q-71 -92 -118.5 -186t-53.5 -165q-1 -10 -1 -28z" />
    <glyph glyph-name="six" unicode="6" horiz-adv-x="503" 
d="M131 191.5q58 84.5 131 149.5q-49 0 -87 19t-59.5 53t-21.5 76q0 43 23 84.5t65.5 68t97.5 26.5q61 0 122 -43l-20 -39q-48 31 -99 31q-42 0 -74 -18.5t-50 -47.5t-18 -60q0 -43 32.5 -71t85.5 -28q54 0 117 32q42 24 78 38l9 -52q-76 -30 -150 -90t-135 -144.5
t-96 -184.5l-42 18q33 98 91 182.5z" />
    <glyph glyph-name="seven" unicode="7" horiz-adv-x="567" 
d="M445.5 460.5q-51.5 -114.5 -92 -241t-47.5 -219.5h-45q-6 93 -46.5 219t-92.5 240.5t-88 169.5l42 31q50 -78 112 -229t96 -303q33 152 95 303.5t112 228.5l42 -31q-36 -54 -87.5 -168.5z" />
    <glyph glyph-name="eight" unicode="8" horiz-adv-x="567" 
d="M121 185.5q51 114.5 91.5 241t47.5 219.5h46q6 -93 46 -219t92 -240.5t88 -169.5l-41 -31q-51 81 -113 231.5t-95 301.5q-33 -152 -95 -303.5t-112 -229.5l-42 31q36 54 87 168.5z" />
    <glyph glyph-name="nine" unicode="9" horiz-adv-x="468" 
d="M337.5 140q-15.5 100 -24.5 210q-51 -28 -109 -28q-68 0 -111 37.5t-43 103.5q0 46 19 93t53 77t75 30q86 0 118 -85.5t40 -190.5q9 -108 26 -213.5t39 -159.5l-45 -25q-22 51 -37.5 151zM123 398q29 -24 82 -24q57 0 104 32q-7 81 -32.5 143.5t-80.5 62.5
q-28 0 -51 -21.5t-37 -55.5t-14 -69q0 -44 29 -68z" />
    <glyph glyph-name="colon" unicode=":" horiz-adv-x="236" 
d="M81.5 289.5q-14.5 14.5 -14.5 34.5t14.5 34.5t34.5 14.5t34.5 -14.5t14.5 -34.5t-14.5 -34.5t-34.5 -14.5t-34.5 14.5zM81.5 85.5q14.5 14.5 34.5 14.5t34.5 -14.5t14.5 -34.5t-14.5 -34t-34.5 -14t-34.5 14t-14.5 34t14.5 34.5z" />
    <glyph glyph-name="semicolon" unicode=";" horiz-adv-x="292" 
d="M139 5v93h51v-81q0 -47 -18.5 -89.5t-51.5 -74.5l-31 24q50 68 50 128zM122.5 371.5q14.5 14.5 34.5 14.5t34.5 -14.5t14.5 -34.5t-14.5 -34.5t-34.5 -14.5t-34.5 14.5t-14.5 34.5t14.5 34.5z" />
    <glyph glyph-name="less" unicode="&#x3c;" horiz-adv-x="512" 
d="M94 321l350 -153v-51l-406 185v40l406 185v-51z" />
    <glyph glyph-name="equal" unicode="=" horiz-adv-x="555" 
d="M480 407h-407v44h407v-44zM73 250h407v-43h-407v43z" />
    <glyph glyph-name="greater" unicode="&#x3e;" horiz-adv-x="517" 
d="M413 323l-354 155v50l411 -185v-40l-411 -185v50z" />
    <glyph glyph-name="question" unicode="?" horiz-adv-x="448" 
d="M203 284q15 35 56 76q41 39 62 66q19 24 27.5 50t8.5 60q0 65 -34 101.5t-95 36.5q-62 0 -99.5 -36.5t-38.5 -96.5h-48q1 79 53 128t133 49q82 0 129.5 -49t47.5 -133q0 -41 -13.5 -76.5t-44.5 -71.5q-30 -36 -58 -59q-55 -49 -55 -136h-47q1 56 16 91zM177.5 79.5
q14.5 14.5 34.5 14.5t34.5 -14.5t14.5 -34.5t-14.5 -34.5t-34.5 -14.5t-34.5 14.5t-14.5 34.5t14.5 34.5z" />
    <glyph glyph-name="at" unicode="@" horiz-adv-x="925" 
d="M116 455q54 106 150 172t217 66q118 0 202.5 -48.5t129.5 -139.5t45 -217q0 -25 -1 -37q-3 -78 -27.5 -137.5t-66 -92.5t-93.5 -33q-97 0 -113 97q-59 -95 -146 -96q-66 0 -100.5 44.5t-34.5 132.5q0 13 2 45q7 81 35.5 142.5t74.5 95t102 33.5q43 0 77 -17t51 -38
l-20 -260q-2 -28 -2 -39q0 -58 19 -79t59 -21q62 0 100 60.5t43 163.5q1 12 1 35q0 176 -87 271t-251 95q-111 0 -196 -59t-132 -155.5t-51 -205.5q-5 -178 70 -296t271 -119q42 0 87.5 10.5t74.5 27.5l14 -36q-33 -19 -81.5 -30t-94.5 -11q-217 1 -302.5 130.5t-81.5 323.5
q2 116 56 222zM322 162q0 -67 23.5 -98.5t75.5 -31.5q42 0 76 32t59 90l1 11l20 247q-32 30 -83 30q-71 -1 -115.5 -61t-54.5 -172q-2 -17 -2 -47z" />
    <glyph glyph-name="A" unicode="A" horiz-adv-x="615" 
d="M473 203h-331l-75 -203h-52l268 711h49l268 -711h-51zM457 247l-150 404l-149 -404h299z" />
    <glyph glyph-name="B" unicode="B" horiz-adv-x="610" 
d="M93 0v711h202q115 0 173.5 -47t58.5 -138q0 -59 -31 -100.5t-87 -55.5q64 -11 105 -59t41 -112q0 -93 -60 -146t-167 -53h-235zM330 43q82 0 129 41.5t47 113.5q0 66 -45 106t-123 41h-197v-302h189zM302 387q86 0 131 35.5t45 105.5q0 139 -179 140h-158v-281h161z" />
    <glyph glyph-name="C" unicode="C" horiz-adv-x="649" 
d="M511 50q-67 -60 -180 -60q-62 0 -122.5 31t-101.5 102.5t-41 183.5v96q0 96 34 168t94.5 111t138.5 39q113 0 179.5 -60t76.5 -171h-49q-24 187 -207 187q-66 0 -115 -33.5t-76 -95.5t-27 -147v-93q0 -83 27 -145t75.5 -95.5t113.5 -33.5q95 0 146.5 45.5t62.5 141.5h49
q-11 -111 -78 -171z" />
    <glyph glyph-name="D" unicode="D" horiz-adv-x="655" 
d="M93 0v711h197q68 0 136.5 -32t116.5 -104.5t48 -186.5v-69q0 -97 -39 -169t-107.5 -110.5t-153.5 -39.5h-198zM288 43q59 0 117.5 28t98 90t39.5 157v74q0 60 -23 121.5t-78.5 106t-147.5 48.5h-153v-625h147z" />
    <glyph glyph-name="E" unicode="E" horiz-adv-x="569" 
d="M481 345h-340v-302h390v-43h-438v711h437v-43h-389v-280h340v-43z" />
    <glyph glyph-name="F" unicode="F" horiz-adv-x="566" 
d="M484 338h-343v-338h-48v711h440v-43h-392v-286h343v-44z" />
    <glyph glyph-name="G" unicode="G" horiz-adv-x="685" 
d="M505 15q-67 -25 -149 -25q-78 0 -142 37.5t-101.5 109t-37.5 168.5v102q0 91 32 162.5t93.5 111.5t146.5 40q108 0 175 -55t79 -153h-49q-14 80 -66 122t-139 42q-68 0 -119 -33t-78 -94t-27 -144v-95q0 -84 29.5 -147t82.5 -96.5t121 -33.5q65 0 119 17.5t78 46.5v191
h-200v44h249v-251q-30 -42 -97 -67z" />
    <glyph glyph-name="H" unicode="H" horiz-adv-x="706" 
d="M612 0h-48v345h-423v-345h-48v711h48v-323h423v323h48v-711z" />
    <glyph glyph-name="I" unicode="I" horiz-adv-x="265" 
d="M157 0h-49v711h49v-711z" />
    <glyph glyph-name="J" unicode="J" horiz-adv-x="550" 
d="M412 711h49v-498q0 -102 -58 -162.5t-154 -60.5q-102 0 -156.5 53.5t-54.5 152.5h49q0 -79 41 -120.5t121 -41.5q72 0 117 47t46 128v502z" />
    <glyph glyph-name="K" unicode="K" horiz-adv-x="632" 
d="M246 360l-105 -101v-259h-48v711h48v-391l102 103l278 288h63l-304 -317l328 -394h-60z" />
    <glyph glyph-name="L" unicode="L" horiz-adv-x="523" 
d="M142 43h355v-43h-404v711h49v-668z" />
    <glyph glyph-name="M" unicode="M" horiz-adv-x="862" 
d="M158 711l273 -641l272 641h67v-711h-49v210l3 430l-275 -640h-38l-273 637l3 -425v-212h-48v711h65z" />
    <glyph glyph-name="N" unicode="N" horiz-adv-x="710" 
d="M616 0h-49l-425 627v-627h-49v711h49l425 -627v627h49v-711z" />
    <glyph glyph-name="O" unicode="O" horiz-adv-x="673" 
d="M575.5 141q-34.5 -73 -96.5 -112t-142 -39q-81 0 -143 39.5t-96.5 112.5t-34.5 171v85q0 99 34.5 172t96.5 112t142 39q81 0 143 -39.5t96.5 -112.5t34.5 -171v-86q0 -98 -34.5 -171zM140 164.5q28 -62.5 78.5 -96t118.5 -33.5q105 0 165 73.5t60 204.5v86
q0 128 -60.5 202.5t-165.5 74.5q-68 0 -118.5 -33.5t-78 -96t-27.5 -147.5v-87q0 -85 28 -147.5z" />
    <glyph glyph-name="P" unicode="P" horiz-adv-x="611" 
d="M141 293v-293h-48v711h235q111 0 173.5 -56t62.5 -155t-60.5 -152.5t-173.5 -54.5h-189zM328 336q89 0 138 42.5t49 120.5t-49 123t-136 46h-189v-332h187z" />
    <glyph glyph-name="Q" unicode="Q" horiz-adv-x="673" 
d="M572.5 137q-36.5 -75 -104.5 -113l129 -118l-34 -31l-142 128q-40 -13 -86 -13q-80 0 -142 39.5t-97 112.5t-35 171v85q0 98 35 171t97 112.5t142 39.5q81 0 143 -39t96.5 -112t34.5 -171v-84q0 -103 -36.5 -178zM138 165q28 -63 78.5 -96.5t118.5 -33.5q105 0 165 73
t61 203v86q0 131 -60.5 205t-165.5 74q-68 0 -118.5 -33.5t-78.5 -96t-28 -147.5v-85q0 -86 28 -149z" />
    <glyph glyph-name="R" unicode="R" horiz-adv-x="641" 
d="M360 299h-220v-299h-49v711h229q112 0 175.5 -55t63.5 -153q0 -70 -42 -123t-110 -70l182 -303v-7h-52zM337 342q77 0 125 45t48 116q0 77 -50.5 121t-139.5 44h-180v-326h197z" />
    <glyph glyph-name="S" unicode="S" horiz-adv-x="595" 
d="M452 278q-26 19 -62.5 33.5t-91.5 30.5q-88 25 -129 47q-52 28 -75.5 64.5t-23.5 87.5q0 53 30 94t83.5 64t123.5 23q65 0 120 -25.5t88 -73.5t33 -113h-48q0 49 -24 87t-68 59.5t-101 21.5q-85 0 -137 -38t-52 -98t53 -98q27 -19 59.5 -31.5t87.5 -28.5q52 -15 87.5 -28
t66.5 -34q82 -54 82 -147q0 -42 -23 -84t-77.5 -71t-142.5 -29q-70 0 -130 23t-97 70.5t-37 118.5h48q0 -79 59 -124t157 -45q87 0 140.5 38.5t53.5 101.5q0 65 -53 104z" />
    <glyph glyph-name="T" unicode="T" horiz-adv-x="598" 
d="M572 668h-249v-668h-48v668h-249v43h546v-43z" />
    <glyph glyph-name="U" unicode="U" horiz-adv-x="661" 
d="M578 711v-482q0 -109 -65.5 -172.5t-181.5 -66.5q-114 0 -180.5 63.5t-67.5 174.5v483h49v-481q0 -91 53.5 -143.5t145.5 -52.5t145.5 52.5t53.5 143.5v481h48z" />
    <glyph glyph-name="V" unicode="V" horiz-adv-x="610" 
d="M291 101l14 -42l14 42l223 610h53l-265 -711h-49l-265 711h53z" />
    <glyph glyph-name="W" unicode="W" horiz-adv-x="900" 
d="M632 179l28 -107l27 110l135 529h50l-185 -711h-48l-187 636l-20 -68l-169 -568h-48l-185 711h51l136 -529l26 -109l28 106l158 532h46z" />
    <glyph glyph-name="X" unicode="X" horiz-adv-x="607" 
d="M303 401l211 310h58l-238 -350l246 -361h-58l-219 320l-218 -320h-58l247 361l-239 350h59z" />
    <glyph glyph-name="Y" unicode="Y" horiz-adv-x="598" 
d="M298 314l228 397h57l-260 -443v-268h-50v268l-260 443h59z" />
    <glyph glyph-name="Z" unicode="Z" horiz-adv-x="598" 
d="M106 43h449v-43h-510v37l432 631h-418v43h480v-36z" />
    <glyph glyph-name="bracketleft" unicode="[" horiz-adv-x="231" 
d="M236 770h-105v-880h105v-42h-154v965h154v-43z" />
    <glyph glyph-name="backslash" unicode="\" horiz-adv-x="392" 
d="M80 711l296 -772h-47l-297 772h48z" />
    <glyph glyph-name="bracketright" unicode="]" horiz-adv-x="231" 
d="M-1 813h153v-965h-153v42h105v880h-105v43z" />
    <glyph glyph-name="asciicircum" unicode="^" horiz-adv-x="416" 
d="M229 585l-17 79l-125 -308h-47l146 355h38l146 -355h-48z" />
    <glyph glyph-name="underscore" unicode="_" horiz-adv-x="426" 
d="M425 -42h-424v42h424v-42z" />
    <glyph glyph-name="a" unicode="a" horiz-adv-x="533" 
d="M405 83q-32 -45 -80.5 -69t-108.5 -24q-75 0 -121.5 41t-46.5 107q0 76 64 120t175 45h117v66q0 60 -37.5 93.5t-107.5 33.5q-42 0 -76.5 -15t-54.5 -40.5t-20 -57.5h-47q0 41 26.5 76.5t72 57t101.5 21.5q88 0 138.5 -43.5t52.5 -122.5v-249q0 -82 15 -118v-5h-52
q-8 27 -10 83zM130 64q35 -30 90 -30q63 0 111.5 29.5t72.5 81.5v119h-105q-89 0 -146.5 -31t-57.5 -92q0 -47 35 -77z" />
    <glyph glyph-name="b" unicode="b" horiz-adv-x="552" 
d="M472.5 117q-24.5 -61 -70 -94t-105.5 -33q-56 0 -100.5 22.5t-71.5 63.5l-2 -76h-45v750h48v-305q56 93 170 93q94 0 147.5 -71.5t53.5 -199.5v-8q0 -81 -24.5 -142zM188 61q42 -27 101 -27q77 0 118 60t41 176q0 106 -42 165.5t-118 59.5q-59 0 -100.5 -30t-61.5 -88
v-238q20 -51 62 -78z" />
    <glyph glyph-name="c" unicode="c" horiz-adv-x="512" 
d="M376 68q43 35 48 94h45q-2 -49 -28.5 -88t-71.5 -61.5t-100 -22.5q-68 0 -118 32.5t-77.5 93t-27.5 142.5v16q0 80 27.5 139.5t77.5 92t117 32.5q57 0 102 -23t71 -65.5t28 -97.5h-45q-5 64 -47.5 104t-108.5 40q-82 0 -128 -59.5t-46 -165.5v-17q0 -104 46 -162.5
t129 -58.5q64 0 107 35z" />
    <glyph glyph-name="d" unicode="d" horiz-adv-x="553" 
d="M109.5 466.5q54.5 71.5 148.5 71.5q55 0 97.5 -23t70.5 -69v304h47v-750h-45l-1 75q-27 -41 -71 -63t-99 -22q-61 0 -106.5 33.5t-70.5 95.5t-25 146q0 130 54.5 201.5zM146 93.5q42 -59.5 117 -59.5q59 0 100.5 25.5t62.5 75.5v246q-43 114 -162 114q-74 0 -116 -56.5
t-44 -164.5v-15q0 -106 42 -165.5z" />
    <glyph glyph-name="e" unicode="e" horiz-adv-x="513" 
d="M161 22.5q-54 32.5 -86 91.5t-32 137v20q0 71 28 132.5t79.5 98t117.5 36.5q62 0 109 -29.5t72.5 -83.5t25.5 -126v-32h-384v-20q0 -62 26 -111t69 -76.5t94 -27.5q50 0 86 18t65 54l31 -23q-61 -91 -183 -91q-64 0 -118 32.5zM426 310v6q-1 78 -44.5 129t-113.5 51
q-69 0 -117.5 -51.5t-57.5 -134.5h333z" />
    <glyph glyph-name="f" unicode="f" horiz-adv-x="326" 
d="M120 0v487h-89v41h89v70q1 77 40 119.5t110 42.5q33 0 63 -8l-4 -41q-25 6 -55 6q-50 0 -78 -31t-28 -89v-69h131v-41h-131v-487h-48z" />
    <glyph glyph-name="g" unicode="g" horiz-adv-x="552" 
d="M80 414q25 60 70.5 92t106.5 32q56 0 99 -23.5t71 -69.5l1 83h46v-518q0 -103 -56 -162t-152 -59q-55 0 -102.5 23t-78.5 66l29 30q30 -39 66.5 -58t82.5 -19q77 0 119 45.5t43 127.5v69q-27 -40 -70.5 -61.5t-98.5 -21.5q-61 0 -106.5 33.5t-70 95.5t-24.5 146v7
q0 82 25 142zM145.5 94q42.5 -60 118.5 -60q58 0 99.5 27t61.5 77v241q-42 116 -160 116q-78 0 -120 -60t-42 -176q0 -105 42.5 -165z" />
    <glyph glyph-name="h" unicode="h" horiz-adv-x="548" 
d="M200.5 508q46.5 30 103.5 30q84 0 125.5 -47.5t42.5 -144.5v-346h-48v347q0 76 -31.5 112t-99.5 36q-59 0 -104 -39.5t-63 -104.5v-351h-47v750h47v-325q28 53 74.5 83z" />
    <glyph glyph-name="i" unicode="i" horiz-adv-x="218" 
d="M134 0h-49v528h49v-528zM84 710.5q10 10.5 26 10.5t26 -10.5t10 -25.5t-10 -25t-26 -10t-26 10t-10 25t10 25.5z" />
    <glyph glyph-name="j" unicode="j" horiz-adv-x="224" 
d="M132 528v-590q0 -74 -35.5 -112.5t-103.5 -38.5q-26 0 -50 9l1 41q20 -7 44 -7q96 0 96 107v591h48zM84 710.5q10 10.5 25 10.5q16 0 26 -10.5t10 -25.5t-10 -25t-26 -10t-25.5 10t-9.5 25t10 25.5z" />
    <glyph glyph-name="k" unicode="k" horiz-adv-x="484" 
d="M197 272l-71 -64v-208h-47v750h47v-486l58 58l215 206h62l-230 -223l248 -305h-58z" />
    <glyph glyph-name="l" unicode="l" horiz-adv-x="218" 
d="M134 0h-49v750h49v-750z" />
    <glyph glyph-name="m" unicode="m" horiz-adv-x="889" 
d="M121 528l1 -103q28 54 74 83.5t103 29.5q130 0 160 -112q24 52 73.5 82t112.5 30q171 0 171 -190v-348h-47v345q0 77 -31.5 113.5t-100.5 36.5q-81 0 -130 -59q-34 -40 -38 -84v-352h-47v352q-1 73 -33.5 108t-101.5 35q-72 0 -119 -57q-33 -37 -45 -87v-351h-48v528h46z
" />
    <glyph glyph-name="n" unicode="n" horiz-adv-x="549" 
d="M125 528l1 -104q27 54 74 84t104 30q84 0 125.5 -47.5t42.5 -144.5v-346h-48v347q0 76 -31.5 112t-99.5 36q-59 0 -104 -39.5t-63 -104.5v-351h-47v528h46z" />
    <glyph glyph-name="o" unicode="o" horiz-adv-x="557" 
d="M72 406q28 61 81 96.5t125 35.5t125 -34.5t81 -95t28 -135.5v-18q0 -79 -30 -139t-83 -93t-120 -33q-65 0 -118.5 31.5t-85 92t-31.5 141.5v17q0 73 28 134zM114 142.5q23 -50.5 65.5 -80t99.5 -29.5q55 0 97 28t65.5 79.5t23.5 119.5v12q0 62 -23 113t-65.5 81t-98.5 30
q-54 0 -96.5 -29t-66 -80.5t-23.5 -117.5v-14q-1 -62 22 -112.5z" />
    <glyph glyph-name="p" unicode="p" horiz-adv-x="552" 
d="M472.5 117q-24.5 -61 -70 -94t-105.5 -33q-56 0 -100 21.5t-71 60.5v-275h-48v731h45l1 -82q28 45 71.5 68.5t100.5 23.5q93 0 147 -71.5t54 -198.5v-9q0 -81 -24.5 -142zM187.5 59q41.5 -26 100.5 -26q75 0 117.5 58t43.5 168v11q0 105 -43 165t-119 60q-58 0 -99.5 -29
t-61.5 -84v-249q20 -48 61.5 -74z" />
    <glyph glyph-name="q" unicode="q" horiz-adv-x="554" 
d="M109.5 466.5q54.5 71.5 148.5 71.5q55 0 98.5 -23t70.5 -67l1 80h45v-731h-47v274q-28 -39 -71.5 -60t-97.5 -21q-62 0 -107.5 33t-70 95t-24.5 145v7q0 125 54.5 196.5zM146.5 93.5q42.5 -60.5 117.5 -60.5q58 0 99 25t63 74v251q-22 56 -63.5 84.5t-97.5 28.5
q-75 0 -117.5 -58.5t-43.5 -169.5v-9q0 -105 42.5 -165.5z" />
    <glyph glyph-name="r" unicode="r" horiz-adv-x="335" 
d="M282 492q-60 0 -100 -35t-56 -101v-356h-47v528h46l1 -94q46 104 157 104q25 0 38 -6l-2 -44q-13 4 -37 4z" />
    <glyph glyph-name="s" unicode="s" horiz-adv-x="504" 
d="M362 205.5q-37 28.5 -114 45.5q-97 21 -138.5 54.5t-41.5 92.5q0 40 23.5 72t65 50t94.5 18q87 0 140 -42.5t53 -113.5h-48q0 49 -40.5 81.5t-104.5 32.5q-63 0 -99 -28t-36 -72q0 -45 39 -67.5t110 -38.5q95 -20 138 -56.5t43 -98.5q0 -65 -53 -105t-139 -40
q-60 0 -106 20t-71.5 55.5t-25.5 78.5h47q4 -52 45 -81.5t111 -29.5q64 0 104.5 28.5t40.5 71.5q0 44 -37 72.5z" />
    <glyph glyph-name="t" unicode="t" horiz-adv-x="320" 
d="M159 666v-138h113v-41h-113v-359q0 -49 17 -71.5t56 -22.5q22 0 49 4l2 -41q-21 -7 -59 -7q-58 0 -85 33t-28 103v361h-97v41h97v138h48z" />
    <glyph glyph-name="u" unicode="u" horiz-adv-x="548" 
d="M424 0v74q-53 -84 -173 -84q-86 0 -129.5 50t-44.5 147v341h47v-341q1 -76 34 -114.5t97 -38.5q68 0 111 30t57 89v375h48v-528h-47z" />
    <glyph glyph-name="v" unicode="v" horiz-adv-x="480" 
d="M240 69l171 459h50l-201 -528h-40l-201 528h50z" />
    <glyph glyph-name="w" unicode="w" horiz-adv-x="755" 
d="M187 162l23 -92l144 458h42l145 -460l24 94l101 366h51l-154 -528h-42l-125 384l-22 77l-21 -77l-124 -384h-42l-153 528h50z" />
    <glyph glyph-name="x" unicode="x" horiz-adv-x="484" 
d="M241 308l151 220h57l-181 -258l190 -270h-57l-160 231l-159 -231h-57l189 270l-181 258h57z" />
    <glyph glyph-name="y" unicode="y" horiz-adv-x="476" 
d="M244 71l5 15l160 442h52l-228 -617l-11 -26q-40 -98 -133 -98q-28 2 -43 6l-1 41q22 -4 38 -4q40 0 65.5 23t43.5 75l28 76l-202 524h52z" />
    <glyph glyph-name="z" unicode="z" horiz-adv-x="484" 
d="M103 42h354v-42h-415v36l329 449h-317v43h379v-37z" />
    <glyph glyph-name="braceleft" unicode="{" horiz-adv-x="327" 
d="M181 -123q-40 56 -40 146v110q0 132 -116 132v45q116 0 116 131v114q0 89 40 144.5t121 80.5l12 -33q-126 -42 -126 -197v-106q0 -125 -95 -157q95 -32 95 -155v-109q1 -150 127 -193l-13 -33q-81 24 -121 80z" />
    <glyph glyph-name="bar" unicode="|" horiz-adv-x="213" 
d="M129 -132h-42v843h42v-843z" />
    <glyph glyph-name="braceright" unicode="}" horiz-adv-x="322" 
d="M152 23v109q0 124 96 155q-96 32 -96 157v106q0 155 -125 197l11 33q81 -25 121 -80t41 -145v-114q0 -131 116 -131v-45q-116 0 -116 -132v-110q0 -90 -40.5 -146t-121.5 -80l-12 33q126 43 126 193z" />
    <glyph glyph-name="asciitilde" unicode="~" horiz-adv-x="686" 
d="M572 254.5q-39 -45.5 -101 -45.5q-29 0 -53.5 10.5t-60.5 39.5q-8 6 -24 19q-45 33 -69.5 47t-50.5 14q-45 0 -70 -30t-25 -87h-45q0 72 38.5 116.5t101.5 44.5q31 0 57.5 -11.5t62.5 -41.5l18 -14q48 -36 71.5 -49.5t48.5 -13.5q45 0 71 32t26 87l43 -1
q0 -71 -39 -116.5z" />
    <glyph glyph-name="uni00A0" unicode="&#xa0;" horiz-adv-x="333" 
 />
    <glyph glyph-name="brokenbar" unicode="&#xa6;" horiz-adv-x="209" 
d="M80 -132v373h48v-373h-48zM80 711h48v-370h-48v370z" />
    <glyph glyph-name="copyright" unicode="&#xa9;" horiz-adv-x="804" 
d="M226.5 40q-79.5 49 -126 133t-46.5 183t46.5 183t126 133t174.5 49t174.5 -49t126 -133t46.5 -183t-46.5 -183t-126 -133t-174.5 -49t-174.5 49zM133.5 191q41.5 -75 112.5 -119t155 -44q85 0 155.5 44t112 119t41.5 165t-41 165t-112 118.5t-156 43.5q-84 0 -155 -43.5
t-112.5 -118.5t-41.5 -165t41.5 -165zM237 378q0 85 44.5 137t115.5 52q72 0 111.5 -40.5t39.5 -112.5h-40q0 58 -28.5 86.5t-82.5 28.5t-86.5 -41.5t-32.5 -111.5v-43q0 -68 32.5 -109t86.5 -41q55 0 82.5 28t27.5 87h41q0 -74 -39.5 -114t-111.5 -40t-116 52t-44 139v43z
" />
    <glyph glyph-name="guillemotleft" unicode="&#xab;" horiz-adv-x="310" 
d="M260 65l-27 -26q-28 33 -47 79t-19 101t19 101.5t47 78.5l27 -26q-56 -65 -56 -154q0 -83 56 -154zM69.5 348q23.5 59 58.5 100l27 -28q-31 -38 -50.5 -89.5t-19.5 -111.5t19.5 -111.5t50.5 -89.5l-27 -28q-35 41 -58.5 100t-23.5 129t23.5 129z" />
    <glyph glyph-name="logicalnot" unicode="&#xac;" horiz-adv-x="543" 
d="M454 190h-48v142h-345v44h393v-186z" />
    <glyph glyph-name="registered" unicode="&#xae;" horiz-adv-x="807" 
d="M317 327v-170h-40v409h122q72 0 109 -30.5t37 -89.5q0 -67 -70 -97q63 -21 63 -102q0 -58 8 -82v-8h-42q-4 11 -5.5 34.5t-2 39.5t-0.5 23q-1 38 -19 55.5t-58 17.5h-102zM100 539.5q46 83.5 126 132.5t175 49t174.5 -49t126 -133t46.5 -183t-46.5 -183t-126 -133
t-174.5 -49t-174.5 49.5t-126 133t-46.5 182.5q0 100 46 183.5zM133.5 190q41.5 -75 112.5 -118.5t155 -43.5t155 43.5t112.5 119t41.5 165.5t-41 165t-112 118.5t-156 43.5q-84 0 -155 -43t-112.5 -118t-41.5 -166t41.5 -166zM410 366q42 0 68.5 22.5t26.5 57.5
q0 44 -23.5 63t-77.5 19h-87v-162h93z" />
    <glyph glyph-name="degree" unicode="&#xb0;" horiz-adv-x="384" 
d="M90 660.5q16 27.5 43.5 44t58.5 16.5q48 0 82.5 -35.5t34.5 -84.5t-34.5 -83.5t-82.5 -34.5t-83 34.5t-35 83.5q0 32 16 59.5zM136.5 545.5q21.5 -22.5 53.5 -22.5q35 0 56 22t21 56q0 36 -21.5 57.5t-53.5 21.5q-34 0 -55.5 -22.5t-21.5 -55.5q0 -34 21.5 -56.5z" />
    <glyph glyph-name="plusminus" unicode="&#xb1;" horiz-adv-x="529" 
d="M291 401h195v-42h-195v-218h-45v218h-207v42h207v218h45v-218zM62 42h407v-42h-407v42z" />
    <glyph glyph-name="uni00B2" unicode="&#xb2;" horiz-adv-x="359" 
d="M323 285h-274v32l143 142q35 35 51.5 60.5t16.5 46.5q0 34 -22 53.5t-62 19.5q-44 0 -69 -23t-25 -61h-43q0 53 38.5 87t98.5 34q58 0 92.5 -29.5t34.5 -79.5q0 -48 -54 -105l-35 -36l-111 -104h220v-37z" />
    <glyph glyph-name="uni00B3" unicode="&#xb3;" horiz-adv-x="359" 
d="M131 498h38q45 0 70 19.5t25 50.5q0 33 -23 52t-64 19q-39 0 -65 -19.5t-26 -50.5h-43q0 47 38 77t96 30q61 0 96 -29t35 -79q0 -28 -19 -51.5t-54 -34.5q40 -10 60.5 -34t20.5 -59q0 -49 -38 -79t-100 -30t-102 31t-40 81h43q0 -33 28 -54.5t72 -21.5q45 0 69.5 20
t24.5 55q0 72 -108 72h-34v35z" />
    <glyph glyph-name="uni00B5" unicode="&#xb5;" horiz-adv-x="553" 
d="M128 528v-318q2 -178 135 -178q74 0 113.5 36t49.5 113v347h48v-528h-44l-2 85q-47 -95 -160 -95q-49 0 -84.5 19t-55.5 55v-267h-48v731h48z" />
    <glyph glyph-name="uni00B9" unicode="&#xb9;" horiz-adv-x="359" 
d="M221 285h-43v333l-115 -36v38l153 51h5v-386z" />
    <glyph glyph-name="guillemotright" unicode="&#xbb;" horiz-adv-x="310" 
d="M90 305q-15 39 -40 68l26 26q28 -32 47 -78t19 -102q0 -55 -19 -101t-47 -79l-26 26q55 73 55 154q0 47 -15 86zM205 107.5q20 51.5 20 111.5t-20 111.5t-51 89.5l28 28q34 -41 57.5 -100t23.5 -129t-23.5 -129t-57.5 -100l-28 28q31 38 51 89.5z" />
    <glyph glyph-name="onequarter" unicode="&#xbc;" horiz-adv-x="735" 
d="M207 252h-43v333l-116 -36v38l153 50h6v-385zM529 637l32 -21l-347 -555l-32 20zM575 448h46v-254h65v-37h-65v-94h-43v94h-199l-1 26zM578 194v201l-17 -28l-134 -173h151z" />
    <glyph glyph-name="onehalf" unicode="&#xbd;" horiz-adv-x="791" 
d="M207 252h-43v333l-116 -36v38l153 50h6v-385zM529 637l32 -21l-347 -555l-32 20zM497.5 421q38.5 34 98.5 34q58 0 92.5 -29.5t34.5 -79.5q0 -48 -54 -105l-35 -36l-111 -104h220v-37h-274v32l143 142q35 36 51.5 61t16.5 46q0 34 -22 53.5t-62 19.5q-44 0 -69 -23
t-25 -61h-43q0 53 38.5 87z" />
    <glyph glyph-name="threequarters" unicode="&#xbe;" horiz-adv-x="755" 
d="M144 485h38q45 0 70 19t25 50q0 33 -23 52t-64 19q-39 0 -65 -19.5t-26 -50.5h-42q0 47 37.5 77t95.5 30q61 0 96 -29t35 -79q0 -29 -19 -52t-54 -34q40 -10 60.5 -33.5t20.5 -58.5q0 -50 -38 -80t-100 -30t-102 31t-40 81h43q0 -33 28 -54.5t72 -21.5q45 0 69.5 20
t24.5 55q0 73 -108 73h-34v35zM565 637l31 -21l-347 -555l-31 20zM594 450h47v-253h64v-37h-64v-95h-43v95h-199l-1 26zM598 197v201l-18 -28l-134 -173h152z" />
    <glyph glyph-name="multiply" unicode="&#xd7;" horiz-adv-x="520" 
d="M46 66l179 182l-170 173l33 32l169 -172l170 172l32 -32l-170 -173l179 -182l-32 -32l-179 181l-178 -181z" />
    <glyph glyph-name="divide" unicode="&#xf7;" horiz-adv-x="568" 
d="M523 321h-487v47h487v-47zM257.5 169.5q10.5 10.5 25.5 10.5t26.5 -10t11.5 -26q0 -15 -11 -25.5t-25 -10.5q-16 0 -27 9.5t-11 26.5q0 15 10.5 25.5zM258 556.5q11 9.5 27 9.5q14 0 25 -10.5t11 -25.5q0 -16 -11 -26t-27 -10q-15 0 -25.5 10t-10.5 26q0 17 11 26.5z" />
    <glyph glyph-name="uni060C" unicode="&#x60c;" horiz-adv-x="241" 
d="M71 23.5q-17 20.5 -17 53.5q0 43 27 87t70 70l17 -24q-44 -32 -59.5 -64t-17.5 -53q1 0 8 3.5t18 3.5q19 0 33.5 -14t14.5 -35q0 -20 -15 -34t-35 -14q-27 0 -44 20.5z" />
    <glyph glyph-name="uni0615" unicode="&#x615;" 
d="M39 520l23 34q1 23 -2.5 69t-8.5 79l33 6q9 -54 12 -117q39 36 76 36q32 0 51 -20t19 -46q0 -21 -15 -41t-46.5 -33t-77.5 -13q-32 0 -61 7t-48 15l13 34q10 -5 32 -10zM108 512q51 0 76.5 15t25.5 33q0 12 -9 21t-27 9q-25 0 -50.5 -21.5t-47.5 -55.5z" />
    <glyph glyph-name="uni061B" unicode="&#x61b;" horiz-adv-x="226" 
d="M84.5 18q-14.5 14 -14.5 34t14.5 34.5t34.5 14.5t34.5 -14.5t14.5 -34.5t-14.5 -34t-34.5 -14t-34.5 14zM86 403q27 44 70 69l17 -24q-44 -32 -59.5 -64t-17.5 -53q12 8 26 8q19 0 33.5 -14t14.5 -35q0 -20 -15 -34t-35 -14q-28 0 -44.5 20.5t-16.5 53.5q0 43 27 87z" />
    <glyph glyph-name="uni061F" unicode="&#x61f;" horiz-adv-x="450" 
d="M213.5 2.5q-14.5 14.5 -14.5 34.5t14.5 34t34.5 14t34.5 -14t14.5 -34t-14.5 -34.5t-34.5 -14.5t-34.5 14.5zM75.5 624.5q23.5 40.5 64 65t87.5 24.5q48 0 87.5 -26t61.5 -70t22 -95l-40 -2q0 61 -36.5 103.5t-94.5 42.5q-38 0 -68.5 -17.5t-48 -47.5t-17.5 -65
q0 -31 11.5 -54.5t30.5 -41.5t57 -47q12 -8 31 -24q29 -24 37 -54.5t8 -82.5v-59h-39v65q0 37 -7 59t-32 42l-28 23q-38 29 -60 51t-36 52.5t-14 71.5q0 46 23.5 86.5z" />
    <glyph glyph-name="uni0640" unicode="&#x640;" horiz-adv-x="198" 
d="M-4 51h207l3 -26l-3 -25h-207v51z" />
    <glyph glyph-name="uni064B" unicode="&#x64b;" 
d="M-4 486l207 69v-37l-207 -69v37zM-4 575l207 69v-37l-207 -69v37z" />
    <glyph glyph-name="uni064C" unicode="&#x64c;" 
d="M80.5 496q33.5 10 59.5 33q-40 0 -64.5 22t-24.5 58q0 34 24 58.5t55 24.5q10 0 20 -3q26 -7 40 -30t14 -53q0 -46 -30 -85q-27 -36 -70 -53t-90 -21l-8 35q41 4 74.5 14zM-14.5 548q-13.5 25 -13.5 53q0 36 21 70.5t62 62.5l21 -22q-34 -25 -52 -53.5t-18 -55.5
q0 -42 42 -72l-24 -27q-25 19 -38.5 44zM104 573.5q24 -14.5 61 -13.5q9 18 9 40q0 24 -12 41.5t-35 17.5q-19 0 -33 -14t-14 -35q0 -22 24 -36.5z" />
    <glyph glyph-name="uni064D" unicode="&#x64d;" 
d="M-4 -239l207 69v-37l-207 -69v37zM-4 -150l207 69v-37l-207 -69v37z" />
    <glyph glyph-name="uni064E" unicode="&#x64e;" 
d="M-4 486l207 69v-37l-207 -69v37z" />
    <glyph glyph-name="uni064F" unicode="&#x64f;" 
d="M80.5 496q33.5 10 59.5 33q-40 0 -64.5 22t-24.5 58q0 34 24 58.5t55 24.5q10 0 20 -3q26 -7 40 -30t14 -53q0 -46 -30 -85q-27 -36 -70 -53t-90 -21l-8 35q41 4 74.5 14zM104 573.5q24 -14.5 61 -13.5q9 18 9 40q0 24 -12 41.5t-35 17.5q-19 0 -33 -14t-14 -35
q0 -22 24 -36.5z" />
    <glyph glyph-name="uni0650" unicode="&#x650;" 
d="M-4 -274l207 69v-37l-207 -69v37z" />
    <glyph glyph-name="uni0651" unicode="&#x651;" 
d="M10.5 557q-4.5 -14 -4.5 -27q0 -15 9.5 -24t26.5 -9q22 0 34.5 20t11.5 64l30 6q4 -42 15.5 -62.5t33.5 -20.5q20 0 30 10.5t10 26.5q0 14 -9 36t-22 39l27 20q36 -60 36 -93q0 -34 -19 -55t-53 -21q-41 0 -61 37q-10 -21 -27 -32.5t-37 -11.5q-32 0 -50 19.5t-18 49.5
q1 30 14 58l28 -13q-1 -3 -5.5 -17z" />
    <glyph glyph-name="uni0652" unicode="&#x652;" 
d="M123 610q24 -27 24 -66q0 -34 -24 -59t-57 -25q-34 0 -57.5 24.5t-23.5 61.5q0 40 25 65.5t56 25.5q33 0 57 -27zM31 510q13 -14 33 -14q24 0 37.5 13.5t13.5 35.5q0 25 -14.5 40.5t-36.5 15.5q-19 0 -33 -15t-14 -40q1 -22 14 -36z" />
    <glyph glyph-name="uni0653" unicode="&#x653;" 
d="M22.5 513q20.5 22 51.5 22q20 0 38.5 -6t21.5 -7q34 -12 52 -12q34 0 53 33l26 -19q-16 -22 -34.5 -36.5t-44.5 -14.5q-19 0 -55 12q-14 5 -28.5 8.5t-27.5 3.5q-21 0 -34 -13t-17 -35l-30 11q8 31 28.5 53z" />
    <glyph glyph-name="uni0654" unicode="&#x654;" 
d="M35 504l71 23q-32 21 -40 53q-2 6 -2 19q0 29 18 53t47 31q12 3 25 3q30 0 66 -13l-10 -36q-3 1 -20.5 6.5t-36.5 5.5q-25 0 -41 -15.5t-16 -35.5q0 -17 17 -33.5t44 -20.5l85 28v-37l-207 -69v38z" />
    <glyph glyph-name="uni0655" unicode="&#x655;" 
d="M35 -253l71 23q-20 12 -31.5 30.5t-11.5 40.5q0 29 18.5 53.5t47.5 31.5q12 3 25 3q29 0 65 -13l-9 -36q-4 1 -22 6.5t-35 5.5q-25 0 -41 -15.5t-16 -35.5q0 -7 1 -10q3 -15 20 -27.5t40 -16.5l85 28v-37l-207 -69v38z" />
    <glyph glyph-name="uni0656" unicode="&#x656;" 
d="M58 -200q0 -58 -1 -87l-34 -2q2 52 2 82q0 53 -4 113l34 6q3 -48 3 -112z" />
    <glyph glyph-name="uni0658" unicode="&#x658;" 
d="M31.5 656q-7.5 -27 -7.5 -51q0 -45 27.5 -69.5t78.5 -24.5q61 0 90 28t29 66q0 17 -8.5 59t-14.5 66l30 10q5 -17 14.5 -63.5t9.5 -71.5q0 -31 -16 -61.5t-49.5 -51t-84.5 -20.5q-62 0 -99.5 36.5t-37.5 96.5q0 27 8.5 60t21.5 57l28 -16q-12 -23 -19.5 -50z" />
    <glyph glyph-name="uni065A" unicode="&#x65a;" 
d="M110 491l-32 -14q-9 34 -29.5 73t-42.5 68l26 23q37 -53 61 -109q11 33 26.5 64.5t31.5 53.5l26 -22q-46 -64 -67 -137z" />
    <glyph glyph-name="uni065B" unicode="&#x65b;" 
d="M119.5 535.5q-15.5 31.5 -26.5 64.5q-24 -56 -61 -109l-26 23q22 29 42.5 68t29.5 73l32 -14q21 -73 67 -137l-26 -22q-16 22 -31.5 53.5z" />
    <glyph glyph-name="uni0660" unicode="&#x660;" horiz-adv-x="431" 
d="M139 77.5q-33 19.5 -52.5 52t-19.5 71.5t19.5 71.5t52.5 52t71 19.5t71 -19t52 -52t19 -72t-19 -72t-52 -52t-71 -19t-71 19.5zM141.5 132.5q27.5 -27.5 68.5 -27.5t68.5 27.5t27.5 68.5t-27.5 68.5t-68.5 27.5t-68.5 -27.5t-27.5 -68.5t27.5 -68.5z" />
    <glyph glyph-name="uni0661" unicode="&#x661;" horiz-adv-x="368" 
d="M176.5 190q-4.5 101 -13.5 171q-18 144 -74 274l45 25q57 -123 78 -293q8 -73 12.5 -177t3.5 -190h-47q0 89 -4.5 190z" />
    <glyph glyph-name="uni0662" unicode="&#x662;" horiz-adv-x="496" 
d="M167.5 190q-4.5 101 -13.5 171q-18 147 -75 274l46 25q15 -33 26 -65q2 -4 7 -19q18 -48 32.5 -73.5t41 -41.5t69.5 -16q65 0 92.5 41.5t27.5 109.5q0 30 -5 65l43 7q6 -36 6 -72q0 -88 -40 -145.5t-122 -58.5q-69 0 -109 37l9 -62q8 -73 12.5 -177t3.5 -190h-47
q0 89 -4.5 190z" />
    <glyph glyph-name="uni0663" unicode="&#x663;" horiz-adv-x="634" 
d="M441.5 498q18.5 -43 58.5 -43q30 0 45 28.5t15 77.5q0 40 -11 95l42 10q13 -58 13 -105q0 -71 -26.5 -114.5t-77.5 -43.5q-69 0 -100 84q-16 -45 -47 -70t-72 -25q-51 0 -88 39q4 -24 10 -64q8 -73 12.5 -177t3.5 -190h-47q0 89 -4.5 190t-13.5 171q-18 147 -75 274
l46 25q16 -36 23 -56q29 -81 56.5 -120t74.5 -39q50 0 76 42.5t22 126.5h1l-1 18l41 7q5 -98 23.5 -141z" />
    <glyph glyph-name="uni0664" unicode="&#x664;" horiz-adv-x="634" 
d="M269 411q-20 36 -20 75q0 47 23.5 87.5t65 64.5t92.5 24q73 0 153 -62l-23 -39q-29 23 -66.5 37t-73.5 11q-56 -5 -91 -40t-35 -83q0 -30 16.5 -57.5t48.5 -45.5t76 -18q70 0 155 49l18 -45q-39 -26 -89 -41.5t-101 -15.5q-60 0 -114.5 23t-97.5 73l6 -41
q8 -73 12.5 -177t3.5 -190h-47q0 89 -4.5 190t-13.5 171q-18 144 -74 274l45 25q14 -29 35 -90q32 -104 100 -159z" />
    <glyph glyph-name="uni0665" unicode="&#x665;" horiz-adv-x="596" 
d="M113.5 394.5q51.5 102.5 125.5 200.5l-29 25l29 44q137 -121 219.5 -237t82.5 -249q0 -89 -38 -135t-96 -46q-31 0 -58 18.5t-44 57.5q-18 -39 -46 -57t-62 -18q-65 0 -103.5 52t-38.5 134q0 19 1 28q6 80 57.5 182.5zM101 184q0 -62 26 -98t71 -36q37 0 61.5 35
t23.5 108l43 8q1 -79 23.5 -115.5t56.5 -36.5q90 0 90 133q0 100 -59.5 193t-162.5 188q-71 -92 -118.5 -186t-53.5 -165q-1 -10 -1 -28z" />
    <glyph glyph-name="uni0666" unicode="&#x666;" horiz-adv-x="503" 
d="M131 191.5q58 84.5 131 149.5q-49 0 -87 19t-59.5 53t-21.5 76q0 43 23 84.5t65.5 68t97.5 26.5q61 0 122 -43l-20 -39q-48 31 -99 31q-42 0 -74 -18.5t-50 -47.5t-18 -60q0 -43 32.5 -71t85.5 -28q54 0 117 32q42 24 78 38l9 -52q-76 -30 -150 -90t-135 -144.5
t-96 -184.5l-42 18q33 98 91 182.5z" />
    <glyph glyph-name="uni0667" unicode="&#x667;" horiz-adv-x="567" 
d="M445.5 460.5q-51.5 -114.5 -92 -241t-47.5 -219.5h-45q-6 93 -46.5 219t-92.5 240.5t-88 169.5l42 31q50 -78 112 -229t96 -303q33 152 95 303.5t112 228.5l42 -31q-36 -54 -87.5 -168.5z" />
    <glyph glyph-name="uni0668" unicode="&#x668;" horiz-adv-x="567" 
d="M121 185.5q51 114.5 91.5 241t47.5 219.5h46q6 -93 46 -219t92 -240.5t88 -169.5l-41 -31q-51 81 -113 231.5t-95 301.5q-33 -152 -95 -303.5t-112 -229.5l-42 31q36 54 87 168.5z" />
    <glyph glyph-name="uni0669" unicode="&#x669;" horiz-adv-x="469" 
d="M337.5 140q-15.5 100 -24.5 210q-51 -28 -109 -28q-68 0 -111 37.5t-43 103.5q0 46 19 93t53 77t75 30q86 0 118 -85.5t40 -190.5q9 -108 26 -213.5t39 -159.5l-45 -25q-22 51 -37.5 151zM123 398q29 -24 82 -24q57 0 104 32q-7 81 -32.5 143.5t-80.5 62.5
q-28 0 -51 -21.5t-37 -55.5t-14 -69q0 -44 29 -68z" />
    <glyph glyph-name="uni066A" unicode="&#x66a;" horiz-adv-x="454" 
d="M136 647l65 -65l-65 -65l-65 66zM333 664h48l-262 -698h-47zM327 105l65 -65l-65 -65l-65 66z" />
    <glyph glyph-name="uni066B" unicode="&#x66b;" horiz-adv-x="333" 
d="M40 -51l215 490h41l-215 -490h-41z" />
    <glyph glyph-name="uni066C" unicode="&#x66c;" horiz-adv-x="173" 
d="M96 108h47l-85 -238h-35z" />
    <glyph glyph-name="uni066D" unicode="&#x66d;" horiz-adv-x="621" 
d="M184 411l73 -122l-5 -5l-124 70v57h56zM92 268l137 -35v-7l-137 -38l-40 40zM128 101l121 73l5 -5l-70 -124h-56v56zM277 260.5q14 13.5 34 13.5q18 0 32 -13.5t14 -32.5q0 -20 -13.5 -33.5t-32.5 -13.5q-20 0 -34 13.5t-14 33.5q0 19 14 32.5zM306 146h6l38 -137
l-40 -40l-39 40zM311 486l40 -39l-35 -138h-7l-38 137zM369 171l124 -70v-56h-56l-72 121zM437 410h57v-56l-122 -72l-5 4zM392 229l137 38l40 -40l-39 -39l-138 35v6z" />
    <glyph glyph-name="uni066E" unicode="&#x66e;" horiz-adv-x="804" 
d="M142.5 37q-92.5 45 -101.5 133q-1 9 -1 26q0 39 10 80t25 75l41 -21q-30 -72 -30 -132q0 -15 1 -22q8 -65 87 -99t226 -34q93 0 163.5 15.5t110 38.5t44.5 46q-1 35 -21.5 106t-33.5 102l42 23q17 -40 37.5 -114.5t20.5 -111.5q0 -44 -46.5 -80t-128.5 -56t-186 -20
q-167 0 -259.5 45z" />
    <glyph glyph-name="uni066F" unicode="&#x66f;" horiz-adv-x="675" 
d="M164.5 -244.5q-63.5 39.5 -93 100.5t-29.5 125q0 61 19 125.5t45 112.5l41 -19q-58 -120 -58 -214q0 -100 63 -159.5t172 -59.5q78 0 138 29t94 82.5t35 126.5q-40 -10 -90 -10q-60 0 -108 18t-70 58q-15 27 -15 70q0 47 19.5 94.5t52.5 78.5t70 31q60 0 102 -53
t62 -129.5t20 -144.5q0 -93 -39.5 -161t-109.5 -104.5t-161 -36.5q-96 0 -159.5 39.5zM415.5 59q39.5 -13 89.5 -13q48 0 84 9q-3 56 -20 111t-48 91.5t-73 36.5q-25 0 -47.5 -22.5t-36.5 -57t-14 -67.5q0 -29 11 -48q15 -27 54.5 -40z" />
    <glyph glyph-name="uni0670" unicode="&#x670;" 
d="M50 560q0 -58 -1 -87l-34 -2q2 52 2 82q0 53 -4 113l34 6q3 -48 3 -112z" />
    <glyph glyph-name="uni0688" unicode="&#x688;" horiz-adv-x="474" 
d="M106 17q-48 19 -76 42l23 40q72 -51 174 -51q62 0 102.5 16t51.5 40q8 18 8 36q0 54 -53.5 127.5t-155.5 153.5l26 43q109 -85 168.5 -169t59.5 -154q0 -33 -13 -59q-18 -40 -68.5 -62t-123.5 -22q-75 0 -123 19zM100 596q10 -5 32 -10l23 34q1 23 -2.5 69t-8.5 79l33 6
q9 -54 12 -117q39 36 76 36q32 0 51 -20t19 -46q0 -21 -15 -41t-46.5 -33t-77.5 -13q-32 0 -61 7t-48 15zM201 578q51 0 76.5 15t25.5 33q0 12 -9 21t-27 9q-25 0 -50.5 -21.5t-47.5 -55.5z" />
    <glyph glyph-name="uni0691" unicode="&#x691;" horiz-adv-x="317" 
d="M116 -182q53 37 83.5 81.5t30.5 86.5q0 32 -14 105t-36 154l46 16q21 -77 36 -154t15 -121q0 -54 -35 -108t-95 -97t-131 -65l-16 46q63 19 116 56zM114 400q10 -5 32 -10q14 22 23 33q1 24 -2.5 69.5t-8.5 79.5l33 5q9 -59 11 -116q41 36 77 36q31 0 50.5 -20.5
t19.5 -46.5q0 -21 -15.5 -40.5t-47 -32.5t-76.5 -13q-32 0 -61.5 7t-48.5 15zM210 381q53 0 79 14.5t27 32.5q2 14 -8 23t-29 9q-25 -1 -50 -22t-47 -55q18 -2 28 -2z" />
    <glyph glyph-name="uni0695" unicode="&#x695;" horiz-adv-x="317" 
d="M116 -182q53 37 83.5 81.5t30.5 86.5q0 32 -14 105t-36 154l46 16q21 -77 36 -154t15 -121q0 -54 -35 -108t-95 -97t-131 -65l-16 46q63 19 116 56zM71 -314q38 -55 61 -109q21 64 58 118l26 -22q-48 -69 -67 -137l-31 -14q-10 34 -30.5 72.5t-41.5 68.5z" />
    <glyph glyph-name="uni06A1" unicode="&#x6a1;" horiz-adv-x="829" 
d="M408 -8q-170 -1 -264 44t-103 134q-1 9 -1 26q0 39 10 80t25 75l41 -21q-30 -72 -30 -132q0 -15 1 -22q8 -65 87.5 -99t228.5 -34h6q131 0 215.5 26.5t110.5 75.5q-12 -1 -39 -1q-163 0 -204 73q-17 30 -17 72q0 44 19.5 88t53 72t71.5 28q52 0 90 -39t58 -99.5
t20 -122.5q0 -25 -3 -48q-13 -83 -109.5 -129t-265.5 -47h-1zM592.5 205.5q47.5 -12.5 107.5 -12.5q19 0 47 2q3 53 -11.5 107t-45 89.5t-73.5 35.5q-26 0 -49 -20t-37.5 -51.5t-14.5 -61.5q0 -26 12 -46q17 -30 64.5 -42.5z" />
    <glyph glyph-name="uni06B5" unicode="&#x6b5;" horiz-adv-x="627" 
d="M168 -213.5q-60 30.5 -94 86t-34 126.5q0 49 17.5 111t45.5 116l40 -20q-25 -51 -40.5 -104t-16.5 -96q0 -59 27 -104t76 -70.5t114 -25.5q123 0 182 68t53 200l-13 285q-10 250 -16 298l46 10q7 -47 16 -289q6 -157 13 -302q7 -154 -66 -237t-215 -83q-75 0 -135 30.5z
M469 868q37 -53 61 -109q21 64 58 118l26 -22q-48 -69 -67 -137l-31 -14q-10 33 -30.5 72.5t-41.5 68.5z" />
    <glyph glyph-name="uni06BA" unicode="&#x6ba;" horiz-adv-x="672" 
d="M89 -14q0 -102 63 -160.5t172 -58.5q89 0 147.5 33t85.5 83.5t27 102.5q0 48 -10.5 98t-31.5 130l-9 32l44 17q28 -98 40.5 -159t12.5 -118q0 -63 -34.5 -125.5t-103.5 -103.5t-168 -41q-96 0 -159.5 39.5t-93 100.5t-29.5 125q0 61 19 125.5t45 112.5l41 -19
q-58 -120 -58 -214z" />
    <glyph glyph-name="uni06C1" unicode="&#x6c1;" horiz-adv-x="409" 
d="M86 40q-45 41 -45 104q0 17 5 39q23 96 115 183q-7 5 -17 11t-23 14l24 42q119 -71 173.5 -135.5t54.5 -139.5q0 -14 -1 -22q-6 -60 -53 -98.5t-113 -38.5q-75 0 -120 41zM87 149q0 -46 31.5 -73t87.5 -27q49 0 83.5 26t38.5 67q5 53 -25 99.5t-103 98.5
q-46 -39 -74.5 -81.5t-36.5 -84.5q-2 -9 -2 -25z" />
    <glyph glyph-name="uni06C2" unicode="&#x6c2;" horiz-adv-x="409" 
d="M86 40q-45 41 -45 104q0 17 5 39q23 96 115 183q-7 5 -17 11t-23 14l24 42q119 -71 173.5 -135.5t54.5 -139.5q0 -14 -1 -22q-6 -60 -53 -98.5t-113 -38.5q-75 0 -120 41zM85 530l71 24q-32 21 -40 53q-2 6 -2 19q0 29 18 52.5t47 30.5q12 3 25 3q30 0 66 -13l-10 -36
q-31 12 -56 12t-41.5 -15t-16.5 -35q0 -7 1 -10q4 -15 21 -27.5t40 -16.5l84 28v-38l-207 -68v37zM87 149q0 -46 31.5 -73t87.5 -27q49 0 83.5 26t38.5 67q5 53 -25 99.5t-103 98.5q-46 -39 -74.5 -81.5t-36.5 -84.5q-2 -9 -2 -25z" />
    <glyph glyph-name="uni06C3" unicode="&#x6c3;" horiz-adv-x="409" 
d="M86 40q-45 41 -45 104q0 17 5 39q23 96 115 183q-7 5 -17 11t-23 14l24 42q119 -71 173.5 -135.5t54.5 -139.5q0 -14 -1 -22q-6 -60 -53 -98.5t-113 -38.5q-75 0 -120 41zM133 605l56 -55l-56 -55l-18 18l-37 37zM87 149q0 -46 31.5 -73t87.5 -27q49 0 83.5 26t38.5 67
q5 53 -25 99.5t-103 98.5q-46 -39 -74.5 -81.5t-36.5 -84.5q-2 -9 -2 -25zM286 605l55 -55q-27 -28 -55 -55l-55 55q27 28 55 55z" />
    <glyph glyph-name="uni06C9" unicode="&#x6c9;" horiz-adv-x="423" 
d="M254 -144q78 61 85 149q-40 -10 -89 -10q-60 0 -108 18t-69 58q-16 29 -16 70q0 47 20 94.5t53.5 78.5t70.5 31q58 0 99 -51.5t61.5 -126.5t20.5 -142q0 -114 -88 -194t-251 -115l-13 47q146 32 224 93zM164 58.5q39 -12.5 90 -12.5q43 0 85 8q-7 92 -43 166t-96 75
q-25 0 -48.5 -23t-38 -58.5t-14.5 -68.5q0 -27 11 -47q15 -27 54 -39.5zM170.5 509q20.5 39 29.5 73l32 -14q21 -73 67 -137l-26 -22q-16 22 -31.5 53.5t-26.5 64.5q-24 -56 -61 -109l-26 23q22 29 42.5 68z" />
    <glyph glyph-name="uni06CE" unicode="&#x6ce;" horiz-adv-x="713" 
d="M177 -208.5q-64 32.5 -100 92.5t-36 137q0 58 18 122.5t44 119.5l40 -19q-58 -124 -58 -217q0 -100 64.5 -158.5t172.5 -58.5q81 0 142 29t94 71t35 79q-1 14 -26 25.5t-101 26.5t-107 37t-31 66q0 69 36 130.5t95 98.5t126 37q24 0 47 -5.5t38 -14.5l-17 -44
q-30 13 -69 13q-55 0 -104 -30t-78.5 -78.5t-29.5 -98.5q0 -17 9 -27.5t33.5 -19.5t72.5 -19q62 -13 93 -23.5t44 -25.5t13 -41q0 -53 -39.5 -108.5t-111.5 -92t-164 -36.5q-81 0 -145 32.5zM171 495q37 -53 61 -109q21 64 58 118l26 -22q-48 -69 -67 -137l-31 -14
q-10 33 -30.5 72.5t-41.5 68.5z" />
    <glyph glyph-name="uni06D4" unicode="&#x6d4;" horiz-adv-x="222" 
d="M76.5 17.5q-14.5 14.5 -14.5 34.5t14.5 34.5t34.5 14.5t34.5 -14.5t14.5 -34.5t-14.5 -34.5t-34.5 -14.5t-34.5 14.5z" />
    <glyph glyph-name="uni06D5" unicode="&#x6d5;" horiz-adv-x="409" 
d="M86 40q-45 41 -45 104q0 17 5 39q23 96 115 183q-7 5 -17 11t-23 14l24 42q119 -71 173.5 -135.5t54.5 -139.5q0 -14 -1 -22q-6 -60 -53 -98.5t-113 -38.5q-75 0 -120 41zM87 149q0 -46 31.5 -73t87.5 -27q49 0 83.5 26t38.5 67q5 53 -25 99.5t-103 98.5
q-46 -39 -74.5 -81.5t-36.5 -84.5q-2 -9 -2 -25z" />
    <glyph glyph-name="uni06F0" unicode="&#x6f0;" horiz-adv-x="431" 
d="M139 77.5q-33 19.5 -52.5 52t-19.5 71.5t19.5 71.5t52.5 52t71 19.5t71 -19t52 -52t19 -72t-19 -72t-52 -52t-71 -19t-71 19.5zM141.5 132.5q27.5 -27.5 68.5 -27.5t68.5 27.5t27.5 68.5t-27.5 68.5t-68.5 27.5t-68.5 -27.5t-27.5 -68.5t27.5 -68.5z" />
    <glyph glyph-name="uni06F1" unicode="&#x6f1;" horiz-adv-x="368" 
d="M176.5 190q-4.5 101 -13.5 171q-18 144 -74 274l45 25q57 -123 78 -293q8 -73 12.5 -177t3.5 -190h-47q0 89 -4.5 190z" />
    <glyph glyph-name="uni06F2" unicode="&#x6f2;" horiz-adv-x="496" 
d="M167.5 190q-4.5 101 -13.5 171q-18 147 -75 274l46 25q15 -33 26 -65q2 -4 7 -19q18 -48 32.5 -73.5t41 -41.5t69.5 -16q65 0 92.5 41.5t27.5 109.5q0 30 -5 65l43 7q6 -36 6 -72q0 -88 -40 -145.5t-122 -58.5q-69 0 -109 37l9 -62q8 -73 12.5 -177t3.5 -190h-47
q0 89 -4.5 190z" />
    <glyph glyph-name="uni06F3" unicode="&#x6f3;" horiz-adv-x="633" 
d="M441.5 498q18.5 -43 58.5 -43q30 0 45 28.5t15 77.5q0 40 -11 95l42 10q13 -58 13 -105q0 -71 -26.5 -114.5t-77.5 -43.5q-69 0 -100 84q-16 -45 -47 -70t-72 -25q-51 0 -88 39q4 -24 10 -64q8 -73 12.5 -177t3.5 -190h-47q0 89 -4.5 190t-13.5 171q-18 147 -75 274
l46 25q16 -36 23 -56q29 -81 56.5 -120t74.5 -39q50 0 76 42.5t22 126.5h1l-1 18l41 7q5 -98 23.5 -141z" />
    <glyph glyph-name="uni06F4" unicode="&#x6f4;" horiz-adv-x="634" 
d="M269 411q-20 36 -20 75q0 47 23.5 87.5t65 64.5t92.5 24q73 0 153 -62l-23 -39q-29 23 -66.5 37t-73.5 11q-56 -5 -91 -40t-35 -83q0 -30 16.5 -57.5t48.5 -45.5t76 -18q70 0 155 49l18 -45q-39 -26 -89 -41.5t-101 -15.5q-60 0 -114.5 23t-97.5 73l6 -41
q8 -73 12.5 -177t3.5 -190h-47q0 89 -4.5 190t-13.5 171q-18 144 -74 274l45 25q14 -29 35 -90q32 -104 100 -159z" />
    <glyph glyph-name="uni06F5" unicode="&#x6f5;" horiz-adv-x="596" 
d="M113.5 394.5q51.5 102.5 125.5 200.5l-29 25l29 44q137 -121 219.5 -237t82.5 -249q0 -89 -38 -135t-96 -46q-31 0 -58 18.5t-44 57.5q-18 -39 -46 -57t-62 -18q-65 0 -103.5 52t-38.5 134q0 19 1 28q6 80 57.5 182.5zM101 184q0 -62 26 -98t71 -36q37 0 61.5 35
t23.5 108l43 8q1 -79 23.5 -115.5t56.5 -36.5q90 0 90 133q0 100 -59.5 193t-162.5 188q-71 -92 -118.5 -186t-53.5 -165q-1 -10 -1 -28z" />
    <glyph glyph-name="uni06F6" unicode="&#x6f6;" horiz-adv-x="503" 
d="M131 191.5q58 84.5 131 149.5q-49 0 -87 19t-59.5 53t-21.5 76q0 43 23 84.5t65.5 68t97.5 26.5q61 0 122 -43l-20 -39q-48 31 -99 31q-42 0 -74 -18.5t-50 -47.5t-18 -60q0 -43 32.5 -71t85.5 -28q54 0 117 32q42 24 78 38l9 -52q-76 -30 -150 -90t-135 -144.5
t-96 -184.5l-42 18q33 98 91 182.5z" />
    <glyph glyph-name="uni06F7" unicode="&#x6f7;" horiz-adv-x="567" 
d="M445.5 460.5q-51.5 -114.5 -92 -241t-47.5 -219.5h-45q-6 93 -46.5 219t-92.5 240.5t-88 169.5l42 31q50 -78 112 -229t96 -303q33 152 95 303.5t112 228.5l42 -31q-36 -54 -87.5 -168.5z" />
    <glyph glyph-name="uni06F8" unicode="&#x6f8;" horiz-adv-x="567" 
d="M121 185.5q51 114.5 91.5 241t47.5 219.5h46q6 -93 46 -219t92 -240.5t88 -169.5l-41 -31q-51 81 -113 231.5t-95 301.5q-33 -152 -95 -303.5t-112 -229.5l-42 31q36 54 87 168.5z" />
    <glyph glyph-name="uni06F9" unicode="&#x6f9;" horiz-adv-x="468" 
d="M337.5 140q-15.5 100 -24.5 210q-51 -28 -109 -28q-68 0 -111 37.5t-43 103.5q0 46 19 93t53 77t75 30q86 0 118 -85.5t40 -190.5q9 -108 26 -213.5t39 -159.5l-45 -25q-22 51 -37.5 151zM123 398q29 -24 82 -24q57 0 104 32q-7 81 -32.5 143.5t-80.5 62.5
q-28 0 -51 -21.5t-37 -55.5t-14 -69q0 -44 29 -68z" />
    <glyph glyph-name="uni2009" unicode="&#x2009;" horiz-adv-x="122" 
 />
    <glyph glyph-name="uni200A" unicode="&#x200a;" horiz-adv-x="64" 
 />
    <glyph glyph-name="uni200B" unicode="&#x200b;" 
 />
    <glyph glyph-name="uni200C" unicode="&#x200c;" 
 />
    <glyph glyph-name="uni200D" unicode="&#x200d;" 
 />
    <glyph glyph-name="uni200E" unicode="&#x200e;" 
 />
    <glyph glyph-name="uni200F" unicode="&#x200f;" 
 />
    <glyph glyph-name="quoteleft" unicode="&#x2018;" horiz-adv-x="159" 
d="M85 524v-93h-51v81q0 46 18.5 89t51.5 75l32 -24q-50 -67 -51 -128z" />
    <glyph glyph-name="quoteright" unicode="&#x2019;" horiz-adv-x="159" 
d="M74 594v93h51v-82q0 -46 -18.5 -89t-51.5 -75l-32 25q50 66 51 128z" />
    <glyph glyph-name="quotedblleft" unicode="&#x201c;" horiz-adv-x="294" 
d="M221 530v-93h-51v82q0 46 18.5 89t51.5 75l31 -25q-50 -66 -50 -128zM47 519q0 46 18.5 89t50.5 75l32 -25q-50 -66 -51 -128v-93h-50v82z" />
    <glyph glyph-name="quotedblright" unicode="&#x201d;" horiz-adv-x="296" 
d="M74 545v93h51v-81q0 -46 -18.5 -89t-51.5 -75l-32 25q50 66 51 127zM197 545v93h51v-81q0 -46 -18.5 -89t-51.5 -75l-31 25q49 64 50 127z" />
    <glyph glyph-name="quotedblbase" unicode="&#x201e;" horiz-adv-x="314" 
d="M86 5v93h51v-81q0 -46 -18.5 -89t-51.5 -75l-32 24q50 67 51 128zM209 5v93h51v-81q0 -46 -18.5 -89t-51.5 -75l-31 24q49 66 50 128z" />
    <glyph glyph-name="bullet" unicode="&#x2022;" horiz-adv-x="391" 
d="M126 24.5q-29 28.5 -29 69.5t29 69.5t70 28.5t69.5 -28.5t28.5 -69.5q0 -40 -28.5 -69t-69.5 -29t-70 28.5z" />
    <glyph glyph-name="ellipsis" unicode="&#x2026;" horiz-adv-x="754" 
d="M105.5 17.5q-14.5 14.5 -14.5 34.5t14.5 34.5t34.5 14.5t34.5 -14.5t14.5 -34.5t-14.5 -34.5t-34.5 -14.5t-34.5 14.5zM340.5 86.5q14.5 14.5 34.5 14.5t34.5 -14.5t14.5 -34.5t-14.5 -34.5t-34.5 -14.5t-34.5 14.5t-14.5 34.5t14.5 34.5zM577 86.5q14 14.5 34 14.5
t34.5 -14.5t14.5 -34.5t-14.5 -34.5t-34.5 -14.5t-34 14.5t-14 34.5t14 34.5z" />
    <glyph glyph-name="minute" unicode="&#x2032;" horiz-adv-x="169" 
d="M113 677l-8 -140h-38l4 144v69h42v-73z" />
    <glyph glyph-name="second" unicode="&#x2033;" horiz-adv-x="282" 
d="M238 677l-8 -140h-38l4 144v69h42v-73zM94 681v69h42v-73l-8 -140h-38z" />
    <glyph glyph-name="guilsinglleft" unicode="&#x2039;" horiz-adv-x="205" 
d="M104 107.5q20 -51.5 51 -89.5l-28 -28q-34 41 -57.5 100t-23.5 129t23.5 129t57.5 100l28 -28q-31 -38 -51 -89.5t-20 -111.5t20 -111.5z" />
    <glyph glyph-name="guilsinglright" unicode="&#x203a;" horiz-adv-x="205" 
d="M100.5 330.5q-19.5 51.5 -50.5 89.5l27 28q35 -41 58.5 -100t23.5 -129t-23.5 -129t-58.5 -100l-27 28q31 38 50.5 89.5t19.5 111.5t-19.5 111.5z" />
    <glyph glyph-name="fraction" unicode="&#x2044;" horiz-adv-x="446" 
d="M63 61l-32 20l347 556l32 -21z" />
    <glyph glyph-name="uni2070" unicode="&#x2070;" horiz-adv-x="359" 
d="M280 322.5q-35 -42.5 -100 -42.5t-100.5 42.5t-35.5 121.5v67q0 79 35 122t100 43t100.5 -42.5t35.5 -121.5v-67q0 -80 -35 -122.5zM111 348.5q24 -32.5 69 -32.5t68.5 32t23.5 91v76q0 59 -24 91.5t-69 32.5q-44 0 -68 -32t-24 -91v-76q0 -59 24 -91.5z" />
    <glyph glyph-name="uni2074" unicode="&#x2074;" horiz-adv-x="359" 
d="M273 416h65v-37h-65v-94h-43v94h-199l-1 27l197 264h46v-254zM230 416v201l-17 -28l-134 -173h151z" />
    <glyph glyph-name="uni2075" unicode="&#x2075;" horiz-adv-x="359" 
d="M66 481l23 189h223v-38h-187l-16 -120q14 8 35.5 14t45.5 6q61 0 96.5 -33.5t35.5 -89.5q0 -61 -35.5 -95t-98.5 -34q-55 0 -92 30t-41 78h43q4 -33 28 -52.5t62 -19.5q45 0 68.5 23.5t23.5 69.5q0 40 -26 64t-71 24q-27 0 -46.5 -6t-37.5 -20z" />
    <glyph glyph-name="uni2076" unicode="&#x2076;" horiz-adv-x="359" 
d="M140.5 599.5q-43.5 -37.5 -48.5 -107.5q16 21 43.5 34t60.5 13q57 0 90.5 -34.5t33.5 -93.5q0 -57 -36.5 -94t-93.5 -37q-63 0 -102 39.5t-39 105.5v33q0 103 54.5 159.5t160.5 56.5v-37q-80 0 -123.5 -37.5zM118.5 344.5q27.5 -28.5 70.5 -28.5q38 0 63.5 27t25.5 68
q0 42 -24.5 66.5t-67.5 24.5q-32 0 -58.5 -15.5t-36.5 -40.5v-25q0 -48 27.5 -76.5z" />
    <glyph glyph-name="uni2077" unicode="&#x2077;" horiz-adv-x="359" 
d="M319 645l-182 -360h-45l181 348h-242v37h288v-25z" />
    <glyph glyph-name="uni2078" unicode="&#x2078;" horiz-adv-x="359" 
d="M77 309q-38 29 -38 79q0 34 21.5 58.5t58.5 35.5q-33 12 -51 35t-18 53q0 48 35.5 77t93.5 29q59 0 94.5 -28.5t35.5 -77.5q0 -30 -18 -53t-51 -35q38 -11 59 -36t21 -58q0 -49 -38 -78.5t-102 -29.5q-65 0 -103 29zM109 335.5q27 -19.5 73 -19.5q42 0 68.5 20t26.5 53
q0 34 -27 54t-71 20q-43 0 -70 -20.5t-27 -53.5q0 -34 27 -53.5zM117 519.5q24 -18.5 63 -18.5t62.5 18.5t23.5 49.5t-24.5 50.5t-62.5 19.5q-39 0 -62.5 -19t-23.5 -51q0 -31 24 -49.5z" />
    <glyph glyph-name="uni2079" unicode="&#x2079;" horiz-adv-x="359" 
d="M224 353q40 35 42 105q-16 -23 -42.5 -35.5t-59.5 -12.5q-57 0 -92 36t-35 93q0 59 38 98t97 39q66 0 101.5 -40.5t36.5 -113.5v-34q0 -101 -51 -153t-159 -54v37q84 0 124 35zM106 472q25 -27 65 -27q34 0 59.5 16.5t35.5 43.5v23q0 54 -24.5 82t-68.5 28
q-40 0 -66 -28.5t-26 -70.5q0 -40 25 -67z" />
    <glyph glyph-name="uni2080" unicode="&#x2080;" horiz-adv-x="359" 
d="M280 37.5q-35 -42.5 -100 -42.5t-100.5 42.5t-35.5 121.5v67q0 79 35 122t100 43t100.5 -42.5t35.5 -121.5v-67q0 -80 -35 -122.5zM111 63.5q24 -32.5 69 -32.5t68.5 32t23.5 91v76q0 59 -24 91.5t-69 32.5q-44 0 -68 -32t-24 -91v-76q0 -59 24 -91.5z" />
    <glyph glyph-name="uni2081" unicode="&#x2081;" horiz-adv-x="359" 
d="M221 0h-43v333l-115 -36v38l153 51h5v-386z" />
    <glyph glyph-name="uni2082" unicode="&#x2082;" horiz-adv-x="359" 
d="M323 0h-274v32l143 142q35 35 51.5 60.5t16.5 46.5q0 34 -22 53.5t-62 19.5q-44 0 -69 -23t-25 -61h-43q0 53 38.5 87t98.5 34q58 0 92.5 -29.5t34.5 -79.5q0 -48 -54 -105l-35 -36l-111 -104h220v-37z" />
    <glyph glyph-name="uni2083" unicode="&#x2083;" horiz-adv-x="359" 
d="M131 213h38q45 0 70 19.5t25 50.5q0 33 -23 52t-64 19q-39 0 -65 -19.5t-26 -50.5h-43q0 47 38 77t96 30q61 0 96 -29t35 -79q0 -28 -19 -51.5t-54 -34.5q40 -10 60.5 -34t20.5 -59q0 -49 -38 -79t-100 -30t-102 31t-40 81h43q0 -33 28 -54.5t72 -21.5q45 0 69.5 20
t24.5 55q0 72 -108 72h-34v35z" />
    <glyph glyph-name="uni2084" unicode="&#x2084;" horiz-adv-x="359" 
d="M273 131h65v-37h-65v-94h-43v94h-199l-1 27l197 264h46v-254zM230 131v201l-17 -28l-134 -173h151z" />
    <glyph glyph-name="uni2085" unicode="&#x2085;" horiz-adv-x="359" 
d="M66 196l23 189h223v-38h-187l-16 -120q14 8 35.5 14t45.5 6q61 0 96.5 -33.5t35.5 -89.5q0 -61 -35.5 -95t-98.5 -34q-55 0 -92 30t-41 78h43q4 -33 28 -52.5t62 -19.5q45 0 68.5 23.5t23.5 69.5q0 40 -26 64t-71 24q-27 0 -46.5 -6t-37.5 -20z" />
    <glyph glyph-name="uni2086" unicode="&#x2086;" horiz-adv-x="359" 
d="M140.5 314.5q-43.5 -37.5 -48.5 -107.5q16 21 43.5 34t60.5 13q57 0 90.5 -34.5t33.5 -93.5q0 -57 -36.5 -94t-93.5 -37q-63 0 -102 39.5t-39 105.5v33q0 103 54.5 159.5t160.5 56.5v-37q-80 0 -123.5 -37.5zM118.5 59.5q27.5 -28.5 70.5 -28.5q38 0 63.5 27t25.5 68
q0 42 -24.5 66.5t-67.5 24.5q-32 0 -58.5 -15.5t-36.5 -40.5v-25q0 -48 27.5 -76.5z" />
    <glyph glyph-name="uni2087" unicode="&#x2087;" horiz-adv-x="359" 
d="M319 360l-182 -360h-45l181 348h-242v37h288v-25z" />
    <glyph glyph-name="uni2088" unicode="&#x2088;" horiz-adv-x="359" 
d="M77 24q-38 29 -38 79q0 34 21.5 58.5t58.5 35.5q-33 12 -51 35t-18 53q0 48 35.5 77t93.5 29q59 0 94.5 -28.5t35.5 -77.5q0 -30 -18 -53t-51 -35q38 -11 59 -36t21 -58q0 -49 -38 -78.5t-102 -29.5q-65 0 -103 29zM109 50.5q27 -19.5 73 -19.5q42 0 68.5 20t26.5 53
q0 34 -27 54t-71 20q-43 0 -70 -20.5t-27 -53.5q0 -34 27 -53.5zM117 234.5q24 -18.5 63 -18.5t62.5 18.5t23.5 49.5t-24.5 50.5t-62.5 19.5q-39 0 -62.5 -19t-23.5 -51q0 -31 24 -49.5z" />
    <glyph glyph-name="uni2089" unicode="&#x2089;" horiz-adv-x="359" 
d="M224 68q40 35 42 105q-16 -23 -42.5 -35.5t-59.5 -12.5q-57 0 -92 36t-35 93q0 59 38 98t97 39q66 0 101.5 -40.5t36.5 -113.5v-34q0 -101 -51 -153t-159 -54v37q84 0 124 35zM106 187q25 -27 65 -27q34 0 59.5 16.5t35.5 43.5v23q0 54 -24.5 82t-68.5 28
q-40 0 -66 -28.5t-26 -70.5q0 -40 25 -67z" />
    <glyph glyph-name="trademark" unicode="&#x2122;" horiz-adv-x="614" 
d="M496 655l-76 -206h-26l-76 211v-211h-32v262h40l81 -214l81 214h40v-262h-32v206zM53 711h192v-32h-79v-230h-34v230h-79v32z" />
    <glyph glyph-name="partialdiff" unicode="&#x2202;" horiz-adv-x="571" 
d="M152 30q-52 40 -76 98t-24 112v16q0 49 22 105.5t73.5 97t134.5 40.5q60 0 110 -26t84 -75q-8 145 -63.5 224t-147.5 79q-41 0 -74.5 -11.5t-68.5 -37.5l-11 38q36 28 75 41.5t84 13.5q121 0 187.5 -104t66.5 -296v-37q0 -95 -30.5 -167.5t-85 -111.5t-124.5 -39
q-80 0 -132 40zM117 150.5q17 -47.5 58.5 -83t108.5 -35.5q57 0 101 34.5t68 96.5t24 144l-1 24q-17 52 -67.5 89t-123.5 37q-54 0 -96 -26t-65.5 -72.5t-23.5 -106.5v-13q0 -41 17 -88.5z" />
    <glyph glyph-name="product" unicode="&#x220f;" horiz-adv-x="645" 
d="M559 -123h-49v792h-376v-792h-48v834h473v-834z" />
    <glyph glyph-name="summation" unicode="&#x2211;" horiz-adv-x="574" 
d="M376 283l-285 -372h482v-43h-543v37l293 384l-293 384v38h512v-42h-452l286 -374v-12z" />
    <glyph glyph-name="minus" unicode="&#x2212;" horiz-adv-x="570" 
d="M488 341h-407v42h407v-42z" />
    <glyph glyph-name="uni2215" unicode="&#x2215;" horiz-adv-x="600" 
d="M409 754l39 -13l-257 -800l-38 13z" />
    <glyph glyph-name="radical" unicode="&#x221a;" horiz-adv-x="529" 
d="M238 72l209 639h50l-238 -711h-40l-117 314h-70v43h104z" />
    <glyph glyph-name="infinity" unicode="&#x221e;" horiz-adv-x="1066" 
d="M172 24q-52 34 -81.5 95t-29.5 137q0 85 30 149t81.5 98.5t115.5 34.5q77 0 139.5 -55.5t102.5 -159.5q39 104 101.5 159.5t140.5 55.5q65 0 116 -34.5t80 -98.5t29 -149q0 -77 -29.5 -137.5t-81 -94.5t-115.5 -34q-78 0 -140 55.5t-101 159.5q-41 -106 -102.5 -160.5
t-138.5 -54.5q-65 0 -117 34zM130.5 143q21.5 -51 62.5 -81t96 -30q68 0 125 58.5t88 163.5v20q-30 103 -87.5 162.5t-126.5 59.5q-52 0 -93 -29.5t-63.5 -84t-22.5 -126.5q0 -62 21.5 -113zM644 91q57 -59 127 -59q53 0 93.5 29t63 81t22.5 118q0 71 -23 124.5t-63.5 82.5
t-91.5 29q-70 0 -127.5 -58t-87.5 -164v-20q30 -104 87 -163z" />
    <glyph glyph-name="integral" unicode="&#x222b;" horiz-adv-x="253" 
d="M97.5 -170q-37.5 -43 -107.5 -43q-27 0 -55 9l8 41q24 -8 44 -8q50 0 75.5 32t25.5 93v643q0 78 38.5 120.5t108.5 42.5q34 0 65 -9l-7 -39q-22 6 -53 6q-50 0 -77.5 -31.5t-27.5 -90.5v-642q0 -81 -37.5 -124z" />
    <glyph glyph-name="approxequal" unicode="&#x2248;" horiz-adv-x="563" 
d="M108.5 468q31.5 16 65.5 16q30 0 55.5 -9t62.5 -28q31 -16 53 -24.5t46 -8.5q65 0 114 69l3 -52q-51 -66 -115 -66q-26 0 -50 9t-59 27t-59.5 27t-51.5 9q-66 0 -118 -70l-2 52q24 33 55.5 49zM169 290q29 0 55 -9.5t62 -27.5q35 -17 57 -25.5t45 -8.5q64 0 113 70l3 -52
q-49 -65 -115 -65q-29 0 -55 9.5t-64 27.5q-33 17 -55 25t-45 8q-33 0 -63.5 -17.5t-55.5 -51.5l-2 51q51 66 120 66z" />
    <glyph glyph-name="notequal" unicode="&#x2260;" horiz-adv-x="555" 
d="M480 207h-259l-75 -132l-31 17l65 115h-107v43h133l89 157h-222v44h247l77 134l31 -17l-67 -117h119v-44h-145l-88 -157h233v-43z" />
    <glyph glyph-name="lessequal" unicode="&#x2264;" horiz-adv-x="514" 
d="M94 370l350 -152v-51l-406 184v39l406 183v-50zM39 43h408v-42h-408v42z" />
    <glyph glyph-name="greaterequal" unicode="&#x2265;" horiz-adv-x="514" 
d="M413 373l-354 153v49l411 -182v-40l-411 -184v50zM55 44h407v-42h-407v42z" />
    <glyph glyph-name="uniFBB2" unicode="&#xfbb2;" 
d="M67 370l55 -56l-19 -19l-36 -36l-56 56z" />
    <glyph glyph-name="uniFBB3" unicode="&#xfbb3;" 
d="M67 -61l55 -56q-28 -27 -55 -55l-56 56z" />
    <glyph glyph-name="uniFBB4" unicode="&#xfbb4;" 
d="M58 371l55 -56l-27 -27q-15 -13 -28 -28l-55 56zM191 352l19 19l56 -56l-19 -19l-36 -36l-56 56z" />
    <glyph glyph-name="uniFBB5" unicode="&#xfbb5;" 
d="M211 -165l-56 55l56 55l18 -18l37 -37zM58 -55l55 -55q-27 -28 -55 -55l-55 55q27 28 55 55z" />
    <glyph glyph-name="uniFBB6" unicode="&#xfbb6;" 
d="M57 281l55 -54l-55 -54l-53 55zM143 377l49 -49l-49 -48l-48 49zM229 281l54 -54l-54 -54l-54 55z" />
    <glyph glyph-name="uniFBB9" unicode="&#xfbb9;" 
d="M229 -159l-55 54q18 18 55 54l53 -54zM39 -69l18 18l54 -54l-18 -18l-36 -36l-54 54zM143 -157l48 -49l-48 -48l-49 48z" />
    <glyph glyph-name="uniFD3E" unicode="&#xfd3e;" horiz-adv-x="351" 
d="M142 513q-61 -107 -61 -263q0 -150 62 -261t147 -185l-29 -36q-92 77 -160 199t-68 283q0 290 228 482l29 -36q-87 -76 -148 -183z" />
    <glyph glyph-name="uniFD3F" unicode="&#xfd3f;" horiz-adv-x="351" 
d="M318 250q0 -161 -68 -283t-160 -199l-29 36q85 74 147 185t62 261q0 156 -61 263t-148 183l29 36q228 -192 228 -482z" />
    <glyph glyph-name="uniFEFF" unicode="&#xfeff;" 
 />
    <glyph glyph-name="uni0627.001" horiz-adv-x="226" 
d="M96 159q0 115 -4.5 244.5t-9.5 164.5l46 10q6 -34 11 -161t5 -249q0 -120 -5 -170l-47 6q4 47 4 155z" />
    <glyph glyph-name="uni0627.fina.001" horiz-adv-x="274" 
d="M164.5 23q-36.5 23 -48.5 69.5t-10 129.5v41q0 82 -3.5 174.5t-9.5 130.5l46 9q6 -40 10.5 -138.5t4.5 -179.5v-35q-1 -17 -1 -48q0 -48 9 -74t35 -38.5t77 -12.5h6l2 -26l-2 -25h-6q-73 0 -109.5 23z" />
    <glyph glyph-name="uni066E.001" horiz-adv-x="398" 
d="M-5 43q93 0 163.5 15.5t110 38.5t44.5 46q-1 35 -21.5 106t-33.5 102l42 23q17 -40 37.5 -114.5t20.5 -111.5q0 -44 -47 -80t-129.5 -56t-186.5 -20q-2 26 0 51z" />
    <glyph glyph-name="uni066E.fina.001" horiz-adv-x="405" 
d="M144 36q-94 45 -103 134q-1 9 -1 26q0 39 10 80t25 75l41 -21q-30 -72 -30 -132q0 -15 1 -22q8 -66 89 -100t232 -33q2 -16 2 -25q0 -8 -2 -26q-170 -1 -264 44z" />
    <glyph glyph-name="uni066E.fina.002" horiz-adv-x="527" 
d="M-3 14q0 19 1 29q174 0 271.5 52.5t130.5 161.5l46 -5q-19 -55 -19 -95q0 -50 26.5 -78t78.5 -28l3 -26l-3 -25q-66 0 -106.5 39t-36.5 106q-102 -153 -391 -153q-1 7 -1 22z" />
    <glyph glyph-name="uni066E.medi.001" horiz-adv-x="390" 
d="M-5 51h6q79 0 123.5 6t66 19t34.5 36q12 19 12 63q0 34 -11 113l45 10q7 -45 9.5 -91t0.5 -73q4 -41 32 -62t74 -21h9l2 -26l-2 -25h-10q-46 0 -81 20t-49 57q-21 -43 -79.5 -60t-175.5 -17h-6v51z" />
    <glyph glyph-name="uni066E.medi.002" horiz-adv-x="333" 
d="M253 20.5q-34 20.5 -52 60.5q-25 -41 -74.5 -61t-126.5 -20h-5v51h5q82 0 126 21.5t57 66.5l-17 78q-4 15 -7 32.5t-8 36.5l44 12q31 -145 40 -174q24 -73 98 -73h5l3 -26l-3 -25h-5q-46 0 -80 20.5z" />
    <glyph glyph-name="uni066E.medi.003" horiz-adv-x="391" 
d="M311 21q-34 21 -53 62q-28 -43 -90 -63t-167 -20h-6v51h5q115 0 171 21t70 67l-31 147l44 12q29 -142 40 -174q12 -37 35.5 -55t61.5 -18h5l3 -26l-3 -25h-5q-46 0 -80 21z" />
    <glyph glyph-name="uni066E.init.001" horiz-adv-x="330" 
d="M-6 51h35q112 0 162.5 25.5t50.5 79.5q0 37 -18 97.5t-35 98.5l42 22q20 -40 39 -104.5t19 -110.5q0 -80 -63.5 -119.5t-192.5 -39.5h-39v51z" />
    <glyph glyph-name="uni0628.medi.001" horiz-adv-x="333" 
d="M253 20.5q-34 20.5 -52 60.5q-25 -41 -74.5 -61t-126.5 -20h-5v51h5q82 0 126 21.5t57 66.5l-17 78q-4 15 -7 32.5t-8 36.5l44 12q31 -145 40 -174q24 -73 98 -73h5l3 -26l-3 -25h-5q-46 0 -80 20.5zM63 -107l55 -56l-19 -19l-36 -36l-56 56z" />
    <glyph glyph-name="uni0628.medi.alt" horiz-adv-x="338" 
d="M-5 51h6q71 0 111.5 15t59.5 47q12 20 12 65q0 40 -10 110l45 10q7 -45 9.5 -91t0.5 -73q4 -41 32.5 -62t73.5 -21h9l2 -26l-2 -25h-10q-47 0 -82.5 20.5t-48.5 58.5q-22 -41 -71.5 -60t-130.5 -19h-6v51zM110 -106l55 -56l-19 -19l-36 -36l-56 56z" />
    <glyph glyph-name="uni0628.medi.alt.001" horiz-adv-x="391" 
d="M311 21q-34 21 -53 62q-28 -43 -90 -63t-167 -20h-6v51h5q115 0 171 21t70 67l-31 147l44 12q29 -142 40 -174q12 -37 35.5 -55t61.5 -18h5l3 -26l-3 -25h-5q-46 0 -80 21zM113 -106l55 -56l-19 -19l-36 -36l-56 56z" />
    <glyph glyph-name="uni0628.init.alt" horiz-adv-x="304" 
d="M-5 51h52q87 0 128.5 26t41.5 79q0 37 -18.5 99t-35.5 97l43 22q19 -41 38 -105.5t19 -110.5q0 -79 -55.5 -118.5t-160.5 -39.5h-52v51zM120 -106l55 -56l-19 -19l-36 -36l-56 56z" />
    <glyph glyph-name="uni067E.medi.001" horiz-adv-x="391" 
d="M182 -195l-55 54l55 54l53 -55zM10 -87l54 -55l-54 -53l-54 54zM-5 51h5q115 0 171 21t70 67l-31 147l44 12q29 -142 40 -174q12 -37 35.5 -55t61.5 -18h5l3 -26l-3 -25h-5q-46 0 -80 21t-53 62q-28 -43 -90 -63t-167 -20h-6v51zM96 -194l48 -49l-48 -48l-49 49z" />
    <glyph glyph-name="uni067E.medi.alt" horiz-adv-x="390" 
d="M-5 51h6q79 0 123.5 6t66 19t34.5 36q12 19 12 63q0 34 -11 113l45 10q7 -45 9.5 -91t0.5 -73q4 -41 32 -62t74 -21h9l2 -26l-2 -25h-10q-46 0 -81 20t-49 57q-21 -43 -79.5 -60t-175.5 -17h-6v51zM59 -87l54 -55l-54 -53l-54 54zM145 -194l48 -49l-48 -48l-49 49z
M231 -87l53 -55l-53 -53l-55 54z" />
    <glyph glyph-name="uni067E.medi.alt.001" horiz-adv-x="391" 
d="M231 -195l-55 54l55 54l53 -55zM-5 51h5q115 0 171 21t70 67l-31 147l44 12q29 -142 40 -174q12 -37 35.5 -55t61.5 -18h5l3 -26l-3 -25h-5q-46 0 -80 21t-53 62q-28 -43 -90 -63t-167 -20h-6v51zM59 -87l54 -55l-54 -53l-54 54zM145 -194l48 -49l-48 -48l-49 49z" />
    <glyph glyph-name="uni067E.init.alt" horiz-adv-x="337" 
d="M-3 25l2 26h37q113 0 163.5 25.5t50.5 79.5q0 37 -18.5 98t-35.5 98l42 22q20 -40 39 -104.5t19 -110.5q0 -80 -63 -119.5t-193 -39.5h-41zM62 -86l54 -55l-54 -53l-54 54zM148 -193l48 -49l-48 -48l-49 49zM234 -86l53 -55l-53 -53l-55 54z" />
    <glyph glyph-name="uni062A.medi.001" horiz-adv-x="391" 
d="M311 21q-34 21 -53 62q-28 -43 -90 -63t-167 -20h-6v51h5q115 0 171 21t70 67l-31 147l44 12q29 -142 40 -174q12 -37 35.5 -55t61.5 -18h5l3 -26l-3 -25h-5q-46 0 -80 21zM105 500l56 -56l-56 -55l-55 56zM221 464l36 36l56 -56l-36 -36l-19 -19l-56 56z" />
    <glyph glyph-name="uni062A.medi.002" horiz-adv-x="400" 
d="M320 21q-34 21 -53 62q-28 -43 -90 -63t-168 -20h-10l-2 25l2 26h10q115 0 171 21t70 67l-17 78q-4 15 -7 32.5t-8 36.5l44 12q31 -145 40 -174q24 -73 98 -73h5l3 -26l-3 -25h-5q-46 0 -80 21zM92 481l19 19l55 -56l-18 -18l-37 -37l-55 56zM263 500l56 -56
q-28 -27 -55 -55l-56 56z" />
    <glyph glyph-name="uni062A.medi.alt" horiz-adv-x="400" 
d="M-3 25l2 26h11q79 0 123 6t66 19t35 36q11 19 11 62q0 42 -10 114l44 10q14 -78 11 -164q4 -41 32 -62t73 -21h9l3 -26l-3 -25h-9q-46 0 -81 20t-49 57q-21 -43 -79.5 -60t-175.5 -17h-11zM54 462l36 36l56 -56l-56 -55l-55 56zM224 479l19 19l55 -56l-55 -55l-55 56z
" />
    <glyph glyph-name="uni062A.init.alt" horiz-adv-x="339" 
d="M-3 25l2 26h39q112 0 162.5 25.5t50.5 79.5q0 37 -18.5 98t-35.5 98l43 22q19 -42 38 -105.5t19 -109.5q0 -80 -63 -119.5t-193 -39.5h-42zM94 560l55 -55l-37 -37l-18 -18l-37 37l-18 18q27 28 55 55zM210 524l36 36l56 -55l-55 -55l-56 55z" />
    <glyph glyph-name="uni062B.medi.001" horiz-adv-x="391" 
d="M311 21q-34 21 -53 62q-28 -43 -90 -63t-167 -20h-6v51h5q115 0 171 21t70 67l-31 147l44 12q29 -142 40 -174q12 -37 35.5 -55t61.5 -18h5l3 -26l-3 -25h-5q-46 0 -80 21zM72 500l55 -54l-55 -54l-53 55zM158 596l49 -49l-49 -48l-48 49zM244 500l54 -54l-54 -54l-54 55
z" />
    <glyph glyph-name="uni062B.medi.002" horiz-adv-x="400" 
d="M320 21q-34 21 -53 62q-28 -43 -90 -63t-168 -20h-10l-2 25l2 26h10q115 0 171 21t70 67l-17 78q-4 15 -7 32.5t-8 36.5l44 12q31 -145 40 -174q24 -73 98 -73h5l3 -26l-3 -25h-5q-46 0 -80 21zM79 500l54 -54l-54 -54l-54 55zM165 596l48 -49l-48 -48l-49 49zM250 500
l54 -54l-53 -54q-28 27 -55 55z" />
    <glyph glyph-name="uni062B.medi.alt" horiz-adv-x="400" 
d="M-3 25l2 26h11q79 0 123 6t66 19t35 36q11 19 11 62q0 42 -10 114l44 10q14 -78 11 -164q4 -41 32 -62t73 -21h9l3 -26l-3 -25h-9q-46 0 -81 20t-49 57q-21 -43 -79.5 -60t-175.5 -17h-11zM77 497l54 -54l-36 -36l-18 -18l-54 54zM163 592l48 -48l-48 -49l-49 49z
M248 497l54 -54l-53 -54l-55 54z" />
    <glyph glyph-name="uni062B.init.alt" horiz-adv-x="339" 
d="M-3 25l2 26h39q112 0 162.5 25.5t50.5 79.5q0 37 -18.5 98t-35.5 98l43 22q19 -42 38 -105.5t19 -109.5q0 -80 -63 -119.5t-193 -39.5h-42zM92 560l18 -18l37 -37q-37 -36 -55 -54l-54 55zM178 655l49 -49l-49 -48l-48 49zM245 542l18 18l55 -55l-18 -18l-36 -36
q-27 28 -55 55z" />
    <glyph glyph-name="uni0679.medi.001" horiz-adv-x="391" 
d="M311 21q-34 21 -53 62q-28 -43 -90 -63t-167 -20h-6v51h5q115 0 171 21t70 67l-31 147l44 12q29 -142 40 -174q12 -37 35.5 -55t61.5 -18h5l3 -26l-3 -25h-5q-46 0 -80 21zM35 401q10 -5 32 -10l23 34q1 25 -2.5 69.5t-8.5 78.5l33 5q9 -59 11 -116q41 36 77 36
q31 0 50.5 -20t19.5 -46q0 -21 -15 -41t-46.5 -33t-77.5 -13q-32 0 -61 7t-48 15zM132 382q53 0 79.5 15.5t26.5 33.5q0 13 -9.5 21.5t-28.5 8.5q-25 -1 -50 -22t-46 -55q16 -2 28 -2z" />
    <glyph glyph-name="uni062D.fina.001" horiz-adv-x="678" 
d="M194.5 -307q-72.5 33 -113.5 92.5t-41 135.5q0 100 62 175.5t177.5 118.5t273.5 48q-26 16 -76 52q-71 51 -118.5 75t-96.5 24q-44 0 -80.5 -26t-58.5 -69l-34 21q29 59 73.5 91t98.5 32q56 0 109 -27t130 -82q51 -37 80.5 -56t60.5 -30l-6 -49q-169 2 -293 -34
t-189.5 -104.5t-65.5 -158.5q0 -61 35 -109t97 -75t142 -27q88 0 153 16.5t104 33.5l16 -41q-38 -19 -107 -39.5t-171 -20.5q-89 0 -161.5 33z" />
    <glyph glyph-name="uni0631.003" horiz-adv-x="349" 
d="M263.5 38.5q-28.5 38.5 -48.5 113.5l33 19q16 -66 38.5 -93t62.5 -27h6l2 -26l-2 -25h-6q-57 0 -85.5 38.5z" />
    <glyph glyph-name="uni0633.001" horiz-adv-x="606" 
d="M164.5 -244.5q-63.5 39.5 -93 100.5t-29.5 125q0 61 19 125.5t45 112.5l41 -19q-25 -52 -41 -107t-17 -106q0 -102 62.5 -161t172.5 -59q89 0 147.5 33t85.5 83.5t27 102.5q0 48 -10.5 98t-31.5 130l-9 32l44 17q28 -98 40.5 -159t12.5 -118q0 -63 -34.5 -125.5
t-103.5 -103.5t-168 -41q-96 0 -159.5 39.5z" />
    <glyph glyph-name="uni0633.fina.001" horiz-adv-x="102" 
d="M15.5 42.5q-31.5 42.5 -40.5 105.5l24 14q14 -55 37 -83t68 -28l-1 -51q-56 0 -87.5 42.5z" />
    <glyph glyph-name="uni0633.medi.002" horiz-adv-x="242" 
d="M171.5 17q-31.5 17 -50.5 49q-19 -31 -51 -48.5t-69 -17.5h-2v51h2q32 0 60.5 16.5t40.5 40.5q-12 42 -35 167l43 11q25 -132 36 -164q23 -71 97 -71h6l2 -26l-2 -25h-6q-40 0 -71.5 17z" />
    <glyph glyph-name="uni0633.init.001" horiz-adv-x="175" 
d="M-1 51h2q43 0 67 26.5t24 74.5q0 41 -18 102t-36 97l42 23q20 -42 39 -107t19 -115q0 -66 -38.5 -109t-98.5 -43h-2v51z" />
    <glyph glyph-name="uni0633.init.002" horiz-adv-x="272" 
d="M0 51h2q63 0 108 80q24 40 42 139l43 -4q-1 -5 -8 -38t-7 -67q0 -110 93 -110h2l3 -26l-3 -25h-2q-56 0 -88 31t-38 87q-20 -50 -60 -84t-85 -34h-2v51z" />
    <glyph glyph-name="uni0633.init.003" horiz-adv-x="282" 
d="M-4 0l-2 25l2 26h5q41 0 75.5 19.5t55.5 52.5q36 55 57 134l43 -5q-12 -47 -16 -69t-5 -47q0 -41 18 -63t54 -22h2l2 -26l-2 -25h-2q-48 0 -77.5 31t-31.5 83q-31 -56 -75 -85t-98 -29h-5z" />
    <glyph glyph-name="uni0635.medi.001" horiz-adv-x="189" 
d="M68.5 48q61.5 3 126.5 3l2 -26l-2 -25q-109 0 -161 3.5t-77 16.5l25 20q25 5 86.5 8z" />
    <glyph glyph-name="uni06A1.medi.001" horiz-adv-x="469" 
d="M-2 -8l-3 26l3 25h9q95 0 162 14q-42 26 -64.5 60.5t-22.5 75.5q0 13 1 20q6 48 30 87.5t58.5 63t71.5 23.5q39 0 72 -25.5t52 -66.5t19 -84q0 -94 -83 -152q50 -8 102 -8h69l3 -26l-3 -25h-60q-101 0 -177 26q-89 -34 -230 -34h-9zM151 131.5q28 -33.5 84 -54.5
q91 38 106 118q1 5 1 15q0 49 -29 87t-71 38q-41 0 -74 -37.5t-41 -91.5q-4 -41 24 -74.5z" />
    <glyph glyph-name="uni06A1.init.001" horiz-adv-x="424" 
d="M-2 -8l-3 26l3 25h6q131 0 215.5 26.5t110.5 75.5q-12 -1 -39 -1q-163 0 -204 73q-17 30 -17 72q0 44 19.5 88t53 72t71.5 28q52 0 90 -39t58 -99.5t20 -122.5q0 -25 -3 -48q-13 -83 -109.5 -129t-265.5 -47h-6zM187.5 205.5q47.5 -12.5 107.5 -12.5q19 0 47 2
q3 53 -11.5 107t-45 89.5t-73.5 35.5q-26 0 -49 -20t-37.5 -51.5t-14.5 -61.5q0 -26 12 -46q17 -30 64.5 -42.5z" />
    <glyph glyph-name="uni0643.init.alt" horiz-adv-x="438" 
d="M-5 -8l-3 25l3 26h19q107 0 171.5 22.5t85.5 65.5q10 19 10 45q0 66 -61.5 156t-165.5 173l7 47l361 158l16 -44l-329 -144q95 -80 156 -176t61 -172q0 -35 -13 -61q-28 -59 -103.5 -90t-195.5 -31h-19z" />
    <glyph glyph-name="uni0643.init.alt3" horiz-adv-x="437" 
d="M-5 -8l-3 25l3 26h18q204 0 249 89q10 19 10 41q0 51 -54.5 116.5t-164.5 151.5l7 47l362 158l16 -44l-329 -144q100 -83 153.5 -153.5t53.5 -132.5q0 -29 -14 -59q-58 -121 -289 -121h-18zM64 601l312 136l14 -30l-330 -144z" />
    <glyph glyph-name="uni0644.001" horiz-adv-x="626" 
d="M168 -213.5q-60 30.5 -94 86t-34 126.5q0 49 17.5 111t45.5 116l40 -20q-25 -51 -40.5 -104t-16.5 -96q0 -59 27 -104t76 -70.5t114 -25.5q123 0 182 68t53 200l-13 285q-10 250 -16 298l46 10q7 -47 16 -289q6 -157 13 -302q7 -154 -66 -237t-215 -83q-75 0 -135 30.5z
" />
    <glyph glyph-name="uni0646.medi.001" horiz-adv-x="333" 
d="M253 20.5q-34 20.5 -52 60.5q-25 -41 -74.5 -61t-126.5 -20h-5v51h5q82 0 126 21.5t57 66.5l-17 78q-4 15 -7 32.5t-8 36.5l44 12q31 -145 40 -174q24 -73 98 -73h5l3 -26l-3 -25h-5q-46 0 -80 20.5zM125 498l28 -27l27 -28l-19 -19l-36 -36l-56 55z" />
    <glyph glyph-name="uni0649.fina.001" horiz-adv-x="643" 
d="M183.5 -240q-66.5 32 -104.5 91.5t-38 138.5q0 58 18 122t44 119l40 -18q-57 -122 -57 -217q0 -102 67 -160t181 -58q65 0 122 17t92.5 43t39.5 51q-1 24 -65 66t-149 79l11 49q147 -32 245 -32h29l3 -26l-3 -25h-29q-51 0 -116 9q57 -31 89.5 -61t30.5 -60
q-3 -43 -44 -79.5t-108.5 -58.5t-146.5 -22q-85 0 -151.5 32z" />
    <glyph glyph-name="uni064A.fina.001" horiz-adv-x="643" 
d="M183.5 -240q-66.5 32 -104.5 91.5t-38 138.5q0 58 18 122t44 119l40 -18q-57 -122 -57 -217q0 -102 67 -160t181 -58q65 0 122 17t92.5 43t39.5 51q-1 24 -65 66t-149 79l11 49q147 -32 245 -32h29l3 -26l-3 -25h-29q-51 0 -116 9q57 -31 89.5 -61t30.5 -60
q-3 -43 -44 -79.5t-108.5 -58.5t-146.5 -22q-85 0 -151.5 32z" />
    <glyph glyph-name="uni064A.medi.001" horiz-adv-x="391" 
d="M311 21q-34 21 -53 62q-28 -43 -90 -63t-167 -20h-6v51h5q115 0 171 21t70 67l-31 147l44 12q29 -142 40 -174q12 -37 35.5 -55t61.5 -18h5l3 -26l-3 -25h-5q-46 0 -80 21zM-23 -142l36 36l56 -56l-36 -36l-19 -19l-56 56zM139 -133l27 27l55 -56l-55 -55l-55 56
q13 15 28 28z" />
    <glyph glyph-name="uni064A.medi.alt" horiz-adv-x="390" 
d="M-5 51h6q79 0 123.5 6t66 19t34.5 36q12 19 12 63q0 34 -11 113l45 10q7 -45 9.5 -91t0.5 -73q4 -41 32 -62t74 -21h9l2 -26l-2 -25h-10q-46 0 -81 20t-49 57q-21 -43 -79.5 -60t-175.5 -17h-6v51zM24 -143l36 36l56 -56l-36 -36l-19 -19l-56 56zM186 -134l27 27l55 -56
l-55 -55l-55 56q13 15 28 28z" />
    <glyph glyph-name="uni064A.medi.alt.001" horiz-adv-x="391" 
d="M311 21q-34 21 -53 62q-28 -43 -90 -63t-167 -20h-6v51h5q115 0 171 21t70 67l-31 147l44 12q29 -142 40 -174q12 -37 35.5 -55t61.5 -18h5l3 -26l-3 -25h-5q-46 0 -80 21zM24 -143l36 36l56 -56l-36 -36l-19 -19l-56 56zM186 -134l27 27l55 -56l-55 -55l-55 56
q13 15 28 28z" />
    <glyph glyph-name="uni064A.init.alt" horiz-adv-x="338" 
d="M-3 25l2 26h38q112 0 162.5 25.5t50.5 79.5q0 37 -18 97.5t-35 98.5l42 22q20 -40 39 -104.5t19 -110.5q0 -80 -63.5 -119.5t-192.5 -39.5h-42zM25 -141l36 36l56 -56l-36 -36l-19 -19l-56 56zM187 -132l27 27l55 -56l-55 -55l-55 56q13 15 28 28z" />
    <glyph glyph-name="uni0626.fina.001" horiz-adv-x="643" 
d="M183.5 -240q-66.5 32 -104.5 91.5t-38 138.5q0 58 18 122t44 119l40 -18q-57 -122 -57 -217q0 -102 67 -160t181 -58q65 0 122 17t92.5 43t39.5 51q-1 24 -65 66t-149 79l11 49q147 -32 245 -32h29l3 -26l-3 -25h-29q-51 0 -116 9q57 -31 89.5 -61t30.5 -60
q-3 -43 -44 -79.5t-108.5 -58.5t-146.5 -22q-85 0 -151.5 32zM137 303l71 23q-32 21 -40 53q-2 6 -2 19q0 29 18 53t47 31q12 3 25 3q30 0 66 -13l-10 -36q-3 1 -20.5 6.5t-36.5 5.5q-25 0 -41 -15.5t-16 -35.5q0 -17 17 -33.5t44 -20.5l85 28v-37l-207 -69v38z" />
    <glyph glyph-name="uni0626.medi.001" horiz-adv-x="333" 
d="M253 20.5q-34 20.5 -52 60.5q-25 -41 -74.5 -61t-126.5 -20h-5v51h5q82 0 126 21.5t57 66.5l-17 78q-4 15 -7 32.5t-8 36.5l44 12q31 -145 40 -174q24 -73 98 -73h5l3 -26l-3 -25h-5q-46 0 -80 20.5zM23 403l71 24q-32 21 -40 53q-2 6 -2 19q0 29 18 52.5t47 30.5
q12 3 25 3q30 0 66 -13l-10 -36q-31 12 -56 12t-41.5 -15t-16.5 -35q0 -7 1 -10q4 -15 21 -27.5t40 -16.5l84 28v-38l-207 -68v37z" />
    <glyph glyph-name="uni06CE.fina.001" horiz-adv-x="643" 
d="M183.5 -240q-66.5 32 -104.5 91.5t-38 138.5q0 58 18 122t44 119l40 -18q-57 -122 -57 -217q0 -102 67 -160t181 -58q65 0 122 17t92.5 43t39.5 51q-1 24 -65 66t-149 79l11 49q147 -32 245 -32h29l3 -26l-3 -25h-29q-51 0 -116 9q57 -31 89.5 -61t30.5 -60
q-3 -43 -44 -79.5t-108.5 -58.5t-146.5 -22q-85 0 -151.5 32zM224 372q38 -55 61 -109q21 64 58 118l26 -22q-48 -69 -67 -137l-31 -14q-10 34 -30.5 72.5t-41.5 68.5z" />
    <glyph glyph-name="uni06CE.medi.001" horiz-adv-x="391" 
d="M167 375l-31 -13q-9 33 -29.5 72t-42.5 69l25 22q16 -21 33 -50.5t28 -58.5q23 67 58 118l27 -21q-47 -67 -68 -138zM-23 -142l36 36l56 -56l-36 -36l-19 -19l-56 56zM-5 51h5q115 0 171 21t70 67l-31 147l44 12q29 -142 40 -174q12 -37 35.5 -55t61.5 -18h5l3 -26
l-3 -25h-5q-46 0 -80 21t-53 62q-28 -43 -90 -63t-167 -20h-6v51zM139 -133l27 27l55 -56l-55 -55l-55 56q13 15 28 28z" />
    <glyph glyph-name="uni06CE.medi.alt" horiz-adv-x="390" 
d="M186 368l-31 -14q-9 34 -29.5 73t-42.5 68l25 23q39 -53 61 -109q24 68 58 118l27 -22q-46 -64 -68 -137zM-5 51h6q79 0 123.5 6t66 19t34.5 36q12 19 12 63q0 34 -11 113l45 10q7 -45 9.5 -91t0.5 -73q4 -41 32 -62t74 -21h9l2 -26l-2 -25h-10q-46 0 -81 20t-49 57
q-21 -43 -79.5 -60t-175.5 -17h-6v51zM24 -143l36 36l56 -56l-36 -36l-19 -19l-56 56zM186 -134l27 27l55 -56l-55 -55l-55 56q13 15 28 28z" />
    <glyph glyph-name="uni06CE.medi.alt.001" horiz-adv-x="391" 
d="M173 363l-31 -14q-10 33 -30.5 72.5t-41.5 68.5l25 23q37 -53 61 -109q21 64 58 118l26 -22q-48 -69 -67 -137zM-5 51h5q115 0 171 21t70 67l-31 147l44 12q29 -142 40 -174q12 -37 35.5 -55t61.5 -18h5l3 -26l-3 -25h-5q-46 0 -80 21t-53 62q-28 -43 -90 -63t-167 -20
h-6v51zM24 -143l36 36l56 -56l-36 -36l-19 -19l-56 56zM186 -134l27 27l55 -56l-55 -55l-55 56q13 15 28 28z" />
    <glyph glyph-name="uni06CE.init.alt" horiz-adv-x="338" 
d="M187 457l-31 -14q-9 34 -29.5 73t-42.5 68l25 23q39 -53 61 -109q24 68 58 118l27 -22q-46 -64 -68 -137zM-1 51h38q112 0 162.5 25.5t50.5 79.5q0 37 -18 97.5t-35 98.5l42 22q20 -40 39 -104.5t19 -110.5q0 -80 -63.5 -119.5t-192.5 -39.5h-42l-2 25zM25 -141l36 36
l56 -56l-36 -36l-19 -19l-56 56zM187 -132l27 27l55 -56l-55 -55l-55 56q13 15 28 28z" />
    <glyph glyph-name="uni06CC.fina.001" horiz-adv-x="643" 
d="M183.5 -240q-66.5 32 -104.5 91.5t-38 138.5q0 58 18 122t44 119l40 -18q-57 -122 -57 -217q0 -102 67 -160t181 -58q65 0 122 17t92.5 43t39.5 51q-1 24 -65 66t-149 79l11 49q147 -32 245 -32h29l3 -26l-3 -25h-29q-51 0 -116 9q57 -31 89.5 -61t30.5 -60
q-3 -43 -44 -79.5t-108.5 -58.5t-146.5 -22q-85 0 -151.5 32z" />
    <glyph glyph-name="uni06CC.medi.001" horiz-adv-x="391" 
d="M311 21q-34 21 -53 62q-28 -43 -90 -63t-167 -20h-6v51h5q115 0 171 21t70 67l-31 147l44 12q29 -142 40 -174q12 -37 35.5 -55t61.5 -18h5l3 -26l-3 -25h-5q-46 0 -80 21zM-23 -142l36 36l56 -56l-36 -36l-19 -19l-56 56zM139 -133l27 27l55 -56l-55 -55l-55 56
q13 15 28 28z" />
    <glyph glyph-name="uni06CC.medi.alt" horiz-adv-x="390" 
d="M-5 51h6q79 0 123.5 6t66 19t34.5 36q12 19 12 63q0 34 -11 113l45 10q7 -45 9.5 -91t0.5 -73q4 -41 32 -62t74 -21h9l2 -26l-2 -25h-10q-46 0 -81 20t-49 57q-21 -43 -79.5 -60t-175.5 -17h-6v51zM24 -143l36 36l56 -56l-36 -36l-19 -19l-56 56zM186 -134l27 27l55 -56
l-55 -55l-55 56q13 15 28 28z" />
    <glyph glyph-name="uni06CC.medi.alt.001" horiz-adv-x="391" 
d="M311 21q-34 21 -53 62q-28 -43 -90 -63t-167 -20h-6v51h5q115 0 171 21t70 67l-31 147l44 12q29 -142 40 -174q12 -37 35.5 -55t61.5 -18h5l3 -26l-3 -25h-5q-46 0 -80 21zM24 -143l36 36l56 -56l-36 -36l-19 -19l-56 56zM186 -134l27 27l55 -56l-55 -55l-55 56
q13 15 28 28z" />
    <glyph glyph-name="uni06CC.init.alt" horiz-adv-x="338" 
d="M-3 25l2 26h38q112 0 162.5 25.5t50.5 79.5q0 37 -18 97.5t-35 98.5l42 22q20 -40 39 -104.5t19 -110.5q0 -80 -63.5 -119.5t-192.5 -39.5h-42zM25 -141l36 36l56 -56l-36 -36l-19 -19l-56 56zM187 -132l27 27l55 -56l-55 -55l-55 56q13 15 28 28z" />
    <glyph glyph-name="uni06D2.fina.alt" horiz-adv-x="405" 
d="M47 -119q0 49 36 88t97.5 60.5t137.5 21.5h92l2 -26l-2 -25h-92q-62 0 -111.5 -14.5t-79.5 -37.5t-37 -48q15 -15 68.5 -26.5t110.5 -11.5h119l-18 -50q-31 -1 -109 -1q-82 0 -131.5 13.5t-81.5 39.5q-1 6 -1 17z" />
    <glyph glyph-name="uni06D3.fina.alt" horiz-adv-x="405" 
d="M47 -119q0 49 36 88t97.5 60.5t137.5 21.5h92l2 -26l-2 -25h-92q-62 0 -111.5 -14.5t-79.5 -37.5t-37 -48q15 -15 68.5 -26.5t110.5 -11.5h119l-18 -50q-31 -1 -109 -1q-82 0 -131.5 13.5t-81.5 39.5q-1 6 -1 17zM106 133l71 23q-20 13 -31 31.5t-11 39.5q0 29 18.5 53.5
t47.5 31.5q12 3 25 3q29 0 65 -13l-10 -36q-3 1 -20.5 6.5t-35.5 5.5q-25 0 -41.5 -16t-16.5 -36q0 -17 17 -33t44 -20l86 28v-37l-208 -69v38z" />
    <glyph glyph-name="uni06D3.fina.alt2" horiz-adv-x="340" 
d="M45 -120q0 50 35 89t97.5 60.5t140.5 21.5h27l3 -26l-3 -25h-27q-62 0 -113.5 -14.5t-82.5 -38t-35 -47.5q17 -16 69 -27t125 -11q131 0 238 3l-18 -50q-88 -4 -220 -4q-104 0 -158.5 14t-76.5 39q-1 6 -1 16zM109 121l71 24q-20 12 -31.5 30.5t-11.5 40.5
q0 29 18.5 53.5t47.5 31.5q12 3 24 3q30 0 66 -13l-9 -37q-31 12 -55 12q-26 0 -42.5 -15t-16.5 -35q0 -7 1 -10q3 -15 20.5 -28t40.5 -16l84 28v-37l-207 -69v37z" />
    <glyph glyph-name="uni0640.001" horiz-adv-x="9" 
d="M-1 0l-2 25l2 26h10v-51h-10z" />
    <glyph glyph-name="uni06B50627" horiz-adv-x="519" 
d="M467 454.5q6 -86.5 6 -194.5q0 -137 -112 -201t-270 -75l-11 49q55 5 96 13q7 25 7 64q0 85 -32.5 207t-81.5 242l41 26q55 -127 87 -254t32 -216q0 -30 -5 -58q201 53 201 199q0 109 -6 191.5t-19 208.5l47 10q14 -125 20 -211.5zM363 854q37 -53 61 -109
q11 33 26.5 64.5t31.5 53.5l26 -22q-46 -64 -67 -137l-32 -14q-9 34 -29.5 73t-42.5 68z" />
    <glyph glyph-name="uni06B50627.fina" horiz-adv-x="595" 
d="M493 39.5q-35 39.5 -48 106.5q-43 -78 -140 -116t-214 -46l-11 49q55 5 96 13q7 25 7 64q0 85 -32.5 207t-81.5 242l41 26q55 -127 87 -254t32 -216q0 -30 -5 -58q201 53 201 199q0 109 -6 191.5t-19 208.5l47 10q13 -119 19 -207t7 -198v-1q1 -102 25.5 -155.5
t90.5 -53.5h9v-51h-9q-61 0 -96 39.5zM363 854q37 -53 61 -109q11 33 26.5 64.5t31.5 53.5l26 -22q-46 -64 -67 -137l-32 -14q-9 34 -29.5 73t-42.5 68z" />
    <glyph glyph-name="uni0664.ss03" horiz-adv-x="571" 
d="M128.5 188q-4.5 102 -13.5 173q-17 141 -75 274l46 25q21 -44 40 -107q32 -92 95 -142q-20 36 -20 75q0 47 23.5 87.5t65 64.5t92.5 24q72 0 152 -62l-23 -39q-27 21 -61 34.5t-68 13.5q-42 0 -74.5 -18.5t-48.5 -49.5t-13 -66q4 -44 41.5 -77t98.5 -33q71 0 156 49
l17 -45q-39 -26 -89 -41.5t-101 -15.5q-59 0 -113.5 23t-97.5 73l5 -41q9 -70 13 -172t4 -195h-48q1 86 -3.5 188z" />
    <glyph glyph-name="uni0665.ss03" horiz-adv-x="571" 
d="M98.5 394.5q51.5 102.5 125.5 200.5l-29 25l29 44q137 -121 219.5 -237t82.5 -249q0 -89 -38 -135t-96 -46q-31 0 -58 18.5t-44 57.5q-18 -39 -46 -57t-62 -18q-65 0 -103.5 52t-38.5 134q0 19 1 28q6 80 57.5 182.5zM86 184q0 -62 26 -98t71 -36q37 0 61.5 35t23.5 108
l43 8q1 -79 23.5 -115.5t56.5 -36.5q90 0 90 133q0 100 -59.5 193t-162.5 188q-71 -92 -118.5 -186t-53.5 -165q-1 -10 -1 -28z" />
    <glyph glyph-name="uni0666.ss03" horiz-adv-x="571" 
d="M171 191.5q58 84.5 131 149.5q-49 0 -87 19t-59.5 53t-21.5 76q0 43 23 84.5t65.5 68t97.5 26.5q61 0 122 -43l-20 -39q-48 31 -99 31q-42 0 -74 -18.5t-50 -47.5t-18 -60q0 -43 32.5 -71t85.5 -28q54 0 117 32q42 24 78 38l9 -52q-76 -30 -150 -90t-135 -144.5
t-96 -184.5l-42 18q33 98 91 182.5z" />
    <glyph glyph-name="uni06F0.ss03" horiz-adv-x="571" 
d="M219 77q-33 19 -52 52t-19 72t19 72t52 52t71 19q39 0 72 -19t52 -52t19 -72t-19 -72t-52 -52t-72 -19q-38 0 -71 19zM221.5 132.5q27.5 -27.5 68.5 -27.5q42 0 69.5 27.5t27.5 68.5t-27.5 68.5t-69.5 27.5q-41 0 -68.5 -27.5t-27.5 -68.5t27.5 -68.5z" />
    <glyph glyph-name="uni06F1.ss03" horiz-adv-x="571" 
d="M265.5 185q-4.5 103 -13.5 176q-17 141 -75 274l46 25q58 -130 77 -293q8 -72 12.5 -175t4.5 -192h-48q1 82 -3.5 185z" />
    <glyph glyph-name="uni06F2.ss03" horiz-adv-x="571" 
d="M192.5 189.5q-4.5 101.5 -12.5 171.5q-19 145 -75 274l45 25q15 -33 26 -65q2 -4 7 -19q18 -48 32.5 -73.5t41 -41.5t69.5 -16q121 0 121 153q0 28 -5 63l42 7q6 -36 6 -73q0 -88 -39.5 -145t-122.5 -58q-69 0 -109 38l9 -63q8 -73 12.5 -177t3.5 -190h-47
q0 88 -4.5 189.5z" />
    <glyph glyph-name="uni06F3.ss03" horiz-adv-x="571" 
d="M388.5 498.5q18.5 -43.5 58.5 -43.5q30 0 45 28.5t15 77.5q0 40 -11 95l43 10q12 -54 12 -104q0 -71 -26 -115t-77 -44q-69 0 -100 83q-17 -45 -48 -69.5t-71 -24.5q-51 0 -88 39l9 -64q8 -72 12.5 -175t4.5 -192h-48q1 82 -3.5 185t-13.5 176q-17 141 -75 274l46 25
q16 -36 29 -76q27 -70 54 -104.5t71 -34.5q49 0 74.5 42t23.5 124l-1 21l42 7q4 -97 22.5 -140.5z" />
    <glyph glyph-name="uni06F4.ss03" horiz-adv-x="571" 
d="M127.5 185q-4.5 103 -13.5 176q-17 141 -75 274l46 25q18 -41 36 -97q34 -100 98 -151q-19 33 -19 72q0 47 23.5 88t64.5 65.5t92 24.5q73 0 153 -62l-23 -39q-29 23 -66.5 37t-73.5 11q-56 -5 -91 -40t-35 -83q0 -30 16.5 -58t48.5 -45.5t76 -17.5q66 0 143 42l12 7v0h1
l17 -45q-39 -26 -89 -41.5t-101 -15.5q-59 0 -113.5 23t-97.5 73l5 -41q8 -73 12.5 -177t3.5 -190h-47q1 82 -3.5 185z" />
    <glyph glyph-name="uni06F5.ss03" horiz-adv-x="571" 
d="M98 395q51 103 125 200l-29 25l29 44q88 -78 152.5 -150t107 -157t42.5 -177q0 -90 -38 -136.5t-96 -46.5q-31 0 -58 18.5t-44 57.5q-18 -39 -46 -57t-62 -18q-65 0 -103.5 52t-38.5 134q0 19 1 28q7 80 58 183zM85 184q0 -62 26 -98t71 -36q37 0 61.5 35t23.5 108l43 8
q2 -79 24 -115.5t57 -36.5q89 0 89 133q0 100 -59.5 193t-162.5 188q-71 -92 -118.5 -186t-53.5 -165q-1 -10 -1 -28z" />
    <glyph glyph-name="uni06F6.ss03" horiz-adv-x="571" 
d="M168 191.5q58 84.5 131 149.5q-49 0 -87 19t-59 53t-21 76q0 43 23 84.5t65 68t97 26.5q61 0 122 -43l-20 -39q-48 31 -98 31q-43 0 -75.5 -18.5t-50 -47.5t-17.5 -60q0 -43 32.5 -71t85.5 -28q54 0 117 32q42 24 78 38l9 -52q-76 -30 -150 -90t-135 -144.5t-96 -184.5
l-42 18q33 98 91 182.5z" />
    <glyph glyph-name="uni06F7.ss03" horiz-adv-x="571" 
d="M445 460q-51 -114 -91.5 -240.5t-47.5 -219.5h-46q-6 93 -46 219t-92 240.5t-88 169.5l41 31q51 -78 113.5 -229.5t95.5 -303.5q33 152 95 303.5t112 229.5l41 -31q-36 -55 -87 -169z" />
    <glyph glyph-name="uni06F8.ss03" horiz-adv-x="571" 
d="M121.5 185.5q51.5 114.5 92 241t47.5 219.5h45q6 -93 46.5 -219t92.5 -240.5t88 -169.5l-42 -31q-50 78 -112 229t-96 303q-33 -152 -95 -303.5t-112 -228.5l-42 31q36 54 87.5 168.5z" />
    <glyph glyph-name="uni06F9.ss03" horiz-adv-x="571" 
d="M379 140q-16 100 -24 209q-52 -27 -109 -27q-68 0 -111 37.5t-43 103.5q0 46 19 93t53 77t75 30q86 0 118 -85.5t40 -190.5q9 -108 26 -213.5t39 -159.5l-45 -25q-22 51 -38 151zM165 398q29 -24 82 -24q56 0 103 32q-6 80 -31.5 143t-80.5 63q-28 0 -51 -21.5t-37 -55.5
t-14 -69q0 -44 29 -68z" />
    <glyph glyph-name="uni06F4.urdu" horiz-adv-x="634" 
d="M269 411q-20 36 -20 75q0 47 23.5 87.5t65 64.5t92.5 24q73 0 153 -62l-23 -39q-29 23 -66.5 37t-73.5 11q-56 -5 -91 -40t-35 -83q0 -30 16.5 -57.5t48.5 -45.5t76 -18q70 0 155 49l18 -45q-39 -26 -89 -41.5t-101 -15.5q-60 0 -114.5 23t-97.5 73l6 -41
q8 -73 12.5 -177t3.5 -190h-47q0 89 -4.5 190t-13.5 171q-18 144 -74 274l45 25q14 -29 35 -90q32 -104 100 -159z" />
    <glyph glyph-name="uni06F7.urdu" horiz-adv-x="567" 
d="M445.5 460.5q-51.5 -114.5 -92 -241t-47.5 -219.5h-45q-6 93 -46.5 219t-92.5 240.5t-88 169.5l42 31q50 -78 112 -229t96 -303q33 152 95 303.5t112 228.5l42 -31q-36 -54 -87.5 -168.5z" />
    <glyph glyph-name="zero.ss02" horiz-adv-x="431" 
d="M139 77.5q-33 19.5 -52.5 52t-19.5 71.5t19.5 71.5t52.5 52t71 19.5t71 -19t52 -52t19 -72t-19 -72t-52 -52t-71 -19t-71 19.5zM141.5 132.5q27.5 -27.5 68.5 -27.5t68.5 27.5t27.5 68.5t-27.5 68.5t-68.5 27.5t-68.5 -27.5t-27.5 -68.5t27.5 -68.5z" />
    <glyph glyph-name="one.ss02" horiz-adv-x="368" 
d="M176.5 190q-4.5 101 -13.5 171q-18 144 -74 274l45 25q57 -123 78 -293q8 -73 12.5 -177t3.5 -190h-47q0 89 -4.5 190z" />
    <glyph glyph-name="two.ss02" horiz-adv-x="496" 
d="M167.5 190q-4.5 101 -13.5 171q-18 147 -75 274l46 25q15 -33 26 -65q2 -4 7 -19q18 -48 32.5 -73.5t41 -41.5t69.5 -16q65 0 92.5 41.5t27.5 109.5q0 30 -5 65l43 7q6 -36 6 -72q0 -88 -40 -145.5t-122 -58.5q-69 0 -109 37l9 -62q8 -73 12.5 -177t3.5 -190h-47
q0 89 -4.5 190z" />
    <glyph glyph-name="three.ss02" horiz-adv-x="633" 
d="M441.5 498q18.5 -43 58.5 -43q30 0 45 28.5t15 77.5q0 40 -11 95l42 10q13 -58 13 -105q0 -71 -26.5 -114.5t-77.5 -43.5q-69 0 -100 84q-16 -45 -47 -70t-72 -25q-51 0 -88 39q4 -24 10 -64q8 -73 12.5 -177t3.5 -190h-47q0 89 -4.5 190t-13.5 171q-18 147 -75 274
l46 25q16 -36 23 -56q29 -81 56.5 -120t74.5 -39q50 0 76 42.5t22 126.5h1l-1 18l41 7q5 -98 23.5 -141z" />
    <glyph glyph-name="four.ss02" horiz-adv-x="634" 
d="M269 411q-20 36 -20 75q0 47 23.5 87.5t65 64.5t92.5 24q73 0 153 -62l-23 -39q-29 23 -66.5 37t-73.5 11q-56 -5 -91 -40t-35 -83q0 -30 16.5 -57.5t48.5 -45.5t76 -18q70 0 155 49l18 -45q-39 -26 -89 -41.5t-101 -15.5q-60 0 -114.5 23t-97.5 73l6 -41
q8 -73 12.5 -177t3.5 -190h-47q0 89 -4.5 190t-13.5 171q-18 144 -74 274l45 25q14 -29 35 -90q32 -104 100 -159z" />
    <glyph glyph-name="five.ss02" horiz-adv-x="596" 
d="M113.5 394.5q51.5 102.5 125.5 200.5l-29 25l29 44q137 -121 219.5 -237t82.5 -249q0 -89 -38 -135t-96 -46q-31 0 -58 18.5t-44 57.5q-18 -39 -46 -57t-62 -18q-65 0 -103.5 52t-38.5 134q0 19 1 28q6 80 57.5 182.5zM101 184q0 -62 26 -98t71 -36q37 0 61.5 35
t23.5 108l43 8q1 -79 23.5 -115.5t56.5 -36.5q90 0 90 133q0 100 -59.5 193t-162.5 188q-71 -92 -118.5 -186t-53.5 -165q-1 -10 -1 -28z" />
    <glyph glyph-name="six.ss02" horiz-adv-x="502" 
d="M131 191.5q58 84.5 131 149.5q-49 0 -87 19t-59.5 53t-21.5 76q0 43 23 84.5t65.5 68t97.5 26.5q61 0 122 -43l-20 -39q-48 31 -99 31q-42 0 -74 -18.5t-50 -47.5t-18 -60q0 -43 32.5 -71t85.5 -28q54 0 117 32q42 24 78 38l9 -52q-76 -30 -150 -90t-135 -144.5
t-96 -184.5l-42 18q33 98 91 182.5z" />
    <glyph glyph-name="seven.ss02" horiz-adv-x="567" 
d="M445.5 460.5q-51.5 -114.5 -92 -241t-47.5 -219.5h-45q-6 93 -46.5 219t-92.5 240.5t-88 169.5l42 31q50 -78 112 -229t96 -303q33 152 95 303.5t112 228.5l42 -31q-36 -54 -87.5 -168.5z" />
    <glyph glyph-name="eight.ss02" horiz-adv-x="567" 
d="M121 185.5q51 114.5 91.5 241t47.5 219.5h46q6 -93 46 -219t92 -240.5t88 -169.5l-41 -31q-51 81 -113 231.5t-95 301.5q-33 -152 -95 -303.5t-112 -229.5l-42 31q36 54 87 168.5z" />
    <glyph glyph-name="nine.ss02" horiz-adv-x="468" 
d="M337.5 140q-15.5 100 -24.5 210q-51 -28 -109 -28q-68 0 -111 37.5t-43 103.5q0 46 19 93t53 77t75 30q86 0 118 -85.5t40 -190.5q9 -108 26 -213.5t39 -159.5l-45 -25q-22 51 -37.5 151zM123 398q29 -24 82 -24q57 0 104 32q-7 81 -32.5 143.5t-80.5 62.5
q-28 0 -51 -21.5t-37 -55.5t-14 -69q0 -44 29 -68z" />
    <glyph glyph-name="zero.ss03" horiz-adv-x="571" 
d="M219 77q-33 19 -52 52t-19 72t19 72t52 52t71 19q39 0 72 -19t52 -52t19 -72t-19 -72t-52 -52t-72 -19q-38 0 -71 19zM221.5 132.5q27.5 -27.5 68.5 -27.5q42 0 69.5 27.5t27.5 68.5t-27.5 68.5t-69.5 27.5q-41 0 -68.5 -27.5t-27.5 -68.5t27.5 -68.5z" />
    <glyph glyph-name="one.ss03" horiz-adv-x="571" 
d="M265.5 185q-4.5 103 -13.5 176q-17 141 -75 274l46 25q58 -130 77 -293q8 -72 12.5 -175t4.5 -192h-48q1 82 -3.5 185z" />
    </font>
</defs>
</svg>
