<?xml version="1.0" standalone="no"?>
<!DOCTYPE svg PUBLIC "-//W3C//DTD SVG 1.1//EN" "http://www.w3.org/Graphics/SVG/1.1/DTD/svg11.dtd" >
<svg xmlns="http://www.w3.org/2000/svg" xmlns:xlink="http://www.w3.org/1999/xlink" version="1.1">
<metadata>
Created by FontForge 20170731 at Wed Apr  6 17:12:59 2022
 By Aleksey,,,
Copyright (c) 2021 by www.fontiran.com (Moslem Ebrahimi). All rights reserved.
</metadata>
<defs>
<font id="IRANSansXFaNum-Black" horiz-adv-x="0" >
  <font-face 
    font-family="IRANSansXFaNum Black"
    font-weight="900"
    font-stretch="normal"
    units-per-em="1000"
    panose-1="0 0 0 0 0 0 0 0 0 0"
    ascent="800"
    descent="-200"
    x-height="528"
    cap-height="711"
    bbox="-127 -523 2410 1096"
    underline-thickness="40"
    underline-position="-273"
    unicode-range="U+000D-FEFF"
  />
<missing-glyph horiz-adv-x="255" 
d="M38 429h179v-433h-179v433zM208 4v417h-161v-417h161z" />
    <glyph glyph-name="uni06AA" unicode="&#x6a9;&#x621;&#x621;" horiz-adv-x="1251" 
d="M241 12.5q-89 26.5 -138 76t-55 118.5q-1 8 -1 24q0 45 12 97.5t31 93.5l115 -54q-2 -7 -13.5 -51t-10.5 -70q4 -17 37 -34t93 -28t140 -11h9q367 0 635 23q-5 24 -24.5 34.5t-77 14.5t-186.5 4q-177 0 -263 13.5t-130 50.5q-8 42 -8 75q0 100 54 181.5t148 132t211 64.5
l32 -175q-130 -19 -212.5 -61.5t-110.5 -86.5q38 -13 118 -18t276 -5q279 0 279 -201q0 -10 -2 -32q-8 -83 -67 -122t-177 -52q-137 -16 -224 -21.5t-271 -5.5h-9q-121 -1 -210 25.5z" />
    <glyph glyph-name="uni06BE" unicode="&#x647;&#x621;&#x621;" horiz-adv-x="774" 
d="M125 188q-16 35 -16 70q0 24 7 48q15 52 36 92l-37 10l70 174q209 -59 328.5 -114.5t169 -112.5t49.5 -128q0 -46 -21 -112q-17 -54 -74 -81t-137 -27q-78 0 -161 25q-96 -32 -297 -32l36 188h47zM262 242q22 -19 59 -34q79 19 79 66q0 27 -26.5 50.5t-58.5 23.5
q-29 0 -52 -18.5t-23 -48.5q0 -20 22 -39zM522 167q67 0 76 23q3 6 3 13q0 39 -92 81q0 -18 -3 -38q-8 -46 -20 -77q26 -2 36 -2z" />
    <glyph glyph-name="uni06C0" unicode="&#x647;&#x654;" horiz-adv-x="505" 
d="M97 47.5q-54 52.5 -54 138.5q0 37 10 76q20 79 79 154q-15 11 -33 21l96 140q281 -170 281 -358q0 -66 -29 -117t-80 -79t-114 -28q-102 0 -156 52.5zM99 697q101 1 144 40q-17 7 -62 21q-5 2 -32.5 11t-38.5 24.5t-11 39.5q0 43 22 79t56 57.5t68 21.5q43 0 72 -23
l-36 -66q-18 5 -34 6q-29 0 -53 -16.5t-32 -40.5l54 -18q48 -14 69.5 -28.5t22.5 -45.5q0 -37 -25.5 -71.5t-75 -54.5t-118.5 -16zM192 192q26 -14 74 -14q34 0 57.5 11t28.5 28q-22 53 -115 125q-71 -68 -71 -110q0 -26 26 -40z" />
    <glyph glyph-name="uni06D2" unicode="&#x649;&#x621;&#x621;" horiz-adv-x="992" 
d="M50 126q0 83 46.5 162t116.5 128t135 49q48 0 92 -36t74 -88l-108 -95q-15 13 -35 22.5t-39 9.5q-43 0 -79.5 -26t-60.5 -64q46 -10 123.5 -16.5t174.5 -6.5q168 0 269.5 5.5t211.5 13.5l-64 -187l-32 -3q-78 -8 -159 -12.5t-226 -4.5q-141 0 -227 9t-132.5 26.5
t-71.5 45.5q-9 35 -9 68z" />
    <glyph glyph-name="uni06D3" unicode="&#x626;&#x621;&#x621;" horiz-adv-x="992" 
d="M50 126q0 83 46.5 162t116.5 128t135 49q48 0 92 -36t74 -88l-108 -95q-15 13 -35 22.5t-39 9.5q-43 0 -79.5 -26t-60.5 -64q46 -10 123.5 -16.5t174.5 -6.5q168 0 269.5 5.5t211.5 13.5l-64 -187l-32 -3q-78 -8 -159 -12.5t-226 -4.5q-141 0 -227 9t-132.5 26.5
t-71.5 45.5q-9 35 -9 68zM173 589l52 15q-13 17 -17 38q-2 7 -2 21q0 37 22.5 69t56.5 40q18 4 29 4q28 0 70 -15l-20 -79q-29 10 -51 10q-9 0 -13 -1q-15 -4 -22 -12t-7 -18q0 -9 9.5 -19t29.5 -10q3 0 17 2l70 21v-79l-224 -67v80z" />
    <glyph glyph-name="uni06C0.fina" unicode="&#xfeea;&#x654;" horiz-adv-x="541" arabic-form="final" 
d="M441.5 16q-36.5 16 -63.5 50q-61 -19 -121 -19q-94 0 -154.5 46.5t-60.5 128.5q0 16 3 34q12 81 74.5 138.5t159.5 100.5q-2 23 -8 61l140 30q5 -34 12 -105l23 -184q7 -50 15 -72t22 -29.5t44 -7.5h21l10 -94l-10 -94h-21q-49 0 -85.5 16zM68 602q101 1 144 40
q-17 7 -62 21q-5 2 -32.5 11t-38.5 24.5t-11 39.5q0 43 22 79t56 57.5t68 21.5q43 0 72 -23l-36 -66q-18 5 -34 6q-29 0 -53 -16.5t-32 -40.5l54 -18q48 -14 69.5 -28.5t22.5 -45.5q0 -37 -25.5 -71.5t-75 -54.5t-118.5 -16zM196.5 229q21.5 -11 56.5 -11q31 0 65 10
q-4 17 -7 44l-9 64q-52 -16 -89.5 -39t-37.5 -42q0 -15 21.5 -26z" />
    <glyph glyph-name="uni06C1.fina" unicode="&#xfeea;&#x621;&#x621;" horiz-adv-x="608" arabic-form="final" 
d="M613 188l10 -94l-10 -94h-7q-101 0 -176.5 55.5t-126.5 140.5q-42 -19 -85.5 -76.5t-68.5 -119.5l-107 68q21 88 78.5 173.5t123.5 120.5q39 21 71 21q52 0 97 -61l13 -19q26 -37 46.5 -59.5t53.5 -39t79 -16.5h9z" />
    <glyph glyph-name="uni06C1.medi" unicode="&#xfeec;&#xfe8c;&#xfe8c;&#xfe8c;&#xfe8c;" horiz-adv-x="564" arabic-form="medial" 
d="M256 -210.5q-48 47.5 -82.5 109t-47.5 126.5q-51 -25 -117 -25h-14v187h29q38 0 57.5 7.5t27 19.5t11.5 32l120 27l-1 -38q0 -181 63 -295q8 65 44 122t87.5 91.5t105.5 34.5h30l10 -94l-10 -94h-30q-57 0 -88 -37.5t-31 -87.5q0 -43 22 -69l-86 -87q-52 23 -100 70.5z
" />
    <glyph glyph-name="uni06BE.fina" unicode="&#xfeea;&#x621;&#x621;&#x621;&#x621;" horiz-adv-x="603" arabic-form="final" 
d="M412 -241q-54 0 -105 26.5t-89.5 81t-51.5 132.5h-10l-70 3l-55 155l135 10q14 113 49 207.5t75 154.5l87 20q75 -40 122 -120.5t47 -165.5q0 -42 -10 -75h72l10 -94l-10 -94q-34 0 -50 1q19 -48 19 -89q0 -73 -52 -115q-47 -38 -113 -38zM396.5 216.5
q34.5 22.5 34.5 46.5q0 21 -22.5 53t-52.5 45q-20 -28 -36.5 -76t-25.5 -104q68 13 102.5 35.5zM356 -47q31 -20 68 -20q13 0 26 3q-2 24 -22 48.5t-59 41.5q-25 -9 -63 -17q19 -36 50 -56z" />
    <glyph glyph-name="uni06BE.medi" unicode="&#xfeec;&#xfe8c;&#xfe8c;&#xfe8c;" horiz-adv-x="710" arabic-form="medial" 
d="M-4 188h16h46q-16 35 -16 70q0 24 7 48q15 52 36 92l-36 10l70 174q210 -60 329 -115t168.5 -112t49.5 -127q0 -19 -3 -40h52l10 -94l-10 -94q-65 0 -110 2.5t-90 12.5q-37 -9 -82 -9q-79 0 -160 26q-90 -32 -261 -32h-16v188zM196 242q22 -19 59 -34q70 19 78 58
q4 26 -18 50t-53 31q-4 1 -13 1q-29 0 -52 -18.5t-23 -48.5q0 -20 22 -39zM455 167q67 0 76 23q3 8 3 14q0 39 -92 80q0 -18 -3 -38q-8 -46 -20 -77q26 -2 36 -2z" />
    <glyph glyph-name="uni06D2.fina" unicode="&#xfbfd;&#x621;&#x621;" horiz-adv-x="459" arabic-form="final" 
d="M52 -150q0 86 50.5 164t137.5 126t191 48h35l10 -94l-10 -94h-35q-79 0 -142 -26.5t-100 -64.5q34 -10 96.5 -16.5t145.5 -6.5q139 0 308 6l-65 -188q-102 -6 -243 -6q-146 0 -239.5 20.5t-129.5 60.5q-10 34 -10 71z" />
    <glyph glyph-name="uni06D3.fina" unicode="&#xfe8a;&#x621;&#x621;" horiz-adv-x="459" arabic-form="final" 
d="M52 -150q0 86 50.5 164t137.5 126t191 48h35l10 -94l-10 -94h-35q-79 0 -142 -26.5t-100 -64.5q34 -10 96.5 -16.5t145.5 -6.5q139 0 308 6l-65 -188q-102 -6 -243 -6q-146 0 -239.5 20.5t-129.5 60.5q-10 34 -10 71zM94 290l52 15q-13 17 -17 38q-2 7 -2 21
q0 37 22.5 69t56.5 40q18 4 29 4q28 0 70 -15l-20 -79q-29 10 -51 10q-9 0 -13 -1q-15 -4 -22 -12t-7 -18q0 -9 9.5 -19t29.5 -10q3 0 17 2l70 21v-79l-224 -67v80z" />
    <glyph glyph-name="uni06440622" unicode="&#xfedf;&#xfe82;" horiz-adv-x="618" arabic-form="isolated" 
d="M570 558.5q8 -119.5 8 -235.5q0 -106 -67.5 -186t-178 -123t-236.5 -43l-45 171l88 6q15 33 15 77q0 64 -29.5 154.5t-84.5 211.5l130 91q57 -113 85 -211.5t28 -178.5q0 -74 -22 -125q79 18 123.5 54.5t44.5 98.5q-1 102 -9.5 195t-25.5 220l155 35q13 -92 21 -211.5z
M59.5 806q30.5 26 65.5 26q16 0 30.5 -4.5t32.5 -13.5q18 -8 28.5 -12t22.5 -4q16 0 32.5 10t26.5 26l53 -45q-23 -36 -52 -55.5t-60 -19.5q-17 0 -31.5 4.5t-35.5 14.5q-12 6 -24.5 10.5t-22.5 4.5q-18 0 -34 -13t-26 -35l-57 34q21 46 51.5 72z" />
    <glyph glyph-name="uni06440622.fina" unicode="&#xfee0;&#xfe82;" horiz-adv-x="688" arabic-form="final" 
d="M494 118q-67 -70 -172.5 -108.5t-225.5 -38.5l-45 171l88 6q15 33 15 77q0 64 -29.5 154.5t-84.5 211.5l130 91q57 -113 85 -211.5t28 -178.5q0 -74 -22 -125q79 18 123.5 54.5t44.5 98.5q-1 102 -9.5 195t-25.5 220l155 35q13 -92 21 -211.5t8 -235.5v-4q3 -57 13 -84.5
t30.5 -37t60.5 -9.5h12v-188h-14q-138 0 -186 118zM62.5 806q30.5 26 65.5 26q16 0 30.5 -4.5t32.5 -13.5q18 -8 28.5 -12t22.5 -4q16 0 32.5 10t26.5 26l53 -45q-23 -36 -52 -55.5t-60 -19.5q-17 0 -31.5 4.5t-35.5 14.5q-12 6 -24.5 10.5t-22.5 4.5q-18 0 -34 -13t-26 -35
l-57 34q21 46 51.5 72z" />
    <glyph glyph-name="uni06440623" unicode="&#xfedf;&#xfe84;" horiz-adv-x="618" arabic-form="isolated" 
d="M570 558.5q8 -119.5 8 -235.5q0 -106 -67.5 -186t-178 -123t-236.5 -43l-45 171l88 6q15 33 15 77q0 64 -29.5 154.5t-84.5 211.5l130 91q57 -113 85 -211.5t28 -178.5q0 -74 -22 -125q79 18 123.5 54.5t44.5 98.5q-1 102 -9.5 195t-25.5 220l155 35q13 -92 21 -211.5z
M5 766l52 15q-13 17 -17 38q-2 7 -2 21q0 37 22.5 69t56.5 40q18 4 29 4q28 0 70 -15l-20 -79q-29 10 -51 10q-9 0 -13 -1q-15 -4 -22 -12t-7 -18q0 -9 9.5 -19t29.5 -10q3 0 17 2l70 21v-79l-224 -67v80z" />
    <glyph glyph-name="uni06440623.fina" unicode="&#xfee0;&#xfe84;" horiz-adv-x="688" arabic-form="final" 
d="M494 118q-67 -70 -172.5 -108.5t-225.5 -38.5l-45 171l88 6q15 33 15 77q0 64 -29.5 154.5t-84.5 211.5l130 91q57 -113 85 -211.5t28 -178.5q0 -74 -22 -125q79 18 123.5 54.5t44.5 98.5q-1 102 -9.5 195t-25.5 220l155 35q13 -92 21 -211.5t8 -235.5v-4q3 -57 13 -84.5
t30.5 -37t60.5 -9.5h12v-188h-14q-138 0 -186 118zM5 766l52 15q-13 17 -17 38q-2 7 -2 21q0 37 22.5 69t56.5 40q18 4 29 4q28 0 70 -15l-20 -79q-29 10 -51 10q-9 0 -13 -1q-15 -4 -22 -12t-7 -18q0 -9 9.5 -19t29.5 -10q3 0 17 2l70 21v-79l-224 -67v80z" />
    <glyph glyph-name="uni06440625" unicode="&#xfedf;&#xfe88;" horiz-adv-x="618" arabic-form="isolated" 
d="M570 558.5q8 -119.5 8 -235.5q0 -106 -67.5 -186t-178 -123t-236.5 -43l-45 171l88 6q15 33 15 77q0 64 -29.5 154.5t-84.5 211.5l130 91q57 -113 85 -211.5t28 -178.5q0 -74 -22 -125q79 18 123.5 54.5t44.5 98.5q-1 102 -9.5 195t-25.5 220l155 35q13 -92 21 -211.5z
M36 -269l52 15q-13 17 -17 38q-2 7 -2 21q0 37 22.5 69t56.5 40q18 4 29 4q28 0 70 -15l-20 -79q-29 10 -51 10q-9 0 -13 -1q-15 -4 -22 -12t-7 -18q0 -9 9.5 -19t29.5 -10q3 0 17 2l70 21v-79l-224 -67v80z" />
    <glyph glyph-name="uni06440625.fina" unicode="&#xfee0;&#xfe88;" horiz-adv-x="688" arabic-form="final" 
d="M494 118q-67 -70 -172.5 -108.5t-225.5 -38.5l-45 171l88 6q15 33 15 77q0 64 -29.5 154.5t-84.5 211.5l130 91q57 -113 85 -211.5t28 -178.5q0 -74 -22 -125q79 18 123.5 54.5t44.5 98.5q-1 102 -9.5 195t-25.5 220l155 35q13 -92 21 -211.5t8 -235.5v-4q3 -57 13 -84.5
t30.5 -37t60.5 -9.5h12v-188h-14q-138 0 -186 118zM36 -263l52 15q-13 17 -17 38q-2 7 -2 21q0 37 22.5 69t56.5 40q18 4 29 4q28 0 70 -15l-20 -79q-29 10 -51 10q-9 0 -13 -1q-15 -4 -22 -12t-7 -18q0 -9 9.5 -19t29.5 -10q3 0 17 2l70 21v-79l-224 -67v80z" />
    <glyph glyph-name="uni06440627" unicode="&#xfedf;&#xfe8e;" horiz-adv-x="618" arabic-form="isolated" 
d="M570 558.5q8 -119.5 8 -235.5q0 -106 -67.5 -186t-178 -123t-236.5 -43l-45 171l88 6q15 33 15 77q0 64 -29.5 154.5t-84.5 211.5l130 91q57 -113 85 -211.5t28 -178.5q0 -74 -22 -125q79 18 123.5 54.5t44.5 98.5q-1 102 -9.5 195t-25.5 220l155 35q13 -92 21 -211.5z
" />
    <glyph glyph-name="uni06440627.fina" unicode="&#xfee0;&#xfe8e;" horiz-adv-x="688" arabic-form="final" 
d="M494 118q-67 -70 -172.5 -108.5t-225.5 -38.5l-45 171l88 6q15 33 15 77q0 64 -29.5 154.5t-84.5 211.5l130 91q57 -113 85 -211.5t28 -178.5q0 -74 -22 -125q79 18 123.5 54.5t44.5 98.5q-1 102 -9.5 195t-25.5 220l155 35q13 -92 21 -211.5t8 -235.5v-4q3 -57 13 -84.5
t30.5 -37t60.5 -9.5h12v-188h-14q-138 0 -186 118z" />
    <glyph glyph-name="uni06AA.001" unicode="&#x6af;&#x621;&#x621;" horiz-adv-x="1251" 
d="M241 12.5q-89 26.5 -138 76t-55 118.5q-1 8 -1 24q0 45 12 97.5t31 93.5l115 -54q-2 -7 -13.5 -51t-10.5 -70q4 -17 37 -34t93 -28t140 -11h9q367 0 635 23q-5 24 -24.5 34.5t-77 14.5t-186.5 4q-177 0 -263 13.5t-130 50.5q-8 42 -8 75q0 100 54 181.5t148 132t211 64.5
l32 -175q-130 -19 -212.5 -61.5t-110.5 -86.5q38 -13 118 -18t276 -5q279 0 279 -201q0 -10 -2 -32q-8 -83 -67 -122t-177 -52q-137 -16 -224 -21.5t-271 -5.5h-9q-121 -1 -210 25.5zM498 782.5q76 56.5 164 80.5l18 -70q-80 -22 -149.5 -73t-111.5 -118l-32 67
q35 57 111 113.5z" />
    <glyph glyph-name="uni06AA.fina" unicode="&#xfb8f;&#x621;&#x621;" horiz-adv-x="1266" 
d="M1193 19.5q-32 19.5 -53 52.5q-58 -44 -185 -58q-137 -16 -224 -21.5t-271 -5.5h-9q-121 -1 -210 25.5t-138 76t-55 118.5q-1 8 -1 24q0 45 12 97.5t31 93.5l115 -54q-2 -7 -13.5 -51t-10.5 -70q4 -17 37 -34t93 -28t140 -11h9q367 0 635 23q-5 24 -24.5 34.5t-77 14.5
t-186.5 4q-177 0 -263 13.5t-130 50.5q-8 42 -8 75q0 100 54 181.5t148 132t211 64.5l32 -175q-130 -19 -212.5 -61.5t-110.5 -86.5q38 -13 118 -18t276 -5q283 0 279 -209q8 -13 22.5 -18.5t42.5 -5.5h10l10 -94l-10 -94h-10q-41 0 -73 19.5z" />
    <glyph glyph-name="uni06AA.fina.001" unicode="&#xfb93;&#x621;&#x621;" horiz-adv-x="1266" 
d="M1193 19.5q-32 19.5 -53 52.5q-58 -44 -185 -58q-137 -16 -224 -21.5t-271 -5.5h-9q-121 -1 -210 25.5t-138 76t-55 118.5q-1 8 -1 24q0 45 12 97.5t31 93.5l115 -54q-2 -7 -13.5 -51t-10.5 -70q4 -17 37 -34t93 -28t140 -11h9q367 0 635 23q-5 24 -24.5 34.5t-77 14.5
t-186.5 4q-177 0 -263 13.5t-130 50.5q-8 42 -8 75q0 100 54 181.5t148 132t211 64.5l32 -175q-130 -19 -212.5 -61.5t-110.5 -86.5q38 -13 118 -18t276 -5q283 0 279 -209q8 -13 22.5 -18.5t42.5 -5.5h10l10 -94l-10 -94h-10q-41 0 -73 19.5zM498 772.5q76 56.5 164 80.5
l18 -70q-80 -22 -149.5 -73t-111.5 -118l-32 67q35 57 111 113.5z" />
    <glyph glyph-name="uni06AA.medi" unicode="&#xfb91;&#xfe8c;&#xfe8c;" horiz-adv-x="919" 
d="M845.5 19q-31.5 19 -54.5 52q-61 -51 -188 -57q-296 -14 -580 -14h-28v188h28q541 0 720 9q-5 24 -24.5 34.5t-77 14.5t-186.5 4q-177 0 -263 13.5t-130 50.5q-8 42 -8 75q0 100 54 181.5t148 132t211 64.5l32 -175q-130 -19 -212.5 -61.5t-110.5 -86.5q38 -13 118 -18
t276 -5q283 0 279 -209q8 -13 23 -18.5t42 -5.5h10v-188h-10q-37 0 -68.5 19z" />
    <glyph glyph-name="uni06AA.medi.001" unicode="&#xfb95;&#xfe8c;&#xfe8c;" horiz-adv-x="919" 
d="M845.5 19q-31.5 19 -54.5 52q-61 -51 -188 -57q-296 -14 -580 -14h-28v188h28q541 0 720 9q-5 24 -24.5 34.5t-77 14.5t-186.5 4q-177 0 -263 13.5t-130 50.5q-8 42 -8 75q0 100 54 181.5t148 132t211 64.5l32 -175q-130 -19 -212.5 -61.5t-110.5 -86.5q38 -13 118 -18
t276 -5q283 0 279 -209q8 -13 23 -18.5t42 -5.5h10v-188h-10q-37 0 -68.5 19zM142 774.5q76 56.5 164 80.5l18 -70q-80 -22 -149.5 -73t-111.5 -118l-32 67q35 57 111 113.5z" />
    <glyph glyph-name="uni06AA.init" unicode="&#xfb90;&#xfe8c;&#xfe8c;" horiz-adv-x="899" 
d="M-5 188h28q541 0 720 9q-5 24 -24.5 34.5t-77 14.5t-186.5 4q-177 0 -263 13.5t-130 50.5q-8 42 -8 75q0 100 54 181.5t148 132t211 64.5l32 -175q-130 -19 -212.5 -61.5t-110.5 -86.5q38 -13 118 -18t276 -5q279 0 279 -201q0 -10 -2 -32q-8 -85 -69 -127t-175 -47
q-296 -14 -580 -14h-28v188z" />
    <glyph glyph-name="uni06AA.init.001" unicode="&#xfb94;&#xfe8c;&#xfe8c;" horiz-adv-x="899" 
d="M-5 188h28q541 0 720 9q-5 24 -24.5 34.5t-77 14.5t-186.5 4q-177 0 -263 13.5t-130 50.5q-8 42 -8 75q0 100 54 181.5t148 132t211 64.5l32 -175q-130 -19 -212.5 -61.5t-110.5 -86.5q38 -13 118 -18t276 -5q279 0 279 -201q0 -10 -2 -32q-8 -85 -69 -127t-175 -47
q-296 -14 -580 -14h-28v188zM142 774.5q76 56.5 164 80.5l18 -70q-80 -22 -149.5 -73t-111.5 -118l-32 67q35 57 111 113.5z" />
    <glyph glyph-name="uni0647.fina.alt" unicode="&#xfeea;&#x621;&#x621;&#x621;" horiz-adv-x="695" 
d="M422 32q-83 -25 -161 -25q-80 0 -137 27t-74 81q-21 66 -21 112q0 71 49.5 128t169 112.5t328.5 114.5l70 -174l-36 -10q21 -40 36 -92q7 -24 7 -48q0 -35 -16 -70h46h16v-188h-16q-171 0 -261 32zM240 167q10 0 36 2q-12 31 -20 77q-3 20 -3 38q-92 -41 -92 -80
q0 -6 3 -14q9 -23 76 -23zM440 208q37 15 59 34t22 39q0 30 -23 48.5t-52 18.5q-9 0 -13 -1q-29 -6 -50 -27.5t-21 -46.5q0 -44 78 -65z" />
    <glyph glyph-name="uni0647.medi.alt" unicode="&#xfeec;&#xfe8c;&#xfe8c;" horiz-adv-x="502" 
d="M144.5 -195.5q-81.5 68.5 -103.5 195.5h-12h-33v188h33h13q15 109 55.5 208t85.5 132l67 8q76 -42 122.5 -116t46.5 -157q0 -50 -15 -91q38 16 80 16h25l10 -94l-10 -94h-25q-40 0 -63.5 -17.5t-23.5 -43.5q0 -27 26 -52l-84 -153q-113 2 -194.5 70.5zM260.5 230
q33.5 17 33.5 33q0 40 -65 84q-36 -53 -57 -145q55 11 88.5 28zM215.5 -42.5q24.5 -22.5 55.5 -31.5q-1 9 -1 26q0 52 18 97q-48 -24 -111 -36q14 -33 38.5 -55.5z" />
    <glyph glyph-name="uni0647.init.alt" unicode="&#xfeeb;&#xfe8c;&#xfe8c;" horiz-adv-x="517" 
d="M51 189q12 80 36.5 159t53.5 132l125 59q63 -43 106.5 -106t43.5 -147q0 -113 -74 -184q101 -52 120 -157q3 -17 3 -33q0 -47 -22.5 -88.5t-63 -66.5t-91.5 -25q-60 0 -111 31t-85.5 91.5t-44.5 146.5q-15 -1 -44 -1h-8v188h6q34 0 50 1zM214.5 -73q31.5 -34 70.5 -34
q21 0 33 10t12 25q0 6 -1 9q-8 33 -44.5 55t-102.5 28l-10 -3q11 -56 42.5 -90zM265 230q26 21 26 58q0 26 -16.5 49t-42.5 40q-30 -68 -51 -178q58 10 84 31z" />
    <glyph glyph-name="uni06D2.fina.alt2" unicode="&#xfbfd;&#x621;&#x621;&#x621;&#x621;&#x621;" horiz-adv-x="444" 
d="M52 -150q0 86 50.5 164t137.5 126t191 48h19l10 -94l-10 -94h-19q-79 0 -142 -26.5t-100 -64.5q31 -10 83.5 -16.5t117.5 -6.5q95 0 235 2l-65 -188q-74 -2 -170 -2q-137 0 -214 20t-114 61q-10 34 -10 71z" />
    <glyph glyph-name="uni06D2.fina.alt3" unicode="&#xfbfd;&#x621;&#x621;&#x621;&#x621;" horiz-adv-x="459" 
d="M52 -150q0 86 50.5 164t137.5 126t191 48h35l10 -94l-10 -94h-35q-79 0 -142 -26.5t-100 -64.5q34 -10 96.5 -16.5t145.5 -6.5q139 0 308 6l-65 -188q-102 -6 -243 -6q-146 0 -239.5 20.5t-129.5 60.5q-10 34 -10 71z" />
    <glyph glyph-name="uni06D2.fina.alt4" unicode="&#xfbfd;&#x621;&#x621;&#x621;" horiz-adv-x="431" 
d="M39 -150q0 86 50.5 164t137.5 126t191 48h20l10 -94l-10 -94h-20q-79 0 -142 -26.5t-100 -64.5q40 -10 119 -16.5t188 -6.5q139 0 348 8l-65 -187q-142 -9 -283 -9q-145 0 -231.5 9t-131.5 26t-71 46q-10 34 -10 71z" />
    <glyph glyph-name="uni06440671" unicode="&#xfedf;&#xfb51;" horiz-adv-x="618" 
d="M570 558.5q8 -119.5 8 -235.5q0 -106 -67.5 -186t-178 -123t-236.5 -43l-45 171l88 6q15 33 15 77q0 64 -29.5 154.5t-84.5 211.5l130 91q57 -113 85 -211.5t28 -178.5q0 -74 -22 -125q79 18 123.5 54.5t44.5 98.5q-1 102 -9.5 195t-25.5 220l155 35q13 -92 21 -211.5z
M110 810q11 0 33 -5q27 50 66 80t78 30q38 0 63.5 -26.5t25.5 -66.5q0 -42 -29 -74t-74 -41q-24 -4 -35 -4q-32 0 -80 16q-34 11 -47 11q-14 0 -25.5 -7.5t-19.5 -17.5l-51 33q38 72 95 72zM246 779q10 0 15 1q29 4 45 14.5t16 22.5q0 9 -11.5 15.5t-26.5 6.5
q-20 0 -42 -13.5t-40 -39.5q30 -7 44 -7z" />
    <glyph glyph-name="uni06440671.fina" unicode="&#xfee0;&#xfb51;" horiz-adv-x="688" 
d="M494 118q-67 -70 -172.5 -108.5t-225.5 -38.5l-45 171l88 6q15 33 15 77q0 64 -29.5 154.5t-84.5 211.5l130 91q57 -113 85 -211.5t28 -178.5q0 -74 -22 -125q79 18 123.5 54.5t44.5 98.5q-1 102 -9.5 195t-25.5 220l155 35q13 -92 21 -211.5t8 -235.5v-4q3 -57 13 -84.5
t30.5 -37t60.5 -9.5h12v-188h-14q-138 0 -186 118zM99 810q11 0 33 -5q27 50 66 80t78 30q38 0 63.5 -26.5t25.5 -66.5q0 -42 -29 -74t-74 -41q-24 -4 -35 -4q-32 0 -80 16q-34 11 -47 11q-14 0 -25.5 -7.5t-19.5 -17.5l-51 33q38 72 95 72zM235 779q10 0 15 1q29 4 45 14.5
t16 22.5q0 9 -11.5 15.5t-26.5 6.5q-20 0 -42 -13.5t-40 -39.5q30 -7 44 -7z" />
    <glyph glyph-name="uni06A90644" unicode="&#xfb90;&#xfede;" horiz-adv-x="1185" 
d="M669 38q-17 -143 -102.5 -224t-221.5 -81q-82 0 -151.5 33t-111.5 95t-42 146q0 11 2 37q6 58 26.5 120t43.5 114l116 -52q-26 -62 -38.5 -99.5t-14.5 -82.5q-2 -54 45.5 -88.5t124.5 -34.5q95 0 146 45.5t50 140.5q-2 139 -18 328t-33 300l155 35q19 -137 27 -520
q12 -32 40.5 -47t82.5 -15q63 0 97.5 9.5t61.5 25.5q-67 131 -209 265l14 159l375 156l51 -149l-274 -115q72 -81 122.5 -170.5t50.5 -160.5q0 -15 -3 -30q-17 -88 -98 -133t-188 -45q-75 0 -126 38z" />
    <glyph glyph-name="uni06A90644.fina" unicode="&#xfb91;&#xfede;" horiz-adv-x="1233" 
d="M669 38q-17 -143 -102.5 -224t-221.5 -81q-82 0 -151.5 33t-111.5 95t-42 146q0 11 2 37q6 58 26.5 120t43.5 114l116 -52q-26 -62 -38.5 -99.5t-14.5 -82.5q-2 -54 45.5 -88.5t124.5 -34.5q95 0 146 45.5t50 140.5q-2 139 -18 328t-33 300l155 35q19 -137 27 -520
q12 -32 40.5 -47t82.5 -15q63 0 97.5 9.5t61.5 25.5q-67 131 -209 265l14 159l375 156l51 -149l-274 -115q31 -34 64.5 -79.5t58.5 -91.5q58 -95 103 -137.5t86 -42.5h20l10 -94l-10 -94h-20q-45 0 -84.5 26.5t-85.5 83.5q-36 -55 -105.5 -82.5t-152.5 -27.5q-75 0 -126 38z
" />
    <glyph glyph-name="uni06AF0644" unicode="&#xfb94;&#xfede;" horiz-adv-x="1185" 
d="M669 38q-17 -143 -102.5 -224t-221.5 -81q-82 0 -151.5 33t-111.5 95t-42 146q0 11 2 37q6 58 26.5 120t43.5 114l116 -52q-26 -62 -38.5 -99.5t-14.5 -82.5q-2 -54 45.5 -88.5t124.5 -34.5q95 0 146 45.5t50 140.5q-2 139 -18 328t-33 300l155 35q19 -137 27 -520
q12 -32 40.5 -47t82.5 -15q63 0 97.5 9.5t61.5 25.5q-36 57 -80.5 108t-128.5 121l14 159l375 156l51 -149l-274 -115q72 -67 122.5 -146.5t50.5 -148.5q0 -15 -3 -30q-17 -88 -98 -133t-188 -45q-75 0 -126 38zM768 733l330 132l18 -54l-355 -147z" />
    <glyph glyph-name="uni06AF0644.fina" unicode="&#xfb95;&#xfede;" horiz-adv-x="1234" 
d="M669 38q-17 -143 -102.5 -224t-221.5 -81q-82 0 -151.5 33t-111.5 95t-42 146q0 11 2 37q6 58 26.5 120t43.5 114l116 -52q-26 -62 -38.5 -99.5t-14.5 -82.5q-2 -54 45.5 -88.5t124.5 -34.5q95 0 146 45.5t50 140.5q-2 139 -18 328t-33 300l155 35q19 -137 27 -520
q12 -32 40.5 -47t82.5 -15q63 0 97.5 9.5t61.5 25.5q-36 57 -80.5 108t-128.5 121l14 159l375 156l51 -149l-274 -115q31 -29 64 -67.5t58 -79.5q48 -70 80.5 -106t57 -49t53.5 -13h20l10 -94l-10 -94h-20q-45 0 -86 26t-87 81q-37 -53 -105.5 -80t-150.5 -27q-75 0 -126 38
zM768 733l330 132l18 -54l-355 -147z" />
    <glyph glyph-name="uni064406440647" unicode="&#xfedf;&#xfee0;&#x651;&#x670;&#xfeea;" horiz-adv-x="1019" 
d="M639 53q-53 -59 -136 -59q-91 0 -144 66q-65 -17 -117 -17q-90 0 -145 43.5t-55 120.5q0 21 2 32q11 74 69.5 129.5t153.5 89.5l-8 59l141 31l29 -274q3 -35 8.5 -53.5t20 -28.5t41.5 -10q35 0 52 19t16 40q-4 128 -20 303l142 33q14 -181 21 -353q7 -17 23.5 -28.5
t42.5 -11.5q30 0 46.5 13t16.5 35q0 33 -10.5 166.5t-21.5 228.5l142 32q10 -91 19 -218.5t9 -186.5q0 -79 -24.5 -137.5t-68.5 -89.5t-102 -31q-86 0 -143 57zM180 209.5q22 -9.5 56 -9.5q32 0 66 9l-8 51q-3 30 -9 64q-129 -48 -128 -91q1 -14 23 -23.5zM492 781l54 -19
q-9 -18 -9 -36q0 -10 6 -15.5t16 -5.5q34 0 34 46q0 12 -1 19l53 9q4 -35 15.5 -50.5t26.5 -15.5q10 0 16 6t6 15q0 6 -3 13q-5 12 -14.5 29t-11.5 20l55 31q2 -4 12.5 -21t17 -36t6.5 -38q0 -42 -21.5 -69t-60.5 -27q-19 0 -36 8t-29 23q-11 -18 -28 -28t-37 -10
q-40 0 -61.5 23.5t-21.5 57.5q0 29 16 71zM653 989q3 -39 3 -92q0 -49 -1 -73l-63 3q2 46 2 70q0 50 -3 87z" />
    <glyph glyph-name="uniFDF2" unicode="&#x627;&#xfedf;&#xfee0;&#xfeea;" horiz-adv-x="1274" 
d="M639 53q-53 -59 -136 -59q-91 0 -144 66q-65 -17 -117 -17q-90 0 -145 43.5t-55 120.5q0 21 2 32q11 74 69.5 129.5t153.5 89.5l-8 59l141 31l29 -274q3 -35 8.5 -53.5t20 -28.5t41.5 -10q35 0 52 19t16 40q-4 128 -20 303l142 33q14 -181 21 -353q7 -17 23.5 -28.5
t42.5 -11.5q30 0 46.5 13t16.5 35q0 33 -10.5 166.5t-21.5 228.5l142 32q10 -91 19 -218.5t9 -186.5q0 -79 -24.5 -137.5t-68.5 -89.5t-102 -31q-86 0 -143 57zM180 209.5q22 -9.5 56 -9.5q32 0 66 9l-8 51q-3 30 -9 64q-129 -48 -128 -91q1 -14 23 -23.5zM492 781l54 -19
q-9 -18 -9 -36q0 -10 6 -15.5t16 -5.5q34 0 34 46q0 12 -1 19l53 9q4 -35 15.5 -50.5t26.5 -15.5q10 0 16 6t6 15q0 6 -3 13q-5 12 -14.5 29t-11.5 20l55 31q2 -4 12.5 -21t17 -36t6.5 -38q0 -42 -21.5 -69t-60.5 -27q-19 0 -36 8t-29 23q-11 -18 -28 -28t-37 -10
q-40 0 -61.5 23.5t-21.5 57.5q0 29 16 71zM653 989q3 -39 3 -92q0 -49 -1 -73l-63 3q2 46 2 70q0 50 -3 87zM1191 766q10 -69 18 -209.5t8 -277.5q0 -189 -16 -292l-143 15q12 75 12 212t-10.5 290t-23.5 227z" />
    <glyph glyph-name="uniFDFC.001" unicode="&#x631;&#xfbfe;&#xfe8e;&#x644;&#x621;" horiz-adv-x="1566" 
d="M1303.5 23.5q70.5 39.5 74.5 67.5q1 4 1 17q0 60 -25 227l142 32q16 -79 16 -168q0 -63 -10 -128q-17 -105 -97 -173t-224 -107l-53 162q105 31 175.5 70.5zM79.5 174.5q20.5 62.5 43.5 113.5l115 -53q-26 -62 -38 -99.5t-14 -81.5q-2 -55 45 -89t124 -34q88 0 130 44.5
t40 140.5q-3 111 -10.5 204.5t-19.5 214.5l97 166l141 40q21 6 39 6q43 0 68 -30.5t26 -87.5l5 -112l9 -223q2 -45 9 -67t23 -30.5t49 -8.5q133 0 167 29q-2 28 -14.5 69t-25.5 73.5l-17 42.5l127 70q19 -39 40.5 -115t21.5 -131q0 -112 -73.5 -169t-225.5 -57
q-114 0 -164.5 66.5t-52.5 202.5q-2 147 -11 291l-1 23l-92 -29l6 -157q8 -227 9 -272q3 -180 -74 -281t-226 -101q-82 0 -151.5 33t-111.5 95t-42 146q0 11 2 37q7 58 27.5 120.5zM685 -119q77 -2 182.5 11.5t174.5 32.5l47 -158q-71 -17 -152 -26.5t-157 -9.5
q-73 0 -125 8z" />
    <glyph glyph-name="uniFDFC.002" unicode="&#x631;&#xfbfe;&#xfe8e;&#x644;&#x621;&#x621;" horiz-adv-x="1462" 
d="M1167.5 133.5q55.5 25.5 85.5 49.5t30 42q-1 63 -45 265l141 56q14 -64 23.5 -137.5t9.5 -133.5q0 -37 -5 -70q-17 -106 -94 -173t-220 -106l-51 162q70 20 125.5 45.5zM71.5 313q21.5 76 40.5 115l127 -70q-17 -38 -35.5 -91.5t-21.5 -93.5q34 -29 167 -29
q34 0 51.5 8.5t24.5 31.5t5 66q-13 225 -28 393l-2 26l97 166l141 40q21 6 39 6q43 0 68 -30.5t26 -87.5q5 -146 14 -335q2 -45 9 -67t23 -30.5t49 -8.5q74 0 112 7.5t55 21.5q-1 26 -14.5 69t-27.5 77l127 70q18 -36 32.5 -93.5t14.5 -113.5q0 -112 -73.5 -169t-225.5 -57
q-112 0 -163 67t-54 202q0 22 -1 33q-3 162 -11 281l-92 -29q15 -236 15 -430q0 -141 -50 -221.5t-161 -80.5q-152 0 -225.5 57t-73.5 169q0 55 21.5 131zM598 42q22 -2 71 -2q73 0 151.5 7.5t132.5 18.5l43 -158q-118 -22 -248 -22q-106 0 -187 16z" />
    <glyph glyph-name="tomaan" unicode="&#xfe97;&#xfeee;&#xfee3;&#xfe8e;&#x646;&#x621;" horiz-adv-x="2460" 
d="M197 321q-12 -39 -12 -85q0 -141 191 -141q61 0 111.5 22t79.5 56t29 70q0 31 -19 91.5t-53 152.5l95 190l156 66q30 13 58 13q43 0 68.5 -30.5t27.5 -79.5q3 -67 7 -213l5 -139q2 -45 9 -67t23 -30.5t49 -8.5h23q71 0 124 95q53 96 99 139.5t103 43.5q58 0 101.5 -37.5
t66.5 -97t23 -124.5q0 -63 -22 -116t-65 -80q-28 -17 -62 -17q-80 0 -204 78q-62 -72 -168 -72h-19q-114 0 -164.5 66.5t-52.5 202.5l-1 72q-1 89 -2.5 135t-8.5 107l-129 -52q23 -64 40.5 -140t17.5 -143q0 -100 -48.5 -177.5t-127.5 -120.5t-170 -43q-93 0 -167 34.5
t-116.5 102.5t-42.5 166q0 24 1 36q8 94 71 234l115 -53q-28 -67 -40 -106zM457 657l6 -145l-147 -16l-25 140zM1366.5 179.5q35.5 -15.5 52.5 -15.5q8 0 11 3q11 10 11 34q0 34 -20.5 65.5t-53.5 31.5q-39 0 -79 -76q43 -27 78.5 -42.5zM1793.5 -62q86.5 21 125.5 62
q-105 3 -170 27t-92 84q-18 42 -18 92q0 64 27 127t74.5 103.5t105.5 40.5q51 0 97 -37.5t78 -102.5t44 -146h46q133 0 167 29q-3 39 -26 104t-31 81l128 70q19 -42 40 -116.5t21 -130.5q0 -112 -73.5 -168.5t-225.5 -56.5h-51q-32 -114 -141 -179.5t-280 -65.5l-60 162
q128 0 214.5 21zM1822 196.5q41 -6.5 111 -8.5q-14 48 -37.5 81t-50.5 40q-9 3 -16 3q-28 0 -47.5 -25t-19.5 -50q0 -11 6 -19q13 -15 54 -21.5zM2133 693q101 14 196 14q34 0 51 -1l-30 -155q-81 2 -186.5 -9t-170.5 -28l-29 145q68 20 169 34z" />
    <glyph glyph-name="tomaan.001" unicode="&#xfe97;&#xfeee;&#xfee3;&#xfe8e;&#x646;&#x621;&#x621;" horiz-adv-x="2019" 
d="M199.5 323q-12.5 -39 -12.5 -85q0 -74 49 -108.5t143 -34.5q61 0 111.5 21.5t79 56t28.5 70.5q0 55 -72 244l96 190l206 64q25 7 39 7q41 0 66.5 -31.5t27.5 -87.5l6 -162q1 -29 2 -72t4 -101q2 -45 8.5 -67t23 -30.5t49.5 -8.5h22q71 0 124 95q54 96 97 139.5t97 43.5
q62 0 110 -40.5t77.5 -104t40.5 -133.5h46q133 0 167 29q-3 39 -26 104t-31 81l128 70q19 -42 40 -116.5t21 -130.5q0 -112 -73.5 -168.5t-225.5 -56.5h-51q-32 -114 -141 -179.5t-280 -65.5l-60 162q128 0 214.5 21t125.5 62q-12 0 -36 2q-70 4 -120 20t-80 49
q-62 -71 -167 -71h-19q-114 0 -164.5 66.5t-52.5 202.5l-1 72q-1 89 -2.5 135t-8.5 107l-158 -52q23 -65 40 -139t17 -140q0 -101 -47.5 -179.5t-127 -122t-170.5 -43.5q-93 0 -167 34.5t-116.5 102.5t-42.5 166q0 24 1 36q8 97 70 234l116 -53q-28 -65 -40.5 -104zM453 657
l6 -145l-147 -16l-25 140zM1366 199.5q27 -7.5 66 -9.5q13 -1 40 -1q1 4 1 11q0 34 -21 66t-54 32q-47 0 -77 -73q18 -18 45 -25.5zM1688 725q102 14 199 14q31 0 46 -1l-30 -146q-83 1 -188.5 -9.5t-168.5 -27.5l-29 136q69 20 171 34z" />
    <glyph glyph-name="tomaan.002" unicode="&#xfe97;&#xfeee;&#xfee3;&#xfe8e;&#x646;&#x621;&#x621;&#x621;" horiz-adv-x="1995" 
d="M1334.5 -20q91.5 21 129.5 62q-22 0 -46 2q-70 4 -120 20t-80 49q-62 -71 -167 -71q-113 0 -161.5 65.5t-55.5 203.5q-5 98 -12 210l-158 -52q23 -65 40 -139t17 -140q0 -101 -47.5 -179.5t-127 -122t-170.5 -43.5q-93 0 -167 34.5t-116.5 102.5t-42.5 166q0 24 1 36
q8 97 70 234l116 -53q-28 -65 -40.5 -104t-12.5 -85q0 -74 49 -108.5t143 -34.5q61 0 111.5 21.5t79 56t28.5 70.5q0 55 -72 244l96 190l206 64q21 6 38 6q42 0 67 -31t28 -87l12 -231q3 -46 9.5 -67.5t23 -30t51.5 -8.5q31 0 50 6t37 25t40 58q56 100 97 144.5t94 44.5
q62 0 110 -40.5t77.5 -104t40.5 -133.5q98 0 147 7.5t66 21.5q-3 39 -26 104t-31 81l128 70q19 -42 40 -116.5t21 -130.5q0 -114 -81.5 -169.5t-268.5 -55.5q-32 -114 -141 -179.5t-280 -65.5l-60 162q129 0 220.5 21zM450 595l6 -145l-147 -16l-25 140zM1344 241.5
q27 -7.5 66 -9.5q13 -1 63 -1q-3 22 -16.5 48t-34.5 43.5t-46 17.5q-47 0 -77 -73q18 -18 45 -25.5zM1633 742q101 14 196 14q34 0 51 -1l-30 -145q-81 2 -186.5 -9t-170.5 -28l-29 135q68 20 169 34z" />
    <glyph glyph-name="tomaan.003" unicode="&#xfe97;&#xfeee;&#xfee3;&#xfee6;&#x621;" horiz-adv-x="1689" 
d="M1028.5 -20q91.5 21 129.5 62q-22 0 -46 2q-70 4 -120 20t-80 49q-62 -71 -167 -71l-54 1q-42 -91 -127.5 -144.5t-187.5 -53.5q-93 0 -167 34.5t-116.5 102.5t-42.5 166q0 24 1 36q8 97 70 234l116 -53q-28 -65 -40.5 -104t-12.5 -85q0 -74 49 -108.5t143 -34.5
q61 0 111.5 21.5t79 56t28.5 70.5q0 32 -16 93.5t-43 147.5l128 47q47 -139 55 -238l29 -1q31 0 50 6t37 25t40 58q56 100 97 144.5t94 44.5q62 0 110 -40.5t77.5 -104t40.5 -133.5q98 0 147 7.5t66 21.5q-3 39 -26 104t-31 81l128 70q19 -42 40 -116.5t21 -130.5
q0 -114 -81.5 -169.5t-268.5 -55.5q-32 -114 -141 -179.5t-280 -65.5l-60 162q129 0 220.5 21zM450 595l6 -145l-147 -16l-25 140zM1038 241.5q27 -7.5 66 -9.5q13 -1 63 -1q-3 22 -16.5 48t-34.5 43.5t-46 17.5q-47 0 -77 -73q18 -18 45 -25.5zM1327 742q101 14 196 14
q34 0 51 -1l-30 -145q-81 2 -186.5 -9t-170.5 -28l-29 135q68 20 169 34z" />
    <glyph glyph-name="uni0621" unicode="&#x621;" horiz-adv-x="441" arabic-form="isolated" 
d="M42 51l65 20q-31 40 -31 96q0 45 23 84t61.5 62t82.5 23q24 0 58 -7t60 -18l-39 -116q-15 6 -38.5 11t-37.5 5q-26 0 -46 -14.5t-20 -32.5q0 -16 20.5 -29.5t51.5 -13.5q15 0 24 2l111 34l14 -126l-346 -105z" />
    <glyph glyph-name="uni0622" unicode="&#x622;" horiz-adv-x="274" arabic-form="isolated" 
d="M58 162q0 121 -8.5 261.5t-19.5 220.5l155 35q8 -75 14 -200t6 -246q0 -141 -10 -242l-143 15q6 63 6 156zM-17.5 828q30.5 26 65.5 26q16 0 30.5 -4.5t32.5 -13.5q18 -8 28.5 -12t22.5 -4q16 0 32.5 10t26.5 26l53 -45q-23 -36 -52 -55.5t-60 -19.5q-17 0 -31.5 4.5
t-35.5 14.5q-12 6 -24.5 10.5t-22.5 4.5q-18 0 -34 -13t-26 -35l-57 34q21 46 51.5 72z" />
    <glyph glyph-name="uni0623" unicode="&#x623;" horiz-adv-x="261" arabic-form="isolated" 
d="M58 162q0 121 -8.5 261.5t-19.5 220.5l155 35q8 -75 14 -200t6 -246q0 -141 -10 -242l-143 15q6 63 6 156zM-1 775l52 15q-13 17 -17 38q-2 7 -2 21q0 37 22.5 69t56.5 40q18 4 29 4q28 0 70 -15l-20 -79q-29 10 -51 10q-9 0 -13 -1q-15 -4 -22 -12t-7 -18q0 -9 9.5 -19
t29.5 -10q3 0 17 2l70 21v-79l-224 -67v80z" />
    <glyph glyph-name="uni0624" unicode="&#x624;" horiz-adv-x="531" arabic-form="isolated" 
d="M241 -73q74 31 104 74q-25 -3 -50 -3q-77 0 -136.5 29t-83.5 84q-18 39 -18 93q0 64 27 127t74 103t105 40q62 0 114 -52t82 -139t30 -189q0 -100 -47.5 -180t-136.5 -133.5t-211 -75.5l-59 162q132 29 206 60zM87 599l52 15q-13 17 -17 38q-2 7 -2 21q0 37 22.5 69
t56.5 40q18 4 29 4q28 0 70 -15l-20 -79q-29 10 -51 10q-9 0 -13 -1q-15 -4 -22 -12t-7 -18q0 -9 9.5 -19t29.5 -10q3 0 17 2l70 21v-79l-224 -67v80zM249 190.5q47 -10.5 103 -9.5q-16 58 -45.5 94t-60.5 36q-28 0 -47.5 -24.5t-19.5 -49.5q0 -11 6 -19q17 -17 64 -27.5z
" />
    <glyph glyph-name="uni0625" unicode="&#x625;" horiz-adv-x="251" arabic-form="isolated" 
d="M64 218q0 137 -10.5 290t-23.5 227l155 35q10 -69 18 -209.5t8 -277.5q0 -189 -16 -292l-143 15q12 75 12 212zM15 -229l52 15q-13 17 -17 38q-2 7 -2 21q0 37 22.5 69t56.5 40q18 4 29 4q28 0 70 -15l-20 -79q-29 10 -51 10q-9 0 -13 -1q-15 -4 -22 -12t-7 -18
q0 -9 9.5 -19t29.5 -10q3 0 17 2l70 21v-79l-224 -67v80z" />
    <glyph glyph-name="uni0626" unicode="&#x626;" horiz-adv-x="793" arabic-form="isolated" 
d="M201 -210.5q-74 34.5 -116.5 103t-42.5 167.5q0 24 1 36q8 95 70 232l116 -52q-29 -68 -41 -106t-12 -84q0 -74 49 -108.5t143 -34.5q70 0 132.5 18t94.5 53q-68 12 -114 25q-80 24 -114 59.5t-34 102.5q0 86 43 165t114 128t149 49q32 0 66 -10t44 -23l-52 -163
q-29 8 -53 8q-57 3 -107.5 -25.5t-67.5 -75.5q-1 -3 -1 -8q0 -15 25 -26.5t90 -24.5q94 -19 126 -56t32 -85q0 -80 -50 -148.5t-136 -109.5t-187 -41q-93 0 -167 34.5zM124 463l52 15q-13 17 -17 38q-2 7 -2 21q0 37 22.5 69t56.5 40q18 4 29 4q28 0 70 -15l-20 -79
q-29 10 -51 10q-9 0 -13 -1q-15 -4 -22 -12t-7 -18q0 -9 9.5 -19t29.5 -10q3 0 17 2l70 21v-79l-224 -67v80z" />
    <glyph glyph-name="uni0627" unicode="&#x627;" horiz-adv-x="251" arabic-form="isolated" 
d="M64 218q0 137 -10.5 290t-23.5 227l155 35q10 -69 18 -209.5t8 -277.5q0 -189 -16 -292l-143 15q12 75 12 212z" />
    <glyph glyph-name="uni0628" unicode="&#x628;" horiz-adv-x="878" arabic-form="isolated" 
d="M230 13.5q-87 26.5 -135 76t-54 117.5q-1 8 -1 24q0 45 12 97.5t31 93.5l115 -54q-2 -7 -13.5 -51t-10.5 -70q4 -17 36.5 -34t91.5 -28t137 -11q90 0 151 8t92.5 16.5t31.5 10.5q-10 52 -30 107t-34 86l127 70q28 -60 44.5 -125t16.5 -122q0 -122 -109 -180t-293 -58
q-119 0 -206 26.5zM434 -79l106 -106l-106 -107l-107 107z" />
    <glyph glyph-name="uni0629" unicode="&#x629;" horiz-adv-x="505" arabic-form="isolated" 
d="M97 47.5q-54 52.5 -54 138.5q0 37 10 76q20 79 79 154q-15 11 -33 21l96 140q281 -170 281 -358q0 -66 -29 -117t-80 -79t-114 -28q-102 0 -156 52.5zM172 811l87 -87l58 58l29 29l93 -93l-93 -94l-87 87l-58 -58l-29 -29l-94 94zM192 192q26 -14 74 -14q34 0 57.5 11
t28.5 28q-22 53 -115 125q-71 -68 -71 -110q0 -26 26 -40z" />
    <glyph glyph-name="uni062A" unicode="&#x62a;" horiz-adv-x="878" arabic-form="isolated" 
d="M230 13.5q-87 26.5 -135 76t-54 117.5q-1 8 -1 24q0 45 12 97.5t31 93.5l115 -54q-2 -7 -13.5 -51t-10.5 -70q4 -17 36.5 -34t91.5 -28t137 -11q90 0 151 8t92.5 16.5t31.5 10.5q-10 52 -30 107t-34 86l127 70q28 -60 44.5 -125t16.5 -122q0 -122 -109 -180t-293 -58
q-119 0 -206 26.5zM352 540l87 -87l58 58l29 29l93 -93l-93 -94l-87 87l-58 -58l-29 -29l-94 94z" />
    <glyph glyph-name="uni062B" unicode="&#x62b;" horiz-adv-x="878" arabic-form="isolated" 
d="M230 13.5q-87 26.5 -135 76t-54 117.5q-1 8 -1 24q0 45 12 97.5t31 93.5l115 -54q-2 -7 -13.5 -51t-10.5 -70q4 -17 36.5 -34t91.5 -28t137 -11q90 0 151 8t92.5 16.5t31.5 10.5q-10 52 -30 107t-34 86l127 70q28 -60 44.5 -125t16.5 -122q0 -122 -109 -180t-293 -58
q-119 0 -206 26.5zM344 547l88 -87l-88 -89l-88 89zM439 661l77 -77l-77 -78l-77 78zM536 547l87 -87l-87 -89l-89 89z" />
    <glyph glyph-name="uni062C" unicode="&#x62c;" horiz-adv-x="745" arabic-form="isolated" 
d="M221.5 -373.5q-82.5 34.5 -131 101t-48.5 158.5q0 26 2 40q15 131 122 222.5t289 138.5q-50 35 -85 49.5t-67 14.5q-35 0 -59 -17t-44 -40l-103 77q81 161 213 161q56 0 110 -26t152 -97q49 -35 74 -49.5t57 -25.5l-21 -183q-144 0 -256 -36.5t-177.5 -92t-78.5 -110.5
q-5 -36 29.5 -66.5t96.5 -48.5t135 -18q65 0 126.5 15t93.5 28l69 -144q-3 -2 -40.5 -24.5t-115 -42t-160.5 -19.5q-100 0 -182.5 34.5zM417 53l106 -106l-106 -107l-107 107z" />
    <glyph glyph-name="uni062D" unicode="&#x62d;" horiz-adv-x="745" arabic-form="isolated" 
d="M221.5 -373.5q-82.5 34.5 -131 101t-48.5 158.5q0 26 2 40q15 131 122 222.5t289 138.5q-50 35 -85 49.5t-67 14.5q-35 0 -59 -17t-44 -40l-103 77q81 161 213 161q56 0 110 -26t152 -97q49 -35 74 -49.5t57 -25.5l-21 -183q-144 0 -256 -36.5t-177.5 -92t-78.5 -110.5
q-5 -36 29.5 -66.5t96.5 -48.5t135 -18q65 0 126.5 15t93.5 28l69 -144q-3 -2 -40.5 -24.5t-115 -42t-160.5 -19.5q-100 0 -182.5 34.5z" />
    <glyph glyph-name="uni062E" unicode="&#x62e;" horiz-adv-x="745" arabic-form="isolated" 
d="M303 784l106 -106l-106 -107l-107 107zM166 148.5q107 91.5 289 138.5q-50 35 -85 49.5t-67 14.5q-35 0 -59 -17t-44 -40l-103 77q81 161 213 161q56 0 110 -26t152 -97q49 -35 74 -49.5t57 -25.5l-21 -183q-144 0 -256 -36.5t-177.5 -92t-78.5 -110.5q-5 -36 29.5 -66.5
t96.5 -48.5t135 -18q65 0 126.5 15t93.5 28l69 -144q-3 -2 -40.5 -24.5t-115 -42t-160.5 -19.5q-100 0 -182.5 34.5t-131 101t-48.5 158.5q0 26 2 40q15 131 122 222.5z" />
    <glyph glyph-name="uni062F" unicode="&#x62f;" horiz-adv-x="549" arabic-form="isolated" 
d="M20 79l64 131q34 -15 72 -26.5t88 -11.5q53 1 87.5 10t47.5 20q-27 98 -210 218l89 165q119 -80 190 -182.5t71 -197.5q0 -42 -17 -84q-26 -62 -93 -94.5t-146 -32.5q-139 0 -243 85z" />
    <glyph glyph-name="uni0630" unicode="&#x630;" horiz-adv-x="549" arabic-form="isolated" 
d="M20 79l64 131q34 -15 72 -26.5t88 -11.5q53 1 87.5 10t47.5 20q-27 98 -210 218l89 165q119 -80 190 -182.5t71 -197.5q0 -42 -17 -84q-26 -62 -93 -94.5t-146 -32.5q-139 0 -243 85zM236 849l106 -106l-106 -107l-107 107z" />
    <glyph glyph-name="uni0631" unicode="&#x631;" horiz-adv-x="414" arabic-form="isolated" 
d="M123.5 -72.5q56.5 35.5 90 66.5t33.5 49q0 40 -62 238l135 54q25 -69 39 -146.5t14 -145.5q0 -104 -78 -190t-216 -148l-79 157q67 30 123.5 65.5z" />
    <glyph glyph-name="uni0632" unicode="&#x632;" horiz-adv-x="414" arabic-form="isolated" 
d="M123.5 -72.5q56.5 35.5 90 66.5t33.5 49q0 40 -62 238l135 54q25 -69 39 -146.5t14 -145.5q0 -104 -78 -190t-216 -148l-79 157q67 30 123.5 65.5zM235 633l106 -106l-106 -107l-107 107z" />
    <glyph glyph-name="uni0633" unicode="&#x633;" horiz-adv-x="1254" arabic-form="isolated" 
d="M949 20q-34 19 -56 54q-29 -37 -59.5 -55t-69.5 -19h-1h-1h-3q-27 2 -44 8q-8 -88 -55 -157t-123 -108t-169 -39t-167 34.5t-116.5 103t-42.5 166.5q0 24 1 36q8 96 71 233l115 -52q-28 -67 -40 -106t-12 -85q0 -142 191 -142q64 0 114.5 20.5t79.5 55.5t29 76
q0 46 -70 234l128 71q17 -41 27 -74q13 -35 23 -52.5t25.5 -26t43.5 -8.5q44 1 65 45q19 40 33 108l123 -5q-3 -17 -6.5 -45.5t-3.5 -44.5q0 -26 12.5 -42t37.5 -16h1q23 0 39 14t16 32q0 34 -55 168l123 68q19 -39 40.5 -114t21.5 -131q0 -60 -23 -111.5t-65 -82.5t-95 -31
h-5q-44 1 -78 20z" />
    <glyph glyph-name="uni0634" unicode="&#x634;" horiz-adv-x="1254" arabic-form="isolated" 
d="M949 20q-34 19 -56 54q-29 -37 -59.5 -55t-69.5 -19h-1h-1h-3q-27 2 -44 8q-8 -88 -55 -157t-123 -108t-169 -39t-167 34.5t-116.5 103t-42.5 166.5q0 24 1 36q8 96 71 233l115 -52q-28 -67 -40 -106t-12 -85q0 -142 191 -142q64 0 114.5 20.5t79.5 55.5t29 76
q0 46 -70 234l128 71q17 -41 27 -74q13 -35 23 -52.5t25.5 -26t43.5 -8.5q44 1 65 45q19 40 33 108l123 -5q-3 -17 -6.5 -45.5t-3.5 -44.5q0 -26 12.5 -42t37.5 -16h1q23 0 39 14t16 32q0 34 -55 168l123 68q19 -39 40.5 -114t21.5 -131q0 -60 -23 -111.5t-65 -82.5t-95 -31
h-5q-44 1 -78 20zM814 620l88 -87l-88 -89l-88 89zM909 734l77 -77l-77 -78l-77 78zM1006 620l87 -87l-87 -89l-89 89z" />
    <glyph glyph-name="uni0635" unicode="&#x635;" horiz-adv-x="1305" arabic-form="isolated" 
d="M201 -261.5q-74 34.5 -116.5 103t-42.5 166.5q0 24 1 36q8 96 71 233l115 -52q-28 -67 -40 -106t-12 -85q0 -142 191 -142q64 0 114.5 20.5t79.5 55.5t29 76q0 31 -22 98t-36 101l127 71q11 -26 18 -46q21 -46 34 -62q74 133 167.5 207.5t186.5 74.5q60 0 107.5 -27
t74.5 -74.5t27 -107.5q0 -93 -52 -161t-145 -104t-213 -36q-84 0 -149 34q-7 -89 -54 -159t-123.5 -109.5t-170.5 -39.5q-93 0 -167 34.5zM878 159q78 0 140 19.5t96.5 46.5t34.5 49q0 14 -18.5 25t-50.5 11q-59 0 -124 -38.5t-122 -110.5q30 -2 44 -2z" />
    <glyph glyph-name="uni0636" unicode="&#x636;" horiz-adv-x="1305" arabic-form="isolated" 
d="M201 -261.5q-74 34.5 -116.5 103t-42.5 166.5q0 24 1 36q8 96 71 233l115 -52q-28 -67 -40 -106t-12 -85q0 -142 191 -142q64 0 114.5 20.5t79.5 55.5t29 76q0 31 -22 98t-36 101l127 71q11 -26 18 -46q21 -46 34 -62q74 133 167.5 207.5t186.5 74.5q60 0 107.5 -27
t74.5 -74.5t27 -107.5q0 -93 -52 -161t-145 -104t-213 -36q-84 0 -149 34q-7 -89 -54 -159t-123.5 -109.5t-170.5 -39.5q-93 0 -167 34.5zM878 159q78 0 140 19.5t96.5 46.5t34.5 49q0 14 -18.5 25t-50.5 11q-59 0 -124 -38.5t-122 -110.5q30 -2 44 -2zM1032 778l106 -106
l-106 -107l-107 107z" />
    <glyph glyph-name="uni0637" unicode="&#x637;" horiz-adv-x="811" arabic-form="isolated" 
d="M203 181q14 28 33 58q1 16 1 55q0 98 -12 235t-23 206l155 35q8 -59 15 -156t8 -204q95 78 190 78q65 0 114.5 -30t75 -82.5t20.5 -118.5q-8 -86 -62 -149t-144 -96t-204 -33q-88 0 -171.5 17t-156.5 50l52 171q55 -24 109 -36zM502 177q72 18 112.5 46t40.5 52
q0 14 -18 25.5t-49 11.5q-60 0 -125.5 -38.5t-123.5 -111.5q91 -3 163 15z" />
    <glyph glyph-name="uni0638" unicode="&#x638;" horiz-adv-x="811" arabic-form="isolated" 
d="M203 181q14 28 33 58q1 16 1 55q0 98 -12 235t-23 206l155 35q8 -59 15 -156t8 -204q95 78 190 78q65 0 114.5 -30t75 -82.5t20.5 -118.5q-8 -86 -62 -149t-144 -96t-204 -33q-88 0 -171.5 17t-156.5 50l52 171q55 -24 109 -36zM502 177q72 18 112.5 46t40.5 52
q0 14 -18 25.5t-49 11.5q-60 0 -125.5 -38.5t-123.5 -111.5q91 -3 163 15zM569 797l106 -106l-106 -107l-107 107z" />
    <glyph glyph-name="uni0639" unicode="&#x639;" horiz-adv-x="720" arabic-form="isolated" 
d="M396 -408q-97 0 -178 35.5t-128.5 102.5t-47.5 158q0 12 2 38q16 152 134 256q-43 28 -66 74t-23 110q0 65 32 123t86.5 93t117.5 35q52 0 102.5 -22.5t93.5 -59.5l-59 -125q-63 20 -120 20q-18 0 -27 -1q-27 -3 -50.5 -13.5t-37 -24t-13.5 -25.5q0 -17 18.5 -33.5
t49 -27t64.5 -10.5q23 0 40 4q40 15 101 32q11 4 20 6.5t17 5.5l35 -165q-137 -43 -218 -88.5t-117.5 -88t-51.5 -89.5q-5 -36 29 -66.5t95.5 -48.5t133.5 -18q67 0 128 15t92 28l70 -144q-133 -86 -324 -86z" />
    <glyph glyph-name="uni063A" unicode="&#x63a;" horiz-adv-x="720" arabic-form="isolated" 
d="M396 -408q-97 0 -178 35.5t-128.5 102.5t-47.5 158q0 12 2 38q16 152 134 256q-43 28 -66 74t-23 110q0 65 32 123t86.5 93t117.5 35q52 0 102.5 -22.5t93.5 -59.5l-59 -125q-63 20 -120 20q-18 0 -27 -1q-27 -3 -50.5 -13.5t-37 -24t-13.5 -25.5q0 -17 18.5 -33.5
t49 -27t64.5 -10.5q23 0 40 4q40 15 101 32q11 4 20 6.5t17 5.5l35 -165q-137 -43 -218 -88.5t-117.5 -88t-51.5 -89.5q-5 -36 29 -66.5t95.5 -48.5t133.5 -18q67 0 128 15t92 28l70 -144q-133 -86 -324 -86zM309 911l106 -106l-106 -107l-107 107z" />
    <glyph glyph-name="uni0641" unicode="&#x641;" horiz-adv-x="927" arabic-form="isolated" 
d="M446 -14l-2 9v-8q-121 -1 -210 25.5t-138 76t-55 118.5q-1 8 -1 24q0 45 12 97.5t31 93.5l115 -54q-2 -7 -13.5 -51t-10.5 -70q4 -17 37 -34t93 -28t140 -11h6q111 1 180.5 13t103.5 40q-24 -2 -37 -2q-75 0 -132.5 27.5t-82.5 79.5q-17 37 -17 87q0 60 26 119.5
t72.5 97.5t102.5 38q60 0 111 -49t80.5 -131t29.5 -178q0 -152 -107 -240t-332 -89zM641 943l106 -106l-106 -107l-107 107zM653 406q46 -10 101 -8q-17 55 -45.5 89t-58.5 34q-27 0 -46 -23t-19 -46q0 -13 6 -19q16 -17 62 -27z" />
    <glyph glyph-name="uni0642" unicode="&#x642;" horiz-adv-x="759" arabic-form="isolated" 
d="M201 -211.5q-74 34.5 -116.5 103t-42.5 166.5q0 24 1 36q8 96 71 233l115 -52q-28 -67 -40 -106t-12 -85q0 -142 191 -142q79 0 137.5 31t77.5 79q-27 -4 -58 -4q-78 0 -137.5 29t-84.5 84q-18 42 -18 92q0 64 27 127t74.5 103.5t104.5 40.5q62 0 114 -51.5t82.5 -139
t30.5 -188.5q0 -121 -45 -209.5t-124.5 -135t-180.5 -46.5q-93 0 -167 34.5zM405 778l87 -87l58 58l29 29l93 -93l-93 -94l-87 87l-58 -58l-29 -29l-94 94zM478 239.5q47 -10.5 103 -7.5q-17 57 -46.5 93t-60.5 36q-27 0 -46.5 -24.5t-19.5 -48.5q0 -12 6 -20
q17 -18 64 -28.5z" />
    <glyph glyph-name="uni0643" unicode="&#x643;" horiz-adv-x="907" arabic-form="isolated" 
d="M433 -14v1q-178 1 -280.5 59.5t-111.5 160.5q-1 8 -1 24q0 45 12 97.5t31 93.5l115 -54q-2 -7 -13.5 -51t-10.5 -70q4 -17 37 -34t93 -28t140 -11h29q70 0 122 15.5t81 33.5q-35 56 -79.5 107.5t-129.5 121.5l15 159l375 156l50 -149l-273 -115q72 -67 122.5 -146.5
t50.5 -148.5q0 -15 -3 -30q-17 -90 -109 -140.5t-222 -50.5z" />
    <glyph glyph-name="uni0644" unicode="&#x644;" horiz-adv-x="715" arabic-form="isolated" 
d="M195.5 -234q-69.5 33 -111.5 95t-42 146q0 11 2 37q6 58 26.5 120t43.5 114l116 -52q-26 -62 -38.5 -99.5t-14.5 -82.5q-2 -54 45.5 -88.5t124.5 -34.5q95 0 146 45.5t50 140.5q-2 139 -18 328t-33 300l155 35q13 -93 20.5 -285t7.5 -376q0 -115 -39.5 -200t-113 -130.5
t-175.5 -45.5q-82 0 -151.5 33z" />
    <glyph glyph-name="uni0645" unicode="&#x645;" horiz-adv-x="632" arabic-form="isolated" 
d="M45 -192q-9 137 -9 260q0 44 1 64q1 47 23 83t59 54t83 14q39 90 94 136.5t115 46.5q59 0 102.5 -37.5t66 -97t22.5 -124.5q0 -63 -22 -115.5t-65 -80.5q-26 -17 -61 -17q-41 0 -105.5 23.5t-164.5 75.5q-1 -101 12.5 -256.5t20.5 -212.5l-155 -36q-8 83 -17 220z
M407 179.5q35 -15.5 52 -15.5q8 0 11 3q11 10 11 34q0 34 -20.5 65.5t-53.5 31.5q-17 0 -36 -16t-43 -60q44 -27 79 -42.5z" />
    <glyph glyph-name="uni0646" unicode="&#x646;" horiz-adv-x="747" arabic-form="isolated" 
d="M189 171q-12 -39 -12 -85q0 -142 191 -142q64 0 114.5 20.5t79.5 55.5t29 76q0 45 -70 234l128 71q33 -79 50.5 -158.5t17.5 -146.5q0 -96 -45.5 -174t-125 -122t-178.5 -44q-93 0 -167 34.5t-116.5 103t-42.5 166.5q0 24 1 36q8 96 71 233l115 -52q-28 -67 -40 -106z
M389 512l106 -106l-106 -107l-107 107z" />
    <glyph glyph-name="uni0647" unicode="&#x647;" horiz-adv-x="505" arabic-form="isolated" 
d="M97 47.5q-54 52.5 -54 138.5q0 37 10 76q20 79 79 154q-15 11 -33 21l96 140q281 -170 281 -358q0 -66 -29 -117t-80 -79t-114 -28q-102 0 -156 52.5zM192 192q26 -14 74 -14q34 0 57.5 11t28.5 28q-22 53 -115 125q-71 -68 -71 -110q0 -26 26 -40z" />
    <glyph glyph-name="uni0648" unicode="&#x648;" horiz-adv-x="531" arabic-form="isolated" 
d="M241 -73q74 31 104 74q-25 -3 -50 -3q-77 0 -136.5 29t-83.5 84q-18 39 -18 93q0 64 27 127t74 103t105 40q62 0 114 -52t82 -139t30 -189q0 -100 -47.5 -180t-136.5 -133.5t-211 -75.5l-59 162q132 29 206 60zM249 190.5q47 -10.5 103 -9.5q-16 58 -45.5 94t-60.5 36
q-28 0 -47.5 -24.5t-19.5 -49.5q0 -11 6 -19q17 -17 64 -27.5z" />
    <glyph glyph-name="uni0649" unicode="&#x649;" horiz-adv-x="793" arabic-form="isolated" 
d="M201 -210.5q-74 34.5 -116.5 103t-42.5 167.5q0 24 1 36q8 95 70 232l116 -52q-29 -68 -41 -106t-12 -84q0 -74 49 -108.5t143 -34.5q70 0 132.5 18t94.5 53q-68 12 -114 25q-80 24 -114 59.5t-34 102.5q0 86 43 165t114 128t149 49q32 0 66 -10t44 -23l-52 -163
q-29 8 -53 8q-57 3 -107.5 -25.5t-67.5 -75.5q-1 -3 -1 -8q0 -15 25 -26.5t90 -24.5q94 -19 126 -56t32 -85q0 -80 -50 -148.5t-136 -109.5t-187 -41q-93 0 -167 34.5z" />
    <glyph glyph-name="uni064A" unicode="&#x64a;" horiz-adv-x="793" arabic-form="isolated" 
d="M201 -210.5q-74 34.5 -116.5 103t-42.5 167.5q0 24 1 36q8 95 70 232l116 -52q-29 -68 -41 -106t-12 -84q0 -74 49 -108.5t143 -34.5q70 0 132.5 18t94.5 53q-68 12 -114 25q-80 24 -114 59.5t-34 102.5q0 86 43 165t114 128t149 49q32 0 66 -10t44 -23l-52 -163
q-29 8 -53 8q-57 3 -107.5 -25.5t-67.5 -75.5q-1 -3 -1 -8q0 -15 25 -26.5t90 -24.5q94 -19 126 -56t32 -85q0 -80 -50 -148.5t-136 -109.5t-187 -41q-93 0 -167 34.5z" />
    <glyph glyph-name="uni066E.init" unicode="&#x66e;" horiz-adv-x="348" 
d="M-5 188h53q125 0 125 49q0 15 -21.5 75t-33.5 90l128 70q19 -42 40 -116.5t21 -130.5q0 -110 -67 -167.5t-192 -57.5h-53v188z" />
    <glyph glyph-name="uni066E.medi" unicode="&#x66e;" horiz-adv-x="334" 
d="M-5 188h5q79 1 110 17t33 54q-1 45 -11 98l124 23q14 -82 14 -167q6 -10 22 -17.5t42 -7.5h4l10 -94l-10 -94h-4q-39 0 -73.5 16.5t-61.5 44.5q-67 -61 -199 -61h-5v188z" />
    <glyph glyph-name="uni066E.fina" unicode="&#x66e;" horiz-adv-x="957" 
d="M230 13.5q-87 26.5 -135 76t-54 117.5q-1 8 -1 24q0 45 12 97.5t31 93.5l115 -54q-2 -7 -13.5 -51t-10.5 -70q4 -17 36.5 -34t92 -28t138.5 -11q134 0 202 14t101.5 47.5t61.5 101.5l123 -13q-20 -57 -20 -89q0 -26 13.5 -36.5t39.5 -10.5l10 -94l-10 -94
q-53 0 -96.5 31.5t-53.5 79.5q-65 -72 -152.5 -98t-223.5 -26q-119 0 -206 26.5z" />
    <glyph glyph-name="uni066F.fina" unicode="&#x66f;" horiz-adv-x="751" 
d="M201 -261.5q-74 34.5 -116.5 103t-42.5 166.5q0 24 1 36q8 96 71 233l115 -52q-28 -67 -40 -106t-12 -85q0 -142 191 -142q78 0 136 30t78 78q-113 2 -182 25t-97 86q-18 39 -18 93q0 64 27 127t74.5 103t104.5 40q52 0 97.5 -37.5t77.5 -102.5t44 -146h46l10 -94
l-10 -94h-46q-17 -93 -64.5 -159.5t-119 -101.5t-158.5 -35q-93 0 -167 34.5zM468 196.5q42 -6.5 111 -8.5q-15 48 -39 81t-50 40q-9 3 -16 3q-28 0 -47.5 -25t-19.5 -50q0 -11 6 -19q13 -15 55 -21.5z" />
    <glyph glyph-name="uni0671" unicode="&#x671;" horiz-adv-x="292" arabic-form="isolated" 
d="M58 162q0 121 -8.5 261.5t-19.5 220.5l155 35q8 -75 14 -200t6 -246q0 -141 -10 -242l-143 15q6 63 6 156zM26 809q11 0 33 -5q27 50 66 80t78 30q38 0 63.5 -26.5t25.5 -66.5q0 -42 -29 -74t-74 -41q-24 -4 -35 -4q-32 0 -80 16q-34 11 -47 11q-14 0 -25.5 -7.5
t-19.5 -17.5l-51 33q38 72 95 72zM162 778q10 0 15 1q29 4 45 14.5t16 22.5q0 9 -11.5 15.5t-26.5 6.5q-20 0 -42 -13.5t-40 -39.5q30 -7 44 -7z" />
    <glyph glyph-name="uni0679" unicode="&#x679;" horiz-adv-x="878" arabic-form="isolated" 
d="M230 13.5q-87 26.5 -135 76t-54 117.5q-1 8 -1 24q0 45 12 97.5t31 93.5l115 -54q-2 -7 -13.5 -51t-10.5 -70q4 -17 36.5 -34t91.5 -28t137 -11q90 0 151 8t92.5 16.5t31.5 10.5q-10 52 -30 107t-34 86l127 70q28 -60 44.5 -125t16.5 -122q0 -122 -109 -180t-293 -58
q-119 0 -206 26.5zM311 466q7 -2 29 -7l17 25q0 29 -5.5 79t-11.5 86l62 13q7 -38 14 -114q39 31 77 31q43 0 66 -31t23 -68q0 -49 -41.5 -83t-125.5 -34q-32 0 -66 9.5t-61 22.5zM416 446q63 -3 86.5 7t23.5 25q0 9 -6.5 16t-20.5 7q-20 0 -44 -15t-46 -40h7z" />
    <glyph glyph-name="uni067E" unicode="&#x67e;" horiz-adv-x="878" arabic-form="isolated" 
d="M230 13.5q-87 26.5 -135 76t-54 117.5q-1 8 -1 24q0 45 12 97.5t31 93.5l115 -54q-2 -7 -13.5 -51t-10.5 -70q4 -17 36.5 -34t91.5 -28t137 -11q90 0 151 8t92.5 16.5t31.5 10.5q-10 52 -30 107t-34 86l127 70q28 -60 44.5 -125t16.5 -122q0 -122 -109 -180t-293 -58
q-119 0 -206 26.5zM338 -75l89 -89l-89 -87l-87 87zM435 -210l77 -78l-77 -77l-77 77zM530 -75l88 -89l-88 -87l-88 87z" />
    <glyph glyph-name="uni0686" unicode="&#x686;" horiz-adv-x="745" arabic-form="isolated" 
d="M221.5 -373.5q-82.5 34.5 -131 101t-48.5 158.5q0 26 2 40q15 131 122 222.5t289 138.5q-50 35 -85 49.5t-67 14.5q-35 0 -59 -17t-44 -40l-103 77q81 161 213 161q56 0 110 -26t152 -97q49 -35 74 -49.5t57 -25.5l-21 -183q-144 0 -256 -36.5t-177.5 -92t-78.5 -110.5
q-5 -36 29.5 -66.5t96.5 -48.5t135 -18q65 0 126.5 15t93.5 28l69 -144q-3 -2 -40.5 -24.5t-115 -42t-160.5 -19.5q-100 0 -182.5 34.5zM353 69l85 -86q-29 -27 -85 -83l-84 83zM421 -86l25 25q48 -50 73 -74l-73 -74l-74 74q25 24 49 49zM537 69l50 -52l34 -34
q-57 -54 -84 -83l-85 83z" />
    <glyph glyph-name="uni0695.fina" unicode="&#x695;" horiz-adv-x="431" 
d="M371 9q-12 -93 -89 -170t-203 -134l-79 157q67 30 123.5 65.5t90 66.5t33.5 49q0 40 -62 238l135 54q15 -39 23 -75q13 -39 31.5 -55.5t50.5 -16.5h11l10 -94l-10 -94h-11q-30 0 -54 9zM99 -327q11 -15 26 -47.5t22 -56.5q6 25 21.5 60.5t27.5 52.5l52 -48
q-17 -27 -37 -67t-34 -73l-55 -17q-11 31 -33 74t-41 72z" />
    <glyph glyph-name="uni0698" unicode="&#x698;" horiz-adv-x="438" arabic-form="isolated" 
d="M123.5 -72.5q56.5 35.5 90 66.5t33.5 49q0 40 -62 238l135 54q25 -69 39 -146.5t14 -145.5q0 -104 -78 -190t-216 -148l-79 157q67 30 123.5 65.5zM138 594l88 -87l-88 -89l-88 89zM233 708l77 -77l-77 -78l-77 78zM330 594l87 -87l-87 -89l-89 89z" />
    <glyph glyph-name="uni06A1.init" unicode="&#x6a1;" horiz-adv-x="489" 
d="M-5 188h17q114 0 180 8t100 31q-11 -1 -34 -1q-75 0 -132.5 27t-81.5 79q-17 37 -17 87q0 60 26 119.5t72.5 97.5t102.5 38q60 0 111 -49t80.5 -131t29.5 -178q0 -150 -106.5 -233t-332.5 -83h-15v188zM215 406q46 -10 101 -8q-17 55 -45.5 89t-58.5 34q-27 0 -46 -23
t-19 -46q0 -13 6 -19q16 -17 62 -27z" />
    <glyph glyph-name="uni06A1.medi" unicode="&#x6a1;" horiz-adv-x="463" 
d="M-5 188h24h33q-15 40 -15 72q0 15 3 30q10 63 39 114.5t71.5 81t91.5 29.5q57 0 98.5 -33.5t63 -86.5t21.5 -109q0 -20 -3 -38q-4 -29 -14 -60h63l10 -94l-10 -94h-60q-92 0 -174 29q-84 -29 -218 -29h-24v188zM186 244q18 -20 47 -34q45 18 65 57q1 3 1 10q0 21 -14 41
t-40 26q-4 1 -12 1q-27 0 -46.5 -20.5t-22.5 -43.5q4 -17 22 -37z" />
    <glyph glyph-name="uni06A1.fina" unicode="&#x6a1;" horiz-adv-x="905" 
d="M433 -14v1q-178 1 -280.5 59.5t-111.5 160.5q-1 8 -1 24q0 45 12 97.5t31 93.5l115 -54q-2 -7 -13.5 -51t-10.5 -70q4 -17 37 -34t93 -28t140 -11h2q34 0 50 1q-20 42 -20 85q0 10 2 30q10 63 39 114.5t71.5 81t91.5 29.5q57 0 98.5 -33.5t63 -86.5t21.5 -109
q0 -20 -3 -38q-4 -31 -15 -60h65l10 -94l-10 -94h-61q-90 0 -165 26q-94 -39 -238 -39zM624.5 243q18.5 -20 48.5 -34q42 20 63 58q1 3 1 10q0 21 -14 41t-40 26q-4 1 -12 1q-27 0 -46.5 -20.5t-22.5 -43.5q4 -18 22.5 -38z" />
    <glyph glyph-name="uni06A4" unicode="&#x6a4;" horiz-adv-x="927" arabic-form="isolated" 
d="M446 -14l-2 9v-8q-121 -1 -210 25.5t-138 76t-55 118.5q-1 8 -1 24q0 45 12 97.5t31 93.5l115 -54q-2 -7 -13.5 -51t-10.5 -70q4 -17 37 -34t93 -28t140 -11h6q111 1 180.5 13t103.5 40q-24 -2 -37 -2q-75 0 -132.5 27.5t-82.5 79.5q-17 37 -17 87q0 60 26 119.5
t72.5 97.5t102.5 38q60 0 111 -49t80.5 -131t29.5 -178q0 -152 -107 -240t-332 -89zM559 901l88 -87l-88 -89l-88 89zM654 1015l77 -77l-77 -78l-77 78zM653 406q46 -10 101 -8q-17 55 -45.5 89t-58.5 34q-27 0 -46 -23t-19 -46q0 -13 6 -19q16 -17 62 -27zM751 901l87 -87
l-87 -89l-89 89z" />
    <glyph glyph-name="uni06A9" unicode="&#x6a9;" horiz-adv-x="907" arabic-form="isolated" 
d="M433 -14v1q-178 1 -280.5 59.5t-111.5 160.5q-1 8 -1 24q0 45 12 97.5t31 93.5l115 -54q-2 -7 -13.5 -51t-10.5 -70q4 -17 37 -34t93 -28t140 -11h29q70 0 122 15.5t81 33.5q-35 56 -79.5 107.5t-129.5 121.5l15 159l375 156l50 -149l-273 -115q72 -67 122.5 -146.5
t50.5 -148.5q0 -15 -3 -30q-17 -90 -109 -140.5t-222 -50.5z" />
    <glyph glyph-name="uni06AF" unicode="&#x6af;" horiz-adv-x="907" arabic-form="isolated" 
d="M433 -14v1q-178 1 -280.5 59.5t-111.5 160.5q-1 8 -1 24q0 45 12 97.5t31 93.5l115 -54q-2 -7 -13.5 -51t-10.5 -70q4 -17 37 -34t93 -28t140 -11h29q75 0 127.5 9t73.5 22q-37 60 -80 111.5t-127 120.5l15 159l375 156l50 -149l-273 -115q56 -45 114.5 -118.5
t58.5 -158.5q0 -16 -3 -33q-17 -90 -109 -140.5t-222 -50.5zM493 719l330 132l18 -54l-355 -147z" />
    <glyph glyph-name="uni06B5.init" unicode="&#x6b5;" horiz-adv-x="304" 
d="M-5 188h30q47 0 69.5 17.5t22.5 52.5q0 67 -11 236t-21 241l155 35q7 -67 15.5 -244.5t8.5 -254.5q0 -74 -30.5 -136t-84.5 -98.5t-120 -36.5h-34v188zM92 972q11 -15 26 -47.5t22 -56.5q6 25 21.5 60.5t27.5 52.5l52 -48q-17 -27 -37 -67t-34 -73l-55 -17q-11 31 -33 74
t-41 72z" />
    <glyph glyph-name="uni06B5.medi" unicode="&#x6b5;" horiz-adv-x="307" 
d="M225 20.5q-37 20.5 -65 56.5q-25 -37 -62 -57t-83 -20h-20v188h17q46 0 66 14t19 52q-1 42 -12 216t-20 263l155 35q6 -75 18 -361q6 -146 7 -154q2 -36 16.5 -50.5t39.5 -14.5h11l10 -94l-10 -94h-11q-39 0 -76 20.5zM90 979q11 -15 26 -47.5t22 -56.5q6 25 21.5 60.5
t27.5 52.5l52 -48q-17 -27 -37 -67t-34 -73l-55 -17q-11 31 -33 74t-41 72z" />
    <glyph glyph-name="uni06B5.fina" unicode="&#x6b5;" horiz-adv-x="789" 
d="M670 33q-18 -141 -102.5 -220.5t-220.5 -79.5q-82 0 -151.5 33t-111.5 95t-42 146q0 11 2 37q6 58 26.5 120t43.5 114l116 -52q-26 -62 -38.5 -99.5t-14.5 -82.5q-2 -54 45.5 -88.5t124.5 -34.5q95 0 146 45.5t50 140.5q-2 139 -18 328t-33 300l155 35q20 -138 26 -494
q3 -40 11.5 -58t29.5 -24t68 -6h13l10 -94l-10 -94h-13q-68 0 -112 33zM510 991q11 -15 26 -47.5t22 -56.5q6 25 21.5 60.5t27.5 52.5l52 -48q-17 -27 -37 -67t-34 -73l-55 -17q-11 31 -33 74t-41 72z" />
    <glyph glyph-name="uni06C2.fina" unicode="&#x6c2;" horiz-adv-x="608" 
d="M145 476l52 15q-13 17 -17 38q-2 7 -2 21q0 37 22.5 69t56.5 40q18 4 29 4q28 0 70 -15l-20 -79q-29 10 -51 10q-9 0 -13 -1q-15 -4 -22 -12t-7 -18q0 -9 9.5 -19t29.5 -10q3 0 17 2l70 21v-79l-224 -67v80zM120.5 241.5q57.5 85.5 123.5 120.5q39 21 71 21q52 0 97 -61
l13 -19q26 -37 46.5 -59.5t53.5 -39t79 -16.5h9l10 -94l-10 -94h-7q-101 0 -176.5 55.5t-126.5 140.5q-42 -19 -85.5 -76.5t-68.5 -119.5l-107 68q21 88 78.5 173.5z" />
    <glyph glyph-name="uni06C3.fina" unicode="&#x6c3;" horiz-adv-x="608" 
d="M613 188l10 -94l-10 -94h-7q-101 0 -176.5 55.5t-126.5 140.5q-42 -19 -85.5 -76.5t-68.5 -119.5l-107 68q21 88 78.5 173.5t123.5 120.5q39 21 71 21q52 0 97 -61l13 -19q26 -37 46.5 -59.5t53.5 -39t79 -16.5h9zM219 618l87 -87l58 58l29 29l93 -93l-93 -94l-87 87
l-58 -58l-29 -29l-94 94z" />
    <glyph glyph-name="uni06C6" unicode="&#x6c6;" horiz-adv-x="531" arabic-form="isolated" 
d="M241 -73q74 31 104 74q-25 -3 -50 -3q-77 0 -136.5 29t-83.5 84q-18 39 -18 93q0 64 27 127t74 103t105 40q62 0 114 -52t82 -139t30 -189q0 -100 -47.5 -180t-136.5 -133.5t-211 -75.5l-59 162q132 29 206 60zM185 729q11 -15 26 -47.5t22 -56.5q6 25 21.5 60.5
t27.5 52.5l52 -48q-17 -27 -37 -67t-34 -73l-55 -17q-11 31 -33 74t-41 72zM249 190.5q47 -10.5 103 -9.5q-16 58 -45.5 94t-60.5 36q-28 0 -47.5 -24.5t-19.5 -49.5q0 -11 6 -19q17 -17 64 -27.5z" />
    <glyph glyph-name="uni06C7" unicode="&#x6c7;" horiz-adv-x="531" arabic-form="isolated" 
d="M241 -73q74 31 104 74q-25 -3 -50 -3q-77 0 -136.5 29t-83.5 84q-18 39 -18 93q0 64 27 127t74 103t105 40q62 0 114 -52t82 -139t30 -189q0 -100 -47.5 -180t-136.5 -133.5t-211 -75.5l-59 162q132 29 206 60zM238 617q-31 8 -51 27t-25 50q-1 5 -1 14q0 27 14.5 51
t37.5 38t47 14q12 0 25 -5q28 -11 42 -39.5t14 -65.5q0 -45 -20 -85q-23 -45 -78 -68.5t-116 -23.5l-20 68q91 4 131 25zM249 190.5q47 -10.5 103 -9.5q-16 58 -45.5 94t-60.5 36q-28 0 -47.5 -24.5t-19.5 -49.5q0 -11 6 -19q17 -17 64 -27.5zM237.5 687.5
q16.5 -12.5 44.5 -12.5q1 5 1 14q0 22 -10.5 38.5t-25.5 16.5q-10 0 -18 -8.5t-8 -19.5q0 -16 16.5 -28.5z" />
    <glyph glyph-name="uni06CC" unicode="&#x6cc;" horiz-adv-x="793" arabic-form="isolated" 
d="M201 -210.5q-74 34.5 -116.5 103t-42.5 167.5q0 24 1 36q8 95 70 232l116 -52q-29 -68 -41 -106t-12 -84q0 -74 49 -108.5t143 -34.5q70 0 132.5 18t94.5 53q-68 12 -114 25q-80 24 -114 59.5t-34 102.5q0 86 43 165t114 128t149 49q32 0 66 -10t44 -23l-52 -163
q-29 8 -53 8q-57 3 -107.5 -25.5t-67.5 -75.5q-1 -3 -1 -8q0 -15 25 -26.5t90 -24.5q94 -19 126 -56t32 -85q0 -80 -50 -148.5t-136 -109.5t-187 -41q-93 0 -167 34.5z" />
    <glyph glyph-name="uni06CE.init" unicode="&#x6ce;" horiz-adv-x="395" 
d="M235 641q-20 -40 -34 -73l-55 -17q-11 31 -33 74t-41 72l51 50q11 -15 26 -47.5t22 -56.5q6 25 21.5 60.5t27.5 52.5l52 -48q-17 -27 -37 -67zM5 -79l87 -87l58 58l29 29l94 -94l-94 -93l-87 87l-58 -58l-29 -29l-93 93zM-6 188h54q93 0 132.5 15t39.5 42q0 25 -55 157
l127 70q20 -42 40.5 -112.5t20.5 -126.5q0 -112 -70 -172.5t-205 -60.5h-84v188z" />
    <glyph glyph-name="uni06CE.medi" unicode="&#x6ce;" horiz-adv-x="390" 
d="M231 522q-20 -40 -34 -73l-55 -17q-11 31 -33 74t-41 72l51 50q11 -15 26 -47.5t22 -56.5q6 25 21.5 60.5t27.5 52.5l52 -48q-17 -27 -37 -67zM-19 -79l87 -87l58 58l29 29l94 -94l-94 -93l-87 87l-58 -58l-29 -29l-93 93zM-4 188h5q78 0 121 7t60 22.5t18 41.5
q-1 45 -11 98l124 23q14 -82 14 -167q6 -10 22 -17.5t42 -7.5h4l10 -94l-10 -94h-5q-38 0 -72.5 17t-61.5 45q-34 -32 -93.5 -47t-161.5 -15h-5v188z" />
    <glyph glyph-name="uni06CE.fina" unicode="&#x6ce;" horiz-adv-x="782" 
d="M201 -260.5q-74 34.5 -116.5 103t-42.5 166.5q0 24 1 37q8 95 70 232l116 -53q-28 -65 -40.5 -104t-12.5 -85q0 -74 49 -108.5t143 -34.5q74 0 135.5 19t89.5 46q-26 16 -81.5 41.5t-112.5 44.5l40 177q95 -18 159.5 -25.5t128.5 -7.5h60l10 -94l-10 -94h-60q-21 0 -31 1
q20 -30 20 -55q0 -53 -45.5 -109.5t-125 -94t-177.5 -37.5q-93 0 -167 34.5zM236 505q11 -15 26 -47.5t22 -56.5q6 25 21.5 60.5t27.5 52.5l52 -48q-17 -27 -37 -67t-34 -73l-55 -17q-11 31 -33 74t-41 72z" />
    <glyph glyph-name="uni06D5.fina" unicode="&#x6d5;" horiz-adv-x="541" 
d="M441.5 16q-36.5 16 -63.5 50q-61 -19 -121 -19q-94 0 -154.5 46.5t-60.5 128.5q0 16 3 34q12 81 74.5 138.5t159.5 100.5q-2 23 -8 61l140 30q5 -34 12 -105l23 -184q7 -50 15 -72t22 -29.5t44 -7.5h21l10 -94l-10 -94h-21q-49 0 -85.5 16zM196.5 229q21.5 -11 56.5 -11
q31 0 65 10q-4 17 -7 44l-9 64q-52 -16 -89.5 -39t-37.5 -42q0 -15 21.5 -26z" />
    <glyph glyph-name="uni0671.fina" unicode="&#x671;" horiz-adv-x="266" arabic-form="final" 
d="M101 68q-54 68 -58 201q-3 128 -6.5 200.5t-11.5 174.5l153 35q6 -72 8 -139.5t3 -169.5l1 -76q1 -43 7 -65.5t22 -31.5t46 -9h6l10 -94l-10 -94h-5q-111 0 -165 68zM31 813q11 0 33 -5q27 50 66 80t78 30q38 0 63.5 -26.5t25.5 -66.5q0 -42 -29 -74t-74 -41
q-24 -4 -35 -4q-32 0 -80 16q-34 11 -47 11q-14 0 -25.5 -7.5t-19.5 -17.5l-51 33q38 72 95 72zM167 782q10 0 15 1q29 4 45 14.5t16 22.5q0 9 -11.5 15.5t-26.5 6.5q-20 0 -42 -13.5t-40 -39.5q30 -7 44 -7z" />
    <glyph glyph-name="uni067E.fina" unicode="&#x67e;" horiz-adv-x="957" arabic-form="final" 
d="M230 13.5q-87 26.5 -135 76t-54 117.5q-1 8 -1 24q0 45 12 97.5t31 93.5l115 -54q-2 -7 -13.5 -51t-10.5 -70q4 -17 36.5 -34t92 -28t138.5 -11q134 0 202 14t101.5 47.5t61.5 101.5l123 -13q-20 -57 -20 -89q0 -26 13.5 -36.5t39.5 -10.5l10 -94l-10 -94
q-53 0 -96.5 31.5t-53.5 79.5q-65 -72 -152.5 -98t-223.5 -26q-119 0 -206 26.5zM354 -69l89 -89l-89 -87l-87 87zM451 -204l77 -78l-77 -77l-77 77zM546 -69l88 -89l-88 -87l-88 87z" />
    <glyph glyph-name="uni067E.init" unicode="&#x67e;" horiz-adv-x="395" arabic-form="initial" 
d="M-6 188h54q93 0 132.5 15t39.5 42q0 25 -55 157l127 70q20 -42 40.5 -112.5t20.5 -126.5q0 -112 -70 -172.5t-205 -60.5h-84v188zM20 -70l89 -89l-89 -87l-87 87zM117 -205l77 -78l-77 -77l-77 77zM212 -70l88 -89l-88 -87l-88 87z" />
    <glyph glyph-name="uni067E.medi" unicode="&#x67e;" horiz-adv-x="390" arabic-form="medial" 
d="M-4 188h5q78 0 121 7t60 22.5t18 41.5q-1 45 -11 98l124 23q14 -82 14 -167q6 -10 22 -17.5t42 -7.5h4l10 -94l-10 -94h-5q-38 0 -72.5 17t-61.5 45q-34 -32 -93.5 -47t-161.5 -15h-5v188zM-25 -70l89 -89l-89 -87l-87 87zM72 -205l77 -78l-77 -77l-77 77zM167 -70
l88 -89l-88 -87l-88 87z" />
    <glyph glyph-name="uni0679.fina" unicode="&#x679;" horiz-adv-x="957" arabic-form="final" 
d="M230 13.5q-87 26.5 -135 76t-54 117.5q-1 8 -1 24q0 45 12 97.5t31 93.5l115 -54q-2 -7 -13.5 -51t-10.5 -70q4 -17 36.5 -34t92 -28t138.5 -11q134 0 202 14t101.5 47.5t61.5 101.5l123 -13q-20 -57 -20 -89q0 -26 13.5 -36.5t39.5 -10.5l10 -94l-10 -94
q-53 0 -96.5 31.5t-53.5 79.5q-65 -72 -152.5 -98t-223.5 -26q-119 0 -206 26.5zM341 435q7 -2 29 -7l17 25q0 29 -5.5 79t-11.5 86l62 13q7 -38 14 -114q39 31 77 31q43 0 66 -31t23 -68q0 -49 -41.5 -83t-125.5 -34q-32 0 -66 9.5t-61 22.5zM446 415q63 -3 86.5 7t23.5 25
q0 9 -6.5 16t-20.5 7q-20 0 -44 -15t-46 -40h7z" />
    <glyph glyph-name="uni0679.init" unicode="&#x679;" horiz-adv-x="395" arabic-form="initial" 
d="M-6 188h54q93 0 132.5 15t39.5 42q0 25 -55 157l127 70q20 -42 40.5 -112.5t20.5 -126.5q0 -112 -70 -172.5t-205 -60.5h-84v188zM22 642q7 -2 29 -7l17 25q0 29 -5.5 79t-11.5 86l62 13q7 -38 14 -114q39 31 77 31q43 0 66 -31t23 -68q0 -49 -41.5 -83t-125.5 -34
q-32 0 -66 9.5t-61 22.5zM127 622q63 -3 86.5 7t23.5 25q0 9 -6.5 16t-20.5 7q-20 0 -44 -15t-46 -40h7z" />
    <glyph glyph-name="uni0679.medi" unicode="&#x679;" horiz-adv-x="390" arabic-form="medial" 
d="M-4 188h5q78 0 121 7t60 22.5t18 41.5q-1 45 -11 98l124 23q14 -82 14 -167q6 -10 22 -17.5t42 -7.5h4l10 -94l-10 -94h-5q-38 0 -72.5 17t-61.5 45q-34 -32 -93.5 -47t-161.5 -15h-5v188zM36 528q7 -2 29 -7l17 25q0 29 -5.5 79t-11.5 86l62 13q7 -38 14 -114
q39 31 77 31q43 0 66 -31t23 -68q0 -49 -41.5 -83t-125.5 -34q-32 0 -66 9.5t-61 22.5zM141 508q63 -3 86.5 7t23.5 25q0 9 -6.5 16t-20.5 7q-20 0 -44 -15t-46 -40h7z" />
    <glyph glyph-name="uni06A4.fina" unicode="&#x6a4;" horiz-adv-x="905" arabic-form="final" 
d="M433 -14v1q-178 1 -280.5 59.5t-111.5 160.5q-1 8 -1 24q0 45 12 97.5t31 93.5l115 -54q-2 -7 -13.5 -51t-10.5 -70q4 -17 37 -34t93 -28t140 -11h2q34 0 50 1q-20 42 -20 85q0 10 2 30q10 63 39 114.5t71.5 81t91.5 29.5q57 0 98.5 -33.5t63 -86.5t21.5 -109
q0 -20 -3 -38q-4 -31 -15 -60h65l10 -94l-10 -94h-61q-90 0 -165 26q-94 -39 -238 -39zM583 770l88 -87l-88 -89l-88 89zM678 884l77 -77l-77 -78l-77 78zM624.5 243q18.5 -20 48.5 -34q42 20 63 58q1 3 1 10q0 21 -14 41t-40 26q-4 1 -12 1q-27 0 -46.5 -20.5t-22.5 -43.5
q4 -18 22.5 -38zM775 770l87 -87l-87 -89l-89 89z" />
    <glyph glyph-name="uni06A4.init" unicode="&#x6a4;" horiz-adv-x="489" arabic-form="initial" 
d="M-5 188h17q114 0 180 8t100 31q-11 -1 -34 -1q-75 0 -132.5 27t-81.5 79q-17 37 -17 87q0 60 26 119.5t72.5 97.5t102.5 38q60 0 111 -49t80.5 -131t29.5 -178q0 -150 -106.5 -233t-332.5 -83h-15v188zM130 902l88 -87l-88 -89l-88 89zM225 1016l77 -77l-77 -78l-77 78z
M215 406q46 -10 101 -8q-17 55 -45.5 89t-58.5 34q-27 0 -46 -23t-19 -46q0 -13 6 -19q16 -17 62 -27zM322 902l87 -87l-87 -89l-89 89z" />
    <glyph glyph-name="uni06A4.medi" unicode="&#x6a4;" horiz-adv-x="463" arabic-form="medial" 
d="M-5 188h24h33q-15 40 -15 72q0 15 3 30q10 63 39 114.5t71.5 81t91.5 29.5q57 0 98.5 -33.5t63 -86.5t21.5 -109q0 -20 -3 -38q-4 -29 -14 -60h63l10 -94l-10 -94h-60q-92 0 -174 29q-84 -29 -218 -29h-24v188zM130 760l88 -87l-88 -89l-88 89zM225 874l77 -77l-77 -78
l-77 78zM186 244q18 -20 47 -34q45 18 65 57q1 3 1 10q0 21 -14 41t-40 26q-4 1 -12 1q-27 0 -46.5 -20.5t-22.5 -43.5q4 -17 22 -37zM322 760l87 -87l-87 -89l-89 89z" />
    <glyph glyph-name="uni0686.fina" unicode="&#x686;" horiz-adv-x="754" arabic-form="final" 
d="M221.5 -373.5q-82.5 34.5 -131 101t-48.5 158.5q0 26 2 40q15 131 122 222.5t289 138.5q-50 35 -85 49.5t-67 14.5q-35 0 -59 -17t-44 -40l-103 77q81 161 213 161q56 0 110 -26t152 -97q49 -35 74 -49.5t57 -25.5l-16 -140q23 -6 55 -6h17l10 -94l-10 -94h-17
q-74 0 -129 37.5t-82 101.5q-102 -17 -180.5 -53.5t-124.5 -82.5t-56 -91q-5 -36 29.5 -66.5t96.5 -48.5t135 -18q65 0 126.5 15t93.5 28l69 -144q-3 -2 -40.5 -24.5t-115 -42t-160.5 -19.5q-100 0 -182.5 34.5zM348 69l85 -86q-29 -27 -85 -83l-84 83zM416 -86l25 25
q48 -50 73 -74l-73 -74l-74 74q25 24 49 49zM532 69l50 -52l34 -34q-57 -54 -84 -83l-85 83z" />
    <glyph glyph-name="uni0686.init" unicode="&#x686;" horiz-adv-x="680" arabic-form="initial" 
d="M-6 188h63q104 0 191.5 17.5t190.5 66.5q-23 10 -37 18q-37 19 -77.5 30t-71.5 11q-59 0 -103 -56l-103 77q81 161 211 161q43 0 83 -13.5t118 -54.5q57 -29 96.5 -43.5t88.5 -24.5l6 -170q-20 -6 -96 -47q-7 -4 -46 -25q-108 -57 -181.5 -85t-144.5 -38.5t-175 -11.5
h-13v188zM253 -68l89 -89l-89 -87l-87 87zM350 -203l77 -78l-77 -77l-77 77zM445 -68l88 -89l-88 -87l-88 87z" />
    <glyph glyph-name="uni0686.medi" unicode="&#x686;" horiz-adv-x="756" arabic-form="medial" 
d="M479 120q-97 -50 -166 -75t-138 -34.5t-168 -10.5h-13v188h63q104 0 191.5 17.5t190.5 66.5q-23 10 -37 18q-37 19 -77.5 30t-71.5 11q-59 0 -103 -56l-103 77q81 161 211 161q43 0 83 -13.5t118 -54.5q57 -29 96.5 -43.5t88.5 -24.5l6 -170q-15 -5 -24 -9q28 -10 59 -10
h76l10 -94l-10 -94h-11q-197 1 -271 120zM253 -68l89 -89l-89 -87l-87 87zM350 -203l77 -78l-77 -77l-77 77zM445 -68l88 -89l-88 -87l-88 87z" />
    <glyph glyph-name="uni0688.fina" unicode="&#x688;" horiz-adv-x="586" arabic-form="final" 
d="M501 16q-34 16 -61 48q-70 -70 -177 -70q-124 0 -243 85l64 131q31 -15 68.5 -26.5t91.5 -11.5q74 0 121 28l-133 302l124 67l137 -324q14 -34 31.5 -45.5t54.5 -11.5h13l10 -94l-10 -94h-13q-44 0 -78 16zM215 747q7 -2 29 -7l17 25q0 29 -5.5 79t-11.5 86l62 13
q7 -38 14 -114q39 31 77 31q43 0 66 -31t23 -68q0 -49 -41.5 -83t-125.5 -34q-32 0 -66 9.5t-61 22.5zM320 727q63 -3 86.5 7t23.5 25q0 9 -6.5 16t-20.5 7q-20 0 -44 -15t-46 -40h7z" />
    <glyph glyph-name="uni0698.fina" unicode="&#x698;" horiz-adv-x="431" arabic-form="final" 
d="M371 9q-12 -93 -89 -170t-203 -134l-79 157q67 30 123.5 65.5t90 66.5t33.5 49q0 40 -62 238l135 54q15 -39 23 -75q13 -39 31.5 -55.5t50.5 -16.5h11l10 -94l-10 -94h-11q-30 0 -54 9zM138 594l88 -87l-88 -89l-88 89zM233 708l77 -77l-77 -78l-77 78zM330 594l87 -87
l-87 -89l-89 89z" />
    <glyph glyph-name="uni0691.fina" unicode="&#x691;" horiz-adv-x="431" arabic-form="final" 
d="M371 9q-12 -93 -89 -170t-203 -134l-79 157q67 30 123.5 65.5t90 66.5t33.5 49q0 40 -62 238l135 54q15 -39 23 -75q13 -39 31.5 -55.5t50.5 -16.5h11l10 -94l-10 -94h-11q-30 0 -54 9zM140 495q7 -2 29 -7l17 25q0 29 -5.5 79t-11.5 86l62 13q7 -38 14 -114q39 31 77 31
q43 0 66 -31t23 -68q0 -49 -41.5 -83t-125.5 -34q-32 0 -66 9.5t-61 22.5zM245 475q63 -3 86.5 7t23.5 25q0 9 -6.5 16t-20.5 7q-20 0 -44 -15t-46 -40h7z" />
    <glyph glyph-name="uni06A9.fina" unicode="&#x6a9;" horiz-adv-x="955" arabic-form="final" 
d="M855 26q-41 26 -87 81q-40 -58 -120 -89t-181 -31l-40 -1v1q-175 1 -276 59.5t-110 160.5q-1 8 -1 24q0 45 12 97.5t31 93.5l115 -54q-2 -7 -13.5 -51t-10.5 -70q4 -17 37 -34t93 -28t140 -11h23q70 0 122 15.5t81 33.5q-35 56 -79.5 107.5t-129.5 121.5l15 159l375 156
l50 -149l-273 -115q31 -29 64 -67.5t58 -79.5q48 -70 80.5 -106t57 -49t53.5 -13h20l10 -94l-10 -94h-20q-45 0 -86 26z" />
    <glyph glyph-name="uni06A9.init" unicode="&#x6a9;" horiz-adv-x="469" arabic-form="initial" 
d="M-5 188h40q73 0 127 10.5t76 24.5q-35 56 -79.5 107.5t-129.5 121.5l15 159l375 156l50 -149l-273 -115q53 -49 113 -128t60 -166q0 -16 -3 -31q-17 -89 -107.5 -133.5t-223.5 -44.5h-40v188z" />
    <glyph glyph-name="uni06A9.medi" unicode="&#x6a9;" horiz-adv-x="521" arabic-form="medial" 
d="M421 26q-41 26 -87 80q-40 -53 -119 -79.5t-180 -26.5h-40v188h40q73 0 127 10.5t76 24.5q-35 56 -79.5 107.5t-129.5 121.5l15 159l375 156l50 -149l-273 -115q28 -25 69.5 -72t71.5 -106q41 -56 69.5 -85.5t51 -40.5t48.5 -11h20l10 -94l-10 -94h-20q-44 0 -85 26z" />
    <glyph glyph-name="uni06AF.fina" unicode="&#x6af;" horiz-adv-x="951" arabic-form="final" 
d="M762 98q-42 -53 -120 -82t-175 -29l-40 -1v1q-175 1 -276 59.5t-110 160.5q-1 8 -1 24q0 45 12 97.5t31 93.5l115 -54q-2 -7 -13.5 -51t-10.5 -70q4 -17 37 -34t93 -28t140 -11h23q75 0 127.5 9t73.5 22q-37 60 -80 111.5t-127 120.5l15 159l375 156l50 -149l-273 -115
q82 -68 128 -141q56 -77 104 -118t81 -41h16l10 -94l-10 -94h-16q-84 0 -179 98zM487 719l330 132l18 -54l-355 -147z" />
    <glyph glyph-name="uni06AF.init" unicode="&#x6af;" horiz-adv-x="469" arabic-form="initial" 
d="M-5 188h40q73 0 127 10.5t76 24.5q-29 46 -73.5 93t-135.5 121l15 159l375 156l50 -149l-273 -115q4 -4 88.5 -84t84.5 -197q0 -14 -3 -29q-17 -89 -107.5 -133.5t-223.5 -44.5h-40v188zM55 719l330 132l18 -54l-355 -147z" />
    <glyph glyph-name="uni06AF.medi" unicode="&#x6af;" horiz-adv-x="520" arabic-form="medial" 
d="M426 29q-41 29 -88 82q-39 -56 -119 -83.5t-184 -27.5h-40v188h40q73 0 127 10.5t76 24.5q-29 46 -73.5 93t-135.5 121l15 159l375 156l50 -149l-273 -115q5 -5 43 -41.5t75 -90.5q61 -77 111.5 -122.5t80.5 -45.5h20l10 -94l-10 -94h-20q-39 0 -80 29zM55 719l330 132
l18 -54l-355 -147z" />
    <glyph glyph-name="uni06BA.fina" unicode="&#x6ba;" horiz-adv-x="767" arabic-form="final" 
d="M715 7q-8 -87 -55 -156t-123 -108t-169 -39t-167 34.5t-116.5 103t-42.5 166.5q0 24 1 36q8 96 71 233l115 -52q-28 -67 -40 -106t-12 -85q0 -142 191 -142q64 0 114.5 20.5t79.5 55.5t29 76q0 45 -70 234l128 71q20 -49 32 -88q16 -42 33 -57.5t50 -15.5h8l10 -94
l-10 -94h-8q-23 0 -49 7z" />
    <glyph glyph-name="uni06C1.init" unicode="&#x6c1;" horiz-adv-x="452" arabic-form="initial" 
d="M-14 94l10 94h110q93 0 132.5 15t39.5 42q0 25 -55 157l127 70q20 -42 40.5 -112.5t20.5 -126.5q0 -112 -70 -172.5t-205 -60.5h-140zM109 -193.5q42 72.5 110 115.5l73 -69q-48 -39 -70 -65t-37 -50q6 2 13 2q42 0 72 -30t30 -75q0 -43 -31 -74t-73 -31q-57 -3 -93 36
t-36 100q0 68 42 140.5z" />
    <glyph glyph-name="uni06BE.init" unicode="&#x6be;" horiz-adv-x="695" arabic-form="initial" 
d="M-4 188h16h46q-16 35 -16 70q0 24 7 48q15 52 36 92l-36 10l70 174q209 -59 328.5 -114.5t169 -112.5t49.5 -128q0 -46 -21 -112q-17 -54 -74 -81t-137 -27q-78 0 -161 25q-90 -32 -261 -32h-16v188zM196 242q22 -19 59 -34q70 19 78 58q4 26 -18 50t-53 31q-4 1 -13 1
q-29 0 -52 -18.5t-23 -48.5q0 -20 22 -39zM455 167q67 0 76 23q3 8 3 14q0 39 -92 80q0 -18 -3 -38q-8 -46 -20 -77q26 -2 36 -2z" />
    <glyph glyph-name="uni06C7.fina" unicode="&#x6c7;" horiz-adv-x="520" arabic-form="final" 
d="M240 -74q74 31 104 74q-108 3 -175 26t-94 85q-18 39 -18 93q0 64 27 127t74 103t105 40q52 0 97.5 -37.5t77.5 -102.5t44 -146h46l10 -94l-10 -94h-51q-30 -114 -130 -190.5t-253 -104.5l-59 162q131 28 205 59zM248 620q-31 8 -51 27t-25 50q-1 5 -1 14q0 27 14.5 51
t37.5 38t47 14q12 0 25 -5q28 -11 42 -39.5t14 -65.5q0 -45 -20 -85q-23 -45 -78 -68.5t-116 -23.5l-20 68q91 4 131 25zM239 196.5q41 -6.5 111 -8.5q-14 48 -37.5 81t-50.5 40q-9 3 -16 3q-28 0 -47.5 -25t-19.5 -50q0 -11 6 -19q13 -15 54 -21.5zM247.5 690.5
q16.5 -12.5 44.5 -12.5q1 5 1 14q0 22 -10.5 38.5t-25.5 16.5q-10 0 -18 -8.5t-8 -19.5q0 -16 16.5 -28.5z" />
    <glyph glyph-name="uni06C6.fina" unicode="&#x6c6;" horiz-adv-x="520" arabic-form="final" 
d="M240 -74q74 31 104 74q-108 3 -175 26t-94 85q-18 39 -18 93q0 64 27 127t74 103t105 40q52 0 97.5 -37.5t77.5 -102.5t44 -146h46l10 -94l-10 -94h-51q-30 -114 -130 -190.5t-253 -104.5l-59 162q131 28 205 59zM185 727q11 -15 26 -47.5t22 -56.5q6 25 21.5 60.5
t27.5 52.5l52 -48q-17 -27 -37 -67t-34 -73l-55 -17q-11 31 -33 74t-41 72zM239 196.5q41 -6.5 111 -8.5q-14 48 -37.5 81t-50.5 40q-9 3 -16 3q-28 0 -47.5 -25t-19.5 -50q0 -11 6 -19q13 -15 54 -21.5z" />
    <glyph glyph-name="uni06C9.fina" unicode="&#x6c9;" horiz-adv-x="520" arabic-form="final" 
d="M240 -74q74 31 104 74q-108 3 -175 26t-94 85q-18 39 -18 93q0 64 27 127t74 103t105 40q52 0 97.5 -37.5t77.5 -102.5t44 -146h46l10 -94l-10 -94h-51q-30 -114 -130 -190.5t-253 -104.5l-59 162q131 28 205 59zM169 647q22 43 33 74l55 -17q14 -33 34 -73t37 -67
l-52 -48q-12 17 -27.5 52.5t-21.5 60.5q-7 -24 -22 -56.5t-26 -47.5l-51 50q19 29 41 72zM239 196.5q41 -6.5 111 -8.5q-14 48 -37.5 81t-50.5 40q-9 3 -16 3q-28 0 -47.5 -25t-19.5 -50q0 -11 6 -19q13 -15 54 -21.5z" />
    <glyph glyph-name="uni06CC.fina" unicode="&#x6cc;" horiz-adv-x="782" arabic-form="final" 
d="M201 -260.5q-74 34.5 -116.5 103t-42.5 166.5q0 24 1 37q8 95 70 232l116 -53q-28 -65 -40.5 -104t-12.5 -85q0 -74 49 -108.5t143 -34.5q74 0 135.5 19t89.5 46q-26 16 -81.5 41.5t-112.5 44.5l40 177q95 -18 159.5 -25.5t128.5 -7.5h60l10 -94l-10 -94h-60q-21 0 -31 1
q20 -30 20 -55q0 -53 -45.5 -109.5t-125 -94t-177.5 -37.5q-93 0 -167 34.5z" />
    <glyph glyph-name="uni06CC.init" unicode="&#x6cc;" horiz-adv-x="395" arabic-form="initial" 
d="M-6 188h54q93 0 132.5 15t39.5 42q0 25 -55 157l127 70q20 -42 40.5 -112.5t20.5 -126.5q0 -112 -70 -172.5t-205 -60.5h-84v188zM5 -79l87 -87l58 58l29 29l94 -94l-94 -93l-87 87l-58 -58l-29 -29l-93 93z" />
    <glyph glyph-name="uni06CC.medi" unicode="&#x6cc;" horiz-adv-x="390" arabic-form="medial" 
d="M-4 188h5q78 0 121 7t60 22.5t18 41.5q-1 45 -11 98l124 23q14 -82 14 -167q6 -10 22 -17.5t42 -7.5h4l10 -94l-10 -94h-5q-38 0 -72.5 17t-61.5 45q-34 -32 -93.5 -47t-161.5 -15h-5v188zM-19 -79l87 -87l58 58l29 29l94 -94l-94 -93l-87 87l-58 -58l-29 -29l-93 93z
" />
    <glyph glyph-name="uniFDFC" unicode="&#xfdfc;" horiz-adv-x="1562" arabic-form="isolated" 
d="M1303.5 23.5q70.5 39.5 74.5 67.5q1 4 1 17q0 60 -25 227l142 32q16 -79 16 -168q0 -63 -10 -128q-17 -105 -97 -173t-224 -107l-53 162q105 31 175.5 70.5zM79.5 174.5q20.5 62.5 43.5 113.5l115 -53q-26 -62 -38 -99.5t-14 -81.5q-2 -55 45 -89t124 -34q88 0 130 44.5
t40 140.5q-3 111 -10.5 204.5t-19.5 214.5l97 166l141 40q21 6 39 6q43 0 68 -30.5t26 -87.5l5 -112l9 -223q2 -45 9 -67t23 -30.5t49 -8.5q133 0 167 29q-2 28 -14.5 69t-25.5 73.5l-17 42.5l127 70q19 -39 40.5 -115t21.5 -131q0 -112 -73.5 -169t-225.5 -57
q-114 0 -164.5 66.5t-52.5 202.5q-2 147 -11 291l-1 23l-92 -29l6 -157q8 -227 9 -272q3 -180 -74 -281t-226 -101q-82 0 -151.5 33t-111.5 95t-42 146q0 11 2 37q7 58 27.5 120.5zM685 -119q77 -2 182.5 11.5t174.5 32.5l47 -158q-71 -17 -152 -26.5t-157 -9.5
q-73 0 -125 8z" />
    <glyph glyph-name="uni0622.fina" unicode="&#x622;" horiz-adv-x="266" arabic-form="final" 
d="M101 68q-54 68 -58 201q-3 128 -6.5 200.5t-11.5 174.5l153 35q6 -72 8 -139.5t3 -169.5l1 -76q1 -43 7 -65.5t22 -31.5t46 -9h6l10 -94l-10 -94h-5q-111 0 -165 68zM-13.5 828q30.5 26 65.5 26q16 0 30.5 -4.5t32.5 -13.5q18 -8 28.5 -12t22.5 -4q16 0 32.5 10t26.5 26
l53 -45q-23 -36 -52 -55.5t-60 -19.5q-17 0 -31.5 4.5t-35.5 14.5q-12 6 -24.5 10.5t-22.5 4.5q-18 0 -34 -13t-26 -35l-57 34q21 46 51.5 72z" />
    <glyph glyph-name="uni0623.fina" unicode="&#x623;" horiz-adv-x="266" arabic-form="final" 
d="M101 68q-54 68 -58 201q-3 128 -6.5 200.5t-11.5 174.5l153 35q6 -72 8 -139.5t3 -169.5l1 -76q1 -43 7 -65.5t22 -31.5t46 -9h6l10 -94l-10 -94h-5q-111 0 -165 68zM0 774l52 15q-13 17 -17 38q-2 7 -2 21q0 37 22.5 69t56.5 40q18 4 29 4q28 0 70 -15l-20 -79
q-29 10 -51 10q-9 0 -13 -1q-15 -4 -22 -12t-7 -18q0 -9 9.5 -19t29.5 -10q3 0 17 2l70 21v-79l-224 -67v80z" />
    <glyph glyph-name="uni0624.fina" unicode="&#x624;" horiz-adv-x="520" arabic-form="final" 
d="M240 -74q74 31 104 74q-108 3 -175 26t-94 85q-18 39 -18 93q0 64 27 127t74 103t105 40q52 0 97.5 -37.5t77.5 -102.5t44 -146h46l10 -94l-10 -94h-51q-30 -114 -130 -190.5t-253 -104.5l-59 162q131 28 205 59zM87 599l52 15q-13 17 -17 38q-2 7 -2 21q0 37 22.5 69
t56.5 40q18 4 29 4q28 0 70 -15l-20 -79q-29 10 -51 10q-9 0 -13 -1q-15 -4 -22 -12t-7 -18q0 -9 9.5 -19t29.5 -10q3 0 17 2l70 21v-79l-224 -67v80zM239 196.5q41 -6.5 111 -8.5q-14 48 -37.5 81t-50.5 40q-9 3 -16 3q-28 0 -47.5 -25t-19.5 -50q0 -11 6 -19
q13 -15 54 -21.5z" />
    <glyph glyph-name="uni0625.fina" unicode="&#x625;" horiz-adv-x="284" arabic-form="final" 
d="M62 269q-5 277 -32 466l153 35q13 -94 19.5 -229t6.5 -254q0 -40 6.5 -61t22.5 -29.5t46 -8.5h5l10 -94l-10 -94h-5q-219 0 -222 269zM32 -218l52 15q-13 17 -17 38q-2 7 -2 21q0 37 22.5 69t56.5 40q18 4 29 4q28 0 70 -15l-20 -79q-29 10 -51 10q-9 0 -13 -1
q-15 -4 -22 -12t-7 -18q0 -9 9.5 -19t29.5 -10q3 0 17 2l70 21v-79l-224 -67v80z" />
    <glyph glyph-name="uni0626.fina" unicode="&#x626;" horiz-adv-x="782" arabic-form="final" 
d="M201 -260.5q-74 34.5 -116.5 103t-42.5 166.5q0 24 1 37q8 95 70 232l116 -53q-28 -65 -40.5 -104t-12.5 -85q0 -74 49 -108.5t143 -34.5q74 0 135.5 19t89.5 46q-26 16 -81.5 41.5t-112.5 44.5l40 177q95 -18 159.5 -25.5t128.5 -7.5h60l10 -94l-10 -94h-60q-21 0 -31 1
q20 -30 20 -55q0 -53 -45.5 -109.5t-125 -94t-177.5 -37.5q-93 0 -167 34.5zM141 402l52 15q-13 17 -17 38q-2 7 -2 21q0 37 22.5 69t56.5 40q18 4 29 4q28 0 70 -15l-20 -79q-29 10 -51 10q-9 0 -13 -1q-15 -4 -22 -12t-7 -18q0 -9 9.5 -19t29.5 -10q3 0 17 2l70 21v-79
l-224 -67v80z" />
    <glyph glyph-name="uni0626.init" unicode="&#x626;" horiz-adv-x="348" arabic-form="initial" 
d="M-5 188h53q125 0 125 49q0 15 -21.5 75t-33.5 90l128 70q19 -42 40 -116.5t21 -130.5q0 -110 -67 -167.5t-192 -57.5h-53v188zM22 572l52 15q-13 17 -17 38q-2 7 -2 21q0 37 22.5 69t56.5 40q18 4 29 4q28 0 70 -15l-20 -79q-29 10 -51 10q-9 0 -13 -1q-15 -4 -22 -12
t-7 -18q0 -9 9.5 -19t29.5 -10q3 0 17 2l70 21v-79l-224 -67v80z" />
    <glyph glyph-name="uni0626.medi" unicode="&#x626;" horiz-adv-x="334" arabic-form="medial" 
d="M-5 188h5q79 1 110 17t33 54q-1 45 -11 98l124 23q14 -82 14 -167q6 -10 22 -17.5t42 -7.5h4l10 -94l-10 -94h-4q-39 0 -73.5 16.5t-61.5 44.5q-67 -61 -199 -61h-5v188zM32 500l52 15q-13 17 -17 38q-2 7 -2 21q0 37 22.5 69t56.5 40q18 4 29 4q28 0 70 -15l-20 -79
q-29 10 -51 10q-9 0 -13 -1q-15 -4 -22 -12t-7 -18q0 -9 9.5 -19t29.5 -10q3 0 17 2l70 21v-79l-224 -67v80z" />
    <glyph glyph-name="uni0627.fina" unicode="&#x627;" horiz-adv-x="284" arabic-form="final" 
d="M62 269q-5 277 -32 466l153 35q13 -94 19.5 -229t6.5 -254q0 -40 6.5 -61t22.5 -29.5t46 -8.5h5l10 -94l-10 -94h-5q-219 0 -222 269z" />
    <glyph glyph-name="uni0628.fina" unicode="&#x628;" horiz-adv-x="957" arabic-form="final" 
d="M230 13.5q-87 26.5 -135 76t-54 117.5q-1 8 -1 24q0 45 12 97.5t31 93.5l115 -54q-2 -7 -13.5 -51t-10.5 -70q4 -17 36.5 -34t92 -28t138.5 -11q134 0 202 14t101.5 47.5t61.5 101.5l123 -13q-20 -57 -20 -89q0 -26 13.5 -36.5t39.5 -10.5l10 -94l-10 -94
q-53 0 -96.5 31.5t-53.5 79.5q-65 -72 -152.5 -98t-223.5 -26q-119 0 -206 26.5zM458 -77l106 -106l-106 -107l-107 107z" />
    <glyph glyph-name="uni0628.init" unicode="&#x628;" horiz-adv-x="348" arabic-form="initial" 
d="M-5 188h53q125 0 125 49q0 15 -21.5 75t-33.5 90l128 70q19 -42 40 -116.5t21 -130.5q0 -110 -67 -167.5t-192 -57.5h-53v188zM75 -68l106 -106l-106 -107l-107 107z" />
    <glyph glyph-name="uni0628.medi" unicode="&#x628;" horiz-adv-x="334" arabic-form="medial" 
d="M-5 188h5q79 1 110 17t33 54q-1 45 -11 98l124 23q14 -82 14 -167q6 -10 22 -17.5t42 -7.5h4l10 -94l-10 -94h-4q-39 0 -73.5 16.5t-61.5 44.5q-67 -61 -199 -61h-5v188zM56 -70l106 -106l-106 -107l-107 107z" />
    <glyph glyph-name="uni0629.fina" unicode="&#x629;" horiz-adv-x="541" arabic-form="final" 
d="M441.5 16q-36.5 16 -63.5 50q-61 -19 -121 -19q-94 0 -154.5 46.5t-60.5 128.5q0 16 3 34q12 81 74.5 138.5t159.5 100.5q-2 23 -8 61l140 30q5 -34 12 -105l23 -184q7 -50 15 -72t22 -29.5t44 -7.5h21l10 -94l-10 -94h-21q-49 0 -85.5 16zM185 830l87 -87l58 58l29 29
l93 -93l-93 -94l-87 87l-58 -58l-29 -29l-94 94zM196.5 229q21.5 -11 56.5 -11q31 0 65 10q-4 17 -7 44l-9 64q-52 -16 -89.5 -39t-37.5 -42q0 -15 21.5 -26z" />
    <glyph glyph-name="uni062A.fina" unicode="&#x62a;" horiz-adv-x="957" arabic-form="final" 
d="M230 13.5q-87 26.5 -135 76t-54 117.5q-1 8 -1 24q0 45 12 97.5t31 93.5l115 -54q-2 -7 -13.5 -51t-10.5 -70q4 -17 36.5 -34t92 -28t138.5 -11q134 0 202 14t101.5 47.5t61.5 101.5l123 -13q-20 -57 -20 -89q0 -26 13.5 -36.5t39.5 -10.5l10 -94l-10 -94
q-53 0 -96.5 31.5t-53.5 79.5q-65 -72 -152.5 -98t-223.5 -26q-119 0 -206 26.5zM394 546l87 -87l58 58l29 29l93 -93l-93 -94l-87 87l-58 -58l-29 -29l-94 94z" />
    <glyph glyph-name="uni062A.init" unicode="&#x62a;" horiz-adv-x="395" arabic-form="initial" 
d="M-6 188h54q93 0 132.5 15t39.5 42q0 25 -55 157l127 70q20 -42 40.5 -112.5t20.5 -126.5q0 -112 -70 -172.5t-205 -60.5h-84v188zM87 683l87 -87l58 58l29 29l93 -93l-93 -94l-87 87l-58 -58l-29 -29l-94 94z" />
    <glyph glyph-name="uni062A.medi" unicode="&#x62a;" horiz-adv-x="390" arabic-form="medial" 
d="M-4 188h5q78 0 121 7t60 22.5t18 41.5q-1 45 -11 98l124 23q14 -82 14 -167q6 -10 22 -17.5t42 -7.5h4l10 -94l-10 -94h-5q-38 0 -72.5 17t-61.5 45q-34 -32 -93.5 -47t-161.5 -15h-5v188zM60 632l87 -87l58 58l29 29l93 -93l-93 -94l-87 87l-58 -58l-29 -29l-94 94z" />
    <glyph glyph-name="uni062B.fina" unicode="&#x62b;" horiz-adv-x="957" arabic-form="final" 
d="M230 13.5q-87 26.5 -135 76t-54 117.5q-1 8 -1 24q0 45 12 97.5t31 93.5l115 -54q-2 -7 -13.5 -51t-10.5 -70q4 -17 36.5 -34t92 -28t138.5 -11q134 0 202 14t101.5 47.5t61.5 101.5l123 -13q-20 -57 -20 -89q0 -26 13.5 -36.5t39.5 -10.5l10 -94l-10 -94
q-53 0 -96.5 31.5t-53.5 79.5q-65 -72 -152.5 -98t-223.5 -26q-119 0 -206 26.5zM386 543l88 -87l-88 -89l-88 89zM481 657l77 -77l-77 -78l-77 78zM578 543l87 -87l-87 -89l-89 89z" />
    <glyph glyph-name="uni062B.init" unicode="&#x62b;" horiz-adv-x="395" arabic-form="initial" 
d="M-6 188h54q93 0 132.5 15t39.5 42q0 25 -55 157l127 70q20 -42 40.5 -112.5t20.5 -126.5q0 -112 -70 -172.5t-205 -60.5h-84v188zM84 672l88 -87l-88 -89l-88 89zM179 786l77 -77l-77 -78l-77 78zM276 672l87 -87l-87 -89l-89 89z" />
    <glyph glyph-name="uni062B.medi" unicode="&#x62b;" horiz-adv-x="390" arabic-form="medial" 
d="M-4 188h5q78 0 121 7t60 22.5t18 41.5q-1 45 -11 98l124 23q14 -82 14 -167q6 -10 22 -17.5t42 -7.5h4l10 -94l-10 -94h-5q-38 0 -72.5 17t-61.5 45q-34 -32 -93.5 -47t-161.5 -15h-5v188zM49 623l88 -87l-88 -89l-88 89zM144 737l77 -77l-77 -78l-77 78zM241 623l87 -87
l-87 -89l-89 89z" />
    <glyph glyph-name="uni062C.fina" unicode="&#x62c;" horiz-adv-x="754" arabic-form="final" 
d="M221.5 -373.5q-82.5 34.5 -131 101t-48.5 158.5q0 26 2 40q15 131 122 222.5t289 138.5q-50 35 -85 49.5t-67 14.5q-35 0 -59 -17t-44 -40l-103 77q81 161 213 161q56 0 110 -26t152 -97q49 -35 74 -49.5t57 -25.5l-16 -140q23 -6 55 -6h17l10 -94l-10 -94h-17
q-74 0 -129 37.5t-82 101.5q-102 -17 -180.5 -53.5t-124.5 -82.5t-56 -91q-5 -36 29.5 -66.5t96.5 -48.5t135 -18q65 0 126.5 15t93.5 28l69 -144q-3 -2 -40.5 -24.5t-115 -42t-160.5 -19.5q-100 0 -182.5 34.5zM411 47l106 -106l-106 -107l-107 107z" />
    <glyph glyph-name="uni062C.init" unicode="&#x62c;" horiz-adv-x="680" arabic-form="initial" 
d="M-6 188h63q104 0 191.5 17.5t190.5 66.5q-23 10 -37 18q-37 19 -77.5 30t-71.5 11q-59 0 -103 -56l-103 77q81 161 211 161q43 0 83 -13.5t118 -54.5q57 -29 96.5 -43.5t88.5 -24.5l6 -170q-20 -6 -96 -47q-7 -4 -46 -25q-108 -57 -181.5 -85t-144.5 -38.5t-175 -11.5
h-13v188zM340 -72l106 -106l-106 -107l-107 107z" />
    <glyph glyph-name="uni062C.medi" unicode="&#x62c;" horiz-adv-x="756" arabic-form="medial" 
d="M479 120q-97 -50 -166 -75t-138 -34.5t-168 -10.5h-13v188h63q104 0 191.5 17.5t190.5 66.5q-23 10 -37 18q-37 19 -77.5 30t-71.5 11q-59 0 -103 -56l-103 77q81 161 211 161q43 0 83 -13.5t118 -54.5q57 -29 96.5 -43.5t88.5 -24.5l6 -170q-15 -5 -24 -9q28 -10 59 -10
h76l10 -94l-10 -94h-11q-197 1 -271 120zM340 -70l106 -106l-106 -107l-107 107z" />
    <glyph glyph-name="uni062D.fina" unicode="&#x62d;" horiz-adv-x="754" arabic-form="final" 
d="M221.5 -373.5q-82.5 34.5 -131 101t-48.5 158.5q0 26 2 40q15 131 122 222.5t289 138.5q-50 35 -85 49.5t-67 14.5q-35 0 -59 -17t-44 -40l-103 77q81 161 213 161q56 0 110 -26t152 -97q49 -35 74 -49.5t57 -25.5l-16 -140q23 -6 55 -6h17l10 -94l-10 -94h-17
q-74 0 -129 37.5t-82 101.5q-102 -17 -180.5 -53.5t-124.5 -82.5t-56 -91q-5 -36 29.5 -66.5t96.5 -48.5t135 -18q65 0 126.5 15t93.5 28l69 -144q-3 -2 -40.5 -24.5t-115 -42t-160.5 -19.5q-100 0 -182.5 34.5z" />
    <glyph glyph-name="uni062D.init" unicode="&#x62d;" horiz-adv-x="680" arabic-form="initial" 
d="M-6 188h63q104 0 191.5 17.5t190.5 66.5q-23 10 -37 18q-37 19 -77.5 30t-71.5 11q-59 0 -103 -56l-103 77q81 161 211 161q43 0 83 -13.5t118 -54.5q57 -29 96.5 -43.5t88.5 -24.5l6 -170q-20 -6 -96 -47q-7 -4 -46 -25q-108 -57 -181.5 -85t-144.5 -38.5t-175 -11.5
h-13v188z" />
    <glyph glyph-name="uni062D.medi" unicode="&#x62d;" horiz-adv-x="756" arabic-form="medial" 
d="M479 120q-97 -50 -166 -75t-138 -34.5t-168 -10.5h-13v188h63q104 0 191.5 17.5t190.5 66.5q-23 10 -37 18q-37 19 -77.5 30t-71.5 11q-59 0 -103 -56l-103 77q81 161 211 161q43 0 83 -13.5t118 -54.5q57 -29 96.5 -43.5t88.5 -24.5l6 -170q-15 -5 -24 -9q28 -10 59 -10
h76l10 -94l-10 -94h-11q-197 1 -271 120z" />
    <glyph glyph-name="uni062E.fina" unicode="&#x62e;" horiz-adv-x="754" arabic-form="final" 
d="M221.5 -373.5q-82.5 34.5 -131 101t-48.5 158.5q0 26 2 40q15 131 122 222.5t289 138.5q-50 35 -85 49.5t-67 14.5q-35 0 -59 -17t-44 -40l-103 77q81 161 213 161q56 0 110 -26t152 -97q49 -35 74 -49.5t57 -25.5l-16 -140q23 -6 55 -6h17l10 -94l-10 -94h-17
q-74 0 -129 37.5t-82 101.5q-102 -17 -180.5 -53.5t-124.5 -82.5t-56 -91q-5 -36 29.5 -66.5t96.5 -48.5t135 -18q65 0 126.5 15t93.5 28l69 -144q-3 -2 -40.5 -24.5t-115 -42t-160.5 -19.5q-100 0 -182.5 34.5zM271 784l106 -106l-106 -107l-107 107z" />
    <glyph glyph-name="uni062E.init" unicode="&#x62e;" horiz-adv-x="680" arabic-form="initial" 
d="M-6 188h63q104 0 191.5 17.5t190.5 66.5q-23 10 -37 18q-37 19 -77.5 30t-71.5 11q-59 0 -103 -56l-103 77q81 161 211 161q43 0 83 -13.5t118 -54.5q57 -29 96.5 -43.5t88.5 -24.5l6 -170q-20 -6 -96 -47q-7 -4 -46 -25q-108 -57 -181.5 -85t-144.5 -38.5t-175 -11.5
h-13v188zM286 785l106 -106l-106 -107l-107 107z" />
    <glyph glyph-name="uni062E.medi" unicode="&#x62e;" horiz-adv-x="756" arabic-form="medial" 
d="M479 120q-97 -50 -166 -75t-138 -34.5t-168 -10.5h-13v188h63q104 0 191.5 17.5t190.5 66.5q-23 10 -37 18q-37 19 -77.5 30t-71.5 11q-59 0 -103 -56l-103 77q81 161 211 161q43 0 83 -13.5t118 -54.5q57 -29 96.5 -43.5t88.5 -24.5l6 -170q-15 -5 -24 -9q28 -10 59 -10
h76l10 -94l-10 -94h-11q-197 1 -271 120zM286 785l106 -106l-106 -107l-107 107z" />
    <glyph glyph-name="uni062F.fina" unicode="&#x62f;" horiz-adv-x="586" arabic-form="final" 
d="M501 16q-34 16 -61 48q-70 -70 -177 -70q-124 0 -243 85l64 131q31 -15 68.5 -26.5t91.5 -11.5q74 0 121 28l-133 302l124 67l137 -324q14 -34 31.5 -45.5t54.5 -11.5h13l10 -94l-10 -94h-13q-44 0 -78 16z" />
    <glyph glyph-name="uni0630.fina" unicode="&#x630;" horiz-adv-x="586" arabic-form="final" 
d="M501 16q-34 16 -61 48q-70 -70 -177 -70q-124 0 -243 85l64 131q31 -15 68.5 -26.5t91.5 -11.5q74 0 121 28l-133 302l124 67l137 -324q14 -34 31.5 -45.5t54.5 -11.5h13l10 -94l-10 -94h-13q-44 0 -78 16zM308 849l106 -106l-106 -107l-107 107z" />
    <glyph glyph-name="uni0631.fina" unicode="&#x631;" horiz-adv-x="431" arabic-form="final" 
d="M371 9q-12 -93 -89 -170t-203 -134l-79 157q67 30 123.5 65.5t90 66.5t33.5 49q0 40 -62 238l135 54q15 -39 23 -75q13 -39 31.5 -55.5t50.5 -16.5h11l10 -94l-10 -94h-11q-30 0 -54 9z" />
    <glyph glyph-name="uni0632.fina" unicode="&#x632;" horiz-adv-x="431" arabic-form="final" 
d="M371 9q-12 -93 -89 -170t-203 -134l-79 157q67 30 123.5 65.5t90 66.5t33.5 49q0 40 -62 238l135 54q15 -39 23 -75q13 -39 31.5 -55.5t50.5 -16.5h11l10 -94l-10 -94h-11q-30 0 -54 9zM234 633l106 -106l-106 -107l-107 107z" />
    <glyph glyph-name="uni0633.fina" unicode="&#x633;" horiz-adv-x="1298" arabic-form="final" 
d="M1164 67q-27 -31 -61 -48.5t-71 -18.5h-3h-1v0h-3q-43 1 -76.5 20t-55.5 54q-29 -37 -59.5 -55t-69.5 -19h-1h-1h-3q-27 2 -44 8q-8 -88 -55 -157t-123 -108t-169 -39t-167 34.5t-116.5 103t-42.5 166.5q0 24 1 36q8 96 71 233l115 -52q-28 -67 -40 -106t-12 -85
q0 -142 191 -142q64 0 114.5 20.5t79.5 55.5t29 76q0 46 -70 234l128 71q17 -41 27 -74q13 -35 23 -52.5t25.5 -26t43.5 -8.5q44 1 65 45q19 40 33 108l123 -5q-3 -17 -6.5 -45.5t-3.5 -44.5q0 -26 12.5 -42t37.5 -16q21 0 41 7.5t31 18.5q-13 67 -22 119l123 34
q11 -63 17.5 -93.5t13.5 -49.5q6 -18 21 -27t43 -9h6l10 -94l-10 -94h-6q-80 0 -133 67z" />
    <glyph glyph-name="uni0633.init" unicode="&#x633;" horiz-adv-x="778" arabic-form="initial" 
d="M474 20q-34 19 -56 54q-29 -37 -59.5 -55t-68.5 -19h-7q-40 0 -73.5 19.5t-50.5 52.5q-33 -35 -73.5 -53.5t-84.5 -18.5h-3l-10 94l10 94h5q27 0 55 11t41 26q34 36 53 112l123 -13q-2 -7 -11 -42t-9 -56q0 -38 32 -38h3q47 0 68 45q19 40 33 108l123 -5
q-3 -17 -6.5 -45.5t-3.5 -44.5q0 -26 12.5 -42t37.5 -16h1q23 0 39 14t16 32q0 34 -55 168l123 68q19 -39 40.5 -114t21.5 -131q0 -60 -23 -111.5t-65 -82.5t-95 -31h-5q-44 1 -78 20z" />
    <glyph glyph-name="uni0633.medi" unicode="&#x633;" horiz-adv-x="822" arabic-form="medial" 
d="M689 67q-27 -31 -61 -48.5t-71 -18.5h-3h-1v0h-3q-43 1 -76.5 20t-55.5 54q-29 -37 -59.5 -55t-68.5 -19h-7q-40 0 -73.5 19.5t-50.5 52.5q-33 -35 -73.5 -53.5t-84.5 -18.5h-3l-10 94l10 94h5q27 0 55 11t41 26q34 36 53 112l123 -13q-2 -7 -11 -42t-9 -56q0 -38 32 -38
h3q47 0 68 45q19 40 33 108l123 -5q-3 -17 -6.5 -45.5t-3.5 -44.5q0 -26 12.5 -42t37.5 -16q21 0 41 7.5t31 18.5q-13 67 -22 119l123 34q11 -63 17.5 -93.5t13.5 -49.5q6 -18 21 -27t43 -9h6l10 -94l-10 -94h-6q-80 0 -133 67z" />
    <glyph glyph-name="uni0634.fina" unicode="&#x634;" horiz-adv-x="1298" arabic-form="final" 
d="M1164 67q-27 -31 -61 -48.5t-71 -18.5h-3h-1v0h-3q-43 1 -76.5 20t-55.5 54q-29 -37 -59.5 -55t-69.5 -19h-1h-1h-3q-27 2 -44 8q-8 -88 -55 -157t-123 -108t-169 -39t-167 34.5t-116.5 103t-42.5 166.5q0 24 1 36q8 96 71 233l115 -52q-28 -67 -40 -106t-12 -85
q0 -142 191 -142q64 0 114.5 20.5t79.5 55.5t29 76q0 46 -70 234l128 71q17 -41 27 -74q13 -35 23 -52.5t25.5 -26t43.5 -8.5q44 1 65 45q19 40 33 108l123 -5q-3 -17 -6.5 -45.5t-3.5 -44.5q0 -26 12.5 -42t37.5 -16q21 0 41 7.5t31 18.5q-13 67 -22 119l123 34
q11 -63 17.5 -93.5t13.5 -49.5q6 -18 21 -27t43 -9h6l10 -94l-10 -94h-6q-80 0 -133 67zM822 620l88 -87l-88 -89l-88 89zM917 734l77 -77l-77 -78l-77 78zM1014 620l87 -87l-87 -89l-89 89z" />
    <glyph glyph-name="uni0634.init" unicode="&#x634;" horiz-adv-x="778" arabic-form="initial" 
d="M474 20q-34 19 -56 54q-29 -37 -59.5 -55t-68.5 -19h-7q-40 0 -73.5 19.5t-50.5 52.5q-33 -35 -73.5 -53.5t-84.5 -18.5h-3l-10 94l10 94h5q27 0 55 11t41 26q34 36 53 112l123 -13q-2 -7 -11 -42t-9 -56q0 -38 32 -38h3q47 0 68 45q19 40 33 108l123 -5
q-3 -17 -6.5 -45.5t-3.5 -44.5q0 -26 12.5 -42t37.5 -16h1q23 0 39 14t16 32q0 34 -55 168l123 68q19 -39 40.5 -114t21.5 -131q0 -60 -23 -111.5t-65 -82.5t-95 -31h-5q-44 1 -78 20zM349 656l88 -87l-88 -89l-88 89zM444 770l77 -77l-77 -78l-77 78zM541 656l87 -87
l-87 -89l-89 89z" />
    <glyph glyph-name="uni0634.medi" unicode="&#x634;" horiz-adv-x="822" arabic-form="medial" 
d="M689 67q-27 -31 -61 -48.5t-71 -18.5h-3h-1v0h-3q-43 1 -76.5 20t-55.5 54q-29 -37 -59.5 -55t-68.5 -19h-7q-40 0 -73.5 19.5t-50.5 52.5q-33 -35 -73.5 -53.5t-84.5 -18.5h-3l-10 94l10 94h5q27 0 55 11t41 26q34 36 53 112l123 -13q-2 -7 -11 -42t-9 -56q0 -38 32 -38
h3q47 0 68 45q19 40 33 108l123 -5q-3 -17 -6.5 -45.5t-3.5 -44.5q0 -26 12.5 -42t37.5 -16q21 0 41 7.5t31 18.5q-13 67 -22 119l123 34q11 -63 17.5 -93.5t13.5 -49.5q6 -18 21 -27t43 -9h6l10 -94l-10 -94h-6q-80 0 -133 67zM368 610l88 -87l-88 -89l-88 89zM463 724
l77 -77l-77 -78l-77 78zM560 610l87 -87l-87 -89l-89 89z" />
    <glyph glyph-name="uni0635.fina" unicode="&#x635;" horiz-adv-x="1307" arabic-form="final" 
d="M201 -261.5q-74 34.5 -116.5 103t-42.5 166.5q0 24 1 36q8 96 71 233l115 -52q-28 -67 -40 -106t-12 -85q0 -142 191 -142q64 0 114.5 20.5t79.5 55.5t29 76q0 31 -22 98t-36 101l127 71q11 -26 18 -46q21 -46 34 -62q74 133 167.5 207.5t186.5 74.5q60 0 107.5 -27
t74.5 -74.5t27 -107.5q0 -15 -1 -23q-3 -35 -14 -68h53l10 -94l-10 -94q-72 0 -123.5 3.5t-93.5 18.5q-97 -44 -231 -44q-84 0 -149 34q-7 -89 -54 -159t-123.5 -109.5t-170.5 -39.5q-93 0 -167 34.5zM878 159q78 0 140 19.5t96.5 46.5t34.5 49q0 14 -18.5 25t-50.5 11
q-59 0 -124 -38.5t-122 -110.5q30 -2 44 -2z" />
    <glyph glyph-name="uni0635.init" unicode="&#x635;" horiz-adv-x="887" arabic-form="initial" 
d="M-6 188h14q44 0 71 19.5t42 60.5t26 111l124 -26q-7 -47 -7 -73q0 -48 20 -74q75 133 167.5 207.5t185.5 74.5q61 0 108.5 -26.5t74.5 -74t27 -106.5q0 -93 -52 -161.5t-145 -104.5t-213 -36q-86 0 -148 28.5t-99 82.5q-65 -90 -182 -90h-14v188zM567.5 176.5
q71.5 17.5 112 45t42.5 51.5q1 14 -17.5 26.5t-50.5 12.5q-59 0 -124.5 -39t-123.5 -111q90 -3 161.5 14.5z" />
    <glyph glyph-name="uni0635.medi" unicode="&#x635;" horiz-adv-x="879" arabic-form="medial" 
d="M732 2.5q-49 2.5 -85 11.5q-91 -35 -210 -35q-86 0 -148 28.5t-99 82.5q-65 -90 -182 -90h-14v188h14q44 0 71 19.5t42 60.5t26 111l124 -26q-7 -47 -7 -73q0 -48 20 -74q75 133 167.5 207.5t185.5 74.5q61 0 108.5 -26.5t74.5 -74t27 -106.5q0 -16 -1 -24
q-3 -36 -15 -69h48h5l10 -94l-10 -94h-5q-98 0 -147 2.5zM567.5 176.5q71.5 17.5 112 45t42.5 51.5q1 14 -17.5 26.5t-50.5 12.5q-59 0 -124.5 -39t-123.5 -111q90 -3 161.5 14.5z" />
    <glyph glyph-name="uni0636.fina" unicode="&#x636;" horiz-adv-x="1307" arabic-form="final" 
d="M201 -261.5q-74 34.5 -116.5 103t-42.5 166.5q0 24 1 36q8 96 71 233l115 -52q-28 -67 -40 -106t-12 -85q0 -142 191 -142q64 0 114.5 20.5t79.5 55.5t29 76q0 31 -22 98t-36 101l127 71q11 -26 18 -46q21 -46 34 -62q74 133 167.5 207.5t186.5 74.5q60 0 107.5 -27
t74.5 -74.5t27 -107.5q0 -15 -1 -23q-3 -35 -14 -68h53l10 -94l-10 -94q-72 0 -123.5 3.5t-93.5 18.5q-97 -44 -231 -44q-84 0 -149 34q-7 -89 -54 -159t-123.5 -109.5t-170.5 -39.5q-93 0 -167 34.5zM878 159q78 0 140 19.5t96.5 46.5t34.5 49q0 14 -18.5 25t-50.5 11
q-59 0 -124 -38.5t-122 -110.5q30 -2 44 -2zM1022 778l106 -106l-106 -107l-107 107z" />
    <glyph glyph-name="uni0636.init" unicode="&#x636;" horiz-adv-x="887" arabic-form="initial" 
d="M-6 188h14q44 0 71 19.5t42 60.5t26 111l124 -26q-7 -47 -7 -73q0 -48 20 -74q75 133 167.5 207.5t185.5 74.5q61 0 108.5 -26.5t74.5 -74t27 -106.5q0 -93 -52 -161.5t-145 -104.5t-213 -36q-86 0 -148 28.5t-99 82.5q-65 -90 -182 -90h-14v188zM567.5 176.5
q71.5 17.5 112 45t42.5 51.5q1 14 -17.5 26.5t-50.5 12.5q-59 0 -124.5 -39t-123.5 -111q90 -3 161.5 14.5zM595 778l106 -106l-106 -107l-107 107z" />
    <glyph glyph-name="uni0636.medi" unicode="&#x636;" horiz-adv-x="879" arabic-form="medial" 
d="M732 2.5q-49 2.5 -85 11.5q-91 -35 -210 -35q-86 0 -148 28.5t-99 82.5q-65 -90 -182 -90h-14v188h14q44 0 71 19.5t42 60.5t26 111l124 -26q-7 -47 -7 -73q0 -48 20 -74q75 133 167.5 207.5t185.5 74.5q61 0 108.5 -26.5t74.5 -74t27 -106.5q0 -16 -1 -24
q-3 -36 -15 -69h48h5l10 -94l-10 -94h-5q-98 0 -147 2.5zM567.5 176.5q71.5 17.5 112 45t42.5 51.5q1 14 -17.5 26.5t-50.5 12.5q-59 0 -124.5 -39t-123.5 -111q90 -3 161.5 14.5zM595 778l106 -106l-106 -107l-107 107z" />
    <glyph glyph-name="uni0637.fina" unicode="&#x637;" horiz-adv-x="811" arabic-form="final" 
d="M203 181q14 28 33 58q1 16 1 55q0 98 -12 235t-23 206l155 35q8 -59 15 -156t8 -204q95 78 190 78q61 0 109 -26.5t75 -74.5t27 -108q0 -47 -16 -90q20 -1 64 -1l10 -94l-10 -94q-105 0 -156.5 2.5t-88.5 13.5q-94 -37 -214 -37q-88 0 -171.5 17t-156.5 50l52 171
q55 -24 109 -36zM502 177q72 18 112.5 46t40.5 52q0 14 -18 25.5t-49 11.5q-60 0 -125.5 -38.5t-123.5 -111.5q91 -3 163 15z" />
    <glyph glyph-name="uni0637.init" unicode="&#x637;" horiz-adv-x="708" arabic-form="initial" 
d="M81 188q19 37 41 74q1 16 1 53q0 94 -12 221.5t-24 198.5l155 35q9 -58 15.5 -147.5t7.5 -191.5q95 78 190 78q61 0 109 -26.5t75 -74t27 -107.5q0 -93 -52.5 -161t-145.5 -104t-212 -36h-261v188h86zM388 199q72 18 112 45.5t40 51.5q0 15 -17.5 26t-49.5 11
q-59 0 -124.5 -38.5t-123.5 -110.5q91 -3 163 15z" />
    <glyph glyph-name="uni0637.medi" unicode="&#x637;" horiz-adv-x="708" arabic-form="medial" 
d="M81 188q19 37 41 74q1 16 1 53q0 94 -12 221.5t-24 198.5l155 35q9 -58 15.5 -147.5t7.5 -191.5q95 78 190 78q61 0 109 -26.5t75 -74t27 -107.5q0 -58 -24 -112q19 -1 63 -1l10 -94l-10 -94q-120 0 -176 4t-94 21q-78 -25 -179 -25h-261v188h86zM388 199q72 18 112 45.5
t40 51.5q0 15 -17.5 26t-49.5 11q-59 0 -124.5 -38.5t-123.5 -110.5q91 -3 163 15z" />
    <glyph glyph-name="uni0638.fina" unicode="&#x638;" horiz-adv-x="811" arabic-form="final" 
d="M203 181q14 28 33 58q1 16 1 55q0 98 -12 235t-23 206l155 35q8 -59 15 -156t8 -204q95 78 190 78q61 0 109 -26.5t75 -74.5t27 -108q0 -47 -16 -90q20 -1 64 -1l10 -94l-10 -94q-105 0 -156.5 2.5t-88.5 13.5q-94 -37 -214 -37q-88 0 -171.5 17t-156.5 50l52 171
q55 -24 109 -36zM502 177q72 18 112.5 46t40.5 52q0 14 -18 25.5t-49 11.5q-60 0 -125.5 -38.5t-123.5 -111.5q91 -3 163 15zM570 797l106 -106l-106 -107l-107 107z" />
    <glyph glyph-name="uni0638.init" unicode="&#x638;" horiz-adv-x="708" arabic-form="initial" 
d="M81 188q19 37 41 74q1 16 1 53q0 94 -12 221.5t-24 198.5l155 35q9 -58 15.5 -147.5t7.5 -191.5q95 78 190 78q61 0 109 -26.5t75 -74t27 -107.5q0 -93 -52.5 -161t-145.5 -104t-212 -36h-261v188h86zM388 199q72 18 112 45.5t40 51.5q0 15 -17.5 26t-49.5 11
q-59 0 -124.5 -38.5t-123.5 -110.5q91 -3 163 15zM452 797l106 -106l-106 -107l-107 107z" />
    <glyph glyph-name="uni0638.medi" unicode="&#x638;" horiz-adv-x="708" arabic-form="medial" 
d="M81 188q19 37 41 74q1 16 1 53q0 94 -12 221.5t-24 198.5l155 35q9 -58 15.5 -147.5t7.5 -191.5q95 78 190 78q61 0 109 -26.5t75 -74t27 -107.5q0 -58 -24 -112q19 -1 63 -1l10 -94l-10 -94q-120 0 -176 4t-94 21q-78 -25 -179 -25h-261v188h86zM388 199q72 18 112 45.5
t40 51.5q0 15 -17.5 26t-49.5 11q-59 0 -124.5 -38.5t-123.5 -110.5q91 -3 163 15zM452 797l106 -106l-106 -107l-107 107z" />
    <glyph glyph-name="uni0639.fina" unicode="&#x639;" horiz-adv-x="625" arabic-form="final" 
d="M630 188l10 -94l-10 -94h-20q-158 0 -287 80q-147 -62 -152 -121q-3 -28 18 -53.5t63.5 -41.5t101.5 -16q103 0 183 35l70 -143q-43 -34 -112.5 -57t-140.5 -23q-85 0 -156.5 35.5t-113.5 98t-42 138.5q0 23 5 51q26 137 142 209q-43 44 -105 124l5 124q48 48 119 72.5
t147 24.5q93 0 164 -35t86 -97q4 -15 4 -33q0 -43 -23.5 -89.5t-66.5 -87.5q39 -7 91 -7h20zM349 262q52 23 79.5 46t35.5 41q-9 14 -34 21.5t-57 7.5t-64 -7.5t-55 -20.5q47 -55 95 -88z" />
    <glyph glyph-name="uni0639.init" unicode="&#x639;" horiz-adv-x="543" arabic-form="initial" 
d="M-5 188h12q43 0 64 1q-16 36 -16 86q0 65 32 123t86.5 93t117.5 35q52 0 102.5 -22.5t93.5 -59.5l-59 -125q-63 20 -120 20q-18 0 -27 -1q-27 -3 -50.5 -13.5t-37 -24t-13.5 -25.5q0 -17 17.5 -34t47 -27t62.5 -10q101 12 171 36l35 -166q-83 -33 -209.5 -53.5
t-296.5 -20.5h-12v188z" />
    <glyph glyph-name="uni0639.medi" unicode="&#x639;" horiz-adv-x="581" arabic-form="medial" 
d="M-5 188h31q57 0 94 4q-40 43 -85 100l5 125q48 48 119 72.5t146 24.5q94 0 165 -35t86 -97q4 -15 4 -34q0 -78 -76 -157q33 -3 67 -3h35l10 -94l-10 -94h-35q-83 0 -147 13t-120 44q-135 -57 -258 -57h-31v188zM320 239q67 34 95 87q-9 14 -34 21.5t-57 7.5t-64 -7.5
t-55 -20.5q57 -57 115 -88z" />
    <glyph glyph-name="uni063A.fina" unicode="&#x63a;" horiz-adv-x="625" arabic-form="final" 
d="M630 188l10 -94l-10 -94h-20q-158 0 -287 80q-147 -62 -152 -121q-3 -28 18 -53.5t63.5 -41.5t101.5 -16q103 0 183 35l70 -143q-43 -34 -112.5 -57t-140.5 -23q-85 0 -156.5 35.5t-113.5 98t-42 138.5q0 23 5 51q26 137 142 209q-43 44 -105 124l5 124q48 48 119 72.5
t147 24.5q93 0 164 -35t86 -97q4 -15 4 -33q0 -43 -23.5 -89.5t-66.5 -87.5q39 -7 91 -7h20zM343 781l106 -106l-106 -107l-107 107zM349 262q52 23 79.5 46t35.5 41q-9 14 -34 21.5t-57 7.5t-64 -7.5t-55 -20.5q47 -55 95 -88z" />
    <glyph glyph-name="uni063A.init" unicode="&#x63a;" horiz-adv-x="543" arabic-form="initial" 
d="M-5 188h12q43 0 64 1q-16 36 -16 86q0 65 32 123t86.5 93t117.5 35q52 0 102.5 -22.5t93.5 -59.5l-59 -125q-63 20 -120 20q-18 0 -27 -1q-27 -3 -50.5 -13.5t-37 -24t-13.5 -25.5q0 -17 17.5 -34t47 -27t62.5 -10q101 12 171 36l35 -166q-83 -33 -209.5 -53.5
t-296.5 -20.5h-12v188zM277 802l106 -106l-106 -107l-107 107z" />
    <glyph glyph-name="uni063A.medi" unicode="&#x63a;" horiz-adv-x="581" arabic-form="medial" 
d="M-5 188h31q57 0 94 4q-40 43 -85 100l5 125q48 48 119 72.5t146 24.5q94 0 165 -35t86 -97q4 -15 4 -34q0 -78 -76 -157q33 -3 67 -3h35l10 -94l-10 -94h-35q-83 0 -147 13t-120 44q-135 -57 -258 -57h-31v188zM297 778l106 -106l-106 -107l-107 107zM320 239
q67 34 95 87q-9 14 -34 21.5t-57 7.5t-64 -7.5t-55 -20.5q57 -57 115 -88z" />
    <glyph glyph-name="uni0641.fina" unicode="&#x641;" horiz-adv-x="905" arabic-form="final" 
d="M433 -14v1q-178 1 -280.5 59.5t-111.5 160.5q-1 8 -1 24q0 45 12 97.5t31 93.5l115 -54q-2 -7 -13.5 -51t-10.5 -70q4 -17 37 -34t93 -28t140 -11h2q34 0 50 1q-20 42 -20 85q0 10 2 30q10 63 39 114.5t71.5 81t91.5 29.5q57 0 98.5 -33.5t63 -86.5t21.5 -109
q0 -20 -3 -38q-4 -31 -15 -60h65l10 -94l-10 -94h-61q-90 0 -165 26q-94 -39 -238 -39zM691 788l106 -106l-106 -107l-107 107zM624.5 243q18.5 -20 48.5 -34q42 20 63 58q1 3 1 10q0 21 -14 41t-40 26q-4 1 -12 1q-27 0 -46.5 -20.5t-22.5 -43.5q4 -18 22.5 -38z" />
    <glyph glyph-name="uni0641.init" unicode="&#x641;" horiz-adv-x="489" arabic-form="initial" 
d="M-5 188h17q114 0 180 8t100 31q-11 -1 -34 -1q-75 0 -132.5 27t-81.5 79q-17 37 -17 87q0 60 26 119.5t72.5 97.5t102.5 38q60 0 111 -49t80.5 -131t29.5 -178q0 -150 -106.5 -233t-332.5 -83h-15v188zM203 940l106 -106l-106 -107l-107 107zM215 406q46 -10 101 -8
q-17 55 -45.5 89t-58.5 34q-27 0 -46 -23t-19 -46q0 -13 6 -19q16 -17 62 -27z" />
    <glyph glyph-name="uni0641.medi" unicode="&#x641;" horiz-adv-x="463" arabic-form="medial" 
d="M-5 188h24h33q-15 40 -15 72q0 15 3 30q10 63 39 114.5t71.5 81t91.5 29.5q57 0 98.5 -33.5t63 -86.5t21.5 -109q0 -20 -3 -38q-4 -29 -14 -60h63l10 -94l-10 -94h-60q-92 0 -174 29q-84 -29 -218 -29h-24v188zM231 788l106 -106l-106 -107l-107 107zM186 244
q18 -20 47 -34q45 18 65 57q1 3 1 10q0 21 -14 41t-40 26q-4 1 -12 1q-27 0 -46.5 -20.5t-22.5 -43.5q4 -17 22 -37z" />
    <glyph glyph-name="uni0642.fina" unicode="&#x642;" horiz-adv-x="751" arabic-form="final" 
d="M201 -261.5q-74 34.5 -116.5 103t-42.5 166.5q0 24 1 36q8 96 71 233l115 -52q-28 -67 -40 -106t-12 -85q0 -142 191 -142q78 0 136 30t78 78q-113 2 -182 25t-97 86q-18 39 -18 93q0 64 27 127t74.5 103t104.5 40q52 0 97.5 -37.5t77.5 -102.5t44 -146h46l10 -94
l-10 -94h-46q-17 -93 -64.5 -159.5t-119 -101.5t-158.5 -35q-93 0 -167 34.5zM405 728l87 -87l58 58l29 29l93 -93l-93 -94l-87 87l-58 -58l-29 -29l-94 94zM468 196.5q42 -6.5 111 -8.5q-15 48 -39 81t-50 40q-9 3 -16 3q-28 0 -47.5 -25t-19.5 -50q0 -11 6 -19
q13 -15 55 -21.5z" />
    <glyph glyph-name="uni0642.init" unicode="&#x642;" horiz-adv-x="489" arabic-form="initial" 
d="M-5 188h17q114 0 180 8t100 31q-11 -1 -34 -1q-75 0 -132.5 27t-81.5 79q-17 37 -17 87q0 60 26 119.5t72.5 97.5t102.5 38q60 0 111 -49t80.5 -131t29.5 -178q0 -150 -106.5 -233t-332.5 -83h-15v188zM135 903l87 -87l58 58l29 29l93 -93l-93 -94l-87 87l-58 -58
l-29 -29l-94 94zM215 406q46 -10 101 -8q-17 55 -45.5 89t-58.5 34q-27 0 -46 -23t-19 -46q0 -13 6 -19q16 -17 62 -27z" />
    <glyph glyph-name="uni0642.medi" unicode="&#x642;" horiz-adv-x="463" arabic-form="medial" 
d="M-5 188h24h33q-15 40 -15 72q0 15 3 30q10 63 39 114.5t71.5 81t91.5 29.5q57 0 98.5 -33.5t63 -86.5t21.5 -109q0 -20 -3 -38q-4 -29 -14 -60h63l10 -94l-10 -94h-60q-92 0 -174 29q-84 -29 -218 -29h-24v188zM149 760l87 -87l58 58l29 29l93 -93l-93 -94l-87 87
l-58 -58l-29 -29l-94 94zM186 244q18 -20 47 -34q45 18 65 57q1 3 1 10q0 21 -14 41t-40 26q-4 1 -12 1q-27 0 -46.5 -20.5t-22.5 -43.5q4 -17 22 -37z" />
    <glyph glyph-name="uni0643.fina" unicode="&#x643;" horiz-adv-x="955" arabic-form="final" 
d="M855 26q-41 26 -87 81q-40 -58 -120 -89t-181 -31l-40 -1v1q-175 1 -276 59.5t-110 160.5q-1 8 -1 24q0 45 12 97.5t31 93.5l115 -54q-2 -7 -13.5 -51t-10.5 -70q4 -17 37 -34t93 -28t140 -11h23q70 0 122 15.5t81 33.5q-35 56 -79.5 107.5t-129.5 121.5l15 159l375 156
l50 -149l-273 -115q31 -29 64 -67.5t58 -79.5q48 -70 80.5 -106t57 -49t53.5 -13h20l10 -94l-10 -94h-20q-45 0 -86 26z" />
    <glyph glyph-name="uni0643.init" unicode="&#x643;" horiz-adv-x="469" arabic-form="initial" 
d="M-5 188h40q73 0 127 10.5t76 24.5q-35 56 -79.5 107.5t-129.5 121.5l15 159l375 156l50 -149l-273 -115q53 -49 113 -128t60 -166q0 -16 -3 -31q-17 -89 -107.5 -133.5t-223.5 -44.5h-40v188z" />
    <glyph glyph-name="uni0643.medi" unicode="&#x643;" horiz-adv-x="521" arabic-form="medial" 
d="M421 26q-41 26 -87 80q-40 -53 -119 -79.5t-180 -26.5h-40v188h40q73 0 127 10.5t76 24.5q-35 56 -79.5 107.5t-129.5 121.5l15 159l375 156l50 -149l-273 -115q28 -25 69.5 -72t71.5 -106q41 -56 69.5 -85.5t51 -40.5t48.5 -11h20l10 -94l-10 -94h-20q-44 0 -85 26z" />
    <glyph glyph-name="uni0644.fina" unicode="&#x644;" horiz-adv-x="789" arabic-form="final" 
d="M670 33q-18 -141 -102.5 -220.5t-220.5 -79.5q-82 0 -151.5 33t-111.5 95t-42 146q0 11 2 37q6 58 26.5 120t43.5 114l116 -52q-26 -62 -38.5 -99.5t-14.5 -82.5q-2 -54 45.5 -88.5t124.5 -34.5q95 0 146 45.5t50 140.5q-2 139 -18 328t-33 300l155 35q20 -138 26 -494
q3 -40 11.5 -58t29.5 -24t68 -6h13l10 -94l-10 -94h-13q-68 0 -112 33z" />
    <glyph glyph-name="uni0644.init" unicode="&#x644;" horiz-adv-x="304" arabic-form="initial" 
d="M-5 188h30q47 0 69.5 17.5t22.5 52.5q0 67 -11 236t-21 241l155 35q7 -67 15.5 -244.5t8.5 -254.5q0 -74 -30.5 -136t-84.5 -98.5t-120 -36.5h-34v188z" />
    <glyph glyph-name="uni0644.medi" unicode="&#x644;" horiz-adv-x="307" arabic-form="medial" 
d="M225 20.5q-37 20.5 -65 56.5q-25 -37 -62 -57t-83 -20h-20v188h17q46 0 66 14t19 52q-1 42 -12 216t-20 263l155 35q6 -75 18 -361q6 -146 7 -154q2 -36 16.5 -50.5t39.5 -14.5h11l10 -94l-10 -94h-11q-39 0 -76 20.5z" />
    <glyph glyph-name="uni0645.fina" unicode="&#x645;" horiz-adv-x="662" arabic-form="final" 
d="M45.5 -194q-9.5 139 -9.5 260q0 45 1 66q1 47 23 83t59 54t83 14q37 86 94 134.5t114 48.5q64 0 105 -37.5t73 -118.5q29 -73 43 -97.5t29 -24.5h7l10 -94l-10 -94h-7q-26 0 -54 13t-51 37q-21 -27 -41 -39q-26 -17 -60 -17q-40 0 -103 23t-167 76q-1 -79 6.5 -176
t21.5 -241q5 -43 5 -52l-155 -36q-7 79 -16.5 218zM424.5 173q46.5 -16 78.5 -16q-3 9 -17 50.5t-34.5 66t-46.5 24.5q-17 0 -36 -16t-43 -60q52 -33 98.5 -49z" />
    <glyph glyph-name="uni0645.init" unicode="&#x645;" horiz-adv-x="576" arabic-form="initial" 
d="M-1 188h18q71 0 125 95q53 96 99 139.5t103 43.5q58 0 101.5 -37.5t66.5 -97t23 -124.5q0 -63 -22 -116t-65 -80q-28 -17 -62 -17q-80 0 -204 78q-31 -36 -74.5 -54t-93.5 -18h-19zM339.5 179.5q35.5 -15.5 52.5 -15.5q7 0 10 3q12 11 12 35q0 34 -20.5 65t-53.5 31
q-39 0 -79 -76q43 -27 78.5 -42.5z" />
    <glyph glyph-name="uni0645.medi" unicode="&#x645;" horiz-adv-x="603" arabic-form="medial" 
d="M-5 188h22q71 0 125 95q51 92 99.5 137.5t103.5 45.5q64 0 105 -38t73 -118q28 -73 42 -97.5t29 -24.5h14l10 -94l-10 -94h-14q-25 0 -53.5 13t-51.5 37q-18 -25 -41 -39q-28 -17 -62 -17q-78 0 -204 78q-62 -72 -168 -72h-19v188zM353 170q47 -15 77 -15q9 0 11 1
q-3 8 -18 50t-36.5 67t-46.5 25q-39 0 -80 -77q46 -36 93 -51z" />
    <glyph glyph-name="uni0646.fina" unicode="&#x646;" horiz-adv-x="767" arabic-form="final" 
d="M715 7q-8 -87 -55 -156t-123 -108t-169 -39t-167 34.5t-116.5 103t-42.5 166.5q0 24 1 36q8 96 71 233l115 -52q-28 -67 -40 -106t-12 -85q0 -142 191 -142q64 0 114.5 20.5t79.5 55.5t29 76q0 45 -70 234l128 71q20 -49 32 -88q16 -42 33 -57.5t50 -15.5h8l10 -94
l-10 -94h-8q-23 0 -49 7zM389 461l106 -106l-106 -107l-107 107z" />
    <glyph glyph-name="uni0646.init" unicode="&#x646;" horiz-adv-x="348" arabic-form="initial" 
d="M-5 188h53q125 0 125 49q0 15 -21.5 75t-33.5 90l128 70q19 -42 40 -116.5t21 -130.5q0 -110 -67 -167.5t-192 -57.5h-53v188zM145 709l106 -106l-106 -107l-107 107z" />
    <glyph glyph-name="uni0646.medi" unicode="&#x646;" horiz-adv-x="334" arabic-form="medial" 
d="M-5 188h5q79 1 110 17t33 54q-1 45 -11 98l124 23q14 -82 14 -167q6 -10 22 -17.5t42 -7.5h4l10 -94l-10 -94h-4q-39 0 -73.5 16.5t-61.5 44.5q-67 -61 -199 -61h-5v188zM129 656l106 -106l-106 -107l-107 107z" />
    <glyph glyph-name="uni0647.fina" unicode="&#x647;" horiz-adv-x="541" arabic-form="final" 
d="M441.5 16q-36.5 16 -63.5 50q-61 -19 -121 -19q-94 0 -154.5 46.5t-60.5 128.5q0 16 3 34q12 81 74.5 138.5t159.5 100.5q-2 23 -8 61l140 30q5 -34 12 -105l23 -184q7 -50 15 -72t22 -29.5t44 -7.5h21l10 -94l-10 -94h-21q-49 0 -85.5 16zM196.5 229q21.5 -11 56.5 -11
q31 0 65 10q-4 17 -7 44l-9 64q-52 -16 -89.5 -39t-37.5 -42q0 -15 21.5 -26z" />
    <glyph glyph-name="uni0647.init" unicode="&#x647;" horiz-adv-x="695" arabic-form="initial" 
d="M-4 188h16h46q-16 35 -16 70q0 24 7 48q15 52 36 92l-36 10l70 174q209 -59 328.5 -114.5t169 -112.5t49.5 -128q0 -46 -21 -112q-17 -54 -74 -81t-137 -27q-78 0 -161 25q-90 -32 -261 -32h-16v188zM196 242q22 -19 59 -34q70 19 78 58q4 26 -18 50t-53 31q-4 1 -13 1
q-29 0 -52 -18.5t-23 -48.5q0 -20 22 -39zM455 167q67 0 76 23q3 8 3 14q0 39 -92 80q0 -18 -3 -38q-8 -46 -20 -77q26 -2 36 -2z" />
    <glyph glyph-name="uni0647.medi" unicode="&#x647;" horiz-adv-x="488" arabic-form="medial" 
d="M-4 188h58q30 205 123 341l86 20q75 -40 122 -120.5t47 -165.5q0 -42 -10 -75h73l10 -94l-10 -94q-34 0 -50 1q19 -48 19 -89q0 -73 -52 -115q-47 -38 -114 -38q-54 0 -105 26.5t-89.5 81t-51.5 132.5h-10h-46v189zM282.5 222q35.5 19 35.5 41q0 21 -22.5 53t-53.5 45
q-19 -27 -35 -71.5t-25 -95.5q65 9 100.5 28zM241.5 -45.5q32.5 -21.5 69.5 -21.5q13 0 25 3q-3 23 -19.5 47t-68.5 45q-27 -9 -57 -15q18 -37 50.5 -58.5z" />
    <glyph glyph-name="uni0648.fina" unicode="&#x648;" horiz-adv-x="520" arabic-form="final" 
d="M240 -74q74 31 104 74q-108 3 -175 26t-94 85q-18 39 -18 93q0 64 27 127t74 103t105 40q52 0 97.5 -37.5t77.5 -102.5t44 -146h46l10 -94l-10 -94h-51q-30 -114 -130 -190.5t-253 -104.5l-59 162q131 28 205 59zM239 196.5q41 -6.5 111 -8.5q-14 48 -37.5 81t-50.5 40
q-9 3 -16 3q-28 0 -47.5 -25t-19.5 -50q0 -11 6 -19q13 -15 54 -21.5z" />
    <glyph glyph-name="uni0649.fina" unicode="&#x649;" horiz-adv-x="782" arabic-form="final" 
d="M201 -260.5q-74 34.5 -116.5 103t-42.5 166.5q0 24 1 37q8 95 70 232l116 -53q-28 -65 -40.5 -104t-12.5 -85q0 -74 49 -108.5t143 -34.5q74 0 135.5 19t89.5 46q-26 16 -81.5 41.5t-112.5 44.5l40 177q95 -18 159.5 -25.5t128.5 -7.5h60l10 -94l-10 -94h-60q-21 0 -31 1
q20 -30 20 -55q0 -53 -45.5 -109.5t-125 -94t-177.5 -37.5q-93 0 -167 34.5z" />
    <glyph glyph-name="uni064A.fina" unicode="&#x64a;" horiz-adv-x="782" arabic-form="final" 
d="M201 -260.5q-74 34.5 -116.5 103t-42.5 166.5q0 24 1 37q8 95 70 232l116 -53q-28 -65 -40.5 -104t-12.5 -85q0 -74 49 -108.5t143 -34.5q74 0 135.5 19t89.5 46q-26 16 -81.5 41.5t-112.5 44.5l40 177q95 -18 159.5 -25.5t128.5 -7.5h60l10 -94l-10 -94h-60q-21 0 -31 1
q20 -30 20 -55q0 -53 -45.5 -109.5t-125 -94t-177.5 -37.5q-93 0 -167 34.5z" />
    <glyph glyph-name="uni064A.init" unicode="&#x64a;" horiz-adv-x="395" arabic-form="initial" 
d="M-6 188h54q93 0 132.5 15t39.5 42q0 25 -55 157l127 70q20 -42 40.5 -112.5t20.5 -126.5q0 -112 -70 -172.5t-205 -60.5h-84v188zM5 -79l87 -87l58 58l29 29l94 -94l-94 -93l-87 87l-58 -58l-29 -29l-93 93z" />
    <glyph glyph-name="uni064A.medi" unicode="&#x64a;" horiz-adv-x="390" arabic-form="medial" 
d="M-4 188h5q78 0 121 7t60 22.5t18 41.5q-1 45 -11 98l124 23q14 -82 14 -167q6 -10 22 -17.5t42 -7.5h4l10 -94l-10 -94h-5q-38 0 -72.5 17t-61.5 45q-34 -32 -93.5 -47t-161.5 -15h-5v188zM-19 -79l87 -87l58 58l29 29l94 -94l-94 -93l-87 87l-58 -58l-29 -29l-93 93z
" />
    <glyph glyph-name=".notdef" horiz-adv-x="255" 
d="M38 429h179v-433h-179v433zM208 4v417h-161v-417h161z" />
    <glyph glyph-name=".null" 
 />
    <glyph glyph-name="nonmarkingreturn" unicode="&#xd;" horiz-adv-x="255" 
 />
    <glyph glyph-name="space" unicode=" " horiz-adv-x="140" 
 />
    <glyph glyph-name="exclam" unicode="!" horiz-adv-x="317" 
d="M223 255h-133l-21 486h175zM85.5 151.5q27.5 27.5 69.5 27.5t70.5 -27.5t28.5 -68.5q0 -42 -28.5 -70.5t-70.5 -28.5t-69.5 28.5t-27.5 70.5q0 41 27.5 68.5z" />
    <glyph glyph-name="quotedbl" unicode="&#x22;" horiz-adv-x="385" 
d="M379 671l-16 -202h-101v281h117v-79zM59 750h117v-79l-16 -202h-101v281z" />
    <glyph glyph-name="numbersign" unicode="#" horiz-adv-x="581" 
d="M299 200h-79l-32 -200h-98l33 200h-108v90h123l21 128h-108v90h123l34 203h96l-33 -203h79l33 203h97l-33 -203h113v-90h-128l-21 -128h111v-90h-126l-33 -200h-97zM313 290l22 128h-79l-21 -128h78z" />
    <glyph glyph-name="dollar" unicode="$" horiz-adv-x="579" 
d="M352 249q-13 16 -34.5 27t-63.5 29q-38 16 -57 25q-65 32 -98 77.5t-33 113.5q0 83 55.5 136.5t149.5 62.5v103h77v-105q90 -13 141 -73.5t51 -153.5h-165q0 51 -20 78.5t-56 27.5q-32 0 -50 -20.5t-18 -55.5q0 -37 21 -58q14 -15 34.5 -26t62.5 -29q45 -20 55 -25
q65 -34 98.5 -79.5t33.5 -114.5q0 -83 -53 -136t-145 -61v-98h-77v98q-107 11 -163.5 72.5t-56.5 163.5h164q0 -56 24.5 -85t70.5 -29q33 0 52 20t19 54q0 39 -19 61z" />
    <glyph glyph-name="percent" unicode="%" horiz-adv-x="742" 
d="M87 680.5q43 40.5 115 40.5q73 0 115.5 -40t42.5 -109v-35q0 -66 -42.5 -106t-114.5 -40q-73 0 -116 40t-43 109v34q0 66 43 106.5zM164 495q14 -16 39 -16q51 0 51 66v29q0 27 -14 42.5t-38 15.5t-38 -15.5t-14 -43.5v-36q0 -26 14 -42zM505 647l77 -38l-348 -556
l-76 39zM382 174q0 67 43 107t115 40q73 0 116 -39.5t43 -110.5v-34q0 -67 -42.5 -107t-115.5 -40q-72 0 -115.5 40t-43.5 109v35zM503 96.5q16 -17.5 38 -17.5q47 0 51 45l1 50q0 26 -14.5 42t-38.5 16q-23 0 -37.5 -15t-15.5 -40v-40q0 -23 16 -40.5z" />
    <glyph glyph-name="ampersand" unicode="&#x26;" horiz-adv-x="674" 
d="M105.5 455.5q-15.5 36.5 -15.5 73.5q0 57 25.5 100.5t71.5 67.5t105 24q53 0 95.5 -22.5t66.5 -61.5t24 -87q0 -90 -101 -161l-37 -26l110 -125q27 54 27 117h138q0 -145 -67 -230l109 -125h-184l-33 38q-42 -25 -84.5 -36.5t-95.5 -11.5q-70 0 -122.5 25t-81.5 70.5
t-29 105.5q0 50 26.5 90t98.5 94q-31 44 -46.5 80.5zM214.5 142q22.5 -25 56.5 -25q40 0 82 20l-128 145q-33 -36 -33 -80q0 -35 22.5 -60zM270 448l32 21q23 14 33 30t10 40q0 22 -15.5 38.5t-38.5 16.5q-27 0 -43 -17t-16 -46q0 -33 38 -83z" />
    <glyph glyph-name="quotesingle" unicode="'" horiz-adv-x="197" 
d="M157 671l-16 -202h-101v281h117v-79z" />
    <glyph glyph-name="parenleft" unicode="(" horiz-adv-x="456" 
d="M257 561q-69 -114 -69 -265q0 -159 67 -267.5t161 -190.5l-92 -109q-129 96 -209.5 240t-80.5 327q0 184 80.5 327.5t209.5 239.5l92 -109q-90 -79 -159 -193z" />
    <glyph glyph-name="parenright" unicode=")" horiz-adv-x="456" 
d="M341.5 623.5q80.5 -143.5 80.5 -327.5q0 -183 -80.5 -327t-209.5 -240l-92 109q94 82 161 190.5t67 267.5q0 151 -69 265t-159 193l92 109q129 -96 209.5 -239.5z" />
    <glyph glyph-name="asterisk" unicode="*" horiz-adv-x="465" 
d="M172 467l-159 44l31 92l156 -64l-12 172h104l-12 -175l151 62l32 -93l-161 -44l107 -129l-85 -58l-89 143l-90 -138l-84 55z" />
    <glyph glyph-name="plus" unicode="+" horiz-adv-x="534" 
d="M343 403h166v-141h-166v-191h-154v191h-167v141h167v186h154v-186z" />
    <glyph glyph-name="comma" unicode="," horiz-adv-x="324" 
d="M73.5 -75.5q13.5 41.5 14.5 77.5v147h158v-127q-1 -67 -35 -137t-86 -114l-100 47q35 65 48.5 106.5z" />
    <glyph glyph-name="hyphen" unicode="-" horiz-adv-x="450" 
d="M368 243h-294v127h294v-127z" />
    <glyph glyph-name="period" unicode="." horiz-adv-x="377" 
d="M110.5 24.5q-30.5 31.5 -30.5 79.5q0 45 30.5 75.5t77.5 30.5q46 0 77.5 -30.5t31.5 -75.5q0 -47 -31.5 -79t-77.5 -32q-47 0 -77.5 31.5z" />
    <glyph glyph-name="slash" unicode="/" horiz-adv-x="351" 
d="M103 -61h-117l243 772h117z" />
    <glyph glyph-name="zero" unicode="0" horiz-adv-x="497" 
d="M145.5 44.5q-42.5 25.5 -68 68t-25.5 92.5t25.5 92.5t68 67.5t91.5 25q50 0 93 -25t68.5 -67t25.5 -93q0 -50 -25.5 -92.5t-68.5 -68t-93 -25.5q-49 0 -91.5 25.5zM199.5 165.5q16.5 -17.5 37.5 -17.5q22 0 38.5 17t16.5 40t-16.5 39.5t-38.5 16.5q-21 0 -37.5 -17
t-16.5 -39t16.5 -39.5z" />
    <glyph glyph-name="one" unicode="1" horiz-adv-x="338" 
d="M132 96q0 156 -18 279q-23 171 -74 287l128 80q69 -137 89 -343q12 -115 12 -248q0 -73 -3 -151h-136q2 66 2 96z" />
    <glyph glyph-name="two" unicode="2" horiz-adv-x="567" 
d="M132 96q0 156 -18 279q-23 171 -74 287l128 80q22 -43 35 -82q15 -39 26.5 -59t32 -31.5t55.5 -11.5q88 0 88 112q0 19 -3 43l126 27q9 -43 9 -88q0 -74 -24.5 -138t-74 -102.5t-121.5 -38.5q-30 0 -58 11q10 -103 10 -233q0 -73 -3 -151h-136q2 66 2 96z" />
    <glyph glyph-name="three" unicode="3" horiz-adv-x="729" 
d="M502.5 593q13.5 -32 36.5 -32q14 0 23 14.5t9 45.5q0 37 -12 82l121 45q19 -67 19 -133t-20 -119t-56 -83t-83 -30q-64 0 -111 70q-22 -38 -52 -59.5t-67 -21.5q-29 0 -51 7q10 -103 10 -230q0 -71 -3 -149h-136q2 66 2 96q0 156 -18 279q-23 171 -74 287l128 80
q20 -41 33 -77q27 -64 45 -87t50 -23q26 0 45.5 23.5t19.5 72.5q0 14 -1 22v4l119 20q10 -72 23.5 -104z" />
    <glyph glyph-name="four" unicode="4" horiz-adv-x="706" 
d="M132 96q0 156 -18 279q-23 171 -74 287l128 80q34 -69 52 -138q6 -17 17 -39q22 78 84 129.5t139 51.5q97 0 199 -83l-59 -125q-66 21 -121 21t-91 -19.5t-34 -52.5q2 -21 38.5 -38.5t93.5 -17.5q70 0 149 29l36 -165q-109 -46 -210 -46q-112 0 -196 57q4 -67 4 -156
q0 -72 -3 -150h-136q2 66 2 96z" />
    <glyph glyph-name="five" unicode="5" horiz-adv-x="662" 
d="M88 428q40 85 97 161l-33 17l87 156q162 -105 274.5 -242.5t112.5 -301.5q0 -66 -20.5 -118.5t-58 -82t-85.5 -29.5q-34 0 -66 16.5t-57 52.5q-40 -69 -124 -69q-54 0 -94.5 29.5t-62 81.5t-21.5 118q0 30 2 45q9 81 49 166zM163 243q0 -34 16 -51t45 -17t44 26t16 63
l101 16q1 -44 15.5 -74.5t43.5 -30.5q59 0 59 72q0 67 -55 136t-147 134q-112 -115 -134 -239q-4 -17 -4 -35z" />
    <glyph glyph-name="six" unicode="6" horiz-adv-x="596" 
d="M187 279q-46 33 -71.5 88.5t-25.5 114.5q0 56 23 110.5t71 95.5t119 53q9 2 28 2q44 0 92 -18t76 -41l-59 -125q-3 1 -25 6.5t-55 5.5q-19 0 -40 -3q-32 -5 -55.5 -19.5t-36 -33t-12.5 -33.5q0 -9 12.5 -20t35 -19t50.5 -8q47 0 94 20q46 27 115 57l32 -181
q-118 -44 -227 -136.5t-167 -225.5l-119 59q48 141 145 251z" />
    <glyph glyph-name="seven" unicode="7" horiz-adv-x="666" 
d="M504 338.5q-77 -180.5 -109 -346.5h-124q-23 164 -101 342.5t-155 299.5l122 90q52 -78 103.5 -195t92.5 -253q41 137 92.5 254t103.5 194l122 -90q-70 -115 -147 -295.5z" />
    <glyph glyph-name="eight" unicode="8" horiz-adv-x="666" 
d="M162 358.5q77 180.5 109 346.5h124q23 -164 101 -342.5t155 -299.5l-122 -90q-52 78 -103.5 195t-92.5 253q-41 -137 -92.5 -254t-103.5 -194l-122 90q70 115 147 295.5z" />
    <glyph glyph-name="nine" unicode="9" horiz-adv-x="576" 
d="M351 93q-15 85 -24 182q-40 -9 -94 -9q-93 0 -143.5 58t-47.5 164q2 60 28 119.5t70.5 98t97.5 38.5q72 0 114 -49.5t59 -111.5t30 -146l3 -22q5 -27 8 -51.5t6 -43.5q14 -102 26 -169.5t28 -107.5l-128 -80q-18 45 -33 130zM182.5 462.5q17.5 -14.5 57.5 -14.5
q41 0 73 9q-8 50 -28.5 83.5t-53.5 33.5q-28 0 -47 -23.5t-19 -55.5q0 -18 17.5 -32.5z" />
    <glyph glyph-name="colon" unicode=":" horiz-adv-x="317" 
d="M80.5 340.5q-30.5 31.5 -30.5 78.5q0 45 30.5 75.5t77.5 30.5q46 0 77.5 -30.5t31.5 -75.5q0 -47 -31.5 -78.5t-77.5 -31.5q-47 0 -77.5 31.5zM80.5 172q30.5 30 77.5 30t78 -30t31 -76q0 -47 -31.5 -78.5t-77.5 -31.5q-47 0 -77.5 31.5t-30.5 78.5q0 46 30.5 76z" />
    <glyph glyph-name="semicolon" unicode=";" horiz-adv-x="348" 
d="M93.5 -75.5q13.5 41.5 14.5 77.5v147h158v-127q-1 -67 -35 -136.5t-86 -114.5l-99 47q34 65 47.5 106.5zM114.5 481.5q30.5 30.5 77.5 30.5q46 0 77.5 -30.5t31.5 -75.5q0 -47 -31.5 -79t-77.5 -32q-47 0 -77.5 32t-30.5 79q0 45 30.5 75.5z" />
    <glyph glyph-name="less" unicode="&#x3c;" horiz-adv-x="510" 
d="M187 297l267 -89v-150l-432 175v130l432 176v-149z" />
    <glyph glyph-name="equal" unicode="=" horiz-adv-x="585" 
d="M515 353h-452v126h452v-126zM63 265h452v-127h-452v127z" />
    <glyph glyph-name="greater" unicode="&#x3e;" horiz-adv-x="513" 
d="M320 299l-266 90v150l429 -176v-130l-429 -176v150z" />
    <glyph glyph-name="question" unicode="?" horiz-adv-x="509" 
d="M183.5 337q15.5 42 52.5 72q30 26 47 45q27 33 27 66q0 74 -63 74q-30 0 -48 -21.5t-19 -58.5h-165q1 98 61.5 152.5t170.5 54.5q108 0 168 -50.5t60 -143.5q0 -40 -16 -73.5t-52 -67.5l-56 -53q-23 -21 -32.5 -45.5t-10.5 -62.5h-140q0 70 15.5 112zM172.5 133.5
q26.5 26.5 66.5 26.5t67 -26.5t27 -65.5q0 -40 -27 -67.5t-67 -27.5t-66.5 27.5t-26.5 67.5q0 39 26.5 65.5z" />
    <glyph glyph-name="at" unicode="@" horiz-adv-x="896" 
d="M88.5 451.5q54.5 107.5 154 175t227.5 67.5q120 0 207.5 -48t134 -139.5t46.5 -221.5q0 -85 -28 -152t-78.5 -104.5t-116.5 -37.5q-31 0 -63.5 14t-51.5 50q-26 -32 -58 -47.5t-74 -15.5q-31 0 -63.5 17t-55 59.5t-22.5 111.5q0 21 1 33q5 64 34 126.5t80.5 103
t120.5 40.5q52 0 92 -15.5t63 -37.5l-25 -251q-2 -16 -2 -40q0 -40 12 -52t37 -12q45 0 72.5 52t27.5 152q0 158 -74.5 241.5t-215.5 83.5q-93 0 -168 -53t-117.5 -140.5t-42.5 -186.5q0 -170 69.5 -259t227.5 -93q37 -1 87 8t75 23l18 -81q-34 -20 -83.5 -31.5t-98.5 -11.5
q-215 0 -309 125.5t-94 325.5q0 114 54.5 221.5zM369 180q0 -56 15.5 -74.5t45.5 -21.5q21 -2 38 14t35 56l1 10l19 222q-16 6 -39 6q-48 0 -78 -50t-36 -129q-1 -12 -1 -33z" />
    <glyph glyph-name="A" unicode="A" horiz-adv-x="681" 
d="M458 133h-235l-41 -133h-183l260 711h161l263 -711h-184zM417 265l-77 247l-76 -247h153z" />
    <glyph glyph-name="B" unicode="B" horiz-adv-x="645" 
d="M54 0v711h255q137 0 208.5 -50.5t71.5 -145.5q0 -57 -25 -95.5t-75 -56.5q56 -15 85.5 -55t29.5 -98q0 -104 -66 -156.5t-196 -53.5h-288zM337 132q47 0 72 21t25 60q0 89 -89 89h-120v-170h112zM314 415q56 0 80 19.5t24 59.5q0 45 -25.5 65t-83.5 20h-84v-164h89z" />
    <glyph glyph-name="C" unicode="C" horiz-adv-x="656" 
d="M604.5 139.5q-24.5 -57.5 -90 -103t-179.5 -46.5q-93 0 -161 41t-104 120t-36 188v36q0 55 18 131t84 145t197 70q129 0 208 -68t89 -188h-171q-1 64 -31.5 93t-94.5 29t-94.5 -48.5t-30.5 -152.5v-50q0 -77 12.5 -123t40 -67t74.5 -21q60 0 91 28t32 88h171
q0 -44 -24.5 -101.5z" />
    <glyph glyph-name="D" unicode="D" horiz-adv-x="646" 
d="M54 0v711h229q95 0 170 -43.5t117 -120.5t42 -174v-33q0 -96 -41 -173.5t-114.5 -122t-168.5 -44.5h-234zM285 132q73 0 113 53t40 155v31q0 102 -40 155t-115 53h-58v-447h60z" />
    <glyph glyph-name="E" unicode="E" horiz-adv-x="560" 
d="M495 301h-270v-169h318v-132h-489v711h490v-132h-319v-150h270v-128z" />
    <glyph glyph-name="F" unicode="F" horiz-adv-x="547" 
d="M501 283h-276v-283h-171v711h475v-132h-304v-164h276v-132z" />
    <glyph glyph-name="G" unicode="G" horiz-adv-x="682" 
d="M519.5 16.5q-76.5 -26.5 -166.5 -26.5q-93 0 -163 38.5t-109 111.5t-40 173l-1 62q-2 92 31.5 171t102.5 127t169 48q133 0 206.5 -60.5t85.5 -181.5h-165q-9 59 -37.5 84.5t-83.5 25.5q-64 0 -99.5 -55t-35.5 -156v-43q0 -107 37 -160t114 -53q68 0 99 30v110h-119v118
h291v-292q-40 -45 -116.5 -71.5z" />
    <glyph glyph-name="H" unicode="H" horiz-adv-x="703" 
d="M648 0h-170v297h-253v-297h-171v711h171v-282h253v282h170v-711z" />
    <glyph glyph-name="I" unicode="I" horiz-adv-x="302" 
d="M236 0h-171v711h171v-711z" />
    <glyph glyph-name="J" unicode="J" horiz-adv-x="562" 
d="M337 711h171v-488q0 -64 -30.5 -117.5t-86 -84.5t-128.5 -31q-117 0 -181 58.5t-64 166.5h171q0 -49 17 -71t57 -22q35 0 54.5 26.5t19.5 74.5v488z" />
    <glyph glyph-name="K" unicode="K" horiz-adv-x="640" 
d="M295 265l-70 -77v-188h-171v711h171v-314l60 91l153 223h212l-240 -315l240 -396h-203z" />
    <glyph glyph-name="L" unicode="L" horiz-adv-x="542" 
d="M225 132h298v-132h-469v711h171v-579z" />
    <glyph glyph-name="M" unicode="M" horiz-adv-x="876" 
d="M279 711l159 -495l158 495h225v-711h-172v166l17 340l-172 -506h-113l-173 506l17 -340v-166h-171v711h225z" />
    <glyph glyph-name="N" unicode="N" horiz-adv-x="702" 
d="M647 0h-170l-252 442v-442h-171v711h171l252 -442v442h170v-711z" />
    <glyph glyph-name="O" unicode="O" horiz-adv-x="690" 
d="M617.5 157.5q-38.5 -79.5 -108.5 -123.5t-163 -44q-92 0 -163 43.5t-110 121t-39 175.5v40q0 100 36 179.5t106 125.5t169 46q93 0 163.5 -43.5t109 -122t38.5 -181.5v-33q0 -104 -38.5 -183.5zM243 179.5q35 -55.5 103 -55.5q65 0 100 55t35 159v33q0 105 -35 160
t-101 55t-101.5 -49t-35.5 -144v-52q0 -106 35 -161.5z" />
    <glyph glyph-name="P" unicode="P" horiz-adv-x="651" 
d="M225 241v-241h-171v711h283q83 0 145.5 -31.5t96.5 -86t34 -123.5t-33.5 -121t-96.5 -80t-149 -28h-109zM337 374q50 0 76 24.5t26 70.5q0 51 -26.5 80.5t-73.5 29.5h-114v-205h112z" />
    <glyph glyph-name="Q" unicode="Q" horiz-adv-x="690" 
d="M624.5 170q-32.5 -74 -90.5 -119l114 -91l-106 -90l-152 123q-22 -3 -43 -3q-93 0 -163.5 43t-109.5 121t-39 178v38q0 105 38.5 184.5t109 123t163.5 43.5q92 0 163 -44.5t109.5 -123.5t38.5 -179v-33q0 -97 -32.5 -171zM244 179.5q35 -55.5 103 -55.5q65 0 100 55
t35 159v33q0 105 -35 160t-101 55q-68 0 -102.5 -53.5t-34.5 -158.5v-33q0 -106 35 -161.5z" />
    <glyph glyph-name="R" unicode="R" horiz-adv-x="652" 
d="M318 251h-93v-251h-171v711h279q127 0 198.5 -56.5t71.5 -158.5q0 -74 -30.5 -123t-93.5 -79l148 -287v-7h-184zM333 383q48 0 73.5 26t25.5 72t-25.5 72t-73.5 26h-108v-196h108z" />
    <glyph glyph-name="S" unicode="S" horiz-adv-x="626" 
d="M394 248q-19 15 -44 25.5t-68 25.5q-59 19 -91 35q-138 68 -138 187q0 63 38 108.5t100.5 68.5t134.5 23q79 0 139.5 -28.5t93.5 -79t33 -113.5h-171q0 43 -26.5 67t-72.5 24q-45 0 -72 -20t-27 -51q0 -27 30 -50q19 -14 44.5 -25t67.5 -25q77 -27 112 -47
q115 -66 115 -183q0 -93 -70.5 -146.5t-192.5 -53.5q-79 0 -147 27t-109.5 81t-41.5 132h172q0 -57 30 -84t96 -27q42 0 66.5 18.5t24.5 51.5q0 38 -26 59z" />
    <glyph glyph-name="T" unicode="T" horiz-adv-x="630" 
d="M612 579h-214v-579h-171v579h-209v132h594v-132z" />
    <glyph glyph-name="U" unicode="U" horiz-adv-x="665" 
d="M611 711v-472q0 -116 -73.5 -182.5t-205.5 -66.5q-85 0 -148.5 30.5t-98 86.5t-34.5 132v472h173v-472q0 -58 27.5 -87.5t80.5 -29.5q108 0 108 117v472h171z" />
    <glyph glyph-name="V" unicode="V" horiz-adv-x="661" 
d="M314 250l16 -57l16 59l125 459h192l-240 -711h-187l-237 711h189z" />
    <glyph glyph-name="W" unicode="W" horiz-adv-x="869" 
d="M591 323l13 -58l10 58l72 388h170l-151 -711h-178l-75 323l-20 82l-19 -82l-74 -323h-177l-152 711h171l70 -388l11 -58l13 58l85 388h145z" />
    <glyph glyph-name="X" unicode="X" horiz-adv-x="638" 
d="M319 475l116 236h196l-199 -353l204 -358h-198l-119 241l-120 -241h-197l204 358l-199 353h196z" />
    <glyph glyph-name="Y" unicode="Y" horiz-adv-x="628" 
d="M314 402l131 309h185l-229 -456v-255h-174v255l-228 456h184z" />
    <glyph glyph-name="Z" unicode="Z" horiz-adv-x="610" 
d="M246 132h340v-132h-554v90l339 489h-341v132h553v-88z" />
    <glyph glyph-name="bracketleft" unicode="[" horiz-adv-x="282" 
d="M275 713h-57v-764h57v-119h-222v1003h222v-120z" />
    <glyph glyph-name="backslash" unicode="\" horiz-adv-x="351" 
d="M122 711l243 -772h-117l-243 772h117z" />
    <glyph glyph-name="bracketright" unicode="]" horiz-adv-x="282" 
d="M7 833h222v-1003h-222v119h58v764h-58v120z" />
    <glyph glyph-name="asciicircum" unicode="^" horiz-adv-x="447" 
d="M225 577l-84 -221h-123l146 355h121l147 -355h-124z" />
    <glyph glyph-name="underscore" unicode="_" horiz-adv-x="441" 
d="M441 -123h-441v123h441v-123z" />
    <glyph glyph-name="a" unicode="a" horiz-adv-x="531" 
d="M328 47q-45 -57 -127 -57q-49 0 -90 21t-65 57t-24 81q0 86 63.5 130t184.5 44h51v28q0 72 -63 72q-59 0 -59 -57h-164q0 50 29.5 89t82 61t119.5 22q101 0 159.5 -49.5t60.5 -134.5v-234q2 -74 22 -112v-8h-164q-9 16 -16 47zM202 121q15 -14 39 -14q28 0 49 12.5
t31 30.5v85h-48q-86 0 -86 -77q0 -23 15 -37z" />
    <glyph glyph-name="b" unicode="b" horiz-adv-x="563" 
d="M483 60.5q-54 -70.5 -151 -70.5q-81 0 -130 64l-7 -54h-148v750h165v-264q46 52 119 52q98 0 152 -71t54 -199v-8q0 -129 -54 -199.5zM290 117q48 0 65 36t17 117q0 75 -20 108t-63 33q-23 0 -45 -11.5t-32 -30.5v-210q21 -42 78 -42z" />
    <glyph glyph-name="c" unicode="c" horiz-adv-x="520" 
d="M323 136q19 19 19 52h154q0 -57 -28 -102t-79 -70.5t-116 -25.5q-115 0 -181.5 72.5t-66.5 200.5v7q0 76 27.5 136.5t83 96t136.5 35.5q103 0 163.5 -57t60.5 -155h-154q0 41 -20 63t-54 22q-40 0 -58 -32.5t-20 -106.5v-14q-1 -77 18 -109t62 -32q34 0 53 19z" />
    <glyph glyph-name="d" unicode="d" horiz-adv-x="563" 
d="M79.5 466q54.5 72 151.5 72q71 0 119 -56v268h165v-750h-148l-8 57q-51 -67 -129 -67q-95 0 -150 73.5t-55 204.5q0 126 54.5 198zM272 117q56 0 78 46v201q-23 47 -77 47q-75 0 -83 -123v-30q0 -141 82 -141z" />
    <glyph glyph-name="e" unicode="e" horiz-adv-x="544" 
d="M159.5 23q-61.5 33 -95.5 92t-34 136v14q0 82 30 143.5t87.5 95.5t136.5 34q112 0 176 -69.5t64 -192.5v-64h-327v-1q9 -44 39.5 -69t76.5 -25q79 0 122 55l75 -89q-31 -42 -87 -67.5t-121 -25.5q-81 0 -142.5 33zM363 315v13q0 40 -20.5 61.5t-59.5 21.5q-72 0 -86 -96
h166z" />
    <glyph glyph-name="f" unicode="f" horiz-adv-x="362" 
d="M83 0v414h-77v114h77v42q0 91 53 140.5t149 49.5q37 0 77 -10l1 -121q-13 4 -41 4q-74 0 -74 -64v-41h103v-114h-103v-414h-165z" />
    <glyph glyph-name="g" unicode="g" horiz-adv-x="575" 
d="M54 412q27 61 76.5 93.5t113.5 32.5q82 0 129 -56l5 46h150v-508q0 -35 -19.5 -87t-79.5 -96.5t-170 -44.5q-58 0 -112.5 22t-83.5 57l69 97q47 -54 121 -54q109 0 109 112v16q-46 -52 -119 -52q-64 0 -113 33.5t-76 95t-27 143.5v6q0 83 27 144zM216.5 154.5
q24.5 -37.5 68.5 -37.5q53 0 77 36v222q-24 36 -76 36q-45 0 -69.5 -39.5t-24.5 -113.5q0 -66 24.5 -103.5z" />
    <glyph glyph-name="h" unicode="h" horiz-adv-x="564" 
d="M342 538q87 0 131.5 -51.5t45.5 -153.5v-333h-165v330q0 43 -17 62t-58 19q-51 0 -72 -32v-379h-165v750h165v-278q53 66 135 66z" />
    <glyph glyph-name="i" unicode="i" horiz-adv-x="275" 
d="M220 0h-165v528h165v-528zM70.5 722.5q25.5 22.5 66.5 22.5q40 0 65.5 -22.5t25.5 -57.5q0 -36 -25.5 -58.5t-65.5 -22.5q-41 0 -66.5 22.5t-25.5 58.5q0 35 25.5 57.5z" />
    <glyph glyph-name="j" unicode="j" horiz-adv-x="270" 
d="M223 528v-546q0 -93 -53 -144t-149 -51q-38 0 -78 8v124q25 -4 47 -4q68 0 68 68v545h165zM71.5 722.5q25.5 22.5 66.5 22.5q40 0 65.5 -22.5t25.5 -57.5q0 -36 -25.5 -58.5t-65.5 -22.5q-41 0 -66.5 22.5t-25.5 58.5q0 35 25.5 57.5z" />
    <glyph glyph-name="k" unicode="k" horiz-adv-x="547" 
d="M258 197l-46 -47v-150h-165v750h165v-398l17 22l124 154h197l-185 -217l197 -311h-188z" />
    <glyph glyph-name="l" unicode="l" horiz-adv-x="275" 
d="M220 0h-165v750h165v-750z" />
    <glyph glyph-name="m" unicode="m" horiz-adv-x="861" 
d="M202 528l5 -62q56 72 151 72q100 0 135 -80q54 80 155 80q160 0 165 -194v-344h-165v333q0 42 -14 60t-49 18q-23 0 -40 -9q-18 -9 -33 -34l1 -7v-361h-165v333q0 42 -14 60t-50 18q-23 0 -40 -10q-19 -11 -32 -33v-368h-165v528h155z" />
    <glyph glyph-name="n" unicode="n" horiz-adv-x="564" 
d="M197 528l6 -62q54 72 151 72q164 0 165 -198v-340h-165v333q0 42 -16.5 60t-58.5 18q-48 0 -71 -38v-373h-165v528h154z" />
    <glyph glyph-name="o" unicode="o" horiz-adv-x="562" 
d="M50.5 402.5q28.5 61.5 87 98.5t142.5 37q78 0 135.5 -33t88.5 -95t31 -145v-6q0 -82 -31 -142.5t-88.5 -93.5t-134.5 -33q-113 0 -181.5 67.5t-73.5 183.5l-1 28q-3 72 25.5 133.5zM281 117q90 0 90 135v17q0 142 -91 142q-82 0 -90 -122v-30q0 -142 91 -142z" />
    <glyph glyph-name="p" unicode="p" horiz-adv-x="563" 
d="M512 118q-25 -61 -71.5 -94.5t-108.5 -33.5q-73 0 -120 53v-246h-165v731h154l5 -49q47 59 125 59q97 0 151.5 -72t54.5 -198v-8q0 -81 -25 -142zM291 117q80 0 81 136v18q0 140 -82 140q-58 0 -78 -42v-208q21 -44 79 -44z" />
    <glyph glyph-name="q" unicode="q" horiz-adv-x="562" 
d="M80 467q55 71 151 71q81 0 130 -66l12 56h142v-731h-165v247q-46 -54 -120 -54q-94 0 -149 70.5t-56 198.5v11q0 126 55 197zM272 117q57 0 78 43v209q-19 42 -77 42q-77 0 -83 -122v-30q0 -142 82 -142z" />
    <glyph glyph-name="r" unicode="r" horiz-adv-x="379" 
d="M312 383q-78 0 -100 -49v-334h-165v528h155l5 -68q42 78 116 78q27 0 46 -6l-3 -153q-15 4 -54 4z" />
    <glyph glyph-name="s" unicode="s" horiz-adv-x="512" 
d="M298 184q-25 12 -80 25q-90 20 -137 61t-47 101q0 48 27.5 86t76.5 59.5t113 21.5q69 0 121.5 -21.5t81 -60.5t28.5 -90h-165q0 64 -67 64q-25 0 -43 -14.5t-18 -36.5q0 -27 30.5 -40.5t87.5 -24.5q47 -11 55 -14q119 -41 119 -147q0 -47 -29 -84.5t-81.5 -58
t-119.5 -20.5q-60 0 -114 22t-87 63t-33 94h154q1 -35 23.5 -52.5t60.5 -17.5q33 0 50.5 13.5t17.5 35.5q0 24 -25 36z" />
    <glyph glyph-name="t" unicode="t" horiz-adv-x="343" 
d="M238 660v-132h87v-114h-87v-242q0 -30 11 -41.5t42 -11.5q25 0 41 3v-118q-45 -14 -93 -14q-85 0 -125.5 40t-40.5 122v262h-67v114h67v132h165z" />
    <glyph glyph-name="u" unicode="u" horiz-adv-x="564" 
d="M366 0l-5 57q-52 -67 -141 -67q-87 0 -132 50t-45 146v342h165v-343q0 -68 66 -68q57 0 80 41v370h166v-528h-154z" />
    <glyph glyph-name="v" unicode="v" horiz-adv-x="517" 
d="M257 196l83 332h174l-173 -528h-168l-172 528h174z" />
    <glyph glyph-name="w" unicode="w" horiz-adv-x="726" 
d="M208 284l13 -75l84 319h114l83 -311l11 67l43 244h157l-124 -528h-139l-73 260l-15 53l-15 -53l-73 -260h-139l-124 528h157z" />
    <glyph glyph-name="x" unicode="x" horiz-adv-x="515" 
d="M260 383l77 145h171l-139 -257l146 -271h-172l-83 156l-82 -156h-173l147 271l-139 257h173z" />
    <glyph glyph-name="y" unicode="y" horiz-adv-x="518" 
d="M257 230l6 21l82 277h176l-215 -616l-9 -23q-46 -102 -162 -102q-32 0 -68 9v118h21q35 0 52.5 10t27.5 36l14 35l-184 533h176z" />
    <glyph glyph-name="z" unicode="z" horiz-adv-x="515" 
d="M240 127h241v-127h-449v92l235 309h-225v127h434v-89z" />
    <glyph glyph-name="braceleft" unicode="{" horiz-adv-x="325" 
d="M99 51v97q0 99 -79 99v110q79 0 79 100v102q1 87 44.5 141.5t130.5 79.5l31 -86q-61 -24 -64 -131v-106q0 -110 -90 -155q90 -45 90 -155v-105q3 -109 64 -131l-31 -87q-175 49 -175 227z" />
    <glyph glyph-name="bar" unicode="|" horiz-adv-x="255" 
d="M174 -132h-90v843h90v-843z" />
    <glyph glyph-name="braceright" unicode="}" horiz-adv-x="325" 
d="M84 42v105q0 110 90 155q-90 45 -90 155v106q-3 107 -64 131l31 86q87 -25 130.5 -79.5t44.5 -141.5v-102q0 -100 79 -100v-110q-79 0 -79 -99v-97q0 -178 -175 -227l-31 87q61 22 64 131z" />
    <glyph glyph-name="asciitilde" unicode="~" horiz-adv-x="632" 
d="M539.5 236.5q-44.5 -57.5 -118.5 -57.5q-36 0 -65 15q-20 10 -57 42q-26 23 -43 34t-37 11q-24 0 -40.5 -24t-16.5 -59l-116 2q0 96 43.5 152t118.5 56q35 0 68 -14q14 -7 29.5 -19t28.5 -24q24 -22 40.5 -33t35.5 -11q25 0 41 24t16 60l117 -1q0 -96 -44.5 -153.5z" />
    <glyph glyph-name="uni00A0" unicode="&#xa0;" horiz-adv-x="140" 
 />
    <glyph glyph-name="brokenbar" unicode="&#xa6;" horiz-adv-x="256" 
d="M58 -132v388h143v-388h-143zM58 711h143v-370h-143v370z" />
    <glyph glyph-name="copyright" unicode="&#xa9;" horiz-adv-x="785" 
d="M212.5 39.5q-79.5 49.5 -125 133.5t-45.5 183q0 120 48 202.5t127 122.5t171 40q95 0 174.5 -44t126 -127t46.5 -194q0 -101 -47 -185t-127 -132.5t-173 -48.5q-96 0 -175.5 49.5zM138.5 203.5q37.5 -69.5 103.5 -111t146 -41.5t145.5 40.5t103.5 110.5t38 154
q0 86 -37.5 155.5t-103 109t-146.5 39.5q-75 0 -139.5 -28.5t-106 -97t-41.5 -180.5q0 -81 37.5 -150.5zM211 385q0 85 46.5 137t123.5 52q80 0 122 -40.5t42 -113.5h-76q0 46 -22 67t-66 21t-69 -32.5t-25 -88.5v-60q0 -57 24.5 -90t69.5 -33t66.5 20t21.5 67h76
q0 -74 -43 -113.5t-121 -39.5t-124 52t-46 140v55z" />
    <glyph glyph-name="guillemotleft" unicode="&#xab;" horiz-adv-x="489" 
d="M385 149q16 -35 54 -78l-70 -73q-52 48 -82 100t-30 121t30 121t82 100l70 -73q-38 -43 -54 -78t-16 -70t16 -70zM53 367.5q33 63.5 91 124.5l78 -90q-42 -54 -60 -97t-18 -86t18 -86t60 -97l-78 -90q-58 61 -91 124.5t-33 148.5t33 148.5z" />
    <glyph glyph-name="logicalnot" unicode="&#xac;" horiz-adv-x="549" 
d="M469 183h-98v127h-310v83h408v-210z" />
    <glyph glyph-name="registered" unicode="&#xae;" horiz-adv-x="785" 
d="M318 319v-165h-74v415h137q76 0 117.5 -34t41.5 -95q0 -53 -52 -83q27 -15 39 -42t12 -68q0 -35 1.5 -54.5t6.5 -30.5v-8h-76q-6 17 -6 95q0 37 -16 53.5t-54 16.5h-77zM90 558.5q48 82.5 127 122.5t171 40q95 0 174.5 -44t126 -127t46.5 -194q0 -101 -47 -185
t-127 -132.5t-173 -48.5q-96 0 -175.5 49.5t-125 133.5t-45.5 183q0 120 48 202.5zM138.5 203.5q37.5 -69.5 103.5 -111t146 -41.5t145.5 40.5t103.5 110.5t38 154q0 86 -37.5 155.5t-103 109t-146.5 39.5q-75 0 -139.5 -28.5t-106 -97t-41.5 -180.5q0 -81 37.5 -150.5z
M380 384q38 0 62.5 15.5t24.5 41.5q0 34 -18 48.5t-62 14.5h-69v-120h62z" />
    <glyph glyph-name="degree" unicode="&#xb0;" horiz-adv-x="397" 
d="M80 652.5q19 31.5 50.5 50t67.5 18.5t67 -18.5t49.5 -50t18.5 -69.5q0 -37 -18 -68t-49 -49t-68 -18t-68.5 18t-50 49t-18.5 68q0 38 19 69.5zM155 541q18 -18 43 -18q26 0 42.5 17.5t16.5 43.5t-16.5 44t-42.5 18t-43.5 -18t-17.5 -44q0 -25 18 -43z" />
    <glyph glyph-name="plusminus" unicode="&#xb1;" horiz-adv-x="538" 
d="M336 476h152v-133h-152v-170h-144v170h-151v133h151v155h144v-155zM49 129h429v-129h-429v129z" />
    <glyph glyph-name="uni00B2" unicode="&#xb2;" horiz-adv-x="375" 
d="M340 285h-306v72l139 123q23 20 36 41t13 32q0 37 -42 37q-21 0 -33 -14t-12 -36l-104 5q0 58 39 94.5t105 36.5q75 0 115.5 -31.5t40.5 -91.5q0 -36 -20 -67q-20 -30 -92 -82l-40 -34h161v-85z" />
    <glyph glyph-name="uni00B3" unicode="&#xb3;" horiz-adv-x="375" 
d="M135 516h43q50 0 50 40q0 16 -12.5 25t-34.5 9q-18 0 -31 -6.5t-13 -18.5h-109q0 50 41.5 80.5t107.5 30.5q75 0 117.5 -30t42.5 -81q0 -58 -67 -82q75 -19 75 -90q0 -50 -46 -81.5t-122 -31.5q-71 0 -114 33.5t-43 89.5h111q0 -15 15 -26t39 -11q25 0 37 11t12 28
q0 42 -53 42h-46v69z" />
    <glyph glyph-name="uni00B5" unicode="&#xb5;" horiz-adv-x="641" 
d="M229 528v-308q1 -54 18.5 -77.5t61.5 -23.5q62 0 88 44v365h165v-528h-155l-2 26q-43 -36 -103 -36q-42 0 -73 16v-209h-165v731h165z" />
    <glyph glyph-name="uni00B9" unicode="&#xb9;" horiz-adv-x="375" 
d="M265 285h-109v260l-86 -17v81l185 60h10v-384z" />
    <glyph glyph-name="guillemotright" unicode="&#xbb;" horiz-adv-x="489" 
d="M104 288.5q-16 34.5 -54 78.5l70 73q52 -48 82 -100t30 -121t-30 -121t-82 -100l-70 73q38 44 54 78.5t16 69.5t-16 69.5zM326.5 132.5q17.5 42.5 17.5 86.5t-17.5 86.5t-59.5 96.5l77 90q58 -60 91 -124t33 -149t-33 -149t-91 -124l-77 90q42 54 59.5 96.5z" />
    <glyph glyph-name="onequarter" unicode="&#xbc;" horiz-adv-x="821" 
d="M245 271h-109v260l-86 -17v81l185 60h10v-384zM540 647l77 -38l-347 -556l-77 39zM622 438h110v-221h39v-87h-39v-77h-110v77h-162l-8 70zM622 217v93l-8 -11l-59 -82h67z" />
    <glyph glyph-name="onehalf" unicode="&#xbd;" horiz-adv-x="871" 
d="M245 271h-109v260l-86 -17v81l185 60h10v-384zM540 647l77 -38l-347 -556l-77 39zM550.5 420q38.5 36 105.5 36q75 0 115.5 -31.5t40.5 -91.5q0 -37 -21 -67q-18 -29 -91 -82l-40 -34h161v-85h-306v72l139 123q23 21 36 41.5t13 31.5q0 37 -42 37q-21 0 -33 -14t-12 -36
l-104 5q0 59 38.5 95z" />
    <glyph glyph-name="threequarters" unicode="&#xbe;" horiz-adv-x="879" 
d="M165 502h43q50 0 50 40q0 16 -12.5 25t-34.5 9q-18 0 -31 -6.5t-13 -18.5h-109q0 50 41.5 80.5t107.5 30.5q75 0 117.5 -30t42.5 -81q0 -58 -67 -82q75 -19 75 -90q0 -50 -46.5 -81.5t-121.5 -31.5q-71 0 -114 33.5t-43 89.5h111q0 -14 15 -25.5t39 -11.5q25 0 37 11
t12 28q0 42 -53 42h-46v69zM603 647l77 -38l-347 -556l-77 39zM680 450h110v-221h39v-87h-39v-77h-110v77h-162l-8 70zM680 229v93l-8 -11l-59 -82h67z" />
    <glyph glyph-name="multiply" unicode="&#xd7;" horiz-adv-x="529" 
d="M26 186l146 149l-146 149l94 90l143 -146l143 146l94 -90l-146 -149l146 -149l-94 -89l-143 145l-143 -145z" />
    <glyph glyph-name="divide" unicode="&#xf7;" horiz-adv-x="569" 
d="M539 275h-510v119h510v-119zM217 192.5q25 22.5 66 22.5t66 -22t25 -57t-25 -58t-66 -23t-66 23t-25 57q0 35 25 57.5zM217 587.5q25 22.5 66 22.5t66 -22t25 -57t-25 -58t-66 -23t-66 23t-25 57q0 35 25 57.5z" />
    <glyph glyph-name="uni060C" unicode="&#x60c;" horiz-adv-x="333" 
d="M86 26q-36 39 -36 100q0 68 42 140.5t110 115.5l73 -69q-48 -39 -70 -65t-37 -50q6 2 13 2q42 0 72 -30t30 -75q0 -42 -31 -73.5t-73 -31.5q-57 -3 -93 36z" />
    <glyph glyph-name="uni0615" unicode="&#x615;" 
d="M37 550l17 25q0 29 -5.5 79t-11.5 86l62 13q7 -38 14 -114q39 31 77 31q43 0 66 -31t23 -68q0 -49 -41.5 -83t-125.5 -34q-32 0 -66 9.5t-61 22.5l23 71q7 -2 29 -7zM113 537q63 -3 86.5 7t23.5 25q0 9 -6.5 16t-20.5 7q-20 0 -44 -15t-46 -40h7z" />
    <glyph glyph-name="uni061B" unicode="&#x61b;" horiz-adv-x="333" 
d="M86.5 18.5q-30.5 31.5 -30.5 78.5q0 46 30.5 76t77.5 30t78 -30t31 -76q0 -47 -31.5 -78.5t-77.5 -31.5q-47 0 -77.5 31.5zM92 596q42 72 110 115l73 -69q-75 -61 -107 -115q6 2 13 2q42 0 72 -30t30 -74q0 -43 -31 -74.5t-73 -31.5q-57 -3 -93 36t-36 100q0 69 42 141z
" />
    <glyph glyph-name="uni061F" unicode="&#x61f;" horiz-adv-x="553" 
d="M222.5 12.5q-27.5 28.5 -27.5 70.5q0 41 27.5 68.5t69.5 27.5t70.5 -27.5t28.5 -68.5q0 -42 -28.5 -70.5t-70.5 -28.5t-69.5 28.5zM82.5 682q30.5 55 82.5 88.5t114 33.5q63 0 114 -33t79.5 -87.5t29.5 -117.5l-126 -16q-4 33 -26.5 66t-70.5 33q-37 0 -63 -25.5
t-26 -63.5q0 -18 5 -28t25.5 -27t83.5 -65q24 -18 34.5 -36t13 -45.5t2.5 -90.5v-21h-125v65l-63 56q-46 40 -68.5 65t-34 56t-11.5 77q0 61 30.5 116z" />
    <glyph glyph-name="uni0640" unicode="&#x640;" horiz-adv-x="198" 
d="M-5 188h209l10 -94l-10 -94h-209v188z" />
    <glyph glyph-name="uni064B" unicode="&#x64b;" 
d="M-5 520l225 67v-79l-225 -67v79zM-5 646l225 67v-79l-225 -67v79z" />
    <glyph glyph-name="uni064C" unicode="&#x64c;" 
d="M180 539q-31 8 -51 27t-25 50q-1 5 -1 14q0 27 14.5 51t37.5 38t47 14q12 0 25 -5q28 -11 42 -39.5t14 -65.5q0 -45 -20 -85q-23 -45 -78 -68.5t-116 -23.5l-20 68q91 4 131 25zM-9 636q0 67 97 152l40 -38q-34 -37 -49.5 -62t-15.5 -43q0 -14 8.5 -26.5t25.5 -28.5
l-46 -59q-60 52 -60 105zM179.5 609.5q16.5 -12.5 44.5 -12.5q1 5 1 14q0 22 -10.5 38.5t-25.5 16.5q-10 0 -18 -8.5t-8 -19.5q0 -16 16.5 -28.5z" />
    <glyph glyph-name="uni064D" unicode="&#x64d;" 
d="M-5 -222l225 67v-79l-225 -67v79zM-5 -96l225 67v-79l-225 -67v79z" />
    <glyph glyph-name="uni064E" unicode="&#x64e;" 
d="M-5 521l225 67v-79l-225 -67v79z" />
    <glyph glyph-name="uni064F" unicode="&#x64f;" 
d="M135 539q-31 8 -51 27t-25 50q-1 5 -1 14q0 27 14.5 51t37.5 38t47 14q12 0 25 -5q28 -11 42 -39.5t14 -65.5q0 -45 -20 -85q-23 -45 -78 -68.5t-116 -23.5l-20 68q91 4 131 25zM134.5 609.5q16.5 -12.5 44.5 -12.5q1 5 1 14q0 22 -10.5 38.5t-25.5 16.5q-10 0 -18 -8.5
t-8 -19.5q0 -16 16.5 -28.5z" />
    <glyph glyph-name="uni0650" unicode="&#x650;" 
d="M-5 -239l225 67v-79l-225 -67v79z" />
    <glyph glyph-name="uni0651" unicode="&#x651;" 
d="M17 527q0 -10 6 -15.5t16 -5.5q34 0 34 46q0 12 -1 19l53 9q4 -35 15.5 -50.5t26.5 -15.5q10 0 16 6t6 15q0 6 -3 13q-5 12 -14.5 29t-11.5 20l55 31q2 -4 12.5 -21t17 -36t6.5 -38q0 -42 -21.5 -69t-60.5 -27q-19 0 -36 8t-29 23q-11 -18 -28 -28t-37 -10
q-40 0 -61.5 23.5t-21.5 57.5q0 29 16 71l54 -19q-9 -18 -9 -36z" />
    <glyph glyph-name="uni0652" unicode="&#x652;" 
d="M113.5 643q22.5 -17 34.5 -44.5t12 -56.5q0 -42 -27 -73.5t-69 -31.5q-42 1 -66.5 34.5t-24.5 76.5q0 27 12.5 52.5t33.5 42t44 16.5q28 1 50.5 -16zM38.5 521q10.5 -11 25.5 -11q18 0 29.5 10.5t11.5 25.5q0 16 -12 28t-29 12q-15 0 -25.5 -12.5t-10.5 -27.5
q0 -14 10.5 -25z" />
    <glyph glyph-name="uni0653" unicode="&#x653;" 
d="M18.5 532.5q24.5 26.5 60.5 26.5q22 0 54 -13q30 -12 49 -12q17 0 31.5 9t22.5 17l47 -48q-18 -25 -44 -43.5t-57 -18.5q-23 0 -49 13q-28 12 -47 12q-20 0 -30.5 -10.5t-17.5 -25.5l-59 29q15 38 39.5 64.5z" />
    <glyph glyph-name="uni0654" unicode="&#x654;" 
d="M6 535l52 15q-13 17 -17 38q-2 7 -2 21q0 37 22.5 69t56.5 40q18 4 29 4q28 0 70 -15l-20 -79q-29 10 -51 10q-9 0 -13 -1q-15 -4 -22 -12t-7 -18q0 -9 9.5 -19t29.5 -10q3 0 17 2l70 21v-79l-224 -67v80z" />
    <glyph glyph-name="uni0655" unicode="&#x655;" 
d="M4 -223l52 15q-13 17 -17 38q-2 7 -2 21q0 37 22.5 69t56.5 40q18 4 29 4q28 0 70 -15l-20 -79q-29 10 -51 10q-9 0 -13 -1q-15 -4 -22 -12t-7 -18q0 -9 9.5 -19t29.5 -10q3 0 17 2l70 21v-79l-224 -67v80z" />
    <glyph glyph-name="uni0656" unicode="&#x656;" 
d="M77 -190q0 -61 -1 -90l-63 4q2 58 2 86q0 60 -3 107l62 6q3 -48 3 -113z" />
    <glyph glyph-name="uni0658" unicode="&#x658;" 
d="M49 643.5q-9 -27.5 -9 -50.5q0 -36 21 -54t69 -18q56 0 79.5 20.5t23.5 51.5q0 18 -7.5 56.5t-12.5 56.5l58 27q25 -78 25 -140q0 -37 -18 -72.5t-55.5 -59t-92.5 -23.5q-69 0 -111 43.5t-42 111.5q0 43 13.5 78.5t14.5 37.5l60 -26q-7 -12 -16 -39.5z" />
    <glyph glyph-name="uni065A" unicode="&#x65a;" 
d="M156 554q-20 -40 -34 -73l-55 -17q-11 31 -33 74t-41 72l51 50q11 -15 26 -47.5t22 -56.5q6 25 21.5 60.5t27.5 52.5l52 -48q-17 -27 -37 -67z" />
    <glyph glyph-name="uni065B" unicode="&#x65b;" 
d="M113.5 515.5q-15.5 35.5 -21.5 60.5q-7 -24 -22 -56.5t-26 -47.5l-51 50q19 29 41 72t33 74l55 -17q14 -33 34 -73t37 -67l-52 -48q-12 17 -27.5 52.5z" />
    <glyph glyph-name="uni0660" unicode="&#x660;" horiz-adv-x="497" 
d="M145.5 44.5q-42.5 25.5 -68 68t-25.5 92.5t25.5 92.5t68 67.5t91.5 25q50 0 93 -25t68.5 -67t25.5 -93q0 -50 -25.5 -92.5t-68.5 -68t-93 -25.5q-49 0 -91.5 25.5zM199.5 165.5q16.5 -17.5 37.5 -17.5q22 0 38.5 17t16.5 40t-16.5 39.5t-38.5 16.5q-21 0 -37.5 -17
t-16.5 -39t16.5 -39.5z" />
    <glyph glyph-name="uni0661" unicode="&#x661;" horiz-adv-x="338" 
d="M132 96q0 156 -18 279q-23 171 -74 287l128 80q69 -137 89 -343q12 -115 12 -248q0 -73 -3 -151h-136q2 66 2 96z" />
    <glyph glyph-name="uni0662" unicode="&#x662;" horiz-adv-x="567" 
d="M132 96q0 156 -18 279q-23 171 -74 287l128 80q22 -43 35 -82q15 -39 26.5 -59t32 -31.5t55.5 -11.5q88 0 88 112q0 19 -3 43l126 27q9 -43 9 -88q0 -74 -24.5 -138t-74 -102.5t-121.5 -38.5q-30 0 -58 11q10 -103 10 -233q0 -73 -3 -151h-136q2 66 2 96z" />
    <glyph glyph-name="uni0663" unicode="&#x663;" horiz-adv-x="729" 
d="M502.5 593q13.5 -32 36.5 -32q14 0 23 14.5t9 45.5q0 37 -12 82l121 45q19 -67 19 -133t-20 -119t-56 -83t-83 -30q-64 0 -111 70q-22 -38 -52 -59.5t-67 -21.5q-29 0 -51 7q10 -103 10 -230q0 -71 -3 -149h-136q2 66 2 96q0 156 -18 279q-23 171 -74 287l128 80
q20 -41 33 -77q27 -64 45 -87t50 -23q26 0 45.5 23.5t19.5 72.5q0 14 -1 22v4l119 20q10 -72 23.5 -104z" />
    <glyph glyph-name="uni0664" unicode="&#x664;" horiz-adv-x="706" 
d="M132 96q0 156 -18 279q-23 171 -74 287l128 80q34 -69 52 -138q6 -17 17 -39q22 78 84 129.5t139 51.5q97 0 199 -83l-59 -125q-66 21 -121 21t-91 -19.5t-34 -52.5q2 -21 38.5 -38.5t93.5 -17.5q70 0 149 29l36 -165q-109 -46 -210 -46q-112 0 -196 57q4 -67 4 -156
q0 -72 -3 -150h-136q2 66 2 96z" />
    <glyph glyph-name="uni0665" unicode="&#x665;" horiz-adv-x="662" 
d="M88 428q40 85 97 161l-33 17l87 156q162 -105 274.5 -242.5t112.5 -301.5q0 -66 -20.5 -118.5t-58 -82t-85.5 -29.5q-34 0 -66 16.5t-57 52.5q-40 -69 -124 -69q-54 0 -94.5 29.5t-62 81.5t-21.5 118q0 30 2 45q9 81 49 166zM163 243q0 -34 16 -51t45 -17t44 26t16 63
l101 16q1 -44 15.5 -74.5t43.5 -30.5q59 0 59 72q0 67 -55 136t-147 134q-112 -115 -134 -239q-4 -17 -4 -35z" />
    <glyph glyph-name="uni0666" unicode="&#x666;" horiz-adv-x="596" 
d="M187 279q-46 33 -71.5 88.5t-25.5 114.5q0 56 23 110.5t71 95.5t119 53q9 2 28 2q44 0 92 -18t76 -41l-59 -125q-3 1 -25 6.5t-55 5.5q-19 0 -40 -3q-32 -5 -55.5 -19.5t-36 -33t-12.5 -33.5q0 -9 12.5 -20t35 -19t50.5 -8q47 0 94 20q46 27 115 57l32 -181
q-118 -44 -227 -136.5t-167 -225.5l-119 59q48 141 145 251z" />
    <glyph glyph-name="uni0667" unicode="&#x667;" horiz-adv-x="666" 
d="M504 346.5q-77 -180.5 -109 -346.5h-124q-23 164 -101 342.5t-155 299.5l122 90q52 -78 103.5 -195t92.5 -253q41 137 92.5 254t103.5 194l122 -90q-70 -115 -147 -295.5z" />
    <glyph glyph-name="uni0668" unicode="&#x668;" horiz-adv-x="666" 
d="M162 358.5q77 180.5 109 346.5h124q23 -164 101 -342.5t155 -299.5l-122 -90q-52 78 -103.5 195t-92.5 253q-41 -137 -92.5 -254t-103.5 -194l-122 90q70 115 147 295.5z" />
    <glyph glyph-name="uni0669" unicode="&#x669;" horiz-adv-x="576" 
d="M351 93q-15 85 -24 182q-40 -9 -94 -9q-93 0 -143.5 58t-47.5 164q2 60 28 119.5t70.5 98t97.5 38.5q72 0 114 -49.5t59 -111.5t30 -146l3 -22q5 -27 8 -51.5t6 -43.5q14 -102 26 -169.5t28 -107.5l-128 -80q-18 45 -33 130zM182.5 462.5q17.5 -14.5 57.5 -14.5
q41 0 73 9q-8 50 -28.5 83.5t-53.5 33.5q-28 0 -47 -23.5t-19 -55.5q0 -18 17.5 -32.5z" />
    <glyph glyph-name="uni066A" unicode="&#x66a;" horiz-adv-x="587" 
d="M131 711l106 -106l-106 -107l-107 107zM355 739h160l-291 -767h-158zM459 199l106 -106l-106 -107l-107 107z" />
    <glyph glyph-name="uni066B" unicode="&#x66b;" horiz-adv-x="407" 
d="M31 -29l217 496h137l-217 -496h-137z" />
    <glyph glyph-name="uni066C" unicode="&#x66c;" horiz-adv-x="271" 
d="M96 107h152q-18 -36 -57.5 -118t-57.5 -120h-110z" />
    <glyph glyph-name="uni066D" unicode="&#x66d;" horiz-adv-x="790" 
d="M259 516l65 -172l-172 65l1 107h106zM127 348l167 -75l-167 -76l-75 77zM152 136l172 65l-66 -172l-106 2v105zM395 171l75 -167l-76 -75l-75 75zM341.5 326q22.5 22 53.5 22t53.5 -22.5t22.5 -53.5q0 -32 -22.5 -53.5t-53.5 -21.5q-32 0 -54 21.5t-22 53.5t22.5 54z
M396 615l75 -74l-76 -168l-75 168zM638 136l-1 -107h-106l-65 172zM532 515l106 -1v-105l-171 -65zM663 348l75 -77l-75 -74l-167 75z" />
    <glyph glyph-name="uni066E" unicode="&#x66e;" horiz-adv-x="878" 
d="M230 13.5q-87 26.5 -135 76t-54 117.5q-1 8 -1 24q0 45 12 97.5t31 93.5l115 -54q-2 -7 -13.5 -51t-10.5 -70q4 -17 36.5 -34t91.5 -28t137 -11q90 0 151 8t92.5 16.5t31.5 10.5q-10 52 -30 107t-34 86l127 70q28 -60 44.5 -125t16.5 -122q0 -122 -109 -180t-293 -58
q-119 0 -206 26.5z" />
    <glyph glyph-name="uni066F" unicode="&#x66f;" horiz-adv-x="759" 
d="M201 -261.5q-74 34.5 -116.5 103t-42.5 166.5q0 24 1 36q8 96 71 233l115 -52q-28 -67 -40 -106t-12 -85q0 -142 191 -142q79 0 137.5 31t77.5 79q-27 -4 -58 -4q-78 0 -137.5 29t-84.5 84q-18 42 -18 92q0 64 27 127t74.5 103.5t104.5 40.5q62 0 114 -51.5t82.5 -139
t30.5 -188.5q0 -121 -45 -209.5t-124.5 -135t-180.5 -46.5q-93 0 -167 34.5zM478 189.5q47 -10.5 103 -7.5q-17 57 -46.5 93t-60.5 36q-27 0 -46.5 -24.5t-19.5 -48.5q0 -12 6 -20q17 -18 64 -28.5z" />
    <glyph glyph-name="uni0670" unicode="&#x670;" 
d="M69 570q0 -61 -1 -90l-63 4q2 58 2 86q0 61 -3 107l62 6q3 -48 3 -113z" />
    <glyph glyph-name="uni0688" unicode="&#x688;" horiz-adv-x="549" 
d="M20 79l64 131q34 -15 72 -26.5t88 -11.5q53 1 87.5 10t47.5 20q-27 98 -210 218l89 165q119 -80 190 -182.5t71 -197.5q0 -42 -17 -84q-26 -62 -93 -94.5t-146 -32.5q-139 0 -243 85zM121 747q7 -2 29 -7l17 25q0 29 -5.5 79t-11.5 86l62 13q7 -38 14 -114q39 31 77 31
q43 0 66 -31t23 -68q0 -49 -41.5 -83t-125.5 -34q-32 0 -66 9.5t-61 22.5zM226 727q63 -3 86.5 7t23.5 25q0 9 -6.5 16t-20.5 7q-20 0 -44 -15t-46 -40h7z" />
    <glyph glyph-name="uni0691" unicode="&#x691;" horiz-adv-x="414" 
d="M123.5 -72.5q56.5 35.5 90 66.5t33.5 49q0 40 -62 238l135 54q25 -69 39 -146.5t14 -145.5q0 -104 -78 -190t-216 -148l-79 157q67 30 123.5 65.5zM120 495q7 -2 29 -7l17 25q0 29 -5.5 79t-11.5 86l62 13q7 -38 14 -114q39 31 77 31q43 0 66 -31t23 -68q0 -49 -41.5 -83
t-125.5 -34q-32 0 -66 9.5t-61 22.5zM225 475q63 -3 86.5 7t23.5 25q0 9 -6.5 16t-20.5 7q-20 0 -44 -15t-46 -40h7z" />
    <glyph glyph-name="uni0695" unicode="&#x695;" horiz-adv-x="414" 
d="M123.5 -72.5q56.5 35.5 90 66.5t33.5 49q0 40 -62 238l135 54q25 -69 39 -146.5t14 -145.5q0 -104 -78 -190t-216 -148l-79 157q67 30 123.5 65.5zM99 -327q11 -15 26 -47.5t22 -56.5q6 25 21.5 60.5t27.5 52.5l52 -48q-17 -27 -37 -67t-34 -73l-55 -17q-11 31 -33 74
t-41 72z" />
    <glyph glyph-name="uni06A1" unicode="&#x6a1;" horiz-adv-x="927" 
d="M446 -14l-2 9v-8q-121 -1 -210 25.5t-138 76t-55 118.5q-1 8 -1 24q0 45 12 97.5t31 93.5l115 -54q-2 -7 -13.5 -51t-10.5 -70q4 -17 37 -34t93 -28t140 -11h6q111 1 180.5 13t103.5 40q-24 -2 -37 -2q-75 0 -132.5 27.5t-82.5 79.5q-17 37 -17 87q0 60 26 119.5
t72.5 97.5t102.5 38q60 0 111 -49t80.5 -131t29.5 -178q0 -152 -107 -240t-332 -89zM653 406q46 -10 101 -8q-17 55 -45.5 89t-58.5 34q-27 0 -46 -23t-19 -46q0 -13 6 -19q16 -17 62 -27z" />
    <glyph glyph-name="uni06B5" unicode="&#x6b5;" horiz-adv-x="715" 
d="M195.5 -234q-69.5 33 -111.5 95t-42 146q0 11 2 37q6 58 26.5 120t43.5 114l116 -52q-26 -62 -38.5 -99.5t-14.5 -82.5q-2 -54 45.5 -88.5t124.5 -34.5q95 0 146 45.5t50 140.5q-2 139 -18 328t-33 300l155 35q13 -93 20.5 -285t7.5 -376q0 -115 -39.5 -200t-113 -130.5
t-175.5 -45.5q-82 0 -151.5 33zM510 991q11 -15 26 -47.5t22 -56.5q6 25 21.5 60.5t27.5 52.5l52 -48q-17 -27 -37 -67t-34 -73l-55 -17q-11 31 -33 74t-41 72z" />
    <glyph glyph-name="uni06BA" unicode="&#x6ba;" horiz-adv-x="747" 
d="M189 119q-12 -39 -12 -85q0 -142 191 -142q64 0 114.5 20.5t79.5 55.5t29 76q0 45 -70 234l128 71q33 -79 50.5 -158.5t17.5 -146.5q0 -96 -45.5 -174t-125 -122t-178.5 -44q-93 0 -167 34.5t-116.5 103t-42.5 166.5q0 24 1 36q8 96 71 233l115 -52q-28 -67 -40 -106z
" />
    <glyph glyph-name="uni06C1" unicode="&#x6c1;" horiz-adv-x="505" 
d="M97 47.5q-54 52.5 -54 138.5q0 37 10 76q20 79 79 154q-15 11 -33 21l96 140q281 -170 281 -358q0 -66 -29 -117t-80 -79t-114 -28q-102 0 -156 52.5zM192 192q26 -14 74 -14q34 0 57.5 11t28.5 28q-22 53 -115 125q-71 -68 -71 -110q0 -26 26 -40z" />
    <glyph glyph-name="uni06C2" unicode="&#x6c2;" horiz-adv-x="505" 
d="M97 47.5q-54 52.5 -54 138.5q0 37 10 76q20 79 79 154q-15 11 -33 21l96 140q281 -170 281 -358q0 -66 -29 -117t-80 -79t-114 -28q-102 0 -156 52.5zM104 703l52 15q-13 17 -17 38q-2 7 -2 21q0 37 22.5 69t56.5 40q18 4 29 4q28 0 70 -15l-20 -79q-29 10 -51 10
q-9 0 -13 -1q-15 -4 -22 -12t-7 -18q0 -9 9.5 -19t29.5 -10q3 0 17 2l70 21v-79l-224 -67v80zM192 192q26 -14 74 -14q34 0 57.5 11t28.5 28q-22 53 -115 125q-71 -68 -71 -110q0 -26 26 -40z" />
    <glyph glyph-name="uni06C3" unicode="&#x6c3;" horiz-adv-x="505" 
d="M97 47.5q-54 52.5 -54 138.5q0 37 10 76q20 79 79 154q-15 11 -33 21l96 140q281 -170 281 -358q0 -66 -29 -117t-80 -79t-114 -28q-102 0 -156 52.5zM172 811l87 -87l58 58l29 29l93 -93l-93 -94l-87 87l-58 -58l-29 -29l-94 94zM192 192q26 -14 74 -14q34 0 57.5 11
t28.5 28q-22 53 -115 125q-71 -68 -71 -110q0 -26 26 -40z" />
    <glyph glyph-name="uni06C9" unicode="&#x6c9;" horiz-adv-x="531" 
d="M241 -73q74 31 104 74q-25 -3 -50 -3q-77 0 -136.5 29t-83.5 84q-18 39 -18 93q0 64 27 127t74 103t105 40q62 0 114 -52t82 -139t30 -189q0 -100 -47.5 -180t-136.5 -133.5t-211 -75.5l-59 162q132 29 206 60zM169 647q22 43 33 74l55 -17q14 -33 34 -73t37 -67l-52 -48
q-12 17 -27.5 52.5t-21.5 60.5q-7 -24 -22 -56.5t-26 -47.5l-51 50q19 29 41 72zM249 190.5q47 -10.5 103 -9.5q-16 58 -45.5 94t-60.5 36q-28 0 -47.5 -24.5t-19.5 -49.5q0 -11 6 -19q17 -17 64 -27.5z" />
    <glyph glyph-name="uni06CE" unicode="&#x6ce;" horiz-adv-x="793" 
d="M201 -210.5q-74 34.5 -116.5 103t-42.5 167.5q0 24 1 36q8 95 70 232l116 -52q-29 -68 -41 -106t-12 -84q0 -74 49 -108.5t143 -34.5q70 0 132.5 18t94.5 53q-68 12 -114 25q-80 24 -114 59.5t-34 102.5q0 86 43 165t114 128t149 49q32 0 66 -10t44 -23l-52 -163
q-29 8 -53 8q-57 3 -107.5 -25.5t-67.5 -75.5q-1 -3 -1 -8q0 -15 25 -26.5t90 -24.5q94 -19 126 -56t32 -85q0 -80 -50 -148.5t-136 -109.5t-187 -41q-93 0 -167 34.5zM193 599q11 -15 26 -47.5t22 -56.5q6 25 21.5 60.5t27.5 52.5l52 -48q-17 -27 -37 -67t-34 -73l-55 -17
q-11 31 -33 74t-41 72z" />
    <glyph glyph-name="uni06D4" unicode="&#x6d4;" horiz-adv-x="377" 
d="M110.5 24.5q-30.5 31.5 -30.5 79.5q0 45 30.5 75.5t77.5 30.5q46 0 77.5 -30.5t31.5 -75.5q0 -47 -31.5 -79t-77.5 -32q-47 0 -77.5 31.5z" />
    <glyph glyph-name="uni06D5" unicode="&#x6d5;" horiz-adv-x="505" 
d="M97 47.5q-54 52.5 -54 138.5q0 37 10 76q20 79 79 154q-15 11 -33 21l96 140q281 -170 281 -358q0 -66 -29 -117t-80 -79t-114 -28q-102 0 -156 52.5zM192 192q26 -14 74 -14q34 0 57.5 11t28.5 28q-22 53 -115 125q-71 -68 -71 -110q0 -26 26 -40z" />
    <glyph glyph-name="uni06F0" unicode="&#x6f0;" horiz-adv-x="497" 
d="M145.5 44.5q-42.5 25.5 -68 68t-25.5 92.5t25.5 92.5t68 67.5t91.5 25q50 0 93 -25t68.5 -67t25.5 -93q0 -50 -25.5 -92.5t-68.5 -68t-93 -25.5q-49 0 -91.5 25.5zM199.5 165.5q16.5 -17.5 37.5 -17.5q22 0 38.5 17t16.5 40t-16.5 39.5t-38.5 16.5q-21 0 -37.5 -17
t-16.5 -39t16.5 -39.5z" />
    <glyph glyph-name="uni06F1" unicode="&#x6f1;" horiz-adv-x="338" 
d="M132 96q0 156 -18 279q-23 171 -74 287l128 80q69 -137 89 -343q12 -115 12 -248q0 -73 -3 -151h-136q2 66 2 96z" />
    <glyph glyph-name="uni06F2" unicode="&#x6f2;" horiz-adv-x="567" 
d="M132 96q0 156 -18 279q-23 171 -74 287l128 80q22 -43 35 -82q15 -39 26.5 -59t32 -31.5t55.5 -11.5q88 0 88 112q0 19 -3 43l126 27q9 -43 9 -88q0 -74 -24.5 -138t-74 -102.5t-121.5 -38.5q-30 0 -58 11q10 -103 10 -233q0 -73 -3 -151h-136q2 66 2 96z" />
    <glyph glyph-name="uni06F3" unicode="&#x6f3;" horiz-adv-x="729" 
d="M502.5 593q13.5 -32 36.5 -32q14 0 23 14.5t9 45.5q0 37 -12 82l121 45q19 -67 19 -133t-20 -119t-56 -83t-83 -30q-64 0 -111 70q-22 -38 -52 -59.5t-67 -21.5q-29 0 -51 7q10 -103 10 -230q0 -71 -3 -149h-136q2 66 2 96q0 156 -18 279q-23 171 -74 287l128 80
q20 -41 33 -77q27 -64 45 -87t50 -23q26 0 45.5 23.5t19.5 72.5q0 14 -1 22v4l119 20q10 -72 23.5 -104z" />
    <glyph glyph-name="uni06F4" unicode="&#x6f4;" horiz-adv-x="706" 
d="M132 96q0 156 -18 279q-23 171 -74 287l128 80q34 -69 52 -138q6 -17 17 -39q22 78 84 129.5t139 51.5q97 0 199 -83l-59 -125q-66 21 -121 21t-91 -19.5t-34 -52.5q2 -21 38.5 -38.5t93.5 -17.5q70 0 149 29l36 -165q-109 -46 -210 -46q-112 0 -196 57q4 -67 4 -156
q0 -72 -3 -150h-136q2 66 2 96z" />
    <glyph glyph-name="uni06F5" unicode="&#x6f5;" horiz-adv-x="662" 
d="M88 428q40 85 97 161l-33 17l87 156q162 -105 274.5 -242.5t112.5 -301.5q0 -66 -20.5 -118.5t-58 -82t-85.5 -29.5q-34 0 -66 16.5t-57 52.5q-40 -69 -124 -69q-54 0 -94.5 29.5t-62 81.5t-21.5 118q0 30 2 45q9 81 49 166zM163 243q0 -34 16 -51t45 -17t44 26t16 63
l101 16q1 -44 15.5 -74.5t43.5 -30.5q59 0 59 72q0 67 -55 136t-147 134q-112 -115 -134 -239q-4 -17 -4 -35z" />
    <glyph glyph-name="uni06F6" unicode="&#x6f6;" horiz-adv-x="596" 
d="M187 279q-46 33 -71.5 88.5t-25.5 114.5q0 56 23 110.5t71 95.5t119 53q9 2 28 2q44 0 92 -18t76 -41l-59 -125q-3 1 -25 6.5t-55 5.5q-19 0 -40 -3q-32 -5 -55.5 -19.5t-36 -33t-12.5 -33.5q0 -9 12.5 -20t35 -19t50.5 -8q47 0 94 20q46 27 115 57l32 -181
q-118 -44 -227 -136.5t-167 -225.5l-119 59q48 141 145 251z" />
    <glyph glyph-name="uni06F7" unicode="&#x6f7;" horiz-adv-x="666" 
d="M504 338.5q-77 -180.5 -109 -346.5h-124q-23 164 -101 342.5t-155 299.5l122 90q52 -78 103.5 -195t92.5 -253q41 137 92.5 254t103.5 194l122 -90q-70 -115 -147 -295.5z" />
    <glyph glyph-name="uni06F8" unicode="&#x6f8;" horiz-adv-x="666" 
d="M162 358.5q77 180.5 109 346.5h124q23 -164 101 -342.5t155 -299.5l-122 -90q-52 78 -103.5 195t-92.5 253q-41 -137 -92.5 -254t-103.5 -194l-122 90q70 115 147 295.5z" />
    <glyph glyph-name="uni06F9" unicode="&#x6f9;" horiz-adv-x="576" 
d="M351 93q-15 85 -24 182q-40 -9 -94 -9q-93 0 -143.5 58t-47.5 164q2 60 28 119.5t70.5 98t97.5 38.5q72 0 114 -49.5t59 -111.5t30 -146l3 -22q5 -27 8 -51.5t6 -43.5q14 -102 26 -169.5t28 -107.5l-128 -80q-18 45 -33 130zM182.5 462.5q17.5 -14.5 57.5 -14.5
q41 0 73 9q-8 50 -28.5 83.5t-53.5 33.5q-28 0 -47 -23.5t-19 -55.5q0 -18 17.5 -32.5z" />
    <glyph glyph-name="uni2009" unicode="&#x2009;" horiz-adv-x="80" 
 />
    <glyph glyph-name="uni200A" unicode="&#x200a;" horiz-adv-x="64" 
 />
    <glyph glyph-name="uni200B" unicode="&#x200b;" 
 />
    <glyph glyph-name="uni200C" unicode="&#x200c;" 
 />
    <glyph glyph-name="uni200D" unicode="&#x200d;" 
 />
    <glyph glyph-name="uni200E" unicode="&#x200e;" 
 />
    <glyph glyph-name="uni200F" unicode="&#x200f;" 
 />
    <glyph glyph-name="quoteleft" unicode="&#x2018;" horiz-adv-x="271" 
d="M197.5 658.5q-13.5 -41.5 -14.5 -77.5v-147h-158v127q1 67 35 137t86 114l100 -47q-35 -65 -48.5 -106.5z" />
    <glyph glyph-name="quoteright" unicode="&#x2019;" horiz-adv-x="271" 
d="M73.5 577.5q13.5 41.5 13.5 77.5v147h159v-127q-1 -67 -35 -136.5t-86 -114.5l-100 47q35 65 48.5 106.5z" />
    <glyph glyph-name="quotedblleft" unicode="&#x201c;" horiz-adv-x="523" 
d="M449.5 660q-13.5 -42 -14.5 -78v-147h-158v128q1 67 35 136.5t86 113.5l100 -46q-35 -65 -48.5 -107zM25 563q1 66 35 135.5t86 114.5l100 -46q-35 -65 -48.5 -107t-13.5 -78v-147h-159v128z" />
    <glyph glyph-name="quotedblright" unicode="&#x201d;" horiz-adv-x="523" 
d="M73.5 464q13.5 42 13.5 78v147h159v-128q-1 -66 -35 -135.5t-86 -114.5l-100 46q35 65 48.5 107zM324.5 464q13.5 42 14.5 78v147h159v-128q-1 -66 -35.5 -135.5t-86.5 -114.5l-99 46q34 65 47.5 107z" />
    <glyph glyph-name="quotedblbase" unicode="&#x201e;" horiz-adv-x="523" 
d="M73.5 -75.5q13.5 41.5 14.5 77.5v147h158v-127q-1 -67 -35 -137t-86 -114l-100 47q35 65 48.5 106.5zM325.5 -75.5q13.5 41.5 13.5 77.5v147h159v-127q-1 -67 -35 -136.5t-86 -114.5l-100 47q35 65 48.5 106.5z" />
    <glyph glyph-name="bullet" unicode="&#x2022;" horiz-adv-x="588" 
d="M200.5 -8q-42.5 25 -67.5 67.5t-25 93.5q0 50 25 93t67.5 68t93.5 25t93.5 -25t67.5 -68t25 -93q0 -51 -25 -93.5t-67.5 -67.5t-93.5 -25t-93.5 25z" />
    <glyph glyph-name="ellipsis" unicode="&#x2026;" horiz-adv-x="976" 
d="M98.5 24.5q-30.5 31.5 -30.5 79.5q0 45 30.5 75.5t77.5 30.5q46 0 77.5 -30.5t31.5 -75.5q0 -47 -31.5 -79t-77.5 -32q-47 0 -77.5 31.5zM408.5 179.5q30.5 30.5 77.5 30.5q46 0 77.5 -30.5t31.5 -75.5q0 -47 -31.5 -79t-77.5 -32q-47 0 -77.5 31.5t-30.5 79.5
q0 45 30.5 75.5zM720.5 179.5q30.5 30.5 77.5 30.5q46 0 77.5 -30.5t31.5 -75.5q0 -47 -31.5 -79t-77.5 -32q-47 0 -77.5 31.5t-30.5 79.5q0 45 30.5 75.5z" />
    <glyph glyph-name="minute" unicode="&#x2032;" horiz-adv-x="177" 
d="M157 671l-16 -202h-101v281h117v-79z" />
    <glyph glyph-name="second" unicode="&#x2033;" horiz-adv-x="390" 
d="M370 671l-16 -202h-101v281h117v-79zM50 750h117v-79l-16 -202h-101v281z" />
    <glyph glyph-name="guilsinglleft" unicode="&#x2039;" horiz-adv-x="272" 
d="M162 133q18 -43 60 -97l-78 -90q-58 61 -91 124.5t-33 148.5t33 148.5t91 124.5l78 -90q-42 -54 -60 -97t-18 -86t18 -86z" />
    <glyph glyph-name="guilsinglright" unicode="&#x203a;" horiz-adv-x="272" 
d="M110 305q-18 43 -60 97l78 90q58 -61 91 -124.5t33 -148.5t-33 -148.5t-91 -124.5l-78 90q42 54 60 97t18 86t-18 86z" />
    <glyph glyph-name="fraction" unicode="&#x2044;" horiz-adv-x="440" 
d="M84 53l-77 39l347 555l77 -38z" />
    <glyph glyph-name="uni2070" unicode="&#x2070;" horiz-adv-x="375" 
d="M301 320.5q-40 -40.5 -113 -40.5t-113.5 39.5t-41.5 111.5v88q0 75 41 116t113 41t113 -41.5t41 -115.5v-85q0 -73 -40 -113.5zM153.5 381q10.5 -15 34.5 -15q43 0 44 58v98q0 68 -45 68q-42 0 -44 -62v-97q0 -35 10.5 -50z" />
    <glyph glyph-name="uni2074" unicode="&#x2074;" horiz-adv-x="375" 
d="M306 449h39v-87h-39v-77h-110v77h-162l-8 70l170 238h110v-221zM196 449v93l-8 -11l-59 -82h67z" />
    <glyph glyph-name="uni2075" unicode="&#x2075;" horiz-adv-x="375" 
d="M37 471l27 199h251v-83h-162l-10 -61q36 13 64 13q65 0 98 -31.5t33 -91.5t-42.5 -98t-110.5 -38q-43 0 -78.5 15t-56.5 41.5t-21 58.5h111q-2 -29 45 -29q44 0 44 50q0 51 -52 51q-15 0 -29.5 -4.5t-23.5 -12.5z" />
    <glyph glyph-name="uni2076" unicode="&#x2076;" horiz-adv-x="375" 
d="M182.5 572q-31.5 -20 -38.5 -58q35 29 84 29q57 0 90 -35t33 -94q0 -38 -20.5 -68.5t-56 -48t-79.5 -17.5q-78 0 -121 39.5t-43 113.5v30q0 103 64.5 160t186.5 57v-88q-68 0 -99.5 -20zM153 377.5q12 -12.5 39 -12.5q20 0 34.5 15.5t14.5 34.5q0 43 -50 43
q-33 0 -50 -20v-20q0 -28 12 -40.5z" />
    <glyph glyph-name="uni2077" unicode="&#x2077;" horiz-adv-x="375" 
d="M339 611l-157 -326h-116l159 299h-202v86h316v-59z" />
    <glyph glyph-name="uni2078" unicode="&#x2078;" horiz-adv-x="375" 
d="M74 309.5q-41 29.5 -41 82.5q0 63 63 91q-54 29 -54 83q0 51 39 80.5t106 29.5t106.5 -29.5t39.5 -80.5q0 -56 -54 -83q62 -29 62 -91q0 -53 -40 -82.5t-113 -29.5t-114 29.5zM155.5 376q12.5 -10 32.5 -10t32 10t12 27q0 35 -45 35q-44 0 -44 -35q0 -17 12.5 -27z
M188 524q35 0 35 34q0 32 -36 32t-36 -32q0 -34 37 -34z" />
    <glyph glyph-name="uni2079" unicode="&#x2079;" horiz-adv-x="375" 
d="M169.5 367q22.5 4 38 18.5t21.5 45.5q-31 -24 -68 -24q-63 0 -96 33t-33 95q0 39 20.5 71t56 51t77.5 19q72 0 112.5 -40.5t41.5 -113.5v-32q0 -107 -57 -159.5t-176 -52.5v85q40 0 62.5 4zM192 486q25 0 39 14v40q0 27 -10.5 38.5t-34.5 11.5q-20 0 -32 -16.5t-12 -40.5
q0 -47 50 -47z" />
    <glyph glyph-name="uni2080" unicode="&#x2080;" horiz-adv-x="375" 
d="M301 35.5q-40 -40.5 -113 -40.5t-113.5 39.5t-41.5 111.5v88q0 75 41 116t113 41t113 -41.5t41 -115.5v-85q0 -73 -40 -113.5zM153.5 96q10.5 -15 34.5 -15q43 0 44 58v98q0 68 -45 68q-42 0 -44 -62v-97q0 -35 10.5 -50z" />
    <glyph glyph-name="uni2081" unicode="&#x2081;" horiz-adv-x="375" 
d="M265 0h-109v260l-86 -17v81l185 60h10v-384z" />
    <glyph glyph-name="uni2082" unicode="&#x2082;" horiz-adv-x="375" 
d="M340 0h-306v72l139 123q23 20 36 41t13 32q0 37 -42 37q-21 0 -33 -14t-12 -36l-104 5q0 58 39 94.5t105 36.5q75 0 115.5 -31.5t40.5 -91.5q0 -36 -20 -67q-20 -30 -92 -82l-40 -34h161v-85z" />
    <glyph glyph-name="uni2083" unicode="&#x2083;" horiz-adv-x="375" 
d="M135 231h43q50 0 50 40q0 16 -12.5 25t-34.5 9q-18 0 -31 -6.5t-13 -18.5h-109q0 50 41.5 80.5t107.5 30.5q75 0 117.5 -30t42.5 -81q0 -58 -67 -82q75 -19 75 -90q0 -50 -46 -81.5t-122 -31.5q-71 0 -114 33.5t-43 89.5h111q0 -15 15 -26t39 -11q25 0 37 11t12 28
q0 42 -53 42h-46v69z" />
    <glyph glyph-name="uni2084" unicode="&#x2084;" horiz-adv-x="375" 
d="M306 164h39v-87h-39v-77h-110v77h-162l-8 70l170 238h110v-221zM196 164v93l-8 -11l-59 -82h67z" />
    <glyph glyph-name="uni2085" unicode="&#x2085;" horiz-adv-x="375" 
d="M37 186l27 199h251v-83h-162l-10 -61q36 13 64 13q65 0 98 -31.5t33 -91.5t-42.5 -98t-110.5 -38q-43 0 -78.5 15t-56.5 41.5t-21 58.5h111q-2 -29 45 -29q44 0 44 50q0 51 -52 51q-15 0 -29.5 -4.5t-23.5 -12.5z" />
    <glyph glyph-name="uni2086" unicode="&#x2086;" horiz-adv-x="375" 
d="M182.5 287q-31.5 -20 -38.5 -58q35 29 84 29q57 0 90 -35t33 -94q0 -38 -20.5 -68.5t-56 -48t-79.5 -17.5q-78 0 -121 39.5t-43 113.5v30q0 103 64.5 160t186.5 57v-88q-68 0 -99.5 -20zM153 92.5q12 -12.5 39 -12.5q20 0 34.5 15.5t14.5 34.5q0 43 -50 43q-33 0 -50 -20
v-20q0 -28 12 -40.5z" />
    <glyph glyph-name="uni2087" unicode="&#x2087;" horiz-adv-x="375" 
d="M339 326l-157 -326h-116l159 299h-202v86h316v-59z" />
    <glyph glyph-name="uni2088" unicode="&#x2088;" horiz-adv-x="375" 
d="M74 24.5q-41 29.5 -41 82.5q0 63 63 91q-54 29 -54 83q0 51 39 80.5t106 29.5t106.5 -29.5t39.5 -80.5q0 -56 -54 -83q62 -29 62 -91q0 -53 -40 -82.5t-113 -29.5t-114 29.5zM155.5 91q12.5 -10 32.5 -10t32 10t12 27q0 35 -45 35q-44 0 -44 -35q0 -17 12.5 -27zM188 239
q35 0 35 34q0 32 -36 32t-36 -32q0 -34 37 -34z" />
    <glyph glyph-name="uni2089" unicode="&#x2089;" horiz-adv-x="375" 
d="M169.5 82q22.5 4 38 18.5t21.5 45.5q-31 -24 -68 -24q-63 0 -96 33t-33 95q0 39 20.5 71t56 51t77.5 19q72 0 112.5 -40.5t41.5 -113.5v-32q0 -107 -57 -159.5t-176 -52.5v85q40 0 62.5 4zM192 201q25 0 39 14v40q0 27 -10.5 38.5t-34.5 11.5q-20 0 -32 -16.5t-12 -40.5
q0 -47 50 -47z" />
    <glyph glyph-name="trademark" unicode="&#x2122;" horiz-adv-x="634" 
d="M504 610l-47 -164h-40l-48 166v-166h-72v265h88l52 -175l57 175h82v-265h-72v164zM61 711h204v-57h-59v-206h-82v206h-63v57z" />
    <glyph glyph-name="partialdiff" unicode="&#x2202;" horiz-adv-x="573" 
d="M159.5 22q-57.5 32 -88.5 91t-31 139v7q0 75 28.5 131.5t81 87.5t124.5 31q76 0 131 -52q-18 85 -57 129t-97 44q-30 0 -52.5 -6t-36.5 -12t-18 -7l-30 110q68 40 151 40q87 0 151 -44.5t99 -129.5t35 -205v-54q0 -101 -31.5 -176t-89.5 -115.5t-135 -40.5t-134.5 32z
M294 117q92 0 92 152v60q-35 53 -91 53q-45 0 -68 -32.5t-23 -95.5v-15q0 -122 90 -122z" />
    <glyph glyph-name="product" unicode="&#x220f;" horiz-adv-x="688" 
d="M615 -132h-166v720h-204v-720h-166v843h536v-843z" />
    <glyph glyph-name="summation" unicode="&#x2211;" horiz-adv-x="648" 
d="M465 285l-212 -290h361v-127h-590v74l268 352l-268 344v73h584v-127h-353l210 -281v-18z" />
    <glyph glyph-name="minus" unicode="&#x2212;" horiz-adv-x="547" 
d="M495 282h-429v129h429v-129z" />
    <glyph glyph-name="uni2215" unicode="&#x2215;" horiz-adv-x="600" 
d="M366 778l133 -40l-264 -821l-132 40z" />
    <glyph glyph-name="radical" unicode="&#x221a;" horiz-adv-x="542" 
d="M287 147l130 564h119l-172 -711h-145l-78 237h-116v128h204z" />
    <glyph glyph-name="infinity" unicode="&#x221e;" horiz-adv-x="1060" 
d="M168.5 24.5q-58.5 34.5 -90.5 97t-32 146.5q0 43 16.5 103.5t74 113.5t166.5 53q141 0 226 -139q41 68 99 103.5t128 35.5q77 0 135.5 -34t90.5 -97t32 -147q0 -43 -19.5 -105t-77.5 -113.5t-162 -51.5q-70 0 -128 37.5t-98 107.5q-42 -72 -99 -108.5t-126 -36.5
q-77 0 -135.5 34.5zM235 159.5q30 -37.5 79 -37.5q40 0 75 43t59 104q-24 57 -59.5 97t-75.5 40q-49 0 -78.5 -38t-29.5 -108q0 -63 30 -100.5zM672.5 165q35.5 -43 72.5 -43q50 0 79.5 38t29.5 108q0 61 -30 99.5t-78 38.5q-40 0 -75.5 -40t-59.5 -97q26 -61 61.5 -104z
" />
    <glyph glyph-name="integral" unicode="&#x222b;" horiz-adv-x="306" 
d="M176 -161.5q-52 -51.5 -148 -51.5q-40 0 -78 8l8 124q23 -5 43 -5q60 0 62 68v589q0 91 53.5 140.5t154.5 49.5q31 0 83 -11l-12 -121q-27 5 -50 5q-64 0 -64 -65v-581q0 -98 -52 -149.5z" />
    <glyph glyph-name="approxequal" unicode="&#x2248;" horiz-adv-x="583" 
d="M105 486q32 14 64 14q38 0 63.5 -8.5t59.5 -26.5q32 -18 57.5 -26.5t62.5 -8.5q59 0 109 62v-122q-25 -27 -49 -39.5t-55 -12.5q-32 0 -57 8.5t-59 25.5q-36 18 -63.5 27t-62.5 8q-34 0 -69 -17t-57 -44v122q24 24 56 38zM49 243q50 51 119 51q32 0 58.5 -9t66.5 -27
q35 -16 60 -24.5t53 -8.5q65 0 115 62v-122q-49 -52 -109 -52q-32 0 -58.5 9t-61.5 26q-37 18 -63.5 26.5t-59.5 7.5q-33 0 -64.5 -16t-55.5 -45v122z" />
    <glyph glyph-name="notequal" unicode="&#x2260;" horiz-adv-x="585" 
d="M515 138h-276l-51 -101l-63 30l36 71h-98v127h163l45 88h-208v126h273l50 96l63 -31l-34 -65h100v-126h-165l-45 -88h210v-127z" />
    <glyph glyph-name="lessequal" unicode="&#x2264;" horiz-adv-x="510" 
d="M187 371l267 -80v-135l-432 158v117l432 158v-134zM30 155h429v-129h-429v129z" />
    <glyph glyph-name="greaterequal" unicode="&#x2265;" horiz-adv-x="513" 
d="M320 374l-266 81v135l429 -158v-117l-429 -159v135zM55 155h429v-129h-429v129z" />
    <glyph glyph-name="uniFBB2" unicode="&#xfbb2;" 
d="M101 431l106 -106l-106 -107l-107 107z" />
    <glyph glyph-name="uniFBB3" unicode="&#xfbb3;" 
d="M101 -54l106 -106l-106 -107l-107 107z" />
    <glyph glyph-name="uniFBB4" unicode="&#xfbb4;" 
d="M87 418l87 -87l58 58l29 29l93 -93l-93 -94l-87 87l-58 -58l-29 -29l-94 94z" />
    <glyph glyph-name="uniFBB5" unicode="&#xfbb5;" 
d="M260 -192l-87 87l-58 -58l-29 -29l-93 93l93 94l87 -87l58 58l29 29l94 -94z" />
    <glyph glyph-name="uniFBB6" unicode="&#xfbb6;" 
d="M83 307l88 -87l-88 -89l-88 89zM178 421l77 -77l-77 -78l-77 78zM275 307l87 -87l-87 -89l-89 89z" />
    <glyph glyph-name="uniFBB9" unicode="&#xfbb9;" 
d="M275 -189l-88 87l88 89l88 -89zM83 -13l89 -89l-89 -87l-87 87zM180 -148l77 -78l-77 -77l-77 77z" />
    <glyph glyph-name="uniFD3E" unicode="&#xfd3e;" horiz-adv-x="456" 
d="M257 561q-69 -114 -69 -265q0 -159 67 -267.5t161 -190.5l-92 -109q-129 96 -209.5 240t-80.5 327q0 184 80.5 327.5t209.5 239.5l92 -109q-90 -79 -159 -193z" />
    <glyph glyph-name="uniFD3F" unicode="&#xfd3f;" horiz-adv-x="456" 
d="M341.5 623.5q80.5 -143.5 80.5 -327.5q0 -183 -80.5 -327t-209.5 -240l-92 109q94 82 161 190.5t67 267.5q0 151 -69 265t-159 193l92 109q129 -96 209.5 -239.5z" />
    <glyph glyph-name="uniFEFF" unicode="&#xfeff;" 
 />
    <glyph glyph-name="uni0627.001" horiz-adv-x="261" 
d="M58 162q0 121 -8.5 261.5t-19.5 220.5l155 35q8 -75 14 -200t6 -246q0 -141 -10 -242l-143 15q6 63 6 156z" />
    <glyph glyph-name="uni0627.fina.001" horiz-adv-x="266" 
d="M101 68q-54 68 -58 201q-3 128 -6.5 200.5t-11.5 174.5l153 35q6 -72 8 -139.5t3 -169.5l1 -76q1 -43 7 -65.5t22 -31.5t46 -9h6l10 -94l-10 -94h-5q-111 0 -165 68z" />
    <glyph glyph-name="uni066E.001" horiz-adv-x="440" 
d="M-7 80q0 32 2 94q91 0 154 7.5t95 16.5t32 11q-10 52 -30 107t-34 86l127 70q28 -60 44.5 -125t16.5 -122q0 -122 -109.5 -180t-295.5 -58q-2 62 -2 93z" />
    <glyph glyph-name="uni066E.fina.001" horiz-adv-x="438" 
d="M234 12.5q-89 26.5 -138 76t-55 118.5q-1 8 -1 24q0 45 12 97.5t31 93.5l115 -54q-2 -7 -13.5 -51t-10.5 -70q4 -17 37 -34t93 -28t140 -11q3 -46 3 -94q0 -46 -3 -93q-121 -1 -210 25.5z" />
    <glyph glyph-name="uni066E.fina.002" horiz-adv-x="519" 
d="M-5 81q0 31 2 93q137 0 206 14t103.5 47t61.5 102l123 -13q-20 -57 -20 -89q0 -26 13.5 -36.5t39.5 -10.5l10 -94l-10 -94q-53 0 -96.5 31.5t-53.5 79.5q-65 -72 -152.5 -98t-224.5 -26q-2 62 -2 94z" />
    <glyph glyph-name="uni066E.medi.001" horiz-adv-x="390" 
d="M-4 188h5q78 0 121 7t60 22.5t18 41.5q-1 45 -11 98l124 23q14 -82 14 -167q6 -10 22 -17.5t42 -7.5h4l10 -94l-10 -94h-5q-38 0 -72.5 17t-61.5 45q-34 -32 -93.5 -47t-161.5 -15h-5v188z" />
    <glyph glyph-name="uni066E.medi.002" horiz-adv-x="339" 
d="M199 63q-63 -63 -196 -63h-8v188h7q60 0 96 10.5t45 27.5q-9 46 -26 121l119 42q9 -39 29 -116l6 -24q9 -33 25 -47t43 -14h5l10 -94l-10 -94h-5q-92 0 -140 63z" />
    <glyph glyph-name="uni066E.medi.003" horiz-adv-x="397" 
d="M255 66q-39 -34 -100.5 -50t-151.5 -16h-8v188h7q85 0 134.5 9.5t64.5 31.5q-11 54 -26 118l119 42q9 -39 29 -116l6 -24q9 -33 25 -47t43 -14h5l10 -94l-10 -94h-5q-94 0 -142 66z" />
    <glyph glyph-name="uni066E.init.001" horiz-adv-x="395" 
d="M-6 188h54q93 0 132.5 15t39.5 42q0 25 -55 157l127 70q20 -42 40.5 -112.5t20.5 -126.5q0 -112 -70 -172.5t-205 -60.5h-84v188z" />
    <glyph glyph-name="uni0628.medi.001" horiz-adv-x="339" 
d="M199 63q-63 -63 -196 -63h-8v188h7q60 0 96 10.5t45 27.5q-9 46 -26 121l119 42q9 -39 29 -116l6 -24q9 -33 25 -47t43 -14h5l10 -94l-10 -94h-5q-92 0 -140 63zM56 -66l106 -106l-106 -107l-107 107z" />
    <glyph glyph-name="uni0628.medi.alt" horiz-adv-x="334" 
d="M-5 188h5q79 1 110 17t33 54q-1 45 -11 98l124 23q14 -82 14 -167q6 -10 22 -17.5t42 -7.5h4l10 -94l-10 -94h-4q-39 0 -73.5 16.5t-61.5 44.5q-67 -61 -199 -61h-5v188zM131 -68l106 -106l-106 -107l-107 107z" />
    <glyph glyph-name="uni0628.medi.alt.001" horiz-adv-x="397" 
d="M255 66q-39 -34 -100.5 -50t-151.5 -16h-8v188h7q85 0 134.5 9.5t64.5 31.5q-11 54 -26 118l119 42q9 -39 29 -116l6 -24q9 -33 25 -47t43 -14h5l10 -94l-10 -94h-5q-94 0 -142 66zM148 -67l106 -106l-106 -107l-107 107z" />
    <glyph glyph-name="uni0628.init.alt" horiz-adv-x="348" 
d="M-5 188h53q125 0 125 49q0 15 -21.5 75t-33.5 90l128 70q19 -42 40 -116.5t21 -130.5q0 -110 -67 -167.5t-192 -57.5h-53v188zM127 -67l106 -106l-106 -107l-107 107z" />
    <glyph glyph-name="uni067E.medi.001" horiz-adv-x="397" 
d="M211 -245l-88 87l88 89l88 -89zM19 -69l89 -89l-89 -87l-87 87zM-5 188h7q85 0 134.5 9.5t64.5 31.5q-11 54 -26 118l119 42q9 -39 29 -116l6 -24q9 -33 25 -47t43 -14h5l10 -94l-10 -94h-5q-94 0 -142 66q-39 -34 -100.5 -50t-151.5 -16h-8v188zM116 -204l77 -78
l-77 -77l-77 77z" />
    <glyph glyph-name="uni067E.medi.alt" horiz-adv-x="390" 
d="M-4 188h5q78 0 121 7t60 22.5t18 41.5q-1 45 -11 98l124 23q14 -82 14 -167q6 -10 22 -17.5t42 -7.5h4l10 -94l-10 -94h-5q-38 0 -72.5 17t-61.5 45q-34 -32 -93.5 -47t-161.5 -15h-5v188zM84 -70l89 -89l-89 -87l-87 87zM181 -205l77 -78l-77 -77l-77 77zM276 -70
l88 -89l-88 -87l-88 87z" />
    <glyph glyph-name="uni067E.medi.alt.001" horiz-adv-x="397" 
d="M276 -246l-88 87l88 89l88 -89zM-5 188h7q85 0 134.5 9.5t64.5 31.5q-11 54 -26 118l119 42q9 -39 29 -116l6 -24q9 -33 25 -47t43 -14h5l10 -94l-10 -94h-5q-94 0 -142 66q-39 -34 -100.5 -50t-151.5 -16h-8v188zM84 -70l89 -89l-89 -87l-87 87zM181 -205l77 -78
l-77 -77l-77 77z" />
    <glyph glyph-name="uni067E.init.alt" horiz-adv-x="453" 
d="M-15 94l10 94h111q93 0 132.5 15t39.5 42q0 25 -55 157l127 70q20 -42 40.5 -112.5t20.5 -126.5q0 -112 -70 -172.5t-205 -60.5h-141zM92 -70l89 -89l-89 -87l-87 87zM189 -205l77 -78l-77 -77l-77 77zM284 -70l88 -89l-88 -87l-88 87z" />
    <glyph glyph-name="uni062A.medi.001" horiz-adv-x="397" 
d="M255 66q-39 -34 -100.5 -50t-151.5 -16h-8v188h7q85 0 134.5 9.5t64.5 31.5q-11 54 -26 118l119 42q9 -39 29 -116l6 -24q9 -33 25 -47t43 -14h5l10 -94l-10 -94h-5q-94 0 -142 66zM91 634l87 -87l58 58l29 29l93 -93l-93 -94l-87 87l-58 -58l-29 -29l-94 94z" />
    <glyph glyph-name="uni062A.medi.002" horiz-adv-x="452" 
d="M310 66q-38 -34 -99.5 -50t-150.5 -16h-64l-10 94l10 94h61q85 0 134.5 9.5t64.5 31.5q-11 54 -26 118l119 42q9 -39 29 -116l6 -24q9 -33 25 -47t43 -14h5l10 -94l-10 -94h-5q-94 0 -142 66zM122 634l87 -87l58 58l29 29l93 -93l-93 -94l-87 87l-58 -58l-29 -29l-94 94z
" />
    <glyph glyph-name="uni062A.medi.alt" horiz-adv-x="446" 
d="M-14 94l10 94h60q78 0 121 7t60 22.5t18 41.5q-1 45 -11 98l124 23q14 -82 14 -167q6 -10 22 -17.5t42 -7.5h5l10 -94l-10 -94h-6q-38 0 -72.5 17t-61.5 45q-34 -32 -92 -47t-159 -15h-64zM108 632l87 -87l58 58l29 29l93 -93l-93 -94l-87 87l-58 -58l-29 -29l-94 94z
" />
    <glyph glyph-name="uni062A.init.alt" horiz-adv-x="450" 
d="M-14 94l10 94h107q93 0 132.5 15t39.5 42q0 25 -55 157l127 70q20 -42 40.5 -112.5t20.5 -126.5q0 -112 -70 -172.5t-205 -60.5h-137zM142 683l87 -87l58 58l29 29l93 -93l-93 -94l-87 87l-58 -58l-29 -29l-94 94z" />
    <glyph glyph-name="uni062B.medi.001" horiz-adv-x="397" 
d="M255 66q-39 -34 -100.5 -50t-151.5 -16h-8v188h7q85 0 134.5 9.5t64.5 31.5q-11 54 -26 118l119 42q9 -39 29 -116l6 -24q9 -33 25 -47t43 -14h5l10 -94l-10 -94h-5q-94 0 -142 66zM99 624l88 -87l-88 -89l-88 89zM194 738l77 -77l-77 -78l-77 78zM291 624l87 -87
l-87 -89l-89 89z" />
    <glyph glyph-name="uni062B.medi.002" horiz-adv-x="452" 
d="M310 66q-38 -34 -99.5 -50t-150.5 -16h-64l-10 94l10 94h61q85 0 134.5 9.5t64.5 31.5q-11 54 -26 118l119 42q9 -39 29 -116l6 -24q9 -33 25 -47t43 -14h5l10 -94l-10 -94h-5q-94 0 -142 66zM127 624l88 -87l-88 -89l-88 89zM222 738l77 -77l-77 -78l-77 78zM319 624
l87 -87l-87 -89l-89 89z" />
    <glyph glyph-name="uni062B.medi.alt" horiz-adv-x="446" 
d="M-14 94l10 94h60q78 0 121 7t60 22.5t18 41.5q-1 45 -11 98l124 23q14 -82 14 -167q6 -10 22 -17.5t42 -7.5h5l10 -94l-10 -94h-6q-38 0 -72.5 17t-61.5 45q-34 -32 -92 -47t-159 -15h-64zM118 623l88 -87l-88 -89l-88 89zM213 737l77 -77l-77 -78l-77 78zM310 623
l87 -87l-87 -89l-89 89z" />
    <glyph glyph-name="uni062B.init.alt" horiz-adv-x="450" 
d="M-14 94l10 94h107q93 0 132.5 15t39.5 42q0 25 -55 157l127 70q20 -42 40.5 -112.5t20.5 -126.5q0 -112 -70 -172.5t-205 -60.5h-137zM129 672l88 -87l-88 -89l-88 89zM224 786l77 -77l-77 -78l-77 78zM321 672l87 -87l-87 -89l-89 89z" />
    <glyph glyph-name="uni0679.medi.001" horiz-adv-x="397" 
d="M255 66q-39 -34 -100.5 -50t-151.5 -16h-8v188h7q85 0 134.5 9.5t64.5 31.5q-11 54 -26 118l119 42q9 -39 29 -116l6 -24q9 -33 25 -47t43 -14h5l10 -94l-10 -94h-5q-94 0 -142 66zM36 551q7 -2 29 -7l17 25q0 29 -5.5 79t-11.5 86l62 13q7 -38 14 -114q39 31 77 31
q43 0 66 -31t23 -68q0 -49 -41.5 -83t-125.5 -34q-32 0 -66 9.5t-61 22.5zM141 531q63 -3 86.5 7t23.5 25q0 9 -6.5 16t-20.5 7q-20 0 -44 -15t-46 -40h7z" />
    <glyph glyph-name="uni062D.fina.001" horiz-adv-x="745" 
d="M221.5 -373.5q-82.5 34.5 -131 101t-48.5 158.5q0 26 2 40q15 131 122 222.5t289 138.5q-50 35 -85 49.5t-67 14.5q-35 0 -59 -17t-44 -40l-103 77q81 161 213 161q56 0 110 -26t152 -97q49 -35 74 -49.5t57 -25.5l-21 -183q-144 0 -256 -36.5t-177.5 -92t-78.5 -110.5
q-5 -36 29.5 -66.5t96.5 -48.5t135 -18q65 0 126.5 15t93.5 28l69 -144q-3 -2 -40.5 -24.5t-115 -42t-160.5 -19.5q-100 0 -182.5 34.5z" />
    <glyph glyph-name="uni0631.003" horiz-adv-x="431" 
d="M304.5 54.5q-47.5 54.5 -78.5 151.5l113 69q13 -48 32 -67.5t54 -19.5h11l10 -94l-10 -94h-11q-73 0 -120.5 54.5z" />
    <glyph glyph-name="uni0633.001" horiz-adv-x="689" 
d="M201 -261.5q-74 34.5 -116.5 103t-42.5 166.5q0 24 1 36q8 96 71 233l115 -52q-28 -67 -40 -106t-12 -85q0 -142 191 -142q64 0 114.5 20.5t79.5 55.5t29 76q0 46 -70 234l128 71q33 -81 50.5 -160t17.5 -145q0 -96 -45.5 -174t-125 -122t-178.5 -44q-93 0 -167 34.5z
" />
    <glyph glyph-name="uni0633.fina.001" horiz-adv-x="72" 
d="M-46 55.5q-51 55.5 -81 150.5l114 69q13 -36 23.5 -53.5t27 -25.5t46.5 -8l-9 -188q-70 0 -121 55.5z" />
    <glyph glyph-name="uni0633.medi.002" horiz-adv-x="269" 
d="M136 67q-28 -32 -62.5 -49.5t-73.5 -17.5h-3v188h3q23 0 43 7t30 19q-13 67 -22 119l123 34q11 -63 17.5 -93.5t13.5 -49.5q6 -18 21 -27t43 -9h7l9 -94l-11 -94h-5q-80 0 -133 67z" />
    <glyph glyph-name="uni0633.init.001" horiz-adv-x="226" 
d="M-1 188h3q23 0 39 14t16 32q0 34 -55 168l123 68q19 -39 40.5 -114t21.5 -131q0 -61 -23.5 -112.5t-65.5 -82t-96 -30.5h-3v188z" />
    <glyph glyph-name="uni0633.init.002" horiz-adv-x="267" 
d="M-2 188h6q47 0 68 45q19 40 33 108l123 -5q-3 -17 -6.5 -45.5t-3.5 -44.5q0 -26 12.5 -42t37.5 -16h3l10 -94l-10 -94h-3q-44 0 -78.5 19t-57.5 55q-29 -38 -60 -56t-71 -18h-3v188z" />
    <glyph glyph-name="uni0633.init.003" horiz-adv-x="286" 
d="M-2 0l-10 94l10 94h5q27 0 55 11t41 26q34 36 53 112l123 -13q-2 -7 -11 -42t-9 -56q0 -38 32 -38h3l10 -94l-10 -94h-7q-40 0 -73.5 19.5t-50.5 52.5q-33 -35 -73.5 -53.5t-84.5 -18.5h-3z" />
    <glyph glyph-name="uni0635.medi.001" horiz-adv-x="208" 
d="M213 188l10 -94l-10 -94q-97 0 -164.5 8.5t-104.5 42.5l83 137h186z" />
    <glyph glyph-name="uni06A1.medi.001" horiz-adv-x="466" 
d="M-5 -14l-10 94l10 94h13q34 0 50 1q-20 42 -20 85q0 10 2 30q10 63 39 114.5t71.5 81t91.5 29.5q57 0 98.5 -33.5t63 -86.5t21.5 -109q0 -20 -3 -38q-4 -31 -15 -60h64l10 -94l-10 -94h-60q-90 0 -165 26q-94 -39 -238 -39zM186.5 243q18.5 -20 48.5 -34q42 20 63 58
q1 3 1 10q0 21 -14 41t-40 26q-4 1 -12 1q-27 0 -46.5 -20.5t-22.5 -43.5q4 -18 22.5 -38z" />
    <glyph glyph-name="uni06A1.init.001" horiz-adv-x="489" 
d="M8 -14l-16 94l3 94h17q111 1 180.5 13t103.5 40q-24 -2 -37 -2q-75 0 -132.5 27.5t-82.5 79.5q-17 37 -17 87q0 60 26 119.5t72.5 97.5t102.5 38q60 0 111 -49t80.5 -131t29.5 -178q0 -152 -107 -240t-332 -89zM215 406q46 -10 101 -8q-17 55 -45.5 89t-58.5 34
q-27 0 -46 -23t-19 -46q0 -13 6 -19q16 -17 62 -27z" />
    <glyph glyph-name="uni0643.init.alt" horiz-adv-x="469" 
d="M-5 -14l-10 94l10 94h40q70 0 122 15.5t81 33.5q-35 56 -79.5 107.5t-129.5 121.5l15 159l375 156l50 -149l-273 -115q72 -67 122.5 -146.5t50.5 -148.5q0 -15 -3 -30q-17 -90 -109 -140.5t-222 -50.5z" />
    <glyph glyph-name="uni0643.init.alt3" horiz-adv-x="469" 
d="M-5 -14l-10 94l10 94h40q75 0 127.5 9t73.5 22q-37 60 -80 111.5t-127 120.5l15 159l375 156l50 -149l-273 -115q56 -45 114.5 -118.5t58.5 -158.5q0 -16 -3 -33q-17 -90 -109 -140.5t-222 -50.5zM55 719l330 132l18 -54l-355 -147z" />
    <glyph glyph-name="uni0644.001" horiz-adv-x="715" 
d="M195.5 -234q-69.5 33 -111.5 95t-42 146q0 11 2 37q6 58 26.5 120t43.5 114l116 -52q-26 -62 -38.5 -99.5t-14.5 -82.5q-2 -54 45.5 -88.5t124.5 -34.5q95 0 146 45.5t50 140.5q-2 139 -18 328t-33 300l155 35q13 -93 20.5 -285t7.5 -376q0 -115 -39.5 -200t-113 -130.5
t-175.5 -45.5q-82 0 -151.5 33z" />
    <glyph glyph-name="uni0646.medi.001" horiz-adv-x="339" 
d="M199 63q-63 -63 -196 -63h-8v188h7q60 0 96 10.5t45 27.5q-9 46 -26 121l119 42q9 -39 29 -116l6 -24q9 -33 25 -47t43 -14h5l10 -94l-10 -94h-5q-92 0 -140 63zM148 656l106 -106l-106 -107l-107 107z" />
    <glyph glyph-name="uni0649.fina.001" horiz-adv-x="733" 
d="M201 -261q-74 34 -116.5 102.5t-42.5 166.5q0 12 2 38q8 95 70 232l115 -53q-28 -68 -40 -106t-12 -84q0 -142 191 -142q74 0 135.5 19t90.5 46q-26 17 -81.5 42t-113.5 44l40 177q93 -18 158 -25t131 -8h10l10 -94l-10 -94h-10l-33 1q21 -27 21 -56q0 -53 -45.5 -109
t-125 -93.5t-177.5 -37.5q-93 0 -167 34z" />
    <glyph glyph-name="uni064A.fina.001" horiz-adv-x="733" 
d="M201 -261q-74 34 -116.5 102.5t-42.5 166.5q0 12 2 38q8 95 70 232l115 -53q-28 -68 -40 -106t-12 -84q0 -142 191 -142q74 0 135.5 19t90.5 46q-26 17 -81.5 42t-113.5 44l40 177q93 -18 158 -25t131 -8h10l10 -94l-10 -94h-10l-33 1q21 -27 21 -56q0 -53 -45.5 -109
t-125 -93.5t-177.5 -37.5q-93 0 -167 34z" />
    <glyph glyph-name="uni064A.medi.001" horiz-adv-x="397" 
d="M255 66q-39 -34 -100.5 -50t-151.5 -16h-8v188h7q85 0 134.5 9.5t64.5 31.5q-11 54 -26 118l119 42q9 -39 29 -116l6 -24q9 -33 25 -47t43 -14h5l10 -94l-10 -94h-5q-94 0 -142 66zM12 -79l87 -87l58 58l29 29l94 -94l-94 -93l-87 87l-58 -58l-29 -29l-93 93z" />
    <glyph glyph-name="uni064A.medi.alt" horiz-adv-x="390" 
d="M-4 188h5q78 0 121 7t60 22.5t18 41.5q-1 45 -11 98l124 23q14 -82 14 -167q6 -10 22 -17.5t42 -7.5h4l10 -94l-10 -94h-5q-38 0 -72.5 17t-61.5 45q-34 -32 -93.5 -47t-161.5 -15h-5v188zM89 -80l87 -87l58 58l29 29l94 -94l-94 -93l-87 87l-58 -58l-29 -29l-93 93z" />
    <glyph glyph-name="uni064A.medi.alt.001" horiz-adv-x="397" 
d="M255 66q-39 -34 -100.5 -50t-151.5 -16h-8v188h7q85 0 134.5 9.5t64.5 31.5q-11 54 -26 118l119 42q9 -39 29 -116l6 -24q9 -33 25 -47t43 -14h5l10 -94l-10 -94h-5q-94 0 -142 66zM89 -79l87 -87l58 58l29 29l94 -94l-94 -93l-87 87l-58 -58l-29 -29l-93 93z" />
    <glyph glyph-name="uni064A.init.alt" horiz-adv-x="445" 
d="M-14 94l10 94h102q93 0 132.5 15t39.5 42q0 25 -55 157l127 70q20 -42 40.5 -112.5t20.5 -126.5q0 -112 -70 -172.5t-205 -60.5h-132zM87 -79l87 -87l58 58l29 29l94 -94l-94 -93l-87 87l-58 -58l-29 -29l-93 93z" />
    <glyph glyph-name="uni0626.fina.001" horiz-adv-x="733" 
d="M201 -261q-74 34 -116.5 102.5t-42.5 166.5q0 12 2 38q8 95 70 232l115 -53q-28 -68 -40 -106t-12 -84q0 -142 191 -142q74 0 135.5 19t90.5 46q-26 17 -81.5 42t-113.5 44l40 177q93 -18 158 -25t131 -8h10l10 -94l-10 -94h-10l-33 1q21 -27 21 -56q0 -53 -45.5 -109
t-125 -93.5t-177.5 -37.5q-93 0 -167 34zM152 421l52 15q-13 17 -17 38q-2 7 -2 21q0 37 22.5 69t56.5 40q18 4 29 4q28 0 70 -15l-20 -79q-29 10 -51 10q-9 0 -13 -1q-15 -4 -22 -12t-7 -18q0 -9 9.5 -19t29.5 -10q3 0 17 2l70 21v-79l-224 -67v80z" />
    <glyph glyph-name="uni0626.medi.001" horiz-adv-x="339" 
d="M199 63q-63 -63 -196 -63h-8v188h7q60 0 96 10.5t45 27.5q-9 46 -26 121l119 42q9 -39 29 -116l6 -24q9 -33 25 -47t43 -14h5l10 -94l-10 -94h-5q-92 0 -140 63zM16 526l52 15q-13 17 -17 38q-2 7 -2 21q0 37 22.5 69t56.5 40q18 4 29 4q28 0 70 -15l-20 -79
q-29 10 -51 10q-9 0 -13 -1q-15 -4 -22 -12t-7 -18q0 -9 9.5 -19t29.5 -10q3 0 17 2l70 21v-79l-224 -67v80z" />
    <glyph glyph-name="uni06CE.fina.001" horiz-adv-x="733" 
d="M201 -261q-74 34 -116.5 102.5t-42.5 166.5q0 12 2 38q8 95 70 232l115 -53q-28 -68 -40 -106t-12 -84q0 -142 191 -142q74 0 135.5 19t90.5 46q-26 17 -81.5 42t-113.5 44l40 177q93 -18 158 -25t131 -8h10l10 -94l-10 -94h-10l-33 1q21 -27 21 -56q0 -53 -45.5 -109
t-125 -93.5t-177.5 -37.5q-93 0 -167 34zM224 492q11 -15 26 -47.5t22 -56.5q6 25 21.5 60.5t27.5 52.5l52 -48q-17 -27 -37 -67t-34 -73l-55 -17q-11 31 -33 74t-41 72z" />
    <glyph glyph-name="uni06CE.medi.001" horiz-adv-x="397" 
d="M231 522q-20 -40 -34 -73l-55 -17q-11 31 -33 74t-41 72l51 50q11 -15 26 -47.5t22 -56.5q6 25 21.5 60.5t27.5 52.5l52 -48q-17 -27 -37 -67zM12 -79l87 -87l58 58l29 29l94 -94l-94 -93l-87 87l-58 -58l-29 -29l-93 93zM-5 188h7q85 0 134.5 9.5t64.5 31.5
q-11 54 -26 118l119 42q9 -39 29 -116l6 -24q9 -33 25 -47t43 -14h5l10 -94l-10 -94h-5q-94 0 -142 66q-39 -34 -100.5 -50t-151.5 -16h-8v188z" />
    <glyph glyph-name="uni06CE.medi.alt" horiz-adv-x="390" 
d="M229 525q-20 -40 -34 -73l-55 -17q-11 31 -33 74t-41 72l51 50q11 -15 26 -47.5t22 -56.5q6 25 21.5 60.5t27.5 52.5l52 -48q-17 -27 -37 -67zM89 -80l87 -87l58 58l29 29l94 -94l-94 -93l-87 87l-58 -58l-29 -29l-93 93zM-4 188h5q78 0 121 7t60 22.5t18 41.5
q-1 45 -11 98l124 23q14 -82 14 -167q6 -10 22 -17.5t42 -7.5h4l10 -94l-10 -94h-5q-38 0 -72.5 17t-61.5 45q-34 -32 -93.5 -47t-161.5 -15h-5v188z" />
    <glyph glyph-name="uni06CE.medi.alt.001" horiz-adv-x="397" 
d="M229 525q-20 -40 -34 -73l-55 -17q-11 31 -33 74t-41 72l51 50q11 -15 26 -47.5t22 -56.5q6 25 21.5 60.5t27.5 52.5l52 -48q-17 -27 -37 -67zM-5 188h7q85 0 134.5 9.5t64.5 31.5q-11 54 -26 118l119 42q9 -39 29 -116l6 -24q9 -33 25 -47t43 -14h5l10 -94l-10 -94h-5
q-94 0 -142 66q-39 -34 -100.5 -50t-151.5 -16h-8v188zM89 -79l87 -87l58 58l29 29l94 -94l-94 -93l-87 87l-58 -58l-29 -29l-93 93z" />
    <glyph glyph-name="uni06CE.init.alt" horiz-adv-x="445" 
d="M230 642q-20 -40 -34 -73l-55 -17q-11 31 -33 74t-41 72l51 50q11 -15 26 -47.5t22 -56.5q6 25 21.5 60.5t27.5 52.5l52 -48q-17 -27 -37 -67zM-4 188h102q93 0 132.5 15t39.5 42q0 25 -55 157l127 70q20 -42 40.5 -112.5t20.5 -126.5q0 -112 -70 -172.5t-205 -60.5h-132
l-10 94zM87 -79l87 -87l58 58l29 29l94 -94l-94 -93l-87 87l-58 -58l-29 -29l-93 93z" />
    <glyph glyph-name="uni06CC.fina.001" horiz-adv-x="733" 
d="M201 -261q-74 34 -116.5 102.5t-42.5 166.5q0 12 2 38q8 95 70 232l115 -53q-28 -68 -40 -106t-12 -84q0 -142 191 -142q74 0 135.5 19t90.5 46q-26 17 -81.5 42t-113.5 44l40 177q93 -18 158 -25t131 -8h10l10 -94l-10 -94h-10l-33 1q21 -27 21 -56q0 -53 -45.5 -109
t-125 -93.5t-177.5 -37.5q-93 0 -167 34z" />
    <glyph glyph-name="uni06CC.medi.001" horiz-adv-x="397" 
d="M255 66q-39 -34 -100.5 -50t-151.5 -16h-8v188h7q85 0 134.5 9.5t64.5 31.5q-11 54 -26 118l119 42q9 -39 29 -116l6 -24q9 -33 25 -47t43 -14h5l10 -94l-10 -94h-5q-94 0 -142 66zM12 -79l87 -87l58 58l29 29l94 -94l-94 -93l-87 87l-58 -58l-29 -29l-93 93z" />
    <glyph glyph-name="uni06CC.medi.alt" horiz-adv-x="390" 
d="M-4 188h5q78 0 121 7t60 22.5t18 41.5q-1 45 -11 98l124 23q14 -82 14 -167q6 -10 22 -17.5t42 -7.5h4l10 -94l-10 -94h-5q-38 0 -72.5 17t-61.5 45q-34 -32 -93.5 -47t-161.5 -15h-5v188zM89 -80l87 -87l58 58l29 29l94 -94l-94 -93l-87 87l-58 -58l-29 -29l-93 93z" />
    <glyph glyph-name="uni06CC.medi.alt.001" horiz-adv-x="397" 
d="M255 66q-39 -34 -100.5 -50t-151.5 -16h-8v188h7q85 0 134.5 9.5t64.5 31.5q-11 54 -26 118l119 42q9 -39 29 -116l6 -24q9 -33 25 -47t43 -14h5l10 -94l-10 -94h-5q-94 0 -142 66zM89 -79l87 -87l58 58l29 29l94 -94l-94 -93l-87 87l-58 -58l-29 -29l-93 93z" />
    <glyph glyph-name="uni06CC.init.alt" horiz-adv-x="445" 
d="M-14 94l10 94h102q93 0 132.5 15t39.5 42q0 25 -55 157l127 70q20 -42 40.5 -112.5t20.5 -126.5q0 -112 -70 -172.5t-205 -60.5h-132zM87 -79l87 -87l58 58l29 29l94 -94l-94 -93l-87 87l-58 -58l-29 -29l-93 93z" />
    <glyph glyph-name="uni06D2.fina.alt" horiz-adv-x="484" 
d="M52 -149q0 86 50 164t136.5 125.5t190.5 47.5h60l10 -94l-10 -94h-60q-79 0 -142 -26.5t-101 -64.5q27 -10 71.5 -16.5t100.5 -6.5l114 1l-64 -188l-78 -1q-100 0 -166 20t-102 61q-10 34 -10 72z" />
    <glyph glyph-name="uni06D3.fina.alt" horiz-adv-x="484" 
d="M52 -149q0 86 50 164t136.5 125.5t190.5 47.5h60l10 -94l-10 -94h-60q-79 0 -142 -26.5t-101 -64.5q27 -10 71.5 -16.5t100.5 -6.5l114 1l-64 -188l-78 -1q-100 0 -166 20t-102 61q-10 34 -10 72zM94 270l52 15q-13 17 -17 38q-2 7 -2 21q0 37 22.5 69t56.5 40q18 4 29 4
q28 0 70 -15l-20 -79q-29 10 -51 10q-9 0 -13 -1q-15 -4 -22 -12t-7 -18q0 -9 9.5 -19t29.5 -10q3 0 17 2l70 21v-79l-224 -67v80z" />
    <glyph glyph-name="uni06D3.fina.alt2" horiz-adv-x="444" 
d="M52 -150q0 86 50.5 164t137.5 126t191 48h19l10 -94l-10 -94h-19q-79 0 -142 -26.5t-100 -64.5q31 -10 83.5 -16.5t117.5 -6.5q95 0 235 2l-65 -188q-74 -2 -170 -2q-137 0 -214 20t-114 61q-10 34 -10 71zM113 294l52 15q-13 17 -17 38q-2 7 -2 21q0 37 22.5 69t56.5 40
q18 4 29 4q28 0 70 -15l-20 -79q-29 10 -51 10q-9 0 -13 -1q-15 -4 -22 -12t-7 -18q0 -9 9.5 -19t29.5 -10q3 0 17 2l70 21v-79l-224 -67v80z" />
    <glyph glyph-name="uni0640.001" horiz-adv-x="55" 
d="M-4 0l-10 94l10 94h64v-188h-64z" />
    <glyph glyph-name="uni06B50627" horiz-adv-x="618" 
d="M570 558.5q8 -119.5 8 -235.5q0 -106 -67.5 -186t-178 -123t-236.5 -43l-45 171l88 6q15 33 15 77q0 64 -29.5 154.5t-84.5 211.5l130 91q57 -113 85 -211.5t28 -178.5q0 -74 -22 -125q79 18 123.5 54.5t44.5 98.5q-1 102 -9.5 195t-25.5 220l155 35q13 -92 21 -211.5z
M423 999q11 -15 26 -47.5t22 -56.5q6 25 21.5 60.5t27.5 52.5l52 -48q-17 -27 -37 -67t-34 -73l-55 -17q-11 31 -33 74t-41 72z" />
    <glyph glyph-name="uni06B50627.fina" horiz-adv-x="688" 
d="M494 118q-67 -70 -172.5 -108.5t-225.5 -38.5l-45 171l88 6q15 33 15 77q0 64 -29.5 154.5t-84.5 211.5l130 91q57 -113 85 -211.5t28 -178.5q0 -74 -22 -125q79 18 123.5 54.5t44.5 98.5q-1 102 -9.5 195t-25.5 220l155 35q13 -92 21 -211.5t8 -235.5v-4q3 -57 13 -84.5
t30.5 -37t60.5 -9.5h12v-188h-14q-138 0 -186 118zM423 999q11 -15 26 -47.5t22 -56.5q6 25 21.5 60.5t27.5 52.5l52 -48q-17 -27 -37 -67t-34 -73l-55 -17q-11 31 -33 74t-41 72z" />
    <glyph glyph-name="uni0664.ss03" horiz-adv-x="700" 
d="M134 96q0 156 -18 279q-23 171 -74 287l128 80q34 -69 52 -138q6 -17 17 -39q22 78 84 129.5t139 51.5q97 0 199 -83l-59 -125q-66 21 -121 21t-91 -19.5t-34 -52.5q2 -21 38.5 -38.5t93.5 -17.5q70 0 149 29l36 -165q-109 -46 -210 -46q-112 0 -196 57q4 -67 4 -156
q0 -72 -3 -150h-136q2 66 2 96z" />
    <glyph glyph-name="uni0665.ss03" horiz-adv-x="700" 
d="M109.5 428q39.5 85 97.5 160l-34 18l88 156q162 -105 274.5 -242.5t112.5 -301.5q0 -66 -20.5 -118.5t-58 -82t-85.5 -29.5q-34 0 -66 16.5t-57 52.5q-40 -69 -124 -69q-54 0 -94.5 29.5t-62 81.5t-21.5 118q0 30 2 45q9 81 48.5 166zM185 243q0 -34 16 -51t45 -17t44 26
t16 63l101 16q1 -44 15.5 -74.5t43.5 -30.5q59 0 59 72q0 66 -55.5 135.5t-147.5 134.5q-111 -117 -133 -239q-4 -17 -4 -35z" />
    <glyph glyph-name="uni0666.ss03" horiz-adv-x="700" 
d="M242 279q-46 33 -71 88.5t-25 114.5q0 56 23 110.5t70.5 95.5t118.5 53q9 2 28 2q44 0 92 -18t76 -41l-59 -125q-3 1 -25 6.5t-55 5.5q-19 0 -40 -3q-32 -5 -55.5 -19.5t-36 -33t-12.5 -33.5q0 -9 12.5 -20t35 -19t50.5 -8q45 0 95 21q61 33 115 56l31 -181
q-117 -44 -226 -136.5t-168 -225.5l-119 59q47 140 145 251z" />
    <glyph glyph-name="uni06F0.ss03" horiz-adv-x="700" 
d="M257.5 44.5q-42.5 25.5 -68 68t-25.5 92.5t25.5 92.5t68 67.5t91.5 25q50 0 93 -25t68 -67t25 -93q0 -50 -25 -92.5t-68 -68t-93 -25.5q-49 0 -91.5 25.5zM310.5 165q16.5 -17 38.5 -17t38.5 17t16.5 40t-16.5 39.5t-38.5 16.5t-38.5 -17t-16.5 -39q0 -23 16.5 -40z" />
    <glyph glyph-name="uni06F1.ss03" horiz-adv-x="700" 
d="M301 96q0 156 -18 279q-23 171 -74 287l129 80q67 -137 89 -343q11 -104 11 -245q0 -74 -3 -154h-136q2 66 2 96z" />
    <glyph glyph-name="uni06F2.ss03" horiz-adv-x="700" 
d="M307.5 605q10.5 -21 31.5 -34t59 -13q88 0 88 112q0 19 -3 43l126 27q9 -43 9 -88q0 -74 -24.5 -138t-74 -102.5t-121.5 -38.5q-29 0 -59 11q10 -103 10 -233q0 -73 -3 -151h-136q2 66 2 97q0 151 -17 278q-23 171 -74 287l128 80q13 -26 29 -67q19 -49 29.5 -70z" />
    <glyph glyph-name="uni06F3.ss03" horiz-adv-x="700" 
d="M496.5 593q13.5 -32 36.5 -32q14 0 23 14.5t9 45.5q0 37 -12 82l121 45q19 -67 19 -133t-20 -119t-56 -83t-83 -30q-64 0 -111 70q-22 -38 -52 -59.5t-67 -21.5q-29 0 -51 7q9 -106 9 -226q0 -73 -3 -153h-135q2 62 2 91q0 147 -18 284q-23 171 -74 287l128 80
q15 -30 30 -70q20 -47 32 -70.5t27.5 -35t38.5 -11.5q26 0 45.5 23.5t19.5 72.5q0 14 -1 22v4l119 20q10 -72 23.5 -104z" />
    <glyph glyph-name="uni06F4.ss03" horiz-adv-x="700" 
d="M133 96q0 156 -18 279q-23 171 -74 287l128 80q34 -69 52 -138q6 -17 17 -39q22 78 84 129.5t139 51.5q97 0 199 -83l-59 -125q-66 21 -121 21t-91 -19.5t-34 -52.5q2 -21 38.5 -38.5t93.5 -17.5q70 0 149 29l36 -165q-109 -46 -210 -46q-112 0 -196 57q4 -67 4 -156
q0 -72 -3 -150h-136q2 66 2 96z" />
    <glyph glyph-name="uni06F5.ss03" horiz-adv-x="700" 
d="M110.5 428q39.5 85 97.5 160l-34 18l88 156q162 -105 274.5 -242.5t112.5 -301.5q0 -66 -20.5 -118.5t-58 -82t-85.5 -29.5q-34 0 -66 16.5t-57 52.5q-40 -69 -124 -69q-54 0 -94.5 29.5t-62 81.5t-21.5 118q0 30 2 45q9 81 48.5 166zM186 243q0 -34 16 -51t45 -17t44 26
t16 63l101 16q1 -44 15.5 -74.5t43.5 -30.5q59 0 59 72q0 66 -55.5 135.5t-147.5 134.5q-111 -117 -133 -239q-4 -17 -4 -35z" />
    <glyph glyph-name="uni06F6.ss03" horiz-adv-x="700" 
d="M246 279q-46 33 -71 88.5t-25 114.5q0 56 23 110.5t70.5 95.5t118.5 53q9 2 28 2q44 0 92 -18t76 -41l-59 -125q-3 1 -25 6.5t-55 5.5q-19 0 -40 -3q-32 -5 -55.5 -19.5t-36 -33t-12.5 -33.5q0 -9 12.5 -20t35 -19t50.5 -8q45 0 95 21q61 33 115 56l31 -181
q-117 -44 -226 -136.5t-168 -225.5l-119 59q47 140 145 251z" />
    <glyph glyph-name="uni06F7.ss03" horiz-adv-x="700" 
d="M503 346.5q-77 -180.5 -109 -346.5h-124q-23 164 -101 342.5t-155 299.5l122 90q52 -78 103.5 -195t92.5 -253q41 137 92.5 254t103.5 194l122 -90q-70 -115 -147 -295.5z" />
    <glyph glyph-name="uni06F8.ss03" horiz-adv-x="700" 
d="M158 358q77 181 110 347h124q23 -164 101 -342.5t155 -299.5l-122 -90q-52 78 -103.5 195t-92.5 253q-41 -137 -92.5 -254t-103.5 -194l-122 90q69 114 146 295z" />
    <glyph glyph-name="uni06F9.ss03" horiz-adv-x="700" 
d="M423 93q-15 85 -24 182q-40 -9 -94 -9q-93 0 -143.5 58t-47.5 164q2 60 28 119.5t70.5 98t97.5 38.5q72 0 114 -49.5t59 -111.5t30 -146l3 -22q5 -27 8 -51.5t6 -43.5q14 -102 26 -169.5t28 -107.5l-128 -80q-18 45 -33 130zM254.5 462.5q17.5 -14.5 57.5 -14.5
q41 0 73 9q-8 50 -28.5 83.5t-53.5 33.5q-28 0 -47 -23.5t-19 -55.5q0 -18 17.5 -32.5z" />
    <glyph glyph-name="uni06F4.urdu" horiz-adv-x="706" 
d="M132 96q0 156 -18 279q-23 171 -74 287l128 80q34 -69 52 -138q6 -17 17 -39q22 78 84 129.5t139 51.5q97 0 199 -83l-59 -125q-66 21 -121 21t-91 -19.5t-34 -52.5q2 -21 38.5 -38.5t93.5 -17.5q70 0 149 29l36 -165q-109 -46 -210 -46q-112 0 -196 57q4 -67 4 -156
q0 -72 -3 -150h-136q2 66 2 96z" />
    <glyph glyph-name="uni06F7.urdu" horiz-adv-x="666" 
d="M504 338.5q-77 -180.5 -109 -346.5h-124q-23 164 -101 342.5t-155 299.5l122 90q52 -78 103.5 -195t92.5 -253q41 137 92.5 254t103.5 194l122 -90q-70 -115 -147 -295.5z" />
    <glyph glyph-name="zero.ss02" horiz-adv-x="497" 
d="M145.5 44.5q-42.5 25.5 -68 68t-25.5 92.5t25.5 92.5t68 67.5t91.5 25q50 0 93 -25t68.5 -67t25.5 -93q0 -50 -25.5 -92.5t-68.5 -68t-93 -25.5q-49 0 -91.5 25.5zM199.5 165.5q16.5 -17.5 37.5 -17.5q22 0 38.5 17t16.5 40t-16.5 39.5t-38.5 16.5q-21 0 -37.5 -17
t-16.5 -39t16.5 -39.5z" />
    <glyph glyph-name="one.ss02" horiz-adv-x="338" 
d="M132 96q0 156 -18 279q-23 171 -74 287l128 80q69 -137 89 -343q12 -115 12 -248q0 -73 -3 -151h-136q2 66 2 96z" />
    <glyph glyph-name="two.ss02" horiz-adv-x="567" 
d="M132 96q0 156 -18 279q-23 171 -74 287l128 80q22 -43 35 -82q15 -39 26.5 -59t32 -31.5t55.5 -11.5q88 0 88 112q0 19 -3 43l126 27q9 -43 9 -88q0 -74 -24.5 -138t-74 -102.5t-121.5 -38.5q-30 0 -58 11q10 -103 10 -233q0 -73 -3 -151h-136q2 66 2 96z" />
    <glyph glyph-name="three.ss02" horiz-adv-x="729" 
d="M502.5 593q13.5 -32 36.5 -32q14 0 23 14.5t9 45.5q0 37 -12 82l121 45q19 -67 19 -133t-20 -119t-56 -83t-83 -30q-64 0 -111 70q-22 -38 -52 -59.5t-67 -21.5q-29 0 -51 7q10 -103 10 -230q0 -71 -3 -149h-136q2 66 2 96q0 156 -18 279q-23 171 -74 287l128 80
q20 -41 33 -77q27 -64 45 -87t50 -23q26 0 45.5 23.5t19.5 72.5q0 14 -1 22v4l119 20q10 -72 23.5 -104z" />
    <glyph glyph-name="four.ss02" horiz-adv-x="706" 
d="M132 96q0 156 -18 279q-23 171 -74 287l128 80q34 -69 52 -138q6 -17 17 -39q22 78 84 129.5t139 51.5q97 0 199 -83l-59 -125q-66 21 -121 21t-91 -19.5t-34 -52.5q2 -21 38.5 -38.5t93.5 -17.5q70 0 149 29l36 -165q-109 -46 -210 -46q-112 0 -196 57q4 -67 4 -156
q0 -72 -3 -150h-136q2 66 2 96z" />
    <glyph glyph-name="five.ss02" horiz-adv-x="662" 
d="M88 428q40 85 97 161l-33 17l87 156q162 -105 274.5 -242.5t112.5 -301.5q0 -66 -20.5 -118.5t-58 -82t-85.5 -29.5q-34 0 -66 16.5t-57 52.5q-40 -69 -124 -69q-54 0 -94.5 29.5t-62 81.5t-21.5 118q0 30 2 45q9 81 49 166zM163 243q0 -34 16 -51t45 -17t44 26t16 63
l101 16q1 -44 15.5 -74.5t43.5 -30.5q59 0 59 72q0 67 -55 136t-147 134q-112 -115 -134 -239q-4 -17 -4 -35z" />
    <glyph glyph-name="six.ss02" horiz-adv-x="596" 
d="M187 279q-46 33 -71.5 88.5t-25.5 114.5q0 56 23 110.5t71 95.5t119 53q9 2 28 2q44 0 92 -18t76 -41l-59 -125q-3 1 -25 6.5t-55 5.5q-19 0 -40 -3q-32 -5 -55.5 -19.5t-36 -33t-12.5 -33.5q0 -9 12.5 -20t35 -19t50.5 -8q47 0 94 20q46 27 115 57l32 -181
q-118 -44 -227 -136.5t-167 -225.5l-119 59q48 141 145 251z" />
    <glyph glyph-name="seven.ss02" horiz-adv-x="666" 
d="M504 346.5q-77 -180.5 -109 -346.5h-124q-23 164 -101 342.5t-155 299.5l122 90q52 -78 103.5 -195t92.5 -253q41 137 92.5 254t103.5 194l122 -90q-70 -115 -147 -295.5z" />
    <glyph glyph-name="eight.ss02" horiz-adv-x="666" 
d="M162 358.5q77 180.5 109 346.5h124q23 -164 101 -342.5t155 -299.5l-122 -90q-52 78 -103.5 195t-92.5 253q-41 -137 -92.5 -254t-103.5 -194l-122 90q70 115 147 295.5z" />
    <glyph glyph-name="nine.ss02" horiz-adv-x="576" 
d="M351 93q-15 85 -24 182q-40 -9 -94 -9q-93 0 -143.5 58t-47.5 164q2 60 28 119.5t70.5 98t97.5 38.5q72 0 114 -49.5t59 -111.5t30 -146l3 -22q5 -27 8 -51.5t6 -43.5q14 -102 26 -169.5t28 -107.5l-128 -80q-18 45 -33 130zM182.5 462.5q17.5 -14.5 57.5 -14.5
q41 0 73 9q-8 50 -28.5 83.5t-53.5 33.5q-28 0 -47 -23.5t-19 -55.5q0 -18 17.5 -32.5z" />
    <glyph glyph-name="zero.ss03" horiz-adv-x="700" 
d="M257.5 44.5q-42.5 25.5 -68 68t-25.5 92.5t25.5 92.5t68 67.5t91.5 25q50 0 93 -25t68 -67t25 -93q0 -50 -25 -92.5t-68 -68t-93 -25.5q-49 0 -91.5 25.5zM310.5 165q16.5 -17 38.5 -17t38.5 17t16.5 40t-16.5 39.5t-38.5 16.5t-38.5 -17t-16.5 -39q0 -23 16.5 -40z" />
    <glyph glyph-name="one.ss03" horiz-adv-x="700" 
d="M301 96q0 156 -18 279q-23 171 -74 287l129 80q67 -137 89 -343q11 -104 11 -245q0 -74 -3 -154h-136q2 66 2 96z" />
    <glyph glyph-name="two.ss03" horiz-adv-x="700" 
d="M307.5 605q10.5 -21 31.5 -34t59 -13q88 0 88 112q0 19 -3 43l126 27q9 -43 9 -88q0 -74 -24.5 -138t-74 -102.5t-121.5 -38.5q-29 0 -59 11q10 -103 10 -233q0 -73 -3 -151h-136q2 66 2 97q0 151 -17 278q-23 171 -74 287l128 80q13 -26 29 -67q19 -49 29.5 -70z" />
    <glyph glyph-name="three.ss03" horiz-adv-x="700" 
d="M496.5 593q13.5 -32 36.5 -32q14 0 23 14.5t9 45.5q0 37 -12 82l121 45q19 -67 19 -133t-20 -119t-56 -83t-83 -30q-64 0 -111 70q-22 -38 -52 -59.5t-67 -21.5q-29 0 -51 7q9 -106 9 -226q0 -73 -3 -153h-135q2 62 2 91q0 147 -18 284q-23 171 -74 287l128 80
q15 -30 30 -70q20 -47 32 -70.5t27.5 -35t38.5 -11.5q26 0 45.5 23.5t19.5 72.5q0 14 -1 22v4l119 20q10 -72 23.5 -104z" />
    <glyph glyph-name="four.ss03" horiz-adv-x="700" 
d="M133 96q0 156 -18 279q-23 171 -74 287l128 80q34 -69 52 -138q6 -17 17 -39q22 78 84 129.5t139 51.5q97 0 199 -83l-59 -125q-66 21 -121 21t-91 -19.5t-34 -52.5q2 -21 38.5 -38.5t93.5 -17.5q70 0 149 29l36 -165q-109 -46 -210 -46q-112 0 -196 57q4 -67 4 -156
q0 -72 -3 -150h-136q2 66 2 96z" />
    <glyph glyph-name="five.ss03" horiz-adv-x="700" 
d="M110.5 428q39.5 85 97.5 160l-34 18l88 156q162 -105 274.5 -242.5t112.5 -301.5q0 -66 -20.5 -118.5t-58 -82t-85.5 -29.5q-34 0 -66 16.5t-57 52.5q-40 -69 -124 -69q-54 0 -94.5 29.5t-62 81.5t-21.5 118q0 30 2 45q9 81 48.5 166zM186 243q0 -34 16 -51t45 -17t44 26
t16 63l101 16q1 -44 15.5 -74.5t43.5 -30.5q59 0 59 72q0 66 -55.5 135.5t-147.5 134.5q-111 -117 -133 -239q-4 -17 -4 -35z" />
    <glyph glyph-name="six.ss03" horiz-adv-x="700" 
d="M246 279q-46 33 -71 88.5t-25 114.5q0 56 23 110.5t70.5 95.5t118.5 53q9 2 28 2q44 0 92 -18t76 -41l-59 -125q-3 1 -25 6.5t-55 5.5q-19 0 -40 -3q-32 -5 -55.5 -19.5t-36 -33t-12.5 -33.5q0 -9 12.5 -20t35 -19t50.5 -8q45 0 95 21q61 33 115 56l31 -181
q-117 -44 -226 -136.5t-168 -225.5l-119 59q47 140 145 251z" />
    <glyph glyph-name="seven.ss03" horiz-adv-x="700" 
d="M503 346.5q-77 -180.5 -109 -346.5h-124q-23 164 -101 342.5t-155 299.5l122 90q52 -78 103.5 -195t92.5 -253q41 137 92.5 254t103.5 194l122 -90q-70 -115 -147 -295.5z" />
    <glyph glyph-name="eight.ss03" horiz-adv-x="700" 
d="M158 358q77 181 110 347h124q23 -164 101 -342.5t155 -299.5l-122 -90q-52 78 -103.5 195t-92.5 253q-41 -137 -92.5 -254t-103.5 -194l-122 90q69 114 146 295z" />
    <glyph glyph-name="nine.ss03" horiz-adv-x="700" 
d="M423 93q-15 85 -24 182q-40 -9 -94 -9q-93 0 -143.5 58t-47.5 164q2 60 28 119.5t70.5 98t97.5 38.5q72 0 114 -49.5t59 -111.5t30 -146l3 -22q5 -27 8 -51.5t6 -43.5q14 -102 26 -169.5t28 -107.5l-128 -80q-18 45 -33 130zM254.5 462.5q17.5 -14.5 57.5 -14.5
q41 0 73 9q-8 50 -28.5 83.5t-53.5 33.5q-28 0 -47 -23.5t-19 -55.5q0 -18 17.5 -32.5z" />
    <glyph glyph-name="zero.dnom" horiz-adv-x="375" 
d="M301 35.5q-40 -40.5 -113 -40.5t-113.5 39.5t-41.5 111.5v88q0 75 41 116t113 41t113 -41.5t41 -115.5v-85q0 -73 -40 -113.5zM153.5 96q10.5 -15 34.5 -15q43 0 44 58v98q0 68 -45 68q-42 0 -44 -62v-97q0 -35 10.5 -50z" />
    <glyph glyph-name="one.dnom" horiz-adv-x="375" 
d="M265 0h-109v260l-86 -17v81l185 60h10v-384z" />
    <glyph glyph-name="two.dnom" horiz-adv-x="375" 
d="M340 0h-306v72l139 123q23 20 36 41t13 32q0 37 -42 37q-21 0 -33 -14t-12 -36l-104 5q0 58 39 94.5t105 36.5q75 0 115.5 -31.5t40.5 -91.5q0 -36 -20 -67q-20 -30 -92 -82l-40 -34h161v-85z" />
    <glyph glyph-name="three.dnom" horiz-adv-x="375" 
d="M135 231h43q50 0 50 40q0 16 -12.5 25t-34.5 9q-18 0 -31 -6.5t-13 -18.5h-109q0 50 41.5 80.5t107.5 30.5q75 0 117.5 -30t42.5 -81q0 -58 -67 -82q75 -19 75 -90q0 -50 -46 -81.5t-122 -31.5q-71 0 -114 33.5t-43 89.5h111q0 -15 15 -26t39 -11q25 0 37 11t12 28
q0 42 -53 42h-46v69z" />
    <glyph glyph-name="four.dnom" horiz-adv-x="375" 
d="M306 164h39v-87h-39v-77h-110v77h-162l-8 70l170 238h110v-221zM196 164v93l-8 -11l-59 -82h67z" />
    <glyph glyph-name="five.dnom" horiz-adv-x="375" 
d="M37 186l27 199h251v-83h-162l-10 -61q36 13 64 13q65 0 98 -31.5t33 -91.5t-42.5 -98t-110.5 -38q-43 0 -78.5 15t-56.5 41.5t-21 58.5h111q-2 -29 45 -29q44 0 44 50q0 51 -52 51q-15 0 -29.5 -4.5t-23.5 -12.5z" />
    <glyph glyph-name="six.dnom" horiz-adv-x="375" 
d="M182.5 287q-31.5 -20 -38.5 -58q35 29 84 29q57 0 90 -35t33 -94q0 -38 -20.5 -68.5t-56 -48t-79.5 -17.5q-78 0 -121 39.5t-43 113.5v30q0 103 64.5 160t186.5 57v-88q-68 0 -99.5 -20zM153 92.5q12 -12.5 39 -12.5q20 0 34.5 15.5t14.5 34.5q0 43 -50 43q-33 0 -50 -20
v-20q0 -28 12 -40.5z" />
    <glyph glyph-name="seven.dnom" horiz-adv-x="375" 
d="M339 326l-157 -326h-116l159 299h-202v86h316v-59z" />
    <glyph glyph-name="eight.dnom" horiz-adv-x="375" 
d="M74 24.5q-41 29.5 -41 82.5q0 63 63 91q-54 29 -54 83q0 51 39 80.5t106 29.5t106.5 -29.5t39.5 -80.5q0 -56 -54 -83q62 -29 62 -91q0 -53 -40 -82.5t-113 -29.5t-114 29.5zM155.5 91q12.5 -10 32.5 -10t32 10t12 27q0 35 -45 35q-44 0 -44 -35q0 -17 12.5 -27zM188 239
q35 0 35 34q0 32 -36 32t-36 -32q0 -34 37 -34z" />
    </font>
</defs>
</svg>
