<?xml version="1.0" standalone="no"?>
<!DOCTYPE svg PUBLIC "-//W3C//DTD SVG 1.1//EN" "http://www.w3.org/Graphics/SVG/1.1/DTD/svg11.dtd" >
<svg xmlns="http://www.w3.org/2000/svg" xmlns:xlink="http://www.w3.org/1999/xlink" version="1.1">
<metadata>
Created by FontForge 20170731 at Wed Apr  6 17:12:58 2022
 By Aleksey,,,
Copyright (c) 2021 by www.fontiran.com (Moslem Ebrahimi). All rights reserved.
</metadata>
<defs>
<font id="IRANSansXFaNum-DemiBold" horiz-adv-x="0" >
  <font-face 
    font-family="IRANSansXFaNum DemiBold"
    font-weight="600"
    font-stretch="normal"
    units-per-em="1000"
    panose-1="0 0 0 0 0 0 0 0 0 0"
    ascent="800"
    descent="-200"
    x-height="528"
    cap-height="711"
    bbox="-81 -504 2295 1052"
    underline-thickness="28"
    underline-position="-255"
    unicode-range="U+000D-FEFF"
  />
<missing-glyph horiz-adv-x="255" 
d="M38 429h179v-433h-179v433zM208 4v417h-161v-417h161z" />
    <glyph glyph-name="uni06AA" unicode="&#x6a9;&#x621;&#x621;" horiz-adv-x="1232" 
d="M155 41q-101 53 -109 150q-1 8 -1 24q0 42 11 89.5t28 87.5l87 -43q-13 -40 -21 -74.5t-5 -60.5q7 -43 81 -69.5t207 -26.5h7q487 0 658 27q3 37 -22 57t-95 28.5t-211 8.5q-169 0 -258 10.5t-129 38.5q-5 28 -5 50q0 81 49.5 150.5t133.5 116t184 61.5l24 -115
q-79 -13 -142.5 -41.5t-104.5 -63.5t-55 -67q41 -12 124 -17t277 -5q160 0 237.5 -44t77.5 -136q0 -54 -19 -85.5t-56.5 -47.5t-99.5 -26q-93 -15 -220.5 -22t-347.5 -7h-7q-177 -1 -278 52z" />
    <glyph glyph-name="uni06BE" unicode="&#x647;&#x621;&#x621;" horiz-adv-x="727" 
d="M159 131q-38 48 -38 101q0 9 2 25q14 74 56 129l-30 9l46 120q190 -57 297.5 -110.5t150.5 -106t43 -111.5q0 -35 -15 -83q-16 -51 -68.5 -77t-125.5 -26q-80 0 -164 30q-94 -31 -273 -31l30 129q35 0 89 2zM244 199q26 -24 69 -42q79 28 79 92q0 25 -13 48t-35 36l-25 9
h-1l-9 1q-22 0 -43 -13t-34.5 -34.5t-13.5 -45.5q0 -27 26 -51zM490 119q45 0 71.5 13t26.5 39q0 49 -108 104q2 -31 -2 -54q-9 -58 -36 -99q26 -3 48 -3z" />
    <glyph glyph-name="uni06C0" unicode="&#x647;&#x654;" horiz-adv-x="462" 
d="M91.5 45q-49.5 49 -49.5 125q0 30 7 58q22 86 94 166l-35 22l65 99q129 -76 194.5 -155t65.5 -167q0 -57 -26.5 -102t-73 -70t-102.5 -25q-90 0 -139.5 49zM105 617q58 1 91 15.5t45 34.5q-6 4 -57 20q-30 9 -44.5 15t-23.5 17.5t-9 31.5q0 39 20 71.5t51.5 51.5t63.5 19
t59 -18l-27 -52q-12 6 -33 6q-29 0 -54 -19.5t-30 -46.5q3 -3 51 -18q44 -13 63.5 -25t19.5 -39q0 -32 -22.5 -62t-66.5 -48t-105 -16zM163 142.5q26 -19.5 76 -19.5q42 0 69 17t30 45q-4 36 -32 73.5t-83 80.5q-86 -81 -86 -142q0 -35 26 -54.5z" />
    <glyph glyph-name="uni06D2" unicode="&#x649;&#x621;&#x621;" horiz-adv-x="966" 
d="M53 103q0 73 45 145.5t110 118.5t119 46q48 0 84.5 -36t55.5 -69l-77 -66q-7 13 -28 28t-43 15q-37 0 -73.5 -25.5t-63 -59t-31.5 -50.5q17 -10 93.5 -22t198.5 -13h48q237 0 454 17l-45 -128q-81 -8 -169.5 -13t-239.5 -5h-48q-175 1 -258 18.5t-127 52.5q-5 19 -5 46z
" />
    <glyph glyph-name="uni06D3" unicode="&#x626;&#x621;&#x621;" horiz-adv-x="966" 
d="M53 103q0 73 45 145.5t110 118.5t119 46q48 0 84.5 -36t55.5 -69l-77 -66q-7 13 -28 28t-43 15q-37 0 -73.5 -25.5t-63 -59t-31.5 -50.5q17 -10 93.5 -22t198.5 -13h48q237 0 454 17l-45 -128q-81 -8 -169.5 -13t-239.5 -5h-48q-175 1 -258 18.5t-127 52.5q-5 19 -5 46z
M153 508l59 18q-20 20 -26 46q-2 12 -2 19q0 34 20.5 62.5t52.5 36.5q14 3 26 3q25 0 70 -13l-16 -62q-33 11 -54 11q-25 0 -38 -14.5t-9 -30.5q3 -13 17 -23.5t37 -9.5l80 25v-62l-217 -67v61z" />
    <glyph glyph-name="uni06C0.fina" unicode="&#xfeea;&#x654;" horiz-adv-x="506" arabic-form="final" 
d="M412.5 16q-34.5 16 -58.5 51q-60 -18 -115 -18q-86 0 -142 41.5t-56 112.5q0 83 64.5 141.5t172.5 99.5l-8 60l105 21q3 -22 4.5 -42t3.5 -38l22 -197q6 -51 15 -75.5t26 -34t50 -9.5h17l7 -64l-7 -65h-17q-49 0 -83.5 16zM76 536q58 1 91 15.5t44 34.5q-8 6 -56 20
q-43 13 -60 24.5t-17 39.5q0 39 20 71.5t51.5 51.5t62.5 19q38 0 60 -18l-27 -51q-1 0 -9 2.5t-22 3.5q-31 0 -56 -19.5t-31 -47.5q5 -4 52 -18q43 -12 63 -24.5t20 -39.5q0 -32 -22.5 -62t-66.5 -47.5t-105 -15.5zM163.5 187q26.5 -16 70.5 -16q35 0 77 12q-3 16 -7 48
l-12 98q-62 -20 -106 -48t-46 -54q-3 -24 23.5 -40z" />
    <glyph glyph-name="uni06C1.fina" unicode="&#xfeea;&#x621;&#x621;" horiz-adv-x="565" arabic-form="final" 
d="M570 129l7 -64l-7 -65h-7q-99 0 -171 56.5t-117 141.5q-45 -19 -90 -77.5t-64 -127.5l-77 49q11 57 41.5 112.5t71 97.5t81.5 62q28 14 49 14q39 0 71 -46q29 -48 51.5 -77.5t61 -52.5t91.5 -23h8z" />
    <glyph glyph-name="uni06C1.medi" unicode="&#xfeec;&#xfe8c;&#xfe8c;&#xfe8c;&#xfe8c;" horiz-adv-x="506" arabic-form="medial" 
d="M191 -143.5q-57 82.5 -71 179.5q-43 -36 -112 -36h-13v129h22q52 0 73.5 17t27.5 53l92 19q-1 -14 -1 -41q0 -172 69 -273q2 58 31.5 110t76.5 83.5t100 31.5h25l7 -64l-7 -65h-25q-56 0 -85.5 -36t-29.5 -87q0 -39 19 -74l-67 -65q-75 36 -132 118.5z" />
    <glyph glyph-name="uni06BE.fina" unicode="&#xfeea;&#x621;&#x621;&#x621;&#x621;" horiz-adv-x="582" arabic-form="final" 
d="M392 -239q-51 0 -99.5 27t-84.5 81t-46 132h-16h-67l-37 109l119 8q11 122 45 206.5t64 130.5l78 26q67 -38 109 -106t42 -139q0 -58 -24 -103q43 -4 112 -4l7 -64l-7 -65q-40 0 -75 3q30 -52 30 -102q0 -63 -48 -104q-42 -36 -102 -36zM369.5 173q40.5 31 40.5 66
q0 29 -23.5 63t-58.5 54q-23 -34 -43 -97t-27 -130q71 13 111.5 44zM316.5 -84.5q38.5 -35.5 80.5 -35.5q23 0 40 10q7 7 7 20q0 27 -23.5 62.5t-68.5 60.5q-41 -16 -89 -23q15 -59 53.5 -94.5z" />
    <glyph glyph-name="uni06BE.medi" unicode="&#xfeec;&#xfe8c;&#xfe8c;&#xfe8c;" horiz-adv-x="672" arabic-form="medial" 
d="M-3 129h14q35 0 89 2q-39 47 -39 101q0 9 2 25q13 73 56 130l-29 8l46 120q190 -60 298 -114t150.5 -105t42.5 -108q0 -27 -8 -59h58l7 -64l-7 -65q-58 0 -101 1.5t-83 8.5q-38 -8 -77 -8q-78 0 -159 28q-89 -30 -246 -30h-14v129zM182.5 199.5q24.5 -24.5 66.5 -44.5
q85 28 85 92q0 27 -14 51.5t-37 36.5l-20 7l-5 1l-9 1q-21 0 -42.5 -13.5t-35 -35t-13.5 -45.5q0 -26 24.5 -50.5zM431 113q45 0 72 13.5t27 41.5q0 51 -111 109q1 -9 1 -25q0 -21 -2 -31q-9 -61 -38 -104q36 -4 51 -4z" />
    <glyph glyph-name="uni06D2.fina" unicode="&#xfbfd;&#x621;&#x621;" horiz-adv-x="437" arabic-form="final" 
d="M54 -138q0 72 43 133.5t119 97.5t168 36h57l7 -64l-7 -65h-57q-67 0 -119 -18.5t-81.5 -42.5t-32.5 -37q28 -11 88.5 -18.5t147.5 -7.5q170 0 327 6l-45 -129q-110 -6 -282 -6q-133 0 -210 15t-117 47q-6 27 -6 53z" />
    <glyph glyph-name="uni06D3.fina" unicode="&#xfe8a;&#x621;&#x621;" horiz-adv-x="437" arabic-form="final" 
d="M54 -138q0 72 43 133.5t119 97.5t168 36h57l7 -64l-7 -65h-57q-67 0 -119 -18.5t-81.5 -42.5t-32.5 -37q28 -11 88.5 -18.5t147.5 -7.5q170 0 327 6l-45 -129q-110 -6 -282 -6q-133 0 -210 15t-117 47q-6 27 -6 53zM99 217l59 19q-19 19 -25 45q-2 7 -2 21q0 33 20.5 61
t52.5 36q12 3 25 3q28 0 70 -14l-16 -61q-31 11 -54 11q-9 0 -13 -1q-17 -4 -26 -14.5t-9 -22.5q0 -14 14.5 -27.5t39.5 -12.5l81 25v-62l-217 -68v62z" />
    <glyph glyph-name="uni06440622" unicode="&#xfedf;&#xfe82;" horiz-adv-x="575" arabic-form="isolated" 
d="M522 518q8 -95 8 -189v-40q-2 -101 -61 -170.5t-155.5 -106t-213.5 -42.5l-32 122q64 6 90 10q9 27 9 64q0 134 -121 409l93 63q60 -124 92 -236t32 -197q0 -49 -10 -83q169 48 169 166q0 101 -8 194t-24 219l110 25q14 -113 22 -208zM55 749.5q28 23.5 62 23.5
q16 0 29 -4t32 -13q13 -5 26 -9.5t25 -4.5q18 0 36 10.5t30 28.5l41 -35q-21 -32 -49 -50t-58 -18q-28 0 -64 18q-12 5 -25 9.5t-25 4.5q-19 0 -35.5 -14t-27.5 -40l-45 26q20 44 48 67.5z" />
    <glyph glyph-name="uni06440622.fina" unicode="&#xfee0;&#xfe82;" horiz-adv-x="644" arabic-form="final" 
d="M472 122q-56 -69 -154 -107.5t-218 -44.5l-32 122q64 6 90 10q9 27 9 64q0 134 -121 409l93 63q60 -124 92 -236t32 -197q0 -49 -10 -83q169 48 169 166q0 101 -8 194t-24 219l110 25q30 -226 30 -400q0 -75 8.5 -116.5t32 -61t67.5 -19.5h11v-129h-12q-125 0 -165 122z
M51 747q26 24 56 26q19 2 34.5 -2t37.5 -14q30 -15 51 -15q18 0 36 10.5t30 28.5l41 -35q-21 -32 -49 -50t-58 -18q-17 0 -31 4.5t-33 12.5q-32 15 -51 15t-35.5 -14t-26.5 -40l-45 26q17 41 43 65z" />
    <glyph glyph-name="uni06440623" unicode="&#xfedf;&#xfe84;" horiz-adv-x="575" arabic-form="isolated" 
d="M522 518q8 -95 8 -189v-40q-2 -101 -61 -170.5t-155.5 -106t-213.5 -42.5l-32 122q64 6 90 10q9 27 9 64q0 134 -121 409l93 63q60 -124 92 -236t32 -197q0 -49 -10 -83q169 48 169 166q0 101 -8 194t-24 219l110 25q14 -113 22 -208zM13 702l59 19q-19 19 -25 45
q-2 7 -2 21q0 33 20.5 61t52.5 36q12 3 25 3q28 0 70 -14l-16 -61q-31 11 -54 11q-9 0 -13 -1q-17 -4 -26 -14.5t-9 -22.5q0 -14 14.5 -27.5t39.5 -12.5l81 25v-62l-217 -68v62z" />
    <glyph glyph-name="uni06440623.fina" unicode="&#xfee0;&#xfe84;" horiz-adv-x="644" arabic-form="final" 
d="M472 122q-56 -69 -154 -107.5t-218 -44.5l-32 122q64 6 90 10q9 27 9 64q0 134 -121 409l93 63q60 -124 92 -236t32 -197q0 -49 -10 -83q169 48 169 166q0 101 -8 194t-24 219l110 25q30 -226 30 -400q0 -75 8.5 -116.5t32 -61t67.5 -19.5h11v-129h-12q-125 0 -165 122z
M13 702l59 19q-19 19 -25 45q-2 7 -2 21q0 33 20.5 61t52.5 36q12 3 25 3q28 0 70 -14l-16 -61q-31 11 -54 11q-9 0 -13 -1q-17 -4 -26 -14.5t-9 -22.5q0 -14 14.5 -27.5t39.5 -12.5l81 25v-62l-217 -68v62z" />
    <glyph glyph-name="uni06440625" unicode="&#xfedf;&#xfe88;" horiz-adv-x="575" arabic-form="isolated" 
d="M522 518q8 -95 8 -189v-40q-2 -101 -61 -170.5t-155.5 -106t-213.5 -42.5l-32 122q64 6 90 10q9 27 9 64q0 134 -121 409l93 63q60 -124 92 -236t32 -197q0 -49 -10 -83q169 48 169 166q0 101 -8 194t-24 219l110 25q14 -113 22 -208zM48 -260l59 18q-20 20 -26 46
q-2 12 -2 19q0 34 20.5 62.5t52.5 36.5q14 3 26 3q25 0 70 -13l-16 -62q-33 11 -55 11q-24 0 -37 -14.5t-9 -30.5q3 -13 17 -23.5t37 -9.5l80 25v-62l-217 -67v61z" />
    <glyph glyph-name="uni06440625.fina" unicode="&#xfee0;&#xfe88;" horiz-adv-x="644" arabic-form="final" 
d="M472 122q-56 -69 -154 -107.5t-218 -44.5l-32 122q64 6 90 10q9 27 9 64q0 134 -121 409l93 63q60 -124 92 -236t32 -197q0 -49 -10 -83q169 48 169 166q0 101 -8 194t-24 219l110 25q30 -226 30 -400q0 -75 8.5 -116.5t32 -61t67.5 -19.5h11v-129h-12q-125 0 -165 122z
M48 -257l58 18q-19 19 -25 45q-2 14 -2 20q0 34 20.5 62.5t52.5 35.5q14 3 27 3q24 0 69 -13l-16 -61q-31 11 -52 11q-26 0 -39.5 -14.5t-9.5 -31.5q3 -12 17 -23t36 -10l81 25v-61l-217 -68v62z" />
    <glyph glyph-name="uni06440627" unicode="&#xfedf;&#xfe8e;" horiz-adv-x="574" arabic-form="isolated" 
d="M522 518q8 -95 8 -189v-40q-2 -101 -61 -170.5t-155.5 -106t-213.5 -42.5l-32 122q64 6 90 10q9 27 9 64q0 134 -121 409l93 63q60 -124 92 -236t32 -197q0 -49 -10 -83q169 48 169 166q0 101 -8 194t-24 219l110 25q14 -113 22 -208z" />
    <glyph glyph-name="uni06440627.fina" unicode="&#xfee0;&#xfe8e;" horiz-adv-x="644" arabic-form="final" 
d="M472 122q-56 -69 -154 -107.5t-218 -44.5l-32 122q64 6 90 10q9 27 9 64q0 134 -121 409l93 63q60 -124 92 -236t32 -197q0 -49 -10 -83q169 48 169 166q0 101 -8 194t-24 219l110 25q30 -226 30 -400q0 -75 8.5 -116.5t32 -61t67.5 -19.5h11v-129h-12q-125 0 -165 122z
" />
    <glyph glyph-name="uni06AA.001" unicode="&#x6af;&#x621;&#x621;" horiz-adv-x="1232" 
d="M155 41q-101 53 -109 150q-1 8 -1 24q0 42 11 89.5t28 87.5l87 -43q-13 -40 -21 -74.5t-5 -60.5q7 -43 81 -69.5t207 -26.5h7q487 0 658 27q3 37 -22 57t-95 28.5t-211 8.5q-169 0 -258 10.5t-129 38.5q-5 28 -5 50q0 81 49.5 150.5t133.5 116t184 61.5l24 -115
q-79 -13 -142.5 -41.5t-104.5 -63.5t-55 -67q41 -12 124 -17t277 -5q160 0 237.5 -44t77.5 -136q0 -54 -19 -85.5t-56.5 -47.5t-99.5 -26q-93 -15 -220.5 -22t-347.5 -7h-7q-177 -1 -278 52zM480.5 684q75.5 50 153.5 68l11 -56q-71 -17 -139.5 -62t-108.5 -102l-25 50
q33 52 108.5 102z" />
    <glyph glyph-name="uni06AA.fina" unicode="&#xfb8f;&#x621;&#x621;" horiz-adv-x="1245" 
d="M1181 16.5q-28 16.5 -45 44.5q-38 -28 -128 -43q-93 -15 -220.5 -22t-347.5 -7h-7q-177 -1 -278 52t-109 150q-1 8 -1 24q0 42 11 89.5t28 87.5l87 -43q-13 -40 -21 -74.5t-5 -60.5q7 -43 81 -69.5t207 -26.5h7q487 0 658 27q3 37 -22 57t-95 28.5t-211 8.5
q-169 0 -258 10.5t-129 38.5q-5 28 -5 50q0 81 49.5 150.5t133.5 116t184 61.5l24 -115q-79 -13 -142.5 -41.5t-104.5 -63.5t-55 -67q41 -12 124 -17t277 -5q169 0 246 -48.5t68 -152.5v-3q7 -13 22.5 -18.5t40.5 -5.5h7l7 -64l-7 -65h-7q-36 0 -64 16.5z" />
    <glyph glyph-name="uni06AA.fina.001" unicode="&#xfb93;&#x621;&#x621;" horiz-adv-x="1245" 
d="M1181 16.5q-28 16.5 -45 44.5q-38 -28 -128 -43q-93 -15 -220.5 -22t-347.5 -7h-7q-177 -1 -278 52t-109 150q-1 8 -1 24q0 42 11 89.5t28 87.5l87 -43q-13 -40 -21 -74.5t-5 -60.5q7 -43 81 -69.5t207 -26.5h7q487 0 658 27q3 37 -22 57t-95 28.5t-211 8.5
q-169 0 -258 10.5t-129 38.5q-5 28 -5 50q0 81 49.5 150.5t133.5 116t184 61.5l24 -115q-79 -13 -142.5 -41.5t-104.5 -63.5t-55 -67q41 -12 124 -17t277 -5q169 0 246 -48.5t68 -152.5v-3q7 -13 22.5 -18.5t40.5 -5.5h7l7 -64l-7 -65h-7q-36 0 -64 16.5zM480.5 678
q75.5 50 153.5 68l11 -56q-71 -17 -140 -62.5t-108 -102.5l-25 50q33 53 108.5 103z" />
    <glyph glyph-name="uni06AA.medi" unicode="&#xfb91;&#xfe8c;&#xfe8c;" horiz-adv-x="917" 
d="M854.5 15.5q-26.5 15.5 -44.5 41.5q-42 -33 -128 -38q-112 -7 -290.5 -13t-368.5 -6h-28v129h28q221 0 437.5 4.5t311.5 12.5q3 37 -22 57t-95 28.5t-211 8.5q-169 0 -257.5 10.5t-129.5 38.5q-5 28 -5 50q0 81 49.5 151t133.5 116.5t184 60.5l24 -115
q-79 -13 -142.5 -41.5t-104 -63.5t-55.5 -67q41 -12 123 -16.5t278 -4.5q169 0 246 -49t68 -153l-1 -9q15 -19 57 -19h10v-129h-10q-31 0 -57.5 15.5z" />
    <glyph glyph-name="uni06AA.medi.001" unicode="&#xfb95;&#xfe8c;&#xfe8c;" horiz-adv-x="917" 
d="M854.5 15.5q-26.5 15.5 -44.5 41.5q-42 -33 -128 -38q-112 -7 -290.5 -13t-368.5 -6h-28v129h28q221 0 437.5 4.5t311.5 12.5q3 37 -22 57t-95 28.5t-211 8.5q-169 0 -257.5 10.5t-129.5 38.5q-5 28 -5 50q0 81 49.5 151t133.5 116.5t184 60.5l24 -115
q-79 -13 -142.5 -41.5t-104 -63.5t-55.5 -67q41 -12 123 -16.5t278 -4.5q169 0 246 -49t68 -153l-1 -9q15 -19 57 -19h10v-129h-10q-31 0 -57.5 15.5zM149.5 677q75.5 50 153.5 68l11 -56q-70 -17 -139.5 -62t-108.5 -102l-25 50q33 52 108.5 102z" />
    <glyph glyph-name="uni06AA.init" unicode="&#xfb90;&#xfe8c;&#xfe8c;" horiz-adv-x="907" 
d="M-5 129h28q221 0 437.5 4.5t311.5 12.5q3 37 -22 57t-95 28.5t-211 8.5q-169 0 -257.5 10.5t-129.5 38.5q-5 28 -5 50q0 81 49.5 151t133.5 116.5t184 60.5l24 -115q-79 -13 -142.5 -41.5t-104 -63.5t-55.5 -67q41 -12 123 -16.5t278 -4.5q160 0 237.5 -44t77.5 -137
q0 -80 -42.5 -117t-132.5 -42q-112 -7 -290.5 -13t-368.5 -6h-28v129z" />
    <glyph glyph-name="uni06AA.init.001" unicode="&#xfb94;&#xfe8c;&#xfe8c;" horiz-adv-x="907" 
d="M-5 129h28q221 0 437.5 4.5t311.5 12.5q3 37 -22 57t-95 28.5t-211 8.5q-169 0 -257.5 10.5t-129.5 38.5q-5 28 -5 50q0 81 49.5 151t133.5 116.5t184 60.5l24 -115q-79 -13 -142.5 -41.5t-104 -63.5t-55.5 -67q41 -12 123 -16.5t278 -4.5q160 0 237.5 -44t77.5 -137
q0 -80 -42.5 -117t-132.5 -42q-112 -7 -290.5 -13t-368.5 -6h-28v129zM149.5 677q75.5 50 153.5 68l11 -56q-70 -17 -139.5 -62t-108.5 -102l-25 50q33 52 108.5 102z" />
    <glyph glyph-name="uni0647.fina.alt" unicode="&#xfeea;&#x621;&#x621;&#x621;" horiz-adv-x="662" 
d="M405 30q-81 -28 -161 -28q-73 0 -125.5 25.5t-68.5 76.5q-15 48 -15 84q0 58 42.5 108.5t150 104.5t298.5 114l46 -120l-29 -8q43 -57 56 -130q2 -16 2 -25q0 -54 -39 -101q54 -2 89 -2h14v-129h-14q-157 0 -246 30zM159 126.5q27 -13.5 72 -13.5q15 0 51 4
q-29 43 -38 104q-2 10 -2 31q0 16 1 25q-111 -58 -111 -109q0 -28 27 -41.5zM413 155q42 20 66.5 44.5t24.5 50.5q0 25 -15.5 48t-39 35.5t-45.5 9.5l-5 -1l-20 -7q-23 -12 -37 -36.5t-14 -51.5q0 -64 85 -92z" />
    <glyph glyph-name="uni0647.medi.alt" unicode="&#xfeec;&#xfe8c;&#xfe8c;" horiz-adv-x="474" 
d="M202.5 -229q-55.5 30 -95.5 88.5t-52 141.5q-10 -1 -31 -1h-28v129h28h30q7 69 25.5 136t42 117.5t44.5 72.5l74 20q68 -38 109.5 -102.5t41.5 -136.5q0 -90 -62.5 -147.5t-174.5 -77.5q12 -48 40 -83t64 -51q-6 25 -6 50q0 56 27.5 102t74 73t102.5 27h23l7 -64l-7 -65
h-23q-45 0 -73 -25.5t-28 -63.5q0 -35 23 -69l-58 -105q-62 4 -117.5 34zM259 179q37 27 37 62q0 27 -20.5 57t-56.5 53q-22 -34 -41 -91.5t-27 -120.5q71 13 108 40z" />
    <glyph glyph-name="uni0647.init.alt" unicode="&#xfeeb;&#xfe8c;&#xfe8c;" horiz-adv-x="464" 
d="M52 130q9 92 36.5 172.5t57.5 133.5l94 41q62 -39 102.5 -100t40.5 -132q0 -105 -86 -170q55 -30 87 -75t32 -103q0 -43 -20 -77.5t-54.5 -54.5t-75.5 -20q-54 0 -100 30.5t-76.5 88.5t-38.5 137q-16 -1 -49 -1h-7v129h6q35 0 51 1zM187.5 -98q32.5 -41 78.5 -41
q26 0 41.5 13.5t11.5 36.5q-6 37 -43 67t-101 42q-9 -3 -29 -7q9 -70 41.5 -111zM254.5 178q35.5 26 35.5 62q0 32 -25 64t-58 51q-18 -40 -34.5 -97.5t-23.5 -117.5q70 12 105.5 38z" />
    <glyph glyph-name="uni06D2.fina.alt2" unicode="&#xfbfd;&#x621;&#x621;&#x621;&#x621;&#x621;" horiz-adv-x="397" 
d="M51 -138q0 72 43 133.5t119 97.5t168 36h22l7 -64l-7 -65h-22q-67 0 -119 -18.5t-81.5 -42.5t-32.5 -37q10 -7 58.5 -16.5t129.5 -9.5q110 0 242 2l-46 -129q-85 -2 -196 -2q-126 0 -188 15.5t-91 46.5q-6 27 -6 53z" />
    <glyph glyph-name="uni06D2.fina.alt3" unicode="&#xfbfd;&#x621;&#x621;&#x621;&#x621;" horiz-adv-x="437" 
d="M54 -138q0 72 43 133.5t119 97.5t168 36h57l7 -64l-7 -65h-57q-67 0 -119 -18.5t-81.5 -42.5t-32.5 -37q28 -11 88.5 -18.5t147.5 -7.5q170 0 327 6l-45 -129q-110 -6 -282 -6q-133 0 -210 15t-117 47q-6 27 -6 53z" />
    <glyph glyph-name="uni06D2.fina.alt4" unicode="&#xfbfd;&#x621;&#x621;&#x621;" horiz-adv-x="414" 
d="M40 -137q0 72 43 133t118.5 97t167.5 36h52l7 -64l-7 -65h-52q-67 0 -118.5 -18.5t-81 -42t-33.5 -37.5q39 -11 112 -18.5t171 -7.5q170 0 381 8l-45 -129q-164 -8 -336 -8q-161 0 -247 15t-126 47q-6 27 -6 54z" />
    <glyph glyph-name="uni06440671" unicode="&#xfedf;&#xfb51;" horiz-adv-x="575" 
d="M522 518q8 -95 8 -189v-40q-2 -101 -61 -170.5t-155.5 -106t-213.5 -42.5l-32 122q64 6 90 10q9 27 9 64q0 134 -121 409l93 63q60 -124 92 -236t32 -197q0 -49 -10 -83q169 48 169 166q0 101 -8 194t-24 219l110 25q14 -113 22 -208zM40.5 723q18.5 16 39.5 19q5 1 14 1
q16 0 29 -4q27 48 63 75.5t74 27.5q35 0 58.5 -22.5t23.5 -57.5q0 -37 -26.5 -65.5t-68.5 -36.5q-16 -3 -31 -3q-32 0 -79 15q-28 9 -42 9q-26 0 -46 -26l-41 27q14 25 32.5 41zM217 716q14 0 21 2q28 4 44 16t16 25q0 10 -12.5 17t-27.5 7q-23 0 -46 -15.5t-42 -43.5
q27 -8 47 -8z" />
    <glyph glyph-name="uni06440671.fina" unicode="&#xfee0;&#xfb51;" horiz-adv-x="644" 
d="M472 122q-56 -69 -154 -107.5t-218 -44.5l-32 122q64 6 90 10q9 27 9 64q0 134 -121 409l93 63q60 -124 92 -236t32 -197q0 -49 -10 -83q169 48 169 166q0 101 -8 194t-24 219l110 25q30 -226 30 -400q0 -75 8.5 -116.5t32 -61t67.5 -19.5h11v-129h-12q-125 0 -165 122z
M76 742q5 1 15 1q15 0 28 -4q26 48 62.5 75.5t73.5 27.5q35 0 59 -23t24 -59t-26.5 -64t-68.5 -36q-16 -3 -32 -3q-31 0 -78 15q-20 6 -30 8t-20 1q-19 -2 -28.5 -13.5t-10.5 -12.5l-41 27q32 55 73 60zM213 716q14 0 21 2q27 4 43.5 15.5t16.5 24.5q0 10 -12 17.5t-28 7.5
q-23 0 -46.5 -15t-42.5 -43q26 -9 48 -9z" />
    <glyph glyph-name="uni06A90644" unicode="&#xfb90;&#xfede;" horiz-adv-x="1129" 
d="M633 45q-9 -143 -88.5 -222.5t-216.5 -79.5q-80 0 -145.5 32t-104 91t-38.5 138q0 56 20 124.5t48 127.5l88 -41q-27 -57 -41 -102t-14 -89q0 -68 51.5 -110t135.5 -42q213 0 206 221q-6 191 -17 357t-22 251l109 25q14 -109 26 -507q11 -46 41.5 -68t87.5 -22
q71 0 108.5 14.5t53.5 42.5q-1 53 -55 132.5t-154 166.5l12 115l369 157l36 -104l-297 -127q34 -30 78.5 -86.5t77.5 -124t33 -125.5q0 -18 -5 -40q-21 -75 -90 -112.5t-167 -37.5q-78 0 -126 45z" />
    <glyph glyph-name="uni06A90644.fina" unicode="&#xfb91;&#xfede;" horiz-adv-x="1200" 
d="M633 45q-9 -143 -88.5 -222.5t-216.5 -79.5q-80 0 -145.5 32t-104 91t-38.5 138q0 56 20 124.5t48 127.5l88 -41q-27 -57 -41 -102t-14 -89q0 -68 51.5 -110t135.5 -42q213 0 206 221q-6 191 -17 357t-22 251l109 25q14 -109 26 -507q11 -46 41.5 -68t87.5 -22
q71 0 108.5 14.5t53.5 42.5q-1 53 -55 132.5t-154 166.5l12 115l369 157l36 -104l-297 -127q30 -27 70 -75t70 -101q71 -121 119.5 -171t100.5 -50h16l7 -64l-7 -65h-16q-51 0 -93.5 30t-90.5 97q-28 -64 -93.5 -95.5t-155.5 -31.5q-78 0 -126 45z" />
    <glyph glyph-name="uni06AF0644" unicode="&#xfb94;&#xfede;" horiz-adv-x="1129" 
d="M633 45q-9 -143 -88.5 -222.5t-216.5 -79.5q-80 0 -145.5 32t-104 91t-38.5 138q0 56 20 124.5t48 127.5l88 -41q-27 -57 -41 -102t-14 -89q0 -68 51.5 -110t135.5 -42q213 0 206 221q-6 191 -17 357t-22 251l109 25q14 -108 26 -502q10 -49 40.5 -72t88.5 -23
q132 0 162 57q-4 51 -55.5 122.5t-153.5 154.5l12 114l369 158l36 -104l-297 -128q36 -30 80 -81t77 -113t33 -117q0 -21 -6 -42q-22 -75 -90.5 -112.5t-166.5 -37.5q-76 0 -126 45zM731 692l322 133l16 -44l-344 -145z" />
    <glyph glyph-name="uni06AF0644.fina" unicode="&#xfb95;&#xfede;" horiz-adv-x="1201" 
d="M633 45q-9 -143 -88.5 -222.5t-216.5 -79.5q-80 0 -145.5 32t-104 91t-38.5 138q0 56 20 124.5t48 127.5l88 -41q-27 -57 -41 -102t-14 -89q0 -68 51.5 -110t135.5 -42q213 0 206 221q-6 191 -17 357t-22 251l109 25q14 -109 26 -507q11 -46 41.5 -68t87.5 -22
q132 0 162 57q-4 51 -55.5 122.5t-153.5 154.5l12 114l369 158l36 -104l-297 -128q33 -28 73 -73.5t70 -95.5q53 -83 87.5 -126t64.5 -61t66 -18h15l7 -64l-7 -65h-15q-51 0 -95 30t-91 95q-28 -63 -93.5 -94t-154.5 -31q-78 0 -126 45zM731 692l322 133l16 -44l-344 -145z
" />
    <glyph glyph-name="uni064406440647" unicode="&#xfedf;&#xfee0;&#x651;&#x670;&#xfeea;" horiz-adv-x="977" 
d="M618 59q-51 -63 -135 -63q-92 0 -140 68q-60 -17 -112 -17q-85 0 -139 40t-54 110q0 79 63 137t170 95l-7 59l104 22q3 -43 28 -271q6 -60 22.5 -86.5t61.5 -26.5q38 0 60.5 19t23.5 45q-7 172 -19 313l105 23q12 -162 21 -344q4 -20 25 -37.5t57 -17.5q39 0 60 21.5
t21 62.5q0 32 -13 171.5t-24 224.5l105 23q11 -88 22.5 -225.5t11.5 -184.5q0 -104 -49.5 -163t-129.5 -59q-86 0 -139 61zM158 178.5q27 -14.5 69 -14.5q36 0 76 12l-1 7l-18 141q-64 -21 -108.5 -51t-44.5 -58q0 -22 27 -36.5zM460.5 694q4.5 18 10.5 31l43 -16
q-10 -23 -10 -40q0 -12 7.5 -19t20.5 -7q20 0 31 17t8 56l43 8q8 -73 45 -73q14 0 21.5 8t7.5 20q0 8 -10.5 31.5t-18.5 35.5l43 27q2 -4 12.5 -22.5t17 -37.5t6.5 -35q0 -38 -20.5 -62.5t-57.5 -24.5q-18 0 -35 8t-28 25q-11 -19 -28.5 -29.5t-36.5 -10.5q-36 0 -56 21.5
t-20 53.5q0 17 4.5 35zM620 936q3 -39 3 -92q0 -48 -1 -72l-51 1q2 46 2 71q0 51 -3 87z" />
    <glyph glyph-name="uniFDF2" unicode="&#x627;&#xfedf;&#xfee0;&#xfeea;" horiz-adv-x="1176" 
d="M618 59q-51 -63 -135 -63q-92 0 -140 68q-60 -17 -112 -17q-85 0 -139 40t-54 110q0 79 63 137t170 95l-7 59l104 22q3 -43 28 -271q6 -60 22.5 -86.5t61.5 -26.5q38 0 60.5 19t23.5 45q-7 172 -19 313l105 23q12 -162 21 -344q4 -20 25 -37.5t57 -17.5q39 0 60 21.5
t21 62.5q0 32 -13 171.5t-24 224.5l105 23q11 -88 22.5 -225.5t11.5 -184.5q0 -104 -49.5 -163t-129.5 -59q-86 0 -139 61zM158 178.5q27 -14.5 69 -14.5q36 0 76 12l-1 7l-18 141q-64 -21 -108.5 -51t-44.5 -58q0 -22 27 -36.5zM460.5 694q4.5 18 10.5 31l43 -16
q-10 -23 -10 -40q0 -12 7.5 -19t20.5 -7q20 0 31 17t8 56l43 8q8 -73 45 -73q14 0 21.5 8t7.5 20q0 8 -10.5 31.5t-18.5 35.5l43 27q2 -4 12.5 -22.5t17 -37.5t6.5 -35q0 -38 -20.5 -62.5t-57.5 -24.5q-18 0 -35 8t-28 25q-11 -19 -28.5 -29.5t-36.5 -10.5q-36 0 -56 21.5
t-20 53.5q0 17 4.5 35zM620 936q3 -39 3 -92q0 -48 -1 -72l-51 1q2 46 2 71q0 51 -3 87zM1106 728q8 -54 15 -199.5t7 -284.5q0 -165 -11 -248l-106 12q9 69 9 210q0 137 -7.5 284t-16.5 201z" />
    <glyph glyph-name="uniFDFC.001" unicode="&#x631;&#xfbfe;&#xfe8e;&#x644;&#x621;" horiz-adv-x="1443" 
d="M1171 -40q56 29 89.5 62t37.5 62q1 5 1 21q0 57 -22 229l104 23q18 -91 18 -194q0 -53 -6 -94q-13 -96 -96.5 -166t-213.5 -101l-35 113q67 16 123 45zM117 267l87 -41q-26 -54 -40 -100.5t-14 -90.5q0 -68 47 -106t131 -38q97 0 141 51t40 164q-11 286 -28 451l70 117
l147 33q13 4 28 4q31 0 48.5 -21.5t18.5 -61.5q4 -81 7 -153.5t5 -126.5q1 -36 2 -61t2 -41q2 -58 9 -84.5t27.5 -38.5t65.5 -12q84 0 124 16.5t46 48.5q-1 39 -20 95.5t-34 89.5l94 52q19 -42 39 -112.5t20 -121.5q0 -99 -66.5 -148t-209.5 -49q-76 0 -118 27t-59.5 80
t-20.5 142q-7 263 -12 368l-105 -25l2 -43q4 -91 16 -419q4 -171 -67.5 -260.5t-212.5 -89.5q-77 0 -140 31.5t-100 90t-37 136.5q0 102 67 247zM639 -132q16 -1 50 -1q69 0 146 8t130 21l31 -110q-125 -26 -258 -26q-62 0 -120 8z" />
    <glyph glyph-name="uniFDFC.002" unicode="&#x631;&#xfbfe;&#xfe8e;&#x644;&#x621;&#x621;" horiz-adv-x="1337" 
d="M1133.5 139q56.5 40 56.5 92q0 36 -15.5 114t-32.5 141l101 39q19 -66 31 -142t12 -133q0 -117 -71 -187t-212 -109l-34 113q108 32 164.5 72zM70.5 281q20.5 72 39.5 111l91 -50q-15 -32 -32.5 -89.5t-19.5 -97.5q6 -31 46.5 -47.5t124.5 -16.5q60 0 82.5 22t22.5 80
q0 21 -1 33q-13 215 -31 425l70 117l142 33q14 3 26 3q32 0 51.5 -22t21.5 -63l16 -333q2 -58 8.5 -84.5t27 -38t65.5 -11.5q76 0 112.5 16t40.5 48q-4 34 -15 74t-20 63l94 44q12 -28 24.5 -78t15.5 -100q4 -97 -61.5 -146.5t-197.5 -49.5q-76 0 -118 27t-59.5 80
t-19.5 141l-2 69q-4 168 -10 254l-106 -26l2 -36q12 -172 21 -391q4 -136 -43.5 -208t-158.5 -72q-142 0 -206 49t-64 148q0 51 20.5 123zM548 16q15 -1 48 -1q71 0 148.5 9t128.5 21l26 -111q-112 -25 -254 -25q-62 0 -119 6z" />
    <glyph glyph-name="tomaan" unicode="&#xfe97;&#xfeee;&#xfee3;&#xfe8e;&#x646;&#x621;" horiz-adv-x="2345" 
d="M163 301q-15 -46 -15 -93q0 -87 54.5 -132t154.5 -45q73 0 126 26.5t81 68t28 84.5q0 69 -79 309l68 133l184 59q24 8 40 8q31 0 49 -21.5t20 -56.5q3 -55 7 -213l6 -164q2 -56 9.5 -83.5t28 -39.5t62.5 -12h20q81 0 131 93q51 94 94.5 141t98.5 47q51 0 90 -34
t59.5 -87.5t20.5 -111.5q0 -55 -20 -101t-59 -69q-22 -12 -50 -12q-76 0 -204 81q-30 -38 -72 -57t-92 -19h-18q-76 0 -119 27t-61.5 80.5t-20.5 141.5l-1 77q-1 70 -3 144t-7 129l-163 -50q29 -91 51.5 -178.5t22.5 -157.5q0 -84 -42.5 -155.5t-117.5 -113.5t-168 -42
q-98 0 -169.5 39.5t-107 110t-30.5 160.5q3 57 23 119t45 114l87 -40q-27 -58 -42 -104zM423 568l4 -118l-116 -11l-19 115zM1313.5 130.5q39.5 -17.5 61.5 -17.5q10 0 14 3q13 7 19.5 23t6.5 36q0 27 -11 55t-30.5 46t-45.5 18q-25 0 -50.5 -27.5t-54.5 -86.5
q51 -32 90.5 -49.5zM1861 -1q-109 1 -177 20t-95 75q-17 37 -17 80q0 57 25.5 114t68 94t91.5 37q52 0 95 -40.5t70.5 -107t36.5 -142.5h43q95 0 141.5 16t52.5 49q-1 39 -20 95.5t-34 89.5l94 51q19 -42 39 -112.5t20 -121.5q0 -98 -71 -147t-222 -49h-46
q-23 -109 -122.5 -172t-264.5 -70l-39 113q282 11 331 128zM1736.5 137.5q49.5 -8.5 128.5 -9.5q-13 74 -43.5 123.5t-73.5 49.5q-21 0 -40 -17t-30 -42.5t-11 -47.5q0 -14 6 -25q14 -23 63.5 -31.5zM2020 637q84 9 161 9q22 0 62 -2l-22 -109q-36 2 -58 2
q-67 0 -141.5 -7.5t-126.5 -18.5l-20 102q61 15 145 24z" />
    <glyph glyph-name="tomaan.001" unicode="&#xfe97;&#xfeee;&#xfee3;&#xfe8e;&#x646;&#x621;&#x621;" horiz-adv-x="1924" 
d="M164 301q-15 -46 -15 -93q0 -87 54.5 -132t154.5 -45q73 0 126 26.5t81 68t28 84.5q0 69 -79 309l68 133l207 58q18 5 31 5q31 0 49 -21.5t20 -59.5q5 -114 13 -370q2 -56 9.5 -83.5t28 -39.5t62.5 -12h17q81 0 131 93q37 67 61.5 105t55 62.5t66.5 24.5q59 0 103.5 -43
t70 -108.5t33.5 -133.5h39q94 0 142.5 15.5t58.5 46.5q-3 40 -24 104.5t-32 85.5l89 49q19 -41 39.5 -111.5t20.5 -122.5q0 -97 -70.5 -146t-219.5 -50h-46q-22 -109 -121.5 -172t-265.5 -70l-39 113q276 12 328 129q-37 0 -55 1q-69 3 -119.5 21t-84.5 54q-30 -38 -72 -57
t-92 -19h-18q-75 0 -117.5 27.5t-60 81t-19.5 140.5l-2 102q-2 157 -9 248l-178 -50q29 -89 51.5 -175.5t22.5 -157.5q0 -85 -42 -157t-117 -114.5t-169 -42.5q-98 0 -169.5 39.5t-107 110t-30.5 160.5q3 57 23 119t45 114l87 -40q-27 -58 -42 -104zM419 578l4 -117
l-116 -12l-19 115zM1377 130h59q2 34 -9.5 73.5t-34.5 66.5t-56 27q-28 0 -51 -29.5t-48 -85.5q46 -49 140 -52zM1618.5 661q89.5 11 171.5 11q29 0 43 -1l-21 -105q-75 2 -169.5 -6.5t-155.5 -24.5l-21 98q63 17 152.5 28z" />
    <glyph glyph-name="tomaan.002" unicode="&#xfe97;&#xfeee;&#xfee3;&#xfe8e;&#x646;&#x621;&#x621;&#x621;" horiz-adv-x="1733" 
d="M1185.5 12.5q82.5 29.5 111.5 74.5q-33 0 -47 1q-124 3 -190 61q-56 -64 -145 -64q-84 1 -121.5 49.5t-42.5 160.5l-3 57q-3 90 -10 207l-162 -44q66 -164 66 -290q0 -81 -38 -150.5t-107.5 -111t-159.5 -41.5t-155 36t-98.5 98.5t-33.5 141.5q0 96 54 213l87 -44
q-20 -45 -30 -80.5t-10 -78.5q0 -73 45 -115t141 -42q64 0 112 25t73 63.5t25 78.5q0 90 -71 260l67 136l199 54q18 4 26 4q31 0 50 -22.5t21 -60.5q5 -83 9 -201l3 -81q2 -52 15.5 -72t50.5 -21q41 0 65 15.5t47 62.5q33 68 55 105t51 60.5t67 23.5q57 0 99 -40t66.5 -102
t32.5 -129q98 1 138 15t46 43q-2 56 -49 173l92 49q20 -46 38 -108.5t18 -110.5q0 -92 -67 -136.5t-220 -46.5q-25 -101 -123 -159.5t-243 -63.5l-44 114q117 4 199.5 33.5zM387 551l4 -114l-113 -11l-18 112zM1247 214h58q-6 57 -33 101.5t-66 44.5q-26 -1 -49.5 -30.5
t-41.5 -74.5q48 -39 132 -41zM1429 703.5q77 9.5 148 9.5q21 0 55 -2l-15 -106q-13 1 -42 1q-63 0 -134.5 -8t-122.5 -20l-23 101q57 15 134 24.5z" />
    <glyph glyph-name="tomaan.003" unicode="&#xfe97;&#xfeee;&#xfee3;&#xfee6;&#x621;" horiz-adv-x="1475" 
d="M928.5 10.5q80.5 30.5 110.5 75.5l-47 1q-123 3 -190 62q-54 -61 -145 -61h-39q-35 -75 -109 -120.5t-172 -45.5q-90 0 -155 36t-98.5 98.5t-33.5 141.5q0 96 54 213l87 -44q-20 -45 -30 -80.5t-10 -78.5q0 -73 45 -115t141 -42q65 0 114 24t74 62t22 77q-6 66 -45 210
l94 38q42 -141 46 -248v-3h17q40 0 64.5 17t47.5 64q33 68 55 105t51 60.5t67 23.5q57 0 99 -40t66.5 -102t32.5 -129q98 1 138 15t46 43q-2 56 -49 173l92 49q20 -46 38 -108.5t18 -110.5q0 -92 -67 -136.5t-220 -46.5q-25 -102 -121.5 -161.5t-240.5 -64.5l-44 114
q116 4 196.5 34.5zM395 573l5 -115l-114 -11l-18 113zM989 214h58q-6 57 -33 101.5t-66 44.5q-27 -1 -50.5 -31t-40.5 -75q47 -38 132 -40zM1164 694.5q77 9.5 147 9.5q21 0 55 -2l-15 -106q-14 1 -44 1q-64 0 -135 -7.5t-120 -19.5l-22 101q57 14 134 23.5z" />
    <glyph glyph-name="uni0621" unicode="&#x621;" horiz-adv-x="425" arabic-form="isolated" 
d="M40 38l91 29q-22 20 -35 47.5t-13 58.5q0 40 21 75.5t56.5 56.5t76.5 21q44 0 106 -24l-28 -83q-18 7 -40 12t-37 5q-31 0 -55 -19t-24 -44q0 -24 24.5 -44t60.5 -20q16 0 31 4v-1l98 31l12 -89l-334 -106z" />
    <glyph glyph-name="uni0622" unicode="&#x622;" horiz-adv-x="268" arabic-form="isolated" 
d="M75 177q0 118 -7 247.5t-15 186.5l110 25q7 -56 13 -181.5t6 -246.5q0 -138 -8 -214l-106 12q7 59 7 171zM-13.5 768q27.5 24 60.5 24q28 0 62 -17q13 -5 26 -9.5t26 -4.5q18 0 36 10.5t30 28.5l41 -36q-21 -32 -49 -50t-58 -18q-28 0 -64 18q-12 5 -24.5 9.5t-23.5 4.5
q-20 0 -37 -14t-28 -39l-45 25q20 44 47.5 68z" />
    <glyph glyph-name="uni0623" unicode="&#x623;" horiz-adv-x="246" arabic-form="isolated" 
d="M75 177q0 118 -7 247.5t-15 186.5l110 25q7 -56 13 -181.5t6 -246.5q0 -138 -8 -214l-106 12q7 59 7 171zM10 718l58 18q-19 19 -25 45q-2 7 -2 21q0 33 21 61.5t52 35.5q14 3 27 3q24 0 69 -13l-16 -61q-31 11 -52 11q-22 0 -36.5 -12t-14.5 -27q0 -13 14.5 -27
t40.5 -13l81 25v-61l-217 -68v62z" />
    <glyph glyph-name="uni0624" unicode="&#x624;" horiz-adv-x="485" arabic-form="isolated" 
d="M250.5 -103.5q76.5 43.5 95.5 106.5q-34 -6 -69 -6q-70 0 -126 24t-79 73q-17 35 -17 82q0 57 24 113.5t65.5 93t90.5 36.5q60 0 108 -52t74.5 -134t26.5 -168q0 -135 -99 -228.5t-274 -126.5l-39 113q142 30 218.5 73.5zM92 527l59 18q-19 21 -25 45q-2 7 -2 21
q0 34 20.5 62t52.5 35q14 3 26 3q24 0 69 -13l-16 -61q-29 11 -52 11q-26 0 -39.5 -14.5t-9.5 -31.5q3 -12 17 -22.5t36 -10.5l81 25v-61l-217 -68v62zM208.5 135q39.5 -11 90.5 -11q32 0 47 2q-13 74 -45 124.5t-75 50.5q-21 0 -39.5 -16.5t-29.5 -41.5t-11 -47
q0 -16 8 -29q15 -21 54.5 -32z" />
    <glyph glyph-name="uni0625" unicode="&#x625;" horiz-adv-x="244" arabic-form="isolated" 
d="M78 209q0 137 -7.5 287t-16.5 205l110 25q8 -54 15 -199.5t7 -284.5q0 -165 -11 -248l-105 12q8 60 8 203zM15 -237l58 18q-19 21 -25 45q-2 14 -2 20q0 34 20.5 62.5t52.5 35.5q14 3 28 3q31 0 68 -13l-16 -61q-33 11 -55 11q-24 0 -37 -14.5t-9 -31.5q3 -13 17 -23
t36 -9l81 25v-62l-217 -68v62z" />
    <glyph glyph-name="uni0626" unicode="&#x626;" horiz-adv-x="758" arabic-form="isolated" 
d="M190 -203q-70 34 -110 98.5t-40 154.5q0 61 21 132.5t48 123.5l87 -40q-26 -56 -40.5 -104t-14.5 -96q0 -86 53.5 -129.5t153.5 -43.5q88 0 153 33.5t89 80.5q1 3 -32 13.5t-84 25.5q-79 23 -111.5 52.5t-32.5 87.5q0 78 40 149t106 114.5t139 43.5q29 0 57.5 -8
t41.5 -19l-37 -113q-11 4 -30 7t-35 3q-42 0 -80.5 -19.5t-65 -51t-34.5 -65.5q-1 -4 -1 -11q0 -17 23 -30.5t88 -30.5q63 -16 96 -34t45 -38.5t12 -48.5q0 -68 -45.5 -130.5t-125 -101.5t-176.5 -39q-88 0 -158 34zM123 418l59 19q-19 19 -25 45q-2 7 -2 21q0 33 20.5 61
t52.5 36q12 3 26 3q24 0 69 -13l-16 -62q-31 11 -54 11q-25 0 -38 -14.5t-9 -30.5q3 -13 17 -23.5t37 -9.5l80 25v-62l-217 -67v61z" />
    <glyph glyph-name="uni0627" unicode="&#x627;" horiz-adv-x="244" arabic-form="isolated" 
d="M78 209q0 137 -7.5 287t-16.5 205l110 25q8 -54 15 -199.5t7 -284.5q0 -165 -11 -248l-105 12q8 60 8 203z" />
    <glyph glyph-name="uni0628" unicode="&#x628;" horiz-adv-x="846" arabic-form="isolated" 
d="M148.5 42q-98.5 53 -107.5 149q-1 8 -1 24q0 42 11 89.5t28 87.5l87 -43q-30 -91 -26 -135q8 -43 80.5 -69t203.5 -27q91 0 155.5 11.5t97.5 26t35 25.5q-6 45 -26 104.5t-34 93.5l95 51q22 -50 40.5 -119.5t18.5 -119.5q0 -98 -106 -150t-280 -52q-173 0 -271.5 53z
M422 -89l57 -57l28 -28l-85 -86l-85 86z" />
    <glyph glyph-name="uni0629" unicode="&#x629;" horiz-adv-x="462" arabic-form="isolated" 
d="M91.5 45q-49.5 49 -49.5 125q0 30 7 58q22 86 94 166l-35 22l65 99q129 -76 194.5 -155t65.5 -167q0 -57 -26.5 -102t-73 -70t-102.5 -25q-90 0 -139.5 49zM154 726l80 -79l-80 -81l-80 81zM163 142.5q26 -19.5 76 -19.5q42 0 69 17t30 45q-4 36 -32 73.5t-83 80.5
q-86 -81 -86 -142q0 -35 26 -54.5zM331 726l80 -79l-80 -81l-80 81z" />
    <glyph glyph-name="uni062A" unicode="&#x62a;" horiz-adv-x="846" arabic-form="isolated" 
d="M148.5 42q-98.5 53 -107.5 149q-1 8 -1 24q0 42 11 89.5t28 87.5l87 -43q-30 -91 -26 -135q8 -43 80.5 -69t203.5 -27q91 0 155.5 11.5t97.5 26t35 25.5q-6 45 -26 104.5t-34 93.5l95 51q22 -50 40.5 -119.5t18.5 -119.5q0 -98 -106 -150t-280 -52q-173 0 -271.5 53z
M280 438l53 53l80 -80l-80 -80l-53 53l-27 27zM457 438l53 53l80 -80l-80 -80l-53 53l-27 27z" />
    <glyph glyph-name="uni062B" unicode="&#x62b;" horiz-adv-x="846" arabic-form="isolated" 
d="M148.5 42q-98.5 53 -107.5 149q-1 8 -1 24q0 42 11 89.5t28 87.5l87 -43q-30 -91 -26 -135q8 -43 80.5 -69t203.5 -27q91 0 155.5 11.5t97.5 26t35 25.5q-6 45 -26 104.5t-34 93.5l95 51q22 -50 40.5 -119.5t18.5 -119.5q0 -98 -106 -150t-280 -52q-173 0 -271.5 53z
M331 477l76 -75q-39 -37 -76 -76l-51 51l-25 25zM402 562l22 22l67 -67l-45 -45l-22 -22l-67 67zM461 421q47 47 57 56l50 -50l25 -25l-75 -76l-76 76z" />
    <glyph glyph-name="uni062C" unicode="&#x62c;" horiz-adv-x="711" arabic-form="isolated" 
d="M210 -345q-78 34 -123.5 97t-45.5 148q0 100 54.5 178.5t157 129.5t245.5 71l-10 7q-69 49 -114.5 70.5t-88.5 22.5q-40 -1 -70.5 -23t-48.5 -51l-73 53q35 70 84 107t110 37q57 0 111.5 -26.5t142.5 -89.5q50 -37 77 -54t58 -28l-14 -124q-154 1 -270 -35.5t-180.5 -97
t-72.5 -130.5q-3 -47 30.5 -85t94 -59.5t137.5 -21.5q73 0 136 15t100 30l46 -100q-2 -1 -37.5 -20.5t-110 -37t-152.5 -17.5q-95 0 -173 34zM395 36l57 -57l28 -28l-85 -86l-85 86z" />
    <glyph glyph-name="uni062D" unicode="&#x62d;" horiz-adv-x="711" arabic-form="isolated" 
d="M210 -345q-78 34 -123.5 97t-45.5 148q0 100 54.5 178.5t157 129.5t245.5 71l-10 7q-69 49 -114.5 70.5t-88.5 22.5q-40 -1 -70.5 -23t-48.5 -51l-73 53q35 70 84 107t110 37q57 0 111.5 -26.5t142.5 -89.5q50 -37 77 -54t58 -28l-14 -124q-154 1 -270 -35.5t-180.5 -97
t-72.5 -130.5q-3 -47 30.5 -85t94 -59.5t137.5 -21.5q73 0 136 15t100 30l46 -100q-2 -1 -37.5 -20.5t-110 -37t-152.5 -17.5q-95 0 -173 34z" />
    <glyph glyph-name="uni062E" unicode="&#x62e;" horiz-adv-x="711" arabic-form="isolated" 
d="M278 746q42 -43 85 -85l-85 -86l-86 86zM95.5 78.5q54.5 78.5 157 129.5t245.5 71l-10 7q-69 49 -114.5 70.5t-88.5 22.5q-40 -1 -70.5 -23t-48.5 -51l-73 53q35 70 84 107t110 37q57 0 111.5 -26.5t142.5 -89.5q50 -37 77 -54t58 -28l-14 -124q-154 1 -270 -35.5
t-180.5 -97t-72.5 -130.5q-3 -47 30.5 -85t94 -59.5t137.5 -21.5q73 0 136 15t100 30l46 -100q-2 -1 -37.5 -20.5t-110 -37t-152.5 -17.5q-95 0 -173 34t-123.5 97t-45.5 148q0 100 54.5 178.5z" />
    <glyph glyph-name="uni062F" unicode="&#x62f;" horiz-adv-x="519" arabic-form="isolated" 
d="M116 20.5q-58 24.5 -90 51.5l49 92q35 -18 74.5 -31.5t96.5 -13.5q54 0 88.5 13t45.5 29q2 8 2 14q0 39 -49 104t-159 142l62 112q114 -83 180.5 -177.5t66.5 -179.5q0 -37 -15 -72q-22 -52 -80.5 -80t-129.5 -28q-84 0 -142 24.5z" />
    <glyph glyph-name="uni0630" unicode="&#x630;" horiz-adv-x="519" arabic-form="isolated" 
d="M116 20.5q-58 24.5 -90 51.5l49 92q35 -18 74.5 -31.5t96.5 -13.5q54 0 88.5 13t45.5 29q2 8 2 14q0 39 -49 104t-159 142l62 112q114 -83 180.5 -177.5t66.5 -179.5q0 -37 -15 -72q-22 -52 -80.5 -80t-129.5 -28q-84 0 -142 24.5zM218 766l57 -57l28 -28l-85 -86l-85 86
z" />
    <glyph glyph-name="uni0631" unicode="&#x631;" horiz-adv-x="372" arabic-form="isolated" 
d="M119 -120q54 36 85 73t31 66q0 22 -12 73.5t-32 129.5q-8 28 -11 42l100 39q23 -70 37.5 -148.5t14.5 -135.5q0 -95 -77.5 -177t-202.5 -132l-52 109q65 25 119 61z" />
    <glyph glyph-name="uni0632" unicode="&#x632;" horiz-adv-x="372" arabic-form="isolated" 
d="M119 -120q54 36 85 73t31 66q0 22 -12 73.5t-32 129.5q-8 28 -11 42l100 39q23 -70 37.5 -148.5t14.5 -135.5q0 -95 -77.5 -177t-202.5 -132l-52 109q65 25 119 61zM185 539l28 28l57 -57l28 -28q-42 -43 -85 -85l-85 85z" />
    <glyph glyph-name="uni0633" unicode="&#x633;" horiz-adv-x="1210" arabic-form="isolated" 
d="M925.5 24.5q-33.5 23.5 -49.5 67.5q-56 -92 -135 -92h-1v0h-3q-31 2 -57 15q-1 -81 -42 -151t-116 -112.5t-173 -42.5q-93 0 -163 37t-107.5 102.5t-37.5 149.5q0 61 21 129.5t48 124.5l87 -40q-26 -57 -40 -104.5t-14 -95.5q0 -86 53 -129.5t153 -43.5q74 0 127.5 25.5
t80.5 67t27 87.5q0 61 -61 244l95 49q13 -36 28 -86q11 -36 21.5 -56t28.5 -30.5t48 -10.5q49 1 82 60q18 35 26 75.5t9 45.5l93 -4q-1 -7 -6.5 -39.5t-5.5 -57.5q0 -80 67 -80q32 0 49.5 18.5t17.5 49.5q0 30 -19 86.5t-35 94.5l91 51q20 -41 40.5 -111.5t20.5 -123.5
t-21 -97.5t-58 -70.5t-84 -26h-2h-2q-48 1 -81.5 24.5z" />
    <glyph glyph-name="uni0634" unicode="&#x634;" horiz-adv-x="1210" arabic-form="isolated" 
d="M925.5 24.5q-33.5 23.5 -49.5 67.5q-56 -92 -135 -92h-1v0h-3q-31 2 -57 15q-1 -81 -42 -151t-116 -112.5t-173 -42.5q-93 0 -163 37t-107.5 102.5t-37.5 149.5q0 61 21 129.5t48 124.5l87 -40q-26 -57 -40 -104.5t-14 -95.5q0 -86 53 -129.5t153 -43.5q74 0 127.5 25.5
t80.5 67t27 87.5q0 61 -61 244l95 49q13 -36 28 -86q11 -36 21.5 -56t28.5 -30.5t48 -10.5q49 1 82 60q18 35 26 75.5t9 45.5l93 -4q-1 -7 -6.5 -39.5t-5.5 -57.5q0 -80 67 -80q32 0 49.5 18.5t17.5 49.5q0 30 -19 86.5t-35 94.5l91 51q20 -41 40.5 -111.5t20.5 -123.5
t-21 -97.5t-58 -70.5t-84 -26h-2h-2q-48 1 -81.5 24.5zM798 582l76 -75l-26 -26l-50 -50q-18 20 -38 38l-38 38zM869 667l22 22l67 -67q-23 -22 -67 -68l-67 68zM985 582l75 -75l-75 -76l-26 26l-50 50z" />
    <glyph glyph-name="uni0635" unicode="&#x635;" horiz-adv-x="1282" arabic-form="isolated" 
d="M186 -254q-70 37 -107.5 102.5t-37.5 149.5q0 61 21 129.5t48 124.5l87 -40q-26 -57 -40 -104.5t-14 -95.5q0 -86 53 -129.5t153 -43.5q74 0 127.5 25.5t80.5 67t27 87.5q0 40 -19.5 106.5t-39.5 116.5l95 49l14 -35q30 -75 64 -106q68 121 161 201.5t191 80.5
q56 0 100.5 -24t70 -66.5t25.5 -95.5q0 -80 -48 -141t-133 -94t-193 -33q-114 0 -192 53v-12q0 -82 -40.5 -153t-116 -114t-174.5 -43q-93 0 -163 37zM849 105q87 -4 156.5 16t107.5 54t38 69q0 26 -24.5 45t-66.5 19q-74 0 -146 -55.5t-129 -141.5q29 -5 64 -6z" />
    <glyph glyph-name="uni0636" unicode="&#x636;" horiz-adv-x="1282" arabic-form="isolated" 
d="M186 -254q-70 37 -107.5 102.5t-37.5 149.5q0 61 21 129.5t48 124.5l87 -40q-26 -57 -40 -104.5t-14 -95.5q0 -86 53 -129.5t153 -43.5q74 0 127.5 25.5t80.5 67t27 87.5q0 40 -19.5 106.5t-39.5 116.5l95 49l14 -35q30 -75 64 -106q68 121 161 201.5t191 80.5
q56 0 100.5 -24t70 -66.5t25.5 -95.5q0 -80 -48 -141t-133 -94t-193 -33q-114 0 -192 53v-12q0 -82 -40.5 -153t-116 -114t-174.5 -43q-93 0 -163 37zM849 105q87 -4 156.5 16t107.5 54t38 69q0 26 -24.5 45t-66.5 19q-74 0 -146 -55.5t-129 -141.5q29 -5 64 -6zM1018 681
q42 -43 85 -85l-85 -86l-86 86z" />
    <glyph glyph-name="uni0637" unicode="&#x637;" horiz-adv-x="781" arabic-form="isolated" 
d="M181 132q24 45 51 84q2 22 2 76q0 101 -10 229t-20 180l110 25q9 -58 16.5 -168.5t6.5 -217.5q106 99 213 101q59 0 105 -27t70 -73.5t19 -103.5q-7 -76 -59 -133t-139 -87.5t-196 -30.5q-89 0 -172 17.5t-149 47.5l37 118q52 -24 115 -37zM329 113q93 -2 166.5 18.5
t114 54t40.5 68.5q0 27 -24.5 45.5t-66.5 18.5q-69 0 -140.5 -52.5t-137.5 -149.5z" />
    <glyph glyph-name="uni0638" unicode="&#x638;" horiz-adv-x="781" arabic-form="isolated" 
d="M181 132q24 45 51 84q2 22 2 76q0 101 -10 229t-20 180l110 25q9 -58 16.5 -168.5t6.5 -217.5q106 99 213 101q59 0 105 -27t70 -73.5t19 -103.5q-7 -76 -59 -133t-139 -87.5t-196 -30.5q-89 0 -172 17.5t-149 47.5l37 118q52 -24 115 -37zM329 113q93 -2 166.5 18.5
t114 54t40.5 68.5q0 27 -24.5 45.5t-66.5 18.5q-69 0 -140.5 -52.5t-137.5 -149.5zM543 724l85 -85q-43 -42 -85 -85l-86 85z" />
    <glyph glyph-name="uni0639" unicode="&#x639;" horiz-adv-x="701" arabic-form="isolated" 
d="M575 -351.5q-78 -27.5 -196 -27.5q-93 0 -170 34.5t-122 98t-45 147.5q0 172 151 285q-49 24 -77.5 71t-28.5 109q0 54 26 102.5t70.5 80.5t98.5 38q6 1 19 1q45 0 91.5 -19.5t87.5 -53.5l-43 -88q-67 32 -125 32q-37 0 -67 -13.5t-46.5 -35.5t-16.5 -46t18.5 -46t50 -36
t66.5 -14q16 0 31 3q48 20 92 32.5t53 15.5l25 -115q-175 -52 -270 -124t-107 -163q-3 -45 27 -82.5t87 -59.5t129 -24q59 -2 114 7.5t93 21t46 16.5l46 -100q-30 -20 -108 -47.5z" />
    <glyph glyph-name="uni063A" unicode="&#x63a;" horiz-adv-x="701" arabic-form="isolated" 
d="M575 -351.5q-78 -27.5 -196 -27.5q-93 0 -170 34.5t-122 98t-45 147.5q0 172 151 285q-49 24 -77.5 71t-28.5 109q0 54 26 102.5t70.5 80.5t98.5 38q6 1 19 1q45 0 91.5 -19.5t87.5 -53.5l-43 -88q-67 32 -125 32q-37 0 -67 -13.5t-46.5 -35.5t-16.5 -46t18.5 -46t50 -36
t66.5 -14q16 0 31 3q48 20 92 32.5t53 15.5l25 -115q-175 -52 -270 -124t-107 -163q-3 -45 27 -82.5t87 -59.5t129 -24q59 -2 114 7.5t93 21t46 16.5l46 -100q-30 -20 -108 -47.5zM287 838q43 -42 85 -85l-85 -85q-42 43 -85 85z" />
    <glyph glyph-name="uni0641" unicode="&#x641;" horiz-adv-x="886" arabic-form="isolated" 
d="M431 -11l-1 8q-1 -3 -1 -8q-177 -1 -278 52t-110 150q-1 8 -1 24q0 42 11 89.5t28 87.5l87 -43q-30 -91 -26 -135q8 -43 82 -69.5t207 -26.5h5q120 1 194.5 18.5t106.5 54.5q-24 -3 -49 -3q-69 0 -123 23.5t-77 70.5q-18 35 -18 84q0 54 23.5 106t64.5 85t90 33
q61 0 108 -49.5t71 -127.5t19 -160q-5 -122 -108.5 -192.5t-303.5 -71.5h-1zM634 826l28 -28l57 -57l-85 -85l-86 85zM621 320.5q40 -12.5 91 -12.5q28 0 42 2q-12 69 -43.5 117.5t-73.5 48.5q-21 0 -39.5 -14.5t-29.5 -36t-11 -41.5q0 -18 9 -30q15 -21 55 -33.5z" />
    <glyph glyph-name="uni0642" unicode="&#x642;" horiz-adv-x="725" arabic-form="isolated" 
d="M186 -210.5q-70 36.5 -107.5 102t-37.5 150.5q0 60 20.5 127.5t48.5 126.5l87 -40q-26 -58 -40 -104.5t-14 -95.5q0 -85 53.5 -129.5t152.5 -44.5q96 0 161 45t76 120q-33 -6 -68 -6q-70 0 -126.5 24t-80.5 73q-17 37 -17 82q0 56 24 112.5t65.5 93t90.5 36.5
q61 0 109 -52.5t74.5 -135t26.5 -168.5q0 -109 -43 -188.5t-119 -122t-173 -42.5q-93 0 -163 36.5zM353 664l27 27l80 -80l-80 -80l-27 27l-53 53zM446.5 178q38.5 -11 84.5 -11q30 0 53 4q-13 71 -44 122t-76 51q-21 0 -39 -16t-28.5 -40.5t-10.5 -46.5q0 -20 8 -31
q14 -21 52.5 -32zM530 664l27 27l80 -80l-80 -80l-27 27l-53 53z" />
    <glyph glyph-name="uni0643" unicode="&#x643;" horiz-adv-x="880" arabic-form="isolated" 
d="M429 -11q-177 -1 -278 52t-110 150q-1 8 -1 24q0 42 11 89.5t28 87.5l87 -43q-30 -91 -26 -135q8 -43 82 -69.5t207 -26.5h21q88 0 146 18.5t76 46.5q2 51 -50.5 122.5t-158.5 157.5l12 114l369 158l36 -104l-297 -128q36 -30 80 -81t77 -112.5t33 -116.5q0 -22 -6 -43
q-21 -77 -106 -119t-211 -42h-21z" />
    <glyph glyph-name="uni0644" unicode="&#x644;" horiz-adv-x="676" arabic-form="isolated" 
d="M183.5 -225q-65.5 32 -104 91t-38.5 138q0 57 20 126t48 126l87 -41q-26 -56 -40 -101t-14 -90q0 -68 51 -110t135 -42q214 0 207 221q-6 191 -17 357t-22 251l109 25q16 -134 30 -628q4 -167 -77 -261t-230 -94q-79 0 -144.5 32z" />
    <glyph glyph-name="uni0645" unicode="&#x645;" horiz-adv-x="589" arabic-form="isolated" 
d="M62 -357q-24 247 -24 408q0 39 1 57q2 53 35 86t80 33q13 0 28 -3q38 83 87 133t103 53q55 3 96 -29t63 -85.5t22 -112.5q0 -57 -21 -104.5t-63 -71.5q-21 -12 -49 -12q-38 0 -98.5 23.5t-155.5 76.5q-4 2 -8 2q-11 0 -11 -14q-2 -73 4 -163.5t18 -224.5q5 -45 5 -54
l-110 -22zM421 113q7 0 15 4q25 16 25 61q0 43 -22.5 79.5t-59.5 36.5q-47 0 -108 -115q105 -66 150 -66z" />
    <glyph glyph-name="uni0646" unicode="&#x646;" horiz-adv-x="717" arabic-form="isolated" 
d="M157 152.5q-14 -47.5 -14 -95.5q0 -87 53 -130.5t153 -43.5q74 0 127 26t80.5 67.5t27.5 87.5q0 61 -61 244l95 49q62 -174 62 -293q0 -82 -40.5 -153t-116 -114t-174.5 -43q-93 0 -163 37t-107.5 102.5t-37.5 149.5q0 61 21 129.5t48 124.5l87 -40q-26 -57 -40 -104.5z
M314 377l57 57l85 -85l-57 -57l-28 -28q-43 42 -85 85z" />
    <glyph glyph-name="uni0647" unicode="&#x647;" horiz-adv-x="462" arabic-form="isolated" 
d="M91.5 45q-49.5 49 -49.5 125q0 30 7 58q22 86 94 166l-35 22l65 99q129 -76 194.5 -155t65.5 -167q0 -57 -26.5 -102t-73 -70t-102.5 -25q-90 0 -139.5 49zM163 142.5q26 -19.5 76 -19.5q42 0 69 17t30 45q-4 36 -32 73.5t-83 80.5q-86 -81 -86 -142q0 -35 26 -54.5z" />
    <glyph glyph-name="uni0648" unicode="&#x648;" horiz-adv-x="485" arabic-form="isolated" 
d="M250.5 -103.5q76.5 43.5 95.5 106.5q-34 -6 -69 -6q-70 0 -126 24t-79 73q-17 35 -17 82q0 57 24 113.5t65.5 93t90.5 36.5q60 0 108 -52t74.5 -134t26.5 -168q0 -135 -99 -228.5t-274 -126.5l-39 113q142 30 218.5 73.5zM208.5 135q39.5 -11 90.5 -11q32 0 47 2
q-13 74 -45 124.5t-75 50.5q-21 0 -39.5 -16.5t-29.5 -41.5t-11 -47q0 -16 8 -29q15 -21 54.5 -32z" />
    <glyph glyph-name="uni0649" unicode="&#x649;" horiz-adv-x="758" arabic-form="isolated" 
d="M190 -203q-70 34 -110 98.5t-40 154.5q0 61 21 132.5t48 123.5l87 -40q-26 -56 -40.5 -104t-14.5 -96q0 -86 53.5 -129.5t153.5 -43.5q88 0 153 33.5t89 80.5q1 3 -32 13.5t-84 25.5q-79 23 -111.5 52.5t-32.5 87.5q0 78 40 149t106 114.5t139 43.5q29 0 57.5 -8
t41.5 -19l-37 -113q-11 4 -30 7t-35 3q-42 0 -80.5 -19.5t-65 -51t-34.5 -65.5q-1 -4 -1 -11q0 -17 23 -30.5t88 -30.5q63 -16 96 -34t45 -38.5t12 -48.5q0 -68 -45.5 -130.5t-125 -101.5t-176.5 -39q-88 0 -158 34z" />
    <glyph glyph-name="uni064A" unicode="&#x64a;" horiz-adv-x="758" arabic-form="isolated" 
d="M190 -203q-70 34 -110 98.5t-40 154.5q0 61 21 132.5t48 123.5l87 -40q-26 -56 -40.5 -104t-14.5 -96q0 -86 53.5 -129.5t153.5 -43.5q88 0 153 33.5t89 80.5q1 3 -32 13.5t-84 25.5q-79 23 -111.5 52.5t-32.5 87.5q0 78 40 149t106 114.5t139 43.5q29 0 57.5 -8
t41.5 -19l-37 -113q-11 4 -30 7t-35 3q-42 0 -80.5 -19.5t-65 -51t-34.5 -65.5q-1 -4 -1 -11q0 -17 23 -30.5t88 -30.5q63 -16 96 -34t45 -38.5t12 -48.5q0 -68 -45.5 -130.5t-125 -101.5t-176.5 -39q-88 0 -158 34z" />
    <glyph glyph-name="uni066E.init" unicode="&#x66e;" horiz-adv-x="330" 
d="M-5 129h53q74 0 107 17.5t33 53.5q0 23 -21.5 89t-32.5 90l94 51q19 -40 39.5 -110t20.5 -122q0 -97 -62 -147.5t-178 -50.5h-53v129z" />
    <glyph glyph-name="uni066E.medi" unicode="&#x66e;" horiz-adv-x="336" 
d="M-5 129h7q88 1 122.5 23t34.5 73q0 23 -8 75l-4 27l94 18q13 -67 13 -163q5 -23 25 -38t55 -15h7l7 -64l-7 -65h-7q-40 0 -74.5 20t-56.5 53q-26 -38 -76 -55.5t-125 -17.5h-7v129z" />
    <glyph glyph-name="uni066E.fina" unicode="&#x66e;" horiz-adv-x="947" 
d="M148.5 42q-98.5 53 -107.5 149q-1 8 -1 24q0 42 11 89.5t28 87.5l87 -43q-30 -91 -26 -135q8 -43 81 -69t204 -27q126 0 199.5 18.5t113.5 57.5t65 109l94 -11q-18 -55 -18 -92q0 -71 73 -71l7 -64l-7 -65q-57 0 -99 33t-51 88q-60 -72 -152 -102t-230 -30
q-173 0 -271.5 53z" />
    <glyph glyph-name="uni066F.fina" unicode="&#x66f;" horiz-adv-x="714" 
d="M186 -254q-70 37 -107.5 102.5t-37.5 149.5q0 61 21 129.5t48 124.5l87 -40q-26 -58 -40 -104.5t-14 -95.5q0 -84 53.5 -128.5t152.5 -44.5q96 0 160 43.5t77 117.5q-108 1 -177.5 20.5t-96.5 75.5q-17 35 -17 83q0 56 24 112t65.5 92t89.5 36q53 0 96.5 -41.5t71.5 -108
t37 -140.5h40l7 -64l-7 -65h-40q-11 -90 -56 -156t-115.5 -100.5t-158.5 -34.5q-93 0 -163 37zM457.5 138q48.5 -8 126.5 -9q-13 71 -44 121t-77 50q-21 0 -38.5 -16t-28 -40t-10.5 -46q0 -18 7 -29q16 -23 64.5 -31z" />
    <glyph glyph-name="uni0671" unicode="&#x671;" horiz-adv-x="259" arabic-form="isolated" 
d="M75 177q0 118 -7 247.5t-15 186.5l110 25q7 -56 13 -181.5t6 -246.5q0 -138 -8 -214l-106 12q7 59 7 171zM-23.5 739q18.5 16 40.5 20q5 1 14 1q16 0 29 -4q26 47 63 75t76 28q34 0 57 -23.5t23 -57.5q0 -37 -27 -65t-68 -36q-16 -3 -31 -3q-32 0 -79 15q-21 6 -30.5 7.5
t-18.5 0.5q-24 -1 -39 -26l-41 27q13 25 31.5 41zM156 732q7 0 19 2q28 4 44 16t16 25q0 10 -11.5 17.5t-26.5 7.5q-23 0 -47 -15.5t-43 -43.5q31 -9 49 -9z" />
    <glyph glyph-name="uni0679" unicode="&#x679;" horiz-adv-x="846" arabic-form="isolated" 
d="M148.5 42q-98.5 53 -107.5 149q-1 8 -1 24q0 42 11 89.5t28 87.5l87 -43q-30 -91 -26 -135q8 -43 80.5 -69t203.5 -27q91 0 155.5 11.5t97.5 26t35 25.5q-6 45 -26 104.5t-34 93.5l95 51q22 -50 40.5 -119.5t18.5 -119.5q0 -98 -106 -150t-280 -52q-173 0 -271.5 53z
M306 414l31 -9q9 16 19 28q1 26 -3.5 74t-10.5 85l49 10q10 -60 13 -115q40 33 77 33q38 0 59.5 -26.5t21.5 -58.5q0 -42 -38.5 -73t-116.5 -31q-50 0 -84 13t-36 14zM408 394q59 -1 83.5 11t24.5 29q0 10 -7.5 17.5t-22.5 7.5q-24 0 -49 -17.5t-46 -46.5z" />
    <glyph glyph-name="uni067E" unicode="&#x67e;" horiz-adv-x="846" arabic-form="isolated" 
d="M148.5 42q-98.5 53 -107.5 149q-1 8 -1 24q0 42 11 89.5t28 87.5l87 -43q-30 -91 -26 -135q8 -43 80.5 -69t203.5 -27q91 0 155.5 11.5t97.5 26t35 25.5q-6 45 -26 104.5t-34 93.5l95 51q22 -50 40.5 -119.5t18.5 -119.5q0 -98 -106 -150t-280 -52q-173 0 -271.5 53z
M327 -72l50 -50l26 -26l-76 -75l-75 75zM421 -195l67 -68l-22 -22l-45 -45l-67 67zM489 -97l25 25l19 -19q47 -47 56 -57l-50 -50l-25 -25l-76 75z" />
    <glyph glyph-name="uni0686" unicode="&#x686;" horiz-adv-x="711" arabic-form="isolated" 
d="M210 -345q-78 34 -123.5 97t-45.5 148q0 100 54.5 178.5t157 129.5t245.5 71l-10 7q-69 49 -114.5 70.5t-88.5 22.5q-40 -1 -70.5 -23t-48.5 -51l-73 53q35 70 84 107t110 37q57 0 111.5 -26.5t142.5 -89.5q50 -37 77 -54t58 -28l-14 -124q-154 1 -270 -35.5t-180.5 -97
t-72.5 -130.5q-3 -47 30.5 -85t94 -59.5t137.5 -21.5q73 0 136 15t100 30l46 -100q-2 -1 -37.5 -20.5t-110 -37t-152.5 -17.5q-95 0 -173 34zM323 56l74 -74l-74 -73l-73 73zM414 -64l66 -66l-66 -65l-65 65zM505 56l73 -74l-73 -73l-74 73z" />
    <glyph glyph-name="uni0695.fina" unicode="&#x695;" horiz-adv-x="396" 
d="M332 13q-2 -93 -79 -173.5t-201 -129.5l-52 109q65 25 119 61t85 73t31 66q0 22 -12 73.5t-32 129.5q-8 28 -11 42l100 39q13 -43 26 -92q13 -45 33 -63.5t54 -18.5h8l7 -64l-7 -65h-8q-32 0 -61 13zM87 -322q13 -18 28.5 -48.5t24.5 -56.5q9 28 25 61.5t29 52.5l40 -36
q-19 -29 -38 -67.5t-31 -71.5l-45 -16q-10 32 -31 73.5t-42 70.5z" />
    <glyph glyph-name="uni0698" unicode="&#x698;" horiz-adv-x="412" arabic-form="isolated" 
d="M119 -120q54 36 85 73t31 66q0 22 -12 73.5t-32 129.5q-8 28 -11 42l100 39q23 -70 37.5 -148.5t14.5 -135.5q0 -95 -77.5 -177t-202.5 -132l-52 109q65 25 119 61zM104 526l25 25l76 -75l-76 -77l-30 31q-38 38 -45 46zM177 613l45 45l67 -67q-44 -46 -67 -68l-67 68z
M316 551l75 -75l-75 -77l-76 77z" />
    <glyph glyph-name="uni06A1.init" unicode="&#x6a1;" horiz-adv-x="461" 
d="M-6 129h14q121 0 194.5 14t106.5 47q-28 -2 -43 -2q-71 0 -126 23.5t-79 70.5q-18 35 -18 84q0 54 23.5 106t65 85t90.5 33q60 0 107 -49.5t71.5 -127.5t19.5 -160q-5 -121 -108 -187t-304 -66h-14v129zM197 320.5q40 -12.5 90 -12.5q28 0 42 2q-12 69 -43 117.5
t-73 48.5q-21 0 -39.5 -14.5t-29.5 -36t-11 -41.5q0 -18 9 -30q15 -21 55 -33.5z" />
    <glyph glyph-name="uni06A1.medi" unicode="&#x6a1;" horiz-adv-x="472" 
d="M-7 129h24q31 0 79 2q-35 47 -35 102q0 7 2 25q9 57 36.5 103.5t67 73.5t83.5 27q49 0 87 -30.5t59 -79t21 -99.5q0 -10 -2 -30q-7 -53 -33 -94h97l7 -64l-7 -65h-60q-95 0 -177 29q-87 -29 -225 -29h-24v129zM178.5 197q20.5 -25 57.5 -42q34 13 54 32.5t31 47.5
q3 23 -6 47.5t-27.5 40.5t-45.5 16q-32 0 -56 -27.5t-29 -63.5q1 -26 21.5 -51z" />
    <glyph glyph-name="uni06A1.fina" unicode="&#x6a1;" horiz-adv-x="892" 
d="M429 -11q-177 -1 -278 52t-110 150q-1 8 -1 24q0 42 11 89.5t28 87.5l87 -43q-30 -91 -26 -135q8 -43 82 -69.5t207 -26.5h3q53 0 89 4q-42 51 -42 110q0 8 2 26q8 56 35.5 103t67 74t83.5 27q49 0 87.5 -31t59.5 -79t21 -99q0 -71 -36 -124h98l7 -64l-7 -65h-60
q-94 0 -169 26q-97 -37 -236 -37h-3zM596.5 195.5q21.5 -25.5 60.5 -42.5q61 28 82 82q3 23 -6 47.5t-28 40.5t-45 16q-32 0 -56 -27.5t-29 -63.5q0 -27 21.5 -52.5z" />
    <glyph glyph-name="uni06A4" unicode="&#x6a4;" horiz-adv-x="886" arabic-form="isolated" 
d="M431 -11l-1 8q-1 -3 -1 -8q-177 -1 -278 52t-110 150q-1 8 -1 24q0 42 11 89.5t28 87.5l87 -43q-30 -91 -26 -135q8 -43 82 -69.5t207 -26.5h5q120 1 194.5 18.5t106.5 54.5q-24 -3 -49 -3q-69 0 -123 23.5t-77 70.5q-18 35 -18 84q0 54 23.5 106t64.5 85t90 33
q61 0 108 -49.5t71 -127.5t19 -160q-5 -122 -108.5 -192.5t-303.5 -71.5h-1zM522 778l25 25l76 -75l-38 -38l-38 -38l-32 33q-22 21 -43 43zM621 320.5q40 -12.5 91 -12.5q28 0 42 2q-12 69 -43.5 117.5t-73.5 48.5q-21 0 -39.5 -14.5t-29.5 -36t-11 -41.5q0 -18 9 -30
q15 -21 55 -33.5zM618 888l22 22q34 -33 67 -67l-67 -68l-67 68zM734 803l75 -75l-75 -76l-76 76z" />
    <glyph glyph-name="uni06A9" unicode="&#x6a9;" horiz-adv-x="880" arabic-form="isolated" 
d="M429 -11q-177 -1 -278 52t-110 150q-1 8 -1 24q0 42 11 89.5t28 87.5l87 -43q-30 -91 -26 -135q8 -43 82 -69.5t207 -26.5h21q88 0 146 18.5t76 46.5q2 51 -50.5 122.5t-158.5 157.5l12 114l369 158l36 -104l-297 -128q36 -30 80 -81t77 -112.5t33 -116.5q0 -22 -6 -43
q-21 -77 -106 -119t-211 -42h-21z" />
    <glyph glyph-name="uni06AF" unicode="&#x6af;" horiz-adv-x="879" arabic-form="isolated" 
d="M429 -11q-177 -1 -278 52t-110 150q-1 8 -1 24q0 42 11 89.5t28 87.5l87 -43q-30 -91 -26 -135q8 -43 82 -69.5t207 -26.5h21q89 0 145.5 15.5t73.5 42.5q1 47 -48.5 110.5t-157.5 148.5l12 115l369 156l36 -103l-297 -128q73 -61 129.5 -134t56.5 -148q0 -22 -6 -43
q-22 -78 -105.5 -119.5t-207.5 -41.5h-21zM483 669l323 133l16 -44l-344 -145z" />
    <glyph glyph-name="uni06B5.init" unicode="&#x6b5;" horiz-adv-x="275" 
d="M-5 129h32q53 0 77 22.5t24 68.5q0 61 -10 242.5t-18 238.5l110 25q6 -55 15 -239.5t10 -255.5q0 -66 -25.5 -118.5t-72.5 -82.5t-108 -30h-34v129zM91 922q13 -17 28.5 -48.5t24.5 -57.5q9 28 24.5 62t28.5 53l41 -36q-19 -28 -38 -67t-31 -72l-45 -16
q-10 32 -31.5 73.5t-41.5 70.5z" />
    <glyph glyph-name="uni06B5.medi" unicode="&#x6b5;" horiz-adv-x="300" 
d="M221.5 19.5q-34.5 19.5 -59.5 54.5q-23 -35 -59 -54.5t-83 -19.5h-25v129h24q51 0 74.5 20.5t23.5 66.5v5q1 25 -8.5 218.5t-16.5 261.5l110 24q7 -69 17 -395l4 -110q6 -91 71 -91h11l7 -64l-7 -65h-11q-38 0 -72.5 19.5zM90 925q13 -17 28.5 -48.5t24.5 -57.5
q9 29 25 63t29 52l40 -37q-18 -27 -37.5 -65.5t-31.5 -72.5l-45 -16q-10 32 -31.5 73.5t-41.5 70.5z" />
    <glyph glyph-name="uni06B5.fina" unicode="&#x6b5;" horiz-adv-x="743" 
d="M633 37q-11 -140 -90.5 -217t-214.5 -77q-79 0 -144.5 32t-104 91t-38.5 138q0 57 20 126t48 126l87 -41q-26 -56 -40 -101t-14 -90q0 -68 51 -110t135 -42q214 0 207 221q-6 191 -17 357t-22 251l109 25q14 -120 26 -490q3 -45 12.5 -67t30.5 -31t62 -9h12l7 -64l-7 -65
h-12q-63 0 -103 37zM493 938q13 -17 28.5 -48.5t24.5 -57.5q9 28 24.5 62t28.5 53l41 -36q-19 -28 -38 -67t-31 -72l-45 -16q-11 33 -32 74.5t-41 69.5z" />
    <glyph glyph-name="uni06C2.fina" unicode="&#x6c2;" horiz-adv-x="565" 
d="M130 409l59 18q-20 20 -26 46q-2 12 -2 19q0 34 20.5 62.5t52.5 36.5q14 3 26 3q28 0 70 -14l-16 -61q-33 11 -55 11q-24 0 -37 -14.5t-9 -30.5q3 -13 17 -23.5t36 -9.5l81 25v-62l-217 -68v62zM85.5 154.5q30.5 55.5 71 97.5t81.5 62q28 14 49 14q39 0 71 -46
q29 -48 51.5 -77.5t61 -52.5t91.5 -23h8l7 -64l-7 -65h-7q-99 0 -171 56.5t-117 141.5q-45 -19 -90 -77.5t-64 -127.5l-77 49q11 57 41.5 112.5z" />
    <glyph glyph-name="uni06C3.fina" unicode="&#x6c3;" horiz-adv-x="565" 
d="M570 129l7 -64l-7 -65h-7q-99 0 -171 56.5t-117 141.5q-45 -19 -90 -77.5t-64 -127.5l-77 49q11 57 41.5 112.5t71 97.5t81.5 62q28 14 49 14q39 0 71 -46q29 -48 51.5 -77.5t61 -52.5t91.5 -23h8zM202 543l79 -80l-79 -80l-81 80zM379 543l79 -80l-79 -80l-81 80z" />
    <glyph glyph-name="uni06C6" unicode="&#x6c6;" horiz-adv-x="485" arabic-form="isolated" 
d="M250.5 -103.5q76.5 43.5 95.5 106.5q-34 -6 -69 -6q-70 0 -126 24t-79 73q-17 35 -17 82q0 57 24 113.5t65.5 93t90.5 36.5q60 0 108 -52t74.5 -134t26.5 -168q0 -135 -99 -228.5t-274 -126.5l-39 113q142 30 218.5 73.5zM166 666q13 -17 29 -48.5t25 -57.5q8 27 24 61
t29 54l41 -37q-19 -28 -38.5 -66.5t-31.5 -71.5l-44 -16q-11 32 -32 73.5t-41 70.5zM208.5 135q39.5 -11 90.5 -11q32 0 47 2q-13 74 -45 124.5t-75 50.5q-21 0 -39.5 -16.5t-29.5 -41.5t-11 -47q0 -16 8 -29q15 -21 54.5 -32z" />
    <glyph glyph-name="uni06C7" unicode="&#x6c7;" horiz-adv-x="485" arabic-form="isolated" 
d="M250.5 -103.5q76.5 43.5 95.5 106.5q-34 -6 -69 -6q-70 0 -126 24t-79 73q-17 35 -17 82q0 57 24 113.5t65.5 93t90.5 36.5q60 0 108 -52t74.5 -134t26.5 -168q0 -135 -99 -228.5t-274 -126.5l-39 113q142 30 218.5 73.5zM189 538q33 7 57 24q-38 6 -60.5 28.5
t-22.5 58.5q0 38 27.5 66t61.5 28q13 0 24 -4q27 -9 41 -35t14 -59q0 -48 -24 -86q-25 -41 -75 -61.5t-104 -22.5l-16 53q44 3 77 10zM208.5 135q39.5 -11 90.5 -11q32 0 47 2q-13 74 -45 124.5t-75 50.5q-21 0 -39.5 -16.5t-29.5 -41.5t-11 -47q0 -16 8 -29
q15 -21 54.5 -32zM229 622.5q19 -13.5 52 -12.5q4 11 4 25q0 23 -11 39.5t-30 16.5q-13 0 -23.5 -11t-10.5 -25q0 -19 19 -32.5z" />
    <glyph glyph-name="uni06CC" unicode="&#x6cc;" horiz-adv-x="758" arabic-form="isolated" 
d="M190 -203q-70 34 -110 98.5t-40 154.5q0 61 21 132.5t48 123.5l87 -40q-26 -56 -40.5 -104t-14.5 -96q0 -86 53.5 -129.5t153.5 -43.5q88 0 153 33.5t89 80.5q1 3 -32 13.5t-84 25.5q-79 23 -111.5 52.5t-32.5 87.5q0 78 40 149t106 114.5t139 43.5q29 0 57.5 -8
t41.5 -19l-37 -113q-11 4 -30 7t-35 3q-42 0 -80.5 -19.5t-65 -51t-34.5 -65.5q-1 -4 -1 -11q0 -17 23 -30.5t88 -30.5q63 -16 96 -34t45 -38.5t12 -48.5q0 -68 -45.5 -130.5t-125 -101.5t-176.5 -39q-88 0 -158 34z" />
    <glyph glyph-name="uni06CE.init" unicode="&#x6ce;" horiz-adv-x="367" 
d="M228 592.5q-19 -38.5 -31 -71.5l-45 -16q-10 32 -31 73.5t-42 71.5l40 38q13 -17 28.5 -48.5t24.5 -57.5q9 28 24.5 62t28.5 53l41 -37q-19 -29 -38 -67.5zM-21 -114l27 27l27 -27l53 -53l-80 -80l-80 80zM-5 129h45q102 0 144 18.5t42 57.5q-1 25 -21.5 86.5t-32.5 87.5
l94 51q20 -45 40 -112t20 -118q-1 -98 -68 -149t-199 -51h-64v129zM156 -114l27 27l27 -27l53 -53l-80 -80l-80 80z" />
    <glyph glyph-name="uni06CE.medi" unicode="&#x6ce;" horiz-adv-x="390" 
d="M219.5 480.5q-19.5 -38.5 -31.5 -72.5l-45 -16q-10 32 -31.5 73.5t-41.5 70.5l40 38q13 -17 28.5 -48.5t24.5 -57.5q9 29 25 63t29 52l40 -37q-18 -27 -37.5 -65.5zM-27 -113l27 27l27 -27l53 -53l-80 -80l-80 80zM-5 129h8q78 0 121 7t61.5 21.5t24.5 39.5q3 14 3 30
q0 25 -5 58.5t-6 41.5l93 18q8 -43 11 -89.5t3 -73.5q4 -23 24 -38t56 -15h6l7 -64l-7 -65h-6q-41 0 -75 19.5t-57 52.5q-27 -39 -85.5 -55.5t-168.5 -16.5h-8v129zM150 -113l27 27l27 -27l53 -53l-80 -80l-80 80z" />
    <glyph glyph-name="uni06CE.fina" unicode="&#x6ce;" horiz-adv-x="749" 
d="M190 -251.5q-70 33.5 -110 98t-40 154.5q0 61 21 132t48 125l87 -41q-26 -56 -40.5 -104t-14.5 -95q0 -86 53.5 -130t153.5 -44q56 0 106.5 13t85.5 33t45 38q-15 17 -74 52t-123 60l28 122q165 -33 289 -33h49l7 -64l-7 -65h-49q-35 0 -73 3q49 -42 49 -81
q-1 -48 -46 -96.5t-121 -79.5t-166 -31q-88 0 -158 33.5zM231 449q13 -17 29 -48.5t25 -57.5q8 28 24 62t29 53l40 -37q-19 -29 -38 -67.5t-31 -71.5l-45 -16q-10 32 -31 73t-41 72z" />
    <glyph glyph-name="uni06D5.fina" unicode="&#x6d5;" horiz-adv-x="506" 
d="M412.5 16q-34.5 16 -58.5 51q-60 -18 -115 -18q-86 0 -142 41.5t-56 112.5q0 83 64.5 141.5t172.5 99.5l-8 60l105 21q3 -22 4.5 -42t3.5 -38l22 -197q6 -51 15 -75.5t26 -34t50 -9.5h17l7 -64l-7 -65h-17q-49 0 -83.5 16zM163.5 187q26.5 -16 70.5 -16q35 0 77 12
q-3 16 -7 48l-12 98q-62 -20 -106 -48t-46 -54q-3 -24 23.5 -40z" />
    <glyph glyph-name="uni0671.fina" unicode="&#x671;" horiz-adv-x="270" arabic-form="final" 
d="M115 60.5q-45 60.5 -45 188.5q-2 217 -18 362l109 24q15 -127 15 -336v-35q-1 -56 5 -83t26 -39.5t62 -12.5h5l7 -64l-7 -65h-4q-110 0 -155 60.5zM44 761q5 1 15 1q15 0 28 -4q26 47 62.5 75t73.5 28q35 0 59 -23.5t24 -58.5q0 -36 -26.5 -64t-68.5 -36q-16 -3 -32 -3
q-31 0 -78 15q-18 5 -29.5 7t-20.5 1q-14 -1 -22 -8t-17 -18l-41 27q31 56 73 61zM183 734q5 0 19 2q27 4 43.5 15.5t16.5 24.5q0 10 -11.5 18t-26.5 8q-24 0 -48 -15.5t-43 -43.5q32 -9 50 -9z" />
    <glyph glyph-name="uni067E.fina" unicode="&#x67e;" horiz-adv-x="947" arabic-form="final" 
d="M148.5 42q-98.5 53 -107.5 149q-1 8 -1 24q0 42 11 89.5t28 87.5l87 -43q-30 -91 -26 -135q8 -43 81 -69t204 -27q126 0 199.5 18.5t113.5 57.5t65 109l94 -11q-18 -55 -18 -92q0 -71 73 -71l7 -64l-7 -65q-57 0 -99 33t-51 88q-60 -72 -152 -102t-230 -30
q-173 0 -271.5 53zM348 -68l50 -50l26 -26l-76 -75l-75 75zM442 -191l67 -68l-22 -22l-45 -45l-67 67zM510 -93l25 25l19 -19q47 -47 56 -57l-50 -50l-25 -25l-76 75z" />
    <glyph glyph-name="uni067E.init" unicode="&#x67e;" horiz-adv-x="367" arabic-form="initial" 
d="M-5 129h45q102 0 144 18.5t42 57.5q-1 25 -21.5 86.5t-32.5 87.5l94 51q20 -45 40 -112t20 -118q-1 -98 -68 -149t-199 -51h-64v129zM10 -69l50 -50l26 -26l-76 -75l-75 75zM104 -192l67 -68l-22 -22l-45 -45l-67 67zM172 -94l25 25l19 -19q47 -47 56 -57l-50 -50
l-25 -25l-76 75z" />
    <glyph glyph-name="uni067E.medi" unicode="&#x67e;" horiz-adv-x="390" arabic-form="medial" 
d="M-5 129h8q78 0 121 7t61.5 21.5t24.5 39.5q3 14 3 30q0 25 -5 58.5t-6 41.5l93 18q8 -43 11 -89.5t3 -73.5q4 -23 24 -38t56 -15h6l7 -64l-7 -65h-6q-41 0 -75 19.5t-57 52.5q-27 -39 -85.5 -55.5t-168.5 -16.5h-8v129zM-6 -69l50 -50l26 -26l-76 -75l-75 75zM88 -192
l67 -68l-22 -22l-45 -45l-67 67zM156 -94l25 25l19 -19q47 -47 56 -57l-50 -50l-25 -25l-76 75z" />
    <glyph glyph-name="uni0679.fina" unicode="&#x679;" horiz-adv-x="947" arabic-form="final" 
d="M148.5 42q-98.5 53 -107.5 149q-1 8 -1 24q0 42 11 89.5t28 87.5l87 -43q-30 -91 -26 -135q8 -43 81 -69t204 -27q126 0 199.5 18.5t113.5 57.5t65 109l94 -11q-18 -55 -18 -92q0 -71 73 -71l7 -64l-7 -65q-57 0 -99 33t-51 88q-60 -72 -152 -102t-230 -30
q-173 0 -271.5 53zM338 394l30 -9q6 10 20 30q1 47 -14 157l49 10q8 -46 13 -114q40 32 77 32q38 0 59.5 -26.5t21.5 -58.5q0 -42 -39 -73t-116 -31q-57 0 -120 28zM440 375q58 -2 83 10.5t25 28.5q0 11 -9 19t-26 6q-22 -1 -45.5 -18t-44.5 -45z" />
    <glyph glyph-name="uni0679.init" unicode="&#x679;" horiz-adv-x="367" arabic-form="initial" 
d="M-5 129h45q102 0 144 18.5t42 57.5q-1 25 -21.5 86.5t-32.5 87.5l94 51q20 -45 40 -112t20 -118q-1 -98 -68 -149t-199 -51h-64v129zM22 570l30 -9q6 10 20 30q1 47 -14 157l49 10q8 -46 13 -115q40 33 77 33q38 0 59.5 -26.5t21.5 -58.5q0 -42 -39 -73t-116 -31
q-57 0 -120 28zM124 551q59 -2 83.5 10t24.5 29q0 11 -9 19t-26 6q-22 -1 -45.5 -18t-44.5 -45q5 -1 17 -1z" />
    <glyph glyph-name="uni0679.medi" unicode="&#x679;" horiz-adv-x="390" arabic-form="medial" 
d="M-5 129h8q78 0 121 7t61.5 21.5t24.5 39.5q3 14 3 30q0 25 -5 58.5t-6 41.5l93 18q8 -43 11 -89.5t3 -73.5q4 -23 24 -38t56 -15h6l7 -64l-7 -65h-6q-41 0 -75 19.5t-57 52.5q-27 -39 -85.5 -55.5t-168.5 -16.5h-8v129zM35 472l31 -9q6 10 20 30q0 27 -4.5 75t-10.5 82
l49 10q10 -56 14 -114q39 32 76 32q38 0 59.5 -26.5t21.5 -58.5q0 -42 -38.5 -73t-116.5 -31q-37 0 -70 10t-49 18zM137 453q60 -2 84 10.5t24 29.5q0 11 -9 18.5t-26 5.5q-21 -1 -44.5 -18t-45.5 -45z" />
    <glyph glyph-name="uni06A4.fina" unicode="&#x6a4;" horiz-adv-x="892" arabic-form="final" 
d="M429 -11q-177 -1 -278 52t-110 150q-1 8 -1 24q0 42 11 89.5t28 87.5l87 -43q-30 -91 -26 -135q8 -43 82 -69.5t207 -26.5h3q53 0 89 4q-42 51 -42 110q0 8 2 26q8 56 35.5 103t67 74t83.5 27q49 0 87.5 -31t59.5 -79t21 -99q0 -71 -36 -124h98l7 -64l-7 -65h-60
q-94 0 -169 26q-97 -37 -236 -37h-3zM526 643l50 50l76 -75l-50 -50l-26 -26q-21 22 -43 43l-32 33zM596.5 195.5q21.5 -25.5 60.5 -42.5q61 28 82 82q3 23 -6 47.5t-28 40.5t-45 16q-32 0 -56 -27.5t-29 -63.5q0 -27 21.5 -52.5zM670 800l66 -67l-66 -68l-23 23l-45 45z
M764 693l50 -50l25 -25l-32 -33q-22 -21 -43 -43l-77 76z" />
    <glyph glyph-name="uni06A4.init" unicode="&#x6a4;" horiz-adv-x="461" arabic-form="initial" 
d="M-6 129h14q121 0 194.5 14t106.5 47q-28 -2 -43 -2q-71 0 -126 23.5t-79 70.5q-18 35 -18 84q0 54 23.5 106t65 85t90.5 33q60 0 107 -49.5t71.5 -127.5t19.5 -160q-5 -121 -108 -187t-304 -66h-14v129zM131 801l76 -75l-50 -50l-26 -26l-75 76zM197 320.5
q40 -12.5 90 -12.5q28 0 42 2q-12 69 -43 117.5t-73 48.5q-21 0 -39.5 -14.5t-29.5 -36t-11 -41.5q0 -18 9 -30q15 -21 55 -33.5zM202 886l22 22q34 -33 67 -67l-67 -68l-67 68zM318 801l25 -25l50 -50q-21 -22 -43 -43l-32 -33l-50 50l-26 26z" />
    <glyph glyph-name="uni06A4.medi" unicode="&#x6a4;" horiz-adv-x="472" arabic-form="medial" 
d="M-7 129h24q31 0 79 2q-35 47 -35 102q0 7 2 25q9 57 36.5 103.5t67 73.5t83.5 27q49 0 87 -30.5t59 -79t21 -99.5q0 -10 -2 -30q-7 -53 -33 -94h97l7 -64l-7 -65h-60q-95 0 -177 29q-87 -29 -225 -29h-24v129zM126 662l25 25l76 -75l-76 -77l-30 31q-38 38 -45 46z
M178.5 197q20.5 -25 57.5 -42q34 13 54 32.5t31 47.5q3 23 -6 47.5t-27.5 40.5t-45.5 16q-32 0 -56 -27.5t-29 -63.5q1 -26 21.5 -51zM199 749l45 45l67 -67q-44 -46 -67 -68l-67 68zM338 687l75 -75l-75 -77l-76 77z" />
    <glyph glyph-name="uni0686.fina" unicode="&#x686;" horiz-adv-x="736" arabic-form="final" 
d="M210 -345q-78 34 -123.5 97t-45.5 148q0 100 54.5 178.5t157 129.5t245.5 71l-10 7q-69 49 -114.5 70.5t-88.5 22.5q-40 -1 -70.5 -23t-48.5 -51l-73 53q35 70 84 107t110 37q57 0 111.5 -26.5t142.5 -89.5q50 -37 77 -54t58 -28l-14 -124q-32 0 -48 -1q26 -50 111 -50
h16l7 -64l-7 -65h-16q-85 0 -138.5 46.5t-65.5 125.5q-113 -15 -197.5 -52.5t-131 -90.5t-53.5 -112q-3 -47 30.5 -85t94 -59.5t137.5 -21.5q73 0 136 15t100 30l46 -100q-2 -1 -37.5 -20.5t-110 -37t-152.5 -17.5q-95 0 -173 34zM321 56l74 -74l-74 -73l-73 73zM412 -64
l66 -66l-66 -65l-65 65zM503 56l73 -74l-73 -73l-74 73z" />
    <glyph glyph-name="uni0686.init" unicode="&#x686;" horiz-adv-x="692" arabic-form="initial" 
d="M-6 129h80q120 0 224.5 27.5t218.5 86.5q-33 12 -89 39q-91 47 -157 47q-39 0 -70 -22t-47 -51l-73 53q35 71 84 107.5t110 36.5q43 0 82.5 -14.5t110.5 -51.5q62 -31 102 -47t88 -26l4 -115q-28 -8 -92 -44q-9 -4 -27 -14q-95 -50 -167.5 -80t-150 -45.5t-171.5 -15.5
h-60v129zM253 -68l50 -50l26 -26l-76 -75l-75 75zM347 -191l67 -68l-22 -22l-45 -45l-67 67zM415 -93l25 25l19 -19q47 -47 56 -57l-50 -50l-25 -25l-76 75z" />
    <glyph glyph-name="uni0686.medi" unicode="&#x686;" horiz-adv-x="757" arabic-form="medial" 
d="M508 123q-125 -65 -225.5 -94t-228.5 -29h-60v129h80q120 0 224.5 27.5t218.5 86.5q-33 12 -89 39q-91 47 -157 47q-39 0 -70 -22t-47 -51l-73 53q35 71 84 107.5t110 36.5q43 0 82.5 -14.5t110.5 -51.5q62 -31 102 -47t88 -26l4 -115q-25 -7 -65 -29q50 -40 128 -41h36
l7 -64l-7 -65h-10q-182 1 -243 123zM259 -67l50 -50l26 -26l-76 -75l-75 75zM353 -190l67 -68l-22 -22l-45 -45l-67 67zM421 -92l25 25l19 -19q47 -47 56 -57l-50 -50l-25 -25l-76 75z" />
    <glyph glyph-name="uni0688.fina" unicode="&#x688;" horiz-adv-x="580" arabic-form="final" 
d="M494 16.5q-35 16.5 -63 50.5q-76 -72 -184 -72q-74 0 -126.5 23.5t-94.5 53.5l49 92q35 -19 72.5 -32.5t88.5 -13.5q80 0 143 40l-139 321l93 49l137 -324q18 -43 40.5 -59t63.5 -16h11l7 -64l-7 -65h-11q-45 0 -80 16.5zM199 683l30 -9q6 10 20 30q1 25 -4 72t-11 85
l50 10q8 -46 13 -115q40 33 77 33q38 0 59.5 -26.5t21.5 -58.5q0 -42 -39 -73t-116 -31q-37 0 -63 7.5t-57 19.5zM301 663q60 -1 83.5 11.5t23.5 29.5q0 10 -7.5 17t-21.5 7q-24 0 -49 -17.5t-47 -46.5z" />
    <glyph glyph-name="uni0698.fina" unicode="&#x698;" horiz-adv-x="396" arabic-form="final" 
d="M332 13q-2 -93 -79 -173.5t-201 -129.5l-52 109q65 25 119 61t85 73t31 66q0 22 -12 73.5t-32 129.5q-8 28 -11 42l100 39q13 -43 26 -92q13 -45 33 -63.5t54 -18.5h8l7 -64l-7 -65h-8q-32 0 -61 13zM104 526l25 25l76 -75l-76 -77l-30 31q-38 38 -45 46zM177 613l45 45
l67 -67q-44 -46 -67 -68l-67 68zM316 551l75 -75l-75 -77l-76 77z" />
    <glyph glyph-name="uni0691.fina" unicode="&#x691;" horiz-adv-x="396" arabic-form="final" 
d="M332 13q-2 -93 -79 -173.5t-201 -129.5l-52 109q65 25 119 61t85 73t31 66q0 22 -12 73.5t-32 129.5q-8 28 -11 42l100 39q13 -43 26 -92q13 -45 33 -63.5t54 -18.5h8l7 -64l-7 -65h-8q-32 0 -61 13zM129 454l30 -9q6 10 20 30q0 27 -4.5 75t-10.5 82l50 10
q8 -46 13 -114q39 32 76 32q38 0 60 -26.5t22 -58.5q0 -42 -39 -73t-116 -31q-38 0 -71 10t-49 18zM231 435q60 -2 83.5 10.5t23.5 29.5q0 11 -9 18.5t-26 5.5q-21 -1 -44.5 -18t-45.5 -45z" />
    <glyph glyph-name="uni06A9.fina" unicode="&#x6a9;" horiz-adv-x="951" arabic-form="final" 
d="M846 30q-44 30 -93 93q-30 -64 -111.5 -99t-195.5 -35h-17q-177 -1 -278 52t-110 150q-1 8 -1 24q0 42 11 89.5t28 87.5l87 -43q-30 -91 -26 -135q8 -43 82 -69.5t207 -26.5h17q88 0 146 18.5t76 46.5q2 51 -50.5 122.5t-158.5 157.5l12 114l369 158l36 -104l-297 -128
q30 -25 67.5 -67t67.5 -88q54 -86 90.5 -132.5t68 -66.5t67.5 -20h16l7 -64l-7 -65h-16q-50 0 -94 30z" />
    <glyph glyph-name="uni06A9.init" unicode="&#x6a9;" horiz-adv-x="456" arabic-form="initial" 
d="M-5 129h31q91 0 147.5 15t74.5 42q1 49 -52 120.5t-157 156.5l12 114l369 158l36 -104l-297 -128q66 -56 128 -143.5t62 -166.5q0 -22 -6 -43q-21 -75 -104.5 -112.5t-212.5 -37.5h-31v129z" />
    <glyph glyph-name="uni06A9.medi" unicode="&#x6a9;" horiz-adv-x="529" arabic-form="medial" 
d="M424 29.5q-44 29.5 -92 92.5q-30 -61 -110 -91.5t-196 -30.5h-31v129h31q91 0 147.5 15t74.5 42q1 49 -52 120.5t-157 156.5l12 114l369 158l36 -104l-297 -128q39 -34 83 -84.5t72 -105.5q49 -74 81.5 -112.5t61 -55t62.5 -16.5h15l6 -64l-6 -65h-15q-51 0 -95 29.5z
" />
    <glyph glyph-name="uni06AF.fina" unicode="&#x6af;" horiz-adv-x="940" arabic-form="final" 
d="M836.5 28.5q-45.5 28.5 -92.5 86.5q-33 -62 -111 -94t-187 -32h-17q-177 -1 -278 52t-110 150q-1 8 -1 24q0 42 11 89.5t28 87.5l87 -43q-30 -91 -26 -135q8 -43 82 -69.5t207 -26.5h17q89 0 145.5 15.5t73.5 42.5q1 47 -49 110.5t-157 148.5l12 115l369 156l36 -103
l-297 -128q99 -83 147 -160q68 -101 114 -143.5t91 -42.5h14l7 -64l-7 -65h-14q-49 0 -94.5 28.5zM479 669l322 133l17 -44l-345 -145z" />
    <glyph glyph-name="uni06AF.init" unicode="&#x6af;" horiz-adv-x="456" arabic-form="initial" 
d="M-5 129h31q89 0 144.5 14t75.5 40q4 44 -49 112.5t-158 151.5l12 115l369 156l36 -103l-297 -128q69 -59 127 -139t58 -155q0 -22 -6 -43q-22 -76 -103.5 -113t-208.5 -37h-31v129zM62 681l322 134l16 -44l-344 -146z" />
    <glyph glyph-name="uni06AF.medi" unicode="&#x6af;" horiz-adv-x="520" arabic-form="medial" 
d="M419 31q-43 31 -91 93q-30 -63 -108 -93.5t-194 -30.5h-31v129h31q89 0 144.5 14t75.5 40q4 44 -49 112.5t-158 151.5l12 115l369 156l36 -103l-297 -128q37 -32 75.5 -74t65.5 -88q69 -103 116.5 -149.5t93.5 -46.5h16l7 -64l-7 -65h-16q-48 0 -91 31zM62 681l322 134
l16 -44l-344 -146z" />
    <glyph glyph-name="uni06BA.fina" unicode="&#x6ba;" horiz-adv-x="740" arabic-form="final" 
d="M680 16q-1 -82 -42 -152t-115.5 -112.5t-173.5 -42.5q-93 0 -163 37t-107.5 102.5t-37.5 149.5q0 61 21 129.5t48 124.5l87 -40q-26 -57 -40 -104.5t-14 -95.5q0 -86 53 -129.5t153 -43.5q74 0 127.5 25.5t80.5 67t27 87.5q0 61 -61 244l95 49q19 -53 29 -90
q17 -52 36 -72.5t55 -20.5h7l7 -64l-7 -65h-7q-31 0 -58 16z" />
    <glyph glyph-name="uni06C1.init" unicode="&#x6c1;" horiz-adv-x="402" arabic-form="initial" 
d="M-9 65l6 64h79q102 0 144 18.5t42 57.5q0 25 -20.5 85.5t-33.5 88.5l94 51q20 -42 40 -110.5t20 -119.5q-1 -98 -68 -149t-199 -51h-98zM97 -136.5q36 61.5 94 97.5l47 -48q-46 -34 -68.5 -67t-28.5 -54q2 1 7 2.5t12 1.5q31 0 54 -22.5t23 -55.5q0 -32 -23.5 -55.5
t-54.5 -23.5q-44 -1 -71 28.5t-27 76.5q0 58 36 119.5z" />
    <glyph glyph-name="uni06BE.init" unicode="&#x6be;" horiz-adv-x="662" arabic-form="initial" 
d="M-3 129h14q35 0 89 2q-39 47 -39 101q0 9 2 25q13 73 56 130l-29 8l46 120q191 -60 298.5 -114t150 -104.5t42.5 -108.5q0 -36 -15 -84q-16 -51 -68.5 -76.5t-125.5 -25.5q-80 0 -161 28q-89 -30 -246 -30h-14v129zM182.5 199.5q24.5 -24.5 66.5 -44.5q85 28 85 92
q0 27 -14 51.5t-37 36.5l-20 7l-5 1l-9 1q-21 0 -42.5 -13.5t-35 -35t-13.5 -45.5q0 -26 24.5 -50.5zM431 113q45 0 72 13.5t27 41.5q0 51 -111 109q1 -9 1 -25q0 -21 -2 -31q-9 -61 -38 -104q36 -4 51 -4z" />
    <glyph glyph-name="uni06C7.fina" unicode="&#x6c7;" horiz-adv-x="473" arabic-form="final" 
d="M247 -105q76 42 98 104q-110 1 -178 20t-95 75q-17 35 -17 82q0 57 24 113.5t65.5 93t90.5 36.5q53 0 96.5 -40.5t71.5 -107t37 -142.5h40l7 -64l-7 -65h-42q-23 -110 -118.5 -185.5t-248.5 -104.5l-39 113q139 30 215 72zM193.5 540q32.5 7 56.5 24q-33 5 -54.5 23.5
t-26.5 49.5q-1 4 -1 13q0 38 28 66.5t62 28.5q14 0 23 -4q27 -9 41 -35t14 -60q0 -47 -24 -85q-25 -41 -75 -62t-104 -22l-15 53q43 3 75.5 10zM218.5 138q49.5 -8 127.5 -9q-13 72 -45 122t-75 50q-21 0 -39.5 -16.5t-29.5 -41.5t-11 -47q0 -16 8 -29q15 -21 64.5 -29z
M234 624.5q19 -13.5 52 -13.5q4 12 4 26q0 23 -11 39.5t-29 16.5q-14 0 -24.5 -11t-10.5 -25q0 -19 19 -32.5z" />
    <glyph glyph-name="uni06C6.fina" unicode="&#x6c6;" horiz-adv-x="473" arabic-form="final" 
d="M247 -105q76 42 98 104q-110 1 -178 20t-95 75q-17 35 -17 82q0 57 24 113.5t65.5 93t90.5 36.5q53 0 96.5 -40.5t71.5 -107t37 -142.5h40l7 -64l-7 -65h-42q-23 -110 -118.5 -185.5t-248.5 -104.5l-39 113q139 30 215 72zM166 665q13 -17 29 -48.5t25 -57.5q8 27 24 61
t29 54l41 -37q-19 -29 -38.5 -67.5t-31.5 -71.5l-44 -16q-11 32 -32 73t-41 72zM218.5 138q49.5 -8 127.5 -9q-13 72 -45 122t-75 50q-21 0 -39.5 -16.5t-29.5 -41.5t-11 -47q0 -16 8 -29q15 -21 64.5 -29z" />
    <glyph glyph-name="uni06C9.fina" unicode="&#x6c9;" horiz-adv-x="473" arabic-form="final" 
d="M247 -105q76 42 98 104q-110 1 -178 20t-95 75q-17 35 -17 82q0 57 24 113.5t65.5 93t90.5 36.5q53 0 96.5 -40.5t71.5 -107t37 -142.5h40l7 -64l-7 -65h-42q-23 -110 -118.5 -185.5t-248.5 -104.5l-39 113q139 30 215 72zM169 587.5q21 41.5 32 74.5l45 -16
q12 -33 31 -71.5t38 -67.5l-41 -37q-13 19 -28.5 53t-24.5 62q-9 -26 -24.5 -57.5t-28.5 -48.5l-40 38q20 29 41 70.5zM218.5 138q49.5 -8 127.5 -9q-13 72 -45 122t-75 50q-21 0 -39.5 -16.5t-29.5 -41.5t-11 -47q0 -16 8 -29q15 -21 64.5 -29z" />
    <glyph glyph-name="uni06CC.fina" unicode="&#x6cc;" horiz-adv-x="749" arabic-form="final" 
d="M190 -251.5q-70 33.5 -110 98t-40 154.5q0 61 21 132t48 125l87 -41q-26 -56 -40.5 -104t-14.5 -95q0 -86 53.5 -130t153.5 -44q56 0 106.5 13t85.5 33t45 38q-15 17 -74 52t-123 60l28 122q165 -33 289 -33h49l7 -64l-7 -65h-49q-35 0 -73 3q49 -42 49 -81
q-1 -48 -46 -96.5t-121 -79.5t-166 -31q-88 0 -158 33.5z" />
    <glyph glyph-name="uni06CC.init" unicode="&#x6cc;" horiz-adv-x="367" arabic-form="initial" 
d="M-5 129h45q102 0 144 18.5t42 57.5q-1 25 -21.5 86.5t-32.5 87.5l94 51q20 -45 40 -112t20 -118q-1 -98 -68 -149t-199 -51h-64v129zM-21 -114l27 27l27 -27l53 -53l-80 -80l-80 80zM156 -114l27 27l27 -27l53 -53l-80 -80l-80 80z" />
    <glyph glyph-name="uni06CC.medi" unicode="&#x6cc;" horiz-adv-x="390" arabic-form="medial" 
d="M-5 129h8q78 0 121 7t61.5 21.5t24.5 39.5q3 14 3 30q0 25 -5 58.5t-6 41.5l93 18q8 -43 11 -89.5t3 -73.5q4 -23 24 -38t56 -15h6l7 -64l-7 -65h-6q-41 0 -75 19.5t-57 52.5q-27 -39 -85.5 -55.5t-168.5 -16.5h-8v129zM-27 -113l27 27l27 -27l53 -53l-80 -80l-80 80z
M150 -113l27 27l27 -27l53 -53l-80 -80l-80 80z" />
    <glyph glyph-name="uniFDFC" unicode="&#xfdfc;" horiz-adv-x="1450" arabic-form="isolated" 
d="M1171 -40q56 29 89.5 62t37.5 62q1 5 1 21q0 57 -22 229l104 23q18 -91 18 -194q0 -53 -6 -94q-13 -96 -96.5 -166t-213.5 -101l-35 113q67 16 123 45zM117 267l87 -41q-26 -54 -40 -100.5t-14 -90.5q0 -68 47 -106t131 -38q97 0 141 51t40 164q-11 286 -28 451l70 117
l147 33q13 4 28 4q31 0 48.5 -21.5t18.5 -61.5q4 -81 7 -153.5t5 -126.5q1 -36 2 -61t2 -41q2 -58 9 -84.5t27.5 -38.5t65.5 -12q84 0 124 16.5t46 48.5q-1 39 -20 95.5t-34 89.5l94 52q19 -42 39 -112.5t20 -121.5q0 -99 -66.5 -148t-209.5 -49q-76 0 -118 27t-59.5 80
t-20.5 142q-7 263 -12 368l-105 -25l2 -43q4 -91 16 -419q4 -171 -67.5 -260.5t-212.5 -89.5q-77 0 -140 31.5t-100 90t-37 136.5q0 102 67 247zM639 -132q16 -1 50 -1q69 0 146 8t130 21l31 -110q-125 -26 -258 -26q-62 0 -120 8z" />
    <glyph glyph-name="uni0622.fina" unicode="&#x622;" horiz-adv-x="270" arabic-form="final" 
d="M115 60.5q-45 60.5 -45 188.5q-2 217 -18 362l109 24q15 -127 15 -336v-35q-1 -56 5 -83t26 -39.5t62 -12.5h5l7 -64l-7 -65h-4q-110 0 -155 60.5zM-5.5 768q27.5 24 60.5 24q17 0 31 -4.5t32 -12.5q13 -5 26 -9.5t26 -4.5q17 0 35 10.5t30 28.5l41 -36q-21 -32 -49 -50
t-57 -18q-17 0 -32 4.5t-33 13.5q-12 5 -24.5 9.5t-23.5 4.5q-20 0 -37 -14t-27 -39l-45 25q19 44 46.5 68z" />
    <glyph glyph-name="uni0623.fina" unicode="&#x623;" horiz-adv-x="270" arabic-form="final" 
d="M115 60.5q-45 60.5 -45 188.5q-2 217 -18 362l109 24q15 -127 15 -336v-35q-1 -56 5 -83t26 -39.5t62 -12.5h5l7 -64l-7 -65h-4q-110 0 -155 60.5zM26 716l59 18q-20 20 -26 46q-2 7 -2 20q0 33 21 61.5t52 36.5q14 3 26 3q28 0 70 -14l-16 -61q-33 11 -55 11
q-21 0 -34.5 -12t-13.5 -26t15 -27.5t41 -12.5l80 25v-62l-217 -68v62z" />
    <glyph glyph-name="uni0624.fina" unicode="&#x624;" horiz-adv-x="473" arabic-form="final" 
d="M247 -105q76 42 98 104q-110 1 -178 20t-95 75q-17 35 -17 82q0 57 24 113.5t65.5 93t90.5 36.5q53 0 96.5 -40.5t71.5 -107t37 -142.5h40l7 -64l-7 -65h-42q-23 -110 -118.5 -185.5t-248.5 -104.5l-39 113q139 30 215 72zM92 527l59 18q-19 21 -25 45q-2 7 -2 21
q0 34 20.5 62t52.5 35q14 3 26 3q24 0 69 -13l-16 -61q-29 11 -52 11q-26 0 -39.5 -14.5t-9.5 -31.5q3 -12 17 -22.5t36 -10.5l81 25v-61l-217 -68v62zM218.5 138q49.5 -8 127.5 -9q-13 72 -45 122t-75 50q-21 0 -39.5 -16.5t-29.5 -41.5t-11 -47q0 -16 8 -29
q15 -21 64.5 -29z" />
    <glyph glyph-name="uni0625.fina" unicode="&#x625;" horiz-adv-x="277" arabic-form="final" 
d="M123 59q-45 59 -45 185q0 115 -6.5 248.5t-17.5 208.5l109 25q10 -71 16 -214.5t5 -247.5q-1 -55 5 -82.5t26 -40t62 -12.5h5l6 -64l-6 -65h-5q-109 0 -154 59zM34 -223l58 18q-19 21 -25 45q-2 7 -2 21q0 33 21 61.5t52 35.5q14 3 28 3q31 0 68 -13l-16 -61
q-33 11 -55 11q-21 0 -34.5 -12t-13.5 -27q0 -14 14.5 -27t41.5 -12l80 25v-62l-217 -68v62z" />
    <glyph glyph-name="uni0626.fina" unicode="&#x626;" horiz-adv-x="749" arabic-form="final" 
d="M190 -251.5q-70 33.5 -110 98t-40 154.5q0 61 21 132t48 125l87 -41q-26 -56 -40.5 -104t-14.5 -95q0 -86 53.5 -130t153.5 -44q56 0 106.5 13t85.5 33t45 38q-15 17 -74 52t-123 60l28 122q165 -33 289 -33h49l7 -64l-7 -65h-49q-35 0 -73 3q49 -42 49 -81
q-1 -48 -46 -96.5t-121 -79.5t-166 -31q-88 0 -158 33.5zM133 361l58 18q-19 21 -25 45q-2 14 -2 20q0 34 20.5 62.5t52.5 35.5q14 3 28 3q31 0 68 -13l-16 -61q-33 11 -54 11q-9 0 -13 -1q-19 -5 -28 -18t-6 -27q3 -13 17 -23t36 -9l81 25v-62l-217 -68v62z" />
    <glyph glyph-name="uni0626.init" unicode="&#x626;" horiz-adv-x="329" arabic-form="initial" 
d="M-5 129h53q74 0 107 17.5t33 53.5q0 23 -21.5 89t-32.5 90l94 51q19 -40 39.5 -110t20.5 -122q0 -97 -62 -147.5t-178 -50.5h-53v129zM11 520l58 18q-19 21 -25 46q-2 7 -2 20q0 33 21 61.5t52 36.5q12 3 26 3q29 0 69 -14l-15 -61q-33 11 -55 11q-21 0 -34.5 -12
t-13.5 -26t15 -27.5t41 -12.5l80 25v-62l-217 -68v62z" />
    <glyph glyph-name="uni0626.medi" unicode="&#x626;" horiz-adv-x="336" arabic-form="medial" 
d="M-5 129h7q88 1 122.5 23t34.5 73q0 23 -8 75l-4 27l94 18q13 -67 13 -163q5 -23 25 -38t55 -15h7l7 -64l-7 -65h-7q-40 0 -74.5 20t-56.5 53q-26 -38 -76 -55.5t-125 -17.5h-7v129zM21 458l58 18q-19 21 -25 46q-2 7 -2 20q0 33 21 61.5t52 36.5q12 3 26 3q26 0 69 -13
l-15 -62q-33 11 -55 11q-21 0 -34.5 -12t-13.5 -26t14.5 -27.5t41.5 -12.5l80 25v-62l-217 -67v61z" />
    <glyph glyph-name="uni0627.fina" unicode="&#x627;" horiz-adv-x="277" arabic-form="final" 
d="M123 59q-45 59 -45 185q0 115 -6.5 248.5t-17.5 208.5l109 25q10 -71 16 -214.5t5 -247.5q-1 -55 5 -82.5t26 -40t62 -12.5h5l6 -64l-6 -65h-5q-109 0 -154 59z" />
    <glyph glyph-name="uni0628.fina" unicode="&#x628;" horiz-adv-x="947" arabic-form="final" 
d="M148.5 42q-98.5 53 -107.5 149q-1 8 -1 24q0 42 11 89.5t28 87.5l87 -43q-30 -91 -26 -135q8 -43 81 -69t204 -27q126 0 199.5 18.5t113.5 57.5t65 109l94 -11q-18 -55 -18 -92q0 -71 73 -71l7 -64l-7 -65q-57 0 -99 33t-51 88q-60 -72 -152 -102t-230 -30
q-173 0 -271.5 53zM445 -89l57 -57l28 -28l-85 -86l-85 86z" />
    <glyph glyph-name="uni0628.init" unicode="&#x628;" horiz-adv-x="329" arabic-form="initial" 
d="M-5 129h53q74 0 107 17.5t33 53.5q0 23 -21.5 89t-32.5 90l94 51q19 -40 39.5 -110t20.5 -122q0 -97 -62 -147.5t-178 -50.5h-53v129zM72 -84l57 -57l28 -28l-85 -86l-85 86z" />
    <glyph glyph-name="uni0628.medi" unicode="&#x628;" horiz-adv-x="336" arabic-form="medial" 
d="M-5 129h7q88 1 122.5 23t34.5 73q0 23 -8 75l-4 27l94 18q13 -67 13 -163q5 -23 25 -38t55 -15h7l7 -64l-7 -65h-7q-40 0 -74.5 20t-56.5 53q-26 -38 -76 -55.5t-125 -17.5h-7v129zM58 -84l57 -57l28 -28l-85 -86l-85 86z" />
    <glyph glyph-name="uni0629.fina" unicode="&#x629;" horiz-adv-x="506" arabic-form="final" 
d="M412.5 16q-34.5 16 -58.5 51q-60 -18 -115 -18q-86 0 -142 41.5t-56 112.5q0 83 64.5 141.5t172.5 99.5l-8 60l105 21q3 -22 4.5 -42t3.5 -38l22 -197q6 -51 15 -75.5t26 -34t50 -9.5h17l7 -64l-7 -65h-17q-49 0 -83.5 16zM177 741l79 -80l-79 -80l-81 80zM163.5 187
q26.5 -16 70.5 -16q35 0 77 12q-3 16 -7 48l-12 98q-62 -20 -106 -48t-46 -54q-3 -24 23.5 -40zM354 741l79 -80l-79 -80l-81 80z" />
    <glyph glyph-name="uni062A.fina" unicode="&#x62a;" horiz-adv-x="947" arabic-form="final" 
d="M148.5 42q-98.5 53 -107.5 149q-1 8 -1 24q0 42 11 89.5t28 87.5l87 -43q-30 -91 -26 -135q8 -43 81 -69t204 -27q126 0 199.5 18.5t113.5 57.5t65 109l94 -11q-18 -55 -18 -92q0 -71 73 -71l7 -64l-7 -65q-57 0 -99 33t-51 88q-60 -72 -152 -102t-230 -30
q-173 0 -271.5 53zM313 431l53 53l80 -80l-27 -27l-53 -53l-80 80zM490 431l53 53l80 -80l-27 -27l-53 -53l-80 80z" />
    <glyph glyph-name="uni062A.init" unicode="&#x62a;" horiz-adv-x="367" arabic-form="initial" 
d="M-5 129h45q102 0 144 18.5t42 57.5q-1 25 -21.5 86.5t-32.5 87.5l94 51q20 -45 40 -112t20 -118q-1 -98 -68 -149t-199 -51h-64v129zM62 607l27 27l80 -80l-80 -80l-27 27l-53 53zM239 607l27 27l80 -80l-80 -80l-27 27l-53 53z" />
    <glyph glyph-name="uni062A.medi" unicode="&#x62a;" horiz-adv-x="390" arabic-form="medial" 
d="M-5 129h8q78 0 121 7t61.5 21.5t24.5 39.5q3 14 3 30q0 25 -5 58.5t-6 41.5l93 18q8 -43 11 -89.5t3 -73.5q4 -23 24 -38t56 -15h6l7 -64l-7 -65h-6q-41 0 -75 19.5t-57 52.5q-27 -39 -85.5 -55.5t-168.5 -16.5h-8v129zM81 578l80 -80l-80 -80l-80 80zM258 578l80 -80
l-80 -80l-80 80z" />
    <glyph glyph-name="uni062B.fina" unicode="&#x62b;" horiz-adv-x="947" arabic-form="final" 
d="M148.5 42q-98.5 53 -107.5 149q-1 8 -1 24q0 42 11 89.5t28 87.5l87 -43q-30 -91 -26 -135q8 -43 81 -69t204 -27q126 0 199.5 18.5t113.5 57.5t65 109l94 -11q-18 -55 -18 -92q0 -71 73 -71l7 -64l-7 -65q-57 0 -99 33t-51 88q-60 -72 -152 -102t-230 -30
q-173 0 -271.5 53zM310 423l50 50q10 -9 57 -56l19 -19l-76 -76l-75 76zM431 558l22 22q34 -33 67 -67l-22 -22l-45 -45l-67 67zM547 473q38 -37 75 -75l-75 -76q-37 39 -76 76z" />
    <glyph glyph-name="uni062B.init" unicode="&#x62b;" horiz-adv-x="367" arabic-form="initial" 
d="M-5 129h45q102 0 144 18.5t42 57.5q-1 25 -21.5 86.5t-32.5 87.5l94 51q20 -45 40 -112t20 -118q-1 -98 -68 -149t-199 -51h-64v129zM88 632l76 -75l-76 -77l-75 77zM136 694l45 45l67 -67q-44 -46 -67 -68l-67 68zM275 632l25 -25l50 -50q-7 -8 -45 -46l-30 -31l-76 77z
" />
    <glyph glyph-name="uni062B.medi" unicode="&#x62b;" horiz-adv-x="390" arabic-form="medial" 
d="M-5 129h8q78 0 121 7t61.5 21.5t24.5 39.5q3 14 3 30q0 25 -5 58.5t-6 41.5l93 18q8 -43 11 -89.5t3 -73.5q4 -23 24 -38t56 -15h6l7 -64l-7 -65h-6q-41 0 -75 19.5t-57 52.5q-27 -39 -85.5 -55.5t-168.5 -16.5h-8v129zM69 579l76 -75l-76 -77q-7 8 -45 46l-30 31
q38 37 75 75zM163 685l66 -66l-66 -68l-45 45l-23 23zM226 549l31 30q37 -38 75 -75l-30 -31q-38 -38 -45 -46l-77 77q8 7 46 45z" />
    <glyph glyph-name="uni062C.fina" unicode="&#x62c;" horiz-adv-x="736" arabic-form="final" 
d="M210 -345q-78 34 -123.5 97t-45.5 148q0 100 54.5 178.5t157 129.5t245.5 71l-10 7q-69 49 -114.5 70.5t-88.5 22.5q-40 -1 -70.5 -23t-48.5 -51l-73 53q35 70 84 107t110 37q57 0 111.5 -26.5t142.5 -89.5q50 -37 77 -54t58 -28l-14 -124q-32 0 -48 -1q26 -50 111 -50
h16l7 -64l-7 -65h-16q-85 0 -138.5 46.5t-65.5 125.5q-113 -15 -197.5 -52.5t-131 -90.5t-53.5 -112q-3 -47 30.5 -85t94 -59.5t137.5 -21.5q73 0 136 15t100 30l46 -100q-2 -1 -37.5 -20.5t-110 -37t-152.5 -17.5q-95 0 -173 34zM389 32l57 -57l28 -28l-85 -86l-85 86z" />
    <glyph glyph-name="uni062C.init" unicode="&#x62c;" horiz-adv-x="692" arabic-form="initial" 
d="M-6 129h80q120 0 224.5 27.5t218.5 86.5q-33 12 -89 39q-91 47 -157 47q-39 0 -70 -22t-47 -51l-73 53q35 71 84 107.5t110 36.5q43 0 82.5 -14.5t110.5 -51.5q62 -31 102 -47t88 -26l4 -115q-28 -8 -92 -44q-9 -4 -27 -14q-95 -50 -167.5 -80t-150 -45.5t-171.5 -15.5
h-60v129zM332 -77l57 -57l28 -28l-85 -86l-85 86z" />
    <glyph glyph-name="uni062C.medi" unicode="&#x62c;" horiz-adv-x="757" arabic-form="medial" 
d="M508 123q-125 -65 -225.5 -94t-228.5 -29h-60v129h80q120 0 224.5 27.5t218.5 86.5q-33 12 -89 39q-91 47 -157 47q-39 0 -70 -22t-47 -51l-73 53q35 71 84 107.5t110 36.5q43 0 82.5 -14.5t110.5 -51.5q62 -31 102 -47t88 -26l4 -115q-25 -7 -65 -29q50 -40 128 -41h36
l7 -64l-7 -65h-10q-182 1 -243 123zM332 -77l57 -57l28 -28l-85 -86l-85 86z" />
    <glyph glyph-name="uni062D.fina" unicode="&#x62d;" horiz-adv-x="736" arabic-form="final" 
d="M210 -345q-78 34 -123.5 97t-45.5 148q0 100 54.5 178.5t157 129.5t245.5 71l-10 7q-69 49 -114.5 70.5t-88.5 22.5q-40 -1 -70.5 -23t-48.5 -51l-73 53q35 70 84 107t110 37q57 0 111.5 -26.5t142.5 -89.5q50 -37 77 -54t58 -28l-14 -124q-32 0 -48 -1q26 -50 111 -50
h16l7 -64l-7 -65h-16q-85 0 -138.5 46.5t-65.5 125.5q-113 -15 -197.5 -52.5t-131 -90.5t-53.5 -112q-3 -47 30.5 -85t94 -59.5t137.5 -21.5q73 0 136 15t100 30l46 -100q-2 -1 -37.5 -20.5t-110 -37t-152.5 -17.5q-95 0 -173 34z" />
    <glyph glyph-name="uni062D.init" unicode="&#x62d;" horiz-adv-x="692" arabic-form="initial" 
d="M-6 129h80q120 0 224.5 27.5t218.5 86.5q-33 12 -89 39q-91 47 -157 47q-39 0 -70 -22t-47 -51l-73 53q35 71 84 107.5t110 36.5q43 0 82.5 -14.5t110.5 -51.5q62 -31 102 -47t88 -26l4 -115q-28 -8 -92 -44q-9 -4 -27 -14q-95 -50 -167.5 -80t-150 -45.5t-171.5 -15.5
h-60v129z" />
    <glyph glyph-name="uni062D.medi" unicode="&#x62d;" horiz-adv-x="757" arabic-form="medial" 
d="M508 123q-125 -65 -225.5 -94t-228.5 -29h-60v129h80q120 0 224.5 27.5t218.5 86.5q-33 12 -89 39q-91 47 -157 47q-39 0 -70 -22t-47 -51l-73 53q35 71 84 107.5t110 36.5q43 0 82.5 -14.5t110.5 -51.5q62 -31 102 -47t88 -26l4 -115q-25 -7 -65 -29q50 -40 128 -41h36
l7 -64l-7 -65h-10q-182 1 -243 123z" />
    <glyph glyph-name="uni062E.fina" unicode="&#x62e;" horiz-adv-x="736" arabic-form="final" 
d="M210 -345q-78 34 -123.5 97t-45.5 148q0 100 54.5 178.5t157 129.5t245.5 71l-10 7q-69 49 -114.5 70.5t-88.5 22.5q-40 -1 -70.5 -23t-48.5 -51l-73 53q35 70 84 107t110 37q57 0 111.5 -26.5t142.5 -89.5q50 -37 77 -54t58 -28l-14 -124q-32 0 -48 -1q26 -50 111 -50
h16l7 -64l-7 -65h-16q-85 0 -138.5 46.5t-65.5 125.5q-113 -15 -197.5 -52.5t-131 -90.5t-53.5 -112q-3 -47 30.5 -85t94 -59.5t137.5 -21.5q73 0 136 15t100 30l46 -100q-2 -1 -37.5 -20.5t-110 -37t-152.5 -17.5q-95 0 -173 34zM265 746l57 -57l28 -28l-85 -86l-85 86z
" />
    <glyph glyph-name="uni062E.init" unicode="&#x62e;" horiz-adv-x="692" arabic-form="initial" 
d="M-6 129h80q120 0 224.5 27.5t218.5 86.5q-33 12 -89 39q-91 47 -157 47q-39 0 -70 -22t-47 -51l-73 53q35 71 84 107.5t110 36.5q43 0 82.5 -14.5t110.5 -51.5q62 -31 102 -47t88 -26l4 -115q-28 -8 -92 -44q-9 -4 -27 -14q-95 -50 -167.5 -80t-150 -45.5t-171.5 -15.5
h-60v129zM282 697l85 -85q-43 -42 -85 -85l-86 85z" />
    <glyph glyph-name="uni062E.medi" unicode="&#x62e;" horiz-adv-x="757" arabic-form="medial" 
d="M508 123q-125 -65 -225.5 -94t-228.5 -29h-60v129h80q120 0 224.5 27.5t218.5 86.5q-33 12 -89 39q-91 47 -157 47q-39 0 -70 -22t-47 -51l-73 53q35 71 84 107.5t110 36.5q43 0 82.5 -14.5t110.5 -51.5q62 -31 102 -47t88 -26l4 -115q-25 -7 -65 -29q50 -40 128 -41h36
l7 -64l-7 -65h-10q-182 1 -243 123zM282 697l85 -85q-43 -42 -85 -85l-86 85z" />
    <glyph glyph-name="uni062F.fina" unicode="&#x62f;" horiz-adv-x="580" arabic-form="final" 
d="M494 16.5q-35 16.5 -63 50.5q-76 -72 -184 -72q-74 0 -126.5 23.5t-94.5 53.5l49 92q35 -19 72.5 -32.5t88.5 -13.5q80 0 143 40l-139 321l93 49l137 -324q18 -43 40.5 -59t63.5 -16h11l7 -64l-7 -65h-11q-45 0 -80 16.5z" />
    <glyph glyph-name="uni0630.fina" unicode="&#x630;" horiz-adv-x="580" arabic-form="final" 
d="M494 16.5q-35 16.5 -63 50.5q-76 -72 -184 -72q-74 0 -126.5 23.5t-94.5 53.5l49 92q35 -19 72.5 -32.5t88.5 -13.5q80 0 143 40l-139 321l93 49l137 -324q18 -43 40.5 -59t63.5 -16h11l7 -64l-7 -65h-11q-45 0 -80 16.5zM295 766q42 -43 85 -85l-85 -86l-86 86z" />
    <glyph glyph-name="uni0631.fina" unicode="&#x631;" horiz-adv-x="396" arabic-form="final" 
d="M332 13q-2 -93 -79 -173.5t-201 -129.5l-52 109q65 25 119 61t85 73t31 66q0 22 -12 73.5t-32 129.5q-8 28 -11 42l100 39q13 -43 26 -92q13 -45 33 -63.5t54 -18.5h8l7 -64l-7 -65h-8q-32 0 -61 13z" />
    <glyph glyph-name="uni0632.fina" unicode="&#x632;" horiz-adv-x="396" arabic-form="final" 
d="M332 13q-2 -93 -79 -173.5t-201 -129.5l-52 109q65 25 119 61t85 73t31 66q0 22 -12 73.5t-32 129.5q-8 28 -11 42l100 39q13 -43 26 -92q13 -45 33 -63.5t54 -18.5h8l7 -64l-7 -65h-8q-32 0 -61 13zM156 510l57 57l85 -85l-57 -57l-28 -28q-43 42 -85 85z" />
    <glyph glyph-name="uni0633.fina" unicode="&#x633;" horiz-adv-x="1266" arabic-form="final" 
d="M1136 64q-24 -29 -56.5 -46t-68.5 -18h-2h-1v0h-2q-47 1 -80.5 25t-49.5 67q-56 -92 -135 -92h-1v0h-3q-31 2 -57 15q-1 -81 -42 -151t-116 -112.5t-173 -42.5q-93 0 -163 37t-107.5 102.5t-37.5 149.5q0 61 21 129.5t48 124.5l87 -40q-26 -57 -40 -104.5t-14 -95.5
q0 -86 53 -129.5t153 -43.5q74 0 127.5 25.5t80.5 67t27 87.5q0 61 -61 244l95 49q13 -36 28 -86q11 -36 21.5 -56t28.5 -30.5t48 -10.5q49 1 82 60q18 35 26 75.5t9 45.5l93 -4q-1 -7 -6.5 -39.5t-5.5 -57.5q0 -80 67 -80q24 0 46.5 10t35.5 25q-8 28 -29 143l93 25
q12 -65 19 -99.5t13 -52.5q17 -51 79 -51h5l7 -64l-7 -65h-5q-81 0 -130 64z" />
    <glyph glyph-name="uni0633.init" unicode="&#x633;" horiz-adv-x="756" arabic-form="initial" 
d="M471.5 24.5q-33.5 23.5 -49.5 67.5q-56 -92 -135 -92h-4q-44 0 -75.5 24.5t-41.5 65.5q-32 -44 -74 -67t-91 -23h-3l-7 65l7 64h4q33 0 64 15t47 37q21 26 32.5 57t19.5 65l94 -10q0 -1 -5 -23q-15 -58 -15 -86t11 -41.5t35 -13.5h3q52 0 84 60q18 35 26 75.5t9 45.5
l93 -4q-1 -7 -6.5 -39.5t-5.5 -57.5q0 -80 67 -80q32 0 49.5 18.5t17.5 49.5q0 30 -19 86.5t-35 94.5l91 51q20 -41 40.5 -111.5t20.5 -123.5t-21 -97.5t-58 -70.5t-84 -26h-2h-2q-48 1 -81.5 24.5z" />
    <glyph glyph-name="uni0633.medi" unicode="&#x633;" horiz-adv-x="811" arabic-form="medial" 
d="M682 64q-24 -29 -56.5 -46t-68.5 -18h-2h-1v0h-2q-47 1 -80.5 25t-49.5 67q-56 -92 -135 -92h-4q-44 0 -75.5 24.5t-41.5 65.5q-32 -44 -74 -67t-91 -23h-3l-7 65l7 64h4q33 0 64 15t47 37q21 26 32.5 57t19.5 65l94 -10q0 -1 -5 -23q-15 -58 -15 -86t11 -41.5t35 -13.5
h3q52 0 84 60q18 35 26 75.5t9 45.5l93 -4q-1 -7 -6.5 -39.5t-5.5 -57.5q0 -80 67 -80q24 0 46.5 10t35.5 25q-8 28 -29 143l93 25q12 -65 19 -99.5t13 -52.5q17 -51 79 -51h5l7 -64l-7 -65h-5q-81 0 -130 64z" />
    <glyph glyph-name="uni0634.fina" unicode="&#x634;" horiz-adv-x="1266" arabic-form="final" 
d="M1136 64q-24 -29 -56.5 -46t-68.5 -18h-2h-1v0h-2q-47 1 -80.5 25t-49.5 67q-56 -92 -135 -92h-1v0h-3q-31 2 -57 15q-1 -81 -42 -151t-116 -112.5t-173 -42.5q-93 0 -163 37t-107.5 102.5t-37.5 149.5q0 61 21 129.5t48 124.5l87 -40q-26 -57 -40 -104.5t-14 -95.5
q0 -86 53 -129.5t153 -43.5q74 0 127.5 25.5t80.5 67t27 87.5q0 61 -61 244l95 49q13 -36 28 -86q11 -36 21.5 -56t28.5 -30.5t48 -10.5q49 1 82 60q18 35 26 75.5t9 45.5l93 -4q-1 -7 -6.5 -39.5t-5.5 -57.5q0 -80 67 -80q24 0 46.5 10t35.5 25q-8 28 -29 143l93 25
q12 -65 19 -99.5t13 -52.5q17 -51 79 -51h5l7 -64l-7 -65h-5q-81 0 -130 64zM812 570l76 -75l-26 -26l-50 -50q-18 20 -38 38l-38 38zM883 655l22 22l67 -67q-23 -22 -67 -68l-67 68zM999 570l75 -75l-75 -76l-26 26l-50 50z" />
    <glyph glyph-name="uni0634.init" unicode="&#x634;" horiz-adv-x="756" arabic-form="initial" 
d="M471.5 24.5q-33.5 23.5 -49.5 67.5q-56 -92 -135 -92h-4q-44 0 -75.5 24.5t-41.5 65.5q-32 -44 -74 -67t-91 -23h-3l-7 65l7 64h4q33 0 64 15t47 37q21 26 32.5 57t19.5 65l94 -10q0 -1 -5 -23q-15 -58 -15 -86t11 -41.5t35 -13.5h3q52 0 84 60q18 35 26 75.5t9 45.5
l93 -4q-1 -7 -6.5 -39.5t-5.5 -57.5q0 -80 67 -80q32 0 49.5 18.5t17.5 49.5q0 30 -19 86.5t-35 94.5l91 51q20 -41 40.5 -111.5t20.5 -123.5t-21 -97.5t-58 -70.5t-84 -26h-2h-2q-48 1 -81.5 24.5zM358 604l76 -75l-25 -25l-51 -51l-75 76q37 38 75 75zM429 689l22 22
q34 -33 67 -67l-22 -22l-45 -45l-67 67zM502 561q21 22 43 43l50 -50l25 -25l-75 -76l-26 26l-50 50z" />
    <glyph glyph-name="uni0634.medi" unicode="&#x634;" horiz-adv-x="811" arabic-form="medial" 
d="M682 64q-24 -29 -56.5 -46t-68.5 -18h-2h-1v0h-2q-47 1 -80.5 25t-49.5 67q-56 -92 -135 -92h-4q-44 0 -75.5 24.5t-41.5 65.5q-32 -44 -74 -67t-91 -23h-3l-7 65l7 64h4q33 0 64 15t47 37q21 26 32.5 57t19.5 65l94 -10q0 -1 -5 -23q-15 -58 -15 -86t11 -41.5t35 -13.5
h3q52 0 84 60q18 35 26 75.5t9 45.5l93 -4q-1 -7 -6.5 -39.5t-5.5 -57.5q0 -80 67 -80q24 0 46.5 10t35.5 25q-8 28 -29 143l93 25q12 -65 19 -99.5t13 -52.5q17 -51 79 -51h5l7 -64l-7 -65h-5q-81 0 -130 64zM372 564l76 -75l-76 -77l-76 77zM465 671q33 -34 67 -67
l-67 -68l-45 45l-23 23zM559 564l75 -75l-75 -77l-77 77z" />
    <glyph glyph-name="uni0635.fina" unicode="&#x635;" horiz-adv-x="1289" arabic-form="final" 
d="M186 -254q-70 37 -107.5 102.5t-37.5 149.5q0 61 21 129.5t48 124.5l87 -40q-26 -57 -40 -104.5t-14 -95.5q0 -86 53 -129.5t153 -43.5q74 0 127.5 25.5t80.5 67t27 87.5q0 40 -19.5 106.5t-39.5 116.5l95 49l14 -35q30 -75 64 -106q68 121 161 201.5t191 80.5
q56 0 100.5 -24t70 -66.5t25.5 -95.5q0 -64 -34 -120q41 3 82 3l7 -64l-7 -65q-80 0 -129 3t-85 14q-90 -39 -208 -39q-114 0 -192 53v-12q0 -82 -40.5 -153t-116 -114t-174.5 -43q-93 0 -163 37zM849 105q87 -4 156.5 16t107.5 54t38 69q0 26 -24.5 45t-66.5 19
q-74 0 -146 -55.5t-129 -141.5q29 -5 64 -6z" />
    <glyph glyph-name="uni0635.init" unicode="&#x635;" horiz-adv-x="872" arabic-form="initial" 
d="M-6 129h15q48 0 77.5 21t47.5 66t29 121l93 -19q-6 -39 -6 -69q0 -68 32 -101q76 135 169.5 210t185.5 75q59 0 105.5 -26.5t70.5 -73t19 -104.5q-7 -76 -58.5 -132.5t-138 -87t-195.5 -30.5q-197 0 -248 122q-29 -49 -72.5 -75t-111.5 -26h-14v129zM432 106
q89 0 159 20.5t108.5 53t38.5 65.5q0 28 -24 46.5t-66 18.5q-70 0 -143 -52t-136 -148q24 -4 63 -4z" />
    <glyph glyph-name="uni0635.medi" unicode="&#x635;" horiz-adv-x="872" arabic-form="medial" 
d="M727.5 2q-47.5 2 -80.5 12q-90 -35 -210 -35q-193 0 -245 122q-29 -49 -72.5 -75t-111.5 -26h-14v129h15q48 0 77.5 21t47.5 66t29 121l93 -19q-6 -39 -6 -69q0 -68 32 -101q76 135 169.5 210t185.5 75q56 0 101 -24t70 -66t25 -95q0 -65 -37 -123q33 4 76 4h5l7 -64
l-7 -65h-5q-97 0 -144.5 2zM432 106q89 0 159 20.5t108.5 53t38.5 65.5q0 28 -24 46.5t-66 18.5q-70 0 -143 -52t-136 -148q24 -4 63 -4z" />
    <glyph glyph-name="uni0636.fina" unicode="&#x636;" horiz-adv-x="1288" arabic-form="final" 
d="M186 -254q-70 37 -107.5 102.5t-37.5 149.5q0 61 21 129.5t48 124.5l87 -40q-26 -57 -40 -104.5t-14 -95.5q0 -86 53 -129.5t153 -43.5q74 0 127.5 25.5t80.5 67t27 87.5q0 40 -19.5 106.5t-39.5 116.5l95 49l14 -35q30 -75 64 -106q68 121 161 201.5t191 80.5
q56 0 100.5 -24t70 -66.5t25.5 -95.5q0 -64 -34 -120q41 3 82 3l7 -64l-7 -65q-80 0 -129 3t-85 14q-90 -39 -208 -39q-114 0 -192 53v-12q0 -82 -40.5 -153t-116 -114t-174.5 -43q-93 0 -163 37zM849 105q87 -4 156.5 16t107.5 54t38 69q0 26 -24.5 45t-66.5 19
q-74 0 -146 -55.5t-129 -141.5q29 -5 64 -6zM1014 681q42 -43 85 -85l-85 -86l-86 86z" />
    <glyph glyph-name="uni0636.init" unicode="&#x636;" horiz-adv-x="873" arabic-form="initial" 
d="M-6 129h15q48 0 77.5 21t47.5 66t29 121l93 -19q-6 -39 -6 -69q0 -68 32 -101q76 135 169.5 210t185.5 75q59 0 105.5 -26.5t70.5 -73t19 -104.5q-7 -76 -58.5 -132.5t-138 -87t-195.5 -30.5q-197 0 -248 122q-29 -49 -72.5 -75t-111.5 -26h-14v129zM432 106
q89 0 159 20.5t108.5 53t38.5 65.5q0 28 -24 46.5t-66 18.5q-70 0 -143 -52t-136 -148q24 -4 63 -4zM600 676l28 -28l57 -57l-85 -85l-86 85z" />
    <glyph glyph-name="uni0636.medi" unicode="&#x636;" horiz-adv-x="872" arabic-form="medial" 
d="M727.5 2q-47.5 2 -80.5 12q-90 -35 -210 -35q-193 0 -245 122q-29 -49 -72.5 -75t-111.5 -26h-14v129h15q48 0 77.5 21t47.5 66t29 121l93 -19q-6 -39 -6 -69q0 -68 32 -101q76 135 169.5 210t185.5 75q56 0 101 -24t70 -66t25 -95q0 -65 -37 -123q33 4 76 4h5l7 -64
l-7 -65h-5q-97 0 -144.5 2zM432 106q89 0 159 20.5t108.5 53t38.5 65.5q0 28 -24 46.5t-66 18.5q-70 0 -143 -52t-136 -148q24 -4 63 -4zM600 676l28 -28l57 -57l-85 -85l-86 85z" />
    <glyph glyph-name="uni0637.fina" unicode="&#x637;" horiz-adv-x="784" arabic-form="final" 
d="M181 132q24 45 51 84q2 22 2 76q0 101 -10 229t-20 180l110 25q9 -58 16.5 -168.5t6.5 -217.5q106 99 213 101q56 0 100.5 -24t69.5 -66t25 -95q0 -70 -42 -130q50 3 91 3l7 -64l-6 -65q-171 0 -244 19q-87 -33 -201 -33q-89 0 -172 17.5t-149 47.5l37 118
q52 -24 115 -37zM329 113q93 -2 166.5 18.5t114 54t40.5 68.5q0 27 -24.5 45.5t-66.5 18.5q-69 0 -140.5 -52.5t-137.5 -149.5z" />
    <glyph glyph-name="uni0637.init" unicode="&#x637;" horiz-adv-x="699" arabic-form="initial" 
d="M85 129q23 44 60 101q2 40 2 67q0 97 -10.5 222.5t-20.5 181.5l110 25q9 -58 16.5 -163.5t6.5 -209.5q52 49 106.5 74.5t107.5 26.5q56 0 100.5 -24t69.5 -66t25 -95q0 -82 -51 -143t-141 -93.5t-203 -32.5h-268v129h90zM243 128q93 -2 166 18t113.5 53.5t40.5 68.5
q0 26 -23.5 44.5t-65.5 18.5q-68 0 -141.5 -53t-139.5 -150h50z" />
    <glyph glyph-name="uni0637.medi" unicode="&#x637;" horiz-adv-x="697" arabic-form="medial" 
d="M85 129q23 44 60 101q2 40 2 67q0 97 -10.5 222.5t-20.5 181.5l110 25q9 -58 16.5 -163.5t6.5 -209.5q52 49 106.5 74.5t107.5 26.5q56 0 100.5 -24t69.5 -66t25 -95q0 -80 -52 -143q51 3 93 3l7 -64l-7 -65q-188 0 -261 24q-78 -24 -175 -24h-268v129h90zM243 128
q93 -2 166 18t113.5 53.5t40.5 68.5q0 26 -23.5 44.5t-65.5 18.5q-68 0 -141.5 -53t-139.5 -150h50z" />
    <glyph glyph-name="uni0638.fina" unicode="&#x638;" horiz-adv-x="784" arabic-form="final" 
d="M181 132q24 45 51 84q2 22 2 76q0 101 -10 229t-20 180l110 25q9 -58 16.5 -168.5t6.5 -217.5q106 99 213 101q56 0 100.5 -24t69.5 -66t25 -95q0 -70 -42 -130q50 3 91 3l7 -64l-6 -65q-171 0 -244 19q-87 -33 -201 -33q-89 0 -172 17.5t-149 47.5l37 118
q52 -24 115 -37zM329 113q93 -2 166.5 18.5t114 54t40.5 68.5q0 27 -24.5 45.5t-66.5 18.5q-69 0 -140.5 -52.5t-137.5 -149.5zM544 724l85 -85q-43 -42 -85 -85l-86 85z" />
    <glyph glyph-name="uni0638.init" unicode="&#x638;" horiz-adv-x="699" arabic-form="initial" 
d="M85 129q23 44 60 101q2 40 2 67q0 97 -10.5 222.5t-20.5 181.5l110 25q9 -58 16.5 -163.5t6.5 -209.5q52 49 106.5 74.5t107.5 26.5q56 0 100.5 -24t69.5 -66t25 -95q0 -82 -51 -143t-141 -93.5t-203 -32.5h-268v129h90zM243 128q93 -2 166 18t113.5 53.5t40.5 68.5
q0 26 -23.5 44.5t-65.5 18.5q-68 0 -141.5 -53t-139.5 -150h50zM397 668l56 56q43 -42 85 -85l-85 -85l-29 29l-56 56z" />
    <glyph glyph-name="uni0638.medi" unicode="&#x638;" horiz-adv-x="697" arabic-form="medial" 
d="M85 129q23 44 60 101q2 40 2 67q0 97 -10.5 222.5t-20.5 181.5l110 25q9 -58 16.5 -163.5t6.5 -209.5q52 49 106.5 74.5t107.5 26.5q56 0 100.5 -24t69.5 -66t25 -95q0 -80 -52 -143q51 3 93 3l7 -64l-7 -65q-188 0 -261 24q-78 -24 -175 -24h-268v129h90zM243 128
q93 -2 166 18t113.5 53.5t40.5 68.5q0 26 -23.5 44.5t-65.5 18.5q-68 0 -141.5 -53t-139.5 -150h50zM397 668l56 56q43 -42 85 -85l-85 -85l-29 29l-56 56z" />
    <glyph glyph-name="uni0639.fina" unicode="&#x639;" horiz-adv-x="587" arabic-form="final" 
d="M592 129l7 -64l-7 -65h-20q-83 0 -151.5 21.5t-128.5 64.5q-69 -34 -109.5 -68.5t-40.5 -75.5q-2 -7 -2 -21q0 -35 24 -64.5t68.5 -46.5t101.5 -17q64 0 115.5 14t80.5 29l46 -100q-42 -32 -108 -52t-134 -20q-81 0 -148 33t-106 90.5t-39 128.5q0 14 4 42
q12 72 53 121.5t102 84.5q-52 54 -121 144l3 85q43 43 109 65.5t136 22.5q82 0 144 -29.5t76 -81.5q5 -18 5 -34q0 -48 -35 -96t-95 -88q66 -23 150 -23h20zM308 216q142 63 142 114q-10 18 -42.5 29t-73.5 11q-38 0 -74.5 -9.5t-63.5 -28.5q60 -75 112 -116z" />
    <glyph glyph-name="uni0639.init" unicode="&#x639;" horiz-adv-x="530" arabic-form="initial" 
d="M-5 129h12q69 0 100 1q-36 52 -36 115q0 58 29.5 108.5t79.5 81t108 30.5q47 0 92 -20t84 -53l-43 -87q-69 32 -125 32q-37 0 -67 -13.5t-46.5 -35t-16.5 -44.5q0 -25 20 -48t54 -36.5t74 -13.5q85 11 160 37l26 -114q-82 -34 -199.5 -51.5t-293.5 -17.5h-12v129z" />
    <glyph glyph-name="uni0639.medi" unicode="&#x639;" horiz-adv-x="561" arabic-form="medial" 
d="M-5 129h25q88 0 152 15q-51 48 -123 140l4 85q43 43 108.5 65.5t135.5 22.5q82 0 144.5 -29.5t76.5 -81.5q3 -12 3 -24q0 -41 -29 -88t-81 -91q58 -14 126 -14h28l7 -64l-7 -65h-28q-79 0 -140.5 14.5t-116.5 45.5q-128 -60 -260 -60h-25v129zM301 190q50 27 79 59t40 58
q-10 18 -41.5 29t-72.5 11q-38 0 -74.5 -10t-63.5 -29q71 -80 133 -118z" />
    <glyph glyph-name="uni063A.fina" unicode="&#x63a;" horiz-adv-x="587" arabic-form="final" 
d="M592 129l7 -64l-7 -65h-20q-83 0 -151.5 21.5t-128.5 64.5q-69 -34 -109.5 -68.5t-40.5 -75.5q-2 -7 -2 -21q0 -35 24 -64.5t68.5 -46.5t101.5 -17q64 0 115.5 14t80.5 29l46 -100q-42 -32 -108 -52t-134 -20q-81 0 -148 33t-106 90.5t-39 128.5q0 14 4 42
q12 72 53 121.5t102 84.5q-52 54 -121 144l3 85q43 43 109 65.5t136 22.5q82 0 144 -29.5t76 -81.5q5 -18 5 -34q0 -48 -35 -96t-95 -88q66 -23 150 -23h20zM308 216q142 63 142 114q-10 18 -42.5 29t-73.5 11q-38 0 -74.5 -9.5t-63.5 -28.5q60 -75 112 -116zM315 697
l28 -28l57 -57l-85 -85l-86 85z" />
    <glyph glyph-name="uni063A.init" unicode="&#x63a;" horiz-adv-x="530" arabic-form="initial" 
d="M-5 129h12q69 0 100 1q-36 52 -36 115q0 58 29.5 108.5t79.5 81t108 30.5q47 0 92 -20t84 -53l-43 -87q-69 32 -125 32q-37 0 -67 -13.5t-46.5 -35t-16.5 -44.5q0 -25 20 -48t54 -36.5t74 -13.5q85 11 160 37l26 -114q-82 -34 -199.5 -51.5t-293.5 -17.5h-12v129z
M273 707q43 -42 85 -85l-56 -56l-29 -29l-56 56l-29 29z" />
    <glyph glyph-name="uni063A.medi" unicode="&#x63a;" horiz-adv-x="561" arabic-form="medial" 
d="M-5 129h25q88 0 152 15q-51 48 -123 140l4 85q43 43 108.5 65.5t135.5 22.5q82 0 144.5 -29.5t76.5 -81.5q3 -12 3 -24q0 -41 -29 -88t-81 -91q58 -14 126 -14h28l7 -64l-7 -65h-28q-79 0 -140.5 14.5t-116.5 45.5q-128 -60 -260 -60h-25v129zM301 190q50 27 79 59t40 58
q-10 18 -41.5 29t-72.5 11q-38 0 -74.5 -10t-63.5 -29q71 -80 133 -118zM290 686l85 -85l-29 -29l-56 -56l-86 85z" />
    <glyph glyph-name="uni0641.fina" unicode="&#x641;" horiz-adv-x="892" arabic-form="final" 
d="M429 -11q-177 -1 -278 52t-110 150q-1 8 -1 24q0 42 11 89.5t28 87.5l87 -43q-30 -91 -26 -135q8 -43 82 -69.5t207 -26.5h3q53 0 89 4q-42 51 -42 110q0 8 2 26q8 56 35.5 103t67 74t83.5 27q49 0 87.5 -31t59.5 -79t21 -99q0 -71 -36 -124h98l7 -64l-7 -65h-60
q-94 0 -169 26q-97 -37 -236 -37h-3zM596.5 195.5q21.5 -25.5 60.5 -42.5q61 28 82 82q3 23 -6 47.5t-28 40.5t-45 16q-32 0 -56 -27.5t-29 -63.5q0 -27 21.5 -52.5zM672 691l85 -85l-85 -86l-85 86q43 42 85 85z" />
    <glyph glyph-name="uni0641.init" unicode="&#x641;" horiz-adv-x="461" arabic-form="initial" 
d="M-6 129h14q121 0 194.5 14t106.5 47q-28 -2 -43 -2q-71 0 -126 23.5t-79 70.5q-18 35 -18 84q0 54 23.5 106t65 85t90.5 33q60 0 107 -49.5t71.5 -127.5t19.5 -160q-5 -121 -108 -187t-304 -66h-14v129zM207 828q42 -43 85 -85l-85 -86l-86 86zM197 320.5
q40 -12.5 90 -12.5q28 0 42 2q-12 69 -43 117.5t-73 48.5q-21 0 -39.5 -14.5t-29.5 -36t-11 -41.5q0 -18 9 -30q15 -21 55 -33.5z" />
    <glyph glyph-name="uni0641.medi" unicode="&#x641;" horiz-adv-x="472" arabic-form="medial" 
d="M-7 129h24q31 0 79 2q-35 47 -35 102q0 7 2 25q9 57 36.5 103.5t67 73.5t83.5 27q49 0 87 -30.5t59 -79t21 -99.5q0 -10 -2 -30q-7 -53 -33 -94h97l7 -64l-7 -65h-60q-95 0 -177 29q-87 -29 -225 -29h-24v129zM178.5 197q20.5 -25 57.5 -42q34 13 54 32.5t31 47.5
q3 23 -6 47.5t-27.5 40.5t-45.5 16q-32 0 -56 -27.5t-29 -63.5q1 -26 21.5 -51zM194 634l56 56q43 -42 85 -85l-56 -56l-29 -29l-85 85z" />
    <glyph glyph-name="uni0642.fina" unicode="&#x642;" horiz-adv-x="714" arabic-form="final" 
d="M186 -254q-70 37 -107.5 102.5t-37.5 149.5q0 61 21 129.5t48 124.5l87 -40q-26 -58 -40 -104.5t-14 -95.5q0 -84 53.5 -128.5t152.5 -44.5q96 0 160 43.5t77 117.5q-108 1 -177.5 20.5t-96.5 75.5q-17 35 -17 83q0 56 24 112t65.5 92t89.5 36q53 0 96.5 -41.5t71.5 -108
t37 -140.5h40l7 -64l-7 -65h-40q-11 -90 -56 -156t-115.5 -100.5t-158.5 -34.5q-93 0 -163 37zM356 621l27 27l80 -80l-27 -27l-53 -53q-41 39 -80 80zM457.5 138q48.5 -8 126.5 -9q-13 71 -44 121t-77 50q-21 0 -38.5 -16t-28 -40t-10.5 -46q0 -18 7 -29q16 -23 64.5 -31z
M533 621l27 27l80 -80l-27 -27l-53 -53q-41 39 -80 80z" />
    <glyph glyph-name="uni0642.init" unicode="&#x642;" horiz-adv-x="461" arabic-form="initial" 
d="M-6 129h14q121 0 194.5 14t106.5 47q-28 -2 -43 -2q-71 0 -126 23.5t-79 70.5q-18 35 -18 84q0 54 23.5 106t65 85t90.5 33q60 0 107 -49.5t71.5 -127.5t19.5 -160q-5 -121 -108 -187t-304 -66h-14v129zM136 807l79 -80l-79 -80l-81 80zM197 320.5q40 -12.5 90 -12.5
q28 0 42 2q-12 69 -43 117.5t-73 48.5q-21 0 -39.5 -14.5t-29.5 -36t-11 -41.5q0 -18 9 -30q15 -21 55 -33.5zM313 807l79 -80l-79 -80l-81 80z" />
    <glyph glyph-name="uni0642.medi" unicode="&#x642;" horiz-adv-x="472" arabic-form="medial" 
d="M-7 129h24q31 0 79 2q-35 47 -35 102q0 7 2 25q9 57 36.5 103.5t67 73.5t83.5 27q49 0 87 -30.5t59 -79t21 -99.5q0 -10 -2 -30q-7 -53 -33 -94h97l7 -64l-7 -65h-60q-95 0 -177 29q-87 -29 -225 -29h-24v129zM162 675l79 -79l-79 -81l-81 81zM178.5 197
q20.5 -25 57.5 -42q34 13 54 32.5t31 47.5q3 23 -6 47.5t-27.5 40.5t-45.5 16q-32 0 -56 -27.5t-29 -63.5q1 -26 21.5 -51zM339 675l79 -79l-79 -81l-81 81z" />
    <glyph glyph-name="uni0643.fina" unicode="&#x643;" horiz-adv-x="951" arabic-form="final" 
d="M846 30q-44 30 -93 93q-30 -64 -111.5 -99t-195.5 -35h-17q-177 -1 -278 52t-110 150q-1 8 -1 24q0 42 11 89.5t28 87.5l87 -43q-30 -91 -26 -135q8 -43 82 -69.5t207 -26.5h17q88 0 146 18.5t76 46.5q2 51 -50.5 122.5t-158.5 157.5l12 114l369 158l36 -104l-297 -128
q30 -25 67.5 -67t67.5 -88q54 -86 90.5 -132.5t68 -66.5t67.5 -20h16l7 -64l-7 -65h-16q-50 0 -94 30z" />
    <glyph glyph-name="uni0643.init" unicode="&#x643;" horiz-adv-x="456" arabic-form="initial" 
d="M-5 129h31q91 0 147.5 15t74.5 42q1 49 -52 120.5t-157 156.5l12 114l369 158l36 -104l-297 -128q66 -56 128 -143.5t62 -166.5q0 -22 -6 -43q-21 -75 -104.5 -112.5t-212.5 -37.5h-31v129z" />
    <glyph glyph-name="uni0643.medi" unicode="&#x643;" horiz-adv-x="529" arabic-form="medial" 
d="M424 29.5q-44 29.5 -92 92.5q-30 -61 -110 -91.5t-196 -30.5h-31v129h31q91 0 147.5 15t74.5 42q1 49 -52 120.5t-157 156.5l12 114l369 158l36 -104l-297 -128q39 -34 83 -84.5t72 -105.5q49 -74 81.5 -112.5t61 -55t62.5 -16.5h15l6 -64l-6 -65h-15q-51 0 -95 29.5z
" />
    <glyph glyph-name="uni0644.fina" unicode="&#x644;" horiz-adv-x="743" arabic-form="final" 
d="M633 37q-11 -140 -90.5 -217t-214.5 -77q-79 0 -144.5 32t-104 91t-38.5 138q0 57 20 126t48 126l87 -41q-26 -56 -40 -101t-14 -90q0 -68 51 -110t135 -42q214 0 207 221q-6 191 -17 357t-22 251l109 25q14 -120 26 -490q3 -45 12.5 -67t30.5 -31t62 -9h12l7 -64l-7 -65
h-12q-63 0 -103 37z" />
    <glyph glyph-name="uni0644.init" unicode="&#x644;" horiz-adv-x="275" arabic-form="initial" 
d="M-5 129h32q53 0 77 22.5t24 68.5q0 61 -10 242.5t-18 238.5l110 25q6 -55 15 -239.5t10 -255.5q0 -66 -25.5 -118.5t-72.5 -82.5t-108 -30h-34v129z" />
    <glyph glyph-name="uni0644.medi" unicode="&#x644;" horiz-adv-x="300" arabic-form="medial" 
d="M221.5 19.5q-34.5 19.5 -59.5 54.5q-23 -35 -59 -54.5t-83 -19.5h-25v129h24q51 0 74.5 20.5t23.5 66.5v5q1 25 -8.5 218.5t-16.5 261.5l110 24q7 -69 17 -395l4 -110q6 -91 71 -91h11l7 -64l-7 -65h-11q-38 0 -72.5 19.5z" />
    <glyph glyph-name="uni0645.fina" unicode="&#x645;" horiz-adv-x="617" arabic-form="final" 
d="M46 -158.5q-6 96.5 -6 199.5q0 46 1 67q2 53 32.5 86.5t76.5 33.5q13 0 28 -3q91 182 194 185q63 2 101.5 -39t62.5 -118q21 -68 38 -96t42 -28h6l7 -64l-7 -65h-6q-34 0 -59.5 18t-41.5 51q-5 -19 -19 -35.5t-31 -26.5q-21 -12 -49 -12q-38 0 -98 23.5t-156 76.5
q-3 3 -8 3q-10 0 -11 -13q-2 -112 23 -396l4 -46l-108 -24q-10 126 -16 222.5zM372 125q47 -17 72 -17q6 0 10 2q6 15 6 40q0 32 -10.5 65.5t-30 56t-45.5 22.5q-25 0 -51.5 -29t-56.5 -85q59 -38 106 -55z" />
    <glyph glyph-name="uni0645.init" unicode="&#x645;" horiz-adv-x="555" arabic-form="initial" 
d="M-3 129h19q79 0 130 94q46 90 93 138.5t104 48.5q52 0 91 -33t60 -85t21 -109t-21.5 -104t-62.5 -72q-22 -12 -50 -12q-76 0 -204 81q-30 -38 -72 -57t-92 -19h-18zM323 131.5q40 -17.5 61 -17.5q9 0 13 3q26 16 26 62q0 43 -23 79t-59 36q-49 0 -108 -114
q50 -31 90 -48.5z" />
    <glyph glyph-name="uni0645.medi" unicode="&#x645;" horiz-adv-x="588" arabic-form="medial" 
d="M-5 129h21q77 0 130 94q48 89 93.5 137.5t98.5 49.5q64 2 102.5 -39t62.5 -118q22 -70 38 -97t41 -27h11l7 -64l-7 -65h-11q-65 0 -100 69q-4 -18 -19 -35t-32 -27q-21 -12 -50 -12q-74 0 -204 82q-30 -38 -72 -57.5t-92 -19.5h-18v129zM331 124.5q47 -17.5 76 -17.5
q7 0 15 2q6 15 6 38q0 32 -10.5 66.5t-30.5 57.5t-46 23q-47 0 -109 -114q52 -38 99 -55.5z" />
    <glyph glyph-name="uni0646.fina" unicode="&#x646;" horiz-adv-x="739" arabic-form="final" 
d="M680 16q-1 -82 -42 -152t-115.5 -112.5t-173.5 -42.5q-93 0 -163 37t-107.5 102.5t-37.5 149.5q0 61 21 129.5t48 124.5l87 -40q-26 -57 -40 -104.5t-14 -95.5q0 -86 53 -129.5t153 -43.5q74 0 127.5 25.5t80.5 67t27 87.5q0 61 -61 244l95 49q19 -53 29 -90
q17 -52 36 -72.5t55 -20.5h7l7 -64l-7 -65h-7q-31 0 -58 16zM371 390l57 -57l28 -28l-85 -86l-85 86z" />
    <glyph glyph-name="uni0646.init" unicode="&#x646;" horiz-adv-x="329" arabic-form="initial" 
d="M-5 129h53q74 0 107 17.5t33 53.5q0 23 -21.5 89t-32.5 90l94 51q19 -40 39.5 -110t20.5 -122q0 -97 -62 -147.5t-178 -50.5h-53v129zM150 647l85 -85l-29 -29l-56 -56l-86 85z" />
    <glyph glyph-name="uni0646.medi" unicode="&#x646;" horiz-adv-x="336" arabic-form="medial" 
d="M-5 129h7q88 1 122.5 23t34.5 73q0 23 -8 75l-4 27l94 18q13 -67 13 -163q5 -23 25 -38t55 -15h7l7 -64l-7 -65h-7q-40 0 -74.5 20t-56.5 53q-26 -38 -76 -55.5t-125 -17.5h-7v129zM69 533l57 57l85 -85l-57 -57l-28 -28q-43 42 -85 85z" />
    <glyph glyph-name="uni0647.fina" unicode="&#x647;" horiz-adv-x="507" arabic-form="final" 
d="M412.5 16q-34.5 16 -58.5 51q-60 -18 -115 -18q-86 0 -142 41.5t-56 112.5q0 83 64.5 141.5t172.5 99.5l-8 60l105 21q3 -22 4.5 -42t3.5 -38l22 -197q6 -51 15 -75.5t26 -34t50 -9.5h17l7 -64l-7 -65h-17q-49 0 -83.5 16zM163.5 187q26.5 -16 70.5 -16q35 0 77 12
q-3 16 -7 48l-12 98q-62 -20 -106 -48t-46 -54q-3 -24 23.5 -40z" />
    <glyph glyph-name="uni0647.init" unicode="&#x647;" horiz-adv-x="662" arabic-form="initial" 
d="M-3 129h14q35 0 89 2q-39 47 -39 101q0 9 2 25q13 73 56 130l-29 8l46 120q191 -60 298.5 -114t150 -104.5t42.5 -108.5q0 -36 -15 -84q-16 -51 -68.5 -76.5t-125.5 -25.5q-80 0 -161 28q-89 -30 -246 -30h-14v129zM182.5 199.5q24.5 -24.5 66.5 -44.5q85 28 85 92
q0 27 -14 51.5t-37 36.5l-20 7l-5 1l-9 1q-21 0 -42.5 -13.5t-35 -35t-13.5 -45.5q0 -26 24.5 -50.5zM431 113q45 0 72 13.5t27 41.5q0 51 -111 109q1 -9 1 -25q0 -21 -2 -31q-9 -61 -38 -104q36 -4 51 -4z" />
    <glyph glyph-name="uni0647.medi" unicode="&#x647;" horiz-adv-x="499" arabic-form="medial" 
d="M-4 129h74q12 119 44.5 200.5t62.5 125.5l78 26q67 -38 108.5 -106t41.5 -139q0 -57 -25 -102q46 -5 125 -5l7 -64l-7 -65q-54 0 -91 4q31 -54 31 -107q0 -62 -44 -100q-42 -36 -103 -36q-50 0 -98.5 27t-84 81t-45.5 131h-29h-45v129zM277.5 173q39.5 28 39.5 66
q0 29 -23.5 63t-59.5 54q-22 -33 -42 -94t-28 -127q74 10 113.5 38zM222 -84.5q39 -35.5 81 -35.5q23 0 40 10q6 7 6 21q0 27 -24 62t-69 61q-41 -15 -88 -24q15 -59 54 -94.5z" />
    <glyph glyph-name="uni0648.fina" unicode="&#x648;" horiz-adv-x="473" arabic-form="final" 
d="M247 -105q76 42 98 104q-110 1 -178 20t-95 75q-17 35 -17 82q0 57 24 113.5t65.5 93t90.5 36.5q53 0 96.5 -40.5t71.5 -107t37 -142.5h40l7 -64l-7 -65h-42q-23 -110 -118.5 -185.5t-248.5 -104.5l-39 113q139 30 215 72zM218.5 138q49.5 -8 127.5 -9q-13 72 -45 122
t-75 50q-21 0 -39.5 -16.5t-29.5 -41.5t-11 -47q0 -16 8 -29q15 -21 64.5 -29z" />
    <glyph glyph-name="uni0649.fina" unicode="&#x649;" horiz-adv-x="749" arabic-form="final" 
d="M190 -251.5q-70 33.5 -110 98t-40 154.5q0 61 21 132t48 125l87 -41q-26 -56 -40.5 -104t-14.5 -95q0 -86 53.5 -130t153.5 -44q56 0 106.5 13t85.5 33t45 38q-15 17 -74 52t-123 60l28 122q165 -33 289 -33h49l7 -64l-7 -65h-49q-35 0 -73 3q49 -42 49 -81
q-1 -48 -46 -96.5t-121 -79.5t-166 -31q-88 0 -158 33.5z" />
    <glyph glyph-name="uni064A.fina" unicode="&#x64a;" horiz-adv-x="749" arabic-form="final" 
d="M190 -251.5q-70 33.5 -110 98t-40 154.5q0 61 21 132t48 125l87 -41q-26 -56 -40.5 -104t-14.5 -95q0 -86 53.5 -130t153.5 -44q56 0 106.5 13t85.5 33t45 38q-15 17 -74 52t-123 60l28 122q165 -33 289 -33h49l7 -64l-7 -65h-49q-35 0 -73 3q49 -42 49 -81
q-1 -48 -46 -96.5t-121 -79.5t-166 -31q-88 0 -158 33.5z" />
    <glyph glyph-name="uni064A.init" unicode="&#x64a;" horiz-adv-x="367" arabic-form="initial" 
d="M-5 129h45q102 0 144 18.5t42 57.5q-1 25 -21.5 86.5t-32.5 87.5l94 51q20 -45 40 -112t20 -118q-1 -98 -68 -149t-199 -51h-64v129zM-21 -114l27 27l27 -27l53 -53l-80 -80l-80 80zM156 -114l27 27l27 -27l53 -53l-80 -80l-80 80z" />
    <glyph glyph-name="uni064A.medi" unicode="&#x64a;" horiz-adv-x="390" arabic-form="medial" 
d="M-5 129h8q78 0 121 7t61.5 21.5t24.5 39.5q3 14 3 30q0 25 -5 58.5t-6 41.5l93 18q8 -43 11 -89.5t3 -73.5q4 -23 24 -38t56 -15h6l7 -64l-7 -65h-6q-41 0 -75 19.5t-57 52.5q-27 -39 -85.5 -55.5t-168.5 -16.5h-8v129zM-27 -113l27 27l27 -27l53 -53l-80 -80l-80 80z
M150 -113l27 27l27 -27l53 -53l-80 -80l-80 80z" />
    <glyph glyph-name=".notdef" horiz-adv-x="255" 
d="M38 429h179v-433h-179v433zM208 4v417h-161v-417h161z" />
    <glyph glyph-name=".null" 
 />
    <glyph glyph-name="nonmarkingreturn" unicode="&#xd;" horiz-adv-x="255" 
 />
    <glyph glyph-name="space" unicode=" " horiz-adv-x="236" 
 />
    <glyph glyph-name="exclam" unicode="!" horiz-adv-x="289" 
d="M195 223h-96l-13 500h122zM94 117.5q22 21.5 54 21.5t54 -21.5t22 -53.5t-22 -54.5t-54 -22.5t-54 22.5t-22 54.5t22 53.5z" />
    <glyph glyph-name="quotedbl" unicode="&#x22;" horiz-adv-x="315" 
d="M305 686l-13 -189h-79l1 194v59h91v-64zM54 750h91v-64l-13 -189h-78v253z" />
    <glyph glyph-name="numbersign" unicode="#" horiz-adv-x="602" 
d="M344 200h-109l-36 -200h-81l36 200h-113v76h127l28 155h-119v77h133l38 203h80l-37 -203h109l37 203h81l-37 -203h105v-77h-119l-28 -155h109v-76h-123l-37 -200h-81zM357 276l29 155h-109l-29 -155h109z" />
    <glyph glyph-name="dollar" unicode="$" horiz-adv-x="569" 
d="M361 265q-19 15 -40 24.5t-51 19.5q-4 2 -32.5 13t-58.5 28q-52 32 -78 74t-26 101q0 81 50.5 133t136.5 61v106h75v-106q85 -12 132.5 -71.5t47.5 -155.5h-120q0 62 -27.5 97t-75.5 35q-47 0 -73 -26t-26 -73q0 -48 33 -75q17 -14 40 -25t61 -26q7 -3 30.5 -12t41.5 -19
q60 -32 89 -75t29 -107q0 -83 -51 -134.5t-141 -59.5v-96h-74v96q-97 9 -150.5 68t-53.5 157h119q0 -63 31.5 -97t89.5 -34q51 0 80.5 26.5t29.5 72.5q0 50 -38 80z" />
    <glyph glyph-name="percent" unicode="%" horiz-adv-x="736" 
d="M90 680q42 41 109 41q68 0 109 -41t41 -109v-34q0 -65 -41 -105.5t-108 -40.5q-68 0 -110 40.5t-42 108.5v34q0 65 42 106zM150 482.5q19 -21.5 50 -21.5t49 21t18 59v33q0 34 -18.5 55t-49.5 21t-49.5 -21.5t-18.5 -56.5v-35q0 -33 19 -54.5zM510 644l62 -35l-348 -555
l-61 34zM391 174q0 65 42 106t109 41q68 0 109.5 -40.5t41.5 -109.5v-35q0 -65 -41.5 -105.5t-108.5 -40.5q-68 0 -110 40.5t-42 108.5v35zM493.5 82q19.5 -22 49.5 -22t47.5 19.5t18.5 52.5l1 42q0 34 -18.5 55t-49.5 21q-30 0 -49 -21t-19 -55v-38q0 -32 19.5 -54z" />
    <glyph glyph-name="ampersand" unicode="&#x26;" horiz-adv-x="643" 
d="M116.5 468q-16.5 36 -16.5 72q0 83 51 132t137 49q50 0 90 -20.5t63 -57t23 -81.5t-23.5 -82.5t-76.5 -74.5l-46 -34l139 -164q31 59 31 132h104q0 -132 -63 -216l105 -123h-139l-41 49q-77 -59 -183 -59q-69 0 -121 25t-81 71t-29 105q0 52 28.5 93.5t104.5 96.5
q-40 51 -56.5 87zM192.5 115.5q31.5 -30.5 83.5 -30.5q59 0 112 41l-156 182q-37 -30 -54 -57.5t-17 -55.5q0 -49 31.5 -79.5zM261 440l48 32q29 20 40.5 39t11.5 47q0 29 -21.5 48t-52.5 19q-34 0 -54.5 -23t-20.5 -59q0 -42 49 -103z" />
    <glyph glyph-name="quotesingle" unicode="'" horiz-adv-x="183" 
d="M137 686l-13 -189h-78v194l1 59h90v-64z" />
    <glyph glyph-name="parenleft" unicode="(" horiz-adv-x="410" 
d="M207 537.5q-66 -111.5 -66 -264.5q0 -264 220 -453l-65 -78q-113 87 -189 221.5t-76 309.5q0 177 75.5 310t189.5 221l65 -79q-88 -76 -154 -187.5z" />
    <glyph glyph-name="parenright" unicode=")" horiz-adv-x="410" 
d="M303 583q75 -133 75 -310q0 -175 -75.5 -309.5t-188.5 -221.5l-65 78q220 189 220 453q0 153 -66 264.5t-154 187.5l65 79q114 -88 189 -221z" />
    <glyph glyph-name="asterisk" unicode="*" horiz-adv-x="445" 
d="M165 475l-151 44l25 81l151 -59l-7 170h86l-8 -172l148 57l26 -82l-154 -44l100 -131l-70 -51l-90 142l-89 -138l-70 49z" />
    <glyph glyph-name="plus" unicode="+" horiz-adv-x="554" 
d="M333 390h186v-108h-186v-211h-116v211h-185v108h185v199h116v-199z" />
    <glyph glyph-name="comma" unicode="," horiz-adv-x="247" 
d="M58.5 -54.5q12.5 36.5 13.5 70.5v108h116v-94q0 -56 -28 -113.5t-71 -93.5l-71 40q28 46 40.5 82.5z" />
    <glyph glyph-name="hyphen" unicode="-" horiz-adv-x="346" 
d="M301 256h-261v95h261v-95z" />
    <glyph glyph-name="period" unicode="." horiz-adv-x="327" 
d="M107 26.5q-23 23.5 -23 57.5q0 33 23 55.5t57 22.5q33 0 56 -23t23 -55q0 -34 -23 -57.5t-56 -23.5q-34 0 -57 23.5z" />
    <glyph glyph-name="slash" unicode="/" horiz-adv-x="388" 
d="M96 -61h-99l276 772h98z" />
    <glyph glyph-name="zero" unicode="0" horiz-adv-x="469" 
d="M141 56.5q-39 23.5 -62.5 62.5t-23.5 84q0 46 23 85t62.5 62t84.5 23q47 0 86.5 -23t62.5 -62t23 -85q0 -45 -23 -84.5t-62.5 -62.5t-86.5 -23q-45 0 -84 23.5zM177 153q20 -20 48 -20q29 0 49 20t20 50q0 31 -20 51t-49 20q-28 0 -48 -20.5t-20 -50.5t20 -50z" />
    <glyph glyph-name="one" unicode="1" horiz-adv-x="353" 
d="M148 64q0 175 -18 305q-22 166 -75 284l103 61q58 -122 82 -329q13 -124 13 -292q0 -63 -1 -93h-105q1 21 1 64z" />
    <glyph glyph-name="two" unicode="2" horiz-adv-x="544" 
d="M215 568q14 -26 37 -41.5t61 -15.5q53 0 77 33t24 97q0 25 -3 53l95 20q8 -45 8 -84q0 -107 -51 -178.5t-146 -72.5q-45 0 -83 19q2 -8 2 -13q13 -117 13 -276q0 -39 -2 -109h-104q1 21 1 64q0 175 -18 305q-22 166 -75 284l103 61q11 -22 29 -72q18 -48 32 -74z" />
    <glyph glyph-name="three" unicode="3" horiz-adv-x="698" 
d="M483 553.5q16 -36.5 46 -36.5q20 0 31 21.5t11 60.5t-12 90l93 28q17 -66 17 -124q0 -90 -37 -146.5t-102 -56.5q-67 0 -109 73q-21 -40 -50.5 -62t-66.5 -22q-39 0 -69 15l1 -9q13 -124 13 -292q0 -63 -1 -93h-105q1 21 1 64q0 175 -18 305q-21 164 -74 284l102 61
q11 -22 29 -72q26 -71 49.5 -102t62.5 -31q37 0 58.5 36t16.5 104q-1 3 -1 9l90 15q8 -83 24 -119.5z" />
    <glyph glyph-name="four" unicode="4" horiz-adv-x="676" 
d="M148 64q0 175 -18 305q-22 166 -75 284l103 61q24 -51 46 -128q17 -50 40 -85q2 56 31.5 104.5t78 77.5t105.5 29q84 0 176 -74l-45 -91q-64 33 -127 33q-52 0 -86.5 -26.5t-34.5 -64.5q0 -36 32.5 -61t89.5 -25q72 0 159 40l28 -116q-42 -23 -95.5 -37t-108.5 -14
q-118 0 -203 67q9 -111 9 -244q0 -67 -1 -99h-105q1 21 1 64z" />
    <glyph glyph-name="five" unicode="5" horiz-adv-x="631" 
d="M94 414q45 91 110 174l-32 21l66 112q156 -115 255.5 -242t99.5 -278q0 -64 -20 -111.5t-55.5 -72.5t-80.5 -25q-32 0 -62 15t-52 48q-38 -63 -117 -63q-76 0 -121.5 58.5t-45.5 151.5q0 11 2 39q8 82 53 173zM139 219q0 -46 19.5 -71t52.5 -25q35 0 51 33.5t16 75.5
l85 14q3 -49 18 -86t48 -37q66 0 66 95q0 149 -207 309q-61 -70 -99 -140.5t-48 -136.5q-2 -22 -2 -31z" />
    <glyph glyph-name="six" unicode="6" horiz-adv-x="556" 
d="M208 302q-56 22 -88 73.5t-32 111.5q0 49 22.5 97.5t67.5 83.5t109 44q18 2 26 2q42 0 82.5 -16t64.5 -36l-43 -91q-42 20 -89 20q-9 0 -29 -2q-49 -6 -79.5 -36t-30.5 -64q0 -28 28 -48t73 -20q54 0 113 30q52 28 93 44l22 -129q-116 -44 -223.5 -145t-163.5 -243
l-93 45q53 157 170 279z" />
    <glyph glyph-name="seven" unicode="7" horiz-adv-x="634" 
d="M520 466.5q-51 -110.5 -94 -237t-59 -232.5h-100q-12 105 -54.5 231t-95 236.5t-93.5 173.5l96 71q47 -75 102 -207t96 -275q41 144 94.5 276t100.5 206l97 -71q-39 -61 -90 -171.5z" />
    <glyph glyph-name="eight" unicode="8" horiz-adv-x="634" 
d="M113 226.5q51 110.5 94.5 236.5t59.5 232h100q12 -105 54.5 -231t95 -236t93.5 -174l-97 -71q-47 76 -102 207.5t-95 274.5q-41 -144 -95 -276t-101 -206l-96 71q38 62 89 172.5z" />
    <glyph glyph-name="nine" unicode="9" horiz-adv-x="525" 
d="M337.5 110.5q-15.5 91.5 -23.5 194.5q-44 -13 -96 -13q-83 0 -131.5 48.5t-48.5 136.5q0 54 23.5 109.5t64.5 91.5t91 36q72 0 111.5 -52.5t52.5 -110t25 -144.5q15 -128 31.5 -224.5t37.5 -147.5l-102 -62q-20 46 -35.5 137.5zM156.5 439.5q21.5 -17.5 65.5 -17.5
q47 0 83 15q-7 64 -29.5 110t-62.5 46q-32 0 -55 -32.5t-23 -74.5q0 -29 21.5 -46.5z" />
    <glyph glyph-name="colon" unicode=":" horiz-adv-x="287" 
d="M86.5 323q-22.5 23 -22.5 57q0 33 22.5 55.5t56.5 22.5t57 -22.5t23 -55.5q0 -34 -23 -57t-57 -23t-56.5 23zM86.5 134.5q22.5 22.5 56.5 22.5t57 -22.5t23 -55.5q0 -34 -23 -57t-57 -23t-56.5 23t-22.5 57q0 33 22.5 55.5z" />
    <glyph glyph-name="semicolon" unicode=";" horiz-adv-x="324" 
d="M99.5 -54.5q12.5 36.5 13.5 70.5v108h116v-94q-1 -56 -28.5 -113.5t-71.5 -93.5l-70 40q28 46 40.5 82.5zM113.5 433.5q22.5 22.5 56.5 22.5t57 -22.5t23 -55.5q0 -34 -23 -57t-57 -23t-56.5 23t-22.5 57q0 33 22.5 55.5z" />
    <glyph glyph-name="less" unicode="&#x3c;" horiz-adv-x="509" 
d="M152 307l291 -109v-118l-413 181v95l413 181v-117z" />
    <glyph glyph-name="equal" unicode="=" horiz-adv-x="563" 
d="M495 379h-425v98h425v-98zM70 270h425v-98h-425v98z" />
    <glyph glyph-name="greater" unicode="&#x3e;" horiz-adv-x="518" 
d="M361 310l-300 112v116l421 -182v-94l-421 -182v116z" />
    <glyph glyph-name="question" unicode="?" horiz-adv-x="487" 
d="M186 304q14 37 51 74q34 32 57 58q35 41 35 85q0 46 -22.5 71t-65.5 25q-41 0 -66.5 -24.5t-26.5 -66.5h-120q1 87 58.5 138t154.5 51q99 0 154 -50t55 -139q0 -82 -75 -157q-36 -36 -55 -53q-19 -21 -28 -47.5t-10 -64.5h-110q0 63 14 100zM175.5 110.5
q21.5 21.5 53.5 21.5q31 0 53 -21.5t22 -52.5q0 -32 -22 -54t-53 -22q-32 0 -53.5 22t-21.5 54q0 31 21.5 52.5z" />
    <glyph glyph-name="at" unicode="@" horiz-adv-x="908" 
d="M101 448.5q52 109.5 148.5 178.5t223.5 69q122 0 209.5 -53.5t131 -153t39.5 -235.5q-2 -79 -29.5 -139t-75 -92.5t-107.5 -32.5q-85 0 -113 66q-53 -65 -129 -65q-60 0 -99.5 41t-39.5 136q0 11 2 39q6 71 35.5 134t77.5 102t107 39q39 0 71 -10t51.5 -22.5t25.5 -20.5
l-23 -255q-2 -18 -2 -45q0 -44 12.5 -57.5t42.5 -13.5q54 0 85 57.5t31 158.5q0 168 -77 257.5t-227 89.5q-101 0 -176.5 -54t-117 -144t-44.5 -194q-5 -180 73 -278t232 -99q39 0 87 10t75 25l18 -66q-34 -19 -83.5 -30.5t-97.5 -11.5q-195 0 -292 119.5t-97 322.5
q0 118 52 227.5zM355 168q0 -53 18 -76t55 -23q27 0 48 20.5t41 66.5v6l21 235q-11 8 -22 10.5t-30 1.5q-53 -1 -87 -55t-42 -147q-2 -28 -2 -39z" />
    <glyph glyph-name="A" unicode="A" horiz-adv-x="664" 
d="M468 165h-273l-56 -165h-131l267 711h113l269 -711h-132zM435 264l-103 298l-103 -298h206z" />
    <glyph glyph-name="B" unicode="B" horiz-adv-x="632" 
d="M71 0v711h242q123 0 187 -49t64 -143q0 -52 -27 -91t-76 -58q57 -16 88.5 -59t31.5 -104q0 -99 -63.5 -152.5t-183.5 -54.5h-263zM333 99q58 0 91 29t33 80q0 113 -119 113h-142v-222h137zM316 411q60 0 91.5 26t31.5 74q0 53 -30 77t-96 24h-117v-201h120z" />
    <glyph glyph-name="C" unicode="C" horiz-adv-x="653" 
d="M578.5 114.5q-30.5 -54.5 -91 -89.5t-151.5 -35q-87 0 -152.5 41t-100.5 117.5t-35 180.5v56q0 79 29.5 155.5t95.5 128.5t167 52q120 0 192 -65t83 -181h-125q-7 76 -43.5 111t-106.5 35q-81 0 -123.5 -59.5t-42.5 -174.5v-61q0 -115 41 -175.5t121 -60.5q71 0 108.5 33
t45.5 109h125q-6 -63 -36.5 -117.5z" />
    <glyph glyph-name="D" unicode="D" horiz-adv-x="652" 
d="M71 0v711h212q95 0 167.5 -42t112.5 -118t40 -174v-41q0 -99 -39.5 -175t-112.5 -118.5t-168 -42.5h-212zM279 99q95 0 147 62t52 177v37q0 114 -50 175t-143 62h-89v-513h83z" />
    <glyph glyph-name="E" unicode="E" horiz-adv-x="565" 
d="M488 318h-292v-219h342v-99h-467v711h464v-99h-339v-197h292v-97z" />
    <glyph glyph-name="F" unicode="F" horiz-adv-x="551" 
d="M485 302h-289v-302h-125v711h454v-99h-329v-211h289v-99z" />
    <glyph glyph-name="G" unicode="G" horiz-adv-x="681" 
d="M512 16.5q-69 -26.5 -157 -26.5q-90 0 -158 40t-106 114t-39 174v62q-1 101 32.5 178t99.5 120t160 43q121 0 190.5 -58.5t83.5 -169.5h-122q-11 66 -48 97.5t-101 31.5q-82 0 -125.5 -61.5t-43.5 -177.5v-52q0 -115 47.5 -178.5t134.5 -63.5q94 0 134 43v140h-146v92
h271v-273q-38 -48 -107 -74.5z" />
    <glyph glyph-name="H" unicode="H" horiz-adv-x="709" 
d="M637 0h-125v316h-316v-316h-125v711h125v-296h316v296h125v-711z" />
    <glyph glyph-name="I" unicode="I" horiz-adv-x="284" 
d="M204 0h-125v711h125v-711z" />
    <glyph glyph-name="J" unicode="J" horiz-adv-x="556" 
d="M363 711h125v-497q0 -67 -28.5 -117.5t-81.5 -78.5t-123 -28q-110 0 -171 56t-61 158h125q0 -115 107 -115q49 0 78.5 33t29.5 91v498z" />
    <glyph glyph-name="K" unicode="K" horiz-adv-x="632" 
d="M276 305l-80 -86v-219h-125v711h125v-337l66 84l208 253h153l-263 -314l276 -397h-148z" />
    <glyph glyph-name="L" unicode="L" horiz-adv-x="540" 
d="M196 99h322v-99h-447v711h125v-612z" />
    <glyph glyph-name="M" unicode="M" horiz-adv-x="874" 
d="M234 711l203 -546l202 546h163v-711h-125v233l12 315l-208 -548h-89l-209 547l13 -314v-233h-125v711h163z" />
    <glyph glyph-name="N" unicode="N" horiz-adv-x="709" 
d="M636 0h-124l-316 506v-506h-125v711h125l316 -507v507h124v-711z" />
    <glyph glyph-name="O" unicode="O" horiz-adv-x="689" 
d="M603.5 152.5q-36.5 -78.5 -103.5 -120.5t-155 -42q-86 0 -153.5 42t-105 118.5t-38.5 177.5v46q0 104 36.5 182.5t103.5 121.5t156 43q88 0 155 -42t104 -120t37 -183v-40q0 -105 -36.5 -183.5zM218.5 156q44.5 -64 126.5 -64q81 0 124.5 61.5t44.5 177.5v44
q0 118 -44 180.5t-126 62.5q-80 0 -124.5 -60t-45.5 -170v-52q0 -116 44.5 -180z" />
    <glyph glyph-name="P" unicode="P" horiz-adv-x="639" 
d="M196 263v-263h-125v711h271q79 0 138 -28.5t90.5 -80t31.5 -118.5q0 -104 -69.5 -162.5t-192.5 -58.5h-144zM342 363q65 0 99.5 31t34.5 89t-35 93t-95 36h-150v-249h146z" />
    <glyph glyph-name="Q" unicode="Q" horiz-adv-x="689" 
d="M606 162q-32 -74 -92 -118l122 -97l-81 -71l-151 121q-27 -7 -61 -7q-87 0 -154 41.5t-105 118.5t-38 178v46q0 105 37 183.5t104.5 121t154.5 42.5q88 0 155 -42.5t104 -120.5t37 -182v-40q0 -100 -32 -174zM216.5 156q44.5 -64 126.5 -64q80 0 124 61.5t45 177.5v44
q0 118 -44 180.5t-126 62.5q-81 0 -125 -62t-45 -175v-45q0 -116 44.5 -180z" />
    <glyph glyph-name="R" unicode="R" horiz-adv-x="630" 
d="M333 273h-137v-273h-125v711h252q124 0 191 -55t67 -159q0 -69 -33.5 -118.5t-97.5 -76.5l160 -296v-6h-134zM325 372q61 0 96.5 32t35.5 86q0 58 -34 89.5t-98 32.5h-129v-240h129z" />
    <glyph glyph-name="S" unicode="S" horiz-adv-x="613" 
d="M438.5 230.5q-10.5 19.5 -34.5 34.5q-21 14 -46 23.5t-62 20.5q-26 8 -54 18t-51 22q-66 33 -97.5 76.5t-31.5 100.5q0 59 33.5 103.5t91.5 68.5t129 24q72 0 130.5 -27t92.5 -76.5t34 -114.5h-125q0 56 -35 88t-98 32q-60 0 -94 -26.5t-34 -71.5q0 -43 46 -72
q22 -14 47 -23.5t60 -20.5q43 -14 68.5 -24t52.5 -25q58 -31 85.5 -74.5t27.5 -100.5q0 -59 -31 -103t-88.5 -68t-134.5 -24q-73 0 -137 26t-103.5 77t-39.5 123h125q0 -61 40.5 -94.5t114.5 -33.5q61 0 95 25t34 70q0 27 -10.5 46.5z" />
    <glyph glyph-name="T" unicode="T" horiz-adv-x="610" 
d="M589 612h-223v-612h-124v612h-220v99h567v-99z" />
    <glyph glyph-name="U" unicode="U" horiz-adv-x="655" 
d="M594 711v-479q0 -108 -69.5 -172.5t-196.5 -69.5q-123 0 -194.5 65t-72.5 177v479h125v-478q0 -70 37 -107t105 -37t104.5 37t36.5 107v478h125z" />
    <glyph glyph-name="V" unicode="V" horiz-adv-x="646" 
d="M323 152l14 47l164 512h139l-255 -711h-124l-253 711h137z" />
    <glyph glyph-name="W" unicode="W" horiz-adv-x="880" 
d="M612 258l17 -75l13 81l95 447h125l-164 -711h-122l-119 440l-14 65l-14 -65l-121 -440h-122l-164 711h125l95 -447l13 -80l17 74l118 453h105z" />
    <glyph glyph-name="X" unicode="X" horiz-adv-x="631" 
d="M316 453l149 258h144l-214 -353l220 -358h-146l-153 263l-153 -263h-145l219 358l-214 353h144z" />
    <glyph glyph-name="Y" unicode="Y" horiz-adv-x="612" 
d="M305 373l164 338h138l-239 -450v-261h-126v261l-238 450h138z" />
    <glyph glyph-name="Z" unicode="Z" horiz-adv-x="603" 
d="M190 99h380v-99h-532v78l370 534h-367v99h519v-77z" />
    <glyph glyph-name="bracketleft" unicode="[" horiz-adv-x="272" 
d="M263 728h-79v-795h79v-92h-199v980h199v-93z" />
    <glyph glyph-name="backslash" unicode="\" horiz-adv-x="388" 
d="M115 711l275 -772h-98l-275 772h98z" />
    <glyph glyph-name="bracketright" unicode="]" horiz-adv-x="272" 
d="M5 821h200v-980h-200v92h80v795h-80v93z" />
    <glyph glyph-name="asciicircum" unicode="^" horiz-adv-x="430" 
d="M264 461l-43 141l-96 -246h-99l146 355h85l147 -355h-100z" />
    <glyph glyph-name="underscore" unicode="_" horiz-adv-x="447" 
d="M446 -94h-445v94h445v-94z" />
    <glyph glyph-name="a" unicode="a" horiz-adv-x="539" 
d="M360 52q-56 -62 -141 -62q-50 0 -91 20.5t-64 56.5t-23 80q0 84 63 129t179 45h73v37q0 43 -23.5 66.5t-67.5 23.5q-41 0 -66.5 -20t-25.5 -52h-121q0 43 28 80.5t78.5 59.5t112.5 22q94 0 149 -47t57 -129v-240q0 -71 20 -114v-8h-122q-9 17 -15 52zM184 104.5
q23 -20.5 59 -20.5q37 0 68 18.5t45 46.5v99h-61q-134 0 -134 -89q0 -34 23 -54.5z" />
    <glyph glyph-name="b" unicode="b" horiz-adv-x="562" 
d="M469 62q-55 -72 -150 -72q-92 0 -145 68l-5 -58h-109v750h120v-274q51 62 138 62q97 0 151.5 -71.5t54.5 -199.5v-8q0 -125 -55 -197zM289 87q58 0 86.5 45t28.5 137q0 172 -116 172q-36 0 -64 -17t-44 -50v-220q33 -67 109 -67z" />
    <glyph glyph-name="c" unicode="c" horiz-adv-x="522" 
d="M348.5 110.5q29.5 25.5 31.5 64.5h112q-1 -49 -29 -91.5t-77 -68t-109 -25.5q-111 0 -175.5 72.5t-64.5 198.5v11q0 78 28 138t82.5 94t129.5 34q62 0 110.5 -24.5t76 -70t28.5 -104.5h-112q-2 46 -31.5 75t-73.5 29q-117 0 -118 -172v-15q-1 -85 29.5 -128t89.5 -43
q43 0 72.5 25.5z" />
    <glyph glyph-name="d" unicode="d" horiz-adv-x="564" 
d="M63.5 411q25.5 61 72.5 94t109 33q85 0 136 -60v272h120v-750h-109l-5 57q-54 -67 -143 -67q-61 0 -108 34t-72.5 97t-25.5 148q0 81 25.5 142zM188.5 131.5q30.5 -44.5 85.5 -44.5q74 0 107 65v226q-33 63 -106 63q-54 0 -85 -42t-32 -120v-21q0 -82 30.5 -126.5z" />
    <glyph glyph-name="e" unicode="e" horiz-adv-x="536" 
d="M161 22.5q-58 32.5 -90 91t-32 136.5v16q0 76 29 138t83.5 98t127.5 36q107 0 167 -68.5t60 -193.5v-48h-346l1 -3q5 -63 43 -101.5t96 -38.5q81 0 133 65l63 -62q-32 -47 -84.5 -72.5t-117.5 -25.5q-75 0 -133 32.5zM387 314v9q-2 57 -30.5 88.5t-77.5 31.5
q-48 0 -79 -34t-38 -95h225z" />
    <glyph glyph-name="f" unicode="f" horiz-adv-x="353" 
d="M101 0v440h-81v88h81v50q0 87 48.5 134.5t136.5 47.5q34 0 68 -9l-2 -92q-19 4 -46 4q-41 0 -63 -22t-22 -63v-50h109v-88h-109v-440h-120z" />
    <glyph glyph-name="g" unicode="g" horiz-adv-x="567" 
d="M66 413q27 60 74.5 92.5t110.5 32.5q91 0 142 -63l5 53h109v-512q0 -54 -24.5 -105t-79 -85t-138.5 -34q-58 0 -112.5 23.5t-82.5 62.5l55 71q55 -64 134 -64q62 0 94.5 33.5t32.5 96.5v34q-51 -59 -136 -59q-63 0 -110.5 34t-74 96.5t-26.5 145.5v6q0 81 27 141z
M191.5 132.5q31.5 -45.5 88.5 -45.5q73 0 106 61v234q-35 59 -105 59q-58 0 -89.5 -46.5t-31.5 -136.5q0 -80 31.5 -125.5z" />
    <glyph glyph-name="h" unicode="h" horiz-adv-x="556" 
d="M326 538q171 0 172 -195v-343h-120v342q-1 51 -23.5 75t-70.5 24q-36 0 -63.5 -17t-42.5 -47v-377h-120v750h120v-283q57 71 148 71z" />
    <glyph glyph-name="i" unicode="i" horiz-adv-x="256" 
d="M188 0h-120v528h120v-528zM77.5 713q18.5 18 50.5 18q31 0 50 -18t19 -46t-19 -45.5t-50 -17.5q-32 0 -50.5 17.5t-18.5 45.5t18.5 46z" />
    <glyph glyph-name="j" unicode="j" horiz-adv-x="251" 
d="M186 528v-572q0 -83 -42 -126t-122 -43q-32 0 -64 8v93q28 -4 43 -4q33 0 49 17t16 54v573h120zM74.5 713q18.5 18 49.5 18t49.5 -18t18.5 -46t-18.5 -45.5t-49.5 -17.5q-32 0 -50 17.5t-18 45.5t18.5 46z" />
    <glyph glyph-name="k" unicode="k" horiz-adv-x="523" 
d="M233 226l-53 -54v-172h-120v750h120v-432l36 44l148 166h145l-197 -219l216 -309h-138z" />
    <glyph glyph-name="l" unicode="l" horiz-adv-x="256" 
d="M188 0h-120v750h120v-750z" />
    <glyph glyph-name="m" unicode="m" horiz-adv-x="870" 
d="M173 528l3 -60q58 70 155 70q106 0 144 -83q57 83 163 83q85 0 128.5 -47t44.5 -141v-350h-121v343q0 51 -21 74.5t-72 23.5q-36 0 -63 -19q-30 -22 -39 -64v-358h-120v341q0 51 -22.5 75.5t-70.5 24.5q-36 0 -62 -15q-25 -16 -40 -47v-379h-120v528h113z" />
    <glyph glyph-name="n" unicode="n" horiz-adv-x="557" 
d="M171 528l4 -64q59 74 156 74q166 0 167 -193v-345h-120v343q-1 52 -22.5 75t-71.5 23q-35 0 -62.5 -17.5t-42.5 -48.5v-375h-121v528h113z" />
    <glyph glyph-name="o" unicode="o" horiz-adv-x="567" 
d="M64 405q29 61 85 97t133 36q74 0 130 -33.5t86.5 -95.5t30.5 -144v-7q0 -80 -31 -141t-86.5 -94t-128.5 -33q-72 0 -127.5 32.5t-86.5 92.5t-32 139l-1 15q-1 75 28 136zM190 131q34 -46 93 -46t92.5 45t33.5 127v12q1 80 -33 127t-94 47q-56 0 -89.5 -43.5t-35.5 -124.5
v-17q-1 -81 33 -127z" />
    <glyph glyph-name="p" unicode="p" horiz-adv-x="562" 
d="M499 118q-25 -61 -71.5 -94.5t-108.5 -33.5q-87 0 -139 58v-251h-120v731h111l4 -54q52 64 143 64q96 0 151 -72t55 -199v-8q0 -80 -25 -141zM286 85q55 0 85.5 44t31.5 129v12q1 81 -30.5 126t-87.5 45q-72 0 -105 -60v-235q33 -61 106 -61z" />
    <glyph glyph-name="q" unicode="q" horiz-adv-x="566" 
d="M94.5 466q56.5 72 152.5 72q89 0 140 -64l8 54h106v-731h-120v250q-52 -57 -135 -57q-63 0 -110 33t-72.5 94t-25.5 144v8q0 125 56.5 197zM189 130.5q31 -45.5 87 -45.5q71 0 105 60v239q-35 59 -104 59q-55 0 -86 -43t-33 -125v-17q0 -82 31 -127.5z" />
    <glyph glyph-name="r" unicode="r" horiz-adv-x="354" 
d="M292 424q-85 0 -112 -65v-359h-120v528h114l4 -64q42 74 122 74q27 0 42 -7l-1 -111q-17 4 -49 4z" />
    <glyph glyph-name="s" unicode="s" horiz-adv-x="514" 
d="M328.5 192q-26.5 17 -89.5 31q-95 20 -141 58t-46 97q0 45 26 81.5t72.5 57.5t105.5 21q63 0 111.5 -21.5t75 -59.5t26.5 -87h-120q0 35 -25.5 57.5t-67.5 22.5q-40 0 -63.5 -18.5t-23.5 -48.5t29.5 -45t82.5 -28q4 -1 29 -7q83 -21 122.5 -57.5t39.5 -96.5
q0 -47 -27 -83t-75.5 -56t-111.5 -20q-62 0 -113.5 23t-81 63.5t-29.5 88.5h117q1 -41 30.5 -64t78.5 -23q44 0 69.5 17.5t25.5 47.5q0 32 -26.5 49z" />
    <glyph glyph-name="t" unicode="t" horiz-adv-x="333" 
d="M210 658v-130h94v-88h-94v-293q0 -32 12.5 -45.5t43.5 -13.5q23 0 42 5v-91q-39 -12 -79 -12q-139 0 -139 149v301h-85v88h85v130h120z" />
    <glyph glyph-name="u" unicode="u" horiz-adv-x="556" 
d="M384 0l-3 54q-52 -64 -149 -64q-85 0 -129.5 49.5t-45.5 145.5v343h120v-342q0 -99 85 -99t115 63v378h120v-528h-113z" />
    <glyph glyph-name="v" unicode="v" horiz-adv-x="497" 
d="M249 152l111 376h125l-183 -528h-108l-184 528h125z" />
    <glyph glyph-name="w" unicode="w" horiz-adv-x="741" 
d="M204 222l13 -59l108 365h89l108 -366l13 60l70 306h117l-142 -528h-99l-98 319l-14 46l-111 -365h-100l-141 528h117z" />
    <glyph glyph-name="x" unicode="x" horiz-adv-x="504" 
d="M252 354l101 174h131l-159 -259l165 -269h-131l-107 181l-106 -181h-132l166 269l-160 259h132z" />
    <glyph glyph-name="y" unicode="y" horiz-adv-x="491" 
d="M247 171l7 23l102 334h129l-213 -612l-9 -23q-46 -106 -154 -106q-24 1 -58 8v91q16 0 23 -1q41 -2 63.5 14t37.5 56l17 47l-186 526h129z" />
    <glyph glyph-name="z" unicode="z" horiz-adv-x="504" 
d="M188 95h282v-95h-431v76l268 357h-262v95h414v-74z" />
    <glyph glyph-name="braceleft" unicode="{" horiz-adv-x="333" 
d="M164.5 -96q-43.5 56 -43.5 146v97q0 111 -94 111v86q94 0 94 111v102q1 88 44 143t130 80l23 -68q-86 -30 -87 -155v-101q0 -111 -84 -155q84 -45 84 -155v-103q3 -124 87 -152l-23 -69q-87 26 -130.5 82z" />
    <glyph glyph-name="bar" unicode="|" horiz-adv-x="248" 
d="M164 -132h-79v843h79v-843z" />
    <glyph glyph-name="braceright" unicode="}" horiz-adv-x="324" 
d="M100 43v103q0 109 85 155q-85 44 -85 155v101q0 125 -86 155l23 68q87 -25 130 -80t44 -143v-102q0 -111 94 -111v-86q-94 0 -94 -111v-97q0 -90 -43.5 -146t-130.5 -82l-23 69q84 29 86 152z" />
    <glyph glyph-name="asciitilde" unicode="~" horiz-adv-x="661" 
d="M583 283.5q-21 -44.5 -57.5 -69.5t-82.5 -25q-31 0 -60 12q-26 11 -67 46q-31 26 -52.5 39.5t-42.5 13.5q-32 0 -51 -25t-19 -67h-94q0 56 20 99t56 67t83 24q37 0 70 -15q28 -13 67 -47q28 -24 48 -36t38 -12q33 0 53 27t20 69l92 -1q0 -55 -21 -99.5z" />
    <glyph glyph-name="uni00A0" unicode="&#xa0;" horiz-adv-x="236" 
 />
    <glyph glyph-name="brokenbar" unicode="&#xa6;" horiz-adv-x="246" 
d="M66 -132v387h112v-387h-112zM66 711h112v-370h-112v370z" />
    <glyph glyph-name="copyright" unicode="&#xa9;" horiz-adv-x="786" 
d="M214.5 39.5q-79.5 49.5 -125.5 133.5t-46 183q0 109 47 192t126 128t174 45q96 0 175 -46.5t125 -130t46 -188.5q0 -100 -46 -184t-125.5 -133t-174.5 -49q-96 0 -175.5 49.5zM139 202.5q38 -70.5 104.5 -112t146.5 -41.5t146 41t104.5 111.5t38.5 154.5q0 86 -38 155.5
t-104 109.5t-147 40q-77 0 -143 -35.5t-106 -104.5t-40 -165q0 -83 38 -153.5zM214 384q0 86 46.5 137.5t122.5 51.5q78 0 120.5 -40t42.5 -113h-73q0 46 -22.5 67.5t-67.5 21.5t-71 -33.5t-26 -91.5v-57q0 -58 26 -91.5t71 -33.5q46 0 68 21t22 69h73q0 -75 -42.5 -114.5
t-120.5 -39.5q-77 0 -123 52t-46 140v54z" />
    <glyph glyph-name="guillemotleft" unicode="&#xab;" horiz-adv-x="412" 
d="M314 143.5q16 -36.5 48 -75.5l-51 -52q-41 41 -66.5 90.5t-25.5 112.5t25 112t67 92l51 -53q-33 -38 -48.5 -74.5t-15.5 -76.5q0 -39 16 -75.5zM138 473l56 -63q-38 -48 -56.5 -94t-18.5 -97t18.5 -97t56.5 -94l-56 -63q-106 114 -106 254t106 254z" />
    <glyph glyph-name="logicalnot" unicode="&#xac;" horiz-adv-x="552" 
d="M468 183h-93v128h-313v81h406v-209z" />
    <glyph glyph-name="registered" unicode="&#xae;" horiz-adv-x="786" 
d="M319 319v-165h-71v415h135q75 0 116.5 -33t41.5 -94q0 -57 -58 -88q29 -13 42.5 -38.5t14.5 -65.5q0 -41 1.5 -59.5t6.5 -28.5v-8h-73q-7 19 -7 73q0 24 -1 35q-2 29 -18 42.5t-48 14.5h-82zM89.5 548q46.5 83 126 128t174.5 45q96 0 175 -46.5t125 -130t46 -188.5
q0 -100 -46 -184t-125.5 -133t-174.5 -49q-97 0 -176.5 49.5t-125 133.5t-45.5 183q0 109 46.5 192zM138.5 201.5q38.5 -70.5 105 -111.5t146.5 -41q79 0 145.5 41t105 111.5t38.5 154.5q0 85 -38 155t-104 110t-147 40q-77 0 -143 -35.5t-106.5 -104.5t-40.5 -165
q0 -84 38.5 -154.5zM389 383q37 1 59.5 16.5t22.5 41.5q0 36 -18.5 50.5t-66.5 14.5h-67v-123h70z" />
    <glyph glyph-name="degree" unicode="&#xb0;" horiz-adv-x="391" 
d="M84.5 656q17.5 30 47 47.5t63.5 17.5t63.5 -17.5t47 -47.5t17.5 -65q0 -53 -37.5 -90.5t-90.5 -37.5q-34 0 -63.5 17t-47 46.5t-17.5 64.5t17.5 65zM145 593q0 -23 17 -40q14 -13 32 -13q23 0 38 18q13 14 13 33q0 22 -17 39q-14 13 -32 13q-22 0 -39 -18
q-12 -13 -12 -32z" />
    <glyph glyph-name="plusminus" unicode="&#xb1;" horiz-adv-x="536" 
d="M325 441h167v-98h-167v-189h-107v189h-173v98h173v183h107v-183zM59 96h417v-96h-417v96z" />
    <glyph glyph-name="uni00B2" unicode="&#xb2;" horiz-adv-x="370" 
d="M336 285h-298v61l144 131q25 23 38 44t13 36q0 22 -14 34.5t-39 12.5q-29 0 -45 -16.5t-16 -42.5l-88 2q0 57 40.5 93t105.5 36q69 0 107.5 -31.5t38.5 -87.5q0 -45 -39 -89q-19 -22 -61 -56l-68 -55h181v-72z" />
    <glyph glyph-name="uni00B3" unicode="&#xb3;" horiz-adv-x="370" 
d="M131 512h42q31 0 47 13t16 35q0 20 -14.5 32t-42.5 12q-24 0 -40.5 -10.5t-16.5 -26.5h-89q0 49 40 79t103 30q70 0 110 -29.5t40 -80.5q0 -28 -17 -50t-50 -34q74 -20 74 -90q0 -50 -43.5 -81t-113.5 -31q-67 0 -108.5 32t-41.5 85h91q0 -19 17.5 -32t46.5 -13
q30 0 46 13t16 35q0 50 -67 50h-45v62z" />
    <glyph glyph-name="uni00B5" unicode="&#xb5;" horiz-adv-x="596" 
d="M191 528v-309q1 -70 23 -102t73 -32q84 0 112 63v380h120v-528h-110l-4 44q-45 -54 -118 -54q-61 0 -96 28v-221h-120v731h120z" />
    <glyph glyph-name="uni00B9" unicode="&#xb9;" horiz-adv-x="370" 
d="M251 285h-90v280l-97 -23v69l178 59h9v-385z" />
    <glyph glyph-name="guillemotright" unicode="&#xbb;" horiz-adv-x="412" 
d="M98.5 295.5q-15.5 36.5 -48.5 74.5l51 53q42 -43 67 -92t25 -112t-25.5 -112.5t-66.5 -90.5l-51 52q32 38 48 74.5t16 76.5t-15.5 76.5zM274.5 122q18.5 46 18.5 97t-18.5 97t-56.5 94l56 63q106 -114 106 -254t-106 -254l-56 63q38 48 56.5 94z" />
    <glyph glyph-name="onequarter" unicode="&#xbc;" horiz-adv-x="784" 
d="M233 263h-89v280l-98 -23v69l178 59h9v-385zM538 644l62 -35l-347 -555l-62 34zM597 442h92v-232h46v-72h-46v-81h-91v81h-174l-5 57zM598 210v122l-8 -13l-83 -109h91z" />
    <glyph glyph-name="onehalf" unicode="&#xbd;" horiz-adv-x="837" 
d="M233 263h-89v280l-98 -23v69l178 59h9v-385zM538 644l62 -35l-347 -555l-62 34zM526.5 420q40.5 36 105.5 36q69 0 107.5 -31.5t38.5 -87.5q0 -45 -39 -89q-20 -23 -62 -56l-67 -55h181v-72h-298v60l144 132q51 48 51 79q0 22 -14 35t-39 13q-29 0 -45 -16.5t-16 -42.5
l-88 2q0 57 40.5 93z" />
    <glyph glyph-name="threequarters" unicode="&#xbe;" horiz-adv-x="826" 
d="M154 498h42q31 0 47 13t16 35q0 20 -15 32t-43 12q-24 0 -40 -10t-16 -27h-89q0 49 40 79t103 30q70 0 110 -29.5t40 -80.5q0 -28 -17 -49.5t-50 -33.5q74 -21 74 -90q0 -51 -43 -82t-114 -31q-68 0 -109 32t-41 85h90q0 -19 18 -32t47 -13q30 0 46 13t16 35q0 50 -68 50
h-44v62zM590 644l61 -35l-347 -555l-61 34zM638 450h92v-232h47v-72h-47v-81h-90v81h-175l-5 57zM640 218v122l-8 -13l-84 -109h92z" />
    <glyph glyph-name="multiply" unicode="&#xd7;" horiz-adv-x="531" 
d="M36 171l156 158l-155 157l73 72l153 -156l154 156l72 -72l-154 -157l155 -158l-73 -72l-154 157l-154 -157z" />
    <glyph glyph-name="divide" unicode="&#xf7;" horiz-adv-x="570" 
d="M529 286h-496v101h496v-101zM232 183.5q20 17.5 51 17.5q29 0 49 -18t20 -47t-20.5 -46.5t-49.5 -17.5q-30 0 -50 17.5t-20 46.5q0 30 20 47.5zM231.5 580.5q19.5 17.5 49.5 18.5q30 0 50.5 -17.5t20.5 -47.5q0 -29 -20.5 -47t-50.5 -18q-30 1 -49.5 18.5t-19.5 46.5
t19.5 46.5z" />
    <glyph glyph-name="uni060C" unicode="&#x60c;" horiz-adv-x="298" 
d="M83.5 30q-27.5 30 -27.5 77q0 57 36.5 119t94.5 98l47 -49q-46 -34 -69 -66.5t-29 -53.5q1 0 7 2t12 2q31 0 54 -22.5t23 -55.5t-23.5 -56t-54.5 -23q-43 -2 -70.5 28z" />
    <glyph glyph-name="uni0615" unicode="&#x615;" 
d="M38 537q2 3 20 29q0 26 -4.5 74t-10.5 84l49 10q10 -55 14 -115q39 32 76 32q38 0 59.5 -26t21.5 -59q0 -42 -38.5 -73t-116.5 -31q-52 0 -84.5 13.5t-34.5 14.5l18 56zM109 526q57 -2 82 9.5t26 27.5q2 11 -6 19.5t-25 8.5q-23 0 -48 -17.5t-46 -46.5z" />
    <glyph glyph-name="uni061B" unicode="&#x61b;" horiz-adv-x="299" 
d="M94.5 23q-22.5 23 -22.5 57q0 33 22.5 55.5t56.5 22.5q33 0 56 -22.5t23 -55.5q0 -34 -23 -57t-56 -23q-34 0 -56.5 23zM101.5 513.5q36.5 61.5 94.5 98.5l47 -49q-46 -34 -69 -66.5t-29 -53.5q1 0 7 2t12 2q31 0 54 -22.5t23 -55.5t-23.5 -56t-54.5 -23q-43 -2 -70.5 28
t-27.5 77q0 57 36.5 118.5z" />
    <glyph glyph-name="uni061F" unicode="&#x61f;" horiz-adv-x="509" 
d="M220.5 9q-21.5 22 -21.5 55q0 32 21.5 53.5t54.5 21.5q32 0 54 -22t22 -53q0 -32 -22 -54.5t-54 -22.5q-33 0 -54.5 22zM79.5 641q27.5 49 74.5 78t103 29q57 0 102.5 -30t72 -80t26.5 -107l-90 -10q-1 27 -13.5 54.5t-37 46t-60.5 18.5q-46 0 -77.5 -31t-31.5 -75
q0 -24 7.5 -39.5t26 -32t63.5 -50.5l24 -19q23 -17 33 -36t12.5 -44.5t2.5 -76.5v-31h-88v59q0 15 -11 32t-42 43q-51 44 -73 66t-36.5 54t-14.5 78q0 55 27.5 104z" />
    <glyph glyph-name="uni0640" unicode="&#x640;" horiz-adv-x="198" 
d="M-5 129h208l7 -64l-7 -65h-208v129z" />
    <glyph glyph-name="uni064B" unicode="&#x64b;" 
d="M-4 506l217 68v-61l-217 -68v61zM-4 615l217 69v-62l-217 -68v61z" />
    <glyph glyph-name="uni064C" unicode="&#x64c;" 
d="M98.5 510q32.5 7 56.5 24q-33 5 -54.5 23.5t-26.5 49.5q-1 4 -1 13q0 38 28 66.5t62 28.5q14 0 23 -4q27 -9 41 -35t14 -60q0 -47 -24 -85q-25 -41 -75 -62t-104 -22l-15 53q43 3 75.5 10zM-25 621q0 71 91 144l32 -31q-67 -64 -67 -107q0 -33 37 -62l-36 -45
q-57 46 -57 101zM139 594.5q19 -13.5 52 -13.5q4 12 4 26q0 23 -11 39.5t-29 16.5q-14 0 -24.5 -11t-10.5 -25q0 -19 19 -32.5z" />
    <glyph glyph-name="uni064D" unicode="&#x64d;" 
d="M-4 -229l217 68v-61l-217 -68v61zM-4 -119l217 68v-62l-217 -67v61z" />
    <glyph glyph-name="uni064E" unicode="&#x64e;" 
d="M-4 506l217 68v-61l-217 -68v61z" />
    <glyph glyph-name="uni064F" unicode="&#x64f;" 
d="M80.5 510q32.5 7 56.5 24q-33 5 -54.5 23.5t-26.5 49.5q-1 4 -1 13q0 38 28 66.5t62 28.5q14 0 23 -4q27 -9 41 -35t14 -60q0 -47 -24 -85q-25 -41 -75 -62t-104 -22l-15 53q43 3 75.5 10zM121 594.5q19 -13.5 52 -13.5q4 12 4 26q0 23 -11 39.5t-29 16.5
q-14 0 -24.5 -11t-10.5 -25q0 -19 19 -32.5z" />
    <glyph glyph-name="uni0650" unicode="&#x650;" 
d="M-4 -254l217 68v-61l-217 -68v61z" />
    <glyph glyph-name="uni0651" unicode="&#x651;" 
d="M12 528q0 -12 7.5 -19t20.5 -7q20 0 31 17t8 56l43 8q8 -73 45 -73q14 0 21.5 8t7.5 20q0 8 -10.5 31.5t-18.5 35.5l43 27q2 -4 12.5 -22.5t17 -37.5t6.5 -35q0 -38 -20.5 -62.5t-57.5 -24.5q-18 0 -35 8t-28 25q-11 -19 -28.5 -29.5t-36.5 -10.5q-36 0 -56 21.5
t-20 53.5q0 17 4.5 35t10.5 31l43 -16q-10 -23 -10 -40z" />
    <glyph glyph-name="uni0652" unicode="&#x652;" 
d="M130.5 618.5q27.5 -32.5 27.5 -75.5q0 -39 -27 -68t-65 -29t-64.5 30.5t-26.5 71.5q0 42 27 72.5t62 30.5q39 0 66.5 -32.5zM36 515q11 -12 28 -12q20 0 32 12t13 30q0 21 -12.5 34.5t-32.5 13.5q-17 0 -28.5 -13.5t-11.5 -33.5q1 -19 12 -31z" />
    <glyph glyph-name="uni0653" unicode="&#x653;" 
d="M19 524q23 25 58 25q20 0 36.5 -6t19.5 -7q12 -5 25.5 -8.5t25.5 -3.5q19 0 33 10t20 19l38 -36q-16 -23 -39 -40t-52 -17q-22 0 -52 13q-32 12 -51 12q-21 0 -33 -13t-16 -29l-46 21q10 35 33 60z" />
    <glyph glyph-name="uni0654" unicode="&#x654;" 
d="M19 522l58 18q-19 19 -25 45q-2 7 -2 20q0 33 21 62t52 36q14 3 26 3q26 0 69 -13l-15 -61q-31 11 -52 11q-25 0 -39.5 -14.5t-10.5 -31.5q3 -13 17 -23.5t37 -9.5l81 25v-62l-217 -67v62z" />
    <glyph glyph-name="uni0655" unicode="&#x655;" 
d="M17 -236l59 18q-20 20 -26 46q-2 12 -2 19q0 34 20.5 62.5t52.5 36.5q14 3 26 3q28 0 70 -14l-16 -61q-33 11 -54 11q-9 0 -13 -1q-17 -4 -26 -14.5t-9 -22.5q0 -14 14.5 -27.5t39.5 -12.5l81 25v-62l-217 -68v62z" />
    <glyph glyph-name="uni0656" unicode="&#x656;" 
d="M69 -195q0 -59 -1 -88l-51 2q2 56 2 86q0 62 -3 107l50 6q3 -48 3 -113z" />
    <glyph glyph-name="uni0658" unicode="&#x658;" 
d="M41.5 648.5q-8.5 -27.5 -8.5 -50.5q0 -81 97 -81q58 0 84 23.5t26 57.5q0 18 -8.5 60t-13.5 58l46 20q8 -22 16.5 -63.5t8.5 -74.5q0 -34 -17 -67.5t-52.5 -55.5t-89.5 -22q-66 0 -106 40.5t-40 104.5q0 30 10 65t19 51l46 -21q-9 -17 -17.5 -44.5z" />
    <glyph glyph-name="uni065A" unicode="&#x65a;" 
d="M148 556.5q-19 -38.5 -31 -71.5l-45 -16q-11 33 -32 74.5t-41 70.5l40 38q13 -17 28.5 -48.5t24.5 -57.5q9 28 24.5 62t28.5 53l41 -37q-19 -29 -38 -67.5z" />
    <glyph glyph-name="uni065B" unicode="&#x65b;" 
d="M116.5 524q-15.5 34 -24.5 62q-9 -26 -24.5 -57.5t-28.5 -48.5l-40 38q20 29 41 70.5t32 74.5l45 -16q12 -33 31 -71.5t38 -67.5l-41 -37q-13 19 -28.5 53z" />
    <glyph glyph-name="uni0660" unicode="&#x660;" horiz-adv-x="469" 
d="M141 56.5q-39 23.5 -62.5 62.5t-23.5 84q0 46 23 85t62.5 62t84.5 23q47 0 86.5 -23t62.5 -62t23 -85q0 -45 -23 -84.5t-62.5 -62.5t-86.5 -23q-45 0 -84 23.5zM177 153q20 -20 48 -20q29 0 49 20t20 50q0 31 -20 51t-49 20q-28 0 -48 -20.5t-20 -50.5t20 -50z" />
    <glyph glyph-name="uni0661" unicode="&#x661;" horiz-adv-x="353" 
d="M148 64q0 175 -18 305q-22 166 -75 284l103 61q58 -122 82 -329q13 -124 13 -292q0 -63 -1 -93h-105q1 21 1 64z" />
    <glyph glyph-name="uni0662" unicode="&#x662;" horiz-adv-x="544" 
d="M215 568q14 -26 37 -41.5t61 -15.5q53 0 77 33t24 97q0 25 -3 53l95 20q8 -45 8 -84q0 -107 -51 -178.5t-146 -72.5q-45 0 -83 19q2 -8 2 -13q13 -117 13 -276q0 -39 -2 -109h-104q1 21 1 64q0 175 -18 305q-22 166 -75 284l103 61q11 -22 29 -72q18 -48 32 -74z" />
    <glyph glyph-name="uni0663" unicode="&#x663;" horiz-adv-x="699" 
d="M483 553.5q16 -36.5 46 -36.5q20 0 31 21.5t11 60.5t-12 90l93 28q17 -66 17 -124q0 -90 -37 -146.5t-102 -56.5q-67 0 -109 73q-21 -40 -50.5 -62t-66.5 -22q-39 0 -69 15l1 -9q13 -124 13 -292q0 -63 -1 -93h-105q1 21 1 64q0 175 -18 305q-21 164 -74 284l102 61
q11 -22 29 -72q26 -71 49.5 -102t62.5 -31q37 0 58.5 36t16.5 104q-1 3 -1 9l90 15q8 -83 24 -119.5z" />
    <glyph glyph-name="uni0664" unicode="&#x664;" horiz-adv-x="676" 
d="M148 64q0 175 -18 305q-22 166 -75 284l103 61q24 -51 46 -128q17 -50 40 -85q2 56 31.5 104.5t78 77.5t105.5 29q84 0 176 -74l-45 -91q-64 33 -127 33q-52 0 -86.5 -26.5t-34.5 -64.5q0 -36 32.5 -61t89.5 -25q72 0 159 40l28 -116q-42 -23 -95.5 -37t-108.5 -14
q-118 0 -203 67q9 -111 9 -244q0 -67 -1 -99h-105q1 21 1 64z" />
    <glyph glyph-name="uni0665" unicode="&#x665;" horiz-adv-x="631" 
d="M94 414q45 91 110 174l-32 21l66 112q156 -115 255.5 -242t99.5 -278q0 -64 -20 -111.5t-55.5 -72.5t-80.5 -25q-32 0 -62 15t-52 48q-38 -63 -117 -63q-76 0 -121.5 58.5t-45.5 151.5q0 11 2 39q8 82 53 173zM139 219q0 -46 19.5 -71t52.5 -25q35 0 51 33.5t16 75.5
l85 14q3 -49 18 -86t48 -37q66 0 66 95q0 149 -207 309q-61 -70 -99 -140.5t-48 -136.5q-2 -22 -2 -31z" />
    <glyph glyph-name="uni0666" unicode="&#x666;" horiz-adv-x="556" 
d="M208 302q-56 22 -88 73.5t-32 111.5q0 49 22.5 97.5t67.5 83.5t109 44q18 2 26 2q42 0 82.5 -16t64.5 -36l-43 -91q-42 20 -89 20q-9 0 -29 -2q-49 -6 -79.5 -36t-30.5 -64q0 -28 28 -48t73 -20q54 0 113 30q52 28 93 44l22 -129q-116 -44 -223.5 -145t-163.5 -243
l-93 45q53 157 170 279z" />
    <glyph glyph-name="uni0667" unicode="&#x667;" horiz-adv-x="634" 
d="M520 469.5q-51 -110.5 -94 -237t-59 -232.5h-100q-12 105 -54.5 231t-95 236.5t-93.5 173.5l96 71q47 -75 102 -207t96 -275q41 145 95 277t100 205l97 -71q-39 -61 -90 -171.5z" />
    <glyph glyph-name="uni0668" unicode="&#x668;" horiz-adv-x="634" 
d="M113 226.5q51 110.5 94.5 236.5t59.5 232h100q12 -105 54.5 -231t95 -236t93.5 -174l-97 -71q-47 76 -102 207.5t-95 274.5q-41 -144 -95 -276t-101 -206l-96 71q38 62 89 172.5z" />
    <glyph glyph-name="uni0669" unicode="&#x669;" horiz-adv-x="525" 
d="M337.5 110.5q-15.5 91.5 -23.5 194.5q-44 -13 -96 -13q-83 0 -131.5 48.5t-48.5 136.5q0 54 23.5 109.5t64.5 91.5t91 36q72 0 111.5 -52.5t52.5 -110t25 -144.5q15 -128 31.5 -224.5t37.5 -147.5l-102 -62q-20 46 -35.5 137.5zM156.5 439.5q21.5 -17.5 65.5 -17.5
q47 0 83 15q-7 64 -29.5 110t-62.5 46q-32 0 -55 -32.5t-23 -74.5q0 -29 21.5 -46.5z" />
    <glyph glyph-name="uni066A" unicode="&#x66a;" horiz-adv-x="530" 
d="M89 642l45 45l92 -91l-92 -92l-91 92q24 22 46 46zM346 707h112l-279 -738h-110zM358 118l45 45l92 -91l-92 -92l-91 92q24 22 46 46z" />
    <glyph glyph-name="uni066B" unicode="&#x66b;" horiz-adv-x="375" 
d="M35 -38l216 493h96l-216 -493h-96z" />
    <glyph glyph-name="uni066C" unicode="&#x66c;" horiz-adv-x="229" 
d="M96 107h107l-102 -237h-78z" />
    <glyph glyph-name="uni066D" unicode="&#x66d;" horiz-adv-x="718" 
d="M227 471l68 -151l-2 -2l-151 67l1 86h84zM112 314l154 -59v-2l-154 -60l-60 61zM141 121l151 68l2 -2l-67 -151l-86 1v84zM313.5 297.5q18.5 18.5 45.5 18.5q26 0 44.5 -18.5t18.5 -44.5q0 -27 -18.5 -45t-44.5 -18q-27 0 -45.5 18t-18.5 45q0 26 18.5 44.5zM357 161h2
l60 -155l-61 -60l-59 60zM360 560l59 -60l-58 -154h-3l-59 154zM425 188l151 -67l-1 -85h-84l-68 150zM491 470l85 -1v-84l-150 -68l-2 2zM451 254l155 59l60 -61l-60 -59l-155 58v3z" />
    <glyph glyph-name="uni066E" unicode="&#x66e;" horiz-adv-x="846" 
d="M148.5 42q-98.5 53 -107.5 149q-1 8 -1 24q0 42 11 89.5t28 87.5l87 -43q-30 -91 -26 -135q8 -43 80.5 -69t203.5 -27q91 0 155.5 11.5t97.5 26t35 25.5q-6 45 -26 104.5t-34 93.5l95 51q22 -50 40.5 -119.5t18.5 -119.5q0 -98 -106 -150t-280 -52q-173 0 -271.5 53z" />
    <glyph glyph-name="uni066F" unicode="&#x66f;" horiz-adv-x="725" 
d="M186 -254q-70 37 -107.5 102.5t-37.5 149.5q0 61 21 129.5t48 124.5l87 -40q-26 -58 -40 -104.5t-14 -95.5q0 -84 53.5 -128.5t152.5 -44.5q97 0 161.5 45t75.5 119q-33 -6 -68 -6q-70 0 -126.5 24t-80.5 73q-17 39 -17 82q0 57 24 113.5t65.5 93t90.5 36.5
q61 0 109 -52.5t74.5 -135t26.5 -168.5q0 -109 -43 -189t-119 -122.5t-173 -42.5q-93 0 -163 37zM447 135q39 -11 87 -11q26 0 50 3q-12 68 -41 118t-70 54q-3 1 -10 1q-21 0 -38.5 -16t-28 -40t-10.5 -46q0 -20 8 -31q14 -21 53 -32z" />
    <glyph glyph-name="uni0670" unicode="&#x670;" 
d="M61 565q0 -59 -1 -88l-51 2q2 56 2 86q0 62 -3 107l50 6q3 -48 3 -113z" />
    <glyph glyph-name="uni0688" unicode="&#x688;" horiz-adv-x="519" 
d="M116 20.5q-58 24.5 -90 51.5l49 92q35 -18 74.5 -31.5t96.5 -13.5q54 0 88.5 13t45.5 29q2 8 2 14q0 39 -49 104t-159 142l62 112q114 -83 180.5 -177.5t66.5 -179.5q0 -37 -15 -72q-22 -52 -80.5 -80t-129.5 -28q-84 0 -142 24.5zM112 683l30 -9q6 10 20 30
q1 45 -14 157l49 10q8 -46 13 -115q40 33 77 33q38 0 59.5 -26.5t21.5 -58.5q0 -42 -39 -73t-116 -31q-50 0 -84 13t-36 14zM214 663q59 -1 83.5 11t24.5 29q0 10 -8 17.5t-23 7.5q-23 0 -48 -17.5t-46 -46.5z" />
    <glyph glyph-name="uni0691" unicode="&#x691;" horiz-adv-x="372" 
d="M119 -120q54 36 85 73t31 66q0 22 -12 73.5t-32 129.5q-8 28 -11 42l100 39q23 -70 37.5 -148.5t14.5 -135.5q0 -95 -77.5 -177t-202.5 -132l-52 109q65 25 119 61zM121 454l30 -9q6 10 20 30q0 27 -4.5 75t-10.5 82l50 10q8 -46 13 -114q39 32 76 32q38 0 60 -26.5
t22 -58.5q0 -42 -39 -73t-116 -31q-38 0 -71 10t-49 18zM223 435q60 -2 83.5 10.5t23.5 29.5q0 11 -9 18.5t-26 5.5q-21 -1 -44.5 -18t-45.5 -45z" />
    <glyph glyph-name="uni0695" unicode="&#x695;" horiz-adv-x="372" 
d="M119 -120q54 36 85 73t31 66q0 22 -12 73.5t-32 129.5q-8 28 -11 42l100 39q23 -70 37.5 -148.5t14.5 -135.5q0 -95 -77.5 -177t-202.5 -132l-52 109q65 25 119 61zM87 -322q13 -18 28.5 -48.5t24.5 -56.5q9 28 25 61.5t29 52.5l40 -36q-19 -29 -38 -67.5t-31 -71.5
l-45 -16q-10 32 -31 73.5t-42 70.5z" />
    <glyph glyph-name="uni06A1" unicode="&#x6a1;" horiz-adv-x="886" 
d="M431 -11l-1 8q-1 -3 -1 -8q-177 -1 -278 52t-110 150q-1 8 -1 24q0 42 11 89.5t28 87.5l87 -43q-30 -91 -26 -135q8 -43 82 -69.5t207 -26.5h5q120 1 194.5 18.5t106.5 54.5q-24 -3 -49 -3q-69 0 -123 23.5t-77 70.5q-18 35 -18 84q0 54 23.5 106t64.5 85t90 33
q61 0 108 -49.5t71 -127.5t19 -160q-5 -122 -108.5 -192.5t-303.5 -71.5h-1zM621 320.5q40 -12.5 91 -12.5q28 0 42 2q-12 69 -43.5 117.5t-73.5 48.5q-21 0 -39.5 -14.5t-29.5 -36t-11 -41.5q0 -18 9 -30q15 -21 55 -33.5z" />
    <glyph glyph-name="uni06B5" unicode="&#x6b5;" horiz-adv-x="676" 
d="M183.5 -225q-65.5 32 -104 91t-38.5 138q0 57 20 126t48 126l87 -41q-26 -56 -40 -101t-14 -90q0 -68 51 -110t135 -42q214 0 207 221q-6 191 -17 357t-22 251l109 25q16 -134 30 -628q4 -167 -77 -261t-230 -94q-79 0 -144.5 32zM493 938q13 -17 28.5 -48.5t24.5 -57.5
q9 28 24.5 62t28.5 53l41 -36q-19 -28 -38 -67t-31 -72l-45 -16q-11 33 -32 74.5t-41 69.5z" />
    <glyph glyph-name="uni06BA" unicode="&#x6ba;" horiz-adv-x="717" 
d="M157 107.5q-14 -47.5 -14 -95.5q0 -86 53 -129.5t153 -43.5q74 0 127.5 25.5t80.5 67t27 87.5q0 61 -61 244l95 49q62 -174 62 -293q0 -82 -40.5 -153t-116 -114t-174.5 -43q-93 0 -163 37t-107.5 102.5t-37.5 149.5q0 61 21 129.5t48 124.5l87 -40q-26 -57 -40 -104.5z
" />
    <glyph glyph-name="uni06C1" unicode="&#x6c1;" horiz-adv-x="462" 
d="M91.5 45q-49.5 49 -49.5 125q0 30 7 58q22 86 94 166l-35 22l65 99q129 -76 194.5 -155t65.5 -167q0 -57 -26.5 -102t-73 -70t-102.5 -25q-90 0 -139.5 49zM163 142.5q26 -19.5 76 -19.5q42 0 69 17t30 45q-4 36 -32 73.5t-83 80.5q-86 -81 -86 -142q0 -35 26 -54.5z" />
    <glyph glyph-name="uni06C2" unicode="&#x6c2;" horiz-adv-x="462" 
d="M91.5 45q-49.5 49 -49.5 125q0 30 7 58q22 86 94 166l-35 22l65 99q129 -76 194.5 -155t65.5 -167q0 -57 -26.5 -102t-73 -70t-102.5 -25q-90 0 -139.5 49zM96 628l58 18q-19 21 -25 45q-2 14 -2 20q0 34 20.5 62.5t52.5 35.5q14 3 27 3q24 0 69 -13l-16 -61
q-31 11 -52 11q-26 0 -39.5 -14.5t-9.5 -31.5q3 -12 17 -22.5t36 -10.5l81 25v-61l-217 -68v62zM163 142.5q26 -19.5 76 -19.5q42 0 69 17t30 45q-4 36 -32 73.5t-83 80.5q-86 -81 -86 -142q0 -35 26 -54.5z" />
    <glyph glyph-name="uni06C3" unicode="&#x6c3;" horiz-adv-x="462" 
d="M91.5 45q-49.5 49 -49.5 125q0 30 7 58q22 86 94 166l-35 22l65 99q129 -76 194.5 -155t65.5 -167q0 -57 -26.5 -102t-73 -70t-102.5 -25q-90 0 -139.5 49zM154 726l80 -79l-80 -81l-80 81zM163 142.5q26 -19.5 76 -19.5q42 0 69 17t30 45q-4 36 -32 73.5t-83 80.5
q-86 -81 -86 -142q0 -35 26 -54.5zM331 726l80 -79l-80 -81l-80 81z" />
    <glyph glyph-name="uni06C9" unicode="&#x6c9;" horiz-adv-x="485" 
d="M250.5 -103.5q76.5 43.5 95.5 106.5q-34 -6 -69 -6q-70 0 -126 24t-79 73q-17 35 -17 82q0 57 24 113.5t65.5 93t90.5 36.5q60 0 108 -52t74.5 -134t26.5 -168q0 -135 -99 -228.5t-274 -126.5l-39 113q142 30 218.5 73.5zM169 587.5q21 41.5 32 74.5l45 -16
q12 -33 31 -71.5t38 -67.5l-41 -37q-13 19 -28.5 53t-24.5 62q-9 -26 -24.5 -57.5t-28.5 -48.5l-40 38q20 29 41 70.5zM208.5 135q39.5 -11 90.5 -11q32 0 47 2q-13 74 -45 124.5t-75 50.5q-21 0 -39.5 -16.5t-29.5 -41.5t-11 -47q0 -16 8 -29q15 -21 54.5 -32z" />
    <glyph glyph-name="uni06CE" unicode="&#x6ce;" horiz-adv-x="758" 
d="M190 -203q-70 34 -110 98.5t-40 154.5q0 61 21 132.5t48 123.5l87 -40q-26 -56 -40.5 -104t-14.5 -96q0 -86 53.5 -129.5t153.5 -43.5q88 0 153 33.5t89 80.5q1 3 -32 13.5t-84 25.5q-79 23 -111.5 52.5t-32.5 87.5q0 78 40 149t106 114.5t139 43.5q29 0 57.5 -8
t41.5 -19l-37 -113q-11 4 -30 7t-35 3q-42 0 -80.5 -19.5t-65 -51t-34.5 -65.5q-1 -4 -1 -11q0 -17 23 -30.5t88 -30.5q63 -16 96 -34t45 -38.5t12 -48.5q0 -68 -45.5 -130.5t-125 -101.5t-176.5 -39q-88 0 -158 34zM186 562q13 -18 28.5 -48.5t24.5 -56.5q9 28 24.5 61.5
t28.5 52.5l41 -36q-19 -29 -38 -67.5t-31 -71.5l-45 -16q-10 32 -31 73.5t-42 70.5z" />
    <glyph glyph-name="uni06D4" unicode="&#x6d4;" horiz-adv-x="327" 
d="M107 26.5q-23 23.5 -23 57.5q0 33 23 55.5t57 22.5q33 0 56 -23t23 -55q0 -34 -23 -57.5t-56 -23.5q-34 0 -57 23.5z" />
    <glyph glyph-name="uni06D5" unicode="&#x6d5;" horiz-adv-x="462" 
d="M91.5 45q-49.5 49 -49.5 125q0 30 7 58q22 86 94 166l-35 22l65 99q129 -76 194.5 -155t65.5 -167q0 -57 -26.5 -102t-73 -70t-102.5 -25q-90 0 -139.5 49zM163 142.5q26 -19.5 76 -19.5q42 0 69 17t30 45q-4 36 -32 73.5t-83 80.5q-86 -81 -86 -142q0 -35 26 -54.5z" />
    <glyph glyph-name="uni06F0" unicode="&#x6f0;" horiz-adv-x="469" 
d="M141 56.5q-39 23.5 -62.5 62.5t-23.5 84q0 46 23 85t62.5 62t84.5 23q47 0 86.5 -23t62.5 -62t23 -85q0 -45 -23 -84.5t-62.5 -62.5t-86.5 -23q-45 0 -84 23.5zM177 153q20 -20 48 -20q29 0 49 20t20 50q0 31 -20 51t-49 20q-28 0 -48 -20.5t-20 -50.5t20 -50z" />
    <glyph glyph-name="uni06F1" unicode="&#x6f1;" horiz-adv-x="353" 
d="M148 64q0 175 -18 305q-22 166 -75 284l103 61q58 -122 82 -329q13 -124 13 -292q0 -63 -1 -93h-105q1 21 1 64z" />
    <glyph glyph-name="uni06F2" unicode="&#x6f2;" horiz-adv-x="544" 
d="M215 568q14 -26 37 -41.5t61 -15.5q53 0 77 33t24 97q0 25 -3 53l95 20q8 -45 8 -84q0 -107 -51 -178.5t-146 -72.5q-45 0 -83 19q2 -8 2 -13q13 -117 13 -276q0 -39 -2 -109h-104q1 21 1 64q0 175 -18 305q-22 166 -75 284l103 61q11 -22 29 -72q18 -48 32 -74z" />
    <glyph glyph-name="uni06F3" unicode="&#x6f3;" horiz-adv-x="698" 
d="M483 553.5q16 -36.5 46 -36.5q20 0 31 21.5t11 60.5t-12 90l93 28q17 -66 17 -124q0 -90 -37 -146.5t-102 -56.5q-67 0 -109 73q-21 -40 -50.5 -62t-66.5 -22q-39 0 -69 15l1 -9q13 -124 13 -292q0 -63 -1 -93h-105q1 21 1 64q0 175 -18 305q-21 164 -74 284l102 61
q11 -22 29 -72q26 -71 49.5 -102t62.5 -31q37 0 58.5 36t16.5 104q-1 3 -1 9l90 15q8 -83 24 -119.5z" />
    <glyph glyph-name="uni06F4" unicode="&#x6f4;" horiz-adv-x="676" 
d="M148 64q0 175 -18 305q-22 166 -75 284l103 61q24 -51 46 -128q17 -50 40 -85q2 56 31.5 104.5t78 77.5t105.5 29q84 0 176 -74l-45 -91q-64 33 -127 33q-52 0 -86.5 -26.5t-34.5 -64.5q0 -36 32.5 -61t89.5 -25q72 0 159 40l28 -116q-42 -23 -95.5 -37t-108.5 -14
q-118 0 -203 67q9 -111 9 -244q0 -67 -1 -99h-105q1 21 1 64z" />
    <glyph glyph-name="uni06F5" unicode="&#x6f5;" horiz-adv-x="631" 
d="M94 414q45 91 110 174l-32 21l66 112q156 -115 255.5 -242t99.5 -278q0 -64 -20 -111.5t-55.5 -72.5t-80.5 -25q-32 0 -62 15t-52 48q-38 -63 -117 -63q-76 0 -121.5 58.5t-45.5 151.5q0 11 2 39q8 82 53 173zM139 219q0 -46 19.5 -71t52.5 -25q35 0 51 33.5t16 75.5
l85 14q3 -49 18 -86t48 -37q66 0 66 95q0 149 -207 309q-61 -70 -99 -140.5t-48 -136.5q-2 -22 -2 -31z" />
    <glyph glyph-name="uni06F6" unicode="&#x6f6;" horiz-adv-x="556" 
d="M208 302q-56 22 -88 73.5t-32 111.5q0 49 22.5 97.5t67.5 83.5t109 44q18 2 26 2q42 0 82.5 -16t64.5 -36l-43 -91q-42 20 -89 20q-9 0 -29 -2q-49 -6 -79.5 -36t-30.5 -64q0 -28 28 -48t73 -20q54 0 113 30q52 28 93 44l22 -129q-116 -44 -223.5 -145t-163.5 -243
l-93 45q53 157 170 279z" />
    <glyph glyph-name="uni06F7" unicode="&#x6f7;" horiz-adv-x="634" 
d="M520 466.5q-51 -110.5 -94 -237t-59 -232.5h-100q-12 105 -54.5 231t-95 236.5t-93.5 173.5l96 71q47 -75 102 -207t96 -275q41 144 94.5 276t100.5 206l97 -71q-39 -61 -90 -171.5z" />
    <glyph glyph-name="uni06F8" unicode="&#x6f8;" horiz-adv-x="634" 
d="M113 226.5q51 110.5 94.5 236.5t59.5 232h100q12 -105 54.5 -231t95 -236t93.5 -174l-97 -71q-47 76 -102 207.5t-95 274.5q-41 -144 -95 -276t-101 -206l-96 71q38 62 89 172.5z" />
    <glyph glyph-name="uni06F9" unicode="&#x6f9;" horiz-adv-x="525" 
d="M337.5 110.5q-15.5 91.5 -23.5 194.5q-44 -13 -96 -13q-83 0 -131.5 48.5t-48.5 136.5q0 54 23.5 109.5t64.5 91.5t91 36q72 0 111.5 -52.5t52.5 -110t25 -144.5q15 -128 31.5 -224.5t37.5 -147.5l-102 -62q-20 46 -35.5 137.5zM156.5 439.5q21.5 -17.5 65.5 -17.5
q47 0 83 15q-7 64 -29.5 110t-62.5 46q-32 0 -55 -32.5t-23 -74.5q0 -29 21.5 -46.5z" />
    <glyph glyph-name="uni2009" unicode="&#x2009;" horiz-adv-x="98" 
 />
    <glyph glyph-name="uni200A" unicode="&#x200a;" horiz-adv-x="64" 
 />
    <glyph glyph-name="uni200B" unicode="&#x200b;" 
 />
    <glyph glyph-name="uni200C" unicode="&#x200c;" 
 />
    <glyph glyph-name="uni200D" unicode="&#x200d;" 
 />
    <glyph glyph-name="uni200E" unicode="&#x200e;" 
 />
    <glyph glyph-name="uni200F" unicode="&#x200f;" 
 />
    <glyph glyph-name="quoteleft" unicode="&#x2018;" horiz-adv-x="224" 
d="M171.5 616.5q-12.5 -36.5 -13.5 -70.5v-108h-116v94q1 56 28.5 113.5t71.5 93.5l70 -40q-28 -46 -40.5 -82.5z" />
    <glyph glyph-name="quoteright" unicode="&#x2019;" horiz-adv-x="224" 
d="M52.5 572q12.5 36 13.5 71v107h116v-93q0 -56 -28 -113.5t-71 -93.5l-71 40q28 46 40.5 82z" />
    <glyph glyph-name="quotedblleft" unicode="&#x201c;" horiz-adv-x="425" 
d="M372.5 619q-12.5 -36 -13.5 -71v-108h-116v94q0 56 28 113.5t71 93.5l71 -41q-28 -45 -40.5 -81zM54 534q1 56 29 113.5t71 93.5l70 -41q-28 -45 -40.5 -81.5t-13.5 -70.5v-108h-116v94z" />
    <glyph glyph-name="quotedblright" unicode="&#x201d;" horiz-adv-x="413" 
d="M52.5 486q12.5 36 13.5 71v107h116v-93q0 -56 -28 -113.5t-71 -93.5l-71 40q28 46 40.5 82zM240.5 486q12.5 36 14.5 71v107h116v-93q-1 -56 -29 -114t-71 -93l-70 40q27 46 39.5 82z" />
    <glyph glyph-name="quotedblbase" unicode="&#x201e;" horiz-adv-x="432" 
d="M59.5 -54.5q12.5 36.5 13.5 70.5v108h116v-94q0 -56 -28 -113.5t-71 -93.5l-70 40q27 46 39.5 82.5zM248.5 -54.5q12.5 36.5 13.5 70.5v108h116v-94q-1 -56 -28.5 -113.5t-70.5 -93.5l-71 40q28 46 40.5 82.5z" />
    <glyph glyph-name="bullet" unicode="&#x2022;" horiz-adv-x="504" 
d="M177.5 -1q-34.5 20 -54.5 54t-20 74t20 74.5t54.5 54.5t74.5 20t74 -20t54 -54.5t20 -74.5t-20 -74t-54 -54t-74 -20t-74.5 20z" />
    <glyph glyph-name="ellipsis" unicode="&#x2026;" horiz-adv-x="881" 
d="M104.5 26.5q-22.5 23.5 -22.5 57.5q0 33 23 55.5t56 22.5q34 0 57 -23t23 -55q0 -34 -23 -57.5t-57 -23.5t-56.5 23.5zM383 139.5q23 22.5 56 22.5q34 0 57 -23t23 -55q0 -34 -23 -57.5t-57 -23.5t-56.5 23.5t-22.5 57.5q0 33 23 55.5zM663 139.5q23 22.5 56 22.5t56 -23
t23 -55q0 -34 -23 -57.5t-56 -23.5q-34 0 -56.5 23.5t-22.5 57.5q0 33 23 55.5z" />
    <glyph glyph-name="minute" unicode="&#x2032;" horiz-adv-x="175" 
d="M137 686l-13 -189h-78v194l1 59h90v-64z" />
    <glyph glyph-name="second" unicode="&#x2033;" horiz-adv-x="339" 
d="M313 686l-13 -189h-78v253h91v-64zM62 691l1 59h90v-64l-13 -189h-78v194z" />
    <glyph glyph-name="guilsinglleft" unicode="&#x2039;" horiz-adv-x="243" 
d="M137.5 121.5q18.5 -46.5 55.5 -93.5l-56 -63q-106 114 -106 254t106 254l56 -63q-37 -47 -55.5 -93.5t-18.5 -97.5t18.5 -97.5z" />
    <glyph glyph-name="guilsinglright" unicode="&#x203a;" horiz-adv-x="244" 
d="M106.5 316q-18.5 46 -56.5 94l56 63q106 -114 106 -254t-106 -254l-56 63q38 48 56.5 94t18.5 97t-18.5 97z" />
    <glyph glyph-name="fraction" unicode="&#x2044;" horiz-adv-x="449" 
d="M82 54l-62 34l347 556l62 -35z" />
    <glyph glyph-name="uni2070" unicode="&#x2070;" horiz-adv-x="370" 
d="M294.5 322q-38.5 -42 -108.5 -42q-71 0 -109.5 41t-39.5 117v76q0 78 39 120t109 42q69 0 108 -41.5t40 -117.5v-77q0 -76 -38.5 -118zM141.5 372q14.5 -20 44.5 -20q54 0 57 76v92q0 83 -58 83q-56 0 -58 -77v-91q0 -43 14.5 -63z" />
    <glyph glyph-name="uni2074" unicode="&#x2074;" horiz-adv-x="370" 
d="M296 438h47v-72h-47v-81h-90v81h-175l-5 57l178 247h92v-232zM206 438v122l-8 -13l-84 -109h92z" />
    <glyph glyph-name="uni2075" unicode="&#x2075;" horiz-adv-x="370" 
d="M48 473l25 197h241v-72h-168l-10 -74q36 14 66 14q63 0 97.5 -32.5t34.5 -92.5t-40 -96.5t-107 -36.5q-62 0 -105 32t-44 80h90q3 -40 59 -40q28 0 43 16t15 46q0 28 -17 44.5t-49 16.5q-35 0 -60 -20z" />
    <glyph glyph-name="uni2076" unicode="&#x2076;" horiz-adv-x="370" 
d="M169.5 579q-34.5 -24 -40.5 -72q34 34 88 34q57 0 90 -34.5t33 -94.5q0 -57 -41 -94.5t-106 -37.5q-72 0 -113.5 40.5t-41.5 113.5v27q0 103 60 159t177 57v-74q-71 0 -105.5 -24zM144 369q17 -18 46 -18q26 0 43.5 18t17.5 44q0 27 -15.5 42t-45.5 15q-21 0 -38 -8
t-25 -22v-18q0 -35 17 -53z" />
    <glyph glyph-name="uni2077" unicode="&#x2077;" horiz-adv-x="370" 
d="M334 620l-165 -335h-95l166 313h-214v72h308v-50z" />
    <glyph glyph-name="uni2078" unicode="&#x2078;" horiz-adv-x="370" 
d="M76.5 309.5q-39.5 29.5 -39.5 81.5q0 64 65 92q-56 28 -56 84q0 50 37.5 79.5t101.5 29.5q63 0 101 -29t38 -80q0 -57 -56 -84q65 -29 65 -92q0 -52 -39.5 -81.5t-108.5 -29.5t-108.5 29.5zM143 364q17 -13 41 -13q25 0 42 12.5t17 35.5q0 22 -15.5 34t-42.5 12
q-28 0 -43.5 -12t-15.5 -34t17 -35zM148.5 529.5q13.5 -11.5 36.5 -11.5t36 11.5t13 31.5t-13 31.5t-36 11.5q-24 0 -37 -11t-13 -32q0 -20 13.5 -31.5z" />
    <glyph glyph-name="uni2079" unicode="&#x2079;" horiz-adv-x="370" 
d="M201 370.5q31 18.5 38 66.5q-32 -28 -77 -28q-60 0 -94 33.5t-34 94.5q0 39 19 71t53 50t75 18q69 0 108 -40.5t41 -112.5v-31q0 -104 -54.5 -156.5t-171.5 -55.5v72q66 0 97 18.5zM140 492q16 -16 45 -16q38 0 55 26v34q0 67 -59 67q-25 0 -41 -19t-16 -48q0 -28 16 -44
z" />
    <glyph glyph-name="uni2080" unicode="&#x2080;" horiz-adv-x="370" 
d="M294.5 37q-38.5 -42 -108.5 -42q-71 0 -109.5 41t-39.5 117v76q0 78 39 120t109 42q69 0 108 -41.5t40 -117.5v-77q0 -76 -38.5 -118zM141.5 87q14.5 -20 44.5 -20q54 0 57 76v92q0 83 -58 83q-56 0 -58 -77v-91q0 -43 14.5 -63z" />
    <glyph glyph-name="uni2081" unicode="&#x2081;" horiz-adv-x="370" 
d="M251 0h-90v280l-97 -23v69l178 59h9v-385z" />
    <glyph glyph-name="uni2082" unicode="&#x2082;" horiz-adv-x="370" 
d="M336 0h-298v61l144 131q25 23 38 44t13 36q0 22 -14 34.5t-39 12.5q-29 0 -45 -16.5t-16 -42.5l-88 2q0 57 40.5 93t105.5 36q69 0 107.5 -31.5t38.5 -87.5q0 -45 -39 -89q-19 -22 -61 -56l-68 -55h181v-72z" />
    <glyph glyph-name="uni2083" unicode="&#x2083;" horiz-adv-x="370" 
d="M131 227h42q31 0 47 13t16 35q0 20 -14.5 32t-42.5 12q-24 0 -40.5 -10.5t-16.5 -26.5h-89q0 49 40 79t103 30q70 0 110 -29.5t40 -80.5q0 -28 -17 -50t-50 -34q74 -20 74 -90q0 -50 -43.5 -81t-113.5 -31q-67 0 -108.5 32t-41.5 85h91q0 -19 17.5 -32t46.5 -13
q30 0 46 13t16 35q0 50 -67 50h-45v62z" />
    <glyph glyph-name="uni2084" unicode="&#x2084;" horiz-adv-x="370" 
d="M296 153h47v-72h-47v-81h-90v81h-175l-5 57l178 247h92v-232zM206 153v122l-8 -13l-84 -109h92z" />
    <glyph glyph-name="uni2085" unicode="&#x2085;" horiz-adv-x="370" 
d="M48 188l25 197h241v-72h-168l-10 -74q36 14 66 14q63 0 97.5 -32.5t34.5 -92.5t-40 -96.5t-107 -36.5q-62 0 -105 32t-44 80h90q3 -40 59 -40q28 0 43 16t15 46q0 28 -17 44.5t-49 16.5q-35 0 -60 -20z" />
    <glyph glyph-name="uni2086" unicode="&#x2086;" horiz-adv-x="370" 
d="M169.5 294q-34.5 -24 -40.5 -72q34 34 88 34q57 0 90 -34.5t33 -94.5q0 -57 -41 -94.5t-106 -37.5q-72 0 -113.5 40.5t-41.5 113.5v27q0 103 60 159t177 57v-74q-71 0 -105.5 -24zM144 84q17 -18 46 -18q26 0 43.5 18t17.5 44q0 27 -15.5 42t-45.5 15q-21 0 -38 -8
t-25 -22v-18q0 -35 17 -53z" />
    <glyph glyph-name="uni2087" unicode="&#x2087;" horiz-adv-x="370" 
d="M334 335l-165 -335h-95l166 313h-214v72h308v-50z" />
    <glyph glyph-name="uni2088" unicode="&#x2088;" horiz-adv-x="370" 
d="M76.5 24.5q-39.5 29.5 -39.5 81.5q0 64 65 92q-56 28 -56 84q0 50 37.5 79.5t101.5 29.5q63 0 101 -29t38 -80q0 -57 -56 -84q65 -29 65 -92q0 -52 -39.5 -81.5t-108.5 -29.5t-108.5 29.5zM143 79q17 -13 41 -13q25 0 42 12.5t17 35.5q0 22 -15.5 34t-42.5 12
q-28 0 -43.5 -12t-15.5 -34t17 -35zM148.5 244.5q13.5 -11.5 36.5 -11.5t36 11.5t13 31.5t-13 31.5t-36 11.5q-24 0 -37 -11t-13 -32q0 -20 13.5 -31.5z" />
    <glyph glyph-name="uni2089" unicode="&#x2089;" horiz-adv-x="370" 
d="M201 85.5q31 18.5 38 66.5q-32 -28 -77 -28q-60 0 -94 33.5t-34 94.5q0 39 19 71t53 50t75 18q69 0 108 -40.5t41 -112.5v-31q0 -104 -54.5 -156.5t-171.5 -55.5v72q66 0 97 18.5zM140 207q16 -16 45 -16q38 0 55 26v34q0 67 -59 67q-25 0 -41 -19t-16 -48q0 -28 16 -44z
" />
    <glyph glyph-name="trademark" unicode="&#x2122;" horiz-adv-x="629" 
d="M491 629l-59 -181h-31l-61 181v-181h-55v263h68l63 -187l65 187h66v-263h-56v181zM54 711h195v-47h-66v-215h-60v215h-69v47z" />
    <glyph glyph-name="partialdiff" unicode="&#x2202;" horiz-adv-x="571" 
d="M162 22q-55 32 -85 91t-30 139v7q0 72 28.5 127.5t80.5 86t121 30.5q42 0 79.5 -16.5t65.5 -46.5q-13 97 -60 153t-113 56q-54 0 -126 -27l-16 88q41 20 77.5 28t75.5 8q85 0 147 -46t94.5 -135t32.5 -215v-36q0 -98 -30.5 -171.5t-86 -113t-127.5 -39.5q-73 0 -128 32z
M199.5 127q32.5 -42 90.5 -42q60 0 92.5 51.5t32.5 146.5l-1 46q-16 37 -48.5 58t-74.5 21q-58 0 -91 -40.5t-33 -112.5v-11q0 -75 32.5 -117z" />
    <glyph glyph-name="product" unicode="&#x220f;" horiz-adv-x="692" 
d="M613 -115h-121v732h-290v-732h-121v826h532v-826z" />
    <glyph glyph-name="summation" unicode="&#x2211;" horiz-adv-x="610" 
d="M442 283l-254 -319h407v-95h-565v71l285 350l-285 350v71h541v-95h-383l254 -318v-15z" />
    <glyph glyph-name="minus" unicode="&#x2212;" horiz-adv-x="561" 
d="M492 304h-416v96h416v-96z" />
    <glyph glyph-name="uni2215" unicode="&#x2215;" horiz-adv-x="600" 
d="M385 768l92 -29l-261 -812l-92 29z" />
    <glyph glyph-name="radical" unicode="&#x221a;" horiz-adv-x="574" 
d="M279 142l177 569h103l-227 -711h-100l-103 279h-100v96h174z" />
    <glyph glyph-name="infinity" unicode="&#x221e;" horiz-adv-x="1041" 
d="M166 25q-56 35 -87.5 97t-31.5 141q0 63 25.5 126.5t80.5 106t139 42.5q71 0 128.5 -41t97.5 -121q40 79 98 120.5t129 41.5t126.5 -35t87 -99t31.5 -146q0 -61 -26.5 -123t-82 -103.5t-137.5 -41.5q-71 0 -128.5 42t-97.5 122q-40 -81 -97.5 -122.5t-127.5 -41.5
q-71 0 -127 35zM201 134.5q36 -47.5 96 -47.5q36 0 69 26.5t56 66.5t34 80v12q-8 37 -32 76.5t-58 66t-70 26.5q-59 0 -95 -48.5t-36 -133.5q0 -77 36 -124.5zM613 182.5q25 -40.5 59 -68t68 -27.5q60 0 96 48.5t36 133.5q0 76 -36.5 124t-94.5 48q-36 0 -69.5 -25.5
t-57.5 -64.5t-34 -79v-12q8 -37 33 -77.5z" />
    <glyph glyph-name="integral" unicode="&#x222b;" horiz-adv-x="276" 
d="M151 -167.5q-45 -45.5 -130 -45.5q-34 0 -64 9l8 92q22 -6 40 -6q70 0 71 79v618q0 87 47.5 134t134.5 47q34 0 75 -10l-11 -90q-17 5 -47 5q-79 0 -79 -90v-611q0 -86 -45 -131.5z" />
    <glyph glyph-name="approxequal" unicode="&#x2248;" horiz-adv-x="571" 
d="M106 482q32 14 65 14t59 -9t60 -27q34 -17 57 -25.5t52 -8.5q64 0 112 62v-104q-48 -53 -110 -53q-31 0 -56.5 9t-61.5 27q-35 17 -58 25.5t-50 8.5q-34 0 -68 -16.5t-57 -45.5v104q24 25 56 39zM49 239q53 53 121 53q30 0 57 -9.5t62 -26.5q36 -17 59 -25.5t48 -8.5
q65 0 115 62v-104q-50 -53 -112 -53q-31 0 -57 9t-62 27q-31 16 -55 24.5t-51 8.5q-34 0 -67.5 -16t-57.5 -45v104z" />
    <glyph glyph-name="notequal" unicode="&#x2260;" horiz-adv-x="563" 
d="M495 172h-266l-62 -112l-53 29l46 83h-90v98h143l62 109h-205v98h258l65 115l53 -29l-48 -86h97v-98h-151l-61 -109h212v-98z" />
    <glyph glyph-name="lessequal" unicode="&#x2264;" horiz-adv-x="512" 
d="M152 370l291 -103v-110l-413 170v89l413 170v-110zM37 108h417v-96h-417v96z" />
    <glyph glyph-name="greaterequal" unicode="&#x2265;" horiz-adv-x="513" 
d="M361 373l-300 106v109l421 -171v-89l-421 -170v109zM58 108h417v-96h-417v96z" />
    <glyph glyph-name="uniFBB2" unicode="&#xfbb2;" 
d="M86 406l57 -57l28 -28l-85 -86l-85 86z" />
    <glyph glyph-name="uniFBB3" unicode="&#xfbb3;" 
d="M29 -113l57 57l85 -85l-57 -57l-28 -28q-43 42 -85 85z" />
    <glyph glyph-name="uniFBB4" unicode="&#xfbb4;" 
d="M76 401l80 -80l-53 -53l-27 -27l-27 27l-53 53zM253 401l80 -80l-53 -53l-27 -27l-27 27l-53 53z" />
    <glyph glyph-name="uniFBB5" unicode="&#xfbb5;" 
d="M253 -182l-80 79l80 81l80 -81zM76 -22l80 -81l-80 -79l-80 79z" />
    <glyph glyph-name="uniFBB6" unicode="&#xfbb6;" 
d="M49 279l25 25l76 -75l-51 -51l-25 -25l-19 19q-47 47 -56 57zM122 366l45 45l67 -67l-67 -68l-67 68zM261 304l75 -75l-75 -76l-50 50l-26 26z" />
    <glyph glyph-name="uniFBB9" unicode="&#xfbb9;" 
d="M261 -172l-76 75l26 26l50 50l38 -38q20 -18 38 -38zM74 -21l26 -26l50 -50l-76 -75l-75 75zM168 -144l67 -68l-45 -45l-22 -22l-67 67q23 22 67 68z" />
    <glyph glyph-name="uniFD3E" unicode="&#xfd3e;" horiz-adv-x="410" 
d="M207 537.5q-66 -111.5 -66 -264.5q0 -264 220 -453l-65 -78q-113 87 -189 221.5t-76 309.5q0 177 75.5 310t189.5 221l65 -79q-88 -76 -154 -187.5z" />
    <glyph glyph-name="uniFD3F" unicode="&#xfd3f;" horiz-adv-x="410" 
d="M303 583q75 -133 75 -310q0 -175 -75.5 -309.5t-188.5 -221.5l-65 78q220 189 220 453q0 153 -66 264.5t-154 187.5l65 79q114 -88 189 -221z" />
    <glyph glyph-name="uniFEFF" unicode="&#xfeff;" 
 />
    <glyph glyph-name="uni0627.001" horiz-adv-x="246" 
d="M75 177q0 118 -7 247.5t-15 186.5l110 25q7 -56 13 -181.5t6 -246.5q0 -138 -8 -214l-106 12q7 59 7 171z" />
    <glyph glyph-name="uni0627.fina.001" horiz-adv-x="270" 
d="M115 60.5q-45 60.5 -45 188.5q-2 217 -18 362l109 24q15 -127 15 -336v-35q-1 -56 5 -83t26 -39.5t62 -12.5h5l7 -64l-7 -65h-4q-110 0 -155 60.5z" />
    <glyph glyph-name="uni066E.001" horiz-adv-x="422" 
d="M-6 54q0 43 1 64q92 0 157.5 11t99.5 26t36 26q-6 45 -26.5 106t-33.5 92l94 51q24 -54 43 -126.5t17 -121.5q-4 -94 -110.5 -143.5t-276.5 -49.5q-1 22 -1 65z" />
    <glyph glyph-name="uni066E.fina.001" horiz-adv-x="424" 
d="M151 41q-101 53 -110 150q-1 8 -1 24q0 42 11 89.5t28 87.5l87 -43q-30 -91 -26 -135q8 -43 82 -69.5t207 -26.5q2 -21 2 -64t-2 -65q-177 -1 -278 52z" />
    <glyph glyph-name="uni066E.fina.002" horiz-adv-x="523" 
d="M-4 54q0 43 1 64q128 0 202 18t114.5 57t65.5 110l94 -11q-19 -60 -19 -92q0 -71 74 -71l7 -64l-8 -65q-57 0 -99 33t-51 88q-59 -72 -151 -102t-229 -30q-1 22 -1 65z" />
    <glyph glyph-name="uni066E.medi.001" horiz-adv-x="390" 
d="M-5 129h8q78 0 121 7t61.5 21.5t24.5 39.5q3 14 3 30q0 25 -5 58.5t-6 41.5l93 18q8 -43 11 -89.5t3 -73.5q4 -23 24 -38t56 -15h6l7 -64l-7 -65h-6q-41 0 -75 19.5t-57 52.5q-27 -39 -85.5 -55.5t-168.5 -16.5h-8v129z" />
    <glyph glyph-name="uni066E.medi.002" horiz-adv-x="336" 
d="M198 66q-60 -66 -196 -66h-7v129h6q132 0 157 54l-30 137l90 30q26 -114 38 -155q10 -34 29.5 -50t50.5 -16h5l7 -64l-7 -65h-5q-93 0 -138 66z" />
    <glyph glyph-name="uni066E.medi.003" horiz-adv-x="395" 
d="M313 17q-36 17 -59 52q-35 -35 -96.5 -52t-155.5 -17h-7v129h6q92 0 145 13.5t70 42.5l-30 135l91 30q17 -79 37 -155q10 -34 29.5 -50t51.5 -16h5l7 -64l-7 -65h-5q-46 0 -82 17z" />
    <glyph glyph-name="uni066E.init.001" horiz-adv-x="367" 
d="M-5 129h45q102 0 144 18.5t42 57.5q-1 25 -21.5 86.5t-32.5 87.5l94 51q20 -45 40 -112t20 -118q-1 -98 -68 -149t-199 -51h-64v129z" />
    <glyph glyph-name="uni0628.medi.001" horiz-adv-x="337" 
d="M198 66q-60 -66 -196 -66h-7v129h6q132 0 157 54l-30 137l90 30q26 -114 38 -155q10 -34 29.5 -50t50.5 -16h5l7 -64l-7 -65h-5q-93 0 -138 66zM61 -83l57 -57l28 -28l-85 -86l-85 86z" />
    <glyph glyph-name="uni0628.medi.alt" horiz-adv-x="336" 
d="M-5 129h7q88 1 122.5 23t34.5 73q0 23 -8 75l-4 27l94 18q13 -67 13 -163q5 -23 25 -38t55 -15h7l7 -64l-7 -65h-7q-40 0 -74.5 20t-56.5 53q-26 -38 -76 -55.5t-125 -17.5h-7v129zM121 -83l57 -57l28 -28l-85 -86l-85 86z" />
    <glyph glyph-name="uni0628.medi.alt.001" horiz-adv-x="395" 
d="M313 17q-36 17 -59 52q-35 -35 -96.5 -52t-155.5 -17h-7v129h6q92 0 145 13.5t70 42.5l-30 135l91 30q17 -79 37 -155q10 -34 29.5 -50t51.5 -16h5l7 -64l-7 -65h-5q-46 0 -82 17zM134 -83l57 -57l28 -28l-85 -86l-85 86z" />
    <glyph glyph-name="uni0628.init.alt" horiz-adv-x="329" 
d="M-5 129h53q74 0 107 17.5t33 53.5q0 23 -21.5 89t-32.5 90l94 51q19 -40 39.5 -110t20.5 -122q0 -97 -62 -147.5t-178 -50.5h-53v129zM122 -83l57 -57l28 -28l-85 -86l-85 86z" />
    <glyph glyph-name="uni067E.medi.001" horiz-adv-x="395" 
d="M229 -195l-25 -25l-76 75l51 51l25 25l19 -19q47 -47 56 -57zM17 -69l50 -50l26 -26l-76 -75l-75 75zM-5 129h6q92 0 145 13.5t70 42.5l-30 135l91 30q17 -79 37 -155q10 -34 29.5 -50t51.5 -16h5l7 -64l-7 -65h-5q-46 0 -82 17t-59 52q-35 -35 -96.5 -52t-155.5 -17h-7
v129zM111 -192l67 -68l-22 -22l-45 -45l-67 67z" />
    <glyph glyph-name="uni067E.medi.alt" horiz-adv-x="390" 
d="M-5 129h8q78 0 121 7t61.5 21.5t24.5 39.5q3 14 3 30q0 25 -5 58.5t-6 41.5l93 18q8 -43 11 -89.5t3 -73.5q4 -23 24 -38t56 -15h6l7 -64l-7 -65h-6q-41 0 -75 19.5t-57 52.5q-27 -39 -85.5 -55.5t-168.5 -16.5h-8v129zM76 -69l50 -50l26 -26l-76 -75l-75 75zM170 -192
l67 -68l-22 -22l-45 -45l-67 67zM238 -94l25 25l19 -19q47 -47 56 -57l-50 -50l-25 -25l-76 75z" />
    <glyph glyph-name="uni067E.medi.alt.001" horiz-adv-x="395" 
d="M288 -195l-25 -25l-76 75l51 51l25 25l19 -19q47 -47 56 -57zM-5 129h6q92 0 145 13.5t70 42.5l-30 135l91 30q17 -79 37 -155q10 -34 29.5 -50t51.5 -16h5l7 -64l-7 -65h-5q-46 0 -82 17t-59 52q-35 -35 -96.5 -52t-155.5 -17h-7v129zM76 -69l50 -50l26 -26l-76 -75
l-75 75zM170 -192l67 -68l-22 -22l-45 -45l-67 67z" />
    <glyph glyph-name="uni067E.init.alt" horiz-adv-x="404" 
d="M-9 65l6 64h79q102 0 144 18.5t42 57.5q0 25 -20.5 85.5t-33.5 88.5l94 51q20 -42 40 -110.5t20 -119.5q-1 -98 -68 -149t-199 -51h-98zM81 -69l50 -50l26 -26l-76 -75l-75 75zM175 -192l67 -68l-22 -22l-45 -45l-67 67zM243 -94l25 25l19 -19q47 -47 56 -57l-50 -50
l-25 -25l-76 75z" />
    <glyph glyph-name="uni062A.medi.001" horiz-adv-x="395" 
d="M313 17q-36 17 -59 52q-35 -35 -96.5 -52t-155.5 -17h-7v129h6q92 0 145 13.5t70 42.5l-30 135l91 30q17 -79 37 -155q10 -34 29.5 -50t51.5 -16h5l7 -64l-7 -65h-5q-46 0 -82 17zM52 527l53 53l80 -80l-80 -80l-53 53l-27 27zM229 527l53 53l80 -80l-80 -80l-53 53
l-27 27z" />
    <glyph glyph-name="uni062A.medi.002" horiz-adv-x="430" 
d="M289 70q-35 -36 -96.5 -53t-154.5 -17h-41l-6 65l6 64h39q92 0 145 14t70 43l-29 134l90 30q17 -79 37 -155q10 -34 29.5 -50t51.5 -16h5l7 -64l-7 -65h-5q-96 0 -141 70zM128 580l80 -80l-80 -80l-80 80zM305 580l80 -80l-80 -80l-80 80z" />
    <glyph glyph-name="uni062A.medi.alt" horiz-adv-x="426" 
d="M-9 65l6 64h41q78 0 121 7t61.5 21.5t24.5 39.5q3 14 3 30q0 25 -5 58.5t-6 41.5l94 18q13 -67 13 -163q5 -23 24.5 -38t55.5 -15h7l7 -64l-7 -65h-7q-40 0 -74.5 20t-56.5 52q-27 -39 -86 -55.5t-169 -16.5h-41zM83 551l27 27l80 -80l-80 -80l-27 27l-53 53zM260 551
l27 27l80 -80l-80 -80l-27 27l-53 53z" />
    <glyph glyph-name="uni062A.init.alt" horiz-adv-x="402" 
d="M-9 65l6 64h78q102 0 144 18.5t42 57.5q0 25 -20.5 85.5t-33.5 88.5l94 51q20 -42 40 -110.5t20 -119.5q-1 -98 -68 -149t-199 -51h-97zM70 581l53 53l80 -80l-80 -80l-53 53l-27 27zM247 581l53 53l80 -80l-80 -80l-53 53l-27 27z" />
    <glyph glyph-name="uni062B.medi.001" horiz-adv-x="395" 
d="M313 17q-36 17 -59 52q-35 -35 -96.5 -52t-155.5 -17h-7v129h6q92 0 145 13.5t70 42.5l-30 135l91 30q17 -79 37 -155q10 -34 29.5 -50t51.5 -16h5l7 -64l-7 -65h-5q-46 0 -82 17zM39 529l50 50l76 -75q-37 -39 -76 -76l-75 76zM183 686l66 -67l-66 -68l-23 23l-45 45z
M277 579l50 -50l25 -25l-75 -76l-77 76z" />
    <glyph glyph-name="uni062B.medi.002" horiz-adv-x="430" 
d="M289 70q-35 -36 -96.5 -53t-154.5 -17h-41l-6 65l6 64h39q92 0 145 14t70 43l-29 134l90 30q17 -79 37 -155q10 -34 29.5 -50t51.5 -16h5l7 -64l-7 -65h-5q-96 0 -141 70zM87 554l25 25l76 -75l-51 -51l-25 -25l-19 19q-47 47 -56 57zM160 641l45 45l67 -67l-67 -68
l-67 68zM299 579l75 -75l-75 -76l-50 50l-26 26z" />
    <glyph glyph-name="uni062B.medi.alt" horiz-adv-x="426" 
d="M-9 65l6 64h41q78 0 121 7t61.5 21.5t24.5 39.5q3 14 3 30q0 25 -5 58.5t-6 41.5l94 18q13 -67 13 -163q5 -23 24.5 -38t55.5 -15h7l7 -64l-7 -65h-7q-40 0 -74.5 20t-56.5 52q-27 -39 -86 -55.5t-169 -16.5h-41zM105 579l19 -19q47 -47 57 -56l-76 -77l-76 77zM198 685
l67 -66l-67 -68l-67 68zM292 579l25 -25l50 -50l-75 -77l-76 77z" />
    <glyph glyph-name="uni062B.init.alt" horiz-adv-x="402" 
d="M-9 65l6 64h78q102 0 144 18.5t42 57.5q0 25 -20.5 85.5t-33.5 88.5l94 51q20 -42 40 -110.5t20 -119.5q-1 -98 -68 -149t-199 -51h-97zM60 582l50 50l76 -75l-76 -77q-7 8 -45 46l-30 31zM204 739l66 -67l-66 -68l-45 45l-23 23zM298 632l50 -50l25 -25l-30 -31
q-38 -38 -45 -46l-77 77z" />
    <glyph glyph-name="uni0679.medi.001" horiz-adv-x="395" 
d="M313 17q-36 17 -59 52q-35 -35 -96.5 -52t-155.5 -17h-7v129h6q92 0 145 13.5t70 42.5l-30 135l91 30q17 -79 37 -155q10 -34 29.5 -50t51.5 -16h5l7 -64l-7 -65h-5q-46 0 -82 17zM35 487l31 -9q9 14 20 29q0 27 -4.5 75t-10.5 83l49 10q10 -56 14 -114q39 32 76 32
q38 0 59.5 -26.5t21.5 -58.5q0 -42 -38.5 -73t-116.5 -31q-37 0 -62 7.5t-57 19.5zM137 467q60 -1 84 11.5t24 29.5q0 10 -7.5 17t-22.5 7q-24 0 -49 -17.5t-46 -46.5z" />
    <glyph glyph-name="uni062D.fina.001" horiz-adv-x="711" 
d="M210 -345q-78 34 -123.5 97t-45.5 148q0 100 54.5 178.5t157 129.5t245.5 71l-10 7q-69 49 -114.5 70.5t-88.5 22.5q-40 -1 -70.5 -23t-48.5 -51l-73 53q35 70 84 107t110 37q57 0 111.5 -26.5t142.5 -89.5q50 -37 77 -54t58 -28l-14 -124q-154 1 -270 -35.5t-180.5 -97
t-72.5 -130.5q-3 -47 30.5 -85t94 -59.5t137.5 -21.5q73 0 136 15t100 30l46 -100q-2 -1 -37.5 -20.5t-110 -37t-152.5 -17.5q-95 0 -173 34z" />
    <glyph glyph-name="uni0631.003" horiz-adv-x="396" 
d="M287.5 47.5q-39.5 47.5 -66.5 135.5l79 48q14 -56 35 -79t58 -23h8l7 -64l-7 -65h-8q-66 0 -105.5 47.5z" />
    <glyph glyph-name="uni0633.001" horiz-adv-x="654" 
d="M186 -254q-70 37 -107.5 102.5t-37.5 149.5q0 61 21 129.5t48 124.5l87 -40q-26 -57 -40 -104.5t-14 -95.5q0 -86 53 -129.5t153 -43.5q74 0 127.5 25.5t80.5 67t27 87.5q0 61 -61 244l95 49q62 -175 62 -293q0 -82 -40.5 -153t-116 -114t-174.5 -43q-93 0 -163 37z" />
    <glyph glyph-name="uni0633.fina.001" horiz-adv-x="85" 
d="M-17.5 52q-40.5 52 -58.5 132l68 42q12 -37 22.5 -56.5t29 -30t49.5 -10.5l-6 -129q-64 0 -104.5 52z" />
    <glyph glyph-name="uni0633.medi.002" horiz-adv-x="258" 
d="M128 65q-24 -31 -57 -48t-70 -17h-3v129h3q24 0 46.5 10t35.5 25q-12 52 -29 143l93 25q12 -65 19 -99.5t14 -52.5q8 -25 27 -38t51 -13h6l6 -64l-7 -65h-5q-80 0 -130 65z" />
    <glyph glyph-name="uni0633.init.001" horiz-adv-x="202" 
d="M-1 129h2q32 0 49.5 18.5t17.5 49.5q0 30 -19 86.5t-35 94.5l92 51q20 -43 40.5 -112.5t20.5 -122.5q0 -54 -21 -98t-59 -70t-86 -26h-2v129z" />
    <glyph glyph-name="uni0633.init.002" horiz-adv-x="269" 
d="M-1 129h4q53 0 85 60q20 39 34 121l94 -4q-12 -60 -12 -97q0 -80 66 -80h3l6 -64l-6 -65h-3q-49 0 -82 23.5t-50 67.5q-26 -43 -60.5 -67t-75.5 -24h-3v129z" />
    <glyph glyph-name="uni0633.init.003" horiz-adv-x="284" 
d="M-2 0l-7 65l7 64h4q33 0 64 15t47 37q21 26 32.5 57t19.5 65l94 -10q0 -1 -5 -23q-15 -58 -15 -86t11 -41.5t35 -13.5h2l7 -64l-7 -65h-4q-44 0 -75.5 24.5t-41.5 65.5q-32 -44 -74 -67t-91 -23h-3z" />
    <glyph glyph-name="uni0635.medi.001" horiz-adv-x="200" 
d="M205 129l7 -64l-7 -65q-104 0 -163.5 6.5t-92.5 31.5l54 77q117 14 202 14z" />
    <glyph glyph-name="uni06A1.medi.001" horiz-adv-x="468" 
d="M-4 -11l-7 65l7 64h12q53 0 89 4q-42 51 -42 110q0 8 2 26q8 56 35.5 103t67 74t83.5 27q49 0 87.5 -31t59.5 -79.5t21 -99.5q0 -70 -36 -123h98l7 -64l-7 -65h-61q-93 0 -169 26q-96 -37 -235 -37h-12zM172.5 195.5q21.5 -25.5 60.5 -42.5q60 28 81 82q1 4 1 13
q0 34 -22 62.5t-57 28.5q-33 0 -56.5 -27.5t-28.5 -63.5q0 -27 21.5 -52.5z" />
    <glyph glyph-name="uni06A1.init.001" horiz-adv-x="461" 
d="M1 -11l-9 64l4 65h14q120 1 194 18t106 55q-16 -2 -47 -2q-70 0 -124 23t-78 70q-18 35 -18 84q0 54 23.5 106t65 85t90.5 33q60 0 107 -49.5t71.5 -127.5t19.5 -160q-5 -122 -108.5 -192.5t-303.5 -71.5h-7zM197 320.5q40 -12.5 90 -12.5q28 0 42 2q-12 69 -43 117.5
t-73 48.5q-21 0 -39.5 -14.5t-29.5 -36t-11 -41.5q0 -18 9 -30q15 -21 55 -33.5z" />
    <glyph glyph-name="uni0643.init.alt" horiz-adv-x="456" 
d="M-5 -12l-7 65l7 65h31q88 0 146 18.5t76 46.5q2 51 -50.5 122.5t-158.5 157.5l12 114l369 158l36 -104l-297 -128q36 -30 80 -81t77 -113t33 -117q0 -21 -6 -42q-21 -77 -106 -119t-211 -42z" />
    <glyph glyph-name="uni0643.init.alt3" horiz-adv-x="456" 
d="M-5 -12l-7 65l7 65h31q89 0 145.5 15.5t73.5 42.5q1 47 -49 110.5t-157 148.5l12 115l369 156l36 -103l-297 -128q73 -61 129 -133.5t56 -147.5q0 -21 -6 -44q-22 -78 -105 -119.5t-207 -41.5zM59 669l322 133l17 -44l-345 -145z" />
    <glyph glyph-name="uni0644.001" horiz-adv-x="676" 
d="M183.5 -225q-65.5 32 -104 91t-38.5 138q0 57 20 126t48 126l87 -41q-26 -56 -40 -101t-14 -90q0 -68 51 -110t135 -42q214 0 207 221q-6 191 -17 357t-22 251l109 25q16 -134 30 -628q4 -167 -77 -261t-230 -94q-79 0 -144.5 32z" />
    <glyph glyph-name="uni0646.medi.001" horiz-adv-x="337" 
d="M198 66q-60 -66 -196 -66h-7v129h6q132 0 157 54l-30 137l90 30q26 -114 38 -155q10 -34 29.5 -50t50.5 -16h5l7 -64l-7 -65h-5q-93 0 -138 66zM138 589l85 -85q-43 -42 -85 -85l-86 85z" />
    <glyph glyph-name="uni0649.fina.001" horiz-adv-x="694" 
d="M183.5 -248.5q-71.5 36.5 -109.5 106.5t-32 167q3 56 22.5 118t44.5 115l87 -41q-26 -58 -40 -106t-14 -95q0 -86 53 -129t153 -43q56 0 106.5 13t85.5 33t46 38q-15 18 -74 52.5t-124 59.5l28 122q82 -16 145.5 -24t124.5 -9h18l7 -64l-7 -65h-18q-17 0 -53 2
q48 -43 48 -80q-1 -48 -46 -96.5t-121 -79.5t-166 -31q-93 0 -164.5 36.5z" />
    <glyph glyph-name="uni064A.fina.001" horiz-adv-x="694" 
d="M183.5 -248.5q-71.5 36.5 -109.5 106.5t-32 167q3 56 22.5 118t44.5 115l87 -41q-26 -58 -40 -106t-14 -95q0 -86 53 -129t153 -43q56 0 106.5 13t85.5 33t46 38q-15 18 -74 52.5t-124 59.5l28 122q82 -16 145.5 -24t124.5 -9h18l7 -64l-7 -65h-18q-17 0 -53 2
q48 -43 48 -80q-1 -48 -46 -96.5t-121 -79.5t-166 -31q-93 0 -164.5 36.5z" />
    <glyph glyph-name="uni064A.medi.001" horiz-adv-x="395" 
d="M313 17q-36 17 -59 52q-35 -35 -96.5 -52t-155.5 -17h-7v129h6q92 0 145 13.5t70 42.5l-30 135l91 30q17 -79 37 -155q10 -34 29.5 -50t51.5 -16h5l7 -64l-7 -65h-5q-46 0 -82 17zM-3 -114l27 27l27 -27l53 -53l-80 -80l-80 80zM174 -114l27 27l27 -27l53 -53l-80 -80
l-80 80z" />
    <glyph glyph-name="uni064A.medi.alt" horiz-adv-x="390" 
d="M-5 129h8q78 0 121 7t61.5 21.5t24.5 39.5q3 14 3 30q0 25 -5 58.5t-6 41.5l93 18q8 -43 11 -89.5t3 -73.5q4 -23 24 -38t56 -15h6l7 -64l-7 -65h-6q-41 0 -75 19.5t-57 52.5q-27 -39 -85.5 -55.5t-168.5 -16.5h-8v129zM52 -115l27 27l27 -27l53 -53l-80 -80l-80 80z
M229 -115l27 27l27 -27l53 -53l-80 -80l-80 80z" />
    <glyph glyph-name="uni064A.medi.alt.001" horiz-adv-x="395" 
d="M313 17q-36 17 -59 52q-35 -35 -96.5 -52t-155.5 -17h-7v129h6q92 0 145 13.5t70 42.5l-30 135l91 30q17 -79 37 -155q10 -34 29.5 -50t51.5 -16h5l7 -64l-7 -65h-5q-46 0 -82 17zM52 -114l27 27l27 -27l53 -53l-80 -80l-80 80zM229 -114l27 27l27 -27l53 -53l-80 -80
l-80 80z" />
    <glyph glyph-name="uni064A.init.alt" horiz-adv-x="399" 
d="M-9 65l6 64h75q102 0 144 18.5t42 57.5q-1 25 -21.5 86.5t-32.5 87.5l94 51q20 -45 40 -112t20 -118q-1 -98 -68 -149t-199 -51h-94zM52 -113l27 27l27 -27l53 -53l-80 -80l-80 80zM229 -113l27 27l27 -27l53 -53l-80 -80l-80 80z" />
    <glyph glyph-name="uni0626.fina.001" horiz-adv-x="695" 
d="M183.5 -248.5q-71.5 36.5 -109.5 106.5t-32 167q3 56 22.5 118t44.5 115l87 -41q-26 -58 -40 -106t-14 -95q0 -86 53 -129t153 -43q56 0 106.5 13t85.5 33t46 38q-15 18 -74 52.5t-124 59.5l28 122q82 -16 145.5 -24t124.5 -9h18l7 -64l-7 -65h-18q-17 0 -53 2
q48 -43 48 -80q-1 -48 -46 -96.5t-121 -79.5t-166 -31q-93 0 -164.5 36.5zM144 369l58 18q-19 21 -25 45q-2 12 -2 19q0 34 20.5 63t52.5 36q14 3 27 3q24 0 69 -13l-16 -61q-31 11 -52 11q-26 0 -39.5 -14.5t-9.5 -31.5q3 -12 17 -22.5t36 -10.5l81 25v-62l-217 -67v62z
" />
    <glyph glyph-name="uni0626.medi.001" horiz-adv-x="337" 
d="M198 66q-60 -66 -196 -66h-7v129h6q132 0 157 54l-30 137l90 30q26 -114 38 -155q10 -34 29.5 -50t50.5 -16h5l7 -64l-7 -65h-5q-93 0 -138 66zM14 469l58 18q-19 21 -25 45q-2 14 -2 20q0 34 20.5 62.5t52.5 35.5q14 3 27 3q24 0 69 -13l-16 -61q-31 11 -52 11
q-26 0 -39.5 -14.5t-9.5 -31.5q3 -12 17 -22.5t36 -10.5l81 25v-61l-217 -68v62z" />
    <glyph glyph-name="uni06CE.fina.001" horiz-adv-x="695" 
d="M183.5 -248.5q-71.5 36.5 -109.5 106.5t-32 167q3 56 22.5 118t44.5 115l87 -41q-26 -58 -40 -106t-14 -95q0 -86 53 -129t153 -43q56 0 106.5 13t85.5 33t46 38q-15 18 -74 52.5t-124 59.5l28 122q82 -16 145.5 -24t124.5 -9h18l7 -64l-7 -65h-18q-17 0 -53 2
q48 -43 48 -80q-1 -48 -46 -96.5t-121 -79.5t-166 -31q-93 0 -164.5 36.5zM224 440q13 -18 28.5 -48.5t24.5 -56.5q9 28 25 61.5t29 52.5l40 -36q-19 -29 -38 -67.5t-31 -71.5l-45 -16q-10 32 -31 73.5t-42 70.5z" />
    <glyph glyph-name="uni06CE.medi.001" horiz-adv-x="395" 
d="M215.5 488.5q-19.5 -38.5 -31.5 -71.5l-44 -16q-11 32 -32 73t-41 72l39 38q13 -17 29 -48.5t25 -57.5q8 27 24 61t29 54l41 -37q-19 -29 -38.5 -67.5zM-3 -114l27 27l27 -27l53 -53l-80 -80l-80 80zM-5 129h6q92 0 145 13.5t70 42.5l-30 135l91 30q17 -79 37 -155
q10 -34 29.5 -50t51.5 -16h5l7 -64l-7 -65h-5q-46 0 -82 17t-59 52q-35 -35 -96.5 -52t-155.5 -17h-7v129zM174 -114l27 27l27 -27l53 -53l-80 -80l-80 80z" />
    <glyph glyph-name="uni06CE.medi.alt" horiz-adv-x="390" 
d="M222.5 487.5q-19.5 -38.5 -31.5 -71.5l-44 -16q-11 32 -32 73.5t-41 70.5l39 38q13 -17 29 -48t25 -57q8 27 24 60.5t29 53.5l41 -36q-19 -29 -38.5 -67.5zM-5 129h8q78 0 121 7t61.5 21.5t24.5 39.5q3 14 3 30q0 25 -5 58.5t-6 41.5l93 18q8 -43 11 -89.5t3 -73.5
q4 -23 24 -38t56 -15h6l7 -64l-7 -65h-6q-41 0 -75 19.5t-57 52.5q-27 -39 -85.5 -55.5t-168.5 -16.5h-8v129zM52 -115l27 27l27 -27l53 -53l-80 -80l-80 80zM229 -115l27 27l27 -27l53 -53l-80 -80l-80 80z" />
    <glyph glyph-name="uni06CE.medi.alt.001" horiz-adv-x="395" 
d="M216.5 485.5q-19.5 -38.5 -31.5 -71.5l-44 -16q-11 32 -32 73.5t-41 70.5l39 38q13 -17 29 -48.5t25 -57.5q8 27 24 61t29 54l41 -37q-19 -28 -38.5 -66.5zM-5 129h6q92 0 145 13.5t70 42.5l-30 135l91 30q17 -79 37 -155q10 -34 29.5 -50t51.5 -16h5l7 -64l-7 -65h-5
q-46 0 -82 17t-59 52q-35 -35 -96.5 -52t-155.5 -17h-7v129zM52 -114l27 27l27 -27l53 -53l-80 -80l-80 80zM229 -114l27 27l27 -27l53 -53l-80 -80l-80 80z" />
    <glyph glyph-name="uni06CE.init.alt" horiz-adv-x="399" 
d="M223.5 592.5q-19.5 -38.5 -31.5 -71.5l-44 -16q-11 32 -32 73.5t-41 70.5l39 38q13 -17 29 -48t25 -57q8 27 24 60.5t29 53.5l41 -36q-19 -29 -38.5 -67.5zM-3 129h75q102 0 144 18.5t42 57.5q-1 25 -21.5 86.5t-32.5 87.5l94 51q20 -45 40 -112t20 -118q-1 -98 -68 -149
t-199 -51h-94l-6 65zM52 -113l27 27l27 -27l53 -53l-80 -80l-80 80zM229 -113l27 27l27 -27l53 -53l-80 -80l-80 80z" />
    <glyph glyph-name="uni06CC.fina.001" horiz-adv-x="695" 
d="M183.5 -248.5q-71.5 36.5 -109.5 106.5t-32 167q3 56 22.5 118t44.5 115l87 -41q-26 -58 -40 -106t-14 -95q0 -86 53 -129t153 -43q56 0 106.5 13t85.5 33t46 38q-15 18 -74 52.5t-124 59.5l28 122q82 -16 145.5 -24t124.5 -9h18l7 -64l-7 -65h-18q-17 0 -53 2
q48 -43 48 -80q-1 -48 -46 -96.5t-121 -79.5t-166 -31q-93 0 -164.5 36.5z" />
    <glyph glyph-name="uni06CC.medi.001" horiz-adv-x="395" 
d="M313 17q-36 17 -59 52q-35 -35 -96.5 -52t-155.5 -17h-7v129h6q92 0 145 13.5t70 42.5l-30 135l91 30q17 -79 37 -155q10 -34 29.5 -50t51.5 -16h5l7 -64l-7 -65h-5q-46 0 -82 17zM-3 -114l27 27l27 -27l53 -53l-80 -80l-80 80zM174 -114l27 27l27 -27l53 -53l-80 -80
l-80 80z" />
    <glyph glyph-name="uni06CC.medi.alt" horiz-adv-x="390" 
d="M-5 129h8q78 0 121 7t61.5 21.5t24.5 39.5q3 14 3 30q0 25 -5 58.5t-6 41.5l93 18q8 -43 11 -89.5t3 -73.5q4 -23 24 -38t56 -15h6l7 -64l-7 -65h-6q-41 0 -75 19.5t-57 52.5q-27 -39 -85.5 -55.5t-168.5 -16.5h-8v129zM52 -115l27 27l27 -27l53 -53l-80 -80l-80 80z
M229 -115l27 27l27 -27l53 -53l-80 -80l-80 80z" />
    <glyph glyph-name="uni06CC.medi.alt.001" horiz-adv-x="395" 
d="M313 17q-36 17 -59 52q-35 -35 -96.5 -52t-155.5 -17h-7v129h6q92 0 145 13.5t70 42.5l-30 135l91 30q17 -79 37 -155q10 -34 29.5 -50t51.5 -16h5l7 -64l-7 -65h-5q-46 0 -82 17zM52 -114l27 27l27 -27l53 -53l-80 -80l-80 80zM229 -114l27 27l27 -27l53 -53l-80 -80
l-80 80z" />
    <glyph glyph-name="uni06CC.init.alt" horiz-adv-x="399" 
d="M-9 65l6 64h75q102 0 144 18.5t42 57.5q-1 25 -21.5 86.5t-32.5 87.5l94 51q20 -45 40 -112t20 -118q-1 -98 -68 -149t-199 -51h-94zM52 -113l27 27l27 -27l53 -53l-80 -80l-80 80zM229 -113l27 27l27 -27l53 -53l-80 -80l-80 80z" />
    <glyph glyph-name="uni06D2.fina.alt" horiz-adv-x="448" 
d="M54 -138q0 72 42.5 133.5t117 97.5t166.5 36h73l7 -64l-7 -65h-73q-68 0 -119 -18.5t-79.5 -42t-32.5 -37.5q9 -7 55 -16.5t105 -9.5h125l-45 -128l-99 -1q-88 0 -138.5 15t-91.5 47q-6 27 -6 53z" />
    <glyph glyph-name="uni06D3.fina.alt" horiz-adv-x="448" 
d="M54 -138q0 72 42.5 133.5t117 97.5t166.5 36h73l7 -64l-7 -65h-73q-68 0 -119 -18.5t-79.5 -42t-32.5 -37.5q9 -7 55 -16.5t105 -9.5h125l-45 -128l-99 -1q-88 0 -138.5 15t-91.5 47q-6 27 -6 53zM99 215l59 18q-19 21 -25 45q-2 7 -2 21q0 33 20.5 61.5t52.5 35.5
q14 3 26 3q24 0 69 -13l-16 -61q-29 11 -52 11q-26 0 -39.5 -14.5t-9.5 -31.5q3 -12 17 -22.5t36 -10.5l81 25v-62l-217 -67v62z" />
    <glyph glyph-name="uni06D3.fina.alt2" horiz-adv-x="398" 
d="M51 -138q0 72 43 133.5t119 97.5t168 36h22l7 -64l-7 -65h-22q-67 0 -119 -18.5t-81.5 -42.5t-32.5 -37q10 -7 58.5 -16.5t129.5 -9.5q110 0 242 2l-46 -129q-85 -2 -196 -2q-126 0 -188 15.5t-91 46.5q-6 27 -6 53zM111 222l58 18q-19 21 -25 45q-2 14 -2 20
q0 34 20.5 62.5t52.5 35.5q14 3 27 3q24 0 69 -13l-16 -61q-31 11 -52 11q-26 0 -39.5 -14.5t-9.5 -31.5q3 -12 17 -22.5t36 -10.5l81 25v-61l-217 -68v62z" />
    <glyph glyph-name="uni0640.001" horiz-adv-x="35" 
d="M-3 0l-6 65l6 64h41v-129h-41z" />
    <glyph glyph-name="uni06B50627" horiz-adv-x="575" 
d="M522 518q8 -95 8 -189v-40q-2 -101 -61 -170.5t-155.5 -106t-213.5 -42.5l-32 122q64 6 90 10q9 27 9 64q0 134 -121 409l93 63q60 -124 92 -236t32 -197q0 -49 -10 -83q169 48 169 166q0 101 -8 194t-24 219l110 25q14 -113 22 -208zM397 937q13 -17 29 -48.5t25 -57.5
q8 28 24 62t29 53l40 -37q-19 -29 -38 -67.5t-31 -71.5l-45 -16q-10 32 -31 73t-41 72z" />
    <glyph glyph-name="uni06B50627.fina" horiz-adv-x="644" 
d="M472 122q-56 -69 -154 -107.5t-218 -44.5l-32 122q64 6 90 10q9 27 9 64q0 134 -121 409l93 63q60 -124 92 -236t32 -197q0 -49 -10 -83q169 48 169 166q0 101 -8 194t-24 219l110 25q30 -226 30 -400q0 -75 8.5 -116.5t32 -61t67.5 -19.5h11v-129h-12q-125 0 -165 122z
M397 937q13 -17 29 -48.5t25 -57.5q8 28 24 62t29 53l40 -37q-19 -29 -38 -67.5t-31 -71.5l-45 -16q-10 32 -31 73t-41 72z" />
    <glyph glyph-name="uni0664.ss03" horiz-adv-x="670" 
d="M135 64q0 175 -18 305q-21 161 -75 284l103 61q24 -51 46 -128q17 -50 40 -85q2 56 31.5 104.5t78 77.5t105.5 29q84 0 176 -74l-45 -91q-64 33 -128 33q-51 0 -85.5 -26.5t-34.5 -64.5q0 -36 32.5 -61t89.5 -25q72 0 159 40l28 -116q-42 -23 -95.5 -37t-108.5 -14
q-118 0 -203 67q8 -99 8 -241q0 -69 -1 -102h-104q1 21 1 64z" />
    <glyph glyph-name="uni0665.ss03" horiz-adv-x="670" 
d="M107 414q45 91 110 174l-32 21l66 112q156 -115 255.5 -242t99.5 -278q0 -97 -43.5 -153t-112.5 -56q-32 0 -61.5 15t-52.5 48q-38 -63 -117 -63q-76 0 -121.5 58.5t-45.5 151.5q0 11 2 39q8 82 53 173zM152 219q0 -46 19.5 -71t52.5 -25q35 0 51 33.5t16 75.5l85 14
q3 -49 18 -86t48 -37q67 0 67 95q0 148 -208 309q-61 -70 -99 -140.5t-48 -136.5q-2 -22 -2 -31z" />
    <glyph glyph-name="uni0666.ss03" horiz-adv-x="670" 
d="M262 302q-56 22 -88 73.5t-32 111.5q0 49 22.5 97.5t67.5 83.5t109 44q18 2 26 2q42 0 83 -16t65 -36l-44 -91q-42 20 -88 20q-9 0 -29 -2q-50 -6 -80.5 -36t-30.5 -64q0 -28 28 -48.5t73 -20.5q52 0 109 28q40 23 97 47l23 -129q-116 -44 -224 -145t-164 -243l-93 45
q53 157 170 279z" />
    <glyph glyph-name="uni06F0.ss03" horiz-adv-x="670" 
d="M245 56.5q-39 23.5 -62.5 62.5t-23.5 84q0 46 23 85t62.5 62t84.5 23q47 0 86.5 -23t62.5 -62t23 -85q0 -45 -23 -84.5t-62.5 -62.5t-86.5 -23q-45 0 -84 23.5zM281 153q20 -20 48 -20q29 0 49 20t20 50q0 31 -20 51t-49 20q-28 0 -48 -20.5t-20 -50.5t20 -50z" />
    <glyph glyph-name="uni06F1.ss03" horiz-adv-x="670" 
d="M294 64q0 175 -18 305q-22 166 -75 284l103 61q58 -122 82 -329q13 -124 13 -292q0 -63 -1 -93h-105q1 21 1 64z" />
    <glyph glyph-name="uni06F2.ss03" horiz-adv-x="670" 
d="M279 568q14 -26 37 -41.5t61 -15.5q54 0 77.5 33t23.5 96q0 26 -3 54l95 20q8 -46 8 -85q0 -107 -51 -178t-146 -72q-45 0 -83 19l2 -13q13 -124 13 -292q0 -63 -1 -93h-105q1 21 1 64q0 175 -18 305q-21 164 -74 284l102 61q11 -22 29 -72q18 -48 32 -74z" />
    <glyph glyph-name="uni06F3.ss03" horiz-adv-x="670" 
d="M470 553q15 -36 45 -36q20 0 31 22t11 61q0 36 -11 89l92 28q17 -66 17 -124q0 -90 -37 -146.5t-102 -56.5q-67 0 -109 73q-20 -40 -49.5 -62t-66.5 -22q-38 0 -70 15l1 -9q13 -108 13 -282q0 -70 -1 -103h-105q1 23 1 71q0 165 -17 298q-21 161 -75 284l102 61
q17 -34 30 -75q26 -69 49.5 -99.5t62.5 -30.5q36 0 57.5 37t17.5 105q-1 2 -1 7l90 15q9 -84 24 -120z" />
    <glyph glyph-name="uni06F4.ss03" horiz-adv-x="670" 
d="M134 64q0 175 -18 305q-22 166 -75 284l103 61q24 -51 46 -128q17 -50 40 -85q2 56 31.5 104.5t78 77.5t105.5 29q84 0 176 -74l-45 -91q-64 33 -128 33q-51 0 -85.5 -26.5t-34.5 -64.5q0 -36 32.5 -61t89.5 -25q72 0 159 40l28 -116q-42 -23 -95.5 -37t-108.5 -14
q-118 0 -203 67q9 -111 9 -244q0 -67 -1 -99h-105q1 21 1 64z" />
    <glyph glyph-name="uni06F5.ss03" horiz-adv-x="670" 
d="M107.5 415q45.5 92 109.5 173l-31 21l65 112q156 -114 255.5 -241.5t99.5 -278.5q0 -97 -43 -153t-112 -56q-72 0 -115 63q-38 -63 -117 -63q-76 0 -121.5 59t-45.5 153q0 11 2 37q8 82 53.5 174zM152 217q0 -45 19.5 -69.5t52.5 -24.5q35 0 51.5 34t15.5 75l86 14
q2 -48 17 -85.5t48 -37.5q67 0 67 95q0 149 -207 309q-61 -70 -99 -140.5t-48 -136.5q-3 -18 -3 -33z" />
    <glyph glyph-name="uni06F6.ss03" horiz-adv-x="670" 
d="M264 302q-56 22 -88 73.5t-32 111.5q0 49 22.5 97.5t67.5 83.5t109 44q18 2 26 2q42 0 82.5 -16t65.5 -36l-44 -91q-42 20 -89 20q-9 0 -29 -2q-49 -6 -79.5 -36t-30.5 -64q0 -28 28 -48t73 -20q54 0 113 30q52 28 93 44l22 -129q-116 -44 -223.5 -145t-163.5 -243
l-93 45q53 157 170 279z" />
    <glyph glyph-name="uni06F7.ss03" horiz-adv-x="670" 
d="M527 468.5q-51 -110.5 -94 -237t-59 -231.5h-100q-12 105 -54.5 231t-95 236.5t-93.5 173.5l97 71q47 -76 102 -208t95 -275q41 145 95 277.5t100 205.5l97 -71q-39 -62 -90 -172.5z" />
    <glyph glyph-name="uni06F8.ss03" horiz-adv-x="670" 
d="M119.5 226.5q50.5 110.5 93.5 236.5t59 232h100q12 -105 54.5 -231t95 -236.5t93.5 -173.5l-96 -71q-47 76 -102 207t-95 274q-41 -144 -95 -275.5t-101 -205.5l-96 71q39 62 89.5 172.5z" />
    <glyph glyph-name="uni06F9.ss03" horiz-adv-x="670" 
d="M405.5 109.5q-15.5 90.5 -24.5 195.5q-44 -13 -96 -13q-83 0 -131.5 48.5t-48.5 136.5q0 54 23.5 109.5t64.5 91.5t92 36q72 0 111.5 -52.5t53 -112.5t23.5 -142q34 -286 70 -372l-102 -62q-20 46 -35.5 136.5zM223.5 439.5q21.5 -17.5 65.5 -17.5q47 0 83 15
q-7 64 -29 110t-62 46q-32 0 -55.5 -32.5t-23.5 -74.5q0 -29 21.5 -46.5z" />
    <glyph glyph-name="uni06F4.urdu" horiz-adv-x="676" 
d="M148 64q0 175 -18 305q-22 166 -75 284l103 61q24 -51 46 -128q17 -50 40 -85q2 56 31.5 104.5t78 77.5t105.5 29q84 0 176 -74l-45 -91q-64 33 -127 33q-52 0 -86.5 -26.5t-34.5 -64.5q0 -36 32.5 -61t89.5 -25q72 0 159 40l28 -116q-42 -23 -95.5 -37t-108.5 -14
q-118 0 -203 67q9 -111 9 -244q0 -67 -1 -99h-105q1 21 1 64z" />
    <glyph glyph-name="uni06F7.urdu" horiz-adv-x="634" 
d="M520 466.5q-51 -110.5 -94 -237t-59 -232.5h-100q-12 105 -54.5 231t-95 236.5t-93.5 173.5l96 71q47 -75 102 -207t96 -275q41 144 94.5 276t100.5 206l97 -71q-39 -61 -90 -171.5z" />
    <glyph glyph-name="zero.ss02" horiz-adv-x="469" 
d="M141 56.5q-39 23.5 -62.5 62.5t-23.5 84q0 46 23 85t62.5 62t84.5 23q47 0 86.5 -23t62.5 -62t23 -85q0 -45 -23 -84.5t-62.5 -62.5t-86.5 -23q-45 0 -84 23.5zM177 153q20 -20 48 -20q29 0 49 20t20 50q0 31 -20 51t-49 20q-28 0 -48 -20.5t-20 -50.5t20 -50z" />
    <glyph glyph-name="one.ss02" horiz-adv-x="353" 
d="M148 64q0 175 -18 305q-22 166 -75 284l103 61q58 -122 82 -329q13 -124 13 -292q0 -63 -1 -93h-105q1 21 1 64z" />
    <glyph glyph-name="two.ss02" horiz-adv-x="544" 
d="M215 568q14 -26 37 -41.5t61 -15.5q53 0 77 33t24 97q0 25 -3 53l95 20q8 -45 8 -84q0 -107 -51 -178.5t-146 -72.5q-45 0 -83 19q2 -8 2 -13q13 -117 13 -276q0 -39 -2 -109h-104q1 21 1 64q0 175 -18 305q-22 166 -75 284l103 61q11 -22 29 -72q18 -48 32 -74z" />
    <glyph glyph-name="three.ss02" horiz-adv-x="698" 
d="M483 553.5q16 -36.5 46 -36.5q20 0 31 21.5t11 60.5t-12 90l93 28q17 -66 17 -124q0 -90 -37 -146.5t-102 -56.5q-67 0 -109 73q-21 -40 -50.5 -62t-66.5 -22q-39 0 -69 15l1 -9q13 -124 13 -292q0 -63 -1 -93h-105q1 21 1 64q0 175 -18 305q-21 164 -74 284l102 61
q11 -22 29 -72q26 -71 49.5 -102t62.5 -31q37 0 58.5 36t16.5 104q-1 3 -1 9l90 15q8 -83 24 -119.5z" />
    <glyph glyph-name="four.ss02" horiz-adv-x="675" 
d="M148 64q0 175 -18 305q-22 166 -75 284l103 61q24 -51 46 -128q17 -50 40 -85q2 56 31.5 104.5t78 77.5t105.5 29q84 0 176 -74l-45 -91q-64 33 -127 33q-52 0 -86.5 -26.5t-34.5 -64.5q0 -36 32.5 -61t89.5 -25q72 0 159 40l28 -116q-42 -23 -95.5 -37t-108.5 -14
q-118 0 -203 67q9 -111 9 -244q0 -67 -1 -99h-105q1 21 1 64z" />
    <glyph glyph-name="five.ss02" horiz-adv-x="631" 
d="M94 414q45 91 110 174l-32 21l66 112q156 -115 255.5 -242t99.5 -278q0 -64 -20 -111.5t-55.5 -72.5t-80.5 -25q-32 0 -62 15t-52 48q-38 -63 -117 -63q-76 0 -121.5 58.5t-45.5 151.5q0 11 2 39q8 82 53 173zM139 219q0 -46 19.5 -71t52.5 -25q35 0 51 33.5t16 75.5
l85 14q3 -49 18 -86t48 -37q66 0 66 95q0 149 -207 309q-61 -70 -99 -140.5t-48 -136.5q-2 -22 -2 -31z" />
    <glyph glyph-name="six.ss02" horiz-adv-x="556" 
d="M208 302q-56 22 -88 73.5t-32 111.5q0 49 22.5 97.5t67.5 83.5t109 44q18 2 26 2q42 0 82.5 -16t64.5 -36l-43 -91q-42 20 -89 20q-9 0 -29 -2q-49 -6 -79.5 -36t-30.5 -64q0 -28 28 -48t73 -20q54 0 113 30q52 28 93 44l22 -129q-116 -44 -223.5 -145t-163.5 -243
l-93 45q53 157 170 279z" />
    <glyph glyph-name="seven.ss02" horiz-adv-x="634" 
d="M520 469.5q-51 -110.5 -94 -237t-59 -232.5h-100q-12 105 -54.5 231t-95 236.5t-93.5 173.5l96 71q47 -75 102 -207t96 -275q41 145 95 277t100 205l97 -71q-39 -61 -90 -171.5z" />
    <glyph glyph-name="eight.ss02" horiz-adv-x="634" 
d="M113 226.5q51 110.5 94.5 236.5t59.5 232h100q12 -105 54.5 -231t95 -236t93.5 -174l-97 -71q-47 76 -102 207.5t-95 274.5q-41 -144 -95 -276t-101 -206l-96 71q38 62 89 172.5z" />
    <glyph glyph-name="nine.ss02" horiz-adv-x="525" 
d="M337.5 110.5q-15.5 91.5 -23.5 194.5q-44 -13 -96 -13q-83 0 -131.5 48.5t-48.5 136.5q0 54 23.5 109.5t64.5 91.5t91 36q72 0 111.5 -52.5t52.5 -110t25 -144.5q15 -128 31.5 -224.5t37.5 -147.5l-102 -62q-20 46 -35.5 137.5zM156.5 439.5q21.5 -17.5 65.5 -17.5
q47 0 83 15q-7 64 -29.5 110t-62.5 46q-32 0 -55 -32.5t-23 -74.5q0 -29 21.5 -46.5z" />
    <glyph glyph-name="zero.ss03" horiz-adv-x="670" 
d="M245 56.5q-39 23.5 -62.5 62.5t-23.5 84q0 46 23 85t62.5 62t84.5 23q47 0 86.5 -23t62.5 -62t23 -85q0 -45 -23 -84.5t-62.5 -62.5t-86.5 -23q-45 0 -84 23.5zM281 153q20 -20 48 -20q29 0 49 20t20 50q0 31 -20 51t-49 20q-28 0 -48 -20.5t-20 -50.5t20 -50z" />
    <glyph glyph-name="one.ss03" horiz-adv-x="670" 
d="M294 64q0 175 -18 305q-22 166 -75 284l103 61q58 -122 82 -329q13 -124 13 -292q0 -63 -1 -93h-105q1 21 1 64z" />
    <glyph glyph-name="two.ss03" horiz-adv-x="670" 
d="M279 568q14 -26 37 -41.5t61 -15.5q54 0 77.5 33t23.5 96q0 26 -3 54l95 20q8 -46 8 -85q0 -107 -51 -178t-146 -72q-45 0 -83 19l2 -13q13 -124 13 -292q0 -63 -1 -93h-105q1 21 1 64q0 175 -18 305q-21 164 -74 284l102 61q11 -22 29 -72q18 -48 32 -74z" />
    <glyph glyph-name="three.ss03" horiz-adv-x="670" 
d="M470 553q15 -36 45 -36q20 0 31 22t11 61q0 36 -11 89l92 28q17 -66 17 -124q0 -90 -37 -146.5t-102 -56.5q-67 0 -109 73q-20 -40 -49.5 -62t-66.5 -22q-38 0 -70 15l1 -9q13 -108 13 -282q0 -70 -1 -103h-105q1 23 1 71q0 165 -17 298q-21 161 -75 284l102 61
q17 -34 30 -75q26 -69 49.5 -99.5t62.5 -30.5q36 0 57.5 37t17.5 105q-1 2 -1 7l90 15q9 -84 24 -120z" />
    <glyph glyph-name="four.ss03" horiz-adv-x="670" 
d="M134 64q0 175 -18 305q-22 166 -75 284l103 61q24 -51 46 -128q17 -50 40 -85q2 56 31.5 104.5t78 77.5t105.5 29q84 0 176 -74l-45 -91q-64 33 -128 33q-51 0 -85.5 -26.5t-34.5 -64.5q0 -36 32.5 -61t89.5 -25q72 0 159 40l28 -116q-42 -23 -95.5 -37t-108.5 -14
q-118 0 -203 67q9 -111 9 -244q0 -67 -1 -99h-105q1 21 1 64z" />
    <glyph glyph-name="five.ss03" horiz-adv-x="670" 
d="M107.5 415q45.5 92 109.5 173l-31 21l65 112q156 -114 255.5 -241.5t99.5 -278.5q0 -97 -43 -153t-112 -56q-72 0 -115 63q-38 -63 -117 -63q-76 0 -121.5 59t-45.5 153q0 11 2 37q8 82 53.5 174zM152 217q0 -45 19.5 -69.5t52.5 -24.5q35 0 51.5 34t15.5 75l86 14
q2 -48 17 -85.5t48 -37.5q67 0 67 95q0 149 -207 309q-61 -70 -99 -140.5t-48 -136.5q-3 -18 -3 -33z" />
    <glyph glyph-name="six.ss03" horiz-adv-x="670" 
d="M264 302q-56 22 -88 73.5t-32 111.5q0 49 22.5 97.5t67.5 83.5t109 44q18 2 26 2q42 0 82.5 -16t65.5 -36l-44 -91q-42 20 -89 20q-9 0 -29 -2q-49 -6 -79.5 -36t-30.5 -64q0 -28 28 -48t73 -20q54 0 113 30q52 28 93 44l22 -129q-116 -44 -223.5 -145t-163.5 -243
l-93 45q53 157 170 279z" />
    <glyph glyph-name="seven.ss03" horiz-adv-x="670" 
d="M527 468.5q-51 -110.5 -94 -237t-59 -231.5h-100q-12 105 -54.5 231t-95 236.5t-93.5 173.5l97 71q47 -76 102 -208t95 -275q41 145 95 277.5t100 205.5l97 -71q-39 -62 -90 -172.5z" />
    <glyph glyph-name="eight.ss03" horiz-adv-x="670" 
d="M119.5 226.5q50.5 110.5 93.5 236.5t59 232h100q12 -105 54.5 -231t95 -236.5t93.5 -173.5l-96 -71q-47 76 -102 207t-95 274q-41 -144 -95 -275.5t-101 -205.5l-96 71q39 62 89.5 172.5z" />
    <glyph glyph-name="nine.ss03" horiz-adv-x="670" 
d="M405.5 109.5q-15.5 90.5 -24.5 195.5q-44 -13 -96 -13q-83 0 -131.5 48.5t-48.5 136.5q0 54 23.5 109.5t64.5 91.5t92 36q72 0 111.5 -52.5t53 -112.5t23.5 -142q34 -286 70 -372l-102 -62q-20 46 -35.5 136.5zM223.5 439.5q21.5 -17.5 65.5 -17.5q47 0 83 15
q-7 64 -29 110t-62 46q-32 0 -55.5 -32.5t-23.5 -74.5q0 -29 21.5 -46.5z" />
    </font>
</defs>
</svg>
