<?xml version="1.0" standalone="no"?>
<!DOCTYPE svg PUBLIC "-//W3C//DTD SVG 1.1//EN" "http://www.w3.org/Graphics/SVG/1.1/DTD/svg11.dtd" >
<svg xmlns="http://www.w3.org/2000/svg" xmlns:xlink="http://www.w3.org/1999/xlink" version="1.1">
<metadata>
Created by FontForge 20170731 at Wed Apr  6 17:12:58 2022
 By Aleksey,,,
Copyright (c) 2021 by www.fontiran.com (Moslem Ebrahimi). All rights reserved.
</metadata>
<defs>
<font id="IRANSansXFaNum-ExtraBold" horiz-adv-x="0" >
  <font-face 
    font-family="IRANSansXFaNum ExtraBold"
    font-weight="800"
    font-stretch="normal"
    units-per-em="1000"
    panose-1="0 0 0 0 0 0 0 0 0 0"
    ascent="800"
    descent="-200"
    x-height="528"
    cap-height="711"
    bbox="-110 -517 2372 1081"
    underline-thickness="36"
    underline-position="-267"
    unicode-range="U+000D-FEFF"
  />
<missing-glyph horiz-adv-x="255" 
d="M38 429h179v-433h-179v433zM208 4v417h-161v-417h161z" />
    <glyph glyph-name="uni06AA" unicode="&#x6a9;&#x621;&#x621;" horiz-adv-x="1245" 
d="M160 43q-104 57 -113 159q-1 8 -1 24q0 44 12 95t30 91l106 -50q-27 -93 -25 -126q4 -21 37.5 -39.5t95 -29.5t143.5 -11v-1h8q409 0 643 25q-2 28 -23 41.5t-83 19t-195 5.5q-174 0 -261 12.5t-130 46.5q-7 32 -7 67q0 94 52.5 171t143 126.5t201.5 63.5l30 -155
q-86 -13 -152 -39t-107 -57t-57 -60q39 -12 120.5 -17t275.5 -5q290 0 290 -194q0 -64 -24.5 -103t-72 -58.5t-124.5 -29.5q-120 -15 -222 -21t-298 -6h-8v-1q-181 -1 -285 56z" />
    <glyph glyph-name="uni06BE" unicode="&#x647;&#x621;&#x621;" horiz-adv-x="759" 
d="M135 169q-22 39 -22 80q0 18 5 41q15 57 41 105l-33 9l62 156q203 -58 318.5 -113t163 -110.5t47.5 -123.5q0 -45 -19 -102q-17 -53 -72.5 -79.5t-131.5 -26.5q-83 0 -163 27q-96 -32 -290 -32l34 168q41 0 60 1zM256.5 227.5q23.5 -20.5 62.5 -36.5q78 24 78 75
q0 30 -25.5 55t-57.5 25q-31 0 -56 -21.5t-25 -54.5q0 -22 23.5 -42.5zM508 151q35 0 58 7t28 21q3 8 3 14q0 41 -97 87q0 -21 -3 -42q-7 -47 -24 -85q24 -2 35 -2z" />
    <glyph glyph-name="uni06C0" unicode="&#x647;&#x654;" horiz-adv-x="491" 
d="M95.5 46.5q-52.5 51.5 -52.5 133.5q0 34 9 71q20 78 84 158l-34 21l86 126q134 -81 204 -166.5t70 -180.5q0 -63 -28.5 -111.5t-78 -75.5t-109.5 -27q-98 0 -150.5 51.5zM101 670q102 1 141 44q-9 4 -60 20q-33 11 -47.5 17.5t-23.5 19t-9 34.5q0 42 21 77t54 55.5
t66 20.5q40 0 69 -21l-33 -61q-15 5 -33 6q-30 0 -54 -17.5t-32 -42.5q12 -5 53 -18q48 -14 68.5 -28t20.5 -44q0 -36 -24.5 -68.5t-72 -51.5t-113.5 -16zM182.5 176q26.5 -16 75.5 -16q36 0 60 13t29 33q-18 59 -115 135q-76 -73 -76 -120q0 -29 26.5 -45z" />
    <glyph glyph-name="uni06D2" unicode="&#x649;&#x621;&#x621;" horiz-adv-x="983" 
d="M51 119q0 79 46 156t114.5 125t129.5 48q41 0 75 -25t55 -52.5t27 -40.5l-97 -85q-6 8 -27.5 21.5t-45.5 13.5q-38 0 -71 -22t-54.5 -48t-24.5 -35q6 -2 42.5 -8.5t102 -12.5t151.5 -6q169 0 275.5 5.5t212.5 13.5l-57 -168q-16 -2 -25 -2q-148 -17 -381 -17
q-144 0 -231.5 8.5t-134.5 25.5t-74 44q-8 32 -8 61z" />
    <glyph glyph-name="uni06D3" unicode="&#x626;&#x621;&#x621;" horiz-adv-x="983" 
d="M51 119q0 79 46 156t114.5 125t129.5 48q41 0 75 -25t55 -52.5t27 -40.5l-97 -85q-6 8 -27.5 21.5t-45.5 13.5q-38 0 -71 -22t-54.5 -48t-24.5 -35q6 -2 42.5 -8.5t102 -12.5t151.5 -6q169 0 275.5 5.5t212.5 13.5l-57 -168q-16 -2 -25 -2q-148 -17 -381 -17
q-144 0 -231.5 8.5t-134.5 25.5t-74 44q-8 32 -8 61zM166 562l54 16q-15 20 -19 41q-2 7 -2 21q0 35 22 66t55 39q14 3 27 3q27 0 71 -14l-19 -73q-30 11 -51 11q-23 0 -34 -10.5t-11 -25.5q0 -11 13.5 -22.5t38.5 -7.5l77 23v-74l-222 -67v74z" />
    <glyph glyph-name="uni06C0.fina" unicode="&#xfeea;&#x654;" horiz-adv-x="529" arabic-form="final" 
d="M371 66q-60 -19 -119 -19q-92 0 -151 45.5t-59 123.5q0 10 2 30q12 79 74.5 135t160.5 97l-8 61l128 27q8 -77 15 -127q12 -118 18 -158q7 -51 15.5 -74t23.5 -31t46 -8h19l9 -84l-9 -84h-19q-97 0 -146 66zM71 580q103 1 141 43q-13 6 -60 21q-33 11 -47.5 17.5t-24 19
t-9.5 35.5q0 41 21.5 76t54.5 55.5t66 20.5q41 0 68 -21l-33 -61q-3 1 -11 3t-22 3q-29 0 -53 -17.5t-32 -43.5q12 -5 53 -18q47 -14 67.5 -27.5t21.5 -42.5q0 -36 -24.5 -68.5t-72.5 -52t-114 -16.5zM186 214.5q23 -12.5 60 -12.5q29 0 70 11q-3 15 -7 45l-11 75
q-55 -18 -95 -42.5t-40 -45.5q0 -18 23 -30.5z" />
    <glyph glyph-name="uni06C1.fina" unicode="&#xfeea;&#x621;&#x621;" horiz-adv-x="594" arabic-form="final" 
d="M598 168l9 -84l-9 -84h-6q-101 0 -175.5 56t-122.5 141q-44 -20 -88 -78t-66 -121l-97 61q19 87 76.5 170t122.5 117q36 19 63 19q48 0 89 -56q10 -15 11 -17q26 -39 47.5 -64t55.5 -42.5t82 -17.5h8z" />
    <glyph glyph-name="uni06C1.medi" unicode="&#xfeec;&#xfe8c;&#xfe8c;&#xfe8c;&#xfe8c;" horiz-adv-x="545" arabic-form="medial" 
d="M204.5 -153.5q-62.5 84.5 -80.5 182.5q-48 -29 -115 -29h-14v168h27q53 0 72 15t25 47l111 25l-1 -38q0 -177 65 -289q6 62 39.5 117.5t84 89t103.5 33.5h28l9 -84l-9 -84h-28q-56 0 -86.5 -37.5t-30.5 -86.5q0 -43 21 -71l-80 -80q-78 37 -140.5 121.5z" />
    <glyph glyph-name="uni06BE.fina" unicode="&#xfeea;&#x621;&#x621;&#x621;&#x621;" horiz-adv-x="596" arabic-form="final" 
d="M405 -240q-53 0 -103.5 26.5t-88 81t-49.5 132.5h-11l-69 2l-49 139l129 10q23 199 119 353l84 22q72 -40 117.5 -116t45.5 -156q0 -45 -14 -85q25 -1 85 -1l9 -84l-9 -84q-40 0 -57 1q22 -49 22 -93q0 -32 -12.5 -61t-38.5 -50q-46 -37 -110 -37zM387.5 202.5
q36.5 25.5 36.5 52.5q0 24 -22.5 56t-54.5 48q-22 -30 -39.5 -83t-25.5 -113q69 14 105.5 39.5zM341.5 -59q33.5 -25 72.5 -25q14 0 32 5q4 4 -1.5 23.5t-25 43t-56.5 40.5q-30 -11 -72 -19q17 -43 50.5 -68z" />
    <glyph glyph-name="uni06BE.medi" unicode="&#xfeec;&#xfe8c;&#xfe8c;&#xfe8c;" horiz-adv-x="697" arabic-form="medial" 
d="M-4 168h16q41 0 59 1q-22 39 -22 80q0 18 5 41q16 61 42 105l-33 9l62 156q203 -60 318.5 -114.5t163 -110t47.5 -121.5q0 -19 -5 -46h53l9 -84l-9 -84q-62 0 -106 2t-87 11q-33 -8 -80 -8q-80 0 -161 26q-90 -31 -256 -31h-16v168zM191.5 227q22.5 -20 61.5 -37
q80 24 80 73q0 24 -15.5 45.5t-39.5 32.5q-7 1 -16 5h-1q-4 1 -11 1q-31 0 -56 -22.5t-25 -55.5q0 -22 22.5 -42zM446 150q34 0 56 7t28 21q3 8 3 14q0 42 -98 88q0 -21 -3 -42q-8 -50 -25 -86q28 -2 39 -2z" />
    <glyph glyph-name="uni06D2.fina" unicode="&#xfbfd;&#x621;&#x621;" horiz-adv-x="452" arabic-form="final" 
d="M53 -146q0 81 47.5 153.5t130.5 116.5t184 44h42l9 -84l-9 -84h-42q-70 0 -123 -19.5t-83.5 -43t-32.5 -30.5q32 -10 94 -17t146 -7q149 0 315 6l-59 -169q-105 -6 -256 -6q-280 0 -355 75q-8 29 -8 65z" />
    <glyph glyph-name="uni06D3.fina" unicode="&#xfe8a;&#x621;&#x621;" horiz-adv-x="452" arabic-form="final" 
d="M53 -146q0 81 47.5 153.5t130.5 116.5t184 44h42l9 -84l-9 -84h-42q-70 0 -123 -19.5t-83.5 -43t-32.5 -30.5q32 -10 94 -17t146 -7q149 0 315 6l-59 -169q-105 -6 -256 -6q-280 0 -355 75q-8 29 -8 65zM96 265l54 16q-13 16 -20 41q-2 7 -2 21q0 36 22 66.5t55 38.5
q13 4 29 4q29 0 69 -14l-18 -74q-33 11 -54 11q-22 0 -33.5 -12.5t-8.5 -26.5q2 -10 12.5 -18.5t28.5 -8.5q10 0 20 3l68 20v-73l-222 -67v73z" />
    <glyph glyph-name="uni06440622" unicode="&#xfedf;&#xfe82;" horiz-adv-x="604" arabic-form="isolated" 
d="M562 312q0 -105 -65 -181.5t-171 -117t-229 -42.5l-40 154q27 2 89 8q12 32 12 72q0 68 -30 163t-86 218l118 81q58 -116 87 -218.5t29 -184.5q0 -64 -18 -112q80 20 124.5 57t44.5 100q-1 101 -9 191.5t-25 223.5l140 31q30 -233 29 -443zM57.5 787.5
q29.5 25.5 63.5 25.5q17 0 31.5 -4.5t32.5 -13.5q18 -8 28.5 -12t22.5 -4q16 0 33 10t28 27l49 -41q-23 -35 -51 -54t-59 -19q-17 0 -31.5 4.5t-35.5 14.5q-12 5 -24 9.5t-22 4.5q-18 0 -35 -13.5t-27 -36.5l-53 32q20 45 49.5 70.5z" />
    <glyph glyph-name="uni06440622.fina" unicode="&#xfee0;&#xfe82;" horiz-adv-x="673" arabic-form="final" 
d="M487 119q-63 -69 -166.5 -107.5t-223.5 -40.5l-40 154q27 2 89 8q12 32 12 72q0 68 -30 163t-86 218l118 81q58 -116 87 -218.5t29 -184.5q0 -64 -18 -112q80 20 124.5 57t44.5 100q-1 101 -9 191.5t-25 223.5l140 31q30 -233 29 -443v-7q3 -56 13 -85t31.5 -40.5
t60.5 -11.5h12v-168h-13q-133 0 -179 119zM59.5 787.5q30.5 25.5 63.5 25.5q17 0 31.5 -4.5t32.5 -13.5q18 -8 28.5 -12t22.5 -4q17 0 34 10.5t27 26.5l49 -41q-23 -35 -51 -54t-59 -19q-17 0 -31.5 4.5t-35.5 14.5q-12 5 -24 9.5t-22 4.5q-18 0 -35 -13.5t-27 -36.5l-53 32
q19 45 49.5 70.5z" />
    <glyph glyph-name="uni06440623" unicode="&#xfedf;&#xfe84;" horiz-adv-x="604" arabic-form="isolated" 
d="M562 312q0 -105 -65 -181.5t-171 -117t-229 -42.5l-40 154q27 2 89 8q12 32 12 72q0 68 -30 163t-86 218l118 81q58 -116 87 -218.5t29 -184.5q0 -64 -18 -112q80 20 124.5 57t44.5 100q-1 101 -9 191.5t-25 223.5l140 31q30 -233 29 -443zM8 744l54 16q-13 16 -20 41
q-2 7 -2 21q0 36 22 66.5t55 38.5q13 4 29 4q29 0 69 -14l-18 -74q-33 11 -54 11q-22 0 -33.5 -12.5t-8.5 -26.5q2 -10 12.5 -18.5t28.5 -8.5q10 0 20 3l68 20v-73l-222 -67v73z" />
    <glyph glyph-name="uni06440623.fina" unicode="&#xfee0;&#xfe84;" horiz-adv-x="673" arabic-form="final" 
d="M487 119q-63 -69 -166.5 -107.5t-223.5 -40.5l-40 154q27 2 89 8q12 32 12 72q0 68 -30 163t-86 218l118 81q58 -116 87 -218.5t29 -184.5q0 -64 -18 -112q80 20 124.5 57t44.5 100q-1 101 -9 191.5t-25 223.5l140 31q30 -233 29 -443v-7q3 -56 13 -85t31.5 -40.5
t60.5 -11.5h12v-168h-13q-133 0 -179 119zM8 744l54 16q-13 16 -20 41q-2 7 -2 21q0 36 22 66.5t55 38.5q13 4 29 4q29 0 69 -14l-18 -74q-33 11 -54 11q-22 0 -33.5 -12.5t-8.5 -26.5q2 -10 12.5 -18.5t28.5 -8.5q10 0 20 3l68 20v-73l-222 -67v73z" />
    <glyph glyph-name="uni06440625" unicode="&#xfedf;&#xfe88;" horiz-adv-x="604" arabic-form="isolated" 
d="M562 312q0 -105 -65 -181.5t-171 -117t-229 -42.5l-40 154q27 2 89 8q12 32 12 72q0 68 -30 163t-86 218l118 81q58 -116 87 -218.5t29 -184.5q0 -64 -18 -112q80 20 124.5 57t44.5 100q-1 101 -9 191.5t-25 223.5l140 31q30 -233 29 -443zM40 -266l54 16q-15 20 -19 41
q-3 10 -3 22q0 35 22.5 65.5t55.5 38.5q14 3 27 3q27 0 71 -14l-19 -73q-30 11 -51 11q-24 0 -36 -12.5t-9 -27.5q2 -11 15.5 -20t36.5 -6l77 23v-74l-222 -67v74z" />
    <glyph glyph-name="uni06440625.fina" unicode="&#xfee0;&#xfe88;" horiz-adv-x="673" arabic-form="final" 
d="M487 119q-63 -69 -166.5 -107.5t-223.5 -40.5l-40 154q27 2 89 8q12 32 12 72q0 68 -30 163t-86 218l118 81q58 -116 87 -218.5t29 -184.5q0 -64 -18 -112q80 20 124.5 57t44.5 100q-1 101 -9 191.5t-25 223.5l140 31q30 -233 29 -443v-7q3 -56 13 -85t31.5 -40.5
t60.5 -11.5h12v-168h-13q-133 0 -179 119zM40 -261l54 16q-15 20 -19 40q-3 10 -3 22q0 36 22.5 66t55.5 38q13 4 29 4q27 0 69 -14l-19 -73q-30 11 -51 11q-24 0 -36 -12.5t-9 -27.5q2 -11 15.5 -20t36.5 -6l77 23v-74l-222 -67v74z" />
    <glyph glyph-name="uni06440627" unicode="&#xfedf;&#xfe8e;" horiz-adv-x="603" arabic-form="isolated" 
d="M562 312q0 -105 -65 -181.5t-171 -117t-229 -42.5l-40 154q27 2 89 8q12 32 12 72q0 68 -30 163t-86 218l118 81q58 -116 87 -218.5t29 -184.5q0 -64 -18 -112q80 20 124.5 57t44.5 100q-1 101 -9 191.5t-25 223.5l140 31q30 -233 29 -443z" />
    <glyph glyph-name="uni06440627.fina" unicode="&#xfee0;&#xfe8e;" horiz-adv-x="674" arabic-form="final" 
d="M487 119q-63 -69 -166.5 -107.5t-223.5 -40.5l-40 154q27 2 89 8q12 32 12 72q0 68 -30 163t-86 218l118 81q58 -116 87 -218.5t29 -184.5q0 -64 -18 -112q80 20 124.5 57t44.5 100q-1 101 -9 191.5t-25 223.5l140 31q30 -233 29 -443v-7q3 -56 13 -85t31.5 -40.5
t60.5 -11.5h12v-168h-13q-133 0 -179 119z" />
    <glyph glyph-name="uni06AA.001" unicode="&#x6af;&#x621;&#x621;" horiz-adv-x="1245" 
d="M160 43q-104 57 -113 159q-1 8 -1 24q0 44 12 95t30 91l106 -50q-27 -93 -25 -126q4 -21 37.5 -39.5t95 -29.5t143.5 -11v-1h8q409 0 643 25q-2 28 -23 41.5t-83 19t-195 5.5q-174 0 -261 12.5t-130 46.5q-7 32 -7 67q0 94 52.5 171t143 126.5t201.5 63.5l30 -155
q-86 -13 -152 -39t-107 -57t-57 -60q39 -12 120.5 -17t275.5 -5q290 0 290 -194q0 -64 -24.5 -103t-72 -58.5t-124.5 -29.5q-120 -15 -222 -21t-298 -6h-8v-1q-181 -1 -285 56zM492 750q76 54 161 76l15 -65q-77 -20 -146.5 -69.5t-109.5 -112.5l-30 61q34 56 110 110z" />
    <glyph glyph-name="uni06AA.fina" unicode="&#xfb8f;&#x621;&#x621;" horiz-adv-x="1259" 
d="M1189.5 18.5q-30.5 18.5 -50.5 49.5q-27 -21 -68 -33.5t-98 -19.5q-120 -15 -222 -21t-298 -6h-8v-1q-181 -1 -285 56t-113 159q-1 8 -1 24q0 44 12 95t30 91l106 -50q-27 -93 -25 -126q4 -21 37.5 -39.5t95 -29.5t143.5 -11v-1h8q409 0 643 25q-2 28 -23 41.5t-83 19
t-195 5.5q-174 0 -261 12.5t-130 46.5q-7 32 -7 67q0 94 52.5 171t143 126.5t201.5 63.5l30 -155q-86 -13 -152 -39t-107 -57t-57 -60q39 -12 120.5 -17t275.5 -5q301 0 290 -208q7 -13 23 -18.5t42 -5.5h9l9 -84l-9 -84h-9q-39 0 -69.5 18.5z" />
    <glyph glyph-name="uni06AA.fina.001" unicode="&#xfb93;&#x621;&#x621;" horiz-adv-x="1259" 
d="M1189.5 18.5q-30.5 18.5 -50.5 49.5q-27 -21 -68 -33.5t-98 -19.5q-120 -15 -222 -21t-298 -6h-8v-1q-181 -1 -285 56t-113 159q-1 8 -1 24q0 44 12 95t30 91l106 -50q-27 -93 -25 -126q4 -21 37.5 -39.5t95 -29.5t143.5 -11v-1h8q409 0 643 25q-2 28 -23 41.5t-83 19
t-195 5.5q-174 0 -261 12.5t-130 46.5q-7 32 -7 67q0 94 52.5 171t143 126.5t201.5 63.5l30 -155q-86 -13 -152 -39t-107 -57t-57 -60q39 -12 120.5 -17t275.5 -5q301 0 290 -208q7 -13 23 -18.5t42 -5.5h9l9 -84l-9 -84h-9q-39 0 -69.5 18.5zM492 741q76 54 161 76l15 -65
q-77 -20 -146.5 -69.5t-109.5 -112.5l-30 61q34 56 110 110z" />
    <glyph glyph-name="uni06AA.medi" unicode="&#xfb91;&#xfe8c;&#xfe8c;" horiz-adv-x="918" 
d="M848 18q-30 18 -51 48q-54 -45 -168 -50q-278 -16 -606 -16h-28v168h28q209 0 418 3t312 9q-3 28 -24.5 42t-83.5 19.5t-194 5.5q-175 0 -261.5 12.5t-129.5 46.5q-7 32 -7 67q0 94 52.5 171t143.5 126.5t202 63.5l29 -155q-85 -13 -151 -39.5t-107.5 -57.5t-57.5 -59
q40 -13 121 -18t276 -5q146 0 221 -50t69 -160q8 -12 22.5 -17t39.5 -5h10v-168h-10q-35 0 -65 18z" />
    <glyph glyph-name="uni06AA.medi.001" unicode="&#xfb95;&#xfe8c;&#xfe8c;" horiz-adv-x="918" 
d="M848 18q-30 18 -51 48q-54 -45 -168 -50q-278 -16 -606 -16h-28v168h28q209 0 418 3t312 9q-3 28 -24.5 42t-83.5 19.5t-194 5.5q-175 0 -261.5 12.5t-129.5 46.5q-7 32 -7 67q0 94 52.5 171t143.5 126.5t202 63.5l29 -155q-85 -13 -151 -39.5t-107.5 -57.5t-57.5 -59
q40 -13 121 -18t276 -5q146 0 221 -50t69 -160q8 -12 22.5 -17t39.5 -5h10v-168h-10q-35 0 -65 18zM144 742.5q76 54.5 161 75.5l16 -65q-76 -19 -146 -68.5t-111 -113.5l-29 61q33 56 109 110.5z" />
    <glyph glyph-name="uni06AA.init" unicode="&#xfb90;&#xfe8c;&#xfe8c;" horiz-adv-x="902" 
d="M-5 168h28q209 0 418 3t312 9q-3 28 -24.5 42t-83.5 19.5t-194 5.5q-175 0 -261.5 12.5t-129.5 46.5q-7 32 -7 67q0 94 52.5 171t143.5 126.5t202 63.5l29 -155q-85 -13 -151 -39.5t-107.5 -57.5t-57.5 -59q40 -13 121 -18t276 -5q141 0 215.5 -46.5t74.5 -147.5
q0 -95 -55 -140t-167 -50q-278 -16 -606 -16h-28v168z" />
    <glyph glyph-name="uni06AA.init.001" unicode="&#xfb94;&#xfe8c;&#xfe8c;" horiz-adv-x="902" 
d="M-5 168h28q209 0 418 3t312 9q-3 28 -24.5 42t-83.5 19.5t-194 5.5q-175 0 -261.5 12.5t-129.5 46.5q-7 32 -7 67q0 94 52.5 171t143.5 126.5t202 63.5l29 -155q-85 -13 -151 -39.5t-107.5 -57.5t-57.5 -59q40 -13 121 -18t276 -5q141 0 215.5 -46.5t74.5 -147.5
q0 -95 -55 -140t-167 -50q-278 -16 -606 -16h-28v168zM144 742.5q76 54.5 161 75.5l16 -65q-76 -19 -146 -68.5t-111 -113.5l-29 61q33 56 109 110.5z" />
    <glyph glyph-name="uni0647.fina.alt" unicode="&#xfeea;&#x621;&#x621;&#x621;" horiz-adv-x="684" 
d="M416 31q-80 -26 -161 -26q-77 0 -132.5 26.5t-72.5 79.5q-19 59 -19 103q0 66 47 121.5t162.5 110t318.5 114.5l62 -156l-33 -9q26 -44 42 -105q5 -23 5 -41q0 -41 -22 -80q18 -1 59 -1h16v-168h-16q-166 0 -256 31zM182 157q22 -7 56 -7q11 0 39 2q-17 36 -25 86
q-3 21 -3 42q-98 -46 -98 -88q0 -6 3 -14q6 -14 28 -21zM431 190q39 17 61.5 37t22.5 42q0 24 -14 43t-35.5 28t-42.5 6h-1q-9 -4 -16 -5q-24 -11 -39.5 -32.5t-15.5 -45.5q0 -49 80 -73z" />
    <glyph glyph-name="uni0647.medi.alt" unicode="&#xfeec;&#xfe8c;&#xfe8c;" horiz-adv-x="493" 
d="M203 -232q-60 30 -101.5 89t-55.5 143h-19h-31v168h31h18q14 107 52.5 204.5t79.5 131.5l70 12q74 -41 118.5 -112t44.5 -150q0 -59 -23 -105q41 19 88 19h24l9 -84l-9 -84h-24q-42 0 -66.5 -20.5t-24.5 -50.5t24 -57l-75 -137q-70 3 -130 33zM260 213.5q35 20.5 35 42.5
q0 21 -18 45.5t-51 46.5q-20 -29 -36 -73t-25 -94q60 12 95 32.5zM208 -52.5q26 -26.5 59 -37.5q-2 12 -2 35q0 57 24 108q-48 -27 -121 -41q14 -38 40 -64.5z" />
    <glyph glyph-name="uni0647.init.alt" unicode="&#xfeeb;&#xfe8c;&#xfe8c;" horiz-adv-x="499" 
d="M51 169q11 84 37 164.5t55 131.5l114 53q63 -41 105.5 -103.5t42.5 -142.5q0 -111 -78 -180q103 -54 119 -156q2 -10 2 -29q0 -46 -21.5 -85t-60 -62.5t-86.5 -23.5q-58 0 -107 31t-82 91t-43 143q-14 -1 -45 -1h-8v168h6q34 0 50 1zM206 -81.5q32 -36.5 73 -36.5
q24 0 37.5 13.5t9.5 32.5q-7 35 -44 59.5t-102 32.5q-5 -2 -17 -4q11 -61 43 -97.5zM262.5 212.5q28.5 22.5 28.5 59.5q0 28 -19.5 54t-47.5 44q-16 -36 -30.5 -86.5t-23.5 -104.5q64 11 92.5 33.5z" />
    <glyph glyph-name="uni06D2.fina.alt2" unicode="&#xfbfd;&#x621;&#x621;&#x621;&#x621;&#x621;" horiz-adv-x="428" 
d="M52 -146q0 81 47.5 153.5t130.5 116.5t184 44h20l9 -84l-9 -84h-20q-70 0 -123 -20t-83.5 -43t-32.5 -30q2 -2 26.5 -8t68 -11t102.5 -5q100 0 237 2l-58 -169q-78 -2 -179 -2q-133 0 -205.5 18.5t-106.5 56.5q-8 29 -8 65z" />
    <glyph glyph-name="uni06D2.fina.alt3" unicode="&#xfbfd;&#x621;&#x621;&#x621;&#x621;" horiz-adv-x="452" 
d="M53 -146q0 81 47.5 153.5t130.5 116.5t184 44h42l9 -84l-9 -84h-42q-70 0 -123 -19.5t-83.5 -43t-32.5 -30.5q32 -10 94 -17t146 -7q149 0 315 6l-59 -169q-105 -6 -256 -6q-280 0 -355 75q-8 29 -8 65z" />
    <glyph glyph-name="uni06D2.fina.alt4" unicode="&#xfbfd;&#x621;&#x621;&#x621;" horiz-adv-x="425" 
d="M40 -146q0 81 47.5 153.5t130.5 116.5t184 44h30l9 -84l-9 -84h-30q-70 0 -123 -19.5t-83.5 -43t-32.5 -30.5q40 -10 116.5 -17t182.5 -7q149 0 359 8l-59 -168q-149 -9 -300 -9q-134 0 -216 8t-127 24.5t-71 42.5q-8 29 -8 65z" />
    <glyph glyph-name="uni06440671" unicode="&#xfedf;&#xfb51;" horiz-adv-x="604" 
d="M562 312q0 -105 -65 -181.5t-171 -117t-229 -42.5l-40 154q27 2 89 8q12 32 12 72q0 68 -30 163t-86 218l118 81q58 -116 87 -218.5t29 -184.5q0 -64 -18 -112q80 20 124.5 57t44.5 100q-1 101 -9 191.5t-25 223.5l140 31q30 -233 29 -443zM53 769.5q23 18.5 52 18.5
q11 0 31 -5q27 50 65.5 79t77.5 29q37 0 61.5 -25.5t24.5 -63.5q0 -41 -28 -71.5t-73 -39.5q-18 -3 -34 -3q-31 0 -79 15q-34 11 -46 11q-17 0 -29.5 -10t-15.5 -16l-47 31q17 32 40 50.5zM238 758q10 0 15 1q29 4 45 15t16 23q0 10 -12.5 16.5t-27.5 6.5q-21 0 -42.5 -14
t-39.5 -40q27 -8 46 -8z" />
    <glyph glyph-name="uni06440671.fina" unicode="&#xfee0;&#xfb51;" horiz-adv-x="673" 
d="M487 119q-63 -69 -166.5 -107.5t-223.5 -40.5l-40 154q27 2 89 8q12 32 12 72q0 68 -30 163t-86 218l118 81q58 -116 87 -218.5t29 -184.5q0 -64 -18 -112q80 20 124.5 57t44.5 100q-1 101 -9 191.5t-25 223.5l140 31q30 -233 29 -443v-7q3 -56 13 -85t31.5 -40.5
t60.5 -11.5h12v-168h-13q-133 0 -179 119zM44 769.5q23 18.5 52 18.5q11 0 31 -5q27 50 65.5 79t77.5 29q37 0 61.5 -25.5t24.5 -63.5q0 -41 -28 -71.5t-72 -39.5q-18 -3 -34 -3q-32 0 -80 15q-34 11 -46 11q-24 0 -34.5 -13l-10.5 -13l-47 31q17 32 40 50.5zM229 758
q11 0 16 1q28 4 44 15t16 23q0 10 -12 16.5t-28 6.5q-21 0 -42.5 -14t-39.5 -40q27 -8 46 -8z" />
    <glyph glyph-name="uni06A90644" unicode="&#xfb90;&#xfede;" horiz-adv-x="1166" 
d="M657 40q-15 -144 -98 -224t-220 -80q-81 0 -149 32.5t-109 93.5t-41 143q0 11 2 33q5 57 25 119.5t44 113.5l106 -49q-26 -58 -39.5 -100.5t-13.5 -87.5q0 -57 48.5 -93t126.5 -36q98 0 150 48.5t50 148.5q-4 155 -18 336.5t-29 285.5l139 31q20 -142 27 -517
q12 -36 41 -53t84 -17q66 0 102 11.5t58 31.5q-19 55 -71 126t-138 150l13 144l373 157l46 -134l-281 -119q20 -19 62.5 -73.5t79 -125.5t36.5 -133q0 -12 -4 -34q-18 -84 -94.5 -126.5t-181.5 -42.5q-75 0 -126 40z" />
    <glyph glyph-name="uni06A90644.fina" unicode="&#xfb91;&#xfede;" horiz-adv-x="1222" 
d="M657 40q-15 -144 -98 -224t-220 -80q-81 0 -149 32.5t-109 93.5t-41 143q0 11 2 33q5 57 25 119.5t44 113.5l106 -49q-26 -58 -39.5 -100.5t-13.5 -87.5q0 -57 48.5 -93t126.5 -36q98 0 150 48.5t50 148.5q-4 155 -18 336.5t-29 285.5l139 31q20 -142 27 -517
q12 -36 41 -53t84 -17q66 0 102 11.5t58 31.5q-19 55 -71 126t-138 150l13 144l373 157l46 -134l-281 -119q17 -16 56.5 -65.5t70.5 -105.5q63 -106 109.5 -151t91.5 -45h18l9 -84l-9 -84h-18q-47 0 -87.5 28t-86.5 87q-33 -57 -101.5 -86t-154.5 -29q-75 0 -126 40z" />
    <glyph glyph-name="uni06AF0644" unicode="&#xfb94;&#xfede;" horiz-adv-x="1166" 
d="M657 40q-15 -144 -98 -224t-220 -80q-81 0 -149 32.5t-109 93.5t-41 143q0 11 2 33q5 57 25 119.5t44 113.5l106 -49q-26 -58 -39.5 -100.5t-13.5 -87.5q0 -57 48.5 -93t126.5 -36q98 0 150 48.5t50 148.5q-4 155 -18 336.5t-29 285.5l139 31q20 -141 27 -514
q12 -38 40.5 -55.5t84.5 -17.5q66 0 102.5 11.5t57.5 31.5q-23 52 -70.5 111t-138.5 134l13 144l373 156l46 -134l-281 -119q50 -45 114 -130t64 -170q0 -19 -4 -34q-19 -84 -95 -126.5t-181 -42.5q-75 0 -126 40zM756 719l327 133l17 -51l-351 -146z" />
    <glyph glyph-name="uni06AF0644.fina" unicode="&#xfb95;&#xfede;" horiz-adv-x="1223" 
d="M657 40q-15 -144 -98 -224t-220 -80q-81 0 -149 32.5t-109 93.5t-41 143q0 11 2 33q5 57 25 119.5t44 113.5l106 -49q-26 -58 -39.5 -100.5t-13.5 -87.5q0 -57 48.5 -93t126.5 -36q98 0 150 48.5t50 148.5q-4 155 -18 336.5t-29 285.5l139 31q20 -142 27 -517
q12 -36 41 -53t84 -17q66 0 102.5 11.5t57.5 31.5q-23 52 -70.5 111t-138.5 134l13 144l373 156l46 -134l-281 -119q19 -16 56 -56.5t68 -89.5q52 -78 85.5 -118t60.5 -55.5t59 -15.5h18l9 -84l-9 -84h-18q-47 0 -89 27t-88 85q-34 -56 -101.5 -84t-152.5 -28q-75 0 -126 40
zM756 719l327 133l17 -51l-351 -146z" />
    <glyph glyph-name="uni064406440647" unicode="&#xfedf;&#xfee0;&#x651;&#x670;&#xfeea;" horiz-adv-x="1005" 
d="M633 55q-54 -60 -137 -60q-92 0 -142 66q-63 -17 -115 -17q-90 0 -144 42.5t-54 118.5q0 82 61 144t167 99l-8 59l128 28q22 -196 29 -273q5 -54 19 -76.5t56 -22.5q36 0 54.5 19t18.5 42q-6 154 -20 306l130 30q12 -158 21 -350q1 -6 8.5 -16.5t23 -19.5t39.5 -9
q33 0 51 16t18 44q0 32 -11 167t-22 228l129 29q11 -84 20.5 -214t9.5 -190q0 -77 -23.5 -133t-66.5 -85.5t-99 -29.5q-86 0 -141 58zM172.5 200q24.5 -11 61.5 -11q38 0 69 9l-13 87q-1 11 -5 40q-58 -21 -97.5 -47t-39.5 -50q0 -17 24.5 -28zM475 730q5 21 10 33l51 -18
q-10 -23 -10 -38q0 -10 6.5 -16t17.5 -6q36 0 36 48q0 12 -1 19l50 9q4 -36 15.5 -52t27.5 -16q24 0 24 23q0 4 -2 12q-7 19 -27 52l51 29q17 -26 26.5 -47.5t9.5 -47.5q0 -40 -21 -66.5t-59 -26.5q-19 0 -35.5 8t-28.5 24q-11 -18 -29 -28.5t-37 -10.5q-38 0 -59 23t-21 56
q0 16 5 37zM642 971q3 -39 3 -92q0 -48 -1 -72l-59 2q2 46 2 71q0 50 -3 87z" />
    <glyph glyph-name="uniFDF2" unicode="&#x627;&#xfedf;&#xfee0;&#xfeea;" horiz-adv-x="1241" 
d="M633 55q-54 -60 -137 -60q-92 0 -142 66q-63 -17 -115 -17q-90 0 -144 42.5t-54 118.5q0 82 61 144t167 99l-8 59l128 28q22 -196 29 -273q5 -54 19 -76.5t56 -22.5q36 0 54.5 19t18.5 42q-6 154 -20 306l130 30q12 -158 21 -350q1 -6 8.5 -16.5t23 -19.5t39.5 -9
q33 0 51 16t18 44q0 32 -11 167t-22 228l129 29q11 -84 20.5 -214t9.5 -190q0 -77 -23.5 -133t-66.5 -85.5t-99 -29.5q-86 0 -141 58zM172.5 200q24.5 -11 61.5 -11q38 0 69 9l-13 87q-1 11 -5 40q-58 -21 -97.5 -47t-39.5 -50q0 -17 24.5 -28zM475 730q5 21 10 33l51 -18
q-10 -23 -10 -38q0 -10 6.5 -16t17.5 -6q36 0 36 48q0 12 -1 19l50 9q4 -36 15.5 -52t27.5 -16q24 0 24 23q0 4 -2 12q-7 19 -27 52l51 29q17 -26 26.5 -47.5t9.5 -47.5q0 -40 -21 -66.5t-59 -26.5q-19 0 -35.5 8t-28.5 24q-11 -18 -29 -28.5t-37 -10.5q-38 0 -59 23t-21 56
q0 16 5 37zM642 971q3 -39 3 -92q0 -48 -1 -72l-59 2q2 46 2 71q0 50 -3 87zM1163 753q9 -66 17 -208t8 -278q0 -180 -15 -277l-131 14q11 67 11 212q0 137 -9 287.5t-21 218.5z" />
    <glyph glyph-name="uniFDFC.001" unicode="&#x631;&#xfbfe;&#xfe8e;&#x644;&#x621;" horiz-adv-x="1525" 
d="M1226.5 -14q56.5 27 89 54t35.5 49q1 5 1 19q0 39 -9.5 117t-14.5 110l130 29q16 -83 16 -178q0 -60 -8 -116q-16 -102 -97.5 -170.5t-220.5 -104.5l-47 145q69 19 125.5 46zM121 281l106 -49q-25 -56 -38 -97.5t-15 -85.5q-2 -60 45.5 -95.5t128.5 -35.5q90 0 132 46.5
t40 148.5q-8 211 -30 429l88 150l143 38q20 5 35 5q39 0 62 -27.5t24 -78.5l14 -351q2 -49 9 -73t24.5 -33.5t54.5 -9.5q142 0 168 41q-2 28 -14 68.5t-25.5 76t-16.5 40.5l116 64q19 -40 40 -114t21 -128q0 -107 -71 -161.5t-220 -54.5q-113 0 -160.5 63.5t-50.5 198.5
q-3 158 -12 332l-96 -27q1 -35 5 -136q7 -154 11 -304q4 -177 -72 -274.5t-222 -97.5q-80 0 -147.5 32t-107.5 92.5t-40 142.5q0 11 2 35q9 99 69 230zM670 -123q75 -3 177 9t169 29l42 -142q-148 -32 -292 -32q-72 0 -123 8z" />
    <glyph glyph-name="uniFDFC.002" unicode="&#x631;&#xfbfe;&#xfe8e;&#x644;&#x621;&#x621;" horiz-adv-x="1420" 
d="M1189.5 152q63.5 39 62.5 75q-1 68 -46 262l128 50q15 -64 25 -137.5t10 -133.5q0 -31 -3 -57q-13 -105 -88.5 -171.5t-214.5 -104.5l-45 146q108 32 171.5 71zM71 302q21 74 40 114l115 -63q-16 -36 -34 -91t-21 -95q28 -41 168 -41q38 0 57.5 10t27 34.5t4.5 71.5
q-13 231 -28 398l-2 23l88 150l141 37q15 5 35 5q39 0 62.5 -28t24.5 -79q5 -140 14 -334q2 -50 9 -73t24.5 -32.5t54.5 -9.5q75 0 112.5 10t49.5 30q-3 49 -39 143l116 62q16 -37 30 -92.5t14 -109.5q0 -212 -285 -212q-112 0 -160 64t-51 198l-1 48q-3 164 -11 269
l-96 -28q13 -212 17 -429q3 -294 -208 -294q-149 0 -219 54t-70 162q0 54 21 128zM581 33q38 -2 62 -2q73 0 152 8t131 20l38 -142q-120 -24 -250 -24q-91 0 -165 13z" />
    <glyph glyph-name="tomaan" unicode="&#xfe97;&#xfeee;&#xfee3;&#xfe8e;&#x646;&#x621;" horiz-adv-x="2422" 
d="M185.5 312.5q-12.5 -40.5 -12.5 -86.5q0 -152 197 -152q65 0 116.5 23.5t80 60t28.5 74.5q0 62 -75 266l86 171l166 63q26 11 52 11q39 0 62 -27t25 -72q3 -62 7 -210l5 -150q2 -49 9 -73t24.5 -33.5t53.5 -9.5h22q75 0 127 95q51 94 97 139t102 45t97.5 -36t63.5 -93.5
t22 -119.5t-21 -112t-63 -76q-25 -15 -58 -15q-78 0 -204 78q-61 -73 -166 -73h-19q-113 0 -161 64t-51 198l-1 79q-1 95 -2.5 142.5t-7.5 104.5l-141 -51q24 -68 44 -150.5t20 -150.5q0 -94 -46.5 -170t-124.5 -118.5t-169 -42.5q-93 0 -165.5 35t-113.5 102.5t-41 160.5
q0 21 1 32q7 99 70 233l105 -48q-28 -67 -40.5 -107.5zM446 627l5 -136l-137 -14l-23 132zM1348.5 163q36.5 -16 55.5 -16q8 0 12 3q16 12 16 43q0 37 -22 70.5t-56 33.5q-20 0 -41.5 -19.5t-46.5 -69.5q46 -29 82.5 -45zM1781.5 -72q86.5 24 120.5 71q-107 3 -173.5 25
t-94.5 81q-18 39 -18 88q0 62 26.5 123.5t72.5 100.5t101 39q52 0 96.5 -38.5t75 -104t42.5 -145.5h45q149 0 176 41q-3 39 -22.5 96t-33.5 89l116 64q19 -42 40 -115.5t21 -127.5q0 -215 -297 -215h-49q-29 -113 -135 -177.5t-275 -66.5l-53 146q132 2 218.5 26z
M1793.5 177q43.5 -7 118.5 -9q-16 61 -46 100.5t-64 39.5q-20 0 -36.5 -13.5t-26 -33.5t-9.5 -38q0 -13 6 -21q14 -18 57.5 -25zM2095.5 674q94.5 12 183.5 12q37 0 55 -1l-27 -139q-79 2 -181 -7.5t-166 -25.5l-26 131q67 18 161.5 30z" />
    <glyph glyph-name="tomaan.001" unicode="&#xfe97;&#xfeee;&#xfee3;&#xfe8e;&#x646;&#x621;&#x621;" horiz-adv-x="1987" 
d="M187 314.5q-13 -40.5 -13 -86.5q0 -154 198 -154q65 0 116 23t79.5 59.5t28.5 74.5q0 35 -22.5 111t-51.5 156l86 171l207 62q20 6 36 6q38 0 61 -28t25 -78q3 -64 7 -206l5 -141q2 -49 9 -73t24.5 -33.5t53.5 -9.5h21q75 0 127 95q53 96 95 140.5t95 44.5
q61 0 107.5 -41t75 -105t38.5 -134h43q150 0 179 40q-2 28 -14.5 69t-24.5 73.5t-18 44.5l115 63q19 -39 39.5 -113.5t20.5 -129.5q0 -107 -72 -161t-223 -54h-50q-29 -113 -134.5 -177.5t-274.5 -66.5l-53 146q129 2 215 26.5t121 71.5q-15 0 -43 2q-68 3 -118.5 20
t-82.5 51q-31 -37 -73.5 -55t-92.5 -18h-19q-112 0 -160 64t-50 198l-1 64q-1 89 -3 145t-8 117l-164 -51q24 -71 43.5 -152t19.5 -149q0 -94 -46.5 -170t-124 -118.5t-169.5 -42.5q-93 0 -165.5 35t-113.5 102.5t-41 160.5q0 21 1 32q7 96 69 233l107 -48
q-29 -65 -42 -105.5zM441 631l6 -136l-137 -15l-22 132zM1342.5 181.5q29.5 -9.5 71.5 -11.5q15 -1 46 -1q3 25 -6.5 55.5t-29 51.5t-47.5 21q-48 0 -84 -86q20 -20 49.5 -29.5zM1666.5 704q99.5 13 192.5 13l41 -1l-27 -133q-81 2 -182.5 -8t-164.5 -27l-26 124
q67 19 166.5 32z" />
    <glyph glyph-name="tomaan.002" unicode="&#xfe97;&#xfeee;&#xfee3;&#xfe8e;&#x646;&#x621;&#x621;&#x621;" horiz-adv-x="1908" 
d="M1284 -9q89 24 124 66q-20 0 -46 2q-67 3 -116 18.5t-81 47.5q-60 -69 -159 -69q-103 1 -148 60.5t-52 189.5q-6 126 -12 228l-159 -50q60 -161 60 -282q0 -94 -44.5 -170t-120.5 -118.5t-167 -42.5t-162 34.5t-111 100.5t-40 157q0 21 1 31q5 92 64 222l107 -50
q-25 -57 -37 -95.5t-12 -83.5q0 -148 190 -148q62 0 111.5 23t77 58.5t27.5 73.5q0 68 -72 249l87 172l203 60q18 6 35 6q38 0 61 -28t25 -79l9 -175l3 -73q3 -42 9.5 -63t22 -29.5t46.5 -8.5q30 0 49 6t36 24t37 55q36 67 62 106t56 61t67 22q61 0 107 -40t73.5 -103.5
t37.5 -132.5q98 1 144.5 10.5t59.5 28.5q-4 52 -55 181l116 63q20 -45 40 -115t20 -123q0 -106 -77 -158t-252 -53q-30 -110 -135 -173t-268 -64l-55 146q124 1 213 25zM429 580l5 -134l-135 -15l-23 131zM1287 236q29 -8 69 -10q14 -1 61 -1q-3 27 -16.5 55.5t-35 47.5
t-46.5 19q-22 -1 -43 -22t-38 -62q20 -19 49 -27zM1564 729q93 12 181 12q35 0 52 -1l-25 -132q-75 2 -174.5 -7.5t-162.5 -25.5l-27 123q63 19 156 31z" />
    <glyph glyph-name="tomaan.003" unicode="&#xfe97;&#xfeee;&#xfee3;&#xfee6;&#x621;" horiz-adv-x="1618" 
d="M994 -9.5q88 24.5 124 66.5l-46 1q-137 7 -197 67q-59 -68 -159 -68l-50 1q-39 -86 -121 -136.5t-182 -50.5q-91 0 -162 34.5t-111 100.5t-40 157q0 21 1 31q5 92 64 222l107 -50q-25 -57 -37 -95.5t-12 -83.5q0 -148 190 -148q63 0 113.5 23t77.5 59.5t25 73.5
q-5 66 -54 228l116 44q19 -53 34 -117.5t19 -124.5l24 -1q30 0 49 6.5t36 24.5t37 55q36 67 62 106t56 61t67 22q61 0 107 -40t73.5 -103.5t37.5 -132.5q98 1 144.5 10.5t59.5 28.5q-4 52 -55 181l116 63q20 -45 40 -115t20 -123q0 -106 -77 -158t-252 -53
q-30 -110 -135 -173.5t-267 -64.5l-54 146q123 1 211 25.5zM432 588l5 -135l-136 -15l-22 131zM997 236q29 -8 69 -10q14 -1 61 -1q-3 27 -16.5 55.5t-35 47.5t-46.5 19q-22 -1 -43.5 -22.5t-37.5 -61.5q20 -19 49 -27zM1272 726q93 12 181 12q35 0 52 -1l-25 -132
q-77 2 -176 -7.5t-162 -25.5l-27 124q64 18 157 30z" />
    <glyph glyph-name="uni0621" unicode="&#x621;" horiz-adv-x="435" arabic-form="isolated" 
d="M41 47l73 22q-36 43 -36 98q0 44 22 82t59.5 61t81.5 23q22 0 54.5 -7.5t59.5 -17.5l-35 -105q-16 6 -39 11t-38 5q-27 0 -48.5 -16t-21.5 -36q0 -19 21.5 -35t54.5 -16q13 0 26 3l107 33l13 -113l-341 -106z" />
    <glyph glyph-name="uni0622" unicode="&#x622;" horiz-adv-x="272" arabic-form="isolated" 
d="M63 167q0 119 -7.5 256t-17.5 210l140 32q7 -73 13 -198.5t6 -245.5q0 -145 -9 -229l-131 14q6 63 6 161zM-17 808.5q30 25.5 64 25.5q17 0 31.5 -4.5t32.5 -13.5q18 -8 28.5 -12t22.5 -4q16 0 33 10t28 27l49 -42q-23 -35 -51 -53.5t-59 -18.5q-17 0 -31.5 4.5
t-35.5 14.5q-12 5 -24 9.5t-22 4.5q-18 0 -35 -13.5t-27 -36.5l-53 31q19 46 49 71.5z" />
    <glyph glyph-name="uni0623" unicode="&#x623;" horiz-adv-x="256" arabic-form="isolated" 
d="M63 167q0 119 -7.5 256t-17.5 210l140 32q7 -73 13 -198.5t6 -245.5q0 -145 -9 -229l-131 14q6 63 6 161zM3 756l53 16q-15 20 -19 40q-2 7 -2 21q0 36 22 66.5t55 38.5q13 4 29 4q29 0 69 -14l-18 -73q-31 11 -52 11q-23 0 -35 -12.5t-9 -27.5q2 -10 12.5 -18.5
t28.5 -8.5q8 0 12 1l76 23v-74l-222 -67v74z" />
    <glyph glyph-name="uni0624" unicode="&#x624;" horiz-adv-x="516" arabic-form="isolated" 
d="M245 -83.5q75 35.5 102 85.5q-25 -4 -57 -4q-75 0 -133.5 27t-82.5 80q-18 41 -18 90q0 62 26 122.5t71.5 99.5t100.5 39q61 0 111.5 -52t79.5 -137.5t29 -182.5q0 -96 -47 -173.5t-134 -129.5t-207 -74l-52 145q136 29 211 64.5zM89 575l53 16q-15 20 -19 40q-2 7 -2 21
q0 36 22 66.5t55 38.5q13 4 29 4q29 0 69 -14l-18 -73q-31 11 -52 11q-23 0 -35 -12.5t-9 -27.5q2 -11 15.5 -20t36.5 -6l77 23v-74l-222 -67v74zM242.5 169.5q49.5 -10.5 108.5 -6.5q-16 63 -45.5 104t-65.5 41q-19 0 -36 -13.5t-26.5 -33.5t-9.5 -37q0 -15 7 -23
q18 -21 67.5 -31.5z" />
    <glyph glyph-name="uni0625" unicode="&#x625;" horiz-adv-x="249" arabic-form="isolated" 
d="M69 216q0 138 -9.5 289.5t-21.5 218.5l140 31q10 -63 17.5 -205.5t7.5 -281.5q0 -178 -14 -276l-131 14q11 66 11 210zM15 -232l55 17q-15 17 -20 40q-3 10 -3 22q0 35 22.5 65.5t55.5 38.5q14 3 27 3q27 0 71 -14l-19 -73q-30 11 -51 11q-24 0 -36 -13t-9 -26
q2 -12 15.5 -21t37.5 -6l76 23v-73l-222 -68v74z" />
    <glyph glyph-name="uni0626" unicode="&#x626;" horiz-adv-x="781" arabic-form="isolated" 
d="M197.5 -208q-72.5 34 -114.5 101.5t-42 163.5q0 21 1 32q8 99 70 232l106 -48q-27 -61 -40.5 -103.5t-13.5 -88.5q0 -155 197 -155q75 0 138.5 23.5t93.5 62.5l-20 5q-67 16 -94 24q-80 24 -113.5 57.5t-33.5 97.5q0 83 42 159.5t111 123.5t146 47q31 0 63 -9t43 -22
l-47 -146q-9 4 -28 6.5t-34 2.5q-58 0 -107.5 -32.5t-63.5 -80.5q-2 -6 -2 -9q0 -16 25 -28t89 -26q93 -20 125 -54.5t32 -79.5q0 -76 -48.5 -143t-132.5 -107t-184 -40q-91 0 -163.5 34zM124 448l54 16q-16 19 -20 41q-2 7 -2 21q0 35 22 66t55 39q14 3 27 3q29 0 71 -14
l-18 -73q-31 11 -52 11q-23 0 -35 -12.5t-9 -27.5q2 -11 15.5 -20t36.5 -6l77 23v-74l-222 -67v74z" />
    <glyph glyph-name="uni0627" unicode="&#x627;" horiz-adv-x="249" arabic-form="isolated" 
d="M69 216q0 138 -9.5 289.5t-21.5 218.5l140 31q10 -63 17.5 -205.5t7.5 -281.5q0 -178 -14 -276l-131 14q11 66 11 210z" />
    <glyph glyph-name="uni0628" unicode="&#x628;" horiz-adv-x="867" arabic-form="isolated" 
d="M151.5 44.5q-101.5 56.5 -110.5 157.5q-1 8 -1 24q0 44 12 95t30 91l106 -50q-10 -32 -18 -67.5t-7 -58.5q4 -20 36.5 -38.5t91 -30t138.5 -11.5q92 0 155.5 8.5t95.5 19.5t33 16q-8 49 -25 96t-37 98l116 64q28 -61 45.5 -131.5t14.5 -126.5q-5 -106 -110.5 -158.5
t-277.5 -54.5h-9h-1q-176 1 -277.5 57.5zM387 -125q21 22 43 43l33 -33l66 -66l-99 -100l-66 66l-34 34z" />
    <glyph glyph-name="uni0629" unicode="&#x629;" horiz-adv-x="491" arabic-form="isolated" 
d="M95.5 46.5q-52.5 51.5 -52.5 133.5q0 34 9 71q20 78 84 158l-34 21l86 126q134 -81 204 -166.5t70 -180.5q0 -63 -28.5 -111.5t-78 -75.5t-109.5 -27q-98 0 -150.5 51.5zM136 753l30 30l87 -87l88 87l89 -89q-23 -21 -44 -44l-45 -45l-88 88l-87 -88l-60 60l-29 29z
M182.5 176q26.5 -16 75.5 -16q36 0 60 13t29 33q-18 59 -115 135q-76 -73 -76 -120q0 -29 26.5 -45z" />
    <glyph glyph-name="uni062A" unicode="&#x62a;" horiz-adv-x="867" arabic-form="isolated" 
d="M151.5 44.5q-101.5 56.5 -110.5 157.5q-1 8 -1 24q0 44 12 95t30 91l106 -50q-10 -32 -18 -67.5t-7 -58.5q4 -20 36.5 -38.5t91 -30t138.5 -11.5q92 0 155.5 8.5t95.5 19.5t33 16q-8 49 -25 96t-37 98l116 64q28 -61 45.5 -131.5t14.5 -126.5q-5 -106 -110.5 -158.5
t-277.5 -54.5h-9h-1q-176 1 -277.5 57.5zM346 524l87 -87l88 87l88 -89l-88 -89l-88 87l-87 -87l-90 89z" />
    <glyph glyph-name="uni062B" unicode="&#x62b;" horiz-adv-x="867" arabic-form="isolated" 
d="M151.5 44.5q-101.5 56.5 -110.5 157.5q-1 8 -1 24q0 44 12 95t30 91l106 -50q-10 -32 -18 -67.5t-7 -58.5q4 -20 36.5 -38.5t91 -30t138.5 -11.5q92 0 155.5 8.5t95.5 19.5t33 16q-8 49 -25 96t-37 98l116 64q28 -61 45.5 -131.5t14.5 -126.5q-5 -106 -110.5 -158.5
t-277.5 -54.5h-9h-1q-176 1 -277.5 57.5zM340 524q27 -29 84 -83l-36 -37q-33 -31 -48 -48l-36 37q-33 31 -48 48zM434 635l74 -73l-74 -75l-74 75zM496 491l34 33l28 -28q27 -28 55 -55l-83 -85l-85 85z" />
    <glyph glyph-name="uni062C" unicode="&#x62c;" horiz-adv-x="734" arabic-form="isolated" 
d="M217.5 -364q-81.5 34 -129 99.5t-47.5 154.5q0 12 2 36q14 134 124.5 225.5t300.5 134.5q-58 39 -97 56.5t-74 17.5q-62 0 -108 -62l-93 69q78 155 207 155q56 0 110.5 -26t148.5 -95q49 -36 75 -51t57 -26l-19 -163q-148 0 -261 -36.5t-178 -93.5t-76 -117
q-5 -40 29 -73t96 -52.5t137 -19.5q67 0 129 15t95 29l62 -129q-4 -2 -41.5 -23.5t-112.5 -40t-157 -18.5q-98 0 -179.5 34zM367 5q21 22 43 43l33 -33l66 -66l-99 -100l-66 66l-34 34z" />
    <glyph glyph-name="uni062D" unicode="&#x62d;" horiz-adv-x="734" arabic-form="isolated" 
d="M217.5 -364q-81.5 34 -129 99.5t-47.5 154.5q0 12 2 36q14 134 124.5 225.5t300.5 134.5q-58 39 -97 56.5t-74 17.5q-62 0 -108 -62l-93 69q78 155 207 155q56 0 110.5 -26t148.5 -95q49 -36 75 -51t57 -26l-19 -163q-148 0 -261 -36.5t-178 -93.5t-76 -117
q-5 -40 29 -73t96 -52.5t137 -19.5q67 0 129 15t95 29l62 -129q-4 -2 -41.5 -23.5t-112.5 -40t-157 -18.5q-98 0 -179.5 34z" />
    <glyph glyph-name="uni062E" unicode="&#x62e;" horiz-adv-x="734" arabic-form="isolated" 
d="M295 771l66 -66l33 -33l-25 -25q-62 -62 -74 -75l-100 100zM167.5 151.5q110.5 91.5 300.5 134.5q-58 39 -97 56.5t-74 17.5q-62 0 -108 -62l-93 69q78 155 207 155q56 0 110.5 -26t148.5 -95q49 -36 75 -51t57 -26l-19 -163q-148 0 -261 -36.5t-178 -93.5t-76 -117
q-5 -40 29 -73t96 -52.5t137 -19.5q67 0 129 15t95 29l62 -129q-4 -2 -41.5 -23.5t-112.5 -40t-157 -18.5q-98 0 -179.5 34t-129 99.5t-47.5 154.5q0 12 2 36q14 134 124.5 225.5z" />
    <glyph glyph-name="uni062F" unicode="&#x62f;" horiz-adv-x="539" arabic-form="isolated" 
d="M111.5 23q-59.5 28 -89.5 54l59 118q34 -16 72.5 -28.5t91.5 -12.5q53 1 88 11.5t46 22.5q2 15 -13.5 46.5t-62 80t-132.5 105.5l80 148q117 -81 186.5 -181.5t69.5 -192.5q0 -43 -16 -79q-25 -58 -89.5 -89t-140.5 -31q-90 0 -149.5 28z" />
    <glyph glyph-name="uni0630" unicode="&#x630;" horiz-adv-x="539" arabic-form="isolated" 
d="M111.5 23q-59.5 28 -89.5 54l59 118q34 -16 72.5 -28.5t91.5 -12.5q53 1 88 11.5t46 22.5q2 15 -13.5 46.5t-62 80t-132.5 105.5l80 148q117 -81 186.5 -181.5t69.5 -192.5q0 -43 -16 -79q-25 -58 -89.5 -89t-140.5 -31q-90 0 -149.5 28zM230 821l99 -99l-99 -100l-34 34
l-66 66z" />
    <glyph glyph-name="uni0631" unicode="&#x631;" horiz-adv-x="400" arabic-form="isolated" 
d="M122 -88.5q56 35.5 88.5 69t32.5 54.5q0 33 -53 215l-7 25l124 49q24 -69 38 -147t14 -142q0 -101 -78 -185.5t-211 -142.5l-70 141q66 28 122 63.5z" />
    <glyph glyph-name="uni0632" unicode="&#x632;" horiz-adv-x="400" arabic-form="isolated" 
d="M122 -88.5q56 35.5 88.5 69t32.5 54.5q0 33 -53 215l-7 25l124 49q24 -69 38 -147t14 -142q0 -101 -78 -185.5t-211 -142.5l-70 141q66 28 122 63.5zM228 611l99 -99l-99 -100l-100 100z" />
    <glyph glyph-name="uni0633" unicode="&#x633;" horiz-adv-x="1239" arabic-form="isolated" 
d="M942 21.5q-34 20.5 -55 57.5q-28 -39 -60 -59t-71 -20h-1h-3q-27 2 -48 10q-6 -86 -51.5 -155t-121 -109t-169.5 -40q-93 0 -165.5 35t-113.5 102.5t-41 160.5q0 21 1 32q7 99 70 233l105 -48q-27 -66 -39.5 -107.5t-12.5 -88.5q0 -151 196 -151q67 0 118.5 22.5t80 59.5
t28.5 80q0 45 -32 137t-35 100l117 64q16 -43 27 -79q13 -35 23.5 -53t26.5 -27.5t44 -9.5q45 1 71 50q21 43 33 113l113 -5q-3 -18 -6.5 -46.5t-3.5 -45.5q0 -31 13.5 -48.5t41.5 -17.5h1q26 0 42.5 15.5t16.5 38.5q0 24 -20 80.5t-35 91.5l113 62q19 -39 40 -112.5
t21 -128.5q0 -58 -22.5 -107t-62.5 -78.5t-91 -29.5h-3h-2q-44 1 -78 21.5z" />
    <glyph glyph-name="uni0634" unicode="&#x634;" horiz-adv-x="1239" arabic-form="isolated" 
d="M942 21.5q-34 20.5 -55 57.5q-28 -39 -60 -59t-71 -20h-1h-3q-27 2 -48 10q-6 -86 -51.5 -155t-121 -109t-169.5 -40q-93 0 -165.5 35t-113.5 102.5t-41 160.5q0 21 1 32q7 99 70 233l105 -48q-27 -66 -39.5 -107.5t-12.5 -88.5q0 -151 196 -151q67 0 118.5 22.5t80 59.5
t28.5 80q0 45 -32 137t-35 100l117 64q16 -43 27 -79q13 -35 23.5 -53t26.5 -27.5t44 -9.5q45 1 71 50q21 43 33 113l113 -5q-3 -18 -6.5 -46.5t-3.5 -45.5q0 -31 13.5 -48.5t41.5 -17.5h1q26 0 42.5 15.5t16.5 38.5q0 24 -20 80.5t-35 91.5l113 62q19 -39 40 -112.5
t21 -128.5q0 -58 -22.5 -107t-62.5 -78.5t-91 -29.5h-3h-2q-44 1 -78 21.5zM809 607l84 -83l-28 -28l-56 -56l-28 28l-56 56q27 29 84 83zM903 719l74 -74q-25 -24 -49 -49l-25 -25l-25 25q-24 25 -49 49zM948 557l51 50q28 -27 55 -55l28 -28l-83 -84l-85 84z" />
    <glyph glyph-name="uni0635" unicode="&#x635;" horiz-adv-x="1297" arabic-form="isolated" 
d="M196.5 -259q-72.5 35 -113.5 102.5t-41 160.5q0 21 1 32q7 99 70 233l105 -48q-27 -66 -39.5 -107.5t-12.5 -88.5q0 -151 196 -151q67 0 118.5 22.5t80 59.5t28.5 80q0 33 -21 99t-38 108l117 63q11 -26 18 -46q22 -51 42 -74q72 130 165.5 206.5t188.5 76.5
q59 0 105.5 -26t72.5 -72t26 -102q0 -89 -51 -155t-141 -101t-206 -35q-91 0 -162 39q-5 -87 -50 -158t-121.5 -112t-171.5 -41q-93 0 -165.5 35zM838 142q13 -1 38 -1q79 0 142 19.5t97.5 48.5t34.5 54q0 18 -21.5 32t-57.5 14q-64 0 -131 -44t-124 -121q14 -2 22 -2z" />
    <glyph glyph-name="uni0636" unicode="&#x636;" horiz-adv-x="1297" arabic-form="isolated" 
d="M196.5 -259q-72.5 35 -113.5 102.5t-41 160.5q0 21 1 32q7 99 70 233l105 -48q-27 -66 -39.5 -107.5t-12.5 -88.5q0 -151 196 -151q67 0 118.5 22.5t80 59.5t28.5 80q0 33 -21 99t-38 108l117 63q11 -26 18 -46q22 -51 42 -74q72 130 165.5 206.5t188.5 76.5
q59 0 105.5 -26t72.5 -72t26 -102q0 -89 -51 -155t-141 -101t-206 -35q-91 0 -162 39q-5 -87 -50 -158t-121.5 -112t-171.5 -41q-93 0 -165.5 35zM838 142q13 -1 38 -1q79 0 142 19.5t97.5 48.5t34.5 54q0 18 -21.5 32t-57.5 14q-64 0 -131 -44t-124 -121q14 -2 22 -2z
M1002 721l25 25l33 -33l66 -66l-99 -100l-100 100q13 12 75 74z" />
    <glyph glyph-name="uni0637" unicode="&#x637;" horiz-adv-x="801" arabic-form="isolated" 
d="M196 164q16 31 39 68q1 17 1 58q0 98 -11 233.5t-22 200.5l140 31q8 -58 15 -159t8 -209q97 85 197 85q59 0 106 -26t73.5 -71.5t26.5 -103.5q0 -88 -52 -154t-144 -101t-210 -35q-88 0 -171.5 17.5t-153.5 49.5l47 153q46 -21 111 -37zM334 146q92 -3 165 16t113.5 49
t40.5 57q0 18 -20.5 32t-55.5 14q-63 0 -130 -43t-128 -124q5 -1 15 -1z" />
    <glyph glyph-name="uni0638" unicode="&#x638;" horiz-adv-x="801" arabic-form="isolated" 
d="M196 164q16 31 39 68q1 17 1 58q0 98 -11 233.5t-22 200.5l140 31q8 -58 15 -159t8 -209q97 85 197 85q59 0 106 -26t73.5 -71.5t26.5 -103.5q0 -88 -52 -154t-144 -101t-210 -35q-88 0 -171.5 17.5t-153.5 49.5l47 153q46 -21 111 -37zM334 146q92 -3 165 16t113.5 49
t40.5 57q0 18 -20.5 32t-55.5 14q-63 0 -130 -43t-128 -124q5 -1 15 -1zM560 773l99 -99l-99 -100l-66 66l-34 34z" />
    <glyph glyph-name="uni0639" unicode="&#x639;" horiz-adv-x="714" arabic-form="isolated" 
d="M590.5 -370q-77.5 -28 -200.5 -28q-96 0 -175.5 35t-126 100.5t-46.5 153.5q0 11 2 35q15 155 139 257q-45 27 -70 73t-25 109t31.5 118.5t84.5 89.5t115 34q49 0 97.5 -21.5t90.5 -57.5l-53 -112q-67 24 -123 24q-16 0 -24 -1q-43 -4 -73.5 -27t-30.5 -47
q0 -19 19 -37.5t50 -30t65 -11.5q13 0 37 4q52 20 140 45l31 -148q-190 -59 -277.5 -127t-105.5 -146q-5 -40 29 -73t95 -52.5t134 -19.5q71 0 134.5 16t91.5 28l62 -129q-40 -26 -117.5 -54z" />
    <glyph glyph-name="uni063A" unicode="&#x63a;" horiz-adv-x="714" arabic-form="isolated" 
d="M590.5 -370q-77.5 -28 -200.5 -28q-96 0 -175.5 35t-126 100.5t-46.5 153.5q0 11 2 35q15 155 139 257q-45 27 -70 73t-25 109t31.5 118.5t84.5 89.5t115 34q49 0 97.5 -21.5t90.5 -57.5l-53 -112q-67 24 -123 24q-16 0 -24 -1q-43 -4 -73.5 -27t-30.5 -47
q0 -19 19 -37.5t50 -30t65 -11.5q13 0 37 4q52 20 140 45l31 -148q-190 -59 -277.5 -127t-105.5 -146q-5 -40 29 -73t95 -52.5t134 -19.5q71 0 134.5 16t91.5 28l62 -129q-40 -26 -117.5 -54zM302 887l99 -99l-99 -100l-100 100z" />
    <glyph glyph-name="uni0641" unicode="&#x641;" horiz-adv-x="913" arabic-form="isolated" 
d="M441 -13l-1 8q-1 -3 -1 -8q-181 -1 -285 56t-113 159q-1 8 -1 24q0 44 12 95t30 91l106 -50q-10 -32 -18 -67.5t-7 -58.5q4 -21 37.5 -39.5t95 -29.5t143.5 -11v-1h6q114 1 185.5 15t104.5 45q-28 -2 -42 -2q-73 0 -129.5 26t-80.5 76q-18 39 -18 86q0 59 25.5 115.5
t70 93t98.5 36.5q59 0 108.5 -47.5t77.5 -126.5t28 -168q0 -146 -105.5 -230.5t-324.5 -85.5zM639 904l66 -66l33 -33q-21 -22 -43 -43l-56 -57l-34 34l-66 66zM647.5 376q48.5 -11 106.5 -8q-15 60 -44.5 99t-63.5 39q-29 0 -49.5 -25.5t-20.5 -51.5q0 -14 7 -22
q16 -20 64.5 -31z" />
    <glyph glyph-name="uni0642" unicode="&#x642;" horiz-adv-x="748" arabic-form="isolated" 
d="M196.5 -211q-72.5 35 -113.5 102.5t-41 160.5q0 21 1 32q7 99 70 233l105 -48q-27 -67 -39.5 -107.5t-12.5 -88.5q0 -76 50.5 -113.5t145.5 -37.5q85 0 145 35.5t77 92.5q-27 -4 -61 -4q-75 0 -134 27t-83 80q-18 41 -18 89q0 62 26 122.5t71 99.5t100 39q61 0 112 -51.5
t80.5 -137t29.5 -181.5q0 -117 -44.5 -202.5t-123 -131t-177.5 -45.5q-93 0 -165.5 35zM397 749l87 -87l88 87l88 -89l-88 -89l-88 88l-87 -88l-90 89zM461 220.5q39 -10.5 86 -10.5q11 0 35 2q-15 62 -44.5 103t-66.5 41q-29 0 -49.5 -28t-20.5 -56q0 -14 6 -23
q15 -18 54 -28.5z" />
    <glyph glyph-name="uni0643" unicode="&#x643;" horiz-adv-x="898" arabic-form="isolated" 
d="M439 -13h-11q-176 1 -277 58t-110 157q-1 8 -1 24q0 44 12 95t30 91l106 -50q-10 -32 -18 -67.5t-7 -58.5q4 -21 37.5 -39.5t95 -29.5t143.5 -11v-1h26q76 0 131.5 17t78.5 38q-20 51 -68.5 110.5t-140.5 135.5l14 144l373 156l45 -134l-281 -119q25 -22 65 -67.5
t76.5 -109.5t36.5 -124q0 -16 -3 -33q-19 -86 -108.5 -133.5t-218.5 -47.5z" />
    <glyph glyph-name="uni0644" unicode="&#x644;" horiz-adv-x="702" arabic-form="isolated" 
d="M191.5 -231.5q-68.5 32.5 -109.5 93.5t-41 143q0 11 2 33q9 100 69 233l107 -49q-25 -57 -38.5 -98t-15.5 -85q-2 -59 47 -96.5t129 -37.5q98 0 149.5 48.5t49.5 148.5q-4 158 -18 339.5t-29 282.5l140 31q21 -148 29 -646q1 -115 -36.5 -199t-110.5 -129t-174 -45
q-81 0 -149.5 32.5z" />
    <glyph glyph-name="uni0645" unicode="&#x645;" horiz-adv-x="618" arabic-form="isolated" 
d="M47 -202.5q-10 145.5 -10 263.5q0 43 1 63q2 62 40 101.5t95 39.5q8 0 22 -2q39 88 93 136t113 48q56 0 98.5 -36t64.5 -93t22 -119q0 -61 -21.5 -111.5t-64.5 -77.5q-24 -15 -57 -15q-41 0 -104 23.5t-161 75.5q-6 2 -6 -4q-2 -137 14 -295t17 -165l-140 -32
q-6 54 -16 199.5zM448 147q7 0 11 3q15 12 15 43q0 38 -21 71t-55 33q-40 0 -89 -89q101 -61 139 -61z" />
    <glyph glyph-name="uni0646" unicode="&#x646;" horiz-adv-x="737" arabic-form="isolated" 
d="M178.5 164q-12.5 -42 -12.5 -90q0 -150 196 -150q67 0 118.5 22t80 59t28.5 80q0 47 -32.5 139t-34.5 99l117 63q66 -170 66 -301q0 -91 -44 -166.5t-122 -119.5t-177 -44q-93 0 -165.5 35.5t-113.5 102.5t-41 160q0 21 1 32q4 57 24.5 119t45.5 114l105 -48
q-27 -64 -39.5 -106zM383 486l99 -99l-99 -100l-100 100z" />
    <glyph glyph-name="uni0647" unicode="&#x647;" horiz-adv-x="491" arabic-form="isolated" 
d="M95.5 46.5q-52.5 51.5 -52.5 133.5q0 34 9 71q20 78 84 158l-34 21l86 126q134 -81 204 -166.5t70 -180.5q0 -63 -28.5 -111.5t-78 -75.5t-109.5 -27q-98 0 -150.5 51.5zM182.5 176q26.5 -16 75.5 -16q36 0 60 13t29 33q-18 59 -115 135q-76 -73 -76 -120q0 -29 26.5 -45
z" />
    <glyph glyph-name="uni0648" unicode="&#x648;" horiz-adv-x="516" arabic-form="isolated" 
d="M245 -83.5q75 35.5 102 85.5q-25 -4 -57 -4q-75 0 -133.5 27t-82.5 80q-18 41 -18 90q0 62 26 122.5t71.5 99.5t100.5 39q61 0 111.5 -52t79.5 -137.5t29 -182.5q0 -96 -47 -173.5t-134 -129.5t-207 -74l-52 145q136 29 211 64.5zM242.5 169.5q49.5 -10.5 108.5 -6.5
q-16 63 -45.5 104t-65.5 41q-19 0 -36 -13.5t-26.5 -33.5t-9.5 -37q0 -15 7 -23q18 -21 67.5 -31.5z" />
    <glyph glyph-name="uni0649" unicode="&#x649;" horiz-adv-x="781" arabic-form="isolated" 
d="M197.5 -208q-72.5 34 -114.5 101.5t-42 163.5q0 21 1 32q8 99 70 232l106 -48q-27 -61 -40.5 -103.5t-13.5 -88.5q0 -155 197 -155q75 0 138.5 23.5t93.5 62.5l-20 5q-67 16 -94 24q-80 24 -113.5 57.5t-33.5 97.5q0 83 42 159.5t111 123.5t146 47q31 0 63 -9t43 -22
l-47 -146q-9 4 -28 6.5t-34 2.5q-58 0 -107.5 -32.5t-63.5 -80.5q-2 -6 -2 -9q0 -16 25 -28t89 -26q93 -20 125 -54.5t32 -79.5q0 -76 -48.5 -143t-132.5 -107t-184 -40q-91 0 -163.5 34z" />
    <glyph glyph-name="uni064A" unicode="&#x64a;" horiz-adv-x="781" arabic-form="isolated" 
d="M197.5 -208q-72.5 34 -114.5 101.5t-42 163.5q0 21 1 32q8 99 70 232l106 -48q-27 -61 -40.5 -103.5t-13.5 -88.5q0 -155 197 -155q75 0 138.5 23.5t93.5 62.5l-20 5q-67 16 -94 24q-80 24 -113.5 57.5t-33.5 97.5q0 83 42 159.5t111 123.5t146 47q31 0 63 -9t43 -22
l-47 -146q-9 4 -28 6.5t-34 2.5q-58 0 -107.5 -32.5t-63.5 -80.5q-2 -6 -2 -9q0 -16 25 -28t89 -26q93 -20 125 -54.5t32 -79.5q0 -76 -48.5 -143t-132.5 -107t-184 -40q-91 0 -163.5 34z" />
    <glyph glyph-name="uni066E.init" unicode="&#x66e;" horiz-adv-x="342" 
d="M-5 168h53q130 0 130 57q0 18 -22.5 83t-32.5 86l117 64q19 -40 39.5 -112.5t20.5 -127.5q0 -107 -65 -162.5t-187 -55.5h-53v168z" />
    <glyph glyph-name="uni066E.medi" unicode="&#x66e;" horiz-adv-x="334" 
d="M-5 168h6q77 1 110 17t36 53q3 41 -10 109l114 22q14 -82 14 -166q2 -11 19 -23t50 -12h5l9 -84l-9 -84h-5q-39 0 -73 17.5t-61 47.5q-61 -65 -199 -65h-6v168z" />
    <glyph glyph-name="uni066E.fina" unicode="&#x66e;" horiz-adv-x="954" 
d="M151.5 44.5q-101.5 56.5 -110.5 157.5q-1 8 -1 24q0 44 12 95t30 91l106 -50q-10 -32 -18 -67.5t-7 -58.5q4 -20 36.5 -38.5t91.5 -30t139 -11.5q134 0 205 15t107 50t63 105l113 -13q-19 -56 -19 -89q0 -30 15 -42.5t45 -13.5l9 -84l-9 -84q-54 0 -97.5 32t-53.5 82
q-62 -71 -149.5 -98.5t-219.5 -28.5h-9q-177 1 -278.5 57.5z" />
    <glyph glyph-name="uni066F.fina" unicode="&#x66f;" horiz-adv-x="739" 
d="M196.5 -259q-72.5 35 -113.5 102.5t-41 160.5q0 21 1 32q7 99 70 233l105 -48q-27 -67 -39.5 -107.5t-12.5 -88.5q0 -76 50.5 -113.5t145.5 -37.5q84 0 144 35t77 91q-111 2 -180 23.5t-97 82.5q-18 41 -18 90q0 61 26 122t71.5 99.5t99.5 38.5q52 0 97 -39t75.5 -104.5
t42.5 -144.5h43l9 -84l-9 -84h-43q-15 -92 -61.5 -158.5t-118 -101t-158.5 -34.5q-93 0 -165.5 35zM464 177q43 -7 117 -9q-16 61 -45.5 100.5t-65.5 39.5q-29 0 -49.5 -28t-20.5 -56q0 -14 6 -22q15 -18 58 -25z" />
    <glyph glyph-name="uni0671" unicode="&#x671;" horiz-adv-x="281" arabic-form="isolated" 
d="M63 167q0 119 -7.5 256t-17.5 210l140 32q7 -73 13 -198.5t6 -245.5q0 -145 -9 -229l-131 14q6 63 6 161zM-24 774.5q23 18.5 52 18.5q11 0 31 -5q26 49 65 78.5t78 29.5q37 0 61.5 -25.5t24.5 -63.5q0 -41 -28 -71.5t-73 -39.5q-18 -3 -34 -3q-31 0 -79 15
q-18 6 -30 8.5t-20 1.5q-16 -1 -27 -10t-14 -15l-47 31q17 32 40 50.5zM160 763q11 0 16 1q29 4 45 14.5t16 23.5q0 10 -11.5 16.5t-26.5 6.5q-21 0 -43.5 -14t-40.5 -41q30 -7 45 -7z" />
    <glyph glyph-name="uni0679" unicode="&#x679;" horiz-adv-x="867" arabic-form="isolated" 
d="M151.5 44.5q-101.5 56.5 -110.5 157.5q-1 8 -1 24q0 44 12 95t30 91l106 -50q-10 -32 -18 -67.5t-7 -58.5q4 -20 36.5 -38.5t91 -30t138.5 -11.5q92 0 155.5 8.5t95.5 19.5t33 16q-8 49 -25 96t-37 98l116 64q28 -61 45.5 -131.5t14.5 -126.5q-5 -106 -110.5 -158.5
t-277.5 -54.5h-9h-1q-176 1 -277.5 57.5zM309 449q28 -7 30 -8q15 23 18 26q0 27 -5 76t-11 87l57 12q10 -54 14 -114q39 31 77 31q41 0 63.5 -29.5t22.5 -65.5q0 -45 -40.5 -78.5t-122.5 -33.5q-57 0 -90 15.5t-34 15.5zM413 429q61 -3 85.5 8t24.5 26q0 10 -7 17t-21 7
q-22 0 -46 -15.5t-46 -41.5q3 -1 10 -1z" />
    <glyph glyph-name="uni067E" unicode="&#x67e;" horiz-adv-x="867" arabic-form="isolated" 
d="M151.5 44.5q-101.5 56.5 -110.5 157.5q-1 8 -1 24q0 44 12 95t30 91l106 -50q-10 -32 -18 -67.5t-7 -58.5q4 -20 36.5 -38.5t91 -30t138.5 -11.5q92 0 155.5 8.5t95.5 19.5t33 16q-8 49 -25 96t-37 98l116 64q28 -61 45.5 -131.5t14.5 -126.5q-5 -106 -110.5 -158.5
t-277.5 -54.5h-9h-1q-176 1 -277.5 57.5zM302 -108l33 34l84 -85l-84 -83l-28 28q-28 27 -55 55zM431 -205l73 -75l-73 -74l-74 74zM525 -74l84 -85l-84 -83l-84 83z" />
    <glyph glyph-name="uni0686" unicode="&#x686;" horiz-adv-x="734" arabic-form="isolated" 
d="M217.5 -364q-81.5 34 -129 99.5t-47.5 154.5q0 12 2 36q14 134 124.5 225.5t300.5 134.5q-58 39 -97 56.5t-74 17.5q-62 0 -108 -62l-93 69q78 155 207 155q56 0 110.5 -26t148.5 -95q49 -36 75 -51t57 -26l-19 -163q-148 0 -261 -36.5t-178 -93.5t-76 -117
q-5 -40 29 -73t96 -52.5t137 -19.5q67 0 129 15t95 29l62 -129q-4 -2 -41.5 -23.5t-112.5 -40t-157 -18.5q-98 0 -179.5 34zM311 31l32 33l81 -82l-81 -80l-80 80zM435 -62l71 -72l-71 -71l-71 71zM526 64l81 -82l-81 -80l-81 80z" />
    <glyph glyph-name="uni0695.fina" unicode="&#x695;" horiz-adv-x="419" 
d="M358 10q-9 -93 -86 -170.5t-202 -132.5l-70 141q66 28 122 63.5t88.5 69t32.5 54.5q0 33 -53 215l-7 25l124 49q13 -36 24 -80q13 -41 32 -58.5t51 -17.5h10l9 -84l-9 -84h-10q-28 0 -56 10zM95 -325q12 -15 27.5 -47.5t22.5 -57.5q6 26 22 61t28 53l48 -44
q-18 -27 -37.5 -67t-32.5 -73l-52 -17q-10 31 -31.5 73.5t-41.5 72.5z" />
    <glyph glyph-name="uni0698" unicode="&#x698;" horiz-adv-x="430" arabic-form="isolated" 
d="M122 -88.5q56 35.5 88.5 69t32.5 54.5q0 33 -53 215l-7 25l124 49q24 -69 38 -147t14 -142q0 -101 -78 -185.5t-211 -142.5l-70 141q66 28 122 63.5zM135 580l84 -83l-84 -85l-84 85zM180 642l49 49l74 -73l-74 -75l-73 75zM325 580l83 -83q-27 -29 -83 -85l-84 85z" />
    <glyph glyph-name="uni06A1.init" unicode="&#x6a1;" horiz-adv-x="480" 
d="M-5 168h16q117 0 186 10t102 37q-28 -2 -41 -2q-72 0 -128 26t-80 76q-18 39 -18 86q0 59 25.5 115.5t70 93t98.5 36.5q60 0 109.5 -49t77 -130t26.5 -172q-2 -140 -107 -217.5t-323 -77.5h-14v168zM215 376q49 -11 106 -8q-15 60 -44 99t-65 39q-28 0 -49 -25.5
t-21 -51.5q0 -14 7 -22q17 -20 66 -31z" />
    <glyph glyph-name="uni06A1.medi" unicode="&#x6a1;" horiz-adv-x="466" 
d="M-6 168h24q33 0 48 1q-20 40 -20 83q0 9 2 27q9 61 37.5 110.5t70 78.5t88.5 29q55 0 95.5 -32.5t61.5 -83.5t21 -106q0 -24 -2 -35q-6 -41 -19 -72h73l9 -84l-9 -84h-60q-93 0 -175 29q-86 -29 -221 -29h-24v168zM183.5 228.5q18.5 -21.5 49.5 -36.5q50 18 73 64
q1 3 1 10q0 28 -19 52.5t-52 24.5q-29 0 -50 -23t-24 -50q3 -20 21.5 -41.5z" />
    <glyph glyph-name="uni06A1.fina" unicode="&#x6a1;" horiz-adv-x="901" 
d="M439 -13q-181 -1 -285 56t-113 159q-1 8 -1 24q0 44 12 95t30 91l106 -50q-10 -32 -18 -67.5t-7 -58.5q4 -20 36.5 -38.5t91 -30t138.5 -11.5h13q42 0 61 1q-26 46 -26 94q0 19 2 28q9 61 37.5 110.5t70 78.5t88.5 29q54 0 94.5 -32.5t62 -84t21.5 -105.5q0 -24 -2 -35
q-7 -42 -20 -72h74l9 -84l-9 -84h-60q-91 0 -166 26q-94 -39 -237 -39h-3zM614.5 227q19.5 -22 52.5 -37q48 23 70 66q1 3 1 10q0 28 -19 52.5t-52 24.5q-29 0 -50 -23t-24 -50q2 -21 21.5 -43z" />
    <glyph glyph-name="uni06A4" unicode="&#x6a4;" horiz-adv-x="913" arabic-form="isolated" 
d="M441 -13l-1 8q-1 -3 -1 -8q-181 -1 -285 56t-113 159q-1 8 -1 24q0 44 12 95t30 91l106 -50q-10 -32 -18 -67.5t-7 -58.5q4 -21 37.5 -39.5t95 -29.5t143.5 -11v-1h6q114 1 185.5 15t104.5 45q-28 -2 -42 -2q-73 0 -129.5 26t-80.5 76q-18 39 -18 86q0 59 25.5 115.5
t70 93t98.5 36.5q59 0 108.5 -47.5t77.5 -126.5t28 -168q0 -146 -105.5 -230.5t-324.5 -85.5zM555 868l84 -83l-84 -84l-84 84zM649 980l74 -74q-25 -24 -49 -49l-25 -25l-73 74zM647.5 376q48.5 -11 106.5 -8q-15 60 -44.5 99t-63.5 39q-29 0 -49.5 -25.5t-20.5 -51.5
q0 -14 7 -22q16 -20 64.5 -31zM745 868q42 -41 83 -83l-83 -84l-84 84z" />
    <glyph glyph-name="uni06A9" unicode="&#x6a9;" horiz-adv-x="898" arabic-form="isolated" 
d="M439 -13h-11q-176 1 -277 58t-110 157q-1 8 -1 24q0 44 12 95t30 91l106 -50q-10 -32 -18 -67.5t-7 -58.5q4 -21 37.5 -39.5t95 -29.5t143.5 -11v-1h26q76 0 131.5 17t78.5 38q-20 51 -68.5 110.5t-140.5 135.5l14 144l373 156l45 -134l-281 -119q25 -22 65 -67.5
t76.5 -109.5t36.5 -124q0 -16 -3 -33q-19 -86 -108.5 -133.5t-218.5 -47.5z" />
    <glyph glyph-name="uni06AF" unicode="&#x6af;" horiz-adv-x="898" arabic-form="isolated" 
d="M439 -13h-11q-176 1 -277 58t-110 157q-1 8 -1 24q0 44 12 95t30 91l106 -50q-10 -32 -18 -67.5t-7 -58.5q4 -21 37.5 -39.5t95 -29.5t143.5 -11v-1h26q80 0 134 11.5t73 28.5q-20 50 -67 108t-139 133l14 145l373 156l45 -134l-281 -119q64 -54 120.5 -126t56.5 -153
q0 -20 -4 -36q-19 -86 -108 -133.5t-217 -47.5zM490 702l327 133l18 -51l-352 -146z" />
    <glyph glyph-name="uni06B5.init" unicode="&#x6b5;" horiz-adv-x="294" 
d="M-5 168h31q49 0 72 19.5t23 58.5q0 65 -11 237.5t-20 240.5l140 31q7 -62 15.5 -242t8.5 -255q0 -71 -29 -130t-80.5 -93.5t-115.5 -34.5h-34v168zM92 955q11 -16 26.5 -48t22.5 -56q7 26 23 61t28 52l48 -44q-18 -27 -37.5 -66.5t-32.5 -72.5l-52 -17q-11 32 -33 74.5
t-41 70.5z" />
    <glyph glyph-name="uni06B5.medi" unicode="&#x6b5;" horiz-adv-x="305" 
d="M223.5 20q-36.5 20 -63.5 56q-24 -36 -60.5 -56t-82.5 -20h-22v168h19q48 0 69.5 16t20.5 56v3q-3 70 -12.5 234.5t-17.5 244.5l140 32q8 -92 17 -352q6 -150 7 -160q2 -40 17.5 -57t43.5 -17h10l9 -84l-9 -84h-10q-39 0 -75.5 20zM90 961q12 -15 27.5 -47.5t22.5 -57.5
q6 26 22 61t28 53l48 -44q-18 -27 -37.5 -67t-32.5 -73l-52 -16q-10 30 -31.5 72.5t-41.5 72.5z" />
    <glyph glyph-name="uni06B5.fina" unicode="&#x6b5;" horiz-adv-x="774" 
d="M658 34q-16 -140 -99 -219t-218 -79q-81 0 -149.5 32.5t-109.5 93.5t-41 143q0 11 2 33q9 100 69 233l107 -49q-25 -57 -38.5 -98t-15.5 -85q-2 -59 47 -96.5t129 -37.5q98 0 149.5 48.5t49.5 148.5q-4 158 -18 339.5t-29 282.5l140 31q17 -123 26 -490q3 -43 11.5 -62.5
t30 -27t66.5 -7.5h12l9 -84l-9 -84h-12q-67 0 -109 34zM504 973q12 -16 27.5 -47.5t22.5 -56.5q6 25 22 59.5t28 53.5l49 -44q-18 -27 -38 -67t-33 -72l-51 -17q-11 31 -33 73.5t-41 71.5z" />
    <glyph glyph-name="uni06C2.fina" unicode="&#x6c2;" horiz-adv-x="594" 
d="M140 453l55 17q-15 17 -20 40q-3 11 -3 22q0 36 22.5 66t55.5 38q13 4 29 4q27 0 69 -14l-19 -74q-31 11 -54 11q-22 0 -33.5 -12.5t-8.5 -26.5q2 -10 12.5 -18.5t28.5 -8.5q10 0 20 3l68 20v-73l-222 -67v73zM119.5 229q57.5 83 122.5 117q36 19 63 19q48 0 89 -56
q10 -15 11 -17q26 -39 47.5 -64t55.5 -42.5t82 -17.5h8l9 -84l-9 -84h-6q-101 0 -175.5 56t-122.5 141q-44 -20 -88 -78t-66 -121l-97 61q19 87 76.5 170z" />
    <glyph glyph-name="uni06C3.fina" unicode="&#x6c3;" horiz-adv-x="594" 
d="M598 168l9 -84l-9 -84h-6q-101 0 -175.5 56t-122.5 141q-44 -20 -88 -78t-66 -121l-97 61q19 87 76.5 170t122.5 117q36 19 63 19q48 0 89 -56q10 -15 11 -17q26 -39 47.5 -64t55.5 -42.5t82 -17.5h8zM169 549q23 21 44 44l87 -87l88 87l89 -89l-59 -59l-30 -30l-88 88
l-87 -88l-60 60l-29 29z" />
    <glyph glyph-name="uni06C6" unicode="&#x6c6;" horiz-adv-x="516" arabic-form="isolated" 
d="M245 -83.5q75 35.5 102 85.5q-25 -4 -57 -4q-75 0 -133.5 27t-82.5 80q-18 41 -18 90q0 62 26 122.5t71.5 99.5t100.5 39q61 0 111.5 -52t79.5 -137.5t29 -182.5q0 -96 -47 -173.5t-134 -129.5t-207 -74l-52 145q136 29 211 64.5zM179 708q12 -15 27.5 -47.5t22.5 -57.5
q6 26 22 61t28 53l48 -44q-18 -27 -37.5 -67t-32.5 -73l-52 -16q-11 31 -32.5 73.5t-40.5 71.5zM242.5 169.5q49.5 -10.5 108.5 -6.5q-16 63 -45.5 104t-65.5 41q-19 0 -36 -13.5t-26.5 -33.5t-9.5 -37q0 -15 7 -23q18 -21 67.5 -31.5z" />
    <glyph glyph-name="uni06C7" unicode="&#x6c7;" horiz-adv-x="516" arabic-form="isolated" 
d="M245 -83.5q75 35.5 102 85.5q-25 -4 -57 -4q-75 0 -133.5 27t-82.5 80q-18 41 -18 90q0 62 26 122.5t71.5 99.5t100.5 39q61 0 111.5 -52t79.5 -137.5t29 -182.5q0 -96 -47 -173.5t-134 -129.5t-207 -74l-52 145q136 29 211 64.5zM184.5 579q32.5 6 56.5 20
q-36 7 -57.5 30t-21.5 59q0 27 14 50t36.5 36.5t45.5 13.5q13 0 24 -4q28 -10 41.5 -37.5t13.5 -63.5q0 -50 -21 -86q-24 -44 -77 -66.5t-112 -22.5l-18 63q43 2 75.5 8zM242.5 169.5q49.5 -10.5 108.5 -6.5q-16 63 -45.5 104t-65.5 41q-19 0 -36 -13.5t-26.5 -33.5
t-9.5 -37q0 -15 7 -23q18 -21 67.5 -31.5zM234.5 665.5q17.5 -12.5 46.5 -12.5q2 14 2 19q0 23 -10 38.5t-27 15.5q-12 0 -20.5 -9.5t-8.5 -21.5q0 -17 17.5 -29.5z" />
    <glyph glyph-name="uni06CC" unicode="&#x6cc;" horiz-adv-x="781" arabic-form="isolated" 
d="M197.5 -208q-72.5 34 -114.5 101.5t-42 163.5q0 21 1 32q8 99 70 232l106 -48q-27 -61 -40.5 -103.5t-13.5 -88.5q0 -155 197 -155q75 0 138.5 23.5t93.5 62.5l-20 5q-67 16 -94 24q-80 24 -113.5 57.5t-33.5 97.5q0 83 42 159.5t111 123.5t146 47q31 0 63 -9t43 -22
l-47 -146q-9 4 -28 6.5t-34 2.5q-58 0 -107.5 -32.5t-63.5 -80.5q-2 -6 -2 -9q0 -16 25 -28t89 -26q93 -20 125 -54.5t32 -79.5q0 -76 -48.5 -143t-132.5 -107t-184 -40q-91 0 -163.5 34z" />
    <glyph glyph-name="uni06CE.init" unicode="&#x6ce;" horiz-adv-x="386" 
d="M232.5 624q-19.5 -40 -32.5 -72l-52 -16q-11 32 -32.5 74t-41.5 71l48 46q11 -16 26.5 -48t22.5 -56q7 26 23 61t28 52l48 -44q-18 -28 -37.5 -68zM6 -81l87 -88q30 29 59 59l29 29l89 -90l-89 -88l-88 87l-87 -87l-89 88zM-5 168h50q96 0 136.5 16t40.5 47
q0 19 -22 79.5t-33 83.5l116 64q20 -42 40.5 -112t20.5 -124q0 -107 -69 -164.5t-203 -57.5h-77v168z" />
    <glyph glyph-name="uni06CE.medi" unicode="&#x6ce;" horiz-adv-x="390" 
d="M226.5 508q-19.5 -40 -32.5 -73l-52 -16q-10 30 -31.5 72.5t-41.5 72.5l47 46q12 -15 27.5 -47.5t22.5 -57.5q6 26 22 61t28 53l48 -44q-18 -27 -37.5 -67zM-12 -81l87 -88q30 29 59 59l29 29l89 -90l-89 -88l-88 87l-87 -87l-89 88zM-4 168h5q79 0 122 7t60.5 22
t19.5 41q3 41 -10 109l114 22q14 -75 14 -166q2 -12 18.5 -23.5t50.5 -11.5h5l9 -84l-9 -84h-5q-39 0 -73 17.5t-61 47.5q-32 -34 -90.5 -49.5t-164.5 -15.5h-5v168z" />
    <glyph glyph-name="uni06CE.fina" unicode="&#x6ce;" horiz-adv-x="771" 
d="M196.5 -257.5q-72.5 34.5 -114 101.5t-41.5 163q0 21 1 32q5 56 25.5 118.5t44.5 113.5l106 -49q-27 -59 -40.5 -102t-13.5 -89q0 -154 197 -154q77 0 140.5 21.5t88.5 49.5q-22 17 -78.5 45.5t-116.5 49.5l36 158q91 -18 157.5 -25.5t131.5 -7.5h56l9 -84l-9 -84h-56
q-29 0 -44 1q28 -31 28 -63q0 -51 -45 -105t-124 -89.5t-174 -35.5q-92 0 -164.5 34.5zM234 486q12 -16 27.5 -47.5t22.5 -56.5q6 25 22.5 60t28.5 53l48 -44q-18 -29 -38.5 -69t-32.5 -71l-51 -16q-11 31 -32.5 73t-41.5 72z" />
    <glyph glyph-name="uni06D5.fina" unicode="&#x6d5;" horiz-adv-x="529" 
d="M371 66q-60 -19 -119 -19q-92 0 -151 45.5t-59 123.5q0 10 2 30q12 79 74.5 135t160.5 97l-8 61l128 27q8 -77 15 -127q12 -118 18 -158q7 -51 15.5 -74t23.5 -31t46 -8h19l9 -84l-9 -84h-19q-97 0 -146 66zM186 214.5q23 -12.5 60 -12.5q29 0 70 11q-3 15 -7 45l-11 75
q-55 -18 -95 -42.5t-40 -45.5q0 -18 23 -30.5z" />
    <glyph glyph-name="uni0671.fina" unicode="&#x671;" horiz-adv-x="267" arabic-form="final" 
d="M105 65.5q-51 65.5 -53 196.5q-2 119 -6 197.5t-12 173.5l138 31q7 -76 9.5 -154t3.5 -197v-29q1 -47 7 -71.5t23 -34.5t51 -10h6l9 -84l-9 -84h-5q-111 0 -162 65.5zM-12 777.5q23 18.5 52 18.5q11 0 31 -5q27 50 65.5 79t77.5 29q37 0 61.5 -25.5t24.5 -63.5
q0 -40 -28 -71t-72 -39q-18 -3 -34 -3q-32 0 -80 15q-16 5 -27 7.5t-19 2.5q-24 0 -34.5 -13l-10.5 -13l-47 31q17 32 40 50.5zM173 766q11 0 16 1q28 4 44 15t16 23q0 10 -11.5 17t-26.5 7q-21 0 -43.5 -14t-40.5 -41q27 -8 46 -8z" />
    <glyph glyph-name="uni067E.fina" unicode="&#x67e;" horiz-adv-x="954" arabic-form="final" 
d="M151.5 44.5q-101.5 56.5 -110.5 157.5q-1 8 -1 24q0 44 12 95t30 91l106 -50q-10 -32 -18 -67.5t-7 -58.5q4 -20 36.5 -38.5t91.5 -30t139 -11.5q134 0 205 15t107 50t63 105l113 -13q-19 -56 -19 -89q0 -30 15 -42.5t45 -13.5l9 -84l-9 -84q-54 0 -97.5 32t-53.5 82
q-62 -71 -149.5 -98.5t-219.5 -28.5h-9q-177 1 -278.5 57.5zM319 -102l33 34l84 -85l-84 -83l-28 28q-28 27 -55 55zM448 -199l73 -75l-73 -74l-74 74zM542 -68l84 -85l-84 -83l-84 83z" />
    <glyph glyph-name="uni067E.init" unicode="&#x67e;" horiz-adv-x="386" arabic-form="initial" 
d="M-5 168h50q96 0 136.5 16t40.5 47q0 19 -22 79.5t-33 83.5l116 64q20 -42 40.5 -112t20.5 -124q0 -107 -69 -164.5t-203 -57.5h-77v168zM-16 -103l33 34l84 -85l-84 -83l-28 28q-28 27 -55 55zM113 -200l73 -75l-73 -74l-74 74zM207 -69l84 -85l-84 -83l-84 83z" />
    <glyph glyph-name="uni067E.medi" unicode="&#x67e;" horiz-adv-x="390" arabic-form="medial" 
d="M-4 168h5q79 0 122 7t60.5 22t19.5 41q3 41 -10 109l114 22q14 -75 14 -166q2 -12 18.5 -23.5t50.5 -11.5h5l9 -84l-9 -84h-5q-39 0 -73 17.5t-61 47.5q-32 -34 -90.5 -49.5t-164.5 -15.5h-5v168zM-51 -103l33 34l84 -85l-84 -83l-28 28q-28 27 -55 55zM78 -200l73 -75
l-73 -74l-74 74zM172 -69l84 -85l-84 -83l-84 83z" />
    <glyph glyph-name="uni0679.fina" unicode="&#x679;" horiz-adv-x="954" arabic-form="final" 
d="M151.5 44.5q-101.5 56.5 -110.5 157.5q-1 8 -1 24q0 44 12 95t30 91l106 -50q-10 -32 -18 -67.5t-7 -58.5q4 -20 36.5 -38.5t91.5 -30t139 -11.5q134 0 205 15t107 50t63 105l113 -13q-19 -56 -19 -89q0 -30 15 -42.5t45 -13.5l9 -84l-9 -84q-54 0 -97.5 32t-53.5 82
q-62 -71 -149.5 -98.5t-219.5 -28.5h-9q-177 1 -278.5 57.5zM340 421l29 -8l18 26q1 28 -4 77.5t-12 86.5l58 12q8 -44 13 -114q39 31 78 31q41 0 63.5 -29.5t22.5 -65.5q0 -45 -40.5 -78.5t-122.5 -33.5q-40 0 -78 12.5t-47 18.5zM444 402q62 -3 85.5 7.5t23.5 26.5
q0 10 -6.5 17t-20.5 7q-22 0 -46 -15.5t-46 -41.5q3 -1 10 -1z" />
    <glyph glyph-name="uni0679.init" unicode="&#x679;" horiz-adv-x="386" arabic-form="initial" 
d="M-5 168h50q96 0 136.5 16t40.5 47q0 19 -22 79.5t-33 83.5l116 64q20 -42 40.5 -112t20.5 -124q0 -107 -69 -164.5t-203 -57.5h-77v168zM22 618l29 -8l18 26q1 28 -4 77t-12 86l58 12q8 -45 13 -113q39 31 78 31q41 0 63.5 -30t22.5 -65q0 -46 -40.5 -79t-122.5 -33
q-28 0 -55 6.5t-45.5 13.5t-24.5 10zM126 598q61 -2 85 9t24 26q0 9 -6.5 16t-20.5 7q-22 0 -46 -15.5t-46 -41.5z" />
    <glyph glyph-name="uni0679.medi" unicode="&#x679;" horiz-adv-x="390" arabic-form="medial" 
d="M-4 168h5q79 0 122 7t60.5 22t19.5 41q3 41 -10 109l114 22q14 -75 14 -166q2 -12 18.5 -23.5t50.5 -11.5h5l9 -84l-9 -84h-5q-39 0 -73 17.5t-61 47.5q-32 -34 -90.5 -49.5t-164.5 -15.5h-5v168zM36 509l29 -8l18 26q0 29 -5 79.5t-11 84.5l58 12q8 -44 13 -114
q39 31 77 31q42 0 64.5 -29.5t22.5 -65.5q0 -45 -40.5 -78.5t-122.5 -33.5q-40 0 -77.5 12.5t-47.5 18.5zM140 490q62 -3 85.5 7.5t23.5 26.5q0 10 -7 17t-21 7q-21 0 -45 -15.5t-46 -41.5q3 -1 10 -1z" />
    <glyph glyph-name="uni06A4.fina" unicode="&#x6a4;" horiz-adv-x="901" arabic-form="final" 
d="M439 -13q-181 -1 -285 56t-113 159q-1 8 -1 24q0 44 12 95t30 91l106 -50q-10 -32 -18 -67.5t-7 -58.5q4 -20 36.5 -38.5t91 -30t138.5 -11.5h13q42 0 61 1q-26 46 -26 94q0 19 2 28q9 61 37.5 110.5t70 78.5t88.5 29q54 0 94.5 -32.5t62 -84t21.5 -105.5q0 -24 -2 -35
q-7 -42 -20 -72h74l9 -84l-9 -84h-60q-91 0 -166 26q-94 -39 -237 -39h-3zM581 744l84 -83l-84 -84l-84 84zM614.5 227q19.5 -22 52.5 -37q48 23 70 66q1 3 1 10q0 28 -19 52.5t-52 24.5q-29 0 -50 -23t-24 -50q2 -21 21.5 -43zM675 856l74 -74q-25 -24 -49 -49l-25 -25
l-25 25q-24 25 -49 49zM771 744q42 -41 83 -83l-83 -84l-85 84z" />
    <glyph glyph-name="uni06A4.init" unicode="&#x6a4;" horiz-adv-x="480" arabic-form="initial" 
d="M-5 168h16q117 0 186 10t102 37q-28 -2 -41 -2q-72 0 -128 26t-80 76q-18 39 -18 86q0 59 25.5 115.5t70 93t98.5 36.5q60 0 109.5 -49t77 -130t26.5 -172q-2 -140 -107 -217.5t-323 -77.5h-14v168zM103 841l27 27q57 -54 84 -83l-56 -56l-28 -28l-83 84zM215 376
q49 -11 106 -8q-15 60 -44 99t-65 39q-28 0 -49 -25.5t-21 -51.5q0 -14 7 -22q17 -20 66 -31zM225 980l73 -74l-73 -74l-25 25q-24 25 -49 49zM270 818l51 50l83 -83l-83 -84l-85 84z" />
    <glyph glyph-name="uni06A4.medi" unicode="&#x6a4;" horiz-adv-x="466" arabic-form="medial" 
d="M-6 168h24q33 0 48 1q-20 40 -20 83q0 9 2 27q9 61 37.5 110.5t70 78.5t88.5 29q55 0 95.5 -32.5t61.5 -83.5t21 -106q0 -24 -2 -35q-6 -41 -19 -72h73l9 -84l-9 -84h-60q-93 0 -175 29q-86 -29 -221 -29h-24v168zM137 736l84 -83l-84 -85l-84 85zM182 798l49 49l74 -73
l-74 -75l-73 75zM183.5 228.5q18.5 -21.5 49.5 -36.5q50 18 73 64q1 3 1 10q0 28 -19 52.5t-52 24.5q-29 0 -50 -23t-24 -50q3 -20 21.5 -41.5zM327 736l83 -83q-27 -29 -83 -85l-84 85z" />
    <glyph glyph-name="uni0686.fina" unicode="&#x686;" horiz-adv-x="748" arabic-form="final" 
d="M217.5 -364q-81.5 34 -129 99.5t-47.5 154.5q0 12 2 36q14 134 124.5 225.5t300.5 134.5q-58 39 -97 56.5t-74 17.5q-62 0 -108 -62l-93 69q78 155 207 155q56 0 110.5 -26t148.5 -95q49 -36 75 -51t57 -26l-17 -148q26 -8 59 -8h17l9 -84l-9 -84h-17q-78 0 -132.5 40.5
t-77.5 109.5q-106 -16 -185.5 -53.5t-125.5 -85.5t-55 -97q-5 -40 29 -73t96 -52.5t137 -19.5q67 0 129 15t95 29l62 -129q-4 -2 -41.5 -23.5t-112.5 -40t-157 -18.5q-98 0 -179.5 34zM307 31l32 33l81 -82l-81 -80l-80 80zM431 -62l71 -72l-71 -71l-71 71zM522 64l81 -82
l-81 -80l-81 80z" />
    <glyph glyph-name="uni0686.init" unicode="&#x686;" horiz-adv-x="684" arabic-form="initial" 
d="M-6 168h69q108 0 201 20.5t200 72.5l-19 9l-34 17q-40 20 -80.5 31.5t-72.5 11.5q-36 0 -63.5 -19t-43.5 -42l-93 69q78 155 206 155q43 0 82.5 -14t115.5 -53q57 -30 97.5 -45t89.5 -25l5 -152q-26 -7 -96 -47l-38 -20q-104 -54 -177 -83t-147 -41t-173 -13h-29v168z
M220 -102l33 34l84 -85l-84 -83l-28 28q-28 27 -55 55zM349 -199l73 -75l-73 -74l-74 74zM443 -68l84 -85l-84 -83l-84 83z" />
    <glyph glyph-name="uni0686.medi" unicode="&#x686;" horiz-adv-x="756" arabic-form="medial" 
d="M489 121q-92 -47 -161 -72.5t-140 -36.5t-165 -12h-29v168h69q108 0 201 20.5t200 72.5l-19 9l-34 17q-40 20 -80.5 31.5t-72.5 11.5q-36 0 -63.5 -19t-43.5 -42l-93 69q78 155 206 155q43 0 82.5 -14t115.5 -53q57 -30 97.5 -45t89.5 -25l5 -152q-15 -4 -40 -17
q40 -19 84 -19h63l9 -84l-9 -84h-11q-192 1 -261 121zM222 -101l33 34l84 -85l-84 -83l-28 28q-28 27 -55 55zM351 -198l73 -75l-73 -74l-74 74zM445 -67l84 -85l-84 -83l-84 83z" />
    <glyph glyph-name="uni0688.fina" unicode="&#x688;" horiz-adv-x="584" arabic-form="final" 
d="M498 16q-34 16 -61 49q-71 -71 -179 -71q-123 0 -236 83l59 118q78 -41 160 -41q77 0 129 32l-135 308l113 61l137 -324q16 -37 35 -50t57 -13h12l9 -84l-9 -84h-12q-45 0 -79 16zM210 726l29 -8q15 23 18 26q0 27 -5 76t-11 87l58 12q10 -67 13 -114q39 31 77 31
q42 0 64.5 -29.5t22.5 -65.5q0 -28 -17 -53.5t-54 -42t-92 -16.5q-57 0 -90.5 15.5t-34.5 15.5zM314 706q61 -3 85 7.5t24 26.5q0 10 -7 17t-21 7q-22 0 -46 -15.5t-46 -41.5q4 -1 11 -1z" />
    <glyph glyph-name="uni0698.fina" unicode="&#x698;" horiz-adv-x="419" arabic-form="final" 
d="M358 10q-9 -93 -86 -170.5t-202 -132.5l-70 141q66 28 122 63.5t88.5 69t32.5 54.5q0 33 -53 215l-7 25l124 49q13 -36 24 -80q13 -41 32 -58.5t51 -17.5h10l9 -84l-9 -84h-10q-28 0 -56 10zM135 580l84 -83l-84 -85l-84 85zM180 642l49 49l74 -73l-74 -75l-73 75z
M325 580l83 -83q-27 -29 -83 -85l-84 85z" />
    <glyph glyph-name="uni0691.fina" unicode="&#x691;" horiz-adv-x="419" arabic-form="final" 
d="M358 10q-9 -93 -86 -170.5t-202 -132.5l-70 141q66 28 122 63.5t88.5 69t32.5 54.5q0 33 -53 215l-7 25l124 49q13 -36 24 -80q13 -41 32 -58.5t51 -17.5h10l9 -84l-9 -84h-10q-28 0 -56 10zM136 481l30 -8q8 14 18 27q0 29 -5.5 78.5t-11.5 84.5l58 12q10 -54 14 -114
q39 31 77 31q41 0 63.5 -29.5t22.5 -65.5q0 -45 -40.5 -78.5t-122.5 -33.5q-28 0 -55.5 6.5t-47 14.5t-21.5 10zM240 462q63 -3 86 8t23 27q0 9 -6.5 16t-20.5 7q-22 0 -46 -15.5t-46 -41.5q3 -1 10 -1z" />
    <glyph glyph-name="uni06A9.fina" unicode="&#x6a9;" horiz-adv-x="954" arabic-form="final" 
d="M852.5 27.5q-42.5 27.5 -89.5 84.5q-38 -60 -118 -92t-185 -32l-21 -1h-15h-1q-174 2 -273.5 58.5t-108.5 156.5q-1 8 -1 24q0 44 12 95t30 91l106 -50q-10 -32 -18 -67.5t-7 -58.5q4 -21 37.5 -39.5t95 -29.5t143.5 -11v-1h21q76 0 131.5 17t77.5 38q-19 51 -67.5 110.5
t-141.5 135.5l14 144l373 156l46 -134l-281 -119q18 -15 55 -55.5t68 -88.5q52 -78 86 -118.5t61 -56.5t59 -16h18l9 -84l-9 -84h-18q-46 0 -88.5 27.5z" />
    <glyph glyph-name="uni06A9.init" unicode="&#x6a9;" horiz-adv-x="465" arabic-form="initial" 
d="M-5 168h37q80 0 134.5 12t74.5 31q-42 108 -209 245l14 144l373 156l46 -134l-281 -119q56 -51 117 -132.5t61 -165.5q0 -20 -4 -36q-18 -85 -106 -127t-220 -42h-37v168z" />
    <glyph glyph-name="uni06A9.medi" unicode="&#x6a9;" horiz-adv-x="524" arabic-form="medial" 
d="M422.5 26.5q-41.5 26.5 -88.5 84.5q-37 -56 -116.5 -83.5t-185.5 -27.5h-37v168h37q80 0 134.5 12t74.5 31q-42 108 -209 245l14 144l373 156l46 -134l-281 -119q33 -30 75 -78t71 -105q43 -62 72.5 -94.5t54 -45t53.5 -12.5h18l9 -84l-9 -84h-18q-46 0 -87.5 26.5z" />
    <glyph glyph-name="uni06AF.fina" unicode="&#x6af;" horiz-adv-x="947" arabic-form="final" 
d="M756 103q-39 -55 -117.5 -85t-178.5 -30l-21 -1h-15h-1q-174 2 -273.5 58.5t-108.5 156.5q-1 8 -1 24q0 44 12 95t30 91l106 -50q-10 -32 -18 -67.5t-7 -58.5q4 -21 37.5 -39.5t95 -29.5t143.5 -11v-1h21q79 0 133 11t74 29q-21 51 -68 109t-139 132l14 145l373 156
l46 -134l-281 -119q87 -73 133 -145q60 -87 107.5 -129t85.5 -42h15l9 -84l-9 -84h-15q-87 0 -182 103zM484 702l328 133l17 -51l-351 -146z" />
    <glyph glyph-name="uni06AF.init" unicode="&#x6af;" horiz-adv-x="465" arabic-form="initial" 
d="M-5 168h37q79 0 133.5 12t75.5 30q-18 46 -66 100t-143 130l14 145l373 156l46 -134l-281 -119q64 -60 120 -133t56 -153q0 -16 -3 -33q-19 -85 -106.5 -127t-218.5 -42h-37v168zM57 706l328 133l17 -51l-351 -146z" />
    <glyph glyph-name="uni06AF.medi" unicode="&#x6af;" horiz-adv-x="520" arabic-form="medial" 
d="M423.5 29.5q-42.5 29.5 -88.5 84.5q-37 -57 -116 -85.5t-187 -28.5h-37v168h37q79 0 133.5 12t75.5 30q-18 46 -66 100t-143 130l14 145l373 156l46 -134l-281 -119q35 -34 66.5 -67.5t60.5 -77.5q130 -175 196 -175h19l9 -84l-9 -84h-19q-41 0 -83.5 29.5zM57 706
l328 133l17 -51l-351 -146z" />
    <glyph glyph-name="uni06BA.fina" unicode="&#x6ba;" horiz-adv-x="758" arabic-form="final" 
d="M704 9q-6 -85 -51.5 -154t-121 -109t-169.5 -40q-93 0 -165.5 35t-113.5 102.5t-41 160.5q0 21 1 32q7 99 70 233l105 -48q-27 -66 -39.5 -107.5t-12.5 -88.5q0 -151 196 -151q67 0 118.5 22.5t80 59.5t28.5 80q0 46 -32.5 138t-34.5 99l117 64q16 -42 31 -91
q16 -44 34 -61t51 -17h8l9 -84l-9 -84h-8q-28 0 -51 9z" />
    <glyph glyph-name="uni06C1.init" unicode="&#x6c1;" horiz-adv-x="435" arabic-form="initial" 
d="M-12 84l9 84h99q95 0 135.5 15.5t40.5 46.5q0 17 -19.5 72t-34.5 92l116 64q20 -42 40.5 -112t20.5 -124q0 -107 -69 -164.5t-203 -57.5h-126zM105 -174q40 69 105 109l64 -62q-78 -61 -104 -117q6 2 16 2q38 0 65.5 -27t27.5 -68q0 -40 -28.5 -68.5t-67.5 -28.5
q-51 -2 -84.5 34.5t-33.5 91.5q0 65 40 134z" />
    <glyph glyph-name="uni06BE.init" unicode="&#x6be;" horiz-adv-x="684" arabic-form="initial" 
d="M-4 168h16q41 0 59 1q-22 39 -22 80q0 18 5 41q16 61 42 105l-33 9l62 156q203 -60 318.5 -114.5t162.5 -110t47 -121.5q0 -44 -19 -103q-17 -53 -72.5 -79.5t-132.5 -26.5q-81 0 -161 26q-90 -31 -256 -31h-16v168zM191.5 227q22.5 -20 61.5 -37q80 24 80 73
q0 24 -15.5 45.5t-39.5 32.5q-7 1 -16 5h-1q-4 1 -11 1q-31 0 -56 -22.5t-25 -55.5q0 -22 22.5 -42zM446 150q34 0 56 7t28 21q3 8 3 14q0 42 -98 88q0 -21 -3 -42q-8 -50 -25 -86q28 -2 39 -2z" />
    <glyph glyph-name="uni06C7.fina" unicode="&#x6c7;" horiz-adv-x="504" arabic-form="final" 
d="M244 -84.5q75 34.5 102 83.5q-110 3 -177 24.5t-95 81.5q-18 41 -18 90q0 62 26 122.5t71.5 99.5t100.5 39q52 0 97 -38.5t75.5 -104.5t41.5 -145h44l9 -84l-9 -84h-48q-28 -113 -126.5 -189t-251.5 -104l-52 145q135 29 210 63.5zM193 582q32 6 56 19q-32 7 -52.5 26.5
t-25.5 49.5q-1 5 -1 14q0 26 14 49t36 37t45 14q12 0 25 -5q28 -10 42 -38t14 -63q0 -46 -21 -85q-24 -44 -77 -66.5t-112 -23.5l-19 63q44 3 76 9zM233 177q44 -7 116 -9q-15 61 -45 100.5t-64 39.5q-19 0 -35.5 -13.5t-26 -33.5t-9.5 -37q0 -14 6 -23q14 -17 58 -24z
M242.5 669q16.5 -13 46.5 -13q2 14 2 19q0 22 -10 38t-26 16q-12 0 -20.5 -9t-8.5 -21q0 -17 16.5 -30z" />
    <glyph glyph-name="uni06C6.fina" unicode="&#x6c6;" horiz-adv-x="504" arabic-form="final" 
d="M244 -84.5q75 34.5 102 83.5q-110 3 -177 24.5t-95 81.5q-18 41 -18 90q0 62 26 122.5t71.5 99.5t100.5 39q52 0 97 -38.5t75.5 -104.5t41.5 -145h44l9 -84l-9 -84h-48q-28 -113 -126.5 -189t-251.5 -104l-52 145q135 29 210 63.5zM179 706q12 -16 27.5 -47.5t22.5 -56.5
q6 26 22 60.5t28 52.5l48 -44q-18 -28 -37.5 -68t-32.5 -72l-52 -16q-11 31 -32.5 73.5t-40.5 71.5zM233 177q44 -7 116 -9q-15 61 -45 100.5t-64 39.5q-19 0 -35.5 -13.5t-26 -33.5t-9.5 -37q0 -14 6 -23q14 -17 58 -24z" />
    <glyph glyph-name="uni06C9.fina" unicode="&#x6c9;" horiz-adv-x="504" arabic-form="final" 
d="M244 -84.5q75 34.5 102 83.5q-110 3 -177 24.5t-95 81.5q-18 41 -18 90q0 62 26 122.5t71.5 99.5t100.5 39q52 0 97 -38.5t75.5 -104.5t41.5 -145h44l9 -84l-9 -84h-48q-28 -113 -126.5 -189t-251.5 -104l-52 145q135 29 210 63.5zM169.5 628q21.5 42 32.5 73l51 -16
q12 -31 32.5 -71t38.5 -69l-49 -44q-12 19 -28 53.5t-22 59.5q-7 -25 -22.5 -56.5t-27.5 -47.5l-47 46q20 30 41.5 72zM233 177q44 -7 116 -9q-15 61 -45 100.5t-64 39.5q-19 0 -35.5 -13.5t-26 -33.5t-9.5 -37q0 -14 6 -23q14 -17 58 -24z" />
    <glyph glyph-name="uni06CC.fina" unicode="&#x6cc;" horiz-adv-x="771" arabic-form="final" 
d="M196.5 -257.5q-72.5 34.5 -114 101.5t-41.5 163q0 21 1 32q5 56 25.5 118.5t44.5 113.5l106 -49q-27 -59 -40.5 -102t-13.5 -89q0 -154 197 -154q77 0 140.5 21.5t88.5 49.5q-22 17 -78.5 45.5t-116.5 49.5l36 158q91 -18 157.5 -25.5t131.5 -7.5h56l9 -84l-9 -84h-56
q-29 0 -44 1q28 -31 28 -63q0 -51 -45 -105t-124 -89.5t-174 -35.5q-92 0 -164.5 34.5z" />
    <glyph glyph-name="uni06CC.init" unicode="&#x6cc;" horiz-adv-x="386" arabic-form="initial" 
d="M-5 168h50q96 0 136.5 16t40.5 47q0 19 -22 79.5t-33 83.5l116 64q20 -42 40.5 -112t20.5 -124q0 -107 -69 -164.5t-203 -57.5h-77v168zM6 -81l87 -88q30 29 59 59l29 29l89 -90l-89 -88l-88 87l-87 -87l-89 88z" />
    <glyph glyph-name="uni06CC.medi" unicode="&#x6cc;" horiz-adv-x="390" arabic-form="medial" 
d="M-4 168h5q79 0 122 7t60.5 22t19.5 41q3 41 -10 109l114 22q14 -75 14 -166q2 -12 18.5 -23.5t50.5 -11.5h5l9 -84l-9 -84h-5q-39 0 -73 17.5t-61 47.5q-32 -34 -90.5 -49.5t-164.5 -15.5h-5v168zM-12 -81l87 -88q30 29 59 59l29 29l89 -90l-89 -88l-88 87l-87 -87
l-89 88z" />
    <glyph glyph-name="uniFDFC" unicode="&#xfdfc;" horiz-adv-x="1525" arabic-form="isolated" 
d="M1226.5 -14q56.5 27 89 54t35.5 49q1 5 1 19q0 39 -9.5 117t-14.5 110l130 29q16 -83 16 -178q0 -60 -8 -116q-16 -102 -97.5 -170.5t-220.5 -104.5l-47 145q69 19 125.5 46zM121 281l106 -49q-25 -56 -38 -97.5t-15 -85.5q-2 -60 45.5 -95.5t128.5 -35.5q90 0 132 46.5
t40 148.5q-8 211 -30 429l88 150l143 38q20 5 35 5q39 0 62 -27.5t24 -78.5l14 -351q2 -49 9 -73t24.5 -33.5t54.5 -9.5q142 0 168 41q-2 28 -14 68.5t-25.5 76t-16.5 40.5l116 64q19 -40 40 -114t21 -128q0 -107 -71 -161.5t-220 -54.5q-113 0 -160.5 63.5t-50.5 198.5
q-3 158 -12 332l-96 -27q1 -35 5 -136q7 -154 11 -304q4 -177 -72 -274.5t-222 -97.5q-80 0 -147.5 32t-107.5 92.5t-40 142.5q0 11 2 35q9 99 69 230zM670 -123q75 -3 177 9t169 29l42 -142q-148 -32 -292 -32q-72 0 -123 8z" />
    <glyph glyph-name="uni0622.fina" unicode="&#x622;" horiz-adv-x="267" arabic-form="final" 
d="M105 65.5q-51 65.5 -53 196.5q-2 119 -6 197.5t-12 173.5l138 31q7 -76 9.5 -154t3.5 -197v-29q1 -47 7 -71.5t23 -34.5t51 -10h6l9 -84l-9 -84h-5q-111 0 -162 65.5zM-11 808.5q30 25.5 64 25.5q16 0 30.5 -4.5t32.5 -13.5q18 -8 28.5 -12t22.5 -4q17 0 34 10.5t27 26.5
l49 -42q-23 -35 -51 -53.5t-59 -18.5q-17 0 -31.5 4.5t-35.5 14.5q-12 5 -24 9.5t-22 4.5q-19 0 -35 -13.5t-27 -36.5l-53 31q20 46 50 71.5z" />
    <glyph glyph-name="uni0623.fina" unicode="&#x623;" horiz-adv-x="267" arabic-form="final" 
d="M105 65.5q-51 65.5 -53 196.5q-2 119 -6 197.5t-12 173.5l138 31q7 -76 9.5 -154t3.5 -197v-29q1 -47 7 -71.5t23 -34.5t51 -10h6l9 -84l-9 -84h-5q-111 0 -162 65.5zM9 754l54 16q-13 16 -20 41q-2 7 -2 21q0 36 22 66.5t55 38.5q13 4 29 4q29 0 69 -14l-18 -74
q-33 11 -54 11q-22 0 -33.5 -12.5t-8.5 -26.5q2 -10 12.5 -18.5t28.5 -8.5q9 0 21 3l67 20v-73l-222 -67v73z" />
    <glyph glyph-name="uni0624.fina" unicode="&#x624;" horiz-adv-x="504" arabic-form="final" 
d="M244 -84.5q75 34.5 102 83.5q-110 3 -177 24.5t-95 81.5q-18 41 -18 90q0 62 26 122.5t71.5 99.5t100.5 39q52 0 97 -38.5t75.5 -104.5t41.5 -145h44l9 -84l-9 -84h-48q-28 -113 -126.5 -189t-251.5 -104l-52 145q135 29 210 63.5zM89 575l53 16q-15 20 -19 40
q-2 7 -2 21q0 36 22 66.5t55 38.5q13 4 29 4q29 0 69 -14l-18 -73q-31 11 -52 11q-23 0 -35 -12.5t-9 -27.5q2 -11 15.5 -20t36.5 -6l77 23v-74l-222 -67v74zM233 177q44 -7 116 -9q-15 61 -45 100.5t-64 39.5q-19 0 -35.5 -13.5t-26 -33.5t-9.5 -37q0 -14 6 -23
q14 -17 58 -24z" />
    <glyph glyph-name="uni0625.fina" unicode="&#x625;" horiz-adv-x="282" arabic-form="final" 
d="M119 65.5q-51 65.5 -52 196.5q-4 291 -29 462l138 31q12 -87 18.5 -227.5t6.5 -258.5q0 -40 7 -61.5t24 -30.5t50 -9h4l9 -84l-9 -84h-4q-112 0 -163 65.5zM33 -220l54 16q-13 16 -20 41q-2 7 -2 21q0 35 22 66t55 39q14 3 27 3q29 0 71 -14l-18 -73q-31 11 -52 11
q-23 0 -35 -12.5t-9 -26.5q2 -12 16 -21t38 -6l75 23v-73l-222 -68v74z" />
    <glyph glyph-name="uni0626.fina" unicode="&#x626;" horiz-adv-x="771" arabic-form="final" 
d="M196.5 -257.5q-72.5 34.5 -114 101.5t-41.5 163q0 21 1 32q5 56 25.5 118.5t44.5 113.5l106 -49q-27 -59 -40.5 -102t-13.5 -89q0 -154 197 -154q77 0 140.5 21.5t88.5 49.5q-22 17 -78.5 45.5t-116.5 49.5l36 158q91 -18 157.5 -25.5t131.5 -7.5h56l9 -84l-9 -84h-56
q-29 0 -44 1q28 -31 28 -63q0 -51 -45 -105t-124 -89.5t-174 -35.5q-92 0 -164.5 34.5zM138 388l55 17q-15 17 -20 40q-2 7 -2 21q0 35 22 66t55 39q14 3 27 3q27 0 71 -14l-19 -73q-30 11 -51 11q-23 0 -34 -11t-11 -25q0 -12 14 -22.5t39 -7.5l76 23v-73l-222 -68v74z" />
    <glyph glyph-name="uni0626.init" unicode="&#x626;" horiz-adv-x="342" arabic-form="initial" 
d="M-5 168h53q130 0 130 57q0 18 -22.5 83t-32.5 86l117 64q19 -40 39.5 -112.5t20.5 -127.5q0 -107 -65 -162.5t-187 -55.5h-53v168zM18 554l55 17q-15 17 -20 40q-3 11 -3 22q0 36 22.5 66t55.5 38q13 4 29 4q27 0 69 -14l-19 -74q-31 11 -54 11q-21 0 -31.5 -11
t-10.5 -25q0 -10 11 -20t30 -10q10 0 20 3l68 20v-73l-222 -67v73z" />
    <glyph glyph-name="uni0626.medi" unicode="&#x626;" horiz-adv-x="335" arabic-form="medial" 
d="M-5 168h6q77 1 110 17t36 53q3 41 -10 109l114 22q14 -82 14 -166q2 -11 19 -23t50 -12h5l9 -84l-9 -84h-5q-39 0 -73 17.5t-61 47.5q-61 -65 -199 -65h-6v168zM28 486l54 16q-15 20 -19 41q-3 11 -3 22q0 35 22.5 65.5t55.5 38.5q14 3 27 3q27 0 71 -14l-19 -73
q-30 11 -51 11q-23 0 -34 -10.5t-11 -25.5q0 -12 13.5 -23t38.5 -7l77 23v-74l-222 -67v74z" />
    <glyph glyph-name="uni0627.fina" unicode="&#x627;" horiz-adv-x="282" arabic-form="final" 
d="M119 65.5q-51 65.5 -52 196.5q-4 291 -29 462l138 31q12 -87 18.5 -227.5t6.5 -258.5q0 -40 7 -61.5t24 -30.5t50 -9h4l9 -84l-9 -84h-4q-112 0 -163 65.5z" />
    <glyph glyph-name="uni0628.fina" unicode="&#x628;" horiz-adv-x="954" arabic-form="final" 
d="M151.5 44.5q-101.5 56.5 -110.5 157.5q-1 8 -1 24q0 44 12 95t30 91l106 -50q-10 -32 -18 -67.5t-7 -58.5q4 -20 36.5 -38.5t91.5 -30t139 -11.5q134 0 205 15t107 50t63 105l113 -13q-19 -56 -19 -89q0 -30 15 -42.5t45 -13.5l9 -84l-9 -84q-54 0 -97.5 32t-53.5 82
q-62 -71 -149.5 -98.5t-219.5 -28.5h-9q-177 1 -278.5 57.5zM411 -124q21 22 43 43l33 -33l66 -66l-99 -100l-66 66l-34 34z" />
    <glyph glyph-name="uni0628.init" unicode="&#x628;" horiz-adv-x="342" arabic-form="initial" 
d="M-5 168h53q130 0 130 57q0 18 -22.5 83t-32.5 86l117 64q19 -40 39.5 -112.5t20.5 -127.5q0 -107 -65 -162.5t-187 -55.5h-53v168zM31 -116q21 22 43 43l33 -33l66 -66l-99 -100l-66 66l-34 34z" />
    <glyph glyph-name="uni0628.medi" unicode="&#x628;" horiz-adv-x="335" arabic-form="medial" 
d="M-5 168h6q77 1 110 17t36 53q3 41 -10 109l114 22q14 -82 14 -166q2 -11 19 -23t50 -12h5l9 -84l-9 -84h-5q-39 0 -73 17.5t-61 47.5q-61 -65 -199 -65h-6v168zM14 -117q21 22 43 43l33 -33l66 -66l-99 -100l-66 66l-34 34z" />
    <glyph glyph-name="uni0629.fina" unicode="&#x629;" horiz-adv-x="529" arabic-form="final" 
d="M371 66q-60 -19 -119 -19q-92 0 -151 45.5t-59 123.5q0 10 2 30q12 79 74.5 135t160.5 97l-8 61l128 27q8 -77 15 -127q12 -118 18 -158q7 -51 15.5 -74t23.5 -31t46 -8h19l9 -84l-9 -84h-19q-97 0 -146 66zM182 800l87 -87l88 87l89 -88l-89 -90l-88 88l-87 -88l-89 90z
M186 214.5q23 -12.5 60 -12.5q29 0 70 11q-3 15 -7 45l-11 75q-55 -18 -95 -42.5t-40 -45.5q0 -18 23 -30.5z" />
    <glyph glyph-name="uni062A.fina" unicode="&#x62a;" horiz-adv-x="954" arabic-form="final" 
d="M151.5 44.5q-101.5 56.5 -110.5 157.5q-1 8 -1 24q0 44 12 95t30 91l106 -50q-10 -32 -18 -67.5t-7 -58.5q4 -20 36.5 -38.5t91.5 -30t139 -11.5q134 0 205 15t107 50t63 105l113 -13q-19 -56 -19 -89q0 -30 15 -42.5t45 -13.5l9 -84l-9 -84q-54 0 -97.5 32t-53.5 82
q-62 -71 -149.5 -98.5t-219.5 -28.5h-9q-177 1 -278.5 57.5zM385 525l87 -87l88 87l88 -88l-88 -90l-88 88l-87 -88l-90 90z" />
    <glyph glyph-name="uni062A.init" unicode="&#x62a;" horiz-adv-x="386" arabic-form="initial" 
d="M-5 168h50q96 0 136.5 16t40.5 47q0 19 -22 79.5t-33 83.5l116 64q20 -42 40.5 -112t20.5 -124q0 -107 -69 -164.5t-203 -57.5h-77v168zM88 667l87 -87l88 87l88 -89l-88 -89l-88 87l-87 -87l-90 89z" />
    <glyph glyph-name="uni062A.medi" unicode="&#x62a;" horiz-adv-x="390" arabic-form="medial" 
d="M-4 168h5q79 0 122 7t60.5 22t19.5 41q3 41 -10 109l114 22q14 -75 14 -166q2 -12 18.5 -23.5t50.5 -11.5h5l9 -84l-9 -84h-5q-39 0 -73 17.5t-61 47.5q-32 -34 -90.5 -49.5t-164.5 -15.5h-5v168zM37 584l30 30l87 -87l88 87l89 -89l-59 -59l-30 -30l-88 88l-87 -88
l-89 89z" />
    <glyph glyph-name="uni062B.fina" unicode="&#x62b;" horiz-adv-x="954" arabic-form="final" 
d="M151.5 44.5q-101.5 56.5 -110.5 157.5q-1 8 -1 24q0 44 12 95t30 91l106 -50q-10 -32 -18 -67.5t-7 -58.5q4 -20 36.5 -38.5t91.5 -30t139 -11.5q134 0 205 15t107 50t63 105l113 -13q-19 -56 -19 -89q0 -30 15 -42.5t45 -13.5l9 -84l-9 -84q-54 0 -97.5 32t-53.5 82
q-62 -71 -149.5 -98.5t-219.5 -28.5h-9q-177 1 -278.5 57.5zM321 464l56 56l84 -83q-15 -17 -48 -48l-36 -37q-13 15 -41 43l-42 42zM472 631q37 -36 73 -73l-73 -75l-74 75zM534 487l34 33q41 -42 83 -83l-33 -34l-50 -51l-85 85z" />
    <glyph glyph-name="uni062B.init" unicode="&#x62b;" horiz-adv-x="386" arabic-form="initial" 
d="M-5 168h50q96 0 136.5 16t40.5 47q0 19 -22 79.5t-33 83.5l116 64q20 -42 40.5 -112t20.5 -124q0 -107 -69 -164.5t-203 -57.5h-77v168zM29 603l56 56l84 -83q-10 -11 -63 -64l-21 -21l-33 34l-50 51zM180 770l73 -73l-73 -75l-74 75zM242 626l34 33q41 -42 83 -83
l-83 -85l-56 56l-29 29z" />
    <glyph glyph-name="uni062B.medi" unicode="&#x62b;" horiz-adv-x="390" arabic-form="medial" 
d="M-4 168h5q79 0 122 7t60.5 22t19.5 41q3 41 -10 109l114 22q14 -75 14 -166q2 -12 18.5 -23.5t50.5 -11.5h5l9 -84l-9 -84h-5q-39 0 -73 17.5t-61 47.5q-32 -34 -90.5 -49.5t-164.5 -15.5h-5v168zM56 608l84 -83l-84 -85l-84 85zM150 720l74 -74l-25 -25q-24 -25 -49 -49
q-25 24 -49 49l-25 25zM246 608q42 -41 83 -83l-83 -85q-42 43 -85 85z" />
    <glyph glyph-name="uni062C.fina" unicode="&#x62c;" horiz-adv-x="748" arabic-form="final" 
d="M217.5 -364q-81.5 34 -129 99.5t-47.5 154.5q0 12 2 36q14 134 124.5 225.5t300.5 134.5q-58 39 -97 56.5t-74 17.5q-62 0 -108 -62l-93 69q78 155 207 155q56 0 110.5 -26t148.5 -95q49 -36 75 -51t57 -26l-17 -148q26 -8 59 -8h17l9 -84l-9 -84h-17q-78 0 -132.5 40.5
t-77.5 109.5q-106 -16 -185.5 -53.5t-125.5 -85.5t-55 -97q-5 -40 29 -73t96 -52.5t137 -19.5q67 0 129 15t95 29l62 -129q-4 -2 -41.5 -23.5t-112.5 -40t-157 -18.5q-98 0 -179.5 34zM361 -1q21 22 43 43l33 -33l66 -66l-99 -100l-66 66l-34 34z" />
    <glyph glyph-name="uni062C.init" unicode="&#x62c;" horiz-adv-x="684" arabic-form="initial" 
d="M-6 168h69q108 0 201 20.5t200 72.5l-19 9l-34 17q-40 20 -80.5 31.5t-72.5 11.5q-36 0 -63.5 -19t-43.5 -42l-93 69q78 155 206 155q43 0 82.5 -14t115.5 -53q57 -30 97.5 -45t89.5 -25l5 -152q-26 -7 -96 -47l-38 -20q-104 -54 -177 -83t-147 -41t-173 -13h-29v168z
M294 -116q21 22 43 43l33 -33l66 -66l-99 -100l-66 66l-34 34z" />
    <glyph glyph-name="uni062C.medi" unicode="&#x62c;" horiz-adv-x="756" arabic-form="medial" 
d="M489 121q-92 -47 -161 -72.5t-140 -36.5t-165 -12h-29v168h69q108 0 201 20.5t200 72.5l-19 9l-34 17q-40 20 -80.5 31.5t-72.5 11.5q-36 0 -63.5 -19t-43.5 -42l-93 69q78 155 206 155q43 0 82.5 -14t115.5 -53q57 -30 97.5 -45t89.5 -25l5 -152q-15 -4 -40 -17
q40 -19 84 -19h63l9 -84l-9 -84h-11q-192 1 -261 121zM294 -115q21 22 43 43l33 -33l66 -66l-99 -100l-66 66l-34 34z" />
    <glyph glyph-name="uni062D.fina" unicode="&#x62d;" horiz-adv-x="748" arabic-form="final" 
d="M217.5 -364q-81.5 34 -129 99.5t-47.5 154.5q0 12 2 36q14 134 124.5 225.5t300.5 134.5q-58 39 -97 56.5t-74 17.5q-62 0 -108 -62l-93 69q78 155 207 155q56 0 110.5 -26t148.5 -95q49 -36 75 -51t57 -26l-17 -148q26 -8 59 -8h17l9 -84l-9 -84h-17q-78 0 -132.5 40.5
t-77.5 109.5q-106 -16 -185.5 -53.5t-125.5 -85.5t-55 -97q-5 -40 29 -73t96 -52.5t137 -19.5q67 0 129 15t95 29l62 -129q-4 -2 -41.5 -23.5t-112.5 -40t-157 -18.5q-98 0 -179.5 34z" />
    <glyph glyph-name="uni062D.init" unicode="&#x62d;" horiz-adv-x="684" arabic-form="initial" 
d="M-6 168h69q108 0 201 20.5t200 72.5l-19 9l-34 17q-40 20 -80.5 31.5t-72.5 11.5q-36 0 -63.5 -19t-43.5 -42l-93 69q78 155 206 155q43 0 82.5 -14t115.5 -53q57 -30 97.5 -45t89.5 -25l5 -152q-26 -7 -96 -47l-38 -20q-104 -54 -177 -83t-147 -41t-173 -13h-29v168z
" />
    <glyph glyph-name="uni062D.medi" unicode="&#x62d;" horiz-adv-x="756" arabic-form="medial" 
d="M489 121q-92 -47 -161 -72.5t-140 -36.5t-165 -12h-29v168h69q108 0 201 20.5t200 72.5l-19 9l-34 17q-40 20 -80.5 31.5t-72.5 11.5q-36 0 -63.5 -19t-43.5 -42l-93 69q78 155 206 155q43 0 82.5 -14t115.5 -53q57 -30 97.5 -45t89.5 -25l5 -152q-15 -4 -40 -17
q40 -19 84 -19h63l9 -84l-9 -84h-11q-192 1 -261 121z" />
    <glyph glyph-name="uni062E.fina" unicode="&#x62e;" horiz-adv-x="748" arabic-form="final" 
d="M217.5 -364q-81.5 34 -129 99.5t-47.5 154.5q0 12 2 36q14 134 124.5 225.5t300.5 134.5q-58 39 -97 56.5t-74 17.5q-62 0 -108 -62l-93 69q78 155 207 155q56 0 110.5 -26t148.5 -95q49 -36 75 -51t57 -26l-17 -148q26 -8 59 -8h17l9 -84l-9 -84h-17q-78 0 -132.5 40.5
t-77.5 109.5q-106 -16 -185.5 -53.5t-125.5 -85.5t-55 -97q-5 -40 29 -73t96 -52.5t137 -19.5q67 0 129 15t95 29l62 -129q-4 -2 -41.5 -23.5t-112.5 -40t-157 -18.5q-98 0 -179.5 34zM269 771l99 -99l-99 -100l-34 34l-66 66z" />
    <glyph glyph-name="uni062E.init" unicode="&#x62e;" horiz-adv-x="684" arabic-form="initial" 
d="M-6 168h69q108 0 201 20.5t200 72.5l-19 9l-34 17q-40 20 -80.5 31.5t-72.5 11.5q-36 0 -63.5 -19t-43.5 -42l-93 69q78 155 206 155q43 0 82.5 -14t115.5 -53q57 -30 97.5 -45t89.5 -25l5 -152q-26 -7 -96 -47l-38 -20q-104 -54 -177 -83t-147 -41t-173 -13h-29v168z
M285 756l66 -66l33 -33q-21 -22 -43 -43l-56 -57l-34 34l-66 66z" />
    <glyph glyph-name="uni062E.medi" unicode="&#x62e;" horiz-adv-x="756" arabic-form="medial" 
d="M489 121q-92 -47 -161 -72.5t-140 -36.5t-165 -12h-29v168h69q108 0 201 20.5t200 72.5l-19 9l-34 17q-40 20 -80.5 31.5t-72.5 11.5q-36 0 -63.5 -19t-43.5 -42l-93 69q78 155 206 155q43 0 82.5 -14t115.5 -53q57 -30 97.5 -45t89.5 -25l5 -152q-15 -4 -40 -17
q40 -19 84 -19h63l9 -84l-9 -84h-11q-192 1 -261 121zM285 756l66 -66l33 -33q-21 -22 -43 -43l-56 -57l-34 34l-66 66z" />
    <glyph glyph-name="uni062F.fina" unicode="&#x62f;" horiz-adv-x="584" arabic-form="final" 
d="M498 16q-34 16 -61 49q-71 -71 -179 -71q-123 0 -236 83l59 118q78 -41 160 -41q77 0 129 32l-135 308l113 61l137 -324q16 -37 35 -50t57 -13h12l9 -84l-9 -84h-12q-45 0 -79 16z" />
    <glyph glyph-name="uni0630.fina" unicode="&#x630;" horiz-adv-x="584" arabic-form="final" 
d="M498 16q-34 16 -61 49q-71 -71 -179 -71q-123 0 -236 83l59 118q78 -41 160 -41q77 0 129 32l-135 308l113 61l137 -324q16 -37 35 -50t57 -13h12l9 -84l-9 -84h-12q-45 0 -79 16zM304 821l66 -66l33 -33l-25 -25q-62 -62 -74 -75l-100 100z" />
    <glyph glyph-name="uni0631.fina" unicode="&#x631;" horiz-adv-x="419" arabic-form="final" 
d="M358 10q-9 -93 -86 -170.5t-202 -132.5l-70 141q66 28 122 63.5t88.5 69t32.5 54.5q0 33 -53 215l-7 25l124 49q13 -36 24 -80q13 -41 32 -58.5t51 -17.5h10l9 -84l-9 -84h-10q-28 0 -56 10z" />
    <glyph glyph-name="uni0632.fina" unicode="&#x632;" horiz-adv-x="419" arabic-form="final" 
d="M358 10q-9 -93 -86 -170.5t-202 -132.5l-70 141q66 28 122 63.5t88.5 69t32.5 54.5q0 33 -53 215l-7 25l124 49q13 -36 24 -80q13 -41 32 -58.5t51 -17.5h10l9 -84l-9 -84h-10q-28 0 -56 10zM227 611l99 -99l-99 -100l-100 100z" />
    <glyph glyph-name="uni0633.fina" unicode="&#x633;" horiz-adv-x="1287" arabic-form="final" 
d="M1154 67q-25 -31 -58.5 -48.5t-70.5 -18.5h-3h-3q-44 1 -77.5 21.5t-54.5 57.5q-28 -39 -60 -59t-71 -20h-1h-3q-27 2 -48 10q-6 -86 -51.5 -155t-121 -109t-169.5 -40q-93 0 -165.5 35t-113.5 102.5t-41 160.5q0 21 1 32q7 99 70 233l105 -48q-27 -66 -39.5 -107.5
t-12.5 -88.5q0 -151 196 -151q67 0 118.5 22.5t80 59.5t28.5 80q0 45 -32 137t-35 100l117 64q16 -43 27 -79q13 -35 23.5 -53t26.5 -27.5t44 -9.5q45 1 71 50q21 43 33 113l113 -5q-3 -18 -6.5 -46.5t-3.5 -45.5q0 -31 13.5 -48.5t41.5 -17.5q23 0 44 8.5t32 21.5l-16 81
l-9 45l113 31q11 -63 18 -95t14 -51q13 -41 69 -41h5l9 -84l-9 -84h-5q-80 0 -133 67z" />
    <glyph glyph-name="uni0633.init" unicode="&#x633;" horiz-adv-x="771" arabic-form="initial" 
d="M474 21.5q-34 20.5 -55 57.5q-28 -39 -59.5 -58.5t-70.5 -20.5h-6q-42 0 -75 21t-47 57q-32 -38 -73 -58t-87 -20h-3l-9 84l9 84h5q28 0 57 12.5t44 29.5q32 36 52 116l114 -12l-5 -20q-15 -60 -15 -82q0 -44 36 -44h3q48 0 74 50q21 43 33 113l113 -5q-3 -18 -6.5 -46.5
t-3.5 -45.5q0 -31 13.5 -48.5t41.5 -17.5h1q26 0 42.5 15.5t16.5 38.5q0 24 -20 80.5t-35 91.5l113 62q19 -39 40 -112.5t21 -128.5q0 -58 -22.5 -107t-62.5 -78.5t-91 -29.5h-3h-2q-44 1 -78 21.5z" />
    <glyph glyph-name="uni0633.medi" unicode="&#x633;" horiz-adv-x="818" arabic-form="medial" 
d="M686 67q-25 -31 -58.5 -48.5t-70.5 -18.5h-3h-3q-44 1 -77.5 21.5t-54.5 57.5q-28 -39 -59.5 -58.5t-70.5 -20.5h-6q-42 0 -75 21t-47 57q-32 -38 -73 -58t-87 -20h-3l-9 84l9 84h5q28 0 57 12.5t44 29.5q32 36 52 116l114 -12l-5 -20q-15 -60 -15 -82q0 -44 36 -44h3
q48 0 74 50q21 43 33 113l113 -5q-3 -18 -6.5 -46.5t-3.5 -45.5q0 -31 13.5 -48.5t41.5 -17.5q23 0 44 8.5t32 21.5l-16 81l-9 45l113 31q11 -63 18 -95t14 -51q13 -41 69 -41h5l9 -84l-9 -84h-5q-80 0 -133 67z" />
    <glyph glyph-name="uni0634.fina" unicode="&#x634;" horiz-adv-x="1287" arabic-form="final" 
d="M1154 67q-25 -31 -58.5 -48.5t-70.5 -18.5h-3h-3q-44 1 -77.5 21.5t-54.5 57.5q-28 -39 -60 -59t-71 -20h-1h-3q-27 2 -48 10q-6 -86 -51.5 -155t-121 -109t-169.5 -40q-93 0 -165.5 35t-113.5 102.5t-41 160.5q0 21 1 32q7 99 70 233l105 -48q-27 -66 -39.5 -107.5
t-12.5 -88.5q0 -151 196 -151q67 0 118.5 22.5t80 59.5t28.5 80q0 45 -32 137t-35 100l117 64q16 -43 27 -79q13 -35 23.5 -53t26.5 -27.5t44 -9.5q45 1 71 50q21 43 33 113l113 -5q-3 -18 -6.5 -46.5t-3.5 -45.5q0 -31 13.5 -48.5t41.5 -17.5q23 0 44 8.5t32 21.5l-16 81
l-9 45l113 31q11 -63 18 -95t14 -51q13 -41 69 -41h5l9 -84l-9 -84h-5q-80 0 -133 67zM819 603l84 -83l-28 -28l-56 -56l-28 28l-56 56q27 29 84 83zM913 715l74 -74q-25 -24 -49 -49l-25 -25l-25 25q-24 25 -49 49zM958 553l51 50q28 -27 55 -55l28 -28l-83 -84l-85 84z
" />
    <glyph glyph-name="uni0634.init" unicode="&#x634;" horiz-adv-x="771" arabic-form="initial" 
d="M474 21.5q-34 20.5 -55 57.5q-28 -39 -59.5 -58.5t-70.5 -20.5h-6q-42 0 -75 21t-47 57q-32 -38 -73 -58t-87 -20h-3l-9 84l9 84h5q28 0 57 12.5t44 29.5q32 36 52 116l114 -12l-5 -20q-15 -60 -15 -82q0 -44 36 -44h3q48 0 74 50q21 43 33 113l113 -5q-3 -18 -6.5 -46.5
t-3.5 -45.5q0 -31 13.5 -48.5t41.5 -17.5h1q26 0 42.5 15.5t16.5 38.5q0 24 -20 80.5t-35 91.5l113 62q19 -39 40 -112.5t21 -128.5q0 -58 -22.5 -107t-62.5 -78.5t-91 -29.5h-3h-2q-44 1 -78 21.5zM352 639l84 -83l-84 -85l-84 85zM422 726l24 24l74 -73l-74 -75l-73 75z
M542 639l83 -83l-50 -51l-33 -34l-84 85z" />
    <glyph glyph-name="uni0634.medi" unicode="&#x634;" horiz-adv-x="818" arabic-form="medial" 
d="M686 67q-25 -31 -58.5 -48.5t-70.5 -18.5h-3h-3q-44 1 -77.5 21.5t-54.5 57.5q-28 -39 -59.5 -58.5t-70.5 -20.5h-6q-42 0 -75 21t-47 57q-32 -38 -73 -58t-87 -20h-3l-9 84l9 84h5q28 0 57 12.5t44 29.5q32 36 52 116l114 -12l-5 -20q-15 -60 -15 -82q0 -44 36 -44h3
q48 0 74 50q21 43 33 113l113 -5q-3 -18 -6.5 -46.5t-3.5 -45.5q0 -31 13.5 -48.5t41.5 -17.5q23 0 44 8.5t32 21.5l-16 81l-9 45l113 31q11 -63 18 -95t14 -51q13 -41 69 -41h5l9 -84l-9 -84h-5q-80 0 -133 67zM369 595l84 -83l-84 -85l-84 85q57 54 84 83zM464 706
q36 -37 73 -73l-73 -75l-74 75zM560 595q41 -42 83 -83l-83 -85q-43 42 -85 85z" />
    <glyph glyph-name="uni0635.fina" unicode="&#x635;" horiz-adv-x="1301" arabic-form="final" 
d="M196.5 -259q-72.5 35 -113.5 102.5t-41 160.5q0 21 1 32q7 99 70 233l105 -48q-27 -66 -39.5 -107.5t-12.5 -88.5q0 -151 196 -151q67 0 118.5 22.5t80 59.5t28.5 80q0 33 -21 99t-38 108l117 63q11 -26 18 -46q22 -51 42 -74q72 130 165.5 206.5t188.5 76.5
q59 0 105.5 -26t72.5 -72t26 -102q0 -55 -20 -101h62l9 -84l-9 -84q-74 0 -125 3.5t-91 16.5q-96 -42 -224 -42q-91 0 -162 39q-5 -87 -50 -158t-121.5 -112t-171.5 -41q-93 0 -165.5 35zM838 142q13 -1 38 -1q79 0 142 19.5t97.5 48.5t34.5 54q0 18 -21.5 32t-57.5 14
q-64 0 -131 -44t-124 -121q14 -2 22 -2z" />
    <glyph glyph-name="uni0635.init" unicode="&#x635;" horiz-adv-x="882" arabic-form="initial" 
d="M-6 168h14q46 0 73.5 20t44 62.5t26.5 114.5l114 -24q-6 -40 -6 -71q0 -54 23 -84q75 134 168 209t186 75q59 0 105.5 -25.5t73 -71t26.5 -102.5q0 -90 -51.5 -156t-143 -101t-210.5 -35q-178 0 -246 115q-32 -47 -76.5 -70.5t-106.5 -23.5h-14v168zM408 143
q92 -3 165 16t113.5 48.5t40.5 56.5q0 19 -20 33.5t-56 14.5q-64 0 -131.5 -43.5t-126.5 -124.5z" />
    <glyph glyph-name="uni0635.medi" unicode="&#x635;" horiz-adv-x="877" arabic-form="medial" 
d="M731 2.5q-49 2.5 -84 11.5q-91 -35 -210 -35q-178 0 -246 115q-32 -47 -76.5 -70.5t-106.5 -23.5h-14v168h14q46 0 73.5 20t44 62.5t26.5 114.5l114 -24q-6 -40 -6 -71q0 -54 23 -84q75 134 168 209t186 75q59 0 105.5 -25.5t73 -71t26.5 -102.5t-21 -104q18 1 56 1h4
l9 -84l-9 -84h-4q-97 0 -146 2.5zM408 143q92 -3 165 16t113.5 48.5t40.5 56.5q0 19 -20 33.5t-56 14.5q-64 0 -131.5 -43.5t-126.5 -124.5z" />
    <glyph glyph-name="uni0636.fina" unicode="&#x636;" horiz-adv-x="1301" arabic-form="final" 
d="M196.5 -259q-72.5 35 -113.5 102.5t-41 160.5q0 21 1 32q7 99 70 233l105 -48q-27 -66 -39.5 -107.5t-12.5 -88.5q0 -151 196 -151q67 0 118.5 22.5t80 59.5t28.5 80q0 33 -21 99t-38 108l117 63q11 -26 18 -46q22 -51 42 -74q72 130 165.5 206.5t188.5 76.5
q59 0 105.5 -26t72.5 -72t26 -102q0 -55 -20 -101h62l9 -84l-9 -84q-74 0 -125 3.5t-91 16.5q-96 -42 -224 -42q-91 0 -162 39q-5 -87 -50 -158t-121.5 -112t-171.5 -41q-93 0 -165.5 35zM838 142q13 -1 38 -1q79 0 142 19.5t97.5 48.5t34.5 54q0 18 -21.5 32t-57.5 14
q-64 0 -131 -44t-124 -121q14 -2 22 -2zM994 721l25 25l33 -33l66 -66l-99 -100l-100 100q13 12 75 74z" />
    <glyph glyph-name="uni0636.init" unicode="&#x636;" horiz-adv-x="882" arabic-form="initial" 
d="M-6 168h14q46 0 73.5 20t44 62.5t26.5 114.5l114 -24q-6 -40 -6 -71q0 -54 23 -84q75 134 168 209t186 75q59 0 105.5 -25.5t73 -71t26.5 -102.5q0 -90 -51.5 -156t-143 -101t-210.5 -35q-178 0 -246 115q-32 -47 -76.5 -70.5t-106.5 -23.5h-14v168zM408 143
q92 -3 165 16t113.5 48.5t40.5 56.5q0 19 -20 33.5t-56 14.5q-64 0 -131.5 -43.5t-126.5 -124.5zM597 744l66 -66l33 -33q-21 -22 -43 -43l-56 -57l-34 34l-66 66z" />
    <glyph glyph-name="uni0636.medi" unicode="&#x636;" horiz-adv-x="877" arabic-form="medial" 
d="M731 2.5q-49 2.5 -84 11.5q-91 -35 -210 -35q-178 0 -246 115q-32 -47 -76.5 -70.5t-106.5 -23.5h-14v168h14q46 0 73.5 20t44 62.5t26.5 114.5l114 -24q-6 -40 -6 -71q0 -54 23 -84q75 134 168 209t186 75q59 0 105.5 -25.5t73 -71t26.5 -102.5t-21 -104q18 1 56 1h4
l9 -84l-9 -84h-4q-97 0 -146 2.5zM408 143q92 -3 165 16t113.5 48.5t40.5 56.5q0 19 -20 33.5t-56 14.5q-64 0 -131.5 -43.5t-126.5 -124.5zM597 744l66 -66l33 -33q-21 -22 -43 -43l-56 -57l-34 34l-66 66z" />
    <glyph glyph-name="uni0637.fina" unicode="&#x637;" horiz-adv-x="802" arabic-form="final" 
d="M196 164q16 31 39 68q1 17 1 58q0 98 -11 233.5t-22 200.5l140 31q8 -58 15 -159t8 -209q97 85 197 85q59 0 106 -26t73.5 -71.5t26.5 -103.5q0 -54 -22 -103h70l9 -84l-9 -84q-98 0 -152 3t-92 14q-90 -36 -210 -36q-88 0 -171.5 17.5t-153.5 49.5l47 153
q46 -21 111 -37zM334 146q92 -3 165 16t113.5 49t40.5 57q0 18 -20.5 32t-55.5 14q-63 0 -130 -43t-128 -124q5 -1 15 -1z" />
    <glyph glyph-name="uni0637.init" unicode="&#x637;" horiz-adv-x="705" arabic-form="initial" 
d="M83 168q20 41 47 84q1 17 1 55q0 95 -11.5 222.5t-22.5 194.5l140 31q9 -61 16 -154.5t7 -194.5q99 85 198 85q59 0 105.5 -26t73 -71t26.5 -102q0 -90 -52 -156t-143.5 -101t-209.5 -35h-263v168h88zM230 165q92 -3 164.5 16t113 48t40.5 56q0 20 -20 34t-55 14
q-63 0 -131 -44t-128 -124h16z" />
    <glyph glyph-name="uni0637.medi" unicode="&#x637;" horiz-adv-x="704" arabic-form="medial" 
d="M83 168q20 41 47 84q1 17 1 55q0 95 -11.5 222.5t-22.5 194.5l140 31q9 -61 16 -154.5t7 -194.5q99 85 198 85q59 0 105.5 -26t73 -71t26.5 -102q0 -68 -31 -124h71l9 -84l-9 -84q-111 0 -169.5 4t-97.5 20q-79 -24 -178 -24h-263v168h88zM230 165q92 -3 164.5 16t113 48
t40.5 56q0 20 -20 34t-55 14q-63 0 -131 -44t-128 -124h16z" />
    <glyph glyph-name="uni0638.fina" unicode="&#x638;" horiz-adv-x="802" arabic-form="final" 
d="M196 164q16 31 39 68q1 17 1 58q0 98 -11 233.5t-22 200.5l140 31q8 -58 15 -159t8 -209q97 85 197 85q59 0 106 -26t73.5 -71.5t26.5 -103.5q0 -54 -22 -103h70l9 -84l-9 -84q-98 0 -152 3t-92 14q-90 -36 -210 -36q-88 0 -171.5 17.5t-153.5 49.5l47 153
q46 -21 111 -37zM334 146q92 -3 165 16t113.5 49t40.5 57q0 18 -20.5 32t-55.5 14q-63 0 -130 -43t-128 -124q5 -1 15 -1zM561 773l99 -99l-99 -100l-66 66l-34 34z" />
    <glyph glyph-name="uni0638.init" unicode="&#x638;" horiz-adv-x="705" arabic-form="initial" 
d="M83 168q20 41 47 84q1 17 1 55q0 95 -11.5 222.5t-22.5 194.5l140 31q9 -61 16 -154.5t7 -194.5q99 85 198 85q59 0 105.5 -26t73 -71t26.5 -102q0 -90 -52 -156t-143.5 -101t-209.5 -35h-263v168h88zM230 165q92 -3 164.5 16t113 48t40.5 56q0 20 -20 34t-55 14
q-63 0 -131 -44t-128 -124h16zM452 773l33 -33l66 -66l-56 -57q-22 -21 -43 -43l-99 100z" />
    <glyph glyph-name="uni0638.medi" unicode="&#x638;" horiz-adv-x="704" arabic-form="medial" 
d="M83 168q20 41 47 84q1 17 1 55q0 95 -11.5 222.5t-22.5 194.5l140 31q9 -61 16 -154.5t7 -194.5q99 85 198 85q59 0 105.5 -26t73 -71t26.5 -102q0 -68 -31 -124h71l9 -84l-9 -84q-111 0 -169.5 4t-97.5 20q-79 -24 -178 -24h-263v168h88zM230 165q92 -3 164.5 16t113 48
t40.5 56q0 20 -20 34t-55 14q-63 0 -131 -44t-128 -124h16zM452 773l33 -33l66 -66l-56 -57q-22 -21 -43 -43l-99 100z" />
    <glyph glyph-name="uni0639.fina" unicode="&#x639;" horiz-adv-x="613" arabic-form="final" 
d="M617 168l9 -84l-9 -84h-20q-158 0 -284 82q-148 -65 -152 -129q-1 -4 -1 -11q0 -30 22.5 -55.5t65 -41t99.5 -15.5q110 0 188 37l62 -128q-43 -34 -111.5 -56t-138.5 -22q-84 0 -153.5 35t-110.5 95.5t-41 135.5q0 27 4 48q13 74 51.5 124t95.5 84q-47 47 -111 130l5 111
q47 46 116 70t143 24q89 0 157 -33t83 -92q4 -15 4 -34q0 -45 -27 -92t-76 -88q52 -11 110 -11h20zM335 246q58 26 88.5 51t35.5 46q-9 15 -36 23.5t-62 8.5t-68.5 -8t-57.5 -23q48 -59 100 -98z" />
    <glyph glyph-name="uni0639.init" unicode="&#x639;" horiz-adv-x="539" arabic-form="initial" 
d="M-5 168h12q51 0 75 1q-22 42 -22 95q0 62 31 118t83.5 90t114.5 34q50 0 99.5 -21.5t90.5 -57.5l-53 -113q-64 24 -123 24q-16 0 -24 -1q-44 -4 -74 -26.5t-30 -46.5q0 -20 18.5 -38.5t49.5 -30t66 -11.5q99 13 168 37l32 -149q-179 -72 -502 -72h-12v168z" />
    <glyph glyph-name="uni0639.medi" unicode="&#x639;" horiz-adv-x="574" arabic-form="medial" 
d="M-5 168h29q63 0 114 6q-43 45 -98 115l4 112q46 46 115 70t143 24q90 0 158 -33.5t83 -91.5q4 -13 4 -32q0 -79 -88 -164q41 -6 87 -6h33l9 -84l-9 -84h-33q-81 0 -144 13.5t-119 44.5q-62 -28 -128.5 -43t-130.5 -15h-29v168zM313 223q75 38 104 97q-10 15 -37 23.5
t-62 8.5q-34 0 -67.5 -8t-57.5 -23q58 -63 120 -98z" />
    <glyph glyph-name="uni063A.fina" unicode="&#x63a;" horiz-adv-x="612" arabic-form="final" 
d="M617 168l9 -84l-9 -84h-20q-158 0 -284 82q-148 -65 -152 -129q-1 -4 -1 -11q0 -30 22.5 -55.5t65 -41t99.5 -15.5q110 0 188 37l62 -128q-43 -34 -111.5 -56t-138.5 -22q-84 0 -153.5 35t-110.5 95.5t-41 135.5q0 27 4 48q13 74 51.5 124t95.5 84q-47 47 -111 130l5 111
q47 46 116 70t143 24q89 0 157 -33t83 -92q4 -15 4 -34q0 -45 -27 -92t-76 -88q52 -11 110 -11h20zM334 753l66 -66l33 -33q-21 -22 -43 -43l-56 -57l-34 34l-66 66zM335 246q58 26 88.5 51t35.5 46q-9 15 -36 23.5t-62 8.5t-68.5 -8t-57.5 -23q48 -59 100 -98z" />
    <glyph glyph-name="uni063A.init" unicode="&#x63a;" horiz-adv-x="539" arabic-form="initial" 
d="M-5 168h12q51 0 75 1q-22 42 -22 95q0 62 31 118t83.5 90t114.5 34q50 0 99.5 -21.5t90.5 -57.5l-53 -113q-64 24 -123 24q-16 0 -24 -1q-44 -4 -74 -26.5t-30 -46.5q0 -20 18.5 -38.5t49.5 -30t66 -11.5q99 13 168 37l32 -149q-179 -72 -502 -72h-12v168zM219 714l57 56
l66 -66l33 -33l-99 -99l-100 99q22 21 43 43z" />
    <glyph glyph-name="uni063A.medi" unicode="&#x63a;" horiz-adv-x="574" arabic-form="medial" 
d="M-5 168h29q63 0 114 6q-43 45 -98 115l4 112q46 46 115 70t143 24q90 0 158 -33.5t83 -91.5q4 -13 4 -32q0 -79 -88 -164q41 -6 87 -6h33l9 -84l-9 -84h-33q-81 0 -144 13.5t-119 44.5q-62 -28 -128.5 -43t-130.5 -15h-29v168zM313 223q75 38 104 97q-10 15 -37 23.5
t-62 8.5q-34 0 -67.5 -8t-57.5 -23q58 -63 120 -98zM220 673q62 62 75 74l99 -99l-33 -33l-66 -66l-100 99z" />
    <glyph glyph-name="uni0641.fina" unicode="&#x641;" horiz-adv-x="901" arabic-form="final" 
d="M439 -13q-181 -1 -285 56t-113 159q-1 8 -1 24q0 44 12 95t30 91l106 -50q-10 -32 -18 -67.5t-7 -58.5q4 -20 36.5 -38.5t91 -30t138.5 -11.5h13q42 0 61 1q-26 46 -26 94q0 19 2 28q9 61 37.5 110.5t70 78.5t88.5 29q54 0 94.5 -32.5t62 -84t21.5 -105.5q0 -24 -2 -35
q-7 -42 -20 -72h74l9 -84l-9 -84h-60q-91 0 -166 26q-94 -39 -237 -39h-3zM642 713q21 22 43 43l33 -33l66 -66l-99 -100l-66 66l-34 34zM614.5 227q19.5 -22 52.5 -37q48 23 70 66q1 3 1 10q0 28 -19 52.5t-52 24.5q-29 0 -50 -23t-24 -50q2 -21 21.5 -43z" />
    <glyph glyph-name="uni0641.init" unicode="&#x641;" horiz-adv-x="480" arabic-form="initial" 
d="M-5 168h16q117 0 186 10t102 37q-28 -2 -41 -2q-72 0 -128 26t-80 76q-18 39 -18 86q0 59 25.5 115.5t70 93t98.5 36.5q60 0 109.5 -49t77 -130t26.5 -172q-2 -140 -107 -217.5t-323 -77.5h-14v168zM179 878l25 25l33 -33l66 -66l-99 -100l-100 100q13 12 75 74zM215 376
q49 -11 106 -8q-15 60 -44 99t-65 39q-28 0 -49 -25.5t-21 -51.5q0 -14 7 -22q17 -20 66 -31z" />
    <glyph glyph-name="uni0641.medi" unicode="&#x641;" horiz-adv-x="466" arabic-form="medial" 
d="M-6 168h24q33 0 48 1q-20 40 -20 83q0 9 2 27q9 61 37.5 110.5t70 78.5t88.5 29q55 0 95.5 -32.5t61.5 -83.5t21 -106q0 -24 -2 -35q-6 -41 -19 -72h73l9 -84l-9 -84h-60q-93 0 -175 29q-86 -29 -221 -29h-24v168zM171 689l66 66q50 -49 99 -99l-66 -66l-33 -33l-99 99z
M183.5 228.5q18.5 -21.5 49.5 -36.5q50 18 73 64q1 3 1 10q0 28 -19 52.5t-52 24.5q-29 0 -50 -23t-24 -50q3 -20 21.5 -41.5z" />
    <glyph glyph-name="uni0642.fina" unicode="&#x642;" horiz-adv-x="739" arabic-form="final" 
d="M196.5 -259q-72.5 35 -113.5 102.5t-41 160.5q0 21 1 32q7 99 70 233l105 -48q-27 -67 -39.5 -107.5t-12.5 -88.5q0 -76 50.5 -113.5t145.5 -37.5q84 0 144 35t77 91q-111 2 -180 23.5t-97 82.5q-18 41 -18 90q0 61 26 122t71.5 99.5t99.5 38.5q52 0 97 -39t75.5 -104.5
t42.5 -144.5h43l9 -84l-9 -84h-43q-15 -92 -61.5 -158.5t-118 -101t-158.5 -34.5q-93 0 -165.5 35zM398 701l87 -87l88 87l88 -88l-88 -90l-88 88l-87 -88l-90 90zM464 177q43 -7 117 -9q-16 61 -45.5 100.5t-65.5 39.5q-29 0 -49.5 -28t-20.5 -56q0 -14 6 -22
q15 -18 58 -25z" />
    <glyph glyph-name="uni0642.init" unicode="&#x642;" horiz-adv-x="480" arabic-form="initial" 
d="M-5 168h16q117 0 186 10t102 37q-28 -2 -41 -2q-72 0 -128 26t-80 76q-18 39 -18 86q0 59 25.5 115.5t70 93t98.5 36.5q60 0 109.5 -49t77 -130t26.5 -172q-2 -140 -107 -217.5t-323 -77.5h-14v168zM91 827q23 21 44 44l87 -87l88 87l89 -89l-59 -59l-30 -30l-88 88
l-87 -88l-60 60l-29 29zM215 376q49 -11 106 -8q-15 60 -44 99t-65 39q-28 0 -49 -25.5t-21 -51.5q0 -14 7 -22q17 -20 66 -31z" />
    <glyph glyph-name="uni0642.medi" unicode="&#x642;" horiz-adv-x="466" arabic-form="medial" 
d="M-6 168h24q33 0 48 1q-20 40 -20 83q0 9 2 27q9 61 37.5 110.5t70 78.5t88.5 29q55 0 95.5 -32.5t61.5 -83.5t21 -106q0 -24 -2 -35q-6 -41 -19 -72h73l9 -84l-9 -84h-60q-93 0 -175 29q-86 -29 -221 -29h-24v168zM109 688q23 21 44 44l87 -87l88 87l89 -89
q-23 -21 -44 -44l-45 -45l-88 88l-87 -88l-89 89zM183.5 228.5q18.5 -21.5 49.5 -36.5q50 18 73 64q1 3 1 10q0 28 -19 52.5t-52 24.5q-29 0 -50 -23t-24 -50q3 -20 21.5 -41.5z" />
    <glyph glyph-name="uni0643.fina" unicode="&#x643;" horiz-adv-x="954" arabic-form="final" 
d="M852.5 27.5q-42.5 27.5 -89.5 84.5q-38 -60 -118 -92t-185 -32l-21 -1h-15h-1q-174 2 -273.5 58.5t-108.5 156.5q-1 8 -1 24q0 44 12 95t30 91l106 -50q-10 -32 -18 -67.5t-7 -58.5q4 -21 37.5 -39.5t95 -29.5t143.5 -11v-1h21q76 0 131.5 17t77.5 38q-19 51 -67.5 110.5
t-141.5 135.5l14 144l373 156l46 -134l-281 -119q18 -15 55 -55.5t68 -88.5q52 -78 86 -118.5t61 -56.5t59 -16h18l9 -84l-9 -84h-18q-46 0 -88.5 27.5z" />
    <glyph glyph-name="uni0643.init" unicode="&#x643;" horiz-adv-x="465" arabic-form="initial" 
d="M-5 168h37q80 0 134.5 12t74.5 31q-42 108 -209 245l14 144l373 156l46 -134l-281 -119q56 -51 117 -132.5t61 -165.5q0 -20 -4 -36q-18 -85 -106 -127t-220 -42h-37v168z" />
    <glyph glyph-name="uni0643.medi" unicode="&#x643;" horiz-adv-x="524" arabic-form="medial" 
d="M422.5 26.5q-41.5 26.5 -88.5 84.5q-37 -56 -116.5 -83.5t-185.5 -27.5h-37v168h37q80 0 134.5 12t74.5 31q-42 108 -209 245l14 144l373 156l46 -134l-281 -119q33 -30 75 -78t71 -105q43 -62 72.5 -94.5t54 -45t53.5 -12.5h18l9 -84l-9 -84h-18q-46 0 -87.5 26.5z" />
    <glyph glyph-name="uni0644.fina" unicode="&#x644;" horiz-adv-x="774" arabic-form="final" 
d="M658 34q-16 -140 -99 -219t-218 -79q-81 0 -149.5 32.5t-109.5 93.5t-41 143q0 11 2 33q9 100 69 233l107 -49q-25 -57 -38.5 -98t-15.5 -85q-2 -59 47 -96.5t129 -37.5q98 0 149.5 48.5t49.5 148.5q-4 158 -18 339.5t-29 282.5l140 31q17 -123 26 -490q3 -43 11.5 -62.5
t30 -27t66.5 -7.5h12l9 -84l-9 -84h-12q-67 0 -109 34z" />
    <glyph glyph-name="uni0644.init" unicode="&#x644;" horiz-adv-x="294" arabic-form="initial" 
d="M-5 168h31q49 0 72 19.5t23 58.5q0 65 -11 237.5t-20 240.5l140 31q7 -62 15.5 -242t8.5 -255q0 -71 -29 -130t-80.5 -93.5t-115.5 -34.5h-34v168z" />
    <glyph glyph-name="uni0644.medi" unicode="&#x644;" horiz-adv-x="305" arabic-form="medial" 
d="M223.5 20q-36.5 20 -63.5 56q-24 -36 -60.5 -56t-82.5 -20h-22v168h19q48 0 69.5 16t20.5 56v3q-3 70 -12.5 234.5t-17.5 244.5l140 32q8 -92 17 -352q6 -150 7 -160q2 -40 17.5 -57t43.5 -17h10l9 -84l-9 -84h-10q-39 0 -75.5 20z" />
    <glyph glyph-name="uni0645.fina" unicode="&#x645;" horiz-adv-x="647" arabic-form="final" 
d="M37 59q0 45 1 65q3 62 40.5 101.5t95.5 39.5q13 0 20 -1q39 85 94 134t111 49q63 0 103 -38.5t69 -117.5q26 -71 41 -97t33 -26h7l9 -84l-9 -84h-7q-28 0 -55 14.5t-48 41.5q-19 -31 -44 -46q-24 -15 -57 -15q-39 0 -101.5 23t-162.5 76q-6 2 -7 -4q-1 -75 6.5 -172
t19.5 -227q1 -21 3 -36.5t2 -24.5l-139 -32q-25 292 -25 461zM393 162.5q40 -15.5 65 -19.5t29 -2q-7 57 -29.5 106.5t-62.5 49.5t-89 -89q47 -30 87 -45.5z" />
    <glyph glyph-name="uni0645.init" unicode="&#x645;" horiz-adv-x="569" arabic-form="initial" 
d="M-2 168h19q74 0 126 95q51 94 97.5 139t103.5 45q56 0 98 -35.5t64 -93t22 -119.5q0 -61 -21.5 -111.5t-64.5 -77.5q-25 -15 -58 -15q-78 0 -204 78q-63 -73 -166 -73h-19zM333.5 163.5q36.5 -16.5 54.5 -16.5q8 0 12 3q8 6 12.5 17.5t4.5 26.5q0 38 -21.5 70.5
t-55.5 32.5q-41 0 -89 -89q46 -28 82.5 -44.5z" />
    <glyph glyph-name="uni0645.medi" unicode="&#x645;" horiz-adv-x="598" arabic-form="medial" 
d="M-5 168h22q72 0 126 95q51 91 99.5 137.5t102.5 46.5q63 0 102.5 -38.5t68.5 -117.5q26 -72 40.5 -97.5t33.5 -25.5h13l9 -84l-9 -84h-13q-28 0 -55 14.5t-48 41.5q-17 -30 -45 -46q-25 -15 -58 -15q-76 0 -204 79q-31 -37 -73.5 -55.5t-92.5 -18.5h-19v168zM346 155
q47 -16 77 -16q9 0 12 1q-7 56 -31 106.5t-64 50.5q-41 0 -89 -90q48 -36 95 -52z" />
    <glyph glyph-name="uni0646.fina" unicode="&#x646;" horiz-adv-x="758" arabic-form="final" 
d="M704 9q-6 -85 -51.5 -154t-121 -109t-169.5 -40q-93 0 -165.5 35t-113.5 102.5t-41 160.5q0 21 1 32q7 99 70 233l105 -48q-27 -66 -39.5 -107.5t-12.5 -88.5q0 -151 196 -151q67 0 118.5 22.5t80 59.5t28.5 80q0 46 -32.5 138t-34.5 99l117 64q16 -42 31 -91
q16 -44 34 -61t51 -17h8l9 -84l-9 -84h-8q-28 0 -51 9zM383 437l99 -99l-99 -100l-34 34l-66 66z" />
    <glyph glyph-name="uni0646.init" unicode="&#x646;" horiz-adv-x="342" arabic-form="initial" 
d="M-5 168h53q130 0 130 57q0 18 -22.5 83t-32.5 86l117 64q19 -40 39.5 -112.5t20.5 -127.5q0 -107 -65 -162.5t-187 -55.5h-53v168zM72 614q62 62 75 74l99 -99l-33 -33l-66 -66l-100 99z" />
    <glyph glyph-name="uni0646.medi" unicode="&#x646;" horiz-adv-x="335" arabic-form="medial" 
d="M-5 168h6q77 1 110 17t36 53q3 41 -10 109l114 22q14 -82 14 -166q2 -11 19 -23t50 -12h5l9 -84l-9 -84h-5q-39 0 -73 17.5t-61 47.5q-61 -65 -199 -65h-6v168zM128 634l99 -99l-99 -100l-100 100z" />
    <glyph glyph-name="uni0647.fina" unicode="&#x647;" horiz-adv-x="530" arabic-form="final" 
d="M371 66q-60 -19 -119 -19q-92 0 -151 45.5t-59 123.5q0 10 2 30q12 79 74.5 135t160.5 97l-8 61l128 27q8 -77 15 -127q12 -118 18 -158q7 -51 15.5 -74t23.5 -31t46 -8h19l9 -84l-9 -84h-19q-97 0 -146 66zM186 214.5q23 -12.5 60 -12.5q29 0 70 11q-3 15 -7 45l-11 75
q-55 -18 -95 -42.5t-40 -45.5q0 -18 23 -30.5z" />
    <glyph glyph-name="uni0647.init" unicode="&#x647;" horiz-adv-x="684" arabic-form="initial" 
d="M-4 168h16q41 0 59 1q-22 39 -22 80q0 18 5 41q16 61 42 105l-33 9l62 156q203 -60 318.5 -114.5t162.5 -110t47 -121.5q0 -44 -19 -103q-17 -53 -72.5 -79.5t-132.5 -26.5q-81 0 -161 26q-90 -31 -256 -31h-16v168zM191.5 227q22.5 -20 61.5 -37q80 24 80 73
q0 24 -15.5 45.5t-39.5 32.5q-7 1 -16 5h-1q-4 1 -11 1q-31 0 -56 -22.5t-25 -55.5q0 -22 22.5 -42zM446 150q34 0 56 7t28 21q3 8 3 14q0 42 -98 88q0 -21 -3 -42q-8 -50 -25 -86q28 -2 39 -2z" />
    <glyph glyph-name="uni0647.medi" unicode="&#x647;" horiz-adv-x="492" arabic-form="medial" 
d="M-4 168h64q25 198 117 336l83 22q72 -40 117.5 -116t45.5 -156q0 -46 -14 -85q26 -1 89 -1l9 -84l-9 -84q-43 0 -62 1q22 -49 22 -93q0 -71 -50 -111q-46 -37 -110 -37q-53 0 -103 26.5t-87.5 80.5t-49.5 132h-16h-46v169zM279.5 204.5q36.5 21.5 38.5 49.5
q0 24 -23 56.5t-56 48.5q-20 -29 -37.5 -79t-26.5 -106q68 9 104.5 30.5zM234 -58.5q34 -25.5 73 -25.5q14 0 31 5q1 2 1 9q0 22 -20.5 50t-67.5 50q-31 -10 -69 -18q18 -45 52 -70.5z" />
    <glyph glyph-name="uni0648.fina" unicode="&#x648;" horiz-adv-x="504" arabic-form="final" 
d="M244 -84.5q75 34.5 102 83.5q-110 3 -177 24.5t-95 81.5q-18 41 -18 90q0 62 26 122.5t71.5 99.5t100.5 39q52 0 97 -38.5t75.5 -104.5t41.5 -145h44l9 -84l-9 -84h-48q-28 -113 -126.5 -189t-251.5 -104l-52 145q135 29 210 63.5zM233 177q44 -7 116 -9
q-15 61 -45 100.5t-64 39.5q-19 0 -35.5 -13.5t-26 -33.5t-9.5 -37q0 -14 6 -23q14 -17 58 -24z" />
    <glyph glyph-name="uni0649.fina" unicode="&#x649;" horiz-adv-x="771" arabic-form="final" 
d="M196.5 -257.5q-72.5 34.5 -114 101.5t-41.5 163q0 21 1 32q5 56 25.5 118.5t44.5 113.5l106 -49q-27 -59 -40.5 -102t-13.5 -89q0 -154 197 -154q77 0 140.5 21.5t88.5 49.5q-22 17 -78.5 45.5t-116.5 49.5l36 158q91 -18 157.5 -25.5t131.5 -7.5h56l9 -84l-9 -84h-56
q-29 0 -44 1q28 -31 28 -63q0 -51 -45 -105t-124 -89.5t-174 -35.5q-92 0 -164.5 34.5z" />
    <glyph glyph-name="uni064A.fina" unicode="&#x64a;" horiz-adv-x="771" arabic-form="final" 
d="M196.5 -257.5q-72.5 34.5 -114 101.5t-41.5 163q0 21 1 32q5 56 25.5 118.5t44.5 113.5l106 -49q-27 -59 -40.5 -102t-13.5 -89q0 -154 197 -154q77 0 140.5 21.5t88.5 49.5q-22 17 -78.5 45.5t-116.5 49.5l36 158q91 -18 157.5 -25.5t131.5 -7.5h56l9 -84l-9 -84h-56
q-29 0 -44 1q28 -31 28 -63q0 -51 -45 -105t-124 -89.5t-174 -35.5q-92 0 -164.5 34.5z" />
    <glyph glyph-name="uni064A.init" unicode="&#x64a;" horiz-adv-x="386" arabic-form="initial" 
d="M-5 168h50q96 0 136.5 16t40.5 47q0 19 -22 79.5t-33 83.5l116 64q20 -42 40.5 -112t20.5 -124q0 -107 -69 -164.5t-203 -57.5h-77v168zM6 -81l87 -88q30 29 59 59l29 29l89 -90l-89 -88l-88 87l-87 -87l-89 88z" />
    <glyph glyph-name="uni064A.medi" unicode="&#x64a;" horiz-adv-x="390" arabic-form="medial" 
d="M-4 168h5q79 0 122 7t60.5 22t19.5 41q3 41 -10 109l114 22q14 -75 14 -166q2 -12 18.5 -23.5t50.5 -11.5h5l9 -84l-9 -84h-5q-39 0 -73 17.5t-61 47.5q-32 -34 -90.5 -49.5t-164.5 -15.5h-5v168zM-12 -81l87 -88q30 29 59 59l29 29l89 -90l-89 -88l-88 87l-87 -87
l-89 88z" />
    <glyph glyph-name=".notdef" horiz-adv-x="255" 
d="M38 429h179v-433h-179v433zM208 4v417h-161v-417h161z" />
    <glyph glyph-name=".null" 
 />
    <glyph glyph-name="nonmarkingreturn" unicode="&#xd;" horiz-adv-x="255" 
 />
    <glyph glyph-name="space" unicode=" " horiz-adv-x="172" 
 />
    <glyph glyph-name="exclam" unicode="!" horiz-adv-x="308" 
d="M214 244h-121l-18 491h157zM88.5 140.5q25.5 25.5 64.5 25.5t65.5 -25.5t26.5 -63.5q0 -39 -26.5 -65.5t-65.5 -26.5t-64.5 26.5t-25.5 65.5q0 38 25.5 63.5z" />
    <glyph glyph-name="quotedbl" unicode="&#x22;" horiz-adv-x="362" 
d="M354 676l-15 -198h-93v272h108v-74zM57 750h109v-74l-15 -198h-94v272z" />
    <glyph glyph-name="numbersign" unicode="#" horiz-adv-x="588" 
d="M314 200h-89l-33 -200h-93l34 200h-109v85h124l23 137h-111v86h126l35 203h91l-34 -203h89l34 203h92l-35 -203h111v-86h-125l-24 -137h111v-85h-125l-35 -200h-91zM328 285l24 137h-89l-24 -137h89z" />
    <glyph glyph-name="dollar" unicode="$" horiz-adv-x="576" 
d="M355 254q-15 15 -36 25.5t-56 24.5q-56 24 -72 33q-61 32 -91.5 76t-30.5 109q0 82 54 135.5t145 62.5v104h76v-106q89 -13 138.5 -73t49.5 -154h-150q0 55 -22.5 85t-62.5 30q-37 0 -57.5 -22.5t-20.5 -61.5q0 -41 25 -63q15 -15 35.5 -25.5t64.5 -29.5q40 -16 59 -26
q63 -33 95 -78t32 -112q0 -83 -52.5 -135.5t-143.5 -60.5v-97h-76v97q-103 10 -158.5 71t-55.5 161h149q0 -58 26.5 -88.5t76.5 -30.5q39 0 61.5 22t22.5 60q0 43 -25 67z" />
    <glyph glyph-name="percent" unicode="%" horiz-adv-x="740" 
d="M88 680.5q43 40.5 113 40.5q71 0 113 -40.5t42 -108.5v-35q0 -66 -42 -106t-112 -40q-71 0 -114 40t-43 109v34q0 66 43 106.5zM159.5 490.5q15.5 -17.5 42.5 -17.5t41.5 18t14.5 53v30q0 29 -15 46.5t-42 17.5q-26 0 -41.5 -17.5t-15.5 -47.5v-36q0 -29 15.5 -46.5z
M507 646l72 -37l-348 -556l-71 38zM385 174q0 67 42.5 107t113.5 40q72 0 114 -40t42 -110v-34q0 -67 -42.5 -107t-112.5 -40q-71 0 -114 40t-43 109v35zM500 92q17 -19 42 -19q26 0 40.5 14t15.5 40l1 47q0 29 -16 46.5t-42 17.5t-41.5 -17t-16.5 -45v-39q0 -26 17 -45z
" />
    <glyph glyph-name="ampersand" unicode="&#x26;" horiz-adv-x="664" 
d="M109 460q-16 36 -16 73q0 85 54.5 136.5t143.5 51.5q51 0 92.5 -22t65.5 -60t24 -85q0 -89 -100 -160l-40 -28l119 -138q29 56 29 122h126q0 -142 -65 -226l107 -124h-169l-35 42q-40 -27 -84 -39.5t-97 -12.5q-70 0 -122.5 25t-81.5 70.5t-29 105.5q0 51 27 91.5
t101 94.5q-34 47 -50 83zM207.5 133q25.5 -27 65.5 -27q47 0 92 27l-138 158q-45 -42 -45 -91q0 -40 25.5 -67zM267 445l37 25q25 16 35.5 33t10.5 42q0 24 -17.5 41.5t-42.5 17.5q-30 0 -47.5 -18.5t-17.5 -50.5q0 -36 42 -90z" />
    <glyph glyph-name="quotesingle" unicode="'" horiz-adv-x="192" 
d="M150 676l-15 -198h-93v272h108v-74z" />
    <glyph glyph-name="parenleft" unicode="(" horiz-adv-x="441" 
d="M239.5 553.5q-67.5 -113.5 -67.5 -265.5q0 -158 66 -266.5t159 -189.5l-82 -99q-124 93 -203 234t-79 321q0 182 79 322t203 233l82 -98q-90 -78 -157.5 -191.5z" />
    <glyph glyph-name="parenright" unicode=")" horiz-adv-x="441" 
d="M328.5 610q78.5 -140 78.5 -322q0 -180 -79 -321t-202 -234l-83 99q93 81 159 189.5t66 266.5q0 152 -67.5 265.5t-157.5 191.5l83 98q124 -93 202.5 -233z" />
    <glyph glyph-name="asterisk" unicode="*" horiz-adv-x="458" 
d="M170 470l-157 44l29 88l155 -62l-11 171h98l-10 -174l150 60l30 -89l-159 -44l105 -130l-80 -55l-90 142l-89 -138l-80 53z" />
    <glyph glyph-name="plus" unicode="+" horiz-adv-x="541" 
d="M340 399h172v-130h-172v-198h-142v198h-173v130h173v190h142v-190z" />
    <glyph glyph-name="comma" unicode="," horiz-adv-x="298" 
d="M68.5 -68q13.5 40 13.5 75v133h145v-116q-1 -62 -33 -128t-81 -108l-90 45q32 59 45.5 99z" />
    <glyph glyph-name="hyphen" unicode="-" horiz-adv-x="415" 
d="M346 247h-283v117h283v-117z" />
    <glyph glyph-name="period" unicode="." horiz-adv-x="361" 
d="M109 25q-28 29 -28 72q0 41 28 69t71 28q42 0 70.5 -28t28.5 -69q0 -43 -28.5 -72t-70.5 -29q-43 0 -71 29z" />
    <glyph glyph-name="slash" unicode="/" horiz-adv-x="363" 
d="M101 -61h-111l254 772h110z" />
    <glyph glyph-name="zero" unicode="0" horiz-adv-x="488" 
d="M143.5 48.5q-41.5 24.5 -66 66t-24.5 89.5q0 49 24.5 90.5t66 66t89.5 24.5q49 0 91 -24.5t66.5 -66t24.5 -90.5q0 -48 -24.5 -89.5t-66.5 -66t-91 -24.5q-48 0 -89.5 24.5zM192 161q18 -18 41 -18q25 0 42.5 18t17.5 43t-17.5 43t-42.5 18q-23 0 -41 -18t-18 -43t18 -43
z" />
    <glyph glyph-name="one" unicode="1" horiz-adv-x="343" 
d="M137 94q0 156 -18 279q-23 169 -74 286l120 74q66 -137 86 -339q12 -104 12 -258q0 -44 -2 -136h-126q2 64 2 94z" />
    <glyph glyph-name="two" unicode="2" horiz-adv-x="559" 
d="M135 83q0 159 -17 290q-23 169 -74 286l119 74q17 -36 33 -80q16 -42 29 -64t34.5 -34.5t57.5 -12.5q91 1 91 119q0 21 -3 46l116 24q8 -37 8 -86q0 -73 -23.5 -134t-71.5 -98.5t-117 -37.5q-33 0 -66 13q11 -109 11 -261q0 -41 -2 -127h-126q1 28 1 83z" />
    <glyph glyph-name="three" unicode="3" horiz-adv-x="719" 
d="M496.5 579.5q14.5 -33.5 39.5 -33.5q15 0 25 17t10 51q0 33 -12 84l112 40q18 -67 18 -130q0 -64 -18.5 -114.5t-53 -79.5t-80.5 -29q-66 0 -111 71q-21 -39 -51 -60.5t-67 -21.5q-30 0 -57 9q11 -109 11 -258q0 -41 -2 -125h-126q2 60 2 88q0 148 -18 285
q-23 169 -74 286l119 74q17 -34 30 -72q27 -68 47.5 -94.5t55.5 -26.5q28 0 48 26t20 77q0 16 -1 24v4l109 18q10 -76 24.5 -109.5z" />
    <glyph glyph-name="four" unicode="4" horiz-adv-x="696" 
d="M137 94q0 156 -18 279q-23 169 -74 286l120 74q29 -61 48 -128q11 -35 25 -60q11 52 42.5 95.5t78 69t99.5 25.5q91 0 193 -80l-54 -114q-67 25 -122 25t-91.5 -23t-33.5 -58q2 -26 37 -45t91 -19q68 0 153 33l33 -148q-46 -22 -99.5 -35t-108.5 -13q-113 0 -198 60
q5 -71 5 -182q0 -44 -2 -136h-126q2 64 2 94z" />
    <glyph glyph-name="five" unicode="5" horiz-adv-x="652" 
d="M90 424q42 88 101 164q-11 7 -33 19l81 142q376 -258 376 -536q0 -66 -20 -117t-57 -79t-84 -28q-34 0 -65 16t-55 52q-21 -36 -51 -51.5t-71 -15.5q-53 0 -92.5 28t-61 78.5t-21.5 114.5q0 22 3 44q8 81 50 169zM155 235q0 -39 18 -59t49 -18q35 1 47.5 34.5t12.5 60.5
l96 16q7 -111 61 -111q61 0 61 80q0 71 -55.5 142.5t-148.5 139.5q-115 -123 -138 -251q-3 -18 -3 -34z" />
    <glyph glyph-name="six" unicode="6" horiz-adv-x="583" 
d="M192 286q-48 30 -75 84t-27 113q0 54 22.5 106.5t69.5 91.5t115 50q18 2 27 2q44 0 89.5 -17t72.5 -40l-54 -113q-36 15 -81 15q-18 0 -38 -3q-49 -7 -78 -35t-28 -57q0 -19 28 -36t71 -17q47 0 98 22q41 25 110 54l29 -163q-117 -44 -225.5 -139.5t-166.5 -231.5
l-111 55q48 144 152 259z" />
    <glyph glyph-name="seven" unicode="7" horiz-adv-x="655" 
d="M545 461q-51 -107 -95 -231.5t-64 -235.5h-116q-15 111 -58.5 234.5t-96.5 230.5t-97 176l114 84q50 -79 103 -200.5t93 -259.5q41 141 93 262t103 198l113 -84q-41 -67 -92 -174z" />
    <glyph glyph-name="eight" unicode="8" horiz-adv-x="655" 
d="M110 234q51 107 95.5 231.5t64.5 235.5h116q15 -111 58.5 -235t96 -230.5t96.5 -175.5l-113 -84q-50 78 -103 200t-94 260q-41 -140 -93 -261.5t-102 -198.5l-114 84q41 67 92 174z" />
    <glyph glyph-name="nine" unicode="9" horiz-adv-x="559" 
d="M347 96q-15 86 -25 189q-43 -10 -94 -10q-90 0 -140 55t-47 156q1 58 26.5 115.5t68.5 95t95 37.5q75 0 116.5 -54.5t56 -115t27.5 -152.5q8 -55 10 -70q15 -110 28.5 -184.5t30.5 -117.5l-119 -74q-19 44 -34 130zM174 454.5q19 -15.5 60 -15.5q42 0 77 11
q-8 55 -29 92.5t-58 37.5q-29 0 -49 -26.5t-20 -61.5q0 -22 19 -37.5z" />
    <glyph glyph-name="colon" unicode=":" horiz-adv-x="307" 
d="M83 335q-28 29 -28 71t28 69.5t70 27.5t71 -28t29 -69q0 -42 -29 -71t-71 -29t-70 29zM83 159.5q28 27.5 70 27.5t71 -28t29 -68q0 -43 -29 -72t-71 -29t-70 29t-28 72q0 41 28 68.5z" />
    <glyph glyph-name="semicolon" unicode=";" horiz-adv-x="340" 
d="M95.5 -68q13.5 40 14.5 75v133h144v-116q-1 -62 -33 -128t-81 -108l-90 45q32 59 45.5 99zM113.5 465.5q27.5 27.5 70.5 27.5t71.5 -27.5t28.5 -68.5q0 -43 -28.5 -72t-71.5 -29q-42 0 -70 29t-28 72q0 41 27.5 68.5z" />
    <glyph glyph-name="less" unicode="&#x3c;" horiz-adv-x="510" 
d="M175 300l275 -95v-140l-425 177v119l425 177v-138z" />
    <glyph glyph-name="equal" unicode="=" horiz-adv-x="578" 
d="M508 362h-443v116h443v-116zM65 267h443v-118h-443v118z" />
    <glyph glyph-name="greater" unicode="&#x3e;" horiz-adv-x="515" 
d="M334 303l-278 97v139l427 -178v-118l-427 -178v138z" />
    <glyph glyph-name="question" unicode="?" horiz-adv-x="502" 
d="M184.5 325.5q15.5 40.5 51.5 73.5q32 27 51 49q29 35 29 72q0 40 -18 61t-53 21q-34 0 -54.5 -23t-21.5 -61h-150q2 95 61 148t165 53q105 0 163.5 -50.5t58.5 -141.5q0 -40 -17 -75.5t-54 -71.5l-55 -53q-22 -21 -31.5 -46.5t-10.5 -62.5h-130q0 67 15.5 107.5z
M173.5 126.5q24.5 24.5 62.5 24.5t63 -24.5t25 -61.5q0 -38 -25.5 -63.5t-62.5 -25.5q-38 0 -62.5 25.5t-24.5 63.5q0 37 24.5 61.5z" />
    <glyph glyph-name="at" unicode="@" horiz-adv-x="900" 
d="M93 452.5q54 107.5 152.5 175t225.5 67.5q120 0 206.5 -48.5t132.5 -141.5t46 -222q0 -86 -27 -152t-77 -103t-115 -37q-33 0 -65 14t-50 50q-51 -63 -131 -63q-34 0 -65.5 17t-53 58t-21.5 109q0 23 1 35q6 66 35 129t79.5 103t115.5 40q63 0 100.5 -19t52.5 -34
l-24 -253q-2 -17 -2 -43q0 -41 12 -53t39 -12q48 0 76.5 54t28.5 155q0 162 -75.5 247t-219.5 85q-96 0 -171.5 -54.5t-117.5 -144.5t-42 -192q0 -170 72.5 -260.5t227.5 -93.5q38 0 87 9t75 24l18 -76q-34 -20 -83 -31.5t-98 -11.5q-210 0 -305 124.5t-94 326.5
q0 115 54 222.5zM364 177q0 -55 16 -75t48 -23q24 -2 42.5 15.5t36.5 59.5l1 9l20 227q-16 8 -44 8q-49 -1 -80.5 -52.5t-38.5 -134.5q-1 -12 -1 -34z" />
    <glyph glyph-name="A" unicode="A" horiz-adv-x="675" 
d="M461 144h-247l-46 -144h-166l262 711h145l265 -711h-166zM423 265l-86 264l-85 -264h171z" />
    <glyph glyph-name="B" unicode="B" horiz-adv-x="641" 
d="M60 0v711h250q133 0 202 -50t69 -145q0 -55 -26 -93.5t-75 -57.5q56 -15 86 -55.5t30 -100.5q0 -103 -65 -155.5t-192 -53.5h-279zM336 121q50 0 78 23.5t28 66.5q0 97 -99 97h-128v-187h121zM315 414q57 0 83.5 21.5t26.5 64.5q0 47 -27 68.5t-88 21.5h-95v-176h100z
" />
    <glyph glyph-name="C" unicode="C" horiz-adv-x="655" 
d="M596 131q-26 -56 -90 -98t-171 -43q-91 0 -158 41t-102.5 119t-35.5 186v42q0 61 22 138.5t87.5 140.5t186.5 64q126 0 202.5 -67t87.5 -186h-156q-3 68 -35.5 99t-98.5 31q-69 0 -103.5 -52t-34.5 -160v-53q0 -115 32.5 -167.5t105.5 -52.5q64 0 97 29.5t37 95.5h155
q-2 -51 -28 -107z" />
    <glyph glyph-name="D" unicode="D" horiz-adv-x="648" 
d="M60 0v711h223q95 0 169 -43t115.5 -120t41.5 -174v-35q0 -97 -40.5 -174.5t-114 -121t-168.5 -43.5h-226zM283 121q81 0 124.5 56t43.5 162v33q0 107 -43 162.5t-124 55.5h-69v-469h68z" />
    <glyph glyph-name="E" unicode="E" horiz-adv-x="562" 
d="M493 307h-278v-186h326v-121h-481v711h481v-121h-326v-166h278v-117z" />
    <glyph glyph-name="F" unicode="F" horiz-adv-x="548" 
d="M496 289h-281v-289h-155v711h468v-121h-313v-180h281v-121z" />
    <glyph glyph-name="G" unicode="G" horiz-adv-x="682" 
d="M517.5 16.5q-73.5 -26.5 -163.5 -26.5q-93 0 -162 39t-107.5 112.5t-39.5 173.5l-1 62q-1 95 32.5 173t101 124.5t165.5 46.5q129 0 201.5 -59.5t84.5 -177.5h-150q-10 62 -41.5 89t-89.5 27q-70 0 -108 -57t-38 -163v-46q0 -110 40.5 -166.5t120.5 -56.5q76 0 111 34
v120h-128v110h284v-286q-39 -46 -112.5 -72.5z" />
    <glyph glyph-name="H" unicode="H" horiz-adv-x="705" 
d="M644 0h-155v303h-274v-303h-155v711h155v-287h274v287h155v-711z" />
    <glyph glyph-name="I" unicode="I" horiz-adv-x="296" 
d="M225 0h-155v711h155v-711z" />
    <glyph glyph-name="J" unicode="J" horiz-adv-x="560" 
d="M346 711h155v-491q0 -65 -30 -117.5t-84.5 -82.5t-126.5 -30q-115 0 -177.5 57.5t-62.5 163.5h155q0 -51 20.5 -75.5t64.5 -24.5q40 0 63 29t23 80v491z" />
    <glyph glyph-name="K" unicode="K" horiz-adv-x="637" 
d="M289 278l-74 -80v-198h-155v711h155v-322l62 89l172 233h192l-248 -315l252 -396h-184z" />
    <glyph glyph-name="L" unicode="L" horiz-adv-x="541" 
d="M215 121h306v-121h-461v711h155v-590z" />
    <glyph glyph-name="M" unicode="M" horiz-adv-x="875" 
d="M264 711l174 -512l172 512h205v-711h-157v188l16 332l-184 -520h-105l-185 520l15 -332v-188h-155v711h204z" />
    <glyph glyph-name="N" unicode="N" horiz-adv-x="704" 
d="M643 0h-154l-274 463v-463h-155v711h155l274 -464v464h154v-711z" />
    <glyph glyph-name="O" unicode="O" horiz-adv-x="690" 
d="M613 156q-38 -79 -107 -122.5t-160 -43.5q-90 0 -160 43t-108.5 120t-38.5 176v42q0 101 36 180.5t105 124.5t165 45q92 0 161 -43t107 -121t38 -182v-36q0 -104 -38 -183zM235 171.5q38 -58.5 111 -58.5q70 0 108 57.5t38 165.5v36q0 110 -38 167.5t-109 57.5
q-70 0 -109 -53t-39 -153v-52q0 -109 38 -167.5z" />
    <glyph glyph-name="P" unicode="P" horiz-adv-x="647" 
d="M215 248v-248h-155v711h279q82 0 143 -30.5t94 -84t33 -121.5q0 -105 -72.5 -166t-200.5 -61h-121zM339 370q55 0 83.5 27t28.5 77q0 53 -29.5 84t-80.5 32h-126v-220h124z" />
    <glyph glyph-name="Q" unicode="Q" horiz-adv-x="690" 
d="M618.5 167q-32.5 -74 -91.5 -118l117 -93l-98 -84l-151 122q-23 -4 -49 -4q-91 0 -160.5 42.5t-108 120t-38.5 178.5v40q0 105 38 184t107.5 122.5t160.5 43.5t160.5 -43.5t107.5 -122t38 -180.5v-36q0 -98 -32.5 -172zM235 171.5q38 -58.5 111 -58.5q70 0 107.5 57.5
t38.5 165.5v36q0 110 -38 167.5t-109 57.5q-73 0 -110.5 -56.5t-37.5 -164.5v-37q0 -109 38 -167.5z" />
    <glyph glyph-name="R" unicode="R" horiz-adv-x="645" 
d="M323 258h-108v-258h-155v711h270q127 0 196.5 -56t69.5 -159q0 -142 -127 -199l152 -290v-7h-167zM330 379q53 0 81.5 28t28.5 77q0 50 -28.5 78t-81.5 28h-115v-211h115z" />
    <glyph glyph-name="S" unicode="S" horiz-adv-x="622" 
d="M397 254q-19 14 -43.5 24t-67.5 24q-67 23 -95 37q-135 67 -135 184q0 62 36.5 106.5t97.5 68t133 23.5q77 0 136.5 -28t93 -78t33.5 -114h-156q0 48 -29 74.5t-81 26.5q-51 0 -80 -22t-29 -58q0 -34 35 -57q20 -14 47 -25t65 -24q77 -26 114 -47q114 -64 114 -180
q0 -92 -70 -145.5t-190 -53.5q-77 0 -144 26.5t-107.5 80t-40.5 129.5h156q0 -117 136 -117q49 0 76.5 20.5t27.5 57.5q0 43 -33 67z" />
    <glyph glyph-name="T" unicode="T" horiz-adv-x="623" 
d="M604 590h-217v-590h-155v590h-213v121h585v-121z" />
    <glyph glyph-name="U" unicode="U" horiz-adv-x="662" 
d="M605 711v-474q0 -113 -72 -179.5t-202 -67.5q-84 0 -146.5 30t-96.5 86t-34 131v474h157v-474q0 -62 31 -94t89 -32q119 0 119 126v474h155z" />
    <glyph glyph-name="V" unicode="V" horiz-adv-x="656" 
d="M312 233l16 -54l15 56l138 476h174l-245 -711h-166l-242 711h172z" />
    <glyph glyph-name="W" unicode="W" horiz-adv-x="873" 
d="M598 301l14 -63l12 65l79 408h155l-155 -711h-160l-90 362l-17 76l-18 -76l-89 -362h-159l-156 711h156l78 -408l12 -65l14 63l96 410h132z" />
    <glyph glyph-name="X" unicode="X" horiz-adv-x="636" 
d="M318 468l127 243h179l-204 -353l209 -358h-181l-130 248l-131 -248h-180l209 358l-204 353h179z" />
    <glyph glyph-name="Y" unicode="Y" horiz-adv-x="623" 
d="M311 392l142 319h169l-232 -454v-257h-158v257l-231 454h168z" />
    <glyph glyph-name="Z" unicode="Z" horiz-adv-x="608" 
d="M227 121h354v-121h-547v86l349 504h-349v121h541v-84z" />
    <glyph glyph-name="bracketleft" unicode="[" horiz-adv-x="279" 
d="M271 718h-64v-774h64v-110h-214v995h214v-111z" />
    <glyph glyph-name="backslash" unicode="\" horiz-adv-x="363" 
d="M120 711l253 -772h-110l-254 772h111z" />
    <glyph glyph-name="bracketright" unicode="]" horiz-adv-x="279" 
d="M6 829h215v-995h-215v110h66v774h-66v111z" />
    <glyph glyph-name="asciicircum" unicode="^" horiz-adv-x="441" 
d="M228 567l6 46l-98 -257h-115l146 355h109l147 -355h-116z" />
    <glyph glyph-name="underscore" unicode="_" horiz-adv-x="443" 
d="M443 -113h-443v113h443v-113z" />
    <glyph glyph-name="a" unicode="a" horiz-adv-x="534" 
d="M339 49q-50 -59 -132 -59q-50 0 -91 20.5t-64.5 57t-23.5 80.5q0 85 63 129.5t183 44.5h59v31q0 38 -18.5 58t-54.5 20q-33 0 -51.5 -16t-18.5 -46h-149q0 48 29 86.5t81 60.5t117 22q99 0 156 -48.5t59 -132.5v-236q1 -72 21 -113v-8h-150q-9 17 -15 49zM195.5 115
q17.5 -16 46.5 -16q31 0 55.5 14.5t35.5 36.5v89h-53q-102 0 -102 -81q0 -27 17.5 -43z" />
    <glyph glyph-name="b" unicode="b" horiz-adv-x="563" 
d="M478.5 61q-54.5 -71 -150.5 -71q-85 0 -135 65l-7 -55h-135v750h150v-267q48 55 126 55q97 0 151.5 -71t54.5 -199v-8q0 -128 -54.5 -199zM290 107q51 0 72 39.5t21 123.5q0 78 -23.5 114.5t-70.5 36.5q-27 0 -51.5 -13.5t-36.5 -36.5v-214q26 -50 89 -50z" />
    <glyph glyph-name="c" unicode="c" horiz-adv-x="521" 
d="M331.5 127.5q22.5 21.5 23.5 56.5h140q0 -55 -28.5 -99t-78.5 -69.5t-114 -25.5q-114 0 -179.5 72.5t-65.5 199.5v9q0 76 28 136.5t83 95.5t134 35q100 0 160 -56.5t61 -151.5h-140q-1 43 -24 67.5t-61 24.5q-46 0 -68 -36.5t-23 -113.5v-15q-1 -80 22 -115.5t71 -35.5
q37 0 59.5 21.5z" />
    <glyph glyph-name="d" unicode="d" horiz-adv-x="563" 
d="M84.5 465.5q55.5 72.5 151.5 72.5q76 0 124 -57v269h150v-750h-135l-7 57q-51 -67 -133 -67q-62 0 -108.5 33t-72 96t-25.5 149q0 125 55.5 197.5zM203 145.5q24 -38.5 70 -38.5q62 0 87 52v210q-25 52 -86 52q-44 0 -68 -34.5t-27 -101.5v-27q0 -74 24 -112.5z" />
    <glyph glyph-name="e" unicode="e" horiz-adv-x="541" 
d="M160 22.5q-60 32.5 -93.5 92t-33.5 136.5v14q0 80 29.5 141.5t86 96.5t133.5 35q111 0 173.5 -69t62.5 -193v-59h-333v-1q8 -51 40.5 -80.5t83.5 -29.5q78 0 125 59l71 -80q-32 -44 -86.5 -69.5t-119.5 -25.5q-79 0 -139 32.5zM371 315v11q-1 46 -24 71t-65 25
q-40 0 -65 -27.5t-32 -79.5h186z" />
    <glyph glyph-name="f" unicode="f" horiz-adv-x="359" 
d="M89 0v423h-78v105h78v45q0 89 51.5 138t144.5 49q37 0 74 -10v-111q-15 4 -42 4q-78 0 -78 -71v-44h105v-105h-105v-423h-150z" />
    <glyph glyph-name="g" unicode="g" horiz-adv-x="572" 
d="M58 412q27 61 75.5 93.5t112.5 32.5q85 0 134 -58l5 48h136v-509q0 -41 -21.5 -93t-79.5 -93t-159 -41q-58 0 -112.5 22.5t-83.5 58.5l65 89q49 -58 125 -58q57 0 86 30t29 88v22q-48 -54 -125 -54q-64 0 -112.5 33.5t-75 95.5t-26.5 144v6q0 82 27 143zM208 147.5
q27 -40.5 75 -40.5q60 0 87 44v226q-27 44 -86 44q-49 0 -76 -42t-27 -121q0 -70 27 -110.5z" />
    <glyph glyph-name="h" unicode="h" horiz-adv-x="561" 
d="M337 538q173 0 175 -202v-336h-150v334q0 45 -19 66t-62 21q-59 0 -84 -43v-378h-150v750h150v-280q56 68 140 68z" />
    <glyph glyph-name="i" unicode="i" horiz-adv-x="269" 
d="M209 0h-150v528h150v-528zM73 719.5q23 20.5 61 20.5q37 0 60.5 -21t23.5 -54t-23.5 -53.5t-60.5 -20.5q-38 0 -61 20.5t-23 54.5q0 33 23 53.5z" />
    <glyph glyph-name="j" unicode="j" horiz-adv-x="264" 
d="M211 528v-555q0 -90 -50 -138t-140 -48q-36 0 -73 8v114q24 -4 46 -4q67 0 67 69v554h150zM72.5 719q23.5 21 60.5 21t60.5 -21t23.5 -54t-23.5 -53.5t-60.5 -20.5q-38 0 -61 20.5t-23 54.5q0 32 23.5 53z" />
    <glyph glyph-name="k" unicode="k" horiz-adv-x="539" 
d="M250 207l-49 -50v-157h-150v750h150v-409l24 29l132 158h179l-189 -218l204 -310h-172z" />
    <glyph glyph-name="l" unicode="l" horiz-adv-x="269" 
d="M209 0h-150v750h150v-750z" />
    <glyph glyph-name="m" unicode="m" horiz-adv-x="864" 
d="M192 528l5 -61q56 71 152 71q102 0 138 -81q55 81 158 81q164 0 167 -192v-346h-150v336q0 45 -16.5 65t-56.5 20q-28 0 -48 -13q-23 -14 -35 -43l1 -8v-357h-150v336q0 45 -16.5 65t-57.5 20q-26 0 -47 -12q-22 -13 -35 -37v-372h-150v528h141z" />
    <glyph glyph-name="n" unicode="n" horiz-adv-x="562" 
d="M188 528l6 -63q55 73 152 73q165 0 166 -196v-342h-150v336q0 45 -18.5 65t-62.5 20q-56 0 -83 -47v-374h-150v528h140z" />
    <glyph glyph-name="o" unicode="o" horiz-adv-x="564" 
d="M55.5 403.5q28.5 61.5 86 98t139.5 36.5q76 0 133 -33.5t88 -95t31 -144.5v-6q0 -82 -31 -142.5t-88 -93.5t-132 -33q-74 0 -130 31t-88 89t-34 135l-1 24q-2 73 26.5 134.5zM205.5 144.5q26.5 -38.5 76.5 -38.5q49 0 75.5 38t26.5 110v15q0 74 -26.5 113.5t-76.5 39.5
q-47 0 -73 -35t-29 -103v-25q0 -76 26.5 -114.5z" />
    <glyph glyph-name="p" unicode="p" horiz-adv-x="563" 
d="M508 118q-25 -61 -71.5 -94.5t-108.5 -33.5q-78 0 -127 55v-248h-150v731h140l5 -51q48 61 131 61q96 0 151 -72t55 -198v-8q0 -81 -25 -142zM289 106q45 0 68.5 37.5t24.5 111.5v16q1 73 -23 111.5t-71 38.5q-63 0 -87 -48v-217q26 -50 88 -50z" />
    <glyph glyph-name="q" unicode="q" horiz-adv-x="563" 
d="M84.5 466.5q55.5 71.5 151.5 71.5q83 0 134 -65l10 55h130v-731h-150v248q-48 -55 -125 -55q-94 0 -149.5 71t-56.5 199v10q0 125 55.5 196.5zM203 145q24 -39 70 -39q61 0 87 49v219q-24 48 -86 48q-44 0 -68 -34.5t-27 -103.5v-25q0 -75 24 -114z" />
    <glyph glyph-name="r" unicode="r" horiz-adv-x="371" 
d="M305 397q-80 0 -104 -55v-342h-150v528h142l4 -67q42 77 118 77q26 0 45 -6l-2 -139q-15 4 -53 4z" />
    <glyph glyph-name="s" unicode="s" horiz-adv-x="513" 
d="M308 186q-26 14 -83 27q-185 41 -185 160q0 48 27 85.5t75 58.5t111 21q67 0 118 -21.5t79 -60t28 -89.5h-150q0 33 -19.5 51.5t-56.5 18.5q-30 0 -50 -16t-20 -41q0 -28 30.5 -41.5t86.5 -26.5q24 -4 46 -11q67 -21 100 -57.5t33 -91.5q0 -47 -28.5 -84t-79.5 -57.5
t-117 -20.5q-61 0 -113.5 22.5t-84.5 63.5t-32 92h141q1 -37 26 -56.5t67 -19.5q36 0 56.5 15t20.5 39q0 26 -26 40z" />
    <glyph glyph-name="t" unicode="t" horiz-adv-x="340" 
d="M229 659v-131h89v-105h-89v-259q0 -31 11 -43t43 -12q22 0 41 3v-109q-40 -13 -88 -13q-80 0 -118.5 39t-38.5 119v275h-73v105h73v131h150z" />
    <glyph glyph-name="u" unicode="u" horiz-adv-x="561" 
d="M372 0l-4 56q-52 -66 -144 -66q-86 0 -131 50.5t-45 145.5v342h150v-343q0 -78 72 -78q67 0 92 48v373h150v-528h-140z" />
    <glyph glyph-name="v" unicode="v" horiz-adv-x="510" 
d="M254 181l93 347h157l-176 -528h-148l-176 528h158z" />
    <glyph glyph-name="w" unicode="w" horiz-adv-x="731" 
d="M220 194l92 334h105l92 -329l11 64l52 265h144l-130 -528h-126l-81 280l-15 50l-14 -50l-81 -280h-126l-130 528h144z" />
    <glyph glyph-name="x" unicode="x" horiz-adv-x="511" 
d="M257 373l85 155h158l-146 -258l153 -270h-159l-91 164l-90 -164h-159l153 270l-146 258h160z" />
    <glyph glyph-name="y" unicode="y" horiz-adv-x="509" 
d="M254 210l6 22l89 296h160l-214 -615l-9 -23q-46 -103 -160 -103q-31 0 -64 9v109q14 0 21 -1q37 -1 56.5 11.5t30.5 42.5l15 39l-184 531h160z" />
    <glyph glyph-name="z" unicode="z" horiz-adv-x="511" 
d="M223 116h254v-116h-443v87l246 325h-237v116h427v-84z" />
    <glyph glyph-name="braceleft" unicode="{" horiz-adv-x="328" 
d="M106 51v97q0 103 -84 103v102q84 0 84 103v102q1 88 44.5 142.5t130.5 79.5l28 -80q-69 -26 -71 -139v-104q0 -111 -88 -155q88 -46 88 -155v-105q3 -112 71 -138l-28 -81q-175 51 -175 228z" />
    <glyph glyph-name="bar" unicode="|" horiz-adv-x="253" 
d="M171 -132h-87v843h87v-843z" />
    <glyph glyph-name="braceright" unicode="}" horiz-adv-x="325" 
d="M89 42v105q0 110 89 155q-89 44 -89 155v104q-2 113 -71 139l28 80q87 -25 130.5 -79.5t44.5 -142.5v-102q0 -103 84 -103v-102q-84 0 -84 -103v-97q0 -177 -175 -228l-28 81q70 26 71 138z" />
    <glyph glyph-name="asciitilde" unicode="~" horiz-adv-x="642" 
d="M570.5 280.5q-20.5 -46.5 -57.5 -72.5t-85 -26q-33 0 -63 14q-21 10 -60 43q-27 24 -46 36t-39 12q-27 0 -44.5 -24.5t-17.5 -61.5l-108 2q0 92 44 147t117 55q37 0 68 -15q25 -12 62 -45q27 -23 43.5 -33.5t35.5 -10.5q27 0 44.5 25t17.5 63l109 -1q0 -61 -20.5 -107.5z
" />
    <glyph glyph-name="uni00A0" unicode="&#xa0;" horiz-adv-x="172" 
 />
    <glyph glyph-name="brokenbar" unicode="&#xa6;" horiz-adv-x="253" 
d="M61 -132v388h132v-388h-132zM61 711h132v-370h-132v370z" />
    <glyph glyph-name="copyright" unicode="&#xa9;" horiz-adv-x="785" 
d="M213.5 39.5q-79.5 49.5 -125.5 133.5t-46 183q0 117 47.5 199.5t127 124t172.5 41.5q95 0 174 -45t125.5 -128t46.5 -192q0 -101 -46.5 -185t-126 -132.5t-173.5 -48.5q-96 0 -175.5 49.5zM138.5 203.5q37.5 -70.5 103.5 -112t147 -41.5q79 0 145 41t104 111t38 154
q0 86 -37.5 155.5t-103 109t-146.5 39.5q-75 0 -140 -31t-106.5 -99t-41.5 -174q0 -82 37.5 -152.5zM212 385q0 85 46.5 137t123.5 52q79 0 121 -40.5t42 -113.5h-75q0 46 -22 67t-66 21q-45 0 -70 -32.5t-25 -89.5v-59q0 -57 25 -90.5t70 -33.5t66.5 20.5t21.5 67.5h75
q0 -74 -42.5 -113.5t-120.5 -39.5t-124 52t-46 140v55z" />
    <glyph glyph-name="guillemotleft" unicode="&#xab;" horiz-adv-x="463" 
d="M361 147q16 -35 52 -77l-63 -66q-49 46 -77.5 97t-28.5 118t28.5 118t77.5 97l63 -66q-36 -42 -52 -77t-16 -72t16 -72zM57 365.5q32 63.5 86 120.5l70 -81q-41 -53 -59 -96.5t-18 -89.5t18 -89.5t59 -96.5l-70 -80q-54 57 -86 120t-32 146t32 146.5z" />
    <glyph glyph-name="logicalnot" unicode="&#xac;" horiz-adv-x="550" 
d="M469 183h-97v127h-311v83h408v-210z" />
    <glyph glyph-name="registered" unicode="&#xae;" horiz-adv-x="785" 
d="M318 319v-165h-73v415h137q76 0 117 -33.5t41 -94.5q0 -55 -54 -85q28 -14 40.5 -40.5t12.5 -67.5q0 -37 1.5 -56t6.5 -30v-8h-75q-6 18 -6 99q-1 35 -17 50.5t-52 15.5h-79zM89.5 555.5q47.5 82.5 127 124t172.5 41.5q95 0 174 -45t125.5 -128t46.5 -192
q0 -101 -46.5 -185t-126 -132.5t-173.5 -48.5q-97 0 -176.5 49.5t-125 133.5t-45.5 183q0 117 47.5 199.5zM139 202.5q38 -69.5 104 -111t146 -41.5q79 0 145 41t104 111t38 154q0 86 -37.5 155.5t-103 109t-146.5 39.5q-76 0 -141 -31t-106 -99.5t-41 -175.5
q0 -82 38 -151.5zM383 384q37 0 61 15.5t24 41.5q0 35 -18 49.5t-63 14.5h-69v-121h65z" />
    <glyph glyph-name="degree" unicode="&#xb0;" horiz-adv-x="395" 
d="M81.5 654q18.5 31 49 49t66.5 18t66.5 -18t48.5 -49t18 -68q0 -36 -18 -66.5t-48.5 -48.5t-66.5 -18t-67 18t-49 48.5t-18 66.5q0 37 18.5 68zM159 548q16 -16 38 -16t37.5 15.5t15.5 39.5q0 22 -15 38.5t-38 16.5q-22 0 -38 -16.5t-16 -40.5q0 -21 16 -37z" />
    <glyph glyph-name="plusminus" unicode="&#xb1;" horiz-adv-x="537" 
d="M332 464h157v-121h-157v-176h-131v176h-159v121h159v165h131v-165zM52 118h425v-118h-425v118z" />
    <glyph glyph-name="uni00B2" unicode="&#xb2;" horiz-adv-x="373" 
d="M339 285h-304v68l141 126q24 21 37 42t13 33q0 20 -12 30.5t-34 10.5q-23 0 -36.5 -15t-13.5 -38l-99 4q0 58 39.5 94t105.5 36q73 0 112.5 -31.5t39.5 -90.5q0 -39 -26 -74q-21 -28 -82 -73l-49 -41h168v-81z" />
    <glyph glyph-name="uni00B3" unicode="&#xb3;" horiz-adv-x="373" 
d="M134 515h42q55 0 55 42q0 18 -13.5 28t-37.5 10q-20 0 -34 -8t-14 -21h-102q0 49 41 79.5t106 30.5q73 0 114.5 -30t41.5 -81q0 -58 -67 -82q75 -21 75 -90q0 -50 -45.5 -81.5t-118.5 -31.5q-70 0 -112.5 33t-42.5 88h104q0 -16 16 -28t42 -12q27 0 40 12t13 30
q0 45 -58 45h-45v67z" />
    <glyph glyph-name="uni00B5" unicode="&#xb5;" horiz-adv-x="626" 
d="M216 528v-308q1 -59 20.5 -85.5t65.5 -26.5q69 0 96 50v370h150v-528h-140l-3 32q-43 -42 -108 -42q-46 0 -81 20v-213h-150v731h150z" />
    <glyph glyph-name="uni00B9" unicode="&#xb9;" horiz-adv-x="373" 
d="M260 285h-102v267l-90 -19v77l183 59h9v-384z" />
    <glyph glyph-name="guillemotright" unicode="&#xbb;" horiz-adv-x="463" 
d="M102 291q-16 35 -52 77l64 66q48 -47 76.5 -97.5t28.5 -117.5t-28.5 -117.5t-76.5 -97.5l-64 66q36 42 52 77t16 72t-16 72zM309 129q18 44 18 90t-18 90t-59 96l71 81q54 -57 86 -120.5t32 -146.5t-32 -146t-86 -120l-71 80q41 52 59 96z" />
    <glyph glyph-name="onequarter" unicode="&#xbc;" horiz-adv-x="809" 
d="M241 269h-102v266l-90 -19v77l182 60h10v-384zM540 646l71 -37l-347 -556l-71 38zM614 439h104v-224h41v-82h-41v-79h-104v79h-166l-7 65zM614 215v102l-8 -11l-67 -91h75z" />
    <glyph glyph-name="onehalf" unicode="&#xbd;" horiz-adv-x="859" 
d="M241 269h-102v266l-90 -19v77l182 60h10v-384zM540 646l71 -37l-347 -556l-71 38zM542.5 420q39.5 36 105.5 36q73 0 113 -31.5t40 -90.5q0 -39 -27 -74q-21 -28 -82 -73l-49 -41h168v-81h-303v68l140 126q24 21 37 42t13 33q0 20 -12 30.5t-34 10.5q-23 0 -36.5 -15
t-13.5 -38l-99 4q0 58 39.5 94z" />
    <glyph glyph-name="threequarters" unicode="&#xbe;" horiz-adv-x="861" 
d="M161 501h43q54 0 54 43q0 17 -13 27t-37 10q-20 0 -34 -8t-14 -21h-103q0 49 41 79.5t106 30.5q73 0 115 -29.5t42 -80.5q0 -59 -67 -83q75 -19 75 -90q0 -50 -45.5 -81.5t-119.5 -31.5q-70 0 -112 33t-42 88h104q0 -16 16 -27.5t41 -11.5q27 0 40.5 11.5t13.5 30.5
q0 44 -58 44h-46v67zM599 646l71 -37l-347 -556l-71 38zM666 450h104v-224h41v-83h-41v-78h-104v78h-166l-7 66zM666 226v102l-8 -11l-67 -91h75z" />
    <glyph glyph-name="multiply" unicode="&#xd7;" horiz-adv-x="530" 
d="M29 181l150 152l-149 152l87 84l146 -150l147 150l86 -84l-148 -152l149 -152l-87 -83l-147 149l-147 -149z" />
    <glyph glyph-name="divide" unicode="&#xf7;" horiz-adv-x="569" 
d="M536 279h-506v113h506v-113zM222.5 189.5q23.5 20.5 61.5 20.5q37 0 60 -21t23 -53t-23.5 -53.5t-59.5 -21.5q-38 0 -61.5 20.5t-23.5 53.5q0 34 23.5 54.5zM222 585.5q23 20.5 60 20.5q38 0 61.5 -20.5t23.5 -53.5t-24 -54.5t-61 -21.5q-37 1 -60 22t-23 53
q0 34 23 54.5z" />
    <glyph glyph-name="uni060C" unicode="&#x60c;" horiz-adv-x="321" 
d="M85.5 28q-33.5 36 -33.5 91q0 66 40 134t105 110l64 -63q-47 -36 -68 -63t-36 -53q2 0 6.5 1t9.5 1q38 0 65.5 -27.5t27.5 -67.5q0 -39 -28.5 -68t-66.5 -29q-52 -2 -85.5 34z" />
    <glyph glyph-name="uni0615" unicode="&#x615;" 
d="M37 545l18 26q0 29 -5 79t-11 85l58 12q8 -44 13 -114q39 31 77 31q42 0 64.5 -29.5t22.5 -65.5q0 -46 -40.5 -79t-122.5 -33q-28 0 -55.5 6.5t-45.5 13.5t-24 10l22 66zM112 533q62 -2 85.5 8.5t23.5 26.5q0 10 -7 17t-22 7q-21 0 -45.5 -16t-45.5 -42z" />
    <glyph glyph-name="uni061B" unicode="&#x61b;" horiz-adv-x="322" 
d="M89 20q-28 29 -28 72q0 41 28 68.5t70 27.5q43 0 71.5 -27.5t28.5 -68.5q0 -43 -28.5 -72t-71.5 -29q-42 0 -70 29zM95.5 568.5q40.5 68.5 104.5 109.5l64 -62q-48 -37 -69.5 -65t-34.5 -52q6 2 16 2q38 0 65.5 -27t27.5 -68q0 -39 -28.5 -68t-66.5 -29
q-52 -2 -85.5 34.5t-33.5 91.5q0 65 40.5 133.5z" />
    <glyph glyph-name="uni061F" unicode="&#x61f;" horiz-adv-x="539" 
d="M222 11.5q-26 26.5 -26 65.5q0 38 26 63.5t65 25.5q38 0 64.5 -26t26.5 -63q0 -39 -26.5 -65.5t-64.5 -26.5q-39 0 -65 26.5zM81.5 668q29.5 53 80 85t110.5 32q61 0 110 -32t76.5 -85t28.5 -114l-113 -14q-2 21 -13 45.5t-33 42.5t-56 18q-40 0 -68 -27.5t-28 -66.5
q0 -21 6.5 -33t26.5 -29t83 -65q24 -19 34.5 -37t13 -45t2.5 -86v-24h-113v63q0 11 -60 62q-47 41 -69.5 65.5t-35 55.5t-12.5 77q0 59 29.5 112z" />
    <glyph glyph-name="uni0640" unicode="&#x640;" horiz-adv-x="198" 
d="M-5 168h208l9 -84l-9 -84h-208v168z" />
    <glyph glyph-name="uni064B" unicode="&#x64b;" 
d="M-5 516l223 67v-73l-223 -67v73zM-5 636l223 67v-73l-223 -67v73z" />
    <glyph glyph-name="uni064C" unicode="&#x64c;" 
d="M116 518q32 6 56 19q-32 7 -52.5 26.5t-25.5 49.5q-1 5 -1 14q0 26 14 49t36 37t45 14q12 0 25 -5q28 -10 42 -38t14 -63q0 -46 -21 -85q-24 -44 -77 -66.5t-112 -23.5l-19 63q44 3 76 9zM-14 631q0 68 95 149l37 -35q-35 -36 -50.5 -61.5t-15.5 -44.5q0 -15 8.5 -28.5
t26.5 -28.5l-42 -55q-59 50 -59 104zM165.5 605q16.5 -13 46.5 -13q2 14 2 19q0 22 -10 38t-26 16q-12 0 -20.5 -9t-8.5 -21q0 -17 16.5 -30z" />
    <glyph glyph-name="uni064D" unicode="&#x64d;" 
d="M-5 -224l223 68v-73l-223 -68v73zM-5 -104l223 68v-74l-223 -67v73z" />
    <glyph glyph-name="uni064E" unicode="&#x64e;" 
d="M-5 516l223 67v-73l-223 -67v73z" />
    <glyph glyph-name="uni064F" unicode="&#x64f;" 
d="M80 518q32 6 56 19q-32 7 -52.5 26.5t-25.5 49.5q-1 5 -1 14q0 26 14 49t36 37t45 14q12 0 25 -5q28 -10 42 -38t14 -63q0 -46 -21 -85q-24 -44 -77 -66.5t-112 -23.5l-19 63q44 3 76 9zM129.5 605q16.5 -13 46.5 -13q2 14 2 19q0 22 -10 38t-26 16q-12 0 -20.5 -9
t-8.5 -21q0 -17 16.5 -30z" />
    <glyph glyph-name="uni0650" unicode="&#x650;" 
d="M-5 -244l223 67v-73l-223 -67v73z" />
    <glyph glyph-name="uni0651" unicode="&#x651;" 
d="M15 527q0 -10 6.5 -16t17.5 -6q36 0 36 48q0 12 -1 19l50 9q4 -36 15.5 -52t27.5 -16q24 0 24 23q0 4 -2 12q-7 19 -27 52l51 29q17 -26 26.5 -47.5t9.5 -47.5q0 -40 -21 -66.5t-59 -26.5q-19 0 -35.5 8t-28.5 24q-11 -18 -29 -28.5t-37 -10.5q-38 0 -59 23t-21 56
q0 16 5 37t10 33l51 -18q-10 -23 -10 -38z" />
    <glyph glyph-name="uni0652" unicode="&#x652;" 
d="M131.5 622q27.5 -35 27.5 -80q0 -41 -27 -71.5t-68 -30.5q-40 1 -65 33.5t-25 74.5q0 27 12.5 52t33.5 40.5t43 15.5q41 1 68.5 -34zM37.5 519q10.5 -11 26.5 -11q18 0 30 11t12 27q0 17 -12 29.5t-30 12.5q-15 0 -26 -12.5t-11 -29.5q0 -16 10.5 -27z" />
    <glyph glyph-name="uni0653" unicode="&#x653;" 
d="M19 530q24 26 59 26q14 0 28.5 -4t26.5 -9t24.5 -8.5t25.5 -3.5q17 0 32 9.5t21 17.5l44 -44q-17 -25 -41.5 -43t-55.5 -18q-23 0 -51 13q-28 12 -48 12q-32 0 -48 -38l-55 27q14 37 38 63z" />
    <glyph glyph-name="uni0654" unicode="&#x654;" 
d="M10 530l55 17q-15 17 -20 40q-3 11 -3 22q0 36 22.5 66t55.5 38q14 3 28 3q28 0 70 -14l-19 -73q-30 11 -51 11q-23 0 -34 -11t-11 -25q0 -12 14 -22.5t39 -7.5l76 23v-73l-222 -67v73z" />
    <glyph glyph-name="uni0655" unicode="&#x655;" 
d="M8 -228l55 17q-15 17 -20 40q-2 7 -2 21q0 36 22 66.5t55 38.5q13 4 29 4q27 0 69 -14l-19 -74q-31 11 -54 11q-21 0 -31.5 -11t-10.5 -25q0 -10 11 -20t30 -10q10 0 20 3l68 20v-73l-222 -67v73z" />
    <glyph glyph-name="uni0656" unicode="&#x656;" 
d="M74 -192q0 -60 -1 -89l-59 3q2 58 2 87q0 61 -3 106l58 6q3 -48 3 -113z" />
    <glyph glyph-name="uni0658" unicode="&#x658;" 
d="M47 645.5q-9 -27.5 -9 -50.5q0 -38 22 -56.5t70 -18.5q57 0 81 21.5t24 53.5q0 17 -7.5 56t-12.5 58l54 25q25 -78 25 -139q0 -36 -17.5 -71t-54.5 -58t-92 -23q-68 0 -109.5 42.5t-41.5 109.5q0 46 29 116l55 -25q-7 -13 -16 -40.5z" />
    <glyph glyph-name="uni065A" unicode="&#x65a;" 
d="M152.5 553q-20.5 -40 -32.5 -71l-51 -16q-11 31 -32.5 73t-41.5 72l47 46q12 -16 27.5 -47.5t22.5 -56.5q6 25 22 59.5t28 53.5l49 -44q-18 -29 -38.5 -69z" />
    <glyph glyph-name="uni065B" unicode="&#x65b;" 
d="M114 519.5q-16 34.5 -22 59.5q-7 -25 -22.5 -56.5t-27.5 -47.5l-47 46q20 30 41.5 72t32.5 73l51 -16q12 -31 32.5 -71t38.5 -69l-49 -44q-12 19 -28 53.5z" />
    <glyph glyph-name="uni0660" unicode="&#x660;" horiz-adv-x="488" 
d="M143.5 48.5q-41.5 24.5 -66 66t-24.5 89.5q0 49 24.5 90.5t66 66t89.5 24.5q49 0 91 -24.5t66.5 -66t24.5 -90.5q0 -48 -24.5 -89.5t-66.5 -66t-91 -24.5q-48 0 -89.5 24.5zM192 161q18 -18 41 -18q25 0 42.5 18t17.5 43t-17.5 43t-42.5 18q-23 0 -41 -18t-18 -43t18 -43
z" />
    <glyph glyph-name="uni0661" unicode="&#x661;" horiz-adv-x="343" 
d="M137 94q0 156 -18 279q-23 169 -74 286l120 74q66 -137 86 -339q12 -104 12 -258q0 -44 -2 -136h-126q2 64 2 94z" />
    <glyph glyph-name="uni0662" unicode="&#x662;" horiz-adv-x="559" 
d="M135 83q0 159 -17 290q-23 169 -74 286l119 74q17 -36 33 -80q16 -42 29 -64t34.5 -34.5t57.5 -12.5q91 1 91 119q0 21 -3 46l116 24q8 -37 8 -86q0 -73 -23.5 -134t-71.5 -98.5t-117 -37.5q-33 0 -66 13q11 -109 11 -261q0 -41 -2 -127h-126q1 28 1 83z" />
    <glyph glyph-name="uni0663" unicode="&#x663;" horiz-adv-x="719" 
d="M496.5 579.5q14.5 -33.5 39.5 -33.5q15 0 25 17t10 51q0 33 -12 84l112 40q18 -67 18 -130q0 -64 -18.5 -114.5t-53 -79.5t-80.5 -29q-66 0 -111 71q-21 -39 -51 -60.5t-67 -21.5q-30 0 -57 9q11 -109 11 -258q0 -41 -2 -125h-126q2 60 2 88q0 148 -18 285
q-23 169 -74 286l119 74q17 -34 30 -72q27 -68 47.5 -94.5t55.5 -26.5q28 0 48 26t20 77q0 16 -1 24v4l109 18q10 -76 24.5 -109.5z" />
    <glyph glyph-name="uni0664" unicode="&#x664;" horiz-adv-x="696" 
d="M137 94q0 156 -18 279q-23 169 -74 286l120 74q29 -61 48 -128q11 -35 25 -60q11 52 42.5 95.5t78 69t99.5 25.5q91 0 193 -80l-54 -114q-67 25 -122 25t-91.5 -23t-33.5 -58q2 -26 37 -45t91 -19q68 0 153 33l33 -148q-46 -22 -99.5 -35t-108.5 -13q-113 0 -198 60
q5 -71 5 -182q0 -44 -2 -136h-126q2 64 2 94z" />
    <glyph glyph-name="uni0665" unicode="&#x665;" horiz-adv-x="652" 
d="M90 424q42 88 101 164q-11 7 -33 19l81 142q376 -258 376 -536q0 -66 -20 -117t-57 -79t-84 -28q-34 0 -65 16t-55 52q-21 -36 -51 -51.5t-71 -15.5q-53 0 -92.5 28t-61 78.5t-21.5 114.5q0 22 3 44q8 81 50 169zM155 235q0 -39 18 -59t49 -18q35 1 47.5 34.5t12.5 60.5
l96 16q7 -111 61 -111q61 0 61 80q0 71 -55.5 142.5t-148.5 139.5q-115 -123 -138 -251q-3 -18 -3 -34z" />
    <glyph glyph-name="uni0666" unicode="&#x666;" horiz-adv-x="583" 
d="M192 286q-48 30 -75 84t-27 113q0 54 22.5 106.5t69.5 91.5t115 50q18 2 27 2q44 0 89.5 -17t72.5 -40l-54 -113q-36 15 -81 15q-18 0 -38 -3q-49 -7 -78 -35t-28 -57q0 -19 28 -36t71 -17q47 0 98 22q41 25 110 54l29 -163q-117 -44 -225.5 -139.5t-166.5 -231.5
l-111 55q48 144 152 259z" />
    <glyph glyph-name="uni0667" unicode="&#x667;" horiz-adv-x="655" 
d="M545 468q-51 -107 -95 -231.5t-64 -236.5h-116q-15 111 -58.5 235t-96.5 231t-97 176l114 84q50 -79 103 -200.5t93 -259.5q41 141 93 262t103 198l113 -84q-41 -67 -92 -174z" />
    <glyph glyph-name="uni0668" unicode="&#x668;" horiz-adv-x="655" 
d="M110 234q51 107 95.5 231.5t64.5 235.5h116q15 -111 58.5 -235t96 -230.5t96.5 -175.5l-113 -84q-50 78 -103 200t-94 260q-41 -140 -93 -261.5t-102 -198.5l-114 84q41 67 92 174z" />
    <glyph glyph-name="uni0669" unicode="&#x669;" horiz-adv-x="559" 
d="M347 96q-15 86 -25 189q-43 -10 -94 -10q-90 0 -140 55t-47 156q1 58 26.5 115.5t68.5 95t95 37.5q75 0 116.5 -54.5t56 -115t27.5 -152.5q8 -55 10 -70q15 -110 28.5 -184.5t30.5 -117.5l-119 -74q-19 44 -34 130zM174 454.5q19 -15.5 60 -15.5q42 0 77 11
q-8 55 -29 92.5t-58 37.5q-29 0 -49 -26.5t-20 -61.5q0 -22 19 -37.5z" />
    <glyph glyph-name="uni066A" unicode="&#x66a;" horiz-adv-x="568" 
d="M89 661l43 43l102 -101l-102 -103l-102 103zM352 728h144l-287 -757h-142zM398 144l43 43l102 -101l-102 -103l-102 103z" />
    <glyph glyph-name="uni066B" unicode="&#x66b;" horiz-adv-x="396" 
d="M33 -32l216 495h123l-216 -495h-123z" />
    <glyph glyph-name="uni066C" unicode="&#x66c;" horiz-adv-x="257" 
d="M96 107h137q-17 -36 -55 -118t-55 -120h-100z" />
    <glyph glyph-name="uni066D" unicode="&#x66d;" horiz-adv-x="766" 
d="M248 501l66 -165v-1l-165 66l1 100h98zM122 337l163 -70v-1l-163 -70l-70 71zM148 131l165 66h1l-66 -165l-100 1v98zM332 316q21 21 51 21q29 0 50.5 -21t21.5 -50q0 -31 -21.5 -51t-50.5 -20q-30 0 -51 20.5t-21 50.5q0 29 21 50zM382 168h1l70 -163l-71 -70l-70 70z
M384 597l70 -70l-70 -163h-1l-70 163zM452 197l165 -66l-1 -100h-98l-66 165v1zM518 500l100 -1v-98l-165 -66h-1zM481 266l163 70l70 -71l-70 -70l-163 70v1z" />
    <glyph glyph-name="uni066E" unicode="&#x66e;" horiz-adv-x="867" 
d="M151.5 44.5q-101.5 56.5 -110.5 157.5q-1 8 -1 24q0 44 12 95t30 91l106 -50q-10 -32 -18 -67.5t-7 -58.5q4 -20 36.5 -38.5t91 -30t138.5 -11.5q92 0 155.5 8.5t95.5 19.5t33 16q-8 49 -25 96t-37 98l116 64q28 -61 45.5 -131.5t14.5 -126.5q-5 -106 -110.5 -158.5
t-277.5 -54.5h-9h-1q-176 1 -277.5 57.5z" />
    <glyph glyph-name="uni066F" unicode="&#x66f;" horiz-adv-x="748" 
d="M196.5 -259q-72.5 35 -113.5 102.5t-41 160.5q0 21 1 32q7 99 70 233l105 -48q-27 -67 -39.5 -107.5t-12.5 -88.5q0 -76 50.5 -113.5t145.5 -37.5q85 0 145 35.5t77 92.5q-27 -4 -61 -4q-75 0 -134 27t-83 80q-18 41 -18 90q0 62 26 122.5t71 99.5t100 39q61 0 112 -52
t80.5 -137.5t29.5 -181.5q0 -117 -44.5 -202.5t-123 -131t-177.5 -45.5q-93 0 -165.5 35zM461.5 173q39.5 -10 87.5 -10q22 0 33 1q-15 62 -45 103t-67 41q-28 0 -48.5 -28t-20.5 -56q0 -14 6 -23q15 -18 54.5 -28z" />
    <glyph glyph-name="uni0670" unicode="&#x670;" 
d="M66 568q0 -60 -1 -89l-59 3q2 58 2 87q0 61 -3 106l58 6q3 -48 3 -113z" />
    <glyph glyph-name="uni0688" unicode="&#x688;" horiz-adv-x="539" 
d="M111.5 23q-59.5 28 -89.5 54l59 118q34 -16 72.5 -28.5t91.5 -12.5q53 1 88 11.5t46 22.5q2 15 -13.5 46.5t-62 80t-132.5 105.5l80 148q117 -81 186.5 -181.5t69.5 -192.5q0 -43 -16 -79q-25 -58 -89.5 -89t-140.5 -31q-90 0 -149.5 28zM118 726q28 -7 30 -8l17 25
q1 28 -4.5 78t-11.5 86l58 12q8 -44 13 -114q39 31 78 31q41 0 63.5 -29.5t22.5 -65.5q0 -45 -40.5 -78.5t-122.5 -33.5q-57 0 -90.5 15.5t-34.5 15.5zM222 706q62 -3 85.5 7.5t23.5 26.5q0 10 -6.5 17t-20.5 7q-22 0 -46 -15.5t-46 -41.5q3 -1 10 -1z" />
    <glyph glyph-name="uni0691" unicode="&#x691;" horiz-adv-x="400" 
d="M122 -88.5q56 35.5 88.5 69t32.5 54.5q0 33 -53 215l-7 25l124 49q24 -69 38 -147t14 -142q0 -101 -78 -185.5t-211 -142.5l-70 141q66 28 122 63.5zM120 481l30 -8q8 14 18 27q0 29 -5.5 78.5t-11.5 84.5l58 12q10 -54 14 -114q39 31 77 31q41 0 63.5 -29.5t22.5 -65.5
q0 -45 -40.5 -78.5t-122.5 -33.5q-28 0 -55.5 6.5t-47 14.5t-21.5 10zM224 462q63 -3 86 8t23 27q0 9 -6.5 16t-20.5 7q-22 0 -46 -15.5t-46 -41.5q3 -1 10 -1z" />
    <glyph glyph-name="uni0695" unicode="&#x695;" horiz-adv-x="400" 
d="M122 -88.5q56 35.5 88.5 69t32.5 54.5q0 33 -53 215l-7 25l124 49q24 -69 38 -147t14 -142q0 -101 -78 -185.5t-211 -142.5l-70 141q66 28 122 63.5zM95 -325q12 -15 27.5 -47.5t22.5 -57.5q6 26 22 61t28 53l48 -44q-18 -27 -37.5 -67t-32.5 -73l-52 -17
q-10 31 -31.5 73.5t-41.5 72.5z" />
    <glyph glyph-name="uni06A1" unicode="&#x6a1;" horiz-adv-x="913" 
d="M441 -13l-1 8q-1 -3 -1 -8q-181 -1 -285 56t-113 159q-1 8 -1 24q0 44 12 95t30 91l106 -50q-10 -32 -18 -67.5t-7 -58.5q4 -21 37.5 -39.5t95 -29.5t143.5 -11v-1h6q114 1 185.5 15t104.5 45q-28 -2 -42 -2q-73 0 -129.5 26t-80.5 76q-18 39 -18 86q0 59 25.5 115.5
t70 93t98.5 36.5q59 0 108.5 -47.5t77.5 -126.5t28 -168q0 -146 -105.5 -230.5t-324.5 -85.5zM647.5 376q48.5 -11 106.5 -8q-15 60 -44.5 99t-63.5 39q-29 0 -49.5 -25.5t-20.5 -51.5q0 -14 7 -22q16 -20 64.5 -31z" />
    <glyph glyph-name="uni06B5" unicode="&#x6b5;" horiz-adv-x="702" 
d="M191.5 -231.5q-68.5 32.5 -109.5 93.5t-41 143q0 11 2 33q9 100 69 233l107 -49q-25 -57 -38.5 -98t-15.5 -85q-2 -59 47 -96.5t129 -37.5q98 0 149.5 48.5t49.5 148.5q-4 158 -18 339.5t-29 282.5l140 31q21 -148 29 -646q1 -115 -36.5 -199t-110.5 -129t-174 -45
q-81 0 -149.5 32.5zM504 973q12 -16 27.5 -47.5t22.5 -56.5q6 25 22 59.5t28 53.5l49 -44q-18 -27 -38 -67t-33 -72l-51 -17q-11 31 -33 73.5t-41 71.5z" />
    <glyph glyph-name="uni06BA" unicode="&#x6ba;" horiz-adv-x="737" 
d="M178.5 113.5q-12.5 -41.5 -12.5 -88.5q0 -151 196 -151q67 0 118.5 22.5t80 59.5t28.5 80q0 46 -32.5 138t-34.5 99l117 64q66 -170 66 -301q0 -91 -44 -166.5t-122 -119.5t-177 -44q-93 0 -165.5 35t-113.5 102.5t-41 160.5q0 21 1 32q7 99 70 233l105 -48
q-27 -66 -39.5 -107.5z" />
    <glyph glyph-name="uni06C1" unicode="&#x6c1;" horiz-adv-x="491" 
d="M95.5 46.5q-52.5 51.5 -52.5 133.5q0 34 9 71q20 78 84 158l-34 21l86 126q134 -81 204 -166.5t70 -180.5q0 -63 -28.5 -111.5t-78 -75.5t-109.5 -27q-98 0 -150.5 51.5zM182.5 176q26.5 -16 75.5 -16q36 0 60 13t29 33q-18 59 -115 135q-76 -73 -76 -120q0 -29 26.5 -45
z" />
    <glyph glyph-name="uni06C2" unicode="&#x6c2;" horiz-adv-x="491" 
d="M95.5 46.5q-52.5 51.5 -52.5 133.5q0 34 9 71q20 78 84 158l-34 21l86 126q134 -81 204 -166.5t70 -180.5q0 -63 -28.5 -111.5t-78 -75.5t-109.5 -27q-98 0 -150.5 51.5zM101 678l54 16q-15 20 -19 40q-2 7 -2 21q0 36 22 66.5t55 38.5q13 4 29 4q27 0 69 -14l-19 -73
q-30 11 -51 11q-23 0 -34 -10.5t-11 -25.5q0 -11 13.5 -22.5t38.5 -7.5l77 23v-74l-222 -67v74zM182.5 176q26.5 -16 75.5 -16q36 0 60 13t29 33q-18 59 -115 135q-76 -73 -76 -120q0 -29 26.5 -45z" />
    <glyph glyph-name="uni06C3" unicode="&#x6c3;" horiz-adv-x="491" 
d="M95.5 46.5q-52.5 51.5 -52.5 133.5q0 34 9 71q20 78 84 158l-34 21l86 126q134 -81 204 -166.5t70 -180.5q0 -63 -28.5 -111.5t-78 -75.5t-109.5 -27q-98 0 -150.5 51.5zM136 753l30 30l87 -87l88 87l89 -89q-23 -21 -44 -44l-45 -45l-88 88l-87 -88l-60 60l-29 29z
M182.5 176q26.5 -16 75.5 -16q36 0 60 13t29 33q-18 59 -115 135q-76 -73 -76 -120q0 -29 26.5 -45z" />
    <glyph glyph-name="uni06C9" unicode="&#x6c9;" horiz-adv-x="516" 
d="M245 -83.5q75 35.5 102 85.5q-25 -4 -57 -4q-75 0 -133.5 27t-82.5 80q-18 41 -18 90q0 62 26 122.5t71.5 99.5t100.5 39q61 0 111.5 -52t79.5 -137.5t29 -182.5q0 -96 -47 -173.5t-134 -129.5t-207 -74l-52 145q136 29 211 64.5zM169.5 628q21.5 42 32.5 73l51 -16
q12 -31 32.5 -71t38.5 -69l-49 -44q-12 19 -28 53.5t-22 59.5q-7 -25 -22.5 -56.5t-27.5 -47.5l-47 46q20 30 41.5 72zM242.5 169.5q49.5 -10.5 108.5 -6.5q-16 63 -45.5 104t-65.5 41q-19 0 -36 -13.5t-26.5 -33.5t-9.5 -37q0 -15 7 -23q18 -21 67.5 -31.5z" />
    <glyph glyph-name="uni06CE" unicode="&#x6ce;" horiz-adv-x="781" 
d="M197.5 -208q-72.5 34 -114.5 101.5t-42 163.5q0 21 1 32q8 99 70 232l106 -48q-27 -61 -40.5 -103.5t-13.5 -88.5q0 -155 197 -155q75 0 138.5 23.5t93.5 62.5l-20 5q-67 16 -94 24q-80 24 -113.5 57.5t-33.5 97.5q0 83 42 159.5t111 123.5t146 47q31 0 63 -9t43 -22
l-47 -146q-9 4 -28 6.5t-34 2.5q-58 0 -107.5 -32.5t-63.5 -80.5q-2 -6 -2 -9q0 -16 25 -28t89 -26q93 -20 125 -54.5t32 -79.5q0 -76 -48.5 -143t-132.5 -107t-184 -40q-91 0 -163.5 34zM191 587q11 -16 26.5 -48.5t22.5 -56.5q7 26 23 61t28 53l48 -44q-18 -27 -37.5 -67
t-32.5 -73l-52 -17q-11 32 -32.5 74.5t-41.5 71.5z" />
    <glyph glyph-name="uni06D4" unicode="&#x6d4;" horiz-adv-x="361" 
d="M109 25q-28 29 -28 72q0 41 28 69t71 28q42 0 70.5 -28t28.5 -69q0 -43 -28.5 -72t-70.5 -29q-43 0 -71 29z" />
    <glyph glyph-name="uni06D5" unicode="&#x6d5;" horiz-adv-x="491" 
d="M95.5 46.5q-52.5 51.5 -52.5 133.5q0 34 9 71q20 78 84 158l-34 21l86 126q134 -81 204 -166.5t70 -180.5q0 -63 -28.5 -111.5t-78 -75.5t-109.5 -27q-98 0 -150.5 51.5zM182.5 176q26.5 -16 75.5 -16q36 0 60 13t29 33q-18 59 -115 135q-76 -73 -76 -120q0 -29 26.5 -45
z" />
    <glyph glyph-name="uni06F0" unicode="&#x6f0;" horiz-adv-x="488" 
d="M143.5 48.5q-41.5 24.5 -66 66t-24.5 89.5q0 49 24.5 90.5t66 66t89.5 24.5q49 0 91 -24.5t66.5 -66t24.5 -90.5q0 -48 -24.5 -89.5t-66.5 -66t-91 -24.5q-48 0 -89.5 24.5zM192 161q18 -18 41 -18q25 0 42.5 18t17.5 43t-17.5 43t-42.5 18q-23 0 -41 -18t-18 -43t18 -43
z" />
    <glyph glyph-name="uni06F1" unicode="&#x6f1;" horiz-adv-x="343" 
d="M137 94q0 156 -18 279q-23 169 -74 286l120 74q66 -137 86 -339q12 -104 12 -258q0 -44 -2 -136h-126q2 64 2 94z" />
    <glyph glyph-name="uni06F2" unicode="&#x6f2;" horiz-adv-x="559" 
d="M135 83q0 159 -17 290q-23 169 -74 286l119 74q17 -36 33 -80q16 -42 29 -64t34.5 -34.5t57.5 -12.5q91 1 91 119q0 21 -3 46l116 24q8 -37 8 -86q0 -73 -23.5 -134t-71.5 -98.5t-117 -37.5q-33 0 -66 13q11 -109 11 -261q0 -41 -2 -127h-126q1 28 1 83z" />
    <glyph glyph-name="uni06F3" unicode="&#x6f3;" horiz-adv-x="719" 
d="M496.5 579.5q14.5 -33.5 39.5 -33.5q15 0 25 17t10 51q0 33 -12 84l112 40q18 -67 18 -130q0 -64 -18.5 -114.5t-53 -79.5t-80.5 -29q-66 0 -111 71q-21 -39 -51 -60.5t-67 -21.5q-30 0 -57 9q11 -109 11 -258q0 -41 -2 -125h-126q2 60 2 88q0 148 -18 285
q-23 169 -74 286l119 74q17 -34 30 -72q27 -68 47.5 -94.5t55.5 -26.5q28 0 48 26t20 77q0 16 -1 24v4l109 18q10 -76 24.5 -109.5z" />
    <glyph glyph-name="uni06F4" unicode="&#x6f4;" horiz-adv-x="696" 
d="M137 94q0 156 -18 279q-23 169 -74 286l120 74q29 -61 48 -128q11 -35 25 -60q11 52 42.5 95.5t78 69t99.5 25.5q91 0 193 -80l-54 -114q-67 25 -122 25t-91.5 -23t-33.5 -58q2 -26 37 -45t91 -19q68 0 153 33l33 -148q-46 -22 -99.5 -35t-108.5 -13q-113 0 -198 60
q5 -71 5 -182q0 -44 -2 -136h-126q2 64 2 94z" />
    <glyph glyph-name="uni06F5" unicode="&#x6f5;" horiz-adv-x="652" 
d="M90 424q42 88 101 164q-11 7 -33 19l81 142q376 -258 376 -536q0 -66 -20 -117t-57 -79t-84 -28q-34 0 -65 16t-55 52q-21 -36 -51 -51.5t-71 -15.5q-53 0 -92.5 28t-61 78.5t-21.5 114.5q0 22 3 44q8 81 50 169zM155 235q0 -39 18 -59t49 -18q35 1 47.5 34.5t12.5 60.5
l96 16q7 -111 61 -111q61 0 61 80q0 71 -55.5 142.5t-148.5 139.5q-115 -123 -138 -251q-3 -18 -3 -34z" />
    <glyph glyph-name="uni06F6" unicode="&#x6f6;" horiz-adv-x="583" 
d="M192 286q-48 30 -75 84t-27 113q0 54 22.5 106.5t69.5 91.5t115 50q18 2 27 2q44 0 89.5 -17t72.5 -40l-54 -113q-36 15 -81 15q-18 0 -38 -3q-49 -7 -78 -35t-28 -57q0 -19 28 -36t71 -17q47 0 98 22q41 25 110 54l29 -163q-117 -44 -225.5 -139.5t-166.5 -231.5
l-111 55q48 144 152 259z" />
    <glyph glyph-name="uni06F7" unicode="&#x6f7;" horiz-adv-x="655" 
d="M545 461q-51 -107 -95 -231.5t-64 -235.5h-116q-15 111 -58.5 234.5t-96.5 230.5t-97 176l114 84q50 -79 103 -200.5t93 -259.5q41 141 93 262t103 198l113 -84q-41 -67 -92 -174z" />
    <glyph glyph-name="uni06F8" unicode="&#x6f8;" horiz-adv-x="655" 
d="M110 234q51 107 95.5 231.5t64.5 235.5h116q15 -111 58.5 -235t96 -230.5t96.5 -175.5l-113 -84q-50 78 -103 200t-94 260q-41 -140 -93 -261.5t-102 -198.5l-114 84q41 67 92 174z" />
    <glyph glyph-name="uni06F9" unicode="&#x6f9;" horiz-adv-x="559" 
d="M347 96q-15 86 -25 189q-43 -10 -94 -10q-90 0 -140 55t-47 156q1 58 26.5 115.5t68.5 95t95 37.5q75 0 116.5 -54.5t56 -115t27.5 -152.5q8 -55 10 -70q15 -110 28.5 -184.5t30.5 -117.5l-119 -74q-19 44 -34 130zM174 454.5q19 -15.5 60 -15.5q42 0 77 11
q-8 55 -29 92.5t-58 37.5q-29 0 -49 -26.5t-20 -61.5q0 -22 19 -37.5z" />
    <glyph glyph-name="uni2009" unicode="&#x2009;" horiz-adv-x="86" 
 />
    <glyph glyph-name="uni200A" unicode="&#x200a;" horiz-adv-x="64" 
 />
    <glyph glyph-name="uni200B" unicode="&#x200b;" 
 />
    <glyph glyph-name="uni200C" unicode="&#x200c;" 
 />
    <glyph glyph-name="uni200D" unicode="&#x200d;" 
 />
    <glyph glyph-name="uni200E" unicode="&#x200e;" 
 />
    <glyph glyph-name="uni200F" unicode="&#x200f;" 
 />
    <glyph glyph-name="quoteleft" unicode="&#x2018;" horiz-adv-x="255" 
d="M189 645q-13 -40 -14 -76v-133h-144v116q1 62 33 128t81 108l90 -45q-33 -58 -46 -98z" />
    <glyph glyph-name="quoteright" unicode="&#x2019;" horiz-adv-x="255" 
d="M66 575.5q13 39.5 14 75.5v134h145v-116q-1 -63 -33 -129t-81 -108l-90 45q32 59 45 98.5z" />
    <glyph glyph-name="quotedblleft" unicode="&#x201c;" horiz-adv-x="490" 
d="M424 646.5q-13 -39.5 -14 -75.5v-134h-144v116q1 63 33 128.5t81 107.5l89 -44q-32 -59 -45 -98.5zM35 553q1 63 33 128.5t81 107.5l90 -44q-33 -59 -46 -98.5t-14 -75.5v-134h-144v116z" />
    <glyph glyph-name="quotedblright" unicode="&#x201d;" horiz-adv-x="486" 
d="M66 471q13 40 14 76v133h145v-116q-1 -63 -33 -128.5t-81 -107.5l-90 45q32 58 45 98zM297 471q13 40 14 76v133h144v-116q-1 -62 -33 -128t-81 -108l-89 45q32 58 45 98z" />
    <glyph glyph-name="quotedblbase" unicode="&#x201e;" horiz-adv-x="493" 
d="M69 -69q13 40 14 76v133h144v-116q-1 -62 -33 -128t-81 -108l-90 45q33 58 46 98zM299.5 -68q13.5 40 14.5 75v133h144v-116q-1 -62 -33 -128t-81 -108l-90 45q32 59 45.5 99z" />
    <glyph glyph-name="bullet" unicode="&#x2022;" horiz-adv-x="560" 
d="M193 -6q-40 23 -63.5 63t-23.5 87t23.5 87t63.5 63.5t87 23.5t87 -23.5t63 -63.5t23 -87t-23 -87t-63 -63t-87 -23t-87 23z" />
    <glyph glyph-name="ellipsis" unicode="&#x2026;" horiz-adv-x="945" 
d="M101 25q-28 29 -28 72q0 42 28 69.5t70 27.5t71 -28t29 -69q0 -43 -29 -72t-71 -29t-70 29zM400 166.5q28 27.5 70 27.5t71 -28t29 -69q0 -43 -29 -72t-71 -29t-70 29t-28 72q0 42 28 69.5zM701 166.5q28 27.5 70 27.5t71 -28t29 -69q0 -43 -29 -72t-71 -29t-70 29
t-28 72q0 42 28 69.5z" />
    <glyph glyph-name="minute" unicode="&#x2032;" horiz-adv-x="176" 
d="M150 676l-15 -198h-93v272h108v-74z" />
    <glyph glyph-name="second" unicode="&#x2033;" horiz-adv-x="373" 
d="M351 676l-15 -198h-93v272h108v-74zM54 750h108v-74l-15 -198h-93v272z" />
    <glyph glyph-name="guilsinglleft" unicode="&#x2039;" horiz-adv-x="262" 
d="M154 129q18 -44 58 -96l-70 -80q-54 57 -86 120t-32 146t32 146.5t86 120.5l70 -81q-40 -52 -58 -96t-18 -90t18 -90z" />
    <glyph glyph-name="guilsinglright" unicode="&#x203a;" horiz-adv-x="263" 
d="M109 308.5q-18 43.5 -59 96.5l70 81q54 -57 86 -120.5t32 -146.5t-32 -146t-86 -120l-70 80q41 53 59 96.5t18 89.5t-18 89.5z" />
    <glyph glyph-name="fraction" unicode="&#x2044;" horiz-adv-x="443" 
d="M83 53l-72 38l347 555l72 -37z" />
    <glyph glyph-name="uni2070" unicode="&#x2070;" horiz-adv-x="373" 
d="M298.5 321q-39.5 -41 -111.5 -41t-111.5 40t-41.5 113v84q0 76 40.5 117.5t111.5 41.5t111.5 -41.5t40.5 -116.5v-82q0 -74 -39.5 -115zM149.5 378q11.5 -17 37.5 -17q46 0 49 64v96q0 73 -50 73q-47 0 -48 -67v-95q0 -37 11.5 -54z" />
    <glyph glyph-name="uni2074" unicode="&#x2074;" horiz-adv-x="373" 
d="M303 445h41v-82h-41v-78h-104v78h-166l-7 66l173 241h104v-225zM199 445v103l-8 -12l-67 -91h75z" />
    <glyph glyph-name="uni2075" unicode="&#x2075;" horiz-adv-x="373" 
d="M41 472l26 198h248v-79h-164l-10 -66q37 14 64 14q65 0 98.5 -32t33.5 -92t-41.5 -97.5t-109.5 -37.5q-42 0 -77 15t-56 41t-21 58h104q0 -33 50 -33q48 0 48 54q0 27 -14 41t-42 14q-33 0 -56 -18z" />
    <glyph glyph-name="uni2076" unicode="&#x2076;" horiz-adv-x="373" 
d="M178.5 574.5q-32.5 -21.5 -39.5 -62.5q35 30 85 30q57 0 90 -34.5t33 -94.5q0 -57 -43.5 -95t-109.5 -38q-76 0 -118.5 40t-42.5 113v29q0 103 63 160t184 57v-83q-69 0 -101.5 -21.5zM191 360q23 0 38 16t15 38q0 48 -53 48q-37 0 -55 -23v-20q0 -59 55 -59z" />
    <glyph glyph-name="uni2077" unicode="&#x2077;" horiz-adv-x="373" 
d="M337 614l-159 -329h-109l161 304h-206v81h313v-56z" />
    <glyph glyph-name="uni2078" unicode="&#x2078;" horiz-adv-x="373" 
d="M74.5 309.5q-40.5 29.5 -40.5 82.5q0 64 64 91q-55 28 -55 83q0 51 38.5 80.5t104.5 29.5t105 -29.5t39 -80.5q0 -56 -55 -83q63 -28 63 -91q0 -53 -39.5 -82.5t-111.5 -29.5t-112.5 29.5zM151 372q14 -11 36 -11t35.5 11t13.5 30t-13 28.5t-37 9.5q-49 0 -49 -38
q0 -19 14 -30zM187 522q40 0 40 37q0 36 -41 36q-19 0 -29.5 -9.5t-10.5 -26.5q0 -37 41 -37z" />
    <glyph glyph-name="uni2079" unicode="&#x2079;" horiz-adv-x="373" 
d="M195.5 373q28.5 14 36.5 60q-31 -25 -71 -25q-62 0 -95 33t-33 95q0 39 20 71t54.5 50.5t76.5 18.5q71 0 111 -40.5t42 -113.5v-31q0 -106 -56.5 -158.5t-174.5 -53.5v80q61 0 89.5 14zM190 483q29 0 44 18v38q0 29 -12.5 42t-37.5 13q-21 0 -34.5 -17.5t-13.5 -42.5
q0 -51 54 -51z" />
    <glyph glyph-name="uni2080" unicode="&#x2080;" horiz-adv-x="373" 
d="M298.5 36q-39.5 -41 -111.5 -41t-111.5 40t-41.5 113v84q0 76 40.5 117.5t111.5 41.5t111.5 -41.5t40.5 -116.5v-82q0 -74 -39.5 -115zM149.5 93q11.5 -17 37.5 -17q46 0 49 64v96q0 73 -50 73q-47 0 -48 -67v-95q0 -37 11.5 -54z" />
    <glyph glyph-name="uni2081" unicode="&#x2081;" horiz-adv-x="373" 
d="M260 0h-102v267l-90 -19v77l183 59h9v-384z" />
    <glyph glyph-name="uni2082" unicode="&#x2082;" horiz-adv-x="373" 
d="M339 0h-304v68l141 126q24 21 37 42t13 33q0 20 -12 30.5t-34 10.5q-23 0 -36.5 -15t-13.5 -38l-99 4q0 58 39.5 94t105.5 36q73 0 112.5 -31.5t39.5 -90.5q0 -39 -26 -74q-21 -28 -82 -73l-49 -41h168v-81z" />
    <glyph glyph-name="uni2083" unicode="&#x2083;" horiz-adv-x="373" 
d="M134 230h42q55 0 55 42q0 18 -13.5 28t-37.5 10q-20 0 -34 -8t-14 -21h-102q0 49 41 79.5t106 30.5q73 0 114.5 -30t41.5 -81q0 -58 -67 -82q75 -21 75 -90q0 -50 -45.5 -81.5t-118.5 -31.5q-70 0 -112.5 33t-42.5 88h104q0 -16 16 -28t42 -12q27 0 40 12t13 30
q0 45 -58 45h-45v67z" />
    <glyph glyph-name="uni2084" unicode="&#x2084;" horiz-adv-x="373" 
d="M303 160h41v-82h-41v-78h-104v78h-166l-7 66l173 241h104v-225zM199 160v103l-8 -12l-67 -91h75z" />
    <glyph glyph-name="uni2085" unicode="&#x2085;" horiz-adv-x="373" 
d="M41 187l26 198h248v-79h-164l-10 -66q37 14 64 14q65 0 98.5 -32t33.5 -92t-41.5 -97.5t-109.5 -37.5q-42 0 -77 15t-56 41t-21 58h104q0 -33 50 -33q48 0 48 54q0 27 -14 41t-42 14q-33 0 -56 -18z" />
    <glyph glyph-name="uni2086" unicode="&#x2086;" horiz-adv-x="373" 
d="M178.5 289.5q-32.5 -21.5 -39.5 -62.5q35 30 85 30q57 0 90 -34.5t33 -94.5q0 -57 -43.5 -95t-109.5 -38q-76 0 -118.5 40t-42.5 113v29q0 103 63 160t184 57v-83q-69 0 -101.5 -21.5zM191 75q23 0 38 16t15 38q0 48 -53 48q-37 0 -55 -23v-20q0 -59 55 -59z" />
    <glyph glyph-name="uni2087" unicode="&#x2087;" horiz-adv-x="373" 
d="M337 329l-159 -329h-109l161 304h-206v81h313v-56z" />
    <glyph glyph-name="uni2088" unicode="&#x2088;" horiz-adv-x="373" 
d="M74.5 24.5q-40.5 29.5 -40.5 82.5q0 64 64 91q-55 28 -55 83q0 51 38.5 80.5t104.5 29.5t105 -29.5t39 -80.5q0 -56 -55 -83q63 -28 63 -91q0 -53 -39.5 -82.5t-111.5 -29.5t-112.5 29.5zM151 87q14 -11 36 -11t35.5 11t13.5 30t-13 28.5t-37 9.5q-49 0 -49 -38
q0 -19 14 -30zM187 237q40 0 40 37q0 36 -41 36q-19 0 -29.5 -9.5t-10.5 -26.5q0 -37 41 -37z" />
    <glyph glyph-name="uni2089" unicode="&#x2089;" horiz-adv-x="373" 
d="M195.5 88q28.5 14 36.5 60q-31 -25 -71 -25q-62 0 -95 33t-33 95q0 39 20 71t54.5 50.5t76.5 18.5q71 0 111 -40.5t42 -113.5v-31q0 -106 -56.5 -158.5t-174.5 -53.5v80q61 0 89.5 14zM190 198q29 0 44 18v38q0 29 -12.5 42t-37.5 13q-21 0 -34.5 -17.5t-13.5 -42.5
q0 -51 54 -51z" />
    <glyph glyph-name="trademark" unicode="&#x2122;" horiz-adv-x="632" 
d="M500 616l-51 -169h-37l-53 171v-171h-66v264h81l56 -179l60 179h76v-264h-66v169zM59 711h201v-54h-62v-209h-74v209h-65v54z" />
    <glyph glyph-name="partialdiff" unicode="&#x2202;" horiz-adv-x="572" 
d="M160.5 22q-56.5 32 -87.5 91t-31 139v7q0 74 28.5 130t81 87t123.5 31q80 0 136 -56q-16 90 -58 137.5t-103 47.5q-32 0 -58 -7t-55 -18l-25 102q70 39 151 39q87 0 150.5 -45t97.5 -131.5t34 -208.5v-48q0 -100 -31 -174.5t-88 -114.5t-133 -40t-132.5 32zM218 141
q26 -35 75 -35q50 0 76.5 43t26.5 125l-1 55q-17 30 -42.5 46t-58.5 16q-50 0 -76 -35t-26 -102v-13q0 -65 26 -100z" />
    <glyph glyph-name="product" unicode="&#x220f;" horiz-adv-x="689" 
d="M614 -126h-151v724h-232v-724h-151v837h534v-837z" />
    <glyph glyph-name="summation" unicode="&#x2211;" horiz-adv-x="635" 
d="M457 284l-226 -299h377v-117h-582v73l274 352l-274 346v72h570v-116h-363l224 -294v-17z" />
    <glyph glyph-name="minus" unicode="&#x2212;" horiz-adv-x="552" 
d="M494 289h-425v118h425v-118z" />
    <glyph glyph-name="uni2215" unicode="&#x2215;" horiz-adv-x="600" 
d="M372 775l120 -37l-263 -818l-119 37z" />
    <glyph glyph-name="radical" unicode="&#x221a;" horiz-adv-x="553" 
d="M284 145l146 566h114l-191 -711h-130l-86 251h-111v117h194z" />
    <glyph glyph-name="infinity" unicode="&#x221e;" horiz-adv-x="1054" 
d="M167.5 24.5q-57.5 34.5 -89.5 97t-32 144.5q0 49 20 111t76.5 111.5t156.5 49.5q142 0 226 -147q41 72 99 109.5t128 37.5q75 0 133 -34.5t89.5 -97.5t31.5 -147q0 -48 -22 -110.5t-79 -110.5t-154 -48q-70 0 -128 39t-98 112q-41 -75 -98 -113t-127 -38
q-75 0 -132.5 34.5zM223.5 151q31.5 -41 84.5 -41q36 0 67 30.5t51 68t25 57.5v4q-4 17 -24 53t-51.5 65.5t-68.5 29.5q-52 0 -83.5 -42t-31.5 -116q0 -68 31.5 -109zM625.5 210.5q21.5 -38.5 53 -69.5t64.5 -31q53 0 85 41.5t32 116.5q0 66 -32 108t-84 42q-36 0 -67 -29
t-51.5 -65t-24.5 -54v-4q3 -17 24.5 -55.5z" />
    <glyph glyph-name="integral" unicode="&#x222b;" horiz-adv-x="296" 
d="M168 -163.5q-49 -49.5 -142 -49.5q-37 0 -74 8l8 114q22 -6 42 -6q64 0 65 72v599q0 90 52 138.5t148 48.5q30 0 80 -11l-12 -111q-19 5 -49 5q-69 0 -69 -73v-591q0 -94 -49 -143.5z" />
    <glyph glyph-name="approxequal" unicode="&#x2248;" horiz-adv-x="579" 
d="M105 485q32 14 64 14q37 0 63 -9t60 -27q32 -17 57 -25.5t59 -8.5q61 0 110 62v-116q-24 -27 -49.5 -40t-56.5 -13q-32 0 -56.5 8.5t-61.5 26.5q-35 19 -61 27.5t-59 7.5q-34 0 -68 -17t-57 -45v116q24 25 56 39zM49 242q51 51 120 51q31 0 58 -9t65 -27q33 -16 58 -24.5
t53 -8.5q65 0 115 62v-116q-49 -52 -110 -52q-32 0 -57 8.5t-63 26.5q-36 17 -60 25.5t-53 8.5q-35 0 -68.5 -16t-57.5 -45v116z" />
    <glyph glyph-name="notequal" unicode="&#x2260;" horiz-adv-x="578" 
d="M508 149h-272l-55 -104l-60 29l40 75h-96v118h157l50 95h-207v116h268l55 103l60 -31l-39 -72h99v-116h-160l-50 -95h210v-118z" />
    <glyph glyph-name="lessequal" unicode="&#x2264;" horiz-adv-x="511" 
d="M175 371l275 -88v-127l-425 162v108l425 162v-126zM32 139h425v-118h-425v118z" />
    <glyph glyph-name="greaterequal" unicode="&#x2265;" horiz-adv-x="513" 
d="M334 374l-278 89v126l427 -162v-108l-427 -162v126zM56 139h425v-118h-425v118z" />
    <glyph glyph-name="uniFBB2" unicode="&#xfbb2;" 
d="M53 380q21 22 43 43l33 -33l66 -66l-99 -100l-66 66l-34 34z" />
    <glyph glyph-name="uniFBB3" unicode="&#xfbb3;" 
d="M39 -111l57 56l66 -66l33 -33l-99 -99l-100 99q22 21 43 43z" />
    <glyph glyph-name="uniFBB4" unicode="&#xfbb4;" 
d="M83 412l88 -87l87 87l89 -88l-89 -90l-87 88q-30 -29 -59 -59l-29 -29l-89 90z" />
    <glyph glyph-name="uniFBB5" unicode="&#xfbb5;" 
d="M317 -130l-59 -59l-88 88l-87 -88l-89 89l45 45q21 23 44 44l87 -88q30 29 59 59l29 29l29 -29l60 -60z" />
    <glyph glyph-name="uniFBB6" unicode="&#xfbb6;" 
d="M80 306l84 -83l-84 -85l-84 85zM174 418l74 -74l-74 -75l-73 75zM270 306l28 -28q28 -27 55 -55l-50 -51l-33 -34l-84 85z" />
    <glyph glyph-name="uniFBB9" unicode="&#xfbb9;" 
d="M270 -183l-84 83l28 28l56 56l28 -28l56 -56q-27 -29 -84 -83zM80 -16l85 -84l-34 -33l-51 -50q-28 27 -55 55l-28 28zM151 -172l25 25l25 -25q24 -25 49 -49l-74 -74l-74 74q25 24 49 49z" />
    <glyph glyph-name="uniFD3E" unicode="&#xfd3e;" horiz-adv-x="440" 
d="M239.5 553.5q-67.5 -113.5 -67.5 -265.5q0 -158 66 -266.5t159 -189.5l-82 -99q-124 93 -203 234t-79 321q0 182 79 322t203 233l82 -98q-90 -78 -157.5 -191.5z" />
    <glyph glyph-name="uniFD3F" unicode="&#xfd3f;" horiz-adv-x="441" 
d="M328.5 610q78.5 -140 78.5 -322q0 -180 -79 -321t-202 -234l-83 99q93 81 159 189.5t66 266.5q0 152 -67.5 265.5t-157.5 191.5l83 98q124 -93 202.5 -233z" />
    <glyph glyph-name="uniFEFF" unicode="&#xfeff;" 
 />
    <glyph glyph-name="uni0627.001" horiz-adv-x="256" 
d="M63 167q0 119 -7.5 256t-17.5 210l140 32q7 -73 13 -198.5t6 -245.5q0 -145 -9 -229l-131 14q6 63 6 161z" />
    <glyph glyph-name="uni0627.fina.001" horiz-adv-x="267" 
d="M105 65.5q-51 65.5 -53 196.5q-2 119 -6 197.5t-12 173.5l138 31q7 -76 9.5 -154t3.5 -197v-29q1 -47 7 -71.5t23 -34.5t51 -10h6l9 -84l-9 -84h-5q-111 0 -162 65.5z" />
    <glyph glyph-name="uni066E.001" horiz-adv-x="434" 
d="M-7 63q0 31 2 93q92 0 155.5 8.5t96 19.5t33.5 16q-9 50 -29.5 107t-33.5 87l117 64q28 -63 45.5 -133t14.5 -125q-5 -107 -114 -160t-285 -53q-2 52 -2 76z" />
    <glyph glyph-name="uni066E.fina.001" horiz-adv-x="433" 
d="M154 43q-104 57 -113 159q-1 8 -1 24q0 44 12 95t30 91l106 -50q-10 -32 -18 -67.5t-7 -58.5q4 -21 37.5 -39.5t95 -29.5t143.5 -11q3 -46 3 -90q0 -40 -3 -79q-181 -1 -285 56z" />
    <glyph glyph-name="uni066E.fina.002" horiz-adv-x="520" 
d="M-5 71q0 29 2 85q134 0 204.5 15t107 50t63.5 105l113 -13q-20 -60 -20 -90q0 -29 15 -41.5t45 -12.5l9 -85l-9 -84q-54 0 -97 32t-53 82q-64 -72 -153 -99.5t-225 -27.5q-2 56 -2 84z" />
    <glyph glyph-name="uni066E.medi.001" horiz-adv-x="390" 
d="M-4 168h5q79 0 122 7t60.5 22t19.5 41q3 41 -10 109l114 22q14 -75 14 -166q2 -12 18.5 -23.5t50.5 -11.5h5l9 -84l-9 -84h-5q-39 0 -73 17.5t-61 47.5q-32 -34 -90.5 -49.5t-164.5 -15.5h-5v168z" />
    <glyph glyph-name="uni066E.medi.002" horiz-adv-x="338" 
d="M199 64q-63 -64 -196 -64h-8v168h7q63 0 100 12t46 33l-18 83l-9 42l109 38q13 -60 36 -145q10 -33 27 -48t45 -15h5l9 -84l-9 -84h-5q-92 0 -139 64z" />
    <glyph glyph-name="uni066E.medi.003" horiz-adv-x="396" 
d="M255 67q-37 -34 -99 -50.5t-153 -16.5h-8v168h7q88 0 138 11.5t66 35.5l-27 123l109 38l7 -27q11 -50 29 -118q10 -33 27 -48t45 -15h5l9 -84l-9 -84h-5q-94 0 -141 67z" />
    <glyph glyph-name="uni066E.init.001" horiz-adv-x="386" 
d="M-5 168h50q96 0 136.5 16t40.5 47q0 19 -22 79.5t-33 83.5l116 64q20 -42 40.5 -112t20.5 -124q0 -107 -69 -164.5t-203 -57.5h-77v168z" />
    <glyph glyph-name="uni0628.medi.001" horiz-adv-x="338" 
d="M199 64q-63 -64 -196 -64h-8v168h7q63 0 100 12t46 33l-18 83l-9 42l109 38q13 -60 36 -145q10 -33 27 -48t45 -15h5l9 -84l-9 -84h-5q-92 0 -139 64zM15 -114q21 22 43 43l33 -33l66 -66l-99 -100l-66 66l-34 34z" />
    <glyph glyph-name="uni0628.medi.alt" horiz-adv-x="335" 
d="M-5 168h6q77 1 110 17t36 53q3 41 -10 109l114 22q14 -82 14 -166q2 -11 19 -23t50 -12h5l9 -84l-9 -84h-5q-39 0 -73 17.5t-61 47.5q-61 -65 -199 -65h-6v168zM85 -116q21 22 43 43l33 -33l66 -66l-99 -100l-66 66l-34 34z" />
    <glyph glyph-name="uni0628.medi.alt.001" horiz-adv-x="396" 
d="M255 67q-37 -34 -99 -50.5t-153 -16.5h-8v168h7q88 0 138 11.5t66 35.5l-27 123l109 38l7 -27q11 -50 29 -118q10 -33 27 -48t45 -15h5l9 -84l-9 -84h-5q-94 0 -141 67zM100 -115q21 22 43 43l33 -33l66 -66l-99 -100l-66 66l-34 34z" />
    <glyph glyph-name="uni0628.init.alt" horiz-adv-x="342" 
d="M-5 168h53q130 0 130 57q0 18 -22.5 83t-32.5 86l117 64q19 -40 39.5 -112.5t20.5 -127.5q0 -107 -65 -162.5t-187 -55.5h-53v168zM82 -115q21 22 43 43l33 -33l66 -66l-99 -100l-66 66l-34 34z" />
    <glyph glyph-name="uni067E.medi.001" horiz-adv-x="396" 
d="M209 -237l-84 83l84 85l84 -85zM-14 -103l33 34l84 -85l-84 -83l-28 28q-28 27 -55 55zM-5 168h7q88 0 138 11.5t66 35.5l-27 123l109 38l7 -27q11 -50 29 -118q10 -33 27 -48t45 -15h5l9 -84l-9 -84h-5q-94 0 -141 67q-37 -34 -99 -50.5t-153 -16.5h-8v168zM115 -200
l73 -75l-73 -74l-74 74z" />
    <glyph glyph-name="uni067E.medi.alt" horiz-adv-x="390" 
d="M-4 168h5q79 0 122 7t60.5 22t19.5 41q3 41 -10 109l114 22q14 -75 14 -166q2 -12 18.5 -23.5t50.5 -11.5h5l9 -84l-9 -84h-5q-39 0 -73 17.5t-61 47.5q-32 -34 -90.5 -49.5t-164.5 -15.5h-5v168zM49 -103l33 34l84 -85l-84 -83l-28 28q-28 27 -55 55zM178 -200l73 -75
l-73 -74l-74 74zM272 -69l84 -85l-84 -83l-84 83z" />
    <glyph glyph-name="uni067E.medi.alt.001" horiz-adv-x="396" 
d="M272 -237l-84 83l84 85l84 -85zM-5 168h7q88 0 138 11.5t66 35.5l-27 123l109 38l7 -27q11 -50 29 -118q10 -33 27 -48t45 -15h5l9 -84l-9 -84h-5q-94 0 -141 67q-37 -34 -99 -50.5t-153 -16.5h-8v168zM49 -103l33 34l84 -85l-84 -83l-28 28q-28 27 -55 55zM178 -200
l73 -75l-73 -74l-74 74z" />
    <glyph glyph-name="uni067E.init.alt" horiz-adv-x="437" 
d="M-12 84l9 84h99q95 0 135.5 15.5t40.5 46.5q0 17 -19.5 72t-34.5 92l116 64q20 -42 40.5 -112t20.5 -124q0 -107 -69 -164.5t-203 -57.5h-126zM56 -103l33 34l84 -85l-84 -83l-28 28q-28 27 -55 55zM185 -200l73 -75l-73 -74l-74 74zM279 -69l84 -85l-84 -83l-84 83z" />
    <glyph glyph-name="uni062A.medi.001" horiz-adv-x="396" 
d="M255 67q-37 -34 -99 -50.5t-153 -16.5h-8v168h7q88 0 138 11.5t66 35.5l-27 123l109 38l7 -27q11 -50 29 -118q10 -33 27 -48t45 -15h5l9 -84l-9 -84h-5q-94 0 -141 67zM96 616l87 -87l88 87l88 -89l-88 -89l-88 88l-87 -88l-90 89z" />
    <glyph glyph-name="uni062A.medi.002" horiz-adv-x="445" 
d="M303 67q-37 -34 -98.5 -50.5t-151.5 -16.5h-56l-9 84l9 84h53q88 0 138 11.5t66 35.5l-27 123l110 38q13 -60 36 -145q9 -33 26.5 -48t45.5 -15h5l9 -84l-9 -84h-5q-95 0 -142 67zM94 586l30 30l87 -87l88 87l89 -89l-59 -59l-30 -30l-88 88l-87 -88l-89 89z" />
    <glyph glyph-name="uni062A.medi.alt" horiz-adv-x="439" 
d="M-12 84l9 84h53q83 0 126 8t59.5 24.5t16.5 45.5q0 31 -10 101l114 22q13 -76 13 -166q2 -11 19 -23t50 -12h6l9 -84l-9 -84h-6q-39 0 -73.5 18t-59.5 47q-31 -34 -89.5 -49.5t-162.5 -15.5h-56zM109 614l87 -87l88 87l88 -89l-88 -89l-88 88l-87 -88l-90 89z" />
    <glyph glyph-name="uni062A.init.alt" horiz-adv-x="434" 
d="M-12 84l9 84h97q95 0 135.5 16t40.5 47q0 19 -22 79.5t-33 83.5l117 64q20 -42 40 -110.5t20 -122.5q0 -109 -68.5 -167t-203.5 -58h-123zM136 667l87 -87l88 87l88 -89l-88 -89l-88 87l-87 -87l-90 89z" />
    <glyph glyph-name="uni062B.medi.001" horiz-adv-x="396" 
d="M255 67q-37 -34 -99 -50.5t-153 -16.5h-8v168h7q88 0 138 11.5t66 35.5l-27 123l109 38l7 -27q11 -50 29 -118q10 -33 27 -48t45 -15h5l9 -84l-9 -84h-5q-94 0 -141 67zM96 609l84 -83l-84 -85l-84 85zM190 721l74 -74l-74 -75l-74 75zM286 609l28 -28q28 -27 55 -55
l-50 -51l-33 -34l-56 56l-29 29z" />
    <glyph glyph-name="uni062B.medi.002" horiz-adv-x="445" 
d="M303 67q-37 -34 -98.5 -50.5t-151.5 -16.5h-56l-9 84l9 84h53q88 0 138 11.5t66 35.5l-27 123l110 38q13 -60 36 -145q9 -33 26.5 -48t45.5 -15h5l9 -84l-9 -84h-5q-95 0 -142 67zM122 609l84 -83l-84 -85l-84 85zM216 721l74 -74l-74 -75l-73 75zM312 609l28 -28
q28 -27 55 -55l-50 -51l-33 -34l-84 85z" />
    <glyph glyph-name="uni062B.medi.alt" horiz-adv-x="439" 
d="M-12 84l9 84h53q83 0 126 8t59.5 24.5t16.5 45.5q0 31 -10 101l114 22q13 -76 13 -166q2 -11 19 -23t50 -12h6l9 -84l-9 -84h-6q-39 0 -73.5 18t-59.5 47q-31 -34 -89.5 -49.5t-162.5 -15.5h-56zM114 608l84 -83l-21 -21q-53 -53 -63 -64l-84 85q27 29 84 83zM208 720
l74 -74l-25 -25q-24 -25 -49 -49q-25 24 -49 49l-25 25zM253 558l51 50q28 -27 55 -55l28 -28l-83 -85l-29 29l-56 56z" />
    <glyph glyph-name="uni062B.init.alt" horiz-adv-x="434" 
d="M-12 84l9 84h97q95 0 135.5 16t40.5 47q0 19 -22 79.5t-33 83.5l117 64q20 -42 40 -110.5t20 -122.5q0 -109 -68.5 -167t-203.5 -58h-123zM123 659l84 -83l-84 -85l-84 85zM217 770l74 -73l-74 -75l-74 75zM313 659l83 -83q-27 -29 -83 -85l-85 85q29 27 85 83z" />
    <glyph glyph-name="uni0679.medi.001" horiz-adv-x="396" 
d="M255 67q-37 -34 -99 -50.5t-153 -16.5h-8v168h7q88 0 138 11.5t66 35.5l-27 123l109 38l7 -27q11 -50 29 -118q10 -33 27 -48t45 -15h5l9 -84l-9 -84h-5q-94 0 -141 67zM36 530q28 -7 30 -8l17 25q0 28 -5 79t-11 85l58 12q8 -44 13 -114q39 31 77 31q42 0 64.5 -29.5
t22.5 -65.5q0 -45 -40.5 -78.5t-122.5 -33.5q-57 0 -90.5 15.5t-34.5 15.5zM140 510q62 -3 85.5 7.5t23.5 26.5q0 10 -7 17t-21 7q-21 0 -45 -15.5t-46 -41.5q3 -1 10 -1z" />
    <glyph glyph-name="uni062D.fina.001" horiz-adv-x="733" 
d="M217.5 -364q-81.5 34 -129 99.5t-47.5 154.5q0 12 2 36q14 134 124.5 225.5t300.5 134.5q-58 39 -97 56.5t-74 17.5q-62 0 -108 -62l-93 69q78 155 207 155q56 0 110.5 -26t148.5 -95q49 -36 75 -51t57 -26l-19 -163q-148 0 -261 -36.5t-178 -93.5t-76 -117
q-5 -40 29 -73t96 -52.5t137 -19.5q67 0 129 15t95 29l62 -129q-4 -2 -41.5 -23.5t-112.5 -40t-157 -18.5q-98 0 -179.5 34z" />
    <glyph glyph-name="uni0631.003" horiz-adv-x="419" 
d="M298.5 52q-44.5 52 -74.5 146l102 62q14 -51 33.5 -71.5t54.5 -20.5h10l9 -84l-9 -84h-10q-71 0 -115.5 52z" />
    <glyph glyph-name="uni0633.001" horiz-adv-x="677" 
d="M196.5 -259q-72.5 35 -113.5 102.5t-41 160.5q0 21 1 32q7 99 70 233l105 -48q-27 -66 -39.5 -107.5t-12.5 -88.5q0 -151 196 -151q67 0 118.5 22.5t80 59.5t28.5 80q0 45 -32 137t-35 100l117 64q66 -173 66 -301q0 -91 -44 -166.5t-122 -119.5t-177 -44
q-93 0 -165.5 35z" />
    <glyph glyph-name="uni0633.fina.001" horiz-adv-x="76" 
d="M-36.5 54.5q-47.5 54.5 -73.5 144.5l99 60q13 -37 23.5 -55t27.5 -27t47 -9l-8 -168q-68 0 -115.5 54.5z" />
    <glyph glyph-name="uni0633.medi.002" horiz-adv-x="266" 
d="M133 67q-26 -32 -60.5 -49.5t-72.5 -17.5h-2v168h2q23 0 44 8t32 21l-24 127l113 31q11 -63 18 -94.5t13 -51.5q7 -20 23.5 -30.5t46.5 -10.5h6l8 -84l-9 -84h-5q-80 0 -133 67z" />
    <glyph glyph-name="uni0633.init.001" horiz-adv-x="218" 
d="M-1 168h3q26 0 42.5 15.5t16.5 38.5q0 24 -20 80.5t-35 91.5l113 62q19 -39 40 -112.5t21 -128.5q0 -59 -22.5 -108t-63 -78t-92.5 -29h-3v168z" />
    <glyph glyph-name="uni0633.init.002" horiz-adv-x="268" 
d="M-2 168h6q49 0 73 50q18 36 25.5 72.5t8.5 40.5l113 -5q-11 -62 -11 -92q0 -31 14 -48.5t42 -17.5h2l9 -84l-9 -84h-2q-45 0 -80 20.5t-55 59.5q-29 -40 -61 -60t-72 -20h-3v168z" />
    <glyph glyph-name="uni0633.init.003" horiz-adv-x="285" 
d="M-2 0l-9 84l9 84h5q28 0 57 12.5t44 29.5q32 36 52 116l114 -12l-5 -20q-15 -60 -15 -82q0 -44 36 -44h3l9 -84l-9 -84h-6q-42 0 -75 21t-47 57q-32 -38 -73 -58t-87 -20h-3z" />
    <glyph glyph-name="uni0635.medi.001" horiz-adv-x="205" 
d="M210 168l9 -84l-9 -84q-99 0 -163.5 8t-100.5 39l73 117q108 4 191 4z" />
    <glyph glyph-name="uni06A1.medi.001" horiz-adv-x="467" 
d="M-4 -13l-9 85l9 84h12q42 0 62 1q-27 45 -27 96q0 8 2 26q10 61 38.5 110.5t70 78.5t88.5 29q54 0 94.5 -32.5t62 -84t21.5 -105.5q0 -24 -2 -35q-7 -42 -20 -72h74l9 -84l-9 -84h-60q-91 0 -166 26q-94 -39 -238 -39h-12zM181.5 227q19.5 -22 52.5 -37q48 23 69 66
q1 4 1 11q0 28 -18.5 52t-51.5 24q-29 0 -50 -23t-24 -50q2 -21 21.5 -43z" />
    <glyph glyph-name="uni06A1.init.001" horiz-adv-x="480" 
d="M6 -13l-14 84l4 84h15q114 1 186 15t105 45q-28 -2 -42 -2q-73 0 -129.5 26t-80.5 76q-18 39 -18 86q0 59 25.5 115.5t70 93t98.5 36.5q60 0 109.5 -49t77 -130t26.5 -172q-2 -142 -107.5 -224t-322.5 -83zM215 376q49 -11 106 -8q-15 60 -44 99t-65 39q-28 0 -49 -25.5
t-21 -51.5q0 -14 7 -22q17 -20 66 -31z" />
    <glyph glyph-name="uni0643.init.alt" horiz-adv-x="465" 
d="M-5 -13l-9 84l9 84h37q76 0 131.5 17t77.5 38q-19 51 -67.5 110.5t-141.5 135.5l14 144l373 156l46 -134l-281 -119q50 -45 114 -130t64 -170q0 -19 -4 -34q-18 -86 -108 -133.5t-218 -47.5z" />
    <glyph glyph-name="uni0643.init.alt3" horiz-adv-x="465" 
d="M-5 -13l-9 84l9 84h37q79 0 133 11t74 29q-21 51 -68 109t-139 132l14 145l373 156l46 -134l-281 -119q64 -54 120.5 -126t56.5 -153q0 -20 -4 -36q-19 -86 -108 -133.5t-217 -47.5zM56 702l328 133l17 -51l-351 -146z" />
    <glyph glyph-name="uni0644.001" horiz-adv-x="702" 
d="M191.5 -231.5q-68.5 32.5 -109.5 93.5t-41 143q0 11 2 33q9 100 69 233l107 -49q-25 -57 -38.5 -98t-15.5 -85q-2 -59 47 -96.5t129 -37.5q98 0 149.5 48.5t49.5 148.5q-4 158 -18 339.5t-29 282.5l140 31q21 -148 29 -646q1 -115 -36.5 -199t-110.5 -129t-174 -45
q-81 0 -149.5 32.5z" />
    <glyph glyph-name="uni0646.medi.001" horiz-adv-x="338" 
d="M199 64q-63 -64 -196 -64h-8v168h7q63 0 100 12t46 33l-18 83l-9 42l109 38q13 -60 36 -145q10 -33 27 -48t45 -15h5l9 -84l-9 -84h-5q-92 0 -139 64zM145 634l66 -66l33 -33q-21 -22 -43 -43l-56 -57l-34 34l-66 66z" />
    <glyph glyph-name="uni0649.fina.001" horiz-adv-x="720" 
d="M197.5 -258q-72.5 34 -114 101t-41.5 162q0 22 1 34q7 95 69 232l106 -49q-27 -63 -40 -104.5t-13 -88.5q0 -152 196 -152q77 0 141 21.5t89 49.5q-22 17 -78.5 45.5t-117.5 49.5l36 158q89 -17 154 -24.5t129 -8.5h12l9 -84l-9 -84h-12q-12 0 -38 2q28 -33 28 -65
q0 -51 -45 -104.5t-124 -89t-174 -35.5q-91 0 -163.5 34z" />
    <glyph glyph-name="uni064A.fina.001" horiz-adv-x="720" 
d="M197.5 -258q-72.5 34 -114 101t-41.5 162q0 22 1 34q7 95 69 232l106 -49q-27 -63 -40 -104.5t-13 -88.5q0 -152 196 -152q77 0 141 21.5t89 49.5q-22 17 -78.5 45.5t-117.5 49.5l36 158q89 -17 154 -24.5t129 -8.5h12l9 -84l-9 -84h-12q-12 0 -38 2q28 -33 28 -65
q0 -51 -45 -104.5t-124 -89t-174 -35.5q-91 0 -163.5 34z" />
    <glyph glyph-name="uni064A.medi.001" horiz-adv-x="396" 
d="M255 67q-37 -34 -99 -50.5t-153 -16.5h-8v168h7q88 0 138 11.5t66 35.5l-27 123l109 38l7 -27q11 -50 29 -118q10 -33 27 -48t45 -15h5l9 -84l-9 -84h-5q-94 0 -141 67zM16 -81l87 -88q30 29 59 59l29 29l89 -90l-89 -88l-88 87l-87 -87l-89 88z" />
    <glyph glyph-name="uni064A.medi.alt" horiz-adv-x="390" 
d="M-4 168h5q79 0 122 7t60.5 22t19.5 41q3 41 -10 109l114 22q14 -75 14 -166q2 -12 18.5 -23.5t50.5 -11.5h5l9 -84l-9 -84h-5q-39 0 -73 17.5t-61 47.5q-32 -34 -90.5 -49.5t-164.5 -15.5h-5v168zM86 -82l87 -88q30 29 59 59l29 29l89 -90l-89 -88l-88 87l-87 -87l-89 88
z" />
    <glyph glyph-name="uni064A.medi.alt.001" horiz-adv-x="396" 
d="M255 67q-37 -34 -99 -50.5t-153 -16.5h-8v168h7q88 0 138 11.5t66 35.5l-27 123l109 38l7 -27q11 -50 29 -118q10 -33 27 -48t45 -15h5l9 -84l-9 -84h-5q-94 0 -141 67zM86 -81l87 -88q30 29 59 59l29 29l89 -90l-89 -88l-88 87l-87 -87l-89 88z" />
    <glyph glyph-name="uni064A.init.alt" horiz-adv-x="430" 
d="M-12 84l9 84h92q96 0 136.5 16t40.5 47q0 19 -22 79.5t-33 83.5l116 64q20 -42 40.5 -112t20.5 -124q0 -107 -69 -164.5t-203 -57.5h-119zM85 -81l87 -88q30 29 59 59l29 29l89 -90l-89 -88l-88 87l-87 -87l-89 88z" />
    <glyph glyph-name="uni0626.fina.001" horiz-adv-x="720" 
d="M197.5 -258q-72.5 34 -114 101t-41.5 162q0 22 1 34q7 95 69 232l106 -49q-27 -63 -40 -104.5t-13 -88.5q0 -152 196 -152q77 0 141 21.5t89 49.5q-22 17 -78.5 45.5t-117.5 49.5l36 158q89 -17 154 -24.5t129 -8.5h12l9 -84l-9 -84h-12q-12 0 -38 2q28 -33 28 -65
q0 -51 -45 -104.5t-124 -89t-174 -35.5q-91 0 -163.5 34zM149 403l55 17q-15 17 -20 40q-2 7 -2 21q0 36 22 66.5t55 38.5q14 3 28 3q28 0 70 -14l-19 -73q-30 11 -51 11q-23 0 -34 -11t-11 -25q0 -12 14 -22.5t39 -7.5l76 23v-73l-222 -67v73z" />
    <glyph glyph-name="uni0626.medi.001" horiz-adv-x="338" 
d="M199 64q-63 -64 -196 -64h-8v168h7q63 0 100 12t46 33l-18 83l-9 42l109 38q13 -60 36 -145q10 -33 27 -48t45 -15h5l9 -84l-9 -84h-5q-92 0 -139 64zM15 507l54 16q-15 20 -19 40q-2 7 -2 21q0 36 22 66.5t55 38.5q13 4 29 4q27 0 69 -14l-19 -73q-30 11 -51 11
q-23 0 -34 -10.5t-11 -25.5q0 -11 13.5 -22.5t38.5 -7.5l77 23v-74l-222 -67v74z" />
    <glyph glyph-name="uni06CE.fina.001" horiz-adv-x="720" 
d="M197.5 -258q-72.5 34 -114 101t-41.5 162q0 22 1 34q7 95 69 232l106 -49q-27 -63 -40 -104.5t-13 -88.5q0 -152 196 -152q77 0 141 21.5t89 49.5q-22 17 -78.5 45.5t-117.5 49.5l36 158q89 -17 154 -24.5t129 -8.5h12l9 -84l-9 -84h-12q-12 0 -38 2q28 -33 28 -65
q0 -51 -45 -104.5t-124 -89t-174 -35.5q-91 0 -163.5 34zM224 475q12 -15 27.5 -47.5t22.5 -57.5q6 26 22 61t28 53l48 -44q-18 -27 -37.5 -67t-32.5 -73l-52 -17q-10 31 -31.5 73.5t-41.5 72.5z" />
    <glyph glyph-name="uni06CE.medi.001" horiz-adv-x="396" 
d="M225.5 510q-19.5 -40 -32.5 -72l-52 -16q-11 31 -32.5 73.5t-40.5 71.5l47 46q12 -16 27.5 -47.5t22.5 -56.5q6 26 22 60.5t28 52.5l48 -44q-18 -28 -37.5 -68zM16 -81l87 -88q30 29 59 59l29 29l89 -90l-89 -88l-88 87l-87 -87l-89 88zM-5 168h7q88 0 138 11.5t66 35.5
l-27 123l109 38l7 -27q11 -50 29 -118q10 -33 27 -48t45 -15h5l9 -84l-9 -84h-5q-94 0 -141 67q-37 -34 -99 -50.5t-153 -16.5h-8v168z" />
    <glyph glyph-name="uni06CE.medi.alt" horiz-adv-x="390" 
d="M226.5 513q-19.5 -40 -32.5 -73l-52 -17q-11 32 -32.5 74.5t-40.5 71.5l47 46q12 -15 27.5 -47.5t22.5 -57.5q6 26 22 61t28 53l48 -44q-18 -27 -37.5 -67zM-4 168h5q79 0 122 7t60.5 22t19.5 41q3 41 -10 109l114 22q14 -75 14 -166q2 -12 18.5 -23.5t50.5 -11.5h5
l9 -84l-9 -84h-5q-39 0 -73 17.5t-61 47.5q-32 -34 -90.5 -49.5t-164.5 -15.5h-5v168zM86 -82l87 -88q30 29 59 59l29 29l89 -90l-89 -88l-88 87l-87 -87l-89 88z" />
    <glyph glyph-name="uni06CE.medi.alt.001" horiz-adv-x="396" 
d="M224.5 512q-19.5 -40 -32.5 -73l-52 -16q-11 31 -32.5 73.5t-40.5 71.5l47 46q12 -15 27.5 -47.5t22.5 -57.5q6 26 22 61t28 53l48 -44q-18 -27 -37.5 -67zM-5 168h7q88 0 138 11.5t66 35.5l-27 123l109 38l7 -27q11 -50 29 -118q10 -33 27 -48t45 -15h5l9 -84l-9 -84h-5
q-94 0 -141 67q-37 -34 -99 -50.5t-153 -16.5h-8v168zM86 -81l87 -88q30 29 59 59l29 29l89 -90l-89 -88l-88 87l-87 -87l-89 88z" />
    <glyph glyph-name="uni06CE.init.alt" horiz-adv-x="430" 
d="M227.5 626q-19.5 -40 -32.5 -73l-52 -17q-11 32 -32.5 74.5t-40.5 71.5l47 46q12 -15 27.5 -47.5t22.5 -57.5q6 26 22 61t28 53l48 -44q-18 -27 -37.5 -67zM-3 168h92q96 0 136.5 16t40.5 47q0 19 -22 79.5t-33 83.5l116 64q20 -42 40.5 -112t20.5 -124
q0 -107 -69 -164.5t-203 -57.5h-119l-9 84zM85 -81l87 -88q30 29 59 59l29 29l89 -90l-89 -88l-88 87l-87 -87l-89 88z" />
    <glyph glyph-name="uni06CC.fina.001" horiz-adv-x="720" 
d="M197.5 -258q-72.5 34 -114 101t-41.5 162q0 22 1 34q7 95 69 232l106 -49q-27 -63 -40 -104.5t-13 -88.5q0 -152 196 -152q77 0 141 21.5t89 49.5q-22 17 -78.5 45.5t-117.5 49.5l36 158q89 -17 154 -24.5t129 -8.5h12l9 -84l-9 -84h-12q-12 0 -38 2q28 -33 28 -65
q0 -51 -45 -104.5t-124 -89t-174 -35.5q-91 0 -163.5 34z" />
    <glyph glyph-name="uni06CC.medi.001" horiz-adv-x="396" 
d="M255 67q-37 -34 -99 -50.5t-153 -16.5h-8v168h7q88 0 138 11.5t66 35.5l-27 123l109 38l7 -27q11 -50 29 -118q10 -33 27 -48t45 -15h5l9 -84l-9 -84h-5q-94 0 -141 67zM16 -81l87 -88q30 29 59 59l29 29l89 -90l-89 -88l-88 87l-87 -87l-89 88z" />
    <glyph glyph-name="uni06CC.medi.alt" horiz-adv-x="390" 
d="M-4 168h5q79 0 122 7t60.5 22t19.5 41q3 41 -10 109l114 22q14 -75 14 -166q2 -12 18.5 -23.5t50.5 -11.5h5l9 -84l-9 -84h-5q-39 0 -73 17.5t-61 47.5q-32 -34 -90.5 -49.5t-164.5 -15.5h-5v168zM86 -82l87 -88q30 29 59 59l29 29l89 -90l-89 -88l-88 87l-87 -87l-89 88
z" />
    <glyph glyph-name="uni06CC.medi.alt.001" horiz-adv-x="396" 
d="M255 67q-37 -34 -99 -50.5t-153 -16.5h-8v168h7q88 0 138 11.5t66 35.5l-27 123l109 38l7 -27q11 -50 29 -118q10 -33 27 -48t45 -15h5l9 -84l-9 -84h-5q-94 0 -141 67zM86 -81l87 -88q30 29 59 59l29 29l89 -90l-89 -88l-88 87l-87 -87l-89 88z" />
    <glyph glyph-name="uni06CC.init.alt" horiz-adv-x="430" 
d="M-12 84l9 84h92q96 0 136.5 16t40.5 47q0 19 -22 79.5t-33 83.5l116 64q20 -42 40.5 -112t20.5 -124q0 -107 -69 -164.5t-203 -57.5h-119zM85 -81l87 -88q30 29 59 59l29 29l89 -90l-89 -88l-88 87l-87 -87l-89 88z" />
    <glyph glyph-name="uni06D2.fina.alt" horiz-adv-x="472" 
d="M52 -146q0 81 47.5 153.5t130.5 116.5t183 44h64l9 -84l-9 -84h-64q-70 0 -123 -19.5t-83.5 -43t-32.5 -30.5q2 -2 24 -8t59.5 -11t84.5 -5h117l-57 -168l-83 -1q-97 0 -158.5 18.5t-99.5 56.5q-9 33 -9 65z" />
    <glyph glyph-name="uni06D3.fina.alt" horiz-adv-x="472" 
d="M52 -146q0 81 47.5 153.5t130.5 116.5t183 44h64l9 -84l-9 -84h-64q-70 0 -123 -19.5t-83.5 -43t-32.5 -30.5q2 -2 24 -8t59.5 -11t84.5 -5h117l-57 -168l-83 -1q-97 0 -158.5 18.5t-99.5 56.5q-9 33 -9 65zM96 251l54 16q-13 16 -20 41q-2 7 -2 21q0 36 22 66.5t55 38.5
q14 3 29 3q29 0 69 -14l-18 -73q-31 11 -52 11q-23 0 -35 -13t-9 -26q2 -12 15.5 -21t37.5 -6l76 23v-73l-222 -67v73z" />
    <glyph glyph-name="uni06D3.fina.alt2" horiz-adv-x="429" 
d="M52 -146q0 81 47.5 153.5t130.5 116.5t184 44h20l9 -84l-9 -84h-20q-70 0 -123 -20t-83.5 -43t-32.5 -30q2 -2 26.5 -8t68 -11t102.5 -5q100 0 237 2l-58 -169q-78 -2 -179 -2q-133 0 -205.5 18.5t-106.5 56.5q-8 29 -8 65zM112 270l54 16q-15 20 -19 40q-2 7 -2 21
q0 36 22 66.5t55 38.5q13 4 29 4q27 0 69 -14l-19 -73q-30 11 -51 11q-23 0 -34 -10.5t-11 -25.5q0 -11 13.5 -22.5t38.5 -7.5l77 23v-74l-222 -67v74z" />
    <glyph glyph-name="uni0640.001" horiz-adv-x="49" 
d="M-3 0l-9 84l9 84h56v-168h-56z" />
    <glyph glyph-name="uni06B50627" horiz-adv-x="604" 
d="M562 312q0 -105 -65 -181.5t-171 -117t-229 -42.5l-40 154q27 2 89 8q12 32 12 72q0 68 -30 163t-86 218l118 81q58 -116 87 -218.5t29 -184.5q0 -64 -18 -112q80 20 124.5 57t44.5 100q-1 101 -9 191.5t-25 223.5l140 31q30 -233 29 -443zM414 978q12 -16 27.5 -47.5
t22.5 -56.5q6 25 22.5 60t28.5 53l48 -44q-18 -29 -38.5 -69t-32.5 -71l-51 -16q-11 31 -32.5 73t-41.5 72z" />
    <glyph glyph-name="uni06B50627.fina" horiz-adv-x="673" 
d="M487 119q-63 -69 -166.5 -107.5t-223.5 -40.5l-40 154q27 2 89 8q12 32 12 72q0 68 -30 163t-86 218l118 81q58 -116 87 -218.5t29 -184.5q0 -64 -18 -112q80 20 124.5 57t44.5 100q-1 101 -9 191.5t-25 223.5l140 31q30 -233 29 -443v-7q3 -56 13 -85t31.5 -40.5
t60.5 -11.5h12v-168h-13q-133 0 -179 119zM415 978q11 -16 26.5 -48t22.5 -56q7 26 23 61t28 52l48 -44q-18 -28 -37.5 -68t-32.5 -72l-52 -16q-11 32 -32.5 74t-41.5 71z" />
    <glyph glyph-name="uni0664.ss03" horiz-adv-x="690" 
d="M134 94q0 156 -18 279q-23 169 -74 286l120 74q29 -61 48 -128q11 -35 25 -60q11 52 42.5 95.5t78 69t99.5 25.5q91 0 193 -80l-54 -114q-67 25 -122 25t-91.5 -23t-33.5 -58q2 -26 37 -45t91 -19q68 0 153 33l33 -148q-46 -22 -99.5 -35t-108.5 -13q-113 0 -198 60
q5 -71 5 -182q0 -44 -2 -136h-126q2 64 2 94z" />
    <glyph glyph-name="uni0665.ss03" horiz-adv-x="690" 
d="M109 424.5q42 87.5 101 163.5q-11 7 -33 19l81 142q376 -258 376 -536q0 -66 -20 -117t-57 -79t-84 -28q-34 0 -65 16t-55 52q-21 -36 -51 -51.5t-71 -15.5q-53 0 -92.5 28.5t-61 79t-21.5 115.5q0 28 2 42q9 82 51 169.5zM174 235q0 -39 18 -59t49 -18q35 1 47.5 34.5
t12.5 60.5l96 16q7 -111 61 -111q61 0 61 80q0 71 -55.5 142.5t-148.5 139.5q-115 -123 -138 -251q-3 -18 -3 -34z" />
    <glyph glyph-name="uni0666.ss03" horiz-adv-x="690" 
d="M248 286q-49 30 -76 84t-27 113q0 54 22.5 106.5t69.5 91.5t115 50q18 2 27 2q44 0 89.5 -17t72.5 -40l-54 -113q-36 15 -81 15q-18 0 -38 -3q-49 -7 -78 -35t-28 -57q0 -19 28 -36t71 -17q47 0 98 22q46 26 110 54l29 -163q-117 -44 -225.5 -139.5t-166.5 -231.5
l-111 55q48 142 153 259z" />
    <glyph glyph-name="uni06F0.ss03" horiz-adv-x="690" 
d="M252.5 48.5q-41.5 24.5 -66 66t-24.5 89.5q0 49 24.5 90.5t66 66t89.5 24.5q49 0 91 -24.5t66.5 -66t24.5 -90.5q0 -48 -24.5 -89.5t-66.5 -66t-91 -24.5q-48 0 -89.5 24.5zM301 161q18 -18 41 -18q25 0 42.5 18t17.5 43t-17.5 43t-42.5 18q-23 0 -41 -18t-18 -43t18 -43
z" />
    <glyph glyph-name="uni06F1.ss03" horiz-adv-x="690" 
d="M298 83q0 159 -17 290q-23 169 -74 286l119 74q67 -136 87 -339q12 -115 12 -255q0 -68 -3 -139h-125q1 28 1 83z" />
    <glyph glyph-name="uni06F2.ss03" horiz-adv-x="690" 
d="M211 88q0 148 -18 285q-23 169 -74 286l120 74q22 -47 35 -88q15 -38 27.5 -58.5t34 -32.5t56.5 -12q91 1 91 119q0 21 -3 46l116 24q8 -37 8 -86q0 -73 -23.5 -134t-71.5 -98.5t-117 -37.5q-33 0 -66 13q11 -106 11 -251q0 -45 -2 -137h-126q2 60 2 88z" />
    <glyph glyph-name="uni06F3.ss03" horiz-adv-x="690" 
d="M487.5 580q14.5 -34 39.5 -34q15 0 25 17t10 51q0 33 -12 84l112 40q18 -67 18 -130q0 -64 -18.5 -114.5t-53 -79.5t-80.5 -29q-65 0 -111 71q-21 -39 -51 -60.5t-67 -21.5q-30 0 -56 9q10 -107 10 -245q0 -46 -2 -138h-126q2 64 2 94q0 156 -18 279q-23 169 -74 286
l120 74q18 -39 33 -81q26 -63 45.5 -87.5t53.5 -24.5q32 0 52.5 31t15.5 92q-1 3 -1 8l110 18q9 -75 23.5 -109z" />
    <glyph glyph-name="uni06F4.ss03" horiz-adv-x="690" 
d="M132 83q0 159 -17 290q-23 171 -75 286l120 74q29 -57 50 -136q9 -26 23 -52q11 52 43 95.5t78.5 69t99.5 25.5q90 0 192 -80l-54 -114q-65 25 -122 25q-53 0 -89 -21.5t-36 -55.5q0 -27 35.5 -47.5t93.5 -20.5q71 0 152 33l34 -148q-46 -22 -99.5 -35t-108.5 -13
q-114 0 -199 60q6 -84 6 -176q0 -70 -3 -142h-125q1 28 1 83z" />
    <glyph glyph-name="uni06F5.ss03" horiz-adv-x="690" 
d="M110 424.5q42 87.5 101 163.5q-11 7 -33 19l81 142q376 -258 376 -536q0 -66 -20 -117t-57 -79t-84 -28q-74 0 -121 67q-20 -35 -50 -50.5t-71 -15.5q-80 0 -127.5 61.5t-47.5 160.5q0 28 2 43q9 82 51 169.5zM175 235q0 -39 18 -59t49 -18q34 1 47 34.5t13 60.5l96 16
q0 -32 12.5 -71.5t48.5 -39.5q61 0 61 80q0 71 -55.5 142.5t-148.5 139.5q-115 -123 -138 -251q-3 -18 -3 -34z" />
    <glyph glyph-name="uni06F6.ss03" horiz-adv-x="690" 
d="M251 286q-49 30 -76 84t-27 113q0 54 22.5 106.5t69.5 91.5t116 50q18 2 27 2q43 0 89 -17t72 -40l-53 -113q-36 15 -82 15q-17 0 -38 -3q-48 -7 -77 -35t-29 -57q0 -19 28 -36t71 -17q45 0 95 21q54 30 113 55l29 -163q-117 -44 -225.5 -139.5t-166.5 -231.5l-110 55
q48 144 152 259z" />
    <glyph glyph-name="uni06F7.ss03" horiz-adv-x="690" 
d="M548 468q-51 -107 -95.5 -231.5t-64.5 -236.5h-116q-15 111 -58.5 235t-96.5 231t-97 176l114 84q50 -78 103 -200t94 -260q41 140 93 261.5t102 198.5l114 -84q-41 -67 -92 -174z" />
    <glyph glyph-name="uni06F8.ss03" horiz-adv-x="690" 
d="M110 234q51 107 95 231.5t64 235.5h116q15 -111 58.5 -234.5t96.5 -230.5t97 -176l-114 -84q-50 79 -103 200.5t-93 259.5q-41 -141 -93 -262t-103 -198l-113 84q41 67 92 174z" />
    <glyph glyph-name="uni06F9.ss03" horiz-adv-x="690" 
d="M417 98q-15 87 -24 187q-45 -10 -94 -10q-89 0 -138.5 53t-49.5 150q0 59 25 118.5t68.5 98.5t96.5 39q70 0 111.5 -49t58.5 -111t28 -141l3 -21l8 -57q15 -117 28.5 -194t31.5 -121l-119 -74q-19 45 -34 132zM244 454.5q19 -15.5 60 -15.5q44 0 77 11q-8 55 -29 92.5
t-57 37.5q-29 0 -49.5 -26.5t-20.5 -61.5q0 -22 19 -37.5z" />
    <glyph glyph-name="uni06F4.urdu" horiz-adv-x="696" 
d="M137 94q0 156 -18 279q-23 169 -74 286l120 74q29 -61 48 -128q11 -35 25 -60q11 52 42.5 95.5t78 69t99.5 25.5q91 0 193 -80l-54 -114q-67 25 -122 25t-91.5 -23t-33.5 -58q2 -26 37 -45t91 -19q68 0 153 33l33 -148q-46 -22 -99.5 -35t-108.5 -13q-113 0 -198 60
q5 -71 5 -182q0 -44 -2 -136h-126q2 64 2 94z" />
    <glyph glyph-name="uni06F7.urdu" horiz-adv-x="655" 
d="M545 461q-51 -107 -95 -231.5t-64 -235.5h-116q-15 111 -58.5 234.5t-96.5 230.5t-97 176l114 84q50 -79 103 -200.5t93 -259.5q41 141 93 262t103 198l113 -84q-41 -67 -92 -174z" />
    <glyph glyph-name="zero.ss02" horiz-adv-x="488" 
d="M143.5 48.5q-41.5 24.5 -66 66t-24.5 89.5q0 49 24.5 90.5t66 66t89.5 24.5q49 0 91 -24.5t66.5 -66t24.5 -90.5q0 -48 -24.5 -89.5t-66.5 -66t-91 -24.5q-48 0 -89.5 24.5zM192 161q18 -18 41 -18q25 0 42.5 18t17.5 43t-17.5 43t-42.5 18q-23 0 -41 -18t-18 -43t18 -43
z" />
    <glyph glyph-name="one.ss02" horiz-adv-x="343" 
d="M137 94q0 156 -18 279q-23 169 -74 286l120 74q66 -137 86 -339q12 -104 12 -258q0 -44 -2 -136h-126q2 64 2 94z" />
    <glyph glyph-name="two.ss02" horiz-adv-x="559" 
d="M135 83q0 159 -17 290q-23 169 -74 286l119 74q17 -36 33 -80q16 -42 29 -64t34.5 -34.5t57.5 -12.5q91 1 91 119q0 21 -3 46l116 24q8 -37 8 -86q0 -73 -23.5 -134t-71.5 -98.5t-117 -37.5q-33 0 -66 13q11 -109 11 -261q0 -41 -2 -127h-126q1 28 1 83z" />
    <glyph glyph-name="three.ss02" horiz-adv-x="719" 
d="M496.5 579.5q14.5 -33.5 39.5 -33.5q15 0 25 17t10 51q0 33 -12 84l112 40q18 -67 18 -130q0 -64 -18.5 -114.5t-53 -79.5t-80.5 -29q-66 0 -111 71q-21 -39 -51 -60.5t-67 -21.5q-30 0 -57 9q11 -109 11 -258q0 -41 -2 -125h-126q2 60 2 88q0 148 -18 285
q-23 169 -74 286l119 74q17 -34 30 -72q27 -68 47.5 -94.5t55.5 -26.5q28 0 48 26t20 77q0 16 -1 24v4l109 18q10 -76 24.5 -109.5z" />
    <glyph glyph-name="four.ss02" horiz-adv-x="696" 
d="M137 94q0 156 -18 279q-23 169 -74 286l120 74q29 -61 48 -128q11 -35 25 -60q11 52 42.5 95.5t78 69t99.5 25.5q91 0 193 -80l-54 -114q-67 25 -122 25t-91.5 -23t-33.5 -58q2 -26 37 -45t91 -19q68 0 153 33l33 -148q-46 -22 -99.5 -35t-108.5 -13q-113 0 -198 60
q5 -71 5 -182q0 -44 -2 -136h-126q2 64 2 94z" />
    <glyph glyph-name="five.ss02" horiz-adv-x="652" 
d="M90 424q42 88 101 164q-11 7 -33 19l81 142q376 -258 376 -536q0 -66 -20 -117t-57 -79t-84 -28q-34 0 -65 16t-55 52q-21 -36 -51 -51.5t-71 -15.5q-53 0 -92.5 28t-61 78.5t-21.5 114.5q0 22 3 44q8 81 50 169zM155 235q0 -39 18 -59t49 -18q35 1 47.5 34.5t12.5 60.5
l96 16q7 -111 61 -111q61 0 61 80q0 71 -55.5 142.5t-148.5 139.5q-115 -123 -138 -251q-3 -18 -3 -34z" />
    <glyph glyph-name="six.ss02" horiz-adv-x="583" 
d="M192 286q-48 30 -75 84t-27 113q0 54 22.5 106.5t69.5 91.5t115 50q18 2 27 2q44 0 89.5 -17t72.5 -40l-54 -113q-36 15 -81 15q-18 0 -38 -3q-49 -7 -78 -35t-28 -57q0 -19 28 -36t71 -17q47 0 98 22q41 25 110 54l29 -163q-117 -44 -225.5 -139.5t-166.5 -231.5
l-111 55q48 144 152 259z" />
    <glyph glyph-name="seven.ss02" horiz-adv-x="655" 
d="M545 468q-51 -107 -95 -231.5t-64 -236.5h-116q-15 111 -58.5 235t-96.5 231t-97 176l114 84q50 -79 103 -200.5t93 -259.5q41 141 93 262t103 198l113 -84q-41 -67 -92 -174z" />
    <glyph glyph-name="eight.ss02" horiz-adv-x="655" 
d="M110 234q51 107 95.5 231.5t64.5 235.5h116q15 -111 58.5 -235t96 -230.5t96.5 -175.5l-113 -84q-50 78 -103 200t-94 260q-41 -140 -93 -261.5t-102 -198.5l-114 84q41 67 92 174z" />
    <glyph glyph-name="nine.ss02" horiz-adv-x="559" 
d="M347 96q-15 86 -25 189q-43 -10 -94 -10q-90 0 -140 55t-47 156q1 58 26.5 115.5t68.5 95t95 37.5q75 0 116.5 -54.5t56 -115t27.5 -152.5q8 -55 10 -70q15 -110 28.5 -184.5t30.5 -117.5l-119 -74q-19 44 -34 130zM174 454.5q19 -15.5 60 -15.5q42 0 77 11
q-8 55 -29 92.5t-58 37.5q-29 0 -49 -26.5t-20 -61.5q0 -22 19 -37.5z" />
    <glyph glyph-name="zero.ss03" horiz-adv-x="690" 
d="M252.5 48.5q-41.5 24.5 -66 66t-24.5 89.5q0 49 24.5 90.5t66 66t89.5 24.5q49 0 91 -24.5t66.5 -66t24.5 -90.5q0 -48 -24.5 -89.5t-66.5 -66t-91 -24.5q-48 0 -89.5 24.5zM301 161q18 -18 41 -18q25 0 42.5 18t17.5 43t-17.5 43t-42.5 18q-23 0 -41 -18t-18 -43t18 -43
z" />
    <glyph glyph-name="one.ss03" horiz-adv-x="690" 
d="M298 83q0 159 -17 290q-23 169 -74 286l119 74q67 -136 87 -339q12 -115 12 -255q0 -68 -3 -139h-125q1 28 1 83z" />
    <glyph glyph-name="two.ss03" horiz-adv-x="690" 
d="M211 88q0 148 -18 285q-23 169 -74 286l120 74q22 -47 35 -88q15 -38 27.5 -58.5t34 -32.5t56.5 -12q91 1 91 119q0 21 -3 46l116 24q8 -37 8 -86q0 -73 -23.5 -134t-71.5 -98.5t-117 -37.5q-33 0 -66 13q11 -106 11 -251q0 -45 -2 -137h-126q2 60 2 88z" />
    <glyph glyph-name="three.ss03" horiz-adv-x="690" 
d="M487.5 580q14.5 -34 39.5 -34q15 0 25 17t10 51q0 33 -12 84l112 40q18 -67 18 -130q0 -64 -18.5 -114.5t-53 -79.5t-80.5 -29q-65 0 -111 71q-21 -39 -51 -60.5t-67 -21.5q-30 0 -56 9q10 -107 10 -245q0 -46 -2 -138h-126q2 64 2 94q0 156 -18 279q-23 169 -74 286
l120 74q18 -39 33 -81q26 -63 45.5 -87.5t53.5 -24.5q32 0 52.5 31t15.5 92q-1 3 -1 8l110 18q9 -75 23.5 -109z" />
    <glyph glyph-name="four.ss03" horiz-adv-x="690" 
d="M132 83q0 159 -17 290q-23 171 -75 286l120 74q29 -57 50 -136q9 -26 23 -52q11 52 43 95.5t78.5 69t99.5 25.5q90 0 192 -80l-54 -114q-65 25 -122 25q-53 0 -89 -21.5t-36 -55.5q0 -27 35.5 -47.5t93.5 -20.5q71 0 152 33l34 -148q-46 -22 -99.5 -35t-108.5 -13
q-114 0 -199 60q6 -84 6 -176q0 -70 -3 -142h-125q1 28 1 83z" />
    <glyph glyph-name="five.ss03" horiz-adv-x="690" 
d="M110 424.5q42 87.5 101 163.5q-11 7 -33 19l81 142q376 -258 376 -536q0 -66 -20 -117t-57 -79t-84 -28q-74 0 -121 67q-20 -35 -50 -50.5t-71 -15.5q-80 0 -127.5 61.5t-47.5 160.5q0 28 2 43q9 82 51 169.5zM175 235q0 -39 18 -59t49 -18q34 1 47 34.5t13 60.5l96 16
q0 -32 12.5 -71.5t48.5 -39.5q61 0 61 80q0 71 -55.5 142.5t-148.5 139.5q-115 -123 -138 -251q-3 -18 -3 -34z" />
    <glyph glyph-name="six.ss03" horiz-adv-x="690" 
d="M251 286q-49 30 -76 84t-27 113q0 54 22.5 106.5t69.5 91.5t116 50q18 2 27 2q43 0 89 -17t72 -40l-53 -113q-36 15 -82 15q-17 0 -38 -3q-48 -7 -77 -35t-29 -57q0 -19 28 -36t71 -17q45 0 95 21q54 30 113 55l29 -163q-117 -44 -225.5 -139.5t-166.5 -231.5l-110 55
q48 144 152 259z" />
    <glyph glyph-name="seven.ss03" horiz-adv-x="690" 
d="M548 468q-51 -107 -95.5 -231.5t-64.5 -236.5h-116q-15 111 -58.5 235t-96.5 231t-97 176l114 84q50 -78 103 -200t94 -260q41 140 93 261.5t102 198.5l114 -84q-41 -67 -92 -174z" />
    <glyph glyph-name="eight.ss03" horiz-adv-x="690" 
d="M110 234q51 107 95 231.5t64 235.5h116q15 -111 58.5 -234.5t96.5 -230.5t97 -176l-114 -84q-50 79 -103 200.5t-93 259.5q-41 -141 -93 -262t-103 -198l-113 84q41 67 92 174z" />
    <glyph glyph-name="nine.ss03" horiz-adv-x="690" 
d="M417 98q-15 87 -24 187q-45 -10 -94 -10q-89 0 -138.5 53t-49.5 150q0 59 25 118.5t68.5 98.5t96.5 39q70 0 111.5 -49t58.5 -111t28 -141l3 -21l8 -57q15 -117 28.5 -194t31.5 -121l-119 -74q-19 45 -34 132zM244 454.5q19 -15.5 60 -15.5q44 0 77 11q-8 55 -29 92.5
t-57 37.5q-29 0 -49.5 -26.5t-20.5 -61.5q0 -22 19 -37.5z" />
    <glyph glyph-name="zero.dnom" horiz-adv-x="373" 
d="M298.5 36q-39.5 -41 -111.5 -41t-111.5 40t-41.5 113v84q0 76 40.5 117.5t111.5 41.5t111.5 -41.5t40.5 -116.5v-82q0 -74 -39.5 -115zM149.5 93q11.5 -17 37.5 -17q46 0 49 64v96q0 73 -50 73q-47 0 -48 -67v-95q0 -37 11.5 -54z" />
    <glyph glyph-name="one.dnom" horiz-adv-x="373" 
d="M260 0h-102v267l-90 -19v77l183 59h9v-384z" />
    </font>
</defs>
</svg>
