<?xml version="1.0" standalone="no"?>
<!DOCTYPE svg PUBLIC "-//W3C//DTD SVG 1.1//EN" "http://www.w3.org/Graphics/SVG/1.1/DTD/svg11.dtd" >
<svg xmlns="http://www.w3.org/2000/svg" xmlns:xlink="http://www.w3.org/1999/xlink" version="1.1">
<metadata>
Created by FontForge 20170731 at Fri Apr  7 12:30:06 2023
 By Aleksey,,,
Copyright (c) 2023 by Fereshte Iranshahi and Reza Bakhtiarifard. All rights reserved.
</metadata>
<defs>
<font id="DoranFaNum-Bold" horiz-adv-x="0" >
  <font-face 
    font-family="Doran FaNum"
    font-weight="700"
    font-stretch="normal"
    units-per-em="2000"
    panose-1="0 0 8 0 0 0 0 0 0 0"
    ascent="1600"
    descent="-400"
    x-height="907"
    cap-height="1442"
    bbox="-497 -1176 3082 2234"
    underline-thickness="75"
    underline-position="-294"
    unicode-range="U+0020-FFFC"
  />
<missing-glyph horiz-adv-x="1237" 
d="M65 0v1476h1105v-1476h-1105zM142 90h951v1297h-951v-1297z" />
    <glyph glyph-name="uni0622" unicode="&#x627;&#x653;" horiz-adv-x="505" 
d="M534 1830q-109 -97 -267 -97q-90 0 -159.5 22.5t-141.5 58.5q-27 14 -43 20.5t-26 6.5q-19 0 -43 -20t-82 -80l-54 -56v12q80 123 128.5 190t83.5 98.5t64 31.5q15 0 34.5 -7t49.5 -21q63 -28 115 -43.5t118 -15.5q129 0 215 37t162 133h12q-57 -173 -166 -270zM333 1584
q0 -40 7 -187q18 -349 18 -603q0 -205 -10 -327t-26 -191t-48 -164q-4 -12 -18.5 -56t-27.5 -92h-13q1 21 1 71q0 164 -19.5 433t-46 513.5t-42.5 323.5q52 52 108.5 128t104.5 151h12z" />
    <glyph glyph-name="uni0623" unicode="&#x627;&#x654;" horiz-adv-x="505" 
d="M355.5 1855q73.5 10 104.5 21v-12q-16 -24 -31 -61.5t-24 -71.5q-107 -20 -207.5 -66.5t-161.5 -100.5h-12q16 54 50.5 97.5t82.5 72.5q-59 16 -90 53.5t-31 88.5q0 70 28.5 135t75.5 106t100 41t86 -37.5t33 -92.5q0 -20 -6 -56h-12q-10 73 -102 73q-50 0 -88.5 -19.5
t-60 -46.5t-21.5 -47q0 -21 18 -41t54.5 -33t87.5 -13q53 0 126.5 10zM333 1584q0 -40 7 -187q18 -349 18 -603q0 -205 -10 -327t-26 -191t-48 -164q-4 -12 -18.5 -56t-27.5 -92h-13q1 21 1 71q0 164 -19.5 433t-46 513.5t-42.5 323.5q52 52 108.5 128t104.5 151h12z" />
    <glyph glyph-name="uni0625" unicode="&#x627;&#x655;" horiz-adv-x="509" 
d="M344 1484q18 -430 18 -690q0 -206 -10 -328.5t-26 -192t-48 -164.5q-4 -12 -18.5 -55t-27.5 -90h-12q1 19 1 64q0 168 -21 468t-48.5 574.5t-43.5 353.5q53 53 113 132t104 150h12q0 -40 7 -222zM357 -438.5q73 10.5 104 21.5v-12q-16 -24 -31 -61.5t-24 -71.5
q-107 -20 -207.5 -66.5t-161.5 -100.5h-12q16 54 50.5 97.5t82.5 72.5q-59 16 -90 53.5t-31 88.5q0 70 28.5 135.5t75.5 106t100 40.5q54 0 87 -38t33 -92q0 -19 -3 -35.5t-4 -21.5h-13q-7 75 -101 75q-50 0 -89 -19.5t-60 -47t-21 -47.5q0 -21 18 -41.5t54 -33.5t87 -13
q55 0 128 10.5z" />
    <glyph glyph-name="uniFE89" unicode="&#x64a;&#x654;" horiz-adv-x="1473" 
d="M1280.5 1104q57.5 -60 57.5 -159q0 -61 -22 -127h-12q0 49 -60.5 77.5t-153.5 28.5q-114 0 -212.5 -50t-157 -120.5t-58.5 -127.5q0 -58 71.5 -84t203.5 -31l133 -5q111 -4 173 -29t89 -78.5t27 -146.5q0 -213 -84.5 -367t-245.5 -235.5t-387 -81.5q-252 0 -385 135.5
t-133 388.5q0 261 115 513h23q-62 -166 -62 -330q0 -179 123.5 -275.5t352.5 -96.5q220 0 365 41.5t211.5 101t66.5 115.5q0 16 -22 26t-79.5 16.5t-165.5 10.5l-137 5q-112 4 -178 26.5t-98 75.5t-32 147q0 152 73 315.5t192.5 272t250.5 108.5q100 0 157.5 -60zM492.5 989
q73.5 10 105.5 21v-12q-16 -24 -31 -61.5t-24 -71.5q-107 -20 -208 -66t-162 -101h-12q16 54 50.5 97.5t82.5 72.5q-59 16 -90 53.5t-31 88.5q0 70 28.5 135.5t76 106t100.5 40.5t86 -37.5t33 -92.5q0 -20 -3 -36t-4 -20h-12q-9 73 -101 73q-50 0 -89 -19.5t-60.5 -46.5
t-21.5 -47q0 -21 18 -41t54.5 -33t87.5 -13q53 0 126.5 10z" />
    <glyph glyph-name="uni06C0" unicode="&#x647;&#x654;" horiz-adv-x="926" 
d="M283.5 1218.5q-33.5 12.5 -51 30.5t-35.5 49q-16 27 -30 43v13q28 -10 93 -17.5t134 -7.5q104 0 151.5 15.5t47.5 39.5q0 12 -21 18t-78 9l-49 3q-63 4 -91 28.5t-28 77.5q0 61 34 130.5t92 116.5t126 47l-34 -133q-83 -1 -133.5 -27.5t-50.5 -66.5q0 -47 98 -51l48 -2
q65 -4 92.5 -26.5t27.5 -67.5q0 -122 -59.5 -178t-193.5 -56q-56 0 -89.5 12.5zM445 1014q102 -61 174.5 -120.5t127 -162.5t54.5 -250q0 -248 -98 -370.5t-301 -122.5q-133 0 -205.5 70t-72.5 191q0 112 42 239.5t130 282.5l-58 25q24 47 56.5 138.5t45.5 142.5h11
q24 -22 94 -63zM615 341q74 18 113.5 44.5t39.5 50.5q0 53 -111.5 136t-327.5 183q-61 -107 -89 -178.5t-28 -124.5q0 -35 26.5 -64t79 -47t127.5 -18q96 0 170 18z" />
    <glyph glyph-name="uniFBA5" unicode="&#xfeea;&#x654;" horiz-adv-x="1136" arabic-form="final" 
d="M291 1126.5q-34 12.5 -50.5 30.5t-36.5 50q-16 27 -28 42v12q28 -10 92.5 -17t134.5 -7q104 0 151 15t47 39q0 12 -21 18t-77 9l-48 3q-64 4 -92.5 29t-28.5 78q0 61 34 130t92 116t126 48l-33 -134q-83 -1 -134 -27t-51 -67q0 -47 99 -50l48 -3q64 -3 91.5 -25.5
t27.5 -67.5q0 -122 -59 -178t-193 -56q-57 0 -91 12.5zM946 405.5q64 -70.5 190 -70.5l-54 -335q-113 0 -188 46.5t-116.5 153t-47.5 285.5h-12q-20 -196 -101 -286t-242 -90q-124 0 -187.5 57.5t-63.5 163.5q0 102 46 188t163.5 186t335.5 236q-11 65 -20 102
q45 35 99.5 95.5t92.5 122.5h8q2 -22 4 -32q13 -108 21 -238.5t8 -364.5q0 -149 64 -219.5zM623.5 469.5q83.5 35.5 83.5 99.5q0 101 -23 271q-256 -127 -359.5 -206t-103.5 -120q0 -42 41 -61t146 -19q132 0 215.5 35.5z" />
    <glyph glyph-name="uniFDFC" unicode="&#x631;&#xfbfe;&#xfe8e;&#x644;" horiz-adv-x="3207" arabic-form="isolated" 
d="M1335 1827l1 -227q4 -382 4 -684q0 -288 -17 -482t-52 -323.5t-91 -230.5q-76 -153 -213 -232.5t-349 -79.5q-156 0 -267 61t-169 178.5t-58 284.5q0 261 115 513h23q-62 -166 -62 -330q0 -118 54 -201.5t156 -127t242 -43.5q148 0 279.5 39.5t211.5 109.5t80 156
q-4 175 -26 462.5t-49 543.5t-42 331q54 55 114 134t102 148h13zM1822.5 49q-73.5 44 -110 141t-42.5 265q-10 319 -21.5 492.5t-25.5 267.5t-41 209q54 53 114 132.5t103 149.5h12q0 -54 5 -137q7 -166 7 -278q0 -98 -6 -326q-6 -242 -6 -366q0 -135 67.5 -199t217.5 -65
q110 1 207 14.5t155.5 35t58.5 45.5q0 22 -37 70t-94.5 103t-113.5 96q34 44 76 130t64 153h13q5 -14 20 -48q47 -106 78.5 -213.5t31.5 -245.5q0 -160 -49 -263t-160 -156t-296 -56h-10h-13q-5 0 -8 1q-123 4 -196.5 48zM2948 680q38 -75 65 -139t48 -148.5t21 -175.5
q0 -229 -64 -397.5t-172 -257.5t-238 -89q-69 0 -129 21.5t-142 62.5q-74 36 -103 46v12q177 36 369.5 132t321 205t128.5 177q0 38 -70.5 114.5t-207.5 187.5q35 51 76.5 136.5t63.5 155.5h12zM2068 -217.5q41 -20.5 41 -70.5q0 -27 -20 -87q-17 -51 -23 -88h-12
q0 33 -35.5 45.5t-120.5 12.5q-58 0 -200.5 -4.5t-231.5 -11.5q16 29 41.5 100t34.5 107q112 8 224.5 12.5t174.5 4.5q86 0 127 -20.5z" />
    <glyph glyph-name="uniFE82" unicode="&#xfe8e;&#x653;" horiz-adv-x="620" arabic-form="final" 
d="M559.5 1830.5q-109.5 -97.5 -267.5 -97.5q-89 0 -158.5 22.5t-141.5 58.5q-28 14 -44 20.5t-26 6.5q-19 0 -42 -19.5t-77 -75.5l-60 -61v12q82 124 130 190.5t83 98t64 31.5q15 0 33.5 -7t49.5 -21q64 -28 115.5 -43.5t117.5 -15.5q129 0 215 37t162 133h12
q-56 -172 -165.5 -269.5zM350.5 41.5q-79.5 41.5 -119 140t-45.5 273.5q-9 269 -19.5 423.5t-22.5 237t-33 194.5q53 53 113 132.5t103 149.5h13l1 -137q2 -140 2 -276q0 -89 -8 -261q-1 -16 -5 -112.5t-4 -206.5q0 -137 69 -200.5t225 -63.5l-54 -335q-136 0 -215.5 41.5z
" />
    <glyph glyph-name="uniFE84" unicode="&#xfe8e;&#x654;" horiz-adv-x="620" arabic-form="final" 
d="M432 1802.5q-15 -37.5 -24 -71.5q-107 -20 -207.5 -66.5t-161.5 -100.5h-12q16 54 50.5 97.5t82.5 72.5q-59 16 -90 53.5t-31 88.5q0 70 28.5 135t75.5 106t100 41t86 -37.5t33 -92.5q0 -20 -6 -56h-12q-10 73 -102 73q-50 0 -88.5 -19.5t-60 -46.5t-21.5 -47
q0 -21 18 -41t54.5 -33t87.5 -13q53 0 126.5 10t104.5 21v-12q-16 -24 -31 -61.5zM395 398.5q69 -63.5 225 -63.5l-54 -335q-136 0 -215.5 41.5t-119 140t-45.5 273.5q-9 269 -19.5 423.5t-22.5 237t-33 194.5q53 53 113 132.5t103 149.5h13l1 -137q2 -140 2 -276
q0 -89 -8 -261q-1 -16 -5 -112.5t-4 -206.5q0 -137 69 -200.5z" />
    <glyph glyph-name="uniFE88" unicode="&#xfe8e;&#x655;" horiz-adv-x="634" arabic-form="final" 
d="M363.5 41.5q-79.5 41.5 -119 140t-45.5 273.5q-10 319 -21.5 492.5t-25.5 267.5t-41 209q53 53 113 132t104 150h12q0 -54 5 -137q7 -166 7 -278q0 -98 -6 -326q-6 -242 -6 -366q0 -137 69 -200.5t225 -63.5l-55 -335q-136 0 -215.5 41.5zM483 -427.5q73 10.5 104 21.5
v-12q-16 -24 -31 -61.5t-24 -71.5q-107 -20 -207.5 -66.5t-161.5 -100.5h-12q16 54 50.5 97.5t82.5 72.5q-59 16 -90 53.5t-31 88.5q0 70 28.5 135.5t75.5 106t100 40.5q54 0 87 -38t33 -92q0 -19 -3 -35.5t-4 -21.5h-13q-7 75 -101 75q-50 0 -89 -19.5t-60 -47t-21 -47.5
q0 -21 18 -41.5t54 -33.5t87 -13q55 0 128 10.5z" />
    <glyph glyph-name="uniFE8A" unicode="&#xfef2;&#x654;" horiz-adv-x="1450" arabic-form="final" 
d="M1395 0q-27 0 -42 2q5 -25 5 -43q0 -271 -180 -416t-536 -145q-167 0 -283 61.5t-175.5 179t-59.5 283.5q0 125 26.5 252t77.5 240h24q-26 -75 -39 -156t-13 -153q0 -117 55.5 -200.5t162.5 -127.5t258 -44q219 0 363.5 34.5t211.5 80t67 76.5q0 28 -52 46.5t-128.5 29.5
t-200.5 24q-105 11 -176.5 21t-118.5 24v12q51 70 92 138.5t70 141.5q101 -17 234.5 -21.5t411.5 -4.5zM719.5 673q73.5 10 105.5 21v-12q-16 -24 -31 -61.5t-24 -71.5q-107 -20 -208 -66t-162 -101h-12q16 54 50.5 97.5t82.5 72.5q-59 16 -90 53.5t-31 88.5
q0 70 28.5 135.5t76 106t100.5 40.5t86 -37.5t33 -92.5q0 -20 -3 -36t-4 -20h-12q-9 73 -101 73q-50 0 -89 -19.5t-60.5 -46.5t-21.5 -47q0 -21 18 -41t54.5 -33t87.5 -13q53 0 126.5 10z" />
    <glyph glyph-name="uniFEF5" unicode="&#xfedf;&#xfe82;" horiz-adv-x="1243" arabic-form="isolated" 
d="M956 766q104 -156 104 -308q0 -156 -51 -261.5t-143.5 -157t-217.5 -51.5q-82 0 -145 18.5t-109 46t-113 76.5q-49 36 -80 57t-68 41v13q253 95 418 211.5t253 259.5q-115 99 -279.5 189t-382.5 162q15 49 25.5 125t10.5 147q0 34 -3 65h12q477 -284 688 -529
q35 111 35 242q0 65 -9 168.5t-24 174.5q49 42 106 114.5t89 136.5h12q0 -26 4 -112q8 -124 8 -230q0 -362 -140 -598zM987 507q-39 65 -114 140q-156 -185 -441 -304q80 -20 189 -20q126 0 218 12.5t139.5 32.5t47.5 44q0 30 -39 95zM782 1627q-109 -97 -268 -97
q-90 0 -158.5 22.5t-142.5 58.5q-51 27 -68 27q-20 0 -42.5 -19t-79.5 -78q-12 -12 -26 -27t-31 -32v12q80 123 128.5 190t83.5 98.5t64 31.5q15 0 32.5 -6.5t50.5 -20.5q61 -28 114 -44t120 -16q129 0 215 37t162 133h12q-57 -173 -166 -270z" />
    <glyph glyph-name="uniFEF6" unicode="&#xfee0;&#xfe82;" horiz-adv-x="1403" arabic-form="final" 
d="M1195 400.5q67 -65.5 208 -65.5l-54 -335q-134 0 -208 38.5t-109.5 145.5t-35.5 315l1 62h-11q-15 -187 -75.5 -312.5t-157.5 -187t-222 -61.5q-74 0 -141.5 20.5t-165.5 61.5l-97 39v12q244 74 403 133t254 112q-37 189 -211.5 356.5t-430.5 306.5q15 55 25.5 136.5
t10.5 154.5q0 36 -3 67h12q17 -19 42.5 -40t70.5 -56q139 -110 239.5 -214t178.5 -274.5t78 -399.5v-30q91 52 130 105t39 116q0 183 -22.5 439t-43.5 389q57 57 116.5 132t99.5 140h13q0 -55 5 -138q7 -166 7 -277q0 -100 -6 -328q-6 -238 -6 -357q0 -140 67 -205.5z
M782 1627q-109 -97 -268 -97q-90 0 -158.5 22.5t-142.5 58.5q-51 27 -68 27q-20 0 -42.5 -19t-79.5 -78q-12 -12 -26 -27t-31 -32v12q80 123 128.5 190t83.5 98.5t64 31.5q15 0 32.5 -6.5t50.5 -20.5q61 -28 114 -44t120 -16q129 0 215 37t162 133h12q-57 -173 -166 -270z
" />
    <glyph glyph-name="uniFEF7" unicode="&#xfedf;&#xfe84;" horiz-adv-x="1243" arabic-form="isolated" 
d="M956 766q104 -156 104 -308q0 -156 -51 -261.5t-143.5 -157t-217.5 -51.5q-82 0 -145 18.5t-109 46t-113 76.5q-49 36 -80 57t-68 41v13q253 95 418 211.5t253 259.5q-115 99 -279.5 189t-382.5 162q15 49 25.5 125t10.5 147q0 34 -3 65h12q477 -284 688 -529
q35 111 35 242q0 65 -9 168.5t-24 174.5q49 42 106 114.5t89 136.5h12q0 -26 4 -112q8 -124 8 -230q0 -362 -140 -598zM987 507q-39 65 -114 140q-156 -185 -441 -304q80 -20 189 -20q126 0 218 12.5t139.5 32.5t47.5 44q0 30 -39 95zM364.5 1719q73.5 10 105.5 21v-12
q-16 -24 -31 -61.5t-24 -71.5q-107 -20 -208 -66t-162 -101h-12q16 54 50.5 97.5t82.5 72.5q-59 16 -90 53.5t-31 88.5q0 70 28.5 135.5t76 106t100.5 40.5t86 -37.5t33 -92.5q0 -20 -3 -36t-4 -20h-12q-9 73 -101 73q-50 0 -89 -19.5t-60.5 -46.5t-21.5 -47q0 -21 18 -41
t54.5 -33t87.5 -13q53 0 126.5 10z" />
    <glyph glyph-name="uniFEF8" unicode="&#xfee0;&#xfe84;" horiz-adv-x="1403" arabic-form="final" 
d="M1195 400.5q67 -65.5 208 -65.5l-54 -335q-134 0 -208 38.5t-109.5 145.5t-35.5 315l1 62h-11q-15 -187 -75.5 -312.5t-157.5 -187t-222 -61.5q-74 0 -141.5 20.5t-165.5 61.5l-97 39v12q244 74 403 133t254 112q-37 189 -211.5 356.5t-430.5 306.5q15 55 25.5 136.5
t10.5 154.5q0 36 -3 67h12q17 -19 42.5 -40t70.5 -56q139 -110 239.5 -214t178.5 -274.5t78 -399.5v-30q91 52 130 105t39 116q0 183 -22.5 439t-43.5 389q57 57 116.5 132t99.5 140h13q0 -55 5 -138q7 -166 7 -277q0 -100 -6 -328q-6 -238 -6 -357q0 -140 67 -205.5z
M364.5 1719q73.5 10 105.5 21v-12q-16 -24 -31 -61.5t-24 -71.5q-107 -20 -208 -66t-162 -101h-12q16 54 50.5 97.5t82.5 72.5q-59 16 -90 53.5t-31 88.5q0 70 28.5 135.5t76 106t100.5 40.5t86 -37.5t33 -92.5q0 -20 -3 -36t-4 -20h-12q-9 73 -101 73q-50 0 -89 -19.5
t-60.5 -46.5t-21.5 -47q0 -21 18 -41t54.5 -33t87.5 -13q53 0 126.5 10z" />
    <glyph glyph-name="uniFEF9" unicode="&#xfedf;&#xfe88;" horiz-adv-x="1243" arabic-form="isolated" 
d="M957 766q54 -86 78.5 -161.5t24.5 -146.5q0 -156 -51 -261.5t-143.5 -157t-217.5 -51.5q-82 0 -145 18.5t-109 46t-113 76.5q-49 36 -80 57t-68 41v13q257 97 423.5 215.5t252.5 264.5q-115 112 -281 227.5t-386 225.5q15 47 25.5 127.5t10.5 153.5q0 36 -3 66h12
q252 -201 420.5 -358.5t269.5 -285.5q33 106 33 236q0 65 -9 168.5t-24 174.5q49 42 106 114.5t89 136.5h12q0 -26 4 -112q8 -124 8 -230q0 -359 -139 -598zM988 505.5q-38 64.5 -112 145.5q-158 -189 -444 -308q80 -20 189 -20q126 0 218 12.5t139.5 32.5t47.5 44
q0 29 -38 93.5zM529 -438.5q73 10.5 104 21.5v-12q-16 -24 -31 -61.5t-24 -71.5q-107 -20 -207.5 -66.5t-161.5 -100.5h-12q16 54 50.5 97.5t82.5 72.5q-59 16 -90 53.5t-31 88.5q0 70 28.5 135.5t75.5 106t100 40.5q54 0 87 -38t33 -92q0 -19 -3 -35.5t-4 -21.5h-13
q-7 75 -101 75q-50 0 -89 -19.5t-60 -47t-21 -47.5q0 -21 18 -41.5t54 -33.5t87 -13q55 0 128 10.5z" />
    <glyph glyph-name="uniFEFA" unicode="&#xfee0;&#xfe88;" horiz-adv-x="1403" arabic-form="final" 
d="M1195 400.5q67 -65.5 208 -65.5l-54 -335q-134 0 -208 38.5t-109.5 145.5t-35.5 315l1 62h-11q-15 -187 -75.5 -312.5t-157.5 -187t-222 -61.5q-74 0 -141.5 20.5t-165.5 61.5l-97 39v12q244 74 403 133t254 112q-40 196 -201 391.5t-441 381.5q15 56 25.5 141.5
t10.5 160.5q0 37 -3 67h12q18 -20 82 -80q139 -128 247 -256t194 -325.5t86 -442.5v-31q91 52 130 105t39 116q0 183 -22.5 439t-43.5 389q57 57 116.5 132t99.5 140h13q0 -55 5 -138q7 -166 7 -277q0 -100 -6 -328q-6 -238 -6 -357q0 -140 67 -205.5zM529 -438.5
q73 10.5 104 21.5v-12q-16 -24 -31 -61.5t-24 -71.5q-107 -20 -207.5 -66.5t-161.5 -100.5h-12q16 54 50.5 97.5t82.5 72.5q-59 16 -90 53.5t-31 88.5q0 70 28.5 135.5t75.5 106t100 40.5q54 0 87 -38t33 -92q0 -19 -3 -35.5t-4 -21.5h-13q-7 75 -101 75q-50 0 -89 -19.5
t-60 -47t-21 -47.5q0 -21 18 -41.5t54 -33.5t87 -13q55 0 128 10.5z" />
    <glyph glyph-name="uniFEFB" unicode="&#xfedf;&#xfe8e;" horiz-adv-x="1243" arabic-form="isolated" 
d="M957 766q54 -86 78.5 -161.5t24.5 -146.5q0 -156 -51 -261.5t-143.5 -157t-217.5 -51.5q-82 0 -145 18.5t-109 46t-113 76.5q-49 36 -80 57t-68 41v13q257 97 423.5 215.5t252.5 264.5q-115 112 -281 227.5t-386 225.5q15 47 25.5 127.5t10.5 153.5q0 36 -3 66h12
q252 -201 420.5 -358.5t269.5 -285.5q33 106 33 236q0 65 -9 168.5t-24 174.5q49 42 106 114.5t89 136.5h12q0 -26 4 -112q8 -124 8 -230q0 -359 -139 -598zM988 505.5q-38 64.5 -112 145.5q-158 -189 -444 -308q80 -20 189 -20q126 0 218 12.5t139.5 32.5t47.5 44
q0 29 -38 93.5z" />
    <glyph glyph-name="uniFEFC" unicode="&#xfee0;&#xfe8e;" horiz-adv-x="1403" arabic-form="final" 
d="M1195 400.5q67 -65.5 208 -65.5l-54 -335q-134 0 -208 38.5t-109.5 145.5t-35.5 315l1 62h-11q-15 -187 -75.5 -312.5t-157.5 -187t-222 -61.5q-74 0 -141.5 20.5t-165.5 61.5l-97 39v12q244 74 403 133t254 112q-40 196 -201 391.5t-441 381.5q15 56 25.5 141.5
t10.5 160.5q0 37 -3 67h12q18 -20 82 -80q139 -128 247 -256t194 -325.5t86 -442.5v-31q91 52 130 105t39 116q0 183 -22.5 439t-43.5 389q57 57 116.5 132t99.5 140h13q0 -55 5 -138q7 -166 7 -277q0 -100 -6 -328q-6 -238 -6 -357q0 -140 67 -205.5z" />
    <glyph glyph-name="aleffathatanar" unicode="&#x627;&#x64b;" horiz-adv-x="505" 
d="M471 1975l-462 -206l11 67l462 207zM459 1783l-462 -207l11 68l461 207zM340 1397q18 -349 18 -603q0 -205 -10 -327t-26 -191t-48 -164q-4 -12 -18.5 -56t-27.5 -92h-13q1 21 1 71q0 164 -19.5 433t-46 513.5t-42.5 323.5q52 52 108.5 128t104.5 151h12q0 -40 7 -187z
" />
    <glyph glyph-name="aleffathatanar.fina" unicode="&#xfe8e;&#x64b;" horiz-adv-x="620" 
d="M473 1975l-461 -206l11 67l462 207zM461 1783l-461 -207l11 68l461 207zM350.5 41.5q-79.5 41.5 -119 140t-45.5 273.5q-9 269 -19.5 423.5t-22.5 237t-33 194.5q53 53 113 132.5t103 149.5h13l1 -137q2 -140 2 -276q0 -89 -8 -261q-1 -16 -5 -112.5t-4 -206.5
q0 -137 69 -200.5t225 -63.5l-54 -335q-136 0 -215.5 41.5z" />
    <glyph glyph-name="uniFEDFFEE0FEEA" unicode="&#xfedf;&#xfee0;&#xfeea;" horiz-adv-x="2627" 
d="M2478 1223q11 -134 17.5 -241t6.5 -215q0 -100 -23 -225t-66 -245.5t-101 -203.5q-32 -45 -90.5 -69t-124.5 -24q-305 0 -305 389q0 19 2 63h-11q-51 -180 -121 -277t-175.5 -136t-274.5 -39q-166 0 -269.5 50t-155 156t-57.5 279h-11q-20 -196 -101 -286t-242 -90
q-125 0 -188.5 57t-63.5 164q0 97 43 183.5t163 189t342 226.5q-15 87 -22 113q44 35 98.5 96t92.5 122h9q1 -9 8.5 -69t13.5 -158q129 66 198 105t121 79q-43 -94 -55 -147q-116 -56 -259 -128q5 -123 5 -275q0 -170 89.5 -251t291.5 -81q208 0 311 24.5t156 94.5t85 221
q39 10 88 44q0 -148 32.5 -231.5t97.5 -118t172 -34.5q47 0 91 10t71 27.5t27 38.5q0 103 -30.5 262t-69.5 302.5t-59 187.5q53 54 113 133.5t104 149.5h12q0 -62 14 -223zM624.5 469.5q83.5 35.5 83.5 99.5q0 108 -24 274q-194 -103 -296 -169.5t-134.5 -101.5t-32.5 -58
q0 -42 41 -61t147 -19q132 0 215.5 35.5z" />
    <glyph glyph-name="uni0621" unicode="&#x621;" horiz-adv-x="901" arabic-form="isolated" 
d="M544.5 800q39.5 -27 61 -73t21.5 -100q0 -55 -7 -83h-19q-5 48 -47 77t-111 29q-72 0 -130 -28t-90.5 -68t-32.5 -72q0 -31 27 -62t81 -51.5t131 -20.5q80 0 190 15t157 33v-17q-24 -36 -48 -92t-35 -105q-163 -31 -312.5 -100t-239.5 -152h-17q63 171 191 243v12
q-170 48 -170 217q0 99 41.5 198.5t112.5 163t154 63.5q52 0 91.5 -27z" />
    <glyph glyph-name="uni0624" unicode="&#x624;" horiz-adv-x="1005" arabic-form="isolated" 
d="M713 770.5q81 -74.5 124 -214.5t43 -333q0 -243 -70 -415.5t-186.5 -260.5t-256.5 -88q-74 0 -141.5 21.5t-160.5 62.5q-73 34 -120 48v12q185 27 397.5 112.5t357.5 198.5t145 219q0 89 -18 164l-7 -1q-11 -141 -101 -220.5t-244 -79.5q-151 0 -225.5 84t-74.5 245
q0 140 43 259t121.5 190t180.5 71q112 0 193 -74.5zM644.5 328.5q71.5 14.5 156.5 49.5q-45 108 -128.5 167.5t-196.5 59.5q-68 0 -127.5 -27t-95 -66t-35.5 -73q0 -32 26 -60.5t86 -46.5t157 -18q86 0 157.5 14.5zM543.5 1201q73.5 10 105.5 21v-12q-16 -24 -31 -61.5
t-24 -71.5q-107 -20 -208 -66t-162 -101h-12q16 54 50.5 97.5t82.5 72.5q-59 16 -90 53.5t-31 88.5q0 70 28.5 135.5t76 106t100.5 40.5t86 -37.5t33 -92.5q0 -20 -3 -36t-4 -20h-12q-9 73 -101 73q-50 0 -89 -19.5t-60.5 -46.5t-21.5 -47q0 -21 18 -41t54.5 -33t87.5 -13
q53 0 126.5 10z" />
    <glyph glyph-name="uni0627" unicode="&#x627;" horiz-adv-x="509" arabic-form="isolated" 
d="M344 1484q18 -430 18 -690q0 -206 -10 -328.5t-26 -192t-48 -164.5q-4 -12 -18.5 -55t-27.5 -90h-12q1 19 1 64q0 168 -21 468t-48.5 574.5t-43.5 353.5q53 53 113 132t104 150h12q0 -40 7 -222z" />
    <glyph glyph-name="uni0628" unicode="&#x628;" horiz-adv-x="1849" arabic-form="isolated" 
d="M1636 240q-88 -125 -288.5 -188.5t-535.5 -63.5q-245 0 -396.5 50t-221.5 149t-70 251q0 92 17 190.5t64 222.5h22q-18 -62 -25 -112.5t-7 -107.5q0 -89 71.5 -158.5t217.5 -109.5t361 -40q276 0 466.5 33.5t283 79t92.5 78.5q0 23 -37 71t-94.5 103t-113.5 96
q34 44 75.5 129.5t64.5 153.5h12q3 -7 19 -44q47 -105 79 -214t32 -249q0 -195 -88 -320zM795.5 -425q-54.5 46 -94.5 63v12l147 180q52 -24 109 -75t83 -94l-158 -170q-32 38 -86.5 84z" />
    <glyph glyph-name="uni0629" unicode="&#x629;" horiz-adv-x="926" arabic-form="isolated" 
d="M445 1014q102 -61 174.5 -120.5t127 -162.5t54.5 -250q0 -248 -98 -370.5t-301 -122.5q-133 0 -205.5 70t-72.5 191q0 112 42 239.5t130 282.5l-58 25q24 47 56.5 138.5t45.5 142.5h11q24 -22 94 -63zM615 341q74 18 113.5 44.5t39.5 50.5q0 53 -111.5 136t-327.5 183
q-61 -107 -89 -178.5t-28 -124.5q0 -35 26.5 -64t79 -47t127.5 -18q96 0 170 18zM751.5 1343q-24.5 -70 -34.5 -108q-112 -8 -224.5 -12.5t-174.5 -4.5q-87 0 -128 20t-41 71q0 16 5 35.5t14 48.5q1 5 10.5 33.5t13.5 57.5h12q0 -33 36 -45.5t120 -12.5q58 0 201 4.5
t232 11.5q-17 -29 -41.5 -99z" />
    <glyph glyph-name="uni062A" unicode="&#x62a;" horiz-adv-x="1849" arabic-form="isolated" 
d="M1636 240q-88 -125 -288.5 -188.5t-535.5 -63.5q-245 0 -396.5 50t-221.5 149t-70 251q0 92 17 190.5t64 222.5h22q-18 -62 -25 -112.5t-7 -107.5q0 -89 71.5 -158.5t217.5 -109.5t361 -40q276 0 466.5 33.5t283 79t92.5 78.5q0 23 -37 71t-94.5 103t-113.5 96
q34 44 75.5 129.5t64.5 153.5h12q3 -7 19 -44q47 -105 79 -214t32 -249q0 -195 -88 -320zM1160.5 849q-24.5 -70 -34.5 -108q-112 -8 -224.5 -12.5t-174.5 -4.5q-87 0 -128 20t-41 71q0 16 5 35.5t14 48.5q1 5 10.5 33.5t13.5 57.5h12q0 -33 36 -45.5t120 -12.5
q58 0 201 4.5t232 11.5q-17 -29 -41.5 -99z" />
    <glyph glyph-name="uni062B" unicode="&#x62b;" horiz-adv-x="1849" arabic-form="isolated" 
d="M1636 240q-88 -125 -288.5 -188.5t-535.5 -63.5q-245 0 -396.5 50t-221.5 149t-70 251q0 92 17 190.5t64 222.5h22q-18 -62 -25 -112.5t-7 -107.5q0 -89 71.5 -158.5t217.5 -109.5t361 -40q276 0 466.5 33.5t283 79t92.5 78.5q0 23 -37 71t-94.5 103t-113.5 96
q34 44 75.5 129.5t64.5 153.5h12q3 -7 19 -44q47 -105 79 -214t32 -249q0 -195 -88 -320zM814.5 1068q-49.5 38 -87.5 54v12l126 159q48 -23 98 -64.5t73 -71.5l-126 -160q-34 33 -83.5 71zM1160 842q-25 -66 -34 -101q-112 -8 -224.5 -12.5t-174.5 -4.5q-87 0 -128 20
t-41 71q0 16 4.5 32.5t14.5 45.5q19 55 24 86h12q0 -33 36 -45.5t120 -12.5q52 0 197.5 4.5t235.5 11.5q-17 -29 -42 -95z" />
    <glyph glyph-name="uni062C" unicode="&#x62c;" horiz-adv-x="1485" arabic-form="isolated" 
d="M704.5 -119q-54.5 46 -94.5 63v12l147 180q52 -24 109 -75t83 -94l-158 -170q-32 38 -86.5 84zM605.5 984q80.5 -24 213.5 -74q171 -64 293 -99.5t248 -40.5v-12q-38 -35 -90.5 -113.5t-81.5 -146.5q-319 -67 -548.5 -158.5t-350.5 -199.5t-121 -223q0 -103 90.5 -189
t245.5 -136t340 -50q131 0 272.5 9t239.5 28v-13q-26 -21 -76 -65q-88 -78 -160.5 -128t-182.5 -86.5t-255 -36.5q-167 0 -293.5 67t-195.5 191t-69 288q0 211 83 360t263 257t481 192v12q-44 5 -98.5 20.5t-142.5 45.5q-109 37 -179.5 56t-126.5 19q-74 0 -128 -32t-90 -98
h-12q40 155 82 237.5t89.5 112.5t113.5 30t146.5 -24z" />
    <glyph glyph-name="uni062D" unicode="&#x62d;" horiz-adv-x="1485" arabic-form="isolated" 
d="M605.5 984q80.5 -24 213.5 -74q171 -64 293 -99.5t248 -40.5v-12q-38 -35 -90.5 -113.5t-81.5 -146.5q-319 -67 -548.5 -158.5t-350.5 -199.5t-121 -223q0 -103 90.5 -189t245.5 -136t340 -50q131 0 272.5 9t239.5 28v-13q-26 -21 -76 -65q-88 -78 -160.5 -128
t-182.5 -86.5t-255 -36.5q-167 0 -293.5 67t-195.5 191t-69 288q0 211 83 360t263 257t481 192v12q-44 5 -98.5 20.5t-142.5 45.5q-109 37 -179.5 56t-126.5 19q-74 0 -128 -32t-90 -98h-12q40 155 82 237.5t89.5 112.5t113.5 30t146.5 -24z" />
    <glyph glyph-name="uni062E" unicode="&#x62e;" horiz-adv-x="1485" arabic-form="isolated" 
d="M605.5 984q80.5 -24 213.5 -74q171 -64 293 -99.5t248 -40.5v-12q-38 -35 -90.5 -113.5t-81.5 -146.5q-319 -67 -548.5 -158.5t-350.5 -199.5t-121 -223q0 -103 90.5 -189t245.5 -136t340 -50q131 0 272.5 9t239.5 28v-13q-26 -21 -76 -65q-88 -78 -160.5 -128
t-182.5 -86.5t-255 -36.5q-167 0 -293.5 67t-195.5 191t-69 288q0 211 83 360t263 257t481 192v12q-44 5 -98.5 20.5t-142.5 45.5q-109 37 -179.5 56t-126.5 19q-74 0 -128 -32t-90 -98h-12q40 155 82 237.5t89.5 112.5t113.5 30t146.5 -24zM525.5 1325.5
q-56.5 46.5 -97.5 63.5v13l147 180q52 -25 109 -75.5t83 -93.5l-158 -170q-27 36 -83.5 82.5z" />
    <glyph glyph-name="uni062F" unicode="&#x62f;" horiz-adv-x="998" arabic-form="isolated" 
d="M822 197.5q-51 -108.5 -156 -159t-273 -50.5q-138 0 -208 71.5t-70 210.5q0 79 23 242h19q-2 -74 21 -114.5t78.5 -57.5t157.5 -17q139 0 235.5 18t143 44t46.5 52q0 44 -73 127.5t-181.5 172.5t-206.5 147q26 62 57.5 152.5t39.5 129.5h12q15 -18 50 -50
q87 -82 155.5 -163t124.5 -203.5t56 -267.5q0 -176 -51 -284.5z" />
    <glyph glyph-name="uni0630" unicode="&#x630;" horiz-adv-x="998" arabic-form="isolated" 
d="M822 197.5q-51 -108.5 -156 -159t-273 -50.5q-138 0 -208 71.5t-70 210.5q0 79 23 242h19q-2 -74 21 -114.5t78.5 -57.5t157.5 -17q139 0 235.5 18t143 44t46.5 52q0 44 -73 127.5t-181.5 172.5t-206.5 147q26 62 57.5 152.5t39.5 129.5h12q15 -18 50 -50
q87 -82 155.5 -163t124.5 -203.5t56 -267.5q0 -176 -51 -284.5zM405.5 1431.5q-56.5 46.5 -97.5 63.5v13l147 180q52 -25 109 -75.5t83 -93.5l-158 -170q-27 36 -83.5 82.5z" />
    <glyph glyph-name="uni0631" unicode="&#x631;" horiz-adv-x="880" arabic-form="isolated" 
d="M151 -519.5q-60 21.5 -142 62.5q-74 36 -103 46v12q177 36 370 132t321.5 205t128.5 177q0 38 -70.5 114.5t-207.5 187.5q34 51 75.5 136.5t64.5 155.5h12l21 -43q38 -75 65 -139t48 -148.5t21 -175.5q0 -229 -64 -397.5t-172.5 -257.5t-238.5 -89q-69 0 -129 21.5z" />
    <glyph glyph-name="uni0632" unicode="&#x632;" horiz-adv-x="880" arabic-form="isolated" 
d="M151 -519.5q-60 21.5 -142 62.5q-74 36 -103 46v12q177 36 370 132t321.5 205t128.5 177q0 38 -70.5 114.5t-207.5 187.5q34 51 75.5 136.5t64.5 155.5h12l21 -43q38 -75 65 -139t48 -148.5t21 -175.5q0 -229 -64 -397.5t-172.5 -257.5t-238.5 -89q-69 0 -129 21.5z
M492.5 934.5q-56.5 46.5 -97.5 63.5v13l147 180q52 -25 109 -75.5t83 -93.5l-158 -170q-27 36 -83.5 82.5z" />
    <glyph glyph-name="uni0633" unicode="&#x633;" horiz-adv-x="2481" arabic-form="isolated" 
d="M2253 883q29 -65 49.5 -123.5t37 -143t16.5 -183.5q0 -207 -73 -320t-212 -113q-111 0 -170.5 59.5t-59.5 179.5q0 27 3 55h-13q-20 -146 -97 -220t-190 -74q-135 0 -212 92q-18 -208 -107.5 -353t-238.5 -219t-344 -74q-167 0 -283 61.5t-175.5 179t-59.5 284.5
q0 261 115 513h23q-62 -166 -62 -330q0 -118 55.5 -201.5t162 -127t258.5 -43.5q178 0 320.5 51t222 130t79.5 158q0 32 -46 122t-133 227q24 32 58.5 109t59.5 152h13q47 -153 100.5 -240.5t111.5 -121.5t126 -34q93 0 150 24.5t90 81.5t51 158h22q-2 -29 -27 -202
q30 -29 88 -45.5t132 -16.5q58 0 110 11.5t83.5 28.5t31.5 33q0 62 -223 237q33 50 69.5 125t60.5 147h12z" />
    <glyph glyph-name="uni0634" unicode="&#x634;" horiz-adv-x="2481" arabic-form="isolated" 
d="M2253 883q29 -65 49.5 -123.5t37 -143t16.5 -183.5q0 -207 -73 -320t-212 -113q-111 0 -170.5 59.5t-59.5 179.5q0 27 3 55h-13q-20 -146 -97 -220t-190 -74q-135 0 -212 92q-18 -208 -107.5 -353t-238.5 -219t-344 -74q-167 0 -283 61.5t-175.5 179t-59.5 284.5
q0 261 115 513h23q-62 -166 -62 -330q0 -118 55.5 -201.5t162 -127t258.5 -43.5q178 0 320.5 51t222 130t79.5 158q0 32 -46 122t-133 227q24 32 58.5 109t59.5 152h13q47 -153 100.5 -240.5t111.5 -121.5t126 -34q93 0 150 24.5t90 81.5t51 158h22q-2 -29 -27 -202
q30 -29 88 -45.5t132 -16.5q58 0 110 11.5t83.5 28.5t31.5 33q0 62 -223 237q33 50 69.5 125t60.5 147h12zM1657.5 1211q-49.5 38 -87.5 54v12l126 159q48 -23 98 -64.5t73 -71.5l-126 -160q-34 33 -83.5 71zM2003 985q-25 -66 -34 -101q-112 -8 -224.5 -12.5t-174.5 -4.5
q-87 0 -128 20t-41 71q0 16 4.5 32.5t14.5 45.5q19 55 24 86h12q0 -33 36 -45.5t120 -12.5q52 0 197.5 4.5t235.5 11.5q-17 -29 -42 -95z" />
    <glyph glyph-name="uni0635" unicode="&#x635;" horiz-adv-x="2507" arabic-form="isolated" 
d="M2246.5 909.5q65.5 -44.5 100.5 -125t35 -187.5q0 -177 -81 -312.5t-228 -210t-339 -74.5q-135 0 -233 32t-165 104q-11 -221 -99.5 -376t-240.5 -234.5t-354 -79.5q-167 0 -283 61.5t-175.5 179t-59.5 284.5q0 261 115 513h23q-62 -166 -62 -330q0 -118 55.5 -201.5
t162 -127t258.5 -43.5q178 0 320.5 51t222 130t79.5 158q0 32 -46 122t-133 227q24 32 58.5 109t59.5 152h13q37 -124 92.5 -203.5t129.5 -123.5q127 202 230 322t196.5 174t192.5 54q90 0 155.5 -44.5zM2069 351q123 16 192.5 45.5t69.5 70.5t-36.5 94.5t-106.5 92.5
t-163 39q-82 0 -179 -38t-189.5 -107t-162.5 -156q59 -31 131.5 -44t163.5 -13q157 0 280 16z" />
    <glyph glyph-name="uni0636" unicode="&#x636;" horiz-adv-x="2507" arabic-form="isolated" 
d="M2246.5 909.5q65.5 -44.5 100.5 -125t35 -187.5q0 -177 -81 -312.5t-228 -210t-339 -74.5q-135 0 -233 32t-165 104q-11 -221 -99.5 -376t-240.5 -234.5t-354 -79.5q-167 0 -283 61.5t-175.5 179t-59.5 284.5q0 261 115 513h23q-62 -166 -62 -330q0 -118 55.5 -201.5
t162 -127t258.5 -43.5q178 0 320.5 51t222 130t79.5 158q0 32 -46 122t-133 227q24 32 58.5 109t59.5 152h13q37 -124 92.5 -203.5t129.5 -123.5q127 202 230 322t196.5 174t192.5 54q90 0 155.5 -44.5zM2069 351q123 16 192.5 45.5t69.5 70.5t-36.5 94.5t-106.5 92.5
t-163 39q-82 0 -179 -38t-189.5 -107t-162.5 -156q59 -31 131.5 -44t163.5 -13q157 0 280 16zM1946.5 1210.5q-56.5 46.5 -97.5 63.5v13l147 180q52 -25 109 -75.5t83 -93.5l-158 -170q-27 36 -83.5 82.5z" />
    <glyph glyph-name="uni0637" unicode="&#x637;" horiz-adv-x="1459" arabic-form="isolated" 
d="M1198.5 909.5q65.5 -44.5 100.5 -125t35 -187.5q0 -177 -81 -312.5t-227.5 -210t-338.5 -74.5q-155 0 -248 35t-144.5 90.5t-117.5 159.5q-40 63 -58 88v12q118 -25 247 -37q65 99 103 211t38 272q0 121 -21 308.5t-41 284.5q53 54 112.5 132.5t103.5 149.5h12
q0 -24 8 -242q12 -280 12 -374q0 -95 -19 -173t-72 -186t-164 -292h13q122 190 220.5 302t188 162.5t184.5 50.5q89 0 154.5 -44.5zM1022 351q123 16 192.5 45.5t69.5 70.5t-36.5 94.5t-106.5 92.5t-163 39q-90 0 -195 -44.5t-203 -124t-168 -180.5q141 -9 330 -9
q157 0 280 16z" />
    <glyph glyph-name="uni0638" unicode="&#x638;" horiz-adv-x="1455" arabic-form="isolated" 
d="M1194.5 909.5q65.5 -44.5 100.5 -125t35 -187.5q0 -177 -81 -312.5t-227.5 -210t-338.5 -74.5q-155 0 -248 35t-144.5 90.5t-117.5 159.5q-40 63 -58 88v12q118 -25 247 -37q65 99 103 211t38 272q0 121 -21 308.5t-41 284.5q53 54 112.5 132.5t103.5 149.5h12
q0 -24 8 -242q12 -280 12 -374q0 -95 -19 -173t-72 -186t-164 -292h13q122 190 220.5 302t188 162.5t184.5 50.5q89 0 154.5 -44.5zM1018 351q123 16 192.5 45.5t69.5 70.5t-36.5 94.5t-106.5 92.5t-163 39q-90 0 -195 -44.5t-203 -124t-168 -180.5q141 -9 330 -9
q157 0 280 16zM974.5 1210.5q-56.5 46.5 -97.5 63.5v13l147 180q52 -25 109 -75.5t83 -93.5l-158 -170q-27 36 -83.5 82.5z" />
    <glyph glyph-name="uniFEC9" unicode="&#x639;" horiz-adv-x="1338" arabic-form="isolated" 
d="M1017 -448q133 10 226 29v-12q-27 -22 -82 -75q-81 -77 -146 -125.5t-163 -83.5t-227 -35q-239 0 -370 125t-131 362q0 176 80.5 323.5t245.5 251.5q-232 69 -232 335q0 145 60.5 271.5t162.5 202t218 75.5q78 0 134.5 -28.5t86.5 -80t30 -119.5q0 -55 -21 -118h-12
q0 49 -65 77.5t-176 28.5q-86 0 -170.5 -28.5t-138.5 -76.5t-54 -105t44.5 -106.5t123 -79t175.5 -29.5q142 0 273 18t234 55l1 -11q-31 -31 -82.5 -120.5t-90.5 -173.5q-229 -43 -407.5 -118t-277 -163.5t-98.5 -169.5q0 -88 67.5 -157t204.5 -109t337 -40q107 0 240 10z
" />
    <glyph glyph-name="uni063A" unicode="&#x63a;" horiz-adv-x="1338" arabic-form="isolated" 
d="M1017 -448q133 10 226 29v-12q-27 -22 -82 -75q-81 -77 -146 -125.5t-163 -83.5t-227 -35q-239 0 -370 125t-131 362q0 176 80.5 323.5t245.5 251.5q-232 69 -232 335q0 145 60.5 271.5t162.5 202t218 75.5q78 0 134.5 -28.5t86.5 -80t30 -119.5q0 -55 -21 -118h-12
q0 49 -65 77.5t-176 28.5q-86 0 -170.5 -28.5t-138.5 -76.5t-54 -105t44.5 -106.5t123 -79t175.5 -29.5q142 0 273 18t234 55l1 -11q-31 -31 -82.5 -120.5t-90.5 -173.5q-229 -43 -407.5 -118t-277 -163.5t-98.5 -169.5q0 -88 67.5 -157t204.5 -109t337 -40q107 0 240 10z
M546.5 1432.5q-56.5 46.5 -97.5 63.5v13l147 180q52 -25 109 -75.5t83 -93.5l-158 -170q-27 36 -83.5 82.5z" />
    <glyph glyph-name="uni0641" unicode="&#x641;" horiz-adv-x="1958" arabic-form="isolated" 
d="M1668 1190.5q80 -75.5 122.5 -225t42.5 -366.5q0 -226 -100.5 -359t-322.5 -192.5t-598 -59.5q-245 0 -396.5 50t-221.5 149t-70 251q0 92 17 190.5t64 222.5h22q-18 -62 -25 -112.5t-7 -107.5q0 -89 71.5 -158.5t217.5 -109.5t361 -40q288 0 503.5 30t330 76.5
t117.5 96.5q2 21 2 60q0 115 -35 206l1 -4l-10 -3q-11 -138 -101.5 -216.5t-244.5 -78.5q-135 0 -206.5 73t-71.5 201q0 137 40.5 251.5t119 182.5t185.5 68q113 0 193 -75.5zM1750 825q-48 100 -131.5 156t-188.5 56q-68 0 -127.5 -27t-95 -65.5t-35.5 -71.5
q0 -21 26.5 -47t87 -45.5t155.5 -19.5q174 0 309 64zM1366.5 1528.5q-56.5 46.5 -97.5 63.5v13l147 180q52 -25 109 -75.5t83 -93.5l-158 -170q-27 36 -83.5 82.5z" />
    <glyph glyph-name="uni0642" unicode="&#x642;" horiz-adv-x="1463" arabic-form="isolated" 
d="M1172.5 889.5q80.5 -76.5 123 -227t42.5 -368.5q0 -253 -85 -425.5t-241.5 -258t-369.5 -85.5q-167 0 -283 61.5t-175.5 179t-59.5 283.5q0 259 115 514h24q-63 -167 -63 -330q0 -118 55.5 -201t162.5 -127t258 -44q179 0 323 51.5t225 132.5t81 163q0 118 -24 209h-2
q-10 -138 -100.5 -217t-245.5 -79q-151 0 -225.5 84t-74.5 246q0 138 43 256t122 188.5t181 70.5q113 0 193.5 -76.5zM1102.5 449q70.5 14 152.5 49q-45 110 -127.5 169t-192.5 59q-68 0 -127.5 -27t-94.5 -66t-35 -73q0 -32 25.5 -60.5t85 -46.5t156.5 -18q87 0 157.5 14z
M1249.5 1307q-24.5 -70 -34.5 -108q-112 -8 -224.5 -12.5t-174.5 -4.5q-87 0 -128 20t-41 71q0 16 5 35.5t14 48.5q1 5 10.5 33.5t13.5 57.5h12q0 -33 36 -45.5t120 -12.5q58 0 201 4.5t232 11.5q-17 -29 -41.5 -99z" />
    <glyph glyph-name="uni0643" unicode="&#x643;" horiz-adv-x="1798" arabic-form="isolated" 
d="M1449 212.5q-88 -115.5 -266 -170t-452 -54.5q-309 0 -458 112.5t-149 337.5q0 94 16.5 191.5t63.5 221.5h23q-19 -61 -26 -110.5t-7 -109.5q0 -88 67.5 -158t196.5 -110t307 -40q261 0 427.5 26.5t239 62t72.5 65.5t-82.5 100.5t-236 158.5t-355.5 170q26 58 68 169
t60 170q2 8 11 39t25 45t47 26l840 336l11 -5q-48 -84 -85.5 -168.5t-55.5 -151.5l-790 -230v-13q240 -109 364.5 -203t168 -188t43.5 -220q0 -184 -88 -299.5z" />
    <glyph glyph-name="uni0644" unicode="&#x644;" horiz-adv-x="1486" arabic-form="isolated" 
d="M1323 434q-17 -194 -52 -323.5t-91 -230.5q-76 -153 -213 -232.5t-349 -79.5q-156 0 -267 61t-169 178.5t-58 284.5q0 261 115 513h23q-62 -166 -62 -330q0 -118 54 -201.5t156 -127t242 -43.5q148 0 279.5 39.5t211.5 109.5t80 156q-4 175 -26 462.5t-49 543.5t-42 331
q54 55 114 134t102 148h13l1 -227q4 -382 4 -684q0 -288 -17 -482z" />
    <glyph glyph-name="uni0645" unicode="&#x645;" horiz-adv-x="1164" arabic-form="isolated" 
d="M906.5 852.5q65.5 -58.5 99 -163t33.5 -241.5q0 -221 -74 -316.5t-195 -95.5q-88 0 -166 13t-165 34q-28 6 -52 11t-35 5q-51 0 -84.5 -46.5t-33.5 -122.5q0 -512 13 -657q-25 -25 -54 -68t-47 -78h-11q3 31 3 87q0 72 -5 219q-9 283 -9 452q0 167 34 288t91 188t128 80
q60 238 151.5 354t220.5 116q92 0 157.5 -58.5zM980.5 385q25.5 13 25.5 39q0 45 -33.5 104t-101.5 101.5t-166 42.5q-204 0 -299 -231q91 -31 229.5 -50t263.5 -19q56 0 81.5 13z" />
    <glyph glyph-name="uni0646" unicode="&#x646;" horiz-adv-x="1463" arabic-form="isolated" 
d="M1252.5 -90.5q-85.5 -168.5 -242 -255t-368.5 -86.5q-167 0 -283 61.5t-175.5 179t-59.5 283.5q0 258 115 513h24q-63 -165 -63 -330q0 -117 55.5 -200.5t162.5 -127.5t258 -44q179 0 321 51t221.5 130.5t79.5 158.5q0 37 -57.5 118t-169.5 199q34 51 76 136.5t65 155.5
h12q5 -16 11 -32t11 -32q41 -111 66.5 -218.5t25.5 -251.5q0 -240 -85.5 -408.5zM606.5 494.5q-56.5 46.5 -97.5 63.5v13l147 180q52 -25 109 -75.5t83 -93.5l-158 -170q-27 36 -83.5 82.5z" />
    <glyph glyph-name="uniFEE9" unicode="&#x647;" horiz-adv-x="926" arabic-form="isolated" 
d="M445 1014q102 -61 174.5 -120.5t127 -162.5t54.5 -250q0 -248 -98 -370.5t-301 -122.5q-133 0 -205.5 70t-72.5 191q0 112 42 239.5t130 282.5l-58 25q24 47 56.5 138.5t45.5 142.5h11q24 -22 94 -63zM615 341q74 18 113.5 44.5t39.5 50.5q0 53 -111.5 136t-327.5 183
q-61 -107 -89 -178.5t-28 -124.5q0 -35 26.5 -64t79 -47t127.5 -18q96 0 170 18z" />
    <glyph glyph-name="uni0648" unicode="&#x648;" horiz-adv-x="1005" arabic-form="isolated" 
d="M713 770.5q81 -74.5 124 -214.5t43 -333q0 -243 -70 -415.5t-186.5 -260.5t-256.5 -88q-74 0 -141.5 21.5t-160.5 62.5q-73 34 -120 48v12q185 27 397.5 112.5t357.5 198.5t145 219q0 89 -18 164l-7 -1q-11 -141 -101 -220.5t-244 -79.5q-151 0 -225.5 84t-74.5 245
q0 140 43 259t121.5 190t180.5 71q112 0 193 -74.5zM644.5 328.5q71.5 14.5 156.5 49.5q-45 108 -128.5 167.5t-196.5 59.5q-68 0 -127.5 -27t-95 -66t-35.5 -73q0 -32 26 -60.5t86 -46.5t157 -18q86 0 157.5 14.5z" />
    <glyph glyph-name="uni0649" unicode="&#x649;" horiz-adv-x="1473" arabic-form="isolated" 
d="M1280.5 1104q57.5 -60 57.5 -159q0 -61 -22 -127h-12q0 49 -60.5 77.5t-153.5 28.5q-114 0 -212.5 -50t-157 -120.5t-58.5 -127.5q0 -58 71.5 -84t203.5 -31l133 -5q111 -4 173 -29t89 -78.5t27 -146.5q0 -213 -84.5 -367t-245.5 -235.5t-387 -81.5q-252 0 -385 135.5
t-133 388.5q0 261 115 513h23q-62 -166 -62 -330q0 -179 123.5 -275.5t352.5 -96.5q220 0 365 41.5t211.5 101t66.5 115.5q0 16 -22 26t-79.5 16.5t-165.5 10.5l-137 5q-112 4 -178 26.5t-98 75.5t-32 147q0 152 73 315.5t192.5 272t250.5 108.5q100 0 157.5 -60z" />
    <glyph glyph-name="uniFEF1" unicode="&#x64a;" horiz-adv-x="1473" arabic-form="isolated" 
d="M1280.5 1104q57.5 -60 57.5 -159q0 -61 -22 -127h-12q0 49 -60.5 77.5t-153.5 28.5q-114 0 -212.5 -50t-157 -120.5t-58.5 -127.5q0 -58 71.5 -84t203.5 -31l133 -5q111 -4 173 -29t89 -78.5t27 -146.5q0 -213 -84.5 -367t-245.5 -235.5t-387 -81.5q-252 0 -385 135.5
t-133 388.5q0 261 115 513h23q-62 -166 -62 -330q0 -179 123.5 -275.5t352.5 -96.5q220 0 365 41.5t211.5 101t66.5 115.5q0 16 -22 26t-79.5 16.5t-165.5 10.5l-137 5q-112 4 -178 26.5t-98 75.5t-32 147q0 152 73 315.5t192.5 272t250.5 108.5q100 0 157.5 -60z" />
    <glyph glyph-name="uni066E.fina" unicode="&#x66e;" horiz-adv-x="2014" 
d="M1739.5 78q-75.5 78 -75.5 230q0 60 11 140h-12q-47 -163 -155 -264.5t-279.5 -148.5t-416.5 -47t-396.5 50t-221.5 149t-70 251q0 92 17 190.5t64 222.5h22q-18 -62 -25 -112.5t-7 -107.5q0 -89 71.5 -158.5t217.5 -109.5t361 -40q381 0 591.5 70t281.5 221h17
q-6 -52 -6 -91q0 -85 67 -136.5t218 -51.5l-54 -335q-145 0 -220.5 78z" />
    <glyph glyph-name="uni066F.fina" unicode="&#x66f;" horiz-adv-x="1482" 
d="M1427 0h-100q-28 -197 -118.5 -330.5t-234.5 -199.5t-332 -66q-167 0 -283 61.5t-175.5 179t-59.5 283.5q0 259 115 514h24q-63 -167 -63 -331q0 -117 55.5 -200.5t162.5 -127.5t258 -44q159 0 291 41t217 108t111 142v13q-84 -24 -167.5 -33.5t-194.5 -9.5
q-151 0 -225.5 84t-74.5 245q0 138 43 256.5t122 189t181 70.5q148 0 239 -130.5t113 -379.5h151zM703.5 378.5q25.5 -28.5 85 -46.5t156.5 -18q208 0 329 9q-40 136 -127.5 209t-211.5 73q-68 0 -127.5 -27t-94.5 -66t-35 -73q0 -32 25.5 -60.5z" />
    <glyph glyph-name="uni0671" unicode="&#x671;" horiz-adv-x="505" arabic-form="isolated" 
d="M465.5 1976q34.5 -38 34.5 -105q0 -94 -65.5 -140t-177.5 -46q-63 0 -111.5 21.5t-69.5 57.5q-15 -21 -56.5 -51t-68.5 -40l11 84q39 21 76.5 51.5t59.5 59.5h5q8 -34 35 -54q70 109 128 154.5t112 45.5q53 0 87.5 -38zM425.5 1799.5q51.5 14.5 51.5 40.5q0 15 -13.5 35
t-40 34.5t-62.5 14.5q-52 0 -104.5 -33.5t-93.5 -89.5q38 -16 105 -16q106 0 157.5 14.5zM333 1584q0 -40 7 -187q18 -349 18 -603q0 -205 -10 -327t-26 -191t-48 -164q-4 -12 -18.5 -56t-27.5 -92h-13q1 21 1 71q0 164 -19.5 433t-46 513.5t-42.5 323.5q52 52 108.5 128
t104.5 151h12z" />
    <glyph glyph-name="uni067E" unicode="&#x67e;" horiz-adv-x="1849" arabic-form="isolated" 
d="M1636 240q-88 -125 -288.5 -188.5t-535.5 -63.5q-245 0 -396.5 50t-221.5 149t-70 251q0 92 17 190.5t64 222.5h22q-18 -62 -25 -112.5t-7 -107.5q0 -89 71.5 -158.5t217.5 -109.5t361 -40q276 0 466.5 33.5t283 79t92.5 78.5q0 23 -37 71t-94.5 103t-113.5 96
q34 44 75.5 129.5t64.5 153.5h12q3 -7 19 -44q47 -105 79 -214t32 -249q0 -195 -88 -320zM585 -312q25 66 34 101q112 8 224.5 12.5t174.5 4.5q87 0 128 -20t41 -71q0 -16 -4.5 -32.5t-14.5 -45.5q-19 -55 -24 -86h-12q0 33 -36 45.5t-120 12.5q-52 0 -197.5 -4.5
t-235.5 -11.5q17 29 42 95zM789 -670q-51 39 -89 55v13l125 157q49 -23 98.5 -64.5t72.5 -71.5l-126 -159q-30 31 -81 70z" />
    <glyph glyph-name="uni0686" unicode="&#x686;" horiz-adv-x="1485" arabic-form="isolated" 
d="M605.5 984q80.5 -24 213.5 -74q171 -64 293 -99.5t248 -40.5v-12q-38 -35 -90.5 -113.5t-81.5 -146.5q-319 -67 -548.5 -158.5t-350.5 -199.5t-121 -223q0 -103 90.5 -189t245.5 -136t340 -50q131 0 272.5 9t239.5 28v-13q-26 -21 -76 -65q-88 -78 -160.5 -128
t-182.5 -86.5t-255 -36.5q-167 0 -293.5 67t-195.5 191t-69 288q0 211 83 360t263 257t481 192v12q-44 5 -98.5 20.5t-142.5 45.5q-109 37 -179.5 56t-126.5 19q-74 0 -128 -32t-90 -98h-12q40 155 82 237.5t89.5 112.5t113.5 30t146.5 -24zM741.5 2q131.5 4 182.5 4
q76 0 108.5 -11.5t32.5 -41.5h11q5 27 22 79q18 47 18 70q0 46 -38 64.5t-116 18.5q-53 0 -156 -4t-207 -11q-8 -32 -31 -91.5t-39 -87.5q81 7 212.5 11zM876 -101.5q-45 37.5 -90 58.5l-113 -144v-11q35 -16 81.5 -51.5t72.5 -62.5l115 145q-21 28 -66 65.5z" />
    <glyph glyph-name="uni0695.fina" unicode="&#x695;" horiz-adv-x="945" 
d="M891 0q-79 0 -144 45q-21 -183 -88 -315.5t-165.5 -201.5t-213.5 -69q-69 0 -129 21.5t-142 62.5q-74 36 -103 46v12q159 32 333 113.5t305.5 179.5t171.5 175q-117 102 -226 379q25 34 60 111t59 150h12q43 -144 92.5 -226t105.5 -115t126 -33zM534 -698q8 -30 17 -52
q-83 -100 -119.5 -184.5t-59.5 -205.5l-12 -2q-8 114 -69.5 216t-141.5 166q14 20 30 52.5t25 57.5h12q18 -30 40 -57q32 -43 52.5 -75.5t40.5 -81t32 -110.5h11q12 96 33 151t56 116q22 38 32 59h12q1 -20 9 -50z" />
    <glyph glyph-name="uni0698" unicode="&#x698;" horiz-adv-x="880" arabic-form="isolated" 
d="M151 -519.5q-60 21.5 -142 62.5q-74 36 -103 46v12q177 36 370 132t321.5 205t128.5 177q0 38 -70.5 114.5t-207.5 187.5q34 51 75.5 136.5t64.5 155.5h12l21 -43q38 -75 65 -139t48 -148.5t21 -175.5q0 -229 -64 -397.5t-172.5 -257.5t-238.5 -89q-69 0 -129 21.5z
M503.5 1220q-49.5 38 -87.5 54v12l126 159q48 -23 98 -64.5t73 -71.5l-126 -160q-34 33 -83.5 71zM849 994q-25 -66 -34 -101q-112 -8 -224.5 -12.5t-174.5 -4.5q-87 0 -128 20t-41 71q0 16 4.5 32.5t14.5 45.5q19 55 24 86h12q0 -33 36 -45.5t120 -12.5q52 0 197.5 4.5
t235.5 11.5q-17 -29 -42 -95z" />
    <glyph glyph-name="uni06A0.init" unicode="&#x6a0;" horiz-adv-x="1110" 
d="M985 466q-34 -34 -96.5 -131t-96.5 -169q-98 -22 -276 -71q-122 -34 -198.5 -52t-170 -30.5t-202.5 -12.5q-29 0 -43 27.5t-14 81.5q0 112 29 169t83 57q35 0 137 4q-59 64 -59 179q0 145 60.5 271.5t162 202t217.5 75.5q78 0 134.5 -28.5t86.5 -80.5t30 -120
q0 -58 -20 -117h-13q0 49 -65 77.5t-175 28.5q-89 0 -174.5 -28t-140 -76.5t-54.5 -105.5t46 -106.5t125.5 -79t177.5 -29.5q140 0 271.5 19.5t236.5 56.5zM411.5 1607q-49.5 38 -87.5 54v12l126 159q48 -23 98 -64.5t73 -71.5l-126 -160q-34 33 -83.5 71zM757 1381
q-25 -66 -34 -101q-112 -8 -224.5 -12.5t-174.5 -4.5q-87 0 -128 20t-41 71q0 16 4.5 32.5t14.5 45.5q19 55 24 86h12q0 -33 36 -45.5t120 -12.5q52 0 197.5 4.5t235.5 11.5q-17 -29 -42 -95z" />
    <glyph glyph-name="uni06A0.medi" unicode="&#x6a0;" horiz-adv-x="1164" 
d="M1164 335l-55 -335h-59q-137 0 -231 17t-163.5 61.5t-116.5 126.5q-110 -84 -197 -127.5t-177.5 -60.5t-219.5 -17q-29 0 -43 27.5t-14 81.5q0 112 29 169t83 57q139 0 236 7t171 23q-42 66 -137 190q-68 89 -87 117q-78 -26 -138 -54l-12 12q21 43 53 119t43 120
q98 46 239 78t261 32q115 0 238.5 -27t228.5 -79q-18 -26 -46.5 -92t-51.5 -135q-76 -92 -274 -279q50 -20 133.5 -26t236.5 -6h70zM409 724.5q-98 -15.5 -193 -42.5l124 -95q182 -139 221 -169q180 95 422 251q-173 71 -387 71q-89 0 -187 -15.5zM520.5 1574
q-49.5 38 -87.5 54v12l126 159q48 -23 98 -64.5t73 -71.5l-126 -160q-34 33 -83.5 71zM866 1348q-25 -66 -34 -101q-112 -8 -224.5 -12.5t-174.5 -4.5q-87 0 -128 20t-41 71q0 16 4.5 32.5t14.5 45.5q19 55 24 86h12q0 -33 36 -45.5t120 -12.5q52 0 197.5 4.5t235.5 11.5
q-17 -29 -42 -95z" />
    <glyph glyph-name="uni06A0.fina" unicode="&#x6a0;" horiz-adv-x="1301" 
d="M261.5 -302.5q67.5 -73.5 204 -114.5t337.5 -41q107 0 240 10t227 29v-12q-19 -15 -82 -74q-81 -77 -146.5 -126t-163 -84t-226.5 -35q-240 0 -371 128.5t-131 379.5q0 173 79 330.5t256 301.5q-28 42 -69.5 97.5t-55.5 74.5q-55 72 -87 117q-72 -22 -137 -53l-12 12
q19 38 51.5 115.5t44.5 122.5q98 47 238 79t261 32q115 0 238 -27t229 -79q-18 -27 -46.5 -92.5t-50.5 -134.5q-72 -88 -278 -282q45 -22 133.5 -29.5t279.5 -7.5h77l-54 -335h-67q-172 0 -278.5 21t-179 78t-121.5 166q-229 -116 -318 -215.5t-89 -180.5q0 -98 67.5 -171.5
zM499 732.5q-98 -15.5 -193 -42.5q56 -44 131 -100q63 -47 215 -164q106 55 204.5 114t216.5 136q-172 72 -388 72q-88 0 -186 -15.5zM609.5 1574q-49.5 38 -87.5 54v12l126 159q48 -23 98 -64.5t73 -71.5l-126 -160q-34 33 -83.5 71zM955 1348q-25 -66 -34 -101
q-112 -8 -224.5 -12.5t-174.5 -4.5q-87 0 -128 20t-41 71q0 16 4.5 32.5t14.5 45.5q19 55 24 86h12q0 -33 36 -45.5t120 -12.5q52 0 197.5 4.5t235.5 11.5q-17 -29 -42 -95z" />
    <glyph glyph-name="uni06A1.init" unicode="&#x6a1;" horiz-adv-x="906" 
d="M616 1190q80 -76 122.5 -226.5t42.5 -370.5q0 -211 -77.5 -341t-245.5 -191t-445 -61h-67q-58 0 -58 109q0 111 30 168.5t82 57.5h67q238 0 390 31t219 75t67 85q2 20 2 60q0 109 -33 202l-11 -3q-11 -138 -101.5 -216.5t-244.5 -78.5q-135 0 -206 73t-71 201
q0 137 40.5 251.5t118.5 182.5t185 68q114 0 194 -76zM697 825q-47 100 -130.5 156t-188.5 56q-68 0 -127.5 -27t-95 -65.5t-35.5 -71.5q0 -21 26.5 -47t86.5 -45.5t155 -19.5q174 0 309 64z" />
    <glyph glyph-name="uni06A1.medi" unicode="&#x6a1;" horiz-adv-x="843" 
d="M843 335l-55 -335q-197 0 -297.5 41.5t-132.5 127.5h-6q-33 -63 -82.5 -99.5t-127 -53t-196.5 -16.5q-58 0 -58 109q0 111 30 168.5t82 57.5q65 0 120 3q-26 49 -26 111q0 139 48.5 258.5t131 191t180.5 71.5q83 0 146.5 -45.5t98 -128.5t34.5 -194q0 -79 -21.5 -146
t-63.5 -118q86 -3 195 -3zM172.5 494.5q32.5 -42.5 91.5 -83.5t133 -67q95 20 161 50t98 61.5t32 58.5q0 52 -38.5 102.5t-101 82t-130.5 31.5q-69 0 -133.5 -25t-104.5 -63t-40 -73q0 -32 32.5 -74.5z" />
    <glyph glyph-name="uni06A1.fina" unicode="&#x6a1;" horiz-adv-x="1973" 
d="M1973 335l-55 -335q-190 0 -289 41.5t-130 127.5h-6q-63 -94 -225.5 -137.5t-455.5 -43.5q-245 0 -396.5 50t-221.5 149t-70 251q0 92 17 190.5t64 222.5h22q-18 -62 -25 -112.5t-7 -107.5q0 -89 71.5 -158.5t217.5 -109.5t361 -40q267 0 416 13q-26 49 -26 113
q0 139 48.5 258.5t131 191t179.5 71.5q84 0 147 -45.5t97.5 -128.5t34.5 -194q0 -160 -85 -265q106 -2 185 -2zM1313.5 494.5q32.5 -42.5 91.5 -83.5t133 -67q95 20 161 50t98 61.5t32 58.5q0 52 -39 102.5t-101.5 82t-129.5 31.5q-69 0 -133.5 -25t-104.5 -63t-40 -73
q0 -32 32.5 -74.5z" />
    <glyph glyph-name="uni06A4" unicode="&#x6a4;" horiz-adv-x="1958" arabic-form="isolated" 
d="M1668 1190.5q80 -75.5 122.5 -225t42.5 -366.5q0 -226 -100.5 -359t-322.5 -192.5t-598 -59.5q-245 0 -396.5 50t-221.5 149t-70 251q0 92 17 190.5t64 222.5h22q-18 -62 -25 -112.5t-7 -107.5q0 -89 71.5 -158.5t217.5 -109.5t361 -40q288 0 503.5 30t330 76.5
t117.5 96.5q2 21 2 60q0 115 -35 206l1 -4l-10 -3q-11 -138 -101.5 -216.5t-244.5 -78.5q-135 0 -206.5 73t-71.5 201q0 137 40.5 251.5t119 182.5t185.5 68q113 0 193 -75.5zM1750 825q-48 100 -131.5 156t-188.5 56q-68 0 -127.5 -27t-95 -65.5t-35.5 -71.5
q0 -21 26.5 -47t87 -45.5t155.5 -19.5q174 0 309 64zM1377.5 1814q-49.5 38 -87.5 54v12l126 159q48 -23 98 -64.5t73 -71.5l-126 -160q-34 33 -83.5 71zM1723 1588q-25 -66 -34 -101q-112 -8 -224.5 -12.5t-174.5 -4.5q-87 0 -128 20t-41 71q0 16 4.5 32.5t14.5 45.5
q19 55 24 86h12q0 -33 36 -45.5t120 -12.5q52 0 197.5 4.5t235.5 11.5q-17 -29 -42 -95z" />
    <glyph glyph-name="uni06A9" unicode="&#x6a9;" horiz-adv-x="1798" arabic-form="isolated" 
d="M1449 212.5q-88 -115.5 -266 -170t-452 -54.5q-309 0 -458 112.5t-149 337.5q0 94 16.5 191.5t63.5 221.5h23q-19 -61 -26 -110.5t-7 -109.5q0 -88 67.5 -158t196.5 -110t307 -40q261 0 427.5 26.5t239 62t72.5 65.5t-82.5 100.5t-236 158.5t-355.5 170q26 58 68 169
t60 170q2 8 11 39t25 45t47 26l840 336l11 -5q-48 -84 -85.5 -168.5t-55.5 -151.5l-790 -230v-13q240 -109 364.5 -203t168 -188t43.5 -220q0 -184 -88 -299.5z" />
    <glyph glyph-name="uni06AA.init" unicode="&#x6aa;" horiz-adv-x="2028" 
d="M1730 809q80 -48 126.5 -128t46.5 -170q0 -185 -78 -297.5t-227.5 -163t-375.5 -50.5h-1277q-27 0 -42 27t-15 82q0 111 29.5 168.5t82.5 57.5h1234q318 0 472 27t154 72q0 34 -41.5 80t-116.5 79.5t-170 33.5q-71 0 -216 -7q-171 -8 -339 -12.5t-436 -4.5
q-177 0 -277.5 23t-142.5 70t-42 125q0 115 45 200t122 121l132 60q256 115 373.5 169.5t193 95t110.5 71.5h12q-7 -30 -15 -88q-10 -68 -23 -109t-50.5 -81.5t-111.5 -73.5q-98 -44 -230.5 -89t-353.5 -116l-148 -47q-1 -35 39 -57t134.5 -33.5t255.5 -11.5q271 0 445 5
t330 13q145 7 216 7q95 0 175 -48z" />
    <glyph glyph-name="uni06AA.medi" unicode="&#x6aa;" horiz-adv-x="2105" 
d="M2105 335l-55 -335q-189 0 -196 264q-66 -139 -224 -201.5t-408 -62.5h-1277q-27 0 -42 27t-15 82q0 111 29.5 168.5t82.5 57.5h1234q318 0 472 27t154 72q0 34 -41.5 80t-116.5 79.5t-170 33.5q-71 0 -216 -7q-171 -8 -339 -12.5t-436 -4.5q-177 0 -277.5 23t-142.5 70
t-42 125q0 115 45 200t122 121l132 60q256 115 373.5 169.5t193 95t110.5 71.5h12q-7 -30 -15 -88q-10 -68 -23 -109t-50.5 -81.5t-111.5 -73.5q-98 -44 -230.5 -89t-353.5 -116l-148 -47q-1 -35 39 -57t134.5 -33.5t255.5 -11.5q271 0 445 5t330 13q145 7 216 7
q95 0 175 -48t126.5 -128t46.5 -170q0 -89 -18 -161q59 -15 206 -15h14z" />
    <glyph glyph-name="uni06AA.fina" unicode="&#x6aa;" horiz-adv-x="2476" 
d="M2476 335l-55 -335q-193 0 -197 275q-33 -67 -85.5 -115t-120.5 -72q-150 -54 -472 -77t-813 -23q-172 0 -277.5 38.5t-161.5 95.5t-121 156q-10 15 -27.5 40t-30.5 43v12q127 -28 275 -39t377 -11q460 0 791.5 15.5t501.5 40.5t170 55q0 34 -41 80t-116 79.5t-170 33.5
q-71 0 -216 -7q-171 -8 -339 -12.5t-436 -4.5q-178 0 -278 23t-142 70t-42 125q0 115 45 200t122 121l139 63q358 162 488.5 225.5t181.5 107.5h12q-7 -30 -15 -86q-10 -69 -23 -110.5t-50.5 -82t-111.5 -73.5q-98 -44 -230.5 -89t-353.5 -116l-148 -47q-1 -35 39.5 -57
t134.5 -33.5t255 -11.5q271 0 445 5t330 13q145 7 216 7q95 0 175 -48t127 -128t47 -170q0 -84 -22 -161q66 -15 210 -15h13z" />
    <glyph glyph-name="uni06AC.init" unicode="&#x6ac;" horiz-adv-x="963" 
d="M627.5 210q-74.5 -112 -225 -161t-390.5 -49h-67q-29 0 -43 27.5t-14 81.5q0 112 29 169t83 57h58q211 0 348 21t200 53t63 68q0 30 -83 100.5t-236.5 158.5t-355.5 170q26 57 68 168t61 171q2 8 10.5 39t24.5 45t47 26l840 336l12 -5q-48 -82 -85 -166.5t-57 -153.5
l-791 -230v-13q240 -109 365 -203.5t169 -188t44 -219.5q0 -190 -74.5 -302zM355.5 1655.5q-56.5 46.5 -97.5 63.5v13l147 180q52 -25 109 -75.5t83 -93.5l-158 -170q-27 36 -83.5 82.5z" />
    <glyph glyph-name="uni06AC.medi" unicode="&#x6ac;" horiz-adv-x="1305" 
d="M1047.5 50q-85.5 50 -167.5 154t-220 320h-13q1 -4 1 -12q-11 -181 -73.5 -292t-197.5 -165.5t-365 -54.5h-67q-29 0 -43 27.5t-14 81.5q0 112 29 169t83 57h58q197 0 321 21.5t178 51.5t54 58q0 71 -130 175.5t-487 264.5q26 57 68 168t61 171q2 9 11 40t24.5 45
t46.5 25l961 336l12 -5q-48 -82 -85 -166.5t-57 -153.5l-912 -230v-13q209 -82 349 -170.5t232 -177.5t236 -250q92 -104 173 -147t191 -43l-54 -335q-118 0 -203.5 50zM355.5 1655.5q-56.5 46.5 -97.5 63.5v13l147 180q52 -25 109 -75.5t83 -93.5l-158 -170
q-27 36 -83.5 82.5z" />
    <glyph glyph-name="uni06AC.fina" unicode="&#x6ac;" horiz-adv-x="2141" 
d="M1883 50q-86 50 -168 154t-220 320h-12l2 -12q-13 -185 -82 -298t-229 -169.5t-443 -56.5q-309 0 -458 112.5t-149 337.5q0 94 16.5 191.5t63.5 221.5h23q-19 -61 -26 -110.5t-7 -109.5q0 -88 67.5 -158t196.5 -110t307 -40q254 0 406.5 25.5t214 59t61.5 58.5
q0 71 -130 175.5t-487 264.5q26 58 68 169t60 170q3 9 12 40t24.5 45t46.5 25l961 336l11 -5q-49 -84 -85.5 -169t-54.5 -151l-912 -230v-13q209 -82 349 -170.5t232.5 -178t234.5 -249.5q92 -104 173.5 -147t190.5 -43l-54 -335q-118 0 -204 50zM425.5 1100.5
q-56.5 46.5 -97.5 63.5v13l147 180q52 -25 109 -75.5t83 -93.5l-158 -170q-27 36 -83.5 82.5z" />
    <glyph glyph-name="uni06AF" unicode="&#x6af;" horiz-adv-x="1798" arabic-form="isolated" 
d="M1700 1754l-670 -285l34 90l693 298zM1449 212.5q-88 -115.5 -266 -170t-452 -54.5q-309 0 -458 112.5t-149 337.5q0 94 16.5 191.5t63.5 221.5h23q-19 -61 -26 -110.5t-7 -109.5q0 -88 67.5 -158t196.5 -110t307 -40q261 0 427.5 26.5t239 62t72.5 65.5t-82.5 100.5
t-236 158.5t-355.5 170q26 58 68 169t60 170q2 8 11 39t25 45t47 26l840 336l11 -5q-48 -84 -85.5 -168.5t-55.5 -151.5l-790 -230v-13q240 -109 364.5 -203t168 -188t43.5 -220q0 -184 -88 -299.5z" />
    <glyph glyph-name="uni06B5.init" unicode="&#x6b5;" horiz-adv-x="528" 
d="M358.5 539q-22.5 -125 -65.5 -245t-102 -203q-37 -52 -91 -71.5t-144 -19.5q-29 0 -48.5 29t-19.5 83q0 112 29 167.5t83 55.5q131 0 202 20.5t71 53.5q0 85 -28 289t-64.5 419t-56.5 307q53 53 112 131t105 151h12q0 -27 3 -105t5 -128q10 -241 15 -399.5t5 -308.5
q0 -101 -22.5 -226zM394 2184q8 -30 17 -52q-83 -100 -119.5 -184.5t-59.5 -205.5l-12 -2q-8 114 -69.5 216t-141.5 166q14 20 30 52.5t25 57.5h12q18 -30 40 -57q32 -43 52.5 -75.5t40.5 -81t32 -110.5h11q12 96 33 151t56 116q22 38 32 59h12q1 -20 9 -50z" />
    <glyph glyph-name="uni06B5.medi" unicode="&#x6b5;" horiz-adv-x="708" 
d="M466 2184q8 -30 17 -52q-83 -100 -119.5 -184.5t-59.5 -205.5l-12 -2q-8 114 -69.5 216t-141.5 166q14 20 30 52.5t25 57.5h12q18 -30 40 -57q32 -43 52.5 -75.5t40.5 -81t32 -110.5h11q12 96 33 151t56 116q22 38 32 59h12q1 -20 9 -50zM400.5 83.5
q-96.5 83.5 -96.5 272.5q0 16 2 50h-12q-5 -152 -45 -241t-112 -127t-181 -38q-29 0 -48.5 27.5t-19.5 81.5q0 112 29 169t83 57q125 0 199 32.5t74 87.5q-11 312 -22.5 482t-25.5 263.5t-40 208.5q50 49 104.5 126.5t112.5 170.5h12q0 -54 5 -137q7 -166 7 -278
q0 -98 -6 -326q-6 -242 -6 -366q0 -137 69 -200.5t225 -63.5l-54 -335q-157 0 -253.5 83.5z" />
    <glyph glyph-name="uni06B5.fina" unicode="&#x6b5;" horiz-adv-x="1609" 
d="M1377 64.5q-66 64.5 -68 190.5h-12q1 -143 -29.5 -272t-87.5 -224q-76 -154 -213 -233.5t-349 -79.5q-156 0 -267 61.5t-169 179t-58 284.5q0 261 115 513h23q-62 -166 -62 -330q0 -118 54 -201.5t156 -127t242 -43.5q148 0 280 39.5t211.5 109.5t79.5 156
q-4 175 -26 462t-49 543.5t-42 331.5q54 55 114 134t102 148h13q0 -515 4 -999q1 -41 1 -93q0 -146 64 -212.5t205 -66.5l-54 -335q-112 0 -178 64.5zM791 1147q8 -30 17 -52q-83 -100 -119.5 -184.5t-59.5 -205.5l-12 -2q-8 114 -69.5 216t-141.5 166q14 20 30 52.5
t25 57.5h12q18 -30 40 -57q32 -43 52.5 -75.5t40.5 -81t32 -110.5h11q12 96 33 151t56 116q22 38 32 59h12q1 -20 9 -50z" />
    <glyph glyph-name="uni06BA" unicode="&#x6ba;" horiz-adv-x="1463" arabic-form="isolated" 
d="M1252.5 -90.5q-85.5 -168.5 -242 -255t-368.5 -86.5q-167 0 -283 61.5t-175.5 179t-59.5 283.5q0 258 115 513h24q-63 -165 -63 -330q0 -117 55.5 -200.5t162.5 -127.5t258 -44q179 0 321 51t221.5 130.5t79.5 158.5q0 37 -57.5 118t-169.5 199q34 51 76 136.5t65 155.5
h12q5 -16 11 -32t11 -32q41 -111 66.5 -218.5t25.5 -251.5q0 -240 -85.5 -408.5z" />
    <glyph glyph-name="uni06BD.init" unicode="&#x6bd;" horiz-adv-x="598" 
d="M422 208q-51 -104 -167 -156t-310 -52q-29 0 -43 27.5t-14 81.5q0 112 29 169t83 57q113 0 213.5 13.5t161.5 35t61 46.5q0 22 -37.5 70t-95 103t-113.5 96q34 44 76 130t65 153h12q5 -14 20 -48q47 -106 78.5 -213.5t31.5 -245.5q0 -163 -51 -267zM-185 -312
q25 66 34 101q112 8 224.5 12.5t174.5 4.5q87 0 128 -20t41 -71q0 -16 -4.5 -32.5t-14.5 -45.5q-19 -55 -24 -86h-12q0 33 -36 45.5t-120 12.5q-52 0 -197.5 -4.5t-235.5 -11.5q17 29 42 95zM19 -670q-51 39 -89 55v13l125 157q49 -23 98.5 -64.5t72.5 -71.5l-126 -159
q-30 31 -81 70z" />
    <glyph glyph-name="uni06BD.medi" unicode="&#x6bd;" horiz-adv-x="812" 
d="M543.5 73q-81.5 73 -81.5 247q0 34 5 86h-13q-4 -146 -58 -235t-164 -130t-287 -41q-29 0 -43 27.5t-14 81.5q0 112 29 169t83 57q201 0 299 27.5t140 95t66 211.5h22v-115q0 -109 64.5 -164t220.5 -55l-54 -335q-133 0 -214.5 73zM-173 -312q25 66 34 101
q112 8 224.5 12.5t174.5 4.5q87 0 128 -20t41 -71q0 -16 -4.5 -32.5t-14.5 -45.5q-19 -55 -24 -86h-12q0 33 -36 45.5t-120 12.5q-52 0 -197.5 -4.5t-235.5 -11.5q17 29 42 95zM31 -670q-51 39 -89 55v13l125 157q49 -23 98.5 -64.5t72.5 -71.5l-126 -159q-30 31 -81 70z
" />
    <glyph glyph-name="uni06BD.fina" unicode="&#x6bd;" horiz-adv-x="1569" 
d="M1347 489.5q49 -86.5 102 -120.5t120 -34l-55 -335q-55 0 -99 21t-82 69q-19 -207 -108.5 -351.5t-238.5 -218.5t-344 -74q-167 0 -283 61.5t-175.5 179t-59.5 284.5q0 258 115 513h24q-63 -165 -63 -330q0 -118 55.5 -201t162.5 -127t258 -44q179 0 321 51t221.5 130
t79.5 158q0 32 -46.5 122.5t-132.5 226.5q24 33 59.5 110t59.5 151h13q47 -155 96 -241.5zM594.5 1068q-49.5 38 -87.5 54v12l126 159q48 -23 98 -64.5t73 -71.5l-126 -160q-34 33 -83.5 71zM940 842q-25 -66 -34 -101q-112 -8 -224.5 -12.5t-174.5 -4.5q-87 0 -128 20
t-41 71q0 16 4.5 32.5t14.5 45.5q19 55 24 86h12q0 -33 36 -45.5t120 -12.5q52 0 197.5 4.5t235.5 11.5q-17 -29 -42 -95z" />
    <glyph glyph-name="uni06C1" unicode="&#x6c1;" horiz-adv-x="926" arabic-form="isolated" 
d="M445 1014q102 -61 174.5 -120.5t127 -162.5t54.5 -250q0 -248 -98 -370.5t-301 -122.5q-133 0 -205.5 70t-72.5 191q0 112 42 239.5t130 282.5l-58 25q24 47 56.5 138.5t45.5 142.5h11q24 -22 94 -63zM615 341q74 18 113.5 44.5t39.5 50.5q0 53 -111.5 136t-327.5 183
q-61 -107 -89 -178.5t-28 -124.5q0 -35 26.5 -64t79 -47t127.5 -18q96 0 170 18z" />
    <glyph glyph-name="uni06C2.fina" unicode="&#x6c2;" horiz-adv-x="1226" 
d="M914.5 480.5q33.5 -73.5 109 -109.5t202.5 -36l-55 -335q-216 0 -318 112.5t-102 341.5q0 102 6 172q-146 -86 -340 -224.5t-281 -219.5h-12q17 52 32.5 112t22.5 108q14 12 71 61q143 127 295.5 252t338.5 251h12q-15 -198 -15 -293q0 -119 33.5 -192.5zM723.5 1219
q73.5 10 105.5 21v-12q-16 -24 -31 -61.5t-24 -71.5q-107 -20 -208 -66t-162 -101h-12q16 54 50.5 97.5t82.5 72.5q-59 16 -90 53.5t-31 88.5q0 70 28.5 135.5t76 106t100.5 40.5t86 -37.5t33 -92.5q0 -20 -3 -36t-4 -20h-12q-9 73 -101 73q-50 0 -89 -19.5t-60.5 -46.5
t-21.5 -47q0 -21 18 -41t54.5 -33t87.5 -13q53 0 126.5 10z" />
    <glyph glyph-name="uni06C3.fina" unicode="&#x6c3;" horiz-adv-x="1226" 
d="M914.5 480.5q33.5 -73.5 109 -109.5t202.5 -36l-55 -335q-216 0 -318 112.5t-102 341.5q0 102 6 172q-146 -86 -340 -224.5t-281 -219.5h-12q17 52 32.5 112t22.5 108q14 12 71 61q143 127 295.5 252t338.5 251h12q-15 -198 -15 -293q0 -119 33.5 -192.5zM893.5 1298
q-24.5 -70 -34.5 -108q-112 -8 -224.5 -12.5t-174.5 -4.5q-87 0 -128 20t-41 71q0 16 5 35.5t14 48.5q1 5 10.5 33.5t13.5 57.5h12q0 -33 36 -45.5t120 -12.5q58 0 201 4.5t232 11.5q-17 -29 -41.5 -99z" />
    <glyph glyph-name="uni06C6" unicode="&#x6c6;" horiz-adv-x="1005" arabic-form="isolated" 
d="M713 770.5q81 -74.5 124 -214.5t43 -333q0 -243 -70 -415.5t-186.5 -260.5t-256.5 -88q-74 0 -141.5 21.5t-160.5 62.5q-73 34 -120 48v12q185 27 397.5 112.5t357.5 198.5t145 219q0 89 -18 164l-7 -1q-11 -141 -101 -220.5t-244 -79.5q-151 0 -225.5 84t-74.5 245
q0 140 43 259t121.5 190t180.5 71q112 0 193 -74.5zM644.5 328.5q71.5 14.5 156.5 49.5q-45 108 -128.5 167.5t-196.5 59.5q-68 0 -127.5 -27t-95 -66t-35.5 -73q0 -32 26 -60.5t86 -46.5t157 -18q86 0 157.5 14.5zM679 1441q8 -30 17 -52q-83 -100 -119.5 -184.5
t-59.5 -205.5l-12 -2q-8 114 -69.5 216t-141.5 166q14 20 30 52.5t25 57.5h12q18 -30 40 -57q32 -43 52.5 -75.5t40.5 -81t32 -110.5h11q12 96 33 151t56 116q22 38 32 59h12q1 -20 9 -50z" />
    <glyph glyph-name="uni06C9" unicode="&#x6c9;" horiz-adv-x="1005" arabic-form="isolated" 
d="M350 1014q-11 28 -26 59.5t-29 50.5q80 64 141 166t69 216l13 -2q22 -121 58.5 -205.5t120.5 -184.5q-9 -22 -17 -52t-9 -50h-12q-10 20 -32 58q-35 60 -56.5 115.5t-33.5 152.5h-11q-17 -89 -48 -148t-77 -119q-5 -7 -18 -25t-21 -32h-12zM713 770.5
q81 -74.5 124 -214.5t43 -333q0 -243 -70 -415.5t-186.5 -260.5t-256.5 -88q-74 0 -141.5 21.5t-160.5 62.5q-73 34 -120 48v12q185 27 397.5 112.5t357.5 198.5t145 219q0 89 -18 164l-7 -1q-11 -141 -101 -220.5t-244 -79.5q-151 0 -225.5 84t-74.5 245q0 140 43 259
t121.5 190t180.5 71q112 0 193 -74.5zM644.5 328.5q71.5 14.5 156.5 49.5q-45 108 -128.5 167.5t-196.5 59.5q-68 0 -127.5 -27t-95 -66t-35.5 -73q0 -32 26 -60.5t86 -46.5t157 -18q86 0 157.5 14.5z" />
    <glyph glyph-name="uniFBFC" unicode="&#x6cc;" horiz-adv-x="1473" arabic-form="isolated" 
d="M1280.5 1104q57.5 -60 57.5 -159q0 -61 -22 -127h-12q0 49 -60.5 77.5t-153.5 28.5q-114 0 -212.5 -50t-157 -120.5t-58.5 -127.5q0 -58 71.5 -84t203.5 -31l133 -5q111 -4 173 -29t89 -78.5t27 -146.5q0 -213 -84.5 -367t-245.5 -235.5t-387 -81.5q-252 0 -385 135.5
t-133 388.5q0 261 115 513h23q-62 -166 -62 -330q0 -179 123.5 -275.5t352.5 -96.5q220 0 365 41.5t211.5 101t66.5 115.5q0 16 -22 26t-79.5 16.5t-165.5 10.5l-137 5q-112 4 -178 26.5t-98 75.5t-32 147q0 152 73 315.5t192.5 272t250.5 108.5q100 0 157.5 -60z" />
    <glyph glyph-name="uni06CE.init" unicode="&#x6ce;" horiz-adv-x="598" 
d="M422 208q-51 -104 -167 -156t-310 -52q-29 0 -43 27.5t-14 81.5q0 112 29 169t83 57q113 0 213.5 13.5t161.5 35t61 46.5q0 22 -37.5 70t-95 103t-113.5 96q34 44 76 130t65 153h12q5 -14 20 -48q47 -106 78.5 -213.5t31.5 -245.5q0 -163 -51 -267zM397 1532
q8 -30 17 -52q-83 -100 -119.5 -184.5t-59.5 -205.5l-12 -2q-8 114 -69.5 216t-141.5 166q14 20 30 52.5t25 57.5h12q18 -30 40 -57q32 -43 52.5 -75.5t40.5 -81t32 -110.5h11q12 96 33 151t56 116q22 38 32 59h12q1 -20 9 -50zM-188.5 -319q24.5 70 34.5 108
q112 8 224.5 12.5t174.5 4.5q87 0 128 -20t41 -71q0 -16 -5 -35.5t-14 -48.5q-1 -5 -10.5 -33.5t-13.5 -57.5h-12q0 33 -36 45.5t-120 12.5q-58 0 -201 -4.5t-232 -11.5q17 29 41.5 99z" />
    <glyph glyph-name="uni06CE.medi" unicode="&#x6ce;" horiz-adv-x="812" 
d="M543.5 73q-81.5 73 -81.5 247q0 34 5 86h-13q-4 -146 -58 -235t-164 -130t-287 -41q-29 0 -43 27.5t-14 81.5q0 112 29 169t83 57q201 0 299 27.5t140 95t66 211.5h22v-115q0 -109 64.5 -164t220.5 -55l-54 -335q-133 0 -214.5 73zM531 1266q8 -30 17 -52
q-83 -100 -119.5 -184.5t-59.5 -205.5l-12 -2q-8 114 -69.5 216t-141.5 166q14 20 30 52.5t25 57.5h12q18 -30 40 -57q32 -43 52.5 -75.5t40.5 -81t32 -110.5h11q12 96 33 151t56 116q22 38 32 59h12q1 -20 9 -50zM-173.5 -319q24.5 70 34.5 108q112 8 224.5 12.5t174.5 4.5
q87 0 128 -20t41 -71q0 -16 -5 -35.5t-14 -48.5q-1 -5 -10.5 -33.5t-13.5 -57.5h-12q0 33 -36 45.5t-120 12.5q-58 0 -201 -4.5t-232 -11.5q17 29 41.5 99z" />
    <glyph glyph-name="uni06CE.fina" unicode="&#x6ce;" horiz-adv-x="1450" 
d="M1395 0q-27 0 -42 2q5 -25 5 -43q0 -271 -180 -416t-536 -145q-167 0 -283 61.5t-175.5 179t-59.5 283.5q0 125 26.5 252t77.5 240h24q-26 -75 -39 -156t-13 -153q0 -117 55.5 -200.5t162.5 -127.5t258 -44q219 0 363.5 34.5t211.5 80t67 76.5q0 28 -52 46.5t-128.5 29.5
t-200.5 24q-105 11 -176.5 21t-118.5 24v12q51 70 92 138.5t70 141.5q101 -17 234.5 -21.5t411.5 -4.5zM685 763q8 -30 17 -52q-83 -100 -119.5 -184.5t-59.5 -205.5l-12 -2q-8 114 -69.5 216t-141.5 166q14 20 30 52.5t25 57.5h12q18 -30 40 -57q32 -43 52.5 -75.5
t40.5 -81t32 -110.5h11q12 96 33 151t56 116q22 38 32 59h12q1 -20 9 -50z" />
    <glyph glyph-name="uni06CF.fina" unicode="&#x6cf;" horiz-adv-x="1023" 
d="M968 0h-106q-29 -174 -102 -296t-174.5 -183.5t-218.5 -61.5q-74 0 -141.5 21.5t-160.5 62.5q-73 34 -120 48v12q155 22 335 88t326 156t205 183q-78 -18 -157 -26t-179 -8q-151 0 -225.5 84t-74.5 245q0 140 43 259t121.5 190t180.5 71q100 0 176 -60.5t122 -175
t58 -274.5h147zM244 378.5q26 -28.5 86 -46.5t157 -18q213 0 333 9q-38 132 -128 207t-216 75q-68 0 -127.5 -27t-95 -66t-35.5 -73q0 -32 26 -60.5zM425.5 1119.5q-56.5 46.5 -97.5 63.5v13l147 180q52 -25 109 -75.5t83 -93.5l-158 -170q-27 36 -83.5 82.5z" />
    <glyph glyph-name="uni06D2" unicode="&#x6d2;" horiz-adv-x="1621" arabic-form="isolated" 
d="M1204.5 337q184.5 2 301.5 10v-12q-54 -65 -131.5 -171t-106.5 -164q-51 5 -171 5q-117 0 -234 -3q-140 -2 -190 -2q-233 0 -351 30.5t-158 90t-40 164.5q0 152 71.5 315.5t189 272t246.5 108.5q100 0 158.5 -60t58.5 -159q0 -60 -22 -126h-12q-13 49 -67.5 71.5
t-155.5 22.5q-110 0 -205 -48t-151 -115.5t-56 -118.5q0 -47 121 -80t416 -33q304 0 488.5 2z" />
    <glyph glyph-name="uniFBB0" unicode="&#x6d3;" horiz-adv-x="1496" arabic-form="isolated" 
d="M329.5 1166.5q34.5 43.5 81.5 73.5q-58 16 -89 53.5t-31 88.5q0 70 28.5 135t75.5 106t100 41q54 0 87 -38t33 -93q0 -19 -3 -35t-4 -20h-12q-9 73 -101 73q-50 0 -89 -19.5t-60.5 -46.5t-21.5 -47q0 -21 18.5 -41t54.5 -33.5t87 -13.5q54 0 127.5 10.5t103.5 21.5v-12
q-16 -25 -31.5 -62.5t-22.5 -70.5q-107 -20 -208 -66t-162 -101h-12q16 53 50.5 96.5zM1204.5 337q184.5 2 301.5 10v-12q-54 -65 -131.5 -171t-106.5 -164q-51 5 -171 5q-117 0 -234 -3q-140 -2 -190 -2q-233 0 -351 30.5t-158 90t-40 164.5q0 152 71.5 315.5t189 272
t246.5 108.5q100 0 158.5 -60t58.5 -159q0 -60 -22 -126h-12q-13 49 -67.5 71.5t-155.5 22.5q-110 0 -205 -48t-151 -115.5t-56 -118.5q0 -47 121 -80t416 -33q304 0 488.5 2z" />
    <glyph glyph-name="uni06D5.fina" unicode="&#x6d5;" horiz-adv-x="1136" 
d="M946 405.5q64 -70.5 190 -70.5l-54 -335q-113 0 -188 46.5t-116.5 153t-47.5 285.5h-12q-20 -196 -101 -286t-242 -90q-124 0 -187.5 57.5t-63.5 163.5q0 102 46 188t163.5 186t335.5 236q-11 65 -20 102q45 35 99.5 95.5t92.5 122.5h8q2 -22 4 -32q13 -108 21 -238.5
t8 -364.5q0 -149 64 -219.5zM623.5 469.5q83.5 35.5 83.5 99.5q0 101 -23 271q-256 -127 -359.5 -206t-103.5 -120q0 -42 41 -61t146 -19q132 0 215.5 35.5z" />
    <glyph glyph-name="uniFB51" unicode="&#x671;" horiz-adv-x="620" arabic-form="final" 
d="M437.5 1731q-65.5 -46 -177.5 -46q-63 0 -111.5 21.5t-69.5 57.5q-15 -21 -57 -51t-69 -40l11 84q39 22 77 52.5t59 58.5h6q6 -33 34 -54q70 109 128 154.5t112 45.5t88.5 -38t34.5 -105q0 -94 -65.5 -140zM259 1890.5q-52 -33.5 -93 -90.5q39 -15 105 -15
q106 0 157.5 14.5t51.5 40.5q0 15 -13.5 35t-40 34.5t-63.5 14.5q-52 0 -104 -33.5zM395 398.5q69 -63.5 225 -63.5l-54 -335q-136 0 -215.5 41.5t-119 140t-45.5 273.5q-9 269 -19.5 423.5t-22.5 237t-33 194.5q53 53 113 132.5t103 149.5h13l1 -137q2 -140 2 -276
q0 -89 -8 -261q-1 -16 -5 -112.5t-4 -206.5q0 -137 69 -200.5z" />
    <glyph glyph-name="uniFB57" unicode="&#x67e;" horiz-adv-x="2014" arabic-form="final" 
d="M1739.5 78q-75.5 78 -75.5 230q0 60 11 140h-12q-47 -163 -155 -264.5t-279.5 -148.5t-416.5 -47t-396.5 50t-221.5 149t-70 251q0 92 17 190.5t64 222.5h22q-18 -62 -25 -112.5t-7 -107.5q0 -89 71.5 -158.5t217.5 -109.5t361 -40q381 0 591.5 70t281.5 221h17
q-6 -52 -6 -91q0 -85 67 -136.5t218 -51.5l-54 -335q-145 0 -220.5 78zM582 -312q25 66 34 101q112 8 224.5 12.5t174.5 4.5q87 0 128 -20t41 -71q0 -16 -4.5 -32.5t-14.5 -45.5q-19 -55 -24 -86h-12q0 33 -36 45.5t-120 12.5q-52 0 -197.5 -4.5t-235.5 -11.5q17 29 42 95z
M786 -670q-51 39 -89 55v13l125 157q49 -23 98.5 -64.5t72.5 -71.5l-126 -159q-30 31 -81 70z" />
    <glyph glyph-name="uniFB58" unicode="&#x67e;" horiz-adv-x="598" arabic-form="initial" 
d="M422 208q-51 -104 -167 -156t-310 -52q-29 0 -43 27.5t-14 81.5q0 112 29 169t83 57q113 0 213.5 13.5t161.5 35t61 46.5q0 22 -37.5 70t-95 103t-113.5 96q34 44 76 130t65 153h12q5 -14 20 -48q47 -106 78.5 -213.5t31.5 -245.5q0 -163 -51 -267zM-188 -312
q25 66 34 101q112 8 224.5 12.5t174.5 4.5q87 0 128 -20t41 -71q0 -16 -4.5 -32.5t-14.5 -45.5q-19 -55 -24 -86h-12q0 33 -36 45.5t-120 12.5q-52 0 -197.5 -4.5t-235.5 -11.5q17 29 42 95zM16 -670q-51 39 -89 55v13l125 157q49 -23 98.5 -64.5t72.5 -71.5l-126 -159
q-30 31 -81 70z" />
    <glyph glyph-name="uniFB59" unicode="&#x67e;" horiz-adv-x="812" arabic-form="medial" 
d="M543.5 73q-81.5 73 -81.5 247q0 34 5 86h-13q-4 -146 -58 -235t-164 -130t-287 -41q-29 0 -43 27.5t-14 81.5q0 112 29 169t83 57q201 0 299 27.5t140 95t66 211.5h22v-115q0 -109 64.5 -164t220.5 -55l-54 -335q-133 0 -214.5 73zM-173 -312q25 66 34 101
q112 8 224.5 12.5t174.5 4.5q87 0 128 -20t41 -71q0 -16 -4.5 -32.5t-14.5 -45.5q-19 -55 -24 -86h-12q0 33 -36 45.5t-120 12.5q-52 0 -197.5 -4.5t-235.5 -11.5q17 29 42 95zM31 -670q-51 39 -89 55v13l125 157q49 -23 98.5 -64.5t72.5 -71.5l-126 -159q-30 31 -81 70z
" />
    <glyph glyph-name="uniFB67" unicode="&#x679;" horiz-adv-x="2014" arabic-form="final" 
d="M1739.5 78q-75.5 78 -75.5 230q0 60 11 140h-12q-47 -163 -155 -264.5t-279.5 -148.5t-416.5 -47t-396.5 50t-221.5 149t-70 251q0 92 17 190.5t64 222.5h22q-18 -62 -25 -112.5t-7 -107.5q0 -89 71.5 -158.5t217.5 -109.5t361 -40q381 0 591.5 70t281.5 221h17
q-6 -52 -6 -91q0 -85 67 -136.5t218 -51.5l-54 -335q-145 0 -220.5 78zM1111.5 1003q34.5 -38 34.5 -105q0 -94 -65.5 -140t-178.5 -46q-55 0 -90.5 11t-55 27t-41.5 42q-20 23 -25 27v13q42 -10 80 -14q26 40 42.5 85.5t16.5 106.5q0 44 -6 82t-19 102q47 47 70 106h13
q0 -22 4 -88q4 -68 4 -96q0 -61 -12 -103.5t-54 -110.5q47 67 96.5 103t98.5 36q53 0 87.5 -38zM1071 826.5q52 14.5 52 39.5q0 16 -13.5 36t-40 34.5t-63.5 14.5q-54 0 -108.5 -37t-96.5 -99q47 -3 112 -3q106 0 158 14.5z" />
    <glyph glyph-name="uniFB68" unicode="&#x679;" horiz-adv-x="598" arabic-form="initial" 
d="M422 208q-51 -104 -167 -156t-310 -52q-29 0 -43 27.5t-14 81.5q0 112 29 169t83 57q113 0 213.5 13.5t161.5 35t61 46.5q0 22 -37.5 70t-95 103t-113.5 96q34 44 76 130t65 153h12q5 -14 20 -48q47 -106 78.5 -213.5t31.5 -245.5q0 -163 -51 -267zM385.5 1403
q34.5 -38 34.5 -105q0 -94 -65.5 -140t-178.5 -46q-55 0 -90.5 11t-55 27t-41.5 42q-20 23 -25 27v13q42 -10 80 -14q26 40 42.5 85.5t16.5 106.5q0 44 -6 82t-19 102q47 47 70 106h13q0 -22 4 -88q4 -68 4 -96q0 -61 -12 -103.5t-54 -110.5q47 67 96.5 103t98.5 36
q53 0 87.5 -38zM345 1226.5q52 14.5 52 39.5q0 16 -13.5 36t-40 34.5t-63.5 14.5q-54 0 -108.5 -37t-96.5 -99q47 -3 112 -3q106 0 158 14.5z" />
    <glyph glyph-name="uniFB69" unicode="&#x679;" horiz-adv-x="812" arabic-form="medial" 
d="M543.5 73q-81.5 73 -81.5 247q0 34 5 86h-13q-4 -146 -58 -235t-164 -130t-287 -41q-29 0 -43 27.5t-14 81.5q0 112 29 169t83 57q201 0 299 27.5t140 95t66 211.5h22v-115q0 -109 64.5 -164t220.5 -55l-54 -335q-133 0 -214.5 73zM519.5 1137q34.5 -38 34.5 -105
q0 -94 -65.5 -140t-178.5 -46q-55 0 -90.5 11t-55 27t-41.5 42q-20 23 -25 27v13q42 -10 80 -14q26 40 42.5 85.5t16.5 106.5q0 44 -6 82t-19 102q47 47 70 106h13q0 -22 4 -88q4 -68 4 -96q0 -61 -12 -103.5t-54 -110.5q47 67 96.5 103t98.5 36q53 0 87.5 -38zM479 960.5
q52 14.5 52 39.5q0 16 -13.5 36t-40 34.5t-63.5 14.5q-54 0 -108.5 -37t-96.5 -99q47 -3 112 -3q106 0 158 14.5z" />
    <glyph glyph-name="uniFB6B" unicode="&#x6a4;" horiz-adv-x="1973" arabic-form="final" 
d="M1973 335l-55 -335q-190 0 -289 41.5t-130 127.5h-6q-63 -94 -225.5 -137.5t-455.5 -43.5q-245 0 -396.5 50t-221.5 149t-70 251q0 92 17 190.5t64 222.5h22q-18 -62 -25 -112.5t-7 -107.5q0 -89 71.5 -158.5t217.5 -109.5t361 -40q267 0 416 13q-26 49 -26 113
q0 139 48.5 258.5t131 191t179.5 71.5q84 0 147 -45.5t97.5 -128.5t34.5 -194q0 -160 -85 -265q106 -2 185 -2zM1313.5 494.5q32.5 -42.5 91.5 -83.5t133 -67q95 20 161 50t98 61.5t32 58.5q0 52 -39 102.5t-101.5 82t-129.5 31.5q-69 0 -133.5 -25t-104.5 -63t-40 -73
q0 -32 32.5 -74.5zM1518.5 1538q-49.5 38 -87.5 54v12l126 159q48 -23 98 -64.5t73 -71.5l-126 -160q-34 33 -83.5 71zM1864 1312q-25 -66 -34 -101q-112 -8 -224.5 -12.5t-174.5 -4.5q-87 0 -128 20t-41 71q0 16 4.5 32.5t14.5 45.5q19 55 24 86h12q0 -33 36 -45.5
t120 -12.5q52 0 197.5 4.5t235.5 11.5q-17 -29 -42 -95z" />
    <glyph glyph-name="uniFB6C" unicode="&#x6a4;" horiz-adv-x="906" arabic-form="initial" 
d="M616 1190q80 -76 122.5 -226.5t42.5 -370.5q0 -211 -77.5 -341t-245.5 -191t-445 -61h-67q-58 0 -58 109q0 111 30 168.5t82 57.5h67q238 0 390 31t219 75t67 85q2 20 2 60q0 109 -33 202l-11 -3q-11 -138 -101.5 -216.5t-244.5 -78.5q-135 0 -206 73t-71 201
q0 137 40.5 251.5t118.5 182.5t185 68q114 0 194 -76zM697 825q-47 100 -130.5 156t-188.5 56q-68 0 -127.5 -27t-95 -65.5t-35.5 -71.5q0 -21 26.5 -47t86.5 -45.5t155 -19.5q174 0 309 64zM327.5 1814q-49.5 38 -87.5 54v12l126 159q48 -23 98 -64.5t73 -71.5l-126 -160
q-34 33 -83.5 71zM673 1588q-25 -66 -34 -101q-112 -8 -224.5 -12.5t-174.5 -4.5q-87 0 -128 20t-41 71q0 16 4.5 32.5t14.5 45.5q19 55 24 86h12q0 -33 36 -45.5t120 -12.5q52 0 197.5 4.5t235.5 11.5q-17 -29 -42 -95z" />
    <glyph glyph-name="uniFB6D" unicode="&#x6a4;" horiz-adv-x="843" arabic-form="medial" 
d="M843 335l-55 -335q-197 0 -297.5 41.5t-132.5 127.5h-6q-33 -63 -82.5 -99.5t-127 -53t-196.5 -16.5q-58 0 -58 109q0 111 30 168.5t82 57.5q65 0 120 3q-26 49 -26 111q0 139 48.5 258.5t131 191t180.5 71.5q83 0 146.5 -45.5t98 -128.5t34.5 -194q0 -79 -21.5 -146
t-63.5 -118q86 -3 195 -3zM172.5 494.5q32.5 -42.5 91.5 -83.5t133 -67q95 20 161 50t98 61.5t32 58.5q0 52 -38.5 102.5t-101 82t-130.5 31.5q-69 0 -133.5 -25t-104.5 -63t-40 -73q0 -32 32.5 -74.5zM381.5 1538q-49.5 38 -87.5 54v12l126 159q48 -23 98 -64.5t73 -71.5
l-126 -160q-34 33 -83.5 71zM727 1312q-25 -66 -34 -101q-112 -8 -224.5 -12.5t-174.5 -4.5q-87 0 -128 20t-41 71q0 16 4.5 32.5t14.5 45.5q19 55 24 86h12q0 -33 36 -45.5t120 -12.5q52 0 197.5 4.5t235.5 11.5q-17 -29 -42 -95z" />
    <glyph glyph-name="uniFB7B" unicode="&#x686;" horiz-adv-x="1477" arabic-form="final" 
d="M1477 335l-54 -335h-34q-138 0 -217 33.5t-113 107.5t-34 201q0 64 7 120q-272 -67 -466 -154t-296 -186.5t-102 -204.5q0 -103 90.5 -189t245.5 -136t340 -50q131 0 272.5 9t239.5 28v-13q-26 -21 -76 -65q-88 -78 -160.5 -128t-182.5 -86.5t-255 -36.5
q-167 0 -293.5 67t-195.5 191t-69 288q0 211 83 360t263 257t481 192v12q-44 5 -98.5 20.5t-142.5 45.5q-109 37 -179.5 56t-126.5 19q-74 0 -128 -32t-90 -98h-12q40 155 82 237.5t89.5 112.5t113.5 30t146.5 -24t213.5 -74q171 -64 293 -99.5t248 -40.5v-12
q-38 -35 -90.5 -113.5t-81.5 -146.5l-135 -30q7 -50 45.5 -78.5t121 -41.5t224.5 -13h33zM883.5 -35.5q-30.5 10.5 -104.5 10.5q-48 0 -173 -3.5t-202 -8.5q15 24 37 81t29 88q95 7 191 10t155 3q75 0 110.5 -17t35.5 -61q0 -18 -7.5 -40.5t-8.5 -26.5q-17 -47 -21 -75h-11
q0 29 -30.5 39.5zM734.5 -127q43.5 -36 63.5 -62l-110 -137q-28 27 -71 60t-76 48v10l107 137q43 -20 86.5 -56z" />
    <glyph glyph-name="uniFB7C" unicode="&#x686;" horiz-adv-x="1394" arabic-form="initial" 
d="M88 -312q25 66 34 101q112 8 224.5 12.5t174.5 4.5q87 0 128 -20t41 -71q0 -16 -4.5 -32.5t-14.5 -45.5q-19 -55 -24 -86h-12q0 33 -36 45.5t-120 12.5q-52 0 -197.5 -4.5t-235.5 -11.5q17 29 42 95zM292 -670q-51 39 -89 55v13l125 157q49 -23 98.5 -64.5t72.5 -71.5
l-126 -159q-30 31 -81 70zM522 926q78 -23 215 -74q169 -64 295.5 -100t256.5 -41v-12q-28 -26 -75 -92t-72 -115q-67 0 -125 -22.5t-106 -56.5t-122 -96q-115 -97 -214.5 -161t-256.5 -110t-373 -46q-29 0 -43 27.5t-14 81.5q0 112 29 169t83 57q252 0 422 20t267 47.5
t206 70.5q77 30 113 41v12q-106 19 -197 45t-197 61q-109 35 -171.5 51t-118.5 16q-74 0 -128 -32t-90 -98h-12q40 155 82 237.5t90 112.5t113 30t143 -23z" />
    <glyph glyph-name="uniFB7D" unicode="&#x686;" horiz-adv-x="1357" arabic-form="medial" 
d="M88 -312q25 66 34 101q112 8 224.5 12.5t174.5 4.5q87 0 128 -20t41 -71q0 -16 -4.5 -32.5t-14.5 -45.5q-19 -55 -24 -86h-12q0 33 -36 45.5t-120 12.5q-52 0 -197.5 -4.5t-235.5 -11.5q17 29 42 95zM292 -670q-51 39 -89 55v13l125 157q49 -23 98.5 -64.5t72.5 -71.5
l-126 -159q-30 31 -81 70zM1357 335l-55 -335h-26q-135 0 -208.5 28.5t-104 92.5t-30.5 178q0 46 9 134q-34 -21 -66.5 -46.5t-86.5 -69.5q-117 -98 -216 -161.5t-255.5 -109.5t-372.5 -46q-29 0 -43 27.5t-14 81.5q0 112 29 169t83 57q252 0 422 20t267 47.5t206 70.5
q77 30 113 41v12q-106 19 -197 45t-197 61q-109 35 -171.5 51t-118.5 16q-74 0 -128 -32t-90 -98h-12q40 155 82 237.5t90 112.5t113 30t143 -23t215 -74q169 -64 295.5 -100t256.5 -41v-12q-28 -26 -75 -92t-72 -115q-91 0 -176 -45q15 -46 57 -70t114 -33t193 -9h27z" />
    <glyph glyph-name="uniFB89" unicode="&#x688;" horiz-adv-x="1261" arabic-form="final" 
d="M961.5 111q-99.5 111 -135.5 358h-12q-16 -240 -120 -360.5t-301 -120.5q-138 0 -208 71.5t-70 210.5q0 79 23 242h19q-2 -74 21 -114.5t78.5 -57.5t157.5 -17q106 0 189.5 21t130.5 56t47 75q0 25 -21.5 108.5t-57.5 185t-79 183.5q33 40 93.5 150t68.5 144h12
q12 -57 35.5 -149.5t57.5 -223.5l65 -248q40 -157 112.5 -223.5t193.5 -66.5l-55 -335q-145 0 -244.5 111zM921.5 1688q34.5 -38 34.5 -105q0 -94 -65.5 -140t-178.5 -46q-55 0 -90.5 11t-55 27t-41.5 42q-20 23 -25 27v13q42 -10 80 -14q26 40 42.5 85.5t16.5 106.5
q0 44 -6 82t-19 102q47 47 70 106h13q0 -22 4 -88q4 -68 4 -96q0 -61 -12 -103.5t-54 -110.5q47 67 96.5 103t98.5 36q53 0 87.5 -38zM881 1511.5q52 14.5 52 39.5q0 16 -13.5 36t-40 34.5t-63.5 14.5q-54 0 -108.5 -37t-96.5 -99q47 -3 112 -3q106 0 158 14.5z" />
    <glyph glyph-name="uniFB8B" unicode="&#x698;" horiz-adv-x="945" arabic-form="final" 
d="M891 0q-79 0 -144 45q-21 -183 -88 -315.5t-165.5 -201.5t-213.5 -69q-69 0 -129 21.5t-142 62.5q-74 36 -103 46v12q159 32 333 113.5t305.5 179.5t171.5 175q-117 102 -226 379q25 34 60 111t59 150h12q43 -144 92.5 -226t105.5 -115t126 -33zM524.5 1220
q-49.5 38 -87.5 54v12l126 159q48 -23 98 -64.5t73 -71.5l-126 -160q-34 33 -83.5 71zM870 994q-25 -66 -34 -101q-112 -8 -224.5 -12.5t-174.5 -4.5q-87 0 -128 20t-41 71q0 16 4.5 32.5t14.5 45.5q19 55 24 86h12q0 -33 36 -45.5t120 -12.5q52 0 197.5 4.5t235.5 11.5
q-17 -29 -42 -95z" />
    <glyph glyph-name="uniFB8D" unicode="&#x691;" horiz-adv-x="945" arabic-form="final" 
d="M891 0q-79 0 -144 45q-21 -183 -88 -315.5t-165.5 -201.5t-213.5 -69q-69 0 -129 21.5t-142 62.5q-74 36 -103 46v12q159 32 333 113.5t305.5 179.5t171.5 175q-117 102 -226 379q25 34 60 111t59 150h12q43 -144 92.5 -226t105.5 -115t126 -33zM755.5 1155
q34.5 -38 34.5 -105q0 -94 -65.5 -140t-178.5 -46q-55 0 -90.5 11t-55 27t-41.5 42q-20 23 -25 27v13q42 -10 80 -14q26 40 42.5 85.5t16.5 106.5q0 44 -6 82t-19 102q47 47 70 106h13q0 -22 4 -88q4 -68 4 -96q0 -61 -12 -103.5t-54 -110.5q47 67 96.5 103t98.5 36
q53 0 87.5 -38zM715 978.5q52 14.5 52 39.5q0 16 -13.5 36t-40 34.5t-63.5 14.5q-54 0 -108.5 -37t-96.5 -99q47 -3 112 -3q106 0 158 14.5z" />
    <glyph glyph-name="uniFB8F" unicode="&#x6a9;" horiz-adv-x="2141" arabic-form="final" 
d="M1883 50q-86 50 -168 154t-220 320h-12l2 -12q-13 -185 -82 -298t-229 -169.5t-443 -56.5q-309 0 -458 112.5t-149 337.5q0 94 16.5 191.5t63.5 221.5h23q-19 -61 -26 -110.5t-7 -109.5q0 -88 67.5 -158t196.5 -110t307 -40q254 0 406.5 25.5t214 59t61.5 58.5
q0 71 -130 175.5t-487 264.5q26 58 68 169t60 170q3 9 12 40t24.5 45t46.5 25l961 336l11 -5q-49 -84 -85.5 -169t-54.5 -151l-912 -230v-13q209 -82 349 -170.5t232.5 -178t234.5 -249.5q92 -104 173.5 -147t190.5 -43l-54 -335q-118 0 -204 50z" />
    <glyph glyph-name="uniFB90" unicode="&#x6a9;" horiz-adv-x="963" arabic-form="initial" 
d="M627.5 210q-74.5 -112 -225 -161t-390.5 -49h-67q-29 0 -43 27.5t-14 81.5q0 112 29 169t83 57h58q211 0 348 21t200 53t63 68q0 30 -83 100.5t-236.5 158.5t-355.5 170q26 57 68 168t61 171q2 8 10.5 39t24.5 45t47 26l840 336l12 -5q-48 -82 -85 -166.5t-57 -153.5
l-791 -230v-13q240 -109 365 -203.5t169 -188t44 -219.5q0 -190 -74.5 -302z" />
    <glyph glyph-name="uniFB91" unicode="&#x6a9;" horiz-adv-x="1305" arabic-form="medial" 
d="M1047.5 50q-85.5 50 -167.5 154t-220 320h-13q1 -4 1 -12q-11 -181 -73.5 -292t-197.5 -165.5t-365 -54.5h-67q-29 0 -43 27.5t-14 81.5q0 112 29 169t83 57h58q197 0 321 21.5t178 51.5t54 58q0 71 -130 175.5t-487 264.5q26 57 68 168t61 171q2 9 11 40t24.5 45
t46.5 25l961 336l12 -5q-48 -82 -85 -166.5t-57 -153.5l-912 -230v-13q209 -82 349 -170.5t232 -177.5t236 -250q92 -104 173 -147t191 -43l-54 -335q-118 0 -203.5 50z" />
    <glyph glyph-name="uniFB93" unicode="&#x6af;" horiz-adv-x="2141" arabic-form="final" 
d="M1821 1754l-791 -287l34 90l814 300zM1883 50q-86 50 -168 154t-220 320h-12l2 -12q-13 -185 -82 -298t-229 -169.5t-443 -56.5q-309 0 -458 112.5t-149 337.5q0 94 16.5 191.5t63.5 221.5h23q-19 -61 -26 -110.5t-7 -109.5q0 -88 67.5 -158t196.5 -110t307 -40
q254 0 406.5 25.5t214 59t61.5 58.5q0 71 -130 175.5t-487 264.5q26 58 68 169t60 170q3 9 12 40t24.5 45t46.5 25l961 336l11 -5q-49 -84 -85.5 -169t-54.5 -151l-912 -230v-13q209 -82 349 -170.5t232.5 -178t234.5 -249.5q92 -104 173.5 -147t190.5 -43l-54 -335
q-118 0 -204 50z" />
    <glyph glyph-name="uniFB94" unicode="&#x6af;" horiz-adv-x="963" arabic-form="initial" 
d="M885 1754l-670 -285l34 90l693 298zM627.5 210q-74.5 -112 -225 -161t-390.5 -49h-67q-29 0 -43 27.5t-14 81.5q0 112 29 169t83 57h58q211 0 348 21t200 53t63 68q0 30 -83 100.5t-236.5 158.5t-355.5 170q26 57 68 168t61 171q2 8 10.5 39t24.5 45t47 26l840 336l12 -5
q-48 -82 -85 -166.5t-57 -153.5l-791 -230v-13q240 -109 365 -203.5t169 -188t44 -219.5q0 -190 -74.5 -302z" />
    <glyph glyph-name="uniFB95" unicode="&#x6af;" horiz-adv-x="1305" arabic-form="medial" 
d="M1006 1754l-791 -287l34 90l814 300zM1047.5 50q-85.5 50 -167.5 154t-220 320h-13q1 -4 1 -12q-11 -181 -73.5 -292t-197.5 -165.5t-365 -54.5h-67q-29 0 -43 27.5t-14 81.5q0 112 29 169t83 57h58q197 0 321 21.5t178 51.5t54 58q0 71 -130 175.5t-487 264.5
q26 57 68 168t61 171q2 9 11 40t24.5 45t46.5 25l961 336l12 -5q-48 -82 -85 -166.5t-57 -153.5l-912 -230v-13q209 -82 349 -170.5t232 -177.5t236 -250q92 -104 173 -147t191 -43l-54 -335q-118 0 -203.5 50z" />
    <glyph glyph-name="uniFB9F" unicode="&#x6ba;" horiz-adv-x="1569" arabic-form="final" 
d="M1347 489.5q49 -86.5 102 -120.5t120 -34l-55 -335q-55 0 -99 21t-82 69q-19 -207 -108.5 -351.5t-238.5 -218.5t-344 -74q-167 0 -283 61.5t-175.5 179t-59.5 284.5q0 258 115 513h24q-63 -165 -63 -330q0 -118 55.5 -201t162.5 -127t258 -44q179 0 321 51t221.5 130
t79.5 158q0 32 -46.5 122.5t-132.5 226.5q24 33 59.5 110t59.5 151h13q47 -155 96 -241.5z" />
    <glyph glyph-name="uniFBA7" unicode="&#x6c1;" horiz-adv-x="1226" arabic-form="final" 
d="M914.5 480.5q33.5 -73.5 109 -109.5t202.5 -36l-55 -335q-216 0 -318 112.5t-102 341.5q0 102 6 172q-146 -86 -340 -224.5t-281 -219.5h-12q17 52 32.5 112t22.5 108q14 12 71 61q143 127 295.5 252t338.5 251h12q-15 -198 -15 -293q0 -119 33.5 -192.5z" />
    <glyph glyph-name="uniFBA8" unicode="&#x6c1;" horiz-adv-x="598" arabic-form="initial" 
d="M363 934q47 -106 78.5 -213.5t31.5 -245.5q0 -163 -51 -267t-167 -156t-310 -52q-29 0 -43 27.5t-14 81.5q0 112 29 169t83 57q113 0 213.5 13.5t161.5 35t61 46.5q0 22 -37.5 70t-95 103t-113.5 96q34 44 76 130t65 153h12q5 -14 20 -48zM166 -269q34 -18 52.5 -51.5
t18.5 -75.5q0 -66 -40 -106.5t-106 -40.5t-106 41t-40 108q0 89 66.5 182.5t198.5 171.5l10 -10q-55 -62 -87.5 -114.5t-43.5 -88.5q43 2 77 -16z" />
    <glyph glyph-name="uniFBA9" unicode="&#x6c1;" horiz-adv-x="1073" arabic-form="medial" 
d="M773.5 -45q-61.5 -45 -61.5 -115q0 -96 56 -183q-25 -41 -63 -136.5t-49 -144.5q-395 161 -395 521q0 66 14.5 143t42.5 181h-12q-44 -124 -122 -172.5t-204 -48.5h-35q-34 0 -45.5 34t-11.5 75q0 81 23 153.5t89 72.5h35q93 0 158 20.5t116 69.5t96 138h12
q-47 -194 -47 -334q0 -122 29.5 -216t106.5 -179t217 -167l7 10q-47 75 -64.5 133.5t-17.5 121.5q0 110 47 202t133 146.5t198 54.5h47l-55 -335h-46q-137 0 -198.5 -45z" />
    <glyph glyph-name="uniFBAB" unicode="&#x6be;" horiz-adv-x="1625" arabic-form="final" 
d="M1625 335l-55 -335h-47q-137 0 -198 -44.5t-61 -115.5q0 -96 56 -183q-25 -40 -63.5 -135.5t-50.5 -145.5q-230 59 -360 180t-171 289q-69 -21 -132 -21q-78 0 -135 19t-98 47.5t-100 80.5q-55 49 -95 79v12q75 0 233.5 21.5t317.5 56.5q22 130 82.5 270t128 254.5
t157.5 253.5q72 109 88 142h12q11 -75 27 -139.5t38 -139.5q25 -87 36.5 -141.5t11.5 -110.5q0 -73 -29 -164t-75 -171.5t-94 -121.5q-95 -95 -216 -161q68 -76 181 -139t260 -105l7 10q-48 75 -65.5 133.5t-17.5 121.5q0 109 47.5 201.5t133.5 147t198 54.5h48zM810 444.5
q-59 -149.5 -66 -286.5q195 49 316.5 107.5t121.5 124.5q0 27 -17 67t-56 114q-74 142 -110 237q-130 -214 -189 -363.5z" />
    <glyph glyph-name="uniFBAC" unicode="&#x6be;" horiz-adv-x="1210" arabic-form="initial" 
d="M1032.5 181q-52.5 -124 -142.5 -217q-85 45 -524 162q-67 -61 -176.5 -93.5t-244.5 -32.5q-34 0 -45.5 34t-11.5 75q0 81 23 153.5t89 72.5q75 0 123 3q-27 48 -27 128q0 105 43.5 206.5t111.5 171.5q-79 37 -110 50q23 55 39.5 133t19.5 139h12q47 -39 126 -84t242 -132
l61 -32q176 -93 270.5 -164.5t134 -144.5t39.5 -170q0 -134 -52.5 -258zM257 724.5q-50 -23.5 -78.5 -61t-28.5 -78.5q0 -61 72 -115.5t194 -94.5q116 43 166 81.5t50 73.5q0 52 -40 103t-102 83t-123 32q-60 0 -110 -23.5zM996.5 416q-32.5 42 -109.5 93.5t-222 130.5
q1 -7 1 -22q0 -79 -21.5 -151.5t-64.5 -133.5q300 -72 407 -119q17 25 29.5 58t12.5 55q0 47 -32.5 89z" />
    <glyph glyph-name="uniFBAD" unicode="&#x6be;" horiz-adv-x="1044" arabic-form="medial" 
d="M881.5 6.5q-48.5 6.5 -108.5 26.5v-12q55 -35 78.5 -73.5t23.5 -88.5q0 -111 -45.5 -200.5t-129 -140.5t-194.5 -51q-130 0 -224.5 62.5t-144.5 175.5t-50 262q0 22 1 33h-143q-34 0 -45.5 34t-11.5 75q0 81 23 153.5t89 72.5h155q44 123 110 237.5t128 200t144 189.5
q74 92 90 122h12q0 -90 10.5 -179t29.5 -208q9 -56 16 -108t7 -81q0 -52 -46.5 -102.5t-144.5 -91.5v-12q108 19 177.5 26t181.5 7h174l-54 -335q-60 0 -108.5 6.5zM532 474q-6 42 -14 89q-29 173 -36 279q-100 -121 -175 -261t-112 -267q175 1 259 24.5t84 70.5q0 23 -6 65
zM787.5 -71.5q-53.5 45.5 -157 75t-246.5 29.5q-120 0 -205 -22q34 -123 138.5 -187.5t260.5 -64.5q86 0 145.5 11.5t88.5 29t29 34.5q0 49 -53.5 94.5z" />
    <glyph glyph-name="uniFBAF" unicode="&#x6d2;" horiz-adv-x="1368" arabic-form="final" 
d="M425.5 -25.5q-112.5 -25.5 -179.5 -64t-67 -73.5q0 -46 106 -72t330 -26q434 0 609 13v-13q-50 -60 -108 -141.5t-88 -139.5q-50 5 -137 5q-49 0 -155 -2q-83 -3 -166 -3q-175 0 -271.5 27.5t-135.5 85t-39 156.5q0 157 76 297t212.5 225.5t308.5 85.5h647l-55 -335h-646
q-129 0 -241.5 -25.5z" />
    <glyph glyph-name="uniFBB1" unicode="&#x6d3;" horiz-adv-x="847" arabic-form="final" 
d="M350.5 512.5q34.5 43.5 81.5 73.5q-58 16 -89 53.5t-31 88.5q0 70 28.5 135t75.5 106t100 41q54 0 87 -38t33 -93q0 -19 -3 -35t-4 -20h-12q-9 73 -101 73q-50 0 -89 -19.5t-60.5 -46.5t-21.5 -47q0 -21 18.5 -41t54.5 -33.5t87 -13.5q54 0 127.5 10.5t103.5 21.5v-12
q-16 -25 -31.5 -62.5t-22.5 -70.5q-107 -20 -208 -66t-162 -101h-12q16 53 50.5 96.5zM425.5 -25.5q-112.5 -25.5 -179.5 -64t-67 -73.5q0 -46 106 -72t330 -26q434 0 609 13v-13q-50 -60 -108 -141.5t-88 -139.5q-50 5 -137 5q-49 0 -155 -2q-83 -3 -166 -3
q-175 0 -271.5 27.5t-135.5 85t-39 156.5q0 157 76 297t212.5 225.5t308.5 85.5h647l-55 -335h-646q-129 0 -241.5 -25.5z" />
    <glyph glyph-name="uniFBDA" unicode="&#x6c6;" horiz-adv-x="1023" arabic-form="final" 
d="M968 0h-106q-29 -174 -102 -296t-174.5 -183.5t-218.5 -61.5q-74 0 -141.5 21.5t-160.5 62.5q-73 34 -120 48v12q155 22 335 88t326 156t205 183q-78 -18 -157 -26t-179 -8q-151 0 -225.5 84t-74.5 245q0 140 43 259t121.5 190t180.5 71q100 0 176 -60.5t122 -175
t58 -274.5h147zM244 378.5q26 -28.5 86 -46.5t157 -18q213 0 333 9q-38 132 -128 207t-216 75q-68 0 -127.5 -27t-95 -66t-35.5 -73q0 -32 26 -60.5zM679 1441q8 -30 17 -52q-83 -100 -119.5 -184.5t-59.5 -205.5l-12 -2q-8 114 -69.5 216t-141.5 166q14 20 30 52.5t25 57.5
h12q18 -30 40 -57q32 -43 52.5 -75.5t40.5 -81t32 -110.5h11q12 96 33 151t56 116q22 38 32 59h12q1 -20 9 -50z" />
    <glyph glyph-name="uniFBE3" unicode="&#x6c9;" horiz-adv-x="1023" arabic-form="final" 
d="M350 1014q-11 28 -26 59.5t-29 50.5q80 64 141 166t69 216l13 -2q22 -121 58.5 -205.5t120.5 -184.5q-9 -22 -17 -52t-9 -50h-12q-10 20 -32 58q-35 60 -56.5 115.5t-33.5 152.5h-11q-17 -89 -48 -148t-77 -119q-5 -7 -18 -25t-21 -32h-12zM968 0h-106
q-29 -174 -102 -296t-174.5 -183.5t-218.5 -61.5q-74 0 -141.5 21.5t-160.5 62.5q-73 34 -120 48v12q155 22 335 88t326 156t205 183q-78 -18 -157 -26t-179 -8q-151 0 -225.5 84t-74.5 245q0 140 43 259t121.5 190t180.5 71q100 0 176 -60.5t122 -175t58 -274.5h147z
M244 378.5q26 -28.5 86 -46.5t157 -18q213 0 333 9q-38 132 -128 207t-216 75q-68 0 -127.5 -27t-95 -66t-35.5 -73q0 -32 26 -60.5z" />
    <glyph glyph-name="uniFBE8" unicode="&#x649;" horiz-adv-x="598" arabic-form="initial" 
d="M422 208q-51 -104 -167 -156t-310 -52q-29 0 -43 27.5t-14 81.5q0 112 29 169t83 57q113 0 213.5 13.5t161.5 35t61 46.5q0 22 -37.5 70t-95 103t-113.5 96q34 44 76 130t65 153h12q5 -14 20 -48q47 -106 78.5 -213.5t31.5 -245.5q0 -163 -51 -267z" />
    <glyph glyph-name="uniFBE9" unicode="&#x649;" horiz-adv-x="812" arabic-form="medial" 
d="M543.5 73q-81.5 73 -81.5 247q0 34 5 86h-13q-4 -146 -58 -235t-164 -130t-287 -41q-29 0 -43 27.5t-14 81.5q0 112 29 169t83 57q201 0 299 27.5t140 95t66 211.5h22v-115q0 -109 64.5 -164t220.5 -55l-54 -335q-133 0 -214.5 73z" />
    <glyph glyph-name="uniFBFD" unicode="&#x6cc;" horiz-adv-x="1450" arabic-form="final" 
d="M1395 0q-27 0 -42 2q5 -25 5 -43q0 -271 -180 -416t-536 -145q-167 0 -283 61.5t-175.5 179t-59.5 283.5q0 125 26.5 252t77.5 240h24q-26 -75 -39 -156t-13 -153q0 -117 55.5 -200.5t162.5 -127.5t258 -44q219 0 363.5 34.5t211.5 80t67 76.5q0 28 -52 46.5t-128.5 29.5
t-200.5 24q-105 11 -176.5 21t-118.5 24v12q51 70 92 138.5t70 141.5q101 -17 234.5 -21.5t411.5 -4.5z" />
    <glyph glyph-name="uniFBFE" unicode="&#x6cc;" horiz-adv-x="598" arabic-form="initial" 
d="M422 208q-51 -104 -167 -156t-310 -52q-29 0 -43 27.5t-14 81.5q0 112 29 169t83 57q113 0 213.5 13.5t161.5 35t61 46.5q0 22 -37.5 70t-95 103t-113.5 96q34 44 76 130t65 153h12q5 -14 20 -48q47 -106 78.5 -213.5t31.5 -245.5q0 -163 -51 -267zM-188.5 -319
q24.5 70 34.5 108q112 8 224.5 12.5t174.5 4.5q87 0 128 -20t41 -71q0 -16 -5 -35.5t-14 -48.5q-1 -5 -10.5 -33.5t-13.5 -57.5h-12q0 33 -36 45.5t-120 12.5q-58 0 -201 -4.5t-232 -11.5q17 29 41.5 99z" />
    <glyph glyph-name="uniFBFF" unicode="&#x6cc;" horiz-adv-x="812" arabic-form="medial" 
d="M543.5 73q-81.5 73 -81.5 247q0 34 5 86h-13q-4 -146 -58 -235t-164 -130t-287 -41q-29 0 -43 27.5t-14 81.5q0 112 29 169t83 57q201 0 299 27.5t140 95t66 211.5h22v-115q0 -109 64.5 -164t220.5 -55l-54 -335q-133 0 -214.5 73zM-173.5 -319q24.5 70 34.5 108
q112 8 224.5 12.5t174.5 4.5q87 0 128 -20t41 -71q0 -16 -5 -35.5t-14 -48.5q-1 -5 -10.5 -33.5t-13.5 -57.5h-12q0 33 -36 45.5t-120 12.5q-58 0 -201 -4.5t-232 -11.5q17 29 41.5 99z" />
    <glyph glyph-name="uniFC5E" unicode="&#xfc5e;" arabic-form="isolated" 
d="M250 232q0 -70 -33 -114.5t-91 -44.5q-32 0 -58.5 16.5t-41.5 47.5q-13 -66 -55.5 -107.5t-106.5 -41.5q-55 0 -84 35t-29 91q0 27 8 61l40 18q-4 -32 -4 -45q0 -91 76 -91q60 0 88.5 45t30.5 140l42 25q9 -61 32.5 -93.5t63.5 -32.5q39 0 56 25.5t17 67.5q0 54 -22 114
l38 27q33 -73 33 -143zM188 789q29 -42 29 -107t-24.5 -123t-69.5 -97q-52 -46 -139 -81t-214 -63l11 68q41 76 41 107q0 9 -7 14t-18 5q-16 0 -32 -5t-38 -14q-35 -13 -56.5 -19.5t-49.5 -6.5l12 63q26 1 49 7t53 18q27 10 46.5 15.5t39.5 5.5q24 0 39.5 -14.5t15.5 -37.5
q0 -51 -35 -122q145 41 239 94q-88 40 -126 75t-38 73q0 39 28.5 83.5t72 74.5t84.5 30q58 -1 87 -43zM157.5 609q6.5 24 6.5 50q0 47 -21.5 74.5t-55.5 27.5q-27 0 -55.5 -16t-47.5 -38t-19 -38q0 -18 38.5 -46t132.5 -67q15 29 21.5 53z" />
    <glyph glyph-name="uniFC5F" unicode="&#xfc5f;" arabic-form="isolated" 
d="M243 374l-461 -207l11 68l462 207zM231 182l-461 -207l11 68l461 206zM227 665q0 -70 -33 -114.5t-91 -44.5q-32 0 -58.5 16.5t-41.5 47.5q-13 -66 -55.5 -107.5t-106.5 -41.5q-55 0 -84 35t-29 91q0 27 8 61l40 18q-4 -32 -4 -45q0 -91 76 -91q60 0 88.5 45t30.5 140
l42 25q9 -61 32.5 -93.5t63.5 -32.5q39 0 56 25.5t17 67.5q0 54 -22 114l38 27q33 -73 33 -143z" />
    <glyph glyph-name="uniFC60" unicode="&#xfc60;" arabic-form="isolated" 
d="M250 232q0 -70 -33 -114.5t-91 -44.5q-32 0 -58.5 16.5t-41.5 47.5q-13 -66 -55.5 -107.5t-106.5 -41.5q-55 0 -84 35t-29 91q0 27 8 61l40 18q-4 -32 -4 -45q0 -91 76 -91q60 0 88.5 45t30.5 140l42 25q9 -61 32.5 -93.5t63.5 -32.5q39 0 56 25.5t17 67.5q0 54 -22 114
l38 27q33 -73 33 -143zM207 525l-461 -207l11 68l461 207z" />
    <glyph glyph-name="uniFC61" unicode="&#xfc61;" arabic-form="isolated" 
d="M250 232q0 -70 -33 -114.5t-91 -44.5q-32 0 -58.5 16.5t-41.5 47.5q-13 -66 -55.5 -107.5t-106.5 -41.5q-55 0 -84 35t-29 91q0 27 8 61l40 18q-4 -32 -4 -45q0 -91 76 -91q60 0 88.5 45t30.5 140l42 25q9 -61 32.5 -93.5t63.5 -32.5q39 0 56 25.5t17 67.5q0 54 -22 114
l38 27q33 -73 33 -143zM163.5 789q29.5 -42 29.5 -107t-24.5 -123t-69.5 -97q-53 -46 -139.5 -81t-213.5 -63l11 68q79 19 160 48t139 62q-88 40 -126 75t-38 73q0 39 28.5 83.5t71.5 74.5t84 30q58 -1 87.5 -43zM133.5 609q6.5 24 6.5 50q0 47 -21.5 74.5t-55.5 27.5
q-27 0 -55.5 -16t-48 -38t-19.5 -38q0 -18 39 -46t133 -67q15 29 21.5 53z" />
    <glyph glyph-name="uniFC62" unicode="&#xfc62;" arabic-form="isolated" 
d="M231 182l-461 -207l11 68l461 207zM226 474q0 -70 -33 -114.5t-91 -44.5q-32 0 -58.5 16.5t-41.5 47.5q-13 -66 -55.5 -107.5t-106.5 -41.5q-55 0 -84 35t-29 91q0 27 8 61l40 18q-4 -32 -4 -45q0 -91 76 -91q60 0 88.5 45t30.5 140l42 25q9 -61 32.5 -93.5t63.5 -32.5
q39 0 56 25.5t17 67.5q0 54 -22 114l38 27q33 -73 33 -143z" />
    <glyph glyph-name="uniFC63" unicode="&#xfc63;" arabic-form="isolated" 
d="M250 232q0 -70 -33 -114.5t-91 -44.5q-32 0 -58.5 16.5t-41.5 47.5q-13 -66 -55.5 -107.5t-106.5 -41.5q-55 0 -84 35t-29 91q0 27 8 61l40 18q-4 -32 -4 -45q0 -91 76 -91q60 0 88.5 45t30.5 140l42 25q9 -61 32.5 -93.5t63.5 -32.5q39 0 56 25.5t17 67.5q0 54 -22 114
l38 27q33 -73 33 -143zM23 383l-45 -22l-12 391l68 45z" />
    <glyph glyph-name="uniFC64" unicode="&#xfc64;" horiz-adv-x="1668" arabic-form="final" 
d="M1274 690q0 -143 34.5 -218t118 -106t241.5 -31l-54 -335q-133 0 -214.5 46t-120 143.5t-38.5 257.5q0 43 3 91h-12q-22 -79 -133 -125t-364 -49q20 -77 20 -161q0 -229 -64 -397.5t-172 -257.5t-238 -89q-69 0 -130 22t-142 62q-74 36 -103 46v12q178 36 370.5 132
t321 205t128.5 177q0 39 -70.5 115.5t-207.5 186.5q37 54 72.5 123.5t57.5 137.5q226 0 366.5 14.5t214.5 43t106 72.5h13q-4 -57 -4 -118zM1027.5 1161q73.5 10 105.5 21v-12q-16 -24 -31 -61.5t-24 -71.5q-107 -20 -208 -66t-162 -101h-12q16 54 50.5 97.5t82.5 72.5
q-59 16 -90 53.5t-31 88.5q0 70 28.5 135.5t76 106t100.5 40.5t86 -37.5t33 -92.5q0 -20 -3 -36t-4 -20h-12q-9 73 -101 73q-50 0 -89 -19.5t-60.5 -46.5t-21.5 -47q0 -21 18 -41t54.5 -33t87.5 -13q53 0 126.5 10z" />
    <glyph glyph-name="uniFC65" unicode="&#xfc65;" horiz-adv-x="1668" arabic-form="final" 
d="M1274 690q0 -143 34.5 -218t118 -106t241.5 -31l-54 -335q-133 0 -214.5 46t-120 143.5t-38.5 257.5q0 43 3 91h-12q-22 -79 -133 -125t-364 -49q20 -77 20 -161q0 -229 -64 -397.5t-172 -257.5t-238 -89q-69 0 -130 22t-142 62q-74 36 -103 46v12q178 36 370.5 132
t321 205t128.5 177q0 39 -70.5 115.5t-207.5 186.5q37 54 72.5 123.5t57.5 137.5q226 0 366.5 14.5t214.5 43t106 72.5h13q-4 -57 -4 -118zM503.5 934.5q-56.5 46.5 -97.5 63.5v13l147 180q52 -25 109 -75.5t83 -93.5l-158 -170q-27 36 -83.5 82.5zM1242.5 1161
q73.5 10 105.5 21v-12q-16 -24 -31 -61.5t-24 -71.5q-107 -20 -208 -66t-162 -101h-12q16 54 50.5 97.5t82.5 72.5q-59 16 -90 53.5t-31 88.5q0 70 28.5 135.5t76 106t100.5 40.5t86 -37.5t33 -92.5q0 -20 -3 -36t-4 -20h-12q-9 73 -101 73q-50 0 -89 -19.5t-60.5 -46.5
t-21.5 -47q0 -21 18 -41t54.5 -33t87.5 -13q53 0 126.5 10z" />
    <glyph glyph-name="uniFC67" unicode="&#xfc67;" horiz-adv-x="2255" arabic-form="final" 
d="M1860 693q0 -144 34 -220t118 -107t243 -31l-55 -335q-133 0 -214.5 46t-120 143.5t-38.5 257.5q0 43 3 91h-12q-22 -80 -134 -126t-367 -48q21 -94 21 -167q0 -240 -85.5 -409t-242 -255.5t-368.5 -86.5q-167 0 -283 61.5t-175.5 179t-59.5 284.5q0 258 115 513h24
q-63 -165 -63 -330q0 -118 55.5 -201t162.5 -127t258 -44q179 0 321 51t221.5 130t79.5 158q0 43 -63 113t-201 183q36 53 71.5 122.5t58.5 138.5q226 0 366.5 14.5t214.5 43t107 72.5h12q-4 -84 -4 -115zM1613.5 1161q73.5 10 105.5 21v-12q-16 -24 -31 -61.5t-24 -71.5
q-107 -20 -208 -66t-162 -101h-12q16 54 50.5 97.5t82.5 72.5q-59 16 -90 53.5t-31 88.5q0 70 28.5 135.5t76 106t100.5 40.5t86 -37.5t33 -92.5q0 -20 -3 -36t-4 -20h-12q-9 73 -101 73q-50 0 -89 -19.5t-60.5 -46.5t-21.5 -47q0 -21 18 -41t54.5 -33t87.5 -13
q53 0 126.5 10zM606.5 373.5q-56.5 46.5 -97.5 63.5v13l147 180q52 -25 109 -75.5t83 -93.5l-158 -170q-27 36 -83.5 82.5z" />
    <glyph glyph-name="uniFC69" unicode="&#xfc69;" horiz-adv-x="2030" arabic-form="final" 
d="M1635.5 53.5q-117.5 53.5 -166 188.5t-48.5 394q-273 0 -443 -28.5t-243 -70t-73 -82.5q0 -54 72 -78.5t203 -29.5l133 -5q111 -4 173 -29t89 -78.5t27 -146.5q0 -213 -84.5 -367t-245.5 -235.5t-387 -81.5q-252 0 -385 135.5t-133 388.5q0 263 115 513h23
q-62 -166 -62 -330q0 -179 123.5 -275.5t352.5 -96.5q220 0 365 41t211.5 100.5t66.5 115.5q0 17 -22 27t-79.5 16.5t-165.5 10.5l-137 5q-112 4 -178 27t-98 77.5t-32 152.5q0 283 197.5 429t628.5 146q6 -229 52.5 -343t170 -161.5t374.5 -47.5l-54 -335
q-223 0 -340.5 53.5zM1256.5 1298q73.5 10 105.5 21v-12q-16 -24 -31 -61.5t-24 -71.5q-107 -20 -208 -66t-162 -101h-12q16 54 50.5 97.5t82.5 72.5q-59 16 -90 53.5t-31 88.5q0 70 28.5 135.5t76 106t100.5 40.5t86 -37.5t33 -92.5q0 -20 -3 -36t-4 -20h-12q-9 73 -101 73
q-50 0 -89 -19.5t-60.5 -46.5t-21.5 -47q0 -21 18 -41t54.5 -33t87.5 -13q53 0 126.5 10z" />
    <glyph glyph-name="uniFC6A" unicode="&#xfc6a;" horiz-adv-x="1668" arabic-form="final" 
d="M1274 690q0 -143 34.5 -218t118 -106t241.5 -31l-54 -335q-133 0 -214.5 46t-120 143.5t-38.5 257.5q0 43 3 91h-12q-22 -79 -133 -125t-364 -49q20 -77 20 -161q0 -229 -64 -397.5t-172 -257.5t-238 -89q-69 0 -130 22t-142 62q-74 36 -103 46v12q178 36 370.5 132
t321 205t128.5 177q0 39 -70.5 115.5t-207.5 186.5q37 54 72.5 123.5t57.5 137.5q226 0 366.5 14.5t214.5 43t106 72.5h13q-4 -57 -4 -118zM1056.5 -425q-54.5 46 -94.5 63v12l147 180q52 -24 109 -75t83 -94l-158 -170q-32 38 -86.5 84z" />
    <glyph glyph-name="uniFC6B" unicode="&#xfc6b;" horiz-adv-x="1668" arabic-form="final" 
d="M1274 690q0 -143 34.5 -218t118 -106t241.5 -31l-54 -335q-133 0 -214.5 46t-120 143.5t-38.5 257.5q0 43 3 91h-12q-22 -79 -133 -125t-364 -49q20 -77 20 -161q0 -229 -64 -397.5t-172 -257.5t-238 -89q-69 0 -130 22t-142 62q-74 36 -103 46v12q178 36 370.5 132
t321 205t128.5 177q0 39 -70.5 115.5t-207.5 186.5q37 54 72.5 123.5t57.5 137.5q226 0 366.5 14.5t214.5 43t106 72.5h13q-4 -57 -4 -118zM503.5 934.5q-56.5 46.5 -97.5 63.5v13l147 180q52 -25 109 -75.5t83 -93.5l-158 -170q-27 36 -83.5 82.5zM1056.5 -425
q-54.5 46 -94.5 63v12l147 180q52 -24 109 -75t83 -94l-158 -170q-32 38 -86.5 84z" />
    <glyph glyph-name="uniFC6D" unicode="&#xfc6d;" horiz-adv-x="2255" arabic-form="final" 
d="M1860 693q0 -144 34 -220t118 -107t243 -31l-55 -335q-133 0 -214.5 46t-120 143.5t-38.5 257.5q0 43 3 91h-12q-22 -80 -134 -126t-367 -48q21 -94 21 -167q0 -240 -85.5 -409t-242 -255.5t-368.5 -86.5q-167 0 -283 61.5t-175.5 179t-59.5 284.5q0 258 115 513h24
q-63 -165 -63 -330q0 -118 55.5 -201t162.5 -127t258 -44q179 0 321 51t221.5 130t79.5 158q0 43 -63 113t-201 183q36 53 71.5 122.5t58.5 138.5q226 0 366.5 14.5t214.5 43t107 72.5h12q-4 -84 -4 -115zM1592.5 -425q-54.5 46 -94.5 63v12l147 180q52 -24 109 -75t83 -94
l-158 -170q-32 38 -86.5 84zM606.5 373.5q-56.5 46.5 -97.5 63.5v13l147 180q52 -25 109 -75.5t83 -93.5l-158 -170q-27 36 -83.5 82.5z" />
    <glyph glyph-name="uniFC6F" unicode="&#xfc6f;" horiz-adv-x="2030" arabic-form="final" 
d="M1635.5 53.5q-117.5 53.5 -166 188.5t-48.5 394q-273 0 -443 -28.5t-243 -70t-73 -82.5q0 -54 72 -78.5t203 -29.5l133 -5q111 -4 173 -29t89 -78.5t27 -146.5q0 -213 -84.5 -367t-245.5 -235.5t-387 -81.5q-252 0 -385 135.5t-133 388.5q0 263 115 513h23
q-62 -166 -62 -330q0 -179 123.5 -275.5t352.5 -96.5q220 0 365 41t211.5 100.5t66.5 115.5q0 17 -22 27t-79.5 16.5t-165.5 10.5l-137 5q-112 4 -178 27t-98 77.5t-32 152.5q0 283 197.5 429t628.5 146q6 -229 52.5 -343t170 -161.5t374.5 -47.5l-54 -335
q-223 0 -340.5 53.5zM1539.5 -425q-54.5 46 -94.5 63v12l147 180q52 -24 109 -75t83 -94l-158 -170q-32 38 -86.5 84z" />
    <glyph glyph-name="uniFC70" unicode="&#xfc70;" horiz-adv-x="1668" arabic-form="final" 
d="M1274 690q0 -143 34.5 -218t118 -106t241.5 -31l-54 -335q-133 0 -214.5 46t-120 143.5t-38.5 257.5q0 43 3 91h-12q-22 -79 -133 -125t-364 -49q20 -77 20 -161q0 -229 -64 -397.5t-172 -257.5t-238 -89q-69 0 -130 22t-142 62q-74 36 -103 46v12q178 36 370.5 132
t321 205t128.5 177q0 39 -70.5 115.5t-207.5 186.5q37 54 72.5 123.5t57.5 137.5q226 0 366.5 14.5t214.5 43t106 72.5h13q-4 -57 -4 -118zM1186.5 1116q-24.5 -70 -34.5 -108q-112 -8 -224.5 -12.5t-174.5 -4.5q-87 0 -128 20t-41 71q0 16 5 35.5t14 48.5q1 5 10.5 33.5
t13.5 57.5h12q0 -33 36 -45.5t120 -12.5q58 0 201 4.5t232 11.5q-17 -29 -41.5 -99z" />
    <glyph glyph-name="uniFC71" unicode="&#xfc71;" horiz-adv-x="1668" arabic-form="final" 
d="M1274 690q0 -143 34.5 -218t118 -106t241.5 -31l-54 -335q-133 0 -214.5 46t-120 143.5t-38.5 257.5q0 43 3 91h-12q-22 -79 -133 -125t-364 -49q20 -77 20 -161q0 -229 -64 -397.5t-172 -257.5t-238 -89q-69 0 -130 22t-142 62q-74 36 -103 46v12q178 36 370.5 132
t321 205t128.5 177q0 39 -70.5 115.5t-207.5 186.5q37 54 72.5 123.5t57.5 137.5q226 0 366.5 14.5t214.5 43t106 72.5h13q-4 -57 -4 -118zM471.5 934.5q-56.5 46.5 -97.5 63.5v13l147 180q52 -25 109 -75.5t83 -93.5l-158 -170q-27 36 -83.5 82.5zM1422.5 1116
q-24.5 -70 -34.5 -108q-112 -8 -224.5 -12.5t-174.5 -4.5q-87 0 -128 20t-41 71q0 16 5 35.5t14 48.5q1 5 10.5 33.5t13.5 57.5h12q0 -33 36 -45.5t120 -12.5q58 0 201 4.5t232 11.5q-17 -29 -41.5 -99z" />
    <glyph glyph-name="uniFC73" unicode="&#xfc73;" horiz-adv-x="2255" arabic-form="final" 
d="M1860 693q0 -144 34 -220t118 -107t243 -31l-55 -335q-133 0 -214.5 46t-120 143.5t-38.5 257.5q0 43 3 91h-12q-22 -80 -134 -126t-367 -48q21 -94 21 -167q0 -240 -85.5 -409t-242 -255.5t-368.5 -86.5q-167 0 -283 61.5t-175.5 179t-59.5 284.5q0 258 115 513h24
q-63 -165 -63 -330q0 -118 55.5 -201t162.5 -127t258 -44q179 0 321 51t221.5 130t79.5 158q0 43 -63 113t-201 183q36 53 71.5 122.5t58.5 138.5q226 0 366.5 14.5t214.5 43t107 72.5h12q-4 -84 -4 -115zM1772.5 1116q-24.5 -70 -34.5 -108q-112 -8 -224.5 -12.5
t-174.5 -4.5q-87 0 -128 20t-41 71q0 16 5 35.5t14 48.5q1 5 10.5 33.5t13.5 57.5h12q0 -33 36 -45.5t120 -12.5q58 0 201 4.5t232 11.5q-17 -29 -41.5 -99zM606.5 373.5q-56.5 46.5 -97.5 63.5v13l147 180q52 -25 109 -75.5t83 -93.5l-158 -170q-27 36 -83.5 82.5z" />
    <glyph glyph-name="uniFC75" unicode="&#xfc75;" horiz-adv-x="2030" arabic-form="final" 
d="M1635.5 53.5q-117.5 53.5 -166 188.5t-48.5 394q-273 0 -443 -28.5t-243 -70t-73 -82.5q0 -54 72 -78.5t203 -29.5l133 -5q111 -4 173 -29t89 -78.5t27 -146.5q0 -213 -84.5 -367t-245.5 -235.5t-387 -81.5q-252 0 -385 135.5t-133 388.5q0 263 115 513h23
q-62 -166 -62 -330q0 -179 123.5 -275.5t352.5 -96.5q220 0 365 41t211.5 100.5t66.5 115.5q0 17 -22 27t-79.5 16.5t-165.5 10.5l-137 5q-112 4 -178 27t-98 77.5t-32 152.5q0 283 197.5 429t628.5 146q6 -229 52.5 -343t170 -161.5t374.5 -47.5l-54 -335
q-223 0 -340.5 53.5zM1415.5 1252q-24.5 -70 -34.5 -108q-112 -8 -224.5 -12.5t-174.5 -4.5q-87 0 -128 20t-41 71q0 16 5 35.5t14 48.5q1 5 10.5 33.5t13.5 57.5h12q0 -33 36 -45.5t120 -12.5q58 0 201 4.5t232 11.5q-17 -29 -41.5 -99z" />
    <glyph glyph-name="uniFC76" unicode="&#xfc76;" horiz-adv-x="1668" arabic-form="final" 
d="M1274 690q0 -143 34.5 -218t118 -106t241.5 -31l-54 -335q-133 0 -214.5 46t-120 143.5t-38.5 257.5q0 43 3 91h-12q-22 -79 -133 -125t-364 -49q20 -77 20 -161q0 -229 -64 -397.5t-172 -257.5t-238 -89q-69 0 -130 22t-142 62q-74 36 -103 46v12q178 36 370.5 132
t321 205t128.5 177q0 39 -70.5 115.5t-207.5 186.5q37 54 72.5 123.5t57.5 137.5q226 0 366.5 14.5t214.5 43t106 72.5h13q-4 -57 -4 -118zM840.5 1335q-49.5 38 -87.5 54v12l126 159q48 -23 98 -64.5t73 -71.5l-126 -160q-34 33 -83.5 71zM1186 1109q-25 -66 -34 -101
q-112 -8 -224.5 -12.5t-174.5 -4.5q-87 0 -128 20t-41 71q0 16 4.5 32.5t14.5 45.5q19 55 24 86h12q0 -33 36 -45.5t120 -12.5q52 0 197.5 4.5t235.5 11.5q-17 -29 -42 -95z" />
    <glyph glyph-name="uniFC77" unicode="&#xfc77;" horiz-adv-x="1668" arabic-form="final" 
d="M1274 690q0 -143 34.5 -218t118 -106t241.5 -31l-54 -335q-133 0 -214.5 46t-120 143.5t-38.5 257.5q0 43 3 91h-12q-22 -79 -133 -125t-364 -49q20 -77 20 -161q0 -229 -64 -397.5t-172 -257.5t-238 -89q-69 0 -130 22t-142 62q-74 36 -103 46v12q178 36 370.5 132
t321 205t128.5 177q0 39 -70.5 115.5t-207.5 186.5q37 54 72.5 123.5t57.5 137.5q226 0 366.5 14.5t214.5 43t106 72.5h13q-4 -57 -4 -118zM471.5 934.5q-56.5 46.5 -97.5 63.5v13l147 180q52 -25 109 -75.5t83 -93.5l-158 -170q-27 36 -83.5 82.5zM1076.5 1335
q-49.5 38 -87.5 54v12l126 159q48 -23 98 -64.5t73 -71.5l-126 -160q-34 33 -83.5 71zM1422 1109q-25 -66 -34 -101q-112 -8 -224.5 -12.5t-174.5 -4.5q-87 0 -128 20t-41 71q0 16 4.5 32.5t14.5 45.5q19 55 24 86h12q0 -33 36 -45.5t120 -12.5q52 0 197.5 4.5t235.5 11.5
q-17 -29 -42 -95z" />
    <glyph glyph-name="uniFC79" unicode="&#xfc79;" horiz-adv-x="2255" arabic-form="final" 
d="M1860 693q0 -144 34 -220t118 -107t243 -31l-55 -335q-133 0 -214.5 46t-120 143.5t-38.5 257.5q0 43 3 91h-12q-22 -80 -134 -126t-367 -48q21 -94 21 -167q0 -240 -85.5 -409t-242 -255.5t-368.5 -86.5q-167 0 -283 61.5t-175.5 179t-59.5 284.5q0 258 115 513h24
q-63 -165 -63 -330q0 -118 55.5 -201t162.5 -127t258 -44q179 0 321 51t221.5 130t79.5 158q0 43 -63 113t-201 183q36 53 71.5 122.5t58.5 138.5q226 0 366.5 14.5t214.5 43t107 72.5h12q-4 -84 -4 -115zM1426.5 1335q-49.5 38 -87.5 54v12l126 159q48 -23 98 -64.5
t73 -71.5l-126 -160q-34 33 -83.5 71zM1772 1109q-25 -66 -34 -101q-112 -8 -224.5 -12.5t-174.5 -4.5q-87 0 -128 20t-41 71q0 16 4.5 32.5t14.5 45.5q19 55 24 86h12q0 -33 36 -45.5t120 -12.5q52 0 197.5 4.5t235.5 11.5q-17 -29 -42 -95zM606.5 373.5
q-56.5 46.5 -97.5 63.5v13l147 180q52 -25 109 -75.5t83 -93.5l-158 -170q-27 36 -83.5 82.5z" />
    <glyph glyph-name="uniFC7B" unicode="&#xfc7b;" horiz-adv-x="2030" arabic-form="final" 
d="M1635.5 53.5q-117.5 53.5 -166 188.5t-48.5 394q-273 0 -443 -28.5t-243 -70t-73 -82.5q0 -54 72 -78.5t203 -29.5l133 -5q111 -4 173 -29t89 -78.5t27 -146.5q0 -213 -84.5 -367t-245.5 -235.5t-387 -81.5q-252 0 -385 135.5t-133 388.5q0 263 115 513h23
q-62 -166 -62 -330q0 -179 123.5 -275.5t352.5 -96.5q220 0 365 41t211.5 100.5t66.5 115.5q0 17 -22 27t-79.5 16.5t-165.5 10.5l-137 5q-112 4 -178 27t-98 77.5t-32 152.5q0 283 197.5 429t628.5 146q6 -229 52.5 -343t170 -161.5t374.5 -47.5l-54 -335
q-223 0 -340.5 53.5zM1069.5 1471q-49.5 38 -87.5 54v12l126 159q48 -23 98 -64.5t73 -71.5l-126 -160q-34 33 -83.5 71zM1415 1245q-25 -66 -34 -101q-112 -8 -224.5 -12.5t-174.5 -4.5q-87 0 -128 20t-41 71q0 16 4.5 32.5t14.5 45.5q19 55 24 86h12q0 -33 36 -45.5
t120 -12.5q52 0 197.5 4.5t235.5 11.5q-17 -29 -42 -95z" />
    <glyph glyph-name="uniFC8A" unicode="&#xfc8a;" horiz-adv-x="1668" arabic-form="final" 
d="M1274 690q0 -143 34.5 -218t118 -106t241.5 -31l-54 -335q-133 0 -214.5 46t-120 143.5t-38.5 257.5q0 43 3 91h-12q-22 -79 -133 -125t-364 -49q20 -77 20 -161q0 -229 -64 -397.5t-172 -257.5t-238 -89q-69 0 -130 22t-142 62q-74 36 -103 46v12q178 36 370.5 132
t321 205t128.5 177q0 39 -70.5 115.5t-207.5 186.5q37 54 72.5 123.5t57.5 137.5q226 0 366.5 14.5t214.5 43t106 72.5h13q-4 -57 -4 -118zM829.5 1049.5q-56.5 46.5 -97.5 63.5v13l147 180q52 -25 109 -75.5t83 -93.5l-158 -170q-27 36 -83.5 82.5z" />
    <glyph glyph-name="uniFC8B" unicode="&#xfc8b;" horiz-adv-x="1668" arabic-form="final" 
d="M1274 690q0 -143 34.5 -218t118 -106t241.5 -31l-54 -335q-133 0 -214.5 46t-120 143.5t-38.5 257.5q0 43 3 91h-12q-22 -79 -133 -125t-364 -49q20 -77 20 -161q0 -229 -64 -397.5t-172 -257.5t-238 -89q-69 0 -130 22t-142 62q-74 36 -103 46v12q178 36 370.5 132
t321 205t128.5 177q0 39 -70.5 115.5t-207.5 186.5q37 54 72.5 123.5t57.5 137.5q226 0 366.5 14.5t214.5 43t106 72.5h13q-4 -57 -4 -118zM471.5 934.5q-56.5 46.5 -97.5 63.5v13l147 180q52 -25 109 -75.5t83 -93.5l-158 -170q-27 36 -83.5 82.5zM1065.5 1049.5
q-56.5 46.5 -97.5 63.5v13l147 180q52 -25 109 -75.5t83 -93.5l-158 -170q-27 36 -83.5 82.5z" />
    <glyph glyph-name="uniFC8D" unicode="&#xfc8d;" horiz-adv-x="2255" arabic-form="final" 
d="M1860 693q0 -144 34 -220t118 -107t243 -31l-55 -335q-133 0 -214.5 46t-120 143.5t-38.5 257.5q0 43 3 91h-12q-22 -80 -134 -126t-367 -48q21 -94 21 -167q0 -240 -85.5 -409t-242 -255.5t-368.5 -86.5q-167 0 -283 61.5t-175.5 179t-59.5 284.5q0 258 115 513h24
q-63 -165 -63 -330q0 -118 55.5 -201t162.5 -127t258 -44q179 0 321 51t221.5 130t79.5 158q0 43 -63 113t-201 183q36 53 71.5 122.5t58.5 138.5q226 0 366.5 14.5t214.5 43t107 72.5h12q-4 -84 -4 -115zM1415.5 1049.5q-56.5 46.5 -97.5 63.5v13l147 180q52 -25 109 -75.5
t83 -93.5l-158 -170q-27 36 -83.5 82.5zM606.5 373.5q-56.5 46.5 -97.5 63.5v13l147 180q52 -25 109 -75.5t83 -93.5l-158 -170q-27 36 -83.5 82.5z" />
    <glyph glyph-name="uniFC8F" unicode="&#xfc8f;" horiz-adv-x="2030" arabic-form="final" 
d="M1635.5 53.5q-117.5 53.5 -166 188.5t-48.5 394q-273 0 -443 -28.5t-243 -70t-73 -82.5q0 -54 72 -78.5t203 -29.5l133 -5q111 -4 173 -29t89 -78.5t27 -146.5q0 -213 -84.5 -367t-245.5 -235.5t-387 -81.5q-252 0 -385 135.5t-133 388.5q0 263 115 513h23
q-62 -166 -62 -330q0 -179 123.5 -275.5t352.5 -96.5q220 0 365 41t211.5 100.5t66.5 115.5q0 17 -22 27t-79.5 16.5t-165.5 10.5l-137 5q-112 4 -178 27t-98 77.5t-32 152.5q0 283 197.5 429t628.5 146q6 -229 52.5 -343t170 -161.5t374.5 -47.5l-54 -335
q-223 0 -340.5 53.5zM1058.5 1185.5q-56.5 46.5 -97.5 63.5v13l147 180q52 -25 109 -75.5t83 -93.5l-158 -170q-27 36 -83.5 82.5z" />
    <glyph glyph-name="uniFC91" unicode="&#xfc91;" horiz-adv-x="1668" arabic-form="final" 
d="M1274 690q0 -143 34.5 -218t118 -106t241.5 -31l-54 -335q-133 0 -214.5 46t-120 143.5t-38.5 257.5q0 43 3 91h-12q-22 -79 -133 -125t-364 -49q20 -77 20 -161q0 -229 -64 -397.5t-172 -257.5t-238 -89q-69 0 -130 22t-142 62q-74 36 -103 46v12q178 36 370.5 132
t321 205t128.5 177q0 39 -70.5 115.5t-207.5 186.5q37 54 72.5 123.5t57.5 137.5q226 0 366.5 14.5t214.5 43t106 72.5h13q-4 -57 -4 -118zM845.5 -319q24.5 70 34.5 108q112 8 224.5 12.5t174.5 4.5q87 0 128 -20t41 -71q0 -16 -5 -35.5t-14 -48.5q-1 -5 -10.5 -33.5
t-13.5 -57.5h-12q0 33 -36 45.5t-120 12.5q-58 0 -201 -4.5t-232 -11.5q17 29 41.5 99z" />
    <glyph glyph-name="uniFC92" unicode="&#xfc92;" horiz-adv-x="1668" arabic-form="final" 
d="M1274 690q0 -143 34.5 -218t118 -106t241.5 -31l-54 -335q-133 0 -214.5 46t-120 143.5t-38.5 257.5q0 43 3 91h-12q-22 -79 -133 -125t-364 -49q20 -77 20 -161q0 -229 -64 -397.5t-172 -257.5t-238 -89q-69 0 -130 22t-142 62q-74 36 -103 46v12q178 36 370.5 132
t321 205t128.5 177q0 39 -70.5 115.5t-207.5 186.5q37 54 72.5 123.5t57.5 137.5q226 0 366.5 14.5t214.5 43t106 72.5h13q-4 -57 -4 -118zM503.5 934.5q-56.5 46.5 -97.5 63.5v13l147 180q52 -25 109 -75.5t83 -93.5l-158 -170q-27 36 -83.5 82.5zM845.5 -319
q24.5 70 34.5 108q112 8 224.5 12.5t174.5 4.5q87 0 128 -20t41 -71q0 -16 -5 -35.5t-14 -48.5q-1 -5 -10.5 -33.5t-13.5 -57.5h-12q0 33 -36 45.5t-120 12.5q-58 0 -201 -4.5t-232 -11.5q17 29 41.5 99z" />
    <glyph glyph-name="uniFC94" unicode="&#xfc94;" horiz-adv-x="2255" arabic-form="final" 
d="M1860 693q0 -144 34 -220t118 -107t243 -31l-55 -335q-133 0 -214.5 46t-120 143.5t-38.5 257.5q0 43 3 91h-12q-22 -80 -134 -126t-367 -48q21 -94 21 -167q0 -240 -85.5 -409t-242 -255.5t-368.5 -86.5q-167 0 -283 61.5t-175.5 179t-59.5 284.5q0 258 115 513h24
q-63 -165 -63 -330q0 -118 55.5 -201t162.5 -127t258 -44q179 0 321 51t221.5 130t79.5 158q0 43 -63 113t-201 183q36 53 71.5 122.5t58.5 138.5q226 0 366.5 14.5t214.5 43t107 72.5h12q-4 -84 -4 -115zM1423.5 -319q24.5 70 34.5 108q112 8 224.5 12.5t174.5 4.5
q87 0 128 -20t41 -71q0 -16 -5 -35.5t-14 -48.5q-1 -5 -10.5 -33.5t-13.5 -57.5h-12q0 33 -36 45.5t-120 12.5q-58 0 -201 -4.5t-232 -11.5q17 29 41.5 99zM606.5 373.5q-56.5 46.5 -97.5 63.5v13l147 180q52 -25 109 -75.5t83 -93.5l-158 -170q-27 36 -83.5 82.5z" />
    <glyph glyph-name="uniFC96" unicode="&#xfc96;" horiz-adv-x="2030" arabic-form="final" 
d="M1635.5 53.5q-117.5 53.5 -166 188.5t-48.5 394q-273 0 -443 -28.5t-243 -70t-73 -82.5q0 -54 72 -78.5t203 -29.5l133 -5q111 -4 173 -29t89 -78.5t27 -146.5q0 -213 -84.5 -367t-245.5 -235.5t-387 -81.5q-252 0 -385 135.5t-133 388.5q0 263 115 513h23
q-62 -166 -62 -330q0 -179 123.5 -275.5t352.5 -96.5q220 0 365 41t211.5 100.5t66.5 115.5q0 17 -22 27t-79.5 16.5t-165.5 10.5l-137 5q-112 4 -178 27t-98 77.5t-32 152.5q0 283 197.5 429t628.5 146q6 -229 52.5 -343t170 -161.5t374.5 -47.5l-54 -335
q-223 0 -340.5 53.5zM1366.5 -319q24.5 70 34.5 108q112 8 224.5 12.5t174.5 4.5q87 0 128 -20t41 -71q0 -16 -5 -35.5t-14 -48.5q-1 -5 -10.5 -33.5t-13.5 -57.5h-12q0 33 -36 45.5t-120 12.5q-58 0 -201 -4.5t-232 -11.5q17 29 41.5 99z" />
    <glyph glyph-name="uniFCFC" unicode="&#xfcfc;" horiz-adv-x="2686" arabic-form="isolated" 
d="M2458 883q29 -65 49.5 -123.5t37 -143t16.5 -183.5q0 -207 -73 -320t-212 -113q-111 0 -170.5 59.5t-59.5 179.5q0 27 3 55h-13q-20 -146 -97 -220t-190 -74q-112 0 -183 55t-108 194t-37 387q-273 0 -443 -28.5t-243 -70t-73 -82.5q0 -54 72 -78.5t203 -29.5l133 -5
q111 -4 173 -29t89 -78.5t27 -146.5q0 -213 -84.5 -367t-245.5 -235.5t-387 -81.5q-252 0 -385 135.5t-133 388.5q0 263 115 513h23q-62 -166 -62 -330q0 -179 123.5 -275.5t352.5 -96.5q220 0 365 41t211.5 100.5t66.5 115.5q0 17 -22 27t-79.5 16.5t-165.5 10.5l-137 5
q-112 4 -178 27t-98 77.5t-32 152.5q0 283 197.5 429t628.5 146q6 -221 40 -338t109 -165.5t211 -48.5q93 0 150 24.5t90 81.5t51 158h22q-2 -29 -27 -202q30 -29 88 -45.5t132 -16.5q58 0 109.5 11.5t83 28.5t31.5 33q0 63 -222 237q34 49 70 124t60 148h12z" />
    <glyph glyph-name="uniFCFE" unicode="&#xfcfe;" horiz-adv-x="2686" arabic-form="isolated" 
d="M2458 883q29 -65 49.5 -123.5t37 -143t16.5 -183.5q0 -207 -73 -320t-212 -113q-111 0 -170.5 59.5t-59.5 179.5q0 27 3 55h-13q-20 -146 -97 -220t-190 -74q-112 0 -183 55t-108 194t-37 387q-273 0 -443 -28.5t-243 -70t-73 -82.5q0 -54 72 -78.5t203 -29.5l133 -5
q111 -4 173 -29t89 -78.5t27 -146.5q0 -213 -84.5 -367t-245.5 -235.5t-387 -81.5q-252 0 -385 135.5t-133 388.5q0 263 115 513h23q-62 -166 -62 -330q0 -179 123.5 -275.5t352.5 -96.5q220 0 365 41t211.5 100.5t66.5 115.5q0 17 -22 27t-79.5 16.5t-165.5 10.5l-137 5
q-112 4 -178 27t-98 77.5t-32 152.5q0 283 197.5 429t628.5 146q6 -221 40 -338t109 -165.5t211 -48.5q93 0 150 24.5t90 81.5t51 158h22q-2 -29 -27 -202q30 -29 88 -45.5t132 -16.5q58 0 109.5 11.5t83 28.5t31.5 33q0 63 -222 237q34 49 70 124t60 148h12zM1917.5 1211
q-49.5 38 -87.5 54v12l126 159q48 -23 98 -64.5t73 -71.5l-126 -160q-34 33 -83.5 71zM2263 985q-25 -66 -34 -101q-112 -8 -224.5 -12.5t-174.5 -4.5q-87 0 -128 20t-41 71q0 16 4.5 32.5t14.5 45.5q19 55 24 86h12q0 -33 36 -45.5t120 -12.5q52 0 197.5 4.5t235.5 11.5
q-17 -29 -42 -95z" />
    <glyph glyph-name="uniFD06" unicode="&#xfd06;" horiz-adv-x="2680" arabic-form="isolated" 
d="M2419.5 909.5q65.5 -44.5 100.5 -125t35 -187.5q0 -177 -81 -312.5t-227.5 -210t-338.5 -74.5q-173 0 -279 49.5t-158 169.5t-52 332q0 25 2 85q-273 0 -443 -28.5t-243 -70t-73 -82.5q0 -54 72 -78.5t203 -29.5l133 -5q111 -4 173 -29t89 -78.5t27 -146.5
q0 -213 -84.5 -367t-245.5 -235.5t-387 -81.5q-252 0 -385 135.5t-133 388.5q0 263 115 513h23q-62 -166 -62 -330q0 -179 123.5 -275.5t352.5 -96.5q220 0 365 41t211.5 100.5t66.5 115.5q0 17 -22 27t-79.5 16.5t-165.5 10.5l-137 5q-112 4 -178 27t-98 77.5t-32 152.5
q0 283 197.5 429t628.5 146q4 -153 22 -250t59.5 -159.5t116.5 -95.5q131 211 237 335.5t201 180.5t195 56q90 0 155.5 -44.5zM2242.5 351q122.5 16 192 45.5t69.5 70.5t-36.5 94.5t-106 92.5t-162.5 39q-86 0 -186.5 -41t-195.5 -113.5t-165 -164.5q55 -21 131 -30t180 -9
q157 0 279.5 16z" />
    <glyph glyph-name="uniFD08" unicode="&#xfd08;" horiz-adv-x="2680" arabic-form="isolated" 
d="M2419.5 909.5q65.5 -44.5 100.5 -125t35 -187.5q0 -177 -81 -312.5t-227.5 -210t-338.5 -74.5q-173 0 -279 49.5t-158 169.5t-52 332q0 25 2 85q-273 0 -443 -28.5t-243 -70t-73 -82.5q0 -54 72 -78.5t203 -29.5l133 -5q111 -4 173 -29t89 -78.5t27 -146.5
q0 -213 -84.5 -367t-245.5 -235.5t-387 -81.5q-252 0 -385 135.5t-133 388.5q0 263 115 513h23q-62 -166 -62 -330q0 -179 123.5 -275.5t352.5 -96.5q220 0 365 41t211.5 100.5t66.5 115.5q0 17 -22 27t-79.5 16.5t-165.5 10.5l-137 5q-112 4 -178 27t-98 77.5t-32 152.5
q0 283 197.5 429t628.5 146q4 -153 22 -250t59.5 -159.5t116.5 -95.5q131 211 237 335.5t201 180.5t195 56q90 0 155.5 -44.5zM2242.5 351q122.5 16 192 45.5t69.5 70.5t-36.5 94.5t-106 92.5t-162.5 39q-86 0 -186.5 -41t-195.5 -113.5t-165 -164.5q55 -21 131 -30t180 -9
q157 0 279.5 16zM2128.5 1210.5q-56.5 46.5 -97.5 63.5v13l147 180q52 -25 109 -75.5t83 -93.5l-158 -170q-27 36 -83.5 82.5z" />
    <glyph glyph-name="uniFD0D" unicode="&#xfd0d;" horiz-adv-x="2298" arabic-form="isolated" 
d="M2068 888q30 -68 50.5 -126t37.5 -143.5t17 -185.5q0 -207 -72.5 -320t-211.5 -113q-113 0 -172 60t-59 181q0 25 3 53h-12q-20 -146 -97.5 -220t-190.5 -74q-136 0 -209.5 91t-73.5 306q0 42 3 88q-73 -16 -172 -48.5t-175 -63.5q9 -37 15 -83.5t6 -86.5
q0 -229 -64 -397.5t-172 -257.5t-238 -89q-69 0 -130 22t-142 62q-74 36 -103 46v12q178 36 370.5 132t321 205t128.5 177q0 76 -272 290q31 46 51 89t37 97q68 29 261 88t290 78q5 -168 35 -258t95 -127t182 -37q93 0 150 24.5t90 81.5t51 158h23q-5 -46 -28 -202
q31 -29 89 -45.5t131 -16.5q60 0 111.5 9.5t82.5 26.5t31 37q0 33 -47.5 84.5t-174.5 152.5q33 50 69.5 125t60.5 147h11zM1532.5 1211q-49.5 38 -87.5 54v12l126 159q48 -23 98 -64.5t73 -71.5l-126 -160q-34 33 -83.5 71zM1878 985q-25 -66 -34 -101q-112 -8 -224.5 -12.5
t-174.5 -4.5q-87 0 -128 20t-41 71q0 16 4.5 32.5t14.5 45.5q19 55 24 86h12q0 -33 36 -45.5t120 -12.5q52 0 197.5 4.5t235.5 11.5q-17 -29 -42 -95z" />
    <glyph glyph-name="uniFD0E" unicode="&#xfd0e;" horiz-adv-x="2298" arabic-form="isolated" 
d="M2068 888q30 -68 50.5 -126t37.5 -143.5t17 -185.5q0 -207 -72.5 -320t-211.5 -113q-113 0 -172 60t-59 181q0 25 3 53h-12q-20 -146 -97.5 -220t-190.5 -74q-136 0 -209.5 91t-73.5 306q0 42 3 88q-73 -16 -172 -48.5t-175 -63.5q9 -37 15 -83.5t6 -86.5
q0 -229 -64 -397.5t-172 -257.5t-238 -89q-69 0 -130 22t-142 62q-74 36 -103 46v12q178 36 370.5 132t321 205t128.5 177q0 76 -272 290q31 46 51 89t37 97q68 29 261 88t290 78q5 -168 35 -258t95 -127t182 -37q93 0 150 24.5t90 81.5t51 158h23q-5 -46 -28 -202
q31 -29 89 -45.5t131 -16.5q60 0 111.5 9.5t82.5 26.5t31 37q0 33 -47.5 84.5t-174.5 152.5q33 50 69.5 125t60.5 147h11z" />
    <glyph glyph-name="uniFD0F" unicode="&#xfd0f;" horiz-adv-x="2293" arabic-form="isolated" 
d="M2033.5 909.5q65.5 -44.5 100.5 -125t35 -187.5q0 -177 -81 -312.5t-227.5 -210t-338.5 -74.5q-152 0 -249 38.5t-145.5 129.5t-48.5 246q0 46 2 71q-73 -16 -172 -48.5t-175 -63.5q9 -37 15 -83.5t6 -86.5q0 -229 -64 -397.5t-172 -257.5t-238 -89q-69 0 -130 22
t-142 62q-74 36 -103 46v12q178 36 370.5 132t321 205t128.5 177q0 76 -272 290q31 46 51 89t37 97q68 29 261 88t290 78q3 -108 17.5 -179.5t47 -119t89.5 -75.5q130 210 236 334.5t200.5 180.5t194.5 56q90 0 155.5 -44.5zM1856 351q123 16 193 45.5t70 70.5t-37 94.5
t-106.5 92.5t-162.5 39q-86 0 -186.5 -41t-195.5 -113.5t-164 -164.5q52 -21 127.5 -30t181.5 -9q157 0 280 16z" />
    <glyph glyph-name="uniFD10" unicode="&#xfd10;" horiz-adv-x="2293" arabic-form="isolated" 
d="M2033.5 909.5q65.5 -44.5 100.5 -125t35 -187.5q0 -177 -81 -312.5t-227.5 -210t-338.5 -74.5q-152 0 -249 38.5t-145.5 129.5t-48.5 246q0 46 2 71q-73 -16 -172 -48.5t-175 -63.5q9 -37 15 -83.5t6 -86.5q0 -229 -64 -397.5t-172 -257.5t-238 -89q-69 0 -130 22
t-142 62q-74 36 -103 46v12q178 36 370.5 132t321 205t128.5 177q0 76 -272 290q31 46 51 89t37 97q68 29 261 88t290 78q3 -108 17.5 -179.5t47 -119t89.5 -75.5q130 210 236 334.5t200.5 180.5t194.5 56q90 0 155.5 -44.5zM1856 351q123 16 193 45.5t70 70.5t-37 94.5
t-106.5 92.5t-162.5 39q-86 0 -186.5 -41t-195.5 -113.5t-164 -164.5q52 -21 127.5 -30t181.5 -9q157 0 280 16zM1747.5 1210.5q-56.5 46.5 -97.5 63.5v13l147 180q52 -25 109 -75.5t83 -93.5l-158 -170q-27 36 -83.5 82.5z" />
    <glyph glyph-name="uniFD18" unicode="&#xfd18;" horiz-adv-x="2800" arabic-form="final" 
d="M2579.5 386.5q71.5 -51.5 220.5 -51.5l-54 -335q-123 0 -193 63t-70 186q0 23 3 48h-11q-18 -153 -76.5 -225t-165.5 -72q-89 0 -138 58.5t-49 173.5q0 29 3 62h-13q-20 -146 -97 -220t-190 -74q-112 0 -183 55t-108 194t-37 387q-273 0 -443 -28.5t-243 -70t-73 -82.5
q0 -54 72 -78.5t203 -29.5l133 -5q111 -4 173 -29t89 -78.5t27 -146.5q0 -213 -84.5 -367t-245.5 -235.5t-387 -81.5q-252 0 -385 135.5t-133 388.5q0 263 115 513h23q-62 -166 -62 -330q0 -179 123.5 -275.5t352.5 -96.5q220 0 365 41t211.5 100.5t66.5 115.5q0 17 -22 27
t-79.5 16.5t-165.5 10.5l-137 5q-112 4 -178 27t-98 77.5t-32 152.5q0 283 197.5 429t628.5 146q6 -221 40 -338t109 -165.5t211 -48.5q93 0 150 24.5t90 81.5t51 158h22q-9 -81 -27 -202q29 -29 74 -45.5t104 -16.5q78 0 133 31t74 76q0 39 -12 102.5t-24 103.5
q35 14 80 45v-174q0 -81 71.5 -132.5z" />
    <glyph glyph-name="uniFD1A" unicode="&#xfd1a;" horiz-adv-x="2800" arabic-form="final" 
d="M2579.5 386.5q71.5 -51.5 220.5 -51.5l-54 -335q-123 0 -193 63t-70 186q0 23 3 48h-11q-18 -153 -76.5 -225t-165.5 -72q-89 0 -138 58.5t-49 173.5q0 29 3 62h-13q-20 -146 -97 -220t-190 -74q-112 0 -183 55t-108 194t-37 387q-273 0 -443 -28.5t-243 -70t-73 -82.5
q0 -54 72 -78.5t203 -29.5l133 -5q111 -4 173 -29t89 -78.5t27 -146.5q0 -213 -84.5 -367t-245.5 -235.5t-387 -81.5q-252 0 -385 135.5t-133 388.5q0 263 115 513h23q-62 -166 -62 -330q0 -179 123.5 -275.5t352.5 -96.5q220 0 365 41t211.5 100.5t66.5 115.5q0 17 -22 27
t-79.5 16.5t-165.5 10.5l-137 5q-112 4 -178 27t-98 77.5t-32 152.5q0 283 197.5 429t628.5 146q6 -221 40 -338t109 -165.5t211 -48.5q93 0 150 24.5t90 81.5t51 158h22q-9 -81 -27 -202q29 -29 74 -45.5t104 -16.5q78 0 133 31t74 76q0 39 -12 102.5t-24 103.5
q35 14 80 45v-174q0 -81 71.5 -132.5zM1987.5 1211q-49.5 38 -87.5 54v12l126 159q48 -23 98 -64.5t73 -71.5l-126 -160q-34 33 -83.5 71zM2333 985q-25 -66 -34 -101q-112 -8 -224.5 -12.5t-174.5 -4.5q-87 0 -128 20t-41 71q0 16 4.5 32.5t14.5 45.5q19 55 24 86h12
q0 -33 36 -45.5t120 -12.5q52 0 197.5 4.5t235.5 11.5q-17 -29 -42 -95z" />
    <glyph glyph-name="uniFD22" unicode="&#xfd22;" horiz-adv-x="2729" arabic-form="final" 
d="M2729 335l-54 -335q-198 0 -197 291q-79 -137 -227.5 -214t-342.5 -77q-173 0 -279 49.5t-158 169.5t-52 332q0 25 2 85q-273 0 -443 -28.5t-243 -70t-73 -82.5q0 -54 72 -78.5t203 -29.5l133 -5q111 -4 173 -29t89 -78.5t27 -146.5q0 -213 -84.5 -367t-245.5 -235.5
t-387 -81.5q-252 0 -385 135.5t-133 388.5q0 263 115 513h23q-62 -166 -62 -330q0 -179 123.5 -275.5t352.5 -96.5q220 0 365 41t211.5 100.5t66.5 115.5q0 17 -22 27t-79.5 16.5t-165.5 10.5l-137 5q-112 4 -178 27t-98 77.5t-32 152.5q0 283 197.5 429t628.5 146
q4 -153 22 -250t59.5 -159.5t116.5 -95.5q131 211 237 335.5t201 180.5t195 56q90 0 155.5 -44.5t100.5 -125t35 -187.5q0 -132 -48 -247q66 -15 208 -15h14zM2242.5 351q122.5 16 192 45.5t69.5 70.5t-36.5 94.5t-106 92.5t-162.5 39q-86 0 -186.5 -41t-195.5 -113.5
t-165 -164.5q55 -21 131 -30t180 -9q157 0 279.5 16z" />
    <glyph glyph-name="uniFD24" unicode="&#xfd24;" horiz-adv-x="2729" arabic-form="final" 
d="M2729 335l-54 -335q-198 0 -197 291q-79 -137 -227.5 -214t-342.5 -77q-173 0 -279 49.5t-158 169.5t-52 332q0 25 2 85q-273 0 -443 -28.5t-243 -70t-73 -82.5q0 -54 72 -78.5t203 -29.5l133 -5q111 -4 173 -29t89 -78.5t27 -146.5q0 -213 -84.5 -367t-245.5 -235.5
t-387 -81.5q-252 0 -385 135.5t-133 388.5q0 263 115 513h23q-62 -166 -62 -330q0 -179 123.5 -275.5t352.5 -96.5q220 0 365 41t211.5 100.5t66.5 115.5q0 17 -22 27t-79.5 16.5t-165.5 10.5l-137 5q-112 4 -178 27t-98 77.5t-32 152.5q0 283 197.5 429t628.5 146
q4 -153 22 -250t59.5 -159.5t116.5 -95.5q131 211 237 335.5t201 180.5t195 56q90 0 155.5 -44.5t100.5 -125t35 -187.5q0 -132 -48 -247q66 -15 208 -15h14zM2242.5 351q122.5 16 192 45.5t69.5 70.5t-36.5 94.5t-106 92.5t-162.5 39q-86 0 -186.5 -41t-195.5 -113.5
t-165 -164.5q55 -21 131 -30t180 -9q157 0 279.5 16zM2128.5 1210.5q-56.5 46.5 -97.5 63.5v13l147 180q52 -25 109 -75.5t83 -93.5l-158 -170q-27 36 -83.5 82.5z" />
    <glyph glyph-name="uniFD29" unicode="&#xfd29;" horiz-adv-x="2413" arabic-form="final" 
d="M2193 386.5q71 -51.5 220 -51.5l-55 -335q-123 0 -192.5 62.5t-69.5 184.5q0 23 3 50h-12q-18 -153 -76.5 -225t-164.5 -72q-89 0 -138.5 59t-49.5 176q0 28 3 59h-12q-20 -146 -97.5 -220t-190.5 -74q-136 0 -209.5 91t-73.5 306q0 42 3 88q-73 -16 -172 -48.5
t-175 -63.5q9 -37 15 -83.5t6 -86.5q0 -229 -64 -397.5t-172 -257.5t-238 -89q-69 0 -130 22t-142 62q-74 36 -103 46v12q178 36 370.5 132t321 205t128.5 177q0 76 -272 290q31 46 51 89t37 97q68 29 261 88t290 78q5 -168 35 -258t95 -127t182 -37q93 0 150 24.5t90 81.5
t51 158h23q-6 -54 -28 -202q29 -29 74.5 -45.5t103.5 -16.5q78 0 133.5 31.5t73.5 75.5q0 39 -11.5 103t-23.5 103q17 7 39.5 19.5t39.5 25.5l1 -174q1 -81 72 -132.5zM1602.5 1211q-49.5 38 -87.5 54v12l126 159q48 -23 98 -64.5t73 -71.5l-126 -160q-34 33 -83.5 71z
M1948 985q-25 -66 -34 -101q-112 -8 -224.5 -12.5t-174.5 -4.5q-87 0 -128 20t-41 71q0 16 4.5 32.5t14.5 45.5q19 55 24 86h12q0 -33 36 -45.5t120 -12.5q52 0 197.5 4.5t235.5 11.5q-17 -29 -42 -95z" />
    <glyph glyph-name="uniFD2A" unicode="&#xfd2a;" horiz-adv-x="2413" arabic-form="final" 
d="M2193 386.5q71 -51.5 220 -51.5l-55 -335q-123 0 -192.5 62.5t-69.5 184.5q0 23 3 50h-12q-18 -153 -76.5 -225t-164.5 -72q-89 0 -138.5 59t-49.5 176q0 28 3 59h-12q-20 -146 -97.5 -220t-190.5 -74q-136 0 -209.5 91t-73.5 306q0 42 3 88q-73 -16 -172 -48.5
t-175 -63.5q9 -37 15 -83.5t6 -86.5q0 -229 -64 -397.5t-172 -257.5t-238 -89q-69 0 -130 22t-142 62q-74 36 -103 46v12q178 36 370.5 132t321 205t128.5 177q0 76 -272 290q31 46 51 89t37 97q68 29 261 88t290 78q5 -168 35 -258t95 -127t182 -37q93 0 150 24.5t90 81.5
t51 158h23q-6 -54 -28 -202q29 -29 74.5 -45.5t103.5 -16.5q78 0 133.5 31.5t73.5 75.5q0 39 -11.5 103t-23.5 103q17 7 39.5 19.5t39.5 25.5l1 -174q1 -81 72 -132.5z" />
    <glyph glyph-name="uniFD2B" unicode="&#xfd2b;" horiz-adv-x="2343" arabic-form="final" 
d="M2343 335l-55 -335q-199 0 -196 291q-79 -137 -227.5 -214t-342.5 -77q-152 0 -249 38.5t-145.5 129.5t-48.5 246q0 46 2 71q-73 -16 -172 -48.5t-175 -63.5q9 -37 15 -83.5t6 -86.5q0 -229 -64 -397.5t-172 -257.5t-238 -89q-69 0 -130 22t-142 62q-74 36 -103 46v12
q178 36 370.5 132t321 205t128.5 177q0 76 -272 290q31 46 51 89t37 97q68 29 261 88t290 78q3 -108 17.5 -179.5t47 -119t89.5 -75.5q130 210 236 334.5t200.5 180.5t194.5 56q90 0 155.5 -44.5t100.5 -125t35 -187.5q0 -132 -48 -247q66 -15 208 -15h14zM1856 351
q123 16 193 45.5t70 70.5t-37 94.5t-106.5 92.5t-162.5 39q-86 0 -186.5 -41t-195.5 -113.5t-164 -164.5q52 -21 127.5 -30t181.5 -9q157 0 280 16z" />
    <glyph glyph-name="uniFD2C" unicode="&#xfd2c;" horiz-adv-x="2343" arabic-form="final" 
d="M2343 335l-55 -335q-199 0 -196 291q-79 -137 -227.5 -214t-342.5 -77q-152 0 -249 38.5t-145.5 129.5t-48.5 246q0 46 2 71q-73 -16 -172 -48.5t-175 -63.5q9 -37 15 -83.5t6 -86.5q0 -229 -64 -397.5t-172 -257.5t-238 -89q-69 0 -130 22t-142 62q-74 36 -103 46v12
q178 36 370.5 132t321 205t128.5 177q0 76 -272 290q31 46 51 89t37 97q68 29 261 88t290 78q3 -108 17.5 -179.5t47 -119t89.5 -75.5q130 210 236 334.5t200.5 180.5t194.5 56q90 0 155.5 -44.5t100.5 -125t35 -187.5q0 -132 -48 -247q66 -15 208 -15h14zM1856 351
q123 16 193 45.5t70 70.5t-37 94.5t-106.5 92.5t-162.5 39q-86 0 -186.5 -41t-195.5 -113.5t-164 -164.5q52 -21 127.5 -30t181.5 -9q157 0 280 16zM1747.5 1210.5q-56.5 46.5 -97.5 63.5v13l147 180q52 -25 109 -75.5t83 -93.5l-158 -170q-27 36 -83.5 82.5z" />
    <glyph glyph-name="uniFDF2" unicode="&#xfdf2;" horiz-adv-x="3144" arabic-form="isolated" 
d="M2478 1223q11 -134 17.5 -241t6.5 -215q0 -100 -23 -225t-66 -245.5t-101 -203.5q-32 -45 -90.5 -69t-124.5 -24q-305 0 -305 389q0 19 2 63h-11q-51 -180 -121 -277t-175.5 -136t-274.5 -39q-166 0 -269.5 50t-155 156t-57.5 279h-11q-20 -196 -101 -286t-242 -90
q-125 0 -188.5 57t-63.5 164q0 97 43 183.5t163 189t342 226.5q-15 87 -22 113q44 35 98.5 96t92.5 122h9q1 -9 8.5 -69t13.5 -158q129 66 198 105t121 79q-43 -94 -55 -147q-116 -56 -259 -128q5 -123 5 -275q0 -170 89.5 -251t291.5 -81q208 0 311 24.5t156 94.5t85 221
q39 10 88 44q0 -148 32.5 -231.5t97.5 -118t172 -34.5q47 0 91 10t71 27.5t27 38.5q0 103 -30.5 262t-69.5 302.5t-59 187.5q53 54 113 133.5t104 149.5h12q0 -62 14 -223zM624.5 469.5q83.5 35.5 83.5 99.5q0 108 -24 274q-194 -103 -296 -169.5t-134.5 -101.5t-32.5 -58
q0 -42 41 -61t147 -19q132 0 215.5 35.5zM2979 1484q18 -430 18 -690q0 -206 -10 -328.5t-26 -192t-48 -164.5q-4 -12 -18.5 -55t-27.5 -90h-12q1 19 1 64q0 168 -21 468t-48.5 574.5t-43.5 353.5q53 53 113 132t104 150h12q0 -40 7 -222zM2050 1129q0 -70 -33 -114.5
t-91 -44.5q-32 0 -58.5 16.5t-41.5 47.5q-13 -66 -55.5 -107.5t-106.5 -41.5q-55 0 -84 35t-29 91q0 27 8 61l40 18q-4 -32 -4 -45q0 -91 76 -91q60 0 88.5 45t30.5 140l42 25q9 -61 32.5 -93.5t63.5 -32.5q39 0 56 25.5t17 67.5q0 54 -22 114l38 27q33 -73 33 -143z
M1823 1280l-45 -22l-12 391l68 45z" />
    <glyph glyph-name="uniFE86" unicode="&#x624;" horiz-adv-x="1023" arabic-form="final" 
d="M968 0h-106q-29 -174 -102 -296t-174.5 -183.5t-218.5 -61.5q-74 0 -141.5 21.5t-160.5 62.5q-73 34 -120 48v12q155 22 335 88t326 156t205 183q-78 -18 -157 -26t-179 -8q-151 0 -225.5 84t-74.5 245q0 140 43 259t121.5 190t180.5 71q100 0 176 -60.5t122 -175
t58 -274.5h147zM244 378.5q26 -28.5 86 -46.5t157 -18q213 0 333 9q-38 132 -128 207t-216 75q-68 0 -127.5 -27t-95 -66t-35.5 -73q0 -32 26 -60.5zM543.5 1201q73.5 10 105.5 21v-12q-16 -24 -31 -61.5t-24 -71.5q-107 -20 -208 -66t-162 -101h-12q16 54 50.5 97.5
t82.5 72.5q-59 16 -90 53.5t-31 88.5q0 70 28.5 135.5t76 106t100.5 40.5t86 -37.5t33 -92.5q0 -20 -3 -36t-4 -20h-12q-9 73 -101 73q-50 0 -89 -19.5t-60.5 -46.5t-21.5 -47q0 -21 18 -41t54.5 -33t87.5 -13q53 0 126.5 10z" />
    <glyph glyph-name="uniFE8B" unicode="&#x626;" horiz-adv-x="598" arabic-form="initial" 
d="M422 208q-51 -104 -167 -156t-310 -52q-29 0 -43 27.5t-14 81.5q0 112 29 169t83 57q113 0 213.5 13.5t161.5 35t61 46.5q0 22 -37.5 70t-95 103t-113.5 96q34 44 76 130t65 153h12q5 -14 20 -48q47 -106 78.5 -213.5t31.5 -245.5q0 -163 -51 -267zM341.5 1313
q73.5 10 105.5 21v-12q-16 -24 -31 -61.5t-24 -71.5q-107 -20 -208 -66t-162 -101h-12q16 54 50.5 97.5t82.5 72.5q-59 16 -90 53.5t-31 88.5q0 70 28.5 135.5t76 106t100.5 40.5t86 -37.5t33 -92.5q0 -20 -3 -36t-4 -20h-12q-9 73 -101 73q-50 0 -89 -19.5t-60.5 -46.5
t-21.5 -47q0 -21 18 -41t54.5 -33t87.5 -13q53 0 126.5 10z" />
    <glyph glyph-name="uniFE8C" unicode="&#x626;" horiz-adv-x="812" arabic-form="medial" 
d="M543.5 73q-81.5 73 -81.5 247q0 34 5 86h-13q-4 -146 -58 -235t-164 -130t-287 -41q-29 0 -43 27.5t-14 81.5q0 112 29 169t83 57q201 0 299 27.5t140 95t66 211.5h22v-115q0 -109 64.5 -164t220.5 -55l-54 -335q-133 0 -214.5 73zM487.5 991q73.5 10 105.5 21v-12
q-16 -24 -31 -61.5t-24 -71.5q-107 -20 -208 -66t-162 -101h-12q16 54 50.5 97.5t82.5 72.5q-59 16 -90 53.5t-31 88.5q0 70 28.5 135.5t76 106t100.5 40.5t86 -37.5t33 -92.5q0 -20 -3 -36t-4 -20h-12q-9 73 -101 73q-50 0 -89 -19.5t-60.5 -46.5t-21.5 -47q0 -21 18 -41
t54.5 -33t87.5 -13q53 0 126.5 10z" />
    <glyph glyph-name="uniFE8E" unicode="&#x627;" horiz-adv-x="634" arabic-form="final" 
d="M363.5 41.5q-79.5 41.5 -119 140t-45.5 273.5q-10 319 -21.5 492.5t-25.5 267.5t-41 209q53 53 113 132t104 150h12q0 -54 5 -137q7 -166 7 -278q0 -98 -6 -326q-6 -242 -6 -366q0 -137 69 -200.5t225 -63.5l-55 -335q-136 0 -215.5 41.5z" />
    <glyph glyph-name="uniFE90" unicode="&#x628;" horiz-adv-x="2014" arabic-form="final" 
d="M1739.5 78q-75.5 78 -75.5 230q0 60 11 140h-12q-47 -163 -155 -264.5t-279.5 -148.5t-416.5 -47t-396.5 50t-221.5 149t-70 251q0 92 17 190.5t64 222.5h22q-18 -62 -25 -112.5t-7 -107.5q0 -89 71.5 -158.5t217.5 -109.5t361 -40q381 0 591.5 70t281.5 221h17
q-6 -52 -6 -91q0 -85 67 -136.5t218 -51.5l-54 -335q-145 0 -220.5 78zM792.5 -425q-54.5 46 -94.5 63v12l147 180q52 -24 109 -75t83 -94l-158 -170q-32 38 -86.5 84z" />
    <glyph glyph-name="uniFE91" unicode="&#x628;" horiz-adv-x="598" arabic-form="initial" 
d="M422 208q-51 -104 -167 -156t-310 -52q-29 0 -43 27.5t-14 81.5q0 112 29 169t83 57q113 0 213.5 13.5t161.5 35t61 46.5q0 22 -37.5 70t-95 103t-113.5 96q34 44 76 130t65 153h12q5 -14 20 -48q47 -106 78.5 -213.5t31.5 -245.5q0 -163 -51 -267zM25.5 -425
q-54.5 46 -94.5 63v12l147 180q52 -24 109 -75t83 -94l-158 -170q-32 38 -86.5 84z" />
    <glyph glyph-name="uniFE92" unicode="&#x628;" horiz-adv-x="812" arabic-form="medial" 
d="M543.5 73q-81.5 73 -81.5 247q0 34 5 86h-13q-4 -146 -58 -235t-164 -130t-287 -41q-29 0 -43 27.5t-14 81.5q0 112 29 169t83 57q201 0 299 27.5t140 95t66 211.5h22v-115q0 -109 64.5 -164t220.5 -55l-54 -335q-133 0 -214.5 73zM43.5 -425q-54.5 46 -94.5 63v12
l147 180q52 -24 109 -75t83 -94l-158 -170q-32 38 -86.5 84z" />
    <glyph glyph-name="uniFE94" unicode="&#x629;" horiz-adv-x="1136" arabic-form="final" 
d="M946 405.5q64 -70.5 190 -70.5l-54 -335q-113 0 -188 46.5t-116.5 153t-47.5 285.5h-12q-20 -196 -101 -286t-242 -90q-124 0 -187.5 57.5t-63.5 163.5q0 102 46 188t163.5 186t335.5 236q-11 65 -20 102q45 35 99.5 95.5t92.5 122.5h8q2 -22 4 -32q13 -108 21 -238.5
t8 -364.5q0 -149 64 -219.5zM623.5 469.5q83.5 35.5 83.5 99.5q0 101 -23 271q-256 -127 -359.5 -206t-103.5 -120q0 -42 41 -61t146 -19q132 0 215.5 35.5zM996.5 1513q-24.5 -70 -34.5 -108q-112 -8 -224.5 -12.5t-174.5 -4.5q-87 0 -128 20t-41 71q0 16 5 35.5t14 48.5
q1 5 10.5 33.5t13.5 57.5h12q0 -33 36 -45.5t120 -12.5q58 0 201 4.5t232 11.5q-17 -29 -41.5 -99z" />
    <glyph glyph-name="uniFE96" unicode="&#x62a;" horiz-adv-x="2014" arabic-form="final" 
d="M1739.5 78q-75.5 78 -75.5 230q0 60 11 140h-12q-47 -163 -155 -264.5t-279.5 -148.5t-416.5 -47t-396.5 50t-221.5 149t-70 251q0 92 17 190.5t64 222.5h22q-18 -62 -25 -112.5t-7 -107.5q0 -89 71.5 -158.5t217.5 -109.5t361 -40q381 0 591.5 70t281.5 221h17
q-6 -52 -6 -91q0 -85 67 -136.5t218 -51.5l-54 -335q-145 0 -220.5 78zM1226.5 849q-24.5 -70 -34.5 -108q-112 -8 -224.5 -12.5t-174.5 -4.5q-87 0 -128 20t-41 71q0 16 5 35.5t14 48.5q1 5 10.5 33.5t13.5 57.5h12q0 -33 36 -45.5t120 -12.5q58 0 201 4.5t232 11.5
q-17 -29 -41.5 -99z" />
    <glyph glyph-name="uniFE97" unicode="&#x62a;" horiz-adv-x="598" arabic-form="initial" 
d="M422 208q-51 -104 -167 -156t-310 -52q-29 0 -43 27.5t-14 81.5q0 112 29 169t83 57q113 0 213.5 13.5t161.5 35t61 46.5q0 22 -37.5 70t-95 103t-113.5 96q34 44 76 130t65 153h12q5 -14 20 -48q47 -106 78.5 -213.5t31.5 -245.5q0 -163 -51 -267zM500.5 1249
q-24.5 -70 -34.5 -108q-112 -8 -224.5 -12.5t-174.5 -4.5q-87 0 -128 20t-41 71q0 16 5 35.5t14 48.5q1 5 10.5 33.5t13.5 57.5h12q0 -33 36 -45.5t120 -12.5q58 0 201 4.5t232 11.5q-17 -29 -41.5 -99z" />
    <glyph glyph-name="uniFE98" unicode="&#x62a;" horiz-adv-x="812" arabic-form="medial" 
d="M543.5 73q-81.5 73 -81.5 247q0 34 5 86h-13q-4 -146 -58 -235t-164 -130t-287 -41q-29 0 -43 27.5t-14 81.5q0 112 29 169t83 57q201 0 299 27.5t140 95t66 211.5h22v-115q0 -109 64.5 -164t220.5 -55l-54 -335q-133 0 -214.5 73zM634.5 983q-24.5 -70 -34.5 -108
q-112 -8 -224.5 -12.5t-174.5 -4.5q-87 0 -128 20t-41 71q0 16 5 35.5t14 48.5q1 5 10.5 33.5t13.5 57.5h12q0 -33 36 -45.5t120 -12.5q58 0 201 4.5t232 11.5q-17 -29 -41.5 -99z" />
    <glyph glyph-name="uniFE9A" unicode="&#x62b;" horiz-adv-x="2014" arabic-form="final" 
d="M1739.5 78q-75.5 78 -75.5 230q0 60 11 140h-12q-47 -163 -155 -264.5t-279.5 -148.5t-416.5 -47t-396.5 50t-221.5 149t-70 251q0 92 17 190.5t64 222.5h22q-18 -62 -25 -112.5t-7 -107.5q0 -89 71.5 -158.5t217.5 -109.5t361 -40q381 0 591.5 70t281.5 221h17
q-6 -52 -6 -91q0 -85 67 -136.5t218 -51.5l-54 -335q-145 0 -220.5 78zM880.5 1068q-49.5 38 -87.5 54v12l126 159q48 -23 98 -64.5t73 -71.5l-126 -160q-34 33 -83.5 71zM1226 842q-25 -66 -34 -101q-112 -8 -224.5 -12.5t-174.5 -4.5q-87 0 -128 20t-41 71q0 16 4.5 32.5
t14.5 45.5q19 55 24 86h12q0 -33 36 -45.5t120 -12.5q52 0 197.5 4.5t235.5 11.5q-17 -29 -42 -95z" />
    <glyph glyph-name="uniFE9B" unicode="&#x62b;" horiz-adv-x="598" arabic-form="initial" 
d="M422 208q-51 -104 -167 -156t-310 -52q-29 0 -43 27.5t-14 81.5q0 112 29 169t83 57q113 0 213.5 13.5t161.5 35t61 46.5q0 22 -37.5 70t-95 103t-113.5 96q34 44 76 130t65 153h12q5 -14 20 -48q47 -106 78.5 -213.5t31.5 -245.5q0 -163 -51 -267zM154.5 1468
q-49.5 38 -87.5 54v12l126 159q48 -23 98 -64.5t73 -71.5l-126 -160q-34 33 -83.5 71zM500 1242q-25 -66 -34 -101q-112 -8 -224.5 -12.5t-174.5 -4.5q-87 0 -128 20t-41 71q0 16 4.5 32.5t14.5 45.5q19 55 24 86h12q0 -33 36 -45.5t120 -12.5q52 0 197.5 4.5t235.5 11.5
q-17 -29 -42 -95z" />
    <glyph glyph-name="uniFE9C" unicode="&#x62b;" horiz-adv-x="812" arabic-form="medial" 
d="M543.5 73q-81.5 73 -81.5 247q0 34 5 86h-13q-4 -146 -58 -235t-164 -130t-287 -41q-29 0 -43 27.5t-14 81.5q0 112 29 169t83 57q201 0 299 27.5t140 95t66 211.5h22v-115q0 -109 64.5 -164t220.5 -55l-54 -335q-133 0 -214.5 73zM288.5 1202q-49.5 38 -87.5 54v12
l126 159q48 -23 98 -64.5t73 -71.5l-126 -160q-34 33 -83.5 71zM634 976q-25 -66 -34 -101q-112 -8 -224.5 -12.5t-174.5 -4.5q-87 0 -128 20t-41 71q0 16 4.5 32.5t14.5 45.5q19 55 24 86h12q0 -33 36 -45.5t120 -12.5q52 0 197.5 4.5t235.5 11.5q-17 -29 -42 -95z" />
    <glyph glyph-name="uniFE9E" unicode="&#x62c;" horiz-adv-x="1477" arabic-form="final" 
d="M630.5 -132q-54.5 46 -94.5 63v12l147 180q52 -24 109 -75t83 -94l-158 -170q-32 38 -86.5 84zM1477 335l-54 -335h-34q-138 0 -217 33.5t-113 107.5t-34 201q0 64 7 120q-272 -67 -466 -154t-296 -186.5t-102 -204.5q0 -103 90.5 -189t245.5 -136t340 -50q131 0 272.5 9
t239.5 28v-13q-26 -21 -76 -65q-88 -78 -160.5 -128t-182.5 -86.5t-255 -36.5q-167 0 -293.5 67t-195.5 191t-69 288q0 211 83 360t263 257t481 192v12q-44 5 -98.5 20.5t-142.5 45.5q-109 37 -179.5 56t-126.5 19q-74 0 -128 -32t-90 -98h-12q40 155 82 237.5t89.5 112.5
t113.5 30t146.5 -24t213.5 -74q171 -64 293 -99.5t248 -40.5v-12q-38 -35 -90.5 -113.5t-81.5 -146.5l-135 -30q7 -50 45.5 -78.5t121 -41.5t224.5 -13h33z" />
    <glyph glyph-name="uniFE9F" unicode="&#x62c;" horiz-adv-x="1394" arabic-form="initial" 
d="M298.5 -425q-54.5 46 -94.5 63v12l147 180q52 -24 109 -75t83 -94l-158 -170q-32 38 -86.5 84zM522 926q78 -23 215 -74q169 -64 295.5 -100t256.5 -41v-12q-28 -26 -75 -92t-72 -115q-67 0 -125 -22.5t-106 -56.5t-122 -96q-115 -97 -214.5 -161t-256.5 -110t-373 -46
q-29 0 -43 27.5t-14 81.5q0 112 29 169t83 57q252 0 422 20t267 47.5t206 70.5q77 30 113 41v12q-106 19 -197 45t-197 61q-109 35 -171.5 51t-118.5 16q-74 0 -128 -32t-90 -98h-12q40 155 82 237.5t90 112.5t113 30t143 -23z" />
    <glyph glyph-name="uniFEA0" unicode="&#x62c;" horiz-adv-x="1357" arabic-form="medial" 
d="M298.5 -425q-54.5 46 -94.5 63v12l147 180q52 -24 109 -75t83 -94l-158 -170q-32 38 -86.5 84zM1357 335l-55 -335h-26q-135 0 -208.5 28.5t-104 92.5t-30.5 178q0 46 9 134q-34 -21 -66.5 -46.5t-86.5 -69.5q-117 -98 -216 -161.5t-255.5 -109.5t-372.5 -46
q-29 0 -43 27.5t-14 81.5q0 112 29 169t83 57q252 0 422 20t267 47.5t206 70.5q77 30 113 41v12q-106 19 -197 45t-197 61q-109 35 -171.5 51t-118.5 16q-74 0 -128 -32t-90 -98h-12q40 155 82 237.5t90 112.5t113 30t143 -23t215 -74q169 -64 295.5 -100t256.5 -41v-12
q-28 -26 -75 -92t-72 -115q-91 0 -176 -45q15 -46 57 -70t114 -33t193 -9h27z" />
    <glyph glyph-name="uniFEA2" unicode="&#x62d;" horiz-adv-x="1477" arabic-form="final" 
d="M1477 335l-54 -335h-34q-138 0 -217 33.5t-113 107.5t-34 201q0 64 7 120q-272 -67 -466 -154t-296 -186.5t-102 -204.5q0 -103 90.5 -189t245.5 -136t340 -50q131 0 272.5 9t239.5 28v-13q-26 -21 -76 -65q-88 -78 -160.5 -128t-182.5 -86.5t-255 -36.5
q-167 0 -293.5 67t-195.5 191t-69 288q0 211 83 360t263 257t481 192v12q-44 5 -98.5 20.5t-142.5 45.5q-109 37 -179.5 56t-126.5 19q-74 0 -128 -32t-90 -98h-12q40 155 82 237.5t89.5 112.5t113.5 30t146.5 -24t213.5 -74q171 -64 293 -99.5t248 -40.5v-12
q-38 -35 -90.5 -113.5t-81.5 -146.5l-135 -30q7 -50 45.5 -78.5t121 -41.5t224.5 -13h33z" />
    <glyph glyph-name="uniFEA3" unicode="&#x62d;" horiz-adv-x="1394" arabic-form="initial" 
d="M522 926q78 -23 215 -74q169 -64 295.5 -100t256.5 -41v-12q-28 -26 -75 -92t-72 -115q-67 0 -125 -22.5t-106 -56.5t-122 -96q-115 -97 -214.5 -161t-256.5 -110t-373 -46q-29 0 -43 27.5t-14 81.5q0 112 29 169t83 57q252 0 422 20t267 47.5t206 70.5q77 30 113 41v12
q-106 19 -197 45t-197 61q-109 35 -171.5 51t-118.5 16q-74 0 -128 -32t-90 -98h-12q40 155 82 237.5t90 112.5t113 30t143 -23z" />
    <glyph glyph-name="uniFEA4" unicode="&#x62d;" horiz-adv-x="1357" arabic-form="medial" 
d="M1357 335l-55 -335h-26q-135 0 -208.5 28.5t-104 92.5t-30.5 178q0 46 9 134q-34 -21 -66.5 -46.5t-86.5 -69.5q-117 -98 -216 -161.5t-255.5 -109.5t-372.5 -46q-29 0 -43 27.5t-14 81.5q0 112 29 169t83 57q252 0 422 20t267 47.5t206 70.5q77 30 113 41v12
q-106 19 -197 45t-197 61q-109 35 -171.5 51t-118.5 16q-74 0 -128 -32t-90 -98h-12q40 155 82 237.5t90 112.5t113 30t143 -23t215 -74q169 -64 295.5 -100t256.5 -41v-12q-28 -26 -75 -92t-72 -115q-91 0 -176 -45q15 -46 57 -70t114 -33t193 -9h27z" />
    <glyph glyph-name="uniFEA6" unicode="&#x62e;" horiz-adv-x="1477" arabic-form="final" 
d="M1477 335l-54 -335h-34q-138 0 -217 33.5t-113 107.5t-34 201q0 64 7 120q-272 -67 -466 -154t-296 -186.5t-102 -204.5q0 -103 90.5 -189t245.5 -136t340 -50q131 0 272.5 9t239.5 28v-13q-26 -21 -76 -65q-88 -78 -160.5 -128t-182.5 -86.5t-255 -36.5
q-167 0 -293.5 67t-195.5 191t-69 288q0 211 83 360t263 257t481 192v12q-44 5 -98.5 20.5t-142.5 45.5q-109 37 -179.5 56t-126.5 19q-74 0 -128 -32t-90 -98h-12q40 155 82 237.5t89.5 112.5t113.5 30t146.5 -24t213.5 -74q171 -64 293 -99.5t248 -40.5v-12
q-38 -35 -90.5 -113.5t-81.5 -146.5l-135 -30q7 -50 45.5 -78.5t121 -41.5t224.5 -13h33zM525.5 1325.5q-56.5 46.5 -97.5 63.5v13l147 180q52 -25 109 -75.5t83 -93.5l-158 -170q-27 36 -83.5 82.5z" />
    <glyph glyph-name="uniFEA7" unicode="&#x62e;" horiz-adv-x="1394" arabic-form="initial" 
d="M522 926q78 -23 215 -74q169 -64 295.5 -100t256.5 -41v-12q-28 -26 -75 -92t-72 -115q-67 0 -125 -22.5t-106 -56.5t-122 -96q-115 -97 -214.5 -161t-256.5 -110t-373 -46q-29 0 -43 27.5t-14 81.5q0 112 29 169t83 57q252 0 422 20t267 47.5t206 70.5q77 30 113 41v12
q-106 19 -197 45t-197 61q-109 35 -171.5 51t-118.5 16q-74 0 -128 -32t-90 -98h-12q40 155 82 237.5t90 112.5t113 30t143 -23zM452.5 1322.5q-56.5 46.5 -97.5 63.5v13l147 180q52 -25 109 -75.5t83 -93.5l-158 -170q-27 36 -83.5 82.5z" />
    <glyph glyph-name="uniFEA8" unicode="&#x62e;" horiz-adv-x="1357" arabic-form="medial" 
d="M1357 335l-55 -335h-26q-135 0 -208.5 28.5t-104 92.5t-30.5 178q0 46 9 134q-34 -21 -66.5 -46.5t-86.5 -69.5q-117 -98 -216 -161.5t-255.5 -109.5t-372.5 -46q-29 0 -43 27.5t-14 81.5q0 112 29 169t83 57q252 0 422 20t267 47.5t206 70.5q77 30 113 41v12
q-106 19 -197 45t-197 61q-109 35 -171.5 51t-118.5 16q-74 0 -128 -32t-90 -98h-12q40 155 82 237.5t90 112.5t113 30t143 -23t215 -74q169 -64 295.5 -100t256.5 -41v-12q-28 -26 -75 -92t-72 -115q-91 0 -176 -45q15 -46 57 -70t114 -33t193 -9h27zM452.5 1322.5
q-56.5 46.5 -97.5 63.5v13l147 180q52 -25 109 -75.5t83 -93.5l-158 -170q-27 36 -83.5 82.5z" />
    <glyph glyph-name="uniFEAA" unicode="&#x62f;" horiz-adv-x="1261" arabic-form="final" 
d="M961.5 111q-99.5 111 -135.5 358h-12q-16 -240 -120 -360.5t-301 -120.5q-138 0 -208 71.5t-70 210.5q0 79 23 242h19q-2 -74 21 -114.5t78.5 -57.5t157.5 -17q106 0 189.5 21t130.5 56t47 75q0 25 -21.5 108.5t-57.5 185t-79 183.5q33 40 93.5 150t68.5 144h12
q12 -57 35.5 -149.5t57.5 -223.5l65 -248q40 -157 112.5 -223.5t193.5 -66.5l-55 -335q-145 0 -244.5 111z" />
    <glyph glyph-name="uniFEAC" unicode="&#x630;" horiz-adv-x="1261" arabic-form="final" 
d="M961.5 111q-99.5 111 -135.5 358h-12q-16 -240 -120 -360.5t-301 -120.5q-138 0 -208 71.5t-70 210.5q0 79 23 242h19q-2 -74 21 -114.5t78.5 -57.5t157.5 -17q106 0 189.5 21t130.5 56t47 75q0 25 -21.5 108.5t-57.5 185t-79 183.5q33 40 93.5 150t68.5 144h12
q12 -57 35.5 -149.5t57.5 -223.5l65 -248q40 -157 112.5 -223.5t193.5 -66.5l-55 -335q-145 0 -244.5 111zM678.5 1473.5q-56.5 46.5 -97.5 63.5v13l147 180q52 -25 109 -75.5t83 -93.5l-158 -170q-27 36 -83.5 82.5z" />
    <glyph glyph-name="uniFEAE" unicode="&#x631;" horiz-adv-x="945" arabic-form="final" 
d="M891 0q-79 0 -144 45q-21 -183 -88 -315.5t-165.5 -201.5t-213.5 -69q-69 0 -129 21.5t-142 62.5q-74 36 -103 46v12q159 32 333 113.5t305.5 179.5t171.5 175q-117 102 -226 379q25 34 60 111t59 150h12q43 -144 92.5 -226t105.5 -115t126 -33z" />
    <glyph glyph-name="uniFEB0" unicode="&#x632;" horiz-adv-x="945" arabic-form="final" 
d="M891 0q-79 0 -144 45q-21 -183 -88 -315.5t-165.5 -201.5t-213.5 -69q-69 0 -129 21.5t-142 62.5q-74 36 -103 46v12q159 32 333 113.5t305.5 179.5t171.5 175q-117 102 -226 379q25 34 60 111t59 150h12q43 -144 92.5 -226t105.5 -115t126 -33zM513.5 934.5
q-56.5 46.5 -97.5 63.5v13l147 180q52 -25 109 -75.5t83 -93.5l-158 -170q-27 36 -83.5 82.5z" />
    <glyph glyph-name="uniFEB2" unicode="&#x633;" horiz-adv-x="2595" arabic-form="final" 
d="M2372.5 385.5q68.5 -50.5 222.5 -50.5l-54 -335q-127 0 -195 61.5t-68 184.5q0 24 3 51h-11q-18 -153 -76.5 -225t-165.5 -72q-89 0 -138 58.5t-49 173.5q0 29 3 62h-13q-20 -146 -97 -220t-190 -74q-135 0 -212 92q-18 -208 -107.5 -353t-238.5 -219t-344 -74
q-167 0 -283 61.5t-175.5 179t-59.5 284.5q0 261 115 513h23q-62 -166 -62 -330q0 -118 55.5 -201.5t162 -127t258.5 -43.5q178 0 320.5 51t222 130t79.5 158q0 32 -46 122t-133 227q24 32 58.5 109t59.5 152h13q47 -153 100.5 -240.5t111.5 -121.5t126 -34q93 0 150 24.5
t90 81.5t51 158h22q-9 -81 -27 -202q29 -29 74 -45.5t104 -16.5q78 0 133 31t74 76q0 39 -12 102.5t-24 103.5q35 14 80 45l1 -174q0 -83 68.5 -133.5z" />
    <glyph glyph-name="uniFEB3" unicode="&#x633;" horiz-adv-x="1436" arabic-form="initial" 
d="M1208 883q29 -65 49.5 -123.5t37 -143t16.5 -183.5q0 -207 -73 -320t-212 -113q-111 0 -170.5 59.5t-59.5 179.5q0 27 3 55h-12q-19 -146 -97 -220t-191 -74q-95 0 -148 55.5t-53 165.5q0 41 5 73h-12q-27 -150 -114 -222t-232 -72q-27 0 -42 27t-15 82q0 111 29.5 168.5
t82.5 57.5q108 0 175.5 23t109 80t64.5 161h23q-5 -51 -29 -210q65 -54 199 -54q93 0 150 24.5t90.5 81.5t50.5 158h24q-5 -46 -28 -202q31 -29 88.5 -45.5t131.5 -16.5q58 0 109.5 11.5t83 28.5t31.5 33q0 29 -49.5 84.5t-172.5 152.5q34 51 70.5 126t59.5 146h12z" />
    <glyph glyph-name="uniFEB4" unicode="&#x633;" horiz-adv-x="1550" arabic-form="medial" 
d="M1327.5 385.5q68.5 -50.5 222.5 -50.5l-54 -335q-127 0 -195 61t-68 184q0 25 3 52h-12q-18 -153 -76 -225t-164 -72q-90 0 -139 58.5t-49 174.5q0 28 3 61h-12q-19 -146 -97 -220t-191 -74q-95 0 -148 55.5t-53 165.5q0 41 5 73h-12q-27 -150 -114 -222t-232 -72
q-27 0 -42 27t-15 82q0 111 29.5 168.5t82.5 57.5q108 0 175.5 23t109 80t64.5 161h23q-5 -51 -29 -210q65 -54 199 -54q93 0 150 24.5t90.5 81.5t50.5 158h24q-6 -54 -28 -202q29 -29 74 -45.5t103 -16.5q79 0 134 31t74 76q0 39 -12 102.5t-24 103.5q35 14 80 45l1 -174
q0 -83 68.5 -133.5z" />
    <glyph glyph-name="uniFEB6" unicode="&#x634;" horiz-adv-x="2595" arabic-form="final" 
d="M2372.5 385.5q68.5 -50.5 222.5 -50.5l-54 -335q-127 0 -195 61.5t-68 184.5q0 24 3 51h-11q-18 -153 -76.5 -225t-165.5 -72q-89 0 -138 58.5t-49 173.5q0 29 3 62h-13q-20 -146 -97 -220t-190 -74q-135 0 -212 92q-18 -208 -107.5 -353t-238.5 -219t-344 -74
q-167 0 -283 61.5t-175.5 179t-59.5 284.5q0 261 115 513h23q-62 -166 -62 -330q0 -118 55.5 -201.5t162 -127t258.5 -43.5q178 0 320.5 51t222 130t79.5 158q0 32 -46 122t-133 227q24 32 58.5 109t59.5 152h13q47 -153 100.5 -240.5t111.5 -121.5t126 -34q93 0 150 24.5
t90 81.5t51 158h22q-9 -81 -27 -202q29 -29 74 -45.5t104 -16.5q78 0 133 31t74 76q0 39 -12 102.5t-24 103.5q35 14 80 45l1 -174q0 -83 68.5 -133.5zM1727.5 1211q-49.5 38 -87.5 54v12l126 159q48 -23 98 -64.5t73 -71.5l-126 -160q-34 33 -83.5 71zM2073 985
q-25 -66 -34 -101q-112 -8 -224.5 -12.5t-174.5 -4.5q-87 0 -128 20t-41 71q0 16 4.5 32.5t14.5 45.5q19 55 24 86h12q0 -33 36 -45.5t120 -12.5q52 0 197.5 4.5t235.5 11.5q-17 -29 -42 -95z" />
    <glyph glyph-name="uniFEB7" unicode="&#x634;" horiz-adv-x="1436" arabic-form="initial" 
d="M1208 883q29 -65 49.5 -123.5t37 -143t16.5 -183.5q0 -207 -73 -320t-212 -113q-111 0 -170.5 59.5t-59.5 179.5q0 27 3 55h-12q-19 -146 -97 -220t-191 -74q-95 0 -148 55.5t-53 165.5q0 41 5 73h-12q-27 -150 -114 -222t-232 -72q-27 0 -42 27t-15 82q0 111 29.5 168.5
t82.5 57.5q108 0 175.5 23t109 80t64.5 161h23q-5 -51 -29 -210q65 -54 199 -54q93 0 150 24.5t90.5 81.5t50.5 158h24q-5 -46 -28 -202q31 -29 88.5 -45.5t131.5 -16.5q58 0 109.5 11.5t83 28.5t31.5 33q0 29 -49.5 84.5t-172.5 152.5q34 51 70.5 126t59.5 146h12z
M671.5 1211q-49.5 38 -87.5 54v12l126 159q48 -23 98 -64.5t73 -71.5l-126 -160q-34 33 -83.5 71zM1017 985q-25 -66 -34 -101q-112 -8 -224.5 -12.5t-174.5 -4.5q-87 0 -128 20t-41 71q0 16 4.5 32.5t14.5 45.5q19 55 24 86h12q0 -33 36 -45.5t120 -12.5q52 0 197.5 4.5
t235.5 11.5q-17 -29 -42 -95z" />
    <glyph glyph-name="uniFEB8" unicode="&#x634;" horiz-adv-x="1550" arabic-form="medial" 
d="M1327.5 385.5q68.5 -50.5 222.5 -50.5l-54 -335q-127 0 -195 61t-68 184q0 25 3 52h-12q-18 -153 -76 -225t-164 -72q-90 0 -139 58.5t-49 174.5q0 28 3 61h-12q-19 -146 -97 -220t-191 -74q-95 0 -148 55.5t-53 165.5q0 41 5 73h-12q-27 -150 -114 -222t-232 -72
q-27 0 -42 27t-15 82q0 111 29.5 168.5t82.5 57.5q108 0 175.5 23t109 80t64.5 161h23q-5 -51 -29 -210q65 -54 199 -54q93 0 150 24.5t90.5 81.5t50.5 158h24q-6 -54 -28 -202q29 -29 74 -45.5t103 -16.5q79 0 134 31t74 76q0 39 -12 102.5t-24 103.5q35 14 80 45l1 -174
q0 -83 68.5 -133.5zM735.5 1211q-49.5 38 -87.5 54v12l126 159q48 -23 98 -64.5t73 -71.5l-126 -160q-34 33 -83.5 71zM1081 985q-25 -66 -34 -101q-112 -8 -224.5 -12.5t-174.5 -4.5q-87 0 -128 20t-41 71q0 16 4.5 32.5t14.5 45.5q19 55 24 86h12q0 -33 36 -45.5
t120 -12.5q52 0 197.5 4.5t235.5 11.5q-17 -29 -42 -95z" />
    <glyph glyph-name="uniFEBA" unicode="&#x635;" horiz-adv-x="2556" arabic-form="final" 
d="M2556 335l-55 -335q-197 0 -197 291q-79 -138 -227 -214.5t-343 -76.5q-135 0 -233 32t-165 104q-11 -221 -99.5 -376t-240.5 -234.5t-354 -79.5q-167 0 -283 61.5t-175.5 179t-59.5 284.5q0 261 115 513h23q-62 -166 -62 -330q0 -118 55.5 -201.5t162 -127t258.5 -43.5
q178 0 320.5 51t222 130t79.5 158q0 32 -46 122t-133 227q24 32 58.5 109t59.5 152h13q37 -124 92.5 -203.5t129.5 -123.5q127 202 230 322t196.5 174t192.5 54q90 0 155.5 -44.5t100.5 -125t35 -187.5q0 -132 -48 -247q66 -15 209 -15h13zM2069 351q123 16 192.5 45.5
t69.5 70.5t-36.5 94.5t-106.5 92.5t-163 39q-82 0 -179 -38t-189.5 -107t-162.5 -156q59 -31 131.5 -44t163.5 -13q157 0 280 16z" />
    <glyph glyph-name="uniFEBB" unicode="&#x635;" horiz-adv-x="1585" arabic-form="initial" 
d="M1324.5 909.5q65.5 -44.5 100.5 -125t35 -187.5q0 -177 -81 -312.5t-228 -210t-339 -74.5q-244 0 -370.5 80t-142.5 226h-12q-24 -154 -114.5 -230t-227.5 -76q-27 0 -42 27t-15 82q0 111 29.5 168.5t82.5 57.5q108 0 176 23.5t110.5 80.5t64.5 160h22q10 -76 50 -129
t115 -85q131 210 236 334t200 179.5t195 55.5q90 0 155.5 -44.5zM1147 351q123 16 192.5 45.5t69.5 70.5t-36.5 94.5t-106.5 92.5t-163 39q-85 0 -185 -40.5t-194.5 -112.5t-164.5 -163q114 -42 308 -42q157 0 280 16z" />
    <glyph glyph-name="uniFEBC" unicode="&#x635;" horiz-adv-x="1633" arabic-form="medial" 
d="M1633 335l-54 -335q-197 0 -197 291q-79 -138 -227 -214.5t-343 -76.5q-244 0 -370.5 80t-142.5 226h-12q-24 -154 -114.5 -230t-227.5 -76q-27 0 -42 27t-15 82q0 111 29.5 168.5t82.5 57.5q108 0 176 23.5t110.5 80.5t64.5 160h22q10 -76 50 -129t115 -85
q131 210 236 334t200 179.5t195 55.5q90 0 155.5 -44.5t100.5 -125t35 -187.5q0 -134 -48 -247q60 -15 208 -15h13zM1147 351q123 16 192.5 45.5t69.5 70.5t-36.5 94.5t-106.5 92.5t-163 39q-85 0 -185 -40.5t-194.5 -112.5t-164.5 -163q114 -42 308 -42q157 0 280 16z" />
    <glyph glyph-name="uniFEBE" unicode="&#x636;" horiz-adv-x="2556" arabic-form="final" 
d="M2556 335l-55 -335q-197 0 -197 291q-79 -138 -227 -214.5t-343 -76.5q-135 0 -233 32t-165 104q-11 -221 -99.5 -376t-240.5 -234.5t-354 -79.5q-167 0 -283 61.5t-175.5 179t-59.5 284.5q0 261 115 513h23q-62 -166 -62 -330q0 -118 55.5 -201.5t162 -127t258.5 -43.5
q178 0 320.5 51t222 130t79.5 158q0 32 -46 122t-133 227q24 32 58.5 109t59.5 152h13q37 -124 92.5 -203.5t129.5 -123.5q127 202 230 322t196.5 174t192.5 54q90 0 155.5 -44.5t100.5 -125t35 -187.5q0 -132 -48 -247q66 -15 209 -15h13zM2069 351q123 16 192.5 45.5
t69.5 70.5t-36.5 94.5t-106.5 92.5t-163 39q-82 0 -179 -38t-189.5 -107t-162.5 -156q59 -31 131.5 -44t163.5 -13q157 0 280 16zM1946.5 1210.5q-56.5 46.5 -97.5 63.5v13l147 180q52 -25 109 -75.5t83 -93.5l-158 -170q-27 36 -83.5 82.5z" />
    <glyph glyph-name="uniFEBF" unicode="&#x636;" horiz-adv-x="1585" arabic-form="initial" 
d="M1324.5 909.5q65.5 -44.5 100.5 -125t35 -187.5q0 -177 -81 -312.5t-228 -210t-339 -74.5q-244 0 -370.5 80t-142.5 226h-12q-24 -154 -114.5 -230t-227.5 -76q-27 0 -42 27t-15 82q0 111 29.5 168.5t82.5 57.5q108 0 176 23.5t110.5 80.5t64.5 160h22q10 -76 50 -129
t115 -85q131 210 236 334t200 179.5t195 55.5q90 0 155.5 -44.5zM1147 351q123 16 192.5 45.5t69.5 70.5t-36.5 94.5t-106.5 92.5t-163 39q-85 0 -185 -40.5t-194.5 -112.5t-164.5 -163q114 -42 308 -42q157 0 280 16zM1037.5 1210.5q-56.5 46.5 -97.5 63.5v13l147 180
q52 -25 109 -75.5t83 -93.5l-158 -170q-27 36 -83.5 82.5z" />
    <glyph glyph-name="uniFEC0" unicode="&#x636;" horiz-adv-x="1633" arabic-form="medial" 
d="M1633 335l-54 -335q-197 0 -197 291q-79 -138 -227 -214.5t-343 -76.5q-244 0 -370.5 80t-142.5 226h-12q-24 -154 -114.5 -230t-227.5 -76q-27 0 -42 27t-15 82q0 111 29.5 168.5t82.5 57.5q108 0 176 23.5t110.5 80.5t64.5 160h22q10 -76 50 -129t115 -85
q131 210 236 334t200 179.5t195 55.5q90 0 155.5 -44.5t100.5 -125t35 -187.5q0 -134 -48 -247q60 -15 208 -15h13zM1147 351q123 16 192.5 45.5t69.5 70.5t-36.5 94.5t-106.5 92.5t-163 39q-85 0 -185 -40.5t-194.5 -112.5t-164.5 -163q114 -42 308 -42q157 0 280 16z
M1037.5 1210.5q-56.5 46.5 -97.5 63.5v13l147 180q52 -25 109 -75.5t83 -93.5l-158 -170q-27 36 -83.5 82.5z" />
    <glyph glyph-name="uniFEC2" unicode="&#x637;" horiz-adv-x="1508" arabic-form="final" 
d="M1508 335l-54 -335q-200 0 -197 291q-79 -137 -227.5 -214t-342.5 -77q-155 0 -248 35t-144.5 90.5t-117.5 159.5q-40 63 -58 88v12q118 -25 247 -37q65 99 103 211t38 272q0 121 -21 308.5t-41 284.5q53 54 112.5 132.5t103.5 149.5h12q0 -24 8 -242q12 -280 12 -374
q0 -95 -19 -173t-72 -186t-164 -292h13q122 190 220.5 302t188 162.5t184.5 50.5q89 0 154.5 -44.5t100.5 -125t35 -187.5q0 -132 -48 -247q66 -15 209 -15h13zM1022 351q123 16 192.5 45.5t69.5 70.5t-36.5 94.5t-106.5 92.5t-163 39q-90 0 -195 -44.5t-203 -124
t-168 -180.5q141 -9 330 -9q157 0 280 16z" />
    <glyph glyph-name="uniFEC3" unicode="&#x637;" horiz-adv-x="1154" arabic-form="initial" 
d="M893.5 909.5q65.5 -44.5 100.5 -125t35 -187.5q0 -177 -81 -312.5t-227.5 -210t-338.5 -74.5h-437q-29 0 -43 27.5t-14 81.5q0 112 29 169t83 57h52q70 102 110 216t40 280q0 122 -21 310t-42 283q54 54 113.5 132.5t103.5 149.5h12q0 -24 8 -242q12 -280 12 -374
q0 -95 -19 -173t-72 -186t-164 -292h12q122 190 220.5 302t188 162.5t184.5 50.5q90 0 155.5 -44.5zM716 351q123 16 193 45.5t70 70.5t-36.5 94.5t-106.5 92.5t-163 39q-91 0 -197.5 -45.5t-206 -127t-168.5 -185.5h335q157 0 280 16z" />
    <glyph glyph-name="uniFEC4" unicode="&#x637;" horiz-adv-x="1203" arabic-form="medial" 
d="M1203 335l-55 -335q-199 0 -196 291q-79 -137 -227.5 -214t-342.5 -77h-437q-29 0 -43 27.5t-14 81.5q0 112 29 169t83 57h52q70 102 110 216t40 280q0 122 -21 310t-42 283q54 54 113.5 132.5t103.5 149.5h12q0 -24 8 -242q12 -280 12 -374q0 -95 -19 -173t-72 -186
t-164 -292h12q122 190 220.5 302t188 162.5t184.5 50.5q90 0 155.5 -44.5t100.5 -125t35 -187.5q0 -132 -48 -247q66 -15 209 -15h13zM716 351q123 16 193 45.5t70 70.5t-36.5 94.5t-106.5 92.5t-163 39q-91 0 -197.5 -45.5t-206 -127t-168.5 -185.5h335q157 0 280 16z" />
    <glyph glyph-name="uniFEC6" unicode="&#x638;" horiz-adv-x="1472" arabic-form="final" 
d="M1472 335l-54 -335q-200 0 -197 291q-79 -137 -227.5 -214t-342.5 -77q-155 0 -248 35t-144.5 90.5t-117.5 159.5q-40 63 -58 88v12q118 -25 247 -37q65 99 103 211t38 272q0 121 -21 308.5t-41 284.5q53 54 112.5 132.5t103.5 149.5h12q0 -24 8 -242q12 -280 12 -374
q0 -95 -19 -173t-72 -186t-164 -292h13q122 190 220.5 302t188 162.5t184.5 50.5q89 0 154.5 -44.5t100.5 -125t35 -187.5q0 -132 -48 -247q66 -15 209 -15h13zM986 351q123 16 192.5 45.5t69.5 70.5t-36.5 94.5t-106.5 92.5t-163 39q-90 0 -195 -44.5t-203 -124
t-168 -180.5q141 -9 330 -9q157 0 280 16zM941.5 1210.5q-56.5 46.5 -97.5 63.5v13l147 180q52 -25 109 -75.5t83 -93.5l-158 -170q-27 36 -83.5 82.5z" />
    <glyph glyph-name="uniFEC7" unicode="&#x638;" horiz-adv-x="1154" arabic-form="initial" 
d="M893.5 909.5q65.5 -44.5 100.5 -125t35 -187.5q0 -177 -81 -312.5t-227.5 -210t-338.5 -74.5h-437q-29 0 -43 27.5t-14 81.5q0 112 29 169t83 57h52q70 102 110 216t40 280q0 122 -21 310t-42 283q54 54 113.5 132.5t103.5 149.5h12q0 -24 8 -242q12 -280 12 -374
q0 -95 -19 -173t-72 -186t-164 -292h12q122 190 220.5 302t188 162.5t184.5 50.5q90 0 155.5 -44.5zM716 351q123 16 193 45.5t70 70.5t-36.5 94.5t-106.5 92.5t-163 39q-91 0 -197.5 -45.5t-206 -127t-168.5 -185.5h335q157 0 280 16zM688.5 1210.5q-56.5 46.5 -97.5 63.5
v13l147 180q52 -25 109 -75.5t83 -93.5l-158 -170q-27 36 -83.5 82.5z" />
    <glyph glyph-name="uniFEC8" unicode="&#x638;" horiz-adv-x="1203" arabic-form="medial" 
d="M1203 335l-55 -335q-199 0 -196 291q-79 -137 -227.5 -214t-342.5 -77h-437q-29 0 -43 27.5t-14 81.5q0 112 29 169t83 57h52q70 102 110 216t40 280q0 122 -21 310t-42 283q54 54 113.5 132.5t103.5 149.5h12q0 -24 8 -242q12 -280 12 -374q0 -95 -19 -173t-72 -186
t-164 -292h12q122 190 220.5 302t188 162.5t184.5 50.5q90 0 155.5 -44.5t100.5 -125t35 -187.5q0 -132 -48 -247q66 -15 209 -15h13zM716 351q123 16 193 45.5t70 70.5t-36.5 94.5t-106.5 92.5t-163 39q-91 0 -197.5 -45.5t-206 -127t-168.5 -185.5h335q157 0 280 16z
M688.5 1210.5q-56.5 46.5 -97.5 63.5v13l147 180q52 -25 109 -75.5t83 -93.5l-158 -170q-27 36 -83.5 82.5z" />
    <glyph glyph-name="uniFECA" unicode="&#x639;" horiz-adv-x="1301" arabic-form="final" 
d="M261.5 -302.5q67.5 -73.5 204 -114.5t337.5 -41q107 0 240 10t227 29v-12q-19 -15 -82 -74q-81 -77 -146.5 -126t-163 -84t-226.5 -35q-240 0 -371 128.5t-131 379.5q0 173 79 330.5t256 301.5q-28 42 -69.5 97.5t-55.5 74.5q-55 72 -87 117q-72 -22 -137 -53l-12 12
q19 38 51.5 115.5t44.5 122.5q98 47 238 79t261 32q115 0 238 -27t229 -79q-18 -27 -46.5 -92.5t-50.5 -134.5q-72 -88 -278 -282q45 -22 133.5 -29.5t279.5 -7.5h77l-54 -335h-67q-172 0 -278.5 21t-179 78t-121.5 166q-229 -116 -318 -215.5t-89 -180.5q0 -98 67.5 -171.5
zM499 732.5q-98 -15.5 -193 -42.5q56 -44 131 -100q63 -47 215 -164q106 55 204.5 114t216.5 136q-172 72 -388 72q-88 0 -186 -15.5z" />
    <glyph glyph-name="uniFECB" unicode="&#x639;" horiz-adv-x="1110" arabic-form="initial" 
d="M985 466q-34 -34 -96.5 -131t-96.5 -169q-98 -22 -276 -71q-122 -34 -198.5 -52t-170 -30.5t-202.5 -12.5q-29 0 -43 27.5t-14 81.5q0 112 29 169t83 57q35 0 137 4q-59 64 -59 179q0 145 60.5 271.5t162 202t217.5 75.5q78 0 134.5 -28.5t86.5 -80.5t30 -120
q0 -58 -20 -117h-13q0 49 -65 77.5t-175 28.5q-89 0 -174.5 -28t-140 -76.5t-54.5 -105.5t46 -106.5t125.5 -79t177.5 -29.5q140 0 271.5 19.5t236.5 56.5z" />
    <glyph glyph-name="uniFECC" unicode="&#x639;" horiz-adv-x="1164" arabic-form="medial" 
d="M1164 335l-55 -335h-59q-137 0 -231 17t-163.5 61.5t-116.5 126.5q-110 -84 -197 -127.5t-177.5 -60.5t-219.5 -17q-29 0 -43 27.5t-14 81.5q0 112 29 169t83 57q139 0 236 7t171 23q-42 66 -137 190q-68 89 -87 117q-78 -26 -138 -54l-12 12q21 43 53 119t43 120
q98 46 239 78t261 32q115 0 238.5 -27t228.5 -79q-18 -26 -46.5 -92t-51.5 -135q-76 -92 -274 -279q50 -20 133.5 -26t236.5 -6h70zM409 724.5q-98 -15.5 -193 -42.5l124 -95q182 -139 221 -169q180 95 422 251q-173 71 -387 71q-89 0 -187 -15.5z" />
    <glyph glyph-name="uniFECE" unicode="&#x63a;" horiz-adv-x="1301" arabic-form="final" 
d="M261.5 -302.5q67.5 -73.5 204 -114.5t337.5 -41q107 0 240 10t227 29v-12q-19 -15 -82 -74q-81 -77 -146.5 -126t-163 -84t-226.5 -35q-240 0 -371 128.5t-131 379.5q0 173 79 330.5t256 301.5q-28 42 -69.5 97.5t-55.5 74.5q-55 72 -87 117q-72 -22 -137 -53l-12 12
q19 38 51.5 115.5t44.5 122.5q98 47 238 79t261 32q115 0 238 -27t229 -79q-18 -27 -46.5 -92.5t-50.5 -134.5q-72 -88 -278 -282q45 -22 133.5 -29.5t279.5 -7.5h77l-54 -335h-67q-172 0 -278.5 21t-179 78t-121.5 166q-229 -116 -318 -215.5t-89 -180.5q0 -98 67.5 -171.5
zM499 732.5q-98 -15.5 -193 -42.5q56 -44 131 -100q63 -47 215 -164q106 55 204.5 114t216.5 136q-172 72 -388 72q-88 0 -186 -15.5zM598.5 1287.5q-56.5 46.5 -97.5 63.5v13l147 180q52 -25 109 -75.5t83 -93.5l-158 -170q-27 36 -83.5 82.5z" />
    <glyph glyph-name="uniFECF" unicode="&#x63a;" horiz-adv-x="1110" arabic-form="initial" 
d="M985 466q-34 -34 -96.5 -131t-96.5 -169q-98 -22 -276 -71q-122 -34 -198.5 -52t-170 -30.5t-202.5 -12.5q-29 0 -43 27.5t-14 81.5q0 112 29 169t83 57q35 0 137 4q-59 64 -59 179q0 145 60.5 271.5t162 202t217.5 75.5q78 0 134.5 -28.5t86.5 -80.5t30 -120
q0 -58 -20 -117h-13q0 49 -65 77.5t-175 28.5q-89 0 -174.5 -28t-140 -76.5t-54.5 -105.5t46 -106.5t125.5 -79t177.5 -29.5q140 0 271.5 19.5t236.5 56.5zM400.5 1321.5q-56.5 46.5 -97.5 63.5v13l147 180q52 -25 109 -75.5t83 -93.5l-158 -170q-27 36 -83.5 82.5z" />
    <glyph glyph-name="uniFED0" unicode="&#x63a;" horiz-adv-x="1164" arabic-form="medial" 
d="M1164 335l-55 -335h-59q-137 0 -231 17t-163.5 61.5t-116.5 126.5q-110 -84 -197 -127.5t-177.5 -60.5t-219.5 -17q-29 0 -43 27.5t-14 81.5q0 112 29 169t83 57q139 0 236 7t171 23q-42 66 -137 190q-68 89 -87 117q-78 -26 -138 -54l-12 12q21 43 53 119t43 120
q98 46 239 78t261 32q115 0 238.5 -27t228.5 -79q-18 -26 -46.5 -92t-51.5 -135q-76 -92 -274 -279q50 -20 133.5 -26t236.5 -6h70zM409 724.5q-98 -15.5 -193 -42.5l124 -95q182 -139 221 -169q180 95 422 251q-173 71 -387 71q-89 0 -187 -15.5zM508.5 1281.5
q-56.5 46.5 -97.5 63.5v13l147 180q52 -25 109 -75.5t83 -93.5l-158 -170q-27 36 -83.5 82.5z" />
    <glyph glyph-name="uniFED2" unicode="&#x641;" horiz-adv-x="1973" arabic-form="final" 
d="M1973 335l-55 -335q-190 0 -289 41.5t-130 127.5h-6q-63 -94 -225.5 -137.5t-455.5 -43.5q-245 0 -396.5 50t-221.5 149t-70 251q0 92 17 190.5t64 222.5h22q-18 -62 -25 -112.5t-7 -107.5q0 -89 71.5 -158.5t217.5 -109.5t361 -40q267 0 416 13q-26 49 -26 113
q0 139 48.5 258.5t131 191t179.5 71.5q84 0 147 -45.5t97.5 -128.5t34.5 -194q0 -160 -85 -265q106 -2 185 -2zM1313.5 494.5q32.5 -42.5 91.5 -83.5t133 -67q95 20 161 50t98 61.5t32 58.5q0 52 -39 102.5t-101.5 82t-129.5 31.5q-69 0 -133.5 -25t-104.5 -63t-40 -73
q0 -32 32.5 -74.5zM1507.5 1252.5q-56.5 46.5 -97.5 63.5v13l147 180q52 -25 109 -75.5t83 -93.5l-158 -170q-27 36 -83.5 82.5z" />
    <glyph glyph-name="uniFED3" unicode="&#x641;" horiz-adv-x="906" arabic-form="initial" 
d="M616 1190q80 -76 122.5 -226.5t42.5 -370.5q0 -211 -77.5 -341t-245.5 -191t-445 -61h-67q-58 0 -58 109q0 111 30 168.5t82 57.5h67q238 0 390 31t219 75t67 85q2 20 2 60q0 109 -33 202l-11 -3q-11 -138 -101.5 -216.5t-244.5 -78.5q-135 0 -206 73t-71 201
q0 137 40.5 251.5t118.5 182.5t185 68q114 0 194 -76zM697 825q-47 100 -130.5 156t-188.5 56q-68 0 -127.5 -27t-95 -65.5t-35.5 -71.5q0 -21 26.5 -47t86.5 -45.5t155 -19.5q174 0 309 64zM316.5 1528.5q-56.5 46.5 -97.5 63.5v13l147 180q52 -25 109 -75.5t83 -93.5
l-158 -170q-27 36 -83.5 82.5z" />
    <glyph glyph-name="uniFED4" unicode="&#x641;" horiz-adv-x="843" arabic-form="medial" 
d="M843 335l-55 -335q-197 0 -297.5 41.5t-132.5 127.5h-6q-33 -63 -82.5 -99.5t-127 -53t-196.5 -16.5q-58 0 -58 109q0 111 30 168.5t82 57.5q65 0 120 3q-26 49 -26 111q0 139 48.5 258.5t131 191t180.5 71.5q83 0 146.5 -45.5t98 -128.5t34.5 -194q0 -79 -21.5 -146
t-63.5 -118q86 -3 195 -3zM172.5 494.5q32.5 -42.5 91.5 -83.5t133 -67q95 20 161 50t98 61.5t32 58.5q0 52 -38.5 102.5t-101 82t-130.5 31.5q-69 0 -133.5 -25t-104.5 -63t-40 -73q0 -32 32.5 -74.5zM370.5 1252.5q-56.5 46.5 -97.5 63.5v13l147 180q52 -25 109 -75.5
t83 -93.5l-158 -170q-27 36 -83.5 82.5z" />
    <glyph glyph-name="uniFED6" unicode="&#x642;" horiz-adv-x="1482" arabic-form="final" 
d="M1427 0h-100q-28 -197 -118.5 -330.5t-234.5 -199.5t-332 -66q-167 0 -283 61.5t-175.5 179t-59.5 283.5q0 259 115 514h24q-63 -167 -63 -331q0 -117 55.5 -200.5t162.5 -127.5t258 -44q159 0 291 41t217 108t111 142v13q-84 -24 -167.5 -33.5t-194.5 -9.5
q-151 0 -225.5 84t-74.5 245q0 138 43 256.5t122 189t181 70.5q148 0 239 -130.5t113 -379.5h151zM703.5 378.5q25.5 -28.5 85 -46.5t156.5 -18q208 0 329 9q-40 136 -127.5 209t-211.5 73q-68 0 -127.5 -27t-94.5 -66t-35 -73q0 -32 25.5 -60.5zM1249.5 1186
q-24.5 -70 -34.5 -108q-112 -8 -224.5 -12.5t-174.5 -4.5q-87 0 -128 20t-41 71q0 16 5 35.5t14 48.5q1 5 10.5 33.5t13.5 57.5h12q0 -33 36 -45.5t120 -12.5q58 0 201 4.5t232 11.5q-17 -29 -41.5 -99z" />
    <glyph glyph-name="uniFED7" unicode="&#x642;" horiz-adv-x="906" arabic-form="initial" 
d="M616 1190q80 -76 122.5 -226.5t42.5 -370.5q0 -211 -77.5 -341t-245.5 -191t-445 -61h-67q-58 0 -58 109q0 111 30 168.5t82 57.5h67q238 0 390 31t219 75t67 85q2 20 2 60q0 109 -33 202l-11 -3q-11 -138 -101.5 -216.5t-244.5 -78.5q-135 0 -206 73t-71 201
q0 137 40.5 251.5t118.5 182.5t185 68q114 0 194 -76zM697 825q-47 100 -130.5 156t-188.5 56q-68 0 -127.5 -27t-95 -65.5t-35.5 -71.5q0 -21 26.5 -47t86.5 -45.5t155 -19.5q174 0 309 64zM673.5 1595q-24.5 -70 -34.5 -108q-112 -8 -224.5 -12.5t-174.5 -4.5
q-87 0 -128 20t-41 71q0 16 5 35.5t14 48.5q1 5 10.5 33.5t13.5 57.5h12q0 -33 36 -45.5t120 -12.5q58 0 201 4.5t232 11.5q-17 -29 -41.5 -99z" />
    <glyph glyph-name="uniFED8" unicode="&#x642;" horiz-adv-x="843" arabic-form="medial" 
d="M843 335l-55 -335q-197 0 -297.5 41.5t-132.5 127.5h-6q-33 -63 -82.5 -99.5t-127 -53t-196.5 -16.5q-58 0 -58 109q0 111 30 168.5t82 57.5q65 0 120 3q-26 49 -26 111q0 139 48.5 258.5t131 191t180.5 71.5q83 0 146.5 -45.5t98 -128.5t34.5 -194q0 -79 -21.5 -146
t-63.5 -118q86 -3 195 -3zM172.5 494.5q32.5 -42.5 91.5 -83.5t133 -67q95 20 161 50t98 61.5t32 58.5q0 52 -38.5 102.5t-101 82t-130.5 31.5q-69 0 -133.5 -25t-104.5 -63t-40 -73q0 -32 32.5 -74.5zM727.5 1319q-24.5 -70 -34.5 -108q-112 -8 -224.5 -12.5t-174.5 -4.5
q-87 0 -128 20t-41 71q0 16 5 35.5t14 48.5q1 5 10.5 33.5t13.5 57.5h12q0 -33 36 -45.5t120 -12.5q58 0 201 4.5t232 11.5q-17 -29 -41.5 -99z" />
    <glyph glyph-name="uniFEDA" unicode="&#x643;" horiz-adv-x="2141" arabic-form="final" 
d="M1883 50q-86 50 -168 154t-220 320h-12l2 -12q-13 -185 -82 -298t-229 -169.5t-443 -56.5q-309 0 -458 112.5t-149 337.5q0 94 16.5 191.5t63.5 221.5h23q-19 -61 -26 -110.5t-7 -109.5q0 -88 67.5 -158t196.5 -110t307 -40q254 0 406.5 25.5t214 59t61.5 58.5
q0 71 -130 175.5t-487 264.5q26 58 68 169t60 170q3 9 12 40t24.5 45t46.5 25l961 336l11 -5q-49 -84 -85.5 -169t-54.5 -151l-912 -230v-13q209 -82 349 -170.5t232.5 -178t234.5 -249.5q92 -104 173.5 -147t190.5 -43l-54 -335q-118 0 -204 50z" />
    <glyph glyph-name="uniFEDB" unicode="&#x643;" horiz-adv-x="963" arabic-form="initial" 
d="M627.5 210q-74.5 -112 -225 -161t-390.5 -49h-67q-29 0 -43 27.5t-14 81.5q0 112 29 169t83 57h58q211 0 348 21t200 53t63 68q0 30 -83 100.5t-236.5 158.5t-355.5 170q26 57 68 168t61 171q2 8 10.5 39t24.5 45t47 26l840 336l12 -5q-48 -82 -85 -166.5t-57 -153.5
l-791 -230v-13q240 -109 365 -203.5t169 -188t44 -219.5q0 -190 -74.5 -302z" />
    <glyph glyph-name="uniFEDC" unicode="&#x643;" horiz-adv-x="1305" arabic-form="medial" 
d="M1047.5 50q-85.5 50 -167.5 154t-220 320h-13q1 -4 1 -12q-11 -181 -73.5 -292t-197.5 -165.5t-365 -54.5h-67q-29 0 -43 27.5t-14 81.5q0 112 29 169t83 57h58q197 0 321 21.5t178 51.5t54 58q0 71 -130 175.5t-487 264.5q26 57 68 168t61 171q2 9 11 40t24.5 45
t46.5 25l961 336l12 -5q-48 -82 -85 -166.5t-57 -153.5l-912 -230v-13q209 -82 349 -170.5t232 -177.5t236 -250q92 -104 173 -147t191 -43l-54 -335q-118 0 -203.5 50z" />
    <glyph glyph-name="uniFEDE" unicode="&#x644;" horiz-adv-x="1609" arabic-form="final" 
d="M1377 64.5q-66 64.5 -68 190.5h-12q1 -143 -29.5 -272t-87.5 -224q-76 -154 -213 -233.5t-349 -79.5q-156 0 -267 61.5t-169 179t-58 284.5q0 261 115 513h23q-62 -166 -62 -330q0 -118 54 -201.5t156 -127t242 -43.5q148 0 280 39.5t211.5 109.5t79.5 156
q-4 175 -26 462t-49 543.5t-42 331.5q54 55 114 134t102 148h13q0 -515 4 -999q1 -41 1 -93q0 -146 64 -212.5t205 -66.5l-54 -335q-112 0 -178 64.5z" />
    <glyph glyph-name="uniFEDF" unicode="&#x644;" horiz-adv-x="528" arabic-form="initial" 
d="M358.5 539q-22.5 -125 -65.5 -245t-102 -203q-37 -52 -91 -71.5t-144 -19.5q-29 0 -48.5 29t-19.5 83q0 112 29 167.5t83 55.5q131 0 202 20.5t71 53.5q0 85 -28 289t-64.5 419t-56.5 307q53 53 112 131t105 151h12q0 -27 3 -105t5 -128q10 -241 15 -399.5t5 -308.5
q0 -101 -22.5 -226z" />
    <glyph glyph-name="uniFEE0" unicode="&#x644;" horiz-adv-x="708" arabic-form="medial" 
d="M400.5 83.5q-96.5 83.5 -96.5 272.5q0 16 2 50h-12q-5 -152 -45 -241t-112 -127t-181 -38q-29 0 -48.5 27.5t-19.5 81.5q0 112 29 169t83 57q125 0 199 32.5t74 87.5q-11 312 -22.5 482t-25.5 263.5t-40 208.5q50 49 104.5 126.5t112.5 170.5h12q0 -54 5 -137
q7 -166 7 -278q0 -98 -6 -326q-6 -242 -6 -366q0 -137 69 -200.5t225 -63.5l-54 -335q-157 0 -253.5 83.5z" />
    <glyph glyph-name="uniFEE2" unicode="&#x645;" horiz-adv-x="1384" arabic-form="final" 
d="M1154 421.5q33 -46.5 86.5 -66.5t143.5 -20l-55 -335q-137 0 -205 83.5t-72 274.5h-13q-5 -121 -43 -201t-97 -118.5t-129 -38.5q-88 0 -166 13t-165 34q-28 6 -52 11t-35 5q-51 0 -84.5 -46.5t-33.5 -122.5q0 -512 13 -658q-24 -24 -53 -66.5t-48 -78.5h-11q3 31 3 87
q0 72 -5 219q-9 283 -9 452q0 166 34 287t91 188.5t128 80.5q61 239 153.5 354.5t229.5 115.5q107 0 191 -73t142 -248q28 -86 61 -132.5zM980.5 348.5q25.5 13.5 25.5 39.5q0 45 -33.5 103.5t-101.5 101t-166 42.5q-204 0 -299 -230q91 -31 230 -50.5t263 -19.5
q56 0 81.5 13.5z" />
    <glyph glyph-name="uniFEE3" unicode="&#x645;" horiz-adv-x="1097" arabic-form="initial" 
d="M830.5 827.5q68.5 -62.5 105 -169.5t36.5 -237q0 -126 -30.5 -222t-80.5 -147.5t-107 -51.5q-123 0 -230.5 37t-174 103.5t-70.5 150.5q-2 69 19 170l-12 1q-13 -34 -28 -99q-28 -109 -57.5 -181.5t-91.5 -127t-164 -54.5q-27 0 -42 27t-15 82q0 111 29.5 168.5
t82.5 57.5q75 0 124 17t88 66t73 145l45 -35q65 137 118 215t105.5 112.5t116.5 34.5q92 0 160.5 -62.5zM364 515q35 -52 112 -93t165 -64t156 -23q67 0 98.5 13t31.5 40q0 54 -42 116t-116 104.5t-164 42.5q-164 0 -241 -136z" />
    <glyph glyph-name="uniFEE4" unicode="&#x645;" horiz-adv-x="1308" arabic-form="medial" 
d="M1058.5 83.5q-73.5 83.5 -85.5 250.5h-12q-8 -184 -63 -277t-144 -93q-122 0 -230 39.5t-174.5 109t-70.5 153.5q-3 70 19 169l-12 1q-8 -19 -16.5 -48.5t-11.5 -41.5q-29 -103 -59.5 -172.5t-92 -121.5t-161.5 -52q-27 0 -42 27t-15 82q0 111 29.5 168.5t82.5 57.5
q74 0 123 15.5t88.5 59.5t73.5 127l45 -35q65 138 118.5 216t108.5 112t124 34q60 0 108.5 -24.5t98 -88t105.5 -178.5q59 -128 131.5 -183t183.5 -55l-55 -335q-121 0 -194.5 83.5zM364 490q36 -53 112.5 -96.5t165 -69t155.5 -25.5q65 0 97.5 17.5t32.5 46.5
q0 54 -42 115.5t-116 103.5t-164 42q-165 0 -241 -134z" />
    <glyph glyph-name="uniFEE6" unicode="&#x646;" horiz-adv-x="1569" arabic-form="final" 
d="M1347 489.5q49 -86.5 102 -120.5t120 -34l-55 -335q-55 0 -99 21t-82 69q-19 -207 -108.5 -351.5t-238.5 -218.5t-344 -74q-167 0 -283 61.5t-175.5 179t-59.5 284.5q0 258 115 513h24q-63 -165 -63 -330q0 -118 55.5 -201t162.5 -127t258 -44q179 0 321 51t221.5 130
t79.5 158q0 32 -46.5 122.5t-132.5 226.5q24 33 59.5 110t59.5 151h13q47 -155 96 -241.5zM606.5 373.5q-56.5 46.5 -97.5 63.5v13l147 180q52 -25 109 -75.5t83 -93.5l-158 -170q-27 36 -83.5 82.5z" />
    <glyph glyph-name="uniFEE7" unicode="&#x646;" horiz-adv-x="598" arabic-form="initial" 
d="M422 208q-51 -104 -167 -156t-310 -52q-29 0 -43 27.5t-14 81.5q0 112 29 169t83 57q113 0 213.5 13.5t161.5 35t61 46.5q0 22 -37.5 70t-95 103t-113.5 96q34 44 76 130t65 153h12q5 -14 20 -48q47 -106 78.5 -213.5t31.5 -245.5q0 -163 -51 -267zM143.5 1182.5
q-56.5 46.5 -97.5 63.5v13l147 180q52 -25 109 -75.5t83 -93.5l-158 -170q-27 36 -83.5 82.5z" />
    <glyph glyph-name="uniFEE8" unicode="&#x646;" horiz-adv-x="812" arabic-form="medial" 
d="M543.5 73q-81.5 73 -81.5 247q0 34 5 86h-13q-4 -146 -58 -235t-164 -130t-287 -41q-29 0 -43 27.5t-14 81.5q0 112 29 169t83 57q201 0 299 27.5t140 95t66 211.5h22v-115q0 -109 64.5 -164t220.5 -55l-54 -335q-133 0 -214.5 73zM277.5 916.5q-56.5 46.5 -97.5 63.5v13
l147 180q52 -25 109 -75.5t83 -93.5l-158 -170q-27 36 -83.5 82.5z" />
    <glyph glyph-name="uniFEEA" unicode="&#x647;" horiz-adv-x="1136" arabic-form="final" 
d="M946 405.5q64 -70.5 190 -70.5l-54 -335q-113 0 -188 46.5t-116.5 153t-47.5 285.5h-12q-20 -196 -101 -286t-242 -90q-124 0 -187.5 57.5t-63.5 163.5q0 102 46 188t163.5 186t335.5 236q-11 65 -20 102q45 35 99.5 95.5t92.5 122.5h8q2 -22 4 -32q13 -108 21 -238.5
t8 -364.5q0 -149 64 -219.5zM623.5 469.5q83.5 35.5 83.5 99.5q0 101 -23 271q-256 -127 -359.5 -206t-103.5 -120q0 -42 41 -61t146 -19q132 0 215.5 35.5z" />
    <glyph glyph-name="uniFEEB" unicode="&#x647;" horiz-adv-x="1210" arabic-form="initial" 
d="M1032.5 181q-52.5 -124 -142.5 -217q-85 45 -524 162q-67 -61 -176.5 -93.5t-244.5 -32.5q-34 0 -45.5 34t-11.5 75q0 81 23 153.5t89 72.5q75 0 123 3q-27 48 -27 128q0 105 43.5 206.5t111.5 171.5q-79 37 -110 50q23 55 39.5 133t19.5 139h12q47 -39 126 -84t242 -132
l61 -32q176 -93 270.5 -164.5t134 -144.5t39.5 -170q0 -134 -52.5 -258zM257 724.5q-50 -23.5 -78.5 -61t-28.5 -78.5q0 -61 72 -115.5t194 -94.5q116 43 166 81.5t50 73.5q0 52 -40 103t-102 83t-123 32q-60 0 -110 -23.5zM996.5 416q-32.5 42 -109.5 93.5t-222 130.5
q1 -7 1 -22q0 -79 -21.5 -151.5t-64.5 -133.5q300 -72 407 -119q17 25 29.5 58t12.5 55q0 47 -32.5 89z" />
    <glyph glyph-name="uniFEEC" unicode="&#x647;" horiz-adv-x="1044" arabic-form="medial" 
d="M881.5 6.5q-48.5 6.5 -108.5 26.5v-12q55 -35 78.5 -73.5t23.5 -88.5q0 -111 -45.5 -200.5t-129 -140.5t-194.5 -51q-130 0 -224.5 62.5t-144.5 175.5t-50 262q0 22 1 33h-143q-34 0 -45.5 34t-11.5 75q0 81 23 153.5t89 72.5h155q44 123 110 237.5t128 200t144 189.5
q74 92 90 122h12q0 -90 10.5 -179t29.5 -208q9 -56 16 -108t7 -81q0 -52 -46.5 -102.5t-144.5 -91.5v-12q108 19 177.5 26t181.5 7h174l-54 -335q-60 0 -108.5 6.5zM532 474q-6 42 -14 89q-29 173 -36 279q-100 -121 -175 -261t-112 -267q175 1 259 24.5t84 70.5q0 23 -6 65
zM787.5 -71.5q-53.5 45.5 -157 75t-246.5 29.5q-120 0 -205 -22q34 -123 138.5 -187.5t260.5 -64.5q86 0 145.5 11.5t88.5 29t29 34.5q0 49 -53.5 94.5z" />
    <glyph glyph-name="uniFEEE" unicode="&#x648;" horiz-adv-x="1023" arabic-form="final" 
d="M968 0h-106q-29 -174 -102 -296t-174.5 -183.5t-218.5 -61.5q-74 0 -141.5 21.5t-160.5 62.5q-73 34 -120 48v12q155 22 335 88t326 156t205 183q-78 -18 -157 -26t-179 -8q-151 0 -225.5 84t-74.5 245q0 140 43 259t121.5 190t180.5 71q100 0 176 -60.5t122 -175
t58 -274.5h147zM244 378.5q26 -28.5 86 -46.5t157 -18q213 0 333 9q-38 132 -128 207t-216 75q-68 0 -127.5 -27t-95 -66t-35.5 -73q0 -32 26 -60.5z" />
    <glyph glyph-name="uniFEF0" unicode="&#x649;" horiz-adv-x="1450" arabic-form="final" 
d="M1395 0q-27 0 -42 2q5 -25 5 -43q0 -271 -180 -416t-536 -145q-167 0 -283 61.5t-175.5 179t-59.5 283.5q0 125 26.5 252t77.5 240h24q-26 -75 -39 -156t-13 -153q0 -117 55.5 -200.5t162.5 -127.5t258 -44q219 0 363.5 34.5t211.5 80t67 76.5q0 28 -52 46.5t-128.5 29.5
t-200.5 24q-105 11 -176.5 21t-118.5 24v12q51 70 92 138.5t70 141.5q101 -17 234.5 -21.5t411.5 -4.5z" />
    <glyph glyph-name="uniFEF2" unicode="&#x64a;" horiz-adv-x="1450" arabic-form="final" 
d="M1395 0q-27 0 -42 2q5 -25 5 -43q0 -271 -180 -416t-536 -145q-167 0 -283 61.5t-175.5 179t-59.5 283.5q0 125 26.5 252t77.5 240h24q-26 -75 -39 -156t-13 -153q0 -117 55.5 -200.5t162.5 -127.5t258 -44q219 0 363.5 34.5t211.5 80t67 76.5q0 28 -52 46.5t-128.5 29.5
t-200.5 24q-105 11 -176.5 21t-118.5 24v12q51 70 92 138.5t70 141.5q101 -17 234.5 -21.5t411.5 -4.5z" />
    <glyph glyph-name="uniFEF3" unicode="&#x64a;" horiz-adv-x="598" arabic-form="initial" 
d="M422 208q-51 -104 -167 -156t-310 -52q-29 0 -43 27.5t-14 81.5q0 112 29 169t83 57q113 0 213.5 13.5t161.5 35t61 46.5q0 22 -37.5 70t-95 103t-113.5 96q34 44 76 130t65 153h12q5 -14 20 -48q47 -106 78.5 -213.5t31.5 -245.5q0 -163 -51 -267zM-188.5 -319
q24.5 70 34.5 108q112 8 224.5 12.5t174.5 4.5q87 0 128 -20t41 -71q0 -16 -5 -35.5t-14 -48.5q-1 -5 -10.5 -33.5t-13.5 -57.5h-12q0 33 -36 45.5t-120 12.5q-58 0 -201 -4.5t-232 -11.5q17 29 41.5 99z" />
    <glyph glyph-name="uniFEF4" unicode="&#x64a;" horiz-adv-x="812" arabic-form="medial" 
d="M543.5 73q-81.5 73 -81.5 247q0 34 5 86h-13q-4 -146 -58 -235t-164 -130t-287 -41q-29 0 -43 27.5t-14 81.5q0 112 29 169t83 57q201 0 299 27.5t140 95t66 211.5h22v-115q0 -109 64.5 -164t220.5 -55l-54 -335q-133 0 -214.5 73zM-173.5 -319q24.5 70 34.5 108
q112 8 224.5 12.5t174.5 4.5q87 0 128 -20t41 -71q0 -16 -5 -35.5t-14 -48.5q-1 -5 -10.5 -33.5t-13.5 -57.5h-12q0 33 -36 45.5t-120 12.5q-58 0 -201 -4.5t-232 -11.5q17 29 41.5 99z" />
    <glyph glyph-name=".notdef" horiz-adv-x="1237" 
d="M65 0v1476h1105v-1476h-1105zM142 90h951v1297h-951v-1297z" />
    <glyph glyph-name=".null" horiz-adv-x="2109" 
 />
    <glyph glyph-name="nonmarkingreturn" horiz-adv-x="2109" 
 />
    <glyph glyph-name="space" unicode=" " horiz-adv-x="328" 
 />
    <glyph glyph-name="exclam" unicode="!" horiz-adv-x="619" 
d="M322 1633q29 -86 48 -156.5t33.5 -167.5t14.5 -209q0 -125 -16 -230t-46 -249q-3 -15 -13 -61t-16 -82h-22q4 57 4 152q0 111 -26.5 263.5t-69.5 297.5t-89 232q43 51 99 147t64 136h12q8 -31 23 -73zM203.5 47q-46.5 47 -46.5 122q0 47 21 85.5t59.5 60.5t88.5 22
t88 -22t59 -60.5t21 -85.5q0 -75 -46 -122t-122 -47t-122.5 47z" />
    <glyph glyph-name="quotedbl" unicode="&#x22;" horiz-adv-x="784" 
d="M211 1411q47 30 89 65q0 -191 -12 -289t-35 -191q-15 -63 -20 -94h-12l-97 464q40 15 87 45zM571 1411q47 30 89 65q0 -191 -12 -289t-35 -191q-15 -63 -20 -94h-12l-97 464q40 15 87 45z" />
    <glyph glyph-name="quotedbl" unicode="&#x2033;" horiz-adv-x="784" 
d="M211 1411q47 30 89 65q0 -191 -12 -289t-35 -191q-15 -63 -20 -94h-12l-97 464q40 15 87 45zM571 1411q47 30 89 65q0 -191 -12 -289t-35 -191q-15 -63 -20 -94h-12l-97 464q40 15 87 45z" />
    <glyph glyph-name="numbersign" unicode="#" horiz-adv-x="1352" 
d="M1205 964h-239l-59 -410h269l-22 -88h-260l-74 -514h-12l-32 159l47 355h-366l-76 -514h-12l-33 159l49 355h-261l23 89h250l56 409h-277l23 90h266l58 423l80 -23l-59 -400l358 1l56 422l79 -23l-58 -399h248zM835 554l55 410h-359l-61 -409z" />
    <glyph glyph-name="dollar" unicode="$" horiz-adv-x="1138" 
d="M886 725q92 -65 132.5 -145t40.5 -183q0 -111 -56.5 -198.5t-162.5 -138.5t-248 -55v-22q2 -74 2 -93q0 -15 -6 -23.5t-17 -8.5q-12 0 -18 8t-6 22q0 29 2 117q-146 3 -254 48t-165 119t-57 164q0 59 33.5 96t89.5 37q54 0 90.5 -35.5t36.5 -93.5v-88q0 -101 63 -160
t163 -64l1 44q9 297 11 513l-32 12q-159 58 -252 121t-134 140t-41 180q0 121 65.5 208.5t172 134.5t229.5 53v21q-2 84 -2 110q0 15 6 23t18 8q23 0 23 -33l-1 -100q-1 -9 -1 -28q141 -1 245 -43.5t159 -116.5t55 -167q0 -59 -29.5 -96t-88.5 -37q-64 0 -98.5 34t-34.5 92
v70q0 108 -56 172.5t-152 69.5q-7 -299 -10 -556q11 -4 20.5 -7.5t17.5 -6.5q154 -53 246 -118zM389.5 991q57.5 -70 190.5 -125q-2 241 -11 546q-108 -9 -172.5 -76t-64.5 -177q0 -98 57.5 -168zM757.5 102q60.5 67 60.5 177q0 115 -61 183t-175 115q3 -252 8 -479
q2 -50 2 -70q105 7 165.5 74z" />
    <glyph glyph-name="percent" unicode="%" horiz-adv-x="1326" 
d="M218.5 1417.5q-73.5 -47.5 -111 -130.5t-37.5 -187q0 -182 85 -279t241 -97q90 0 163 44t115 130t42 205q0 101 -36 183t-108 130.5t-175 48.5q-105 0 -178.5 -47.5zM897.5 1042.5q187.5 270.5 256.5 370.5q7 11 7 19q0 10 -11 16q-7 6 -15 6q-13 0 -22 -14
q-66 -104 -211.5 -330.5t-222.5 -346.5q-2 -4 -2 -7q0 -8 7 -8q6 0 10 6q16 18 203.5 288.5zM489.5 826.5q-35.5 -80.5 -93.5 -80.5q-66 0 -100.5 85.5t-34.5 277.5q0 165 35.5 249t99.5 84q67 0 98 -85t31 -264q0 -186 -35.5 -266.5zM758.5 673q-73.5 -48 -111 -131.5
t-37.5 -186.5q0 -182 85 -279t241 -97q90 0 163 44.5t115 130t42 204.5q0 102 -36 184.5t-108.5 130.5t-175.5 48q-104 0 -177.5 -48zM338 271l-168 -243q-6 -9 -6 -19q0 -12 10 -18q5 -4 13 -4q14 0 23 12l211 333q91 142 115 179q105 165 109 172q3 8 3 11q0 6 -5 6
t-11 -7q-14 -17 -294 -422zM1029 82q-36 -80 -93 -80q-68 0 -101.5 84.5t-33.5 277.5q0 166 35.5 249.5t99.5 83.5q68 0 98.5 -86.5t30.5 -262.5q0 -186 -36 -266z" />
    <glyph glyph-name="ampersand" unicode="&#x26;" horiz-adv-x="1893" 
d="M1299 1373q223 -147 355 -388t132 -507q0 -243 -124 -373t-353 -130q-114 0 -211.5 32t-180.5 101q-72 -62 -168 -96.5t-238 -34.5q-105 0 -189 35t-133 106.5t-49 177.5q0 108 54 191t158.5 133.5t251.5 60.5q-17 88 -17 182q0 124 48.5 221.5t139 153t212.5 55.5
q85 0 151 -34t103 -94t37 -136q0 -97 -50 -170.5t-142 -117t-216 -55.5q51 -155 155 -301q86 -123 149 -190q66 55 97.5 127.5t31.5 131.5q0 35 -7 59.5t-20 56.5q-10 25 -15.5 43.5t-5.5 40.5q0 35 18.5 63t49 43.5t64.5 15.5q59 0 97 -45t38 -125q0 -128 -85.5 -238
t-249.5 -187q65 -66 125.5 -95t134.5 -29q96 0 166.5 46.5t109.5 141t39 233.5q0 258 -129.5 494t-348.5 381t-472 145q-147 0 -250 -39.5t-156 -113t-53 -172.5q0 -43 10 -74t30 -70q18 -35 26.5 -61t8.5 -59q0 -50 -32 -83t-81 -33q-73 0 -114.5 58t-41.5 164
q0 149 80 263.5t228.5 178t349.5 63.5q259 0 482 -147zM894.5 1225.5q-33.5 -38.5 -52.5 -101.5t-19 -134q0 -148 41 -286q88 23 142 110.5t54 228.5q0 102 -22.5 161.5t-68.5 59.5q-41 0 -74.5 -38.5zM895 127q-67 62 -121 142q-126 193 -167 395q-54 -12 -97 -54t-67 -104
t-24 -131q0 -145 71 -225t203 -80q124 0 202 57z" />
    <glyph glyph-name="quotesingle" unicode="'" horiz-adv-x="425" 
d="M211 1411q47 30 89 65q0 -191 -12 -289t-35 -191q-15 -63 -20 -94h-12l-97 464q40 15 87 45z" />
    <glyph glyph-name="quotesingle" unicode="&#x2032;" horiz-adv-x="425" 
d="M211 1411q47 30 89 65q0 -191 -12 -289t-35 -191q-15 -63 -20 -94h-12l-97 464q40 15 87 45z" />
    <glyph glyph-name="parenleft" unicode="(" horiz-adv-x="758" 
d="M176 1148q52 159 157.5 294.5t273.5 263.5h12q-107 -116 -169.5 -243t-90.5 -288t-28 -382q0 -222 28 -383t90.5 -288t169.5 -243h-12q-168 129 -273.5 264.5t-157.5 294.5t-52 355t52 355z" />
    <glyph glyph-name="parenright" unicode=")" horiz-adv-x="758" 
d="M581 438q-52 -159 -157.5 -294.5t-273.5 -264.5h-12q107 116 169.5 243t90.5 288t28 383q0 221 -28 382t-90.5 288t-169.5 243h12q168 -128 273.5 -263.5t157.5 -294.5t52 -355t-52 -355z" />
    <glyph glyph-name="asterisk" unicode="*" horiz-adv-x="1222" 
d="M663 952q0 -121 -5.5 -194t-19 -126.5t-39.5 -113.5q19 11 74 43.5t154 89.5q53 32 111 66q32 -33 74 -68t85 -62q-162 -57 -250 -78t-163 -21q-22 0 -72 4q23 -24 202 -181l88 -78q-23 -40 -43 -91.5t-33 -101.5q-86 116 -131 186t-68.5 125t-38.5 123
q-14 -26 -59 -130.5t-65 -149.5l-33 -77q-66 15 -152 15q-19 0 -55 -2q84 118 136.5 183t97.5 104t105 75q-23 3 -158 16q-163 15 -230 23q-4 45 -17.5 98.5t-33.5 101.5q138 -43 215.5 -73t129 -61t104.5 -78q-3 16 -32 146q-36 160 -51 235q74 30 173 109v-57z" />
    <glyph glyph-name="asterisk" unicode="&#x66d;" horiz-adv-x="1222" 
d="M663 952q0 -121 -5.5 -194t-19 -126.5t-39.5 -113.5q19 11 74 43.5t154 89.5q53 32 111 66q32 -33 74 -68t85 -62q-162 -57 -250 -78t-163 -21q-22 0 -72 4q23 -24 202 -181l88 -78q-23 -40 -43 -91.5t-33 -101.5q-86 116 -131 186t-68.5 125t-38.5 123
q-14 -26 -59 -130.5t-65 -149.5l-33 -77q-66 15 -152 15q-19 0 -55 -2q84 118 136.5 183t97.5 104t105 75q-23 3 -158 16q-163 15 -230 23q-4 45 -17.5 98.5t-33.5 101.5q138 -43 215.5 -73t129 -61t104.5 -78q-3 16 -32 146q-36 160 -51 235q74 30 173 109v-57z" />
    <glyph glyph-name="plus" unicode="+" horiz-adv-x="1092" 
d="M579 12l-77 -12v376h-378l12 78l366 12v363l89 12v-375h376l-12 -90h-364z" />
    <glyph glyph-name="comma" unicode="," horiz-adv-x="476" 
d="M331 -12q7 -9 7 -26q0 -94 -50 -173t-159 -121q-10 -3 -13.5 -7.5t-2.5 -11.5q2 -7 15 -7q5 0 8 1q134 46 198.5 153.5t64.5 291.5q0 82 -38.5 140.5t-114.5 58.5q-64 0 -105.5 -41.5t-41.5 -105.5q0 -68 40 -105.5t117 -37.5h51q17 0 24 -9z" />
    <glyph glyph-name="hyphen" unicode="-" horiz-adv-x="1092" 
d="M124 376l12 78l831 12l-12 -90h-831z" />
    <glyph glyph-name="hyphen" unicode="&#x2010;" horiz-adv-x="1092" 
d="M124 376l12 78l831 12l-12 -90h-831z" />
    <glyph glyph-name="period" unicode="." horiz-adv-x="586" 
d="M170.5 47q-46.5 47 -46.5 122q0 47 21 85.5t59.5 60.5t88.5 22t88 -22t59 -60.5t21 -85.5q0 -75 -46 -122t-122 -47t-122.5 47z" />
    <glyph glyph-name="slash" unicode="/" horiz-adv-x="1080" 
d="M136 -48h-12l36 154l739 1370l56 -80z" />
    <glyph glyph-name="zero" unicode="0" horiz-adv-x="922" 
d="M726 346.5q-41 -87.5 -116.5 -134t-176.5 -46.5q-134 0 -206.5 80.5t-72.5 226.5q0 121 42 215t118.5 146t175.5 52q80 0 142.5 -38.5t98.5 -113.5t36 -181q0 -119 -41 -206.5zM224.5 459q36.5 -35 100 -55t141.5 -20q81 0 142 15.5t93.5 41.5t32.5 56q0 48 -33 92
t-96 72t-148 28q-79 0 -140.5 -24t-95 -59t-33.5 -67q0 -45 36.5 -80z" />
    <glyph glyph-name="one" unicode="1" horiz-adv-x="641" 
d="M284 1362q55 -145 92 -254q62 -180 97 -335t35 -289q0 -201 -78 -532h-12q13 76 13 162q0 152 -24 285t-92 315t-203 468q24 37 61.5 132t57.5 162h12q5 -22 41 -114z" />
    <glyph glyph-name="two" unicode="2" horiz-adv-x="993" 
d="M868 1476q-1 -176 -45 -303t-122 -194t-179 -67q-45 0 -87 16q73 -252 73 -444q0 -201 -78 -532h-12q13 76 13 162q0 154 -24 286t-92 313.5t-203 468.5q24 42 63.5 139.5t55.5 154.5h12q49 -123 114.5 -181t176.5 -58q128 0 216 63t106 176h12z" />
    <glyph glyph-name="three" unicode="3" horiz-adv-x="1265" 
d="M1140 1375q0 -144 -34.5 -246t-92 -153.5t-126.5 -51.5t-108 47.5t-39 140.5q0 29 2 45h-12q-15 -121 -80.5 -183t-159.5 -62q-26 0 -53 9q71 -245 71 -437q0 -201 -78 -532h-12q13 76 13 162q0 154 -24 286t-92 313.5t-203 468.5q24 42 63.5 139.5t55.5 154.5h12
q29 -79 60.5 -130t82.5 -80t127 -29q107 0 176 62t88 164h12q0 -64 -9 -149q42 -75 151 -75q55 0 98.5 32t68.5 88.5t25 128.5h13q4 -78 4 -113z" />
    <glyph glyph-name="four" unicode="4" horiz-adv-x="1206" 
d="M1082 1033v-11q-11 -17 -34 -58q-42 -77 -82.5 -130.5t-111 -94.5t-172.5 -42q-113 0 -195 65q19 -78 26.5 -142.5t7.5 -135.5q0 -201 -78 -532h-12q13 76 13 162q0 154 -24 286t-92 313.5t-203 468.5q24 42 63.5 139.5t55.5 154.5h12q56 -151 95 -239t76.5 -143.5
t87.5 -100.5l4 6q-23 55 -23 131q0 82 34.5 162.5t97.5 132t145 51.5q99 0 158 -65t59 -182q0 -25 -3 -52h-12q-17 48 -68 75t-125 27q-69 0 -127 -29.5t-92 -72t-34 -77.5q0 -28 28.5 -64t87.5 -62t145 -26q174 0 292 85z" />
    <glyph glyph-name="five" unicode="5" horiz-adv-x="1289" 
d="M540 1416q43 -33 54 -41q154 -115 270.5 -225.5t208 -279t91.5 -375.5q0 -163 -35.5 -280t-98.5 -178t-145 -61q-107 0 -164 61t-57 182q0 27 3 57h-12q-20 -148 -99 -224t-192 -76q-72 0 -126.5 36.5t-84 103.5t-29.5 154q0 162 86.5 367.5t274.5 482.5q-53 34 -116 69
q31 73 60.5 155t36.5 126h12q19 -21 62 -54zM1092 303.5q17 24.5 17 72.5q0 102 -71.5 225t-204.5 251.5t-314 245.5q-150 -237 -213 -379.5t-63 -243.5q0 -81 48.5 -128t126.5 -47q106 0 176.5 63.5t96.5 196.5h23l-22 -156q34 -33 98.5 -62t133 -46t112.5 -17
q39 0 56 24.5z" />
    <glyph glyph-name="six" unicode="6" horiz-adv-x="1069" 
d="M945 975q-31 -61 -56.5 -128.5t-52.5 -154.5q-180 -102 -305.5 -203.5t-223.5 -229t-189 -307.5h-12q24 122 72 242t108.5 219t122.5 164q-118 12 -186.5 86.5t-68.5 198.5q0 148 51 290.5t141.5 233t202.5 90.5q64 0 113 -33.5t76 -90t27 -122.5q0 -37 -5.5 -66.5
t-6.5 -37.5h-13q-7 67 -63 105t-140 38q-89 0 -162 -38t-114.5 -91.5t-41.5 -93.5q0 -48 37 -89t108 -66t169 -25q107 0 212.5 30t187.5 91z" />
    <glyph glyph-name="seven" unicode="7" horiz-adv-x="1217" 
d="M794 625.5q-117 -311.5 -150 -661.5l-24 -12q-10 238 -91 489.5t-197.5 453.5t-226.5 299q29 52 64 136.5t55 145.5h12q6 -10 32 -49q101 -153 180.5 -300t143.5 -357.5t64 -445.5q0 -49 -3 -100h13q20 297 74 519.5t116 363.5t149 297l39 72h12q10 -70 24.5 -143.5
t30.5 -117.5q-200 -278 -317 -589.5z" />
    <glyph glyph-name="eight" unicode="8" horiz-adv-x="1217" 
d="M687 985.5q81 -251.5 197.5 -453t226.5 -298.5q-30 -52 -65 -137.5t-54 -144.5h-13q-34 52 -31 48q-101 153 -181 300.5t-144 358.5t-64 446q0 49 3 98h-12q-20 -294 -74 -515.5t-115.5 -361.5t-147.5 -299q-6 -11 -41 -75h-13q-9 64 -24 140t-30 121q200 278 316.5 589
t150.5 662l24 12q10 -239 91 -490.5z" />
    <glyph glyph-name="nine" unicode="9" horiz-adv-x="1120" 
d="M638 1372.5q69 -103.5 85 -293.5q23 -251 56.5 -405t86 -253.5t139.5 -186.5q-28 -47 -65.5 -134.5t-52.5 -147.5h-12q-12 25 -38 65q-50 79 -87 163.5t-70 255.5t-45 441h-12q4 -73 -27 -128.5t-90 -85.5t-137 -30q-118 0 -181.5 73t-63.5 200q0 154 46.5 285t124 208
t165.5 77q109 0 178 -103.5zM297.5 1228.5q-49.5 -28.5 -78.5 -73t-29 -88.5q0 -60 62 -95t171 -35q131 0 203 33q-49 287 -221 287q-58 0 -107.5 -28.5z" />
    <glyph glyph-name="colon" unicode=":" horiz-adv-x="586" 
d="M170.5 517q-46.5 47 -46.5 122q0 47 21 85.5t59.5 60.5t88.5 22t88 -22t59 -60.5t21 -85.5q0 -75 -46 -122t-122 -47t-122.5 47zM170.5 47q-46.5 47 -46.5 122q0 47 21 85.5t59.5 60.5t88.5 22t88 -22t59 -60.5t21 -85.5q0 -75 -46 -122t-122 -47t-122.5 47z" />
    <glyph glyph-name="semicolon" unicode=";" horiz-adv-x="469" 
d="M310 575q34 21 53.5 57t19.5 78q0 41 -20 76.5t-54 56.5t-75 21q-40 0 -73.5 -21t-53 -56.5t-19.5 -76.5q0 -42 19 -77.5t52.5 -57t74.5 -21.5q42 0 76 21zM314.5 -10.5q6.5 -9.5 6.5 -26.5q0 -93 -50.5 -172.5t-159.5 -120.5q-15 -7 -15 -17q0 -6 6.5 -8.5t17.5 -0.5
q133 47 197.5 154.5t64.5 291.5q0 82 -38.5 140.5t-113.5 58.5q-64 0 -106 -41.5t-42 -105.5q0 -68 40 -105.5t118 -37.5h50q18 0 24.5 -9.5z" />
    <glyph glyph-name="less" unicode="&#x3c;" horiz-adv-x="1030" 
d="M893 96l-769 312v12l747 301l11 -67l-591 -235l614 -234z" />
    <glyph glyph-name="equal" unicode="=" horiz-adv-x="1092" 
d="M124 497l12 78l831 12l-12 -90h-831zM124 255l12 77l831 13l-12 -90h-831z" />
    <glyph glyph-name="greater" unicode="&#x3e;" horiz-adv-x="1030" 
d="M159 721l746 -301v-12l-769 -312l-12 89l614 234l-591 235z" />
    <glyph glyph-name="question" unicode="?" horiz-adv-x="1094" 
d="M465 670.5q9 18.5 34 31.5l40 23q106 63 142.5 176.5t36.5 268.5q0 145 -44.5 218.5t-128.5 73.5q-80 0 -125 -43.5t-49 -119.5q-3 -15 -5 -51t-2 -60q0 -83 -37.5 -129.5t-105.5 -46.5q-57 0 -90.5 38.5t-33.5 107.5q0 78 52.5 144.5t146.5 109.5q49 35 115 55t141 20
q226 0 347.5 -95.5t121.5 -270.5q0 -155 -97.5 -266.5t-290.5 -166.5l-66 -13q-29 -9 -42.5 -26.5t-16.5 -47.5l-6 -172q-4 -20 -17 -20q-8 0 -11 4t-5 9t-3 7l-8 196q-2 27 7 45.5zM551 1.5q34 21.5 54 57t20 77.5t-20 77.5t-54 56t-76 20.5q-39 0 -72.5 -21t-53 -56
t-19.5 -77q0 -41 19.5 -77t53 -57.5t72.5 -21.5q42 0 76 21.5z" />
    <glyph glyph-name="at" unicode="@" horiz-adv-x="1617" 
d="M1544 115q0 -7 -6 -15q-121 -169 -302.5 -260t-396.5 -91q-223 0 -399.5 100.5t-277 286.5t-100.5 435q0 238 94.5 427t267.5 296.5t398 107.5q204 0 368 -90.5t258.5 -262t94.5 -405.5q0 -153 -52.5 -265.5t-147 -172.5t-216.5 -60q-79 0 -124 24.5t-61 75.5
q-44 -49 -110.5 -75t-142.5 -26q-65 0 -122 23.5t-92 71t-35 113.5q0 111 91.5 172.5t270.5 61.5q76 0 131 -21v305q0 72 -28.5 110t-83.5 38q-57 0 -88.5 -28.5t-31.5 -68.5v-75q0 -48 -35 -81t-88 -33q-42 0 -67 24t-25 70q0 54 42 103t124 79t197 30q157 0 237.5 -64.5
t80.5 -188.5v-521q0 -34 15 -49.5t48 -15.5q68 0 134 53t109 154t43 237q0 212 -85 378.5t-242.5 260.5t-367.5 94q-216 0 -382 -104t-257 -287.5t-91 -414.5q0 -228 91 -409.5t260.5 -284.5t395.5 -103q207 0 383.5 88t295.5 254q10 10 16 10q4 0 8 -4q3 -1 3 -7z
M875.5 230q32.5 12 57.5 33v286q-50 18 -109 18q-70 0 -110 -46t-40 -132q0 -82 37 -126.5t101 -44.5q31 0 63.5 12z" />
    <glyph glyph-name="A" unicode="A" horiz-adv-x="1345" 
d="M1314.5 21q2.5 -3 2.5 -9q0 -5 -4 -8.5t-11 -3.5h-445q-14 0 -14 12q0 6 2.5 8t10.5 5l48 8q16 4 23.5 12t7.5 21q0 10 -5 28l-137 438h-477l-100 -342q-7 -22 -7 -44q0 -41 28 -67t81 -45l31 -9q12 -6 12 -13q0 -5 -3.5 -8.5t-9.5 -3.5h-318q-6 0 -10 3.5t-4 8.5
q0 7 4.5 9t6.5 4l40 13q79 28 115 152l329 1122q6 21 6 37q0 22 -12 37t-36 25q-8 6 -15 11t-7 8q0 6 3.5 9t12.5 3h403q16 0 16 -12q0 -7 -21 -19q-19 -2 -26.5 -7t-7.5 -16t7 -29l402 -1271q10 -29 26 -43t41 -17q9 -4 11.5 -7zM326 563h457l-236 754z" />
    <glyph glyph-name="B" unicode="B" horiz-adv-x="1387" 
d="M1068 646q104 -39 170.5 -114t66.5 -184q0 -128 -75 -206t-189 -110t-240 -32h-691q-15 0 -15 12q0 6 3 9t11 5l85 13q20 4 29 13.5t9 28.5v1293q0 13 -8 19.5t-30 9.5l-85 14q-14 3 -14 13q0 12 15 12h510q190 0 325.5 -51t206 -143t70.5 -213q0 -91 -45 -164t-129 -119
t-198 -59q114 -8 218 -47zM516 1414v-714h186q128 0 195 82.5t67 236.5q0 116 -46 206t-127 139.5t-183 49.5h-92zM885 69q65 41 100 114.5t35 169.5q0 101 -40 172.5t-114 109t-175 37.5h-175v-595q0 -49 61 -49h155q88 0 153 41z" />
    <glyph glyph-name="C" unicode="C" horiz-adv-x="1370" 
d="M1302 423q0 11 -9 11h-2q-7 0 -12 -12q-36 -154 -136.5 -243t-255.5 -89q-152 0 -264 82.5t-173 242t-61 384.5q0 198 56 341t155 217.5t225 74.5q140 0 251 -91t189 -292q11 -20 23 -20q11 0 15 7.5t1 17.5l-105 397q-4 20 -17 20q-4 0 -16.5 -11.5t-26.5 -25.5l-27 -28
q-23 -22 -34 -22q-6 0 -30 13q-53 28 -104 45q-69 28 -179 28q-199 0 -354.5 -97.5t-242.5 -272.5t-87 -397q0 -212 79 -379t231 -262t361 -95q149 0 269.5 59.5t193.5 162.5t86 229z" />
    <glyph glyph-name="D" unicode="D" horiz-adv-x="1529" 
d="M110 0h614q207 0 371 75t258 221t94 351q0 243 -105 422.5t-294.5 276t-436.5 96.5h-501q-15 0 -15 -11q0 -12 11 -13l91 -15q19 -4 27 -11t8 -22v-1299q0 -13 -8 -20.5t-27 -11.5l-88 -13q-14 -1 -14 -14q0 -12 15 -12zM532 41q-11 11 -11 31v1342h86q168 0 288.5 -86
t184 -251.5t63.5 -400.5q0 -203 -50 -348t-145.5 -221.5t-231.5 -76.5h-153q-20 0 -31 11z" />
    <glyph glyph-name="E" unicode="E" horiz-adv-x="1274" 
d="M1210 445l-2 -9l-107 -435q-4 -18 -7.5 -24t-11.5 -6q-6 0 -22 7q-22 10 -43.5 16t-51.5 6h-855q-15 0 -15 12q0 6 3 9t11 5l85 13q38 8 38 31v1304q0 24 -38 29l-85 14q-14 1 -14 13t15 12h862q22 0 39.5 5.5t39.5 15.5q14 8 20 8t10 -6t8 -23l90 -353l2 -9q0 -8 -8 -11
h-4q-7 0 -16 10q-84 134 -146 206t-116.5 100t-119.5 28h-250v-653h222q59 0 93.5 18.5t51.5 56t23 98.5q4 14 13 14t15 -17l104 -347q1 -3 1 -7q0 -9 -7 -13l-6 -1q-6 0 -13 7q-47 67 -82 100.5t-73 46.5t-96 13h-246v-648q0 -25 14 -38t40 -13h208q72 0 126.5 37.5
t108.5 104.5q34 41 73 107.5t89 167.5q7 8 10.5 10.5t9.5 1.5q10 -3 10 -14z" />
    <glyph glyph-name="F" unicode="F" horiz-adv-x="1166" 
d="M1129 1082q0 -12 -9 -13h-3q-10 0 -15 9q-71 128 -131 201t-117.5 103.5t-123.5 30.5h-209v-680h194q91 0 131.5 40.5t48.5 132.5q4 13 12 13h2q10 0 14 -15l83 -349q2 -6 2 -7q0 -9 -8 -11q-4 -2 -5 -2q-5 0 -13 8q-48 67 -81 99.5t-69.5 46t-91.5 13.5h-219v-632
q0 -25 49 -31l119 -13q15 -1 15 -14q0 -5 -4.5 -8.5t-11.5 -3.5h-578q-15 0 -15 12q0 6 3 9t11 5l85 13q38 8 38 31v1304q0 24 -38 29l-85 14q-14 3 -14 13q0 12 15 12h812q22 0 40.5 6t36.5 14.5t21 8.5q6 0 10 -6t8 -23l91 -355v-5z" />
    <glyph glyph-name="G" unicode="G" horiz-adv-x="1479" 
d="M1319.5 582.5q6.5 6.5 19.5 10.5l65 13q14 6 14 12q0 12 -16 12h-512q-16 0 -16 -12q0 -4 4.5 -7.5t11.5 -4.5l122 -14q19 -2 28 -8.5t9 -19.5v-386q0 -44 -35.5 -77t-86.5 -50.5t-95 -17.5q-126 0 -228 85.5t-162 244.5q-62 160 -62 386q0 219 53.5 373.5t151.5 233.5
t230 79q150 0 274 -104t209 -327q11 -14 20 -10q8 5 8 10q0 2 -2 10l-75 429q-4 14 -6.5 18t-8.5 4q-9 0 -27 -12t-49 -35l-19 -14q-4 -3 -15 -12t-19 -13.5t-14 -4.5q-5 0 -18 7t-17 9q-59 34 -105 51q-57 23 -149 23q-209 0 -373 -96.5t-255.5 -271t-91.5 -402.5
q0 -207 84.5 -370t237 -254.5t350.5 -91.5q92 0 156 24.5t123 61.5q13 8 23.5 14t15.5 6q19 0 54 -17.5t84 -46.5q8 -5 31 -18t37 -19.5t20 -6.5q8 0 11.5 6.5t3.5 23.5v558q0 12 6.5 18.5z" />
    <glyph glyph-name="H" unicode="H" horiz-adv-x="1608" 
d="M1506.5 21q3.5 -3 3.5 -9q0 -5 -5 -8.5t-12 -3.5h-532q-7 0 -11.5 3.5t-4.5 8.5q0 6 3.5 9t10.5 5l84 13q39 7 39 31v595h-555v-595q0 -23 38 -31l84 -13q8 -2 11.5 -5t3.5 -9q0 -12 -16 -12h-533q-15 0 -15 12q0 6 3.5 9t11.5 5l83 13q40 8 40 31v1304q0 24 -40 29
l-83 14q-15 3 -15 13q0 12 15 12h533q16 0 16 -12q0 -10 -15 -13l-84 -14q-38 -5 -38 -29v-679h555v679q0 25 -39 29l-84 14q-14 3 -14 13q0 12 16 12h532q17 0 17 -12q0 -10 -15 -13l-84 -14q-38 -5 -38 -29v-1304q0 -23 38 -31l84 -13q8 -2 11.5 -5z" />
    <glyph glyph-name="I" unicode="I" horiz-adv-x="753" 
d="M562 1403l83 14q14 3 14 13q0 12 -16 12h-533q-15 0 -15 -12q0 -10 14 -13l85 -14q38 -5 38 -29v-1304q0 -23 -38 -31l-85 -13q-8 -2 -11 -5t-3 -9q0 -12 15 -12h533q7 0 11.5 3.5t4.5 8.5q0 6 -3.5 9t-10.5 5l-83 13q-41 8 -41 31v1304q0 24 41 29z" />
    <glyph glyph-name="J" unicode="J" horiz-adv-x="870" 
d="M714.5 330.5q-10.5 39.5 -31.5 94.5q-24 64 -36.5 113.5t-12.5 112.5v718q0 15 8.5 22.5t26.5 10.5l77 14q23 6 23 14q0 7 -4 9.5t-14 2.5h-527q-19 0 -19 -12q0 -6 4 -9t15 -6l91 -13q17 -2 24 -11.5t7 -28.5v-715q0 -66 13.5 -122t32.5 -97t50 -98q33 -61 48.5 -99
t15.5 -79q0 -74 -31.5 -114.5t-86.5 -40.5q-48 0 -71 30t-23 84v80q0 61 -31 98.5t-79 37.5q-60 0 -92.5 -36.5t-32.5 -97.5q0 -77 47 -126.5t118 -71t148 -21.5q91 0 171.5 28t131 89t50.5 154q0 46 -10.5 85.5z" />
    <glyph glyph-name="K" unicode="K" horiz-adv-x="1496" 
d="M1478 14q0 -14 -16 -14h-506q-15 0 -15 14q0 10 12 12l80 12q21 3 21 21q0 15 -14 42l-339 640l-180 -208v-463q0 -24 39 -31l83 -13q8 -3 10.5 -5.5t2.5 -8.5q0 -12 -15 -12h-531q-15 0 -15 12q0 6 3 9t11 5l85 13q38 8 38 31v1304q0 24 -38 29l-85 14q-14 3 -14 13
q0 12 15 12h533q16 0 16 -12q0 -10 -14 -13l-83 -14q-41 -4 -41 -29v-803l513 604q34 35 51 70.5t17 66.5q0 34 -20 59.5t-56 36.5l-56 9q-11 5 -11 13q0 12 15 12h421q8 0 11.5 -2.5t3.5 -8.5q0 -9 -14 -14q-41 -11 -81.5 -34.5t-97.5 -72.5t-145 -138l-186 -215l10 9
l461 -854q23 -45 46 -63t65 -22q10 -4 10 -13z" />
    <glyph glyph-name="L" unicode="L" horiz-adv-x="1199" 
d="M659 1430q0 12 -16 12h-533q-15 0 -15 -12q0 -10 14 -13l85 -14q38 -5 38 -29v-1304q0 -23 -38 -31l-85 -13q-8 -2 -11 -5t-3 -9q0 -12 15 -12h819q30 0 50 -5.5t45 -15.5q16 -8 23 -8t10.5 5.5t7.5 24.5l98 437q1 4 1 9q0 11 -10 14q-2 1 -5 1q-5 0 -14 -12l-95 -193
q-65 -129 -127.5 -178t-140.5 -49h-201q-50 0 -50 43v1301q0 24 41 29l83 14q14 3 14 13z" />
    <glyph glyph-name="M" unicode="M" horiz-adv-x="1735" 
d="M531.5 1435q-8.5 7 -25.5 7h-345q-23 0 -23 -13q0 -6 5 -8.5t20 -6.5l77 -12q20 -4 28 -24t8 -61q0 -25 -1 -40l-77 -1120q-4 -43 -31 -72t-72 -43l-65 -16l-6 -3t-6 -4.5t-2 -6.5q0 -5 4 -8.5t11 -3.5h385q7 0 10.5 4t3.5 8q0 10 -12 13l-92 17q-47 15 -73 44.5
t-24 69.5l76 1092l431 -1090q8 -21 15 -28t16 -7q18 0 30 34l390 1094l82 -1165q1 -23 -7 -33t-29 -14l-84 -13q-10 -3 -12.5 -5.5t-2.5 -8.5q0 -12 17 -12h525q6 0 10 4t4 8q0 7 -3 10t-11 4l-83 13q-20 4 -26 12.5t-9 32.5l-88 1269q-2 43 31 50l90 14q13 1 13 13t-15 12
h-340q-17 0 -26 -8t-18 -32l-313 -855l-344 858q-8 23 -16.5 30z" />
    <glyph glyph-name="N" unicode="N" horiz-adv-x="1437" 
d="M467 26l-103 19q-44 14 -70 45t-26 81v1022l710 -1140q11 -18 11 -35q0 -18 21 -18h288q17 0 17 12t-19 41l-72 115q-13 24 -13 46v1058q0 52 25 81.5t70 44.5l65 19q14 4 14 13q0 7 -3.5 9.5t-11.5 2.5h-389q-8 0 -11.5 -2.5t-3.5 -9.5q0 -9 14 -13l100 -19
q48 -15 73.5 -44.5t25.5 -81.5v-1032l-720 1175q-9 16 -15 21.5t-15 5.5h-299q-14 0 -14 -8q0 -5 5 -13t8 -16l94 -150q11 -17 12.5 -24t1.5 -25v-1035q0 -95 -96 -126l-64 -19q-15 -6 -15 -14q0 -5 4 -8.5t11 -3.5h389q15 0 15 12q0 8 -14 14z" />
    <glyph glyph-name="O" unicode="O" horiz-adv-x="1564" 
d="M418.5 1370.5q-158.5 -93.5 -247.5 -261t-89 -382.5q0 -219 88 -389.5t248 -265t367 -94.5q205 0 362.5 93.5t245 263t87.5 390.5q0 212 -87 380t-246 263.5t-368 95.5q-202 0 -360.5 -93.5zM1100 142.5q-86 -128.5 -242 -128.5q-127 0 -238 128t-177 341.5t-66 458.5
q0 152 40.5 262t115 167.5t175.5 57.5q127 0 237 -126.5t175.5 -338t65.5 -452.5t-86 -369.5z" />
    <glyph glyph-name="P" unicode="P" horiz-adv-x="1345" 
d="M939.5 1384q154.5 -58 251.5 -179.5t97 -303.5q0 -143 -67 -247t-183 -158.5t-260 -54.5q-149 0 -257 49v-420q0 -22 36 -31l89 -14q8 -2 11 -4.5t3 -8.5q0 -5 -4.5 -8.5t-11.5 -3.5h-533q-16 0 -16 12q0 6 3 9t11 5l88 14q35 7 35 30v1300q0 28 -33 32l-93 16
q-11 1 -11 12q0 12 15 12h499q176 0 330.5 -58zM852 531.5q72 51.5 113 148.5t41 228q0 157 -51.5 271.5t-142 174.5t-205.5 60h-86v-899q79 -35 170 -35q89 0 161 51.5z" />
    <glyph glyph-name="Q" unicode="Q" horiz-adv-x="1584" 
d="M1541 -69q10 0 10 -12q0 -7 -6 -16l-98 -157q-14 -22 -35.5 -32.5t-57.5 -10.5q-115 0 -204.5 69.5t-165.5 229.5q-92 -24 -196 -24q-212 0 -373 94t-249 263.5t-88 391.5q0 215 89.5 383t250 261t365.5 93q206 0 367.5 -94.5t252 -263t90.5 -381.5q0 -173 -55.5 -316
t-158.5 -243t-242 -148q62 -85 137 -118t177 -33q54 0 87 7t52.5 19t38.5 32q6 6 12 6zM972 29q-61 139 -118 354q-1 3 -1 7q0 7 3 10.5t8 3.5q10 0 14 -13q62 -221 137 -341q86 52 131.5 169t45.5 293q0 239 -67 452t-178.5 341.5t-236.5 128.5q-103 0 -178 -58t-115 -169
t-40 -265q0 -246 66.5 -461t178.5 -343t241 -128q61 0 109 19z" />
    <glyph glyph-name="R" unicode="R" horiz-adv-x="1432" 
d="M1405.5 22.5q3.5 -1.5 5 -4t1.5 -6.5q0 -5 -4.5 -8.5t-11.5 -3.5h-461q-7 0 -11.5 3.5t-4.5 8.5q0 4 3 6.5t10 4.5l43 9q30 9 30 30q0 14 -14 40l-245 427q-136 6 -225 50v-498q0 -18 9 -27.5t30 -14.5l79 -13q10 -4 13 -6t3 -8q0 -5 -4.5 -8.5t-11.5 -3.5h-529
q-15 0 -15 12q0 6 3 9t11 5l85 13q20 4 29 13.5t9 28.5v1293q0 24 -38 29l-85 14q-14 3 -14 13q0 12 15 12h504q214 0 370.5 -61.5t239 -175t82.5 -265.5q0 -143 -80 -238t-212 -139l283 -468q21 -34 44 -48t60 -22q1 -1 4.5 -2.5zM718 565q152 0 223.5 102t71.5 262
q0 120 -46.5 231.5t-137.5 182.5t-217 71h-91v-806q82 -43 197 -43z" />
    <glyph glyph-name="S" unicode="S" horiz-adv-x="1222" 
d="M888.5 25q105.5 47 168 137.5t62.5 215.5q0 103 -44.5 184t-141 147.5t-255.5 123.5q-121 44 -191 96t-99.5 112t-29.5 135t29.5 133.5t85.5 91t132 32.5q162 0 280 -119.5t214 -307.5q9 -11 17 -11q12 0 9 22l-107 429q-4 21 -22 21q-7 0 -22.5 -12t-43.5 -37l-18 -16
q-24 -23 -41 -23q-12 0 -49 20q-42 22 -80 37q-61 27 -158 27q-128 0 -237.5 -49t-175 -143t-65.5 -221q0 -108 43 -192.5t139.5 -152.5t256.5 -124q126 -45 198.5 -95t103 -108.5t30.5 -132.5q0 -114 -65 -175t-177 -61q-265 0 -467 426q-10 18 -21 12q-6 -5 -6 -21
l78 -430q1 -9 9 -15.5t16 -6.5q7 0 21 14t37 41q24 28 37.5 41.5t20.5 13.5q6 0 20 -8.5t17 -10.5q46 -31 92 -52q66 -35 168 -35q126 0 231.5 47z" />
    <glyph glyph-name="T" unicode="T" horiz-adv-x="1333" 
d="M194 1447q-14 5 -37 16q-13 8 -19 8q-7 0 -11 -6t-7 -24l-65 -381q-1 -4 -1 -9q0 -11 9 -16h2q10 0 17 12q62 144 115 224.5t103 111.5t95 31h128v-1344q0 -24 -40 -31l-84 -13q-7 -2 -10.5 -5t-3.5 -9q0 -5 4.5 -8.5t11.5 -3.5h531q16 0 16 12q0 6 -3 8.5t-10 5.5
l-84 13q-39 7 -39 31v1344h126q53 0 100.5 -29.5t96.5 -103.5q53 -78 116 -234q10 -13 20 -12q9 5 8 25l-64 381q-4 18 -8.5 24t-11.5 6q-5 0 -21 -8q-23 -10 -40.5 -15.5t-37.5 -5.5h-869q-19 0 -33 5z" />
    <glyph glyph-name="U" unicode="U" horiz-adv-x="1419" 
d="M1198 404q-1 -119 -49.5 -207.5t-135 -136t-199.5 -47.5q-157 0 -242 96t-86 291v39q2 133 8 211l43 720q1 16 9 22.5t28 10.5l87 14q18 1 18 13t-16 12h-537q-16 0 -16 -12q0 -10 17 -13l84 -14q22 -4 31 -10t8 -20l-45 -729l-3 -56q-9 -157 -9 -196q1 -123 62.5 -217.5
t187 -148.5t310.5 -54q227 0 351 112.5t128 327.5q-1 74 -11 222l-37 636q-4 44 21 77.5t71 47.5l68 21q19 5 19 14q0 12 -15 12h-380q-8 0 -11.5 -2.5t-3.5 -9.5q0 -12 14 -13l81 -20q52 -15 75.5 -46t26.5 -81l39 -646q9 -135 9 -220z" />
    <glyph glyph-name="V" unicode="V" horiz-adv-x="1306" 
d="M957 1418l54 -10q54 -14 78 -41t24 -65q0 -21 -8 -50l-321 -1063l-361 1158q-4 13 -4 25q0 25 30 32l87 14q14 4 14 12q0 12 -14 12h-503q-15 0 -15 -12q0 -8 14 -13l48 -14q14 -4 20 -13t12 -31l387 -1220q15 -39 15 -65v-57q0 -17 17 -17h249q14 0 14 16v58
q0 19 2.5 37.5t6.5 37.5l334 1103q38 123 116 154l41 12q10 6 10 12q0 12 -14 12h-332q-13 0 -13 -12q0 -8 12 -12z" />
    <glyph glyph-name="W" unicode="W" horiz-adv-x="1951" 
d="M1948 1439.5q3 -2.5 3 -9.5q0 -8 -10 -12l-37 -12q-41 -16 -71 -52.5t-41 -91.5l-277 -1149q-5 -17 -5 -39v-58q0 -16 -12 -16h-263q-5 0 -9 4.5t-4 11.5v58q0 12 -2.5 23t-3.5 16l-221 876l-240 -876q-5 -13 -5 -39v-58q0 -16 -13 -16h-263q-12 0 -12 16v58
q0 14 -3.5 25t-4.5 14l-320 1258q-4 19 -9 25.5t-19 10.5l-63 14q-8 3 -8 10q0 4 3.5 7.5t7.5 3.5h491q13 0 13 -9t-9 -12l-89 -14q-23 -4 -23 -26q0 -3 2 -15l302 -1213l247 895l-82 323q-5 18 -10 25t-16 10l-62 14q-9 7 -9 11q0 11 12 11h487q7 0 9.5 -2.5t2.5 -8.5
q0 -3 -3 -6.5t-7 -4.5l-83 -14q-22 -6 -22 -27q0 -4 2 -14l294 -1206l268 1108q4 17 4 36q0 39 -24.5 65t-77.5 41l-39 9q-12 5 -12 12q0 12 15 12h310q8 0 11 -2.5z" />
    <glyph glyph-name="X" unicode="X" horiz-adv-x="1373" 
d="M1343 12q0 -12 -15 -12h-550q-9 0 -13.5 4t-4.5 8q0 12 18 14q59 9 84.5 20.5t25.5 30.5q0 13 -13 34l-291 518l-278 -443q-25 -40 -25 -71q0 -29 21 -49.5t61 -30.5l60 -9q12 -4 12 -14q0 -12 -14 -12h-357q-7 0 -12 3.5t-5 8.5q0 9 14 14q59 16 94.5 36.5t61.5 50.5
t63 88l288 457l-388 692q-19 34 -44 47.5t-67 20.5q-12 4 -12 12q0 12 15 12h549q9 0 12 -2.5t3 -9.5q0 -11 -13 -12l-95 -9q-31 -3 -31 -24q0 -12 10 -30l285 -507l247 400q26 42 26 76q0 32 -21.5 53.5t-59.5 30.5l-58 9q-6 2 -8 5t-2 8q0 6 3 8.5t10 2.5h352q14 0 14 -11
q0 -9 -16 -15q-82 -27 -126 -71q-40 -38 -83 -105l-262 -420l404 -718q23 -40 49 -54.5t67 -20.5q15 -5 15 -14z" />
    <glyph glyph-name="Y" unicode="Y" horiz-adv-x="1304" 
d="M1280 1431q0 -6 -2.5 -9t-9.5 -5l-20 -7q-50 -13 -86 -53.5t-64 -111.5l-288 -707v-466q0 -14 9 -21.5t29 -11.5l84 -13q15 -6 15 -14q0 -12 -17 -12h-530q-16 0 -16 12q0 6 3 8.5t10 5.5l86 13q20 4 28.5 11t8.5 21v440l-372 856q-20 38 -53 42l-43 9q-7 1 -10.5 4.5
t-3.5 7.5q0 7 3.5 9.5t13.5 2.5h498q10 0 14 -2t4 -9q0 -13 -16 -14l-78 -11q-17 -3 -23.5 -7.5t-6.5 -11.5q0 -6 3 -14l340 -798l276 672q11 28 11 52q0 38 -26 66.5t-76 42.5l-34 9q-13 4 -13 13q0 12 16 12h320q16 0 16 -11z" />
    <glyph glyph-name="Z" unicode="Z" horiz-adv-x="1222" 
d="M1165 1434q0 8 -10 8h-895q-22 0 -57 14q-18 6 -21 6q-7 0 -11.5 -6t-7.5 -18l-59 -353v-7q0 -6 1.5 -9t6.5 -4h4q12 0 18 13l28 59q44 94 83 151t97 91.5t144 34.5h359l-787 -1391q-5 -7 -5 -13q0 -4 3 -7t7 -3h930q29 0 63 -16q16 -6 19 -6q8 0 12 5.5t7 20.5l61 402
l1 6q0 12 -10 13q-2 1 -5 1q-8 0 -14 -12l-18 -39q-71 -149 -120.5 -220.5t-102.5 -98t-137 -26.5h-374l785 1393q5 6 5 11z" />
    <glyph glyph-name="bracketleft" unicode="[" horiz-adv-x="566" 
d="M214 -87l213 -12v-22h-266q-37 0 -37 36v1755q0 36 37 36h266v-22l-213 -12v-1759z" />
    <glyph glyph-name="backslash" unicode="\" horiz-adv-x="1080" 
d="M124 1396l56 80l739 -1370l36 -154h-12z" />
    <glyph glyph-name="bracketright" unicode="]" horiz-adv-x="566" 
d="M138 1706h266q37 0 37 -36v-1755q0 -36 -37 -36h-266v22l213 12v1759l-213 12v22z" />
    <glyph glyph-name="underscore" unicode="_" horiz-adv-x="1092" 
d="M124 0l12 78l831 12l-12 -90h-831z" />
    <glyph glyph-name="a" unicode="a" horiz-adv-x="992" 
d="M948.5 110q1.5 -2 1.5 -7q0 -23 -19.5 -51.5t-61 -49.5t-102.5 -21q-77 0 -119 30.5t-44 79.5q-47 -54 -118.5 -83t-154.5 -29q-69 0 -129 25.5t-97 75.5t-37 120q0 119 97.5 184.5t287.5 65.5q80 0 138 -21v324q0 75 -30 114.5t-88 39.5q-62 0 -94.5 -29.5t-32.5 -70.5
v-84q0 -53 -37.5 -87t-95.5 -34q-44 0 -70 25t-26 74q0 56 45 109t132.5 86.5t209.5 33.5q168 0 253 -70t85 -200v-530q0 -71 44 -71q20 0 34 11.5t16 34.5q1 7 7 7q4 0 5.5 -2zM531.5 70q33.5 13 59.5 37v302q-52 20 -114 20q-73 0 -115.5 -49.5t-42.5 -140.5
q0 -87 39 -134.5t105 -47.5q35 0 68.5 13z" />
    <glyph glyph-name="b" unicode="b" horiz-adv-x="1095" 
d="M841.5 873q86.5 -56 134.5 -157.5t48 -234.5q0 -138 -49.5 -252.5t-147.5 -182.5t-236 -68q-146 0 -234 91l-191 -73q-21 -8 -32 -8q-15 0 -15 14v1399q0 16 -15 16l-66 1q-11 1 -11 11q0 6 3 8t11 5l280 80q20 7 29 7q18 0 18 -18v-715q61 66 126 99.5t150 33.5
q111 0 197.5 -56zM704.5 128q64.5 108 64.5 328q0 205 -57.5 308t-155.5 103q-47 0 -95 -25.5t-93 -80.5v-664q64 -77 163 -77q109 0 173.5 108z" />
    <glyph glyph-name="c" unicode="c" horiz-adv-x="920" 
d="M825 810q-41 56 -119.5 88t-186.5 32q-138 0 -242 -67t-160 -180t-56 -248q0 -144 53.5 -247t148 -156t213.5 -53q154 0 256.5 85.5t132.5 238.5v2q0 5 -2.5 8.5t-5.5 4.5q-6 0 -11 -11q-29 -85 -93.5 -127t-157.5 -42q-86 0 -154 48.5t-107 141.5t-39 224
q0 106 25.5 185t71 121.5t105.5 42.5t94 -37t34 -102v-68q0 -62 31.5 -96t88.5 -34q56 0 88.5 33t32.5 87q0 70 -41 126z" />
    </font>
</defs>
</svg>
