<?xml version="1.0" standalone="no"?>
<!DOCTYPE svg PUBLIC "-//W3C//DTD SVG 1.1//EN" "http://www.w3.org/Graphics/SVG/1.1/DTD/svg11.dtd" >
<svg xmlns="http://www.w3.org/2000/svg" xmlns:xlink="http://www.w3.org/1999/xlink" version="1.1">
<metadata>
Created by FontForge 20170731 at Fri Apr  7 12:30:06 2023
 By Aleksey,,,
Copyright (c) 2023 by Fereshte Iranshahi and Reza Bakhtiarifard. All rights reserved.
</metadata>
<defs>
<font id="DoranFaNum-Light" horiz-adv-x="0" >
  <font-face 
    font-family="Doran FaNum Light"
    font-weight="300"
    font-stretch="normal"
    units-per-em="2000"
    panose-1="0 0 4 0 0 0 0 0 0 0"
    ascent="1600"
    descent="-400"
    x-height="890"
    cap-height="1442"
    bbox="-437 -1157 2892 2138"
    underline-thickness="50"
    underline-position="-235"
    unicode-range="U+0020-FFFC"
  />
<missing-glyph horiz-adv-x="1410" 
d="M210 0v1400h990v-1400h-990zM249 52h913v1297h-913v-1297z" />
    <glyph glyph-name="uni0622" unicode="&#x627;&#x653;" horiz-adv-x="415" 
d="M446 1798.5q-92 -65.5 -212 -65.5q-80 0 -145 21.5t-133 55.5q-20 10 -37 17t-25 7q-19 0 -49 -28t-115 -121v12q63 90 96.5 134.5t58.5 66t46 21.5q12 0 27 -6t44 -20q65 -32 121.5 -50.5t132.5 -18.5q114 0 188.5 39t134.5 131h12q-53 -130 -145 -195.5zM227 1501
q0 -20 3 -85t5 -110q11 -212 18 -387t7 -337q0 -161 -9.5 -264t-31.5 -255l-14 -99h-12q2 62 2 111q0 183 -12 468t-28.5 529.5t-27.5 308.5q21 20 46 55t42 65h12z" />
    <glyph glyph-name="uni0623" unicode="&#x627;&#x654;" horiz-adv-x="415" 
d="M308 1802.5q65 10.5 94 24.5v-12q-8 -13 -16 -33t-12 -36q-142 -30 -236 -79.5t-135 -102.5h-13q24 51 68 92.5t104 70.5q-77 9 -118 43.5t-41 90.5q0 59 26.5 113.5t71.5 88.5t96 34q49 0 79.5 -30t30.5 -82q0 -24 -5 -44h-12q-1 47 -26 68t-72 21q-48 0 -87.5 -20.5
t-61.5 -51.5t-22 -63q0 -28 21 -51.5t59 -37.5t87 -14q55 0 120 10.5zM227 1501q0 -20 3 -85t5 -110q11 -212 18 -387t7 -337q0 -161 -9.5 -264t-31.5 -255l-14 -99h-12q2 62 2 111q0 183 -12 468t-28.5 529.5t-27.5 308.5q21 20 46 55t42 65h12z" />
    <glyph glyph-name="uni0625" unicode="&#x627;&#x655;" horiz-adv-x="416" 
d="M236 1403q25 -572 25 -821q0 -167 -10 -273t-33 -260l-12 -85h-12q2 60 2 111q0 191 -12.5 507.5t-29 590t-27.5 337.5q21 21 47.5 57.5t40.5 63.5h12q0 -25 9 -228zM316.5 -439.5q65.5 10.5 93.5 24.5v-12q-9 -13 -16.5 -32.5t-11.5 -36.5q-143 -29 -236.5 -78
t-134.5 -103h-12q23 52 67.5 93.5t106.5 70.5q-78 7 -120 41.5t-42 91.5q0 59 26.5 114t71 89t96.5 34q49 0 80 -30.5t31 -81.5q0 -15 -2.5 -28.5t-3.5 -17.5h-13q-1 49 -25.5 70t-72.5 21t-87 -20.5t-61 -52.5t-22 -64q0 -28 21 -51.5t59 -37.5t86 -14q56 0 121.5 10.5z
" />
    <glyph glyph-name="uniFE89" unicode="&#x64a;&#x654;" horiz-adv-x="1445" 
d="M1237 931q52 -51 52 -143q0 -34 -5 -60h-12q4 72 -48.5 111.5t-149.5 39.5q-115 0 -215.5 -64.5t-160 -155.5t-59.5 -162q0 -79 62 -113t199 -39l150 -6q96 -3 151.5 -24.5t80 -62t24.5 -107.5q0 -163 -81 -289t-231 -196t-352 -70q-160 0 -273 56.5t-171.5 164
t-58.5 259.5q0 207 85 406h15q-30 -67 -50 -164.5t-20 -180.5q0 -129 57.5 -221t168 -140.5t265.5 -48.5q180 0 323 56t223 144.5t80 181.5q0 54 -56 83t-194 34l-151 6q-98 4 -156.5 24.5t-86 64.5t-27.5 119q0 118 67.5 247t178 215t232.5 86q92 0 144 -51zM494 845.5
q65 10.5 94 24.5v-12q-8 -13 -16 -33t-12 -36q-142 -30 -236.5 -79.5t-135.5 -102.5h-12q46 101 172 163q-78 9 -119 43.5t-41 90.5q0 59 27 113.5t71.5 88.5t96.5 34q49 0 79.5 -30t30.5 -82q0 -24 -5 -44h-12q-1 47 -26 68t-72 21q-48 0 -87.5 -20.5t-62 -52t-22.5 -62.5
q0 -28 21 -51.5t59.5 -37.5t87.5 -14q55 0 120 10.5z" />
    <glyph glyph-name="uni06C0" unicode="&#x647;&#x654;" horiz-adv-x="909" 
d="M544 1104q-60 -49 -186 -49q-57 0 -89 6.5t-48.5 17t-35.5 29.5t-33 29v13q26 -12 85 -18.5t127 -6.5q117 0 169.5 22t52.5 63q0 22 -23.5 30.5t-83.5 11.5l-49 3q-61 4 -86 30t-25 76q0 57 29.5 113t83.5 93.5t123 42.5l-18 -73q-90 -7 -145 -45t-55 -94q0 -33 24 -51.5
t81 -22.5l49 -3q61 -3 87 -21t26 -57q0 -90 -60 -139zM386 838q103 -62 181.5 -123.5t140 -158t61.5 -219.5q0 -168 -95.5 -258.5t-269.5 -90.5q-125 0 -195 59t-70 166q0 104 47 220t157 296q-35 20 -73 38q11 21 23.5 57t17.5 58h8q9 -6 67 -44zM595 145q74 26 115 69
t41 93q0 96 -103 204t-290 210q-97 -160 -140 -259.5t-43 -176.5q0 -49 29.5 -86.5t86.5 -58.5t135 -21q95 0 169 26z" />
    <glyph glyph-name="uniFBA5" unicode="&#xfeea;&#x654;" horiz-adv-x="1127" arabic-form="final" 
d="M543 1035q-60 -49 -185 -49q-57 0 -89.5 6.5t-49 16.5t-35.5 29q-13 14 -32 29v12q26 -12 84.5 -18t127.5 -6q221 0 221 85q0 22 -22.5 30t-83.5 12l-49 3q-61 4 -86.5 30t-25.5 76q0 58 29.5 114t83.5 93.5t123 41.5l-18 -73q-89 -7 -144.5 -45t-55.5 -94
q0 -34 23.5 -52.5t82.5 -20.5l49 -3q60 -3 86 -21.5t26 -56.5q0 -90 -60 -139zM891.5 214q79.5 -83 235.5 -83l-24 -131q-164 0 -253.5 91.5t-98.5 272.5h-10q-28 -123 -117.5 -189t-244.5 -66q-116 0 -175 46t-59 130q0 85 51.5 164t172.5 173t341 226q-11 78 -21 125
q20 17 43.5 45t38.5 53h6q17 -133 26 -264.5t9 -333.5q0 -176 79.5 -259zM580.5 265.5q76.5 28.5 116 75t39.5 99.5q0 179 -19 347q-208 -118 -324 -197t-163.5 -133.5t-47.5 -101.5q0 -58 51.5 -88t163.5 -30q107 0 183.5 28.5z" />
    <glyph glyph-name="uniFDFC" unicode="&#x631;&#xfbfe;&#xfe8e;&#x644;" horiz-adv-x="2873" arabic-form="isolated" 
d="M1221 1752q0 -60 8 -262q19 -544 19 -787q0 -221 -11 -370t-35 -264q-13 -141 -89 -249.5t-203.5 -169t-291.5 -60.5q-148 0 -256 56.5t-165.5 164.5t-57.5 259q0 207 85 406h15q-30 -67 -50 -164.5t-20 -180.5q0 -129 56.5 -221t161.5 -140.5t249 -48.5q158 0 288.5 56
t206 155.5t75.5 222.5q-1 146 -17.5 475t-36.5 632t-31 370q20 22 45.5 57.5t41.5 62.5h13zM1875 0h-14q-7 0 -10 1q-115 5 -183 41.5t-100 114t-33 207.5q-3 433 -7 631.5t-11.5 297t-24.5 217.5q21 21 47.5 57.5t40.5 63.5h12q0 -49 5 -132q7 -154 7 -238q0 -150 -6 -432
q-6 -266 -6 -389q0 -116 29.5 -182.5t95.5 -95.5t183 -31q116 1 199.5 19t128 51t44.5 76q0 70 -51.5 172.5t-111.5 172.5q13 16 30 53t28 71h9q7 -20 21 -50q41 -91 67.5 -181.5t26.5 -207.5q0 -151 -100.5 -226.5t-302.5 -80.5h-13zM2700.5 414.5q33.5 -100.5 33.5 -204.5
q0 -170 -79.5 -319t-206 -238t-257.5 -89q-33 0 -65 9.5t-72 26.5q-8 3 -20 8t-28 10v12q165 11 331 96t272.5 207t106.5 235q0 51 -46.5 146.5t-140.5 208.5q13 21 29 55.5t24 61.5h12q73 -125 106.5 -225.5zM1829 -286.5q39 -13.5 39 -47.5q0 -12 -10 -46q-7 -27 -8 -34
h-12q0 24 -32.5 35t-115.5 11q-45 0 -168 -4t-185 -9q9 15 21.5 46t17.5 49q96 6 189 9.5t137 3.5q88 0 127 -13.5z" />
    <glyph glyph-name="uniFE82" unicode="&#xfe8e;&#x653;" horiz-adv-x="556" arabic-form="final" 
d="M473 1798.5q-92 -65.5 -212 -65.5q-80 0 -145 21.5t-133 55.5q-20 10 -37 17t-25 7q-19 0 -49 -28t-115 -121v12q63 90 96.5 134.5t58.5 66t46 21.5q12 0 26 -6t46 -21q63 -31 120 -49.5t133 -18.5q114 0 188.5 39t134.5 131h12q-53 -130 -145 -195.5zM326 34.5
q-76 34.5 -111 113.5t-36 216q-3 368 -7 544t-11 265.5t-22 208.5q21 22 48 58.5t40 62.5h12q0 -32 4 -132q6 -132 6 -237q0 -96 -6 -312q-8 -240 -8 -382q0 -118 30.5 -185t100 -95.5t190.5 -28.5l-24 -131q-130 0 -206 34.5z" />
    <glyph glyph-name="uniFE84" unicode="&#xfe8e;&#x654;" horiz-adv-x="556" arabic-form="final" 
d="M398 1782q-8 -20 -12 -36q-142 -30 -236 -79.5t-135 -102.5h-12q23 51 67 92.5t104 70.5q-77 9 -118 43.5t-41 90.5q0 59 26.5 113.5t71.5 88.5t96 34q49 0 79.5 -30t30.5 -82q0 -24 -5 -44h-12q-1 47 -26 68t-72 21q-48 0 -87.5 -20.5t-61.5 -51.5t-22 -63
q0 -28 21 -51.5t59 -37.5t87 -14q55 0 120 10.5t94 24.5v-12q-8 -13 -16 -33zM265.5 255q30.5 -67 100 -95.5t190.5 -28.5l-24 -131q-130 0 -206 34.5t-111 113.5t-36 216q-3 368 -7 544t-11 265.5t-22 208.5q21 22 48 58.5t40 62.5h12q0 -32 4 -132q6 -132 6 -237
q0 -96 -6 -312q-8 -240 -8 -382q0 -118 30.5 -185z" />
    <glyph glyph-name="uniFE88" unicode="&#xfe8e;&#x655;" horiz-adv-x="560" arabic-form="final" 
d="M330 34.5q-76 34.5 -111 113.5t-37 216q-3 433 -7 631.5t-11.5 297t-24.5 217.5q21 21 47.5 57.5t40.5 63.5h12q0 -49 5 -132q7 -154 7 -238q0 -150 -6 -432q-6 -266 -6 -389q0 -118 30.5 -185t100 -95.5t190.5 -28.5l-24 -131q-130 0 -206 34.5zM451.5 -435.5
q65.5 10.5 93.5 24.5v-12q-9 -13 -16.5 -32.5t-11.5 -36.5q-143 -29 -236.5 -78t-134.5 -103h-12q23 52 67.5 93.5t106.5 70.5q-78 7 -120 41.5t-42 91.5q0 59 26.5 114t71 89t96.5 34q49 0 80 -30.5t31 -81.5q0 -15 -2.5 -28.5t-3.5 -17.5h-13q-1 49 -25.5 70t-72.5 21
t-87 -20.5t-61 -52.5t-22 -64q0 -28 21 -51.5t59 -37.5t86 -14q56 0 121.5 10.5z" />
    <glyph glyph-name="uniFE8A" unicode="&#xfef2;&#x654;" horiz-adv-x="1375" arabic-form="final" 
d="M1351 0q-82 0 -153 3q53 -24 76 -54t23 -74q0 -129 -80 -232.5t-228.5 -163t-346.5 -59.5q-159 0 -272 56.5t-172 164t-59 258.5q0 207 82 402h15q-28 -63 -47.5 -160.5t-19.5 -179.5q0 -128 57.5 -220.5t168 -141t265.5 -48.5q186 0 326.5 47.5t215 117t74.5 132.5
q0 43 -45.5 69.5t-114 41t-187.5 31.5q-107 17 -168.5 28t-118.5 28v12q41 52 64 106q102 -20 256.5 -26.5t412.5 -6.5zM706 530.5q65 10.5 94 24.5v-12q-8 -13 -16 -33t-12 -36q-142 -30 -236.5 -79.5t-135.5 -102.5h-12q46 101 172 163q-78 9 -119 43.5t-41 90.5
q0 59 27 113.5t71.5 88.5t96.5 34q49 0 79.5 -30t30.5 -82q0 -24 -5 -44h-12q-1 47 -26 68t-72 21q-48 0 -87.5 -20.5t-62 -52t-22.5 -62.5q0 -28 21 -51.5t59.5 -37.5t87.5 -14q55 0 120 10.5z" />
    <glyph glyph-name="uniFEF5" unicode="&#xfedf;&#xfe82;" horiz-adv-x="1213" arabic-form="isolated" 
d="M1021.5 924.5q-36.5 -153.5 -114.5 -278.5q115 -168 115 -324q0 -164 -101 -249t-286 -85q-68 0 -122.5 13t-96.5 33t-103 55q-79 45 -119 63v12q235 94 393.5 210t250.5 260q-109 124 -285 256.5t-426 267.5q7 26 11 68t3 75h12q261 -173 438.5 -323t280.5 -284
q102 195 102 459q0 64 -5 168.5t-15 197.5q19 17 43 51t37 61h12q0 -56 5 -138q7 -145 7 -220q0 -195 -36.5 -348.5zM971.5 431q-32.5 77 -100.5 163q-88 -119 -225 -216t-331 -180q99 -43 167 -61t154 -18q117 0 200 22t125.5 61t42.5 89q0 63 -32.5 140zM689 1550.5
q-92 -65.5 -212 -65.5q-81 0 -145 21.5t-134 55.5q-48 24 -61 24q-19 0 -49 -28t-115 -121v12q63 90 96.5 134.5t58.5 66t46 21.5q12 0 27.5 -6t42.5 -20q64 -32 121.5 -50.5t133.5 -18.5q114 0 188.5 39t134.5 131h12q-53 -130 -145 -195.5z" />
    <glyph glyph-name="uniFEF6" unicode="&#xfee0;&#xfe82;" horiz-adv-x="1328" arabic-form="final" 
d="M1041.5 270q34.5 -77 103.5 -108t183 -31l-25 -131q-126 0 -202 38t-113 136.5t-36 280.5h-9q-31 -141 -114 -244t-197 -157t-238 -54q-49 0 -106 16.5t-130 44.5v12q194 12 347.5 60.5t256.5 123.5q-5 251 -168.5 467t-466.5 428q7 28 11 72t3 77h12q13 -15 39.5 -38
t57.5 -48q140 -114 247 -227.5t192 -297.5t85 -424q81 61 124 134t43 146q0 415 -7.5 614t-26.5 353q22 22 47.5 57t39.5 61h13q0 -56 5 -139q7 -152 7 -231q0 -199 -7 -444q-1 -54 -3 -158.5t-2 -173.5q0 -138 34.5 -215zM689 1550.5q-92 -65.5 -212 -65.5q-81 0 -145 21.5
t-134 55.5q-48 24 -61 24q-19 0 -49 -28t-115 -121v12q63 90 96.5 134.5t58.5 66t46 21.5q12 0 27.5 -6t42.5 -20q64 -32 121.5 -50.5t133.5 -18.5q114 0 188.5 39t134.5 131h12q-53 -130 -145 -195.5z" />
    <glyph glyph-name="uniFEF7" unicode="&#xfedf;&#xfe84;" horiz-adv-x="1213" arabic-form="isolated" 
d="M1021.5 924.5q-36.5 -153.5 -114.5 -278.5q115 -168 115 -324q0 -164 -101 -249t-286 -85q-68 0 -122.5 13t-96.5 33t-103 55q-79 45 -119 63v12q235 94 393.5 210t250.5 260q-109 124 -285 256.5t-426 267.5q7 26 11 68t3 75h12q261 -173 438.5 -323t280.5 -284
q102 195 102 459q0 64 -5 168.5t-15 197.5q19 17 43 51t37 61h12q0 -56 5 -138q7 -145 7 -220q0 -195 -36.5 -348.5zM971.5 431q-32.5 77 -100.5 163q-88 -119 -225 -216t-331 -180q99 -43 167 -61t154 -18q117 0 200 22t125.5 61t42.5 89q0 63 -32.5 140zM336 1590.5
q65 10.5 94 24.5v-12q-8 -13 -16 -33t-12 -36q-142 -30 -236.5 -79.5t-135.5 -102.5h-12q46 101 172 163q-78 9 -119 43.5t-41 90.5q0 59 27 113.5t71.5 88.5t96.5 34q49 0 79.5 -30t30.5 -82q0 -24 -5 -44h-12q-1 47 -26 68t-72 21q-48 0 -87.5 -20.5t-62 -52t-22.5 -62.5
q0 -28 21 -51.5t59.5 -37.5t87.5 -14q55 0 120 10.5z" />
    <glyph glyph-name="uniFEF8" unicode="&#xfee0;&#xfe84;" horiz-adv-x="1328" arabic-form="final" 
d="M1041.5 270q34.5 -77 103.5 -108t183 -31l-25 -131q-126 0 -202 38t-113 136.5t-36 280.5h-9q-31 -141 -114 -244t-197 -157t-238 -54q-49 0 -106 16.5t-130 44.5v12q194 12 347.5 60.5t256.5 123.5q-5 251 -168.5 467t-466.5 428q7 28 11 72t3 77h12q13 -15 39.5 -38
t57.5 -48q140 -114 247 -227.5t192 -297.5t85 -424q81 61 124 134t43 146q0 415 -7.5 614t-26.5 353q22 22 47.5 57t39.5 61h13q0 -56 5 -139q7 -152 7 -231q0 -199 -7 -444q-1 -54 -3 -158.5t-2 -173.5q0 -138 34.5 -215zM336 1590.5q65 10.5 94 24.5v-12q-8 -13 -16 -33
t-12 -36q-142 -30 -236.5 -79.5t-135.5 -102.5h-12q46 101 172 163q-78 9 -119 43.5t-41 90.5q0 59 27 113.5t71.5 88.5t96.5 34q49 0 79.5 -30t30.5 -82q0 -24 -5 -44h-12q-1 47 -26 68t-72 21q-48 0 -87.5 -20.5t-62 -52t-22.5 -62.5q0 -28 21 -51.5t59.5 -37.5t87.5 -14
q55 0 120 10.5z" />
    <glyph glyph-name="uniFEF9" unicode="&#xfedf;&#xfe88;" horiz-adv-x="1213" arabic-form="isolated" 
d="M1022 926q-36 -153 -114 -277q114 -180 114 -327q0 -164 -101 -249t-286 -85q-68 0 -122.5 13t-96.5 33t-103 55q-79 45 -119 63v12q239 96 398.5 213.5t249.5 264.5q-108 141 -287 301.5t-428 331.5q7 26 11 70t3 77h12q261 -218 440 -396t282 -327q99 194 99 454
q0 64 -5 168.5t-15 197.5q19 17 43 51t37 61h12q0 -56 5 -138q7 -145 7 -220q0 -194 -36 -347zM874 599q-89 -121 -226.5 -219t-332.5 -182q99 -43 167 -61t154 -18q117 0 200 22t125.5 61t42.5 89q0 124 -130 308zM529.5 -439.5q65.5 10.5 93.5 24.5v-12
q-9 -13 -16.5 -32.5t-11.5 -36.5q-143 -29 -236.5 -78t-134.5 -103h-12q23 52 67.5 93.5t106.5 70.5q-78 7 -120 41.5t-42 91.5q0 59 26.5 114t71 89t96.5 34q49 0 80 -30.5t31 -81.5q0 -15 -2.5 -28.5t-3.5 -17.5h-13q-1 49 -25.5 70t-72.5 21t-87 -20.5t-61 -52.5t-22 -64
q0 -28 21 -51.5t59 -37.5t86 -14q56 0 121.5 10.5z" />
    <glyph glyph-name="uniFEFA" unicode="&#xfee0;&#xfe88;" horiz-adv-x="1328" arabic-form="final" 
d="M1041.5 270q34.5 -77 103.5 -108t183 -31l-25 -131q-126 0 -202 38t-113 136.5t-36 280.5h-9q-31 -141 -114 -244t-197 -157t-238 -54q-49 0 -106 16.5t-130 44.5v12q194 12 347.5 60.5t256.5 123.5q-3 173 -81 351t-219.5 346.5t-334.5 314.5q7 29 11 74.5t3 78.5h12
q19 -21 75 -74q138 -130 250.5 -265t204 -346t91.5 -471q81 61 124 134t43 146q0 415 -7.5 614t-26.5 353q22 22 47.5 57t39.5 61h13q0 -56 5 -139q7 -152 7 -231q0 -199 -7 -444q-1 -54 -3 -158.5t-2 -173.5q0 -138 34.5 -215zM529.5 -439.5q65.5 10.5 93.5 24.5v-12
q-9 -13 -16.5 -32.5t-11.5 -36.5q-143 -29 -236.5 -78t-134.5 -103h-12q23 52 67.5 93.5t106.5 70.5q-78 7 -120 41.5t-42 91.5q0 59 26.5 114t71 89t96.5 34q49 0 80 -30.5t31 -81.5q0 -15 -2.5 -28.5t-3.5 -17.5h-13q-1 49 -25.5 70t-72.5 21t-87 -20.5t-61 -52.5t-22 -64
q0 -28 21 -51.5t59 -37.5t86 -14q56 0 121.5 10.5z" />
    <glyph glyph-name="uniFEFB" unicode="&#xfedf;&#xfe8e;" horiz-adv-x="1213" arabic-form="isolated" 
d="M1022 926q-36 -153 -114 -277q114 -180 114 -327q0 -164 -101 -249t-286 -85q-68 0 -122.5 13t-96.5 33t-103 55q-79 45 -119 63v12q239 96 398.5 213.5t249.5 264.5q-108 141 -287 301.5t-428 331.5q7 26 11 70t3 77h12q261 -218 440 -396t282 -327q99 194 99 454
q0 64 -5 168.5t-15 197.5q19 17 43 51t37 61h12q0 -56 5 -138q7 -145 7 -220q0 -194 -36 -347zM874 599q-89 -121 -226.5 -219t-332.5 -182q99 -43 167 -61t154 -18q117 0 200 22t125.5 61t42.5 89q0 124 -130 308z" />
    <glyph glyph-name="uniFEFC" unicode="&#xfee0;&#xfe8e;" horiz-adv-x="1328" arabic-form="final" 
d="M1041.5 270q34.5 -77 103.5 -108t183 -31l-25 -131q-126 0 -202 38t-113 136.5t-36 280.5h-9q-31 -141 -114 -244t-197 -157t-238 -54q-49 0 -106 16.5t-130 44.5v12q194 12 347.5 60.5t256.5 123.5q-3 173 -81 351t-219.5 346.5t-334.5 314.5q7 29 11 74.5t3 78.5h12
q19 -21 75 -74q138 -130 250.5 -265t204 -346t91.5 -471q81 61 124 134t43 146q0 415 -7.5 614t-26.5 353q22 22 47.5 57t39.5 61h13q0 -56 5 -139q7 -152 7 -231q0 -199 -7 -444q-1 -54 -3 -158.5t-2 -173.5q0 -138 34.5 -215z" />
    <glyph glyph-name="aleffathatanar" unicode="&#x627;&#x64b;" horiz-adv-x="415" 
d="M428 1969l-467 -207l6 44l468 209zM416 1784l-467 -208l6 46l467 208zM230 1416q3 -65 5 -110q11 -212 18 -387t7 -337q0 -161 -9.5 -264t-31.5 -255l-14 -99h-12q2 62 2 111q0 183 -12 468t-28.5 529.5t-27.5 308.5q21 20 46 55t42 65h12q0 -20 3 -85z" />
    <glyph glyph-name="aleffathatanar.fina" unicode="&#xfe8e;&#x64b;" horiz-adv-x="556" 
d="M439 1969l-467 -207l6 44l468 209zM427 1784l-467 -208l6 46l467 208zM326 34.5q-76 34.5 -111 113.5t-36 216q-3 368 -7 544t-11 265.5t-22 208.5q21 22 48 58.5t40 62.5h12q0 -32 4 -132q6 -132 6 -237q0 -96 -6 -312q-8 -240 -8 -382q0 -118 30.5 -185t100 -95.5
t190.5 -28.5l-24 -131q-130 0 -206 34.5z" />
    <glyph glyph-name="uniFEDFFEE0FEEA" unicode="&#xfedf;&#xfee0;&#xfeea;" horiz-adv-x="2543" 
d="M2364 1166q6 -78 7 -97q15 -182 24 -336.5t9 -313.5q0 -103 -28 -197t-79 -151q-35 -34 -88 -52.5t-112 -18.5q-151 0 -225.5 85.5t-77.5 260.5h-10q-32 -132 -103.5 -207.5t-185 -107t-283.5 -31.5q-169 0 -269.5 41t-146 120t-51.5 203h-9q-27 -123 -116.5 -189
t-244.5 -66q-117 0 -176.5 46t-59.5 130q0 79 45 155t168.5 174t352.5 228q-13 90 -22 131q20 17 43.5 45t38.5 53h6q14 -98 20 -182q136 71 198 106t96 63q-10 -18 -19.5 -46.5t-13.5 -47.5q-173 -89 -256 -134q10 -155 10 -345q0 -127 39.5 -203.5t133 -113.5t256.5 -37
q209 0 326.5 36t173.5 122t65 242q32 14 43 21q0 -170 31.5 -261t94.5 -125.5t168 -34.5q68 0 119.5 20.5t79.5 55t28 76.5q0 119 -20.5 300.5t-46 346.5t-38.5 229q20 22 45 57t42 63h12q0 -35 6 -113zM576.5 265.5q76.5 28.5 115.5 75t39 99.5q0 178 -19 344
q-213 -117 -330 -197.5t-161.5 -134t-44.5 -97.5q0 -58 52 -88t165 -30q107 0 183.5 28.5z" />
    <glyph glyph-name="uni0621" unicode="&#x621;" horiz-adv-x="907" arabic-form="isolated" 
d="M584.5 742q51.5 -49 51.5 -130q0 -43 -8 -75h-15q6 78 -41.5 123.5t-132.5 45.5q-71 0 -133.5 -37.5t-100 -95.5t-37.5 -115q0 -48 30.5 -88t88.5 -64t139 -24q73 0 179.5 16.5t162.5 39.5v-13q-13 -17 -25.5 -44t-16.5 -47q-229 -51 -370 -126t-203 -163h-14
q42 84 98.5 142.5t138.5 100.5v12q-117 13 -174 72t-57 146q0 82 42 169.5t113 145.5t153 58q80 0 131.5 -49z" />
    <glyph glyph-name="uni0624" unicode="&#x624;" horiz-adv-x="975" arabic-form="isolated" 
d="M676 637q76 -64 117.5 -193t41.5 -319q0 -176 -83 -324t-219 -234t-287 -86q-32 0 -66.5 10t-84.5 29q-10 3 -34 12t-41 13v12q200 3 384 79t297 196.5t113 249.5q0 62 -6 116q-23 -60 -74 -104.5t-120.5 -69t-146.5 -24.5q-144 0 -214.5 71.5t-70.5 205.5
q0 119 42.5 216t114.5 152.5t158 55.5q103 0 179 -64zM653.5 151.5q85.5 26.5 150.5 75.5q-25 178 -111.5 274.5t-216.5 96.5q-69 0 -132 -35.5t-102 -98.5t-39 -139q0 -86 66 -143t210 -57q89 0 174.5 26.5zM546 1027.5q65 10.5 94 24.5v-12q-8 -13 -16 -33t-12 -36
q-142 -30 -236.5 -79.5t-135.5 -102.5h-12q46 101 172 163q-78 9 -119 43.5t-41 90.5q0 59 27 113.5t71.5 88.5t96.5 34q49 0 79.5 -30t30.5 -82q0 -24 -5 -44h-12q-1 47 -26 68t-72 21q-48 0 -87.5 -20.5t-62 -52t-22.5 -62.5q0 -28 21 -51.5t59.5 -37.5t87.5 -14
q55 0 120 10.5z" />
    <glyph glyph-name="uni0627" unicode="&#x627;" horiz-adv-x="416" arabic-form="isolated" 
d="M236 1403q25 -572 25 -821q0 -167 -10 -273t-33 -260l-12 -85h-12q2 60 2 111q0 191 -12.5 507.5t-29 590t-27.5 337.5q21 21 47.5 57.5t40.5 63.5h12q0 -25 9 -228z" />
    <glyph glyph-name="uni0628" unicode="&#x628;" horiz-adv-x="1818" arabic-form="isolated" 
d="M1590 168q-89 -89 -280.5 -134.5t-497.5 -45.5q-242 0 -390 43.5t-215.5 131t-67.5 223.5t59 291h14q-20 -64 -30 -117t-10 -111q0 -157 154 -243.5t504 -86.5q298 0 483.5 38.5t265.5 94t80 109.5q0 70 -50.5 172.5t-110.5 173.5q13 16 29 52.5t28 70.5h9q3 -11 21 -51
q41 -91 67.5 -181t26.5 -206q0 -135 -89 -224zM813 -389.5q-35 28.5 -59 39.5v12l89 107q32 -13 67.5 -43t53.5 -58l-97 -109q-19 23 -54 51.5z" />
    <glyph glyph-name="uni0629" unicode="&#x629;" horiz-adv-x="909" arabic-form="isolated" 
d="M386 838q103 -62 181.5 -123.5t140 -158t61.5 -219.5q0 -168 -95.5 -258.5t-269.5 -90.5q-125 0 -195 59t-70 166q0 104 47 220t157 296q-35 20 -73 38q11 21 23.5 57t17.5 58h8q9 -6 67 -44zM595 145q74 26 115 69t41 93q0 96 -103 204t-290 210q-97 -160 -140 -259.5
t-43 -176.5q0 -49 29.5 -86.5t86.5 -58.5t135 -21q95 0 169 26zM673.5 1129.5q-12.5 -31.5 -17.5 -48.5q-94 -6 -188 -10t-139 -4q-87 0 -126 13.5t-39 47.5q0 13 10 47q6 22 8 33h12q0 -24 32.5 -35t114.5 -11q45 0 168.5 4t184.5 9q-8 -14 -20.5 -45.5z" />
    <glyph glyph-name="uni062A" unicode="&#x62a;" horiz-adv-x="1818" arabic-form="isolated" 
d="M1590 168q-89 -89 -280.5 -134.5t-497.5 -45.5q-242 0 -390 43.5t-215.5 131t-67.5 223.5t59 291h14q-20 -64 -30 -117t-10 -111q0 -157 154 -243.5t504 -86.5q298 0 483.5 38.5t265.5 94t80 109.5q0 70 -50.5 172.5t-110.5 173.5q13 16 29 52.5t28 70.5h9q3 -11 21 -51
q41 -91 67.5 -181t26.5 -206q0 -135 -89 -224zM1128.5 711.5q-12.5 -31.5 -17.5 -48.5q-94 -6 -188 -10t-139 -4q-87 0 -126 13.5t-39 47.5q0 13 10 47q6 22 8 33h12q0 -24 32.5 -35t114.5 -11q45 0 168.5 4t184.5 9q-8 -14 -20.5 -45.5z" />
    <glyph glyph-name="uni062B" unicode="&#x62b;" horiz-adv-x="1818" arabic-form="isolated" 
d="M1590 168q-89 -89 -280.5 -134.5t-497.5 -45.5q-242 0 -390 43.5t-215.5 131t-67.5 223.5t59 291h14q-20 -64 -30 -117t-10 -111q0 -157 154 -243.5t504 -86.5q298 0 483.5 38.5t265.5 94t80 109.5q0 70 -50.5 172.5t-110.5 173.5q13 16 29 52.5t28 70.5h9q3 -11 21 -51
q41 -91 67.5 -181t26.5 -206q0 -135 -89 -224zM844 879q-33 26 -56 37v12l83 101q32 -13 65 -40t50 -51l-87 -107q-22 22 -55 48zM1128.5 710q-12.5 -30 -17.5 -47q-94 -6 -188 -10t-139 -4q-87 0 -126 13.5t-39 47.5q0 14 10 46q6 20 8 30h12q0 -24 32.5 -35t114.5 -11
q36 0 151.5 4t202.5 9q-9 -13 -21.5 -43z" />
    <glyph glyph-name="uni062C" unicode="&#x62c;" horiz-adv-x="1422" arabic-form="isolated" 
d="M703 -186.5q-35 28.5 -59 39.5v12l89 107q32 -13 67.5 -43t53.5 -58l-97 -109q-19 23 -54 51.5zM584 803.5q69 -20.5 187 -64.5q103 -39 173.5 -62.5t158 -43t179.5 -24.5v-13q-19 -18 -41 -48t-34 -57q-331 -73 -566 -179.5t-358 -235.5t-123 -270q0 -128 76.5 -228
t214 -155.5t313.5 -55.5q124 0 268 15.5t246 39.5v-12l-40 -19q-87 -42 -159.5 -70.5t-170.5 -49.5t-211 -21q-169 0 -295 61t-194.5 173t-68.5 261q0 189 101.5 334.5t313 256t543.5 192.5v11q-90 13 -170 37t-189 64q-115 41 -180.5 59t-130.5 18q-76 0 -128.5 -43
t-91.5 -129h-12q34 105 70 165.5t80 87t106 26.5q64 0 133 -20.5z" />
    <glyph glyph-name="uni062D" unicode="&#x62d;" horiz-adv-x="1422" arabic-form="isolated" 
d="M584 803.5q69 -20.5 187 -64.5q103 -39 173.5 -62.5t158 -43t179.5 -24.5v-13q-19 -18 -41 -48t-34 -57q-331 -73 -566 -179.5t-358 -235.5t-123 -270q0 -128 76.5 -228t214 -155.5t313.5 -55.5q124 0 268 15.5t246 39.5v-12l-40 -19q-87 -42 -159.5 -70.5t-170.5 -49.5
t-211 -21q-169 0 -295 61t-194.5 173t-68.5 261q0 189 101.5 334.5t313 256t543.5 192.5v11q-90 13 -170 37t-189 64q-115 41 -180.5 59t-130.5 18q-76 0 -128.5 -43t-91.5 -129h-12q34 105 70 165.5t80 87t106 26.5q64 0 133 -20.5z" />
    <glyph glyph-name="uni062E" unicode="&#x62e;" horiz-adv-x="1422" arabic-form="isolated" 
d="M584 803.5q69 -20.5 187 -64.5q103 -39 173.5 -62.5t158 -43t179.5 -24.5v-13q-19 -18 -41 -48t-34 -57q-331 -73 -566 -179.5t-358 -235.5t-123 -270q0 -128 76.5 -228t214 -155.5t313.5 -55.5q124 0 268 15.5t246 39.5v-12l-40 -19q-87 -42 -159.5 -70.5t-170.5 -49.5
t-211 -21q-169 0 -295 61t-194.5 173t-68.5 261q0 189 101.5 334.5t313 256t543.5 192.5v11q-90 13 -170 37t-189 64q-115 41 -180.5 59t-130.5 18q-76 0 -128.5 -43t-91.5 -129h-12q34 105 70 165.5t80 87t106 26.5q64 0 133 -20.5zM510.5 1142q-34.5 28 -59.5 40v12
l89 107q33 -14 68 -44t53 -57l-97 -109q-19 23 -53.5 51z" />
    <glyph glyph-name="uni062F" unicode="&#x62f;" horiz-adv-x="986" arabic-form="isolated" 
d="M728.5 80.5q-118.5 -92.5 -339.5 -92.5q-270 0 -270 236q0 70 15 155h16q-2 -36 -2 -50q0 -74 24 -119.5t78 -68t146 -22.5q132 0 230 27.5t149.5 73t51.5 96.5q0 66 -48 158.5t-140 197.5t-219 205q11 27 22 61.5t14 53.5h12q8 -11 45 -44q83 -77 152 -156.5t125.5 -196
t56.5 -249.5q0 -173 -118.5 -265.5z" />
    <glyph glyph-name="uni0630" unicode="&#x630;" horiz-adv-x="986" arabic-form="isolated" 
d="M728.5 80.5q-118.5 -92.5 -339.5 -92.5q-270 0 -270 236q0 70 15 155h16q-2 -36 -2 -50q0 -74 24 -119.5t78 -68t146 -22.5q132 0 230 27.5t149.5 73t51.5 96.5q0 66 -48 158.5t-140 197.5t-219 205q11 27 22 61.5t14 53.5h12q8 -11 45 -44q83 -77 152 -156.5t125.5 -196
t56.5 -249.5q0 -173 -118.5 -265.5zM424.5 1294q-34.5 28 -59.5 40v12l89 107q33 -14 68 -44t53 -57l-97 -109q-19 23 -53.5 51z" />
    <glyph glyph-name="uni0631" unicode="&#x631;" horiz-adv-x="776" arabic-form="isolated" 
d="M29 -509.5q-32 9.5 -72 26.5q-8 3 -20 8t-28 10v12q165 11 331 96t272.5 207t106.5 235q0 51 -47 147t-140 208q13 21 29 56t24 62h12q73 -126 106.5 -226t33.5 -204q0 -170 -79.5 -319.5t-206 -238.5t-257.5 -89q-33 0 -65 9.5z" />
    <glyph glyph-name="uni0632" unicode="&#x632;" horiz-adv-x="776" arabic-form="isolated" 
d="M29 -509.5q-32 9.5 -72 26.5q-8 3 -20 8t-28 10v12q165 11 331 96t272.5 207t106.5 235q0 51 -47 147t-140 208q13 21 29 56t24 62h12q73 -126 106.5 -226t33.5 -204q0 -170 -79.5 -319.5t-206 -238.5t-257.5 -89q-33 0 -65 9.5zM419.5 857q-34.5 28 -59.5 40v12l89 107
q33 -14 68 -44t53 -57l-97 -109q-19 23 -53.5 51z" />
    <glyph glyph-name="uni0633" unicode="&#x633;" horiz-adv-x="2396" arabic-form="isolated" 
d="M2172 665q37 -92 61 -179t24 -192q0 -139 -67.5 -216.5t-186.5 -77.5q-61 0 -108.5 24t-75 67t-28.5 97h-13q-31 -93 -100.5 -140.5t-171.5 -47.5q-68 0 -120.5 30t-85.5 87v-26q0 -189 -81.5 -329.5t-230.5 -216.5t-346 -76q-160 0 -272.5 56.5t-171.5 163.5t-59 258
q0 209 85 408h15q-30 -67 -50 -164.5t-20 -180.5q0 -129 57.5 -221t168 -140.5t265.5 -48.5q180 0 321.5 60.5t220 165.5t78.5 235q0 52 -33 141.5t-110 252.5q11 17 25 49.5t22 59.5h13q49 -167 96 -260.5t102 -133t132 -39.5q92 0 151 31t92.5 98.5t47.5 179.5h15
q-12 -108 -28 -195q29 -56 85 -85t128 -29q59 0 109.5 18.5t80.5 49t30 65.5q0 40 -18 98.5t-52 120t-77 109.5q14 20 29 53.5t26 67.5h8z" />
    <glyph glyph-name="uni0634" unicode="&#x634;" horiz-adv-x="2396" arabic-form="isolated" 
d="M2172 665q37 -92 61 -179t24 -192q0 -139 -67.5 -216.5t-186.5 -77.5q-61 0 -108.5 24t-75 67t-28.5 97h-13q-31 -93 -100.5 -140.5t-171.5 -47.5q-68 0 -120.5 30t-85.5 87v-26q0 -189 -81.5 -329.5t-230.5 -216.5t-346 -76q-160 0 -272.5 56.5t-171.5 163.5t-59 258
q0 209 85 408h15q-30 -67 -50 -164.5t-20 -180.5q0 -129 57.5 -221t168 -140.5t265.5 -48.5q180 0 321.5 60.5t220 165.5t78.5 235q0 52 -33 141.5t-110 252.5q11 17 25 49.5t22 59.5h13q49 -167 96 -260.5t102 -133t132 -39.5q92 0 151 31t92.5 98.5t47.5 179.5h15
q-12 -108 -28 -195q29 -56 85 -85t128 -29q59 0 109.5 18.5t80.5 49t30 65.5q0 40 -18 98.5t-52 120t-77 109.5q14 20 29 53.5t26 67.5h8zM1664 1006q-33 26 -56 37v12l83 101q32 -13 65 -40t50 -51l-87 -107q-22 22 -55 48zM1948.5 837q-12.5 -30 -17.5 -47
q-94 -6 -188 -10t-139 -4q-87 0 -126 13.5t-39 47.5q0 14 10 46q6 20 8 30h12q0 -24 32.5 -35t114.5 -11q36 0 151.5 4t202.5 9q-9 -13 -21.5 -43z" />
    <glyph glyph-name="uni0635" unicode="&#x635;" horiz-adv-x="2430" arabic-form="isolated" 
d="M2155.5 710.5q65.5 -39.5 100.5 -112t35 -167.5q0 -133 -72 -230t-209 -149t-329 -52q-125 0 -227 38t-156 110q2 -30 2 -57q0 -189 -81.5 -329.5t-230.5 -216.5t-346 -76q-160 0 -272.5 56.5t-171.5 163.5t-59 258q0 209 85 408h15q-30 -67 -50 -164.5t-20 -180.5
q0 -129 57.5 -221t168 -140.5t265.5 -48.5q180 0 321.5 60.5t220 165.5t78.5 235q0 52 -33 141.5t-110 252.5q11 17 25 49.5t22 59.5h13q37 -127 82 -210t104 -133q153 261 310.5 395t306.5 134q90 0 155.5 -39.5zM2007 163.5q127 32.5 194 88t67 124.5q0 72 -37 132.5
t-104.5 96t-154.5 35.5q-93 0 -197.5 -55t-203.5 -152t-176 -221q57 -43 132.5 -62t178.5 -19q174 0 301 32.5z" />
    <glyph glyph-name="uni0636" unicode="&#x636;" horiz-adv-x="2430" arabic-form="isolated" 
d="M2155.5 710.5q65.5 -39.5 100.5 -112t35 -167.5q0 -133 -72 -230t-209 -149t-329 -52q-125 0 -227 38t-156 110q2 -30 2 -57q0 -189 -81.5 -329.5t-230.5 -216.5t-346 -76q-160 0 -272.5 56.5t-171.5 163.5t-59 258q0 209 85 408h15q-30 -67 -50 -164.5t-20 -180.5
q0 -129 57.5 -221t168 -140.5t265.5 -48.5q180 0 321.5 60.5t220 165.5t78.5 235q0 52 -33 141.5t-110 252.5q11 17 25 49.5t22 59.5h13q37 -127 82 -210t104 -133q153 261 310.5 395t306.5 134q90 0 155.5 -39.5zM2007 163.5q127 32.5 194 88t67 124.5q0 72 -37 132.5
t-104.5 96t-154.5 35.5q-93 0 -197.5 -55t-203.5 -152t-176 -221q57 -43 132.5 -62t178.5 -19q174 0 301 32.5zM1886.5 1058q-34.5 28 -59.5 40v12l89 107q33 -14 68 -44t53 -57l-97 -109q-19 23 -53.5 51z" />
    <glyph glyph-name="uni0637" unicode="&#x637;" horiz-adv-x="1429" arabic-form="isolated" 
d="M1153.5 710.5q65.5 -39.5 100.5 -112t35 -167.5q0 -133 -72 -230t-209 -149t-329 -52q-157 0 -251.5 18t-146.5 46t-118 79l-44 33v12q101 -25 204 -37q80 132 120.5 226.5t56.5 186.5t16 219q0 104 -17 384.5t-27 342.5q21 23 46.5 58.5t40.5 62.5h12q0 -49 9 -261
q15 -347 15 -469t-16 -215.5t-57.5 -192t-120.5 -228.5h12q156 250 298 367.5t287 117.5q90 0 155.5 -39.5zM1005 163.5q127 32.5 194 88t67 124.5q0 72 -37 132.5t-104.5 96t-154.5 35.5q-100 0 -208.5 -60.5t-213.5 -171.5t-195 -261q144 -16 351 -16q174 0 301 32.5z" />
    <glyph glyph-name="uni0638" unicode="&#x638;" horiz-adv-x="1429" arabic-form="isolated" 
d="M1153.5 710.5q65.5 -39.5 100.5 -112t35 -167.5q0 -133 -72 -230t-209 -149t-329 -52q-157 0 -251.5 18t-146.5 46t-118 79l-44 33v12q101 -25 204 -37q80 132 120.5 226.5t56.5 186.5t16 219q0 104 -17 384.5t-27 342.5q21 23 46.5 58.5t40.5 62.5h12q0 -49 9 -261
q15 -347 15 -469t-16 -215.5t-57.5 -192t-120.5 -228.5h12q156 250 298 367.5t287 117.5q90 0 155.5 -39.5zM1005 163.5q127 32.5 194 88t67 124.5q0 72 -37 132.5t-104.5 96t-154.5 35.5q-100 0 -208.5 -60.5t-213.5 -171.5t-195 -261q144 -16 351 -16q174 0 301 32.5z
M921.5 1058q-34.5 28 -59.5 40v12l89 107q33 -14 68 -44t53 -57l-97 -109q-19 23 -53.5 51z" />
    <glyph glyph-name="uniFEC9" unicode="&#x639;" horiz-adv-x="1330" arabic-form="isolated" 
d="M987.5 -619q133.5 14 233.5 37v-12q-90 -47 -159.5 -77.5t-169.5 -54.5t-217 -24q-163 0 -284 52t-186.5 151t-65.5 237q0 197 110 348.5t331 253.5q-180 4 -271 86t-91 224q0 125 57 226.5t150 159t196 57.5q113 0 174.5 -55t61.5 -145q0 -26 -6 -55h-12
q0 68 -60.5 109.5t-172.5 41.5q-89 0 -173.5 -39.5t-137.5 -107t-53 -146.5q0 -74 44 -133t127.5 -93.5t195.5 -34.5q98 0 225 22t219 56l4 -8q-15 -15 -37.5 -54.5t-37.5 -73.5q-279 -52 -464.5 -150.5t-271.5 -212t-86 -217.5q0 -118 70 -204.5t199.5 -132t306.5 -45.5
q118 0 251.5 14z" />
    <glyph glyph-name="uni063A" unicode="&#x63a;" horiz-adv-x="1330" arabic-form="isolated" 
d="M987.5 -619q133.5 14 233.5 37v-12q-90 -47 -159.5 -77.5t-169.5 -54.5t-217 -24q-163 0 -284 52t-186.5 151t-65.5 237q0 197 110 348.5t331 253.5q-180 4 -271 86t-91 224q0 125 57 226.5t150 159t196 57.5q113 0 174.5 -55t61.5 -145q0 -26 -6 -55h-12
q0 68 -60.5 109.5t-172.5 41.5q-89 0 -173.5 -39.5t-137.5 -107t-53 -146.5q0 -74 44 -133t127.5 -93.5t195.5 -34.5q98 0 225 22t219 56l4 -8q-15 -15 -37.5 -54.5t-37.5 -73.5q-279 -52 -464.5 -150.5t-271.5 -212t-86 -217.5q0 -118 70 -204.5t199.5 -132t306.5 -45.5
q118 0 251.5 14zM521.5 1349q-34.5 28 -59.5 40v12l89 107q33 -14 68 -44t53 -57l-97 -109q-19 23 -53.5 51z" />
    <glyph glyph-name="uni0641" unicode="&#x641;" horiz-adv-x="1927" arabic-form="isolated" 
d="M1630.5 983q75.5 -64 116.5 -194t41 -323q0 -170 -88 -273.5t-300.5 -154t-587.5 -50.5q-242 0 -390 43.5t-215.5 131t-67.5 223.5t59 291h14q-20 -64 -30 -117t-10 -111q0 -157 154 -243.5t504 -86.5q345 0 553.5 42.5t296 111.5t88.5 155q2 87 -9 161l-3 -1
q-35 -90 -129 -143t-211 -53q-139 0 -205 66t-66 185q0 111 40.5 203.5t110.5 146.5t156 54q103 0 178.5 -64zM1613 531.5q87 28.5 142 77.5q-28 161 -114.5 249t-210.5 88q-67 0 -128 -34.5t-98.5 -93.5t-37.5 -127q0 -48 25.5 -90.5t85.5 -70t157 -27.5q92 0 179 28.5z
M1374.5 1391q-34.5 28 -59.5 40v12l89 107q33 -14 68 -44t53 -57l-97 -109q-19 23 -53.5 51z" />
    <glyph glyph-name="uni0642" unicode="&#x642;" horiz-adv-x="1440" arabic-form="isolated" 
d="M1212.5 669q88.5 -153 88.5 -481q0 -185 -81.5 -323t-230.5 -212.5t-347 -74.5q-159 0 -272 56.5t-172 164t-59 258.5q0 204 85 407h16q-30 -66 -50 -163.5t-20 -181.5q0 -129 57.5 -221t168 -140.5t265.5 -48.5q179 0 321 59.5t221 162t79 224.5q0 87 -9 159
q-36 -88 -130 -140.5t-210 -52.5q-144 0 -214.5 71.5t-70.5 205.5q0 118 43 215.5t115.5 153t157.5 55.5q160 0 248.5 -153zM1118 272.5q85 26.5 151 74.5q-29 186 -114 279t-212 93q-69 0 -132 -35.5t-102 -98.5t-39 -139q0 -87 65.5 -143.5t209.5 -56.5q88 0 173 26.5z
M1197.5 1153.5q-12.5 -31.5 -17.5 -48.5q-94 -6 -188 -10t-139 -4q-87 0 -126 13.5t-39 47.5q0 13 10 47q6 22 8 33h12q0 -24 32.5 -35t114.5 -11q45 0 168.5 4t184.5 9q-8 -14 -20.5 -45.5z" />
    <glyph glyph-name="uni0643" unicode="&#x643;" horiz-adv-x="1748" arabic-form="isolated" 
d="M1444.5 167q-85.5 -92 -256.5 -135.5t-434 -43.5q-319 0 -467 98t-148 300q0 138 57 291h16q-20 -63 -30.5 -116.5t-10.5 -111.5q0 -155 145 -242.5t456 -87.5q267 0 432.5 38t236.5 96.5t71 122.5q0 79 -76 173.5t-222.5 197.5t-352.5 205q35 87 53 149q7 22 19 33
t39 24l857 382l10 -6q-19 -32 -34 -67t-23 -63l-867 -352v-12q231 -121 365.5 -226t192 -203t57.5 -205q0 -147 -85.5 -239z" />
    <glyph glyph-name="uni0644" unicode="&#x644;" horiz-adv-x="1403" arabic-form="isolated" 
d="M1237 333q-11 -149 -35 -264q-13 -141 -89 -249.5t-203.5 -169t-291.5 -60.5q-148 0 -256 56.5t-165.5 164.5t-57.5 259q0 207 85 406h15q-30 -67 -50 -164.5t-20 -180.5q0 -129 56.5 -221t161.5 -140.5t249 -48.5q158 0 288.5 56t206 155.5t75.5 222.5q-1 146 -17.5 475
t-36.5 632t-31 370q20 22 45.5 57.5t41.5 62.5h13q0 -60 8 -262q19 -544 19 -787q0 -221 -11 -370z" />
    <glyph glyph-name="uni0645" unicode="&#x645;" horiz-adv-x="1164" arabic-form="isolated" 
d="M889 683.5q66 -53.5 100.5 -148t34.5 -216.5q0 -142 -59 -212.5t-165 -70.5q-103 0 -183 14t-168 37q-70 20 -97 20q-72 0 -115 -61t-43 -161q0 -552 12 -673q-29 -29 -53 -85h-10q5 25 5 96q0 64 -3 169q-6 228 -6 462q0 173 60.5 275.5t170.5 109.5q46 245 136.5 371.5
t226.5 126.5q90 0 156 -53.5zM964 203.5q42 35.5 42 100.5q0 86 -36 161.5t-102.5 122t-154.5 46.5q-120 0 -204 -101.5t-123 -293.5l28 -7q93 -26 199 -45t233 -19q76 0 118 35.5z" />
    <glyph glyph-name="uni0646" unicode="&#x646;" horiz-adv-x="1440" arabic-form="isolated" 
d="M1219.5 -117q-81.5 -141 -230.5 -217t-347 -76q-160 0 -272.5 56.5t-171.5 164.5t-59 259q0 203 85 406h16q-30 -66 -50 -163.5t-20 -181.5q0 -129 57.5 -221t168 -140.5t265.5 -48.5q180 0 321 60.5t219.5 165.5t78.5 235q0 77 -38 170.5t-120 217.5q13 21 29 55.5
t24 61.5h12q3 -7 7 -16.5t8 -20.5q41 -95 70 -198t29 -239q0 -189 -81.5 -330zM628.5 463q-34.5 28 -59.5 40v12l89 107q33 -14 68 -44t53 -57l-97 -109q-19 23 -53.5 51z" />
    <glyph glyph-name="uniFEE9" unicode="&#x647;" horiz-adv-x="909" arabic-form="isolated" 
d="M386 838q103 -62 181.5 -123.5t140 -158t61.5 -219.5q0 -168 -95.5 -258.5t-269.5 -90.5q-125 0 -195 59t-70 166q0 104 47 220t157 296q-35 20 -73 38q11 21 23.5 57t17.5 58h8q9 -6 67 -44zM595 145q74 26 115 69t41 93q0 96 -103 204t-290 210q-97 -160 -140 -259.5
t-43 -176.5q0 -49 29.5 -86.5t86.5 -58.5t135 -21q95 0 169 26z" />
    <glyph glyph-name="uni0648" unicode="&#x648;" horiz-adv-x="975" arabic-form="isolated" 
d="M676 637q76 -64 117.5 -193t41.5 -319q0 -176 -83 -324t-219 -234t-287 -86q-32 0 -66.5 10t-84.5 29q-10 3 -34 12t-41 13v12q200 3 384 79t297 196.5t113 249.5q0 62 -6 116q-23 -60 -74 -104.5t-120.5 -69t-146.5 -24.5q-144 0 -214.5 71.5t-70.5 205.5
q0 119 42.5 216t114.5 152.5t158 55.5q103 0 179 -64zM653.5 151.5q85.5 26.5 150.5 75.5q-25 178 -111.5 274.5t-216.5 96.5q-69 0 -132 -35.5t-102 -98.5t-39 -139q0 -86 66 -143t210 -57q89 0 174.5 26.5z" />
    <glyph glyph-name="uni0649" unicode="&#x649;" horiz-adv-x="1445" arabic-form="isolated" 
d="M1237 931q52 -51 52 -143q0 -34 -5 -60h-12q4 72 -48.5 111.5t-149.5 39.5q-115 0 -215.5 -64.5t-160 -155.5t-59.5 -162q0 -79 62 -113t199 -39l150 -6q96 -3 151.5 -24.5t80 -62t24.5 -107.5q0 -163 -81 -289t-231 -196t-352 -70q-160 0 -273 56.5t-171.5 164
t-58.5 259.5q0 207 85 406h15q-30 -67 -50 -164.5t-20 -180.5q0 -129 57.5 -221t168 -140.5t265.5 -48.5q180 0 323 56t223 144.5t80 181.5q0 54 -56 83t-194 34l-151 6q-98 4 -156.5 24.5t-86 64.5t-27.5 119q0 118 67.5 247t178 215t232.5 86q92 0 144 -51z" />
    <glyph glyph-name="uniFEF1" unicode="&#x64a;" horiz-adv-x="1445" arabic-form="isolated" 
d="M1237 931q52 -51 52 -143q0 -34 -5 -60h-12q4 72 -48.5 111.5t-149.5 39.5q-115 0 -215.5 -64.5t-160 -155.5t-59.5 -162q0 -79 62 -113t199 -39l150 -6q96 -3 151.5 -24.5t80 -62t24.5 -107.5q0 -163 -81 -289t-231 -196t-352 -70q-160 0 -273 56.5t-171.5 164
t-58.5 259.5q0 207 85 406h15q-30 -67 -50 -164.5t-20 -180.5q0 -129 57.5 -221t168 -140.5t265.5 -48.5q180 0 323 56t223 144.5t80 181.5q0 54 -56 83t-194 34l-151 6q-98 4 -156.5 24.5t-86 64.5t-27.5 119q0 118 67.5 247t178 215t232.5 86q92 0 144 -51z" />
    <glyph glyph-name="uni066E.fina" unicode="&#x66e;" horiz-adv-x="1961" 
d="M1739 64.5q-60 64.5 -60 206.5q0 53 7 109h-11q-61 -198 -284 -295t-579 -97q-242 0 -390 43.5t-215.5 131t-67.5 223.5t59 291h14q-20 -64 -30 -117t-10 -111q0 -157 154 -243.5t504 -86.5q371 0 589.5 86.5t283.5 264.5h14q-10 -82 -10 -121q0 -108 56 -163t198 -55
l-24 -131q-138 0 -198 64.5z" />
    <glyph glyph-name="uni066F.fina" unicode="&#x66f;" horiz-adv-x="1442" 
d="M1418 0h-120q-14 -166 -99 -288.5t-228 -188.5t-329 -66q-160 0 -272.5 56.5t-171.5 163.5t-59 258q0 204 85 408h16q-30 -66 -50 -164t-20 -181q0 -129 57.5 -221.5t168 -141t265.5 -48.5q176 0 316 57.5t220 156.5t85 219q-99 -11 -179 -15.5t-170 -4.5
q-144 0 -214.5 71.5t-70.5 205.5q0 118 43 215.5t115.5 153t157.5 55.5q152 0 239.5 -137.5t96.5 -432.5h142zM735.5 181.5q65.5 -56.5 209.5 -56.5q194 0 334 2q-15 235 -103.5 353t-232.5 118q-69 0 -132 -35.5t-102 -98.5t-39 -139q0 -87 65.5 -143.5z" />
    <glyph glyph-name="uni0671" unicode="&#x671;" horiz-adv-x="415" arabic-form="isolated" 
d="M399 1895q32 -32 32 -89q0 -74 -60.5 -114.5t-161.5 -40.5q-122 0 -162 81q-17 -21 -56 -51.5t-64 -41.5l5 44q31 19 66.5 48.5t55.5 56.5h10q9 -34 35 -54q58 101 110.5 147t108.5 46q49 0 81 -32zM361 1727q53 22 53 59t-28.5 63t-77.5 26q-54 0 -102 -37.5t-92 -113.5
q36 -19 100 -19q94 0 147 22zM227 1501q0 -20 3 -85t5 -110q11 -212 18 -387t7 -337q0 -161 -9.5 -264t-31.5 -255l-14 -99h-12q2 62 2 111q0 183 -12 468t-28.5 529.5t-27.5 308.5q21 20 46 55t42 65h12z" />
    <glyph glyph-name="uni067E" unicode="&#x67e;" horiz-adv-x="1818" arabic-form="isolated" 
d="M1590 168q-89 -89 -280.5 -134.5t-497.5 -45.5q-242 0 -390 43.5t-215.5 131t-67.5 223.5t59 291h14q-20 -64 -30 -117t-10 -111q0 -157 154 -243.5t504 -86.5q298 0 483.5 38.5t265.5 94t80 109.5q0 70 -50.5 172.5t-110.5 173.5q13 16 29 52.5t28 70.5h9q3 -11 21 -51
q41 -91 67.5 -181t26.5 -206q0 -135 -89 -224zM609.5 -316q12.5 30 17.5 47q94 6 188 10t139 4q87 0 126 -13.5t39 -47.5q0 -14 -10 -46q-6 -20 -8 -30h-12q0 24 -32.5 35t-114.5 11q-36 0 -151.5 -4t-202.5 -9q9 13 21.5 43zM802.5 -573q-33.5 26 -56.5 38v12l82 101
q32 -13 64.5 -40t51.5 -51l-89 -106q-19 20 -52.5 46z" />
    <glyph glyph-name="uni0686" unicode="&#x686;" horiz-adv-x="1422" arabic-form="isolated" 
d="M584 803.5q69 -20.5 187 -64.5q103 -39 173.5 -62.5t158 -43t179.5 -24.5v-13q-19 -18 -41 -48t-34 -57q-331 -73 -566 -179.5t-358 -235.5t-123 -270q0 -128 76.5 -228t214 -155.5t313.5 -55.5q124 0 268 15.5t246 39.5v-12l-40 -19q-87 -42 -159.5 -70.5t-170.5 -49.5
t-211 -21q-169 0 -295 61t-194.5 173t-68.5 261q0 189 101.5 334.5t313 256t543.5 192.5v11q-90 13 -170 37t-189 64q-115 41 -180.5 59t-130.5 18q-76 0 -128.5 -43t-91.5 -129h-12q34 105 70 165.5t80 87t106 26.5q64 0 133 -20.5zM694.5 -101.5q120.5 4.5 159.5 4.5
q80 0 112 -11t32 -34h12l7 28q10 32 10 46q0 32 -38 45.5t-123 13.5q-44 0 -135.5 -4t-182.5 -10q-4 -16 -16.5 -44.5t-20.5 -42.5q63 4 183.5 8.5zM806.5 -210q-31.5 26 -62.5 38l-79 -97v-13q22 -11 54 -35.5t51 -44.5l86 102q-18 24 -49.5 50z" />
    <glyph glyph-name="uni0695.fina" unicode="&#x695;" horiz-adv-x="873" 
d="M607 297.5q51 -91.5 113 -129t153 -37.5l-24 -131q-68 0 -119 19t-94 63q-10 -159 -91.5 -298t-204 -221t-246.5 -82q-33 0 -65 9.5t-72 26.5q-8 3 -20 8t-28 10v12q166 10 332 96t272.5 211t107.5 245q-44 49 -85.5 132.5t-91.5 216.5q11 17 25 49.5t22 60.5h13
q52 -169 103 -260.5zM437 -754q4 -17 8 -26q-73 -95 -110 -186t-45 -189l-13 -2q-8 110 -53 197t-130 166q15 24 25 55h12q12 -17 36 -47q49 -60 80.5 -117.5t43.5 -144.5h7q8 69 22 117t30 79.5t42 74.5q16 26 29 49h12q0 -9 4 -26z" />
    <glyph glyph-name="uni0698" unicode="&#x698;" horiz-adv-x="776" arabic-form="isolated" 
d="M29 -509.5q-32 9.5 -72 26.5q-8 3 -20 8t-28 10v12q165 11 331 96t272.5 207t106.5 235q0 51 -47 147t-140 208q13 21 29 56t24 62h12q73 -126 106.5 -226t33.5 -204q0 -170 -79.5 -319.5t-206 -238.5t-257.5 -89q-33 0 -65 9.5zM422 1060q-33 26 -56 37v12l83 101
q32 -13 65 -40t50 -51l-87 -107q-22 22 -55 48zM706.5 891q-12.5 -30 -17.5 -47q-94 -6 -188 -10t-139 -4q-87 0 -126 13.5t-39 47.5q0 14 10 46q6 20 8 30h12q0 -24 32.5 -35t114.5 -11q36 0 151.5 4t202.5 9q-9 -13 -21.5 -43z" />
    <glyph glyph-name="uni06A0.init" unicode="&#x6a0;" horiz-adv-x="1079" 
d="M940 298q-15 -16 -40.5 -56.5t-40.5 -72.5q-83 -18 -170.5 -40.5t-117.5 -30.5q-133 -35 -215.5 -54t-178 -31.5t-201.5 -12.5q-23 0 -33 13t-10 36q0 41 15.5 61.5t51.5 20.5q162 0 329 30q-112 24 -170.5 98t-58.5 184q0 125 57 226t150 158.5t196 57.5
q113 0 174.5 -55t61.5 -144q0 -26 -6 -55h-12q0 68 -60.5 109.5t-172.5 41.5q-89 0 -173.5 -39.5t-137.5 -107t-53 -146.5q0 -73 44.5 -132.5t127.5 -94t195 -34.5q99 0 226 22.5t219 56.5zM426 1379q-33 26 -56 37v12l83 101q32 -13 65 -40t50 -51l-87 -107q-22 22 -55 48z
M710.5 1210q-12.5 -30 -17.5 -47q-94 -6 -188 -10t-139 -4q-87 0 -126 13.5t-39 47.5q0 14 10 46q6 20 8 30h12q0 -24 32.5 -35t114.5 -11q36 0 151.5 4t202.5 9q-9 -13 -21.5 -43z" />
    <glyph glyph-name="uni06A0.medi" unicode="&#x6a0;" horiz-adv-x="1158" 
d="M1158 131l-25 -131h-44q-135 0 -228.5 15.5t-164 52.5t-128.5 104q-145 -96 -277.5 -134t-314.5 -38q-23 0 -33 13t-10 36q0 41 15.5 61.5t51.5 20.5q168 0 286.5 22.5t220.5 72.5q-74 92 -164 199.5t-153 175.5q-57 -21 -99 -43l-12 12q8 15 21.5 46.5t18.5 49.5
q101 50 244.5 83t258.5 33q116 0 219 -21.5t217 -69.5q-21 -32 -42 -91q-81 -98 -171 -186.5t-207 -186.5q71 -53 177.5 -74.5t293.5 -21.5h49zM407.5 660q-107.5 -19 -203.5 -53q186 -164 366 -347q102 62 206 146.5t224 201.5q-178 71 -388 71q-97 0 -204.5 -19zM535 1370
q-33 26 -56 37v12l83 101q32 -13 65 -40t50 -51l-87 -107q-22 22 -55 48zM819.5 1201q-12.5 -30 -17.5 -47q-94 -6 -188 -10t-139 -4q-87 0 -126 13.5t-39 47.5q0 14 10 46q6 20 8 30h12q0 -24 32.5 -35t114.5 -11q36 0 151.5 4t202.5 9q-9 -13 -21.5 -43z" />
    <glyph glyph-name="uni06A0.fina" unicode="&#x6a0;" horiz-adv-x="1267" 
d="M262.5 -451.5q69.5 -88.5 199.5 -135t307 -46.5q119 0 252.5 14t232.5 37v-12q-90 -47 -159.5 -77.5t-169 -54.5t-216.5 -24q-164 0 -285 52.5t-186 154t-65 245.5q0 115 35.5 211t115.5 189t216 196q-52 71 -135.5 170t-155.5 179q-57 -21 -98 -43l-12 12q8 14 21.5 46
t17.5 50q103 50 246.5 83t256.5 33q115 0 217.5 -21.5t219.5 -69.5q-10 -15 -22 -40t-20 -51q-84 -101 -176 -191t-209 -188q61 -56 126.5 -84.5t157.5 -40t243 -11.5h48l-24 -131h-46q-164 0 -263.5 18.5t-177 69t-158.5 151.5q-208 -127 -306 -243.5t-98 -233.5
q0 -125 69.5 -213.5zM467.5 705.5q-107.5 -19.5 -203.5 -53.5q184 -162 365 -346q103 62 207 146t223 200q-176 73 -387 73q-97 0 -204.5 -19.5zM585 1370q-33 26 -56 37v12l83 101q32 -13 65 -40t50 -51l-87 -107q-22 22 -55 48zM869.5 1201q-12.5 -30 -17.5 -47
q-94 -6 -188 -10t-139 -4q-87 0 -126 13.5t-39 47.5q0 14 10 46q6 20 8 30h12q0 -24 32.5 -35t114.5 -11q36 0 151.5 4t202.5 9q-9 -13 -21.5 -43z" />
    <glyph glyph-name="uni06A1.init" unicode="&#x6a1;" horiz-adv-x="883" 
d="M585.5 983q75.5 -64 116.5 -194.5t41 -324.5q0 -165 -74.5 -266.5t-234.5 -149.5t-422 -48h-36q-23 0 -33 12.5t-10 36.5q0 82 67 82h37q348 0 517.5 77t169.5 220q2 90 -10 161l-2 -1q-35 -90 -129.5 -143t-212.5 -53q-138 0 -203.5 66t-65.5 185q0 111 39.5 203.5
t109.5 146.5t156 54q104 0 179.5 -64zM568 531.5q87 28.5 143 76.5q-30 161 -116 249.5t-209 88.5q-68 0 -129 -34.5t-98.5 -93.5t-37.5 -127q0 -48 25.5 -90.5t85 -70t156.5 -27.5q93 0 180 28.5z" />
    <glyph glyph-name="uni06A1.medi" unicode="&#x6a1;" horiz-adv-x="873" 
d="M849 0q-195 0 -296.5 22t-153.5 69q-65 -47 -169 -69t-254 -22q-23 0 -33 12.5t-10 36.5q0 82 67 82q89 0 156 5.5t126 17.5q-68 42 -105 103t-37 131q0 110 49.5 202t127.5 145t160 53q79 0 143 -42t100 -117t36 -171q0 -107 -57 -185.5t-162 -124.5q50 -9 126 -13
t210 -4zM194 343q32 -51 90 -96.5t133 -75.5q154 41 235.5 105.5t81.5 139.5q0 74 -37 136t-101 97.5t-139 35.5q-71 0 -139.5 -35.5t-112 -92.5t-43.5 -117q0 -46 32 -97z" />
    <glyph glyph-name="uni06A1.fina" unicode="&#x6a1;" horiz-adv-x="1958" 
d="M1933 0q-194 0 -295.5 22t-152.5 70q-102 -55 -260 -79.5t-413 -24.5q-242 0 -390 43.5t-215.5 131t-67.5 223.5t59 291h14q-20 -64 -30 -117t-10 -111q0 -157 154 -243.5t504 -86.5q180 0 308 7.5t230 27.5q-67 43 -103.5 103.5t-36.5 130.5q0 110 49 202t127 145
t160 53q80 0 143 -42t99 -117t36 -171q0 -108 -57.5 -187t-162.5 -124q86 -16 336 -16zM1282 343q32 -51 90 -96.5t133 -75.5q154 41 235.5 105.5t81.5 139.5q0 74 -37.5 135.5t-101 97.5t-138.5 36q-71 0 -139.5 -35.5t-112 -92.5t-43.5 -117q0 -46 32 -97z" />
    <glyph glyph-name="uni06A4" unicode="&#x6a4;" horiz-adv-x="1927" arabic-form="isolated" 
d="M1630.5 983q75.5 -64 116.5 -194t41 -323q0 -170 -88 -273.5t-300.5 -154t-587.5 -50.5q-242 0 -390 43.5t-215.5 131t-67.5 223.5t59 291h14q-20 -64 -30 -117t-10 -111q0 -157 154 -243.5t504 -86.5q345 0 553.5 42.5t296 111.5t88.5 155q2 87 -9 161l-3 -1
q-35 -90 -129 -143t-211 -53q-139 0 -205 66t-66 185q0 111 40.5 203.5t110.5 146.5t156 54q103 0 178.5 -64zM1613 531.5q87 28.5 142 77.5q-28 161 -114.5 249t-210.5 88q-67 0 -128 -34.5t-98.5 -93.5t-37.5 -127q0 -48 25.5 -90.5t85.5 -70t157 -27.5q92 0 179 28.5z
M1377 1594q-33 26 -56 37v12l83 101q32 -13 65 -40t50 -51l-87 -107q-22 22 -55 48zM1661.5 1425q-12.5 -30 -17.5 -47q-94 -6 -188 -10t-139 -4q-87 0 -126 13.5t-39 47.5q0 14 10 46q6 20 8 30h12q0 -24 32.5 -35t114.5 -11q36 0 151.5 4t202.5 9q-9 -13 -21.5 -43z" />
    <glyph glyph-name="uni06A9" unicode="&#x6a9;" horiz-adv-x="1748" arabic-form="isolated" 
d="M1444.5 167q-85.5 -92 -256.5 -135.5t-434 -43.5q-319 0 -467 98t-148 300q0 138 57 291h16q-20 -63 -30.5 -116.5t-10.5 -111.5q0 -155 145 -242.5t456 -87.5q267 0 432.5 38t236.5 96.5t71 122.5q0 79 -76 173.5t-222.5 197.5t-352.5 205q35 87 53 149q7 22 19 33
t39 24l857 382l10 -6q-19 -32 -34 -67t-23 -63l-867 -352v-12q231 -121 365.5 -226t192 -203t57.5 -205q0 -147 -85.5 -239z" />
    <glyph glyph-name="uni06AA.init" unicode="&#x6aa;" horiz-adv-x="1982" 
d="M1681 612q76 -41 119 -113t43 -162q0 -126 -85.5 -199.5t-263.5 -105.5t-470 -32h-1048q-23 0 -33 12.5t-10 36.5q0 82 67 82h1037q429 0 607 44.5t178 121.5q0 67 -39.5 125.5t-114 94t-173.5 35.5q-61 0 -196 -7q-161 -8 -332.5 -12.5t-447.5 -4.5q-166 0 -253 14
t-122 47.5t-35 95.5q0 59 24.5 102t66.5 63q305 126 467 199t228.5 110.5t98.5 68.5h12q-4 -12 -8 -38q-6 -32 -13 -51.5t-27.5 -40.5t-60.5 -43q-148 -85 -754 -299q-1 -6 -1 -17q0 -45 34 -68.5t116.5 -33t240.5 -9.5q275 0 441 5t339 13q135 7 196 7q96 0 172 -41z" />
    <glyph glyph-name="uni06AA.medi" unicode="&#x6aa;" horiz-adv-x="2083" 
d="M2083 131l-24 -131q-120 0 -182 48.5t-71 144.5q-44 -71 -142.5 -113t-255 -61t-384.5 -19h-1048q-23 0 -33 12.5t-10 36.5q0 82 67 82h1037q429 0 607 44.5t178 121.5q0 67 -39.5 125.5t-114 94t-173.5 35.5q-61 0 -196 -7q-161 -8 -332.5 -12.5t-447.5 -4.5
q-166 0 -253 14t-122 47.5t-35 95.5q0 59 24.5 102t66.5 63q305 126 467 199t228.5 110.5t98.5 68.5h12q-4 -12 -8 -38q-6 -32 -13 -51.5t-27.5 -40.5t-60.5 -43q-148 -85 -754 -299q-1 -6 -1 -17q0 -45 34 -68.5t116.5 -33t240.5 -9.5q275 0 441 5t339 13q135 7 196 7
q96 0 172 -41t119 -113t43 -162q0 -74 -28 -127q64 -79 246 -79h22z" />
    <glyph glyph-name="uni06AA.fina" unicode="&#x6aa;" horiz-adv-x="2404" 
d="M2404 131l-24 -131q-119 0 -180.5 48t-72.5 143q-37 -62 -104 -91q-128 -59 -440 -85.5t-845 -26.5q-178 0 -285.5 19t-163.5 46.5t-123 76.5q-15 12 -47 34v12q136 -33 279.5 -45t357.5 -12q518 0 825 22.5t434.5 61.5t127.5 94q0 67 -39.5 125.5t-114 94t-173.5 35.5
q-61 0 -196 -7q-160 -8 -331.5 -12.5t-448.5 -4.5q-166 0 -252.5 14t-121 47t-34.5 96q0 59 24 102t67 63q304 126 466 199t228.5 110.5t99.5 68.5h12q-4 -13 -8 -37q-6 -32 -13.5 -51.5t-27.5 -41t-60 -43.5q-153 -88 -755 -299q-4 -52 26.5 -79t114.5 -38t251 -11
q273 0 438.5 5t340.5 13q135 7 196 7q96 0 171.5 -41t118.5 -113t43 -162q0 -70 -28 -128q67 -78 247 -78h20z" />
    <glyph glyph-name="uni06AC.init" unicode="&#x6ac;" horiz-adv-x="913" 
d="M626 167.5q-69 -88.5 -217 -128t-397 -39.5h-36q-23 0 -33 13t-10 36q0 41 15.5 61.5t51.5 20.5h36q327 0 484 63t157 182q0 78 -76.5 173t-223 198t-353.5 205q14 34 30.5 77t24.5 72q6 22 18 33t40 24l856 382l11 -6q-19 -32 -34.5 -67t-23.5 -63l-867 -352v-12
q231 -121 366 -226t192.5 -203t57.5 -205q0 -150 -69 -238.5zM340.5 1548q-34.5 28 -59.5 40v12l89 107q33 -14 68 -44t53 -57l-97 -109q-19 23 -53.5 51z" />
    <glyph glyph-name="uni06AC.medi" unicode="&#x6ac;" horiz-adv-x="1284" 
d="M1050.5 44.5q-92.5 44.5 -179 146.5t-188.5 283h-12q8 -44 8 -68q-3 -147 -68 -235.5t-209.5 -129.5t-389.5 -41h-36q-23 0 -33 13t-10 36q0 41 15.5 61.5t51.5 20.5h36q321 0 473 63t152 179q0 126 -155.5 271t-481.5 308q14 34 30.5 77t24.5 72q6 23 18.5 34.5
t39.5 22.5l977 382l11 -6q-36 -59 -58 -130l-988 -352v-12q210 -109 340 -204t201.5 -172t157.5 -191q32 -43 68 -89t73 -87q84 -93 167 -129.5t198 -36.5l-21 -131q-120 0 -212.5 44.5zM340.5 1548q-34.5 28 -59.5 40v12l89 107q33 -14 68 -44t53 -57l-97 -109
q-19 23 -53.5 51z" />
    <glyph glyph-name="uni06AC.fina" unicode="&#x6ac;" horiz-adv-x="2120" 
d="M1885.5 44.5q-92.5 44.5 -179 146.5t-188.5 283h-13q10 -37 10 -68q-4 -147 -83.5 -238.5t-246 -135.5t-431.5 -44q-319 0 -467 98t-148 300q0 138 57 291h16q-20 -63 -30.5 -116.5t-10.5 -111.5q0 -155 145 -242.5t456 -87.5q265 0 427 38t230 95.5t68 120.5
q0 126 -155.5 271t-480.5 308q35 87 53 149q7 23 19 34.5t39 22.5l979 382l9 -6q-41 -72 -57 -130l-988 -352v-12q210 -110 340.5 -204.5t202 -172t156.5 -191.5q83 -111 140 -175q85 -93 168 -129.5t198 -36.5l-21 -131q-121 0 -213.5 44.5zM395.5 1009q-34.5 28 -59.5 40
v12l89 107q33 -14 68 -44t53 -57l-97 -109q-19 23 -53.5 51z" />
    <glyph glyph-name="uni06AF" unicode="&#x6af;" horiz-adv-x="1748" arabic-form="isolated" 
d="M1655 1610l-685 -315l18 57l701 331zM1444.5 167q-85.5 -92 -256.5 -135.5t-434 -43.5q-319 0 -467 98t-148 300q0 138 57 291h16q-20 -63 -30.5 -116.5t-10.5 -111.5q0 -155 145 -242.5t456 -87.5q267 0 432.5 38t236.5 96.5t71 122.5q0 79 -76 173.5t-222.5 197.5
t-352.5 205q35 87 53 149q7 22 19 33t39 24l857 382l10 -6q-19 -32 -34 -67t-23 -63l-867 -352v-12q231 -121 365.5 -226t192 -203t57.5 -205q0 -147 -85.5 -239z" />
    <glyph glyph-name="uni06B5.init" unicode="&#x6b5;" horiz-adv-x="504" 
d="M321.5 210q-27.5 -95 -78.5 -149q-31 -32 -97 -46.5t-168 -14.5q-22 0 -33.5 13.5t-11.5 36.5q0 40 15.5 60.5t51.5 20.5q164 0 236.5 38t72.5 104q0 117 -18.5 387t-42 530t-33.5 320q22 23 47.5 58.5t40.5 62.5h12q0 -33 9 -290q12 -325 18.5 -543t6.5 -388
q0 -105 -27.5 -200zM407 2112q4 -17 8 -26q-73 -95 -110 -186t-45 -189l-13 -2q-8 110 -53 197t-130 166q15 24 25 55h12q12 -17 36 -47q49 -60 80.5 -117.5t43.5 -144.5h7q8 69 22 117t30 79.5t42 74.5q16 26 29 49h12q0 -9 4 -26z" />
    <glyph glyph-name="uni06B5.medi" unicode="&#x6b5;" horiz-adv-x="689" 
d="M471 2112q4 -17 8 -26q-73 -95 -110 -186t-45 -189l-13 -2q-8 110 -53 197t-130 166q15 24 25 55h12q12 -17 36 -47q49 -60 80.5 -117.5t43.5 -144.5h7q8 69 22 117t30 79.5t42 74.5q16 26 29 49h12q0 -9 4 -26zM404.5 76q-82.5 76 -81.5 240h-11q-4 -167 -86 -241.5
t-248 -74.5q-22 0 -33.5 12.5t-11.5 36.5q0 41 15.5 61.5t51.5 20.5q108 0 175.5 31t100.5 101t33 188q-3 386 -7 566t-11 275t-24 214q20 20 44.5 56.5t43.5 68.5h13q0 -49 5 -132q7 -154 7 -238q0 -150 -6 -432q-6 -266 -6 -389q0 -119 30.5 -185.5t99.5 -95t191 -28.5
l-24 -131q-178 0 -260.5 76z" />
    <glyph glyph-name="uni06B5.fina" unicode="&#x6b5;" horiz-adv-x="1533" 
d="M1326 48.5q-64 48.5 -78 145.5h-12q0 -62 -9.5 -136t-24.5 -110q-13 -141 -89 -249.5t-203.5 -169t-291.5 -60.5q-149 0 -256.5 56.5t-165 164t-57.5 257.5q0 209 85 408h15q-30 -67 -50 -164.5t-20 -180.5q0 -129 56.5 -221t161.5 -140.5t249 -48.5q158 0 288.5 56
t206 155.5t75.5 222.5q-1 146 -17.5 475t-36.5 631.5t-31 369.5q21 23 46.5 58.5t40.5 62.5h13q0 -172 14 -580q13 -358 13 -520q0 -164 26 -249t86 -118t173 -33l-24 -131q-119 0 -183 48.5zM782 1106q4 -17 8 -26q-73 -95 -110 -186t-45 -189l-13 -2q-8 110 -53 197
t-130 166q15 24 25 55h12q12 -17 36 -47q49 -60 80.5 -117.5t43.5 -144.5h7q8 69 22 117t30 79.5t42 74.5q16 26 29 49h12q0 -9 4 -26z" />
    <glyph glyph-name="uni06BA" unicode="&#x6ba;" horiz-adv-x="1440" arabic-form="isolated" 
d="M1219.5 -117q-81.5 -141 -230.5 -217t-347 -76q-160 0 -272.5 56.5t-171.5 164.5t-59 259q0 203 85 406h16q-30 -66 -50 -163.5t-20 -181.5q0 -129 57.5 -221t168 -140.5t265.5 -48.5q180 0 321 60.5t219.5 165.5t78.5 235q0 77 -38 170.5t-120 217.5q13 21 29 55.5
t24 61.5h12q3 -7 7 -16.5t8 -20.5q41 -95 70 -198t29 -239q0 -189 -81.5 -330z" />
    <glyph glyph-name="uni06BD.init" unicode="&#x6bd;" horiz-adv-x="546" 
d="M298.5 75.5q-107.5 -75.5 -322.5 -75.5q-23 0 -33 13t-10 36q0 41 15.5 61.5t51.5 20.5q120 0 207.5 18t133.5 51t46 77q0 70 -51.5 172.5t-111.5 172.5q13 16 30 53t28 71h9q7 -20 21 -50q41 -91 67.5 -181.5t26.5 -207.5q0 -156 -107.5 -231.5zM-130.5 -316
q12.5 30 17.5 47q94 6 188 10t139 4q87 0 126 -13.5t39 -47.5q0 -14 -10 -46q-6 -20 -8 -30h-12q0 24 -32.5 35t-114.5 11q-36 0 -151.5 -4t-202.5 -9q9 13 21.5 43zM62.5 -573q-33.5 26 -56.5 38v12l82 101q32 -13 64.5 -40t51.5 -51l-89 -106q-19 20 -52.5 46z" />
    <glyph glyph-name="uni06BD.medi" unicode="&#x6bd;" horiz-adv-x="709" 
d="M540 24.5q-56 24.5 -84.5 81t-28.5 151.5q0 38 2 59h-12q-15 -117 -63 -185.5t-139.5 -99.5t-238.5 -31q-23 0 -33 13t-10 36q0 41 15.5 61.5t51.5 20.5q167 0 255.5 33t128.5 109.5t56 221.5h15v-85q0 -109 22 -168.5t76.5 -85t155.5 -25.5l-24 -131q-89 0 -145 24.5z
M-172.5 -316q12.5 30 17.5 47q94 6 188 10t139 4q87 0 126 -13.5t39 -47.5q0 -14 -10 -46q-6 -20 -8 -30h-12q0 24 -32.5 35t-114.5 11q-36 0 -151.5 -4t-202.5 -9q9 13 21.5 43zM20.5 -573q-33.5 26 -56.5 38v12l82 101q32 -13 64.5 -40t51.5 -51l-89 -106q-19 20 -52.5 46
z" />
    <glyph glyph-name="uni06BD.fina" unicode="&#x6bd;" horiz-adv-x="1531" 
d="M1294 303.5q48 -93.5 104 -133t133 -39.5l-24 -131q-67 0 -120 30t-86 86v-25q0 -189 -81.5 -329.5t-230.5 -216.5t-347 -76q-160 0 -272.5 56.5t-171.5 163.5t-59 258q0 205 85 408h16q-30 -66 -50 -163.5t-20 -181.5q0 -129 57.5 -221t168 -140.5t265.5 -48.5
q180 0 321 60.5t219.5 165.5t78.5 235q0 53 -33.5 143t-109.5 251q12 19 26.5 51t21.5 58h13q48 -167 96 -260.5zM616 879q-33 26 -56 37v12l83 101q32 -13 65 -40t50 -51l-87 -107q-22 22 -55 48zM900.5 710q-12.5 -30 -17.5 -47q-94 -6 -188 -10t-139 -4q-87 0 -126 13.5
t-39 47.5q0 14 10 46q6 20 8 30h12q0 -24 32.5 -35t114.5 -11q36 0 151.5 4t202.5 9q-9 -13 -21.5 -43z" />
    <glyph glyph-name="uni06C1" unicode="&#x6c1;" horiz-adv-x="909" arabic-form="isolated" 
d="M386 838q103 -62 181.5 -123.5t140 -158t61.5 -219.5q0 -168 -95.5 -258.5t-269.5 -90.5q-125 0 -195 59t-70 166q0 104 47 220t157 296q-35 20 -73 38q11 21 23.5 57t17.5 58h8q9 -6 67 -44zM595 145q74 26 115 69t41 93q0 96 -103 204t-290 210q-97 -160 -140 -259.5
t-43 -176.5q0 -49 29.5 -86.5t86.5 -58.5t135 -21q95 0 169 26z" />
    <glyph glyph-name="uni06C2.fina" unicode="&#x6c2;" horiz-adv-x="1173" 
d="M838 261q38 -67 119.5 -98.5t215.5 -31.5l-24 -131q-146 0 -234.5 39.5t-129 121.5t-40.5 213q0 123 8 230q-147 -93 -334 -236.5t-268 -222.5h-12q26 71 33 107l59 51q149 130 287 242t294 217h12q-12 -83 -18 -171.5t-6 -153.5q0 -109 38 -176zM666 954.5
q65 10.5 94 24.5v-12q-8 -13 -16 -33t-12 -36q-142 -30 -236.5 -79.5t-135.5 -102.5h-12q46 101 172 163q-78 9 -119 43.5t-41 90.5q0 59 27 113.5t71.5 88.5t96.5 34q49 0 79.5 -30t30.5 -82q0 -24 -5 -44h-12q-1 47 -26 68t-72 21q-48 0 -87.5 -20.5t-62 -52t-22.5 -62.5
q0 -28 21 -51.5t59.5 -37.5t87.5 -14q55 0 120 10.5z" />
    <glyph glyph-name="uni06C3.fina" unicode="&#x6c3;" horiz-adv-x="1173" 
d="M838 261q38 -67 119.5 -98.5t215.5 -31.5l-24 -131q-146 0 -234.5 39.5t-129 121.5t-40.5 213q0 123 8 230q-147 -93 -334 -236.5t-268 -222.5h-12q26 71 33 107l59 51q149 130 287 242t294 217h12q-12 -83 -18 -171.5t-6 -153.5q0 -109 38 -176zM740.5 1099.5
q-12.5 -31.5 -17.5 -48.5q-94 -6 -188 -10t-139 -4q-87 0 -126 13.5t-39 47.5q0 13 10 47q6 22 8 33h12q0 -24 32.5 -35t114.5 -11q45 0 168.5 4t184.5 9q-8 -14 -20.5 -45.5z" />
    <glyph glyph-name="uni06C6" unicode="&#x6c6;" horiz-adv-x="975" arabic-form="isolated" 
d="M676 637q76 -64 117.5 -193t41.5 -319q0 -176 -83 -324t-219 -234t-287 -86q-32 0 -66.5 10t-84.5 29q-10 3 -34 12t-41 13v12q200 3 384 79t297 196.5t113 249.5q0 62 -6 116q-23 -60 -74 -104.5t-120.5 -69t-146.5 -24.5q-144 0 -214.5 71.5t-70.5 205.5
q0 119 42.5 216t114.5 152.5t158 55.5q103 0 179 -64zM653.5 151.5q85.5 26.5 150.5 75.5q-25 178 -111.5 274.5t-216.5 96.5q-69 0 -132 -35.5t-102 -98.5t-39 -139q0 -86 66 -143t210 -57q89 0 174.5 26.5zM640 1295q4 -17 8 -26q-73 -95 -110 -186t-45 -189l-13 -2
q-8 110 -53 197t-130 166q15 24 25 55h12q12 -17 36 -47q49 -60 80.5 -117.5t43.5 -144.5h7q8 69 22 117t30 79.5t42 74.5q16 26 29 49h12q0 -9 4 -26z" />
    <glyph glyph-name="uni06C9" unicode="&#x6c9;" horiz-adv-x="975" arabic-form="isolated" 
d="M322 982q-3 12 -10 28t-14 27q85 80 130 166.5t53 196.5l12 -2q8 -98 45 -189t110 -186q-4 -9 -8 -26t-4 -26h-12q-13 23 -29 49q-26 43 -42 74.5t-30 79.5t-22 117h-7q-8 -61 -28 -109.5t-42 -81t-55 -73.5q-24 -29 -35 -45h-12zM676 637q76 -64 117.5 -193t41.5 -319
q0 -176 -83 -324t-219 -234t-287 -86q-32 0 -66.5 10t-84.5 29q-10 3 -34 12t-41 13v12q200 3 384 79t297 196.5t113 249.5q0 62 -6 116q-23 -60 -74 -104.5t-120.5 -69t-146.5 -24.5q-144 0 -214.5 71.5t-70.5 205.5q0 119 42.5 216t114.5 152.5t158 55.5q103 0 179 -64z
M653.5 151.5q85.5 26.5 150.5 75.5q-25 178 -111.5 274.5t-216.5 96.5q-69 0 -132 -35.5t-102 -98.5t-39 -139q0 -86 66 -143t210 -57q89 0 174.5 26.5z" />
    <glyph glyph-name="uniFBFC" unicode="&#x6cc;" horiz-adv-x="1445" arabic-form="isolated" 
d="M1237 931q52 -51 52 -143q0 -34 -5 -60h-12q4 72 -48.5 111.5t-149.5 39.5q-115 0 -215.5 -64.5t-160 -155.5t-59.5 -162q0 -79 62 -113t199 -39l150 -6q96 -3 151.5 -24.5t80 -62t24.5 -107.5q0 -163 -81 -289t-231 -196t-352 -70q-160 0 -273 56.5t-171.5 164
t-58.5 259.5q0 207 85 406h15q-30 -67 -50 -164.5t-20 -180.5q0 -129 57.5 -221t168 -140.5t265.5 -48.5q180 0 323 56t223 144.5t80 181.5q0 54 -56 83t-194 34l-151 6q-98 4 -156.5 24.5t-86 64.5t-27.5 119q0 118 67.5 247t178 215t232.5 86q92 0 144 -51z" />
    <glyph glyph-name="uni06CE.init" unicode="&#x6ce;" horiz-adv-x="546" 
d="M298.5 75.5q-107.5 -75.5 -322.5 -75.5q-23 0 -33 13t-10 36q0 41 15.5 61.5t51.5 20.5q120 0 207.5 18t133.5 51t46 77q0 70 -51.5 172.5t-111.5 172.5q13 16 30 53t28 71h9q7 -20 21 -50q41 -91 67.5 -181.5t26.5 -207.5q0 -156 -107.5 -231.5zM358 1355q4 -17 8 -26
q-73 -95 -110 -186t-45 -189l-13 -2q-8 110 -53 197t-130 166q15 24 25 55h12q12 -17 36 -47q49 -60 80.5 -117.5t43.5 -144.5h7q8 69 22 117t30 79.5t42 74.5q16 26 29 49h12q0 -9 4 -26zM-148.5 -317.5q12.5 31.5 17.5 48.5q94 6 188 10t139 4q87 0 126 -13.5t39 -47.5
q0 -13 -10 -47q-6 -22 -8 -33h-12q0 24 -32.5 35t-114.5 11q-45 0 -168.5 -4t-184.5 -9q8 14 20.5 45.5z" />
    <glyph glyph-name="uni06CE.medi" unicode="&#x6ce;" horiz-adv-x="709" 
d="M540 24.5q-56 24.5 -84.5 81t-28.5 151.5q0 38 2 59h-12q-15 -117 -63 -185.5t-139.5 -99.5t-238.5 -31q-23 0 -33 13t-10 36q0 41 15.5 61.5t51.5 20.5q167 0 255.5 33t128.5 109.5t56 221.5h15v-85q0 -109 22 -168.5t76.5 -85t155.5 -25.5l-24 -131q-89 0 -145 24.5z
M449 1089q4 -17 8 -26q-73 -95 -110 -186t-45 -189l-13 -2q-8 110 -53 197t-130 166q15 24 25 55h12q12 -17 36 -47q49 -60 80.5 -117.5t43.5 -144.5h7q8 69 22 117t30 79.5t42 74.5q16 26 29 49h12q0 -9 4 -26zM-172.5 -317.5q12.5 31.5 17.5 48.5q94 6 188 10t139 4
q87 0 126 -13.5t39 -47.5q0 -13 -10 -47q-6 -22 -8 -33h-12q0 24 -32.5 35t-114.5 11q-45 0 -168.5 -4t-184.5 -9q8 14 20.5 45.5z" />
    <glyph glyph-name="uni06CE.fina" unicode="&#x6ce;" horiz-adv-x="1375" 
d="M1351 0q-82 0 -153 3q53 -24 76 -54t23 -74q0 -129 -80 -232.5t-228.5 -163t-346.5 -59.5q-159 0 -272 56.5t-172 164t-59 258.5q0 207 82 402h15q-28 -63 -47.5 -160.5t-19.5 -179.5q0 -128 57.5 -220.5t168 -141t265.5 -48.5q186 0 326.5 47.5t215 117t74.5 132.5
q0 43 -45.5 69.5t-114 41t-187.5 31.5q-107 17 -168.5 28t-118.5 28v12q41 52 64 106q102 -20 256.5 -26.5t412.5 -6.5zM631 616q4 -17 8 -26q-73 -95 -110 -186t-45 -189l-13 -2q-8 110 -53 197t-130 166q15 24 25 55h12q12 -17 36 -47q49 -60 80.5 -117.5t43.5 -144.5h7
q8 69 22 117t30 79.5t42 74.5q16 26 29 49h12q0 -9 4 -26z" />
    <glyph glyph-name="uni06CF.fina" unicode="&#x6cf;" horiz-adv-x="976" 
d="M951 0h-128q-27 -147 -113.5 -265.5t-209 -186t-254.5 -67.5q-32 0 -66.5 10t-84.5 29q-10 3 -34 12t-41 13v12q181 2 351 65.5t287 167.5t147 221q-183 -11 -338 -11q-144 0 -214.5 71.5t-70.5 205.5q0 119 42.5 216t114.5 152.5t158 55.5q103 0 178.5 -63.5t117.5 -191
t42 -315.5h141zM269 182q66 -57 210 -57q211 0 334 2q-6 150 -49 256t-117 160.5t-171 54.5q-69 0 -132 -35.5t-102 -98.5t-39 -139q0 -86 66 -143zM440.5 997q-34.5 28 -59.5 40v12l89 107q33 -14 68 -44t53 -57l-97 -109q-19 23 -53.5 51z" />
    <glyph glyph-name="uni06D2" unicode="&#x6d2;" horiz-adv-x="1584" arabic-form="isolated" 
d="M1184.5 133q173.5 2 269.5 10v-12q-20 -21 -51 -63.5t-42 -67.5q-55 4 -190 4q-97 0 -277 -2q-148 -2 -191 -2q-220 0 -342 25t-172 80t-50 150q0 124 66 249.5t171.5 206.5t218.5 81q97 0 153 -52.5t56 -146.5q0 -23 -5 -56h-12q-4 78 -56.5 113t-154.5 35
q-99 0 -195.5 -56t-157 -142t-60.5 -168q0 -62 52.5 -103.5t176 -63t332.5 -21.5q287 0 460.5 2z" />
    <glyph glyph-name="uniFBB0" unicode="&#x6d3;" horiz-adv-x="1444" arabic-form="isolated" 
d="M451 1127q-78 9 -119 43.5t-41 90.5q0 59 26.5 113.5t71.5 88.5t96 34q50 0 80.5 -30t30.5 -82q0 -14 -5 -44h-12q-2 47 -27 68t-72 21q-48 0 -87 -20.5t-61.5 -52t-22.5 -62.5q0 -28 21 -51.5t59.5 -37.5t87.5 -14q55 0 120 10.5t93 24.5v-12q-8 -13 -16 -33t-12 -36
q-142 -30 -236 -79.5t-135 -102.5h-12q46 101 172 163zM1184.5 133q173.5 2 269.5 10v-12q-20 -21 -51 -63.5t-42 -67.5q-55 4 -190 4q-97 0 -277 -2q-148 -2 -191 -2q-220 0 -342 25t-172 80t-50 150q0 124 66 249.5t171.5 206.5t218.5 81q97 0 153 -52.5t56 -146.5
q0 -23 -5 -56h-12q-4 78 -56.5 113t-154.5 35q-99 0 -195.5 -56t-157 -142t-60.5 -168q0 -62 52.5 -103.5t176 -63t332.5 -21.5q287 0 460.5 2z" />
    <glyph glyph-name="uni06D5.fina" unicode="&#x6d5;" horiz-adv-x="1121" 
d="M885.5 214q79.5 -83 235.5 -83l-24 -131q-164 0 -253.5 91.5t-98.5 272.5h-10q-28 -123 -117.5 -189t-244.5 -66q-116 0 -175 46t-59 130q0 85 51.5 164t172.5 173t341 226q-11 78 -21 125q20 17 43.5 45t38.5 53h6q17 -133 26 -264.5t9 -333.5q0 -176 79.5 -259z
M574.5 265.5q76.5 28.5 116 75t39.5 99.5q0 179 -19 347q-208 -118 -324 -197t-163.5 -133.5t-47.5 -101.5q0 -58 51.5 -88t163.5 -30q107 0 183.5 28.5z" />
    <glyph glyph-name="uniFB51" unicode="&#x671;" horiz-adv-x="556" arabic-form="final" 
d="M381.5 1691.5q-60.5 -40.5 -161.5 -40.5q-122 0 -162 81q-17 -21 -56 -51.5t-64 -41.5l5 44q31 19 66.5 48.5t55.5 56.5h10q9 -34 35 -54q58 101 110.5 147t108.5 46q49 0 81 -32t32 -89q0 -74 -60.5 -114.5zM217 1837.5q-48 -37.5 -92 -113.5q36 -19 100 -19
q94 0 147 22t53 59t-28.5 63t-77.5 26q-54 0 -102 -37.5zM265.5 255q30.5 -67 100 -95.5t190.5 -28.5l-24 -131q-130 0 -206 34.5t-111 113.5t-36 216q-3 368 -7 544t-11 265.5t-22 208.5q21 22 48 58.5t40 62.5h12q0 -32 4 -132q6 -132 6 -237q0 -96 -6 -312
q-8 -240 -8 -382q0 -118 30.5 -185z" />
    <glyph glyph-name="uniFB57" unicode="&#x67e;" horiz-adv-x="1961" arabic-form="final" 
d="M1739 64.5q-60 64.5 -60 206.5q0 53 7 109h-11q-61 -198 -284 -295t-579 -97q-242 0 -390 43.5t-215.5 131t-67.5 223.5t59 291h14q-20 -64 -30 -117t-10 -111q0 -157 154 -243.5t504 -86.5q371 0 589.5 86.5t283.5 264.5h14q-10 -82 -10 -121q0 -108 56 -163t198 -55
l-24 -131q-138 0 -198 64.5zM590.5 -316q12.5 30 17.5 47q94 6 188 10t139 4q87 0 126 -13.5t39 -47.5q0 -14 -10 -46q-6 -20 -8 -30h-12q0 24 -32.5 35t-114.5 11q-36 0 -151.5 -4t-202.5 -9q9 13 21.5 43zM783.5 -573q-33.5 26 -56.5 38v12l82 101q32 -13 64.5 -40
t51.5 -51l-89 -106q-19 20 -52.5 46z" />
    <glyph glyph-name="uniFB58" unicode="&#x67e;" horiz-adv-x="546" arabic-form="initial" 
d="M298.5 75.5q-107.5 -75.5 -322.5 -75.5q-23 0 -33 13t-10 36q0 41 15.5 61.5t51.5 20.5q120 0 207.5 18t133.5 51t46 77q0 70 -51.5 172.5t-111.5 172.5q13 16 30 53t28 71h9q7 -20 21 -50q41 -91 67.5 -181.5t26.5 -207.5q0 -156 -107.5 -231.5zM-148.5 -316
q12.5 30 17.5 47q94 6 188 10t139 4q87 0 126 -13.5t39 -47.5q0 -14 -10 -46q-6 -20 -8 -30h-12q0 24 -32.5 35t-114.5 11q-36 0 -151.5 -4t-202.5 -9q9 13 21.5 43zM44.5 -573q-33.5 26 -56.5 38v12l82 101q32 -13 64.5 -40t51.5 -51l-89 -106q-19 20 -52.5 46z" />
    <glyph glyph-name="uniFB59" unicode="&#x67e;" horiz-adv-x="709" arabic-form="medial" 
d="M540 24.5q-56 24.5 -84.5 81t-28.5 151.5q0 38 2 59h-12q-15 -117 -63 -185.5t-139.5 -99.5t-238.5 -31q-23 0 -33 13t-10 36q0 41 15.5 61.5t51.5 20.5q167 0 255.5 33t128.5 109.5t56 221.5h15v-85q0 -109 22 -168.5t76.5 -85t155.5 -25.5l-24 -131q-89 0 -145 24.5z
M-172.5 -316q12.5 30 17.5 47q94 6 188 10t139 4q87 0 126 -13.5t39 -47.5q0 -14 -10 -46q-6 -20 -8 -30h-12q0 24 -32.5 35t-114.5 11q-36 0 -151.5 -4t-202.5 -9q9 13 21.5 43zM20.5 -573q-33.5 26 -56.5 38v12l82 101q32 -13 64.5 -40t51.5 -51l-89 -106q-19 20 -52.5 46
z" />
    <glyph glyph-name="uniFB67" unicode="&#x679;" horiz-adv-x="1961" arabic-form="final" 
d="M1739 64.5q-60 64.5 -60 206.5q0 53 7 109h-11q-61 -198 -284 -295t-579 -97q-242 0 -390 43.5t-215.5 131t-67.5 223.5t59 291h14q-20 -64 -30 -117t-10 -111q0 -157 154 -243.5t504 -86.5q371 0 589.5 86.5t283.5 264.5h14q-10 -82 -10 -121q0 -108 56 -163t198 -55
l-24 -131q-138 0 -198 64.5zM1085 881.5q32 -32.5 32 -89.5q0 -74 -61 -114.5t-163 -40.5q-71 0 -106.5 13t-70.5 39l-25 17v12q42 -14 80 -19q31 54 44.5 101t13.5 110q0 27 -5 75t-12 105q23 27 30 51h12q0 -20 1 -39.5t2 -36.5q4 -66 4 -99q0 -68 -7.5 -106t-34.5 -87
q46 70 91 105.5t94 35.5t81 -32.5zM1047 714q53 22 53 59q0 36 -29 62t-78 26q-57 0 -106.5 -40.5t-96.5 -123.5q50 -5 108 -5q96 0 149 22z" />
    <glyph glyph-name="uniFB68" unicode="&#x679;" horiz-adv-x="546" arabic-form="initial" 
d="M298.5 75.5q-107.5 -75.5 -322.5 -75.5q-23 0 -33 13t-10 36q0 41 15.5 61.5t51.5 20.5q120 0 207.5 18t133.5 51t46 77q0 70 -51.5 172.5t-111.5 172.5q13 16 30 53t28 71h9q7 -20 21 -50q41 -91 67.5 -181.5t26.5 -207.5q0 -156 -107.5 -231.5zM366 1220.5
q32 -32.5 32 -89.5q0 -74 -61 -114.5t-163 -40.5q-71 0 -106.5 13t-70.5 39l-25 17v12q42 -14 80 -19q31 54 44.5 101t13.5 110q0 27 -5 75t-12 105q23 27 30 51h12q0 -20 1 -39.5t2 -36.5q4 -66 4 -99q0 -68 -7.5 -106t-34.5 -87q46 70 91 105.5t94 35.5t81 -32.5z
M328 1053q53 22 53 59q0 36 -29 62t-78 26q-57 0 -106.5 -40.5t-96.5 -123.5q50 -5 108 -5q96 0 149 22z" />
    <glyph glyph-name="uniFB69" unicode="&#x679;" horiz-adv-x="709" arabic-form="medial" 
d="M540 24.5q-56 24.5 -84.5 81t-28.5 151.5q0 38 2 59h-12q-15 -117 -63 -185.5t-139.5 -99.5t-238.5 -31q-23 0 -33 13t-10 36q0 41 15.5 61.5t51.5 20.5q167 0 255.5 33t128.5 109.5t56 221.5h15v-85q0 -109 22 -168.5t76.5 -85t155.5 -25.5l-24 -131q-89 0 -145 24.5z
M457 954.5q32 -32.5 32 -89.5q0 -74 -61 -114.5t-163 -40.5q-71 0 -106.5 13t-70.5 39l-25 17v12q42 -14 80 -19q31 54 44.5 101t13.5 110q0 27 -5 75t-12 105q23 27 30 51h12q0 -20 1 -39.5t2 -36.5q4 -66 4 -99q0 -68 -7.5 -106t-34.5 -87q46 70 91 105.5t94 35.5
t81 -32.5zM419 787q53 22 53 59q0 36 -29 62t-78 26q-57 0 -106.5 -40.5t-96.5 -123.5q50 -5 108 -5q96 0 149 22z" />
    <glyph glyph-name="uniFB6B" unicode="&#x6a4;" horiz-adv-x="1958" arabic-form="final" 
d="M1933 0q-194 0 -295.5 22t-152.5 70q-102 -55 -260 -79.5t-413 -24.5q-242 0 -390 43.5t-215.5 131t-67.5 223.5t59 291h14q-20 -64 -30 -117t-10 -111q0 -157 154 -243.5t504 -86.5q180 0 308 7.5t230 27.5q-67 43 -103.5 103.5t-36.5 130.5q0 110 49 202t127 145
t160 53q80 0 143 -42t99 -117t36 -171q0 -108 -57.5 -187t-162.5 -124q86 -16 336 -16zM1282 343q32 -51 90 -96.5t133 -75.5q154 41 235.5 105.5t81.5 139.5q0 74 -37.5 135.5t-101 97.5t-138.5 36q-71 0 -139.5 -35.5t-112 -92.5t-43.5 -117q0 -46 32 -97zM1495 1273
q-33 26 -56 37v12l83 101q32 -13 65 -40t50 -51l-87 -107q-22 22 -55 48zM1779.5 1104q-12.5 -30 -17.5 -47q-94 -6 -188 -10t-139 -4q-87 0 -126 13.5t-39 47.5q0 14 10 46q6 20 8 30h12q0 -24 32.5 -35t114.5 -11q36 0 151.5 4t202.5 9q-9 -13 -21.5 -43z" />
    <glyph glyph-name="uniFB6C" unicode="&#x6a4;" horiz-adv-x="883" arabic-form="initial" 
d="M585.5 983q75.5 -64 116.5 -194.5t41 -324.5q0 -165 -74.5 -266.5t-234.5 -149.5t-422 -48h-36q-23 0 -33 12.5t-10 36.5q0 82 67 82h37q348 0 517.5 77t169.5 220q2 90 -10 161l-2 -1q-35 -90 -129.5 -143t-212.5 -53q-138 0 -203.5 66t-65.5 185q0 111 39.5 203.5
t109.5 146.5t156 54q104 0 179.5 -64zM568 531.5q87 28.5 143 76.5q-30 161 -116 249.5t-209 88.5q-68 0 -129 -34.5t-98.5 -93.5t-37.5 -127q0 -48 25.5 -90.5t85 -70t156.5 -27.5q93 0 180 28.5zM349 1594q-33 26 -56 37v12l83 101q32 -13 65 -40t50 -51l-87 -107
q-22 22 -55 48zM633.5 1425q-12.5 -30 -17.5 -47q-94 -6 -188 -10t-139 -4q-87 0 -126 13.5t-39 47.5q0 14 10 46q6 20 8 30h12q0 -24 32.5 -35t114.5 -11q36 0 151.5 4t202.5 9q-9 -13 -21.5 -43z" />
    <glyph glyph-name="uniFB6D" unicode="&#x6a4;" horiz-adv-x="873" arabic-form="medial" 
d="M849 0q-195 0 -296.5 22t-153.5 69q-65 -47 -169 -69t-254 -22q-23 0 -33 12.5t-10 36.5q0 82 67 82q89 0 156 5.5t126 17.5q-68 42 -105 103t-37 131q0 110 49.5 202t127.5 145t160 53q79 0 143 -42t100 -117t36 -171q0 -107 -57 -185.5t-162 -124.5q50 -9 126 -13
t210 -4zM194 343q32 -51 90 -96.5t133 -75.5q154 41 235.5 105.5t81.5 139.5q0 74 -37 136t-101 97.5t-139 35.5q-71 0 -139.5 -35.5t-112 -92.5t-43.5 -117q0 -46 32 -97zM434 1273q-33 26 -56 37v12l83 101q32 -13 65 -40t50 -51l-87 -107q-22 22 -55 48zM718.5 1104
q-12.5 -30 -17.5 -47q-94 -6 -188 -10t-139 -4q-87 0 -126 13.5t-39 47.5q0 14 10 46q6 20 8 30h12q0 -24 32.5 -35t114.5 -11q36 0 151.5 4t202.5 9q-9 -13 -21.5 -43z" />
    <glyph glyph-name="uniFB7B" unicode="&#x686;" horiz-adv-x="1418" arabic-form="final" 
d="M1418 131l-24 -131h-34q-132 0 -209.5 30.5t-115.5 108t-38 219.5q0 27 2 81q-267 -76 -455.5 -175.5t-286 -216t-97.5 -241.5q0 -128 76.5 -228t214 -155.5t313.5 -55.5q124 0 268 15.5t246 39.5v-12l-40 -19q-87 -42 -159.5 -70.5t-170.5 -49.5t-211 -21
q-169 0 -295 61t-194.5 173t-68.5 261q0 189 101.5 334.5t313 256t543.5 192.5v11q-90 13 -170 37t-189 64q-115 41 -180.5 59t-130.5 18q-76 0 -128.5 -43t-91.5 -129h-12q34 105 70 165.5t80 87t106 26.5q64 0 133 -20.5t187 -64.5q103 -39 173.5 -62.5t158 -43
t179.5 -24.5v-13q-19 -18 -41 -48t-34 -57q-97 -21 -194 -48q1 -128 36.5 -194.5t113.5 -92t221 -25.5h34zM873.5 -131.5q-31.5 10.5 -110.5 10.5q-36 0 -155.5 -4t-182.5 -8q8 11 19.5 39.5t16.5 46.5q219 12 313 12q85 0 122.5 -13t37.5 -45q0 -16 -11 -47q-2 -7 -4 -13.5
t-3 -11.5h-11q0 23 -31.5 33.5zM716.5 -232.5q31.5 -25.5 48.5 -48.5l-85 -101q-19 20 -50.5 45t-53.5 35v11l79 96q30 -12 61.5 -37.5z" />
    <glyph glyph-name="uniFB7C" unicode="&#x686;" horiz-adv-x="1345" arabic-form="initial" 
d="M136.5 -316q12.5 30 17.5 47q94 6 188 10t139 4q87 0 126 -13.5t39 -47.5q0 -14 -10 -46q-6 -20 -8 -30h-12q0 24 -32.5 35t-114.5 11q-36 0 -151.5 -4t-202.5 -9q9 13 21.5 43zM329.5 -573q-33.5 26 -56.5 38v12l82 101q32 -13 64.5 -40t51.5 -51l-89 -106
q-19 20 -52.5 46zM526 762q69 -20 189 -65q151 -57 265.5 -90t245.5 -40v-12q-17 -16 -37.5 -43t-30.5 -48q-55 0 -109 -20.5t-103 -51.5t-130 -89q-129 -93 -234.5 -153.5t-258.5 -105t-347 -44.5q-23 0 -33 13t-10 36q0 41 15.5 61.5t51.5 20.5q190 0 339.5 33.5
t252.5 79.5t232 118q85 48 140.5 75t112.5 40v12q-107 16 -194 42.5t-207 69.5q-110 40 -175 58t-131 18q-75 0 -127.5 -43.5t-92.5 -128.5h-12q34 105 70 165t80 86t106 26q63 0 132 -20z" />
    <glyph glyph-name="uniFB7D" unicode="&#x686;" horiz-adv-x="1349" arabic-form="medial" 
d="M136.5 -316q12.5 30 17.5 47q94 6 188 10t139 4q87 0 126 -13.5t39 -47.5q0 -14 -10 -46q-6 -20 -8 -30h-12q0 24 -32.5 35t-114.5 11q-36 0 -151.5 -4t-202.5 -9q9 13 21.5 43zM329.5 -573q-33.5 26 -56.5 38v12l82 101q32 -13 64.5 -40t51.5 -51l-89 -106
q-19 20 -52.5 46zM1349 131l-24 -131h-34q-131 0 -207.5 28.5t-113.5 101.5t-37 207q0 14 2 48q-36 -23 -119 -82q-129 -93 -234.5 -153.5t-258.5 -105t-347 -44.5q-23 0 -33 13t-10 36q0 41 15.5 61.5t51.5 20.5q190 0 339.5 33.5t252.5 79.5t232 118q85 48 140.5 75
t112.5 40v12q-107 16 -194 42.5t-207 69.5q-110 40 -175 58t-131 18q-75 0 -127.5 -43.5t-92.5 -128.5h-12q34 105 70 165t80 86t106 26q63 0 132 -20t189 -65q151 -57 265.5 -90t245.5 -40v-12q-17 -16 -37.5 -43t-30.5 -48q-52 0 -102 -17.5t-105 -51.5q5 -108 43 -164.5
t113 -78t208 -21.5h34z" />
    <glyph glyph-name="uniFB89" unicode="&#x688;" horiz-adv-x="1174" arabic-form="final" 
d="M934.5 94.5q-84.5 94.5 -126.5 291.5h-12q-5 -198 -108.5 -298t-298.5 -100q-270 0 -270 236q0 70 15 155h16q-2 -36 -2 -50q0 -74 24 -119.5t78 -68t146 -22.5q131 0 217 36t125 91.5t39 114.5q0 46 -23 150t-60 218.5t-74 191.5q13 19 36 66t27 62h12l25 -93
q43 -150 129 -480q45 -177 125.5 -261t199.5 -84l-24 -131q-131 0 -215.5 94.5zM822 1477.5q32 -32.5 32 -89.5q0 -74 -61 -114.5t-163 -40.5q-71 0 -106.5 13t-70.5 39l-25 17v12q42 -14 80 -19q31 54 44.5 101t13.5 110q0 27 -5 75t-12 105q23 27 30 51h12q0 -20 1 -39.5
t2 -36.5q4 -66 4 -99q0 -68 -7.5 -106t-34.5 -87q46 70 91 105.5t94 35.5t81 -32.5zM784 1310q53 22 53 59q0 36 -29 62t-78 26q-57 0 -106.5 -40.5t-96.5 -123.5q50 -5 108 -5q96 0 149 22z" />
    <glyph glyph-name="uniFB8B" unicode="&#x698;" horiz-adv-x="873" arabic-form="final" 
d="M607 297.5q51 -91.5 113 -129t153 -37.5l-24 -131q-68 0 -119 19t-94 63q-10 -159 -91.5 -298t-204 -221t-246.5 -82q-33 0 -65 9.5t-72 26.5q-8 3 -20 8t-28 10v12q166 10 332 96t272.5 211t107.5 245q-44 49 -85.5 132.5t-91.5 216.5q11 17 25 49.5t22 60.5h13
q52 -169 103 -260.5zM428 1060q-33 26 -56 37v12l83 101q32 -13 65 -40t50 -51l-87 -107q-22 22 -55 48zM712.5 891q-12.5 -30 -17.5 -47q-94 -6 -188 -10t-139 -4q-87 0 -126 13.5t-39 47.5q0 14 10 46q6 20 8 30h12q0 -24 32.5 -35t114.5 -11q36 0 151.5 4t202.5 9
q-9 -13 -21.5 -43z" />
    <glyph glyph-name="uniFB8D" unicode="&#x691;" horiz-adv-x="873" arabic-form="final" 
d="M607 297.5q51 -91.5 113 -129t153 -37.5l-24 -131q-68 0 -119 19t-94 63q-10 -159 -91.5 -298t-204 -221t-246.5 -82q-33 0 -65 9.5t-72 26.5q-8 3 -20 8t-28 10v12q166 10 332 96t272.5 211t107.5 245q-44 49 -85.5 132.5t-91.5 216.5q11 17 25 49.5t22 60.5h13
q52 -169 103 -260.5zM633 1062.5q32 -32.5 32 -89.5q0 -74 -61 -114.5t-163 -40.5q-71 0 -106.5 13t-70.5 39l-25 17v12q42 -14 80 -19q31 54 44.5 101t13.5 110q0 27 -5 75t-12 105q23 27 30 51h12q0 -20 1 -39.5t2 -36.5q4 -66 4 -99q0 -68 -7.5 -106t-34.5 -87
q46 70 91 105.5t94 35.5t81 -32.5zM595 895q53 22 53 59q0 36 -29 62t-78 26q-57 0 -106.5 -40.5t-96.5 -123.5q50 -5 108 -5q96 0 149 22z" />
    <glyph glyph-name="uniFB8F" unicode="&#x6a9;" horiz-adv-x="2120" arabic-form="final" 
d="M1885.5 44.5q-92.5 44.5 -179 146.5t-188.5 283h-13q10 -37 10 -68q-4 -147 -83.5 -238.5t-246 -135.5t-431.5 -44q-319 0 -467 98t-148 300q0 138 57 291h16q-20 -63 -30.5 -116.5t-10.5 -111.5q0 -155 145 -242.5t456 -87.5q265 0 427 38t230 95.5t68 120.5
q0 126 -155.5 271t-480.5 308q35 87 53 149q7 23 19 34.5t39 22.5l979 382l9 -6q-41 -72 -57 -130l-988 -352v-12q210 -110 340.5 -204.5t202 -172t156.5 -191.5q83 -111 140 -175q85 -93 168 -129.5t198 -36.5l-21 -131q-121 0 -213.5 44.5z" />
    <glyph glyph-name="uniFB90" unicode="&#x6a9;" horiz-adv-x="913" arabic-form="initial" 
d="M626 167.5q-69 -88.5 -217 -128t-397 -39.5h-36q-23 0 -33 13t-10 36q0 41 15.5 61.5t51.5 20.5h36q327 0 484 63t157 182q0 78 -76.5 173t-223 198t-353.5 205q14 34 30.5 77t24.5 72q6 22 18 33t40 24l856 382l11 -6q-19 -32 -34.5 -67t-23.5 -63l-867 -352v-12
q231 -121 366 -226t192.5 -203t57.5 -205q0 -150 -69 -238.5z" />
    <glyph glyph-name="uniFB91" unicode="&#x6a9;" horiz-adv-x="1284" arabic-form="medial" 
d="M1050.5 44.5q-92.5 44.5 -179 146.5t-188.5 283h-12q8 -44 8 -68q-3 -147 -68 -235.5t-209.5 -129.5t-389.5 -41h-36q-23 0 -33 13t-10 36q0 41 15.5 61.5t51.5 20.5h36q321 0 473 63t152 179q0 126 -155.5 271t-481.5 308q14 34 30.5 77t24.5 72q6 23 18.5 34.5
t39.5 22.5l977 382l11 -6q-36 -59 -58 -130l-988 -352v-12q210 -109 340 -204t201.5 -172t157.5 -191q32 -43 68 -89t73 -87q84 -93 167 -129.5t198 -36.5l-21 -131q-120 0 -212.5 44.5z" />
    <glyph glyph-name="uniFB93" unicode="&#x6af;" horiz-adv-x="2120" arabic-form="final" 
d="M1776 1610l-806 -325l18 57l822 341zM1885.5 44.5q-92.5 44.5 -179 146.5t-188.5 283h-13q10 -37 10 -68q-4 -147 -83.5 -238.5t-246 -135.5t-431.5 -44q-319 0 -467 98t-148 300q0 138 57 291h16q-20 -63 -30.5 -116.5t-10.5 -111.5q0 -155 145 -242.5t456 -87.5
q265 0 427 38t230 95.5t68 120.5q0 126 -155.5 271t-480.5 308q35 87 53 149q7 23 19 34.5t39 22.5l979 382l9 -6q-41 -72 -57 -130l-988 -352v-12q210 -110 340.5 -204.5t202 -172t156.5 -191.5q83 -111 140 -175q85 -93 168 -129.5t198 -36.5l-21 -131q-121 0 -213.5 44.5
z" />
    <glyph glyph-name="uniFB94" unicode="&#x6af;" horiz-adv-x="913" arabic-form="initial" 
d="M824 1610l-684 -315l18 57l700 331zM626 167.5q-69 -88.5 -217 -128t-397 -39.5h-36q-23 0 -33 13t-10 36q0 41 15.5 61.5t51.5 20.5h36q327 0 484 63t157 182q0 78 -76.5 173t-223 198t-353.5 205q14 34 30.5 77t24.5 72q6 22 18 33t40 24l856 382l11 -6
q-19 -32 -34.5 -67t-23.5 -63l-867 -352v-12q231 -121 366 -226t192.5 -203t57.5 -205q0 -150 -69 -238.5z" />
    <glyph glyph-name="uniFB95" unicode="&#x6af;" horiz-adv-x="1284" arabic-form="medial" 
d="M946 1610l-806 -325l18 57l821 341zM1050.5 44.5q-92.5 44.5 -179 146.5t-188.5 283h-12q8 -44 8 -68q-3 -147 -68 -235.5t-209.5 -129.5t-389.5 -41h-36q-23 0 -33 13t-10 36q0 41 15.5 61.5t51.5 20.5h36q321 0 473 63t152 179q0 126 -155.5 271t-481.5 308
q14 34 30.5 77t24.5 72q6 23 18.5 34.5t39.5 22.5l977 382l11 -6q-36 -59 -58 -130l-988 -352v-12q210 -109 340 -204t201.5 -172t157.5 -191q32 -43 68 -89t73 -87q84 -93 167 -129.5t198 -36.5l-21 -131q-120 0 -212.5 44.5z" />
    <glyph glyph-name="uniFB9F" unicode="&#x6ba;" horiz-adv-x="1531" arabic-form="final" 
d="M1294 303.5q48 -93.5 104 -133t133 -39.5l-24 -131q-67 0 -120 30t-86 86v-25q0 -189 -81.5 -329.5t-230.5 -216.5t-347 -76q-160 0 -272.5 56.5t-171.5 163.5t-59 258q0 205 85 408h16q-30 -66 -50 -163.5t-20 -181.5q0 -129 57.5 -221t168 -140.5t265.5 -48.5
q180 0 321 60.5t219.5 165.5t78.5 235q0 53 -33.5 143t-109.5 251q12 19 26.5 51t21.5 58h13q48 -167 96 -260.5z" />
    <glyph glyph-name="uniFBA7" unicode="&#x6c1;" horiz-adv-x="1173" arabic-form="final" 
d="M838 261q38 -67 119.5 -98.5t215.5 -31.5l-24 -131q-146 0 -234.5 39.5t-129 121.5t-40.5 213q0 123 8 230q-147 -93 -334 -236.5t-268 -222.5h-12q26 71 33 107l59 51q149 130 287 242t294 217h12q-12 -83 -18 -171.5t-6 -153.5q0 -109 38 -176z" />
    <glyph glyph-name="uniFBA8" unicode="&#x6c1;" horiz-adv-x="546" arabic-form="initial" 
d="M312 696q41 -91 67.5 -181.5t26.5 -207.5q0 -156 -107.5 -231.5t-322.5 -75.5q-23 0 -33 13t-10 36q0 41 15.5 61.5t51.5 20.5q120 0 207.5 18t133.5 51t46 77q0 70 -51.5 172.5t-111.5 172.5q13 16 30 53t28 71h9q7 -20 21 -50zM203 -49q-56 -63 -88 -127.5t-35 -111.5
q17 8 39 8q35 0 59 -24.5t24 -65.5q0 -44 -27.5 -70.5t-68.5 -26.5q-44 0 -70.5 31.5t-26.5 83.5q0 77 49.5 162t135.5 149z" />
    <glyph glyph-name="uniFBA9" unicode="&#x6c1;" horiz-adv-x="982" arabic-form="medial" 
d="M704 -54q-67 -54 -67 -139q0 -62 21 -113t69 -115q-12 -20 -26 -54.5t-19 -58.5q-135 43 -220.5 104t-128 148t-42.5 209q0 99 38 249h-12q-48 -95 -121 -135.5t-193 -40.5h-27q-25 0 -34 15t-9 34q0 30 14.5 56t52.5 26h28q132 0 213.5 49t126.5 164h12
q-20 -89 -30 -160t-10 -144q0 -114 35.5 -199t115 -150.5t210.5 -115.5l5 12q-50 62 -73 120t-23 126q0 82 36.5 149.5t111.5 108t185 40.5h39l-24 -131h-39q-148 0 -215 -54z" />
    <glyph glyph-name="uniFBAB" unicode="&#x6be;" horiz-adv-x="1416" arabic-form="final" 
d="M1416 131l-24 -131h-40q-148 0 -214.5 -54t-66.5 -139q0 -62 21 -113t69 -115q-12 -18 -26 -53t-20 -60q-230 53 -368 167.5t-170 270.5q-153 -50 -258 -50q-48 0 -81 14t-81 44l-38 24v12q72 0 196 17t253 47q3 151 52.5 295t111.5 252.5t143 228.5q6 10 33 50.5
t37 62.5h12q13 -73 30.5 -140t44.5 -160q30 -100 44.5 -162.5t14.5 -113.5q0 -57 -33 -116.5t-96 -113t-152 -91.5q-84 -45 -177 -80q44 -116 172 -207t329 -142l6 12q-51 62 -74 120t-23 126q0 81 36.5 149t111.5 108.5t185 40.5h40zM612 23q198 49 325.5 114t127.5 139
q0 30 -17 83t-55 155q-34 90 -55 150.5t-38 121.5q-154 -224 -221.5 -399.5t-67.5 -343.5q0 -14 1 -20z" />
    <glyph glyph-name="uniFBAC" unicode="&#x6be;" horiz-adv-x="1255" arabic-form="initial" 
d="M1080 139q-35 -89 -106 -175q-234 79 -516 153q-99 -66 -220.5 -91.5t-261.5 -25.5q-25 0 -34 15t-9 34q0 30 14.5 56t52.5 26q99 0 183 8t161 37q-100 41 -147.5 103t-47.5 149q0 83 33.5 160t89 132.5t119.5 78.5l-39 21q-96 52 -112 59q11 24 18 56.5t8 56.5h12
q90 -74 358 -210q191 -97 293 -167.5t144 -137.5t42 -152q0 -97 -35 -186zM249.5 333q75.5 -69 222.5 -118q109 54 169 114.5t60 125.5q0 78 -35 140t-94 96t-129 34q-69 0 -131 -35t-100 -92t-38 -119q0 -77 75.5 -146zM1049.5 386q-33.5 53 -116 111.5t-240.5 143.5
q26 -66 26 -144q0 -92 -41.5 -166t-120.5 -137q249 -58 453 -124q73 102 73 197q0 66 -33.5 119z" />
    <glyph glyph-name="uniFBAD" unicode="&#x6be;" horiz-adv-x="1004" arabic-form="medial" 
d="M841.5 3.5q-54.5 3.5 -124.5 14.5v-12q64 -38 93.5 -80t29.5 -106q0 -88 -40 -154t-115 -102.5t-175 -36.5q-126 0 -215.5 57.5t-135.5 160t-46 237.5v18h-137q-24 0 -33.5 15t-9.5 34q0 30 15 56t53 26h125q25 142 89.5 274t132 227.5t154.5 202.5q58 69 69 90h12
q0 -87 11.5 -180t32.5 -222q2 -14 10 -65t11.5 -84.5t3.5 -54.5q0 -61 -59.5 -112t-176.5 -82v-12q95 11 166 14.5t232 3.5h190l-24 -131q-84 0 -138.5 3.5zM573 353.5q-7 50.5 -21 134.5q-18 110 -28.5 186.5t-11.5 137.5q-150 -175 -242 -354t-112 -333q136 0 231 19
t143 52t48 77q0 30 -7 80.5zM772 -88.5q-50 49.5 -149 76.5t-243 27q-99 0 -225 -13q8 -110 56 -190t131.5 -123.5t196.5 -43.5q86 0 150 22t98.5 57t34.5 72q0 66 -50 115.5z" />
    <glyph glyph-name="uniFBAF" unicode="&#x6d2;" horiz-adv-x="1315" arabic-form="final" 
d="M414 -37.5q-116 -37.5 -183.5 -96.5t-67.5 -121q0 -78 112 -118t337 -40q188 0 334.5 2.5t241.5 10.5v-13q-20 -21 -46 -55.5t-37 -58.5q-62 3 -154 3q-65 0 -195 -2l-168 -1q-156 0 -254 21.5t-146.5 70.5t-48.5 132q0 113 70.5 213t196.5 160.5t285 60.5h624l-24 -131
h-624q-137 0 -253 -37.5z" />
    <glyph glyph-name="uniFBB1" unicode="&#x6d3;" horiz-adv-x="840" arabic-form="final" 
d="M457 412q-78 9 -119 43.5t-41 90.5q0 59 26.5 113.5t71.5 88.5t96 34q50 0 80.5 -30t30.5 -82q0 -14 -5 -44h-12q-2 47 -27 68t-72 21q-48 0 -87 -20.5t-61.5 -52t-22.5 -62.5q0 -28 21 -51.5t59.5 -37.5t87.5 -14q55 0 120 10.5t93 24.5v-12q-8 -13 -16 -33t-12 -36
q-142 -30 -236 -79.5t-135 -102.5h-12q46 101 172 163zM414 -37.5q-116 -37.5 -183.5 -96.5t-67.5 -121q0 -78 112 -118t337 -40q188 0 334.5 2.5t241.5 10.5v-13q-20 -21 -46 -55.5t-37 -58.5q-62 3 -154 3q-65 0 -195 -2l-168 -1q-156 0 -254 21.5t-146.5 70.5t-48.5 132
q0 113 70.5 213t196.5 160.5t285 60.5h624l-24 -131h-624q-137 0 -253 -37.5z" />
    <glyph glyph-name="uniFBDA" unicode="&#x6c6;" horiz-adv-x="976" arabic-form="final" 
d="M951 0h-128q-27 -147 -113.5 -265.5t-209 -186t-254.5 -67.5q-32 0 -66.5 10t-84.5 29q-10 3 -34 12t-41 13v12q181 2 351 65.5t287 167.5t147 221q-183 -11 -338 -11q-144 0 -214.5 71.5t-70.5 205.5q0 119 42.5 216t114.5 152.5t158 55.5q103 0 178.5 -63.5t117.5 -191
t42 -315.5h141zM269 182q66 -57 210 -57q211 0 334 2q-6 150 -49 256t-117 160.5t-171 54.5q-69 0 -132 -35.5t-102 -98.5t-39 -139q0 -86 66 -143zM640 1295q4 -17 8 -26q-73 -95 -110 -186t-45 -189l-13 -2q-8 110 -53 197t-130 166q15 24 25 55h12q12 -17 36 -47
q49 -60 80.5 -117.5t43.5 -144.5h7q8 69 22 117t30 79.5t42 74.5q16 26 29 49h12q0 -9 4 -26z" />
    <glyph glyph-name="uniFBE3" unicode="&#x6c9;" horiz-adv-x="976" arabic-form="final" 
d="M322 982q-3 12 -10 28t-14 27q85 80 130 166.5t53 196.5l12 -2q8 -98 45 -189t110 -186q-4 -9 -8 -26t-4 -26h-12q-13 23 -29 49q-26 43 -42 74.5t-30 79.5t-22 117h-7q-8 -61 -28 -109.5t-42 -81t-55 -73.5q-24 -29 -35 -45h-12zM951 0h-128q-27 -147 -113.5 -265.5
t-209 -186t-254.5 -67.5q-32 0 -66.5 10t-84.5 29q-10 3 -34 12t-41 13v12q181 2 351 65.5t287 167.5t147 221q-183 -11 -338 -11q-144 0 -214.5 71.5t-70.5 205.5q0 119 42.5 216t114.5 152.5t158 55.5q103 0 178.5 -63.5t117.5 -191t42 -315.5h141zM269 182
q66 -57 210 -57q211 0 334 2q-6 150 -49 256t-117 160.5t-171 54.5q-69 0 -132 -35.5t-102 -98.5t-39 -139q0 -86 66 -143z" />
    <glyph glyph-name="uniFBE8" unicode="&#x649;" horiz-adv-x="546" arabic-form="initial" 
d="M298.5 75.5q-107.5 -75.5 -322.5 -75.5q-23 0 -33 13t-10 36q0 41 15.5 61.5t51.5 20.5q120 0 207.5 18t133.5 51t46 77q0 70 -51.5 172.5t-111.5 172.5q13 16 30 53t28 71h9q7 -20 21 -50q41 -91 67.5 -181.5t26.5 -207.5q0 -156 -107.5 -231.5z" />
    <glyph glyph-name="uniFBE9" unicode="&#x649;" horiz-adv-x="709" arabic-form="medial" 
d="M540 24.5q-56 24.5 -84.5 81t-28.5 151.5q0 38 2 59h-12q-15 -117 -63 -185.5t-139.5 -99.5t-238.5 -31q-23 0 -33 13t-10 36q0 41 15.5 61.5t51.5 20.5q167 0 255.5 33t128.5 109.5t56 221.5h15v-85q0 -109 22 -168.5t76.5 -85t155.5 -25.5l-24 -131q-89 0 -145 24.5z
" />
    <glyph glyph-name="uniFBFD" unicode="&#x6cc;" horiz-adv-x="1375" arabic-form="final" 
d="M1351 0q-82 0 -153 3q53 -24 76 -54t23 -74q0 -129 -80 -232.5t-228.5 -163t-346.5 -59.5q-159 0 -272 56.5t-172 164t-59 258.5q0 207 82 402h15q-28 -63 -47.5 -160.5t-19.5 -179.5q0 -128 57.5 -220.5t168 -141t265.5 -48.5q186 0 326.5 47.5t215 117t74.5 132.5
q0 43 -45.5 69.5t-114 41t-187.5 31.5q-107 17 -168.5 28t-118.5 28v12q41 52 64 106q102 -20 256.5 -26.5t412.5 -6.5z" />
    <glyph glyph-name="uniFBFE" unicode="&#x6cc;" horiz-adv-x="546" arabic-form="initial" 
d="M298.5 75.5q-107.5 -75.5 -322.5 -75.5q-23 0 -33 13t-10 36q0 41 15.5 61.5t51.5 20.5q120 0 207.5 18t133.5 51t46 77q0 70 -51.5 172.5t-111.5 172.5q13 16 30 53t28 71h9q7 -20 21 -50q41 -91 67.5 -181.5t26.5 -207.5q0 -156 -107.5 -231.5zM-148.5 -317.5
q12.5 31.5 17.5 48.5q94 6 188 10t139 4q87 0 126 -13.5t39 -47.5q0 -13 -10 -47q-6 -22 -8 -33h-12q0 24 -32.5 35t-114.5 11q-45 0 -168.5 -4t-184.5 -9q8 14 20.5 45.5z" />
    <glyph glyph-name="uniFBFF" unicode="&#x6cc;" horiz-adv-x="709" arabic-form="medial" 
d="M540 24.5q-56 24.5 -84.5 81t-28.5 151.5q0 38 2 59h-12q-15 -117 -63 -185.5t-139.5 -99.5t-238.5 -31q-23 0 -33 13t-10 36q0 41 15.5 61.5t51.5 20.5q167 0 255.5 33t128.5 109.5t56 221.5h15v-85q0 -109 22 -168.5t76.5 -85t155.5 -25.5l-24 -131q-89 0 -145 24.5z
M-172.5 -317.5q12.5 31.5 17.5 48.5q94 6 188 10t139 4q87 0 126 -13.5t39 -47.5q0 -13 -10 -47q-6 -22 -8 -33h-12q0 24 -32.5 35t-114.5 11q-45 0 -168.5 -4t-184.5 -9q8 14 20.5 45.5z" />
    <glyph glyph-name="uniFC5E" unicode="&#xfc5e;" arabic-form="isolated" 
d="M244 219q0 -66 -31 -106t-87 -40q-35 0 -65.5 20t-40.5 50q-11 -69 -51.5 -112t-104.5 -43q-52 0 -79.5 34.5t-27.5 91.5q0 32 7 61l21 11q-3 -22 -3 -43q0 -51 20 -80t63 -29q63 0 99 40.5t36 125.5q0 11 -2 41l25 14q5 -63 32 -99.5t73 -36.5q43 0 64.5 30t21.5 81
q0 56 -26 123l22 15q34 -78 34 -149zM183.5 777.5q26.5 -39.5 26.5 -113.5q0 -54 -23 -105.5t-68 -86.5q-57 -44 -139.5 -76t-209.5 -62l6 46q52 77 52 116q0 12 -8.5 18t-22.5 6q-15 0 -29 -4t-39 -13q-33 -13 -60.5 -20t-62.5 -7l9 40q29 1 52.5 7.5t56.5 18.5
q31 11 48.5 15.5t36.5 4.5q20 0 31.5 -12.5t11.5 -35.5q0 -52 -35 -124q84 21 155 48.5t122 57.5q-97 44 -133.5 78t-36.5 67q0 39 28 81t71 69.5t84 27.5q50 -2 76.5 -41.5zM-3 600q50 -33 141 -70q23 27 35 57.5t12 60.5q0 60 -24.5 92.5t-64.5 32.5q-37 0 -71.5 -20.5
t-56 -49t-21.5 -47.5q0 -23 50 -56z" />
    <glyph glyph-name="uniFC5F" unicode="&#xfc5f;" arabic-form="isolated" 
d="M249 366l-467 -208l6 46l467 208zM237 182l-467 -209l6 46l466 207zM228 637q0 -66 -31 -106t-87 -40q-35 0 -65.5 20t-40.5 50q-11 -69 -51.5 -112t-104.5 -43q-52 0 -79.5 34.5t-27.5 91.5q0 32 7 61l21 11q-3 -22 -3 -43q0 -51 20 -80t63 -29q63 0 99 40.5t36 125.5
q0 11 -2 41l25 14q5 -63 32 -99.5t73 -36.5q43 0 64.5 30t21.5 81q0 56 -26 123l22 15q34 -78 34 -149z" />
    <glyph glyph-name="uniFC60" unicode="&#xfc60;" arabic-form="isolated" 
d="M244 219q0 -66 -31 -106t-87 -40q-35 0 -65.5 20t-40.5 50q-11 -69 -51.5 -112t-104.5 -43q-52 0 -79.5 34.5t-27.5 91.5q0 32 7 61l21 11q-3 -22 -3 -43q0 -51 20 -80t63 -29q63 0 99 40.5t36 125.5q0 11 -2 41l25 14q5 -63 32 -99.5t73 -36.5q43 0 64.5 30t21.5 81
q0 56 -26 123l22 15q34 -78 34 -149zM213 542l-467 -208l6 46l466 208z" />
    <glyph glyph-name="uniFC61" unicode="&#xfc61;" arabic-form="isolated" 
d="M244 219q0 -66 -31 -106t-87 -40q-35 0 -65.5 20t-40.5 50q-11 -69 -51.5 -112t-104.5 -43q-52 0 -79.5 34.5t-27.5 91.5q0 32 7 61l21 11q-3 -22 -3 -43q0 -51 20 -80t63 -29q63 0 99 40.5t36 125.5q0 11 -2 41l25 14q5 -63 32 -99.5t73 -36.5q43 0 64.5 30t21.5 81
q0 56 -26 123l22 15q34 -78 34 -149zM159 777q27 -40 27 -113q0 -54 -23 -105.5t-68 -86.5q-58 -44 -140 -76.5t-209 -61.5l6 46q94 21 177 52t141 64q-98 44 -134.5 78t-36.5 67q0 39 28.5 81t71.5 69.5t84 27.5q49 -2 76 -42zM-28 600q50 -33 142 -70q23 27 35 57.5
t12 60.5q0 60 -24.5 92.5t-64.5 32.5q-37 0 -71.5 -20.5t-56.5 -49t-22 -47.5q0 -23 50 -56z" />
    <glyph glyph-name="uniFC62" unicode="&#xfc62;" arabic-form="isolated" 
d="M237 180l-467 -208l6 46l466 209zM220 461q0 -66 -31 -106t-87 -40q-35 0 -65.5 20t-40.5 50q-11 -69 -51.5 -112t-104.5 -43q-52 0 -79.5 34.5t-27.5 91.5q0 32 7 61l21 11q-3 -22 -3 -43q0 -51 20 -80t63 -29q63 0 99 40.5t36 125.5q0 11 -2 41l25 14q5 -63 32 -99.5
t73 -36.5q43 0 64.5 30t21.5 81q0 56 -26 123l22 15q34 -78 34 -149z" />
    <glyph glyph-name="uniFC63" unicode="&#xfc63;" arabic-form="isolated" 
d="M244 219q0 -66 -31 -106t-87 -40q-35 0 -65.5 20t-40.5 50q-11 -69 -51.5 -112t-104.5 -43q-52 0 -79.5 34.5t-27.5 91.5q0 32 7 61l21 11q-3 -22 -3 -43q0 -51 20 -80t63 -29q63 0 99 40.5t36 125.5q0 11 -2 41l25 14q5 -63 32 -99.5t73 -36.5q43 0 64.5 30t21.5 81
q0 56 -26 123l22 15q34 -78 34 -149zM16 360l-28 -14l-10 406l48 30z" />
    <glyph glyph-name="uniFC64" unicode="&#xfc64;" horiz-adv-x="1452" arabic-form="final" 
d="M1107 616q0 -201 30 -303.5t102.5 -142t212.5 -39.5l-24 -131q-133 0 -205.5 48.5t-103 158.5t-30.5 309v46h-13q-31 -65 -162.5 -100.5t-354.5 -37.5q44 -86 60.5 -154.5t16.5 -141.5q0 -170 -79 -319.5t-205 -238.5t-258 -89q-34 0 -64.5 9t-74.5 27q-26 11 -46 18v12
q166 11 331.5 96t271.5 207t106 235q0 51 -46.5 147t-139.5 208q15 22 29 51.5t22 57.5q272 0 416.5 26.5t195.5 88.5h12v-48zM903 1033.5q65 10.5 94 24.5v-12q-8 -13 -16 -33t-12 -36q-142 -30 -236.5 -79.5t-135.5 -102.5h-12q46 101 172 163q-78 9 -119 43.5t-41 90.5
q0 59 27 113.5t71.5 88.5t96.5 34q49 0 79.5 -30t30.5 -82q0 -24 -5 -44h-12q-1 47 -26 68t-72 21q-48 0 -87.5 -20.5t-62 -52t-22.5 -62.5q0 -28 21 -51.5t59.5 -37.5t87.5 -14q55 0 120 10.5z" />
    <glyph glyph-name="uniFC65" unicode="&#xfc65;" horiz-adv-x="1452" arabic-form="final" 
d="M1107 616q0 -201 30 -303.5t102.5 -142t212.5 -39.5l-24 -131q-133 0 -205.5 48.5t-103 158.5t-30.5 309v46h-13q-31 -65 -162.5 -100.5t-354.5 -37.5q44 -86 60.5 -154.5t16.5 -141.5q0 -170 -79 -319.5t-205 -238.5t-258 -89q-34 0 -64.5 9t-74.5 27q-26 11 -46 18v12
q166 11 331.5 96t271.5 207t106 235q0 51 -46.5 147t-139.5 208q15 22 29 51.5t22 57.5q272 0 416.5 26.5t195.5 88.5h12v-48zM424.5 857q-34.5 28 -59.5 40v12l89 107q33 -14 68 -44t53 -57l-97 -109q-19 23 -53.5 51zM1103 1033.5q65 10.5 94 24.5v-12q-8 -13 -16 -33
t-12 -36q-142 -30 -236.5 -79.5t-135.5 -102.5h-12q46 101 172 163q-78 9 -119 43.5t-41 90.5q0 59 27 113.5t71.5 88.5t96.5 34q49 0 79.5 -30t30.5 -82q0 -24 -5 -44h-12q-1 47 -26 68t-72 21q-48 0 -87.5 -20.5t-62 -52t-22.5 -62.5q0 -28 21 -51.5t59.5 -37.5t87.5 -14
q55 0 120 10.5z" />
    <glyph glyph-name="uniFC67" unicode="&#xfc67;" horiz-adv-x="2134" arabic-form="final" 
d="M1788 616q0 -201 30 -303.5t102.5 -142t213.5 -39.5l-25 -131q-133 0 -205.5 48.5t-103 159t-30.5 308.5v46h-12q-32 -66 -165.5 -101.5t-359.5 -36.5q68 -173 68 -333q0 -189 -81.5 -329.5t-230.5 -216.5t-347 -76q-160 0 -272.5 56.5t-171.5 163.5t-59 258
q0 205 85 408h16q-30 -66 -50 -163.5t-20 -181.5q0 -129 57.5 -221t168 -140.5t265.5 -48.5q180 0 321 60.5t219.5 165.5t78.5 235q0 77 -39.5 167t-127.5 212q15 22 29 51.5t22 57.5q272 0 416 26.5t196 88.5h12v-48zM1585 1033.5q65 10.5 94 24.5v-12q-8 -13 -16 -33
t-12 -36q-142 -30 -236.5 -79.5t-135.5 -102.5h-12q46 101 172 163q-78 9 -119 43.5t-41 90.5q0 59 27 113.5t71.5 88.5t96.5 34q49 0 79.5 -30t30.5 -82q0 -24 -5 -44h-12q-1 47 -26 68t-72 21q-48 0 -87.5 -20.5t-62 -52t-22.5 -62.5q0 -28 21 -51.5t59.5 -37.5t87.5 -14
q55 0 120 10.5zM628.5 342q-34.5 28 -59.5 40v12l89 107q33 -14 68 -44t53 -57l-97 -109q-19 23 -53.5 51z" />
    <glyph glyph-name="uniFC69" unicode="&#xfc69;" horiz-adv-x="1940" arabic-form="final" 
d="M1567.5 68q-116.5 68 -154 194.5t-37.5 343.5q-239 0 -405 -34t-249 -91t-83 -126q0 -73 62.5 -105.5t198.5 -37.5l150 -6q96 -4 151.5 -25t80 -61.5t24.5 -107.5q0 -164 -81 -289.5t-231 -195.5t-352 -70q-160 0 -273 56t-171.5 163.5t-58.5 258.5q0 207 85 408h15
q-30 -68 -50 -165.5t-20 -180.5q0 -129 57.5 -221t168 -140.5t265.5 -48.5q180 0 323 56t223 144.5t80 181.5q0 55 -56 83.5t-194 34.5l-151 6q-98 4 -156.5 24t-86 63.5t-27.5 118.5q0 126 87 219t260.5 144t425.5 51q2 -205 39 -325.5t156 -188.5t357 -68l-25 -131
q-231 0 -347.5 68zM1205 1124.5q65 10.5 94 24.5v-12q-8 -13 -16 -33t-12 -36q-142 -30 -236.5 -79.5t-135.5 -102.5h-12q46 101 172 163q-78 9 -119 43.5t-41 90.5q0 59 27 113.5t71.5 88.5t96.5 34q49 0 79.5 -30t30.5 -82q0 -24 -5 -44h-12q-1 47 -26 68t-72 21
q-48 0 -87.5 -20.5t-62 -52t-22.5 -62.5q0 -28 21 -51.5t59.5 -37.5t87.5 -14q55 0 120 10.5z" />
    <glyph glyph-name="uniFC6A" unicode="&#xfc6a;" horiz-adv-x="1452" arabic-form="final" 
d="M1107 616q0 -201 30 -303.5t102.5 -142t212.5 -39.5l-24 -131q-133 0 -205.5 48.5t-103 158.5t-30.5 309v46h-13q-31 -65 -162.5 -100.5t-354.5 -37.5q44 -86 60.5 -154.5t16.5 -141.5q0 -170 -79 -319.5t-205 -238.5t-258 -89q-34 0 -64.5 9t-74.5 27q-26 11 -46 18v12
q166 11 331.5 96t271.5 207t106 235q0 51 -46.5 147t-139.5 208q15 22 29 51.5t22 57.5q272 0 416.5 26.5t195.5 88.5h12v-48zM911 -389.5q-35 28.5 -59 39.5v12l89 107q32 -13 67.5 -43t53.5 -58l-97 -109q-19 23 -54 51.5z" />
    <glyph glyph-name="uniFC6B" unicode="&#xfc6b;" horiz-adv-x="1452" arabic-form="final" 
d="M1107 616q0 -201 30 -303.5t102.5 -142t212.5 -39.5l-24 -131q-133 0 -205.5 48.5t-103 158.5t-30.5 309v46h-13q-31 -65 -162.5 -100.5t-354.5 -37.5q44 -86 60.5 -154.5t16.5 -141.5q0 -170 -79 -319.5t-205 -238.5t-258 -89q-34 0 -64.5 9t-74.5 27q-26 11 -46 18v12
q166 11 331.5 96t271.5 207t106 235q0 51 -46.5 147t-139.5 208q15 22 29 51.5t22 57.5q272 0 416.5 26.5t195.5 88.5h12v-48zM424.5 857q-34.5 28 -59.5 40v12l89 107q33 -14 68 -44t53 -57l-97 -109q-19 23 -53.5 51zM911 -389.5q-35 28.5 -59 39.5v12l89 107
q32 -13 67.5 -43t53.5 -58l-97 -109q-19 23 -54 51.5z" />
    <glyph glyph-name="uniFC6D" unicode="&#xfc6d;" horiz-adv-x="2134" arabic-form="final" 
d="M1788 616q0 -201 30 -303.5t102.5 -142t213.5 -39.5l-25 -131q-133 0 -205.5 48.5t-103 159t-30.5 308.5v46h-12q-32 -66 -165.5 -101.5t-359.5 -36.5q68 -173 68 -333q0 -189 -81.5 -329.5t-230.5 -216.5t-347 -76q-160 0 -272.5 56.5t-171.5 163.5t-59 258
q0 205 85 408h16q-30 -66 -50 -163.5t-20 -181.5q0 -129 57.5 -221t168 -140.5t265.5 -48.5q180 0 321 60.5t219.5 165.5t78.5 235q0 77 -39.5 167t-127.5 212q15 22 29 51.5t22 57.5q272 0 416 26.5t196 88.5h12v-48zM1594 -389.5q-35 28.5 -59 39.5v12l89 107
q32 -13 67.5 -43t53.5 -58l-97 -109q-19 23 -54 51.5zM628.5 342q-34.5 28 -59.5 40v12l89 107q33 -14 68 -44t53 -57l-97 -109q-19 23 -53.5 51z" />
    <glyph glyph-name="uniFC6F" unicode="&#xfc6f;" horiz-adv-x="1940" arabic-form="final" 
d="M1567.5 68q-116.5 68 -154 194.5t-37.5 343.5q-239 0 -405 -34t-249 -91t-83 -126q0 -73 62.5 -105.5t198.5 -37.5l150 -6q96 -4 151.5 -25t80 -61.5t24.5 -107.5q0 -164 -81 -289.5t-231 -195.5t-352 -70q-160 0 -273 56t-171.5 163.5t-58.5 258.5q0 207 85 408h15
q-30 -68 -50 -165.5t-20 -180.5q0 -129 57.5 -221t168 -140.5t265.5 -48.5q180 0 323 56t223 144.5t80 181.5q0 55 -56 83.5t-194 34.5l-151 6q-98 4 -156.5 24t-86 63.5t-27.5 118.5q0 126 87 219t260.5 144t425.5 51q2 -205 39 -325.5t156 -188.5t357 -68l-25 -131
q-231 0 -347.5 68zM1519 -389.5q-35 28.5 -59 39.5v12l89 107q32 -13 67.5 -43t53.5 -58l-97 -109q-19 23 -54 51.5z" />
    <glyph glyph-name="uniFC70" unicode="&#xfc70;" horiz-adv-x="1452" arabic-form="final" 
d="M1107 616q0 -201 30 -303.5t102.5 -142t212.5 -39.5l-24 -131q-133 0 -205.5 48.5t-103 158.5t-30.5 309v46h-13q-31 -65 -162.5 -100.5t-354.5 -37.5q44 -86 60.5 -154.5t16.5 -141.5q0 -170 -79 -319.5t-205 -238.5t-258 -89q-34 0 -64.5 9t-74.5 27q-26 11 -46 18v12
q166 11 331.5 96t271.5 207t106 235q0 51 -46.5 147t-139.5 208q15 22 29 51.5t22 57.5q272 0 416.5 26.5t195.5 88.5h12v-48zM1028.5 977.5q-12.5 -31.5 -17.5 -48.5q-94 -6 -188 -10t-139 -4q-87 0 -126 13.5t-39 47.5q0 13 10 47q6 22 8 33h12q0 -24 32.5 -35t114.5 -11
q45 0 168.5 4t184.5 9q-8 -14 -20.5 -45.5z" />
    <glyph glyph-name="uniFC71" unicode="&#xfc71;" horiz-adv-x="1452" arabic-form="final" 
d="M1107 616q0 -201 30 -303.5t102.5 -142t212.5 -39.5l-24 -131q-133 0 -205.5 48.5t-103 158.5t-30.5 309v46h-13q-31 -65 -162.5 -100.5t-354.5 -37.5q44 -86 60.5 -154.5t16.5 -141.5q0 -170 -79 -319.5t-205 -238.5t-258 -89q-34 0 -64.5 9t-74.5 27q-26 11 -46 18v12
q166 11 331.5 96t271.5 207t106 235q0 51 -46.5 147t-139.5 208q15 22 29 51.5t22 57.5q272 0 416.5 26.5t195.5 88.5h12v-48zM414.5 857q-34.5 28 -59.5 40v12l89 107q33 -14 68 -44t53 -57l-97 -109q-19 23 -53.5 51zM1234.5 977.5q-12.5 -31.5 -17.5 -48.5
q-94 -6 -188 -10t-139 -4q-87 0 -126 13.5t-39 47.5q0 13 10 47q6 22 8 33h12q0 -24 32.5 -35t114.5 -11q45 0 168.5 4t184.5 9q-8 -14 -20.5 -45.5z" />
    <glyph glyph-name="uniFC73" unicode="&#xfc73;" horiz-adv-x="2134" arabic-form="final" 
d="M1788 616q0 -201 30 -303.5t102.5 -142t213.5 -39.5l-25 -131q-133 0 -205.5 48.5t-103 159t-30.5 308.5v46h-12q-32 -66 -165.5 -101.5t-359.5 -36.5q68 -173 68 -333q0 -189 -81.5 -329.5t-230.5 -216.5t-347 -76q-160 0 -272.5 56.5t-171.5 163.5t-59 258
q0 205 85 408h16q-30 -66 -50 -163.5t-20 -181.5q0 -129 57.5 -221t168 -140.5t265.5 -48.5q180 0 321 60.5t219.5 165.5t78.5 235q0 77 -39.5 167t-127.5 212q15 22 29 51.5t22 57.5q272 0 416 26.5t196 88.5h12v-48zM1710.5 977.5q-12.5 -31.5 -17.5 -48.5
q-94 -6 -188 -10t-139 -4q-87 0 -126 13.5t-39 47.5q0 13 10 47q6 22 8 33h12q0 -24 32.5 -35t114.5 -11q45 0 168.5 4t184.5 9q-8 -14 -20.5 -45.5zM628.5 342q-34.5 28 -59.5 40v12l89 107q33 -14 68 -44t53 -57l-97 -109q-19 23 -53.5 51z" />
    <glyph glyph-name="uniFC75" unicode="&#xfc75;" horiz-adv-x="1940" arabic-form="final" 
d="M1567.5 68q-116.5 68 -154 194.5t-37.5 343.5q-239 0 -405 -34t-249 -91t-83 -126q0 -73 62.5 -105.5t198.5 -37.5l150 -6q96 -4 151.5 -25t80 -61.5t24.5 -107.5q0 -164 -81 -289.5t-231 -195.5t-352 -70q-160 0 -273 56t-171.5 163.5t-58.5 258.5q0 207 85 408h15
q-30 -68 -50 -165.5t-20 -180.5q0 -129 57.5 -221t168 -140.5t265.5 -48.5q180 0 323 56t223 144.5t80 181.5q0 55 -56 83.5t-194 34.5l-151 6q-98 4 -156.5 24t-86 63.5t-27.5 118.5q0 126 87 219t260.5 144t425.5 51q2 -205 39 -325.5t156 -188.5t357 -68l-25 -131
q-231 0 -347.5 68zM1330.5 1068.5q-12.5 -31.5 -17.5 -48.5q-94 -6 -188 -10t-139 -4q-87 0 -126 13.5t-39 47.5q0 13 10 47q6 22 8 33h12q0 -24 32.5 -35t114.5 -11q45 0 168.5 4t184.5 9q-8 -14 -20.5 -45.5z" />
    <glyph glyph-name="uniFC76" unicode="&#xfc76;" horiz-adv-x="1452" arabic-form="final" 
d="M1107 616q0 -201 30 -303.5t102.5 -142t212.5 -39.5l-24 -131q-133 0 -205.5 48.5t-103 158.5t-30.5 309v46h-13q-31 -65 -162.5 -100.5t-354.5 -37.5q44 -86 60.5 -154.5t16.5 -141.5q0 -170 -79 -319.5t-205 -238.5t-258 -89q-34 0 -64.5 9t-74.5 27q-26 11 -46 18v12
q166 11 331.5 96t271.5 207t106 235q0 51 -46.5 147t-139.5 208q15 22 29 51.5t22 57.5q272 0 416.5 26.5t195.5 88.5h12v-48zM744 1145q-33 26 -56 37v12l83 101q32 -13 65 -40t50 -51l-87 -107q-22 22 -55 48zM1028.5 976q-12.5 -30 -17.5 -47q-94 -6 -188 -10t-139 -4
q-87 0 -126 13.5t-39 47.5q0 14 10 46q6 20 8 30h12q0 -24 32.5 -35t114.5 -11q36 0 151.5 4t202.5 9q-9 -13 -21.5 -43z" />
    <glyph glyph-name="uniFC77" unicode="&#xfc77;" horiz-adv-x="1452" arabic-form="final" 
d="M1107 616q0 -201 30 -303.5t102.5 -142t212.5 -39.5l-24 -131q-133 0 -205.5 48.5t-103 158.5t-30.5 309v46h-13q-31 -65 -162.5 -100.5t-354.5 -37.5q44 -86 60.5 -154.5t16.5 -141.5q0 -170 -79 -319.5t-205 -238.5t-258 -89q-34 0 -64.5 9t-74.5 27q-26 11 -46 18v12
q166 11 331.5 96t271.5 207t106 235q0 51 -46.5 147t-139.5 208q15 22 29 51.5t22 57.5q272 0 416.5 26.5t195.5 88.5h12v-48zM414.5 857q-34.5 28 -59.5 40v12l89 107q33 -14 68 -44t53 -57l-97 -109q-19 23 -53.5 51zM950 1145q-33 26 -56 37v12l83 101q32 -13 65 -40
t50 -51l-87 -107q-22 22 -55 48zM1234.5 976q-12.5 -30 -17.5 -47q-94 -6 -188 -10t-139 -4q-87 0 -126 13.5t-39 47.5q0 14 10 46q6 20 8 30h12q0 -24 32.5 -35t114.5 -11q36 0 151.5 4t202.5 9q-9 -13 -21.5 -43z" />
    <glyph glyph-name="uniFC79" unicode="&#xfc79;" horiz-adv-x="2134" arabic-form="final" 
d="M1788 616q0 -201 30 -303.5t102.5 -142t213.5 -39.5l-25 -131q-133 0 -205.5 48.5t-103 159t-30.5 308.5v46h-12q-32 -66 -165.5 -101.5t-359.5 -36.5q68 -173 68 -333q0 -189 -81.5 -329.5t-230.5 -216.5t-347 -76q-160 0 -272.5 56.5t-171.5 163.5t-59 258
q0 205 85 408h16q-30 -66 -50 -163.5t-20 -181.5q0 -129 57.5 -221t168 -140.5t265.5 -48.5q180 0 321 60.5t219.5 165.5t78.5 235q0 77 -39.5 167t-127.5 212q15 22 29 51.5t22 57.5q272 0 416 26.5t196 88.5h12v-48zM1426 1145q-33 26 -56 37v12l83 101q32 -13 65 -40
t50 -51l-87 -107q-22 22 -55 48zM1710.5 976q-12.5 -30 -17.5 -47q-94 -6 -188 -10t-139 -4q-87 0 -126 13.5t-39 47.5q0 14 10 46q6 20 8 30h12q0 -24 32.5 -35t114.5 -11q36 0 151.5 4t202.5 9q-9 -13 -21.5 -43zM628.5 342q-34.5 28 -59.5 40v12l89 107q33 -14 68 -44
t53 -57l-97 -109q-19 23 -53.5 51z" />
    <glyph glyph-name="uniFC7B" unicode="&#xfc7b;" horiz-adv-x="1940" arabic-form="final" 
d="M1567.5 68q-116.5 68 -154 194.5t-37.5 343.5q-239 0 -405 -34t-249 -91t-83 -126q0 -73 62.5 -105.5t198.5 -37.5l150 -6q96 -4 151.5 -25t80 -61.5t24.5 -107.5q0 -164 -81 -289.5t-231 -195.5t-352 -70q-160 0 -273 56t-171.5 163.5t-58.5 258.5q0 207 85 408h15
q-30 -68 -50 -165.5t-20 -180.5q0 -129 57.5 -221t168 -140.5t265.5 -48.5q180 0 323 56t223 144.5t80 181.5q0 55 -56 83.5t-194 34.5l-151 6q-98 4 -156.5 24t-86 63.5t-27.5 118.5q0 126 87 219t260.5 144t425.5 51q2 -205 39 -325.5t156 -188.5t357 -68l-25 -131
q-231 0 -347.5 68zM1046 1236q-33 26 -56 37v12l83 101q32 -13 65 -40t50 -51l-87 -107q-22 22 -55 48zM1330.5 1067q-12.5 -30 -17.5 -47q-94 -6 -188 -10t-139 -4q-87 0 -126 13.5t-39 47.5q0 14 10 46q6 20 8 30h12q0 -24 32.5 -35t114.5 -11q36 0 151.5 4t202.5 9
q-9 -13 -21.5 -43z" />
    <glyph glyph-name="uniFC8A" unicode="&#xfc8a;" horiz-adv-x="1452" arabic-form="final" 
d="M1107 616q0 -201 30 -303.5t102.5 -142t212.5 -39.5l-24 -131q-133 0 -205.5 48.5t-103 158.5t-30.5 309v46h-13q-31 -65 -162.5 -100.5t-354.5 -37.5q44 -86 60.5 -154.5t16.5 -141.5q0 -170 -79 -319.5t-205 -238.5t-258 -89q-34 0 -64.5 9t-74.5 27q-26 11 -46 18v12
q166 11 331.5 96t271.5 207t106 235q0 51 -46.5 147t-139.5 208q15 22 29 51.5t22 57.5q272 0 416.5 26.5t195.5 88.5h12v-48zM741.5 942q-34.5 28 -59.5 40v12l89 107q33 -14 68 -44t53 -57l-97 -109q-19 23 -53.5 51z" />
    <glyph glyph-name="uniFC8B" unicode="&#xfc8b;" horiz-adv-x="1452" arabic-form="final" 
d="M1107 616q0 -201 30 -303.5t102.5 -142t212.5 -39.5l-24 -131q-133 0 -205.5 48.5t-103 158.5t-30.5 309v46h-13q-31 -65 -162.5 -100.5t-354.5 -37.5q44 -86 60.5 -154.5t16.5 -141.5q0 -170 -79 -319.5t-205 -238.5t-258 -89q-34 0 -64.5 9t-74.5 27q-26 11 -46 18v12
q166 11 331.5 96t271.5 207t106 235q0 51 -46.5 147t-139.5 208q15 22 29 51.5t22 57.5q272 0 416.5 26.5t195.5 88.5h12v-48zM414.5 857q-34.5 28 -59.5 40v12l89 107q33 -14 68 -44t53 -57l-97 -109q-19 23 -53.5 51zM947.5 942q-34.5 28 -59.5 40v12l89 107
q33 -14 68 -44t53 -57l-97 -109q-19 23 -53.5 51z" />
    <glyph glyph-name="uniFC8D" unicode="&#xfc8d;" horiz-adv-x="2134" arabic-form="final" 
d="M1788 616q0 -201 30 -303.5t102.5 -142t213.5 -39.5l-25 -131q-133 0 -205.5 48.5t-103 159t-30.5 308.5v46h-12q-32 -66 -165.5 -101.5t-359.5 -36.5q68 -173 68 -333q0 -189 -81.5 -329.5t-230.5 -216.5t-347 -76q-160 0 -272.5 56.5t-171.5 163.5t-59 258
q0 205 85 408h16q-30 -66 -50 -163.5t-20 -181.5q0 -129 57.5 -221t168 -140.5t265.5 -48.5q180 0 321 60.5t219.5 165.5t78.5 235q0 77 -39.5 167t-127.5 212q15 22 29 51.5t22 57.5q272 0 416 26.5t196 88.5h12v-48zM1423.5 942q-34.5 28 -59.5 40v12l89 107
q33 -14 68 -44t53 -57l-97 -109q-19 23 -53.5 51zM628.5 342q-34.5 28 -59.5 40v12l89 107q33 -14 68 -44t53 -57l-97 -109q-19 23 -53.5 51z" />
    <glyph glyph-name="uniFC8F" unicode="&#xfc8f;" horiz-adv-x="1940" arabic-form="final" 
d="M1567.5 68q-116.5 68 -154 194.5t-37.5 343.5q-239 0 -405 -34t-249 -91t-83 -126q0 -73 62.5 -105.5t198.5 -37.5l150 -6q96 -4 151.5 -25t80 -61.5t24.5 -107.5q0 -164 -81 -289.5t-231 -195.5t-352 -70q-160 0 -273 56t-171.5 163.5t-58.5 258.5q0 207 85 408h15
q-30 -68 -50 -165.5t-20 -180.5q0 -129 57.5 -221t168 -140.5t265.5 -48.5q180 0 323 56t223 144.5t80 181.5q0 55 -56 83.5t-194 34.5l-151 6q-98 4 -156.5 24t-86 63.5t-27.5 118.5q0 126 87 219t260.5 144t425.5 51q2 -205 39 -325.5t156 -188.5t357 -68l-25 -131
q-231 0 -347.5 68zM1043.5 1033q-34.5 28 -59.5 40v12l89 107q33 -14 68 -44t53 -57l-97 -109q-19 23 -53.5 51z" />
    <glyph glyph-name="uniFC91" unicode="&#xfc91;" horiz-adv-x="1452" arabic-form="final" 
d="M1107 616q0 -201 30 -303.5t102.5 -142t212.5 -39.5l-24 -131q-133 0 -205.5 48.5t-103 158.5t-30.5 309v46h-13q-31 -65 -162.5 -100.5t-354.5 -37.5q44 -86 60.5 -154.5t16.5 -141.5q0 -170 -79 -319.5t-205 -238.5t-258 -89q-34 0 -64.5 9t-74.5 27q-26 11 -46 18v12
q166 11 331.5 96t271.5 207t106 235q0 51 -46.5 147t-139.5 208q15 22 29 51.5t22 57.5q272 0 416.5 26.5t195.5 88.5h12v-48zM707.5 -317.5q12.5 31.5 17.5 48.5q94 6 188 10t139 4q87 0 126 -13.5t39 -47.5q0 -13 -10 -47q-6 -22 -8 -33h-12q0 24 -32.5 35t-114.5 11
q-45 0 -168.5 -4t-184.5 -9q8 14 20.5 45.5z" />
    <glyph glyph-name="uniFC92" unicode="&#xfc92;" horiz-adv-x="1452" arabic-form="final" 
d="M1107 616q0 -201 30 -303.5t102.5 -142t212.5 -39.5l-24 -131q-133 0 -205.5 48.5t-103 158.5t-30.5 309v46h-13q-31 -65 -162.5 -100.5t-354.5 -37.5q44 -86 60.5 -154.5t16.5 -141.5q0 -170 -79 -319.5t-205 -238.5t-258 -89q-34 0 -64.5 9t-74.5 27q-26 11 -46 18v12
q166 11 331.5 96t271.5 207t106 235q0 51 -46.5 147t-139.5 208q15 22 29 51.5t22 57.5q272 0 416.5 26.5t195.5 88.5h12v-48zM424.5 857q-34.5 28 -59.5 40v12l89 107q33 -14 68 -44t53 -57l-97 -109q-19 23 -53.5 51zM707.5 -317.5q12.5 31.5 17.5 48.5q94 6 188 10t139 4
q87 0 126 -13.5t39 -47.5q0 -13 -10 -47q-6 -22 -8 -33h-12q0 24 -32.5 35t-114.5 11q-45 0 -168.5 -4t-184.5 -9q8 14 20.5 45.5z" />
    <glyph glyph-name="uniFC94" unicode="&#xfc94;" horiz-adv-x="2134" arabic-form="final" 
d="M1788 616q0 -201 30 -303.5t102.5 -142t213.5 -39.5l-25 -131q-133 0 -205.5 48.5t-103 159t-30.5 308.5v46h-12q-32 -66 -165.5 -101.5t-359.5 -36.5q68 -173 68 -333q0 -189 -81.5 -329.5t-230.5 -216.5t-347 -76q-160 0 -272.5 56.5t-171.5 163.5t-59 258
q0 205 85 408h16q-30 -66 -50 -163.5t-20 -181.5q0 -129 57.5 -221t168 -140.5t265.5 -48.5q180 0 321 60.5t219.5 165.5t78.5 235q0 77 -39.5 167t-127.5 212q15 22 29 51.5t22 57.5q272 0 416 26.5t196 88.5h12v-48zM1403.5 -317.5q12.5 31.5 17.5 48.5q94 6 188 10t139 4
q87 0 126 -13.5t39 -47.5q0 -13 -10 -47q-6 -22 -8 -33h-12q0 24 -32.5 35t-114.5 11q-45 0 -168.5 -4t-184.5 -9q8 14 20.5 45.5zM628.5 342q-34.5 28 -59.5 40v12l89 107q33 -14 68 -44t53 -57l-97 -109q-19 23 -53.5 51z" />
    <glyph glyph-name="uniFC96" unicode="&#xfc96;" horiz-adv-x="1940" arabic-form="final" 
d="M1567.5 68q-116.5 68 -154 194.5t-37.5 343.5q-239 0 -405 -34t-249 -91t-83 -126q0 -73 62.5 -105.5t198.5 -37.5l150 -6q96 -4 151.5 -25t80 -61.5t24.5 -107.5q0 -164 -81 -289.5t-231 -195.5t-352 -70q-160 0 -273 56t-171.5 163.5t-58.5 258.5q0 207 85 408h15
q-30 -68 -50 -165.5t-20 -180.5q0 -129 57.5 -221t168 -140.5t265.5 -48.5q180 0 323 56t223 144.5t80 181.5q0 55 -56 83.5t-194 34.5l-151 6q-98 4 -156.5 24t-86 63.5t-27.5 118.5q0 126 87 219t260.5 144t425.5 51q2 -205 39 -325.5t156 -188.5t357 -68l-25 -131
q-231 0 -347.5 68zM1360.5 -317.5q12.5 31.5 17.5 48.5q94 6 188 10t139 4q87 0 126 -13.5t39 -47.5q0 -13 -10 -47q-6 -22 -8 -33h-12q0 24 -32.5 35t-114.5 11q-45 0 -168.5 -4t-184.5 -9q8 14 20.5 45.5z" />
    <glyph glyph-name="uniFCFC" unicode="&#xfcfc;" horiz-adv-x="2594" arabic-form="isolated" 
d="M2370 665q37 -92 61 -179t24 -192q0 -139 -68 -216.5t-187 -77.5q-61 0 -108.5 24t-74.5 67t-29 97h-12q-31 -93 -100.5 -140.5t-172.5 -47.5q-175 0 -251 152t-76 454q-239 0 -405 -34t-249 -91t-83 -126q0 -73 62.5 -105.5t198.5 -37.5l150 -6q96 -4 151.5 -25
t80 -61.5t24.5 -107.5q0 -164 -81 -289.5t-231 -195.5t-352 -70q-160 0 -273 56t-171.5 163.5t-58.5 258.5q0 207 85 408h15q-30 -68 -50 -165.5t-20 -180.5q0 -129 57.5 -221t168 -140.5t265.5 -48.5q180 0 323 56t223 144.5t80 181.5q0 55 -56 83.5t-194 34.5l-151 6
q-98 4 -156.5 24t-86 63.5t-27.5 118.5q0 126 87 219t260.5 144t425.5 51q2 -189 33 -316.5t105 -196.5t199 -69q92 0 151 31t92.5 98.5t47.5 179.5h14q-2 -27 -10.5 -88.5t-17.5 -107.5q29 -56 85 -84.5t129 -28.5q59 0 109.5 18.5t80 49t29.5 65.5q0 40 -18 98.5t-52 120
t-77 109.5q29 41 55 121h9z" />
    <glyph glyph-name="uniFCFE" unicode="&#xfcfe;" horiz-adv-x="2594" arabic-form="isolated" 
d="M2370 665q37 -92 61 -179t24 -192q0 -139 -68 -216.5t-187 -77.5q-61 0 -108.5 24t-74.5 67t-29 97h-12q-31 -93 -100.5 -140.5t-172.5 -47.5q-175 0 -251 152t-76 454q-239 0 -405 -34t-249 -91t-83 -126q0 -73 62.5 -105.5t198.5 -37.5l150 -6q96 -4 151.5 -25
t80 -61.5t24.5 -107.5q0 -164 -81 -289.5t-231 -195.5t-352 -70q-160 0 -273 56t-171.5 163.5t-58.5 258.5q0 207 85 408h15q-30 -68 -50 -165.5t-20 -180.5q0 -129 57.5 -221t168 -140.5t265.5 -48.5q180 0 323 56t223 144.5t80 181.5q0 55 -56 83.5t-194 34.5l-151 6
q-98 4 -156.5 24t-86 63.5t-27.5 118.5q0 126 87 219t260.5 144t425.5 51q2 -189 33 -316.5t105 -196.5t199 -69q92 0 151 31t92.5 98.5t47.5 179.5h14q-2 -27 -10.5 -88.5t-17.5 -107.5q29 -56 85 -84.5t129 -28.5q59 0 109.5 18.5t80 49t29.5 65.5q0 40 -18 98.5t-52 120
t-77 109.5q29 41 55 121h9zM1886 1006q-33 26 -56 37v12l83 101q32 -13 65 -40t50 -51l-87 -107q-22 22 -55 48zM2170.5 837q-12.5 -30 -17.5 -47q-94 -6 -188 -10t-139 -4q-87 0 -126 13.5t-39 47.5q0 14 10 46q6 20 8 30h12q0 -24 32.5 -35t114.5 -11q36 0 151.5 4
t202.5 9q-9 -13 -21.5 -43z" />
    <glyph glyph-name="uniFD06" unicode="&#xfd06;" horiz-adv-x="2618" arabic-form="isolated" 
d="M2343.5 710.5q65.5 -39.5 100.5 -112t35 -167.5q0 -133 -71.5 -230t-208.5 -149t-329 -52q-201 0 -308.5 64.5t-146.5 185t-39 314.5v42q-239 0 -405 -34t-249 -91t-83 -126q0 -73 62.5 -105.5t198.5 -37.5l150 -6q96 -4 151.5 -25t80 -61.5t24.5 -107.5
q0 -164 -81 -289.5t-231 -195.5t-352 -70q-160 0 -273 56t-171.5 163.5t-58.5 258.5q0 207 85 408h15q-30 -68 -50 -165.5t-20 -180.5q0 -129 57.5 -221t168 -140.5t265.5 -48.5q180 0 323 56t223 144.5t80 181.5q0 55 -56 83.5t-194 34.5l-151 6q-98 4 -156.5 24t-86 63.5
t-27.5 118.5q0 126 87 219t260.5 144t425.5 51q1 -135 14 -228t50.5 -165.5t108.5 -116.5q155 270 315 408.5t312 138.5q90 0 155.5 -39.5zM2195 163.5q127 32.5 194 88t67 124.5q0 72 -37 132.5t-104 96t-154 35.5q-96 0 -203 -57t-207.5 -158t-177.5 -229q115 -65 321 -65
q174 0 301 32.5z" />
    <glyph glyph-name="uniFD08" unicode="&#xfd08;" horiz-adv-x="2618" arabic-form="isolated" 
d="M2343.5 710.5q65.5 -39.5 100.5 -112t35 -167.5q0 -133 -71.5 -230t-208.5 -149t-329 -52q-201 0 -308.5 64.5t-146.5 185t-39 314.5v42q-239 0 -405 -34t-249 -91t-83 -126q0 -73 62.5 -105.5t198.5 -37.5l150 -6q96 -4 151.5 -25t80 -61.5t24.5 -107.5
q0 -164 -81 -289.5t-231 -195.5t-352 -70q-160 0 -273 56t-171.5 163.5t-58.5 258.5q0 207 85 408h15q-30 -68 -50 -165.5t-20 -180.5q0 -129 57.5 -221t168 -140.5t265.5 -48.5q180 0 323 56t223 144.5t80 181.5q0 55 -56 83.5t-194 34.5l-151 6q-98 4 -156.5 24t-86 63.5
t-27.5 118.5q0 126 87 219t260.5 144t425.5 51q1 -135 14 -228t50.5 -165.5t108.5 -116.5q155 270 315 408.5t312 138.5q90 0 155.5 -39.5zM2195 163.5q127 32.5 194 88t67 124.5q0 72 -37 132.5t-104 96t-154 35.5q-96 0 -203 -57t-207.5 -158t-177.5 -229q115 -65 321 -65
q174 0 301 32.5zM2067.5 1058q-34.5 28 -59.5 40v12l89 107q33 -14 68 -44t53 -57l-97 -109q-19 23 -53.5 51z" />
    <glyph glyph-name="uniFD0D" unicode="&#xfd0d;" horiz-adv-x="2135" arabic-form="isolated" 
d="M1911 666q36 -90 60 -178t24 -194q0 -140 -67.5 -217t-186.5 -77q-61 0 -109 24t-75 67t-28 97h-12q-32 -93 -101.5 -140.5t-171.5 -47.5q-100 0 -163.5 43t-95 135.5t-31.5 241.5q0 42 1 65q-99 -23 -201.5 -54.5t-171.5 -59.5q29 -66 41.5 -122t12.5 -121
q0 -170 -79 -319.5t-205 -238.5t-258 -89q-34 0 -64.5 9t-74.5 27q-26 11 -46 18v12q166 11 331.5 96t271.5 207t106 235q0 46 -39 121.5t-111 161.5q28 41 39 87q64 27 209.5 72.5t250.5 70.5v-32q0 -164 31 -259t95.5 -135.5t170.5 -40.5q92 0 151 31t93 98.5t47 179.5h16
q-2 -25 -10.5 -86.5t-18.5 -108.5q29 -56 85.5 -85t127.5 -29q59 0 110 18t81 49t30 66q0 65 -41 160t-106 168q14 22 29 55t26 66h9q7 -20 18 -47zM1445 1006q-33 26 -56 37v12l83 101q32 -13 65 -40t50 -51l-87 -107q-22 22 -55 48zM1729.5 837q-12.5 -30 -17.5 -47
q-94 -6 -188 -10t-139 -4q-87 0 -126 13.5t-39 47.5q0 14 10 46q6 20 8 30h12q0 -24 32.5 -35t114.5 -11q36 0 151.5 4t202.5 9q-9 -13 -21.5 -43z" />
    <glyph glyph-name="uniFD0E" unicode="&#xfd0e;" horiz-adv-x="2135" arabic-form="isolated" 
d="M1911 666q36 -90 60 -178t24 -194q0 -140 -67.5 -217t-186.5 -77q-61 0 -109 24t-75 67t-28 97h-12q-32 -93 -101.5 -140.5t-171.5 -47.5q-100 0 -163.5 43t-95 135.5t-31.5 241.5q0 42 1 65q-99 -23 -201.5 -54.5t-171.5 -59.5q29 -66 41.5 -122t12.5 -121
q0 -170 -79 -319.5t-205 -238.5t-258 -89q-34 0 -64.5 9t-74.5 27q-26 11 -46 18v12q166 11 331.5 96t271.5 207t106 235q0 46 -39 121.5t-111 161.5q28 41 39 87q64 27 209.5 72.5t250.5 70.5v-32q0 -164 31 -259t95.5 -135.5t170.5 -40.5q92 0 151 31t93 98.5t47 179.5h16
q-2 -25 -10.5 -86.5t-18.5 -108.5q29 -56 85.5 -85t127.5 -29q59 0 110 18t81 49t30 66q0 65 -41 160t-106 168q14 22 29 55t26 66h9q7 -20 18 -47z" />
    <glyph glyph-name="uniFD0F" unicode="&#xfd0f;" horiz-adv-x="2168" arabic-form="isolated" 
d="M1892.5 710.5q65.5 -39.5 100.5 -112t35 -167.5q0 -133 -71.5 -230t-208 -149t-328.5 -52q-177 0 -278 43t-144.5 135.5t-43.5 248.5q0 38 1 58q-99 -23 -201.5 -54.5t-171.5 -59.5q29 -66 41.5 -122t12.5 -121q0 -170 -79 -319.5t-205 -238.5t-258 -89q-34 0 -64.5 9
t-74.5 27q-26 11 -46 18v12q166 11 331.5 96t271.5 207t106 235q0 46 -39 121.5t-111 161.5q28 41 39 87q64 27 209.5 72.5t250.5 70.5v-34q0 -149 31.5 -237.5t107.5 -133.5q155 274 316.5 415.5t314.5 141.5q90 0 155.5 -39.5zM1744.5 163.5q127.5 32.5 194 88t66.5 124.5
q0 72 -37 132.5t-103.5 96t-153.5 35.5q-97 0 -205.5 -58.5t-210 -161.5t-179.5 -233q55 -29 134.5 -42.5t193.5 -13.5q173 0 300.5 32.5z" />
    <glyph glyph-name="uniFD10" unicode="&#xfd10;" horiz-adv-x="2168" arabic-form="isolated" 
d="M1892.5 710.5q65.5 -39.5 100.5 -112t35 -167.5q0 -133 -71.5 -230t-208 -149t-328.5 -52q-177 0 -278 43t-144.5 135.5t-43.5 248.5q0 38 1 58q-99 -23 -201.5 -54.5t-171.5 -59.5q29 -66 41.5 -122t12.5 -121q0 -170 -79 -319.5t-205 -238.5t-258 -89q-34 0 -64.5 9
t-74.5 27q-26 11 -46 18v12q166 11 331.5 96t271.5 207t106 235q0 46 -39 121.5t-111 161.5q28 41 39 87q64 27 209.5 72.5t250.5 70.5v-34q0 -149 31.5 -237.5t107.5 -133.5q155 274 316.5 415.5t314.5 141.5q90 0 155.5 -39.5zM1744.5 163.5q127.5 32.5 194 88t66.5 124.5
q0 72 -37 132.5t-103.5 96t-153.5 35.5q-97 0 -205.5 -58.5t-210 -161.5t-179.5 -233q55 -29 134.5 -42.5t193.5 -13.5q173 0 300.5 32.5zM1644.5 1058q-34.5 28 -59.5 40v12l89 107q33 -14 68 -44t53 -57l-97 -109q-19 23 -53.5 51z" />
    <glyph glyph-name="uniFD18" unicode="&#xfd18;" horiz-adv-x="2685" arabic-form="final" 
d="M2503.5 181.5q58.5 -50.5 181.5 -50.5l-24 -131q-78 0 -131 26.5t-78 73t-22 106.5h-8q-18 -101 -78 -153.5t-156 -52.5q-57 0 -101.5 24t-70.5 67t-28 97h-12q-31 -93 -100.5 -140.5t-172.5 -47.5q-175 0 -251 152t-76 454q-239 0 -405 -34t-249 -91t-83 -126
q0 -73 62.5 -105.5t198.5 -37.5l150 -6q96 -4 151.5 -25t80 -61.5t24.5 -107.5q0 -164 -81 -289.5t-231 -195.5t-352 -70q-160 0 -273 56t-171.5 163.5t-58.5 258.5q0 207 85 408h15q-30 -68 -50 -165.5t-20 -180.5q0 -129 57.5 -221t168 -140.5t265.5 -48.5q180 0 323 56
t223 144.5t80 181.5q0 55 -56 83.5t-194 34.5l-151 6q-98 4 -156.5 24t-86 63.5t-27.5 118.5q0 126 87 219t260.5 144t425.5 51q2 -189 33 -316.5t105 -196.5t199 -69q92 0 151 31t92.5 98.5t47.5 179.5h14q-2 -27 -10.5 -88.5t-17.5 -107.5q29 -56 81.5 -84.5t120.5 -28.5
q57 0 103 20t75 54.5t36 77.5q0 32 -9 95.5t-21 113.5q25 10 52 32l4 -200q1 -92 59.5 -142.5z" />
    <glyph glyph-name="uniFD1A" unicode="&#xfd1a;" horiz-adv-x="2685" arabic-form="final" 
d="M2503.5 181.5q58.5 -50.5 181.5 -50.5l-24 -131q-78 0 -131 26.5t-78 73t-22 106.5h-8q-18 -101 -78 -153.5t-156 -52.5q-57 0 -101.5 24t-70.5 67t-28 97h-12q-31 -93 -100.5 -140.5t-172.5 -47.5q-175 0 -251 152t-76 454q-239 0 -405 -34t-249 -91t-83 -126
q0 -73 62.5 -105.5t198.5 -37.5l150 -6q96 -4 151.5 -25t80 -61.5t24.5 -107.5q0 -164 -81 -289.5t-231 -195.5t-352 -70q-160 0 -273 56t-171.5 163.5t-58.5 258.5q0 207 85 408h15q-30 -68 -50 -165.5t-20 -180.5q0 -129 57.5 -221t168 -140.5t265.5 -48.5q180 0 323 56
t223 144.5t80 181.5q0 55 -56 83.5t-194 34.5l-151 6q-98 4 -156.5 24t-86 63.5t-27.5 118.5q0 126 87 219t260.5 144t425.5 51q2 -189 33 -316.5t105 -196.5t199 -69q92 0 151 31t92.5 98.5t47.5 179.5h14q-2 -27 -10.5 -88.5t-17.5 -107.5q29 -56 81.5 -84.5t120.5 -28.5
q57 0 103 20t75 54.5t36 77.5q0 32 -9 95.5t-21 113.5q25 10 52 32l4 -200q1 -92 59.5 -142.5zM1941 1006q-33 26 -56 37v12l83 101q32 -13 65 -40t50 -51l-87 -107q-22 22 -55 48zM2225.5 837q-12.5 -30 -17.5 -47q-94 -6 -188 -10t-139 -4q-87 0 -126 13.5t-39 47.5
q0 14 10 46q6 20 8 30h12q0 -24 32.5 -35t114.5 -11q36 0 151.5 4t202.5 9q-9 -13 -21.5 -43z" />
    <glyph glyph-name="uniFD22" unicode="&#xfd22;" horiz-adv-x="2676" arabic-form="final" 
d="M2676 131l-24 -131q-119 0 -180.5 47.5t-72.5 142.5q-73 -92 -208 -141t-321 -49q-201 0 -308.5 64.5t-146.5 185t-39 314.5v42q-239 0 -405 -34t-249 -91t-83 -126q0 -73 62.5 -105.5t198.5 -37.5l150 -6q96 -4 151.5 -25t80 -61.5t24.5 -107.5q0 -164 -81 -289.5
t-231 -195.5t-352 -70q-160 0 -273 56t-171.5 163.5t-58.5 258.5q0 207 85 408h15q-30 -68 -50 -165.5t-20 -180.5q0 -129 57.5 -221t168 -140.5t265.5 -48.5q180 0 323 56t223 144.5t80 181.5q0 55 -56 83.5t-194 34.5l-151 6q-98 4 -156.5 24t-86 63.5t-27.5 118.5
q0 126 87 219t260.5 144t425.5 51q1 -135 14 -228t50.5 -165.5t108.5 -116.5q155 270 315 408.5t312 138.5q90 0 155.5 -39.5t100.5 -112t35 -167.5q0 -130 -68 -225q68 -75 244 -75h21zM2195 163.5q127 32.5 194 88t67 124.5q0 72 -37 132.5t-104 96t-154 35.5
q-96 0 -203 -57t-207.5 -158t-177.5 -229q115 -65 321 -65q174 0 301 32.5z" />
    <glyph glyph-name="uniFD24" unicode="&#xfd24;" horiz-adv-x="2676" arabic-form="final" 
d="M2676 131l-24 -131q-119 0 -180.5 47.5t-72.5 142.5q-73 -92 -208 -141t-321 -49q-201 0 -308.5 64.5t-146.5 185t-39 314.5v42q-239 0 -405 -34t-249 -91t-83 -126q0 -73 62.5 -105.5t198.5 -37.5l150 -6q96 -4 151.5 -25t80 -61.5t24.5 -107.5q0 -164 -81 -289.5
t-231 -195.5t-352 -70q-160 0 -273 56t-171.5 163.5t-58.5 258.5q0 207 85 408h15q-30 -68 -50 -165.5t-20 -180.5q0 -129 57.5 -221t168 -140.5t265.5 -48.5q180 0 323 56t223 144.5t80 181.5q0 55 -56 83.5t-194 34.5l-151 6q-98 4 -156.5 24t-86 63.5t-27.5 118.5
q0 126 87 219t260.5 144t425.5 51q1 -135 14 -228t50.5 -165.5t108.5 -116.5q155 270 315 408.5t312 138.5q90 0 155.5 -39.5t100.5 -112t35 -167.5q0 -130 -68 -225q68 -75 244 -75h21zM2195 163.5q127 32.5 194 88t67 124.5q0 72 -37 132.5t-104 96t-154 35.5
q-96 0 -203 -57t-207.5 -158t-177.5 -229q115 -65 321 -65q174 0 301 32.5zM2067.5 1058q-34.5 28 -59.5 40v12l89 107q33 -14 68 -44t53 -57l-97 -109q-19 23 -53.5 51z" />
    <glyph glyph-name="uniFD29" unicode="&#xfd29;" horiz-adv-x="2225" arabic-form="final" 
d="M2044 181.5q59 -50.5 181 -50.5l-24 -131q-78 0 -131 26.5t-78 73t-22 106.5h-9q-18 -101 -77.5 -153.5t-154.5 -52.5q-57 0 -102 24t-71 67t-27 97h-12q-32 -93 -101.5 -140.5t-171.5 -47.5q-100 0 -163.5 43t-95 135.5t-31.5 241.5q0 42 1 65q-99 -23 -201.5 -54.5
t-171.5 -59.5q29 -66 41.5 -122t12.5 -121q0 -170 -79 -319.5t-205 -238.5t-258 -89q-34 0 -64.5 9t-74.5 27q-26 11 -46 18v12q166 11 331.5 96t271.5 207t106 235q0 46 -39 121.5t-111 161.5q28 41 39 87q64 27 209.5 72.5t250.5 70.5v-32q0 -164 31 -259t95.5 -135.5
t170.5 -40.5q92 0 151 31t93 98.5t47 179.5h16q-2 -25 -10.5 -86.5t-18.5 -108.5q29 -56 81.5 -85t119.5 -29q87 0 145.5 43t70.5 109q0 31 -10 94t-22 115q12 5 27 14t25 18l4 -200q2 -92 61 -142.5zM1498 1006q-33 26 -56 37v12l83 101q32 -13 65 -40t50 -51l-87 -107
q-22 22 -55 48zM1782.5 837q-12.5 -30 -17.5 -47q-94 -6 -188 -10t-139 -4q-87 0 -126 13.5t-39 47.5q0 14 10 46q6 20 8 30h12q0 -24 32.5 -35t114.5 -11q36 0 151.5 4t202.5 9q-9 -13 -21.5 -43z" />
    <glyph glyph-name="uniFD2A" unicode="&#xfd2a;" horiz-adv-x="2225" arabic-form="final" 
d="M2044 181.5q59 -50.5 181 -50.5l-24 -131q-78 0 -131 26.5t-78 73t-22 106.5h-9q-18 -101 -77.5 -153.5t-154.5 -52.5q-57 0 -102 24t-71 67t-27 97h-12q-32 -93 -101.5 -140.5t-171.5 -47.5q-100 0 -163.5 43t-95 135.5t-31.5 241.5q0 42 1 65q-99 -23 -201.5 -54.5
t-171.5 -59.5q29 -66 41.5 -122t12.5 -121q0 -170 -79 -319.5t-205 -238.5t-258 -89q-34 0 -64.5 9t-74.5 27q-26 11 -46 18v12q166 11 331.5 96t271.5 207t106 235q0 46 -39 121.5t-111 161.5q28 41 39 87q64 27 209.5 72.5t250.5 70.5v-32q0 -164 31 -259t95.5 -135.5
t170.5 -40.5q92 0 151 31t93 98.5t47 179.5h16q-2 -25 -10.5 -86.5t-18.5 -108.5q29 -56 81.5 -85t119.5 -29q87 0 145.5 43t70.5 109q0 31 -10 94t-22 115q12 5 27 14t25 18l4 -200q2 -92 61 -142.5z" />
    <glyph glyph-name="uniFD2B" unicode="&#xfd2b;" horiz-adv-x="2226" arabic-form="final" 
d="M2226 131l-25 -131q-119 0 -180.5 48t-71.5 143q-73 -92 -207.5 -141.5t-321.5 -49.5q-177 0 -278 43t-144.5 135.5t-43.5 248.5q0 38 1 58q-99 -23 -201.5 -54.5t-171.5 -59.5q29 -66 41.5 -122t12.5 -121q0 -170 -79 -319.5t-205 -238.5t-258 -89q-34 0 -64.5 9
t-74.5 27q-26 11 -46 18v12q166 11 331.5 96t271.5 207t106 235q0 46 -39 121.5t-111 161.5q28 41 39 87q64 27 209.5 72.5t250.5 70.5v-34q0 -149 31.5 -237.5t107.5 -133.5q155 274 316.5 415.5t314.5 141.5q90 0 155.5 -39.5t100.5 -112t35 -167.5q0 -130 -67 -224
q65 -76 243 -76h22zM1744.5 163.5q127.5 32.5 194 88t66.5 124.5q0 72 -37 132.5t-103.5 96t-153.5 35.5q-97 0 -205.5 -58.5t-210 -161.5t-179.5 -233q55 -29 134.5 -42.5t193.5 -13.5q173 0 300.5 32.5z" />
    <glyph glyph-name="uniFD2C" unicode="&#xfd2c;" horiz-adv-x="2226" arabic-form="final" 
d="M2226 131l-25 -131q-119 0 -180.5 48t-71.5 143q-73 -92 -207.5 -141.5t-321.5 -49.5q-177 0 -278 43t-144.5 135.5t-43.5 248.5q0 38 1 58q-99 -23 -201.5 -54.5t-171.5 -59.5q29 -66 41.5 -122t12.5 -121q0 -170 -79 -319.5t-205 -238.5t-258 -89q-34 0 -64.5 9
t-74.5 27q-26 11 -46 18v12q166 11 331.5 96t271.5 207t106 235q0 46 -39 121.5t-111 161.5q28 41 39 87q64 27 209.5 72.5t250.5 70.5v-34q0 -149 31.5 -237.5t107.5 -133.5q155 274 316.5 415.5t314.5 141.5q90 0 155.5 -39.5t100.5 -112t35 -167.5q0 -130 -67 -224
q65 -76 243 -76h22zM1744.5 163.5q127.5 32.5 194 88t66.5 124.5q0 72 -37 132.5t-103.5 96t-153.5 35.5q-97 0 -205.5 -58.5t-210 -161.5t-179.5 -233q55 -29 134.5 -42.5t193.5 -13.5q173 0 300.5 32.5zM1644.5 1058q-34.5 28 -59.5 40v12l89 107q33 -14 68 -44t53 -57
l-97 -109q-19 23 -53.5 51z" />
    <glyph glyph-name="uniFDF2" unicode="&#xfdf2;" horiz-adv-x="3047" arabic-form="isolated" 
d="M2364 1166q6 -78 7 -97q15 -182 24 -336.5t9 -313.5q0 -103 -28 -197t-79 -151q-35 -34 -88 -52.5t-112 -18.5q-151 0 -225.5 85.5t-77.5 260.5h-10q-32 -132 -103.5 -207.5t-185 -107t-283.5 -31.5q-169 0 -269.5 41t-146 120t-51.5 203h-9q-27 -123 -116.5 -189
t-244.5 -66q-117 0 -176.5 46t-59.5 130q0 79 45 155t168.5 174t352.5 228q-13 90 -22 131q20 17 43.5 45t38.5 53h6q14 -98 20 -182q136 71 198 106t96 63q-10 -18 -19.5 -46.5t-13.5 -47.5q-173 -89 -256 -134q10 -155 10 -345q0 -127 39.5 -203.5t133 -113.5t256.5 -37
q209 0 326.5 36t173.5 122t65 242q32 14 43 21q0 -170 31.5 -261t94.5 -125.5t168 -34.5q68 0 119.5 20.5t79.5 55t28 76.5q0 119 -20.5 300.5t-46 346.5t-38.5 229q20 22 45 57t42 63h12q0 -35 6 -113zM576.5 265.5q76.5 28.5 115.5 75t39 99.5q0 178 -19 344
q-213 -117 -330 -197.5t-161.5 -134t-44.5 -97.5q0 -58 52 -88t165 -30q107 0 183.5 28.5zM2867 1403q25 -572 25 -821q0 -167 -10 -273t-33 -260l-12 -85h-12q2 60 2 111q0 191 -12.5 507.5t-29 590t-27.5 337.5q21 21 47.5 57.5t40.5 63.5h12q0 -25 9 -228zM2020 995
q0 -66 -31 -106t-87 -40q-35 0 -65.5 20t-40.5 50q-11 -69 -51.5 -112t-104.5 -43q-52 0 -79.5 34.5t-27.5 91.5q0 32 7 61l21 11q-3 -22 -3 -43q0 -51 20 -80t63 -29q63 0 99 40.5t36 125.5q0 11 -2 41l25 14q5 -63 32 -99.5t73 -36.5q43 0 64.5 30t21.5 81q0 56 -26 123
l22 15q34 -78 34 -149zM1792 1136l-28 -14l-10 406l48 30z" />
    <glyph glyph-name="uniFE86" unicode="&#x624;" horiz-adv-x="976" arabic-form="final" 
d="M951 0h-128q-27 -147 -113.5 -265.5t-209 -186t-254.5 -67.5q-32 0 -66.5 10t-84.5 29q-10 3 -34 12t-41 13v12q181 2 351 65.5t287 167.5t147 221q-183 -11 -338 -11q-144 0 -214.5 71.5t-70.5 205.5q0 119 42.5 216t114.5 152.5t158 55.5q103 0 178.5 -63.5t117.5 -191
t42 -315.5h141zM269 182q66 -57 210 -57q211 0 334 2q-6 150 -49 256t-117 160.5t-171 54.5q-69 0 -132 -35.5t-102 -98.5t-39 -139q0 -86 66 -143zM546 1027.5q65 10.5 94 24.5v-12q-8 -13 -16 -33t-12 -36q-142 -30 -236.5 -79.5t-135.5 -102.5h-12q46 101 172 163
q-78 9 -119 43.5t-41 90.5q0 59 27 113.5t71.5 88.5t96.5 34q49 0 79.5 -30t30.5 -82q0 -24 -5 -44h-12q-1 47 -26 68t-72 21q-48 0 -87.5 -20.5t-62 -52t-22.5 -62.5q0 -28 21 -51.5t59.5 -37.5t87.5 -14q55 0 120 10.5z" />
    <glyph glyph-name="uniFE8B" unicode="&#x626;" horiz-adv-x="546" arabic-form="initial" 
d="M298.5 75.5q-107.5 -75.5 -322.5 -75.5q-23 0 -33 13t-10 36q0 41 15.5 61.5t51.5 20.5q120 0 207.5 18t133.5 51t46 77q0 70 -51.5 172.5t-111.5 172.5q13 16 30 53t28 71h9q7 -20 21 -50q41 -91 67.5 -181.5t26.5 -207.5q0 -156 -107.5 -231.5zM320 1093.5
q65 10.5 94 24.5v-12q-8 -13 -16 -33t-12 -36q-142 -30 -236.5 -79.5t-135.5 -102.5h-12q46 101 172 163q-78 9 -119 43.5t-41 90.5q0 59 27 113.5t71.5 88.5t96.5 34q49 0 79.5 -30t30.5 -82q0 -24 -5 -44h-12q-1 47 -26 68t-72 21q-48 0 -87.5 -20.5t-62 -52t-22.5 -62.5
q0 -28 21 -51.5t59.5 -37.5t87.5 -14q55 0 120 10.5z" />
    <glyph glyph-name="uniFE8C" unicode="&#x626;" horiz-adv-x="709" arabic-form="medial" 
d="M540 24.5q-56 24.5 -84.5 81t-28.5 151.5q0 38 2 59h-12q-15 -117 -63 -185.5t-139.5 -99.5t-238.5 -31q-23 0 -33 13t-10 36q0 41 15.5 61.5t51.5 20.5q167 0 255.5 33t128.5 109.5t56 221.5h15v-85q0 -109 22 -168.5t76.5 -85t155.5 -25.5l-24 -131q-89 0 -145 24.5z
M417 794.5q65 10.5 94 24.5v-12q-8 -13 -16 -33t-12 -36q-142 -30 -236.5 -79.5t-135.5 -102.5h-12q46 101 172 163q-78 9 -119 43.5t-41 90.5q0 59 27 113.5t71.5 88.5t96.5 34q49 0 79.5 -30t30.5 -82q0 -24 -5 -44h-12q-1 47 -26 68t-72 21q-48 0 -87.5 -20.5t-62 -52
t-22.5 -62.5q0 -28 21 -51.5t59.5 -37.5t87.5 -14q55 0 120 10.5z" />
    <glyph glyph-name="uniFE8E" unicode="&#x627;" horiz-adv-x="560" arabic-form="final" 
d="M330 34.5q-76 34.5 -111 113.5t-37 216q-3 433 -7 631.5t-11.5 297t-24.5 217.5q21 21 47.5 57.5t40.5 63.5h12q0 -49 5 -132q7 -154 7 -238q0 -150 -6 -432q-6 -266 -6 -389q0 -118 30.5 -185t100 -95.5t190.5 -28.5l-24 -131q-130 0 -206 34.5z" />
    <glyph glyph-name="uniFE90" unicode="&#x628;" horiz-adv-x="1961" arabic-form="final" 
d="M1739 64.5q-60 64.5 -60 206.5q0 53 7 109h-11q-61 -198 -284 -295t-579 -97q-242 0 -390 43.5t-215.5 131t-67.5 223.5t59 291h14q-20 -64 -30 -117t-10 -111q0 -157 154 -243.5t504 -86.5q371 0 589.5 86.5t283.5 264.5h14q-10 -82 -10 -121q0 -108 56 -163t198 -55
l-24 -131q-138 0 -198 64.5zM794 -389.5q-35 28.5 -59 39.5v12l89 107q32 -13 67.5 -43t53.5 -58l-97 -109q-19 23 -54 51.5z" />
    <glyph glyph-name="uniFE91" unicode="&#x628;" horiz-adv-x="546" arabic-form="initial" 
d="M298.5 75.5q-107.5 -75.5 -322.5 -75.5q-23 0 -33 13t-10 36q0 41 15.5 61.5t51.5 20.5q120 0 207.5 18t133.5 51t46 77q0 70 -51.5 172.5t-111.5 172.5q13 16 30 53t28 71h9q7 -20 21 -50q41 -91 67.5 -181.5t26.5 -207.5q0 -156 -107.5 -231.5zM43 -389.5
q-35 28.5 -59 39.5v12l89 107q32 -13 67.5 -43t53.5 -58l-97 -109q-19 23 -54 51.5z" />
    <glyph glyph-name="uniFE92" unicode="&#x628;" horiz-adv-x="709" arabic-form="medial" 
d="M540 24.5q-56 24.5 -84.5 81t-28.5 151.5q0 38 2 59h-12q-15 -117 -63 -185.5t-139.5 -99.5t-238.5 -31q-23 0 -33 13t-10 36q0 41 15.5 61.5t51.5 20.5q167 0 255.5 33t128.5 109.5t56 221.5h15v-85q0 -109 22 -168.5t76.5 -85t155.5 -25.5l-24 -131q-89 0 -145 24.5z
M92 -389.5q-35 28.5 -59 39.5v12l89 107q32 -13 67.5 -43t53.5 -58l-97 -109q-19 23 -54 51.5z" />
    <glyph glyph-name="uniFE94" unicode="&#x629;" horiz-adv-x="1121" arabic-form="final" 
d="M885.5 214q79.5 -83 235.5 -83l-24 -131q-164 0 -253.5 91.5t-98.5 272.5h-10q-28 -123 -117.5 -189t-244.5 -66q-116 0 -175 46t-59 130q0 85 51.5 164t172.5 173t341 226q-11 78 -21 125q20 17 43.5 45t38.5 53h6q17 -133 26 -264.5t9 -333.5q0 -176 79.5 -259z
M574.5 265.5q76.5 28.5 116 75t39.5 99.5q0 179 -19 347q-208 -118 -324 -197t-163.5 -133.5t-47.5 -101.5q0 -58 51.5 -88t163.5 -30q107 0 183.5 28.5zM934.5 1299.5q-12.5 -31.5 -17.5 -48.5q-94 -6 -188 -10t-139 -4q-87 0 -126 13.5t-39 47.5q0 13 10 47q6 22 8 33h12
q0 -24 32.5 -35t114.5 -11q45 0 168.5 4t184.5 9q-8 -14 -20.5 -45.5z" />
    <glyph glyph-name="uniFE96" unicode="&#x62a;" horiz-adv-x="1961" arabic-form="final" 
d="M1739 64.5q-60 64.5 -60 206.5q0 53 7 109h-11q-61 -198 -284 -295t-579 -97q-242 0 -390 43.5t-215.5 131t-67.5 223.5t59 291h14q-20 -64 -30 -117t-10 -111q0 -157 154 -243.5t504 -86.5q371 0 589.5 86.5t283.5 264.5h14q-10 -82 -10 -121q0 -108 56 -163t198 -55
l-24 -131q-138 0 -198 64.5zM1164.5 711.5q-12.5 -31.5 -17.5 -48.5q-94 -6 -188 -10t-139 -4q-87 0 -126 13.5t-39 47.5q0 13 10 47q6 22 8 33h12q0 -24 32.5 -35t114.5 -11q45 0 168.5 4t184.5 9q-8 -14 -20.5 -45.5z" />
    <glyph glyph-name="uniFE97" unicode="&#x62a;" horiz-adv-x="546" arabic-form="initial" 
d="M298.5 75.5q-107.5 -75.5 -322.5 -75.5q-23 0 -33 13t-10 36q0 41 15.5 61.5t51.5 20.5q120 0 207.5 18t133.5 51t46 77q0 70 -51.5 172.5t-111.5 172.5q13 16 30 53t28 71h9q7 -20 21 -50q41 -91 67.5 -181.5t26.5 -207.5q0 -156 -107.5 -231.5zM445.5 1050.5
q-12.5 -31.5 -17.5 -48.5q-94 -6 -188 -10t-139 -4q-87 0 -126 13.5t-39 47.5q0 13 10 47q6 22 8 33h12q0 -24 32.5 -35t114.5 -11q45 0 168.5 4t184.5 9q-8 -14 -20.5 -45.5z" />
    <glyph glyph-name="uniFE98" unicode="&#x62a;" horiz-adv-x="709" arabic-form="medial" 
d="M540 24.5q-56 24.5 -84.5 81t-28.5 151.5q0 38 2 59h-12q-15 -117 -63 -185.5t-139.5 -99.5t-238.5 -31q-23 0 -33 13t-10 36q0 41 15.5 61.5t51.5 20.5q167 0 255.5 33t128.5 109.5t56 221.5h15v-85q0 -109 22 -168.5t76.5 -85t155.5 -25.5l-24 -131q-89 0 -145 24.5z
M536.5 784.5q-12.5 -31.5 -17.5 -48.5q-94 -6 -188 -10t-139 -4q-87 0 -126 13.5t-39 47.5q0 13 10 47q6 22 8 33h12q0 -24 32.5 -35t114.5 -11q45 0 168.5 4t184.5 9q-8 -14 -20.5 -45.5z" />
    <glyph glyph-name="uniFE9A" unicode="&#x62b;" horiz-adv-x="1961" arabic-form="final" 
d="M1739 64.5q-60 64.5 -60 206.5q0 53 7 109h-11q-61 -198 -284 -295t-579 -97q-242 0 -390 43.5t-215.5 131t-67.5 223.5t59 291h14q-20 -64 -30 -117t-10 -111q0 -157 154 -243.5t504 -86.5q371 0 589.5 86.5t283.5 264.5h14q-10 -82 -10 -121q0 -108 56 -163t198 -55
l-24 -131q-138 0 -198 64.5zM880 879q-33 26 -56 37v12l83 101q32 -13 65 -40t50 -51l-87 -107q-22 22 -55 48zM1164.5 710q-12.5 -30 -17.5 -47q-94 -6 -188 -10t-139 -4q-87 0 -126 13.5t-39 47.5q0 14 10 46q6 20 8 30h12q0 -24 32.5 -35t114.5 -11q36 0 151.5 4t202.5 9
q-9 -13 -21.5 -43z" />
    <glyph glyph-name="uniFE9B" unicode="&#x62b;" horiz-adv-x="546" arabic-form="initial" 
d="M298.5 75.5q-107.5 -75.5 -322.5 -75.5q-23 0 -33 13t-10 36q0 41 15.5 61.5t51.5 20.5q120 0 207.5 18t133.5 51t46 77q0 70 -51.5 172.5t-111.5 172.5q13 16 30 53t28 71h9q7 -20 21 -50q41 -91 67.5 -181.5t26.5 -207.5q0 -156 -107.5 -231.5zM161 1218q-33 26 -56 37
v12l83 101q32 -13 65 -40t50 -51l-87 -107q-22 22 -55 48zM445.5 1049q-12.5 -30 -17.5 -47q-94 -6 -188 -10t-139 -4q-87 0 -126 13.5t-39 47.5q0 14 10 46q6 20 8 30h12q0 -24 32.5 -35t114.5 -11q36 0 151.5 4t202.5 9q-9 -13 -21.5 -43z" />
    <glyph glyph-name="uniFE9C" unicode="&#x62b;" horiz-adv-x="709" arabic-form="medial" 
d="M540 24.5q-56 24.5 -84.5 81t-28.5 151.5q0 38 2 59h-12q-15 -117 -63 -185.5t-139.5 -99.5t-238.5 -31q-23 0 -33 13t-10 36q0 41 15.5 61.5t51.5 20.5q167 0 255.5 33t128.5 109.5t56 221.5h15v-85q0 -109 22 -168.5t76.5 -85t155.5 -25.5l-24 -131q-89 0 -145 24.5z
M252 952q-33 26 -56 37v12l83 101q32 -13 65 -40t50 -51l-87 -107q-22 22 -55 48zM536.5 783q-12.5 -30 -17.5 -47q-94 -6 -188 -10t-139 -4q-87 0 -126 13.5t-39 47.5q0 14 10 46q6 20 8 30h12q0 -24 32.5 -35t114.5 -11q36 0 151.5 4t202.5 9q-9 -13 -21.5 -43z" />
    <glyph glyph-name="uniFE9E" unicode="&#x62c;" horiz-adv-x="1418" arabic-form="final" 
d="M641 -216.5q-35 28.5 -59 39.5v12l89 107q32 -13 67.5 -43t53.5 -58l-97 -109q-19 23 -54 51.5zM1418 131l-24 -131h-34q-132 0 -209.5 30.5t-115.5 108t-38 219.5q0 27 2 81q-267 -76 -455.5 -175.5t-286 -216t-97.5 -241.5q0 -128 76.5 -228t214 -155.5t313.5 -55.5
q124 0 268 15.5t246 39.5v-12l-40 -19q-87 -42 -159.5 -70.5t-170.5 -49.5t-211 -21q-169 0 -295 61t-194.5 173t-68.5 261q0 189 101.5 334.5t313 256t543.5 192.5v11q-90 13 -170 37t-189 64q-115 41 -180.5 59t-130.5 18q-76 0 -128.5 -43t-91.5 -129h-12
q34 105 70 165.5t80 87t106 26.5q64 0 133 -20.5t187 -64.5q103 -39 173.5 -62.5t158 -43t179.5 -24.5v-13q-19 -18 -41 -48t-34 -57q-97 -21 -194 -48q1 -128 36.5 -194.5t113.5 -92t221 -25.5h34z" />
    <glyph glyph-name="uniFE9F" unicode="&#x62c;" horiz-adv-x="1345" arabic-form="initial" 
d="M340 -389.5q-35 28.5 -59 39.5v12l89 107q32 -13 67.5 -43t53.5 -58l-97 -109q-19 23 -54 51.5zM526 762q69 -20 189 -65q151 -57 265.5 -90t245.5 -40v-12q-17 -16 -37.5 -43t-30.5 -48q-55 0 -109 -20.5t-103 -51.5t-130 -89q-129 -93 -234.5 -153.5t-258.5 -105
t-347 -44.5q-23 0 -33 13t-10 36q0 41 15.5 61.5t51.5 20.5q190 0 339.5 33.5t252.5 79.5t232 118q85 48 140.5 75t112.5 40v12q-107 16 -194 42.5t-207 69.5q-110 40 -175 58t-131 18q-75 0 -127.5 -43.5t-92.5 -128.5h-12q34 105 70 165t80 86t106 26q63 0 132 -20z" />
    <glyph glyph-name="uniFEA0" unicode="&#x62c;" horiz-adv-x="1349" arabic-form="medial" 
d="M340 -389.5q-35 28.5 -59 39.5v12l89 107q32 -13 67.5 -43t53.5 -58l-97 -109q-19 23 -54 51.5zM1349 131l-24 -131h-34q-131 0 -207.5 28.5t-113.5 101.5t-37 207q0 14 2 48q-36 -23 -119 -82q-129 -93 -234.5 -153.5t-258.5 -105t-347 -44.5q-23 0 -33 13t-10 36
q0 41 15.5 61.5t51.5 20.5q190 0 339.5 33.5t252.5 79.5t232 118q85 48 140.5 75t112.5 40v12q-107 16 -194 42.5t-207 69.5q-110 40 -175 58t-131 18q-75 0 -127.5 -43.5t-92.5 -128.5h-12q34 105 70 165t80 86t106 26q63 0 132 -20t189 -65q151 -57 265.5 -90t245.5 -40
v-12q-17 -16 -37.5 -43t-30.5 -48q-52 0 -102 -17.5t-105 -51.5q5 -108 43 -164.5t113 -78t208 -21.5h34z" />
    <glyph glyph-name="uniFEA2" unicode="&#x62d;" horiz-adv-x="1418" arabic-form="final" 
d="M1418 131l-24 -131h-34q-132 0 -209.5 30.5t-115.5 108t-38 219.5q0 27 2 81q-267 -76 -455.5 -175.5t-286 -216t-97.5 -241.5q0 -128 76.5 -228t214 -155.5t313.5 -55.5q124 0 268 15.5t246 39.5v-12l-40 -19q-87 -42 -159.5 -70.5t-170.5 -49.5t-211 -21
q-169 0 -295 61t-194.5 173t-68.5 261q0 189 101.5 334.5t313 256t543.5 192.5v11q-90 13 -170 37t-189 64q-115 41 -180.5 59t-130.5 18q-76 0 -128.5 -43t-91.5 -129h-12q34 105 70 165.5t80 87t106 26.5q64 0 133 -20.5t187 -64.5q103 -39 173.5 -62.5t158 -43
t179.5 -24.5v-13q-19 -18 -41 -48t-34 -57q-97 -21 -194 -48q1 -128 36.5 -194.5t113.5 -92t221 -25.5h34z" />
    <glyph glyph-name="uniFEA3" unicode="&#x62d;" horiz-adv-x="1345" arabic-form="initial" 
d="M526 762q69 -20 189 -65q151 -57 265.5 -90t245.5 -40v-12q-17 -16 -37.5 -43t-30.5 -48q-55 0 -109 -20.5t-103 -51.5t-130 -89q-129 -93 -234.5 -153.5t-258.5 -105t-347 -44.5q-23 0 -33 13t-10 36q0 41 15.5 61.5t51.5 20.5q190 0 339.5 33.5t252.5 79.5t232 118
q85 48 140.5 75t112.5 40v12q-107 16 -194 42.5t-207 69.5q-110 40 -175 58t-131 18q-75 0 -127.5 -43.5t-92.5 -128.5h-12q34 105 70 165t80 86t106 26q63 0 132 -20z" />
    <glyph glyph-name="uniFEA4" unicode="&#x62d;" horiz-adv-x="1349" arabic-form="medial" 
d="M1349 131l-24 -131h-34q-131 0 -207.5 28.5t-113.5 101.5t-37 207q0 14 2 48q-36 -23 -119 -82q-129 -93 -234.5 -153.5t-258.5 -105t-347 -44.5q-23 0 -33 13t-10 36q0 41 15.5 61.5t51.5 20.5q190 0 339.5 33.5t252.5 79.5t232 118q85 48 140.5 75t112.5 40v12
q-107 16 -194 42.5t-207 69.5q-110 40 -175 58t-131 18q-75 0 -127.5 -43.5t-92.5 -128.5h-12q34 105 70 165t80 86t106 26q63 0 132 -20t189 -65q151 -57 265.5 -90t245.5 -40v-12q-17 -16 -37.5 -43t-30.5 -48q-52 0 -102 -17.5t-105 -51.5q5 -108 43 -164.5t113 -78
t208 -21.5h34z" />
    <glyph glyph-name="uniFEA6" unicode="&#x62e;" horiz-adv-x="1418" arabic-form="final" 
d="M1418 131l-24 -131h-34q-132 0 -209.5 30.5t-115.5 108t-38 219.5q0 27 2 81q-267 -76 -455.5 -175.5t-286 -216t-97.5 -241.5q0 -128 76.5 -228t214 -155.5t313.5 -55.5q124 0 268 15.5t246 39.5v-12l-40 -19q-87 -42 -159.5 -70.5t-170.5 -49.5t-211 -21
q-169 0 -295 61t-194.5 173t-68.5 261q0 189 101.5 334.5t313 256t543.5 192.5v11q-90 13 -170 37t-189 64q-115 41 -180.5 59t-130.5 18q-76 0 -128.5 -43t-91.5 -129h-12q34 105 70 165.5t80 87t106 26.5q64 0 133 -20.5t187 -64.5q103 -39 173.5 -62.5t158 -43
t179.5 -24.5v-13q-19 -18 -41 -48t-34 -57q-97 -21 -194 -48q1 -128 36.5 -194.5t113.5 -92t221 -25.5h34zM510.5 1142q-34.5 28 -59.5 40v12l89 107q33 -14 68 -44t53 -57l-97 -109q-19 23 -53.5 51z" />
    <glyph glyph-name="uniFEA7" unicode="&#x62e;" horiz-adv-x="1345" arabic-form="initial" 
d="M526 762q69 -20 189 -65q151 -57 265.5 -90t245.5 -40v-12q-17 -16 -37.5 -43t-30.5 -48q-55 0 -109 -20.5t-103 -51.5t-130 -89q-129 -93 -234.5 -153.5t-258.5 -105t-347 -44.5q-23 0 -33 13t-10 36q0 41 15.5 61.5t51.5 20.5q190 0 339.5 33.5t252.5 79.5t232 118
q85 48 140.5 75t112.5 40v12q-107 16 -194 42.5t-207 69.5q-110 40 -175 58t-131 18q-75 0 -127.5 -43.5t-92.5 -128.5h-12q34 105 70 165t80 86t106 26q63 0 132 -20zM437.5 1124q-34.5 28 -59.5 40v12l89 107q33 -14 68 -44t53 -57l-97 -109q-19 23 -53.5 51z" />
    <glyph glyph-name="uniFEA8" unicode="&#x62e;" horiz-adv-x="1349" arabic-form="medial" 
d="M1349 131l-24 -131h-34q-131 0 -207.5 28.5t-113.5 101.5t-37 207q0 14 2 48q-36 -23 -119 -82q-129 -93 -234.5 -153.5t-258.5 -105t-347 -44.5q-23 0 -33 13t-10 36q0 41 15.5 61.5t51.5 20.5q190 0 339.5 33.5t252.5 79.5t232 118q85 48 140.5 75t112.5 40v12
q-107 16 -194 42.5t-207 69.5q-110 40 -175 58t-131 18q-75 0 -127.5 -43.5t-92.5 -128.5h-12q34 105 70 165t80 86t106 26q63 0 132 -20t189 -65q151 -57 265.5 -90t245.5 -40v-12q-17 -16 -37.5 -43t-30.5 -48q-52 0 -102 -17.5t-105 -51.5q5 -108 43 -164.5t113 -78
t208 -21.5h34zM437.5 1124q-34.5 28 -59.5 40v12l89 107q33 -14 68 -44t53 -57l-97 -109q-19 23 -53.5 51z" />
    <glyph glyph-name="uniFEAA" unicode="&#x62f;" horiz-adv-x="1174" arabic-form="final" 
d="M934.5 94.5q-84.5 94.5 -126.5 291.5h-12q-5 -198 -108.5 -298t-298.5 -100q-270 0 -270 236q0 70 15 155h16q-2 -36 -2 -50q0 -74 24 -119.5t78 -68t146 -22.5q131 0 217 36t125 91.5t39 114.5q0 46 -23 150t-60 218.5t-74 191.5q13 19 36 66t27 62h12l25 -93
q43 -150 129 -480q45 -177 125.5 -261t199.5 -84l-24 -131q-131 0 -215.5 94.5z" />
    <glyph glyph-name="uniFEAC" unicode="&#x630;" horiz-adv-x="1174" arabic-form="final" 
d="M934.5 94.5q-84.5 94.5 -126.5 291.5h-12q-5 -198 -108.5 -298t-298.5 -100q-270 0 -270 236q0 70 15 155h16q-2 -36 -2 -50q0 -74 24 -119.5t78 -68t146 -22.5q131 0 217 36t125 91.5t39 114.5q0 46 -23 150t-60 218.5t-74 191.5q13 19 36 66t27 62h12l25 -93
q43 -150 129 -480q45 -177 125.5 -261t199.5 -84l-24 -131q-131 0 -215.5 94.5zM606.5 1306q-34.5 28 -59.5 40v12l89 107q33 -14 68 -44t53 -57l-97 -109q-19 23 -53.5 51z" />
    <glyph glyph-name="uniFEAE" unicode="&#x631;" horiz-adv-x="873" arabic-form="final" 
d="M607 297.5q51 -91.5 113 -129t153 -37.5l-24 -131q-68 0 -119 19t-94 63q-10 -159 -91.5 -298t-204 -221t-246.5 -82q-33 0 -65 9.5t-72 26.5q-8 3 -20 8t-28 10v12q166 10 332 96t272.5 211t107.5 245q-44 49 -85.5 132.5t-91.5 216.5q11 17 25 49.5t22 60.5h13
q52 -169 103 -260.5z" />
    <glyph glyph-name="uniFEB0" unicode="&#x632;" horiz-adv-x="873" arabic-form="final" 
d="M607 297.5q51 -91.5 113 -129t153 -37.5l-24 -131q-68 0 -119 19t-94 63q-10 -159 -91.5 -298t-204 -221t-246.5 -82q-33 0 -65 9.5t-72 26.5q-8 3 -20 8t-28 10v12q166 10 332 96t272.5 211t107.5 245q-44 49 -85.5 132.5t-91.5 216.5q11 17 25 49.5t22 60.5h13
q52 -169 103 -260.5zM425.5 857q-34.5 28 -59.5 40v12l89 107q33 -14 68 -44t53 -57l-97 -109q-19 23 -53.5 51z" />
    <glyph glyph-name="uniFEB2" unicode="&#x633;" horiz-adv-x="2488" arabic-form="final" 
d="M2306 181.5q59 -50.5 182 -50.5l-24 -131q-78 0 -131 26.5t-78 73t-22 106.5h-9q-18 -101 -78 -153.5t-156 -52.5q-57 0 -101.5 24t-70.5 67t-27 97h-13q-31 -93 -100.5 -140.5t-171.5 -47.5q-68 0 -120.5 30t-85.5 87v-26q0 -189 -81.5 -329.5t-230.5 -216.5t-346 -76
q-160 0 -272.5 56.5t-171.5 163.5t-59 258q0 209 85 408h15q-30 -67 -50 -164.5t-20 -180.5q0 -129 57.5 -221t168 -140.5t265.5 -48.5q180 0 321.5 60.5t220 165.5t78.5 235q0 52 -33 141.5t-110 252.5q11 17 25 49.5t22 59.5h13q49 -167 96 -260.5t102 -133t132 -39.5
q92 0 151 31t92.5 98.5t47.5 179.5h15q-12 -108 -28 -195q28 -56 81 -85t120 -29q86 0 144.5 43t70.5 109q0 31 -9.5 94.5t-21.5 114.5q28 11 52 32l4 -200q1 -92 60 -142.5z" />
    <glyph glyph-name="uniFEB3" unicode="&#x633;" horiz-adv-x="1398" arabic-form="initial" 
d="M1172 669q37 -91 61.5 -179.5t24.5 -195.5q0 -139 -67.5 -216.5t-186.5 -77.5q-61 0 -109 24t-75 67t-28 97h-12q-32 -93 -101.5 -140.5t-171.5 -47.5q-89 0 -142.5 50t-61.5 138h-12q-34 -95 -109.5 -141.5t-205.5 -46.5q-23 0 -33 12.5t-10 36.5q0 82 67 82
q109 0 176.5 30.5t104.5 97.5t52 181h16q-2 -26 -10.5 -89.5t-18.5 -110.5q29 -54 83.5 -81.5t123.5 -27.5q92 0 151 31t93 98.5t47 179.5h16q-2 -25 -10.5 -86.5t-18.5 -108.5q29 -56 85.5 -85t127.5 -29q60 0 110.5 18.5t80.5 49t30 65.5q0 40 -18.5 98.5t-52 120
t-76.5 109.5q14 22 29 55t26 66h8z" />
    <glyph glyph-name="uniFEB4" unicode="&#x633;" horiz-adv-x="1488" arabic-form="medial" 
d="M1307 181.5q59 -50.5 181 -50.5l-24 -131q-78 0 -131 26.5t-78 73t-22 106.5h-9q-18 -101 -77.5 -153.5t-154.5 -52.5q-57 0 -102 24t-71 67t-27 97h-12q-32 -93 -101.5 -140.5t-171.5 -47.5q-89 0 -142.5 50t-61.5 138h-12q-34 -95 -109.5 -141.5t-205.5 -46.5
q-23 0 -33 12.5t-10 36.5q0 82 67 82q109 0 176.5 30.5t104.5 97.5t52 181h16q-2 -26 -10.5 -89.5t-18.5 -110.5q29 -54 83.5 -81.5t123.5 -27.5q92 0 151 31t93 98.5t47 179.5h16q-2 -25 -10.5 -86.5t-18.5 -108.5q29 -56 81.5 -85t119.5 -29q87 0 145.5 43t70.5 109
q0 31 -10 94t-22 115q12 5 27 14t25 18l4 -200q2 -92 61 -142.5z" />
    <glyph glyph-name="uniFEB6" unicode="&#x634;" horiz-adv-x="2488" arabic-form="final" 
d="M2306 181.5q59 -50.5 182 -50.5l-24 -131q-78 0 -131 26.5t-78 73t-22 106.5h-9q-18 -101 -78 -153.5t-156 -52.5q-57 0 -101.5 24t-70.5 67t-27 97h-13q-31 -93 -100.5 -140.5t-171.5 -47.5q-68 0 -120.5 30t-85.5 87v-26q0 -189 -81.5 -329.5t-230.5 -216.5t-346 -76
q-160 0 -272.5 56.5t-171.5 163.5t-59 258q0 209 85 408h15q-30 -67 -50 -164.5t-20 -180.5q0 -129 57.5 -221t168 -140.5t265.5 -48.5q180 0 321.5 60.5t220 165.5t78.5 235q0 52 -33 141.5t-110 252.5q11 17 25 49.5t22 59.5h13q49 -167 96 -260.5t102 -133t132 -39.5
q92 0 151 31t92.5 98.5t47.5 179.5h15q-12 -108 -28 -195q28 -56 81 -85t120 -29q86 0 144.5 43t70.5 109q0 31 -9.5 94.5t-21.5 114.5q28 11 52 32l4 -200q1 -92 60 -142.5zM1719 1006q-33 26 -56 37v12l83 101q32 -13 65 -40t50 -51l-87 -107q-22 22 -55 48zM2003.5 837
q-12.5 -30 -17.5 -47q-94 -6 -188 -10t-139 -4q-87 0 -126 13.5t-39 47.5q0 14 10 46q6 20 8 30h12q0 -24 32.5 -35t114.5 -11q36 0 151.5 4t202.5 9q-9 -13 -21.5 -43z" />
    <glyph glyph-name="uniFEB7" unicode="&#x634;" horiz-adv-x="1398" arabic-form="initial" 
d="M1172 669q37 -91 61.5 -179.5t24.5 -195.5q0 -139 -67.5 -216.5t-186.5 -77.5q-61 0 -109 24t-75 67t-28 97h-12q-32 -93 -101.5 -140.5t-171.5 -47.5q-89 0 -142.5 50t-61.5 138h-12q-34 -95 -109.5 -141.5t-205.5 -46.5q-23 0 -33 12.5t-10 36.5q0 82 67 82
q109 0 176.5 30.5t104.5 97.5t52 181h16q-2 -26 -10.5 -89.5t-18.5 -110.5q29 -54 83.5 -81.5t123.5 -27.5q92 0 151 31t93 98.5t47 179.5h16q-2 -25 -10.5 -86.5t-18.5 -108.5q29 -56 85.5 -85t127.5 -29q60 0 110.5 18.5t80.5 49t30 65.5q0 40 -18.5 98.5t-52 120
t-76.5 109.5q14 22 29 55t26 66h8zM717 1006q-33 26 -56 37v12l83 101q32 -13 65 -40t50 -51l-87 -107q-22 22 -55 48zM1001.5 837q-12.5 -30 -17.5 -47q-94 -6 -188 -10t-139 -4q-87 0 -126 13.5t-39 47.5q0 14 10 46q6 20 8 30h12q0 -24 32.5 -35t114.5 -11q36 0 151.5 4
t202.5 9q-9 -13 -21.5 -43z" />
    <glyph glyph-name="uniFEB8" unicode="&#x634;" horiz-adv-x="1488" arabic-form="medial" 
d="M1307 181.5q59 -50.5 181 -50.5l-24 -131q-78 0 -131 26.5t-78 73t-22 106.5h-9q-18 -101 -77.5 -153.5t-154.5 -52.5q-57 0 -102 24t-71 67t-27 97h-12q-32 -93 -101.5 -140.5t-171.5 -47.5q-89 0 -142.5 50t-61.5 138h-12q-34 -95 -109.5 -141.5t-205.5 -46.5
q-23 0 -33 12.5t-10 36.5q0 82 67 82q109 0 176.5 30.5t104.5 97.5t52 181h16q-2 -26 -10.5 -89.5t-18.5 -110.5q29 -54 83.5 -81.5t123.5 -27.5q92 0 151 31t93 98.5t47 179.5h16q-2 -25 -10.5 -86.5t-18.5 -108.5q29 -56 81.5 -85t119.5 -29q87 0 145.5 43t70.5 109
q0 31 -10 94t-22 115q12 5 27 14t25 18l4 -200q2 -92 61 -142.5zM735 1006q-33 26 -56 37v12l83 101q32 -13 65 -40t50 -51l-87 -107q-22 22 -55 48zM1019.5 837q-12.5 -30 -17.5 -47q-94 -6 -188 -10t-139 -4q-87 0 -126 13.5t-39 47.5q0 14 10 46q6 20 8 30h12
q0 -24 32.5 -35t114.5 -11q36 0 151.5 4t202.5 9q-9 -13 -21.5 -43z" />
    <glyph glyph-name="uniFEBA" unicode="&#x635;" horiz-adv-x="2487" arabic-form="final" 
d="M2487 131l-24 -131q-119 0 -180 48t-72 142q-73 -92 -208 -141t-322 -49q-125 0 -227 38t-156 110q2 -30 2 -57q0 -189 -81.5 -329.5t-230.5 -216.5t-346 -76q-160 0 -272.5 56.5t-171.5 163.5t-59 258q0 209 85 408h15q-30 -67 -50 -164.5t-20 -180.5q0 -129 57.5 -221
t168 -140.5t265.5 -48.5q180 0 321.5 60.5t220 165.5t78.5 235q0 52 -33 141.5t-110 252.5q11 17 25 49.5t22 59.5h13q37 -127 82 -210t104 -133q153 261 310.5 395t306.5 134q90 0 155.5 -39.5t100.5 -112t35 -167.5q0 -130 -68 -225q67 -75 244 -75h20zM2007 163.5
q127 32.5 194 88t67 124.5q0 72 -37 132.5t-104.5 96t-154.5 35.5q-93 0 -197.5 -55t-203.5 -152t-176 -221q57 -43 132.5 -62t178.5 -19q174 0 301 32.5z" />
    <glyph glyph-name="uniFEBB" unicode="&#x635;" horiz-adv-x="1562" arabic-form="initial" 
d="M1286.5 710.5q65.5 -39.5 100.5 -112t35 -167.5q0 -133 -72 -230t-209 -149t-329 -52q-217 0 -338.5 68.5t-140.5 198.5h-12q-27 -130 -115.5 -198.5t-229.5 -68.5q-23 0 -33 12.5t-10 36.5q0 82 67 82q160 0 243 76.5t100 232.5h15q7 -87 41.5 -147.5t100.5 -97.5
q155 274 316.5 414.5t314.5 140.5q90 0 155.5 -39.5zM1137.5 163.5q127.5 32.5 194.5 88t67 124.5q0 72 -37 132.5t-104 96t-155 35.5q-96 0 -203.5 -58t-208.5 -161t-179 -232q110 -58 324 -58q174 0 301.5 32.5z" />
    <glyph glyph-name="uniFEBC" unicode="&#x635;" horiz-adv-x="1618" arabic-form="medial" 
d="M1618 131l-24 -131q-119 0 -180 48t-72 142q-73 -92 -208 -141t-322 -49q-217 0 -338.5 68.5t-140.5 198.5h-12q-27 -130 -115.5 -198.5t-229.5 -68.5q-23 0 -33 12.5t-10 36.5q0 82 67 82q160 0 243 76.5t100 232.5h15q7 -87 41.5 -147.5t100.5 -97.5
q155 274 316.5 414.5t314.5 140.5q90 0 155.5 -39.5t100.5 -112t35 -167.5q0 -130 -68 -225q67 -75 244 -75h20zM1137.5 163.5q127.5 32.5 194.5 88t67 124.5q0 72 -37 132.5t-104 96t-155 35.5q-96 0 -203.5 -58t-208.5 -161t-179 -232q110 -58 324 -58q174 0 301.5 32.5z
" />
    <glyph glyph-name="uniFEBE" unicode="&#x636;" horiz-adv-x="2487" arabic-form="final" 
d="M2487 131l-24 -131q-119 0 -180 48t-72 142q-73 -92 -208 -141t-322 -49q-125 0 -227 38t-156 110q2 -30 2 -57q0 -189 -81.5 -329.5t-230.5 -216.5t-346 -76q-160 0 -272.5 56.5t-171.5 163.5t-59 258q0 209 85 408h15q-30 -67 -50 -164.5t-20 -180.5q0 -129 57.5 -221
t168 -140.5t265.5 -48.5q180 0 321.5 60.5t220 165.5t78.5 235q0 52 -33 141.5t-110 252.5q11 17 25 49.5t22 59.5h13q37 -127 82 -210t104 -133q153 261 310.5 395t306.5 134q90 0 155.5 -39.5t100.5 -112t35 -167.5q0 -130 -68 -225q67 -75 244 -75h20zM2007 163.5
q127 32.5 194 88t67 124.5q0 72 -37 132.5t-104.5 96t-154.5 35.5q-93 0 -197.5 -55t-203.5 -152t-176 -221q57 -43 132.5 -62t178.5 -19q174 0 301 32.5zM1886.5 1058q-34.5 28 -59.5 40v12l89 107q33 -14 68 -44t53 -57l-97 -109q-19 23 -53.5 51z" />
    <glyph glyph-name="uniFEBF" unicode="&#x636;" horiz-adv-x="1562" arabic-form="initial" 
d="M1286.5 710.5q65.5 -39.5 100.5 -112t35 -167.5q0 -133 -72 -230t-209 -149t-329 -52q-217 0 -338.5 68.5t-140.5 198.5h-12q-27 -130 -115.5 -198.5t-229.5 -68.5q-23 0 -33 12.5t-10 36.5q0 82 67 82q160 0 243 76.5t100 232.5h15q7 -87 41.5 -147.5t100.5 -97.5
q155 274 316.5 414.5t314.5 140.5q90 0 155.5 -39.5zM1137.5 163.5q127.5 32.5 194.5 88t67 124.5q0 72 -37 132.5t-104 96t-155 35.5q-96 0 -203.5 -58t-208.5 -161t-179 -232q110 -58 324 -58q174 0 301.5 32.5zM1037.5 1058q-34.5 28 -59.5 40v12l89 107q33 -14 68 -44
t53 -57l-97 -109q-19 23 -53.5 51z" />
    <glyph glyph-name="uniFEC0" unicode="&#x636;" horiz-adv-x="1618" arabic-form="medial" 
d="M1618 131l-24 -131q-119 0 -180 48t-72 142q-73 -92 -208 -141t-322 -49q-217 0 -338.5 68.5t-140.5 198.5h-12q-27 -130 -115.5 -198.5t-229.5 -68.5q-23 0 -33 12.5t-10 36.5q0 82 67 82q160 0 243 76.5t100 232.5h15q7 -87 41.5 -147.5t100.5 -97.5
q155 274 316.5 414.5t314.5 140.5q90 0 155.5 -39.5t100.5 -112t35 -167.5q0 -130 -68 -225q67 -75 244 -75h20zM1137.5 163.5q127.5 32.5 194.5 88t67 124.5q0 72 -37 132.5t-104 96t-155 35.5q-96 0 -203.5 -58t-208.5 -161t-179 -232q110 -58 324 -58q174 0 301.5 32.5z
M1037.5 1058q-34.5 28 -59.5 40v12l89 107q33 -14 68 -44t53 -57l-97 -109q-19 23 -53.5 51z" />
    <glyph glyph-name="uniFEC2" unicode="&#x637;" horiz-adv-x="1486" arabic-form="final" 
d="M1486 131l-25 -131q-119 0 -180 48t-72 142q-73 -92 -208 -141t-322 -49q-157 0 -251.5 18t-146.5 46t-118 79l-44 33v12q101 -25 204 -37q80 132 120.5 226.5t56.5 186.5t16 219q0 104 -17 384.5t-27 342.5q21 23 46.5 58.5t40.5 62.5h12q0 -49 9 -261q15 -347 15 -469
t-16 -215.5t-57.5 -192t-120.5 -228.5h12q156 250 298 367.5t287 117.5q90 0 155.5 -39.5t100.5 -112t35 -167.5q0 -130 -68 -225q67 -75 244 -75h21zM1005 163.5q127 32.5 194 88t67 124.5q0 72 -37 132.5t-104.5 96t-154.5 35.5q-100 0 -208.5 -60.5t-213.5 -171.5
t-195 -261q144 -16 351 -16q174 0 301 32.5z" />
    <glyph glyph-name="uniFEC3" unicode="&#x637;" horiz-adv-x="1161" arabic-form="initial" 
d="M886.5 710.5q65.5 -39.5 100.5 -112t35 -167.5q0 -133 -72 -230t-209 -149t-329 -52h-436q-23 0 -33 13t-10 36q0 41 15.5 61.5t51.5 20.5h44q85 140 128 237t60 191t17 224q0 101 -17 382.5t-27 344.5q21 23 46.5 58.5t41.5 62.5h12q0 -49 9 -261q1 -34 7.5 -203
t6.5 -266q0 -122 -16 -215.5t-58 -192t-121 -228.5h12q157 250 299 367.5t287 117.5q90 0 155.5 -39.5zM737.5 163.5q127.5 32.5 194.5 88t67 124.5q0 72 -37 132.5t-104 96t-155 35.5q-101 0 -212 -62.5t-217.5 -177.5t-195.5 -269h358q174 0 301.5 32.5z" />
    <glyph glyph-name="uniFEC4" unicode="&#x637;" horiz-adv-x="1218" arabic-form="medial" 
d="M1218 131l-24 -131q-119 0 -180 47.5t-72 142.5q-74 -92 -209 -141t-321 -49h-436q-23 0 -33 13t-10 36q0 41 15.5 61.5t51.5 20.5h44q85 140 128 237t60 191t17 224q0 101 -17 382.5t-27 344.5q21 23 46.5 58.5t41.5 62.5h12q0 -49 9 -261q1 -34 7.5 -203t6.5 -266
q0 -122 -16 -215.5t-58 -192t-121 -228.5h12q157 250 299 367.5t287 117.5q90 0 155.5 -39.5t100.5 -112t35 -167.5q0 -130 -68 -225q68 -75 244 -75h20zM737.5 163.5q127.5 32.5 194.5 88t67 124.5q0 72 -37 132.5t-104 96t-155 35.5q-101 0 -212 -62.5t-217.5 -177.5
t-195.5 -269h358q174 0 301.5 32.5z" />
    <glyph glyph-name="uniFEC6" unicode="&#x638;" horiz-adv-x="1486" arabic-form="final" 
d="M1486 131l-25 -131q-119 0 -180 48t-72 142q-73 -92 -208 -141t-322 -49q-157 0 -251.5 18t-146.5 46t-118 79l-44 33v12q101 -25 204 -37q80 132 120.5 226.5t56.5 186.5t16 219q0 104 -17 384.5t-27 342.5q21 23 46.5 58.5t40.5 62.5h12q0 -49 9 -261q15 -347 15 -469
t-16 -215.5t-57.5 -192t-120.5 -228.5h12q156 250 298 367.5t287 117.5q90 0 155.5 -39.5t100.5 -112t35 -167.5q0 -130 -68 -225q67 -75 244 -75h21zM1005 163.5q127 32.5 194 88t67 124.5q0 72 -37 132.5t-104.5 96t-154.5 35.5q-100 0 -208.5 -60.5t-213.5 -171.5
t-195 -261q144 -16 351 -16q174 0 301 32.5zM919.5 1058q-34.5 28 -59.5 40v12l89 107q33 -14 68 -44t53 -57l-97 -109q-19 23 -53.5 51z" />
    <glyph glyph-name="uniFEC7" unicode="&#x638;" horiz-adv-x="1161" arabic-form="initial" 
d="M886.5 710.5q65.5 -39.5 100.5 -112t35 -167.5q0 -133 -72 -230t-209 -149t-329 -52h-436q-23 0 -33 13t-10 36q0 41 15.5 61.5t51.5 20.5h44q85 140 128 237t60 191t17 224q0 101 -17 382.5t-27 344.5q21 23 46.5 58.5t41.5 62.5h12q0 -49 9 -261q1 -34 7.5 -203
t6.5 -266q0 -122 -16 -215.5t-58 -192t-121 -228.5h12q157 250 299 367.5t287 117.5q90 0 155.5 -39.5zM737.5 163.5q127.5 32.5 194.5 88t67 124.5q0 72 -37 132.5t-104 96t-155 35.5q-101 0 -212 -62.5t-217.5 -177.5t-195.5 -269h358q174 0 301.5 32.5zM695.5 1058
q-34.5 28 -59.5 40v12l89 107q33 -14 68 -44t53 -57l-97 -109q-19 23 -53.5 51z" />
    <glyph glyph-name="uniFEC8" unicode="&#x638;" horiz-adv-x="1218" arabic-form="medial" 
d="M1218 131l-24 -131q-119 0 -180 47.5t-72 142.5q-74 -92 -209 -141t-321 -49h-436q-23 0 -33 13t-10 36q0 41 15.5 61.5t51.5 20.5h44q85 140 128 237t60 191t17 224q0 101 -17 382.5t-27 344.5q21 23 46.5 58.5t41.5 62.5h12q0 -49 9 -261q1 -34 7.5 -203t6.5 -266
q0 -122 -16 -215.5t-58 -192t-121 -228.5h12q157 250 299 367.5t287 117.5q90 0 155.5 -39.5t100.5 -112t35 -167.5q0 -130 -68 -225q68 -75 244 -75h20zM737.5 163.5q127.5 32.5 194.5 88t67 124.5q0 72 -37 132.5t-104 96t-155 35.5q-101 0 -212 -62.5t-217.5 -177.5
t-195.5 -269h358q174 0 301.5 32.5zM695.5 1058q-34.5 28 -59.5 40v12l89 107q33 -14 68 -44t53 -57l-97 -109q-19 23 -53.5 51z" />
    <glyph glyph-name="uniFECA" unicode="&#x639;" horiz-adv-x="1267" arabic-form="final" 
d="M262.5 -451.5q69.5 -88.5 199.5 -135t307 -46.5q119 0 252.5 14t232.5 37v-12q-90 -47 -159.5 -77.5t-169 -54.5t-216.5 -24q-164 0 -285 52.5t-186 154t-65 245.5q0 115 35.5 211t115.5 189t216 196q-52 71 -135.5 170t-155.5 179q-57 -21 -98 -43l-12 12q8 14 21.5 46
t17.5 50q103 50 246.5 83t256.5 33q115 0 217.5 -21.5t219.5 -69.5q-10 -15 -22 -40t-20 -51q-84 -101 -176 -191t-209 -188q61 -56 126.5 -84.5t157.5 -40t243 -11.5h48l-24 -131h-46q-164 0 -263.5 18.5t-177 69t-158.5 151.5q-208 -127 -306 -243.5t-98 -233.5
q0 -125 69.5 -213.5zM467.5 705.5q-107.5 -19.5 -203.5 -53.5q184 -162 365 -346q103 62 207 146t223 200q-176 73 -387 73q-97 0 -204.5 -19.5z" />
    <glyph glyph-name="uniFECB" unicode="&#x639;" horiz-adv-x="1079" arabic-form="initial" 
d="M940 298q-15 -16 -40.5 -56.5t-40.5 -72.5q-83 -18 -170.5 -40.5t-117.5 -30.5q-133 -35 -215.5 -54t-178 -31.5t-201.5 -12.5q-23 0 -33 13t-10 36q0 41 15.5 61.5t51.5 20.5q162 0 329 30q-112 24 -170.5 98t-58.5 184q0 125 57 226t150 158.5t196 57.5
q113 0 174.5 -55t61.5 -144q0 -26 -6 -55h-12q0 68 -60.5 109.5t-172.5 41.5q-89 0 -173.5 -39.5t-137.5 -107t-53 -146.5q0 -73 44.5 -132.5t127.5 -94t195 -34.5q99 0 226 22.5t219 56.5z" />
    <glyph glyph-name="uniFECC" unicode="&#x639;" horiz-adv-x="1158" arabic-form="medial" 
d="M1158 131l-25 -131h-44q-135 0 -228.5 15.5t-164 52.5t-128.5 104q-145 -96 -277.5 -134t-314.5 -38q-23 0 -33 13t-10 36q0 41 15.5 61.5t51.5 20.5q168 0 286.5 22.5t220.5 72.5q-74 92 -164 199.5t-153 175.5q-57 -21 -99 -43l-12 12q8 15 21.5 46.5t18.5 49.5
q101 50 244.5 83t258.5 33q116 0 219 -21.5t217 -69.5q-21 -32 -42 -91q-81 -98 -171 -186.5t-207 -186.5q71 -53 177.5 -74.5t293.5 -21.5h49zM407.5 660q-107.5 -19 -203.5 -53q186 -164 366 -347q102 62 206 146.5t224 201.5q-178 71 -388 71q-97 0 -204.5 -19z" />
    <glyph glyph-name="uniFECE" unicode="&#x63a;" horiz-adv-x="1267" arabic-form="final" 
d="M262.5 -451.5q69.5 -88.5 199.5 -135t307 -46.5q119 0 252.5 14t232.5 37v-12q-90 -47 -159.5 -77.5t-169 -54.5t-216.5 -24q-164 0 -285 52.5t-186 154t-65 245.5q0 115 35.5 211t115.5 189t216 196q-52 71 -135.5 170t-155.5 179q-57 -21 -98 -43l-12 12q8 14 21.5 46
t17.5 50q103 50 246.5 83t256.5 33q115 0 217.5 -21.5t219.5 -69.5q-10 -15 -22 -40t-20 -51q-84 -101 -176 -191t-209 -188q61 -56 126.5 -84.5t157.5 -40t243 -11.5h48l-24 -131h-46q-164 0 -263.5 18.5t-177 69t-158.5 151.5q-208 -127 -306 -243.5t-98 -233.5
q0 -125 69.5 -213.5zM467.5 705.5q-107.5 -19.5 -203.5 -53.5q184 -162 365 -346q103 62 207 146t223 200q-176 73 -387 73q-97 0 -204.5 -19.5zM582.5 1164q-34.5 28 -59.5 40v12l89 107q33 -14 68 -44t53 -57l-97 -109q-19 23 -53.5 51z" />
    <glyph glyph-name="uniFECF" unicode="&#x63a;" horiz-adv-x="1079" arabic-form="initial" 
d="M940 298q-15 -16 -40.5 -56.5t-40.5 -72.5q-83 -18 -170.5 -40.5t-117.5 -30.5q-133 -35 -215.5 -54t-178 -31.5t-201.5 -12.5q-23 0 -33 13t-10 36q0 41 15.5 61.5t51.5 20.5q162 0 329 30q-112 24 -170.5 98t-58.5 184q0 125 57 226t150 158.5t196 57.5
q113 0 174.5 -55t61.5 -144q0 -26 -6 -55h-12q0 68 -60.5 109.5t-172.5 41.5q-89 0 -173.5 -39.5t-137.5 -107t-53 -146.5q0 -73 44.5 -132.5t127.5 -94t195 -34.5q99 0 226 22.5t219 56.5zM423.5 1176q-34.5 28 -59.5 40v12l89 107q33 -14 68 -44t53 -57l-97 -109
q-19 23 -53.5 51z" />
    <glyph glyph-name="uniFED0" unicode="&#x63a;" horiz-adv-x="1158" arabic-form="medial" 
d="M1158 131l-25 -131h-44q-135 0 -228.5 15.5t-164 52.5t-128.5 104q-145 -96 -277.5 -134t-314.5 -38q-23 0 -33 13t-10 36q0 41 15.5 61.5t51.5 20.5q168 0 286.5 22.5t220.5 72.5q-74 92 -164 199.5t-153 175.5q-57 -21 -99 -43l-12 12q8 15 21.5 46.5t18.5 49.5
q101 50 244.5 83t258.5 33q116 0 219 -21.5t217 -69.5q-21 -32 -42 -91q-81 -98 -171 -186.5t-207 -186.5q71 -53 177.5 -74.5t293.5 -21.5h49zM407.5 660q-107.5 -19 -203.5 -53q186 -164 366 -347q102 62 206 146.5t224 201.5q-178 71 -388 71q-97 0 -204.5 -19z
M529.5 1126q-34.5 28 -59.5 40v12l89 107q33 -14 68 -44t53 -57l-97 -109q-19 23 -53.5 51z" />
    <glyph glyph-name="uniFED2" unicode="&#x641;" horiz-adv-x="1958" arabic-form="final" 
d="M1933 0q-194 0 -295.5 22t-152.5 70q-102 -55 -260 -79.5t-413 -24.5q-242 0 -390 43.5t-215.5 131t-67.5 223.5t59 291h14q-20 -64 -30 -117t-10 -111q0 -157 154 -243.5t504 -86.5q180 0 308 7.5t230 27.5q-67 43 -103.5 103.5t-36.5 130.5q0 110 49 202t127 145
t160 53q80 0 143 -42t99 -117t36 -171q0 -108 -57.5 -187t-162.5 -124q86 -16 336 -16zM1282 343q32 -51 90 -96.5t133 -75.5q154 41 235.5 105.5t81.5 139.5q0 74 -37.5 135.5t-101 97.5t-138.5 36q-71 0 -139.5 -35.5t-112 -92.5t-43.5 -117q0 -46 32 -97zM1492.5 1070
q-34.5 28 -59.5 40v12l89 107q33 -14 68 -44t53 -57l-97 -109q-19 23 -53.5 51z" />
    <glyph glyph-name="uniFED3" unicode="&#x641;" horiz-adv-x="883" arabic-form="initial" 
d="M585.5 983q75.5 -64 116.5 -194.5t41 -324.5q0 -165 -74.5 -266.5t-234.5 -149.5t-422 -48h-36q-23 0 -33 12.5t-10 36.5q0 82 67 82h37q348 0 517.5 77t169.5 220q2 90 -10 161l-2 -1q-35 -90 -129.5 -143t-212.5 -53q-138 0 -203.5 66t-65.5 185q0 111 39.5 203.5
t109.5 146.5t156 54q104 0 179.5 -64zM568 531.5q87 28.5 143 76.5q-30 161 -116 249.5t-209 88.5q-68 0 -129 -34.5t-98.5 -93.5t-37.5 -127q0 -48 25.5 -90.5t85 -70t156.5 -27.5q93 0 180 28.5zM346.5 1391q-34.5 28 -59.5 40v12l89 107q33 -14 68 -44t53 -57l-97 -109
q-19 23 -53.5 51z" />
    <glyph glyph-name="uniFED4" unicode="&#x641;" horiz-adv-x="873" arabic-form="medial" 
d="M849 0q-195 0 -296.5 22t-153.5 69q-65 -47 -169 -69t-254 -22q-23 0 -33 12.5t-10 36.5q0 82 67 82q89 0 156 5.5t126 17.5q-68 42 -105 103t-37 131q0 110 49.5 202t127.5 145t160 53q79 0 143 -42t100 -117t36 -171q0 -107 -57 -185.5t-162 -124.5q50 -9 126 -13
t210 -4zM194 343q32 -51 90 -96.5t133 -75.5q154 41 235.5 105.5t81.5 139.5q0 74 -37 136t-101 97.5t-139 35.5q-71 0 -139.5 -35.5t-112 -92.5t-43.5 -117q0 -46 32 -97zM431.5 1070q-34.5 28 -59.5 40v12l89 107q33 -14 68 -44t53 -57l-97 -109q-19 23 -53.5 51z" />
    <glyph glyph-name="uniFED6" unicode="&#x642;" horiz-adv-x="1442" arabic-form="final" 
d="M1418 0h-120q-14 -166 -99 -288.5t-228 -188.5t-329 -66q-160 0 -272.5 56.5t-171.5 163.5t-59 258q0 204 85 408h16q-30 -66 -50 -164t-20 -181q0 -129 57.5 -221.5t168 -141t265.5 -48.5q176 0 316 57.5t220 156.5t85 219q-99 -11 -179 -15.5t-170 -4.5
q-144 0 -214.5 71.5t-70.5 205.5q0 118 43 215.5t115.5 153t157.5 55.5q152 0 239.5 -137.5t96.5 -432.5h142zM735.5 181.5q65.5 -56.5 209.5 -56.5q194 0 334 2q-15 235 -103.5 353t-232.5 118q-69 0 -132 -35.5t-102 -98.5t-39 -139q0 -87 65.5 -143.5zM1197.5 1032.5
q-12.5 -31.5 -17.5 -48.5q-94 -6 -188 -10t-139 -4q-87 0 -126 13.5t-39 47.5q0 13 10 47q6 22 8 33h12q0 -24 32.5 -35t114.5 -11q45 0 168.5 4t184.5 9q-8 -14 -20.5 -45.5z" />
    <glyph glyph-name="uniFED7" unicode="&#x642;" horiz-adv-x="883" arabic-form="initial" 
d="M585.5 983q75.5 -64 116.5 -194.5t41 -324.5q0 -165 -74.5 -266.5t-234.5 -149.5t-422 -48h-36q-23 0 -33 12.5t-10 36.5q0 82 67 82h37q348 0 517.5 77t169.5 220q2 90 -10 161l-2 -1q-35 -90 -129.5 -143t-212.5 -53q-138 0 -203.5 66t-65.5 185q0 111 39.5 203.5
t109.5 146.5t156 54q104 0 179.5 -64zM568 531.5q87 28.5 143 76.5q-30 161 -116 249.5t-209 88.5q-68 0 -129 -34.5t-98.5 -93.5t-37.5 -127q0 -48 25.5 -90.5t85 -70t156.5 -27.5q93 0 180 28.5zM633.5 1426.5q-12.5 -31.5 -17.5 -48.5q-94 -6 -188 -10t-139 -4
q-87 0 -126 13.5t-39 47.5q0 13 10 47q6 22 8 33h12q0 -24 32.5 -35t114.5 -11q45 0 168.5 4t184.5 9q-8 -14 -20.5 -45.5z" />
    <glyph glyph-name="uniFED8" unicode="&#x642;" horiz-adv-x="873" arabic-form="medial" 
d="M849 0q-195 0 -296.5 22t-153.5 69q-65 -47 -169 -69t-254 -22q-23 0 -33 12.5t-10 36.5q0 82 67 82q89 0 156 5.5t126 17.5q-68 42 -105 103t-37 131q0 110 49.5 202t127.5 145t160 53q79 0 143 -42t100 -117t36 -171q0 -107 -57 -185.5t-162 -124.5q50 -9 126 -13
t210 -4zM194 343q32 -51 90 -96.5t133 -75.5q154 41 235.5 105.5t81.5 139.5q0 74 -37 136t-101 97.5t-139 35.5q-71 0 -139.5 -35.5t-112 -92.5t-43.5 -117q0 -46 32 -97zM718.5 1105.5q-12.5 -31.5 -17.5 -48.5q-94 -6 -188 -10t-139 -4q-87 0 -126 13.5t-39 47.5
q0 13 10 47q6 22 8 33h12q0 -24 32.5 -35t114.5 -11q45 0 168.5 4t184.5 9q-8 -14 -20.5 -45.5z" />
    <glyph glyph-name="uniFEDA" unicode="&#x643;" horiz-adv-x="2120" arabic-form="final" 
d="M1885.5 44.5q-92.5 44.5 -179 146.5t-188.5 283h-13q10 -37 10 -68q-4 -147 -83.5 -238.5t-246 -135.5t-431.5 -44q-319 0 -467 98t-148 300q0 138 57 291h16q-20 -63 -30.5 -116.5t-10.5 -111.5q0 -155 145 -242.5t456 -87.5q265 0 427 38t230 95.5t68 120.5
q0 126 -155.5 271t-480.5 308q35 87 53 149q7 23 19 34.5t39 22.5l979 382l9 -6q-41 -72 -57 -130l-988 -352v-12q210 -110 340.5 -204.5t202 -172t156.5 -191.5q83 -111 140 -175q85 -93 168 -129.5t198 -36.5l-21 -131q-121 0 -213.5 44.5z" />
    <glyph glyph-name="uniFEDB" unicode="&#x643;" horiz-adv-x="913" arabic-form="initial" 
d="M626 167.5q-69 -88.5 -217 -128t-397 -39.5h-36q-23 0 -33 13t-10 36q0 41 15.5 61.5t51.5 20.5h36q327 0 484 63t157 182q0 78 -76.5 173t-223 198t-353.5 205q14 34 30.5 77t24.5 72q6 22 18 33t40 24l856 382l11 -6q-19 -32 -34.5 -67t-23.5 -63l-867 -352v-12
q231 -121 366 -226t192.5 -203t57.5 -205q0 -150 -69 -238.5z" />
    <glyph glyph-name="uniFEDC" unicode="&#x643;" horiz-adv-x="1284" arabic-form="medial" 
d="M1050.5 44.5q-92.5 44.5 -179 146.5t-188.5 283h-12q8 -44 8 -68q-3 -147 -68 -235.5t-209.5 -129.5t-389.5 -41h-36q-23 0 -33 13t-10 36q0 41 15.5 61.5t51.5 20.5h36q321 0 473 63t152 179q0 126 -155.5 271t-481.5 308q14 34 30.5 77t24.5 72q6 23 18.5 34.5
t39.5 22.5l977 382l11 -6q-36 -59 -58 -130l-988 -352v-12q210 -109 340 -204t201.5 -172t157.5 -191q32 -43 68 -89t73 -87q84 -93 167 -129.5t198 -36.5l-21 -131q-120 0 -212.5 44.5z" />
    <glyph glyph-name="uniFEDE" unicode="&#x644;" horiz-adv-x="1533" arabic-form="final" 
d="M1326 48.5q-64 48.5 -78 145.5h-12q0 -62 -9.5 -136t-24.5 -110q-13 -141 -89 -249.5t-203.5 -169t-291.5 -60.5q-149 0 -256.5 56.5t-165 164t-57.5 257.5q0 209 85 408h15q-30 -67 -50 -164.5t-20 -180.5q0 -129 56.5 -221t161.5 -140.5t249 -48.5q158 0 288.5 56
t206 155.5t75.5 222.5q-1 146 -17.5 475t-36.5 631.5t-31 369.5q21 23 46.5 58.5t40.5 62.5h13q0 -172 14 -580q13 -358 13 -520q0 -164 26 -249t86 -118t173 -33l-24 -131q-119 0 -183 48.5z" />
    <glyph glyph-name="uniFEDF" unicode="&#x644;" horiz-adv-x="504" arabic-form="initial" 
d="M321.5 210q-27.5 -95 -78.5 -149q-31 -32 -97 -46.5t-168 -14.5q-22 0 -33.5 13.5t-11.5 36.5q0 40 15.5 60.5t51.5 20.5q164 0 236.5 38t72.5 104q0 117 -18.5 387t-42 530t-33.5 320q22 23 47.5 58.5t40.5 62.5h12q0 -33 9 -290q12 -325 18.5 -543t6.5 -388
q0 -105 -27.5 -200z" />
    <glyph glyph-name="uniFEE0" unicode="&#x644;" horiz-adv-x="689" arabic-form="medial" 
d="M404.5 76q-82.5 76 -81.5 240h-11q-4 -167 -86 -241.5t-248 -74.5q-22 0 -33.5 12.5t-11.5 36.5q0 41 15.5 61.5t51.5 20.5q108 0 175.5 31t100.5 101t33 188q-3 386 -7 566t-11 275t-24 214q20 20 44.5 56.5t43.5 68.5h13q0 -49 5 -132q7 -154 7 -238q0 -150 -6 -432
q-6 -266 -6 -389q0 -119 30.5 -185.5t99.5 -95t191 -28.5l-24 -131q-178 0 -260.5 76z" />
    <glyph glyph-name="uniFEE2" unicode="&#x645;" horiz-adv-x="1331" arabic-form="final" 
d="M1111.5 238.5q37.5 -59.5 88.5 -83.5t131 -24l-24 -131q-116 0 -182.5 66.5t-88.5 200.5h-12q-1 -129 -61.5 -198t-162.5 -69q-103 0 -183 14t-168 37q-70 20 -97 20q-72 0 -115 -61t-43 -162q0 -551 12 -672q-29 -29 -53 -85h-10q5 25 5 96q0 64 -3 169q-6 228 -6 462
q0 172 60.5 274.5t170.5 110.5q93 498 367 498q215 0 303 -291q34 -112 71.5 -171.5zM963.5 166.5q42.5 35.5 42.5 100.5q0 86 -36 162t-102.5 122.5t-154.5 46.5q-120 0 -204 -101.5t-123 -293.5l29 -8q96 -26 200.5 -45t230.5 -19q75 0 117.5 35.5z" />
    <glyph glyph-name="uniFEE3" unicode="&#x645;" horiz-adv-x="1119" arabic-form="initial" 
d="M835.5 674.5q67.5 -56.5 106 -158t38.5 -231.5q0 -133 -58.5 -209t-159.5 -76q-98 0 -186.5 31t-150.5 83.5t-85 116.5q-10 31 -10 76q0 21 1 31l-13 8q-33 -113 -72.5 -186.5t-104.5 -116.5t-165 -43q-23 0 -33 12.5t-10 36.5q0 82 67 82q125 0 200.5 62t114.5 211
l31 -28q74 180 155 267.5t184 87.5q83 0 150.5 -56.5zM490 559q-75 -69 -126 -195q19 -58 84 -112t154.5 -87.5t179.5 -33.5q87 0 131.5 32.5t44.5 103.5q0 101 -38.5 183.5t-106.5 130t-154 47.5q-94 0 -169 -69z" />
    <glyph glyph-name="uniFEE4" unicode="&#x645;" horiz-adv-x="1301" arabic-form="medial" 
d="M1091 61.5q-73 61.5 -103 181.5h-12q-1 -138 -56 -208.5t-158 -70.5q-97 0 -185.5 31.5t-151 85.5t-85.5 117q-10 31 -10 75q0 21 1 31l-13 8q-34 -99 -74 -165.5t-105 -106.5t-163 -40q-23 0 -33 12.5t-10 36.5q0 82 67 82q123 0 199 56.5t116 182.5l31 -27
q74 180 156 267t187 87q96 0 168 -69t129 -222q37 -108 78.5 -167t97 -83.5t139.5 -24.5l-24 -131q-113 0 -186 61.5zM490 525.5q-75 -68.5 -126 -194.5q19 -59 84 -113.5t155 -88.5t179 -34q176 0 176 139q0 100 -38.5 182.5t-106.5 130t-154 47.5q-94 0 -169 -68.5z" />
    <glyph glyph-name="uniFEE6" unicode="&#x646;" horiz-adv-x="1531" arabic-form="final" 
d="M1294 303.5q48 -93.5 104 -133t133 -39.5l-24 -131q-67 0 -120 30t-86 86v-25q0 -189 -81.5 -329.5t-230.5 -216.5t-347 -76q-160 0 -272.5 56.5t-171.5 163.5t-59 258q0 205 85 408h16q-30 -66 -50 -163.5t-20 -181.5q0 -129 57.5 -221t168 -140.5t265.5 -48.5
q180 0 321 60.5t219.5 165.5t78.5 235q0 53 -33.5 143t-109.5 251q12 19 26.5 51t21.5 58h13q48 -167 96 -260.5zM628.5 342q-34.5 28 -59.5 40v12l89 107q33 -14 68 -44t53 -57l-97 -109q-19 23 -53.5 51z" />
    <glyph glyph-name="uniFEE7" unicode="&#x646;" horiz-adv-x="546" arabic-form="initial" 
d="M298.5 75.5q-107.5 -75.5 -322.5 -75.5q-23 0 -33 13t-10 36q0 41 15.5 61.5t51.5 20.5q120 0 207.5 18t133.5 51t46 77q0 70 -51.5 172.5t-111.5 172.5q13 16 30 53t28 71h9q7 -20 21 -50q41 -91 67.5 -181.5t26.5 -207.5q0 -156 -107.5 -231.5zM158.5 1015
q-34.5 28 -59.5 40v12l89 107q33 -14 68 -44t53 -57l-97 -109q-19 23 -53.5 51z" />
    <glyph glyph-name="uniFEE8" unicode="&#x646;" horiz-adv-x="709" arabic-form="medial" 
d="M540 24.5q-56 24.5 -84.5 81t-28.5 151.5q0 38 2 59h-12q-15 -117 -63 -185.5t-139.5 -99.5t-238.5 -31q-23 0 -33 13t-10 36q0 41 15.5 61.5t51.5 20.5q167 0 255.5 33t128.5 109.5t56 221.5h15v-85q0 -109 22 -168.5t76.5 -85t155.5 -25.5l-24 -131q-89 0 -145 24.5z
M249.5 749q-34.5 28 -59.5 40v12l89 107q33 -14 68 -44t53 -57l-97 -109q-19 23 -53.5 51z" />
    <glyph glyph-name="uniFEEA" unicode="&#x647;" horiz-adv-x="1121" arabic-form="final" 
d="M885.5 214q79.5 -83 235.5 -83l-24 -131q-164 0 -253.5 91.5t-98.5 272.5h-10q-28 -123 -117.5 -189t-244.5 -66q-116 0 -175 46t-59 130q0 85 51.5 164t172.5 173t341 226q-11 78 -21 125q20 17 43.5 45t38.5 53h6q17 -133 26 -264.5t9 -333.5q0 -176 79.5 -259z
M574.5 265.5q76.5 28.5 116 75t39.5 99.5q0 179 -19 347q-208 -118 -324 -197t-163.5 -133.5t-47.5 -101.5q0 -58 51.5 -88t163.5 -30q107 0 183.5 28.5z" />
    <glyph glyph-name="uniFEEB" unicode="&#x647;" horiz-adv-x="1255" arabic-form="initial" 
d="M1080 139q-35 -89 -106 -175q-234 79 -516 153q-99 -66 -220.5 -91.5t-261.5 -25.5q-25 0 -34 15t-9 34q0 30 14.5 56t52.5 26q99 0 183 8t161 37q-100 41 -147.5 103t-47.5 149q0 83 33.5 160t89 132.5t119.5 78.5l-39 21q-96 52 -112 59q11 24 18 56.5t8 56.5h12
q90 -74 358 -210q191 -97 293 -167.5t144 -137.5t42 -152q0 -97 -35 -186zM249.5 333q75.5 -69 222.5 -118q109 54 169 114.5t60 125.5q0 78 -35 140t-94 96t-129 34q-69 0 -131 -35t-100 -92t-38 -119q0 -77 75.5 -146zM1049.5 386q-33.5 53 -116 111.5t-240.5 143.5
q26 -66 26 -144q0 -92 -41.5 -166t-120.5 -137q249 -58 453 -124q73 102 73 197q0 66 -33.5 119z" />
    <glyph glyph-name="uniFEEC" unicode="&#x647;" horiz-adv-x="1004" arabic-form="medial" 
d="M841.5 3.5q-54.5 3.5 -124.5 14.5v-12q64 -38 93.5 -80t29.5 -106q0 -88 -40 -154t-115 -102.5t-175 -36.5q-126 0 -215.5 57.5t-135.5 160t-46 237.5v18h-137q-24 0 -33.5 15t-9.5 34q0 30 15 56t53 26h125q25 142 89.5 274t132 227.5t154.5 202.5q58 69 69 90h12
q0 -87 11.5 -180t32.5 -222q2 -14 10 -65t11.5 -84.5t3.5 -54.5q0 -61 -59.5 -112t-176.5 -82v-12q95 11 166 14.5t232 3.5h190l-24 -131q-84 0 -138.5 3.5zM573 353.5q-7 50.5 -21 134.5q-18 110 -28.5 186.5t-11.5 137.5q-150 -175 -242 -354t-112 -333q136 0 231 19
t143 52t48 77q0 30 -7 80.5zM772 -88.5q-50 49.5 -149 76.5t-243 27q-99 0 -225 -13q8 -110 56 -190t131.5 -123.5t196.5 -43.5q86 0 150 22t98.5 57t34.5 72q0 66 -50 115.5z" />
    <glyph glyph-name="uniFEEE" unicode="&#x648;" horiz-adv-x="976" arabic-form="final" 
d="M951 0h-128q-27 -147 -113.5 -265.5t-209 -186t-254.5 -67.5q-32 0 -66.5 10t-84.5 29q-10 3 -34 12t-41 13v12q181 2 351 65.5t287 167.5t147 221q-183 -11 -338 -11q-144 0 -214.5 71.5t-70.5 205.5q0 119 42.5 216t114.5 152.5t158 55.5q103 0 178.5 -63.5t117.5 -191
t42 -315.5h141zM269 182q66 -57 210 -57q211 0 334 2q-6 150 -49 256t-117 160.5t-171 54.5q-69 0 -132 -35.5t-102 -98.5t-39 -139q0 -86 66 -143z" />
    <glyph glyph-name="uniFEF0" unicode="&#x649;" horiz-adv-x="1375" arabic-form="final" 
d="M1351 0q-82 0 -153 3q53 -24 76 -54t23 -74q0 -129 -80 -232.5t-228.5 -163t-346.5 -59.5q-159 0 -272 56.5t-172 164t-59 258.5q0 207 82 402h15q-28 -63 -47.5 -160.5t-19.5 -179.5q0 -128 57.5 -220.5t168 -141t265.5 -48.5q186 0 326.5 47.5t215 117t74.5 132.5
q0 43 -45.5 69.5t-114 41t-187.5 31.5q-107 17 -168.5 28t-118.5 28v12q41 52 64 106q102 -20 256.5 -26.5t412.5 -6.5z" />
    <glyph glyph-name="uniFEF2" unicode="&#x64a;" horiz-adv-x="1375" arabic-form="final" 
d="M1351 0q-82 0 -153 3q53 -24 76 -54t23 -74q0 -129 -80 -232.5t-228.5 -163t-346.5 -59.5q-159 0 -272 56.5t-172 164t-59 258.5q0 207 82 402h15q-28 -63 -47.5 -160.5t-19.5 -179.5q0 -128 57.5 -220.5t168 -141t265.5 -48.5q186 0 326.5 47.5t215 117t74.5 132.5
q0 43 -45.5 69.5t-114 41t-187.5 31.5q-107 17 -168.5 28t-118.5 28v12q41 52 64 106q102 -20 256.5 -26.5t412.5 -6.5z" />
    <glyph glyph-name="uniFEF3" unicode="&#x64a;" horiz-adv-x="546" arabic-form="initial" 
d="M298.5 75.5q-107.5 -75.5 -322.5 -75.5q-23 0 -33 13t-10 36q0 41 15.5 61.5t51.5 20.5q120 0 207.5 18t133.5 51t46 77q0 70 -51.5 172.5t-111.5 172.5q13 16 30 53t28 71h9q7 -20 21 -50q41 -91 67.5 -181.5t26.5 -207.5q0 -156 -107.5 -231.5zM-148.5 -317.5
q12.5 31.5 17.5 48.5q94 6 188 10t139 4q87 0 126 -13.5t39 -47.5q0 -13 -10 -47q-6 -22 -8 -33h-12q0 24 -32.5 35t-114.5 11q-45 0 -168.5 -4t-184.5 -9q8 14 20.5 45.5z" />
    <glyph glyph-name="uniFEF4" unicode="&#x64a;" horiz-adv-x="709" arabic-form="medial" 
d="M540 24.5q-56 24.5 -84.5 81t-28.5 151.5q0 38 2 59h-12q-15 -117 -63 -185.5t-139.5 -99.5t-238.5 -31q-23 0 -33 13t-10 36q0 41 15.5 61.5t51.5 20.5q167 0 255.5 33t128.5 109.5t56 221.5h15v-85q0 -109 22 -168.5t76.5 -85t155.5 -25.5l-24 -131q-89 0 -145 24.5z
M-172.5 -317.5q12.5 31.5 17.5 48.5q94 6 188 10t139 4q87 0 126 -13.5t39 -47.5q0 -13 -10 -47q-6 -22 -8 -33h-12q0 24 -32.5 35t-114.5 11q-45 0 -168.5 -4t-184.5 -9q8 14 20.5 45.5z" />
    <glyph glyph-name=".notdef" horiz-adv-x="1410" 
d="M210 0v1400h990v-1400h-990zM249 52h913v1297h-913v-1297z" />
    <glyph glyph-name=".null" horiz-adv-x="2109" 
 />
    <glyph glyph-name="nonmarkingreturn" horiz-adv-x="2109" 
 />
    <glyph glyph-name="space" unicode=" " horiz-adv-x="335" 
 />
    <glyph glyph-name="exclam" unicode="!" horiz-adv-x="497" 
d="M247 1520q37 -144 59 -269.5t22 -286.5q0 -120 -14 -229t-47 -295h-15q27 178 27 312q0 152 -40.5 373.5t-99.5 381.5q21 25 42 62.5t28 61.5h12q7 -38 26 -111zM186 27.5q-29 27.5 -29 73.5q0 45 29 72t72 27q42 0 71 -27t29 -72q0 -46 -29 -73.5t-71 -27.5
q-43 0 -72 27.5z" />
    <glyph glyph-name="quotedbl" unicode="&#x22;" horiz-adv-x="580" 
d="M181 1366q24 16 43 34q0 -119 -4.5 -192.5t-17.5 -198.5l-14 -141h-12l-37 475q18 7 42 23zM397 1366q24 16 43 34q0 -119 -4.5 -192.5t-17.5 -198.5l-14 -141h-12l-37 475q18 7 42 23z" />
    <glyph glyph-name="quotedbl" unicode="&#x2033;" horiz-adv-x="580" 
d="M181 1366q24 16 43 34q0 -119 -4.5 -192.5t-17.5 -198.5l-14 -141h-12l-37 475q18 7 42 23zM397 1366q24 16 43 34q0 -119 -4.5 -192.5t-17.5 -198.5l-14 -141h-12l-37 475q18 7 42 23z" />
    <glyph glyph-name="numbersign" unicode="#" horiz-adv-x="1382" 
d="M1228 933h-285l-66 -448l299 3l-14 -60h-294l-70 -476h-12l-10 106l50 370h-351l-71 -476h-12l-10 106l50 370h-293l17 51l284 3l61 451h-295l16 53l287 2l56 415l54 -17l-60 -397l343 2l56 412l52 -17l-58 -394l290 2zM834 485l60 448h-343l-68 -451z" />
    <glyph glyph-name="dollar" unicode="$" horiz-adv-x="1060" 
d="M783 655.5q84 -59.5 120.5 -132t36.5 -165.5q0 -99 -46 -177t-133 -124t-204 -50l2 -85q0 -28 -20 -28q-11 0 -17 7t-6 20l1 59l1 27q-107 4 -199.5 47t-147.5 116.5t-55 165.5q0 34 16.5 56t41.5 22q29 0 45 -16.5t16 -46.5v-59q0 -81 37.5 -141t102.5 -92.5t144 -36.5
q10 255 10 638l-5 2q-146 52 -232.5 110.5t-124.5 130.5t-38 167q0 98 52 178.5t142 129t200 55.5l-1 24l-1 55q0 14 6 22t16 8q21 0 21 -31l-2 -77q116 0 204.5 -40.5t136.5 -109.5t48 -154q0 -35 -15.5 -55t-43.5 -20q-29 0 -46 18t-17 47v41q0 80 -34.5 138t-95.5 88
t-138 31l-1 -32q-9 -318 -9 -619l6 -2q142 -50 226 -109.5zM292 917q74 -80 242 -144q0 210 -2.5 333.5t-6.5 274.5l-1 36q-92 -7 -161 -48t-107 -109t-38 -154q0 -109 74 -189zM769.5 106.5q78.5 78.5 78.5 214.5q0 91 -40 154t-105 103.5t-157 75.5q1 -321 11 -632
q134 6 212.5 84.5z" />
    <glyph glyph-name="percent" unicode="%" horiz-adv-x="1239" 
d="M214 1415.5q-62 -49.5 -90.5 -130t-28.5 -174.5q0 -177 72 -271t205 -94q78 0 139.5 42.5t96.5 125t35 197.5q0 91 -28 171.5t-89 131.5t-154 51q-96 0 -158 -49.5zM809.5 1015.5q101.5 165.5 177.5 290.5l74 121q4 8 4 11q0 6 -6 10q-4 2 -7 2q-9 0 -13 -10
q-9 -11 -245 -414l-154 -260q-2 -4 -2 -6q0 -5 4.5 -6t8.5 4q57 92 158.5 257.5zM502.5 840.5q-48.5 -79.5 -130.5 -79.5q-108 0 -147.5 98.5t-39.5 257.5q0 164 49.5 248t137.5 84q105 0 142 -96t37 -250q0 -183 -48.5 -262.5zM715 653q-62 -50 -90.5 -130t-28.5 -174
q0 -176 72.5 -271t204.5 -95q78 0 139.5 43t96.5 125.5t35 197.5q0 92 -28 172.5t-89 131t-154 50.5q-96 0 -158 -50zM381 339q-191 -316 -201 -330q-4 -8 -4 -11q0 -7 6 -10q4 -2 7 -2q4 0 8 2t5 6l196 335l107 182q88 148 97 167q3 5 3 8q0 4 -4 4q-3 0 -8 -5zM1003.5 79
q-48.5 -80 -130.5 -80q-108 0 -147.5 98.5t-39.5 258.5q0 164 49.5 248t137.5 84q105 0 142 -96.5t37 -249.5q0 -183 -48.5 -263z" />
    <glyph glyph-name="ampersand" unicode="&#x26;" horiz-adv-x="1777" 
d="M1195 1361q204 -147 325 -392.5t121 -525.5q0 -145 -46 -250.5t-131.5 -161.5t-200.5 -56q-92 0 -168.5 33t-148.5 103q-76 -64 -171.5 -99.5t-223.5 -35.5q-97 0 -177 31.5t-127.5 97t-47.5 163.5q0 103 48.5 188t144.5 141t234 73q-27 111 -27 223q0 103 38.5 187
t110 132.5t166.5 48.5q63 0 113 -29t78.5 -80.5t28.5 -116.5q0 -154 -107 -248t-290 -120q53 -181 162 -334q71 -99 134 -169q101 95 148.5 183t47.5 156q0 27 -9 46.5t-26 43.5q-14 21 -20.5 34.5t-6.5 30.5q0 27 18 44.5t44 17.5q35 0 57.5 -29.5t22.5 -84.5
q0 -119 -65.5 -230t-202.5 -221q67 -70 129 -101.5t133 -31.5q97 0 169.5 46.5t112.5 140.5t40 232q0 274 -119.5 517t-320.5 389t-432 146q-138 0 -246 -47.5t-169.5 -137.5t-61.5 -213q0 -43 15 -69.5t43 -53.5q22 -22 33 -39.5t11 -43.5q0 -24 -15.5 -39t-40.5 -15
q-49 0 -80 53t-31 147q0 146 69.5 253t193 163.5t281.5 56.5q236 0 440 -147zM787.5 1196.5q-46.5 -47.5 -69 -120t-22.5 -148.5q0 -120 38 -251q141 27 222.5 115.5t81.5 245.5q0 93 -35 149.5t-99 56.5q-70 0 -116.5 -47.5zM392 93.5q79 -79.5 223 -79.5q99 0 175.5 25
t145.5 81q-63 63 -135 168q-124 185 -173 374q-82 -14 -154.5 -62.5t-116.5 -123.5t-44 -162q0 -141 79 -220.5z" />
    <glyph glyph-name="quotesingle" unicode="'" horiz-adv-x="364" 
d="M181 1366q24 16 43 34q0 -119 -4.5 -192.5t-17.5 -198.5l-14 -141h-12l-37 475q18 7 42 23z" />
    <glyph glyph-name="quotesingle" unicode="&#x2032;" horiz-adv-x="364" 
d="M181 1366q24 16 43 34q0 -119 -4.5 -192.5t-17.5 -198.5l-14 -141h-12l-37 475q18 7 42 23z" />
    <glyph glyph-name="parenleft" unicode="(" horiz-adv-x="715" 
d="M239 1236q100 210 314 395h12q-121 -116 -195.5 -245t-109.5 -283t-35 -348q0 -289 80 -496.5t260 -379.5h-12q-214 186 -314 396t-100 480q0 271 100 481z" />
    <glyph glyph-name="parenright" unicode=")" horiz-adv-x="715" 
d="M475 275q-100 -210 -313 -396h-13q180 172 260.5 379.5t80.5 496.5q0 194 -35.5 348t-110 283t-195.5 245h13q213 -185 313 -395t100 -481q0 -270 -100 -480z" />
    <glyph glyph-name="asterisk" unicode="*" horiz-adv-x="1146" 
d="M605 788q0 -83 -7.5 -144.5t-24.5 -128.5q55 18 134 56t230 118q28 -30 69 -55q-160 -68 -246.5 -95.5t-180.5 -38.5q33 -48 92 -110.5t182 -185.5q-22 -38 -33 -85q-114 136 -165.5 210t-89.5 162q-35 -45 -78.5 -121t-122.5 -227q-31 7 -63 7q-9 0 -27 -2
q96 150 151 221t128 134q-51 19 -132 37t-258 50q-6 49 -24 87q171 -46 255.5 -77.5t164.5 -81.5q1 10 1 32q0 45 -6.5 110t-20.5 184l-8 71q36 15 75 49q5 -117 5 -176z" />
    <glyph glyph-name="asterisk" unicode="&#x66d;" horiz-adv-x="1146" 
d="M605 788q0 -83 -7.5 -144.5t-24.5 -128.5q55 18 134 56t230 118q28 -30 69 -55q-160 -68 -246.5 -95.5t-180.5 -38.5q33 -48 92 -110.5t182 -185.5q-22 -38 -33 -85q-114 136 -165.5 210t-89.5 162q-35 -45 -78.5 -121t-122.5 -227q-31 7 -63 7q-9 0 -27 -2
q96 150 151 221t128 134q-51 19 -132 37t-258 50q-6 49 -24 87q171 -46 255.5 -77.5t164.5 -81.5q1 10 1 32q0 45 -6.5 110t-20.5 184l-8 71q36 15 75 49q5 -117 5 -176z" />
    <glyph glyph-name="plus" unicode="+" horiz-adv-x="1091" 
d="M564 12l-39 -12v376h-386l12 40l374 16v361l51 11v-372h375l-12 -56h-363z" />
    <glyph glyph-name="comma" unicode="," horiz-adv-x="345" 
d="M239 -24q0 -96 -37.5 -171.5t-109.5 -108.5q-6 -1 -8.5 -5t-0.5 -7q5 -3 13 -1q79 32 124.5 118.5t45.5 232.5q0 60 -21 95t-61 35q-32 0 -53 -23t-21 -60t21 -59t60 -22h26q22 0 22 -24z" />
    <glyph glyph-name="hyphen" unicode="-" horiz-adv-x="1091" 
d="M139 376l12 40l800 16l-12 -56h-800z" />
    <glyph glyph-name="hyphen" unicode="&#x2010;" horiz-adv-x="1091" 
d="M139 376l12 40l800 16l-12 -56h-800z" />
    <glyph glyph-name="period" unicode="." horiz-adv-x="479" 
d="M168 27.5q-29 27.5 -29 73.5q0 45 29 72t72 27q42 0 71 -27t29 -72q0 -46 -29 -73.5t-71 -27.5q-43 0 -72 27.5z" />
    <glyph glyph-name="slash" unicode="/" horiz-adv-x="1079" 
d="M151 -48h-12l28 79l740 1369l32 -57z" />
    <glyph glyph-name="zero" unicode="0" horiz-adv-x="929" 
d="M720.5 353.5q-39.5 -71.5 -111 -110.5t-164.5 -39q-83 0 -145.5 34t-96.5 97t-34 149q0 101 41.5 180t113.5 122.5t161 43.5q79 0 141.5 -39t98 -109.5t35.5 -161.5q0 -95 -39.5 -166.5zM222.5 400.5q35.5 -47.5 98.5 -73.5t142 -26t142.5 26.5t100 71.5t36.5 98
q0 66 -34.5 121.5t-97 88t-142.5 32.5q-75 0 -139.5 -31.5t-103 -84.5t-38.5 -113q0 -62 35.5 -109.5z" />
    <glyph glyph-name="one" unicode="1" horiz-adv-x="580" 
d="M231 1257l47 -134q90 -260 126 -431.5t36 -336.5q0 -68 -10.5 -155.5t-37.5 -247.5h-12q11 80 16 135.5t5 110.5q0 145 -21 274t-81 314.5t-180 486.5q11 18 26.5 57t25.5 70h12q4 -21 48 -143z" />
    <glyph glyph-name="two" unicode="2" horiz-adv-x="918" 
d="M778 1400q-5 -131 -46 -223.5t-110.5 -140.5t-159.5 -48q-45 0 -87 15t-71 43q77 -230 106.5 -384t29.5 -307q0 -68 -10.5 -155.5t-37.5 -247.5h-12q11 80 16 135.5t5 110.5q0 146 -21 275t-80.5 313.5t-180.5 486.5q11 20 27.5 60.5t24.5 66.5h12q48 -147 115 -215.5
t176 -68.5q117 0 195.5 72.5t96.5 211.5h12z" />
    <glyph glyph-name="three" unicode="3" horiz-adv-x="1193" 
d="M1054 1329q0 -103 -27 -177t-76.5 -113t-116.5 -39q-61 0 -101.5 39.5t-43.5 104.5h-12q-20 -74 -80 -115t-145 -41q-41 0 -80 14t-67 40q76 -229 105.5 -382t29.5 -305q0 -68 -10.5 -155.5t-37.5 -247.5h-12q11 80 16 135.5t5 110.5q0 146 -21 275t-80.5 313.5
t-180.5 486.5q11 20 27.5 60.5t24.5 66.5h12q47 -147 112 -215.5t173 -68.5q110 0 170 63t76 200h12q-2 -71 -18 -154q14 -46 52 -73t96 -27q86 0 135 63.5t49 189.5q0 22 -1 34h12q3 -27 3 -83z" />
    <glyph glyph-name="four" unicode="4" horiz-adv-x="1111" 
d="M972 982q-13 -13 -33 -38q-37 -46 -71.5 -77t-92 -55t-139.5 -24q-77 0 -148.5 28.5t-120.5 81.5q53 -176 73 -296.5t20 -246.5q0 -68 -10.5 -155.5t-37.5 -247.5h-12q11 80 16 135.5t5 110.5q0 146 -21 275t-80.5 313.5t-180.5 486.5q11 20 27.5 60.5t24.5 66.5h12
q56 -171 85.5 -244.5t67 -122t105.5 -94.5q-16 28 -25 68t-9 78q0 80 34.5 153t96 117.5t139.5 44.5q64 0 108 -30.5t64.5 -81.5t16.5 -110h-10q-8 61 -54.5 96t-130.5 35q-73 0 -129 -34.5t-86 -86.5t-30 -103t27 -94.5t79 -69.5t124 -26q89 0 165.5 24t128.5 69z" />
    <glyph glyph-name="five" unicode="5" horiz-adv-x="1303" 
d="M553 1275q163 -124 287.5 -241t224 -290t99.5 -377q0 -123 -28 -211t-77.5 -134t-113.5 -46q-72 0 -135.5 31.5t-102 83t-40.5 109.5h-13q-32 -102 -110 -163t-180 -61q-107 0 -166 68t-59 180q0 165 102 392.5t307 530.5q-68 50 -156 106q30 75 37 113h12
q25 -26 112 -91zM1074.5 124.5q30.5 27.5 47.5 77t17 113.5q0 192 -148 403.5t-429 418.5q-191 -284 -284 -493.5t-93 -342.5q0 -56 23.5 -100.5t69.5 -71t110 -26.5q118 0 197 84t106 259h16l-31 -181q28 -47 80.5 -85.5t118 -60.5t131.5 -22q38 0 68.5 27.5z" />
    <glyph glyph-name="six" unicode="6" horiz-adv-x="1041" 
d="M902 882q-21 -44 -48 -124q-169 -82 -313.5 -206.5t-252 -278t-167.5 -321.5h-12q30 122 101.5 259.5t164 257.5t183.5 194q-52 -9 -99 -9q-93 0 -161 34t-104.5 96.5t-36.5 146.5q0 118 52.5 226.5t138.5 175.5t183 67q57 0 101.5 -26t70 -71.5t25.5 -102.5
q0 -43 -8 -81h-12q4 93 -49 140.5t-140 47.5q-90 0 -167 -44.5t-122 -115.5t-45 -147q0 -69 37.5 -122t106.5 -82t162 -29q107 0 202.5 29.5t197.5 93.5z" />
    <glyph glyph-name="seven" unicode="7" horiz-adv-x="1161" 
d="M746.5 698.5q-112.5 -342.5 -128.5 -734.5l-24 -12q-3 259 -71 525t-178.5 480.5t-235.5 327.5q22 36 48 115h12q112 -129 210 -315.5t162 -416.5t71 -474h12q28 292 79.5 502.5t125.5 370.5t186 333h12q3 -28 9.5 -61.5t14.5 -51.5q-192 -246 -304.5 -588.5z" />
    <glyph glyph-name="eight" unicode="8" horiz-adv-x="1161" 
d="M636.5 875.5q67.5 -265.5 178 -480t236.5 -328.5q-12 -20 -26 -54.5t-22 -60.5h-13q-111 129 -209 315.5t-162 417t-71 473.5h-12q-28 -291 -79.5 -502t-125 -371t-185.5 -333h-12q-4 28 -11 61.5t-14 51.5q191 246 304 589t129 734l24 12q3 -259 70.5 -524.5z" />
    <glyph glyph-name="nine" unicode="9" horiz-adv-x="1067" 
d="M627 1287q64 -113 74 -329q12 -264 38 -432t73 -275t125 -184q-11 -20 -24 -54.5t-18 -60.5h-12q-15 25 -31 45q-49 68 -84 146t-64.5 249.5t-36.5 456.5h-13q-24 -65 -94 -102.5t-168 -37.5q-124 0 -188.5 63.5t-64.5 179.5q0 120 44 223t116 164t153 61q111 0 175 -113
zM299.5 1263q-60.5 -40 -96.5 -108.5t-36 -148.5q0 -82 66.5 -128.5t182.5 -46.5q83 0 147.5 20.5t101.5 57.5q-14 193 -74 293.5t-163 100.5q-68 0 -128.5 -40z" />
    <glyph glyph-name="colon" unicode=":" horiz-adv-x="479" 
d="M168 421.5q-29 27.5 -29 73.5q0 45 29 72t72 27q42 0 71 -27t29 -72q0 -46 -29 -73.5t-71 -27.5q-43 0 -72 27.5zM168 27.5q-29 27.5 -29 73.5q0 45 29 72t72 27q42 0 71 -27t29 -72q0 -46 -29 -73.5t-71 -27.5q-43 0 -72 27.5z" />
    <glyph glyph-name="semicolon" unicode=";" horiz-adv-x="322" 
d="M216 608q22 25 22 61q0 37 -22 62t-55 25q-31 0 -53 -25.5t-22 -61.5q0 -35 21.5 -60.5t53.5 -25.5q33 0 55 25zM212 -22q0 -95 -38.5 -171.5t-110.5 -107.5q-5 -2 -7 -5.5t0 -5.5q1 -3 3.5 -3.5t5 0t3.5 0.5q170 74 170 352q0 60 -20.5 95t-59.5 35q-33 0 -54.5 -23.5
t-21.5 -60.5q0 -36 21.5 -58t61.5 -22h25q22 0 22 -25z" />
    <glyph glyph-name="less" unicode="&#x3c;" horiz-adv-x="1022" 
d="M875 89l-736 297v12l722 290l6 -42l-637 -252l652 -254z" />
    <glyph glyph-name="equal" unicode="=" horiz-adv-x="1091" 
d="M139 497l13 40l800 16l-13 -56h-800zM139 255l13 40l800 16l-13 -56h-800z" />
    <glyph glyph-name="greater" unicode="&#x3e;" horiz-adv-x="1022" 
d="M161 688l722 -290v-12l-736 -297l-8 51l653 254l-636 252z" />
    <glyph glyph-name="question" unicode="?" horiz-adv-x="924" 
d="M391 659q9 18 36 34l40 23q129 75 185.5 184.5t56.5 264.5q0 148 -61.5 224.5t-169.5 76.5q-71 0 -119.5 -23t-72.5 -67q-23 -26 -35.5 -63t-12.5 -73q0 -34 -10.5 -62t-28.5 -34q-14 -9 -27 -9q-21 0 -30 23q-5 10 -5 25q0 20 10.5 41.5t30.5 41.5q9 59 51 108.5t108 79
t143 29.5q110 0 188.5 -39t119.5 -112.5t41 -173.5q0 -149 -79.5 -264t-248.5 -197l-45 -19q-26 -13 -36.5 -30t-11.5 -46l-2 -249q-2 -12 -9 -12q-8 0 -10 12l-4 259q-1 29 8 47zM444 10q22 25 22 61q0 38 -21 62.5t-55 24.5q-31 0 -53 -25t-22 -62q0 -36 21.5 -61
t53.5 -25t54 25z" />
    <glyph glyph-name="at" unicode="@" horiz-adv-x="1586" 
d="M1509 121q0 -5 -4 -9q-120 -172 -299 -261.5t-390 -89.5q-212 0 -380.5 98.5t-264 280t-95.5 423.5q0 240 87.5 427.5t253 294t390.5 106.5q191 0 346 -89t245 -258t90 -399q0 -153 -43 -263t-120.5 -167.5t-180.5 -57.5q-73 0 -113.5 26t-48.5 81q-47 -51 -117.5 -79.5
t-149.5 -28.5q-65 0 -119 22.5t-86.5 68t-32.5 110.5q0 71 40.5 120t108.5 73.5t152 24.5q60 0 107 -9t93 -25v256q0 111 -42 166.5t-130 55.5q-57 0 -97 -18.5t-59.5 -48t-19.5 -60.5v-53q0 -28 -16.5 -43.5t-43.5 -15.5q-22 0 -36.5 15.5t-14.5 44.5q0 51 35 94.5t103 70
t160 26.5q130 0 195 -60t65 -170v-529q0 -49 22.5 -70.5t69.5 -21.5q87 0 155.5 54.5t108 159.5t39.5 251q0 203 -78.5 369.5t-229 263.5t-358.5 97q-219 0 -380 -104.5t-246.5 -289t-85.5 -418.5q0 -219 86 -397.5t249.5 -282.5t386.5 -104q208 0 384.5 88t290.5 256
q5 5 8 6t7 -3q3 -1 3 -5zM882 212q56 22 96 65v253q-92 33 -178 33q-93 0 -155.5 -47.5t-62.5 -142.5q0 -85 51.5 -134t132.5 -49q60 0 116 22z" />
    <glyph glyph-name="A" unicode="A" horiz-adv-x="1243" 
d="M1215 8q0 -3 -3 -5.5t-7 -2.5h-302q-2 0 -5 3t-3 5q0 6 10 6l67 6q14 1 22 9.5t8 21.5q0 11 -4 20l-152 470h-527l-126 -410q-7 -22 -7 -42q0 -26 14.5 -40.5t44.5 -22.5l50 -12q5 -1 7 -2t2 -4t-2 -5.5t-5 -2.5h-257q-3 0 -5.5 2.5t-2.5 5.5t3 4t4 2l58 17
q26 8 43.5 30.5t31.5 69.5l383 1249q3 9 3 16q0 13 -12 20.5t-40 10.5q-6 2 -10 4.5t-4 5.5q0 5 10 5h236q9 0 9 -5q0 -7 -14 -10q-26 -1 -35.5 -4.5t-9.5 -12.5q0 -7 4 -18l432 -1323q10 -28 28.5 -40t52.5 -13q10 -3 10 -8zM325 560h515l-264 820z" />
    <glyph glyph-name="B" unicode="B" horiz-adv-x="1244" 
d="M927.5 648.5q101.5 -44.5 160 -121.5t58.5 -175q0 -125 -70 -204t-179 -113.5t-232 -34.5h-549q-4 0 -7 3t-3 5q0 6 10 7l111 15q17 3 24.5 10t7.5 21v1324q0 13 -7.5 20t-24.5 9l-111 15q-10 0 -10 7q0 6 10 6h428q166 0 283 -49t177 -138t60 -207q0 -99 -46.5 -174.5
t-129 -119.5t-187.5 -54q125 -7 226.5 -51.5zM375 1425v-716h264q98 0 168.5 43t108 120.5t37.5 177.5q0 110 -50 195t-143.5 132.5t-218.5 47.5h-166zM853 62q85 43 129.5 118t44.5 171q0 114 -57 190t-151 112t-206 36h-238v-627q0 -43 57 -43h219q117 0 202 43z" />
    <glyph glyph-name="C" unicode="C" horiz-adv-x="1334" 
d="M1251 365h-1q-4 0 -6 -6q-43 -160 -156.5 -248t-278.5 -88q-191 0 -322.5 99t-196 267t-64.5 375q0 212 68.5 367.5t190 238t277.5 82.5q165 0 280 -85t188 -266q4 -7 9.5 -10.5t10.5 -1.5q6 1 7.5 5.5t-0.5 10.5l-117 352q-2 6 -4 8.5t-7 2.5q-3 0 -10 -16t-9 -21
l-17 -37q-14 -26 -22 -26q-4 0 -21 11l-45 25q-48 35 -115.5 50.5t-141.5 15.5q-186 0 -332.5 -97.5t-229 -271t-82.5 -394.5q0 -206 74.5 -374t220.5 -267t350 -99q138 0 247 51t176 140t83 201q0 6 -4 6z" />
    <glyph glyph-name="D" unicode="D" horiz-adv-x="1449" 
d="M109 3q3 -3 7 -3h541q204 0 360.5 83t242.5 235t86 353q0 226 -102.5 401t-290 272.5t-435.5 97.5h-402q-10 0 -10 -6t10 -7l113 -15q18 -4 24 -10t6 -21v-1325q0 -13 -6.5 -19t-23.5 -9l-113 -15q-10 -1 -10 -7q0 -2 3 -5zM386 28.5q-10 10.5 -10 28.5v1369h142
q224 0 382 -89t240 -254.5t82 -391.5q0 -201 -65.5 -353t-193 -236t-306.5 -84h-243q-18 0 -28 10.5z" />
    <glyph glyph-name="E" unicode="E" horiz-adv-x="1192" 
d="M1108.5 360q1.5 -5 -0.5 -11l-92 -363q-4 -13 -6.5 -17t-6.5 -4q-6 0 -20 9q-20 12 -39.5 19t-51.5 7h-776q-4 0 -7 3t-3 5q0 6 10 7l111 15q17 3 24.5 9.5t7.5 18.5v1327q0 26 -32 29l-111 15q-10 0 -10 7q0 6 10 6h788q19 0 34 7.5t29 17.5t16 10q4 0 7 -3t6 -15
l79 -294q4 -11 -4 -11h-2q-5 0 -10 7q-45 104 -84.5 160.5t-79 79.5t-90.5 23h-429v-690h345q70 0 98 33.5t27 111.5q1 10 6 10h1q4 0 6 -3.5t4 -8.5l88 -294l2 -5q0 -6 -6 -8q-2 0 -5.5 2.5t-5.5 3.5q-32 58 -57.5 87t-55.5 40.5t-79 11.5h-368v-652q0 -21 14 -32.5
t41 -11.5h382q74 0 134 55q32 25 65 89.5t79 191.5q1 1 4.5 5.5t6.5 4.5q5 0 6.5 -5z" />
    <glyph glyph-name="F" unicode="F" horiz-adv-x="1084" 
d="M1015.5 1156.5q-0.5 -2.5 -4.5 -2.5h-3q-5 0 -9 6q-42 103 -80 160t-78.5 80.5t-92.5 23.5h-372v-712h306q66 0 97.5 27.5t31.5 90.5q0 17 -1 26q1 10 5 10h1q6 0 11 -12l82 -293q3 -5 1.5 -8.5t-3.5 -3.5h-2q-6 0 -9 6q-34 58 -58 86t-54 40t-79 12h-329v-635
q0 -12 11.5 -18.5t38.5 -9.5l135 -15q10 -1 10 -7q0 -3 -3 -5.5t-7 -2.5h-445q-4 0 -7 3t-3 5q0 6 10 7l111 15q17 3 24.5 9.5t7.5 18.5v1327q0 26 -32 29l-111 15q-10 0 -10 7q0 6 10 6h728q19 0 34.5 8t29.5 18t16 10q3 0 5 -3.5t6 -15.5l80 -295q1 -5 0.5 -7.5z" />
    <glyph glyph-name="G" unicode="G" horiz-adv-x="1446" 
d="M1261 543.5q7 6.5 24 8.5l90 16q10 5 10 6q0 8 -11 8h-428q-9 0 -9 -8q0 -2 2.5 -4t7.5 -2l162 -17q18 0 25.5 -6.5t7.5 -21.5v-361q0 -55 -57 -91t-133 -52t-132 -16q-172 0 -306.5 90.5t-210.5 258.5q-76 172 -76 402q0 199 65.5 356t190.5 246.5t299 89.5
q173 0 298.5 -92t189.5 -274q7 -9 12 -6q3 1 3.5 3t0 4.5t-0.5 4.5l-79 364q-1 7 -2.5 9t-6.5 2t-15.5 -10t-21.5 -26l-11 -20q-11 -22 -18.5 -35t-12.5 -13q-6 0 -32 16q-62 40 -124 64q-67 27 -177 27q-193 0 -348 -93.5t-244 -264t-89 -391.5q0 -208 86.5 -376
t244.5 -264.5t364 -96.5q107 0 177 23t132 57q25 15 32 15q11 0 27 -15.5t38 -42.5q13 -15 24.5 -27t16.5 -12q8 0 8 27v520q0 14 7 20.5z" />
    <glyph glyph-name="H" unicode="H" horiz-adv-x="1504" 
d="M1397 8q0 -3 -2.5 -5.5t-7.5 -2.5h-402q-9 0 -9 8q0 6 9 7l109 15q18 3 25.5 9t7.5 19v616h-749v-616q0 -12 8 -18.5t25 -9.5l109 -15q10 -1 10 -7q0 -3 -3 -5.5t-7 -2.5h-403q-4 0 -7 2.5t-3 5.5q0 5 10 7l111 15q17 3 25 9.5t8 18.5v1327q0 26 -33 29l-111 15
q-10 0 -10 7q0 6 10 6h403q10 0 10 -6q0 -4 -2 -5.5t-8 -1.5l-109 -15q-33 -3 -33 -29v-693h749v693q0 14 -7.5 21t-25.5 8l-109 15q-9 0 -9 7q0 4 2 5t7 1h402q6 0 8 -1t2 -5q0 -7 -10 -7l-110 -15q-32 -3 -32 -29v-1327q0 -12 7.5 -18.5t24.5 -9.5l110 -15q10 -1 10 -7z
" />
    <glyph glyph-name="I" unicode="I" horiz-adv-x="635" 
d="M409 1414l110 15q10 0 10 7q0 6 -10 6h-403q-10 0 -10 -6q0 -7 10 -7l111 -15q32 -3 32 -29v-1327q0 -12 -7.5 -18.5t-24.5 -9.5l-111 -15q-10 -1 -10 -7q0 -2 3 -5t7 -3h403q4 0 7 2.5t3 5.5q0 6 -10 7l-110 15q-17 3 -25 9.5t-8 18.5v1327q0 26 33 29z" />
    <glyph glyph-name="J" unicode="J" horiz-adv-x="727" 
d="M532.5 262q-8.5 35 -26.5 85q-19 57 -28 94.5t-9 83.5v859q0 25 27 28l113 16q1 0 5 1.5t5.5 3t1.5 3.5q0 4 -2 5t-8 1h-405q-10 0 -10 -6q0 -5 11 -8l120 -16q26 -1 26 -31v-858q0 -62 16.5 -112.5t48.5 -114.5q25 -52 36.5 -84t11.5 -66q0 -72 -39.5 -112t-105.5 -40
q-103 0 -103 112v50q0 29 -15 49.5t-39 20.5q-32 0 -49.5 -20t-17.5 -54q0 -80 60 -126t153 -46q64 0 117 24.5t83.5 71t30.5 110.5q0 41 -8.5 76z" />
    <glyph glyph-name="K" unicode="K" horiz-adv-x="1366" 
d="M1343.5 15q2.5 -2 2.5 -6q0 -9 -12 -9h-391q-8 0 -8 9q0 6 10 8l114 12q26 3 26 22q0 15 -13 35l-430 714l-266 -330v-412q0 -13 8 -19t26 -9l109 -15q9 -1 9 -7q0 -3 -2.5 -5.5t-7.5 -2.5h-402q-4 0 -7 3t-3 5q0 6 10 7l111 15q17 3 24.5 9.5t7.5 18.5v1327q0 26 -32 29
l-111 15q-10 0 -10 7q0 6 10 6h403q6 0 8 -1t2 -5q0 -7 -10 -7l-109 -15q-18 -1 -26 -8t-8 -21v-895l656 822q26 27 26 55q0 18 -11.5 31t-31.5 18l-89 13q-10 3 -10 7q0 6 10 6h336q6 0 8 -1t2 -5q0 -2 -3.5 -4.5t-7.5 -3.5q-58 -4 -108 -33t-104 -89l-335 -416l3 3
l481 -800q21 -37 50 -53t85 -21q8 -2 10.5 -4z" />
    <glyph glyph-name="L" unicode="L" horiz-adv-x="1113" 
d="M529 1436q0 6 -10 6h-403q-10 0 -10 -6q0 -7 10 -7l111 -15q32 -3 32 -29v-1327q0 -12 -7.5 -18.5t-24.5 -9.5l-111 -15q-10 -1 -10 -7q0 -2 3 -5t7 -3h730q31 0 49.5 -6.5t38.5 -18.5q15 -10 24 -10q4 0 6 4t6 17l90 364l2 8q0 8 -7 9q-3 0 -6 -4t-6 -6l-64 -160
q-29 -72 -58.5 -110t-64.5 -53t-86 -15h-339q-55 0 -55 41v1325q0 26 33 29l110 15q10 0 10 7z" />
    <glyph glyph-name="M" unicode="M" horiz-adv-x="1633" 
d="M380 1438q-5 4 -18 4h-200q-22 0 -22 -9q0 -4 6 -6.5t12.5 -3.5t10.5 -2l96 -12q38 -3 35 -60l-80 -1241q-1 -28 -15.5 -44t-45.5 -24l-106 -25q-5 -1 -8 -2.5t-3 -4.5t3 -5.5t7 -2.5h391q4 0 7 3t3 5q0 6 -12 6l-152 27q-27 7 -38.5 22.5t-10.5 44.5l76 1188l458 -1082
q7 -19 16 -19q5 0 8 4t8 15l428 1085l89 -1235q0 -15 -7 -22.5t-26 -11.5l-109 -15q-10 -1 -10 -7q0 -3 3 -5.5t8 -2.5h396q4 0 7 2.5t3 5.5q0 6 -10 7l-109 15q-16 4 -21.5 10.5t-7.5 24.5l-93 1309q-1 32 25 38l119 17q9 0 9 7q0 6 -9 6h-203q-11 0 -16 -4t-10 -19
l-422 -1055l-450 1056q-5 14 -10 18z" />
    <glyph glyph-name="N" unicode="N" horiz-adv-x="1434" 
d="M492 15l-171 30q-24 6 -35.5 18.5t-11.5 34.5v1144l846 -1202q11 -15 11 -26q0 -14 16 -14h119q11 0 11 5q0 2 -14 25l-67 95q-13 21 -13 40v1179q0 25 11 36.5t35 17.5l106 31q11 3 11 7t-2.5 5t-8.5 1h-391q-6 0 -8 -1t-2 -5t11 -7l167 -31q27 -6 38.5 -17.5
t11.5 -36.5v-1171l-868 1237q-3 4 -9.5 14.5t-11 14t-10.5 3.5h-119h-4t-4 -1t-1 -3t2 -5t5 -8l93 -130q14 -19 16.5 -28t2.5 -29v-1140q0 -23 -10 -34t-35 -19l-107 -30q-11 -5 -11 -7q0 -3 2.5 -5.5t7.5 -2.5h392q5 0 8 2.5t3 5.5q0 2 -12 7z" />
    <glyph glyph-name="O" unicode="O" horiz-adv-x="1545" 
d="M433 1372q-155 -92 -242 -260t-87 -387q0 -211 85 -381.5t235 -268t338 -97.5q197 0 351.5 92.5t241 261t86.5 388.5q0 196 -80 366.5t-229 274t-347 103.5q-197 0 -352 -92zM1260.5 316q-57.5 -144 -171.5 -227.5t-279 -83.5q-169 0 -301.5 100.5t-207.5 282t-75 416.5
q0 180 58 324t173.5 227t280.5 83q168 0 300 -100t206 -281t74 -415q0 -182 -57.5 -326z" />
    <glyph glyph-name="P" unicode="P" horiz-adv-x="1209" 
d="M827.5 1385.5q143.5 -56.5 232 -173t88.5 -286.5q0 -138 -61.5 -243t-170 -162t-246.5 -57q-168 0 -294 70v-477q0 -11 6.5 -17t21.5 -9l119 -17q9 -1 9 -6q0 -8 -9 -8h-406q-5 0 -8 2t-3 6t10 7l116 16q27 6 27 26v1328q0 26 -26 27l-117 17q-10 0 -10 7q0 6 11 6h402
q165 0 308.5 -56.5zM846 543q88 57 136 158.5t48 230.5q0 150 -64 261.5t-179.5 172t-268.5 60.5h-142v-877q60 -33 130 -48t136 -15q116 0 204 57z" />
    <glyph glyph-name="Q" unicode="Q" horiz-adv-x="1550" 
d="M1517 -100q5 0 5 -6t-4 -11l-79 -110q-13 -17 -26 -24t-37 -7q-108 0 -198 64.5t-171 213.5q-113 -42 -245 -42q-188 0 -338.5 97.5t-236 268t-85.5 381.5q0 219 87.5 387t243 260t353.5 92q186 0 336.5 -97.5t236.5 -267.5t86 -379q0 -165 -50.5 -303t-143.5 -236.5
t-218 -150.5q71 -106 148.5 -151t164.5 -45q66 0 99.5 13t62.5 47q5 6 9 6zM998 37q-69 130 -137 336q-1 2 -1 5q0 8 7 8q8 0 9 -8q68 -205 146 -330q145 67 221 225t76 369q0 233 -74.5 414t-206.5 281.5t-300 100.5q-165 0 -280.5 -83t-173.5 -226.5t-58 -324.5
q0 -235 75 -417t208 -282.5t302 -100.5q101 0 187 33z" />
    <glyph glyph-name="R" unicode="R" horiz-adv-x="1282" 
d="M1276 8q0 -3 -3 -5.5t-7 -2.5h-336q-10 0 -10 8q0 4 10 6l64 7q23 4 23 22q0 14 -15 42l-292 466q-13 -1 -39 -1q-86 0 -162.5 15t-132.5 45v-549q0 -14 7.5 -21t25.5 -10l112 -15q10 -1 10 -7q0 -8 -10 -8h-405q-4 0 -7 3t-3 5q0 6 10 7l111 15q17 3 24.5 10t7.5 21
v1324q0 26 -32 29l-111 15q-10 0 -10 7q0 6 10 6h405q193 0 330 -60.5t208 -170t71 -256.5q0 -152 -85.5 -251.5t-224.5 -135.5l303 -475q27 -40 57.5 -55t83.5 -23q12 -1 12 -7zM845 620.5q82 49.5 123.5 138t41.5 203.5q0 128 -59 233.5t-170 167.5t-260 62h-145v-794
q55 -31 126.5 -45.5t144.5 -14.5q116 0 198 49.5z" />
    <glyph glyph-name="S" unicode="S" horiz-adv-x="1158" 
d="M841.5 20.5q83.5 44.5 129 124t45.5 181.5q0 152 -109.5 251.5t-300.5 171.5q-203 80 -286 174t-83 217q0 93 38.5 162t108.5 106t163 37q160 0 279 -99t188 -283q3 -8 10 -8q3 0 5 4t1 10l-103 384q-2 6 -4.5 8t-7.5 2q-3 0 -9.5 -14.5t-14.5 -33.5l-12 -30
q-11 -28 -21 -28q-7 0 -20.5 7.5t-29.5 17.5l-20 12q-52 37 -112.5 53.5t-132.5 16.5q-112 0 -203.5 -47.5t-145 -134t-53.5 -196.5q0 -96 39.5 -172t129 -140t239.5 -121q206 -79 290 -171.5t84 -210.5q0 -85 -34 -147.5t-97 -95.5t-147 -33q-155 0 -277 97t-188 265
q-4 9 -10 9q-4 0 -5 -4.5t-1 -10.5l90 -363q4 -11 12 -11q5 0 10.5 12t11 27t7.5 19q7 21 14.5 38.5t12.5 17.5t16.5 -6.5t25.5 -15.5q9 -5 17 -10t15 -9q102 -74 254 -74q108 0 191.5 44.5z" />
    <glyph glyph-name="T" unicode="T" horiz-adv-x="1223" 
d="M187 1448.5q-11 6.5 -23 18t-16 11.5q-9 0 -11 -21l-67 -318q-1 -3 -1 -9q0 -8 5 -9q9 0 13 11q38 121 73 184.5t76 86.5t97 23h221v-1368q0 -13 -7.5 -19t-26.5 -9l-109 -15q-10 -2 -10 -7q0 -3 2.5 -5.5t7.5 -2.5h402q10 0 10 8q0 6 -10 7l-110 15q-17 3 -25 9.5
t-8 18.5v1368h220q57 0 97 -22.5t74 -82.5q33 -57 75 -189q7 -11 14 -11q3 1 4.5 6.5t-0.5 11.5l-67 318q-5 21 -11 21q-4 0 -21 -11t-30.5 -18t-28.5 -7h-784q-14 0 -25 6.5z" />
    <glyph glyph-name="U" unicode="U" horiz-adv-x="1390" 
d="M1154 557q1 -23 3.5 -75t2.5 -93q0 -119 -49.5 -208t-143 -137.5t-220.5 -48.5q-200 0 -305 101.5t-106 293.5l2 65q2 80 6 187l39 738q1 17 8 23.5t27 10.5l109 15q10 1 10 7q0 4 -2 5t-7 1h-404q-6 0 -8.5 -1t-2.5 -5q0 -6 11 -7l108 -15q20 -4 28 -10t8 -20l-42 -748
l-4 -98l-3 -84t-2 -81q-1 -117 56 -208.5t170.5 -143.5t277.5 -52q151 0 255 53t156 148t53 221q-2 56 -6 110q-4 72 -5 108l-38 733q-1 19 10 33.5t31 20.5l107 32q7 1 11.5 3.5t4.5 4.5q0 6 -11 6h-364q-6 0 -8 -1t-2 -5q0 -6 10 -7l131 -30q32 -8 43.5 -21t12.5 -34
l39 -743z" />
    <glyph glyph-name="V" unicode="V" horiz-adv-x="1242" 
d="M901 1429l91 -14q42 -7 60 -22t18 -40q0 -20 -7 -41l-390 -1202l-415 1262q-3 11 -3 18q0 22 25 25l138 14q9 2 9 7q0 6 -7 6h-387q-10 0 -10 -6q0 -4 11 -7l66 -15q13 -1 18.5 -8.5t10.5 -25.5l427 -1290q8 -24 8 -44v-32q0 -14 13 -14h92q5 0 8 4t3 10v32q0 11 2 23.5
t3 19.5l399 1223q14 46 30.5 69t42.5 32l59 16q3 1 5.5 3t2.5 5q0 5 -9 5h-317q-7 0 -7 -6q0 -4 10 -7z" />
    <glyph glyph-name="W" unicode="W" horiz-adv-x="1812" 
d="M1800.5 1441q1.5 -1 1.5 -5t-8 -7l-51 -16q-27 -10 -44 -32.5t-28 -65.5l-345 -1235q-5 -17 -5 -34v-32q0 -14 -11 -14h-96q-11 0 -11 14v32q0 17 -6 39l-266 993l-295 -998q-5 -20 -5 -34v-32q0 -14 -11 -14h-96q-10 0 -10 14v32q0 14 -3.5 25t-4.5 13l-369 1299
q-5 17 -10 24t-18 8l-71 15q-9 2 -9 7q0 2 2.5 3.5t5.5 1.5h356q8 0 8 -5q0 -7 -9 -7l-110 -15q-22 -1 -22 -23q0 -3 2 -15l357 -1281l302 1017l-72 270q-4 16 -9.5 23.5t-17.5 8.5l-71 14q-8 3 -8 7q0 6 8 6h354q5 0 6.5 -1t1.5 -5q0 -2 -2.5 -4t-6.5 -3l-109 -14
q-22 -3 -22 -23q0 -3 2 -15l335 -1281l341 1220q6 21 6 37q0 24 -18 39t-61 24l-65 13q-10 2 -10 7q0 6 8 6h283q5 0 6.5 -1z" />
    <glyph glyph-name="X" unicode="X" horiz-adv-x="1303" 
d="M1274 8q0 -8 -9 -8h-416q-5 0 -8.5 2.5t-3.5 5.5t5 5t14 4q79 8 112 20t33 31q0 12 -12 30l-374 607l-344 -548q-27 -45 -27 -72q0 -23 19 -36.5t58 -19.5l100 -12q10 -3 10 -9q0 -8 -10 -8h-360q-4 0 -8 2.5t-4 5.5q0 4 2.5 5.5t10.5 3.5q52 6 82 21t52 42t58 85
l353 553l-395 639q-22 37 -53 51t-83 21q-13 2 -13 7q0 6 8 6h426q6 0 7 -1t1 -5q0 -6 -9 -6l-130 -10q-38 -1 -38 -26q0 -14 10 -31l350 -564l310 500q22 37 22 62q0 46 -76 55l-93 12q-8 1 -8 6q0 7 8 7h360q11 0 11 -6t-16 -10q-84 -18 -121 -50q-37 -33 -69 -81
l-318 -510l428 -691q19 -30 40 -45.5t40 -21t56 -11.5q12 -3 12 -7z" />
    <glyph glyph-name="Y" unicode="Y" horiz-adv-x="1243" 
d="M1214.5 1440.5q2.5 -1.5 2.5 -5.5q0 -8 -12 -9l-20 -5q-50 -9 -80.5 -38t-55.5 -83l-357 -751v-488q0 -15 7 -21.5t24 -9.5l110 -15q12 -3 12 -7q0 -8 -11 -8h-401q-10 0 -10 8q0 6 9 7l112 15q19 3 25.5 9.5t6.5 20.5v472l-412 845q-17 36 -54 42l-60 9q-11 1 -11 8
q0 4 2.5 5t8.5 1h371q5 0 9 -1t4 -5q0 -8 -14 -8l-101 -12q-20 -3 -27.5 -7t-7.5 -12q0 -7 4 -15l392 -814l349 732q13 27 13 50q0 49 -82 65l-58 13q-9 1 -9 7q0 4 2 5.5t7 1.5h303q7 0 9.5 -1.5z" />
    <glyph glyph-name="Z" unicode="Z" horiz-adv-x="1173" 
d="M1076 1436q0 6 -9 6h-806q-11 0 -24 11t-19 11q-12 0 -13 -13l-64 -300l-1 -9q0 -9 7 -10h3q11 0 15 13l29 71q45 111 99.5 160.5t146.5 49.5h509l-854 -1407q-5 -5 -5 -12q0 -2 3 -4.5t7 -2.5h864q13 0 28.5 -11.5t20.5 -11.5q4 0 6.5 4.5t4.5 10.5l64 347v6q0 8 -6 9
h-2q-5 0 -11 -8l-18 -45q-53 -126 -90 -184t-81.5 -78.5t-121.5 -20.5h-538l852 1409q4 5 4 9z" />
    <glyph glyph-name="bracketleft" unicode="[" horiz-adv-x="592" 
d="M192 -95l250 -12v-14h-266q-37 0 -37 36v1679q0 37 37 37h266v-15l-250 -12v-1699z" />
    <glyph glyph-name="backslash" unicode="\" horiz-adv-x="1079" 
d="M139 1343l33 57l739 -1369l28 -79h-12z" />
    <glyph glyph-name="bracketright" unicode="]" horiz-adv-x="592" 
d="M149 1631h266q37 0 37 -37v-1679q0 -36 -37 -36h-266v14l251 12v1699l-251 12v15z" />
    <glyph glyph-name="underscore" unicode="_" horiz-adv-x="1091" 
d="M139 0l13 40l800 16l-13 -56h-800z" />
    <glyph glyph-name="a" unicode="a" horiz-adv-x="900" 
d="M844 58.5q1 -1.5 1 -4.5q0 -16 -11.5 -32.5t-34.5 -27.5t-54 -11q-54 0 -84 29.5t-31 83.5q-50 -54 -124.5 -84t-158.5 -30q-68 0 -125 24t-91.5 72.5t-34.5 117.5q0 76 43 128t115.5 77.5t160.5 25.5q115 0 211 -36v272q0 235 -181 235q-66 0 -108.5 -22t-61 -52.5
t-18.5 -58.5v-55q0 -31 -18 -48t-44 -17q-24 0 -38.5 16.5t-14.5 47.5q0 53 37.5 99.5t108.5 75t168 28.5q137 0 205.5 -64t68.5 -181v-564q0 -89 51 -89q22 0 37 11t16 30q0 3 2.5 4t3.5 1q3 0 4 -1.5zM524 41.5q59 23.5 102 68.5v268q-95 37 -188 37q-63 0 -115.5 -21.5
t-84.5 -66.5t-32 -113q0 -60 25.5 -104.5t70 -68t100.5 -23.5q63 0 122 23.5z" />
    <glyph glyph-name="b" unicode="b" horiz-adv-x="1007" 
d="M747 849q84 -62 129 -164t45 -220q0 -141 -51 -252t-144.5 -173t-216.5 -62q-159 0 -270 121l-77 -98q-7 -9 -14 -9q-3 0 -5 2.5t-2 7.5v1414q0 13 -12 13h-98q-7 0 -7 7q0 6 9 9l183 51q9 4 17 4q10 0 10 -12v-732q72 76 144 115.5t164 39.5q112 0 196 -62zM665 61
q73 61 111 163.5t38 225.5q0 132 -39 230t-107.5 150t-154.5 52q-64 0 -133.5 -35.5t-136.5 -110.5v-621q45 -55 108 -85t139 -30q102 0 175 61z" />
    <glyph glyph-name="c" unicode="c" horiz-adv-x="852" 
d="M755.5 806.5q-36.5 48.5 -104.5 77t-157 28.5q-127 0 -220.5 -67.5t-143 -177t-49.5 -232.5q0 -142 50 -244.5t136.5 -155.5t195.5 -53q126 0 214.5 73.5t121.5 209.5v3q0 6 -5 7q-5 0 -6 -7q-32 -105 -104 -160t-172 -55q-94 0 -170 51t-119.5 148.5t-43.5 233.5
q0 119 37.5 212.5t105.5 146t157 52.5t140 -42.5t51 -111.5v-42q0 -32 17.5 -50.5t44.5 -18.5t43.5 19t16.5 48q0 59 -36.5 107.5z" />
    <glyph glyph-name="d" unicode="d" horiz-adv-x="1024" 
d="M979 13.5q2 -1.5 2 -6.5q0 -3 -2.5 -5t-6.5 -2h-171q-35 0 -35 43v93q-74 -79 -145.5 -118.5t-163.5 -39.5q-113 0 -197 62t-129 164.5t-45 220.5q0 135 52 246t146.5 175.5t214.5 64.5q81 0 148 -30.5t119 -86.5v622q0 13 -11 13h-98q-6 0 -6 7t9 9q23 6 53.5 15
t60.5 17l67 19q12 4 18 4q10 0 10 -12v-1435q0 -11 6.5 -17t21.5 -10q11 -1 34.5 -4t39.5 -6q6 -1 8 -2.5zM631.5 51q69.5 33 134.5 104v618q-47 54 -112 85t-142 31q-102 0 -174 -61t-109 -163.5t-37 -225.5q0 -116 34 -211.5t102.5 -152.5t167.5 -57q66 0 135.5 33z" />
    <glyph glyph-name="e" unicode="e" horiz-adv-x="872" 
d="M179 542q-2 -36 -2 -56q0 -128 39.5 -228t115.5 -157t180 -57q68 0 124.5 28t94.5 79.5t50 117.5q3 9 8 9q2 0 4 -3t1 -9q-12 -82 -58.5 -147.5t-118.5 -103t-158 -37.5q-115 0 -200.5 54t-131.5 154.5t-46 235.5q0 123 45 235.5t134.5 183.5t216.5 71q96 0 170 -45
t114.5 -124.5t40.5 -181.5q0 -9 -7 -14t-17 -5h-599zM268 804.5q-74 -91.5 -88 -249.5h497q18 0 18 18q0 142 -58 232.5t-173 90.5q-122 0 -196 -91.5z" />
    <glyph glyph-name="f" unicode="f" horiz-adv-x="545" 
d="M506 872.5q5 3.5 5 9.5q0 8 -9 8h-189v8q0 38 -15 77t-47 100q-36 71 -53.5 118.5t-17.5 97.5q0 78 42.5 123.5t113.5 45.5q96 0 96 -90v-49q0 -31 16 -47.5t42 -16.5q24 0 38.5 17.5t14.5 51.5q0 41 -22 75t-65 54.5t-102 20.5q-67 0 -119 -30t-80.5 -83t-28.5 -120
q0 -49 12 -91t36 -101q20 -48 30 -80.5t10 -66.5v-14h-153q-7 0 -7 -8q0 -9 10 -9l128 -20q19 0 19 -23v-779q0 -19 -26 -25l-83 -11q-11 0 -11 -9q0 -2 2.5 -4t5.5 -2h372q8 0 8 7q0 5 -2 7t-8 2l-128 11q-27 4 -27 27v815h177q10 0 15 3.5z" />
    <glyph glyph-name="g" unicode="g" horiz-adv-x="970" 
d="M729 909.5q-22 -17.5 -52 -52.5q72 -44 114 -117t42 -164q0 -100 -49 -179.5t-133.5 -124t-185.5 -44.5q-38 0 -72 6q-65 -34 -65 -79q0 -30 26.5 -54.5t93.5 -53t198 -72.5q104 -33 161.5 -66.5t80 -72.5t22.5 -93q0 -80 -56 -137t-150 -86t-206 -29q-144 0 -243.5 31.5
t-148.5 86.5t-49 125q0 84 78.5 147t225.5 93q-65 30 -92.5 60t-27.5 67q0 44 30 76.5t102 60.5q-77 18 -136 64.5t-92 113t-33 144.5q0 100 45.5 180.5t128.5 126t192 45.5q101 0 186 -47q47 58 87.5 88t86.5 30q47 0 78.5 -27t31.5 -66q0 -29 -13.5 -45.5t-39.5 -16.5
q-21 0 -36 13.5t-35 41.5q-14 22 -25 33t-25 11q-23 0 -45 -17.5zM698.5 697.5q-31.5 85.5 -95.5 139.5t-155 54q-69 0 -123 -38.5t-83.5 -102t-29.5 -135.5q0 -86 34 -171t98 -140t151 -55q73 -1 126 36.5t80.5 100.5t27.5 135q1 91 -30.5 176.5zM805.5 -221.5
q-21.5 31.5 -77 61t-156.5 59.5q-111 34 -190 66q-122 -26 -186 -82t-64 -131q0 -114 99 -178.5t279 -64.5q155 0 236 52t81 145q0 41 -21.5 72.5z" />
    <glyph glyph-name="h" unicode="h" horiz-adv-x="1031" 
d="M983 7q0 -2 -2.5 -4.5t-6.5 -2.5h-317q-11 0 -11 7q0 4 2.5 6t9.5 3l78 10q19 4 26 13.5t7 26.5v558q0 110 -53.5 173t-158.5 63q-125 0 -244 -112l-21 -19v-676q0 -11 6 -17t19 -10l75 -10q6 -1 8.5 -3t2.5 -6q0 -7 -9 -7h-314q-2 0 -4.5 2.5t-2.5 4.5q0 3 4 5.5t10 3.5
l75 10q14 4 20 10t6 16v1364q0 13 -11 13h-98q-3 0 -5.5 2.5t-2.5 4.5q0 5 11 9l180 51q12 4 19 4q11 0 11 -12v-743l12 11q85 78 157.5 116.5t155.5 38.5q125 0 190.5 -75.5t65.5 -201.5v-568q0 -37 40 -43l60 -8q10 -1 10 -8z" />
    </font>
</defs>
</svg>
