<svg width="40" height="40" viewBox="0 0 40 40" fill="none" xmlns="http://www.w3.org/2000/svg">
<path d="M18.4486 26.9174L16.4635 14.176L13.061 14.711L14.9617 26.9174H18.4439H18.4486Z" fill="#333333"/>
<path d="M32.1662 14.1103H28.7262V32H32.1662V14.1103Z" fill="#333333"/>
<path d="M22.2265 26.115C22.2265 26.7344 21.9825 27.3305 21.546 27.7669C21.1096 28.2034 20.5183 28.4521 19.9035 28.4521H12.9203V31.9014H19.9035C21.4334 31.9014 22.8976 31.2913 23.977 30.2026C25.0564 29.1185 25.6665 27.6496 25.6712 26.1103V14.1103H22.2312V26.115H22.2265Z" fill="#333333"/>
<path d="M33.3254 8H25.7368V11.0458H33.3254C33.8322 11.0458 34.3203 11.2522 34.677 11.6136C35.0336 11.975 35.2401 12.463 35.2401 12.9699V15.1005H38.2718V12.9793C38.2718 11.6605 37.7509 10.3981 36.8217 9.46422C35.8925 8.53031 34.6394 8.00469 33.3254 8V8Z" fill="#333333"/>
<path d="M7.65467 25.5565H10.1326V22.3653H7.44818V22.3747C4.91396 22.4826 2.89128 24.5663 2.89128 27.1334C2.89128 27.6872 2.98983 28.2128 3.16347 28.7102H1V31.9015H10.1326V28.7102H7.65467C6.78647 28.7102 6.07782 28.0063 6.07782 27.1334C6.07782 26.2605 6.78177 25.5518 7.65467 25.5518V25.5565Z" fill="#333333"/>
</svg>
