<?xml version="1.0" standalone="no"?>
<!DOCTYPE svg PUBLIC "-//W3C//DTD SVG 1.1//EN" "http://www.w3.org/Graphics/SVG/1.1/DTD/svg11.dtd" >
<svg xmlns="http://www.w3.org/2000/svg" xmlns:xlink="http://www.w3.org/1999/xlink" version="1.1">
<metadata>
Created by FontForge 20170731 at Mon Sep 18 16:49:22 2023
 By Aleksey,,,
Copyright 2015-2021 Indian Type Foundry. All rights reserved.
</metadata>
<defs>
<font id="Panchang-Bold" horiz-adv-x="1789" >
  <font-face 
    font-family="Panchang"
    font-weight="700"
    font-stretch="normal"
    units-per-em="2048"
    panose-1="0 0 0 0 0 0 0 0 0 0"
    ascent="1638"
    descent="-410"
    x-height="1044"
    cap-height="1397"
    bbox="-655 -532 4194 1960"
    underline-thickness="102"
    underline-position="-255"
    unicode-range="U+000D-FB02"
  />
<missing-glyph horiz-adv-x="1073" 
d="M111 0v1364h852v-1364h-852zM844 1247h-615v-1132h615v1132z" />
    <glyph glyph-name="fi" unicode="fi" horiz-adv-x="1857" 
d="M231 0v733h-206v311h206q17 521 723 521q264 0 580 -58l-66 -286q-312 43 -530 43q-176 0 -246.5 -48t-70.5 -167v-5h1126v-1044h-387v733h-739v-733h-390z" />
    <glyph glyph-name="fl" unicode="fl" horiz-adv-x="1873" 
d="M231 0v733h-206v311h206q7 272 181.5 396.5t519.5 124.5q223 0 479 -29h352v-1536h-387v1241q-243 23 -434 23q-179 0 -250 -48t-71 -167v-5h573v-311h-573v-733h-390z" />
    <glyph glyph-name=".notdef" horiz-adv-x="1073" 
d="M111 0v1364h852v-1364h-852zM844 1247h-615v-1132h615v1132z" />
    <glyph glyph-name=".null" horiz-adv-x="0" 
 />
    <glyph glyph-name="nonmarkingreturn" horiz-adv-x="682" 
 />
    <glyph glyph-name="CR" unicode="&#xd;" horiz-adv-x="0" 
 />
    <glyph glyph-name="space" unicode=" " horiz-adv-x="563" 
 />
    <glyph glyph-name="exclam" unicode="!" horiz-adv-x="585" 
d="M496 997l-50 -489h-307l-49 489v400h406v-400zM492 410v-410h-400v410h400z" />
    <glyph glyph-name="quotedbl" unicode="&#x22;" horiz-adv-x="1107" 
d="M123 942l-33 334v260h387v-260l-33 -334h-321zM664 942l-33 334v260h387v-260l-33 -334h-321z" />
    <glyph glyph-name="numbersign" unicode="#" horiz-adv-x="2342" 
d="M145 510h402l78 317h-402l56 228h401l70 280h301l-70 -280h567l70 280h301l-70 -280h404l-55 -228h-404l-78 -317h404l-56 -227h-403l-70 -283h-301l70 283h-567l-70 -283h-301l70 283h-402zM848 510h567l78 317h-567z" />
    <glyph glyph-name="dollar" unicode="$" horiz-adv-x="2107" 
d="M1188 1602v-189q423 -21 749 -92l-65 -313q-302 59 -684 77v-225l235 -14q301 -15 442.5 -124.5t141.5 -326.5q0 -110 -39.5 -185t-133.5 -129t-252 -80t-394 -30v-190h-283v196q-444 21 -794 105l59 334q385 -82 735 -107v238l-223 12q-319 15 -456.5 117t-137.5 303
q0 222 194 325.5t623 112.5v185h283zM662 891l243 -14v217q-188 0 -275.5 -9t-118 -30t-30.5 -66q0 -55 38.5 -72.5t142.5 -25.5zM1452 514l-264 16v-231h37q166 0 248 10.5t111.5 32.5t29.5 66q0 61 -34 79.5t-128 26.5z" />
    <glyph glyph-name="percent" unicode="%" horiz-adv-x="2641" 
d="M78 1096q0 175 129.5 252t392.5 77q264 0 392 -76.5t128 -252.5q0 -173 -129 -251.5t-391 -78.5q-261 0 -391.5 78.5t-130.5 251.5zM735 0h-360l1487 1397h362zM883 1096q0 47 -24 72.5t-85 38t-174 12.5q-166 0 -225.5 -27t-59.5 -96q0 -70 59 -95.5t226 -25.5t225 25.5
t58 95.5zM1518 324q0 175 129.5 253t392.5 78t391.5 -77.5t128.5 -253.5q0 -173 -129 -251.5t-391 -78.5q-261 0 -391.5 78.5t-130.5 251.5zM2322 324q0 48 -24 73.5t-84 37t-174 11.5q-167 0 -226 -26t-59 -96t59 -95.5t226 -25.5t224.5 25.5t57.5 95.5z" />
    <glyph glyph-name="ampersand" unicode="&#x26;" horiz-adv-x="2369" 
d="M2318 559h-266v-467q-487 -119 -1042 -119q-349 0 -549.5 43t-281.5 127.5t-81 227.5q0 119 62.5 197.5t193.5 119.5q-233 82 -233 330q0 209 204 304t656 95q537 0 934 -76l-64 -333q-371 53 -856 53q-290 0 -389.5 -22t-99.5 -99q0 -66 59.5 -88.5t204.5 -22.5h1548
v-270zM1067 313q347 0 637 47v199h-926q-166 0 -228.5 -24.5t-62.5 -92.5q0 -53 45 -79.5t166.5 -38t368.5 -11.5z" />
    <glyph glyph-name="quotesingle" unicode="'" horiz-adv-x="567" 
d="M123 942l-33 334v260h387v-260l-33 -334h-321z" />
    <glyph glyph-name="parenleft" unicode="(" horiz-adv-x="962" 
d="M578 1591l249 -151q-60 -92 -104.5 -174.5t-87.5 -189.5t-65.5 -230.5t-22.5 -257.5q0 -133 22.5 -256t65.5 -230.5t87.5 -189.5t104.5 -174l-249 -152q-79 95 -147 202.5t-129 236t-96.5 275t-35.5 288.5q0 143 35.5 289.5t96.5 275.5t129 235.5t147 202.5z" />
    <glyph glyph-name="parenright" unicode=")" horiz-adv-x="962" 
d="M414 588q0 134 -22.5 257.5t-65.5 230.5t-87 189.5t-104 174.5l250 151q79 -96 146.5 -202.5t129 -235.5t97 -275.5t35.5 -289.5q0 -142 -35.5 -288.5t-97 -275.5t-129.5 -235.5t-146 -202.5l-250 152q60 92 104 174.5t87 189.5t65.5 230t22.5 256z" />
    <glyph glyph-name="asterisk" unicode="*" horiz-adv-x="1208" 
d="M295 807l176 156l-235 26l-175 58l80 249l176 -57l207 -119l-49 234v182h262v-184l-49 -232l205 119l174 57l82 -249l-176 -58l-234 -24l174 -160l109 -150l-213 -153l-107 149l-96 217l-100 -219l-107 -147l-211 153z" />
    <glyph glyph-name="plus" unicode="+" horiz-adv-x="1546" 
d="M616 238v282h-497v297h497v283h312v-283h499v-297h-499v-282h-312z" />
    <glyph glyph-name="comma" unicode="," horiz-adv-x="581" 
d="M57 -283l27 191q74 -8 94 -8q52 0 70 13.5t18 51.5v35h-176v410h402v-455q0 -121 -74 -187.5t-223 -66.5q-72 0 -138 16z" />
    <glyph glyph-name="hyphen" unicode="-" horiz-adv-x="1091" 
d="M1014 395h-936v303h936v-303z" />
    <glyph glyph-name="period" unicode="." horiz-adv-x="581" 
d="M492 410v-410h-402v410h402z" />
    <glyph glyph-name="slash" unicode="/" horiz-adv-x="1294" 
d="M1296 1432l-960 -1770h-340l960 1770h340z" />
    <glyph glyph-name="zero" unicode="0" horiz-adv-x="2443" 
d="M2357 698q0 -377 -277 -552t-857 -175q-582 0 -859.5 175t-277.5 552t277.5 552t859.5 175q580 0 857 -175t277 -552zM1942 698q0 209 -162.5 290t-556.5 81q-395 0 -558 -81t-163 -290t163 -289.5t558 -80.5q394 0 556.5 80.5t162.5 289.5z" />
    <glyph glyph-name="one" unicode="1" horiz-adv-x="1157" 
d="M983 0h-416v752q0 113 11 241l-517 -155v354l535 205h387v-1397z" />
    <glyph glyph-name="two" unicode="2" horiz-adv-x="2129" 
d="M1614 918q0 88 -95 120.5t-311 32.5q-462 0 -1063 -117l-69 349q247 55 530.5 88.5t528.5 33.5q465 0 680 -103t215 -335q0 -105 -35 -182t-113 -135.5t-181.5 -101t-262.5 -85.5l-520 -157q272 16 505 16h615v-342h-1915v381l1296 373q109 38 152 71t43 93z" />
    <glyph glyph-name="three" unicode="3" horiz-adv-x="2142" 
d="M2056 358q0 -102 -42 -171t-147 -119.5t-290.5 -73.5t-466.5 -23q-593 0 -1036 88l55 347q562 -78 995 -78q109 0 182 1.5t134.5 6.5t97 13t60 22t33.5 31.5t9 43.5q0 70 -53.5 96.5t-185.5 26.5h-991v271h960q135 0 188.5 22.5t53.5 85.5q0 51 -42.5 77t-143.5 36
t-302 10q-511 0 -981 -63l-55 346q490 71 977 71q358 0 568 -42.5t302.5 -131t92.5 -237.5q0 -125 -69.5 -200.5t-211.5 -121.5q309 -92 309 -334z" />
    <glyph glyph-name="four" unicode="4" horiz-adv-x="2326" 
d="M2247 596v-311h-318v-285h-416v285h-1474v301l1474 766h416v-756h318zM1513 1026l-647 -326l-321 -129q269 25 436 25h532v430z" />
    <glyph glyph-name="five" unicode="5" horiz-adv-x="2134" 
d="M1948 1071h-1342l-39 -201l826 -10q169 -2 286 -22.5t202 -68t125 -128.5t40 -201q0 -174 -87.5 -273.5t-302 -147.5t-597.5 -48q-561 0 -993 84l71 318q418 -74 979 -74q220 0 332.5 13t154.5 41.5t42 82.5q0 75 -67.5 103t-238.5 30l-1177 15l-23 22l150 791h1659v-326
z" />
    <glyph glyph-name="six" unicode="6" horiz-adv-x="2260" 
d="M2175 403q0 -122 -58.5 -205.5t-183 -133.5t-302 -71.5t-433.5 -21.5q-245 0 -431 30t-316 88t-211.5 148.5t-118.5 206.5t-37 267q0 155 57.5 277t158 203t244 134.5t308 76.5t358.5 23q454 0 891 -104l-65 -336q-196 46 -388.5 72t-437.5 26q-357 0 -523 -68.5
t-195 -230.5q369 88 745 88q143 0 259 -8.5t225 -28.5t189.5 -55.5t141.5 -86.5t92 -124t31 -166zM1221 590q-345 0 -705 -70q51 -113 208 -161t478 -48q138 0 227.5 3.5t157 12t102.5 25t51.5 39.5t16.5 58q0 37 -16 60.5t-50 40t-100 25t-151 12t-219 3.5z" />
    <glyph glyph-name="seven" unicode="7" horiz-adv-x="2113" 
d="M1012 0h-520l745 801q93 98 176 162.5t178 103.5q-181 -20 -452 -20h-1051v350h1960v-312z" />
    <glyph glyph-name="eight" unicode="8" horiz-adv-x="2314" 
d="M1157 1425q229 0 403.5 -19.5t287 -53.5t184 -84.5t100.5 -107t29 -126.5q0 -220 -215 -317q247 -95 247 -330q0 -149 -98 -238.5t-325.5 -133.5t-612.5 -44t-612 44t-324.5 133.5t-97.5 238.5q0 123 62 203t188 125q-219 98 -219 319q0 70 29 126.5t100 107t183.5 84.5
t287 53.5t403.5 19.5zM1157 1085q-248 0 -380.5 -14.5t-177 -40.5t-44.5 -74q0 -50 45.5 -75t174.5 -37.5t382 -12.5t382 12.5t174.5 37.5t45.5 75q0 48 -44.5 74t-177 40.5t-380.5 14.5zM1157 328q136 0 229.5 2t167.5 8t117.5 15.5t72 25t38.5 35t10 47.5q0 42 -25.5 67
t-100 40.5t-191.5 20.5t-318 5q-134 0 -226 -2t-166.5 -8t-118.5 -15.5t-73 -25t-40 -35t-11 -47.5t10 -47.5t38.5 -35t72 -25t117.5 -15.5t167.5 -8t229.5 -2z" />
    <glyph glyph-name="nine" unicode="9" horiz-adv-x="2260" 
d="M2175 684q0 -155 -57.5 -276.5t-158 -203t-244 -134.5t-308 -76t-358.5 -23q-462 0 -891 103l65 338q410 -99 826 -99q357 0 523 68t195 229q-385 -88 -745 -88q-143 0 -259 8.5t-225 28t-189.5 55t-141.5 86t-92 123.5t-31 166q0 236 234.5 336t742.5 100q245 0 431 -30
t316 -88t211.5 -149t118.5 -207t37 -267zM1038 805q350 0 705 69q-51 113 -208 161t-478 48q-223 0 -341 -13t-166 -42t-48 -84q0 -30 10 -51.5t36 -37.5t63 -25.5t101 -15t139 -7.5t187 -2z" />
    <glyph glyph-name="colon" unicode=":" horiz-adv-x="610" 
d="M506 1044v-409h-402v409h402zM506 410v-410h-402v410h402z" />
    <glyph glyph-name="semicolon" unicode=";" horiz-adv-x="610" 
d="M506 1044v-409h-402v409h402zM72 -283l26 191q74 -8 95 -8q53 0 70.5 13t17.5 52v35h-177v410h402v-455q0 -121 -73.5 -187.5t-221.5 -66.5q-70 0 -139 16z" />
    <glyph glyph-name="less" unicode="&#x3c;" horiz-adv-x="1488" 
d="M1399 111l-1309 356v416l1309 356v-346l-957 -217l957 -219v-346z" />
    <glyph glyph-name="equal" unicode="=" horiz-adv-x="1531" 
d="M1442 762h-1352v295h1352v-295zM1442 281h-1352v297h1352v-297z" />
    <glyph glyph-name="greater" unicode="&#x3e;" horiz-adv-x="1488" 
d="M90 1239l1309 -356v-416l-1309 -356v346l957 219l-957 217v346z" />
    <glyph glyph-name="question" unicode="?" horiz-adv-x="1683" 
d="M981 524h-616v273h598q128 0 181.5 29.5t53.5 105.5q0 83 -69 110t-263 27q-388 0 -762 -55l-55 319q430 70 789 70q286 0 454.5 -44.5t245 -139.5t76.5 -256q0 -218 -151.5 -328.5t-481.5 -110.5zM760 379v-379h-402v379h402z" />
    <glyph glyph-name="at" unicode="@" horiz-adv-x="2920" 
d="M2044 -406q-307 -83 -680 -83q-627 0 -953.5 247t-326.5 723q0 202 68 363.5t190 273.5t296.5 186.5t382 109t452.5 34.5q165 0 311.5 -13.5t285.5 -44.5t254 -78.5t211 -118t162 -160t102.5 -208t36.5 -258.5q0 -271 -131.5 -417t-380.5 -146q-316 0 -432 172
q-361 -174 -688 -174q-127 0 -230 26.5t-181.5 81t-121 143.5t-42.5 208q0 107 34 189t94.5 137.5t150.5 90.5t196.5 50.5t238.5 15.5q401 0 832 -67v-394q0 -115 45.5 -163t144.5 -48q101 0 142 64.5t41 216.5q0 120 -33 214t-111.5 173t-202.5 131t-311.5 80.5
t-433.5 28.5q-550 0 -816.5 -179.5t-266.5 -517.5q0 -172 54 -301t168.5 -220.5t300.5 -138t443 -46.5q336 0 660 88zM1831 408v235q-282 25 -522 25q-171 0 -253.5 -47t-82.5 -148q0 -99 66.5 -142.5t215.5 -43.5q254 0 576 96v25z" />
    <glyph glyph-name="A" unicode="A" horiz-adv-x="2326" 
d="M1845 0l-168 270h-1032l-170 -270h-500l912 1397h553l909 -1397h-504zM825 559h670l-334 537z" />
    <glyph glyph-name="B" unicode="B" horiz-adv-x="2211" 
d="M1667 0h-1556v1397h1554q215 0 323.5 -82.5t108.5 -259.5q0 -258 -235 -320q144 -33 215 -120t71 -242q0 -196 -118.5 -284.5t-362.5 -88.5zM1548 1083h-1028v-245h1039q72 0 112.5 30.5t40.5 92.5q0 64 -39 93t-125 29zM1593 545h-1073v-256h1063q97 0 138.5 28
t41.5 101q0 70 -43 98.5t-127 28.5z" />
    <glyph glyph-name="C" unicode="C" horiz-adv-x="2154" 
d="M485 696q0 -79 17.5 -135.5t60.5 -102t117.5 -72.5t187 -41.5t269.5 -14.5q364 0 895 104l73 -346q-497 -115 -983 -115q-284 0 -487 46.5t-327 140t-181 225t-57 311.5t57 311.5t181 224.5t326.5 139t487.5 46q491 0 983 -114l-73 -347q-536 105 -895 105
q-157 0 -269.5 -14.5t-187 -41.5t-117.5 -73t-60.5 -102t-17.5 -134z" />
    <glyph glyph-name="D" unicode="D" horiz-adv-x="2340" 
d="M1470 0h-1359v1397h1359q188 0 329.5 -35t250 -114t165 -216.5t56.5 -331.5q0 -116 -19.5 -211t-55.5 -167t-90.5 -127t-120 -92t-148.5 -60t-172 -33t-195 -10zM526 1040v-684h906q113 0 186.5 15t125.5 53.5t74.5 105t22.5 170.5q0 102 -22.5 168t-74.5 104t-125.5 53
t-186.5 15h-906z" />
    <glyph glyph-name="E" unicode="E" horiz-adv-x="2064" 
d="M1974 0h-1863v1397h1863v-326h-1448v-231h1409v-269h-1409v-245h1448v-326z" />
    <glyph glyph-name="F" unicode="F" horiz-adv-x="2029" 
d="M526 0h-415v1397h1863v-357h-1448v-256h1409v-327h-1409v-457z" />
    <glyph glyph-name="G" unicode="G" horiz-adv-x="2201" 
d="M70 696q0 180 60 311.5t190.5 224.5t343 139t510.5 46q460 0 937 -114l-75 -347q-541 105 -893 105q-159 0 -272 -14t-188.5 -41.5t-119 -73t-61 -101.5t-17.5 -135q0 -78 17.5 -134t61 -101.5t119 -72.5t188.5 -41.5t272 -14.5q198 0 538 43v340h430v-625
q-481 -115 -937 -115q-298 0 -510.5 46t-343 139t-190.5 224.5t-60 311.5z" />
    <glyph glyph-name="H" unicode="H" horiz-adv-x="2260" 
d="M526 0h-415v1397h415v-504h1209v504h415v-1397h-415v539h-1209v-539z" />
    <glyph glyph-name="I" unicode="I" horiz-adv-x="636" 
d="M526 0h-415v1397h415v-1397z" />
    <glyph glyph-name="J" unicode="J" horiz-adv-x="1531" 
d="M565 326q115 0 196 12t132.5 34t81 60t40.5 83t11 110v772h416v-774q0 -124 -26 -222t-88 -180.5t-160 -137t-245.5 -84.5t-342.5 -30q-321 0 -566 80l95 338q98 -29 223 -45t233 -16z" />
    <glyph glyph-name="K" unicode="K" horiz-adv-x="2230" 
d="M526 0h-415v1397h415v-699l246 199l756 500h571l-842 -592l883 -805h-551l-655 598l-408 -268v-330z" />
    <glyph glyph-name="L" unicode="L" horiz-adv-x="1953" 
d="M526 356h1387v-356h-1802v1397h415v-1041z" />
    <glyph glyph-name="M" unicode="M" horiz-adv-x="2893" 
d="M526 0h-415v1397h505l836 -1055l834 1055h497v-1397h-416v903l-710 -903h-420l-711 903v-903z" />
    <glyph glyph-name="N" unicode="N" horiz-adv-x="2312" 
d="M526 0h-415v1397h475l1200 -944v944h416v-1397h-465l-1211 961v-961z" />
    <glyph glyph-name="O" unicode="O" horiz-adv-x="2433" 
d="M1217 -29q-401 0 -654 78t-373 237.5t-120 411.5t120 411.5t373 237.5t654 78q598 0 872 -175t274 -552t-274 -552t-872 -175zM1217 328q281 0 437 37t220.5 115.5t64.5 217.5t-64.5 217.5t-220.5 116t-437 37.5q-282 0 -440.5 -37.5t-225 -116t-66.5 -217.5t66.5 -217.5
t225 -115.5t440.5 -37z" />
    <glyph glyph-name="P" unicode="P" horiz-adv-x="2146" 
d="M111 0v1397h1405q134 0 237 -25.5t182.5 -82t121.5 -155t42 -235.5q0 -145 -42 -250.5t-121 -168.5t-183 -92.5t-237 -29.5h-990v-358h-415zM1468 1040h-942v-327h942q102 0 151.5 38.5t49.5 125.5q0 92 -48 127.5t-153 35.5z" />
    <glyph glyph-name="Q" unicode="Q" horiz-adv-x="2433" 
d="M1217 -29q-401 0 -654 78t-373 237.5t-120 411.5t120 411.5t373 237.5t654 78q598 0 872 -175t274 -552q0 -282 -151 -449t-471 -233l397 -391h-485l-359 346h-77zM1217 328q281 0 437 37t220.5 115.5t64.5 217.5t-64.5 217.5t-220.5 116t-437 37.5q-282 0 -440.5 -37.5
t-225 -116t-66.5 -217.5t66.5 -217.5t225 -115.5t440.5 -37z" />
    <glyph glyph-name="R" unicode="R" horiz-adv-x="2164" 
d="M526 0h-415v1397h1398q107 0 193.5 -15.5t160.5 -51t124 -91t78 -139t28 -191.5q0 -439 -491 -479l-91 -2l111 -68l459 -360h-522l-502 406h-531v-406zM526 1040v-323h942q103 0 149 37t46 123q0 92 -45 127.5t-150 35.5h-942z" />
    <glyph glyph-name="S" unicode="S" horiz-adv-x="2072" 
d="M1995 397q0 -114 -42 -191t-144.5 -131t-274 -78t-430.5 -24q-253 0 -530.5 31.5t-473.5 79.5l60 334q542 -119 1054 -119q165 0 247.5 11t111.5 33.5t29 66.5q0 60 -34 79t-126 27l-772 45q-318 15 -455 117t-137 303q0 234 217 337t704 103q192 0 459.5 -27.5
t468.5 -70.5l-67 -313q-189 37 -447.5 61.5t-509.5 24.5q-192 0 -282 -9.5t-120 -30t-30 -65.5q0 -55 38.5 -73t141.5 -25l762 -45q301 -17 441.5 -125.5t140.5 -325.5z" />
    <glyph glyph-name="T" unicode="T" horiz-adv-x="2158" 
d="M872 1040h-829v357h2073v-357h-828v-1040h-416v1040z" />
    <glyph glyph-name="U" unicode="U" horiz-adv-x="2199" 
d="M1694 739v658h415v-746q0 -176 -70.5 -306t-204 -210.5t-316.5 -119t-418 -38.5t-418 39t-317 119t-204.5 210t-70.5 306v746h416v-658q0 -221 139.5 -314t454.5 -93t454.5 93t139.5 314z" />
    <glyph glyph-name="V" unicode="V" horiz-adv-x="2390" 
d="M918 0l-904 1397h506l680 -1057l678 1057h498l-903 -1397h-555z" />
    <glyph glyph-name="W" unicode="W" horiz-adv-x="3368" 
d="M657 0l-622 1397h469l432 -1018l500 1018h495l512 -1018l422 1018h469l-622 -1397h-533l-493 993l-496 -993h-533z" />
    <glyph glyph-name="X" unicode="X" horiz-adv-x="2527" 
d="M63 1397h625l584 -479l588 479h600l-861 -697l869 -700h-631l-573 473l-584 -473h-619l871 694z" />
    <glyph glyph-name="Y" unicode="Y" horiz-adv-x="2316" 
d="M948 518l-946 879h533l626 -566l627 566h524l-948 -881v-516h-416v518z" />
    <glyph glyph-name="Z" unicode="Z" horiz-adv-x="2232" 
d="M2138 356v-356h-2042v326l924 514q117 54 301 116.5t309 96.5l-678 -29h-823v356h1999v-327l-785 -463q-134 -65 -343.5 -140.5t-376.5 -123.5l702 30h813z" />
    <glyph glyph-name="bracketleft" unicode="[" horiz-adv-x="1007" 
d="M887 -336h-694v1872h694v-285h-346v-1302h346v-285z" />
    <glyph glyph-name="backslash" unicode="\" horiz-adv-x="1294" 
d="M1296 -338h-340l-960 1770h340z" />
    <glyph glyph-name="bracketright" unicode="]" horiz-adv-x="1007" 
d="M815 -336h-694v285h346v1302h-346v285h694v-1872z" />
    <glyph glyph-name="asciicircum" unicode="^" horiz-adv-x="1517" 
d="M524 1335h471l426 -985h-397l-264 668l-266 -668h-398z" />
    <glyph glyph-name="underscore" unicode="_" horiz-adv-x="1640" 
d="M1563 -317h-1485v245h1485v-245z" />
    <glyph glyph-name="grave" unicode="`" horiz-adv-x="980" 
d="M522 1204l-397 309h479l291 -309h-373z" />
    <glyph glyph-name="a" unicode="a" horiz-adv-x="1849" 
d="M1753 997l-2 -2h2v-995h-340l-29 139q-370 -159 -696 -159q-618 0 -618 532q0 124 37.5 219t105 157.5t167.5 102.5t217 57t263 17q386 0 893 -68zM457 526q0 -124 69.5 -175.5t237.5 -51.5q247 0 602 102v326q-290 27 -545 27q-185 0 -274.5 -53.5t-89.5 -174.5z" />
    <glyph glyph-name="b" unicode="b" horiz-adv-x="1863" 
d="M111 0v1536h387v-582q339 117 665 117q631 0 631 -541q0 -530 -670 -530h-1013zM1128 760q-238 0 -630 -113v-336h592q162 0 239.5 52t77.5 169q0 120 -65.5 174t-213.5 54z" />
    <glyph glyph-name="c" unicode="c" horiz-adv-x="1738" 
d="M70 524q0 286 210 416.5t676 130.5q375 0 713 -80l-78 -309q-309 63 -692 63q-248 0 -345 -47t-97 -174q0 -128 96.5 -174.5t345.5 -46.5q378 0 692 64l78 -310q-338 -80 -713 -80q-466 0 -676 131t-210 416z" />
    <glyph glyph-name="d" unicode="d" horiz-adv-x="1863" 
d="M1366 1536h387v-1536h-340l-27 143q-369 -163 -669 -163q-156 0 -272 28t-202 89.5t-129.5 165t-43.5 249.5q0 122 36 216.5t101 157.5t161 103.5t209.5 58t253.5 17.5q264 0 535 -51v522zM457 518q0 -119 73.5 -169t247.5 -50q246 0 588 98v322q-338 35 -559 35
q-177 0 -263.5 -56t-86.5 -180z" />
    <glyph glyph-name="e" unicode="e" 
d="M956 276q324 0 662 54l78 -279q-145 -36 -358 -58t-416 -22q-447 0 -649.5 130t-202.5 421q0 285 207.5 417t619.5 132q823 0 823 -469q0 -100 -10 -168h-1257q26 -94 134 -126t369 -32zM883 813q-217 0 -313 -39t-119 -139h886q-12 65 -55 102.5t-139 56.5t-260 19z" />
    <glyph glyph-name="f" unicode="f" horiz-adv-x="1280" 
d="M621 0h-390v733h-206v311h206q17 521 723 521q234 0 510 -47l-71 -287q-278 33 -455 33q-176 0 -246.5 -48t-70.5 -167v-5h647v-311h-647v-733z" />
    <glyph glyph-name="g" unicode="g" horiz-adv-x="1853" 
d="M1767 995v-809q0 -308 -215.5 -446.5t-681.5 -138.5q-406 0 -737 96l80 287q344 -84 682 -84q148 0 249 18.5t157.5 56.5t79 89t18.5 124q-328 -106 -664 -106q-332 0 -498.5 113t-166.5 368q0 140 55 238.5t163 155.5t251 82.5t335 25.5q386 0 893 -68l-2 -2h2zM457 563
q0 -98 70.5 -141t236.5 -43q316 0 616 61v287q-339 27 -559 27q-186 0 -275 -44.5t-89 -146.5z" />
    <glyph glyph-name="h" unicode="h" horiz-adv-x="1859" 
d="M111 0v1536h387v-596q366 131 694 131q290 0 437 -118t147 -373v-580h-387v514q0 236 -322 236q-227 0 -569 -93v-657h-387z" />
    <glyph glyph-name="i" unicode="i" horiz-adv-x="608" 
d="M498 1497v-319h-387v319h387zM111 0v1044h387v-1044h-387z" />
    <glyph glyph-name="j" unicode="j" horiz-adv-x="608" 
d="M498 1497v-319h-387v319h387zM313 -373h-401q199 272 199 576v841h387v-843q0 -331 -185 -574z" />
    <glyph glyph-name="k" unicode="k" horiz-adv-x="1769" 
d="M498 1536v-827h301l467 335h516l-658 -493l684 -551h-520l-495 393h-295v-393h-387v1536h387z" />
    <glyph glyph-name="l" unicode="l" horiz-adv-x="608" 
d="M498 1536v-1536h-387v1536h387z" />
    <glyph glyph-name="m" unicode="m" horiz-adv-x="2881" 
d="M111 0v1042h340l22 -114q325 143 606 143q338 0 473 -168q375 168 678 168q281 0 423.5 -118t142.5 -373v-580h-388v514q0 236 -305 236q-185 0 -461 -84q5 -68 5 -86v-580h-387v514q0 236 -306 236q-177 0 -456 -86v-664h-387z" />
    <glyph glyph-name="n" unicode="n" horiz-adv-x="1859" 
d="M111 0v1044h340l22 -124q383 151 719 151q290 0 437 -118t147 -373v-580h-387v514q0 236 -322 236q-227 0 -569 -93v-657h-387z" />
    <glyph glyph-name="o" unicode="o" horiz-adv-x="1970" 
d="M70 524q0 284 224.5 417.5t690.5 133.5q465 0 690.5 -133.5t225.5 -417.5t-225.5 -417.5t-690.5 -133.5q-466 0 -690.5 133.5t-224.5 417.5zM457 524q0 -84 45 -131t159.5 -70.5t323.5 -23.5t323.5 23.5t159.5 70.5t45 131t-45 131.5t-159.5 71t-323.5 23.5t-323.5 -23.5
t-159.5 -71t-45 -131.5z" />
    <glyph glyph-name="p" unicode="p" horiz-adv-x="1863" 
d="M498 -379h-387v1423h340l26 -143q370 164 699 164q146 0 257.5 -29.5t193.5 -92.5t124.5 -166.5t42.5 -246.5q0 -149 -52 -256.5t-152.5 -171t-234 -93t-308.5 -29.5q-239 0 -549 51v-410zM1104 745q-238 0 -606 -102v-317q346 -35 567 -35q176 0 259 54.5t83 178.5
q0 119 -68.5 170t-234.5 51z" />
    <glyph glyph-name="q" unicode="q" horiz-adv-x="1839" 
d="M1753 997l-2 -2h2v-1366h-387v502q-361 -151 -678 -151q-618 0 -618 530q0 124 36 219.5t101 158.5t163 103t214 57t262 17q431 0 907 -68zM457 526q0 -124 69.5 -175.5t237.5 -51.5q247 0 602 102v326q-343 27 -559 27q-183 0 -266.5 -53t-83.5 -175z" />
    <glyph glyph-name="r" unicode="r" horiz-adv-x="1298" 
d="M111 0v1044h340l30 -178q393 205 768 205v-348q-220 0 -395.5 -28.5t-355.5 -92.5v-602h-387z" />
    <glyph glyph-name="s" unicode="s" horiz-adv-x="1681" 
d="M1634 297q0 -186 -172 -256t-571 -70q-219 0 -439.5 27.5t-361.5 62.5l66 250q157 -34 372 -58t433 -24q184 0 248.5 14t64.5 56q0 43 -43.5 57.5t-171.5 22.5l-510 29q-262 13 -370.5 92t-108.5 250q0 66 22 116.5t68.5 86t109 59.5t153.5 38t192 19.5t233 5.5
q164 0 367.5 -21t353.5 -46l-58 -252q-369 67 -753 67q-101 0 -160.5 -2.5t-99.5 -10.5t-54 -21t-14 -35q0 -41 35 -54t125 -18l510 -31q136 -8 232 -29t165.5 -61.5t103 -105.5t33.5 -158z" />
    <glyph glyph-name="t" unicode="t" horiz-adv-x="1552" 
d="M242 492v241h-224v311h234l67 271h312v-271h815v-311h-815v-201q0 -136 67 -184.5t252 -48.5q213 0 506 59l74 -307q-324 -80 -615 -80q-343 0 -508 120.5t-165 400.5z" />
    <glyph glyph-name="u" unicode="u" horiz-adv-x="1851" 
d="M86 463v581h385v-516q0 -235 330 -235q224 0 569 96v655h385v-1044h-338l-22 125q-394 -154 -721 -154q-291 0 -439.5 118.5t-148.5 373.5z" />
    <glyph glyph-name="v" unicode="v" horiz-adv-x="1972" 
d="M1968 1044l-768 -1044h-483l-711 1044h457l500 -739l550 739h455z" />
    <glyph glyph-name="w" unicode="w" horiz-adv-x="2791" 
d="M1141 1044h487l404 -729l344 729h409l-534 -1044h-447l-428 764l-428 -764h-444l-498 1044h404l335 -725z" />
    <glyph glyph-name="x" unicode="x" horiz-adv-x="2000" 
d="M555 0h-543l719 530l-717 514h551l443 -319l432 319h542l-708 -514l723 -530h-551l-449 334z" />
    <glyph glyph-name="y" unicode="y" horiz-adv-x="1894" 
d="M86 610v434h385v-374q0 -89 33 -138.5t114 -73.5t226 -24q260 0 553 55v555h387v-813q0 -178 -50 -299t-157.5 -194.5t-264 -105t-382.5 -31.5q-195 0 -401.5 26.5t-364.5 69.5l67 295q377 -92 725 -92q265 0 368 70.5t91 242.5l-4 10q-366 -106 -659 -106
q-244 0 -390 52.5t-211 159t-65 281.5z" />
    <glyph glyph-name="z" unicode="z" horiz-adv-x="1765" 
d="M1688 266v-266h-1610v266l518 287q253 126 651 223h-1149v268h1590v-268l-461 -262q-64 -34 -137 -65.5t-131.5 -53.5t-129.5 -45.5t-110.5 -35.5t-97 -28.5t-68.5 -19.5h1135z" />
    <glyph glyph-name="braceleft" unicode="{" horiz-adv-x="1216" 
d="M47 416v366q158 0 224.5 40.5t66.5 160.5v141q0 215 128 323.5t376 108.5q181 0 329 -32l-45 -322q-154 25 -221 25q-115 0 -167 -39.5t-52 -140.5v-158q0 -254 -252 -289q252 -35 252 -289v-159q0 -101 52 -141t167 -40q23 0 53.5 2.5t52.5 6t60 9t55 7.5l45 -322
q-197 -32 -329 -32q-247 0 -375.5 109t-128.5 323v143q0 119 -66.5 159t-224.5 40z" />
    <glyph glyph-name="bar" unicode="|" horiz-adv-x="532" 
d="M424 -338h-313v1866h313v-1866z" />
    <glyph glyph-name="braceright" unicode="}" horiz-adv-x="1216" 
d="M1171 782v-366q-158 0 -225 -40t-67 -159v-143q0 -214 -128 -323t-374 -109q-138 0 -330 32l43 322q17 -2 55 -7.5t60.5 -9t53 -6t54.5 -2.5q115 0 167 40t52 141v159q0 254 252 289q-252 35 -252 289v158q0 101 -52 140.5t-167 39.5q-69 0 -223 -25l-43 322
q144 32 330 32q246 0 374 -108.5t128 -323.5v-141q0 -120 67 -160.5t225 -40.5z" />
    <glyph glyph-name="asciitilde" unicode="~" horiz-adv-x="1583" 
d="M1102 477q-96 0 -199 24.5t-209.5 49t-210.5 24.5q-146 0 -325 -100l-97 250q94 79 194 118.5t224 39.5q75 0 159 -15.5t147.5 -34t149 -34t163.5 -15.5q140 0 325 103l99 -250q-187 -160 -420 -160z" />
    <glyph glyph-name="nbspace" unicode="&#xa0;" horiz-adv-x="563" 
 />
    <glyph glyph-name="exclamdown" unicode="&#xa1;" horiz-adv-x="585" 
d="M92 635v409h402v-409h-402zM90 47l49 490h307l50 -490v-399h-406v399z" />
    <glyph glyph-name="cent" unicode="&#xa2;" horiz-adv-x="1730" 
d="M70 621q0 261 174 391.5t555 150.5v234h282v-232q302 -14 588 -80l-78 -309q-245 51 -510 60v-435q265 9 510 60l78 -309q-273 -67 -588 -78v-234h-282v236q-380 20 -554.5 152t-174.5 393zM457 621q0 -116 76.5 -165t265.5 -57v439q-189 -8 -265.5 -56t-76.5 -161z" />
    <glyph glyph-name="sterling" unicode="&#xa3;" horiz-adv-x="2412" 
d="M76 -29v338q116 55 280 74v174h-280v254h284q28 299 272 445.5t746 146.5q478 0 930 -107l-76 -344q-503 97 -839 97q-304 0 -444 -55t-169 -183h1159v-254h-1167v-176q49 -4 403.5 -43t530.5 -39q148 0 267 20.5t263 59.5l91 -322q-230 -100 -615 -100q-201 0 -599.5 49
t-571.5 49q-236 0 -465 -84z" />
    <glyph glyph-name="currency" unicode="&#xa4;" horiz-adv-x="1775" 
d="M174 616q0 264 221 373l-219 207h326l143 -135q115 16 246 16q113 0 239 -14l144 133h325l-219 -205q224 -112 224 -375q0 -260 -224 -372l219 -207h-313l-143 137q-111 -18 -252 -18q-146 0 -260 18l-144 -137h-311l219 207q-221 112 -221 372zM1276 616
q0 110 -89 158.5t-294 48.5q-207 0 -298 -48.5t-91 -158.5t90 -158t295 -48q207 0 297 48t90 158z" />
    <glyph glyph-name="yen" unicode="&#xa5;" horiz-adv-x="2316" 
d="M2044 160h-680v-160h-416v160h-676v239h676v107h-676v239h430l-700 652h533l626 -566l627 566h524l-700 -652h432v-239h-680v-107h680v-239z" />
    <glyph glyph-name="brokenbar" unicode="&#xa6;" horiz-adv-x="458" 
d="M348 1509v-696h-237v696h237zM111 -338v696h237v-696h-237z" />
    <glyph glyph-name="section" unicode="&#xa7;" horiz-adv-x="1703" 
d="M856 -23q-166 0 -371.5 20t-349.5 44l58 287q419 -76 753 -76q196 0 262 16t66 68q0 41 -36 56t-124 22l-637 47q-84 6 -145 15.5t-112.5 26t-83 40.5t-49 59t-17.5 82q0 95 72 144.5t204 68.5q-129 18 -202.5 78t-73.5 160q0 81 47.5 136t148 87.5t241 46.5t341.5 14
q166 0 372.5 -19.5t348.5 -43.5l-58 -287q-402 76 -768 76q-187 0 -250 -16t-63 -68q0 -41 36 -56t124 -22l637 -47q215 -16 311 -61t96 -154q0 -188 -276 -221q129 -18 202.5 -78t73.5 -160q0 -81 -47.5 -136t-148 -88t-241 -47t-341.5 -14zM588 625l510 -37q111 -8 158 13
t47 79q0 45 -41.5 63.5t-145.5 26.5l-512 37q-110 8 -156.5 -12t-46.5 -78q0 -47 41 -65.5t146 -26.5z" />
    <glyph glyph-name="dieresis" unicode="&#xa8;" horiz-adv-x="1054" 
d="M428 1507v-317h-338v317h338zM965 1507v-317h-340v317h340z" />
    <glyph glyph-name="copyright" unicode="&#xa9;" horiz-adv-x="2457" 
d="M1229 1423q392 0 638.5 -84t360 -249t113.5 -422q0 -256 -113 -421t-360.5 -250t-638.5 -85q-390 0 -637 85t-361 251t-114 422q0 255 114 420t361 249t637 84zM1229 111q206 0 357.5 22t254 65t164.5 111.5t88.5 155t26.5 203.5t-26.5 203.5t-88.5 155t-164.5 111.5
t-254 65t-357.5 22q-205 0 -356 -22t-254 -65t-165 -111.5t-89 -154.5t-27 -202q0 -117 27 -204t89 -156t165 -112t254 -65t356 -22zM1798 780q-228 45 -577 45q-162 0 -247.5 -14.5t-121 -48t-35.5 -96.5t36 -96t121 -47.5t247 -14.5q349 0 577 45l37 -223
q-308 -66 -614 -66q-255 0 -407 42t-220 129t-68 231q0 145 68 231.5t220 128t407 41.5q304 0 614 -63z" />
    <glyph glyph-name="ordfeminine" unicode="&#xaa;" horiz-adv-x="1445" 
d="M1083 653l-18 97q-273 -113 -498 -113q-483 0 -483 385q0 111 42 189.5t122.5 123t184 64.5t239.5 20q316 0 674 -61v-705h-263zM647 1190q-137 0 -203.5 -35t-66.5 -127q0 -88 58 -122t183 -34q198 0 433 66v225q-218 27 -404 27z" />
    <glyph glyph-name="guillemotleft" unicode="&#xab;" horiz-adv-x="1689" 
d="M825 -10l-749 362v357l749 362v-317l-469 -224l469 -223v-317zM1616 -10l-752 362v357l752 362v-317l-469 -224l469 -223v-317z" />
    <glyph glyph-name="logicalnot" unicode="&#xac;" horiz-adv-x="1458" 
d="M1004 299v348h-928v326h1306v-674h-378z" />
    <glyph glyph-name="softhyphen" unicode="&#xad;" horiz-adv-x="1091" 
d="M1014 395h-936v303h936v-303z" />
    <glyph glyph-name="registered" unicode="&#xae;" horiz-adv-x="2457" 
d="M1229 1423q392 0 638.5 -84t360 -249t113.5 -422q0 -256 -113 -421t-360.5 -250t-638.5 -85q-390 0 -637 85t-361 251t-114 422q0 255 114 420t361 249t637 84zM1229 111q174 0 305.5 13t232 41.5t167 71.5t108.5 106.5t60 142t18 182.5t-18 182.5t-60 142t-108.5 106.5
t-167 71.5t-232 41.5t-305.5 13q-344 0 -537.5 -56t-273.5 -174t-80 -325q0 -126 27 -215.5t88.5 -157t166 -107.5t253 -59.5t356.5 -19.5zM971 510v-244h-287v799h746q111 0 184.5 -12.5t127 -44t77.5 -86.5t24 -140q0 -143 -93 -202.5t-271 -59.5l135 -96l209 -158h-353
l-299 244h-200zM1419 858h-448v-186h448q76 0 108 21t32 73t-32 72t-108 20z" />
    <glyph glyph-name="macron" unicode="&#xaf;" horiz-adv-x="1019" 
d="M930 1245h-840v236h840v-236z" />
    <glyph glyph-name="degree" unicode="&#xb0;" horiz-adv-x="1394" 
d="M700 1425q312 0 465.5 -97.5t153.5 -313.5t-154 -317t-465 -101q-313 0 -468.5 101t-155.5 317q0 215 155 313t469 98zM389 1014q0 -96 70 -131t239 -35q170 0 239 35t69 131q0 95 -69 129.5t-239 34.5q-168 0 -238.5 -35t-70.5 -129z" />
    <glyph glyph-name="plusminus" unicode="&#xb1;" horiz-adv-x="1546" 
d="M1427 92h-1308v297h497v260h-497v297h497v283h312v-283h499v-297h-499v-260h499v-297z" />
    <glyph glyph-name="twosuperior" unicode="&#xb2;" horiz-adv-x="1159" 
d="M711 995l-242 -63q178 18 360 18h234v-168h-928v197l531 131q92 27 118.5 44t26.5 50q0 38 -40 52t-132 14q-191 0 -485 -47l-4 159q218 43 499 43q212 0 310 -50t98 -154q0 -35 -8.5 -62t-30.5 -48t-45.5 -36t-69 -29.5t-85 -24.5t-107.5 -26z" />
    <glyph glyph-name="threesuperior" unicode="&#xb3;" horiz-adv-x="1153" 
d="M561 768q-228 0 -426 39l4 156q205 -37 424 -37q115 0 171 5t75.5 16t19.5 34q0 28 -22 38.5t-86 10.5h-445v141h441q63 0 85.5 11.5t22.5 38.5q0 19 -19.5 28.5t-74.5 14t-164 4.5q-207 0 -409 -35l-2 153q186 39 440 39q237 0 337.5 -45.5t100.5 -140.5q0 -91 -90 -135
q94 -49 94 -143q0 -68 -40 -108.5t-146 -62.5t-291 -22z" />
    <glyph glyph-name="acute" unicode="&#xb4;" horiz-adv-x="980" 
d="M516 1513h479l-401 -309h-371z" />
    <glyph glyph-name="paragraph" unicode="&#xb6;" horiz-adv-x="2000" 
d="M76 1032q0 209 165.5 299t518.5 90q330 0 624 -24v-1397h-251v643q-203 -16 -414 -16q-319 0 -481 95t-162 310zM1833 1397v-1397h-252v1397h252z" />
    <glyph glyph-name="periodcentered" unicode="&#xb7;" horiz-adv-x="581" 
d="M492 950v-409h-402v409h402z" />
    <glyph glyph-name="cedilla" unicode="&#xb8;" horiz-adv-x="774" 
d="M451 -84h233v-68q0 -157 -70 -221.5t-249 -64.5q-145 0 -275 37l47 200q122 -24 203 -24q60 0 85.5 18.5t25.5 71.5v51z" />
    <glyph glyph-name="onesuperior" unicode="&#xb9;" horiz-adv-x="710" 
d="M616 772h-225v338q0 46 2 66l-299 -74v201l312 94h210v-625z" />
    <glyph glyph-name="ordmasculine" unicode="&#xba;" horiz-adv-x="1404" 
d="M1321 1020q0 -206 -156 -301.5t-460 -95.5q-306 0 -463.5 95.5t-157.5 301.5t157.5 301.5t463.5 95.5q304 0 460 -95.5t156 -301.5zM1028 1018q0 96 -70.5 134t-252.5 38t-255 -39t-73 -133q0 -93 71.5 -130.5t253.5 -37.5t254 37.5t72 130.5z" />
    <glyph glyph-name="guillemotright" unicode="&#xbb;" horiz-adv-x="1689" 
d="M864 1071l752 -362v-357l-752 -362v317l469 223l-469 224v317zM76 1071l749 -362v-357l-749 -362v317l467 223l-467 224v317z" />
    <glyph glyph-name="onequarter" unicode="&#xbc;" horiz-adv-x="2375" 
d="M616 772h-225v338q0 46 2 66l-299 -74v201l312 94h210v-625zM489 0h-362l1489 1397h360zM2122 0h-219v100h-695v150l695 375h219v-363h162v-162h-162v-100zM1470 244v-4q141 22 310 22h123v164l-152 -76q-219 -87 -281 -106z" />
    <glyph glyph-name="onehalf" unicode="&#xbd;" horiz-adv-x="2453" 
d="M616 772h-225v338q0 46 2 66l-299 -74v201l312 94h210v-625zM489 0h-362l1489 1397h360zM2009 213l-244 -63q181 18 363 18h231v-168h-925v197l528 131q91 26 118 43.5t27 50.5q0 38 -39 51.5t-133 13.5q-187 0 -485 -47l-2 160q218 43 500 43q211 0 309 -50.5t98 -154.5
q0 -35 -8.5 -61.5t-30.5 -48t-45.5 -36t-69.5 -29.5t-84.5 -24.5t-107.5 -25.5z" />
    <glyph glyph-name="threequarters" unicode="&#xbe;" horiz-adv-x="2666" 
d="M561 768q-228 0 -426 39l4 156q205 -37 424 -37q115 0 171 5t75.5 16t19.5 34q0 28 -22 38.5t-86 10.5h-445v141h441q63 0 85.5 11.5t22.5 38.5q0 19 -19.5 28.5t-74.5 14t-164 4.5q-207 0 -409 -35l-2 153q186 39 440 39q237 0 337.5 -45.5t100.5 -140.5q0 -91 -90 -135
q94 -49 94 -143q0 -68 -40 -108.5t-146 -62.5t-291 -22zM778 0h-360l1487 1397h362zM2410 0h-219v100h-692v150l692 375h219v-363h162v-162h-162v-100zM1761 244v-4q138 22 310 22h120v164l-149 -76q-225 -88 -281 -106z" />
    <glyph glyph-name="questiondown" unicode="&#xbf;" horiz-adv-x="1683" 
d="M924 649v395h401v-395h-401zM702 504h617v-258h-598q-128 0 -182 -29t-54 -106q0 -82 69.5 -109t262.5 -27q369 0 762 54l55 -318q-404 -69 -788 -69q-286 0 -454.5 44.5t-245 139.5t-76.5 256q0 216 149.5 319t482.5 103z" />
    <glyph glyph-name="Agrave" unicode="&#xc0;" horiz-adv-x="2326" 
d="M1001 1487l-376 311h479l270 -311h-373zM1845 0l-168 270h-1032l-170 -270h-500l912 1397h553l909 -1397h-504zM825 559h670l-334 537z" />
    <glyph glyph-name="Aacute" unicode="&#xc1;" horiz-adv-x="2326" 
d="M1223 1798h477l-377 -311h-371zM1845 0l-168 270h-1032l-170 -270h-500l912 1397h553l909 -1397h-504zM825 559h670l-334 537z" />
    <glyph glyph-name="Acircumflex" unicode="&#xc2;" horiz-adv-x="2326" 
d="M1669 1487h-348l-166 143l-166 -143h-348l338 313h350zM1845 0l-168 270h-1032l-170 -270h-500l912 1397h553l909 -1397h-504zM825 559h670l-334 537z" />
    <glyph glyph-name="Atilde" unicode="&#xc3;" horiz-adv-x="2326" 
d="M745 1495v215q113 64 218 64q89 0 230.5 -33t201.5 -33q39 0 75 10t56 20.5t57 33.5v-226q-81 -57 -182 -57q-75 0 -223.5 33.5t-221.5 33.5q-108 0 -211 -61zM1845 0l-168 270h-1032l-170 -270h-500l912 1397h553l909 -1397h-504zM825 559h670l-334 537z" />
    <glyph glyph-name="Adieresis" unicode="&#xc4;" horiz-adv-x="2326" 
d="M1057 1806v-319h-340v319h340zM1591 1806v-319h-340v319h340zM1845 0l-168 270h-1032l-170 -270h-500l912 1397h553l909 -1397h-504zM825 559h670l-334 537z" />
    <glyph glyph-name="Aring" unicode="&#xc5;" horiz-adv-x="2326" 
d="M1155 1485q-162 0 -239.5 57.5t-77.5 173.5q0 223 317 223q315 0 315 -223q0 -116 -77.5 -173.5t-237.5 -57.5zM1014 1714q0 -44 29.5 -65t111.5 -21q80 0 109.5 21t29.5 65q0 43 -29.5 62.5t-109.5 19.5q-82 0 -111.5 -19.5t-29.5 -62.5zM1845 0l-168 270h-1032
l-170 -270h-500l912 1397h553l909 -1397h-504zM825 559h670l-334 537z" />
    <glyph glyph-name="AE" unicode="&#xc6;" horiz-adv-x="3676" 
d="M522 0h-547l1586 1397h2025v-326h-1382v-231h1341l2 -269h-1341v-245h1380v-326h-1796v270h-956zM1790 1106l-631 -547h631v547z" />
    <glyph glyph-name="Ccedilla" unicode="&#xc7;" horiz-adv-x="2154" 
d="M485 696q0 -79 17.5 -135.5t60.5 -102t117.5 -72.5t187 -41.5t269.5 -14.5q364 0 895 104l73 -346q-497 -115 -983 -115q-284 0 -487 46.5t-327 140t-181 225t-57 311.5t57 311.5t181 224.5t326.5 139t487.5 46q491 0 983 -114l-73 -347q-536 105 -895 105
q-157 0 -269.5 -14.5t-187 -41.5t-117.5 -73t-60.5 -102t-17.5 -134zM1120 -84h234v-68q0 -157 -70.5 -221.5t-249.5 -64.5q-144 0 -274 37l45 200q126 -24 205 -24q60 0 85 18.5t25 71.5v51z" />
    <glyph glyph-name="Egrave" unicode="&#xc8;" horiz-adv-x="2064" 
d="M979 1491l-377 309h479l271 -309h-373zM1974 0h-1863v1397h1863v-326h-1448v-231h1409v-269h-1409v-245h1448v-326z" />
    <glyph glyph-name="Eacute" unicode="&#xc9;" horiz-adv-x="2064" 
d="M1200 1800h479l-379 -309h-370zM1974 0h-1863v1397h1863v-326h-1448v-231h1409v-269h-1409v-245h1448v-326z" />
    <glyph glyph-name="Ecircumflex" unicode="&#xca;" horiz-adv-x="2064" 
d="M1647 1491h-349l-165 141l-166 -141h-349l338 313h351zM1974 0h-1863v1397h1863v-326h-1448v-231h1409v-269h-1409v-245h1448v-326z" />
    <glyph glyph-name="Edieresis" unicode="&#xcb;" horiz-adv-x="2064" 
d="M1034 1808v-317h-340v317h340zM1569 1808v-317h-338v317h338zM1974 0h-1863v1397h1863v-326h-1448v-231h1409v-269h-1409v-245h1448v-326z" />
    <glyph glyph-name="Igrave" unicode="&#xcc;" horiz-adv-x="636" 
d="M166 1487l-379 311h479l271 -311h-371zM526 0h-415v1397h415v-1397z" />
    <glyph glyph-name="Iacute" unicode="&#xcd;" horiz-adv-x="636" 
d="M385 1798h479l-377 -311h-372zM526 0h-415v1397h415v-1397z" />
    <glyph glyph-name="Icircumflex" unicode="&#xce;" horiz-adv-x="636" 
d="M831 1487h-348l-166 143l-165 -143h-349l340 313h351zM526 0h-415v1397h415v-1397z" />
    <glyph glyph-name="Idieresis" unicode="&#xcf;" horiz-adv-x="636" 
d="M219 1806v-319h-338v319h338zM754 1806v-319h-338v319h338zM526 0h-415v1397h415v-1397z" />
    <glyph glyph-name="Eth" unicode="&#xd0;" horiz-adv-x="2410" 
d="M180 578h-160v239h160v580h1362q149 0 267.5 -21.5t220 -71.5t169 -129.5t105 -199t37.5 -275.5q0 -161 -38 -282.5t-105.5 -200.5t-169.5 -128t-219.5 -69t-266.5 -20h-1362v578zM596 592v-236h905q114 0 187.5 15t125.5 53.5t74.5 105t22.5 170.5q0 102 -22.5 168
t-74.5 104t-125.5 53t-187.5 15h-905v-237h524v-211h-524z" />
    <glyph glyph-name="Ntilde" unicode="&#xd1;" horiz-adv-x="2312" 
d="M809 1497v215q101 64 215 64q89 0 231.5 -32t202.5 -32q57 0 97 15t92 47v-224q-83 -59 -183 -59q-75 0 -223 34t-221 34q-106 0 -211 -62zM526 0h-415v1397h475l1200 -944v944h416v-1397h-465l-1211 961v-961z" />
    <glyph glyph-name="Ograve" unicode="&#xd2;" horiz-adv-x="2433" 
d="M1065 1491l-379 309h479l271 -309h-371zM1217 -29q-401 0 -654 78t-373 237.5t-120 411.5t120 411.5t373 237.5t654 78q598 0 872 -175t274 -552t-274 -552t-872 -175zM1217 328q281 0 437 37t220.5 115.5t64.5 217.5t-64.5 217.5t-220.5 116t-437 37.5
q-282 0 -440.5 -37.5t-225 -116t-66.5 -217.5t66.5 -217.5t225 -115.5t440.5 -37z" />
    <glyph glyph-name="Oacute" unicode="&#xd3;" horiz-adv-x="2433" 
d="M1284 1800h479l-379 -309h-370zM1217 -29q-401 0 -654 78t-373 237.5t-120 411.5t120 411.5t373 237.5t654 78q598 0 872 -175t274 -552t-274 -552t-872 -175zM1217 328q281 0 437 37t220.5 115.5t64.5 217.5t-64.5 217.5t-220.5 116t-437 37.5q-282 0 -440.5 -37.5
t-225 -116t-66.5 -217.5t66.5 -217.5t225 -115.5t440.5 -37z" />
    <glyph glyph-name="Ocircumflex" unicode="&#xd4;" horiz-adv-x="2433" 
d="M1731 1491h-349l-165 141l-166 -141h-349l338 313h353zM1217 -29q-401 0 -654 78t-373 237.5t-120 411.5t120 411.5t373 237.5t654 78q598 0 872 -175t274 -552t-274 -552t-872 -175zM1217 328q281 0 437 37t220.5 115.5t64.5 217.5t-64.5 217.5t-220.5 116t-437 37.5
q-282 0 -440.5 -37.5t-225 -116t-66.5 -217.5t66.5 -217.5t225 -115.5t440.5 -37z" />
    <glyph glyph-name="Otilde" unicode="&#xd5;" horiz-adv-x="2433" 
d="M807 1497v215q105 64 217 64q89 0 230.5 -32t201.5 -32q57 0 97 15t92 47v-224q-79 -59 -183 -59q-75 0 -223 34t-221 34q-106 0 -211 -62zM1217 -29q-401 0 -654 78t-373 237.5t-120 411.5t120 411.5t373 237.5t654 78q598 0 872 -175t274 -552t-274 -552t-872 -175z
M1217 328q281 0 437 37t220.5 115.5t64.5 217.5t-64.5 217.5t-220.5 116t-437 37.5q-282 0 -440.5 -37.5t-225 -116t-66.5 -217.5t66.5 -217.5t225 -115.5t440.5 -37z" />
    <glyph glyph-name="Odieresis" unicode="&#xd6;" horiz-adv-x="2433" 
d="M1118 1808v-317h-340v317h340zM1653 1808v-317h-338v317h338zM1217 -29q-401 0 -654 78t-373 237.5t-120 411.5t120 411.5t373 237.5t654 78q598 0 872 -175t274 -552t-274 -552t-872 -175zM1217 328q281 0 437 37t220.5 115.5t64.5 217.5t-64.5 217.5t-220.5 116
t-437 37.5q-282 0 -440.5 -37.5t-225 -116t-66.5 -217.5t66.5 -217.5t225 -115.5t440.5 -37z" />
    <glyph glyph-name="multiply" unicode="&#xd7;" horiz-adv-x="1515" 
d="M1440 446l-146 -253l-538 317l-537 -317l-143 253l403 224l-403 225l143 254l539 -320l536 320l146 -254l-406 -225z" />
    <glyph glyph-name="Oslash" unicode="&#xd8;" horiz-adv-x="2433" 
d="M512 -61h-350l221 184q-160 89 -236.5 230.5t-76.5 344.5q0 252 120 411.5t373 237.5t654 78q388 0 638 -73l109 90h350l-227 -191q276 -175 276 -553q0 -377 -274 -552t-872 -175q-350 0 -592 62zM485 698q0 -120 49.5 -195.5t163.5 -115.5l805 670q-123 12 -286 12
q-282 0 -440.5 -37.5t-225 -116t-66.5 -217.5zM1217 328q281 0 437 37t220.5 115.5t64.5 217.5q0 109 -38 180t-125 113l-789 -655q91 -8 230 -8z" />
    <glyph glyph-name="Ugrave" unicode="&#xd9;" horiz-adv-x="2199" 
d="M948 1487l-379 311h480l270 -311h-371zM1694 739v658h415v-746q0 -176 -70.5 -306t-204 -210.5t-316.5 -119t-418 -38.5t-418 39t-317 119t-204.5 210t-70.5 306v746h416v-658q0 -221 139.5 -314t454.5 -93t454.5 93t139.5 314z" />
    <glyph glyph-name="Uacute" unicode="&#xda;" horiz-adv-x="2199" 
d="M1167 1798h480l-379 -311h-371zM1694 739v658h415v-746q0 -176 -70.5 -306t-204 -210.5t-316.5 -119t-418 -38.5t-418 39t-317 119t-204.5 210t-70.5 306v746h416v-658q0 -221 139.5 -314t454.5 -93t454.5 93t139.5 314z" />
    <glyph glyph-name="Ucircumflex" unicode="&#xdb;" horiz-adv-x="2199" 
d="M1614 1487h-348l-166 143l-166 -143h-348l338 313h352zM1694 739v658h415v-746q0 -176 -70.5 -306t-204 -210.5t-316.5 -119t-418 -38.5t-418 39t-317 119t-204.5 210t-70.5 306v746h416v-658q0 -221 139.5 -314t454.5 -93t454.5 93t139.5 314z" />
    <glyph glyph-name="Udieresis" unicode="&#xdc;" horiz-adv-x="2199" 
d="M1001 1806v-319h-339v319h339zM1536 1806v-319h-338v319h338zM1694 739v658h415v-746q0 -176 -70.5 -306t-204 -210.5t-316.5 -119t-418 -38.5t-418 39t-317 119t-204.5 210t-70.5 306v746h416v-658q0 -221 139.5 -314t454.5 -93t454.5 93t139.5 314z" />
    <glyph glyph-name="Yacute" unicode="&#xdd;" horiz-adv-x="2316" 
d="M1229 1800h479l-379 -309h-371zM948 518l-946 879h533l626 -566l627 566h524l-948 -881v-516h-416v518z" />
    <glyph glyph-name="Thorn" unicode="&#xde;" horiz-adv-x="2146" 
d="M526 0h-415v1397h415v-201h990q134 0 237 -25.5t182.5 -82t121.5 -155t42 -235.5q0 -497 -583 -497h-990v-201zM526 862v-327h942q102 0 151.5 38t49.5 125q0 91 -48.5 127.5t-152.5 36.5h-942z" />
    <glyph glyph-name="germandbls" unicode="&#xdf;" horiz-adv-x="1974" 
d="M1257 -20q-168 -1 -346 19.5t-305 49.5l62 316q305 -60 565 -60q166 0 229.5 35.5t63.5 136.5q0 88 -50 124t-167 36h-635v285h612q101 0 145 32t44 109q0 70 -34 104t-126 49t-281 15q-305 0 -420.5 -58t-115.5 -221v-952h-387v909q0 179 63 305t188.5 200.5t295 108
t399.5 33.5q410 0 606.5 -107t196.5 -327q0 -138 -81 -217.5t-237 -109.5q182 -34 275.5 -125.5t93.5 -266.5q0 -207 -163.5 -315t-490.5 -108z" />
    <glyph glyph-name="agrave" unicode="&#xe0;" horiz-adv-x="1849" 
d="M782 1219l-395 311h477l291 -311h-373zM1753 997l-2 -2h2v-995h-340l-29 139q-370 -159 -696 -159q-618 0 -618 532q0 124 37.5 219t105 157.5t167.5 102.5t217 57t263 17q386 0 893 -68zM457 526q0 -124 69.5 -175.5t237.5 -51.5q247 0 602 102v326q-290 27 -545 27
q-185 0 -274.5 -53.5t-89.5 -174.5z" />
    <glyph glyph-name="aacute" unicode="&#xe1;" horiz-adv-x="1849" 
d="M1065 1530h477l-399 -311h-371zM1753 997l-2 -2h2v-995h-340l-29 139q-370 -159 -696 -159q-618 0 -618 532q0 124 37.5 219t105 157.5t167.5 102.5t217 57t263 17q386 0 893 -68zM457 526q0 -124 69.5 -175.5t237.5 -51.5q247 0 602 102v326q-290 27 -545 27
q-185 0 -274.5 -53.5t-89.5 -174.5z" />
    <glyph glyph-name="acircumflex" unicode="&#xe2;" horiz-adv-x="1849" 
d="M1485 1217h-348l-166 141l-166 -141h-348l338 313h352zM1753 997l-2 -2h2v-995h-340l-29 139q-370 -159 -696 -159q-618 0 -618 532q0 124 37.5 219t105 157.5t167.5 102.5t217 57t263 17q386 0 893 -68zM457 526q0 -124 69.5 -175.5t237.5 -51.5q247 0 602 102v326
q-290 27 -545 27q-185 0 -274.5 -53.5t-89.5 -174.5z" />
    <glyph glyph-name="atilde" unicode="&#xe3;" horiz-adv-x="1849" 
d="M563 1225v217q107 61 217 61q89 0 230.5 -31.5t201.5 -31.5q57 0 97.5 15t91.5 46v-223q-77 -57 -182 -57q-75 0 -223.5 32.5t-221.5 32.5q-114 0 -211 -61zM1753 997l-2 -2h2v-995h-340l-29 139q-370 -159 -696 -159q-618 0 -618 532q0 124 37.5 219t105 157.5
t167.5 102.5t217 57t263 17q386 0 893 -68zM457 526q0 -124 69.5 -175.5t237.5 -51.5q247 0 602 102v326q-290 27 -545 27q-185 0 -274.5 -53.5t-89.5 -174.5z" />
    <glyph glyph-name="adieresis" unicode="&#xe4;" horiz-adv-x="1849" 
d="M872 1522v-318h-340v318h340zM1407 1522v-318h-340v318h340zM1753 997l-2 -2h2v-995h-340l-29 139q-370 -159 -696 -159q-618 0 -618 532q0 124 37.5 219t105 157.5t167.5 102.5t217 57t263 17q386 0 893 -68zM457 526q0 -124 69.5 -175.5t237.5 -51.5q247 0 602 102v326
q-290 27 -545 27q-185 0 -274.5 -53.5t-89.5 -174.5z" />
    <glyph glyph-name="aring" unicode="&#xe5;" horiz-adv-x="1849" 
d="M969 1204q-318 0 -318 230q0 223 318 223q317 0 317 -223q0 -116 -77.5 -173t-239.5 -57zM829 1434q0 -46 29.5 -67t110.5 -21q82 0 110.5 21t28.5 67q0 41 -28.5 60t-110.5 19q-81 0 -110.5 -19t-29.5 -60zM1753 997l-2 -2h2v-995h-340l-29 139q-370 -159 -696 -159
q-618 0 -618 532q0 124 37.5 219t105 157.5t167.5 102.5t217 57t263 17q386 0 893 -68zM457 526q0 -124 69.5 -175.5t237.5 -51.5q247 0 602 102v326q-290 27 -545 27q-185 0 -274.5 -53.5t-89.5 -174.5z" />
    <glyph glyph-name="ae" unicode="&#xe6;" horiz-adv-x="3063" 
d="M2230 276q324 0 662 54l78 -279q-147 -36 -359.5 -58t-415.5 -22q-287 0 -470 52t-277 163q-161 -94 -376 -154.5t-462 -60.5q-259 0 -393.5 76.5t-134.5 241.5q0 174 163 248.5t519 74.5h569q-16 51 -65 81t-153.5 45.5t-278.5 15.5q-331 0 -625 -66l-55 311
q144 31 342 51.5t385 20.5q247 0 406 -33.5t251 -105.5q201 139 631 139q823 0 823 -469q0 -100 -10 -168h-1258q26 -94 134 -126t370 -32zM2157 813q-217 0 -313.5 -39t-119.5 -139h887q-12 65 -55 102.5t-139 56.5t-260 19zM453 328q0 -51 45.5 -68.5t169.5 -17.5
q215 0 369 36.5t319 106.5q-4 20 -4 29l-668 -4q-131 0 -181 -16t-50 -66z" />
    <glyph glyph-name="ccedilla" unicode="&#xe7;" horiz-adv-x="1738" 
d="M70 524q0 286 210 416.5t676 130.5q375 0 713 -80l-78 -309q-309 63 -692 63q-248 0 -345 -47t-97 -174q0 -128 96.5 -174.5t345.5 -46.5q378 0 692 64l78 -310q-338 -80 -713 -80q-466 0 -676 131t-210 416zM928 -84h233v-68q0 -157 -70 -221.5t-249 -64.5
q-146 0 -275 37l45 200q126 -24 203 -24q61 0 87 18.5t26 71.5v51z" />
    <glyph glyph-name="egrave" unicode="&#xe8;" 
d="M707 1219l-396 311h477l291 -311h-372zM956 276q324 0 662 54l78 -279q-145 -36 -358 -58t-416 -22q-447 0 -649.5 130t-202.5 421q0 285 207.5 417t619.5 132q823 0 823 -469q0 -100 -10 -168h-1257q26 -94 134 -126t369 -32zM883 813q-217 0 -313 -39t-119 -139h886
q-12 65 -55 102.5t-139 56.5t-260 19z" />
    <glyph glyph-name="eacute" unicode="&#xe9;" 
d="M989 1530h477l-399 -311h-371zM956 276q324 0 662 54l78 -279q-145 -36 -358 -58t-416 -22q-447 0 -649.5 130t-202.5 421q0 285 207.5 417t619.5 132q823 0 823 -469q0 -100 -10 -168h-1257q26 -94 134 -126t369 -32zM883 813q-217 0 -313 -39t-119 -139h886
q-12 65 -55 102.5t-139 56.5t-260 19z" />
    <glyph glyph-name="ecircumflex" unicode="&#xea;" 
d="M1409 1217h-348l-166 141l-166 -141h-348l338 313h352zM956 276q324 0 662 54l78 -279q-145 -36 -358 -58t-416 -22q-447 0 -649.5 130t-202.5 421q0 285 207.5 417t619.5 132q823 0 823 -469q0 -100 -10 -168h-1257q26 -94 134 -126t369 -32zM883 813q-217 0 -313 -39
t-119 -139h886q-12 65 -55 102.5t-139 56.5t-260 19z" />
    <glyph glyph-name="edieresis" unicode="&#xeb;" 
d="M797 1522v-318h-340v318h340zM1331 1522v-318h-340v318h340zM956 276q324 0 662 54l78 -279q-145 -36 -358 -58t-416 -22q-447 0 -649.5 130t-202.5 421q0 285 207.5 417t619.5 132q823 0 823 -469q0 -100 -10 -168h-1257q26 -94 134 -126t369 -32zM883 813
q-217 0 -313 -39t-119 -139h886q-12 65 -55 102.5t-139 56.5t-260 19z" />
    <glyph glyph-name="igrave" unicode="&#xec;" horiz-adv-x="591" 
d="M117 1219l-398 311h480l288 -311h-370zM111 0v1044h387v-1044h-387z" />
    <glyph glyph-name="iacute" unicode="&#xed;" horiz-adv-x="591" 
d="M397 1530h480l-400 -311h-373zM111 0v1044h387v-1044h-387z" />
    <glyph glyph-name="icircumflex" unicode="&#xee;" horiz-adv-x="591" 
d="M817 1217h-346l-166 141l-168 -141h-348l340 313h350zM111 0v1044h387v-1044h-387z" />
    <glyph glyph-name="idieresis" unicode="&#xef;" horiz-adv-x="591" 
d="M205 1522v-318h-340v318h340zM739 1522v-318h-338v318h338zM111 0v1044h387v-1044h-387z" />
    <glyph glyph-name="eth" unicode="&#xf0;" horiz-adv-x="1955" 
d="M899 1108h-354l428 184q-234 113 -578 205h670q113 -27 215 -72l195 84h352l-385 -166q92 -56 167.5 -123t137.5 -151.5t96.5 -189.5t34.5 -220q0 -223 -116.5 -376.5t-328.5 -228t-509 -74.5q-166 0 -296.5 17.5t-236.5 57t-176 101.5t-107.5 153.5t-37.5 210.5
q0 114 34.5 201.5t96 146t152.5 95.5t197.5 53t237.5 16q345 0 648 -119q-89 158 -308 295zM926 283q274 0 411 80.5t156 259.5q-154 50 -336 83t-346 33q-180 0 -267 -54t-87 -165q0 -124 106.5 -180.5t362.5 -56.5z" />
    <glyph glyph-name="ntilde" unicode="&#xf1;" horiz-adv-x="1859" 
d="M582 1225v217q103 61 215 61q89 0 231.5 -31.5t202.5 -31.5q57 0 96.5 14.5t91.5 46.5v-223q-81 -57 -182 -57q-75 0 -223 32.5t-221 32.5q-114 0 -211 -61zM111 0v1044h340l22 -124q383 151 719 151q290 0 437 -118t147 -373v-580h-387v514q0 236 -322 236
q-227 0 -569 -93v-657h-387z" />
    <glyph glyph-name="ograve" unicode="&#xf2;" horiz-adv-x="1970" 
d="M801 1219l-398 311h480l288 -311h-370zM70 524q0 284 224.5 417.5t690.5 133.5q465 0 690.5 -133.5t225.5 -417.5t-225.5 -417.5t-690.5 -133.5q-466 0 -690.5 133.5t-224.5 417.5zM457 524q0 -84 45 -131t159.5 -70.5t323.5 -23.5t323.5 23.5t159.5 70.5t45 131
t-45 131.5t-159.5 71t-323.5 23.5t-323.5 -23.5t-159.5 -71t-45 -131.5z" />
    <glyph glyph-name="oacute" unicode="&#xf3;" horiz-adv-x="1970" 
d="M1081 1530h480l-402 -311h-371zM70 524q0 284 224.5 417.5t690.5 133.5q465 0 690.5 -133.5t225.5 -417.5t-225.5 -417.5t-690.5 -133.5q-466 0 -690.5 133.5t-224.5 417.5zM457 524q0 -84 45 -131t159.5 -70.5t323.5 -23.5t323.5 23.5t159.5 70.5t45 131t-45 131.5
t-159.5 71t-323.5 23.5t-323.5 -23.5t-159.5 -71t-45 -131.5z" />
    <glyph glyph-name="ocircumflex" unicode="&#xf4;" horiz-adv-x="1970" 
d="M1501 1217h-348l-166 141l-166 -141h-348l340 313h350zM70 524q0 284 224.5 417.5t690.5 133.5q465 0 690.5 -133.5t225.5 -417.5t-225.5 -417.5t-690.5 -133.5q-466 0 -690.5 133.5t-224.5 417.5zM457 524q0 -84 45 -131t159.5 -70.5t323.5 -23.5t323.5 23.5t159.5 70.5
t45 131t-45 131.5t-159.5 71t-323.5 23.5t-323.5 -23.5t-159.5 -71t-45 -131.5z" />
    <glyph glyph-name="otilde" unicode="&#xf5;" horiz-adv-x="1970" 
d="M578 1221v215q106 63 217 63q88 0 230 -32.5t202 -32.5q39 0 75 9.5t55.5 19.5t57.5 32v-223q-82 -58 -182 -58q-75 0 -223.5 34t-221.5 34q-107 0 -210 -61zM70 524q0 284 224.5 417.5t690.5 133.5q465 0 690.5 -133.5t225.5 -417.5t-225.5 -417.5t-690.5 -133.5
q-466 0 -690.5 133.5t-224.5 417.5zM457 524q0 -84 45 -131t159.5 -70.5t323.5 -23.5t323.5 23.5t159.5 70.5t45 131t-45 131.5t-159.5 71t-323.5 23.5t-323.5 -23.5t-159.5 -71t-45 -131.5z" />
    <glyph glyph-name="odieresis" unicode="&#xf6;" horiz-adv-x="1970" 
d="M889 1522v-318h-340v318h340zM1423 1522v-318h-338v318h338zM70 524q0 284 224.5 417.5t690.5 133.5q465 0 690.5 -133.5t225.5 -417.5t-225.5 -417.5t-690.5 -133.5q-466 0 -690.5 133.5t-224.5 417.5zM457 524q0 -84 45 -131t159.5 -70.5t323.5 -23.5t323.5 23.5
t159.5 70.5t45 131t-45 131.5t-159.5 71t-323.5 23.5t-323.5 -23.5t-159.5 -71t-45 -131.5z" />
    <glyph glyph-name="divide" unicode="&#xf7;" horiz-adv-x="1458" 
d="M924 1382v-409h-402v409h402zM1382 528h-1306v297h1306v-297zM924 379v-410h-402v410h402z" />
    <glyph glyph-name="oslash" unicode="&#xf8;" horiz-adv-x="1980" 
d="M70 524q0 284 224.5 417.5t690.5 133.5q261 0 436 -39l101 86h342l-201 -174q238 -134 238 -424q0 -284 -225.5 -417.5t-690.5 -133.5q-250 0 -414 35l-98 -86h-344l195 168q-254 134 -254 434zM457 524q0 -74 34 -119.5t117 -70.5l479 414q-33 2 -102 2
q-209 0 -323.5 -23.5t-159.5 -71t-45 -131.5zM1513 524q0 69 -30 113.5t-101 69.5l-471 -408h74q209 0 323.5 23.5t159.5 70.5t45 131z" />
    <glyph glyph-name="ugrave" unicode="&#xf9;" horiz-adv-x="1851" 
d="M795 1219l-398 311h480l288 -311h-370zM86 463v581h385v-516q0 -235 330 -235q224 0 569 96v655h385v-1044h-338l-22 125q-394 -154 -721 -154q-291 0 -439.5 118.5t-148.5 373.5z" />
    <glyph glyph-name="uacute" unicode="&#xfa;" horiz-adv-x="1851" 
d="M1075 1530h479l-399 -311h-373zM86 463v581h385v-516q0 -235 330 -235q224 0 569 96v655h385v-1044h-338l-22 125q-394 -154 -721 -154q-291 0 -439.5 118.5t-148.5 373.5z" />
    <glyph glyph-name="ucircumflex" unicode="&#xfb;" horiz-adv-x="1851" 
d="M1497 1217h-348l-166 141l-168 -141h-346l338 313h350zM86 463v581h385v-516q0 -235 330 -235q224 0 569 96v655h385v-1044h-338l-22 125q-394 -154 -721 -154q-291 0 -439.5 118.5t-148.5 373.5z" />
    <glyph glyph-name="udieresis" unicode="&#xfc;" horiz-adv-x="1851" 
d="M883 1522v-318h-338v318h338zM1417 1522v-318h-338v318h338zM86 463v581h385v-516q0 -235 330 -235q224 0 569 96v655h385v-1044h-338l-22 125q-394 -154 -721 -154q-291 0 -439.5 118.5t-148.5 373.5z" />
    <glyph glyph-name="yacute" unicode="&#xfd;" horiz-adv-x="1886" 
d="M1057 1530h479l-399 -311h-371zM86 610v434h385v-374q0 -89 33 -138.5t114 -73.5t226 -24q260 0 553 55v555h387v-813q0 -178 -50 -299t-157.5 -194.5t-264 -105t-382.5 -31.5q-195 0 -401.5 26.5t-364.5 69.5l67 295q377 -92 725 -92q265 0 368 70.5t91 242.5l-4 10
q-366 -106 -659 -106q-244 0 -390 52.5t-211 159t-65 281.5z" />
    <glyph glyph-name="thorn" unicode="&#xfe;" horiz-adv-x="1863" 
d="M498 -379h-387v1915h387v-625q365 154 678 154q146 0 257.5 -29.5t193.5 -92.5t124.5 -166.5t42.5 -246.5q0 -149 -52 -256.5t-152.5 -171t-234 -93t-308.5 -29.5q-239 0 -549 51v-410zM1104 745q-238 0 -606 -102v-317q346 -35 567 -35q176 0 259 54.5t83 178.5
q0 119 -68.5 170t-234.5 51z" />
    <glyph glyph-name="ydieresis" unicode="&#xff;" horiz-adv-x="1886" 
d="M866 1522v-318h-340v318h340zM1401 1522v-318h-340v318h340zM86 610v434h385v-374q0 -89 33 -138.5t114 -73.5t226 -24q260 0 553 55v555h387v-813q0 -178 -50 -299t-157.5 -194.5t-264 -105t-382.5 -31.5q-195 0 -401.5 26.5t-364.5 69.5l67 295q377 -92 725 -92
q265 0 368 70.5t91 242.5l-4 10q-366 -106 -659 -106q-244 0 -390 52.5t-211 159t-65 281.5z" />
    <glyph glyph-name="Amacron" unicode="&#x100;" horiz-adv-x="2326" 
d="M1577 1528h-840v237h840v-237zM1845 0l-168 270h-1032l-170 -270h-500l912 1397h553l909 -1397h-504zM825 559h670l-334 537z" />
    <glyph glyph-name="amacron" unicode="&#x101;" horiz-adv-x="1849" 
d="M1753 997l-2 -2h2v-995h-340l-29 139q-370 -159 -696 -159q-618 0 -618 532q0 132 42 231t122 163t187 100.5t247 50.5v35h841v-64q92 -10 244 -31zM457 526q0 -124 69.5 -175.5t237.5 -51.5q247 0 602 102v326q-290 27 -545 27q-185 0 -274.5 -53.5t-89.5 -174.5z" />
    <glyph glyph-name="Abreve" unicode="&#x102;" horiz-adv-x="2326" 
d="M1315 1815h284q0 -163 -108 -245.5t-338 -82.5q-231 0 -339.5 82.5t-108.5 245.5h284q0 -72 36 -103t128 -31t127 31t35 103zM1845 0l-168 270h-1032l-170 -270h-500l912 1397h553l909 -1397h-504zM825 559h670l-334 537z" />
    <glyph glyph-name="abreve" unicode="&#x103;" horiz-adv-x="1849" 
d="M1133 1526h284q0 -163 -108 -245.5t-340 -82.5q-231 0 -340 82.5t-109 245.5h285q0 -72 36.5 -102.5t127.5 -30.5q92 0 128 30.5t36 102.5zM1753 997l-2 -2h2v-995h-340l-29 139q-370 -159 -696 -159q-618 0 -618 532q0 124 37.5 219t105 157.5t167.5 102.5t217 57
t263 17q386 0 893 -68zM457 526q0 -124 69.5 -175.5t237.5 -51.5q247 0 602 102v326q-290 27 -545 27q-185 0 -274.5 -53.5t-89.5 -174.5z" />
    <glyph glyph-name="Aogonek" unicode="&#x104;" horiz-adv-x="2326" 
d="M1823 0h22l-168 270h-1032l-170 -270h-500l912 1397h553l909 -1397h-321q-95 -45 -166.5 -97.5t-71.5 -95.5t59 -43q88 0 215 54l58 -178q-164 -80 -320 -80q-237 0 -237 170q0 79 78 157t180 113zM825 559h670l-334 537z" />
    <glyph glyph-name="aogonek" unicode="&#x105;" horiz-adv-x="1849" 
d="M1753 997l-2 -2h2v-995h-6q-94 -44 -165 -97t-71 -96t58 -43q88 0 215 54l57 -178q-164 -80 -319 -80q-238 0 -238 170q0 78 79.5 157t176.5 113h-127l-29 139q-370 -159 -696 -159q-618 0 -618 532q0 124 37.5 219t105 157.5t167.5 102.5t217 57t263 17q386 0 893 -68z
M457 526q0 -124 69.5 -175.5t237.5 -51.5q247 0 602 102v326q-290 27 -545 27q-185 0 -274.5 -53.5t-89.5 -174.5z" />
    <glyph glyph-name="Cacute" unicode="&#x106;" horiz-adv-x="2154" 
d="M1251 1800h480l-377 -309h-373zM485 696q0 -79 17.5 -135.5t60.5 -102t117.5 -72.5t187 -41.5t269.5 -14.5q364 0 895 104l73 -346q-497 -115 -983 -115q-284 0 -487 46.5t-327 140t-181 225t-57 311.5t57 311.5t181 224.5t326.5 139t487.5 46q491 0 983 -114l-73 -347
q-536 105 -895 105q-157 0 -269.5 -14.5t-187 -41.5t-117.5 -73t-60.5 -102t-17.5 -134z" />
    <glyph glyph-name="cacute" unicode="&#x107;" horiz-adv-x="1738" 
d="M1032 1530h477l-399 -311h-371zM70 524q0 286 210 416.5t676 130.5q375 0 713 -80l-78 -309q-309 63 -692 63q-248 0 -345 -47t-97 -174q0 -128 96.5 -174.5t345.5 -46.5q378 0 692 64l78 -310q-338 -80 -713 -80q-466 0 -676 131t-210 416z" />
    <glyph glyph-name="Ccircumflex" unicode="&#x108;" horiz-adv-x="2154" 
d="M1698 1491h-348l-166 141l-166 -141h-348l340 313h350zM485 696q0 -79 17.5 -135.5t60.5 -102t117.5 -72.5t187 -41.5t269.5 -14.5q364 0 895 104l73 -346q-497 -115 -983 -115q-284 0 -487 46.5t-327 140t-181 225t-57 311.5t57 311.5t181 224.5t326.5 139t487.5 46
q491 0 983 -114l-73 -347q-536 105 -895 105q-157 0 -269.5 -14.5t-187 -41.5t-117.5 -73t-60.5 -102t-17.5 -134z" />
    <glyph glyph-name="ccircumflex" unicode="&#x109;" horiz-adv-x="1738" 
d="M1427 1217h-348l-166 141l-165 -141h-349l340 313h351zM70 524q0 287 209.5 417t676.5 130q375 0 713 -80l-78 -309q-309 63 -694 63q-247 0 -344.5 -47t-97.5 -174q0 -128 97 -174.5t345 -46.5q380 0 694 64l78 -310q-338 -80 -713 -80q-467 0 -676.5 130.5
t-209.5 416.5z" />
    <glyph glyph-name="Cdotaccent" unicode="&#x10a;" horiz-adv-x="2154" 
d="M1378 1825v-320h-387v320h387zM485 696q0 -79 17.5 -135.5t60.5 -102t117.5 -72.5t187 -41.5t269.5 -14.5q364 0 895 104l73 -346q-497 -115 -983 -115q-284 0 -487 46.5t-327 140t-181 225t-57 311.5t57 311.5t181 224.5t326.5 139t487.5 46q491 0 983 -114l-73 -347
q-536 105 -895 105q-157 0 -269.5 -14.5t-187 -41.5t-117.5 -73t-60.5 -102t-17.5 -134z" />
    <glyph glyph-name="cdotaccent" unicode="&#x10b;" horiz-adv-x="1738" 
d="M1130 1509v-319h-385v319h385zM70 524q0 286 210 416.5t676 130.5q375 0 713 -80l-78 -309q-309 63 -692 63q-248 0 -345 -47t-97 -174q0 -128 96.5 -174.5t345.5 -46.5q378 0 692 64l78 -310q-338 -80 -713 -80q-466 0 -676 131t-210 416z" />
    <glyph glyph-name="Ccaron" unicode="&#x10c;" horiz-adv-x="2154" 
d="M1700 1804l-338 -313h-350l-340 313h348l166 -143l166 143h348zM485 696q0 -79 17.5 -135.5t60.5 -102t117.5 -72.5t187 -41.5t269.5 -14.5q364 0 895 104l73 -346q-497 -115 -983 -115q-284 0 -487 46.5t-327 140t-181 225t-57 311.5t57 311.5t181 224.5t326.5 139
t487.5 46q491 0 983 -114l-73 -347q-536 105 -895 105q-157 0 -269.5 -14.5t-187 -41.5t-117.5 -73t-60.5 -102t-17.5 -134z" />
    <glyph glyph-name="ccaron" unicode="&#x10d;" horiz-adv-x="1738" 
d="M1454 1530l-340 -313h-350l-338 313h348l166 -144l166 144h348zM70 524q0 286 210 416.5t676 130.5q375 0 713 -80l-78 -309q-309 63 -692 63q-248 0 -345 -47t-97 -174q0 -128 96.5 -174.5t345.5 -46.5q378 0 692 64l78 -310q-338 -80 -713 -80q-466 0 -676 131
t-210 416z" />
    <glyph glyph-name="Dcaron" unicode="&#x10e;" horiz-adv-x="2340" 
d="M1686 1804l-338 -313h-353l-338 313h349l165 -143l166 143h349zM1470 0h-1359v1397h1359q188 0 329.5 -35t250 -114t165 -216.5t56.5 -331.5q0 -116 -19.5 -211t-55.5 -167t-90.5 -127t-120 -92t-148.5 -60t-172 -33t-195 -10zM526 1040v-684h906q113 0 186.5 15
t125.5 53.5t74.5 105t22.5 170.5q0 102 -22.5 168t-74.5 104t-125.5 53t-186.5 15h-906z" />
    <glyph glyph-name="dcaron" unicode="&#x10f;" horiz-adv-x="1863" 
d="M1366 1536h387v-1536h-340l-27 143q-369 -163 -669 -163q-156 0 -272 28t-202 89.5t-129.5 165t-43.5 249.5q0 122 36 216.5t101 157.5t161 103.5t209.5 58t253.5 17.5q264 0 535 -51v522zM2003 1165v29h-148v342h338v-379q0 -102 -62 -157.5t-187 -55.5q-62 0 -117 12
l22 162q46 -6 80 -6q44 0 59 10.5t15 42.5zM457 518q0 -119 73.5 -169t247.5 -50q246 0 588 98v322q-338 35 -559 35q-177 0 -263.5 -56t-86.5 -180z" />
    <glyph glyph-name="Dcroat" unicode="&#x110;" horiz-adv-x="2410" 
d="M180 578h-160v239h160v580h1362q149 0 267.5 -21.5t220 -71.5t169 -129.5t105 -199t37.5 -275.5q0 -161 -38 -282.5t-105.5 -200.5t-169.5 -128t-219.5 -69t-266.5 -20h-1362v578zM596 592v-236h905q114 0 187.5 15t125.5 53.5t74.5 105t22.5 170.5q0 102 -22.5 168
t-74.5 104t-125.5 53t-187.5 15h-905v-237h524v-211h-524z" />
    <glyph glyph-name="dcroat" unicode="&#x111;" horiz-adv-x="1955" 
d="M1366 1536h387v-137h182v-201h-182v-1198h-340l-27 143q-369 -163 -669 -163q-156 0 -272 28t-202 89.5t-129.5 165t-43.5 249.5q0 122 36 216.5t101 157.5t161 103.5t209.5 58t253.5 17.5q264 0 535 -51v184h-473v201h473v137zM457 518q0 -119 73.5 -169t247.5 -50
q246 0 588 98v322q-338 35 -559 35q-177 0 -263.5 -56t-86.5 -180z" />
    <glyph glyph-name="Emacron" unicode="&#x112;" horiz-adv-x="2064" 
d="M1554 1532h-839v235h839v-235zM1974 0h-1863v1397h1863v-326h-1448v-231h1409v-269h-1409v-245h1448v-326z" />
    <glyph glyph-name="emacron" unicode="&#x113;" 
d="M1317 1260h-842v235h842v-235zM956 276q324 0 662 54l78 -279q-145 -36 -358 -58t-416 -22q-447 0 -649.5 130t-202.5 421q0 285 207.5 417t619.5 132q823 0 823 -469q0 -100 -10 -168h-1257q26 -94 134 -126t369 -32zM883 813q-217 0 -313 -39t-119 -139h886
q-12 65 -55 102.5t-139 56.5t-260 19z" />
    <glyph glyph-name="Ebreve" unicode="&#x114;" horiz-adv-x="2064" 
d="M1292 1817h285q0 -162 -108.5 -245t-338.5 -83q-448 0 -448 328h285q0 -72 35.5 -103t127.5 -31t127 31t35 103zM1974 0h-1863v1397h1863v-326h-1448v-231h1409v-269h-1409v-245h1448v-326z" />
    <glyph glyph-name="ebreve" unicode="&#x115;" 
d="M1057 1526h282q0 -163 -107 -245.5t-339 -82.5q-231 0 -340 82.5t-109 245.5h285q0 -72 36 -102.5t128 -30.5t128 30.5t36 102.5zM956 276q324 0 662 54l78 -279q-145 -36 -358 -58t-416 -22q-447 0 -649.5 130t-202.5 421q0 285 207.5 417t619.5 132q823 0 823 -469
q0 -100 -10 -168h-1257q26 -94 134 -126t369 -32zM883 813q-217 0 -313 -39t-119 -139h886q-12 65 -55 102.5t-139 56.5t-260 19z" />
    <glyph glyph-name="Edotaccent" unicode="&#x116;" horiz-adv-x="2064" 
d="M1325 1825v-320h-385v320h385zM1974 0h-1863v1397h1863v-326h-1448v-231h1409v-269h-1409v-245h1448v-326z" />
    <glyph glyph-name="edotaccent" unicode="&#x117;" 
d="M1087 1509v-319h-385v319h385zM956 276q324 0 662 54l78 -279q-145 -36 -358 -58t-416 -22q-447 0 -649.5 130t-202.5 421q0 285 207.5 417t619.5 132q823 0 823 -469q0 -100 -10 -168h-1257q26 -94 134 -126t369 -32zM883 813q-217 0 -313 -39t-119 -139h886
q-12 65 -55 102.5t-139 56.5t-260 19z" />
    <glyph glyph-name="Eogonek" unicode="&#x118;" horiz-adv-x="2064" 
d="M1769 0h-1658v1397h1863v-326h-1448v-231h1409v-269h-1409v-245h1448v-326q-94 -44 -165.5 -97t-71.5 -96t59 -43q88 0 215 54l55 -178q-160 -80 -319 -80q-236 0 -236 170q0 79 78 157t180 113z" />
    <glyph glyph-name="eogonek" unicode="&#x119;" 
d="M956 276q324 0 662 54l78 -279q-106 -28 -312 -53q-94 -44 -163.5 -96t-69.5 -95t59 -43q88 0 215 54l56 -178q-160 -80 -320 -80q-235 0 -235 170q0 66 59 135t145 112q-108 -6 -208 -6q-447 0 -649.5 130t-202.5 421q0 285 207.5 417t619.5 132q823 0 823 -469
q0 -100 -10 -168h-1257q26 -94 134 -126t369 -32zM883 813q-217 0 -313 -39t-119 -139h886q-12 65 -55 102.5t-139 56.5t-260 19z" />
    <glyph glyph-name="Ecaron" unicode="&#x11a;" horiz-adv-x="2064" 
d="M1649 1804l-340 -313h-351l-337 313h348l166 -143l165 143h349zM1974 0h-1863v1397h1863v-326h-1448v-231h1409v-269h-1409v-245h1448v-326z" />
    <glyph glyph-name="ecaron" unicode="&#x11b;" 
d="M1411 1530l-340 -313h-350l-338 313h348l166 -144l166 144h348zM956 276q324 0 662 54l78 -279q-145 -36 -358 -58t-416 -22q-447 0 -649.5 130t-202.5 421q0 285 207.5 417t619.5 132q823 0 823 -469q0 -100 -10 -168h-1257q26 -94 134 -126t369 -32zM883 813
q-217 0 -313 -39t-119 -139h886q-12 65 -55 102.5t-139 56.5t-260 19z" />
    <glyph glyph-name="Gcircumflex" unicode="&#x11c;" horiz-adv-x="2201" 
d="M1716 1491h-348l-166 141l-166 -141h-348l340 313h350zM70 696q0 180 60 311.5t190.5 224.5t343 139t510.5 46q460 0 937 -114l-75 -347q-541 105 -893 105q-159 0 -272 -14t-188.5 -41.5t-119 -73t-61 -101.5t-17.5 -135q0 -78 17.5 -134t61 -101.5t119 -72.5
t188.5 -41.5t272 -14.5q198 0 538 43v340h430v-625q-481 -115 -937 -115q-298 0 -510.5 46t-343 139t-190.5 224.5t-60 311.5z" />
    <glyph glyph-name="gcircumflex" unicode="&#x11d;" horiz-adv-x="1853" 
d="M1450 1210h-348l-166 142l-166 -142h-348l340 314h350zM1767 995v-809q0 -308 -215.5 -446.5t-681.5 -138.5q-406 0 -737 96l80 287q344 -84 682 -84q148 0 249 18.5t157.5 56.5t79 89t18.5 124q-328 -106 -664 -106q-332 0 -498.5 113t-166.5 368q0 140 55 238.5
t163 155.5t251 82.5t335 25.5q386 0 893 -68l-2 -2h2zM457 563q0 -98 70.5 -141t236.5 -43q316 0 616 61v287q-339 27 -559 27q-186 0 -275 -44.5t-89 -146.5z" />
    <glyph glyph-name="Gbreve" unicode="&#x11e;" horiz-adv-x="2201" 
d="M1362 1817h285q0 -162 -108 -245t-339 -83q-448 0 -448 328h284q0 -72 36 -103t128 -31t127 31t35 103zM70 696q0 180 60 311.5t190.5 224.5t343 139t510.5 46q460 0 937 -114l-75 -347q-541 105 -893 105q-159 0 -272 -14t-188.5 -41.5t-119 -73t-61 -101.5t-17.5 -135
q0 -78 17.5 -134t61 -101.5t119 -72.5t188.5 -41.5t272 -14.5q198 0 538 43v340h430v-625q-481 -115 -937 -115q-298 0 -510.5 46t-343 139t-190.5 224.5t-60 311.5z" />
    <glyph glyph-name="gbreve" unicode="&#x11f;" horiz-adv-x="1853" 
d="M1098 1520h282q0 -162 -107.5 -245t-338.5 -83q-449 0 -449 328h285q0 -72 36 -103t128 -31t128 31t36 103zM1767 995v-809q0 -308 -215.5 -446.5t-681.5 -138.5q-406 0 -737 96l80 287q344 -84 682 -84q148 0 249 18.5t157.5 56.5t79 89t18.5 124q-328 -106 -664 -106
q-332 0 -498.5 113t-166.5 368q0 140 55 238.5t163 155.5t251 82.5t335 25.5q386 0 893 -68l-2 -2h2zM457 563q0 -98 70.5 -141t236.5 -43q316 0 616 61v287q-339 27 -559 27q-186 0 -275 -44.5t-89 -146.5z" />
    <glyph glyph-name="Gdotaccent" unicode="&#x120;" horiz-adv-x="2201" 
d="M1397 1825v-320h-387v320h387zM70 696q0 180 60 311.5t190.5 224.5t343 139t510.5 46q460 0 937 -114l-75 -347q-541 105 -893 105q-159 0 -272 -14t-188.5 -41.5t-119 -73t-61 -101.5t-17.5 -135q0 -78 17.5 -134t61 -101.5t119 -72.5t188.5 -41.5t272 -14.5
q198 0 538 43v340h430v-625q-481 -115 -937 -115q-298 0 -510.5 46t-343 139t-190.5 224.5t-60 311.5z" />
    <glyph glyph-name="gdotaccent" unicode="&#x121;" horiz-adv-x="1853" 
d="M1130 1503v-319h-387v319h387zM1767 995v-809q0 -308 -215.5 -446.5t-681.5 -138.5q-406 0 -737 96l80 287q344 -84 682 -84q148 0 249 18.5t157.5 56.5t79 89t18.5 124q-328 -106 -664 -106q-332 0 -498.5 113t-166.5 368q0 140 55 238.5t163 155.5t251 82.5t335 25.5
q386 0 893 -68l-2 -2h2zM457 563q0 -98 70.5 -141t236.5 -43q316 0 616 61v287q-339 27 -559 27q-186 0 -275 -44.5t-89 -146.5z" />
    <glyph glyph-name="Gcommaaccent" unicode="&#x122;" horiz-adv-x="2201" 
d="M70 696q0 180 60 311.5t190.5 224.5t343 139t510.5 46q460 0 937 -114l-75 -347q-541 105 -893 105q-159 0 -272 -14t-188.5 -41.5t-119 -73t-61 -101.5t-17.5 -135q0 -78 17.5 -134t61 -101.5t119 -72.5t188.5 -41.5t272 -14.5q198 0 538 43v340h430v-625
q-481 -115 -937 -115q-298 0 -510.5 46t-343 139t-190.5 224.5t-60 311.5zM997 -117h389l-278 -311h-309z" />
    <glyph glyph-name="gcommaaccent" unicode="&#x123;" horiz-adv-x="1853" 
d="M1100 1219h-477l307 311h368zM1767 995v-809q0 -308 -215.5 -446.5t-681.5 -138.5q-406 0 -737 96l80 287q344 -84 682 -84q148 0 249 18.5t157.5 56.5t79 89t18.5 124q-328 -106 -664 -106q-332 0 -498.5 113t-166.5 368q0 140 55 238.5t163 155.5t251 82.5t335 25.5
q386 0 893 -68l-2 -2h2zM457 563q0 -98 70.5 -141t236.5 -43q316 0 616 61v287q-339 27 -559 27q-186 0 -275 -44.5t-89 -146.5z" />
    <glyph glyph-name="Hcircumflex" unicode="&#x124;" horiz-adv-x="2260" 
d="M1645 1491h-349l-166 141l-165 -141h-349l340 313h351zM526 0h-415v1397h415v-504h1209v504h415v-1397h-415v539h-1209v-539z" />
    <glyph glyph-name="hcircumflex" unicode="&#x125;" horiz-adv-x="1859" 
d="M1135 1608h-349l-165 143l-166 -143h-349l338 313h353zM111 0v1536h387v-596q366 131 694 131q290 0 437 -118t147 -373v-580h-387v514q0 236 -322 236q-227 0 -569 -93v-657h-387z" />
    <glyph glyph-name="Hbar" unicode="&#x126;" horiz-adv-x="2390" 
d="M176 963h-151v247h151v187h416v-195h1206v195h416v-187h151v-247h-151v-963h-416v465h-1206v-465h-416v963zM592 971v-180h1206v180h-1206z" />
    <glyph glyph-name="hbar" unicode="&#x127;" horiz-adv-x="1953" 
d="M205 0v1198h-185v201h185v137h385v-137h493v-201h-493v-260q362 133 696 133q290 0 437 -118t147 -373v-580h-387v514q0 236 -324 236q-212 0 -569 -93v-657h-385z" />
    <glyph glyph-name="Itilde" unicode="&#x128;" horiz-adv-x="636" 
d="M-92 1495v215q113 64 217 64q89 0 231.5 -33t202.5 -33q39 0 74.5 10t55.5 20.5t59 33.5v-226q-81 -57 -185 -57q-75 0 -222 33.5t-220 33.5q-110 0 -213 -61zM526 0h-415v1397h415v-1397z" />
    <glyph glyph-name="itilde" unicode="&#x129;" horiz-adv-x="591" 
d="M-104 1225v217q107 61 217 61q89 0 231.5 -31.5t200.5 -31.5q57 0 96.5 14.5t93.5 46.5v-223q-81 -57 -184 -57q-75 0 -222 32.5t-220 32.5q-116 0 -213 -61zM111 0v1044h387v-1044h-387z" />
    <glyph glyph-name="Imacron" unicode="&#x12a;" horiz-adv-x="636" 
d="M741 1528h-841v237h841v-237zM526 0h-415v1397h415v-1397z" />
    <glyph glyph-name="imacron" unicode="&#x12b;" horiz-adv-x="591" 
d="M725 1260h-840v235h840v-235zM111 0v1044h387v-1044h-387z" />
    <glyph glyph-name="Ibreve" unicode="&#x12c;" horiz-adv-x="636" 
d="M479 1815h283q0 -163 -107.5 -245.5t-339.5 -82.5q-231 0 -339.5 82.5t-108.5 245.5h285q0 -72 36 -103t127 -31q92 0 128 31t36 103zM526 0h-415v1397h415v-1397z" />
    <glyph glyph-name="ibreve" unicode="&#x12d;" horiz-adv-x="591" 
d="M465 1526h285q0 -163 -108 -245.5t-339 -82.5t-339.5 82.5t-108.5 245.5h284q0 -72 36 -102.5t128 -30.5t127 30.5t35 102.5zM111 0v1044h387v-1044h-387z" />
    <glyph glyph-name="Iogonek" unicode="&#x12e;" horiz-adv-x="636" 
d="M322 0h-211v1397h415v-1397q-94 -44 -165.5 -97t-71.5 -96t59 -43q88 0 215 54l58 -178q-164 -80 -322 -80q-236 0 -236 170q0 79 78.5 156.5t180.5 113.5z" />
    <glyph glyph-name="iogonek" unicode="&#x12f;" horiz-adv-x="608" 
d="M498 1497v-319h-387v319h387zM111 0v1044h387v-1044q-94 -44 -165 -97t-71 -96t60 -43q86 0 213 54l57 -178q-164 -80 -320 -80q-235 0 -235 170q0 78 79 157t177 113h-182z" />
    <glyph glyph-name="Idotaccent" unicode="&#x130;" horiz-adv-x="636" 
d="M512 1821v-318h-387v318h387zM526 0h-415v1397h415v-1397z" />
    <glyph glyph-name="dotlessi" unicode="&#x131;" horiz-adv-x="591" 
d="M111 0v1044h387v-1044h-387z" />
    <glyph glyph-name="IJ" unicode="&#x132;" horiz-adv-x="1646" 
d="M680 326q115 0 196 12t133 34t81.5 60t41 83t11.5 110v772h416v-774q0 -125 -26 -222.5t-88 -180t-160.5 -137t-247 -84.5t-343.5 -30q-321 0 -563 80l92 338q98 -29 223.5 -45t233.5 -16zM526 567h-415v813h415v-813z" />
    <glyph glyph-name="ij" unicode="&#x133;" horiz-adv-x="1294" 
d="M498 1497v-319h-387v319h387zM1110 1497v-319h-385v319h385zM111 0v1044h387v-1044h-387zM928 -373h-402q199 281 199 576v841h385v-843q0 -335 -182 -574z" />
    <glyph glyph-name="Jcircumflex" unicode="&#x134;" horiz-adv-x="1531" 
d="M1743 1487h-348l-166 143l-166 -143h-348l340 313h350zM565 326q115 0 196 12t132.5 34t81 60t40.5 83t11 110v772h416v-774q0 -124 -26 -222t-88 -180.5t-160 -137t-245.5 -84.5t-342.5 -30q-321 0 -566 80l95 338q98 -29 223 -45t233 -16z" />
    <glyph glyph-name="jcircumflex" unicode="&#x135;" horiz-adv-x="622" 
d="M848 1217h-348l-166 141l-166 -141h-348l338 313h350zM313 -373h-401q199 272 199 576v841h387v-843q0 -331 -185 -574z" />
    <glyph glyph-name="Kcommaaccent" unicode="&#x136;" horiz-adv-x="2230" 
d="M526 0h-415v1397h415v-699l246 199l756 500h571l-842 -592l883 -805h-551l-655 598l-408 -268v-330zM922 -117h387l-277 -311h-311z" />
    <glyph glyph-name="kcommaaccent" unicode="&#x137;" horiz-adv-x="1769" 
d="M498 1536v-827h301l467 335h516l-658 -493l684 -551h-520l-495 393h-295v-393h-387v1536h387zM715 -117h387l-277 -311h-309z" />
    <glyph glyph-name="Lacute" unicode="&#x139;" horiz-adv-x="1953" 
d="M391 1798h479l-378 -311h-371zM526 356h1387v-356h-1802v1397h415v-1041z" />
    <glyph glyph-name="lacute" unicode="&#x13a;" horiz-adv-x="608" 
d="M371 1913h479l-379 -311h-371zM498 1536v-1536h-387v1536h387z" />
    <glyph glyph-name="Lcommaaccent" unicode="&#x13b;" horiz-adv-x="1953" 
d="M526 356h1387v-356h-1802v1397h415v-1041zM860 -117h387l-276 -311h-309z" />
    <glyph glyph-name="lcommaaccent" unicode="&#x13c;" horiz-adv-x="608" 
d="M498 1536v-1536h-387v1536h387zM84 -117h387l-276 -311h-310z" />
    <glyph glyph-name="Lcaron" unicode="&#x13d;" horiz-adv-x="1953" 
d="M526 356h1387v-356h-1802v1397h415v-1041zM1055 1026v29h-150v342h338v-379q0 -102 -61.5 -157.5t-186.5 -55.5q-63 0 -118 12l24 162q47 -6 80 -6q44 0 59 10.5t15 42.5z" />
    <glyph glyph-name="lcaron" unicode="&#x13e;" horiz-adv-x="608" 
d="M498 1536v-1536h-387v1536h387zM745 1165v29h-149v342h338v-379q0 -102 -61.5 -157.5t-186.5 -55.5q-64 0 -119 12l25 162q47 -6 80 -6q44 0 58.5 10.5t14.5 42.5z" />
    <glyph glyph-name="Ldot" unicode="&#x13f;" horiz-adv-x="1953" 
d="M526 356h1387v-356h-1802v1397h415v-1041zM1372 1063v-410h-401v410h401z" />
    <glyph glyph-name="ldot" unicode="&#x140;" horiz-adv-x="974" 
d="M498 1536v-1536h-387v1536h387zM985 879v-320h-387v320h387z" />
    <glyph glyph-name="Lslash" unicode="&#x141;" horiz-adv-x="2072" 
d="M20 596l209 82v719h416v-553l651 258v-232l-651 -258v-256h1387v-356h-1803v446l-209 -81v231z" />
    <glyph glyph-name="lslash" unicode="&#x142;" horiz-adv-x="720" 
d="M168 530l-148 -63v242l148 63v764h387v-608l145 61v-241l-145 -62v-686h-387v530z" />
    <glyph glyph-name="Nacute" unicode="&#x143;" horiz-adv-x="2312" 
d="M1286 1800h477l-377 -309h-370zM526 0h-415v1397h475l1200 -944v944h416v-1397h-465l-1211 961v-961z" />
    <glyph glyph-name="nacute" unicode="&#x144;" horiz-adv-x="1859" 
d="M1081 1530h480l-400 -311h-370zM111 0v1044h340l22 -124q383 151 719 151q290 0 437 -118t147 -373v-580h-387v514q0 236 -322 236q-227 0 -569 -93v-657h-387z" />
    <glyph glyph-name="Ncommaaccent" unicode="&#x145;" horiz-adv-x="2312" 
d="M526 0h-415v1397h475l1200 -944v944h416v-1397h-465l-1211 961v-961zM989 -117h387l-278 -311h-310z" />
    <glyph glyph-name="ncommaaccent" unicode="&#x146;" horiz-adv-x="1859" 
d="M111 0v1044h340l22 -124q383 151 719 151q290 0 437 -118t147 -373v-580h-387v514q0 236 -322 236q-227 0 -569 -93v-657h-387zM782 -117h389l-278 -311h-309z" />
    <glyph glyph-name="Ncaron" unicode="&#x147;" horiz-adv-x="2312" 
d="M1735 1804l-340 -313h-351l-337 313h348l166 -143l165 143h349zM526 0h-415v1397h475l1200 -944v944h416v-1397h-465l-1211 961v-961z" />
    <glyph glyph-name="ncaron" unicode="&#x148;" horiz-adv-x="1859" 
d="M1505 1530l-340 -313h-350l-338 313h346l168 -144l166 144h348zM111 0v1044h340l22 -124q383 151 719 151q290 0 437 -118t147 -373v-580h-387v514q0 236 -322 236q-227 0 -569 -93v-657h-387z" />
    <glyph glyph-name="Omacron" unicode="&#x14c;" horiz-adv-x="2433" 
d="M1638 1532h-839v235h839v-235zM1217 -29q-401 0 -654 78t-373 237.5t-120 411.5t120 411.5t373 237.5t654 78q598 0 872 -175t274 -552t-274 -552t-872 -175zM1217 328q281 0 437 37t220.5 115.5t64.5 217.5t-64.5 217.5t-220.5 116t-437 37.5q-282 0 -440.5 -37.5
t-225 -116t-66.5 -217.5t66.5 -217.5t225 -115.5t440.5 -37z" />
    <glyph glyph-name="omacron" unicode="&#x14d;" horiz-adv-x="1970" 
d="M1409 1253h-840v238h840v-238zM70 524q0 284 224.5 417.5t690.5 133.5q465 0 690.5 -133.5t225.5 -417.5t-225.5 -417.5t-690.5 -133.5q-466 0 -690.5 133.5t-224.5 417.5zM457 524q0 -84 45 -131t159.5 -70.5t323.5 -23.5t323.5 23.5t159.5 70.5t45 131t-45 131.5
t-159.5 71t-323.5 23.5t-323.5 -23.5t-159.5 -71t-45 -131.5z" />
    <glyph glyph-name="Obreve" unicode="&#x14e;" horiz-adv-x="2433" 
d="M1376 1817h285q0 -162 -108.5 -245t-338.5 -83q-448 0 -448 328h285q0 -72 35.5 -103t127.5 -31t127 31t35 103zM1217 -29q-401 0 -654 78t-373 237.5t-120 411.5t120 411.5t373 237.5t654 78q598 0 872 -175t274 -552t-274 -552t-872 -175zM1217 328q281 0 437 37
t220.5 115.5t64.5 217.5t-64.5 217.5t-220.5 116t-437 37.5q-282 0 -440.5 -37.5t-225 -116t-66.5 -217.5t66.5 -217.5t225 -115.5t440.5 -37z" />
    <glyph glyph-name="obreve" unicode="&#x14f;" horiz-adv-x="1970" 
d="M1149 1526h285q0 -163 -108 -245.5t-339 -82.5t-339.5 82.5t-108.5 245.5h284q0 -72 36 -102.5t128 -30.5t127 30.5t35 102.5zM70 524q0 284 224.5 417.5t690.5 133.5q465 0 690.5 -133.5t225.5 -417.5t-225.5 -417.5t-690.5 -133.5q-466 0 -690.5 133.5t-224.5 417.5z
M457 524q0 -84 45 -131t159.5 -70.5t323.5 -23.5t323.5 23.5t159.5 70.5t45 131t-45 131.5t-159.5 71t-323.5 23.5t-323.5 -23.5t-159.5 -71t-45 -131.5z" />
    <glyph glyph-name="Ohungarumlaut" unicode="&#x150;" horiz-adv-x="2433" 
d="M975 1800h401l-315 -309h-299zM1530 1800h401l-358 -309h-299zM1217 -29q-401 0 -654 78t-373 237.5t-120 411.5t120 411.5t373 237.5t654 78q598 0 872 -175t274 -552t-274 -552t-872 -175zM1217 328q281 0 437 37t220.5 115.5t64.5 217.5t-64.5 217.5t-220.5 116
t-437 37.5q-282 0 -440.5 -37.5t-225 -116t-66.5 -217.5t66.5 -217.5t225 -115.5t440.5 -37z" />
    <glyph glyph-name="ohungarumlaut" unicode="&#x151;" horiz-adv-x="1970" 
d="M752 1530h399l-313 -311h-299zM1307 1530h401l-358 -311h-299zM70 524q0 284 224.5 417.5t690.5 133.5q465 0 690.5 -133.5t225.5 -417.5t-225.5 -417.5t-690.5 -133.5q-466 0 -690.5 133.5t-224.5 417.5zM457 524q0 -84 45 -131t159.5 -70.5t323.5 -23.5t323.5 23.5
t159.5 70.5t45 131t-45 131.5t-159.5 71t-323.5 23.5t-323.5 -23.5t-159.5 -71t-45 -131.5z" />
    <glyph glyph-name="OE" unicode="&#x152;" horiz-adv-x="3778" 
d="M70 698q0 252 120 411.5t373 237.5t654 78q234 0 428 -28h2043v-326h-1482q70 -39 106 -94t43 -137h1295v-269h-1295q-6 -172 -149 -245h1482v-326h-2043q-201 -29 -428 -29q-401 0 -654 78t-373 237.5t-120 411.5zM485 698q0 -139 66.5 -217.5t225 -115.5t440.5 -37
q281 0 437 37t220.5 115.5t64.5 217.5t-64.5 217.5t-220.5 116t-437 37.5q-282 0 -440.5 -37.5t-225 -116t-66.5 -217.5z" />
    <glyph glyph-name="oe" unicode="&#x153;" horiz-adv-x="3233" 
d="M70 524q0 284 224.5 417.5t690.5 133.5q495 0 717 -151q200 147 641 147q821 0 821 -469q0 -114 -8 -168h-1258q26 -94 134 -126t370 -32q324 0 662 54l78 -279q-146 -36 -360 -58t-417 -22q-472 0 -671 148q-226 -146 -709 -146q-466 0 -690.5 133.5t-224.5 417.5z
M2329 813q-217 0 -313.5 -39t-119.5 -139h887q-12 65 -55 102.5t-139 56.5t-260 19zM457 524q0 -84 45 -131t159.5 -70.5t323.5 -23.5t323.5 23.5t159.5 70.5t45 131t-45 131.5t-159.5 71t-323.5 23.5t-323.5 -23.5t-159.5 -71t-45 -131.5z" />
    <glyph glyph-name="Racute" unicode="&#x154;" horiz-adv-x="2164" 
d="M1077 1800h479l-378 -309h-371zM526 0h-415v1397h1398q107 0 193.5 -15.5t160.5 -51t124 -91t78 -139t28 -191.5q0 -439 -491 -479l-91 -2l111 -68l459 -360h-522l-502 406h-531v-406zM526 1040v-323h942q103 0 149 37t46 123q0 92 -45 127.5t-150 35.5h-942z" />
    <glyph glyph-name="racute" unicode="&#x155;" horiz-adv-x="1298" 
d="M803 1530h479l-399 -311h-373zM111 0v1044h340l30 -178q393 205 768 205v-348q-220 0 -395.5 -28.5t-355.5 -92.5v-602h-387z" />
    <glyph glyph-name="Rcommaaccent" unicode="&#x156;" horiz-adv-x="2164" 
d="M526 0h-415v1397h1398q107 0 193.5 -15.5t160.5 -51t124 -91t78 -139t28 -191.5q0 -439 -491 -479l-91 -2l111 -68l459 -360h-522l-502 406h-531v-406zM526 1040v-323h942q103 0 149 37t46 123q0 92 -45 127.5t-150 35.5h-942zM782 -117h389l-278 -311h-309z" />
    <glyph glyph-name="rcommaaccent" unicode="&#x157;" horiz-adv-x="1298" 
d="M111 0v1044h340l30 -178q393 205 768 205v-348q-220 0 -395.5 -28.5t-355.5 -92.5v-602h-387zM80 -117h389l-279 -311h-309z" />
    <glyph glyph-name="Rcaron" unicode="&#x158;" horiz-adv-x="2164" 
d="M1526 1804l-338 -313h-350l-340 313h348l166 -143l166 143h348zM526 0h-415v1397h1398q107 0 193.5 -15.5t160.5 -51t124 -91t78 -139t28 -191.5q0 -439 -491 -479l-91 -2l111 -68l459 -360h-522l-502 406h-531v-406zM526 1040v-323h942q103 0 149 37t46 123
q0 92 -45 127.5t-150 35.5h-942z" />
    <glyph glyph-name="rcaron" unicode="&#x159;" horiz-adv-x="1298" 
d="M1225 1530l-338 -313h-352l-338 313h348l166 -144l166 144h348zM111 0v1044h340l30 -178q393 205 768 205v-348q-220 0 -395.5 -28.5t-355.5 -92.5v-602h-387z" />
    <glyph glyph-name="Sacute" unicode="&#x15a;" horiz-adv-x="2072" 
d="M1059 1800h479l-377 -309h-373zM1995 397q0 -114 -42 -191t-144.5 -131t-274 -78t-430.5 -24q-253 0 -530.5 31.5t-473.5 79.5l60 334q542 -119 1054 -119q165 0 247.5 11t111.5 33.5t29 66.5q0 60 -34 79t-126 27l-772 45q-318 15 -455 117t-137 303q0 234 217 337
t704 103q192 0 459.5 -27.5t468.5 -70.5l-67 -313q-189 37 -447.5 61.5t-509.5 24.5q-192 0 -282 -9.5t-120 -30t-30 -65.5q0 -55 38.5 -73t141.5 -25l762 -45q301 -17 441.5 -125.5t140.5 -325.5z" />
    <glyph glyph-name="sacute" unicode="&#x15b;" horiz-adv-x="1681" 
d="M922 1530h479l-402 -311h-370zM1634 297q0 -186 -172 -256t-571 -70q-219 0 -439.5 27.5t-361.5 62.5l66 250q157 -34 372 -58t433 -24q184 0 248.5 14t64.5 56q0 43 -43.5 57.5t-171.5 22.5l-510 29q-262 13 -370.5 92t-108.5 250q0 66 22 116.5t68.5 86t109 59.5
t153.5 38t192 19.5t233 5.5q164 0 367.5 -21t353.5 -46l-58 -252q-369 67 -753 67q-101 0 -160.5 -2.5t-99.5 -10.5t-54 -21t-14 -35q0 -41 35 -54t125 -18l510 -31q136 -8 232 -29t165.5 -61.5t103 -105.5t33.5 -158z" />
    <glyph glyph-name="Scircumflex" unicode="&#x15c;" horiz-adv-x="2072" 
d="M1505 1491h-348l-166 141l-166 -141h-348l340 313h350zM1995 397q0 -114 -42 -191t-144.5 -131t-274 -78t-430.5 -24q-253 0 -530.5 31.5t-473.5 79.5l60 334q542 -119 1054 -119q165 0 247.5 11t111.5 33.5t29 66.5q0 60 -34 79t-126 27l-772 45q-318 15 -455 117
t-137 303q0 234 217 337t704 103q192 0 459.5 -27.5t468.5 -70.5l-67 -313q-189 37 -447.5 61.5t-509.5 24.5q-192 0 -282 -9.5t-120 -30t-30 -65.5q0 -55 38.5 -73t141.5 -25l762 -45q301 -17 441.5 -125.5t140.5 -325.5z" />
    <glyph glyph-name="scircumflex" unicode="&#x15d;" horiz-adv-x="1681" 
d="M1341 1217h-348l-166 141l-165 -141h-349l340 313h351zM1634 297q0 -186 -172 -256t-571 -70q-219 0 -439.5 27.5t-361.5 62.5l66 250q157 -34 372 -58t433 -24q184 0 248.5 14t64.5 56q0 43 -43.5 57.5t-171.5 22.5l-510 29q-262 13 -370.5 92t-108.5 250q0 66 22 116.5
t68.5 86t109 59.5t153.5 38t192 19.5t233 5.5q164 0 367.5 -21t353.5 -46l-58 -252q-369 67 -753 67q-101 0 -160.5 -2.5t-99.5 -10.5t-54 -21t-14 -35q0 -41 35 -54t125 -18l510 -31q136 -8 232 -29t165.5 -61.5t103 -105.5t33.5 -158z" />
    <glyph glyph-name="Scedilla" unicode="&#x15e;" horiz-adv-x="2072" 
d="M1995 397q0 -114 -42 -191t-144.5 -131t-274 -78t-430.5 -24q-253 0 -530.5 31.5t-473.5 79.5l60 334q542 -119 1054 -119q165 0 247.5 11t111.5 33.5t29 66.5q0 60 -34 79t-126 27l-772 45q-318 15 -455 117t-137 303q0 234 217 337t704 103q192 0 459.5 -27.5
t468.5 -70.5l-67 -313q-189 37 -447.5 61.5t-509.5 24.5q-192 0 -282 -9.5t-120 -30t-30 -65.5q0 -55 38.5 -73t141.5 -25l762 -45q301 -17 441.5 -125.5t140.5 -325.5zM952 -104h234v-68q0 -157 -70.5 -222t-249.5 -65q-144 0 -274 37l47 201q127 -25 203 -25q60 0 85 18.5
t25 71.5v52z" />
    <glyph glyph-name="scedilla" unicode="&#x15f;" horiz-adv-x="1681" 
d="M1634 297q0 -186 -172 -256t-571 -70q-219 0 -439.5 27.5t-361.5 62.5l66 250q157 -34 372 -58t433 -24q184 0 248.5 14t64.5 56q0 43 -43.5 57.5t-171.5 22.5l-510 29q-262 13 -370.5 92t-108.5 250q0 66 22 116.5t68.5 86t109 59.5t153.5 38t192 19.5t233 5.5
q164 0 367.5 -21t353.5 -46l-58 -252q-369 67 -753 67q-101 0 -160.5 -2.5t-99.5 -10.5t-54 -21t-14 -35q0 -41 35 -54t125 -18l510 -31q136 -8 232 -29t165.5 -61.5t103 -105.5t33.5 -158zM809 -84h235v-68q0 -157 -70.5 -221.5t-248.5 -64.5q-147 0 -276 37l47 200
q122 -24 202 -24q60 0 85.5 18.5t25.5 71.5v51z" />
    <glyph glyph-name="Scaron" unicode="&#x160;" horiz-adv-x="2072" 
d="M1507 1804l-338 -313h-350l-340 313h348l166 -143l166 143h348zM1995 397q0 -114 -42 -191t-144.5 -131t-274 -78t-430.5 -24q-253 0 -530.5 31.5t-473.5 79.5l60 334q542 -119 1054 -119q165 0 247.5 11t111.5 33.5t29 66.5q0 60 -34 79t-126 27l-772 45
q-318 15 -455 117t-137 303q0 234 217 337t704 103q192 0 459.5 -27.5t468.5 -70.5l-67 -313q-189 37 -447.5 61.5t-509.5 24.5q-192 0 -282 -9.5t-120 -30t-30 -65.5q0 -55 38.5 -73t141.5 -25l762 -45q301 -17 441.5 -125.5t140.5 -325.5z" />
    <glyph glyph-name="scaron" unicode="&#x161;" horiz-adv-x="1681" 
d="M1343 1530l-337 -313h-353l-338 313h349l165 -144l166 144h348zM1634 297q0 -186 -172 -256t-571 -70q-219 0 -439.5 27.5t-361.5 62.5l66 250q157 -34 372 -58t433 -24q184 0 248.5 14t64.5 56q0 43 -43.5 57.5t-171.5 22.5l-510 29q-262 13 -370.5 92t-108.5 250
q0 66 22 116.5t68.5 86t109 59.5t153.5 38t192 19.5t233 5.5q164 0 367.5 -21t353.5 -46l-58 -252q-369 67 -753 67q-101 0 -160.5 -2.5t-99.5 -10.5t-54 -21t-14 -35q0 -41 35 -54t125 -18l510 -31q136 -8 232 -29t165.5 -61.5t103 -105.5t33.5 -158z" />
    <glyph glyph-name="Tcedilla" unicode="&#x162;" horiz-adv-x="2158" 
d="M872 1040h-829v357h2073v-357h-828v-1040h-416v1040zM1022 -84h233v-68q0 -157 -69.5 -221.5t-247.5 -64.5q-146 0 -276 37l47 200q122 -24 202 -24q60 0 85.5 18.5t25.5 71.5v51z" />
    <glyph glyph-name="tcedilla" unicode="&#x163;" horiz-adv-x="1552" 
d="M242 492v241h-224v311h234l67 271h312v-271h815v-311h-815v-201q0 -136 67 -184.5t252 -48.5q213 0 506 59l74 -307q-324 -80 -615 -80q-343 0 -508 120.5t-165 400.5zM815 -84h234v-68q0 -157 -70.5 -221.5t-249.5 -64.5q-145 0 -274 37l45 200q126 -24 205 -24
q60 0 85 18.5t25 71.5v51z" />
    <glyph glyph-name="Tcaron" unicode="&#x164;" horiz-adv-x="2158" 
d="M1595 1804l-338 -313h-352l-338 313h348l166 -143l166 143h348zM872 1040h-829v357h2073v-357h-828v-1040h-416v1040z" />
    <glyph glyph-name="tcaron" unicode="&#x165;" horiz-adv-x="1552" 
d="M936 1378v31h-150v342h338v-381q0 -101 -61.5 -157t-185.5 -56q-54 0 -119 14l24 160q10 -1 38 -3.5t42 -2.5q43 0 58.5 11t15.5 42zM242 492v241h-224v311h234l67 271h312v-271h815v-311h-815v-201q0 -136 67 -184.5t252 -48.5q213 0 506 59l74 -307q-324 -80 -615 -80
q-343 0 -508 120.5t-165 400.5z" />
    <glyph glyph-name="Tbar" unicode="&#x166;" horiz-adv-x="2158" 
d="M872 1040h-829v357h2073v-357h-828v-323h492v-246h-492v-471h-416v471h-493v246h493v323z" />
    <glyph glyph-name="tbar" unicode="&#x167;" horiz-adv-x="1576" 
d="M1460 444h-813q9 -108 78.5 -149t239.5 -41q213 0 516 61l63 -264q-324 -80 -614 -80q-329 0 -494 109.5t-178 363.5h-225v224h223v153h-223v223h233l68 271h311v-271h815v-223h-815v-153h815v-224z" />
    <glyph glyph-name="Utilde" unicode="&#x168;" horiz-adv-x="2199" 
d="M690 1495v215q113 64 217 64q89 0 231.5 -33t200.5 -33q40 0 75.5 10t56 21t57.5 33v-226q-77 -57 -182 -57q-75 0 -222.5 33.5t-222.5 33.5q-108 0 -211 -61zM1694 739v658h415v-746q0 -176 -70.5 -306t-204 -210.5t-316.5 -119t-418 -38.5t-418 39t-317 119t-204.5 210
t-70.5 306v746h416v-658q0 -221 139.5 -314t454.5 -93t454.5 93t139.5 314z" />
    <glyph glyph-name="utilde" unicode="&#x169;" horiz-adv-x="1851" 
d="M575 1225v217q103 61 216 61q89 0 231.5 -31.5t202.5 -31.5q56 0 95 14.5t93 46.5v-223q-81 -57 -184 -57q-75 0 -222.5 32.5t-220.5 32.5q-117 0 -211 -61zM86 463v581h385v-516q0 -235 330 -235q224 0 569 96v655h385v-1044h-338l-22 125q-394 -154 -721 -154
q-291 0 -439.5 118.5t-148.5 373.5z" />
    <glyph glyph-name="Umacron" unicode="&#x16a;" horiz-adv-x="2199" 
d="M1522 1528h-840v237h840v-237zM1694 739v658h415v-746q0 -176 -70.5 -306t-204 -210.5t-316.5 -119t-418 -38.5t-418 39t-317 119t-204.5 210t-70.5 306v746h416v-658q0 -221 139.5 -314t454.5 -93t454.5 93t139.5 314z" />
    <glyph glyph-name="umacron" unicode="&#x16b;" horiz-adv-x="1851" 
d="M1403 1260h-840v235h840v-235zM86 463v581h385v-516q0 -235 330 -235q224 0 569 96v655h385v-1044h-338l-22 125q-394 -154 -721 -154q-291 0 -439.5 118.5t-148.5 373.5z" />
    <glyph glyph-name="Ubreve" unicode="&#x16c;" horiz-adv-x="2199" 
d="M1260 1815h284q0 -163 -108 -245.5t-338 -82.5q-231 0 -340 82.5t-109 245.5h285q0 -72 36 -103t128 -31t127 31t35 103zM1694 739v658h415v-746q0 -176 -70.5 -306t-204 -210.5t-316.5 -119t-418 -38.5t-418 39t-317 119t-204.5 210t-70.5 306v746h416v-658
q0 -221 139.5 -314t454.5 -93t454.5 93t139.5 314z" />
    <glyph glyph-name="ubreve" unicode="&#x16d;" horiz-adv-x="1851" 
d="M1143 1526h284q0 -163 -108 -245.5t-338 -82.5q-231 0 -340 82.5t-109 245.5h285q0 -72 36 -102.5t128 -30.5t127 30.5t35 102.5zM86 463v581h385v-516q0 -235 330 -235q224 0 569 96v655h385v-1044h-338l-22 125q-394 -154 -721 -154q-291 0 -439.5 118.5t-148.5 373.5z
" />
    <glyph glyph-name="Uring" unicode="&#x16e;" horiz-adv-x="2199" 
d="M1100 1485q-162 0 -240 57.5t-78 173.5q0 223 318 223q315 0 315 -223q0 -116 -77 -173.5t-238 -57.5zM958 1714q0 -44 30 -65t112 -21q80 0 109.5 21t29.5 65q0 43 -29.5 62.5t-109.5 19.5q-82 0 -112 -19.5t-30 -62.5zM1694 739v658h415v-746q0 -176 -70.5 -306
t-204 -210.5t-316.5 -119t-418 -38.5t-418 39t-317 119t-204.5 210t-70.5 306v746h416v-658q0 -221 139.5 -314t454.5 -93t454.5 93t139.5 314z" />
    <glyph glyph-name="uring" unicode="&#x16f;" horiz-adv-x="1851" 
d="M981 1204q-162 0 -239.5 57t-77.5 173q0 223 317 223q315 0 315 -223q0 -116 -76.5 -173t-238.5 -57zM840 1434q0 -46 29.5 -67t111.5 -21t110.5 21t28.5 67q0 41 -28.5 60t-110.5 19t-111.5 -19t-29.5 -60zM86 463v581h385v-516q0 -235 330 -235q224 0 569 96v655h385
v-1044h-338l-22 125q-394 -154 -721 -154q-291 0 -439.5 118.5t-148.5 373.5z" />
    <glyph glyph-name="Uhungarumlaut" unicode="&#x170;" horiz-adv-x="2199" 
d="M858 1798h402l-314 -311h-301zM1413 1798h402l-357 -311h-301zM1694 739v658h415v-746q0 -176 -70.5 -306t-204 -210.5t-316.5 -119t-418 -38.5t-418 39t-317 119t-204.5 210t-70.5 306v746h416v-658q0 -221 139.5 -314t454.5 -93t454.5 93t139.5 314z" />
    <glyph glyph-name="uhungarumlaut" unicode="&#x171;" horiz-adv-x="1851" 
d="M745 1530h402l-313 -311h-302zM1300 1530h402l-356 -311h-302zM86 463v581h385v-516q0 -235 330 -235q224 0 569 96v655h385v-1044h-338l-22 125q-394 -154 -721 -154q-291 0 -439.5 118.5t-148.5 373.5z" />
    <glyph glyph-name="Uogonek" unicode="&#x172;" horiz-adv-x="2199" 
d="M1694 739v658h415v-746q0 -281 -175.5 -441.5t-503.5 -209.5h2q-94 -44 -165 -97t-71 -96t59 -43q86 0 213 54l58 -178q-164 -80 -320 -80q-235 0 -235 170q0 68 59.5 137.5t145.5 112.5q-38 -3 -76 -3q-235 0 -418 39t-317 119t-204.5 210t-70.5 306v746h416v-658
q0 -221 139.5 -314t454.5 -93t454.5 93t139.5 314z" />
    <glyph glyph-name="uogonek" unicode="&#x173;" horiz-adv-x="1851" 
d="M86 463v581h385v-516q0 -235 330 -235q224 0 569 96v655h385v-1044h2q-94 -44 -165.5 -97t-71.5 -96t59 -43q88 0 215 54l57 -178q-164 -80 -319 -80q-238 0 -238 170q0 78 79.5 157t176.5 113h-133l-22 125q-394 -154 -721 -154q-291 0 -439.5 118.5t-148.5 373.5z" />
    <glyph glyph-name="Wcircumflex" unicode="&#x174;" horiz-adv-x="3368" 
d="M2198 1491h-347l-165 141l-168 -141h-349l340 313h351zM657 0l-622 1397h469l432 -1018l500 1018h495l512 -1018l422 1018h469l-622 -1397h-533l-493 993l-496 -993h-533z" />
    <glyph glyph-name="wcircumflex" unicode="&#x175;" horiz-adv-x="2793" 
d="M1894 1217h-348l-166 141l-168 -141h-346l338 313h350zM1141 1044h487l404 -729l344 729h409l-534 -1044h-447l-428 764l-428 -764h-444l-498 1044h404l335 -725z" />
    <glyph glyph-name="Ycircumflex" unicode="&#x176;" horiz-adv-x="2316" 
d="M1675 1491h-348l-166 141l-166 -141h-348l338 313h352zM948 518l-946 879h533l626 -566l627 566h524l-948 -881v-516h-416v518z" />
    <glyph glyph-name="ycircumflex" unicode="&#x177;" horiz-adv-x="1886" 
d="M1479 1217h-349l-165 141l-166 -141h-348l337 313h353zM86 610v434h385v-374q0 -89 33 -138.5t114 -73.5t226 -24q260 0 553 55v555h387v-813q0 -178 -50 -299t-157.5 -194.5t-264 -105t-382.5 -31.5q-195 0 -401.5 26.5t-364.5 69.5l67 295q377 -92 725 -92
q265 0 368 70.5t91 242.5l-4 10q-366 -106 -659 -106q-244 0 -390 52.5t-211 159t-65 281.5z" />
    <glyph glyph-name="Ydieresis" unicode="&#x178;" horiz-adv-x="2316" 
d="M1063 1808v-317h-340v317h340zM1597 1808v-317h-337v317h337zM948 518l-946 879h533l626 -566l627 566h524l-948 -881v-516h-416v518z" />
    <glyph glyph-name="Zacute" unicode="&#x179;" horiz-adv-x="2232" 
d="M1188 1800h477l-377 -309h-370zM2138 356v-356h-2042v326l924 514q117 54 301 116.5t309 96.5l-678 -29h-823v356h1999v-327l-785 -463q-134 -65 -343.5 -140.5t-376.5 -123.5l702 30h813z" />
    <glyph glyph-name="zacute" unicode="&#x17a;" horiz-adv-x="1765" 
d="M987 1530h479l-399 -311h-371zM1688 266v-266h-1610v266l518 287q253 126 651 223h-1149v268h1590v-268l-461 -262q-64 -34 -137 -65.5t-131.5 -53.5t-129.5 -45.5t-110.5 -35.5t-97 -28.5t-68.5 -19.5h1135z" />
    <glyph glyph-name="Zdotaccent" unicode="&#x17b;" horiz-adv-x="2232" 
d="M1313 1825v-320h-385v320h385zM2138 356v-356h-2042v326l924 514q117 54 301 116.5t309 96.5l-678 -29h-823v356h1999v-327l-785 -463q-134 -65 -343.5 -140.5t-376.5 -123.5l702 30h813z" />
    <glyph glyph-name="zdotaccent" unicode="&#x17c;" horiz-adv-x="1765" 
d="M1087 1509v-319h-387v319h387zM1688 266v-266h-1610v266l518 287q253 126 651 223h-1149v268h1590v-268l-461 -262q-64 -34 -137 -65.5t-131.5 -53.5t-129.5 -45.5t-110.5 -35.5t-97 -28.5t-68.5 -19.5h1135z" />
    <glyph glyph-name="Zcaron" unicode="&#x17d;" horiz-adv-x="2232" 
d="M1636 1804l-340 -313h-350l-338 313h348l166 -143l166 143h348zM2138 356v-356h-2042v326l924 514q117 54 301 116.5t309 96.5l-678 -29h-823v356h1999v-327l-785 -463q-134 -65 -343.5 -140.5t-376.5 -123.5l702 30h813z" />
    <glyph glyph-name="zcaron" unicode="&#x17e;" horiz-adv-x="1765" 
d="M1411 1530l-340 -313h-350l-338 313h346l168 -144l166 144h348zM1688 266v-266h-1610v266l518 287q253 126 651 223h-1149v268h1590v-268l-461 -262q-64 -34 -137 -65.5t-131.5 -53.5t-129.5 -45.5t-110.5 -35.5t-97 -28.5t-68.5 -19.5h1135z" />
    <glyph glyph-name="florin" unicode="&#x192;" horiz-adv-x="2031" 
d="M754 160l53 305h-531l56 311h530l49 273q48 274 228.5 395t509.5 121q271 0 559 -45l-70 -297q-277 41 -485 41q-173 0 -252 -56.5t-105 -201.5l-41 -230h598l-55 -311h-598l-61 -346q-46 -270 -229.5 -393t-514.5 -123q-265 0 -553 45l70 297q256 -43 496 -43
q164 0 242.5 59.5t103.5 198.5z" />
    <glyph glyph-name="AEacute" unicode="&#x1fc;" horiz-adv-x="3676" 
d="M2152 1800h480l-379 -309h-371zM522 0h-547l1586 1397h2025v-326h-1382v-231h1341l2 -269h-1341v-245h1380v-326h-1796v270h-956zM1790 1106l-631 -547h631v547z" />
    <glyph glyph-name="aeacute" unicode="&#x1fd;" horiz-adv-x="3063" 
d="M1640 1524h480l-402 -312h-370zM2230 276q324 0 662 54l78 -279q-147 -36 -359.5 -58t-415.5 -22q-287 0 -470 52t-277 163q-161 -94 -376 -154.5t-462 -60.5q-259 0 -393.5 76.5t-134.5 241.5q0 174 163 248.5t519 74.5h569q-16 51 -65 81t-153.5 45.5t-278.5 15.5
q-331 0 -625 -66l-55 311q144 31 342 51.5t385 20.5q247 0 406 -33.5t251 -105.5q201 139 631 139q823 0 823 -469q0 -100 -10 -168h-1258q26 -94 134 -126t370 -32zM2157 813q-217 0 -313.5 -39t-119.5 -139h887q-12 65 -55 102.5t-139 56.5t-260 19zM453 328
q0 -51 45.5 -68.5t169.5 -17.5q215 0 369 36.5t319 106.5q-4 20 -4 29l-668 -4q-131 0 -181 -16t-50 -66z" />
    <glyph glyph-name="Scommaaccent" unicode="&#x218;" horiz-adv-x="2072" 
d="M1995 397q0 -114 -42 -191t-144.5 -131t-274 -78t-430.5 -24q-253 0 -530.5 31.5t-473.5 79.5l60 334q542 -119 1054 -119q165 0 247.5 11t111.5 33.5t29 66.5q0 60 -34 79t-126 27l-772 45q-318 15 -455 117t-137 303q0 234 217 337t704 103q192 0 459.5 -27.5
t468.5 -70.5l-67 -313q-189 37 -447.5 61.5t-509.5 24.5q-192 0 -282 -9.5t-120 -30t-30 -65.5q0 -55 38.5 -73t141.5 -25l762 -45q301 -17 441.5 -125.5t140.5 -325.5zM805 -137h387l-277 -312h-309z" />
    <glyph glyph-name="scommaaccent" unicode="&#x219;" horiz-adv-x="1681" 
d="M1634 297q0 -186 -172 -256t-571 -70q-219 0 -439.5 27.5t-361.5 62.5l66 250q157 -34 372 -58t433 -24q184 0 248.5 14t64.5 56q0 43 -43.5 57.5t-171.5 22.5l-510 29q-262 13 -370.5 92t-108.5 250q0 66 22 116.5t68.5 86t109 59.5t153.5 38t192 19.5t233 5.5
q164 0 367.5 -21t353.5 -46l-58 -252q-369 67 -753 67q-101 0 -160.5 -2.5t-99.5 -10.5t-54 -21t-14 -35q0 -41 35 -54t125 -18l510 -31q136 -8 232 -29t165.5 -61.5t103 -105.5t33.5 -158zM606 -117h387l-278 -311h-309z" />
    <glyph glyph-name="Tcommaaccent" unicode="&#x21a;" horiz-adv-x="2158" 
d="M872 1040h-829v357h2073v-357h-828v-1040h-416v1040zM874 -117h390l-279 -311h-309z" />
    <glyph glyph-name="tcommaaccent" unicode="&#x21b;" horiz-adv-x="1552" 
d="M242 492v241h-224v311h234l67 271h312v-271h815v-311h-815v-201q0 -136 67 -184.5t252 -48.5q213 0 506 59l74 -307q-324 -80 -615 -80q-343 0 -508 120.5t-165 400.5zM637 -117h387l-276 -311h-310z" />
    <glyph glyph-name="dotlessj" unicode="&#x237;" horiz-adv-x="608" 
d="M313 -373h-401q199 272 199 576v841h387v-843q0 -331 -185 -574z" />
    <glyph glyph-name="circumflex" unicode="&#x2c6;" horiz-adv-x="1024" 
d="M1026 1200h-348l-166 143l-166 -143h-348l338 313h350z" />
    <glyph glyph-name="caron" unicode="&#x2c7;" horiz-adv-x="1024" 
d="M1026 1513l-340 -313h-350l-338 313h348l166 -141l166 141h348z" />
    <glyph glyph-name="breve" unicode="&#x2d8;" horiz-adv-x="1075" 
d="M700 1511h285q0 -163 -107.5 -245t-338.5 -82t-340 82t-109 245h285q0 -72 36 -102.5t128 -30.5t126.5 30.5t34.5 102.5z" />
    <glyph glyph-name="dotaccent" unicode="&#x2d9;" horiz-adv-x="612" 
d="M500 1495v-319h-387v319h387z" />
    <glyph glyph-name="ring" unicode="&#x2da;" horiz-adv-x="813" 
d="M408 1182q-162 0 -240 56.5t-78 172.5q0 223 318 223q315 0 315 -223q0 -116 -76.5 -172.5t-238.5 -56.5zM266 1411q0 -45 30.5 -65.5t111.5 -20.5q82 0 110.5 20t28.5 66q0 41 -29 60.5t-110 19.5t-111.5 -19.5t-30.5 -60.5z" />
    <glyph glyph-name="ogonek" unicode="&#x2db;" horiz-adv-x="735" 
d="M348 2l201 -2q-94 -44 -165 -97t-71 -96t60 -43q86 0 213 54l57 -178q-164 -80 -319 -80q-236 0 -236 170q0 78 79.5 157t180.5 115z" />
    <glyph glyph-name="tilde" unicode="&#x2dc;" horiz-adv-x="1024" 
d="M92 1210v215q105 64 217 64q89 0 231.5 -32t200.5 -32q57 0 96.5 15t94.5 47v-223q-85 -60 -184 -60q-75 0 -222.5 34t-220.5 34q-108 0 -213 -62z" />
    <glyph glyph-name="hungarumlaut" unicode="&#x2dd;" horiz-adv-x="1349" 
d="M303 1513h402l-316 -309h-299zM858 1513h402l-359 -309h-299z" />
    <glyph glyph-name="commaaccentcomb" unicode="&#x326;" horiz-adv-x="774" 
d="M307 -117h387l-276 -311h-309z" />
    <glyph glyph-name="pi" unicode="&#x3c0;" horiz-adv-x="2394" 
d="M743 0h-385v733h-272v311h2173v-311h-287v-307q0 -75 36 -108t120 -33q66 0 133 10l31 -299q-117 -23 -244 -23q-244 0 -352.5 96t-108.5 318v346h-844v-733z" />
    <glyph glyph-name="Wgrave" unicode="&#x1e80;" horiz-adv-x="3368" 
d="M1532 1491l-377 309h477l271 -309h-371zM657 0l-622 1397h469l432 -1018l500 1018h495l512 -1018l422 1018h469l-622 -1397h-533l-493 993l-496 -993h-533z" />
    <glyph glyph-name="wgrave" unicode="&#x1e81;" horiz-adv-x="2793" 
d="M1192 1219l-397 311h479l289 -311h-371zM1141 1044h487l404 -729l344 729h409l-534 -1044h-447l-428 764l-428 -764h-444l-498 1044h404l335 -725z" />
    <glyph glyph-name="Wacute" unicode="&#x1e82;" horiz-adv-x="3368" 
d="M1751 1800h479l-377 -309h-372zM657 0l-622 1397h469l432 -1018l500 1018h495l512 -1018l422 1018h469l-622 -1397h-533l-493 993l-496 -993h-533z" />
    <glyph glyph-name="wacute" unicode="&#x1e83;" horiz-adv-x="2793" 
d="M1473 1530h479l-400 -311h-372zM1141 1044h487l404 -729l344 729h409l-534 -1044h-447l-428 764l-428 -764h-444l-498 1044h404l335 -725z" />
    <glyph glyph-name="Wdieresis" unicode="&#x1e84;" horiz-adv-x="3368" 
d="M1585 1808v-317h-338v317h338zM2122 1808v-317h-340v317h340zM657 0l-622 1397h469l432 -1018l500 1018h495l512 -1018l422 1018h469l-622 -1397h-533l-493 993l-496 -993h-533z" />
    <glyph glyph-name="wdieresis" unicode="&#x1e85;" horiz-adv-x="2793" 
d="M1280 1522v-318h-338v318h338zM1815 1522v-318h-338v318h338zM1141 1044h487l404 -729l344 729h409l-534 -1044h-447l-428 764l-428 -764h-444l-498 1044h404l335 -725z" />
    <glyph glyph-name="Etilde" unicode="&#x1ebc;" horiz-adv-x="2064" 
d="M723 1497v215q105 64 217 64q89 0 230.5 -32t201.5 -32q57 0 97 15t92 47v-224q-83 -59 -183 -59q-75 0 -223 34t-221 34q-106 0 -211 -62zM1974 0h-1863v1397h1863v-326h-1448v-231h1409v-269h-1409v-245h1448v-326z" />
    <glyph glyph-name="etilde" unicode="&#x1ebd;" 
d="M487 1221v215q106 63 215 63q89 0 232 -32.5t203 -32.5q39 0 75.5 10t53.5 18.5t59 32.5v-223q-82 -58 -184 -58q-75 0 -222.5 34t-220.5 34q-112 0 -211 -61zM956 276q324 0 662 54l78 -279q-145 -36 -358 -58t-416 -22q-447 0 -649.5 130t-202.5 421q0 285 207.5 417
t619.5 132q823 0 823 -469q0 -100 -10 -168h-1257q26 -94 134 -126t369 -32zM883 813q-217 0 -313 -39t-119 -139h886q-12 65 -55 102.5t-139 56.5t-260 19z" />
    <glyph glyph-name="Ygrave" unicode="&#x1ef2;" horiz-adv-x="2316" 
d="M1010 1491l-379 309h479l270 -309h-370zM948 518l-946 879h533l626 -566l627 566h524l-948 -881v-516h-416v518z" />
    <glyph glyph-name="ygrave" unicode="&#x1ef3;" horiz-adv-x="1886" 
d="M776 1219l-397 311h479l291 -311h-373zM86 610v434h385v-374q0 -89 33 -138.5t114 -73.5t226 -24q260 0 553 55v555h387v-813q0 -178 -50 -299t-157.5 -194.5t-264 -105t-382.5 -31.5q-195 0 -401.5 26.5t-364.5 69.5l67 295q377 -92 725 -92q265 0 368 70.5t91 242.5
l-4 10q-366 -106 -659 -106q-244 0 -390 52.5t-211 159t-65 281.5z" />
    <glyph glyph-name="Ytilde" unicode="&#x1ef8;" horiz-adv-x="2316" 
d="M752 1497v215q105 64 217 64q89 0 230.5 -32t201.5 -32q40 0 75 9t56.5 20t56.5 33v-224q-79 -59 -182 -59q-75 0 -222 34t-222 34q-106 0 -211 -62zM948 518l-946 879h533l626 -566l627 566h524l-948 -881v-516h-416v518z" />
    <glyph glyph-name="ytilde" unicode="&#x1ef9;" horiz-adv-x="1894" 
d="M553 1221v215q111 63 217 63q89 0 231.5 -32.5t202.5 -32.5q38 0 74 10t55.5 19.5t59.5 31.5v-223q-82 -58 -185 -58q-75 0 -222 34t-220 34q-110 0 -213 -61zM86 610v434h385v-374q0 -89 33 -138.5t114 -73.5t226 -24q260 0 553 55v555h387v-813q0 -178 -50 -299
t-157.5 -194.5t-264 -105t-382.5 -31.5q-195 0 -401.5 26.5t-364.5 69.5l67 295q377 -92 725 -92q265 0 368 70.5t91 242.5l-4 10q-366 -106 -659 -106q-244 0 -390 52.5t-211 159t-65 281.5z" />
    <glyph glyph-name="endash" unicode="&#x2013;" horiz-adv-x="1181" 
d="M1102 395h-1024v303h1024v-303z" />
    <glyph glyph-name="emdash" unicode="&#x2014;" horiz-adv-x="2205" 
d="M2126 395h-2048v303h2048v-303z" />
    <glyph glyph-name="quoteleft" unicode="&#x2018;" horiz-adv-x="587" 
d="M530 1550l-28 -192q-70 8 -92 8q-54 0 -72.5 -12.5t-18.5 -50.5v-37h179v-408h-402v455q0 121 73 186.5t222 65.5q75 0 139 -15z" />
    <glyph glyph-name="quoteright" unicode="&#x2019;" horiz-adv-x="587" 
d="M57 844l29 192q47 -8 92 -8q54 0 71 12.5t17 51.5v34h-176v410h402v-455q0 -121 -73.5 -186.5t-221.5 -65.5q-75 0 -140 15z" />
    <glyph glyph-name="quotesinglbase" unicode="&#x201a;" horiz-adv-x="587" 
d="M57 -283l29 191q70 -8 92 -8q53 0 70.5 13t17.5 52v35h-176v410h402v-455q0 -121 -73.5 -187.5t-221.5 -66.5q-71 0 -140 16z" />
    <glyph glyph-name="quotedblleft" unicode="&#x201c;" horiz-adv-x="1120" 
d="M530 1550l-28 -192q-70 8 -92 8q-54 0 -72.5 -12.5t-18.5 -50.5v-37h179v-408h-402v455q0 121 73 186.5t222 65.5q75 0 139 -15zM1061 1550l-27 -192q-70 8 -94 8q-53 0 -70.5 -12.5t-17.5 -50.5v-37h176v-408h-399v455q0 121 73 186.5t222 65.5q75 0 137 -15z" />
    <glyph glyph-name="quotedblright" unicode="&#x201d;" horiz-adv-x="1120" 
d="M57 844l29 192q47 -8 92 -8q54 0 71 12.5t17 51.5v34h-176v410h402v-455q0 -121 -73.5 -186.5t-221.5 -65.5q-75 0 -140 15zM590 844l26 192q49 -8 95 -8q53 0 70.5 13t17.5 51v34h-176v410h401v-455q0 -121 -74 -186.5t-223 -65.5q-73 0 -137 15z" />
    <glyph glyph-name="quotedblbase" unicode="&#x201e;" horiz-adv-x="1120" 
d="M57 -283l29 191q70 -8 92 -8q53 0 70.5 13t17.5 52v35h-176v410h402v-455q0 -121 -73.5 -187.5t-221.5 -66.5q-71 0 -140 16zM590 -283l26 191q74 -8 95 -8q52 0 70 13.5t18 51.5v35h-176v410h401v-455q0 -121 -74 -187.5t-223 -66.5q-68 0 -137 16z" />
    <glyph glyph-name="dagger" unicode="&#x2020;" horiz-adv-x="1658" 
d="M623 700h-562v344h562v353h415v-353h559v-344h-559v-1042h-415v1042z" />
    <glyph glyph-name="daggerdbl" unicode="&#x2021;" horiz-adv-x="1658" 
d="M623 10h-562v344h562v346h-562v344h562v353h415v-353h559v-344h-559v-346h559v-344h-559v-352h-415v352z" />
    <glyph glyph-name="bullet" unicode="&#x2022;" horiz-adv-x="911" 
d="M457 379q-185 0 -265.5 60.5t-80.5 199.5q0 137 81 197.5t265 60.5t264 -60.5t80 -197.5q0 -139 -79.5 -199.5t-264.5 -60.5z" />
    <glyph glyph-name="ellipsis" unicode="&#x2026;" horiz-adv-x="1736" 
d="M492 410v-410h-402v410h402zM1069 410v-410h-401v410h401zM1647 410v-410h-402v410h402z" />
    <glyph glyph-name="perthousand" unicode="&#x2030;" horiz-adv-x="3780" 
d="M78 1096q0 175 129.5 252t392.5 77q264 0 392 -76.5t128 -252.5q0 -173 -129 -251.5t-391 -78.5q-261 0 -391.5 78.5t-130.5 251.5zM743 0h-360l1487 1397h360zM883 1096q0 47 -24 72.5t-85 38t-174 12.5q-166 0 -225.5 -27t-59.5 -96q0 -70 59 -95.5t226 -25.5t225 25.5
t58 95.5zM2662 315q0 176 130.5 254t392.5 78q263 0 391.5 -78t128.5 -254q0 -173 -128.5 -251t-391.5 -78q-262 0 -392.5 78t-130.5 251zM1503 309q0 176 130 254t392 78t391.5 -78t129.5 -254q0 -173 -129.5 -251t-391.5 -78t-392 78t-130 251zM3467 315q0 48 -24 73.5
t-84.5 37.5t-173.5 12q-166 0 -225.5 -26.5t-59.5 -96.5t59 -95t226 -25t224.5 25t57.5 95zM2308 309q0 48 -24 73.5t-85 37.5t-174 12q-166 0 -225 -26.5t-59 -96.5t58.5 -95.5t225.5 -25.5t225 25.5t58 95.5z" />
    <glyph glyph-name="guilsinglleft" unicode="&#x2039;" horiz-adv-x="901" 
d="M825 -10l-749 362v357l749 362v-317l-469 -224l469 -223v-317z" />
    <glyph glyph-name="guilsinglright" unicode="&#x203a;" horiz-adv-x="901" 
d="M76 1071l749 -362v-357l-749 -362v317l467 223l-467 224v317z" />
    <glyph glyph-name="fraction" unicode="&#x2044;" horiz-adv-x="538" 
d="M-293 0h-362l1486 1397h363z" />
    <glyph glyph-name="zero.superior" unicode="&#x2070;" horiz-adv-x="1200" 
d="M78 1096q0 175 129.5 252t392.5 77q264 0 392 -76.5t128 -252.5q0 -173 -129 -251.5t-391 -78.5q-261 0 -391.5 78.5t-130.5 251.5zM883 1096q0 47 -24 72.5t-85 38t-174 12.5q-166 0 -225.5 -27t-59.5 -96q0 -70 59 -95.5t226 -25.5t225 25.5t58 95.5z" />
    <glyph glyph-name="four.superior" unicode="&#x2074;" horiz-adv-x="1204" 
d="M985 729h-219v100h-694v150l694 375h219v-363h162v-162h-162v-100zM334 973v-6q135 24 309 24h123v164l-152 -76q-222 -88 -280 -106z" />
    <glyph glyph-name="Euro" unicode="&#x20ac;" horiz-adv-x="2357" 
d="M252 696v37h-246v225h285q76 230 321 344.5t693 114.5q561 0 983 -100l-68 -316q-465 91 -901 91q-229 0 -364.5 -33t-202.5 -101h880v-225h-964v-37v-39h964v-227h-878q68 -67 203 -98t362 -31q432 0 901 88l68 -315q-426 -101 -983 -101q-446 0 -691 114t-323 343h-285
v227h246v39z" />
    <glyph glyph-name="litre" unicode="&#x2113;" horiz-adv-x="1374" 
d="M963 717l-527 -250q6 -76 57 -106.5t171 -30.5q183 0 362 47l64 -340q-190 -64 -433 -64q-312 0 -460 124t-148 390v285q0 142 37 254.5t115.5 199.5t212.5 134t317 47q488 0 488 -330q0 -242 -256 -360zM434 819v-149l316 149q66 31 95 63t29 76q0 57 -37 84t-130 27
q-273 0 -273 -250z" />
    <glyph glyph-name="trademark" unicode="&#x2122;" horiz-adv-x="4304" 
d="M2406 598h-426v799h549l559 -525l559 525h547v-799h-426v446l-465 -446h-430l-467 446v-446zM715 1067h-649v330h1726v-330h-649v-469h-428v469z" />
    <glyph glyph-name="partialdiff" unicode="&#x2202;" horiz-adv-x="1996" 
d="M1894 735q0 -247 -121 -418.5t-337.5 -254t-515.5 -82.5q-410 0 -621 123.5t-211 396.5q0 102 33.5 180t93.5 129t149 83.5t192.5 46t231.5 13.5q382 0 721 -143q-15 180 -159 270t-435 90q-203 0 -456 -55l-58 336q279 68 568 68q208 0 369.5 -41t265 -111t170 -171
t93.5 -213.5t27 -246.5zM473 522q0 -81 42 -128.5t140 -71t267 -23.5q261 0 403.5 80t175.5 258q-363 96 -676 96q-181 0 -266.5 -49t-85.5 -162z" />
    <glyph glyph-name="product" unicode="&#x220f;" horiz-adv-x="2541" 
d="M729 0h-416v1024h-252v356h2421v-356h-268v-1024h-416v1024h-1069v-1024z" />
    <glyph glyph-name="summation" unicode="&#x2211;" horiz-adv-x="2115" 
d="M2032 -43v-326h-1942v424l1274 484l-1274 391v467h1942v-326h-1477l1108 -391v-289l-1096 -434h1465z" />
    <glyph glyph-name="minus" unicode="&#x2212;" horiz-adv-x="1546" 
d="M1427 528h-1308v297h1308v-297z" />
    <glyph glyph-name="divisionslash" unicode="&#x2215;" horiz-adv-x="927" 
d="M-100 0h-361l1487 1397h363z" />
    <glyph glyph-name="radical" unicode="&#x221a;" 
d="M1751 1391l-743 -1391h-396l-239 469h-320v313h527l227 -450l563 1059h381z" />
    <glyph glyph-name="infinity" unicode="&#x221e;" horiz-adv-x="2027" 
d="M502 205q-192 0 -309 112t-117 320q0 207 120.5 319.5t309.5 112.5q81 0 154.5 -20t136.5 -58.5t112 -79t105 -96.5q57 56 106 96t113 79t136 59t151 20q190 0 311 -112.5t121 -319.5q0 -208 -117 -320t-309 -112q-159 0 -282 63t-232 172q-112 -109 -234 -172t-276 -63z
M1483 805q-75 0 -142.5 -45t-150.5 -131q79 -76 150.5 -116t156.5 -40q78 0 122 40.5t44 125.5q0 84 -47.5 125t-132.5 41zM530 473q80 0 152 41t152 117q-82 85 -148 128.5t-143 43.5q-83 0 -130.5 -41.5t-47.5 -124.5q0 -164 165 -164z" />
    <glyph glyph-name="integral" unicode="&#x222b;" horiz-adv-x="1705" 
d="M1364 1264q-177 0 -247 -56.5t-70 -201.5v-994q0 -544 -723 -544q-167 0 -451 47l74 286q249 -34 395 -34q177 0 247 57t70 203v993q0 545 723 545q167 0 451 -47l-74 -287q-241 33 -395 33z" />
    <glyph glyph-name="approxequal" unicode="&#x2248;" horiz-adv-x="1556" 
d="M475 836q-180 0 -348 -99l-8 299q164 107 368 107q75 0 155 -19t139.5 -41.5t144 -41.5t166.5 -19q152 0 338 119l8 -285q-173 -127 -346 -127q-90 0 -177.5 16.5t-146.5 37t-138.5 37t-154.5 16.5zM475 375q-85 0 -167 -30.5t-181 -96.5l-8 299q185 121 368 121
q75 0 157 -16.5t144.5 -36t149 -36t168.5 -16.5q84 0 153 22.5t171 80.5l8 -299q-78 -57 -156 -85t-176 -28q-89 0 -175 19t-144 41.5t-142 41.5t-170 19z" />
    <glyph glyph-name="notequal" unicode="&#x2260;" horiz-adv-x="1531" 
d="M1442 281h-772l-97 -170h-243l96 170h-336v297h502l104 184h-606v295h772l96 170h242l-96 -170h338v-295h-502l-104 -184h606v-297z" />
    <glyph glyph-name="lessequal" unicode="&#x2264;" horiz-adv-x="1488" 
d="M1399 317l-1309 283v414l1309 284v-331l-1004 -158l1004 -160v-332zM1399 12h-1309v297h1309v-297z" />
    <glyph glyph-name="greaterequal" unicode="&#x2265;" horiz-adv-x="1488" 
d="M1399 1014v-414l-1309 -283v332l1004 160l-1004 158v331zM1399 309v-297h-1309v297h1309z" />
    <glyph glyph-name="lozenge" unicode="&#x25ca;" horiz-adv-x="1665" 
d="M1608 805v-275l-639 -530h-271l-641 530v275l641 530h271zM834 1036l-437 -368l437 -369l434 369z" />
    <glyph glyph-name="caron.alt" unicode="&#xe189;" horiz-adv-x="587" 
d="M274 1026v29h-149v342h338v-379q0 -102 -61.5 -157.5t-186.5 -55.5q-65 0 -117 12l23 162q47 -6 80 -6q44 0 58.5 10.5t14.5 42.5z" />
    <glyph glyph-name="commaaccentcomb.alt" horiz-adv-x="774" 
d="M598 1210h-475l307 310h369z" />
    <glyph glyph-name="dieresis.case" horiz-adv-x="1054" 
d="M428 1833v-320h-338v320h338zM965 1833v-320h-340v320h340z" />
    <glyph glyph-name="dotaccent.case" horiz-adv-x="612" 
d="M500 1825v-320h-387v320h387z" />
    <glyph glyph-name="grave.case" horiz-adv-x="980" 
d="M365 1513l-377 312h477l270 -312h-370z" />
    <glyph glyph-name="acute.case" horiz-adv-x="980" 
d="M516 1825h479l-379 -312h-370z" />
    <glyph glyph-name="hungarumlaut.case" horiz-adv-x="1349" 
d="M303 1825h402l-316 -312h-299zM858 1825h402l-359 -312h-299z" />
    <glyph glyph-name="circumflex.case" horiz-adv-x="1024" 
d="M1026 1513h-348l-166 144l-166 -144h-348l338 314h350z" />
    <glyph glyph-name="caron.case" horiz-adv-x="1024" 
d="M1026 1827l-340 -314h-350l-338 314h348l166 -144l166 144h348z" />
    <glyph glyph-name="breve.case" horiz-adv-x="1075" 
d="M700 1841h285q0 -163 -108 -246.5t-338 -83.5q-449 0 -449 330h285q0 -72 36 -103.5t128 -31.5q91 0 126 31t35 104z" />
    <glyph glyph-name="ring.case" horiz-adv-x="813" 
d="M408 1507q-162 0 -240 57.5t-78 174.5q0 221 318 221q315 0 315 -221q0 -118 -76.5 -175t-238.5 -57zM266 1737q0 -45 30.5 -65.5t111.5 -20.5q82 0 110.5 20t28.5 66q0 43 -28.5 61.5t-110.5 18.5q-81 0 -111.5 -19t-30.5 -61z" />
    <glyph glyph-name="tilde.case" horiz-adv-x="1017" 
d="M90 1520v215q104 63 217 63q89 0 230.5 -31.5t201.5 -31.5q57 0 97.5 15t91.5 46v-223q-81 -57 -183 -57q-75 0 -223 32.5t-221 32.5q-108 0 -211 -61z" />
    <glyph glyph-name="macron.case" horiz-adv-x="1019" 
d="M930 1554h-840v236h840v-236z" />
    <glyph glyph-name="cedilla.case" horiz-adv-x="774" 
d="M420 -84h233v-68q0 -157 -70 -221.5t-249 -64.5q-145 0 -275 37l45 200q126 -24 205 -24q60 0 85.5 18.5t25.5 71.5v51z" />
    <glyph glyph-name="ogonek.case" horiz-adv-x="735" 
d="M348 6h205q-96 -45 -167 -97t-71 -97q0 -41 60 -41q91 0 215 53l55 -178q-153 -80 -319 -80q-236 0 -236 170q0 79 78 157t180 113z" />
    <glyph glyph-name="ITF" horiz-adv-x="3414" 
d="M152 0v1434h442v-1434h-442zM686 1016v418h442v-418h-442zM1219 0v1434h444v-1434h-444zM1753 1016v418h442v-418h-442zM2286 0v1434h444v-1434h-444zM2820 1016v418h442v-418h-442zM2820 506v420h442v-420h-442z" />
    </font>
</defs>
</svg>
