<?xml version="1.0" standalone="no"?>
<!DOCTYPE svg PUBLIC "-//W3C//DTD SVG 1.1//EN" "http://www.w3.org/Graphics/SVG/1.1/DTD/svg11.dtd" >
<svg xmlns="http://www.w3.org/2000/svg" xmlns:xlink="http://www.w3.org/1999/xlink" version="1.1">
<metadata>
Created by FontForge 20170731 at Mon Sep 18 16:49:21 2023
 By Aleksey,,,
Copyright 2015-2021 Indian Type Foundry. All rights reserved.
</metadata>
<defs>
<font id="Panchang-Medium" horiz-adv-x="2412" >
  <font-face 
    font-family="Panchang Medium"
    font-weight="500"
    font-stretch="normal"
    units-per-em="2048"
    panose-1="0 0 0 0 0 0 0 0 0 0"
    ascent="1638"
    descent="-410"
    x-height="1026"
    cap-height="1397"
    bbox="-655 -532 4076 1946"
    underline-thickness="102"
    underline-position="-255"
    unicode-range="U+000D-FB02"
  />
<missing-glyph horiz-adv-x="1116" 
d="M145 0v1397h828v-1397h-828zM858 1288h-598v-1179h598v1179z" />
    <glyph glyph-name="fi" unicode="fi" horiz-adv-x="1763" 
d="M258 0v834h-217v192h217v25q0 510 664 510q246 0 546 -58l-43 -180q-266 51 -514 51q-226 0 -321.5 -74.5t-95.5 -234.5v-39h1126v-1026h-236v834h-890v-834h-236z" />
    <glyph glyph-name="fl" unicode="fl" horiz-adv-x="1773" 
d="M258 0v834h-217v192h217v25q0 257 161.5 383.5t498.5 126.5q241 0 493 -25h217v-1536h-235v1354q-225 20 -469 20q-233 0 -331.5 -74.5t-98.5 -234.5v-39h671v-192h-671v-834h-236z" />
    <glyph glyph-name=".notdef" horiz-adv-x="1116" 
d="M145 0v1397h828v-1397h-828zM858 1288h-598v-1179h598v1179z" />
    <glyph glyph-name=".null" horiz-adv-x="0" 
 />
    <glyph glyph-name="nonmarkingreturn" horiz-adv-x="682" 
 />
    <glyph glyph-name="CR" unicode="&#xd;" horiz-adv-x="0" 
 />
    <glyph glyph-name="space" unicode=" " horiz-adv-x="751" 
 />
    <glyph glyph-name="exclam" unicode="!" horiz-adv-x="493" 
d="M369 952l-33 -520h-178l-33 520v445h244v-445zM367 338v-338h-242v338h242z" />
    <glyph glyph-name="quotedbl" unicode="&#x22;" horiz-adv-x="933" 
d="M150 1008l-25 290v238h235v-238l-24 -290h-186zM600 1008l-25 290v238h234v-238l-25 -290h-184z" />
    <glyph glyph-name="numbersign" unicode="#" horiz-adv-x="2301" 
d="M162 471h405l99 397h-410l39 148h407l78 319h189l-78 -319h684l78 319h188l-78 -319h414l-37 -148h-414l-98 -397h416l-37 -147h-414l-80 -324h-188l80 324h-684l-80 -324h-188l79 324h-407zM756 471h684l98 397h-684z" />
    <glyph glyph-name="dollar" unicode="$" horiz-adv-x="2131" 
d="M1141 1599v-184q190 -8 400.5 -32.5t365.5 -57.5l-39 -192q-314 62 -727 81v-411l293 -25q136 -11 230 -34.5t166 -69t107 -120.5t35 -183q0 -143 -73 -226t-255 -125.5t-503 -44.5v-194h-178v196q-449 19 -809 97l36 205q373 -80 773 -97v436l-293 25
q-280 21 -409.5 105.5t-129.5 271.5q0 143 82.5 229t263.5 127t486 43v180h178zM659 846l304 -27v400h-19q-241 0 -364.5 -20t-166 -59.5t-42.5 -115.5q0 -40 13 -68.5t33.5 -46.5t60 -30.5t78.5 -19t103 -13.5zM1466 573l-325 29v-426h24q237 0 360.5 21t165.5 62t42 118
q0 46 -12 78t-30.5 52t-55.5 33t-73 19.5t-96 13.5z" />
    <glyph glyph-name="percent" unicode="%" horiz-adv-x="2613" 
d="M100 1092q0 169 123.5 249t368.5 80q247 0 370 -80t123 -249q0 -168 -123.5 -249t-369.5 -81q-492 0 -492 330zM670 0h-232l1483 1397h229zM930 1092q0 103 -76.5 147.5t-261.5 44.5q-184 0 -261 -45t-77 -147q0 -104 77 -148.5t261 -44.5q186 0 262 44.5t76 148.5z
M1522 317q0 169 123.5 249.5t369.5 80.5t369 -80t123 -250q0 -168 -123 -248.5t-369 -80.5t-369.5 80.5t-123.5 248.5zM2353 317q0 103 -77 148t-261 45q-185 0 -261.5 -45t-76.5 -148q0 -104 76 -148t262 -44q185 0 261.5 44t76.5 148z" />
    <glyph glyph-name="ampersand" unicode="&#x26;" horiz-adv-x="2396" 
d="M2318 618h-290v-528q-484 -113 -988 -113q-342 0 -537.5 41t-277.5 125t-82 228q0 132 76 213t240 116q-279 71 -279 334q0 200 192 290.5t625 90.5q484 0 893 -74l-39 -204q-403 63 -845 63q-127 0 -214 -4.5t-164 -17t-121.5 -35.5t-69.5 -60t-25 -90
q0 -119 101.5 -162t338.5 -43h1466v-170zM1071 184q371 0 741 70v364h-956q-270 0 -373.5 -45.5t-103.5 -164.5q0 -55 21.5 -92t68 -63.5t130 -41t195.5 -21t277 -6.5z" />
    <glyph glyph-name="quotesingle" unicode="'" horiz-adv-x="483" 
d="M150 1008l-25 290v238h235v-238l-24 -290h-186z" />
    <glyph glyph-name="parenleft" unicode="(" horiz-adv-x="796" 
d="M547 1585l149 -92q-66 -94 -116 -183t-96.5 -202t-71.5 -244t-25 -272t25 -272t71.5 -244t96.5 -202t116 -183l-149 -92q-78 93 -143.5 197t-122.5 230t-90 272.5t-33 293.5q0 148 33 294.5t90 272t122.5 229.5t143.5 197z" />
    <glyph glyph-name="parenright" unicode=")" horiz-adv-x="796" 
d="M410 592q0 141 -25 272t-71.5 244t-96.5 202t-117 183l150 92q78 -93 143.5 -197t122.5 -229.5t90 -272t33 -294.5q0 -147 -33 -293.5t-90 -272.5t-122.5 -230t-143.5 -197l-150 92q67 94 117 183t96.5 202t71.5 244t25 272z" />
    <glyph glyph-name="asterisk" unicode="*" horiz-adv-x="1247" 
d="M365 813l180 184l-256 47l-180 60l51 158l182 -58l233 -112l-34 256v190h168v-190l-35 -256l231 112l180 58l54 -158l-183 -60l-251 -47l178 -186l110 -154l-135 -98l-113 154l-120 227l-125 -227l-111 -154l-135 98z" />
    <glyph glyph-name="plus" unicode="+" horiz-adv-x="1533" 
d="M668 223v320h-527v184h527v317h194v-317h531v-184h-531v-320h-194z" />
    <glyph glyph-name="comma" unicode="," horiz-adv-x="491" 
d="M96 -203l19 119q7 -1 29 -3.5t32 -2.5q31 0 42 9t11 34v47h-104v338h242v-395q0 -158 -181 -158q-36 0 -90 12z" />
    <glyph glyph-name="hyphen" unicode="-" horiz-adv-x="1079" 
d="M979 442h-879v189h879v-189z" />
    <glyph glyph-name="period" unicode="." horiz-adv-x="491" 
d="M367 338v-338h-242v338h242z" />
    <glyph glyph-name="slash" unicode="/" horiz-adv-x="1253" 
d="M1235 1430l-1006 -1768h-211l1006 1768h211z" />
    <glyph glyph-name="zero" unicode="0" horiz-adv-x="2437" 
d="M2296 698q0 -191 -71 -330t-211 -225t-336.5 -127t-458.5 -41t-458.5 41t-337 127t-211.5 225t-71 330t71 330t211.5 225t337 127t458.5 41t458.5 -41t336.5 -127t211 -225t71 -330zM2046 698q0 113 -34.5 198t-100 143.5t-168 95.5t-230.5 53t-294 16t-294 -16
t-230.5 -53t-168.5 -95.5t-100.5 -143.5t-34.5 -198q0 -141 52.5 -238.5t160 -156t257 -84.5t358.5 -26q166 0 294 16t230.5 52.5t168 95t100 143.5t34.5 198z" />
    <glyph glyph-name="one" unicode="1" horiz-adv-x="1167" 
d="M883 0h-250v961q0 82 8 188l-532 -184v219l540 213h234v-1397z" />
    <glyph glyph-name="two" unicode="2" horiz-adv-x="2125" 
d="M1726 952q0 61 -27 105t-76 73t-128 46t-172 23.5t-219 6.5q-412 0 -936 -94l-39 213q221 42 474.5 69t461.5 27q469 0 690 -99t221 -335q0 -57 -13 -105.5t-35 -87.5t-60 -74t-79 -62t-103 -55.5t-120 -50.5t-141 -50l-839 -312q298 21 536 21h858v-211h-1843v223
l1301 463q162 65 225 118.5t63 147.5z" />
    <glyph glyph-name="three" unicode="3" horiz-adv-x="2134" 
d="M1993 354q0 -138 -81.5 -218t-285.5 -120.5t-565 -40.5q-227 0 -486 21t-450 59l31 209q501 -71 911 -71q159 0 265 5t189.5 18t129.5 37t69 59t23 87q0 129 -95 175.5t-331 46.5h-885v170h866q240 0 334 38.5t94 149.5q0 135 -141.5 181t-517.5 46q-455 0 -881 -63
l-30 211q187 32 437.5 49.5t442.5 17.5q353 0 557 -41t293.5 -128.5t89.5 -237.5q0 -131 -73 -204.5t-224 -111.5q314 -78 314 -344z" />
    <glyph glyph-name="four" unicode="4" horiz-adv-x="2330" 
d="M2202 528v-192h-351v-336h-249v336h-1528v186l1528 852h249v-846h351zM1602 1169l-906 -510l-305 -145q211 11 369 14h842v641z" />
    <glyph glyph-name="five" unicode="5" horiz-adv-x="2129" 
d="M1888 1196h-1382l-70 -362l793 -5q159 -1 275 -13.5t210.5 -40.5t152.5 -74.5t89 -116.5t31 -166q0 -119 -41 -198t-146 -136.5t-290 -83t-468 -25.5q-230 0 -479 19.5t-442 56.5l39 197q414 -72 913 -72q272 0 419.5 26t200 75.5t52.5 138.5q0 133 -122 181t-421 50
l-1005 8l-23 21l141 721h1573v-201z" />
    <glyph glyph-name="six" unicode="6" horiz-adv-x="2263" 
d="M2124 397q0 -75 -23.5 -136t-65.5 -104.5t-107.5 -76t-140.5 -52.5t-174.5 -32t-199.5 -16.5t-225 -4.5q-381 0 -614 81.5t-336 241.5t-103 415q0 708 1077 708q210 0 435.5 -29t406.5 -73l-43 -209q-409 100 -799 100q-164 0 -289 -14t-229 -48t-171.5 -89.5
t-105 -138.5t-40.5 -195q406 117 835 117q111 0 199 -3.5t186 -15t171.5 -31.5t143.5 -53.5t114.5 -79.5t71 -112.5t26.5 -149.5zM1204 666q-403 0 -815 -107q26 -133 111.5 -214t253.5 -122t436 -41q381 0 531.5 48.5t150.5 191.5q0 51 -15.5 88t-51.5 64.5t-86 45
t-128.5 28t-169.5 14.5t-217 4z" />
    <glyph glyph-name="seven" unicode="7" horiz-adv-x="2043" 
d="M864 0h-315l866 961q158 165 273 233q-198 -10 -398 -10h-1214v213h1890v-193z" />
    <glyph glyph-name="eight" unicode="8" horiz-adv-x="2320" 
d="M1159 1421q270 0 459 -26t297 -76.5t155.5 -116.5t47.5 -155q0 -241 -301 -328q171 -39 252 -120t81 -220q0 -144 -92.5 -230.5t-310.5 -130t-588 -43.5q-369 0 -586.5 43.5t-310 130t-92.5 230.5q0 140 80.5 220.5t255.5 119.5q-303 85 -303 328q0 71 28.5 126.5t97 103
t177 78.5t273 48.5t380.5 17.5zM1159 1214q-272 0 -428.5 -22.5t-220.5 -66.5t-64 -119q0 -77 64.5 -122t220.5 -67t428 -22q273 0 429 22t221 67t65 122q0 75 -64 119t-221 66.5t-430 22.5zM1159 193q217 0 354 10t229 36t129.5 68.5t37.5 110.5q0 55 -24.5 93t-75.5 64.5
t-143 41t-211.5 20.5t-295.5 6q-146 0 -251.5 -4t-192 -14t-141.5 -26t-93 -41.5t-53.5 -59.5t-15.5 -80q0 -54 25 -92t76.5 -64t142.5 -41t210.5 -21.5t292.5 -6.5z" />
    <glyph glyph-name="nine" unicode="9" horiz-adv-x="2263" 
d="M2124 684q0 -709 -1077 -709q-212 0 -439 29t-403 74l43 209q414 -101 799 -101q165 0 290.5 14t229.5 48t171 89t104.5 139t39.5 196q-413 -119 -835 -119q-112 0 -199 3.5t-186 14.5t-172 30t-143 52t-114 79t-71 112t-27 149q0 85 30.5 151.5t91 113t140.5 79
t189 50.5t225 26t260 8q286 0 487.5 -44.5t326.5 -138t182 -229t57 -325.5zM1055 729q396 0 815 109q-26 132 -111.5 212.5t-253.5 121t-436 40.5q-371 0 -526.5 -53.5t-155.5 -189.5q0 -51 15.5 -88t51.5 -63.5t86 -43.5t128.5 -27t169 -14t217.5 -4z" />
    <glyph glyph-name="colon" unicode=":" horiz-adv-x="507" 
d="M375 1026v-338h-242v338h242zM375 338v-338h-242v338h242z" />
    <glyph glyph-name="semicolon" unicode=";" horiz-adv-x="507" 
d="M375 1026v-338h-242v338h242zM104 -203l19 119q8 -1 28.5 -3.5t30.5 -2.5q32 0 44 9t12 34v47h-105v338h242v-395q0 -77 -45.5 -117.5t-134.5 -40.5q-37 0 -91 12z" />
    <glyph glyph-name="less" unicode="&#x3c;" horiz-adv-x="1501" 
d="M1378 164l-1253 356v252l1253 356v-210l-1024 -271l1024 -272v-211z" />
    <glyph glyph-name="equal" unicode="=" horiz-adv-x="1525" 
d="M1401 750h-1276v184h1276v-184zM1401 332h-1276v184h1276v-184z" />
    <glyph glyph-name="greater" unicode="&#x3e;" horiz-adv-x="1501" 
d="M125 1128l1253 -356v-252l-1253 -356v211l1024 272l-1024 271v210z" />
    <glyph glyph-name="question" unicode="?" horiz-adv-x="1648" 
d="M899 545h-446v172h428q225 0 319 49t94 182q0 136 -109 185t-376 49q-324 0 -692 -54l-33 199q379 59 711 59q405 0 577 -95t172 -326q0 -220 -153 -320t-492 -100zM682 322v-322h-242v322h242z" />
    <glyph glyph-name="at" unicode="@" horiz-adv-x="2889" 
d="M2023 -379q-333 -86 -698 -86q-604 0 -908 235t-304 691q0 193 62 347.5t176 263.5t280 182t370.5 107t450.5 34q227 0 420 -27.5t363 -91t288.5 -160.5t187 -244t68.5 -333q0 -269 -115 -402t-337 -133q-300 0 -398 178q-329 -180 -694 -180q-266 0 -421 108.5
t-155 329.5q0 465 689 465q358 0 743 -65v-394q0 -152 63.5 -212t194.5 -60t189.5 80.5t58.5 275.5q0 697 -1153 697q-578 0 -863.5 -194t-285.5 -570q0 -378 246 -568t772 -190q355 0 678 86zM1878 403v291q-296 37 -549 37q-227 0 -343 -69t-116 -216q0 -137 98.5 -201.5
t293.5 -64.5q323 0 624 125q-8 41 -8 98z" />
    <glyph glyph-name="A" unicode="A" horiz-adv-x="2267" 
d="M1968 0l-219 319h-1233l-217 -319h-301l971 1397h329l973 -1397h-303zM639 500h987l-493 723z" />
    <glyph glyph-name="B" unicode="B" horiz-adv-x="2177" 
d="M1595 0h-1450v1397h1444q229 0 331.5 -88.5t102.5 -259.5q-2 -120 -60.5 -202.5t-172.5 -115.5q287 -59 287 -360q0 -192 -115 -281.5t-367 -89.5zM1528 1202h-1137v-407h1159q108 0 174 51t66 153q0 105 -62 154t-200 49zM1573 612h-1182v-432h1161q157 0 223 48.5
t66 168.5q0 115 -68 165t-200 50z" />
    <glyph glyph-name="C" unicode="C" horiz-adv-x="2148" 
d="M354 696q0 -105 23 -183t76 -140t140 -100t214 -58t299 -20q393 0 911 112l47 -211q-217 -53 -474 -87t-492 -34q-518 0 -756 176.5t-238 544.5q0 369 238 545t756 176q235 0 492 -34t474 -87l-47 -211q-532 115 -911 115q-172 0 -299 -20t-214 -59t-140 -101t-76 -140.5
t-23 -183.5z" />
    <glyph glyph-name="D" unicode="D" horiz-adv-x="2312" 
d="M1393 0h-1248v1397h1248q205 0 354 -37.5t254.5 -119.5t157 -216t51.5 -324q0 -192 -52 -327t-158 -217t-254.5 -119t-352.5 -37zM395 1182v-967h975q317 0 449.5 110t132.5 375t-132 373.5t-450 108.5h-975z" />
    <glyph glyph-name="E" unicode="E" horiz-adv-x="2078" 
d="M1954 0h-1809v1397h1809v-201h-1559v-399h1520v-170h-1520v-426h1559v-201z" />
    <glyph glyph-name="F" unicode="F" horiz-adv-x="2050" 
d="M395 0h-250v1397h1809v-215h-1559v-437h1520v-200h-1520v-545z" />
    <glyph glyph-name="G" unicode="G" horiz-adv-x="2201" 
d="M104 698q0 368 246.5 543.5t784.5 175.5q230 0 479.5 -34t462.5 -87l-47 -211q-537 115 -912 115q-218 0 -365.5 -30t-235.5 -94t-125.5 -155t-37.5 -223t37.5 -223t125.5 -155.5t235.5 -94.5t365.5 -30q306 0 701 77v447h258v-621q-213 -53 -462.5 -87t-479.5 -34
q-538 0 -784.5 176t-246.5 545z" />
    <glyph glyph-name="H" unicode="H" horiz-adv-x="2207" 
d="M395 0h-250v1397h250v-563h1417v563h250v-1397h-250v616h-1417v-616z" />
    <glyph glyph-name="I" unicode="I" horiz-adv-x="540" 
d="M395 0h-250v1397h250v-1397z" />
    <glyph glyph-name="J" unicode="J" horiz-adv-x="1441" 
d="M498 184q170 0 279.5 21t175 71t91 122t25.5 184v815h250v-817q0 -155 -41 -265t-134.5 -189.5t-252 -118t-387.5 -38.5q-128 0 -262.5 18t-233.5 52l58 205q94 -29 213 -44.5t219 -15.5z" />
    <glyph glyph-name="K" unicode="K" horiz-adv-x="2136" 
d="M395 0h-250v1397h250v-789l355 246l876 543h354l-882 -576l913 -821h-334l-780 698l-502 -313v-385z" />
    <glyph glyph-name="L" unicode="L" horiz-adv-x="1961" 
d="M395 215h1526v-215h-1776v1397h250v-1182z" />
    <glyph glyph-name="M" unicode="M" horiz-adv-x="2842" 
d="M395 0h-250v1397h306l972 -1190l973 1190h301v-1397h-250v1100l-901 -1100h-252l-899 1100v-1100z" />
    <glyph glyph-name="N" unicode="N" horiz-adv-x="2258" 
d="M395 0h-250v1397h287l1432 -1127v1127h250v-1397h-285l-1434 1135v-1135z" />
    <glyph glyph-name="O" unicode="O" 
d="M1206 -25q-569 0 -835.5 174t-266.5 549t266.5 549t835.5 174t835.5 -174t266.5 -549t-266.5 -549t-835.5 -174zM1206 193q316 0 502.5 54.5t266 162.5t79.5 288t-79.5 288.5t-266 163t-502.5 54.5t-503.5 -54.5t-268 -163.5t-80.5 -288q0 -134 44 -227t144 -156.5
t263 -92.5t401 -29z" />
    <glyph glyph-name="P" unicode="P" horiz-adv-x="2105" 
d="M145 0v1397h1354q266 0 402.5 -108t136.5 -345q0 -246 -137 -360.5t-402 -114.5h-1104v-469h-250zM1479 1182h-1084v-498h1084q158 0 229.5 58.5t71.5 189.5q0 135 -71 192.5t-230 57.5z" />
    <glyph glyph-name="Q" unicode="Q" 
d="M1206 -25q-569 0 -835.5 174t-266.5 549t266.5 549t835.5 174t835.5 -174t266.5 -549q0 -310 -180.5 -481t-560.5 -221l452 -371h-305l-436 350h-72zM1206 193q316 0 502.5 54.5t266 162.5t79.5 288t-79.5 288.5t-266 163t-502.5 54.5t-503.5 -54.5t-268 -163.5
t-80.5 -288q0 -134 44 -227t144 -156.5t263 -92.5t401 -29z" />
    <glyph glyph-name="R" unicode="R" horiz-adv-x="2144" 
d="M395 0h-250v1397h1342q264 0 400 -109.5t136 -347.5q0 -220 -121.5 -332t-365.5 -121l-156 -2l125 -86l490 -399h-320l-573 475h-707v-475zM395 1182v-514h1075q158 0 227.5 60t69.5 196q0 139 -69 198.5t-228 59.5h-1075z" />
    <glyph glyph-name="S" unicode="S" horiz-adv-x="2056" 
d="M1948 371q0 -144 -76 -228t-265 -126t-524 -42q-232 0 -499 29t-453 72l35 205q211 -46 473.5 -75.5t501.5 -29.5q238 0 361.5 21t165.5 62t42 118q0 46 -12 78t-31 52t-55.5 33.5t-73.5 20t-96 12.5l-797 70q-279 21 -407.5 106t-128.5 271q0 146 85 232.5t272 126.5
t505 40q201 0 462 -26t451 -66l-41 -194q-184 36 -444 61t-479 25q-241 0 -364.5 -19.5t-166.5 -58.5t-43 -115q0 -40 13 -68.5t34 -47t60 -31.5t79 -19.5t103 -13.5l776 -66q108 -9 188 -25t148 -46t111 -74.5t66.5 -110.5t23.5 -153z" />
    <glyph glyph-name="T" unicode="T" horiz-adv-x="2076" 
d="M913 1182h-841v215h1933v-215h-842v-1182h-250v1182z" />
    <glyph glyph-name="U" unicode="U" horiz-adv-x="2187" 
d="M1812 727v670h250v-715q0 -237 -118 -396.5t-331.5 -234t-518.5 -74.5q-228 0 -405.5 42.5t-304 128.5t-193 220.5t-66.5 313.5v715h250v-670q0 -276 174.5 -404t544.5 -128t544 128t174 404z" />
    <glyph glyph-name="V" unicode="V" horiz-adv-x="2312" 
d="M991 0l-960 1397h305l823 -1192l821 1192h299l-958 -1397h-330z" />
    <glyph glyph-name="W" unicode="W" horiz-adv-x="3373" 
d="M735 0l-684 1397h283l567 -1168l633 1168h305l637 -1168l563 1168h281l-684 -1397h-316l-632 1161l-635 -1161h-318z" />
    <glyph glyph-name="X" unicode="X" horiz-adv-x="2297" 
d="M86 1397h379l690 -561l690 561h365l-860 -697l874 -700h-383l-692 565l-698 -565h-375l874 698z" />
    <glyph glyph-name="Y" unicode="Y" horiz-adv-x="2146" 
d="M948 553l-942 844h326l743 -654l744 654h321l-942 -846v-551h-250v553z" />
    <glyph glyph-name="Z" unicode="Z" horiz-adv-x="2222" 
d="M2085 215v-215h-1948v201l1198 768q102 54 441 190l-478 -16h-1124v217h1905v-203l-1116 -735q-145 -79 -506 -221l495 14h1133z" />
    <glyph glyph-name="bracketleft" unicode="[" horiz-adv-x="884" 
d="M791 -338h-603v1874h603v-178h-388v-1518h388v-178z" />
    <glyph glyph-name="backslash" unicode="\" horiz-adv-x="1253" 
d="M1235 -338h-211l-1006 1768h209z" />
    <glyph glyph-name="bracketright" unicode="]" horiz-adv-x="884" 
d="M696 -338h-604v178h389v1518h-389v178h604v-1874z" />
    <glyph glyph-name="asciicircum" unicode="^" horiz-adv-x="1517" 
d="M625 1335h270l461 -985h-244l-352 778l-357 -778h-241z" />
    <glyph glyph-name="underscore" unicode="_" horiz-adv-x="1695" 
d="M1597 -268h-1497v157h1497v-157z" />
    <glyph glyph-name="grave" unicode="`" horiz-adv-x="858" 
d="M500 1210l-357 279h303l289 -279h-235z" />
    <glyph glyph-name="a" unicode="a" horiz-adv-x="1835" 
d="M1698 975v-975h-205l-20 172q-408 -192 -760 -192q-609 0 -609 528q0 149 55 255t160 167.5t241.5 89t316.5 27.5q379 0 821 -72zM338 514q0 -180 99 -259t319 -79q290 0 708 156v479q-310 43 -612 43q-253 0 -383.5 -79.5t-130.5 -260.5z" />
    <glyph glyph-name="b" unicode="b" horiz-adv-x="1843" 
d="M145 0v1536h234v-645q396 160 745 160q615 0 615 -527q0 -524 -707 -524h-887zM1104 858q-288 0 -725 -153v-512h639q241 0 364 77t123 254q0 174 -96.5 254t-304.5 80z" />
    <glyph glyph-name="c" unicode="c" horiz-adv-x="1755" 
d="M104 516q0 285 209 410t682 125q355 0 658 -74l-49 -191q-287 64 -639 64q-345 0 -486 -72.5t-141 -261.5q0 -191 141 -264.5t486 -73.5q352 0 639 64l49 -191q-303 -74 -658 -74q-473 0 -682 126t-209 413z" />
    <glyph glyph-name="d" unicode="d" horiz-adv-x="1843" 
d="M1464 1536h234v-1536h-205l-20 170q-413 -190 -744 -190q-311 0 -468 125.5t-157 396.5q0 120 36 213t100 155.5t159.5 102t208.5 57t252 17.5q290 0 604 -56v545zM338 506q0 -174 101.5 -252t324.5 -78q293 0 700 148v483q-338 47 -620 47q-249 0 -377.5 -81.5
t-128.5 -266.5z" />
    <glyph glyph-name="e" unicode="e" horiz-adv-x="1802" 
d="M958 164q353 0 656 67l49 -176q-135 -35 -333.5 -57.5t-389.5 -22.5q-432 0 -634 124t-202 415q0 115 35 205t101.5 152.5t165.5 102.5t222.5 58.5t278.5 18.5q144 0 261.5 -15t218 -50.5t168.5 -90.5t106.5 -138t38.5 -190q0 -68 -8 -114h-1358q9 -70 38 -119.5
t76.5 -82.5t123.5 -52.5t167.5 -27t218.5 -7.5zM899 885q-281 0 -414 -67t-151 -232h1136q-9 105 -63 168.5t-177 97t-331 33.5z" />
    <glyph glyph-name="f" unicode="f" horiz-adv-x="1239" 
d="M494 0h-236v834h-217v192h217v25q0 253 167 381.5t497 128.5q222 0 452 -43l-43 -179q-231 35 -420 35q-226 0 -321.5 -74.5t-95.5 -234.5v-39h739v-192h-739v-834z" />
    <glyph glyph-name="g" unicode="g" horiz-adv-x="1832" 
d="M1706 975v-815q0 -301 -196.5 -428t-641.5 -127q-171 0 -368 25t-350 69l53 182q341 -90 678 -90q231 0 363.5 38.5t186.5 117t50 211.5l-4 49q-378 -156 -740 -156q-319 0 -476 118t-157 374q0 139 54.5 238t159.5 156.5t243.5 83.5t321.5 26q381 0 823 -72zM338 545
q0 -164 99.5 -236.5t318.5 -72.5q333 0 714 129v446q-313 43 -618 43q-253 0 -383.5 -72t-130.5 -237z" />
    <glyph glyph-name="h" unicode="h" horiz-adv-x="1824" 
d="M145 0v1536h234v-641q386 156 735 156q285 0 434.5 -119t149.5 -375v-557h-234v528q0 160 -102 242t-324 82q-266 0 -659 -129v-723h-234z" />
    <glyph glyph-name="i" unicode="i" horiz-adv-x="524" 
d="M379 1450v-276h-234v276h234zM145 0v1026h234v-1026h-234z" />
    <glyph glyph-name="j" unicode="j" horiz-adv-x="524" 
d="M379 1450v-276h-234v276h234zM197 -371h-250q39 52 67 97t61.5 114.5t51.5 153.5t18 176v856h234v-858q0 -100 -16.5 -187t-47 -154t-56.5 -109.5t-62 -88.5z" />
    <glyph glyph-name="k" unicode="k" horiz-adv-x="1677" 
d="M379 1536v-889h366l592 379h326l-711 -479l738 -547h-326l-629 455h-356v-455h-234v1536h234z" />
    <glyph glyph-name="l" unicode="l" horiz-adv-x="524" 
d="M379 1536v-1536h-234v1536h234z" />
    <glyph glyph-name="m" unicode="m" horiz-adv-x="2910" 
d="M145 0v1026h205l19 -141q379 166 665 166q335 0 465 -183q414 183 737 183q268 0 407.5 -118.5t139.5 -375.5v-557h-233v528q0 160 -93.5 242t-295.5 82q-242 0 -600 -123q20 -70 20 -172v-557h-233v528q0 160 -94 242t-296 82q-213 0 -579 -127v-725h-234z" />
    <glyph glyph-name="n" unicode="n" horiz-adv-x="1824" 
d="M145 0v1026h205l19 -143q401 168 743 168q286 0 436 -118.5t150 -375.5v-557h-234v528q0 160 -102 242t-324 82q-266 0 -659 -129v-723h-234z" />
    <glyph glyph-name="o" unicode="o" horiz-adv-x="1957" 
d="M104 514q0 279 213 409t662 130q450 0 662 -130t212 -409t-212 -409t-662 -130q-449 0 -662 130t-213 409zM338 514q0 -123 61 -196t200.5 -107.5t379.5 -34.5t379.5 34.5t200.5 107.5t61 196q0 122 -61 195t-201 108t-379 35t-379 -35t-201 -108t-61 -195z" />
    <glyph glyph-name="p" unicode="p" horiz-adv-x="1843" 
d="M381 -379h-236v1405h205l23 -170q407 191 757 191q300 0 454.5 -127.5t154.5 -395.5q0 -148 -52.5 -254.5t-153.5 -169t-234 -91.5t-308 -29q-283 0 -610 57v-416zM1090 850q-290 0 -709 -148v-483q338 -47 625 -47q247 0 373 81.5t126 266.5q0 173 -98.5 251.5
t-316.5 78.5z" />
    <glyph glyph-name="q" unicode="q" horiz-adv-x="1824" 
d="M1698 975v-1344h-234v537q-408 -188 -751 -188q-299 0 -454 127t-155 397q0 121 36 214t100.5 154.5t161 101t210.5 56.5t256 17q412 0 830 -72zM338 514q0 -180 99 -259t319 -79q290 0 708 156v479q-313 43 -620 43q-251 0 -378.5 -79.5t-127.5 -260.5z" />
    <glyph glyph-name="r" unicode="r" horiz-adv-x="1230" 
d="M145 0v1026h205l21 -207q384 232 778 232v-213q-207 0 -388.5 -41.5t-381.5 -137.5v-659h-234z" />
    <glyph glyph-name="s" unicode="s" horiz-adv-x="1658" 
d="M1567 270q0 -169 -152 -232t-534 -63t-756 74l41 160q382 -70 731 -70q268 0 358.5 25t90.5 108q0 34 -13 57.5t-35.5 39t-67.5 25.5t-93.5 16t-128.5 12l-467 29q-114 7 -191 24t-135 51t-84.5 90t-26.5 138q0 73 30.5 125t87 85.5t149 53.5t202.5 27.5t263 7.5
q134 0 320 -17.5t335 -40.5l-35 -159q-360 55 -670 55q-266 0 -363 -27t-97 -108q0 -33 12 -55.5t29.5 -36t52 -22t64 -12t81.5 -7.5l488 -33q135 -8 226.5 -26.5t158.5 -55t98 -95t31 -143.5z" />
    <glyph glyph-name="t" unicode="t" horiz-adv-x="1495" 
d="M281 508v326h-252v192h256l41 262h190v-262h864v-192h-864v-308q0 -100 18.5 -164.5t65 -107.5t122 -60.5t193.5 -17.5q215 0 484 60l45 -189q-282 -72 -547 -72q-329 0 -472.5 122t-143.5 411z" />
    <glyph glyph-name="u" unicode="u" horiz-adv-x="1828" 
d="M127 467v559h233v-528q0 -160 105.5 -242t333.5 -82q260 0 659 133v719h234v-1026h-203l-21 147q-409 -172 -743 -172q-293 0 -445.5 118t-152.5 374z" />
    <glyph glyph-name="v" unicode="v" horiz-adv-x="1849" 
d="M1837 1026l-801 -1026h-282l-742 1026h279l606 -840l666 840h274z" />
    <glyph glyph-name="w" unicode="w" horiz-adv-x="2662" 
d="M1176 1026h297l514 -833l413 833h250l-532 -1026h-263l-534 864l-537 -864h-262l-510 1026h248l408 -833z" />
    <glyph glyph-name="x" unicode="x" horiz-adv-x="1847" 
d="M346 0h-330l738 524l-723 502h336l559 -385l557 385h329l-720 -504l743 -522h-336l-577 406z" />
    <glyph glyph-name="y" unicode="y" horiz-adv-x="1873" 
d="M127 567v459h233v-426q0 -170 106.5 -242.5t356.5 -72.5q307 0 672 106v635h234v-844q0 -164 -46.5 -274.5t-148.5 -177.5t-251.5 -96t-369.5 -29q-183 0 -374.5 26t-337.5 68l45 184q359 -92 682 -92q326 0 454.5 82.5t122.5 290.5l-6 63q-379 -139 -729 -139
q-339 0 -491 115t-152 364z" />
    <glyph glyph-name="z" unicode="z" horiz-adv-x="1740" 
d="M1642 168v-168h-1542v168l693 426q189 104 573 264h-1245v168h1521v-168l-647 -403q-107 -61 -221 -116t-239 -109.5t-140 -61.5h1247z" />
    <glyph glyph-name="braceleft" unicode="{" horiz-adv-x="1150" 
d="M53 487v224q166 0 244 51t78 186v232q0 189 106 282.5t326 93.5q157 0 291 -34l-29 -197q-143 29 -225 29q-135 0 -194.5 -47t-59.5 -170v-230q0 -136 -63.5 -213.5t-204.5 -95.5q141 -17 204.5 -94t63.5 -213v-230q0 -123 60 -171t194 -48q73 0 225 31l29 -197
q-134 -34 -291 -34q-220 0 -326 93.5t-106 280.5v232q0 135 -78 187t-244 52z" />
    <glyph glyph-name="bar" unicode="|" horiz-adv-x="485" 
d="M340 -338h-195v1858h195v-1858z" />
    <glyph glyph-name="braceright" unicode="}" horiz-adv-x="1150" 
d="M1098 711v-224q-166 0 -244 -52t-78 -187v-232q0 -187 -106 -280.5t-324 -93.5q-159 0 -293 34l31 197q152 -31 223 -31q134 0 195 48t61 171v230q0 137 62.5 213.5t203.5 93.5q-141 18 -203.5 95t-62.5 214v230q0 123 -60.5 170t-195.5 47q-80 0 -223 -29l-31 197
q134 34 293 34q218 0 324 -93.5t106 -282.5v-232q0 -135 78 -186t244 -51z" />
    <glyph glyph-name="asciitilde" unicode="~" horiz-adv-x="1568" 
d="M1073 508q-100 0 -200 24.5t-195.5 49t-183.5 24.5q-156 0 -318 -100l-67 156q178 135 385 135q70 0 146.5 -15.5t134 -34t138.5 -34t158 -15.5q152 0 322 105l67 -156q-180 -139 -387 -139z" />
    <glyph glyph-name="nbspace" unicode="&#xa0;" horiz-adv-x="751" 
 />
    <glyph glyph-name="exclamdown" unicode="&#xa1;" horiz-adv-x="493" 
d="M127 688v340h242v-340h-242zM125 76l33 518h178l33 -518v-445h-244v445z" />
    <glyph glyph-name="cent" unicode="&#xa2;" horiz-adv-x="1753" 
d="M104 621q0 266 179.5 391.5t580.5 140.5v244h178v-242q327 -6 611 -72l-49 -192q-243 56 -562 63v-671q319 7 562 63l49 -190q-294 -69 -611 -74v-242h-178v244q-401 17 -580.5 144t-179.5 393zM338 621q0 -177 119.5 -252t406.5 -84v667q-287 -8 -406.5 -81.5
t-119.5 -249.5z" />
    <glyph glyph-name="sterling" unicode="&#xa3;" horiz-adv-x="2396" 
d="M117 -20v206q136 65 323 74v332h-323v160h323v2q0 325 230.5 478.5t693.5 153.5q424 0 852 -102l-49 -209q-449 96 -795 96q-354 0 -518 -96t-164 -323h1247v-160h-1247v-332q128 -7 491 -47.5t554 -40.5q244 0 491 74l58 -197q-100 -41 -246.5 -63.5t-298.5 -22.5
q-217 0 -616 47t-572 47q-132 0 -231 -18t-203 -59z" />
    <glyph glyph-name="currency" unicode="&#xa4;" horiz-adv-x="1775" 
d="M193 616q0 255 217 365l-222 209h211l164 -154q129 33 328 33q181 0 317 -31l164 152h209l-217 -205q223 -110 223 -369q0 -256 -223 -366l217 -205h-203l-161 152q-129 -33 -326 -33q-196 0 -336 35l-164 -154h-203l220 207q-215 111 -215 364zM1384 616
q0 149 -118.5 220t-374.5 71t-375 -71t-119 -220t119 -219.5t375 -70.5t374.5 70.5t118.5 219.5z" />
    <glyph glyph-name="yen" unicode="&#xa5;" horiz-adv-x="2146" 
d="M1929 238h-731v-238h-250v238h-729v153h729v154h-729v153h567l-780 699h326l743 -654l744 654h321l-778 -699h567v-153h-731v-154h731v-153z" />
    <glyph glyph-name="brokenbar" unicode="&#xa6;" horiz-adv-x="446" 
d="M301 1509v-690h-156v690h156zM145 -338v688h156v-688h-156z" />
    <glyph glyph-name="section" unicode="&#xa7;" horiz-adv-x="1671" 
d="M836 -27q-139 0 -327.5 16t-328.5 40l35 176q379 -58 670 -58q266 0 363.5 27.5t97.5 110.5q0 30 -12 51.5t-29.5 34t-52 21t-64.5 12.5t-82 8l-555 41q-96 7 -162 17t-123.5 27.5t-91 43t-52 63.5t-18.5 90q0 189 263 226q-263 39 -263 231q0 154 173 213t559 59
q141 0 329 -16t326 -39l-35 -176q-373 57 -678 57q-262 0 -357 -27t-95 -110q0 -30 12 -51.5t29.5 -34t51.5 -21t64.5 -12.5t81.5 -8l555 -41q96 -7 162 -17t123.5 -27t91 -41.5t52 -61.5t18.5 -88q0 -102 -67.5 -161t-194.5 -71q262 -38 262 -231q0 -154 -173 -213.5
t-558 -59.5zM633 565l387 -28q186 -13 264 21.5t78 127.5q0 77 -70.5 104.5t-253.5 40.5l-379 27q-191 15 -270.5 -19.5t-79.5 -127.5q0 -77 70.5 -105t253.5 -41z" />
    <glyph glyph-name="dieresis" unicode="&#xa8;" horiz-adv-x="933" 
d="M334 1479v-277h-209v277h209zM809 1479v-277h-209v277h209z" />
    <glyph glyph-name="copyright" unicode="&#xa9;" horiz-adv-x="2527" 
d="M1264 1421q579 0 842.5 -185.5t263.5 -567.5q0 -151 -39.5 -270t-124 -210.5t-214.5 -151.5t-312 -91t-416 -31q-291 0 -501.5 47.5t-344 143.5t-197 235.5t-63.5 329.5q0 380 265 565.5t841 185.5zM1264 47q265 0 449.5 38t296.5 117.5t162 193t50 272.5t-50 272
t-162 192.5t-296.5 117.5t-449.5 38q-351 0 -564.5 -70t-305 -203.5t-91.5 -344.5q0 -160 50.5 -273.5t163.5 -193.5t298 -118t449 -38zM1821 860q-209 49 -566 49q-266 0 -374.5 -52.5t-108.5 -190.5q0 -139 108.5 -192.5t374.5 -53.5q348 0 566 51l24 -145
q-282 -62 -590 -62q-357 0 -511 95t-154 307q0 210 154.5 305.5t510.5 95.5q319 0 590 -63z" />
    <glyph glyph-name="ordfeminine" unicode="&#xaa;" horiz-adv-x="1515" 
d="M1204 653l-16 125q-300 -145 -574 -145q-246 0 -373.5 93t-127.5 298q0 87 28 154.5t77.5 112t123 73.5t159.5 41t193 12q334 0 672 -80v-684h-162zM680 1270q-89 0 -155 -11t-119.5 -37.5t-81 -75t-27.5 -118.5q0 -73 24 -122t72 -75t107.5 -36.5t142.5 -10.5
q262 0 539 113v322q-278 51 -502 51z" />
    <glyph glyph-name="guillemotleft" unicode="&#xab;" horiz-adv-x="1732" 
d="M860 55l-743 365v221l743 365v-199l-567 -277l567 -276v-199zM1616 55l-744 365v221l744 365v-199l-565 -277l565 -276v-199z" />
    <glyph glyph-name="logicalnot" unicode="&#xac;" horiz-adv-x="1486" 
d="M1139 303v365h-1022v200h1253v-565h-231z" />
    <glyph glyph-name="softhyphen" unicode="&#xad;" horiz-adv-x="1079" 
d="M979 442h-879v189h879v-189z" />
    <glyph glyph-name="registered" unicode="&#xae;" horiz-adv-x="2527" 
d="M1264 1421q579 0 842.5 -185.5t263.5 -567.5q0 -151 -39.5 -270t-124 -210.5t-214.5 -151.5t-312 -91t-416 -31q-291 0 -501.5 47.5t-344 143.5t-197 235.5t-63.5 329.5q0 380 265 565.5t841 185.5zM1264 47q267 0 450 36.5t296 114.5t162.5 192t49.5 278
q0 220 -91 353.5t-302 200t-565 66.5t-565 -66.5t-303.5 -199.5t-92.5 -352q0 -165 50.5 -279.5t164 -192.5t297 -114.5t449.5 -36.5zM930 516v-250h-180v799h706q205 0 296 -62t91 -215q0 -144 -94 -205t-276 -61l118 -84l230 -172h-230l-323 250h-338zM1444 928h-514v-299
h514q117 0 168 34.5t51 114.5q0 82 -50.5 116t-168.5 34z" />
    <glyph glyph-name="macron" unicode="&#xaf;" horiz-adv-x="1007" 
d="M883 1278h-758v154h758v-154z" />
    <glyph glyph-name="degree" unicode="&#xb0;" horiz-adv-x="1386" 
d="M696 1421q290 0 432 -92.5t142 -298.5q0 -205 -142.5 -299t-431.5 -94q-292 0 -435.5 94t-143.5 299q0 206 143 298.5t436 92.5zM313 1030q0 -129 87.5 -180t293.5 -51q205 0 292 50.5t87 180.5t-86.5 181t-292.5 51q-204 0 -292.5 -51.5t-88.5 -180.5z" />
    <glyph glyph-name="plusminus" unicode="&#xb1;" horiz-adv-x="1533" 
d="M1393 129h-1252v184h527v297h-527v185h527v317h194v-317h531v-185h-531v-297h531v-184z" />
    <glyph glyph-name="twosuperior" unicode="&#xb2;" horiz-adv-x="1095" 
d="M668 977l-299 -96q164 14 368 14h250v-115h-858v125l510 156q114 37 149 63.5t35 77.5q0 63 -58.5 87t-176.5 24q-156 0 -436 -43l-7 110q212 41 449 41q198 0 294.5 -50t96.5 -157q0 -42 -14.5 -74.5t-36 -54t-67 -42t-86 -33.5t-113.5 -33z" />
    <glyph glyph-name="threesuperior" unicode="&#xb3;" horiz-adv-x="1081" 
d="M530 762q-210 0 -401 37l8 108q202 -35 398 -35q114 0 175.5 9t87 29t25.5 57q0 44 -35 63t-129 19h-395v102h393q90 0 124 19t34 61q0 45 -57.5 62.5t-212.5 17.5q-185 0 -387 -33l-6 108q178 35 407 35q213 0 303 -43.5t90 -136.5q0 -97 -102 -137q113 -42 113 -148
q0 -68 -38.5 -109t-134.5 -63t-260 -22z" />
    <glyph glyph-name="acute" unicode="&#xb4;" horiz-adv-x="858" 
d="M485 1489h303l-358 -279h-235z" />
    <glyph glyph-name="paragraph" unicode="&#xb6;" horiz-adv-x="2091" 
d="M117 1036q0 202 166 293.5t518 91.5q360 0 598 -24v-1397h-162v672q-237 -27 -477 -27q-316 0 -479.5 93.5t-163.5 297.5zM1819 1397v-1397h-162v1397h162z" />
    <glyph glyph-name="periodcentered" unicode="&#xb7;" horiz-adv-x="491" 
d="M367 866v-338h-242v338h242z" />
    <glyph glyph-name="cedilla" unicode="&#xb8;" horiz-adv-x="755" 
d="M477 -92h154v-64q0 -130 -63 -187.5t-220 -57.5q-104 0 -223 28l31 133q113 -20 182 -20q75 0 107 25t32 88v55z" />
    <glyph glyph-name="onesuperior" unicode="&#xb9;" horiz-adv-x="651" 
d="M545 774h-150v397q0 28 4 82l-293 -92v133l297 103h142v-623z" />
    <glyph glyph-name="ordmasculine" unicode="&#xba;" horiz-adv-x="1476" 
d="M1364 1020q0 -202 -157 -298.5t-468 -96.5q-313 0 -469.5 96.5t-156.5 298.5t157 299.5t469 97.5q625 0 625 -397zM1180 1020q0 132 -102.5 190t-336.5 58q-236 0 -340 -58.5t-104 -189.5q0 -132 102.5 -190t337.5 -58q236 0 339.5 58t103.5 190z" />
    <glyph glyph-name="guillemotright" unicode="&#xbb;" horiz-adv-x="1732" 
d="M872 1006l744 -365v-221l-744 -365v199l568 276l-568 277v199zM117 1006l743 -365v-221l-743 -365v199l565 276l-565 277v199z" />
    <glyph glyph-name="onequarter" unicode="&#xbc;" horiz-adv-x="2287" 
d="M545 774h-150v397q0 28 4 82l-293 -92v133l297 103h142v-623zM389 0h-231l1482 1397h230zM2007 0h-145v119h-693v106l693 398h145v-392h174v-112h-174v-119zM1354 221v-6q152 16 252 16h256v254l-279 -161q-137 -64 -229 -103z" />
    <glyph glyph-name="onehalf" unicode="&#xbd;" horiz-adv-x="2361" 
d="M545 774h-150v397q0 28 4 82l-293 -92v133l297 103h142v-623zM389 0h-231l1482 1397h230zM1933 197l-299 -97q202 17 371 17h250v-117h-858v125l510 158q114 38 149 64t35 77q0 61 -58.5 84.5t-177.5 23.5q-189 0 -436 -43l-6 113q212 41 449 41q197 0 294 -50.5
t97 -158.5q0 -42 -14.5 -73.5t-36.5 -53t-68 -42.5t-86 -34t-115 -34z" />
    <glyph glyph-name="threequarters" unicode="&#xbe;" horiz-adv-x="2557" 
d="M530 762q-210 0 -401 37l8 108q202 -35 398 -35q114 0 175.5 9t87 29t25.5 57q0 44 -35 63t-129 19h-395v102h393q90 0 124 19t34 61q0 45 -57.5 62.5t-212.5 17.5q-185 0 -387 -33l-6 108q178 35 407 35q213 0 303 -43.5t90 -136.5q0 -97 -102 -137q113 -42 113 -148
q0 -68 -38.5 -109t-134.5 -63t-260 -22zM659 0h-231l1481 1397h231zM2275 0h-145v119h-690v106l690 398h145v-392h174v-112h-174v-119zM1622 221v-6q156 16 252 16h256v252l-279 -159q-159 -74 -229 -103z" />
    <glyph glyph-name="questiondown" unicode="&#xbf;" horiz-adv-x="1648" 
d="M967 696v330h243v-330h-243zM750 473h446v-164h-426q-227 0 -321.5 -49t-94.5 -182q0 -135 110 -184.5t376 -49.5q324 0 692 54l33 -199q-379 -59 -711 -59q-403 0 -576.5 95t-173.5 326q0 219 152.5 315.5t493.5 96.5z" />
    <glyph glyph-name="Agrave" unicode="&#xc0;" horiz-adv-x="2267" 
d="M1053 1495l-346 279h303l276 -279h-233zM1968 0l-219 319h-1233l-217 -319h-301l971 1397h329l973 -1397h-303zM639 500h987l-493 723z" />
    <glyph glyph-name="Aacute" unicode="&#xc1;" horiz-adv-x="2267" 
d="M1286 1774h301l-346 -279h-233zM1968 0l-219 319h-1233l-217 -319h-301l971 1397h329l973 -1397h-303zM639 500h987l-493 723z" />
    <glyph glyph-name="Acircumflex" unicode="&#xc2;" horiz-adv-x="2267" 
d="M1569 1495h-226l-213 168l-215 -168h-225l330 281h219zM1968 0l-219 319h-1233l-217 -319h-301l971 1397h329l973 -1397h-303zM639 500h987l-493 723z" />
    <glyph glyph-name="Atilde" unicode="&#xc3;" horiz-adv-x="2267" 
d="M756 1505v144q90 63 194 63q83 0 214.5 -30.5t183.5 -30.5q50 0 86 13.5t84 43.5v-145q-75 -58 -166 -58q-63 0 -199 34t-203 34q-98 0 -194 -68zM1968 0l-219 319h-1233l-217 -319h-301l971 1397h329l973 -1397h-303zM639 500h987l-493 723z" />
    <glyph glyph-name="Adieresis" unicode="&#xc4;" horiz-adv-x="2267" 
d="M995 1772v-277h-209v277h209zM1473 1772v-277h-209v277h209zM1968 0l-219 319h-1233l-217 -319h-301l971 1397h329l973 -1397h-303zM639 500h987l-493 723z" />
    <glyph glyph-name="Aring" unicode="&#xc5;" horiz-adv-x="2267" 
d="M1128 1489q-290 0 -290 211q0 201 290 201q289 0 289 -201q0 -106 -71 -158.5t-218 -52.5zM961 1698q0 -55 36.5 -81t130.5 -26q95 0 130.5 25.5t35.5 81.5q0 52 -35.5 76t-130.5 24q-94 0 -130.5 -24t-36.5 -76zM1968 0l-219 319h-1233l-217 -319h-301l971 1397h329
l973 -1397h-303zM639 500h987l-493 723z" />
    <glyph glyph-name="AE" unicode="&#xc6;" horiz-adv-x="3610" 
d="M332 0h-334l1620 1397h1868v-201h-1487v-399h1446v-170h-1444v-426h1485v-201h-1735v319h-1046zM1751 1212l-840 -712h840v712z" />
    <glyph glyph-name="Ccedilla" unicode="&#xc7;" horiz-adv-x="2148" 
d="M354 696q0 -105 23 -183t76 -140t140 -100t214 -58t299 -20q393 0 911 112l47 -211q-217 -53 -474 -87t-492 -34q-518 0 -756 176.5t-238 544.5q0 369 238 545t756 176q235 0 492 -34t474 -87l-47 -211q-532 115 -911 115q-172 0 -299 -20t-214 -59t-140 -101t-76 -140.5
t-23 -183.5zM1114 -92h154v-64q0 -130 -63 -187.5t-220 -57.5q-104 0 -223 28l31 133q113 -20 182 -20q75 0 107 25t32 88v55z" />
    <glyph glyph-name="Egrave" unicode="&#xc8;" horiz-adv-x="2078" 
d="M1055 1497l-346 279h303l278 -279h-235zM1954 0h-1809v1397h1809v-201h-1559v-399h1520v-170h-1520v-426h1559v-201z" />
    <glyph glyph-name="Eacute" unicode="&#xc9;" horiz-adv-x="2078" 
d="M1288 1776h303l-348 -279h-233zM1954 0h-1809v1397h1809v-201h-1559v-399h1520v-170h-1520v-426h1559v-201z" />
    <glyph glyph-name="Ecircumflex" unicode="&#xca;" horiz-adv-x="2078" 
d="M1571 1497h-225l-213 168l-215 -168h-226l330 279h219zM1954 0h-1809v1397h1809v-201h-1559v-399h1520v-170h-1520v-426h1559v-201z" />
    <glyph glyph-name="Edieresis" unicode="&#xcb;" horiz-adv-x="2078" 
d="M999 1774v-277h-211v277h211zM1475 1774v-277h-209v277h209zM1954 0h-1809v1397h1809v-201h-1559v-399h1520v-170h-1520v-426h1559v-201z" />
    <glyph glyph-name="Igrave" unicode="&#xcc;" horiz-adv-x="540" 
d="M193 1495l-347 279h304l276 -279h-233zM395 0h-250v1397h250v-1397z" />
    <glyph glyph-name="Iacute" unicode="&#xcd;" horiz-adv-x="540" 
d="M426 1774h303l-348 -279h-234zM395 0h-250v1397h250v-1397z" />
    <glyph glyph-name="Icircumflex" unicode="&#xce;" horiz-adv-x="540" 
d="M709 1495h-226l-213 168l-215 -168h-225l330 281h219zM395 0h-250v1397h250v-1397z" />
    <glyph glyph-name="Idieresis" unicode="&#xcf;" horiz-adv-x="540" 
d="M135 1772v-277h-209v277h209zM612 1772v-277h-209v277h209zM395 0h-250v1397h250v-1397z" />
    <glyph glyph-name="Eth" unicode="&#xd0;" horiz-adv-x="2369" 
d="M203 618h-183v156h183v623h1245q205 0 354 -37.5t254.5 -119.5t157 -216t51.5 -324q0 -192 -52 -327t-158 -217t-254.5 -119t-352.5 -37h-1245v618zM453 627v-412h974q317 0 448.5 110t131.5 375t-131.5 373.5t-448.5 108.5h-974v-416h608v-139h-608z" />
    <glyph glyph-name="Ntilde" unicode="&#xd1;" horiz-adv-x="2258" 
d="M768 1507v142q93 65 197 65q83 0 213 -31.5t184 -31.5q49 0 85.5 14.5t82.5 44.5v-147q-78 -56 -164 -56q-63 0 -199.5 34t-203.5 34q-96 0 -195 -68zM395 0h-250v1397h287l1432 -1127v1127h250v-1397h-285l-1434 1135v-1135z" />
    <glyph glyph-name="Ograve" unicode="&#xd2;" 
d="M1130 1497l-348 279h303l279 -279h-234zM1206 -25q-569 0 -835.5 174t-266.5 549t266.5 549t835.5 174t835.5 -174t266.5 -549t-266.5 -549t-835.5 -174zM1206 193q316 0 502.5 54.5t266 162.5t79.5 288t-79.5 288.5t-266 163t-502.5 54.5t-503.5 -54.5t-268 -163.5
t-80.5 -288q0 -134 44 -227t144 -156.5t263 -92.5t401 -29z" />
    <glyph glyph-name="Oacute" unicode="&#xd3;" 
d="M1362 1776h303l-346 -279h-234zM1206 -25q-569 0 -835.5 174t-266.5 549t266.5 549t835.5 174t835.5 -174t266.5 -549t-266.5 -549t-835.5 -174zM1206 193q316 0 502.5 54.5t266 162.5t79.5 288t-79.5 288.5t-266 163t-502.5 54.5t-503.5 -54.5t-268 -163.5t-80.5 -288
q0 -134 44 -227t144 -156.5t263 -92.5t401 -29z" />
    <glyph glyph-name="Ocircumflex" unicode="&#xd4;" 
d="M1647 1497h-228l-213 168l-213 -168h-227l330 279h221zM1206 -25q-569 0 -835.5 174t-266.5 549t266.5 549t835.5 174t835.5 -174t266.5 -549t-266.5 -549t-835.5 -174zM1206 193q316 0 502.5 54.5t266 162.5t79.5 288t-79.5 288.5t-266 163t-502.5 54.5t-503.5 -54.5
t-268 -163.5t-80.5 -288q0 -134 44 -227t144 -156.5t263 -92.5t401 -29z" />
    <glyph glyph-name="Otilde" unicode="&#xd5;" 
d="M831 1507v142q93 65 197 65q83 0 213 -31.5t184 -31.5q49 0 85.5 14.5t82.5 44.5v-147q-78 -56 -163 -56q-63 0 -200 34t-204 34q-96 0 -195 -68zM1206 -25q-569 0 -835.5 174t-266.5 549t266.5 549t835.5 174t835.5 -174t266.5 -549t-266.5 -549t-835.5 -174zM1206 193
q316 0 502.5 54.5t266 162.5t79.5 288t-79.5 288.5t-266 163t-502.5 54.5t-503.5 -54.5t-268 -163.5t-80.5 -288q0 -134 44 -227t144 -156.5t263 -92.5t401 -29z" />
    <glyph glyph-name="Odieresis" unicode="&#xd6;" 
d="M1073 1774v-277h-209v277h209zM1550 1774v-277h-211v277h211zM1206 -25q-569 0 -835.5 174t-266.5 549t266.5 549t835.5 174t835.5 -174t266.5 -549t-266.5 -549t-835.5 -174zM1206 193q316 0 502.5 54.5t266 162.5t79.5 288t-79.5 288.5t-266 163t-502.5 54.5
t-503.5 -54.5t-268 -163.5t-80.5 -288q0 -134 44 -227t144 -156.5t263 -92.5t401 -29z" />
    <glyph glyph-name="multiply" unicode="&#xd7;" horiz-adv-x="1480" 
d="M1364 381l-92 -158l-533 314l-530 -314l-92 158l450 254l-450 254l92 160l530 -316l533 316l92 -160l-453 -254z" />
    <glyph glyph-name="Oslash" unicode="&#xd8;" 
d="M467 -57h-227l202 166q-338 170 -338 589q0 375 266.5 549t835.5 174q448 0 707 -106l129 106h227l-219 -180q258 -173 258 -543q0 -375 -266.5 -549t-835.5 -174q-372 0 -610 72zM354 698q0 -162 67 -267.5t216 -162.5l1075 883q-192 53 -506 53q-316 0 -503.5 -54.5
t-268 -163.5t-80.5 -288zM1206 193q316 0 502.5 54.5t266 162.5t79.5 288q0 137 -45.5 232t-146.5 157l-1055 -866q173 -28 399 -28z" />
    <glyph glyph-name="Ugrave" unicode="&#xd9;" horiz-adv-x="2187" 
d="M1016 1495l-346 279h303l276 -279h-233zM1812 727v670h250v-715q0 -237 -118 -396.5t-331.5 -234t-518.5 -74.5q-228 0 -405.5 42.5t-304 128.5t-193 220.5t-66.5 313.5v715h250v-670q0 -276 174.5 -404t544.5 -128t544 128t174 404z" />
    <glyph glyph-name="Uacute" unicode="&#xda;" horiz-adv-x="2187" 
d="M1249 1774h303l-348 -279h-233zM1812 727v670h250v-715q0 -237 -118 -396.5t-331.5 -234t-518.5 -74.5q-228 0 -405.5 42.5t-304 128.5t-193 220.5t-66.5 313.5v715h250v-670q0 -276 174.5 -404t544.5 -128t544 128t174 404z" />
    <glyph glyph-name="Ucircumflex" unicode="&#xdb;" horiz-adv-x="2187" 
d="M1532 1495h-225l-213 168l-215 -168h-226l330 281h219zM1812 727v670h250v-715q0 -237 -118 -396.5t-331.5 -234t-518.5 -74.5q-228 0 -405.5 42.5t-304 128.5t-193 220.5t-66.5 313.5v715h250v-670q0 -276 174.5 -404t544.5 -128t544 128t174 404z" />
    <glyph glyph-name="Udieresis" unicode="&#xdc;" horiz-adv-x="2187" 
d="M958 1772v-277h-208v277h208zM1436 1772v-277h-209v277h209zM1812 727v670h250v-715q0 -237 -118 -396.5t-331.5 -234t-518.5 -74.5q-228 0 -405.5 42.5t-304 128.5t-193 220.5t-66.5 313.5v715h250v-670q0 -276 174.5 -404t544.5 -128t544 128t174 404z" />
    <glyph glyph-name="Yacute" unicode="&#xdd;" horiz-adv-x="2146" 
d="M1231 1776h303l-348 -279h-234zM948 553l-942 844h326l743 -654l744 654h321l-942 -846v-551h-250v553z" />
    <glyph glyph-name="Thorn" unicode="&#xde;" horiz-adv-x="2105" 
d="M395 0h-250v1397h250v-246h1104q266 0 402.5 -108t136.5 -345q0 -234 -137 -343t-402 -109h-1104v-246zM395 946v-495h1084q158 0 229.5 57.5t71.5 189.5q0 134 -71 191t-230 57h-1084z" />
    <glyph glyph-name="germandbls" unicode="&#xdf;" horiz-adv-x="1955" 
d="M1217 -20q-339 -3 -662 75l33 195q330 -70 616 -70q224 0 321 57.5t97 208.5q0 136 -72 195t-233 59h-727v179h713q136 0 201 48t65 165q0 106 -46 161t-160 79t-335 24q-140 0 -238.5 -10t-180 -35.5t-129.5 -70t-73.5 -112.5t-25.5 -163v-965h-236v944q0 139 38.5 243
t110.5 174t184 114t248.5 62.5t313.5 18.5q279 0 448 -48.5t241.5 -142t72.5 -243.5q0 -261 -280 -321q166 -31 249.5 -127t83.5 -266q0 -216 -158 -322t-480 -106z" />
    <glyph glyph-name="agrave" unicode="&#xe0;" horiz-adv-x="1835" 
d="M858 1219l-356 276h303l289 -276h-236zM1698 975v-975h-205l-20 172q-408 -192 -760 -192q-609 0 -609 528q0 149 55 255t160 167.5t241.5 89t316.5 27.5q379 0 821 -72zM338 514q0 -180 99 -259t319 -79q290 0 708 156v479q-310 43 -612 43q-253 0 -383.5 -79.5
t-130.5 -260.5z" />
    <glyph glyph-name="aacute" unicode="&#xe1;" horiz-adv-x="1835" 
d="M1149 1495h303l-358 -276h-234zM1698 975v-975h-205l-20 172q-408 -192 -760 -192q-609 0 -609 528q0 149 55 255t160 167.5t241.5 89t316.5 27.5q379 0 821 -72zM338 514q0 -180 99 -259t319 -79q290 0 708 156v479q-310 43 -612 43q-253 0 -383.5 -79.5t-130.5 -260.5z
" />
    <glyph glyph-name="acircumflex" unicode="&#xe2;" horiz-adv-x="1835" 
d="M1421 1217h-227l-213 167l-213 -167h-227l329 278h222zM1698 975v-975h-205l-20 172q-408 -192 -760 -192q-609 0 -609 528q0 149 55 255t160 167.5t241.5 89t316.5 27.5q379 0 821 -72zM338 514q0 -180 99 -259t319 -79q290 0 708 156v479q-310 43 -612 43
q-253 0 -383.5 -79.5t-130.5 -260.5z" />
    <glyph glyph-name="atilde" unicode="&#xe3;" horiz-adv-x="1835" 
d="M610 1229v141q94 66 195 66q83 0 214 -32t183 -32q35 0 67 9t51 19t52 30v-146q-77 -55 -164 -55q-64 0 -200 32.5t-203 32.5q-103 0 -195 -65zM1698 975v-975h-205l-20 172q-408 -192 -760 -192q-609 0 -609 528q0 149 55 255t160 167.5t241.5 89t316.5 27.5
q379 0 821 -72zM338 514q0 -180 99 -259t319 -79q290 0 708 156v479q-310 43 -612 43q-253 0 -383.5 -79.5t-130.5 -260.5z" />
    <glyph glyph-name="adieresis" unicode="&#xe4;" horiz-adv-x="1835" 
d="M846 1487v-277h-209v277h209zM1323 1487v-277h-209v277h209zM1698 975v-975h-205l-20 172q-408 -192 -760 -192q-609 0 -609 528q0 149 55 255t160 167.5t241.5 89t316.5 27.5q379 0 821 -72zM338 514q0 -180 99 -259t319 -79q290 0 708 156v479q-310 43 -612 43
q-253 0 -383.5 -79.5t-130.5 -260.5z" />
    <glyph glyph-name="aring" unicode="&#xe5;" horiz-adv-x="1835" 
d="M981 1200q-291 0 -291 209q0 203 291 203q289 0 289 -203q0 -209 -289 -209zM813 1409q0 -55 36 -80.5t132 -25.5q95 0 130.5 25t35.5 81q0 52 -35.5 76t-130.5 24q-96 0 -132 -24t-36 -76zM1698 975v-975h-205l-20 172q-408 -192 -760 -192q-609 0 -609 528
q0 149 55 255t160 167.5t241.5 89t316.5 27.5q379 0 821 -72zM338 514q0 -180 99 -259t319 -79q290 0 708 156v479q-310 43 -612 43q-253 0 -383.5 -79.5t-130.5 -260.5z" />
    <glyph glyph-name="ae" unicode="&#xe6;" horiz-adv-x="3141" 
d="M2296 164q354 0 657 67l47 -176q-135 -35 -332.5 -57.5t-390.5 -22.5q-306 0 -493.5 60t-272.5 194q-177 -110 -409.5 -182t-483.5 -72q-244 0 -366.5 71.5t-122.5 227.5q0 161 138 231t448 70h725q-6 75 -32.5 124t-89 85.5t-172 53t-276.5 16.5q-304 0 -628 -80
l-39 193q143 37 330 60.5t362 23.5q273 0 433.5 -46.5t238.5 -146.5q190 193 678 193q145 0 262.5 -15t217.5 -50.5t168 -90.5t106 -138t38 -190q0 -68 -8 -114h-1356q11 -87 51.5 -143.5t120 -88.5t185.5 -44.5t266 -12.5zM2236 885q-279 0 -412 -67t-151 -232h1135
q-9 106 -62.5 169t-177 96.5t-332.5 33.5zM356 295q0 -85 66.5 -117.5t226.5 -32.5q424 0 809 215q-9 41 -12 82l-754 -2q-92 0 -149.5 -5t-102.5 -20.5t-64.5 -44.5t-19.5 -75z" />
    <glyph glyph-name="ccedilla" unicode="&#xe7;" horiz-adv-x="1755" 
d="M104 516q0 285 209 410t682 125q355 0 658 -74l-49 -191q-287 64 -639 64q-345 0 -486 -72.5t-141 -261.5q0 -191 141 -264.5t486 -73.5q352 0 639 64l49 -191q-303 -74 -658 -74q-473 0 -682 126t-209 413zM1012 -92h153v-64q0 -130 -62.5 -187.5t-217.5 -57.5
q-107 0 -226 28l31 133q113 -20 184 -20q75 0 106.5 25t31.5 88v55z" />
    <glyph glyph-name="egrave" unicode="&#xe8;" horiz-adv-x="1802" 
d="M780 1219l-356 276h301l289 -276h-234zM958 164q353 0 656 67l49 -176q-135 -35 -333.5 -57.5t-389.5 -22.5q-432 0 -634 124t-202 415q0 115 35 205t101.5 152.5t165.5 102.5t222.5 58.5t278.5 18.5q144 0 261.5 -15t218 -50.5t168.5 -90.5t106.5 -138t38.5 -190
q0 -68 -8 -114h-1358q9 -70 38 -119.5t76.5 -82.5t123.5 -52.5t167.5 -27t218.5 -7.5zM899 885q-281 0 -414 -67t-151 -232h1136q-9 105 -63 168.5t-177 97t-331 33.5z" />
    <glyph glyph-name="eacute" unicode="&#xe9;" horiz-adv-x="1802" 
d="M1071 1495h303l-358 -276h-236zM958 164q353 0 656 67l49 -176q-135 -35 -333.5 -57.5t-389.5 -22.5q-432 0 -634 124t-202 415q0 115 35 205t101.5 152.5t165.5 102.5t222.5 58.5t278.5 18.5q144 0 261.5 -15t218 -50.5t168.5 -90.5t106.5 -138t38.5 -190q0 -68 -8 -114
h-1358q9 -70 38 -119.5t76.5 -82.5t123.5 -52.5t167.5 -27t218.5 -7.5zM899 885q-281 0 -414 -67t-151 -232h1136q-9 105 -63 168.5t-177 97t-331 33.5z" />
    <glyph glyph-name="ecircumflex" unicode="&#xea;" horiz-adv-x="1802" 
d="M1341 1217h-225l-213 167l-215 -167h-225l330 278h219zM958 164q353 0 656 67l49 -176q-135 -35 -333.5 -57.5t-389.5 -22.5q-432 0 -634 124t-202 415q0 115 35 205t101.5 152.5t165.5 102.5t222.5 58.5t278.5 18.5q144 0 261.5 -15t218 -50.5t168.5 -90.5t106.5 -138
t38.5 -190q0 -68 -8 -114h-1358q9 -70 38 -119.5t76.5 -82.5t123.5 -52.5t167.5 -27t218.5 -7.5zM899 885q-281 0 -414 -67t-151 -232h1136q-9 105 -63 168.5t-177 97t-331 33.5z" />
    <glyph glyph-name="edieresis" unicode="&#xeb;" horiz-adv-x="1802" 
d="M768 1487v-277h-209v277h209zM1243 1487v-277h-209v277h209zM958 164q353 0 656 67l49 -176q-135 -35 -333.5 -57.5t-389.5 -22.5q-432 0 -634 124t-202 415q0 115 35 205t101.5 152.5t165.5 102.5t222.5 58.5t278.5 18.5q144 0 261.5 -15t218 -50.5t168.5 -90.5
t106.5 -138t38.5 -190q0 -68 -8 -114h-1358q9 -70 38 -119.5t76.5 -82.5t123.5 -52.5t167.5 -27t218.5 -7.5zM899 885q-281 0 -414 -67t-151 -232h1136q-9 105 -63 168.5t-177 97t-331 33.5z" />
    <glyph glyph-name="igrave" unicode="&#xec;" horiz-adv-x="516" 
d="M141 1219l-358 276h303l289 -276h-234zM145 0v1026h234v-1026h-234z" />
    <glyph glyph-name="iacute" unicode="&#xed;" horiz-adv-x="516" 
d="M432 1495h303l-358 -276h-236zM145 0v1026h234v-1026h-234z" />
    <glyph glyph-name="icircumflex" unicode="&#xee;" horiz-adv-x="516" 
d="M702 1217h-225l-213 167l-215 -167h-225l330 278h219zM145 0v1026h234v-1026h-234z" />
    <glyph glyph-name="idieresis" unicode="&#xef;" horiz-adv-x="516" 
d="M129 1487v-277h-211v277h211zM604 1487v-277h-209v277h209zM145 0v1026h234v-1026h-234z" />
    <glyph glyph-name="eth" unicode="&#xf0;" horiz-adv-x="1951" 
d="M1014 1087h-228l316 177q-203 101 -498 186h420q132 -35 248 -90l205 115h225l-313 -177q93 -54 169.5 -119.5t140 -148.5t99 -187.5t35.5 -219.5q0 -303 -228 -473t-665 -170q-204 0 -356.5 29.5t-261 92t-163.5 164t-55 242.5q0 493 713 493q424 0 750 -182
q-75 212 -350 383zM942 168q648 0 657 455q-143 84 -349.5 139t-420.5 55q-491 0 -491 -311q0 -176 146.5 -257t457.5 -81z" />
    <glyph glyph-name="ntilde" unicode="&#xf1;" horiz-adv-x="1824" 
d="M575 1229v141q94 66 197 66q82 0 212.5 -32t184.5 -32q34 0 66 9t50.5 19t51.5 30v-146q-77 -55 -163 -55q-63 0 -200 32.5t-204 32.5q-100 0 -195 -65zM145 0v1026h205l19 -143q401 168 743 168q286 0 436 -118.5t150 -375.5v-557h-234v528q0 160 -102 242t-324 82
q-266 0 -659 -129v-723h-234z" />
    <glyph glyph-name="ograve" unicode="&#xf2;" horiz-adv-x="1957" 
d="M858 1219l-356 276h303l289 -276h-236zM104 514q0 279 213 409t662 130q450 0 662 -130t212 -409t-212 -409t-662 -130q-449 0 -662 130t-213 409zM338 514q0 -123 61 -196t200.5 -107.5t379.5 -34.5t379.5 34.5t200.5 107.5t61 196q0 122 -61 195t-201 108t-379 35
t-379 -35t-201 -108t-61 -195z" />
    <glyph glyph-name="oacute" unicode="&#xf3;" horiz-adv-x="1957" 
d="M1151 1495h301l-358 -276h-234zM104 514q0 279 213 409t662 130q450 0 662 -130t212 -409t-212 -409t-662 -130q-449 0 -662 130t-213 409zM338 514q0 -123 61 -196t200.5 -107.5t379.5 -34.5t379.5 34.5t200.5 107.5t61 196q0 122 -61 195t-201 108t-379 35t-379 -35
t-201 -108t-61 -195z" />
    <glyph glyph-name="ocircumflex" unicode="&#xf4;" horiz-adv-x="1957" 
d="M1421 1217h-227l-213 167l-213 -167h-227l329 278h222zM104 514q0 279 213 409t662 130q450 0 662 -130t212 -409t-212 -409t-662 -130q-449 0 -662 130t-213 409zM338 514q0 -123 61 -196t200.5 -107.5t379.5 -34.5t379.5 34.5t200.5 107.5t61 196q0 122 -61 195
t-201 108t-379 35t-379 -35t-201 -108t-61 -195z" />
    <glyph glyph-name="otilde" unicode="&#xf5;" horiz-adv-x="1957" 
d="M604 1217v141q93 65 197 65q82 0 212 -31.5t183 -31.5q35 0 67 9t51.5 19t51.5 29v-145q-71 -55 -164 -55q-63 0 -199.5 32.5t-203.5 32.5q-95 0 -195 -65zM104 514q0 279 213 409t662 130q450 0 662 -130t212 -409t-212 -409t-662 -130q-449 0 -662 130t-213 409z
M338 514q0 -123 61 -196t200.5 -107.5t379.5 -34.5t379.5 34.5t200.5 107.5t61 196q0 122 -61 195t-201 108t-379 35t-379 -35t-201 -108t-61 -195z" />
    <glyph glyph-name="odieresis" unicode="&#xf6;" horiz-adv-x="1957" 
d="M846 1487v-277h-209v277h209zM1323 1487v-277h-209v277h209zM104 514q0 279 213 409t662 130q450 0 662 -130t212 -409t-212 -409t-662 -130q-449 0 -662 130t-213 409zM338 514q0 -123 61 -196t200.5 -107.5t379.5 -34.5t379.5 34.5t200.5 107.5t61 196q0 122 -61 195
t-201 108t-379 35t-379 -35t-201 -108t-61 -195z" />
    <glyph glyph-name="divide" unicode="&#xf7;" horiz-adv-x="1486" 
d="M850 1235v-338h-242v338h242zM1370 557h-1253v184h1253v-184zM850 401v-338h-242v338h242z" />
    <glyph glyph-name="oslash" unicode="&#xf8;" horiz-adv-x="1982" 
d="M104 514q0 279 213 409t662 130q286 0 475 -52l115 99h223l-182 -160q243 -127 243 -426q0 -279 -212 -409t-662 -130q-253 0 -434 41l-103 -88h-223l164 144q-279 125 -279 442zM338 514q0 -113 51.5 -184.5t167.5 -108.5l707 615q-125 16 -285 16q-239 0 -379 -35
t-201 -108t-61 -195zM1620 514q0 104 -43 172t-139 107l-699 -607q117 -10 240 -10q240 0 379.5 34.5t200.5 107.5t61 196z" />
    <glyph glyph-name="ugrave" unicode="&#xf9;" horiz-adv-x="1828" 
d="M858 1219l-356 276h303l289 -276h-236zM127 467v559h233v-528q0 -160 105.5 -242t333.5 -82q260 0 659 133v719h234v-1026h-203l-21 147q-409 -172 -743 -172q-293 0 -445.5 118t-152.5 374z" />
    <glyph glyph-name="uacute" unicode="&#xfa;" horiz-adv-x="1828" 
d="M1151 1495h301l-358 -276h-234zM127 467v559h233v-528q0 -160 105.5 -242t333.5 -82q260 0 659 133v719h234v-1026h-203l-21 147q-409 -172 -743 -172q-293 0 -445.5 118t-152.5 374z" />
    <glyph glyph-name="ucircumflex" unicode="&#xfb;" horiz-adv-x="1828" 
d="M1421 1217h-227l-213 167l-213 -167h-227l329 278h222zM127 467v559h233v-528q0 -160 105.5 -242t333.5 -82q260 0 659 133v719h234v-1026h-203l-21 147q-409 -172 -743 -172q-293 0 -445.5 118t-152.5 374z" />
    <glyph glyph-name="udieresis" unicode="&#xfc;" horiz-adv-x="1828" 
d="M846 1487v-277h-209v277h209zM1323 1487v-277h-209v277h209zM127 467v559h233v-528q0 -160 105.5 -242t333.5 -82q260 0 659 133v719h234v-1026h-203l-21 147q-409 -172 -743 -172q-293 0 -445.5 118t-152.5 374z" />
    <glyph glyph-name="yacute" unicode="&#xfd;" horiz-adv-x="1855" 
d="M1098 1495h303l-359 -276h-233zM127 567v459h233v-426q0 -170 106.5 -242.5t356.5 -72.5q307 0 672 106v635h234v-844q0 -164 -46.5 -274.5t-148.5 -177.5t-251.5 -96t-369.5 -29q-183 0 -374.5 26t-337.5 68l45 184q359 -92 682 -92q326 0 454.5 82.5t122.5 290.5l-6 63
q-379 -139 -729 -139q-339 0 -491 115t-152 364z" />
    <glyph glyph-name="thorn" unicode="&#xfe;" horiz-adv-x="1843" 
d="M381 -379h-236v1915h236v-676q406 187 749 187q300 0 454.5 -127.5t154.5 -395.5q0 -148 -52.5 -254.5t-153.5 -169t-234 -91.5t-308 -29q-283 0 -610 57v-416zM1090 850q-290 0 -709 -148v-483q338 -47 625 -47q247 0 373 81.5t126 266.5q0 173 -98.5 251.5t-316.5 78.5
z" />
    <glyph glyph-name="ydieresis" unicode="&#xff;" horiz-adv-x="1855" 
d="M795 1487v-277h-209v277h209zM1272 1487v-277h-209v277h209zM127 567v459h233v-426q0 -170 106.5 -242.5t356.5 -72.5q307 0 672 106v635h234v-844q0 -164 -46.5 -274.5t-148.5 -177.5t-251.5 -96t-369.5 -29q-183 0 -374.5 26t-337.5 68l45 184q359 -92 682 -92
q326 0 454.5 82.5t122.5 290.5l-6 63q-379 -139 -729 -139q-339 0 -491 115t-152 364z" />
    <glyph glyph-name="Amacron" unicode="&#x100;" horiz-adv-x="2267" 
d="M1511 1563h-757v153h757v-153zM1968 0l-219 319h-1233l-217 -319h-301l971 1397h329l973 -1397h-303zM639 500h987l-493 723z" />
    <glyph glyph-name="amacron" unicode="&#x101;" horiz-adv-x="1835" 
d="M1421 1071h-757v154h757v-154zM1698 975v-975h-205l-20 172q-408 -192 -760 -192q-609 0 -609 528q0 149 55 255t160 167.5t241.5 89t316.5 27.5q379 0 821 -72zM338 514q0 -180 99 -259t319 -79q290 0 708 156v479q-310 43 -612 43q-253 0 -383.5 -79.5t-130.5 -260.5z
" />
    <glyph glyph-name="Abreve" unicode="&#x102;" horiz-adv-x="2267" 
d="M1331 1778h178q0 -285 -381 -285q-197 0 -291 74.5t-94 210.5h181q0 -80 44.5 -118t159.5 -38t159 38t44 118zM1968 0l-219 319h-1233l-217 -319h-301l971 1397h329l973 -1397h-303zM639 500h987l-493 723z" />
    <glyph glyph-name="abreve" unicode="&#x103;" horiz-adv-x="1835" 
d="M1184 1489h180q0 -135 -93 -210t-290 -75t-291 75t-94 210h180q0 -78 45 -116t160 -38q114 0 158.5 38t44.5 116zM1698 975v-975h-205l-20 172q-408 -192 -760 -192q-609 0 -609 528q0 149 55 255t160 167.5t241.5 89t316.5 27.5q379 0 821 -72zM338 514q0 -180 99 -259
t319 -79q290 0 708 156v479q-310 43 -612 43q-253 0 -383.5 -79.5t-130.5 -260.5z" />
    <glyph glyph-name="Aogonek" unicode="&#x104;" horiz-adv-x="2267" 
d="M1962 0h6l-219 319h-1233l-217 -319h-301l971 1397h329l973 -1397h-172q-258 -120 -258 -217q0 -53 76 -53q92 0 215 53l41 -119q-137 -70 -281 -70q-97 0 -148.5 37t-51.5 109q0 77 80.5 149.5t189.5 110.5zM639 500h987l-493 723z" />
    <glyph glyph-name="aogonek" unicode="&#x105;" horiz-adv-x="1835" 
d="M1698 975v-975h-12q-259 -120 -259 -217q0 -53 76 -53q92 0 215 53l41 -119q-137 -70 -280 -70q-97 0 -149 37t-52 109q0 74 81.5 148t186.5 112h-53l-20 172q-408 -192 -760 -192q-609 0 -609 528q0 149 55 255t160 167.5t241.5 89t316.5 27.5q379 0 821 -72zM338 514
q0 -180 99 -259t319 -79q290 0 708 156v479q-310 43 -612 43q-253 0 -383.5 -79.5t-130.5 -260.5z" />
    <glyph glyph-name="Cacute" unicode="&#x106;" horiz-adv-x="2148" 
d="M1333 1776h303l-346 -279h-233zM354 696q0 -105 23 -183t76 -140t140 -100t214 -58t299 -20q393 0 911 112l47 -211q-217 -53 -474 -87t-492 -34q-518 0 -756 176.5t-238 544.5q0 369 238 545t756 176q235 0 492 -34t474 -87l-47 -211q-532 115 -911 115q-172 0 -299 -20
t-214 -59t-140 -101t-76 -140.5t-23 -183.5z" />
    <glyph glyph-name="cacute" unicode="&#x107;" horiz-adv-x="1755" 
d="M1122 1495h303l-358 -276h-236zM104 516q0 285 209 410t682 125q355 0 658 -74l-49 -191q-287 64 -639 64q-345 0 -486 -72.5t-141 -261.5q0 -191 141 -264.5t486 -73.5q352 0 639 64l49 -191q-303 -74 -658 -74q-473 0 -682 126t-209 413z" />
    <glyph glyph-name="Ccircumflex" unicode="&#x108;" horiz-adv-x="2148" 
d="M1618 1497h-227l-213 168l-213 -168h-228l330 279h221zM354 696q0 -105 23 -183t76 -140t140 -100t214 -58t299 -20q393 0 911 112l47 -211q-217 -53 -474 -87t-492 -34q-518 0 -756 176.5t-238 544.5q0 369 238 545t756 176q235 0 492 -34t474 -87l-47 -211
q-532 115 -911 115q-172 0 -299 -20t-214 -59t-140 -101t-76 -140.5t-23 -183.5z" />
    <glyph glyph-name="ccircumflex" unicode="&#x109;" horiz-adv-x="1755" 
d="M1339 1217h-225l-213 167l-215 -167h-225l330 278h219zM102 516q0 285 209.5 410t681.5 125q355 0 658 -74l-49 -191q-287 64 -639 64q-344 0 -484.5 -72.5t-140.5 -261.5q0 -191 140.5 -264.5t484.5 -73.5q352 0 639 64l49 -191q-303 -74 -658 -74q-471 0 -681 126
t-210 413z" />
    <glyph glyph-name="Cdotaccent" unicode="&#x10a;" horiz-adv-x="2148" 
d="M1296 1806v-276h-235v276h235zM354 696q0 -105 23 -183t76 -140t140 -100t214 -58t299 -20q393 0 911 112l47 -211q-217 -53 -474 -87t-492 -34q-518 0 -756 176.5t-238 544.5q0 369 238 545t756 176q235 0 492 -34t474 -87l-47 -211q-532 115 -911 115q-172 0 -299 -20
t-214 -59t-140 -101t-76 -140.5t-23 -183.5z" />
    <glyph glyph-name="cdotaccent" unicode="&#x10b;" horiz-adv-x="1755" 
d="M1069 1456v-276h-233v276h233zM104 516q0 285 209 410t682 125q355 0 658 -74l-49 -191q-287 64 -639 64q-345 0 -486 -72.5t-141 -261.5q0 -191 141 -264.5t486 -73.5q352 0 639 64l49 -191q-303 -74 -658 -74q-473 0 -682 126t-209 413z" />
    <glyph glyph-name="Ccaron" unicode="&#x10c;" horiz-adv-x="2148" 
d="M1620 1776l-330 -279h-221l-330 279h228l213 -166l213 166h227zM354 696q0 -105 23 -183t76 -140t140 -100t214 -58t299 -20q393 0 911 112l47 -211q-217 -53 -474 -87t-492 -34q-518 0 -756 176.5t-238 544.5q0 369 238 545t756 176q235 0 492 -34t474 -87l-47 -211
q-532 115 -911 115q-172 0 -299 -20t-214 -59t-140 -101t-76 -140.5t-23 -183.5z" />
    <glyph glyph-name="ccaron" unicode="&#x10d;" horiz-adv-x="1755" 
d="M1393 1495l-330 -278h-219l-330 278h225l215 -166l213 166h226zM104 516q0 285 209 410t682 125q355 0 658 -74l-49 -191q-287 64 -639 64q-345 0 -486 -72.5t-141 -261.5q0 -191 141 -264.5t486 -73.5q352 0 639 64l49 -191q-303 -74 -658 -74q-473 0 -682 126t-209 413
z" />
    <glyph glyph-name="Dcaron" unicode="&#x10e;" horiz-adv-x="2312" 
d="M1554 1776l-329 -279h-221l-330 279h227l213 -166l213 166h227zM1393 0h-1248v1397h1248q205 0 354 -37.5t254.5 -119.5t157 -216t51.5 -324q0 -192 -52 -327t-158 -217t-254.5 -119t-352.5 -37zM395 1182v-967h975q317 0 449.5 110t132.5 375t-132 373.5t-450 108.5
h-975z" />
    <glyph glyph-name="dcaron" unicode="&#x10f;" horiz-adv-x="1843" 
d="M1464 1536h234v-1536h-205l-20 170q-413 -190 -744 -190q-311 0 -468 125.5t-157 396.5q0 120 36 213t100 155.5t159.5 102t208.5 57t252 17.5q290 0 604 -56v545zM1915 1214v39h-90v283h209v-332q0 -66 -40 -100.5t-116 -34.5q-38 0 -80 10l17 103q40 -4 53 -4
q28 0 37.5 7t9.5 29zM338 506q0 -174 101.5 -252t324.5 -78q293 0 700 148v483q-338 47 -620 47q-249 0 -377.5 -81.5t-128.5 -266.5z" />
    <glyph glyph-name="Dcroat" unicode="&#x110;" horiz-adv-x="2369" 
d="M203 618h-183v156h183v623h1245q205 0 354 -37.5t254.5 -119.5t157 -216t51.5 -324q0 -192 -52 -327t-158 -217t-254.5 -119t-352.5 -37h-1245v618zM453 627v-412h974q317 0 448.5 110t131.5 375t-131.5 373.5t-448.5 108.5h-974v-416h608v-139h-608z" />
    <glyph glyph-name="dcroat" unicode="&#x111;" horiz-adv-x="1949" 
d="M1464 1536h234v-162h231v-133h-231v-1241h-205l-20 170q-413 -190 -744 -190q-311 0 -468 125.5t-157 396.5q0 120 36 213t100 155.5t159.5 102t208.5 57t252 17.5q290 0 604 -56v250h-528v133h528v162zM338 506q0 -174 101.5 -252t324.5 -78q293 0 700 148v483
q-338 47 -620 47q-249 0 -377.5 -81.5t-128.5 -266.5z" />
    <glyph glyph-name="Emacron" unicode="&#x112;" horiz-adv-x="2078" 
d="M1513 1565h-757v153h757v-153zM1954 0h-1809v1397h1809v-201h-1559v-399h1520v-170h-1520v-426h1559v-201z" />
    <glyph glyph-name="emacron" unicode="&#x113;" horiz-adv-x="1802" 
d="M1282 1286h-758v154h758v-154zM958 164q353 0 656 67l49 -176q-135 -35 -333.5 -57.5t-389.5 -22.5q-432 0 -634 124t-202 415q0 115 35 205t101.5 152.5t165.5 102.5t222.5 58.5t278.5 18.5q144 0 261.5 -15t218 -50.5t168.5 -90.5t106.5 -138t38.5 -190q0 -68 -8 -114
h-1358q9 -70 38 -119.5t76.5 -82.5t123.5 -52.5t167.5 -27t218.5 -7.5zM899 885q-281 0 -414 -67t-151 -232h1136q-9 105 -63 168.5t-177 97t-331 33.5z" />
    <glyph glyph-name="Ebreve" unicode="&#x114;" horiz-adv-x="2078" 
d="M1333 1778h180q0 -135 -93 -210t-290 -75t-291 75t-94 210h181q0 -78 45 -116t159 -38t158.5 38t44.5 116zM1954 0h-1809v1397h1809v-201h-1559v-399h1520v-170h-1520v-426h1559v-201z" />
    <glyph glyph-name="ebreve" unicode="&#x115;" horiz-adv-x="1802" 
d="M1104 1489h180q0 -135 -93 -210t-290 -75t-290 75t-93 210h180q0 -78 45 -116t158 -38q114 0 158.5 38t44.5 116zM958 164q353 0 656 67l49 -176q-135 -35 -333.5 -57.5t-389.5 -22.5q-432 0 -634 124t-202 415q0 115 35 205t101.5 152.5t165.5 102.5t222.5 58.5
t278.5 18.5q144 0 261.5 -15t218 -50.5t168.5 -90.5t106.5 -138t38.5 -190q0 -68 -8 -114h-1358q9 -70 38 -119.5t76.5 -82.5t123.5 -52.5t167.5 -27t218.5 -7.5zM899 885q-281 0 -414 -67t-151 -232h1136q-9 105 -63 168.5t-177 97t-331 33.5z" />
    <glyph glyph-name="Edotaccent" unicode="&#x116;" horiz-adv-x="2078" 
d="M1249 1806v-276h-233v276h233zM1954 0h-1809v1397h1809v-201h-1559v-399h1520v-170h-1520v-426h1559v-201z" />
    <glyph glyph-name="edotaccent" unicode="&#x117;" horiz-adv-x="1802" 
d="M1018 1456v-276h-234v276h234zM958 164q353 0 656 67l49 -176q-135 -35 -333.5 -57.5t-389.5 -22.5q-432 0 -634 124t-202 415q0 115 35 205t101.5 152.5t165.5 102.5t222.5 58.5t278.5 18.5q144 0 261.5 -15t218 -50.5t168.5 -90.5t106.5 -138t38.5 -190q0 -68 -8 -114
h-1358q9 -70 38 -119.5t76.5 -82.5t123.5 -52.5t167.5 -27t218.5 -7.5zM899 885q-281 0 -414 -67t-151 -232h1136q-9 105 -63 168.5t-177 97t-331 33.5z" />
    <glyph glyph-name="Eogonek" unicode="&#x118;" horiz-adv-x="2078" 
d="M1815 0h-1670v1397h1809v-201h-1559v-399h1520v-170h-1520v-426h1559v-201q-260 -121 -260 -217q0 -53 78 -53q93 0 213 53l40 -119q-137 -70 -280 -70q-97 0 -148 37t-51 109q0 77 80 149.5t189 110.5z" />
    <glyph glyph-name="eogonek" unicode="&#x119;" horiz-adv-x="1802" 
d="M958 164q353 0 656 67l49 -176q-132 -35 -326 -57q-256 -121 -256 -215q0 -53 78 -53q93 0 213 53l41 -119q-137 -70 -280 -70q-97 0 -148 37t-51 109q0 67 65.5 134.5t159.5 109.5q-111 -9 -219 -9q-432 0 -634 124t-202 415q0 115 35 205t101.5 152.5t165.5 102.5
t222.5 58.5t278.5 18.5q144 0 261.5 -15t218 -50.5t168.5 -90.5t106.5 -138t38.5 -190q0 -68 -8 -114h-1358q9 -70 38 -119.5t76.5 -82.5t123.5 -52.5t167.5 -27t218.5 -7.5zM899 885q-281 0 -414 -67t-151 -232h1136q-9 105 -63 168.5t-177 97t-331 33.5z" />
    <glyph glyph-name="Ecaron" unicode="&#x11a;" horiz-adv-x="2078" 
d="M1573 1776l-330 -279h-219l-330 279h226l215 -166l213 166h225zM1954 0h-1809v1397h1809v-201h-1559v-399h1520v-170h-1520v-426h1559v-201z" />
    <glyph glyph-name="ecaron" unicode="&#x11b;" horiz-adv-x="1802" 
d="M1343 1495l-329 -278h-221l-330 278h227l213 -166l213 166h227zM958 164q353 0 656 67l49 -176q-135 -35 -333.5 -57.5t-389.5 -22.5q-432 0 -634 124t-202 415q0 115 35 205t101.5 152.5t165.5 102.5t222.5 58.5t278.5 18.5q144 0 261.5 -15t218 -50.5t168.5 -90.5
t106.5 -138t38.5 -190q0 -68 -8 -114h-1358q9 -70 38 -119.5t76.5 -82.5t123.5 -52.5t167.5 -27t218.5 -7.5zM899 885q-281 0 -414 -67t-151 -232h1136q-9 105 -63 168.5t-177 97t-331 33.5z" />
    <glyph glyph-name="Gcircumflex" unicode="&#x11c;" horiz-adv-x="2201" 
d="M1642 1497h-225l-213 168l-215 -168h-225l330 279h219zM104 698q0 368 246.5 543.5t784.5 175.5q230 0 479.5 -34t462.5 -87l-47 -211q-537 115 -912 115q-218 0 -365.5 -30t-235.5 -94t-125.5 -155t-37.5 -223t37.5 -223t125.5 -155.5t235.5 -94.5t365.5 -30
q306 0 701 77v447h258v-621q-213 -53 -462.5 -87t-479.5 -34q-538 0 -784.5 176t-246.5 545z" />
    <glyph glyph-name="gcircumflex" unicode="&#x11d;" horiz-adv-x="1832" 
d="M1346 1204h-228l-213 166l-213 -166h-227l330 279h221zM1706 975v-815q0 -301 -196.5 -428t-641.5 -127q-171 0 -368 25t-350 69l53 182q341 -90 678 -90q231 0 363.5 38.5t186.5 117t50 211.5l-4 49q-378 -156 -740 -156q-319 0 -476 118t-157 374q0 139 54.5 238
t159.5 156.5t243.5 83.5t321.5 26q381 0 823 -72zM338 545q0 -164 99.5 -236.5t318.5 -72.5q333 0 714 129v446q-313 43 -618 43q-253 0 -383.5 -72t-130.5 -237z" />
    <glyph glyph-name="Gbreve" unicode="&#x11e;" horiz-adv-x="2201" 
d="M1403 1778h180q0 -135 -92.5 -210t-288.5 -75q-197 0 -291 75t-94 210h180q0 -78 45 -116t160 -38q113 0 157 38t44 116zM104 698q0 368 246.5 543.5t784.5 175.5q230 0 479.5 -34t462.5 -87l-47 -211q-537 115 -912 115q-218 0 -365.5 -30t-235.5 -94t-125.5 -155
t-37.5 -223t37.5 -223t125.5 -155.5t235.5 -94.5t365.5 -30q306 0 701 77v447h258v-621q-213 -53 -462.5 -87t-479.5 -34q-538 0 -784.5 176t-246.5 545z" />
    <glyph glyph-name="gbreve" unicode="&#x11f;" horiz-adv-x="1832" 
d="M1106 1477h180q0 -135 -93 -210t-290 -75t-290 75t-93 210h178q0 -78 45 -116t160 -38q114 0 158.5 38t44.5 116zM1706 975v-815q0 -301 -196.5 -428t-641.5 -127q-171 0 -368 25t-350 69l53 182q341 -90 678 -90q231 0 363.5 38.5t186.5 117t50 211.5l-4 49
q-378 -156 -740 -156q-319 0 -476 118t-157 374q0 139 54.5 238t159.5 156.5t243.5 83.5t321.5 26q381 0 823 -72zM338 545q0 -164 99.5 -236.5t318.5 -72.5q333 0 714 129v446q-313 43 -618 43q-253 0 -383.5 -72t-130.5 -237z" />
    <glyph glyph-name="Gdotaccent" unicode="&#x120;" horiz-adv-x="2201" 
d="M1321 1806v-276h-236v276h236zM104 698q0 368 246.5 543.5t784.5 175.5q230 0 479.5 -34t462.5 -87l-47 -211q-537 115 -912 115q-218 0 -365.5 -30t-235.5 -94t-125.5 -155t-37.5 -223t37.5 -223t125.5 -155.5t235.5 -94.5t365.5 -30q306 0 701 77v447h258v-621
q-213 -53 -462.5 -87t-479.5 -34q-538 0 -784.5 176t-246.5 545z" />
    <glyph glyph-name="gdotaccent" unicode="&#x121;" horiz-adv-x="1832" 
d="M1022 1444v-277h-234v277h234zM1706 975v-815q0 -301 -196.5 -428t-641.5 -127q-171 0 -368 25t-350 69l53 182q341 -90 678 -90q231 0 363.5 38.5t186.5 117t50 211.5l-4 49q-378 -156 -740 -156q-319 0 -476 118t-157 374q0 139 54.5 238t159.5 156.5t243.5 83.5
t321.5 26q381 0 823 -72zM338 545q0 -164 99.5 -236.5t318.5 -72.5q333 0 714 129v446q-313 43 -618 43q-253 0 -383.5 -72t-130.5 -237z" />
    <glyph glyph-name="Gcommaaccent" unicode="&#x122;" horiz-adv-x="2201" 
d="M104 698q0 368 246.5 543.5t784.5 175.5q230 0 479.5 -34t462.5 -87l-47 -211q-537 115 -912 115q-218 0 -365.5 -30t-235.5 -94t-125.5 -155t-37.5 -223t37.5 -223t125.5 -155.5t235.5 -94.5t365.5 -30q306 0 701 77v447h258v-621q-213 -53 -462.5 -87t-479.5 -34
q-538 0 -784.5 176t-246.5 545zM1092 -123h247l-235 -276h-197z" />
    <glyph glyph-name="gcommaaccent" unicode="&#x123;" horiz-adv-x="1832" 
d="M997 1219h-297l252 276h228zM1706 975v-815q0 -301 -196.5 -428t-641.5 -127q-171 0 -368 25t-350 69l53 182q341 -90 678 -90q231 0 363.5 38.5t186.5 117t50 211.5l-4 49q-378 -156 -740 -156q-319 0 -476 118t-157 374q0 139 54.5 238t159.5 156.5t243.5 83.5
t321.5 26q381 0 823 -72zM338 545q0 -164 99.5 -236.5t318.5 -72.5q333 0 714 129v446q-313 43 -618 43q-253 0 -383.5 -72t-130.5 -237z" />
    <glyph glyph-name="Hcircumflex" unicode="&#x124;" horiz-adv-x="2207" 
d="M1544 1497h-225l-213 168l-215 -168h-225l329 279h219zM395 0h-250v1397h250v-563h1417v563h250v-1397h-250v616h-1417v-616z" />
    <glyph glyph-name="hcircumflex" unicode="&#x125;" horiz-adv-x="1824" 
d="M1018 1608h-225l-213 166l-215 -166h-226l330 278h219zM145 0v1536h234v-641q386 156 735 156q285 0 434.5 -119t149.5 -375v-557h-234v528q0 160 -102 242t-324 82q-266 0 -659 -129v-723h-234z" />
    <glyph glyph-name="Hbar" unicode="&#x126;" horiz-adv-x="2295" 
d="M188 997h-159v158h159v242h250v-246h1420v246h249v-242h160v-158h-160v-997h-249v578h-1420v-578h-250v997zM438 1001v-223h1420v223h-1420z" />
    <glyph glyph-name="hbar" unicode="&#x127;" horiz-adv-x="1933" 
d="M254 0v1241h-234v133h234v162h233v-162h574v-133h-574v-346q386 156 736 156q285 0 434 -118.5t149 -375.5v-557h-233v528q0 160 -102 242t-324 82q-267 0 -660 -129v-723h-233z" />
    <glyph glyph-name="Itilde" unicode="&#x128;" horiz-adv-x="540" 
d="M-104 1505v144q90 63 194 63q83 0 214 -30.5t183 -30.5q50 0 86 13.5t84 43.5v-145q-75 -58 -165 -58q-63 0 -199 34t-203 34q-98 0 -194 -68zM395 0h-250v1397h250v-1397z" />
    <glyph glyph-name="itilde" unicode="&#x129;" horiz-adv-x="516" 
d="M-109 1229v141q94 66 197 66q83 0 213 -32t184 -32q34 0 66 9t50.5 19t51.5 30v-146q-77 -55 -164 -55q-63 0 -198.5 32.5t-202.5 32.5q-102 0 -197 -65zM145 0v1026h234v-1026h-234z" />
    <glyph glyph-name="Imacron" unicode="&#x12a;" horiz-adv-x="540" 
d="M651 1563h-757v153h757v-153zM395 0h-250v1397h250v-1397z" />
    <glyph glyph-name="imacron" unicode="&#x12b;" horiz-adv-x="516" 
d="M641 1286h-758v154h758v-154zM145 0v1026h234v-1026h-234z" />
    <glyph glyph-name="Ibreve" unicode="&#x12c;" horiz-adv-x="540" 
d="M471 1778h178q0 -285 -381 -285q-197 0 -291 74.5t-94 210.5h180q0 -79 45 -117.5t160 -38.5t159 38t44 118zM395 0h-250v1397h250v-1397z" />
    <glyph glyph-name="ibreve" unicode="&#x12d;" horiz-adv-x="516" 
d="M465 1489h180q0 -135 -93 -210t-290 -75t-290 75t-93 210h178q0 -78 45 -116t160 -38q114 0 158.5 38t44.5 116zM145 0v1026h234v-1026h-234z" />
    <glyph glyph-name="Iogonek" unicode="&#x12e;" horiz-adv-x="540" 
d="M258 0h-113v1397h250v-1397q-258 -120 -258 -217q0 -53 76 -53q92 0 215 53l39 -119q-137 -70 -281 -70q-96 0 -147 37t-51 109q0 78 80 150t190 110z" />
    <glyph glyph-name="iogonek" unicode="&#x12f;" horiz-adv-x="524" 
d="M379 1450v-276h-234v276h234zM145 0v1026h234v-1026h2q-260 -121 -260 -217q0 -53 78 -53q93 0 213 53l41 -119q-137 -70 -281 -70q-97 0 -148 37t-51 109q0 74 81 148t186 112h-95z" />
    <glyph glyph-name="Idotaccent" unicode="&#x130;" horiz-adv-x="540" 
d="M387 1804v-276h-233v276h233zM395 0h-250v1397h250v-1397z" />
    <glyph glyph-name="dotlessi" unicode="&#x131;" horiz-adv-x="516" 
d="M145 0v1026h234v-1026h-234z" />
    <glyph glyph-name="IJ" unicode="&#x132;" horiz-adv-x="1599" 
d="M653 184q171 0 281 21t175 71t90.5 122t25.5 184v815h250v-817q0 -155 -40.5 -265t-134 -189.5t-251.5 -118t-387 -38.5q-128 0 -263.5 18t-234.5 52l57 205q198 -60 432 -60zM395 487h-250v873h250v-873z" />
    <glyph glyph-name="ij" unicode="&#x133;" horiz-adv-x="1222" 
d="M379 1450v-276h-234v276h234zM918 1450v-276h-234v276h234zM145 0v1026h234v-1026h-234zM735 -371h-250q39 52 67 96.5t62 114.5t52 154t18 176v856h234v-858q0 -100 -16.5 -187t-47.5 -154.5t-57 -109.5t-62 -88z" />
    <glyph glyph-name="Jcircumflex" unicode="&#x134;" horiz-adv-x="1441" 
d="M1630 1495h-227l-213 168l-213 -168h-227l329 281h221zM498 184q170 0 279.5 21t175 71t91 122t25.5 184v815h250v-817q0 -155 -41 -265t-134.5 -189.5t-252 -118t-387.5 -38.5q-128 0 -262.5 18t-233.5 52l58 205q94 -29 213 -44.5t219 -15.5z" />
    <glyph glyph-name="jcircumflex" unicode="&#x135;" horiz-adv-x="559" 
d="M748 1217h-226l-213 167l-215 -167h-225l330 278h219zM197 -371h-250q39 52 67 97t61.5 114.5t51.5 153.5t18 176v856h234v-858q0 -100 -16.5 -187t-47 -154t-56.5 -109.5t-62 -88.5z" />
    <glyph glyph-name="Kcommaaccent" unicode="&#x136;" horiz-adv-x="2136" 
d="M395 0h-250v1397h250v-789l355 246l876 543h354l-882 -576l913 -821h-334l-780 698l-502 -313v-385zM938 -123h248l-236 -276h-194z" />
    <glyph glyph-name="kcommaaccent" unicode="&#x137;" horiz-adv-x="1677" 
d="M379 1536v-889h366l592 379h326l-711 -479l738 -547h-326l-629 455h-356v-455h-234v1536h234zM737 -123h248l-235 -276h-195z" />
    <glyph glyph-name="Lacute" unicode="&#x139;" horiz-adv-x="1961" 
d="M428 1774h303l-346 -279h-233zM395 215h1526v-215h-1776v1397h250v-1182z" />
    <glyph glyph-name="lacute" unicode="&#x13a;" horiz-adv-x="524" 
d="M418 1872h303l-348 -277h-234zM379 1536v-1536h-234v1536h234z" />
    <glyph glyph-name="Lcommaaccent" unicode="&#x13b;" horiz-adv-x="1961" 
d="M395 215h1526v-215h-1776v1397h250v-1182zM932 -123h250l-236 -276h-196z" />
    <glyph glyph-name="lcommaaccent" unicode="&#x13c;" horiz-adv-x="524" 
d="M379 1536v-1536h-234v1536h234zM117 -123h250l-236 -276h-197z" />
    <glyph glyph-name="Lcaron" unicode="&#x13d;" horiz-adv-x="1961" 
d="M395 215h1526v-215h-1776v1397h250v-1182zM963 1075v39h-91v283h207v-332q0 -135 -153 -135q-38 0 -80 10l16 102q40 -4 53 -4q28 0 38 7.5t10 29.5z" />
    <glyph glyph-name="lcaron" unicode="&#x13e;" horiz-adv-x="524" 
d="M379 1536v-1536h-234v1536h234zM594 1214v39h-90v283h207v-332q0 -135 -154 -135q-38 0 -80 10l17 103q40 -4 53 -4q28 0 37.5 7t9.5 29z" />
    <glyph glyph-name="Ldot" unicode="&#x13f;" horiz-adv-x="1961" 
d="M395 215h1526v-215h-1776v1397h250v-1182zM1278 979v-338h-242v338h242z" />
    <glyph glyph-name="ldot" unicode="&#x140;" horiz-adv-x="718" 
d="M379 1536v-1536h-234v1536h234zM741 844v-277h-233v277h233z" />
    <glyph glyph-name="Lslash" unicode="&#x141;" horiz-adv-x="2080" 
d="M20 535l244 102v760h250v-654l754 318v-156l-754 -317v-373h1526v-215h-1776v481l-244 -102v156z" />
    <glyph glyph-name="lslash" unicode="&#x142;" horiz-adv-x="645" 
d="M207 586l-187 -84v160l187 81v793h233v-696l185 80v-158l-185 -80v-682h-233v586z" />
    <glyph glyph-name="Nacute" unicode="&#x143;" horiz-adv-x="2258" 
d="M1298 1776h304l-347 -279h-233zM395 0h-250v1397h287l1432 -1127v1127h250v-1397h-285l-1434 1135v-1135z" />
    <glyph glyph-name="nacute" unicode="&#x144;" horiz-adv-x="1824" 
d="M1116 1495h301l-358 -276h-234zM145 0v1026h205l19 -143q401 168 743 168q286 0 436 -118.5t150 -375.5v-557h-234v528q0 160 -102 242t-324 82q-266 0 -659 -129v-723h-234z" />
    <glyph glyph-name="Ncommaaccent" unicode="&#x145;" horiz-adv-x="2258" 
d="M395 0h-250v1397h287l1432 -1127v1127h250v-1397h-285l-1434 1135v-1135zM1020 -123h248l-236 -276h-194z" />
    <glyph glyph-name="ncommaaccent" unicode="&#x146;" horiz-adv-x="1824" 
d="M145 0v1026h205l19 -143q401 168 743 168q286 0 436 -118.5t150 -375.5v-557h-234v528q0 160 -102 242t-324 82q-266 0 -659 -129v-723h-234zM854 -123h250l-236 -276h-196z" />
    <glyph glyph-name="Ncaron" unicode="&#x147;" horiz-adv-x="2258" 
d="M1585 1776l-330 -279h-221l-329 279h227l213 -166l213 166h227zM395 0h-250v1397h287l1432 -1127v1127h250v-1397h-285l-1434 1135v-1135z" />
    <glyph glyph-name="ncaron" unicode="&#x148;" horiz-adv-x="1824" 
d="M1386 1495l-329 -278h-219l-330 278h225l215 -166l213 166h225zM145 0v1026h205l19 -143q401 168 743 168q286 0 436 -118.5t150 -375.5v-557h-234v528q0 160 -102 242t-324 82q-266 0 -659 -129v-723h-234z" />
    <glyph glyph-name="Omacron" unicode="&#x14c;" 
d="M1587 1565h-758v153h758v-153zM1206 -25q-569 0 -835.5 174t-266.5 549t266.5 549t835.5 174t835.5 -174t266.5 -549t-266.5 -549t-835.5 -174zM1206 193q316 0 502.5 54.5t266 162.5t79.5 288t-79.5 288.5t-266 163t-502.5 54.5t-503.5 -54.5t-268 -163.5t-80.5 -288
q0 -134 44 -227t144 -156.5t263 -92.5t401 -29z" />
    <glyph glyph-name="omacron" unicode="&#x14d;" horiz-adv-x="1957" 
d="M1360 1274h-758v153h758v-153zM104 514q0 279 213 409t662 130q450 0 662 -130t212 -409t-212 -409t-662 -130q-449 0 -662 130t-213 409zM338 514q0 -123 61 -196t200.5 -107.5t379.5 -34.5t379.5 34.5t200.5 107.5t61 196q0 122 -61 195t-201 108t-379 35t-379 -35
t-201 -108t-61 -195z" />
    <glyph glyph-name="Obreve" unicode="&#x14e;" 
d="M1407 1778h180q0 -135 -93 -210t-290 -75t-290 75t-93 210h180q0 -78 45 -116t158 -38q114 0 158.5 38t44.5 116zM1206 -25q-569 0 -835.5 174t-266.5 549t266.5 549t835.5 174t835.5 -174t266.5 -549t-266.5 -549t-835.5 -174zM1206 193q316 0 502.5 54.5t266 162.5
t79.5 288t-79.5 288.5t-266 163t-502.5 54.5t-503.5 -54.5t-268 -163.5t-80.5 -288q0 -134 44 -227t144 -156.5t263 -92.5t401 -29z" />
    <glyph glyph-name="obreve" unicode="&#x14f;" horiz-adv-x="1957" 
d="M1184 1489h180q0 -135 -93 -210t-290 -75t-291 75t-94 210h180q0 -78 45 -116t160 -38q114 0 158.5 38t44.5 116zM104 514q0 279 213 409t662 130q450 0 662 -130t212 -409t-212 -409t-662 -130q-449 0 -662 130t-213 409zM338 514q0 -123 61 -196t200.5 -107.5
t379.5 -34.5t379.5 34.5t200.5 107.5t61 196q0 122 -61 195t-201 108t-379 35t-379 -35t-201 -108t-61 -195z" />
    <glyph glyph-name="Ohungarumlaut" unicode="&#x150;" 
d="M1077 1776h258l-286 -279h-193zM1536 1776h258l-311 -279h-193zM1206 -25q-569 0 -835.5 174t-266.5 549t266.5 549t835.5 174t835.5 -174t266.5 -549t-266.5 -549t-835.5 -174zM1206 193q316 0 502.5 54.5t266 162.5t79.5 288t-79.5 288.5t-266 163t-502.5 54.5
t-503.5 -54.5t-268 -163.5t-80.5 -288q0 -134 44 -227t144 -156.5t263 -92.5t401 -29z" />
    <glyph glyph-name="ohungarumlaut" unicode="&#x151;" horiz-adv-x="1957" 
d="M864 1495h256l-286 -276h-191zM1323 1495h256l-309 -276h-193zM104 514q0 279 213 409t662 130q450 0 662 -130t212 -409t-212 -409t-662 -130q-449 0 -662 130t-213 409zM338 514q0 -123 61 -196t200.5 -107.5t379.5 -34.5t379.5 34.5t200.5 107.5t61 196q0 122 -61 195
t-201 108t-379 35t-379 -35t-201 -108t-61 -195z" />
    <glyph glyph-name="OE" unicode="&#x152;" horiz-adv-x="3721" 
d="M104 698q0 375 266.5 549t835.5 174q214 0 387 -24h2005v-201h-1587q139 -54 210.5 -151.5t80.5 -247.5h1255v-170h-1253q-6 -319 -293 -426h1587v-201h-2005q-180 -25 -387 -25q-569 0 -835.5 174t-266.5 549zM354 698q0 -134 44 -227t144 -156.5t263 -92.5t401 -29
q316 0 502.5 54.5t266 162.5t79.5 288t-79.5 288.5t-266 163t-502.5 54.5t-503.5 -54.5t-268 -163.5t-80.5 -288z" />
    <glyph glyph-name="oe" unicode="&#x153;" horiz-adv-x="3319" 
d="M104 514q0 279 213 409t662 130q560 0 756 -205q186 203 688 203q145 0 262.5 -15t217.5 -50.5t168 -90.5t106 -138t38 -190q0 -68 -8 -114h-1356q11 -87 51.5 -143.5t120 -88.5t185.5 -44.5t266 -12.5q354 0 657 67l47 -176q-133 -35 -331 -57.5t-391 -22.5
q-272 0 -451 48t-274 153q-198 -201 -752 -201q-449 0 -662 130t-213 409zM2415 885q-279 0 -412.5 -67t-151.5 -232h1135q-9 106 -62.5 169t-177 96.5t-331.5 33.5zM338 514q0 -123 61 -196t200.5 -107.5t379.5 -34.5t379.5 34.5t200.5 107.5t61 196q0 122 -61 195
t-201 108t-379 35t-379 -35t-201 -108t-61 -195z" />
    <glyph glyph-name="Racute" unicode="&#x154;" horiz-adv-x="2144" 
d="M1137 1776h303l-346 -279h-236zM395 0h-250v1397h1342q264 0 400 -109.5t136 -347.5q0 -220 -121.5 -332t-365.5 -121l-156 -2l125 -86l490 -399h-320l-573 475h-707v-475zM395 1182v-514h1075q158 0 227.5 60t69.5 196q0 139 -69 198.5t-228 59.5h-1075z" />
    <glyph glyph-name="racute" unicode="&#x155;" horiz-adv-x="1230" 
d="M854 1495h303l-358 -276h-234zM145 0v1026h205l21 -207q384 232 778 232v-213q-207 0 -388.5 -41.5t-381.5 -137.5v-659h-234z" />
    <glyph glyph-name="Rcommaaccent" unicode="&#x156;" horiz-adv-x="2144" 
d="M395 0h-250v1397h1342q264 0 400 -109.5t136 -347.5q0 -220 -121.5 -332t-365.5 -121l-156 -2l125 -86l490 -399h-320l-573 475h-707v-475zM395 1182v-514h1075q158 0 227.5 60t69.5 196q0 139 -69 198.5t-228 59.5h-1075zM846 -123h250l-236 -276h-196z" />
    <glyph glyph-name="rcommaaccent" unicode="&#x157;" horiz-adv-x="1230" 
d="M145 0v1026h205l21 -207q384 232 778 232v-213q-207 0 -388.5 -41.5t-381.5 -137.5v-659h-234zM119 -123h250l-236 -276h-196z" />
    <glyph glyph-name="Rcaron" unicode="&#x158;" horiz-adv-x="2144" 
d="M1423 1776l-329 -279h-222l-329 279h227l213 -166l213 166h227zM395 0h-250v1397h1342q264 0 400 -109.5t136 -347.5q0 -220 -121.5 -332t-365.5 -121l-156 -2l125 -86l490 -399h-320l-573 475h-707v-475zM395 1182v-514h1075q158 0 227.5 60t69.5 196q0 139 -69 198.5
t-228 59.5h-1075z" />
    <glyph glyph-name="rcaron" unicode="&#x159;" horiz-adv-x="1230" 
d="M1126 1495l-329 -278h-222l-329 278h227l213 -166l213 166h227zM145 0v1026h205l21 -207q384 232 778 232v-213q-207 0 -388.5 -41.5t-381.5 -137.5v-659h-234z" />
    <glyph glyph-name="Sacute" unicode="&#x15a;" horiz-adv-x="2056" 
d="M1141 1776h303l-346 -279h-234zM1948 371q0 -144 -76 -228t-265 -126t-524 -42q-232 0 -499 29t-453 72l35 205q211 -46 473.5 -75.5t501.5 -29.5q238 0 361.5 21t165.5 62t42 118q0 46 -12 78t-31 52t-55.5 33.5t-73.5 20t-96 12.5l-797 70q-279 21 -407.5 106
t-128.5 271q0 146 85 232.5t272 126.5t505 40q201 0 462 -26t451 -66l-41 -194q-184 36 -444 61t-479 25q-241 0 -364.5 -19.5t-166.5 -58.5t-43 -115q0 -40 13 -68.5t34 -47t60 -31.5t79 -19.5t103 -13.5l776 -66q108 -9 188 -25t148 -46t111 -74.5t66.5 -110.5t23.5 -153z
" />
    <glyph glyph-name="sacute" unicode="&#x15b;" horiz-adv-x="1658" 
d="M993 1495h301l-358 -276h-234zM1567 270q0 -169 -152 -232t-534 -63t-756 74l41 160q382 -70 731 -70q268 0 358.5 25t90.5 108q0 34 -13 57.5t-35.5 39t-67.5 25.5t-93.5 16t-128.5 12l-467 29q-114 7 -191 24t-135 51t-84.5 90t-26.5 138q0 73 30.5 125t87 85.5
t149 53.5t202.5 27.5t263 7.5q134 0 320 -17.5t335 -40.5l-35 -159q-360 55 -670 55q-266 0 -363 -27t-97 -108q0 -33 12 -55.5t29.5 -36t52 -22t64 -12t81.5 -7.5l488 -33q135 -8 226.5 -26.5t158.5 -55t98 -95t31 -143.5z" />
    <glyph glyph-name="Scircumflex" unicode="&#x15c;" horiz-adv-x="2056" 
d="M1425 1497h-227l-213 168l-213 -168h-227l329 279h222zM1948 371q0 -144 -76 -228t-265 -126t-524 -42q-232 0 -499 29t-453 72l35 205q211 -46 473.5 -75.5t501.5 -29.5q238 0 361.5 21t165.5 62t42 118q0 46 -12 78t-31 52t-55.5 33.5t-73.5 20t-96 12.5l-797 70
q-279 21 -407.5 106t-128.5 271q0 146 85 232.5t272 126.5t505 40q201 0 462 -26t451 -66l-41 -194q-184 36 -444 61t-479 25q-241 0 -364.5 -19.5t-166.5 -58.5t-43 -115q0 -40 13 -68.5t34 -47t60 -31.5t79 -19.5t103 -13.5l776 -66q108 -9 188 -25t148 -46t111 -74.5
t66.5 -110.5t23.5 -153z" />
    <glyph glyph-name="scircumflex" unicode="&#x15d;" horiz-adv-x="1658" 
d="M1264 1217h-228l-213 167l-213 -167h-227l330 278h221zM1567 270q0 -169 -152 -232t-534 -63t-756 74l41 160q382 -70 731 -70q268 0 358.5 25t90.5 108q0 34 -13 57.5t-35.5 39t-67.5 25.5t-93.5 16t-128.5 12l-467 29q-114 7 -191 24t-135 51t-84.5 90t-26.5 138
q0 73 30.5 125t87 85.5t149 53.5t202.5 27.5t263 7.5q134 0 320 -17.5t335 -40.5l-35 -159q-360 55 -670 55q-266 0 -363 -27t-97 -108q0 -33 12 -55.5t29.5 -36t52 -22t64 -12t81.5 -7.5l488 -33q135 -8 226.5 -26.5t158.5 -55t98 -95t31 -143.5z" />
    <glyph glyph-name="Scedilla" unicode="&#x15e;" horiz-adv-x="2056" 
d="M1948 371q0 -144 -76 -228t-265 -126t-524 -42q-232 0 -499 29t-453 72l35 205q211 -46 473.5 -75.5t501.5 -29.5q238 0 361.5 21t165.5 62t42 118q0 46 -12 78t-31 52t-55.5 33.5t-73.5 20t-96 12.5l-797 70q-279 21 -407.5 106t-128.5 271q0 146 85 232.5t272 126.5
t505 40q201 0 462 -26t451 -66l-41 -194q-184 36 -444 61t-479 25q-241 0 -364.5 -19.5t-166.5 -58.5t-43 -115q0 -40 13 -68.5t34 -47t60 -31.5t79 -19.5t103 -13.5l776 -66q108 -9 188 -25t148 -46t111 -74.5t66.5 -110.5t23.5 -153zM975 -113h153v-63q0 -131 -63 -188.5
t-219 -57.5q-105 0 -223 29l28 133q123 -21 185 -21q75 0 107 25t32 88v55z" />
    <glyph glyph-name="scedilla" unicode="&#x15f;" horiz-adv-x="1658" 
d="M1567 270q0 -169 -152 -232t-534 -63t-756 74l41 160q382 -70 731 -70q268 0 358.5 25t90.5 108q0 34 -13 57.5t-35.5 39t-67.5 25.5t-93.5 16t-128.5 12l-467 29q-114 7 -191 24t-135 51t-84.5 90t-26.5 138q0 73 30.5 125t87 85.5t149 53.5t202.5 27.5t263 7.5
q134 0 320 -17.5t335 -40.5l-35 -159q-360 55 -670 55q-266 0 -363 -27t-97 -108q0 -33 12 -55.5t29.5 -36t52 -22t64 -12t81.5 -7.5l488 -33q135 -8 226.5 -26.5t158.5 -55t98 -95t31 -143.5zM879 -92h153v-64q0 -131 -63 -188t-219 -57q-105 0 -224 28l31 133
q113 -20 184 -20q74 0 106 25t32 88v55z" />
    <glyph glyph-name="Scaron" unicode="&#x160;" horiz-adv-x="2056" 
d="M1427 1776l-329 -279h-221l-330 279h227l213 -166l213 166h227zM1948 371q0 -144 -76 -228t-265 -126t-524 -42q-232 0 -499 29t-453 72l35 205q211 -46 473.5 -75.5t501.5 -29.5q238 0 361.5 21t165.5 62t42 118q0 46 -12 78t-31 52t-55.5 33.5t-73.5 20t-96 12.5
l-797 70q-279 21 -407.5 106t-128.5 271q0 146 85 232.5t272 126.5t505 40q201 0 462 -26t451 -66l-41 -194q-184 36 -444 61t-479 25q-241 0 -364.5 -19.5t-166.5 -58.5t-43 -115q0 -40 13 -68.5t34 -47t60 -31.5t79 -19.5t103 -13.5l776 -66q108 -9 188 -25t148 -46
t111 -74.5t66.5 -110.5t23.5 -153z" />
    <glyph glyph-name="scaron" unicode="&#x161;" horiz-adv-x="1658" 
d="M1264 1495l-330 -278h-219l-330 278h225l215 -166l213 166h226zM1567 270q0 -169 -152 -232t-534 -63t-756 74l41 160q382 -70 731 -70q268 0 358.5 25t90.5 108q0 34 -13 57.5t-35.5 39t-67.5 25.5t-93.5 16t-128.5 12l-467 29q-114 7 -191 24t-135 51t-84.5 90
t-26.5 138q0 73 30.5 125t87 85.5t149 53.5t202.5 27.5t263 7.5q134 0 320 -17.5t335 -40.5l-35 -159q-360 55 -670 55q-266 0 -363 -27t-97 -108q0 -33 12 -55.5t29.5 -36t52 -22t64 -12t81.5 -7.5l488 -33q135 -8 226.5 -26.5t158.5 -55t98 -95t31 -143.5z" />
    <glyph glyph-name="Tcedilla" unicode="&#x162;" horiz-adv-x="2076" 
d="M913 1182h-841v215h1933v-215h-842v-1182h-250v1182zM995 -92h154v-64q0 -130 -63 -187.5t-220 -57.5q-104 0 -223 28l31 133q112 -20 182 -20q75 0 107 25t32 88v55z" />
    <glyph glyph-name="tcedilla" unicode="&#x163;" horiz-adv-x="1495" 
d="M281 508v326h-252v192h256l41 262h190v-262h864v-192h-864v-308q0 -100 18.5 -164.5t65 -107.5t122 -60.5t193.5 -17.5q215 0 484 60l45 -189q-282 -72 -547 -72q-329 0 -472.5 122t-143.5 411zM840 -92h151v-64q0 -130 -62.5 -187.5t-217.5 -57.5q-107 0 -226 28l31 133
q113 -20 184 -20q75 0 107.5 25t32.5 88v55z" />
    <glyph glyph-name="Tcaron" unicode="&#x164;" horiz-adv-x="2076" 
d="M1479 1776l-330 -279h-219l-330 279h225l215 -166l213 166h226zM913 1182h-841v215h1933v-215h-842v-1182h-250v1182z" />
    <glyph glyph-name="tcaron" unicode="&#x165;" horiz-adv-x="1495" 
d="M836 1327v39h-91v285h209v-332q0 -66 -39.5 -101.5t-115.5 -35.5q-30 0 -80 12l16 102q6 -1 25 -3.5t28 -2.5q28 0 38 7.5t10 29.5zM281 508v326h-252v192h256l41 262h190v-262h864v-192h-864v-308q0 -100 18.5 -164.5t65 -107.5t122 -60.5t193.5 -17.5q215 0 484 60
l45 -189q-282 -72 -547 -72q-329 0 -472.5 122t-143.5 411z" />
    <glyph glyph-name="Tbar" unicode="&#x166;" horiz-adv-x="2076" 
d="M913 1182h-841v215h1933v-215h-842v-465h520v-158h-520v-559h-250v559h-520v158h520v465z" />
    <glyph glyph-name="tbar" unicode="&#x167;" horiz-adv-x="1552" 
d="M1411 469h-864q6 -178 92 -247.5t309 -69.5q214 0 488 61l41 -166q-286 -72 -547 -72q-319 0 -464.5 113.5t-154.5 380.5h-250v145h250v267h-250v145h256l41 262h189v-262h864v-145h-864v-267h864v-145z" />
    <glyph glyph-name="Utilde" unicode="&#x168;" horiz-adv-x="2187" 
d="M719 1505v144q90 63 194 63q83 0 214.5 -30.5t183.5 -30.5q50 0 86 13.5t84 43.5v-145q-75 -58 -166 -58q-63 0 -199 34t-203 34q-98 0 -194 -68zM1812 727v670h250v-715q0 -237 -118 -396.5t-331.5 -234t-518.5 -74.5q-228 0 -405.5 42.5t-304 128.5t-193 220.5
t-66.5 313.5v715h250v-670q0 -276 174.5 -404t544.5 -128t544 128t174 404z" />
    <glyph glyph-name="utilde" unicode="&#x169;" horiz-adv-x="1828" 
d="M610 1229v141q94 66 197 66q82 0 212.5 -32t184.5 -32q34 0 66 9t50.5 19t51.5 30v-146q-77 -55 -164 -55q-63 0 -199.5 32.5t-203.5 32.5q-100 0 -195 -65zM127 467v559h233v-528q0 -160 105.5 -242t333.5 -82q260 0 659 133v719h234v-1026h-203l-21 147
q-409 -172 -743 -172q-293 0 -445.5 118t-152.5 374z" />
    <glyph glyph-name="Umacron" unicode="&#x16a;" horiz-adv-x="2187" 
d="M1475 1563h-758v153h758v-153zM1812 727v670h250v-715q0 -237 -118 -396.5t-331.5 -234t-518.5 -74.5q-228 0 -405.5 42.5t-304 128.5t-193 220.5t-66.5 313.5v715h250v-670q0 -276 174.5 -404t544.5 -128t544 128t174 404z" />
    <glyph glyph-name="umacron" unicode="&#x16b;" horiz-adv-x="1828" 
d="M1360 1286h-758v154h758v-154zM127 467v559h233v-528q0 -160 105.5 -242t333.5 -82q260 0 659 133v719h234v-1026h-203l-21 147q-409 -172 -743 -172q-293 0 -445.5 118t-152.5 374z" />
    <glyph glyph-name="Ubreve" unicode="&#x16c;" horiz-adv-x="2187" 
d="M1294 1778h179q0 -285 -381 -285q-197 0 -291 74.5t-94 210.5h180q0 -79 45 -117.5t160 -38.5q114 0 158 38t44 118zM1812 727v670h250v-715q0 -237 -118 -396.5t-331.5 -234t-518.5 -74.5q-228 0 -405.5 42.5t-304 128.5t-193 220.5t-66.5 313.5v715h250v-670
q0 -276 174.5 -404t544.5 -128t544 128t174 404z" />
    <glyph glyph-name="ubreve" unicode="&#x16d;" horiz-adv-x="1828" 
d="M1184 1489h180q0 -135 -93 -210t-290 -75t-291 75t-94 210h180q0 -78 45 -116t160 -38q114 0 158.5 38t44.5 116zM127 467v559h233v-528q0 -160 105.5 -242t333.5 -82q260 0 659 133v719h234v-1026h-203l-21 147q-409 -172 -743 -172q-293 0 -445.5 118t-152.5 374z" />
    <glyph glyph-name="Uring" unicode="&#x16e;" horiz-adv-x="2187" 
d="M1092 1489q-291 0 -291 211q0 201 291 201q288 0 288 -201q0 -106 -70.5 -158.5t-217.5 -52.5zM924 1698q0 -55 37 -81t131 -26q95 0 130 25.5t35 81.5q0 53 -35 76.5t-130 23.5q-94 0 -131 -24t-37 -76zM1812 727v670h250v-715q0 -237 -118 -396.5t-331.5 -234
t-518.5 -74.5q-228 0 -405.5 42.5t-304 128.5t-193 220.5t-66.5 313.5v715h250v-670q0 -276 174.5 -404t544.5 -128t544 128t174 404z" />
    <glyph glyph-name="uring" unicode="&#x16f;" horiz-adv-x="1828" 
d="M981 1200q-291 0 -291 209q0 203 291 203q289 0 289 -203q0 -209 -289 -209zM813 1409q0 -55 36 -80.5t132 -25.5q95 0 130.5 25t35.5 81q0 52 -35.5 76t-130.5 24q-96 0 -132 -24t-36 -76zM127 467v559h233v-528q0 -160 105.5 -242t333.5 -82q260 0 659 133v719h234
v-1026h-203l-21 147q-409 -172 -743 -172q-293 0 -445.5 118t-152.5 374z" />
    <glyph glyph-name="Uhungarumlaut" unicode="&#x170;" horiz-adv-x="2187" 
d="M963 1774h258l-287 -279h-193zM1421 1774h258l-309 -279h-192zM1812 727v670h250v-715q0 -237 -118 -396.5t-331.5 -234t-518.5 -74.5q-228 0 -405.5 42.5t-304 128.5t-193 220.5t-66.5 313.5v715h250v-670q0 -276 174.5 -404t544.5 -128t544 128t174 404z" />
    <glyph glyph-name="uhungarumlaut" unicode="&#x171;" horiz-adv-x="1828" 
d="M862 1495h258l-286 -276h-193zM1323 1495h256l-309 -276h-193zM127 467v559h233v-528q0 -160 105.5 -242t333.5 -82q260 0 659 133v719h234v-1026h-203l-21 147q-409 -172 -743 -172q-293 0 -445.5 118t-152.5 374z" />
    <glyph glyph-name="Uogonek" unicode="&#x172;" horiz-adv-x="2187" 
d="M1812 727v670h250v-715q0 -292 -172.5 -462t-496.5 -222q-256 -117 -256 -215q0 -53 77 -53q93 0 213 53l41 -119q-137 -70 -280 -70q-97 0 -148 37t-51 109q0 69 63 134t156 106q-56 -3 -114 -3q-228 0 -405.5 42.5t-304 128.5t-193 220.5t-66.5 313.5v715h250v-670
q0 -276 174.5 -404t544.5 -128t544 128t174 404z" />
    <glyph glyph-name="uogonek" unicode="&#x173;" horiz-adv-x="1828" 
d="M127 467v559h233v-528q0 -160 105.5 -242t333.5 -82q260 0 659 133v719h234v-1026h2q-258 -120 -258 -217q0 -53 75 -53q93 0 213 53l41 -119q-137 -70 -280 -70q-96 0 -147.5 37.5t-51.5 108.5q0 74 80.5 148t185.5 112h-63l-21 147q-409 -172 -743 -172
q-293 0 -445.5 118t-152.5 374z" />
    <glyph glyph-name="Wcircumflex" unicode="&#x174;" horiz-adv-x="3373" 
d="M2126 1497h-228l-212 168l-213 -168h-228l330 279h221zM735 0l-684 1397h283l567 -1168l633 1168h305l637 -1168l563 1168h281l-684 -1397h-316l-632 1161l-635 -1161h-318z" />
    <glyph glyph-name="wcircumflex" unicode="&#x175;" horiz-adv-x="2666" 
d="M1763 1217h-225l-213 167l-215 -167h-225l329 278h220zM1176 1026h297l514 -833l413 833h250l-532 -1026h-263l-534 864l-537 -864h-262l-510 1026h248l408 -833z" />
    <glyph glyph-name="Ycircumflex" unicode="&#x176;" horiz-adv-x="2146" 
d="M1513 1497h-225l-213 168l-215 -168h-225l330 279h219zM948 553l-942 844h326l743 -654l744 654h321l-942 -846v-551h-250v553z" />
    <glyph glyph-name="ycircumflex" unicode="&#x177;" horiz-adv-x="1855" 
d="M1370 1217h-227l-213 167l-213 -167h-228l330 278h221zM127 567v459h233v-426q0 -170 106.5 -242.5t356.5 -72.5q307 0 672 106v635h234v-844q0 -164 -46.5 -274.5t-148.5 -177.5t-251.5 -96t-369.5 -29q-183 0 -374.5 26t-337.5 68l45 184q359 -92 682 -92
q326 0 454.5 82.5t122.5 290.5l-6 63q-379 -139 -729 -139q-339 0 -491 115t-152 364z" />
    <glyph glyph-name="Ydieresis" unicode="&#x178;" horiz-adv-x="2146" 
d="M940 1774v-277h-209v277h209zM1417 1774v-277h-209v277h209zM948 553l-942 844h326l743 -654l744 654h321l-942 -846v-551h-250v553z" />
    <glyph glyph-name="Zacute" unicode="&#x179;" horiz-adv-x="2222" 
d="M1268 1776h303l-346 -279h-236zM2085 215v-215h-1948v201l1198 768q102 54 441 190l-478 -16h-1124v217h1905v-203l-1116 -735q-145 -79 -506 -221l495 14h1133z" />
    <glyph glyph-name="zacute" unicode="&#x17a;" horiz-adv-x="1740" 
d="M1047 1495h303l-359 -276h-235zM1642 168v-168h-1542v168l693 426q189 104 573 264h-1245v168h1521v-168l-647 -403q-107 -61 -221 -116t-239 -109.5t-140 -61.5h1247z" />
    <glyph glyph-name="Zdotaccent" unicode="&#x17b;" horiz-adv-x="2222" 
d="M1229 1806v-276h-234v276h234zM2085 215v-215h-1948v201l1198 768q102 54 441 190l-478 -16h-1124v217h1905v-203l-1116 -735q-145 -79 -506 -221l495 14h1133z" />
    <glyph glyph-name="zdotaccent" unicode="&#x17c;" horiz-adv-x="1740" 
d="M993 1456v-276h-233v276h233zM1642 168v-168h-1542v168l693 426q189 104 573 264h-1245v168h1521v-168l-647 -403q-107 -61 -221 -116t-239 -109.5t-140 -61.5h1247z" />
    <glyph glyph-name="Zcaron" unicode="&#x17d;" horiz-adv-x="2222" 
d="M1554 1776l-329 -279h-221l-330 279h227l213 -166l213 166h227zM2085 215v-215h-1948v201l1198 768q102 54 441 190l-478 -16h-1124v217h1905v-203l-1116 -735q-145 -79 -506 -221l495 14h1133z" />
    <glyph glyph-name="zcaron" unicode="&#x17e;" horiz-adv-x="1740" 
d="M1317 1495l-330 -278h-219l-330 278h226l215 -166l213 166h225zM1642 168v-168h-1542v168l693 426q189 104 573 264h-1245v168h1521v-168l-647 -403q-107 -61 -221 -116t-239 -109.5t-140 -61.5h1247z" />
    <glyph glyph-name="florin" unicode="&#x192;" horiz-adv-x="1898" 
d="M762 127l80 448h-553l35 193h550l54 297q45 262 213.5 379t486.5 117q241 0 486 -43l-46 -183q-236 39 -444 39q-221 0 -326.5 -76.5t-136.5 -257.5l-49 -272h643l-33 -193h-643l-84 -473q-44 -253 -218 -374t-496 -121q-233 0 -474 43l48 184q212 -41 438 -41
q218 0 328 81.5t141 252.5z" />
    <glyph glyph-name="AEacute" unicode="&#x1fc;" horiz-adv-x="3610" 
d="M2103 1776h303l-346 -279h-233zM332 0h-334l1620 1397h1868v-201h-1487v-399h1446v-170h-1444v-426h1485v-201h-1735v319h-1046zM1751 1212l-840 -712h840v712z" />
    <glyph glyph-name="aeacute" unicode="&#x1fd;" horiz-adv-x="3141" 
d="M1745 1483h301l-358 -277h-234zM2296 164q354 0 657 67l47 -176q-135 -35 -332.5 -57.5t-390.5 -22.5q-306 0 -493.5 60t-272.5 194q-177 -110 -409.5 -182t-483.5 -72q-244 0 -366.5 71.5t-122.5 227.5q0 161 138 231t448 70h725q-6 75 -32.5 124t-89 85.5t-172 53
t-276.5 16.5q-304 0 -628 -80l-39 193q143 37 330 60.5t362 23.5q273 0 433.5 -46.5t238.5 -146.5q190 193 678 193q145 0 262.5 -15t217.5 -50.5t168 -90.5t106 -138t38 -190q0 -68 -8 -114h-1356q11 -87 51.5 -143.5t120 -88.5t185.5 -44.5t266 -12.5zM2236 885
q-279 0 -412 -67t-151 -232h1135q-9 106 -62.5 169t-177 96.5t-332.5 33.5zM356 295q0 -85 66.5 -117.5t226.5 -32.5q424 0 809 215q-9 41 -12 82l-754 -2q-92 0 -149.5 -5t-102.5 -20.5t-64.5 -44.5t-19.5 -75z" />
    <glyph glyph-name="Scommaaccent" unicode="&#x218;" horiz-adv-x="2056" 
d="M1948 371q0 -144 -76 -228t-265 -126t-524 -42q-232 0 -499 29t-453 72l35 205q211 -46 473.5 -75.5t501.5 -29.5q238 0 361.5 21t165.5 62t42 118q0 46 -12 78t-31 52t-55.5 33.5t-73.5 20t-96 12.5l-797 70q-279 21 -407.5 106t-128.5 271q0 146 85 232.5t272 126.5
t505 40q201 0 462 -26t451 -66l-41 -194q-184 36 -444 61t-479 25q-241 0 -364.5 -19.5t-166.5 -58.5t-43 -115q0 -40 13 -68.5t34 -47t60 -31.5t79 -19.5t103 -13.5l776 -66q108 -9 188 -25t148 -46t111 -74.5t66.5 -110.5t23.5 -153zM905 -143h248l-235 -277h-195z" />
    <glyph glyph-name="scommaaccent" unicode="&#x219;" horiz-adv-x="1658" 
d="M1567 270q0 -169 -152 -232t-534 -63t-756 74l41 160q382 -70 731 -70q268 0 358.5 25t90.5 108q0 34 -13 57.5t-35.5 39t-67.5 25.5t-93.5 16t-128.5 12l-467 29q-114 7 -191 24t-135 51t-84.5 90t-26.5 138q0 73 30.5 125t87 85.5t149 53.5t202.5 27.5t263 7.5
q134 0 320 -17.5t335 -40.5l-35 -159q-360 55 -670 55q-266 0 -363 -27t-97 -108q0 -33 12 -55.5t29.5 -36t52 -22t64 -12t81.5 -7.5l488 -33q135 -8 226.5 -26.5t158.5 -55t98 -95t31 -143.5zM684 -123h248l-236 -276h-196z" />
    <glyph glyph-name="Tcommaaccent" unicode="&#x21a;" horiz-adv-x="2076" 
d="M913 1182h-841v215h1933v-215h-842v-1182h-250v1182zM926 -123h250l-236 -276h-197z" />
    <glyph glyph-name="tcommaaccent" unicode="&#x21b;" horiz-adv-x="1495" 
d="M281 508v326h-252v192h256l41 262h190v-262h864v-192h-864v-308q0 -100 18.5 -164.5t65 -107.5t122 -60.5t193.5 -17.5q215 0 484 60l45 -189q-282 -72 -547 -72q-329 0 -472.5 122t-143.5 411zM700 -123h250l-235 -276h-197z" />
    <glyph glyph-name="dotlessj" unicode="&#x237;" horiz-adv-x="524" 
d="M197 -371h-250q39 52 67 97t61.5 114.5t51.5 153.5t18 176v856h234v-858q0 -100 -16.5 -187t-47 -154t-56.5 -109.5t-62 -88.5z" />
    <glyph glyph-name="circumflex" unicode="&#x2c6;" horiz-adv-x="1024" 
d="M950 1208h-225l-213 168l-215 -168h-225l329 281h220z" />
    <glyph glyph-name="caron" unicode="&#x2c7;" horiz-adv-x="1024" 
d="M950 1489l-329 -281h-220l-329 281h225l215 -168l213 168h225z" />
    <glyph glyph-name="breve" unicode="&#x2d8;" horiz-adv-x="1015" 
d="M711 1481h180q0 -135 -93 -210t-290 -75t-290 75t-93 210h180q0 -78 45 -116t158 -38q114 0 158.5 38t44.5 116z" />
    <glyph glyph-name="dotaccent" unicode="&#x2d9;" horiz-adv-x="583" 
d="M410 1448v-274h-234v274h234z" />
    <glyph glyph-name="ring" unicode="&#x2da;" horiz-adv-x="829" 
d="M416 1188q-291 0 -291 211q0 200 291 200q289 0 289 -200q0 -211 -289 -211zM248 1397q0 -54 36.5 -80.5t131.5 -26.5q94 0 130 26.5t36 80.5q0 52 -36 76t-130 24q-96 0 -132 -24t-36 -76z" />
    <glyph glyph-name="ogonek" unicode="&#x2db;" horiz-adv-x="729" 
d="M401 4l129 -4q-258 -120 -258 -217q0 -53 76 -53q93 0 213 53l41 -119q-137 -70 -280 -70q-96 0 -147.5 37.5t-51.5 108.5q0 77 84.5 152.5t193.5 111.5z" />
    <glyph glyph-name="tilde" unicode="&#x2dc;" horiz-adv-x="1024" 
d="M131 1221v141q93 65 195 65q83 0 214 -31.5t183 -31.5q50 0 87 14.5t83 44.5v-147q-77 -55 -164 -55q-64 0 -200 33.5t-203 33.5q-101 0 -195 -67z" />
    <glyph glyph-name="hungarumlaut" unicode="&#x2dd;" horiz-adv-x="1185" 
d="M346 1489h258l-287 -279h-192zM805 1489h258l-311 -279h-193z" />
    <glyph glyph-name="commaaccentcomb" unicode="&#x326;" horiz-adv-x="647" 
d="M297 -123h250l-236 -276h-196z" />
    <glyph glyph-name="pi" unicode="&#x3c0;" horiz-adv-x="2394" 
d="M664 0h-234v834h-289v192h2054v-192h-294v-472q0 -101 44.5 -146.5t155.5 -45.5q55 0 123 10l21 -184q-82 -19 -183 -19q-209 0 -302 86.5t-93 280.5v490h-1003v-834z" />
    <glyph glyph-name="Wgrave" unicode="&#x1e80;" horiz-adv-x="3373" 
d="M1608 1497l-346 279h303l278 -279h-235zM735 0l-684 1397h283l567 -1168l633 1168h305l637 -1168l563 1168h281l-684 -1397h-316l-632 1161l-635 -1161h-318z" />
    <glyph glyph-name="wgrave" unicode="&#x1e81;" horiz-adv-x="2666" 
d="M1202 1219l-358 276h303l289 -276h-234zM1176 1026h297l514 -833l413 833h250l-532 -1026h-263l-534 864l-537 -864h-262l-510 1026h248l408 -833z" />
    <glyph glyph-name="Wacute" unicode="&#x1e82;" horiz-adv-x="3373" 
d="M1841 1776h303l-346 -279h-235zM735 0l-684 1397h283l567 -1168l633 1168h305l637 -1168l563 1168h281l-684 -1397h-316l-632 1161l-635 -1161h-318z" />
    <glyph glyph-name="wacute" unicode="&#x1e83;" horiz-adv-x="2666" 
d="M1493 1495h303l-358 -276h-236zM1176 1026h297l514 -833l413 833h250l-532 -1026h-263l-534 864l-537 -864h-262l-510 1026h248l408 -833z" />
    <glyph glyph-name="Wdieresis" unicode="&#x1e84;" horiz-adv-x="3373" 
d="M1552 1774v-277h-209v277h209zM2028 1774v-277h-209v277h209zM735 0l-684 1397h283l567 -1168l633 1168h305l637 -1168l563 1168h281l-684 -1397h-316l-632 1161l-635 -1161h-318z" />
    <glyph glyph-name="wdieresis" unicode="&#x1e85;" horiz-adv-x="2666" 
d="M1190 1487v-277h-209v277h209zM1665 1487v-277h-209v277h209zM1176 1026h297l514 -833l413 833h250l-532 -1026h-263l-534 864l-537 -864h-262l-510 1026h248l408 -833z" />
    <glyph glyph-name="Etilde" unicode="&#x1ebc;" horiz-adv-x="2078" 
d="M758 1507v142q93 65 194 65q83 0 214.5 -31.5t183.5 -31.5q50 0 87 14.5t83 44.5v-147q-78 -56 -164 -56q-64 0 -200.5 34t-203.5 34q-98 0 -194 -68zM1954 0h-1809v1397h1809v-201h-1559v-399h1520v-170h-1520v-426h1559v-201z" />
    <glyph glyph-name="etilde" unicode="&#x1ebd;" horiz-adv-x="1802" 
d="M530 1217v141q93 65 195 65q83 0 214 -31.5t183 -31.5q35 0 67 9t51.5 19t51.5 29v-145q-71 -55 -164 -55q-64 0 -200 32.5t-203 32.5q-98 0 -195 -65zM958 164q353 0 656 67l49 -176q-135 -35 -333.5 -57.5t-389.5 -22.5q-432 0 -634 124t-202 415q0 115 35 205
t101.5 152.5t165.5 102.5t222.5 58.5t278.5 18.5q144 0 261.5 -15t218 -50.5t168.5 -90.5t106.5 -138t38.5 -190q0 -68 -8 -114h-1358q9 -70 38 -119.5t76.5 -82.5t123.5 -52.5t167.5 -27t218.5 -7.5zM899 885q-281 0 -414 -67t-151 -232h1136q-9 105 -63 168.5t-177 97
t-331 33.5z" />
    <glyph glyph-name="Ygrave" unicode="&#x1ef2;" horiz-adv-x="2146" 
d="M997 1497l-346 279h303l277 -279h-234zM948 553l-942 844h326l743 -654l744 654h321l-942 -846v-551h-250v553z" />
    <glyph glyph-name="ygrave" unicode="&#x1ef3;" horiz-adv-x="1855" 
d="M807 1219l-356 276h303l286 -276h-233zM127 567v459h233v-426q0 -170 106.5 -242.5t356.5 -72.5q307 0 672 106v635h234v-844q0 -164 -46.5 -274.5t-148.5 -177.5t-251.5 -96t-369.5 -29q-183 0 -374.5 26t-337.5 68l45 184q359 -92 682 -92q326 0 454.5 82.5
t122.5 290.5l-6 63q-379 -139 -729 -139q-339 0 -491 115t-152 364z" />
    <glyph glyph-name="Ytilde" unicode="&#x1ef8;" horiz-adv-x="2146" 
d="M700 1507v142q93 65 195 65q83 0 214 -31.5t183 -31.5q35 0 66.5 9t51 19t52.5 31v-147q-78 -56 -164 -56q-64 0 -200 34t-203 34q-99 0 -195 -68zM948 553l-942 844h326l743 -654l744 654h321l-942 -846v-551h-250v553z" />
    <glyph glyph-name="ytilde" unicode="&#x1ef9;" horiz-adv-x="1873" 
d="M553 1217v141q93 65 195 65q83 0 214 -31.5t183 -31.5q35 0 67 9t50 18t53 30v-145q-71 -55 -164 -55q-64 0 -200 32.5t-203 32.5q-98 0 -195 -65zM127 567v459h233v-426q0 -170 106.5 -242.5t356.5 -72.5q307 0 672 106v635h234v-844q0 -164 -46.5 -274.5t-148.5 -177.5
t-251.5 -96t-369.5 -29q-183 0 -374.5 26t-337.5 68l45 184q359 -92 682 -92q326 0 454.5 82.5t122.5 290.5l-6 63q-379 -139 -729 -139q-339 0 -491 115t-152 364z" />
    <glyph glyph-name="endash" unicode="&#x2013;" horiz-adv-x="1222" 
d="M1124 442h-1024v189h1024v-189z" />
    <glyph glyph-name="emdash" unicode="&#x2014;" horiz-adv-x="2246" 
d="M2148 442h-2048v189h2048v-189z" />
    <glyph glyph-name="quoteleft" unicode="&#x2018;" horiz-adv-x="505" 
d="M408 1548l-19 -118q-34 6 -61 6q-31 0 -42.5 -8.5t-11.5 -34.5v-45h105v-340h-242v395q0 158 180 158q47 0 91 -13z" />
    <glyph glyph-name="quoteright" unicode="&#x2019;" horiz-adv-x="505" 
d="M98 995l19 119q7 -1 19 -2.5t22 -2.5t18 -1q33 0 44 8.5t11 34.5v47h-106v338h244v-395q0 -77 -46 -117.5t-135 -40.5q-36 0 -90 12z" />
    <glyph glyph-name="quotesinglbase" unicode="&#x201a;" horiz-adv-x="505" 
d="M98 -203l19 119q7 -1 19 -2.5t22 -2.5t18 -1q32 0 43.5 9t11.5 34v47h-106v338h244v-395q0 -77 -46 -117.5t-135 -40.5q-36 0 -90 12z" />
    <glyph glyph-name="quotedblleft" unicode="&#x201c;" horiz-adv-x="913" 
d="M408 1548l-19 -118q-34 6 -61 6q-31 0 -42.5 -8.5t-11.5 -34.5v-45h105v-340h-242v395q0 158 180 158q47 0 91 -13zM815 1548l-18 -118q-34 6 -62 6q-31 0 -42 -8.5t-11 -34.5v-45h104v-340h-241v395q0 158 180 158q46 0 90 -13z" />
    <glyph glyph-name="quotedblright" unicode="&#x201d;" horiz-adv-x="913" 
d="M98 995l19 119q7 -1 19 -2.5t22 -2.5t18 -1q33 0 44 8.5t11 34.5v47h-106v338h244v-395q0 -77 -46 -117.5t-135 -40.5q-36 0 -90 12zM506 995l18 119q7 -1 19.5 -2.5t22.5 -2.5t18 -1q33 0 44 8.5t11 34.5v47h-107v338h244v-395q0 -77 -45.5 -117.5t-134.5 -40.5
q-36 0 -90 12z" />
    <glyph glyph-name="quotedblbase" unicode="&#x201e;" horiz-adv-x="913" 
d="M98 -203l19 119q7 -1 19 -2.5t22 -2.5t18 -1q32 0 43.5 9t11.5 34v47h-106v338h244v-395q0 -77 -46 -117.5t-135 -40.5q-36 0 -90 12zM506 -203l18 119l60 -6q32 0 43.5 9t11.5 34v47h-107v338h244v-395q0 -77 -45.5 -117.5t-134.5 -40.5q-36 0 -90 12z" />
    <glyph glyph-name="dagger" unicode="&#x2020;" horiz-adv-x="1699" 
d="M727 817h-618v209h618v371h250v-371h614v-209h-614v-1124h-250v1124z" />
    <glyph glyph-name="daggerdbl" unicode="&#x2021;" horiz-adv-x="1699" 
d="M727 63h-618v211h618v543h-618v209h618v371h250v-371h614v-209h-614v-543h614v-211h-614v-370h-250v370z" />
    <glyph glyph-name="bullet" unicode="&#x2022;" horiz-adv-x="903" 
d="M453 426q-151 0 -216 49t-65 164q0 112 65 160.5t216 48.5t215.5 -48t64.5 -161q0 -115 -64.5 -164t-215.5 -49z" />
    <glyph glyph-name="ellipsis" unicode="&#x2026;" horiz-adv-x="1509" 
d="M367 338v-338h-242v338h242zM874 338v-338h-241v338h241zM1384 338v-338h-241v338h241z" />
    <glyph glyph-name="perthousand" unicode="&#x2030;" horiz-adv-x="3717" 
d="M100 1092q0 169 123.5 249t368.5 80q247 0 370 -80t123 -249q0 -168 -123.5 -249t-369.5 -81q-492 0 -492 330zM674 0h-232l1483 1397h229zM930 1092q0 103 -76.5 147.5t-261.5 44.5q-184 0 -261 -45t-77 -147q0 -104 77 -148.5t261 -44.5q186 0 262 44.5t76 148.5z
M2615 313q0 169 123.5 249.5t370.5 80.5q246 0 368.5 -80t122.5 -250t-122.5 -249.5t-368.5 -79.5q-247 0 -370.5 80t-123.5 249zM1513 309q0 169 123.5 249.5t370.5 80.5q246 0 369 -80t123 -250q0 -168 -123 -248.5t-369 -80.5t-370 80.5t-124 248.5zM3445 313
q0 103 -76 148t-260 45q-185 0 -262.5 -45t-77.5 -148q0 -104 77 -148t263 -44q184 0 260 44t76 148zM2345 309q0 103 -76.5 148t-261.5 45t-261.5 -45t-76.5 -148t76.5 -147.5t261.5 -44.5t261.5 44.5t76.5 147.5z" />
    <glyph glyph-name="guilsinglleft" unicode="&#x2039;" horiz-adv-x="976" 
d="M860 55l-743 365v221l743 365v-199l-567 -277l567 -276v-199z" />
    <glyph glyph-name="guilsinglright" unicode="&#x203a;" horiz-adv-x="976" 
d="M117 1006l743 -365v-221l-743 -365v199l565 276l-565 277v199z" />
    <glyph glyph-name="fraction" unicode="&#x2044;" horiz-adv-x="401" 
d="M-424 0h-231l1480 1397h232z" />
    <glyph glyph-name="zero.superior" unicode="&#x2070;" horiz-adv-x="1183" 
d="M100 1092q0 169 123.5 249t368.5 80q247 0 370 -80t123 -249q0 -168 -123.5 -249t-369.5 -81q-492 0 -492 330zM930 1092q0 103 -76.5 147.5t-261.5 44.5q-184 0 -261 -45t-77 -147q0 -104 77 -148.5t261 -44.5q186 0 262 44.5t76 148.5z" />
    <glyph glyph-name="four.superior" unicode="&#x2074;" horiz-adv-x="1193" 
d="M932 752h-146v118h-690v107l690 397h146v-391h174v-113h-174v-118zM279 971v-4q122 13 251 16h256v252l-278 -160q-107 -50 -229 -104z" />
    <glyph glyph-name="Euro" unicode="&#x20ac;" horiz-adv-x="2340" 
d="M276 696q0 38 3 72h-267v147h289q63 255 299.5 378.5t671.5 123.5q242 0 500 -30.5t466 -81.5l-43 -195q-495 107 -917 107q-218 0 -365.5 -33.5t-231.5 -99.5t-122 -169h981v-147h-1012q-2 -23 -2 -72q0 -28 4 -78h1010v-147h-979q58 -150 227.5 -221.5t489.5 -71.5
q402 0 917 107l43 -195q-207 -52 -465.5 -83.5t-500.5 -31.5q-432 0 -668 122t-301 374h-291v147h267q-3 38 -3 78z" />
    <glyph glyph-name="litre" unicode="&#x2113;" horiz-adv-x="1357" 
d="M874 764l-528 -236v-100q0 -132 59 -186t211 -54q150 0 326 48l41 -207q-162 -56 -369 -56q-265 0 -383 109t-118 340v418q0 268 156.5 417.5t461.5 149.5q212 0 315 -82t103 -223q0 -117 -70.5 -198t-204.5 -140zM346 864v-200l404 180q97 41 142.5 84.5t45.5 109.5
q0 81 -53 121.5t-168 40.5q-176 0 -273.5 -84t-97.5 -252z" />
    <glyph glyph-name="trademark" unicode="&#x2122;" horiz-adv-x="4265" 
d="M2263 629h-256v768h326l708 -602l709 602h326v-768h-256v559l-650 -559h-258l-649 557v-557zM786 1194h-692v203h1643v-203h-693v-565h-258v565z" />
    <glyph glyph-name="partialdiff" unicode="&#x2202;" horiz-adv-x="2039" 
d="M1870 717q0 -348 -245 -542.5t-695 -194.5q-390 0 -588.5 123t-198.5 384q0 126 49.5 216.5t144 143.5t218 77t285.5 24q231 0 435 -57t363 -143q-13 512 -686 512q-219 0 -506 -70l-38 203q277 77 571 77q169 0 306 -28t233 -80t165.5 -120.5t109.5 -155t58.5 -177
t18.5 -192.5zM377 500q0 -169 132 -246.5t421 -77.5q318 0 494.5 115t207.5 340q-154 73 -365 123.5t-409 50.5q-238 0 -359.5 -71t-121.5 -234z" />
    <glyph glyph-name="product" unicode="&#x220f;" horiz-adv-x="2516" 
d="M635 0h-250v1143h-276v217h2299v-217h-284v-1143h-250v1143h-1239v-1143z" />
    <glyph glyph-name="summation" unicode="&#x2211;" horiz-adv-x="2140" 
d="M2019 -193v-200h-1894v258l1354 651l-1354 602v279h1894v-201h-1624l1256 -588v-186l-1243 -615h1611z" />
    <glyph glyph-name="minus" unicode="&#x2212;" horiz-adv-x="1533" 
d="M1393 557h-1252v184h1252v-184z" />
    <glyph glyph-name="divisionslash" unicode="&#x2215;" horiz-adv-x="1259" 
d="M6 0h-231l1480 1397h232z" />
    <glyph glyph-name="radical" unicode="&#x221a;" horiz-adv-x="1716" 
d="M1659 1384l-766 -1384h-219l-268 479h-340v193h458l254 -457l647 1169h234z" />
    <glyph glyph-name="infinity" unicode="&#x221e;" horiz-adv-x="2033" 
d="M506 254q-173 0 -281 99t-108 282q0 184 110.5 284.5t280.5 100.5q84 0 157.5 -22t137.5 -65.5t110 -86t103 -105.5q48 50 84.5 84.5t88.5 74.5t100 64t109 40t126 16q172 0 282.5 -100t110.5 -283q0 -184 -108.5 -283.5t-282.5 -99.5q-86 0 -162 20t-139.5 58t-111 77.5
t-101.5 94.5q-54 -55 -103 -95t-112 -78t-136.5 -57.5t-154.5 -19.5zM1505 852q-55 0 -106 -17t-100.5 -53t-85.5 -69.5t-89 -89.5q93 -97 182 -149t205 -52q102 0 163 54t61 163q0 108 -62.5 160.5t-167.5 52.5zM522 422q107 0 196 52.5t185 150.5q-48 54 -83.5 88.5
t-83 69.5t-99 52t-109.5 17q-105 0 -167 -53.5t-62 -161.5q0 -109 60 -162t163 -53z" />
    <glyph glyph-name="integral" unicode="&#x222b;" horiz-adv-x="1726" 
d="M1399 1374q-227 0 -322.5 -80t-95.5 -254v-1063q0 -509 -664 -509q-174 0 -421 43l43 178q212 -35 387 -35q228 0 323.5 80t95.5 254v1063q0 253 167 381.5t497 128.5q175 0 422 -43l-43 -179q-216 35 -389 35z" />
    <glyph glyph-name="approxequal" unicode="&#x2248;" horiz-adv-x="1554" 
d="M475 858q-164 0 -317 -94l-17 182q159 103 346 103q74 0 152.5 -17.5t136.5 -38t141.5 -38t165.5 -17.5q155 0 314 104l18 -174q-159 -114 -334 -114q-86 0 -172 16t-145 36t-137.5 36t-151.5 16zM477 461q-153 0 -319 -111l-17 182q166 111 346 111q92 0 192.5 -25.5
t205 -51t207.5 -25.5q79 0 149.5 22.5t155.5 73.5l18 -182q-149 -107 -328 -107q-86 0 -170.5 17.5t-142.5 39t-138.5 39t-158.5 17.5z" />
    <glyph glyph-name="notequal" unicode="&#x2260;" horiz-adv-x="1525" 
d="M1401 332h-754l-112 -174h-160l112 174h-362v184h481l150 234h-631v184h749l115 178h160l-115 -178h367v-184h-486l-149 -234h635v-184z" />
    <glyph glyph-name="lessequal" unicode="&#x2264;" horiz-adv-x="1501" 
d="M1378 274l-1253 318v250l1253 319v-205l-1050 -239l1050 -240v-203zM1378 29h-1253v184h1253v-184z" />
    <glyph glyph-name="greaterequal" unicode="&#x2265;" horiz-adv-x="1501" 
d="M1378 842v-250l-1253 -318v203l1051 240l-1051 239v205zM1378 213v-184h-1253v184h1253z" />
    <glyph glyph-name="lozenge" unicode="&#x25ca;" horiz-adv-x="1595" 
d="M1518 754v-172l-633 -582h-174l-631 582v172l631 581h174zM799 1151l-514 -483l514 -484l512 484z" />
    <glyph glyph-name="caron.alt" unicode="&#xe189;" horiz-adv-x="505" 
d="M244 1075v39h-90v283h208v-332q0 -135 -155 -135q-40 0 -78 10l16 102q36 -4 54 -4q26 0 35.5 7.5t9.5 29.5z" />
    <glyph glyph-name="commaaccentcomb.alt" horiz-adv-x="647" 
d="M420 1223h-297l252 278h227z" />
    <glyph glyph-name="dieresis.case" horiz-adv-x="933" 
d="M334 1825v-277h-209v277h209zM809 1825v-277h-209v277h209z" />
    <glyph glyph-name="dotaccent.case" horiz-adv-x="583" 
d="M410 1806v-276h-234v276h234z" />
    <glyph glyph-name="grave.case" horiz-adv-x="858" 
d="M416 1548l-346 277h303l278 -277h-235z" />
    <glyph glyph-name="acute.case" horiz-adv-x="858" 
d="M485 1825h303l-348 -277h-233z" />
    <glyph glyph-name="hungarumlaut.case" horiz-adv-x="1185" 
d="M346 1825h258l-287 -277h-192zM805 1825h258l-311 -277h-193z" />
    <glyph glyph-name="circumflex.case" horiz-adv-x="1024" 
d="M950 1548h-225l-213 166l-215 -166h-225l329 279h220z" />
    <glyph glyph-name="caron.case" horiz-adv-x="1024" 
d="M950 1827l-329 -279h-220l-329 279h225l215 -166l213 166h225z" />
    <glyph glyph-name="breve.case" horiz-adv-x="1015" 
d="M711 1829h180q0 -135 -93 -210t-290 -75t-290 75t-93 210h180q0 -78 45 -116t158 -38q114 0 158.5 38t44.5 116z" />
    <glyph glyph-name="ring.case" horiz-adv-x="829" 
d="M416 1534q-291 0 -291 211q0 201 291 201q289 0 289 -201q0 -211 -289 -211zM248 1743q0 -56 36.5 -81.5t131.5 -25.5q94 0 130 26t36 81q0 52 -36 76t-130 24q-96 0 -132 -24t-36 -76z" />
    <glyph glyph-name="tilde.case" horiz-adv-x="1011" 
d="M125 1559v141q93 65 194 65q83 0 214.5 -31.5t183.5 -31.5q35 0 67 9t51.5 19t51.5 29v-145q-71 -55 -164 -55q-64 0 -200.5 32.5t-203.5 32.5q-97 0 -194 -65z" />
    <glyph glyph-name="macron.case" horiz-adv-x="1007" 
d="M883 1616h-758v153h758v-153z" />
    <glyph glyph-name="cedilla.case" horiz-adv-x="755" 
d="M410 -92h153v-64q0 -131 -63 -188t-219 -57q-110 0 -224 28l29 133q117 -20 184 -20q75 0 107.5 25t32.5 88v55z" />
    <glyph glyph-name="ogonek.case" horiz-adv-x="729" 
d="M393 4h139q-260 -125 -260 -217q0 -53 78 -53q90 0 213 51l41 -117q-139 -71 -280 -71q-97 0 -148 37.5t-51 109.5q0 78 79.5 150t188.5 110z" />
    <glyph glyph-name="ITF" horiz-adv-x="3483" 
d="M186 0v1434h443v-1434h-443zM721 1016v418h442v-418h-442zM1253 0v1434h445v-1434h-445zM1788 1016v418h442v-418h-442zM2320 0v1434h445v-1434h-445zM2855 1016v418h442v-418h-442zM2855 506v420h442v-420h-442z" />
    </font>
</defs>
</svg>
