<?xml version="1.0" standalone="no"?>
<!DOCTYPE svg PUBLIC "-//W3C//DTD SVG 1.1//EN" "http://www.w3.org/Graphics/SVG/1.1/DTD/svg11.dtd" >
<svg xmlns="http://www.w3.org/2000/svg" xmlns:xlink="http://www.w3.org/1999/xlink" version="1.1">
<metadata>
Created by FontForge 20170731 at Mon Sep 18 16:49:22 2023
 By Aleksey,,,
Copyright 2015-2021 Indian Type Foundry. All rights reserved.
</metadata>
<defs>
<font id="Panchang-Extralight" horiz-adv-x="430" >
  <font-face 
    font-family="Panchang Extralight"
    font-weight="200"
    font-stretch="normal"
    units-per-em="2048"
    panose-1="0 0 0 0 0 0 0 0 0 0"
    ascent="1638"
    descent="-410"
    x-height="1006"
    cap-height="1397"
    bbox="-655 -532 3938 1929"
    underline-thickness="102"
    underline-position="-255"
    unicode-range="U+000D-FB02"
  />
<missing-glyph horiz-adv-x="1167" 
d="M184 0v1436h799v-1436h-799zM872 1333h-577v-1231h577v1231z" />
    <glyph glyph-name="fi" unicode="fi" horiz-adv-x="1658" 
d="M287 0v948h-226v58h226v77q0 473 596 473q238 0 510 -59l-15 -57q-265 59 -495 59q-146 0 -250 -27.5t-166 -82t-90.5 -130.5t-28.5 -178v-75h1127v-1006h-62v948h-1065v-948h-61z" />
    <glyph glyph-name="fl" unicode="fl" horiz-adv-x="1658" 
d="M287 0v948h-226v58h226v77q0 473 616 473q309 0 529 -20h43v-1536h-62v1479q-238 20 -510 20q-201 0 -325.5 -50t-177 -140.5t-52.5 -227.5v-75h785v-58h-785v-948h-61z" />
    <glyph glyph-name=".notdef" horiz-adv-x="1167" 
d="M184 0v1436h799v-1436h-799zM872 1333h-577v-1231h577v1231z" />
    <glyph glyph-name=".null" horiz-adv-x="0" 
 />
    <glyph glyph-name="nonmarkingreturn" horiz-adv-x="682" 
 />
    <glyph glyph-name="CR" unicode="&#xd;" horiz-adv-x="0" 
 />
    <glyph glyph-name="space" unicode=" " horiz-adv-x="962" 
 />
    <glyph glyph-name="exclam" unicode="!" horiz-adv-x="389" 
d="M225 899l-14 -551h-33l-14 551v498h61v-498zM225 258v-258h-61v258h61z" />
    <glyph glyph-name="quotedbl" unicode="&#x22;" horiz-adv-x="737" 
d="M178 1083l-14 240v213h61v-213l-14 -240h-33zM526 1083l-14 240v213h61v-213l-14 -240h-33z" />
    <glyph glyph-name="numbersign" unicode="#" horiz-adv-x="2254" 
d="M180 428h414l121 487h-420l18 58h416l88 362h60l-89 -362h818l88 362h59l-88 -362h426l-16 -58h-424l-121 -487h428l-16 -57h-426l-91 -371h-59l90 371h-817l-90 -371h-60l91 371h-416zM653 428h817l121 487h-817z" />
    <glyph glyph-name="dollar" unicode="$" horiz-adv-x="2158" 
d="M1087 1597v-182q199 -6 417.5 -29.5t369.5 -54.5l-10 -57q-150 30 -372 54t-405 30v-615l359 -41q75 -9 114.5 -14.5t100 -18.5t92.5 -28.5t72 -42t59 -61t33 -84.5t14 -113q0 -135 -72.5 -211t-253 -112.5t-507.5 -36.5h-11v-201h-61v201q-203 4 -433 28.5t-390 57.5
l10 57q155 -31 389.5 -55.5t423.5 -30.5v657l-369 43q-67 8 -112.5 15t-100 20t-89.5 28t-71 39.5t-56 55.5t-33 74t-13 96q0 132 72.5 207t244.5 110t480 35h47v180h61zM655 795l371 -43v608h-47q-227 0 -370.5 -16t-224.5 -54t-110.5 -90t-29.5 -135q0 -59 19 -102.5
t50 -70.5t87 -46.5t112 -30t143 -20.5zM1481 641l-394 45v-649h11q195 0 330 11.5t222 33t135.5 60t66.5 84.5t18 114t-17 117t-45.5 79.5t-81 51.5t-106 32t-139.5 21z" />
    <glyph glyph-name="percent" unicode="%" horiz-adv-x="2580" 
d="M123 1087q0 164 116.5 247t344.5 83t344 -83t116 -247q0 -329 -460 -329q-228 0 -344.5 82.5t-116.5 246.5zM596 0h-84l1475 1397h81zM983 1087q0 140 -96.5 206.5t-302.5 66.5t-303 -66.5t-97 -206.5t96.5 -206t303.5 -66q206 0 302.5 66t96.5 206zM1526 309
q0 164 116.5 247t344.5 83t344 -83t116 -247q0 -329 -460 -329q-228 0 -344.5 82.5t-116.5 246.5zM2386 309q0 140 -96.5 206.5t-302.5 66.5t-303 -66.5t-97 -206.5t96.5 -206t303.5 -66q206 0 302.5 66t96.5 206z" />
    <glyph glyph-name="ampersand" unicode="&#x26;" horiz-adv-x="2426" 
d="M2320 686h-323v-598q-486 -106 -922 -106q-336 0 -526 38.5t-272 121.5t-82 229q0 151 95.5 235.5t309.5 108.5q-174 24 -264 105t-90 233q0 128 78 206.5t247.5 117t446.5 38.5q411 0 842 -74l-9 -57q-433 74 -833 74q-96 0 -172 -3t-152 -11.5t-132.5 -23t-106.5 -37.5
t-81 -55t-49 -76t-18 -99q0 -92 37 -152t119 -95t196.5 -49t286.5 -14h1374v-57zM256 371q0 -80 29.5 -136.5t88.5 -95t160 -60.5t229.5 -31t311.5 -9q442 0 860 96v551h-989q-263 0 -412.5 -31.5t-213.5 -99t-64 -184.5z" />
    <glyph glyph-name="quotesingle" unicode="'" horiz-adv-x="389" 
d="M178 1083l-14 240v213h61v-213l-14 -240h-33z" />
    <glyph glyph-name="parenleft" unicode="(" horiz-adv-x="610" 
d="M514 1577l35 -25q-73 -96 -130 -191t-108 -214.5t-78.5 -259.5t-27.5 -291t27.5 -291t78.5 -259.5t108 -214.5t130 -191l-35 -25q-77 90 -140 190.5t-117 223.5t-84 268.5t-30 298.5t30 298.5t84 268.5t117 223.5t140 190.5z" />
    <glyph glyph-name="parenright" unicode=")" horiz-adv-x="610" 
d="M406 596q0 151 -28 291t-79 259.5t-108 214.5t-130 191l35 25q77 -90 140 -190.5t117 -223.5t84 -268.5t30 -298.5t-30 -298.5t-84 -268.5t-117 -223.5t-140 -190.5l-35 25q73 96 130 191t108 214.5t79 259.5t28 291z" />
    <glyph glyph-name="asterisk" unicode="*" horiz-adv-x="1290" 
d="M444 819l168 211l-262 76l-186 61l18 58l189 -62l254 -92l-11 270v197h62v-197l-10 -268l254 90l186 62l20 -58l-188 -61l-258 -74l166 -213l115 -160l-50 -36l-116 159l-148 226l-153 -226l-115 -159l-51 36z" />
    <glyph glyph-name="plus" unicode="+" horiz-adv-x="1517" 
d="M727 207v358h-563v58h563v358h61v-358h566v-58h-566v-358h-61z" />
    <glyph glyph-name="comma" unicode="," horiz-adv-x="389" 
d="M141 -111l9 37q12 -4 22 -4q16 0 16 19v59h-24v258h61v-328q0 -49 -49 -49q-19 0 -35 8z" />
    <glyph glyph-name="hyphen" unicode="-" horiz-adv-x="1062" 
d="M940 496h-817v57h817v-57z" />
    <glyph glyph-name="period" unicode="." horiz-adv-x="389" 
d="M225 258v-258h-61v258h61z" />
    <glyph glyph-name="slash" unicode="/" horiz-adv-x="1206" 
d="M1165 1427l-1059 -1765h-65l1061 1765h63z" />
    <glyph glyph-name="zero" unicode="0" horiz-adv-x="2428" 
d="M2224 698q0 -155 -48.5 -276.5t-136 -204t-214.5 -136t-278 -77.5t-333 -24t-332.5 24t-278 77.5t-214.5 136t-135.5 204t-48.5 276.5t48.5 276.5t135.5 204t214.5 136.5t278 78t332.5 24t333 -24t278 -78t214.5 -136.5t136 -204t48.5 -276.5zM2163 698q0 662 -949 662
q-948 0 -948 -662q0 -661 948 -661q949 0 949 661z" />
    <glyph glyph-name="one" unicode="1" horiz-adv-x="1181" 
d="M770 0h-61v1200q0 22 6 133l-551 -223v66l545 221h61v-1397z" />
    <glyph glyph-name="two" unicode="2" horiz-adv-x="2119" 
d="M1853 989q0 75 -26 132.5t-79.5 98.5t-125 68.5t-172.5 43t-212 22t-253 6.5q-361 0 -795 -70v58q178 30 400.5 49.5t396.5 19.5q185 0 325.5 -12.5t257 -42t190.5 -78.5t114.5 -122.5t40.5 -172.5q0 -60 -15 -110t-47.5 -90.5t-69.5 -72t-97 -64t-112 -56.5t-132 -58
q-22 -9 -33 -14l-1110 -479q213 16 481 16h1135v-61h-1761v45l1306 565q88 38 144.5 67t108.5 63.5t80 69.5t44 79.5t16 99.5z" />
    <glyph glyph-name="three" unicode="3" horiz-adv-x="2123" 
d="M1919 348q0 -139 -86 -217.5t-283 -114.5t-546 -36q-155 0 -405.5 18t-414.5 51v57q420 -69 820 -69q158 0 274 5.5t215.5 19t165 36t112 57t67 82t20.5 111.5q0 81 -23.5 137.5t-69 95t-125 60t-179 30.5t-242.5 9h-762v57h762q144 0 243 7t178.5 25t125 49.5t69 79.5
t23.5 116q0 70 -20.5 123t-67 91.5t-112 64t-165 40.5t-216 21t-273.5 6q-373 0 -771 -62v58q154 29 390.5 45t380.5 16q349 0 546 -39t283 -125.5t86 -238.5q0 -141 -81.5 -211t-248.5 -94q330 -54 330 -361z" />
    <glyph glyph-name="four" unicode="4" horiz-adv-x="2334" 
d="M2150 451v-58h-389v-393h-59v393h-1589v58l1589 946h59v-946h389zM1702 1331l-1198 -719l-285 -166q48 1 144.5 2.5t144.5 2.5h1194v880z" />
    <glyph glyph-name="five" unicode="5" horiz-adv-x="2125" 
d="M1819 1339h-1426l-110 -546h761q185 0 318.5 -10.5t243.5 -37.5t176 -72.5t101.5 -115t35.5 -166.5q0 -84 -20.5 -144t-77.5 -113t-156 -85t-258.5 -50.5t-382.5 -18.5q-179 0 -423 17t-417 48v61q405 -69 840 -69q252 0 416.5 21t256 67.5t126.5 109t35 156.5
q0 82 -30.5 140.5t-90.5 98t-160.5 63t-227.5 33t-305 9.5h-808l-21 19l129 643h1475v-58z" />
    <glyph glyph-name="six" unicode="6" horiz-adv-x="2267" 
d="M2064 389q0 -64 -17.5 -117t-46 -92.5t-75 -70.5t-94 -51.5t-114.5 -35.5t-124.5 -23t-136.5 -12.5t-137.5 -5.5t-140.5 -1q-522 0 -752.5 175.5t-230.5 557.5q0 123 29 223.5t79.5 172.5t125.5 127t160 89t191 55t209.5 29t224.5 8q184 0 401.5 -29t385.5 -73l-16 -64
q-411 105 -771 105q-174 0 -311 -16.5t-261.5 -60.5t-207 -115t-130.5 -185t-48 -266q0 -40 2 -60q151 58 392.5 107t535.5 49q110 0 172 -1t168.5 -9t169 -23.5t141.5 -46t122.5 -74t74 -111.5t30.5 -155zM1186 752q-464 0 -924 -156q15 -144 71 -246t164 -173.5
t276.5 -105.5t404.5 -34q141 0 248 6t203.5 21t163 41t115.5 65t72 94t23 127q0 87 -33.5 150t-95 104t-164.5 64.5t-227 33t-297 9.5z" />
    <glyph glyph-name="seven" unicode="7" horiz-adv-x="1966" 
d="M698 0h-86l1008 1143l178 196h-1737v58h1813v-58z" />
    <glyph glyph-name="eight" unicode="8" horiz-adv-x="2326" 
d="M1163 1417q252 0 428 -23t279.5 -69.5t149.5 -110t46 -151.5q0 -136 -115 -221.5t-366 -116.5q283 -31 399.5 -110t116.5 -246q0 -139 -86.5 -222t-292.5 -125t-559 -42t-559 42t-292.5 125t-86.5 222q0 167 116.5 246t399.5 110q-251 31 -366 116.5t-115 221.5
q0 88 46 151.5t149.5 110t279.5 69.5t428 23zM1163 1360q-444 0 -642.5 -71t-198.5 -226q0 -161 199 -235t642 -74t642.5 74t199.5 235q0 155 -199 226t-643 71zM1163 37q464 0 670.5 73t206.5 259q0 67 -21.5 117t-69.5 86t-115.5 60t-169.5 38.5t-221 20t-280 5.5
t-280 -5.5t-221 -20t-169.5 -38.5t-115 -60t-69 -86t-21.5 -117q0 -186 206 -259t670 -73z" />
    <glyph glyph-name="nine" unicode="9" horiz-adv-x="2267" 
d="M2064 684q0 -123 -29 -223.5t-79.5 -172.5t-126 -127t-160 -89t-191 -55t-210 -29t-224.5 -8q-184 0 -401 29t-385 73l16 63q407 -104 770 -104q123 0 226 8t203 28.5t178.5 53t146 82.5t111.5 116t69 155.5t25 199.5q0 39 -2 59q-150 -58 -392 -106.5t-536 -48.5
q-289 0 -418 16q-319 39 -415 207q-45 79 -45 188q0 77 28 139.5t74.5 105.5t116.5 75t143.5 50.5t167.5 29.5t176 14.5t180 3.5q522 0 752.5 -175.5t230.5 -557.5zM1073 645q464 0 924 156q-15 144 -71 246t-164 173.5t-276.5 105.5t-404.5 34q-418 0 -621.5 -83.5
t-203.5 -279.5q0 -73 21.5 -128t69 -93.5t111.5 -64t160 -40t203 -20.5t252 -6z" />
    <glyph glyph-name="colon" unicode=":" horiz-adv-x="389" 
d="M225 1006v-258h-61v258h61zM225 258v-258h-61v258h61z" />
    <glyph glyph-name="semicolon" unicode=";" horiz-adv-x="389" 
d="M225 1006v-258h-61v258h61zM141 -111l9 37q12 -4 22 -4q16 0 16 19v59h-24v258h61v-328q0 -49 -49 -49q-19 0 -35 8z" />
    <glyph glyph-name="less" unicode="&#x3c;" horiz-adv-x="1517" 
d="M1354 225l-1190 357v65l1190 357v-58l-1104 -332l1104 -331v-58z" />
    <glyph glyph-name="equal" unicode="=" horiz-adv-x="1517" 
d="M1354 737h-1190v58h1190v-58zM1354 391h-1190v58h1190v-58z" />
    <glyph glyph-name="greater" unicode="&#x3e;" horiz-adv-x="1517" 
d="M164 1004l1190 -357v-65l-1190 -357v58l1104 331l-1104 332v58z" />
    <glyph glyph-name="question" unicode="?" horiz-adv-x="1609" 
d="M807 567h-256v58h235q136 0 232.5 9.5t173 32.5t122 62.5t68.5 97.5t23 140q0 81 -26.5 140t-77 98t-133 62t-183.5 32.5t-240 9.5q-237 0 -614 -49l-8 59q339 47 622 47q382 0 551.5 -88.5t169.5 -310.5t-154.5 -311t-504.5 -89zM592 258v-258h-62v258h62z" />
    <glyph glyph-name="at" unicode="@" horiz-adv-x="2856" 
d="M1999 -350q-338 -84 -717 -84q-579 0 -859 220t-280 652q0 452 330.5 674.5t953.5 222.5q221 0 410 -28t353 -90.5t278.5 -157.5t180 -235.5t65.5 -317.5q0 -266 -97 -384t-290 -118q-278 0 -359 191q-272 -193 -698 -193q-268 0 -422 103t-154 313q0 114 47.5 200
t135.5 139t207 79t268 26q293 0 641 -65v-391q0 -100 23 -169t69 -106.5t104.5 -53.5t139.5 -16t138.5 21.5t100 72t63.5 138t21 213.5q0 163 -60 292.5t-167.5 218.5t-262 148t-337 86t-398.5 27q-1222 0 -1222 -840q0 -409 265 -612t812 -203q382 0 700 86zM1931 399v351
q-315 55 -579 55q-288 0 -442 -95t-154 -292q0 -182 132.5 -270.5t381.5 -88.5q423 0 680 185q-19 71 -19 155z" />
    <glyph glyph-name="A" unicode="A" horiz-adv-x="2201" 
d="M2107 0l-278 373h-1454l-279 -373h-76l1043 1397h76l1042 -1397h-74zM418 430h1368l-684 916z" />
    <glyph glyph-name="B" unicode="B" horiz-adv-x="2136" 
d="M1516 0h-1332v1397h1319q128 0 216.5 -27t135 -78t65.5 -111.5t19 -140.5q-2 -109 -61 -194t-172 -119q144 -29 215.5 -121t71.5 -235q0 -93 -24.5 -160t-80 -115t-148 -72t-224.5 -24zM1503 1339h-1257v-591h1294q148 0 243 73.5t95 220.5q0 154 -88 225.5t-287 71.5z
M1548 690h-1302v-633h1270q225 0 320 72.5t95 243.5q0 168 -97 242.5t-286 74.5z" />
    <glyph glyph-name="C" unicode="C" horiz-adv-x="2140" 
d="M205 698q0 -168 46.5 -289t148.5 -205t268 -124.5t401 -40.5q409 0 934 125l14 -58q-204 -53 -462 -89.5t-484 -36.5q-473 0 -700.5 171.5t-227.5 546.5t227.5 547t700.5 172q226 0 483.5 -36.5t462.5 -90.5l-14 -57q-525 125 -934 125q-235 0 -401 -40.5t-268 -125
t-148.5 -205.5t-46.5 -289z" />
    <glyph glyph-name="D" unicode="D" horiz-adv-x="2281" 
d="M1303 0h-1119v1397h1119q444 0 639.5 -165.5t195.5 -531.5q0 -245 -84.5 -397.5t-268.5 -227.5t-482 -75zM246 1339v-1282h1057q214 0 361 37.5t239 118t133 199t41 288.5q0 229 -75 367t-244.5 205t-454.5 67h-1057z" />
    <glyph glyph-name="E" unicode="E" horiz-adv-x="2095" 
d="M1931 0h-1747v1397h1747v-58h-1685v-591h1644v-58h-1644v-633h1685v-57z" />
    <glyph glyph-name="F" unicode="F" horiz-adv-x="2074" 
d="M246 0h-62v1397h1747v-58h-1685v-637h1644v-57h-1644v-645z" />
    <glyph glyph-name="G" unicode="G" horiz-adv-x="2201" 
d="M143 698q0 375 232.5 547t716.5 172q226 0 483.5 -36.5t462.5 -90.5l-15 -57q-525 125 -933 125q-241 0 -410.5 -40.5t-274 -125t-152.5 -205.5t-48 -289t48 -289t152.5 -205t274 -124.5t410.5 -40.5q365 0 886 115v569h62v-617q-204 -53 -462 -89.5t-484 -36.5
q-484 0 -716.5 171.5t-232.5 546.5z" />
    <glyph glyph-name="H" unicode="H" horiz-adv-x="2148" 
d="M246 0h-62v1397h62v-633h1657v633h61v-1397h-61v707h-1657v-707z" />
    <glyph glyph-name="I" unicode="I" 
d="M246 0h-62v1397h62v-1397z" />
    <glyph glyph-name="J" unicode="J" horiz-adv-x="1341" 
d="M420 27q202 0 332.5 25t213 86t116.5 155t34 239v865h62v-865q0 -153 -38 -257t-127 -173.5t-233.5 -101t-359.5 -31.5q-95 0 -216.5 15t-203.5 43l16 55q176 -55 404 -55z" />
    <glyph glyph-name="K" unicode="K" horiz-adv-x="2027" 
d="M246 0h-62v1397h62v-873l479 281l1012 592h108l-936 -551l955 -846h-86l-926 813l-606 -358v-455z" />
    <glyph glyph-name="L" unicode="L" horiz-adv-x="1972" 
d="M246 57h1685v-57h-1747v1397h62v-1340z" />
    <glyph glyph-name="M" unicode="M" horiz-adv-x="2783" 
d="M246 0h-62v1397h78l1131 -1342l1128 1342h78v-1397h-62v1323l-1116 -1323h-59l-1116 1323v-1323z" />
    <glyph glyph-name="N" unicode="N" horiz-adv-x="2199" 
d="M246 0h-62v1397h76l1694 -1334v1334h61v-1397h-80l-1689 1333v-1333z" />
    <glyph glyph-name="O" unicode="O" horiz-adv-x="2387" 
d="M1194 -20q-536 0 -793.5 171.5t-257.5 546.5t258 547t793 172t793 -172t258 -547t-257.5 -546.5t-793.5 -171.5zM1194 39q269 0 458.5 40.5t306.5 124.5t170.5 205t53.5 289t-53.5 289t-170.5 205.5t-306.5 125t-458.5 40.5t-458.5 -40.5t-306.5 -125t-170.5 -205.5
t-53.5 -289t53.5 -289t170.5 -205t306.5 -124.5t458.5 -40.5z" />
    <glyph glyph-name="P" unicode="P" horiz-adv-x="2058" 
d="M184 0v1397h1299q251 0 367 -99.5t116 -302.5q0 -204 -115.5 -302.5t-367.5 -98.5h-1237v-594h-62zM1493 1339h-1247v-688h1247q220 0 316 80.5t96 263.5t-96 263.5t-316 80.5z" />
    <glyph glyph-name="Q" unicode="Q" horiz-adv-x="2387" 
d="M1194 -20q-536 0 -793.5 171.5t-257.5 546.5t258 547t793 172t793 -172t258 -547q0 -348 -222 -520t-680 -194l543 -359h-104l-537 355h-51zM1194 39q269 0 458.5 40.5t306.5 124.5t170.5 205t53.5 289t-53.5 289t-170.5 205.5t-306.5 125t-458.5 40.5t-458.5 -40.5
t-306.5 -125t-170.5 -205.5t-53.5 -289t53.5 -289t170.5 -205t306.5 -124.5t458.5 -40.5z" />
    <glyph glyph-name="R" unicode="R" horiz-adv-x="2119" 
d="M246 0h-62v1397h1278q252 0 368 -104t116 -318t-116 -318t-368 -104h-229l141 -111l522 -442h-88l-655 553h-907v-553zM246 1339v-729h1227q219 0 315 85.5t96 279.5t-96 279t-315 85h-1227z" />
    <glyph glyph-name="S" unicode="S" horiz-adv-x="2035" 
d="M1892 340q0 -135 -72.5 -211t-253 -112.5t-507.5 -36.5q-211 0 -466 25t-429 61l10 57q175 -35 440 -60.5t445 -25.5q195 0 330 11.5t222 33t135.5 60t66.5 84.5t18 114t-17 117t-45.5 79.5t-81 51.5t-106 32t-139.5 21l-824 96q-67 8 -112.5 15t-100 20t-89.5 28
t-71 39.5t-56 55.5t-33 74t-13 96q0 132 72.5 207t244.5 110t480 35q211 0 466 -25t429 -61l-10 -57q-175 35 -440 60.5t-445 25.5q-227 0 -370.5 -16t-224.5 -54t-110.5 -90t-29.5 -135q0 -59 19 -102.5t50 -70.5t87 -46.5t112 -30t143 -20.5l791 -93q75 -9 114.5 -14.5
t100 -18.5t92.5 -28.5t72 -42t59 -61t33 -84.5t14 -113z" />
    <glyph glyph-name="T" unicode="T" horiz-adv-x="1982" 
d="M961 1339h-859v58h1778v-58h-858v-1339h-61v1339z" />
    <glyph glyph-name="U" unicode="U" horiz-adv-x="2170" 
d="M1946 715v682h61v-682q0 -362 -239 -548.5t-683 -186.5q-443 0 -682 186t-239 549v682h61v-682q0 -678 860 -678q861 0 861 678z" />
    <glyph glyph-name="V" unicode="V" horiz-adv-x="2222" 
d="M1073 0l-1022 1397h76l985 -1346l985 1346h74l-1022 -1397h-76z" />
    <glyph glyph-name="W" unicode="W" horiz-adv-x="3377" 
d="M825 0l-753 1397h67l723 -1340l783 1340h88l782 -1340l723 1340h67l-753 -1397h-70l-792 1354l-793 -1354h-72z" />
    <glyph glyph-name="X" unicode="X" horiz-adv-x="2037" 
d="M111 1397h98l811 -652l811 652h96l-858 -692l879 -705h-103l-827 666l-828 -666h-100l881 707z" />
    <glyph glyph-name="Y" unicode="Y" horiz-adv-x="1953" 
d="M946 590l-936 807h90l877 -752l876 752h91l-936 -807v-590h-62v590z" />
    <glyph glyph-name="Z" unicode="Z" horiz-adv-x="2207" 
d="M2023 57v-57h-1839v59l1508 1055q41 28 123.5 82.5t123.5 81.5h-1714v57h1798v-59l-1495 -1047l-258 -172h1753z" />
    <glyph glyph-name="bracketleft" unicode="[" horiz-adv-x="743" 
d="M682 -338h-498v1874h498v-57h-436v-1760h436v-57z" />
    <glyph glyph-name="backslash" unicode="\" horiz-adv-x="1206" 
d="M1165 -338h-65l-1059 1765h63z" />
    <glyph glyph-name="bracketright" unicode="]" horiz-adv-x="743" 
d="M559 -338h-498v57h437v1760h-437v57h498v-1874z" />
    <glyph glyph-name="asciicircum" unicode="^" horiz-adv-x="1517" 
d="M739 1335h43l498 -985h-68l-452 897l-459 -897h-63z" />
    <glyph glyph-name="underscore" unicode="_" horiz-adv-x="1759" 
d="M1636 -211h-1513v57h1513v-57z" />
    <glyph glyph-name="grave" unicode="`" horiz-adv-x="716" 
d="M475 1219l-311 239h102l287 -239h-78z" />
    <glyph glyph-name="a" unicode="a" horiz-adv-x="1820" 
d="M1636 950v-950h-51l-8 217q-462 -237 -836 -237q-304 0 -451 129.5t-147 392.5q0 143 53.5 246t155.5 163t235 87.5t306 27.5q359 0 743 -76zM205 502q0 -245 131.5 -355t411.5 -110q115 0 228 19.5t223 58.5t189.5 73.5t186.5 87.5v625q-331 68 -690 68
q-159 0 -280.5 -25t-213 -78.5t-139 -145t-47.5 -218.5z" />
    <glyph glyph-name="b" unicode="b" horiz-adv-x="1820" 
d="M184 0v1536h62v-729q456 219 833 219q303 0 450.5 -126.5t147.5 -381.5q0 -114 -35.5 -202.5t-99.5 -147.5t-158.5 -97t-206 -54.5t-249.5 -16.5h-744zM1073 969q-115 0 -228 -18t-224.5 -55t-188.5 -68t-186 -80v-691h690q128 0 230.5 14.5t187.5 48.5t142 86.5
t88.5 130t31.5 177.5q0 236 -132 345.5t-411 109.5z" />
    <glyph glyph-name="c" unicode="c" horiz-adv-x="1775" 
d="M143 506q0 283 208 401.5t687 118.5q325 0 594 -63l-14 -58q-262 64 -580 64q-454 0 -643.5 -102t-189.5 -361q0 -262 189.5 -365.5t643.5 -103.5q322 0 580 63l14 -57q-269 -63 -594 -63q-479 0 -687 120t-208 406z" />
    <glyph glyph-name="d" unicode="d" horiz-adv-x="1820" 
d="M1575 1536h61v-1536h-51l-8 199q-456 -219 -836 -219q-303 0 -450.5 126t-147.5 381q0 118 35.5 210t99.5 153.5t158.5 101t206.5 57t250 17.5q340 0 682 -63v573zM205 492q0 -236 132 -345.5t411 -109.5q115 0 228 18t224.5 55t188.5 68t186 80v643q-331 68 -690 68
q-127 0 -230 -15.5t-188 -50.5t-142 -90t-88.5 -135.5t-31.5 -185.5z" />
    <glyph glyph-name="e" unicode="e" horiz-adv-x="1818" 
d="M961 37q188 0 376 28t273 54l14 -60q-122 -32 -302 -55.5t-361 -23.5q-163 0 -287 15.5t-226.5 52t-168 96.5t-101 150t-35.5 210q0 144 54 246.5t158.5 162t242.5 86.5t320 27q135 0 244.5 -14t207 -49t163.5 -90.5t104 -142.5t38 -200q0 -33 -6 -57h-1464
q5 -103 41.5 -179.5t97.5 -125.5t156 -78.5t205 -41t256 -11.5zM915 969q-345 0 -522.5 -101t-187.5 -338h1413q-5 112 -43 191t-119 136t-215 84.5t-326 27.5z" />
    <glyph glyph-name="f" unicode="f" horiz-adv-x="1191" 
d="M348 0h-61v948h-226v58h226v77q0 224 144 348.5t452 124.5q180 0 391 -38l-10 -56q-189 37 -381 37q-146 0 -250 -27.5t-166 -82t-90.5 -130.5t-28.5 -178v-75h846v-58h-846v-948z" />
    <glyph glyph-name="g" unicode="g" horiz-adv-x="1810" 
d="M1636 950v-821q0 -150 -42 -248.5t-137.5 -159t-237.5 -85.5t-355 -25q-151 0 -351 24.5t-343 67.5l18 61q328 -96 676 -96q200 0 332 21.5t218.5 74t123.5 136t37 211.5v141q-451 -238 -834 -238q-304 0 -451 124.5t-147 379.5q0 112 35.5 198.5t99.5 144.5t158.5 95.5
t206.5 53.5t250 16q359 0 743 -76zM205 522q0 -237 131.5 -343.5t411.5 -106.5q115 0 228 19.5t223 58.5t189.5 73.5t186.5 87.5v590q-331 68 -690 68q-160 0 -281 -23.5t-212.5 -75t-139 -139t-47.5 -209.5z" />
    <glyph glyph-name="h" unicode="h" horiz-adv-x="1783" 
d="M184 0v1536h62v-694q413 184 778 184q586 0 586 -494v-532h-62v545q0 101 -28 176.5t-90 132.5t-168.5 86t-255.5 29q-160 0 -360.5 -49t-399.5 -140v-780h-62z" />
    <glyph glyph-name="i" unicode="i" 
d="M246 1397v-228h-62v228h62zM184 0v1006h62v-1006h-62z" />
    <glyph glyph-name="j" unicode="j" 
d="M246 1397v-228h-62v228h62zM66 -369h-80q47 60 76 103.5t60.5 106.5t46.5 134.5t15 155.5v875h62v-877q0 -89 -14 -163t-43 -136t-55 -102.5t-68 -96.5z" />
    <glyph glyph-name="k" unicode="k" horiz-adv-x="1572" 
d="M246 1536v-956h444l729 426h109l-787 -461l811 -545h-104l-776 522h-426v-522h-62v1536h62z" />
    <glyph glyph-name="l" unicode="l" 
d="M246 1536v-1536h-62v1536h62z" />
    <glyph glyph-name="m" unicode="m" horiz-adv-x="2942" 
d="M184 0v1006h52l8 -164q413 184 737 184q330 0 451 -190q420 190 811 190q526 0 526 -494v-532h-62v545q0 101 -25 176.5t-80.5 132.5t-149.5 86t-226 29q-150 0 -359.5 -48t-406.5 -135q47 -103 47 -254v-532h-61v545q0 101 -25 176.5t-80.5 132.5t-149.5 86t-226 29
q-137 0 -332 -50.5t-387 -138.5v-780h-62z" />
    <glyph glyph-name="n" unicode="n" horiz-adv-x="1783" 
d="M184 0v1006h52l8 -164q417 184 778 184q588 0 588 -494v-532h-62v545q0 101 -28 176.5t-90 132.5t-168.5 86t-255.5 29q-160 0 -360.5 -49t-399.5 -140v-780h-62z" />
    <glyph glyph-name="o" unicode="o" horiz-adv-x="1945" 
d="M143 502q0 273 199.5 398.5t630.5 125.5t630 -125.5t199 -398.5q0 -271 -199.5 -396.5t-629.5 -125.5t-630 125.5t-200 396.5zM205 502q0 -247 179.5 -356t588.5 -109t588.5 109t179.5 356q0 248 -180 357.5t-588 109.5t-588 -109.5t-180 -357.5z" />
    <glyph glyph-name="p" unicode="p" horiz-adv-x="1820" 
d="M246 -379h-62v1385h52l8 -199q456 219 835 219q303 0 450.5 -126.5t147.5 -381.5q0 -147 -53.5 -252.5t-155 -167.5t-234.5 -90t-306 -28q-329 0 -682 65v-424zM1073 969q-115 0 -228 -18t-224.5 -55t-188.5 -68t-186 -80v-644q142 -29 329 -48t361 -19q127 0 230 15.5
t188 50.5t142 90t88.5 135.5t31.5 185.5q0 236 -132 345.5t-411 109.5z" />
    <glyph glyph-name="q" unicode="q" horiz-adv-x="1810" 
d="M1636 950v-1319h-61v586q-449 -237 -834 -237q-304 0 -451 128t-147 390q0 116 35.5 205.5t99.5 150t158.5 99.5t206.5 56t250 17q378 0 743 -76zM205 502q0 -245 131.5 -355t411.5 -110q115 0 228 19.5t223 58.5t189.5 73.5t186.5 87.5v625q-331 68 -690 68
q-159 0 -280.5 -25t-213 -78.5t-139 -145t-47.5 -218.5z" />
    <glyph glyph-name="r" unicode="r" horiz-adv-x="1153" 
d="M184 0v1006h52l8 -252q181 129 373.5 200.5t416.5 71.5v-57q-394 0 -788 -277v-692h-62z" />
    <glyph glyph-name="s" unicode="s" horiz-adv-x="1634" 
d="M1491 242q0 -102 -55 -157.5t-187.5 -80t-378.5 -24.5q-363 0 -704 57l10 55q350 -55 649 -55q123 0 207.5 3t156 12t114.5 23t73 37.5t42 54.5t12 75q0 43 -11.5 75t-40 55t-63.5 38.5t-94 27t-119.5 18t-151.5 13.5l-420 31q-75 6 -125 13t-104 24t-85.5 43.5t-52 71
t-20.5 106.5q0 65 27 112t78 77t136.5 47.5t188.5 24.5t248 7q292 0 582 -43l-10 -55q-323 41 -574 41q-348 0 -481 -42.5t-133 -168.5q0 -41 10.5 -71.5t34 -51.5t49.5 -34.5t68.5 -22t78.5 -13t91 -8.5l462 -35q107 -8 181 -19t136.5 -31t99 -50t56 -74.5t19.5 -105.5z
" />
    <glyph glyph-name="t" unicode="t" horiz-adv-x="1429" 
d="M324 526v422h-283v58h283l10 254h51v-254h920v-58h-920v-428q0 -137 22.5 -225t79 -148t150.5 -85t240 -25q218 0 456 59l15 -55q-246 -61 -471 -61q-160 0 -265 29t-169.5 96t-91.5 167.5t-27 253.5z" />
    <glyph glyph-name="u" unicode="u" horiz-adv-x="1804" 
d="M174 473v533h62v-545q0 -101 29.5 -176.5t94 -132.5t175 -86t264.5 -29q145 0 352.5 53t407.5 146v770h61v-1006h-51l-10 174q-443 -194 -777 -194q-608 0 -608 493z" />
    <glyph glyph-name="v" unicode="v" horiz-adv-x="1710" 
d="M1690 1006l-838 -1006h-57l-775 1006h76l727 -947l797 947h70z" />
    <glyph glyph-name="w" unicode="w" horiz-adv-x="2514" 
d="M1217 1006h79l641 -934l490 934h67l-526 -1006h-53l-660 958l-659 -958h-51l-525 1006h68l487 -934z" />
    <glyph glyph-name="x" unicode="x" horiz-adv-x="1671" 
d="M111 0h-91l764 516l-733 490h90l695 -457l694 457h90l-735 -492l766 -514h-90l-723 481z" />
    <glyph glyph-name="y" unicode="y" horiz-adv-x="1851" 
d="M174 518v488h62v-484q0 -216 136 -312.5t427 -96.5q227 0 418.5 52.5t388.5 145.5v695h61v-877q0 -150 -42 -248.5t-137.5 -159t-237.5 -85.5t-355 -25q-171 0 -345 24.5t-308 65.5l18 59q329 -92 635 -92q200 0 332 21.5t218.5 74t123.5 136t37 211.5v141
q-177 -90 -388 -143.5t-425 -53.5q-315 0 -467 114t-152 349z" />
    <glyph glyph-name="z" unicode="z" horiz-adv-x="1714" 
d="M1591 57v-57h-1468v57l893 584q272 177 483 307h-1356v58h1448v-58l-858 -561q-250 -164 -518 -330h1376z" />
    <glyph glyph-name="braceleft" unicode="{" horiz-adv-x="1077" 
d="M61 569v58q176 0 266.5 65.5t90.5 218.5v332q0 159 80.5 236t267.5 77q131 0 250 -36l-15 -56q-125 35 -225 35q-157 0 -227 -56.5t-70 -203.5v-309q0 -152 -67 -234.5t-217 -97.5q150 -15 217 -97.5t67 -234.5v-309q0 -147 70 -203.5t227 -56.5q100 0 225 35l15 -56
q-119 -36 -250 -36q-187 0 -267.5 77t-80.5 236v332q0 153 -90.5 218.5t-266.5 65.5z" />
    <glyph glyph-name="bar" unicode="|" 
d="M246 -338h-62v1847h62v-1847z" />
    <glyph glyph-name="braceright" unicode="}" horiz-adv-x="1077" 
d="M1016 627v-58q-176 0 -266.5 -65.5t-90.5 -218.5v-332q0 -159 -80.5 -236t-267.5 -77q-131 0 -250 36l15 56q125 -35 225 -35q157 0 227 56.5t70 203.5v309q0 152 67.5 234.5t217.5 97.5q-150 15 -217.5 97.5t-67.5 234.5v309q0 147 -70 203.5t-227 56.5q-100 0 -225 -35
l-15 56q119 36 250 36q187 0 267.5 -77t80.5 -236v-332q0 -153 90.5 -218.5t266.5 -65.5z" />
    <glyph glyph-name="asciitilde" unicode="~" horiz-adv-x="1554" 
d="M1042 545q-83 0 -163 15t-132.5 33t-118 33t-122.5 15q-74 0 -157.5 -26.5t-151.5 -73.5l-33 49q159 108 344 108q82 0 168 -24t178 -48t188 -24q77 0 162 29t154 78l33 -50q-163 -114 -349 -114z" />
    <glyph glyph-name="nbspace" unicode="&#xa0;" horiz-adv-x="962" 
 />
    <glyph glyph-name="exclamdown" unicode="&#xa1;" horiz-adv-x="389" 
d="M164 750v258h61v-258h-61zM164 109l14 550h33l14 -550v-498h-61v498z" />
    <glyph glyph-name="cent" unicode="&#xa2;" horiz-adv-x="1775" 
d="M143 623q0 268 186 387.5t609 130.5v256h61v-254h39q321 0 594 -64l-14 -57q-258 63 -580 63h-39v-931h39q322 0 580 63l14 -57q-273 -64 -594 -64h-39v-256h-61v258q-423 11 -609 132t-186 393zM205 623q0 -248 168.5 -353t564.5 -114v927q-396 -9 -564.5 -112
t-168.5 -348z" />
    <glyph glyph-name="sterling" unicode="&#xa3;" horiz-adv-x="2377" 
d="M164 -10v59q137 67 371 70v510h-371v57h371v98q0 126 39 225t109.5 166t173 110.5t224.5 63t269 19.5q365 0 759 -98l-16 -56q-397 97 -743 97q-138 0 -250 -17t-207.5 -55.5t-160 -99t-100.5 -150t-36 -205.5v-98h1339v-57h-1339v-510q172 -3 567.5 -47.5t603.5 -44.5
q247 0 447 69l20 -57q-85 -30 -219 -50t-248 -20q-236 0 -635 46t-571 46q-132 0 -220 -16t-177 -55z" />
    <glyph glyph-name="currency" unicode="&#xa4;" horiz-adv-x="1773" 
d="M213 616q0 246 211 357l-219 209h78l200 -183q157 62 408 62q240 0 397 -57l195 178h78l-215 -203q223 -111 223 -363q0 -250 -219 -360l211 -201h-78l-193 176q-154 -59 -399 -59q-250 0 -412 64l-196 -181h-78l217 207q-209 110 -209 354zM1507 616q0 388 -616 388
q-617 0 -617 -388q0 -387 617 -387q616 0 616 387z" />
    <glyph glyph-name="yen" unicode="&#xa5;" horiz-adv-x="1953" 
d="M1798 326h-790v-326h-62v326h-788v57h788v205h-788v57h725l-873 752h90l877 -752l876 752h91l-873 -752h727v-57h-790v-205h790v-57z" />
    <glyph glyph-name="brokenbar" unicode="&#xa6;" 
d="M246 1509v-682h-62v682h62zM184 -338v680h62v-680h-62z" />
    <glyph glyph-name="section" unicode="&#xa7;" horiz-adv-x="1634" 
d="M813 -31q-292 0 -582 43l11 56q323 -41 573 -41q348 0 481.5 40.5t133.5 159.5q0 32 -9 57t-23 42.5t-39.5 30.5t-49.5 21t-63 14t-69.5 9t-78.5 7l-463 34q-107 8 -181 19t-136.5 30t-99 47t-56 69t-19.5 98q0 101 62.5 162.5t185.5 78.5q-122 19 -185 68.5t-63 154.5
q0 63 27 108t78 74t136.5 46t188.5 23.5t248 6.5q292 0 582 -43l-10 -55q-323 41 -574 41q-348 0 -481 -40.5t-133 -160.5q0 -37 10.5 -64.5t34.5 -46t49 -30.5t68.5 -19.5t78 -11.5t91.5 -8l462 -35q107 -8 181 -18.5t136.5 -29.5t99 -47t56 -69t19.5 -98
q0 -104 -61.5 -167.5t-186.5 -73.5q122 -19 185 -69t63 -155q0 -63 -27 -108t-78 -74t-136.5 -46t-188.5 -23.5t-248 -6.5zM684 496l246 -19q271 -20 385.5 31t114.5 184q0 40 -11.5 69.5t-40.5 50.5t-62.5 35t-94.5 24.5t-119.5 16.5t-151.5 13l-227 17q-192 14 -306 -4.5
t-163 -69t-49 -139.5q0 -40 11.5 -69.5t40 -50.5t62.5 -35t94.5 -24.5t119 -16.5t151.5 -13z" />
    <glyph glyph-name="dieresis" unicode="&#xa8;" horiz-adv-x="798" 
d="M225 1446v-227h-61v227h61zM635 1446v-227h-62v227h62z" />
    <glyph glyph-name="copyright" unicode="&#xa9;" horiz-adv-x="2605" 
d="M1303 1417q385 0 630 -86t356 -249.5t111 -413.5q0 -186 -62.5 -324t-194 -234t-341 -144t-499.5 -48q-383 0 -628 86.5t-357.5 251t-112.5 414.5q0 248 112.5 411.5t357.5 249.5t628 86zM1303 -25q364 0 595 79.5t336 231t105 382.5q0 232 -105 383.5t-336 230
t-595 78.5q-541 0 -789 -171t-248 -519q0 -232 105.5 -384t337 -231.5t594.5 -79.5zM1843 950q-210 58 -549 58q-298 0 -435.5 -77t-137.5 -267t137.5 -267.5t435.5 -77.5q339 0 549 58l17 -55q-237 -60 -566 -60q-334 0 -484.5 98t-150.5 304q0 205 150.5 303t484.5 98
q333 0 566 -59z" />
    <glyph glyph-name="ordfeminine" unicode="&#xaa;" horiz-adv-x="1595" 
d="M1339 651l-10 172q-161 -100 -333.5 -148t-325.5 -48q-265 0 -396 97t-131 302q0 391 576 391q160 0 339 -27.5t333 -74.5v-664h-52zM719 1360q-91 0 -164 -9t-140 -32t-112 -59.5t-71.5 -96t-26.5 -137.5q0 -82 24 -143t64 -99t101 -60.5t126.5 -31t149.5 -8.5
q167 0 342 51.5t317 149.5v385q-328 90 -610 90z" />
    <glyph glyph-name="guillemotleft" unicode="&#xab;" horiz-adv-x="1781" 
d="M899 129l-735 369v65l735 369v-64l-676 -338l676 -337v-64zM1618 129l-735 369v65l735 369v-64l-676 -338l676 -337v-64z" />
    <glyph glyph-name="logicalnot" unicode="&#xac;" horiz-adv-x="1517" 
d="M1292 309v383h-1128v58h1190v-441h-62z" />
    <glyph glyph-name="softhyphen" unicode="&#xad;" horiz-adv-x="1062" 
d="M940 496h-817v57h817v-57z" />
    <glyph glyph-name="registered" unicode="&#xae;" horiz-adv-x="2605" 
d="M1303 1417q385 0 630 -86t356 -249.5t111 -413.5q0 -186 -62.5 -324t-194 -234t-341 -144t-499.5 -48q-383 0 -628 86.5t-357.5 251t-112.5 414.5q0 248 112.5 411.5t357.5 249.5t628 86zM1303 -25q364 0 595 79.5t336 231t105 382.5q0 232 -105 383.5t-336 230
t-595 78.5q-541 0 -789 -171t-248 -519q0 -232 105.5 -384t337 -231.5t594.5 -79.5zM885 522v-256h-62v799h662q187 0 272.5 -64.5t85.5 -205.5q0 -145 -94.5 -207t-284.5 -62v-2l101 -69l252 -189h-88l-349 256h-495zM1473 1008h-588v-428h588q162 0 235.5 51t73.5 164
q0 116 -72 164.5t-237 48.5z" />
    <glyph glyph-name="macron" unicode="&#xaf;" horiz-adv-x="991" 
d="M827 1317h-663v59h663v-59z" />
    <glyph glyph-name="degree" unicode="&#xb0;" horiz-adv-x="1376" 
d="M690 1417q263 0 392.5 -86.5t129.5 -279.5q0 -194 -129.5 -280.5t-392.5 -86.5q-266 0 -396 86.5t-130 280.5t130 280t396 86zM225 1051q0 -168 109 -239t356 -71q245 0 353 71t108 239q0 169 -107 239t-354 70q-245 0 -355 -70.5t-110 -238.5z" />
    <glyph glyph-name="plusminus" unicode="&#xb1;" horiz-adv-x="1517" 
d="M1354 170h-1190v57h563v338h-563v58h563v358h61v-358h566v-58h-566v-338h566v-57z" />
    <glyph glyph-name="twosuperior" unicode="&#xb2;" horiz-adv-x="1024" 
d="M616 954l-362 -133q190 13 377 13h270v-58h-778v45l487 185q140 54 185 89.5t45 106.5q0 46 -22 77.5t-65 48.5t-97 24.5t-126 7.5q-34 0 -66.5 -1t-64.5 -3.5t-54 -4.5t-54.5 -6.5t-46.5 -7t-49 -8t-43 -6.5l-11 57q227 37 389 37q181 0 276 -50t95 -161q0 -35 -7.5 -63
t-27 -51.5t-39.5 -40t-58 -35t-68.5 -30.5t-84.5 -32z" />
    <glyph glyph-name="threesuperior" unicode="&#xb3;" horiz-adv-x="1001" 
d="M498 756q-181 0 -375 32l12 58q198 -33 367 -33q171 0 243 30.5t72 108.5q0 62 -49 89.5t-180 27.5h-336v57h336q121 0 167 28t46 87q0 64 -66 91.5t-217 27.5q-45 0 -86.5 -1.5t-67.5 -3t-63 -6t-49 -6t-50 -7.5t-44 -7l-11 55q172 33 371 33q187 0 265.5 -41.5
t78.5 -134.5q0 -108 -135 -139q152 -22 152 -150q0 -102 -88 -149t-293 -47z" />
    <glyph glyph-name="acute" unicode="&#xb4;" horiz-adv-x="716" 
d="M451 1458h102l-311 -239h-78z" />
    <glyph glyph-name="paragraph" unicode="&#xb6;" horiz-adv-x="2195" 
d="M164 1040q0 195 165 287t519 92q160 0 332.5 -6.5t234.5 -15.5v-1397h-61v707q-161 -23 -275.5 -31t-271.5 -8q-310 0 -476.5 91.5t-166.5 280.5zM1804 1397v-1397h-61v1397h61z" />
    <glyph glyph-name="periodcentered" unicode="&#xb7;" horiz-adv-x="389" 
d="M225 772v-258h-61v258h61z" />
    <glyph glyph-name="cedilla" unicode="&#xb8;" horiz-adv-x="733" 
d="M508 -102h61v-58q0 -101 -54.5 -149.5t-184.5 -48.5q-83 0 -166 18l12 57q81 -18 162 -18q93 0 131.5 31.5t38.5 107.5v60z" />
    <glyph glyph-name="onesuperior" unicode="&#xb9;" horiz-adv-x="585" 
d="M463 776h-62v465q0 10 9 100l-287 -114v57l278 113h62v-621z" />
    <glyph glyph-name="ordmasculine" unicode="&#xba;" horiz-adv-x="1556" 
d="M1413 1020q0 -393 -633 -393q-321 0 -479 97.5t-158 295.5q0 395 637 395q633 0 633 -395zM1352 1020q0 175 -137 256.5t-433 81.5q-297 0 -437 -82t-140 -256t138 -255t435 -81t435.5 81t138.5 255z" />
    <glyph glyph-name="guillemotright" unicode="&#xbb;" horiz-adv-x="1781" 
d="M883 932l735 -369v-65l-735 -369v64l676 337l-676 338v64zM164 932l735 -369v-65l-735 -369v64l676 337l-676 338v64z" />
    <glyph glyph-name="onequarter" unicode="&#xbc;" horiz-adv-x="2187" 
d="M463 776h-62v465q0 10 9 100l-287 -114v57l278 113h62v-621zM276 0h-83l1474 1397h82zM1876 0h-61v139h-689v58l689 424h61v-424h188v-58h-188v-139zM1219 195v-7q31 1 94 4.5t94 4.5h408v358l-424 -262q-48 -31 -172 -98z" />
    <glyph glyph-name="onehalf" unicode="&#xbd;" horiz-adv-x="2256" 
d="M463 776h-62v465q0 10 9 100l-287 -114v57l278 113h62v-621zM276 0h-83l1474 1397h82zM1849 178l-362 -133q175 12 377 12h270v-57h-778v45l487 184q140 53 185 89.5t45 107.5q0 46 -22 77.5t-65 48.5t-97 24.5t-126 7.5q-34 0 -66.5 -1t-65 -3.5t-54 -4.5t-55 -7
t-46.5 -6.5t-49 -7.5t-43 -7l-10 57q227 37 389 37q181 0 276 -50t95 -161q0 -35 -7.5 -63t-27 -51.5t-39.5 -40t-58 -35t-68.5 -30.5t-84.5 -32z" />
    <glyph glyph-name="threequarters" unicode="&#xbe;" horiz-adv-x="2433" 
d="M498 756q-181 0 -375 32l12 58q198 -33 367 -33q171 0 243 30.5t72 108.5q0 62 -49 89.5t-180 27.5h-336v57h336q121 0 167 28t46 87q0 64 -66 91.5t-217 27.5q-45 0 -86.5 -1.5t-67.5 -3t-63 -6t-49 -6t-50 -7.5t-44 -7l-11 55q172 33 371 33q187 0 265.5 -41.5
t78.5 -134.5q0 -108 -135 -139q152 -22 152 -150q0 -102 -88 -149t-293 -47zM522 0h-84l1475 1397h82zM2122 0h-62v139h-688v58l688 424h62v-424h188v-58h-188v-139zM1464 195v-7q31 1 94 4.5t95 4.5h407v358l-424 -262q-48 -31 -172 -98z" />
    <glyph glyph-name="questiondown" unicode="&#xbf;" horiz-adv-x="1609" 
d="M1018 748v258h61v-258h-61zM803 438h256v-57h-236q-136 0 -232.5 -9.5t-173 -32.5t-121.5 -62.5t-68 -97.5t-23 -140q0 -81 26.5 -140t77 -98t132.5 -62t183 -32.5t240 -9.5q238 0 615 49l8 -59q-339 -47 -623 -47q-382 0 -551.5 88.5t-169.5 310.5t154.5 310.5
t505.5 88.5z" />
    <glyph glyph-name="Agrave" unicode="&#xc0;" horiz-adv-x="2201" 
d="M1110 1505l-311 240h102l287 -240h-78zM2107 0l-278 373h-1454l-279 -373h-76l1043 1397h76l1042 -1397h-74zM418 430h1368l-684 916z" />
    <glyph glyph-name="Aacute" unicode="&#xc1;" horiz-adv-x="2201" 
d="M1358 1745h102l-311 -240h-78zM2107 0l-278 373h-1454l-279 -373h-76l1043 1397h76l1042 -1397h-74zM418 430h1368l-684 916z" />
    <glyph glyph-name="Acircumflex" unicode="&#xc2;" horiz-adv-x="2201" 
d="M1456 1505h-88l-266 191l-268 -191h-89l320 240h72zM2107 0l-278 373h-1454l-279 -373h-76l1043 1397h76l1042 -1397h-74zM418 430h1368l-684 916z" />
    <glyph glyph-name="Atilde" unicode="&#xc3;" horiz-adv-x="2201" 
d="M766 1520v57q79 68 172 68q76 0 193.5 -31t162.5 -31q66 0 148 53v-57q-67 -53 -144 -53q-49 0 -172.5 32.5t-183.5 32.5q-84 0 -176 -71zM2107 0l-278 373h-1454l-279 -373h-76l1043 1397h76l1042 -1397h-74zM418 430h1368l-684 916z" />
    <glyph glyph-name="Adieresis" unicode="&#xc4;" horiz-adv-x="2201" 
d="M928 1733v-228h-62v228h62zM1337 1733v-228h-61v228h61zM2107 0l-278 373h-1454l-279 -373h-76l1043 1397h76l1042 -1397h-74zM418 430h1368l-684 916z" />
    <glyph glyph-name="Aring" unicode="&#xc5;" horiz-adv-x="2201" 
d="M1100 1493q-260 0 -260 186q0 179 260 179q258 0 258 -179q0 -186 -258 -186zM901 1679q0 -66 44 -97.5t155 -31.5t153.5 31t42.5 98q0 62 -43 91.5t-153 29.5q-111 0 -155 -29.5t-44 -91.5zM2107 0l-278 373h-1454l-279 -373h-76l1043 1397h76l1042 -1397h-74zM418 430
h1368l-684 916z" />
    <glyph glyph-name="AE" unicode="&#xc6;" horiz-adv-x="3534" 
d="M115 0h-95l1663 1397h1688v-58h-1604v-591h1563v-58h-1563v-633h1604v-57h-1665v373h-1147zM1706 1331l-1077 -901h1077v901z" />
    <glyph glyph-name="Ccedilla" unicode="&#xc7;" horiz-adv-x="2140" 
d="M205 698q0 -168 46.5 -289t148.5 -205t268 -124.5t401 -40.5q409 0 934 125l14 -58q-204 -53 -462 -89.5t-484 -36.5q-473 0 -700.5 171.5t-227.5 546.5t227.5 547t700.5 172q226 0 483.5 -36.5t462.5 -90.5l-14 -57q-525 125 -934 125q-235 0 -401 -40.5t-268 -125
t-148.5 -205.5t-46.5 -289zM1108 -102h61v-58q0 -101 -54.5 -149.5t-184.5 -48.5q-83 0 -166 18l12 57q81 -18 162 -18q93 0 131.5 31.5t38.5 107.5v60z" />
    <glyph glyph-name="Egrave" unicode="&#xc8;" horiz-adv-x="2095" 
d="M1141 1505l-312 240h103l287 -240h-78zM1931 0h-1747v1397h1747v-58h-1685v-591h1644v-58h-1644v-633h1685v-57z" />
    <glyph glyph-name="Eacute" unicode="&#xc9;" horiz-adv-x="2095" 
d="M1389 1745h102l-311 -240h-78zM1931 0h-1747v1397h1747v-58h-1685v-591h1644v-58h-1644v-633h1685v-57z" />
    <glyph glyph-name="Ecircumflex" unicode="&#xca;" horiz-adv-x="2095" 
d="M1487 1505h-88l-266 191l-269 -191h-88l320 240h71zM1931 0h-1747v1397h1747v-58h-1685v-591h1644v-58h-1644v-633h1685v-57z" />
    <glyph glyph-name="Edieresis" unicode="&#xcb;" horiz-adv-x="2095" 
d="M958 1733v-228h-61v228h61zM1368 1733v-228h-61v228h61zM1931 0h-1747v1397h1747v-58h-1685v-591h1644v-58h-1644v-633h1685v-57z" />
    <glyph glyph-name="Igrave" unicode="&#xcc;" 
d="M223 1505l-311 240h102l287 -240h-78zM246 0h-62v1397h62v-1397z" />
    <glyph glyph-name="Iacute" unicode="&#xcd;" 
d="M471 1745h102l-311 -240h-78zM246 0h-62v1397h62v-1397z" />
    <glyph glyph-name="Icircumflex" unicode="&#xce;" 
d="M569 1505h-88l-266 191l-268 -191h-88l319 240h72zM246 0h-62v1397h62v-1397z" />
    <glyph glyph-name="Idieresis" unicode="&#xcf;" 
d="M41 1733v-228h-61v228h61zM451 1733v-228h-62v228h62zM246 0h-62v1397h62v-1397z" />
    <glyph glyph-name="Eth" unicode="&#xd0;" horiz-adv-x="2322" 
d="M225 666h-205v57h205v674h1118q444 0 640 -165.5t196 -531.5q0 -244 -85 -397t-269 -228t-482 -75h-1118v666zM287 666v-609h1056q284 0 454.5 69.5t245.5 208t75 365.5q0 229 -75.5 367t-245 205t-454.5 67h-1056v-616h706v-57h-706z" />
    <glyph glyph-name="Ntilde" unicode="&#xd1;" horiz-adv-x="2199" 
d="M723 1520v57q79 68 172 68q76 0 193.5 -31t162.5 -31q66 0 148 53v-57q-67 -53 -144 -53q-49 0 -172.5 32.5t-183.5 32.5q-84 0 -176 -71zM246 0h-62v1397h76l1694 -1334v1334h61v-1397h-80l-1689 1333v-1333z" />
    <glyph glyph-name="Ograve" unicode="&#xd2;" horiz-adv-x="2387" 
d="M1204 1505l-311 240h102l287 -240h-78zM1194 -20q-536 0 -793.5 171.5t-257.5 546.5t258 547t793 172t793 -172t258 -547t-257.5 -546.5t-793.5 -171.5zM1194 39q269 0 458.5 40.5t306.5 124.5t170.5 205t53.5 289t-53.5 289t-170.5 205.5t-306.5 125t-458.5 40.5
t-458.5 -40.5t-306.5 -125t-170.5 -205.5t-53.5 -289t53.5 -289t170.5 -205t306.5 -124.5t458.5 -40.5z" />
    <glyph glyph-name="Oacute" unicode="&#xd3;" horiz-adv-x="2387" 
d="M1452 1745h102l-311 -240h-78zM1194 -20q-536 0 -793.5 171.5t-257.5 546.5t258 547t793 172t793 -172t258 -547t-257.5 -546.5t-793.5 -171.5zM1194 39q269 0 458.5 40.5t306.5 124.5t170.5 205t53.5 289t-53.5 289t-170.5 205.5t-306.5 125t-458.5 40.5t-458.5 -40.5
t-306.5 -125t-170.5 -205.5t-53.5 -289t53.5 -289t170.5 -205t306.5 -124.5t458.5 -40.5z" />
    <glyph glyph-name="Ocircumflex" unicode="&#xd4;" horiz-adv-x="2387" 
d="M1550 1505h-88l-266 191l-268 -191h-88l319 240h72zM1194 -20q-536 0 -793.5 171.5t-257.5 546.5t258 547t793 172t793 -172t258 -547t-257.5 -546.5t-793.5 -171.5zM1194 39q269 0 458.5 40.5t306.5 124.5t170.5 205t53.5 289t-53.5 289t-170.5 205.5t-306.5 125
t-458.5 40.5t-458.5 -40.5t-306.5 -125t-170.5 -205.5t-53.5 -289t53.5 -289t170.5 -205t306.5 -124.5t458.5 -40.5z" />
    <glyph glyph-name="Otilde" unicode="&#xd5;" horiz-adv-x="2387" 
d="M860 1520v57q79 68 172 68q76 0 194 -31t163 -31q41 0 73.5 13t73.5 40v-57q-67 -53 -143 -53q-49 0 -173 32.5t-184 32.5q-84 0 -176 -71zM1194 -20q-536 0 -793.5 171.5t-257.5 546.5t258 547t793 172t793 -172t258 -547t-257.5 -546.5t-793.5 -171.5zM1194 39
q269 0 458.5 40.5t306.5 124.5t170.5 205t53.5 289t-53.5 289t-170.5 205.5t-306.5 125t-458.5 40.5t-458.5 -40.5t-306.5 -125t-170.5 -205.5t-53.5 -289t53.5 -289t170.5 -205t306.5 -124.5t458.5 -40.5z" />
    <glyph glyph-name="Odieresis" unicode="&#xd6;" horiz-adv-x="2387" 
d="M1022 1733v-228h-61v228h61zM1432 1733v-228h-62v228h62zM1194 -20q-536 0 -793.5 171.5t-257.5 546.5t258 547t793 172t793 -172t258 -547t-257.5 -546.5t-793.5 -171.5zM1194 39q269 0 458.5 40.5t306.5 124.5t170.5 205t53.5 289t-53.5 289t-170.5 205.5t-306.5 125
t-458.5 40.5t-458.5 -40.5t-306.5 -125t-170.5 -205.5t-53.5 -289t53.5 -289t170.5 -205t306.5 -124.5t458.5 -40.5z" />
    <glyph glyph-name="multiply" unicode="&#xd7;" horiz-adv-x="1439" 
d="M1276 307l-31 -51l-526 307l-524 -307l-31 51l500 287l-500 289l31 51l524 -307l526 307l31 -51l-502 -289z" />
    <glyph glyph-name="Oslash" unicode="&#xd8;" horiz-adv-x="2387" 
d="M416 -53h-88l180 145q-365 166 -365 606q0 375 258 547t793 172q514 0 768 -155l168 135h86l-207 -168q236 -172 236 -531q0 -375 -257.5 -546.5t-793.5 -171.5q-385 0 -627 88zM205 698q0 -210 85 -349t269 -216l1354 1090q-237 135 -719 135q-269 0 -458.5 -40.5
t-306.5 -125t-170.5 -205.5t-53.5 -289zM1194 39q269 0 458.5 40.5t306.5 124.5t170.5 205t53.5 289q0 337 -221 494l-1341 -1081q222 -72 573 -72z" />
    <glyph glyph-name="Ugrave" unicode="&#xd9;" horiz-adv-x="2170" 
d="M1094 1505l-312 240h103l286 -240h-77zM1946 715v682h61v-682q0 -362 -239 -548.5t-683 -186.5q-443 0 -682 186t-239 549v682h61v-682q0 -678 860 -678q861 0 861 678z" />
    <glyph glyph-name="Uacute" unicode="&#xda;" horiz-adv-x="2170" 
d="M1341 1745h103l-311 -240h-78zM1946 715v682h61v-682q0 -362 -239 -548.5t-683 -186.5q-443 0 -682 186t-239 549v682h61v-682q0 -678 860 -678q861 0 861 678z" />
    <glyph glyph-name="Ucircumflex" unicode="&#xdb;" horiz-adv-x="2170" 
d="M1440 1505h-88l-267 191l-268 -191h-88l320 240h71zM1946 715v682h61v-682q0 -362 -239 -548.5t-683 -186.5q-443 0 -682 186t-239 549v682h61v-682q0 -678 860 -678q861 0 861 678z" />
    <glyph glyph-name="Udieresis" unicode="&#xdc;" horiz-adv-x="2170" 
d="M911 1733v-228h-61v228h61zM1321 1733v-228h-61v228h61zM1946 715v682h61v-682q0 -362 -239 -548.5t-683 -186.5q-443 0 -682 186t-239 549v682h61v-682q0 -678 860 -678q861 0 861 678z" />
    <glyph glyph-name="Yacute" unicode="&#xdd;" horiz-adv-x="1953" 
d="M1233 1745h102l-311 -240h-78zM946 590l-936 807h90l877 -752l876 752h91l-936 -807v-590h-62v590z" />
    <glyph glyph-name="Thorn" unicode="&#xde;" horiz-adv-x="2058" 
d="M246 0h-62v1397h62v-297h1237q251 0 367 -99.5t116 -302.5q0 -204 -115.5 -302.5t-367.5 -98.5h-1237v-297zM246 1042v-688h1247q220 0 316 80.5t96 263.5t-96 263.5t-316 80.5h-1247z" />
    <glyph glyph-name="germandbls" unicode="&#xdf;" horiz-adv-x="1935" 
d="M1171 -20q-341 0 -675 81v58q224 -49 365 -65.5t310 -16.5q291 0 425.5 83.5t134.5 293.5q0 188 -96.5 273t-307.5 85h-831v57h823q178 0 268 66.5t90 228.5q0 146 -59.5 225.5t-199 114.5t-396.5 35q-112 0 -200.5 -6t-171 -21.5t-143.5 -41.5t-112 -66t-82.5 -94
t-49 -127t-17.5 -164v-979h-62v981q0 134 35 232.5t101 164t170.5 105.5t232.5 56.5t299 16.5q173 0 297 -17.5t205.5 -50t129 -87t66.5 -120.5t19 -159q0 -250 -232 -315q285 -57 285 -395q0 -224 -152.5 -328t-468.5 -104z" />
    <glyph glyph-name="agrave" unicode="&#xe0;" horiz-adv-x="1820" 
d="M944 1219l-311 239h102l287 -239h-78zM1636 950v-950h-51l-8 217q-462 -237 -836 -237q-304 0 -451 129.5t-147 392.5q0 143 53.5 246t155.5 163t235 87.5t306 27.5q359 0 743 -76zM205 502q0 -245 131.5 -355t411.5 -110q115 0 228 19.5t223 58.5t189.5 73.5t186.5 87.5
v625q-331 68 -690 68q-159 0 -280.5 -25t-213 -78.5t-139 -145t-47.5 -218.5z" />
    <glyph glyph-name="aacute" unicode="&#xe1;" horiz-adv-x="1820" 
d="M1247 1458h103l-312 -239h-77zM1636 950v-950h-51l-8 217q-462 -237 -836 -237q-304 0 -451 129.5t-147 392.5q0 143 53.5 246t155.5 163t235 87.5t306 27.5q359 0 743 -76zM205 502q0 -245 131.5 -355t411.5 -110q115 0 228 19.5t223 58.5t189.5 73.5t186.5 87.5v625
q-331 68 -690 68q-159 0 -280.5 -25t-213 -78.5t-139 -145t-47.5 -218.5z" />
    <glyph glyph-name="acircumflex" unicode="&#xe2;" horiz-adv-x="1820" 
d="M1348 1219h-88l-267 190l-268 -190h-88l319 239h72zM1636 950v-950h-51l-8 217q-462 -237 -836 -237q-304 0 -451 129.5t-147 392.5q0 143 53.5 246t155.5 163t235 87.5t306 27.5q359 0 743 -76zM205 502q0 -245 131.5 -355t411.5 -110q115 0 228 19.5t223 58.5
t189.5 73.5t186.5 87.5v625q-331 68 -690 68q-159 0 -280.5 -25t-213 -78.5t-139 -145t-47.5 -218.5z" />
    <glyph glyph-name="atilde" unicode="&#xe3;" horiz-adv-x="1820" 
d="M664 1233v57q79 68 172 68q76 0 193.5 -31t162.5 -31q41 0 73 13.5t74 40.5v-58q-67 -53 -143 -53q-49 0 -172.5 33t-183.5 33q-83 0 -176 -72zM1636 950v-950h-51l-8 217q-462 -237 -836 -237q-304 0 -451 129.5t-147 392.5q0 143 53.5 246t155.5 163t235 87.5t306 27.5
q359 0 743 -76zM205 502q0 -245 131.5 -355t411.5 -110q115 0 228 19.5t223 58.5t189.5 73.5t186.5 87.5v625q-331 68 -690 68q-159 0 -280.5 -25t-213 -78.5t-139 -145t-47.5 -218.5z" />
    <glyph glyph-name="adieresis" unicode="&#xe4;" horiz-adv-x="1820" 
d="M817 1446v-227h-61v227h61zM1227 1446v-227h-62v227h62zM1636 950v-950h-51l-8 217q-462 -237 -836 -237q-304 0 -451 129.5t-147 392.5q0 143 53.5 246t155.5 163t235 87.5t306 27.5q359 0 743 -76zM205 502q0 -245 131.5 -355t411.5 -110q115 0 228 19.5t223 58.5
t189.5 73.5t186.5 87.5v625q-331 68 -690 68q-159 0 -280.5 -25t-213 -78.5t-139 -145t-47.5 -218.5z" />
    <glyph glyph-name="aring" unicode="&#xe5;" horiz-adv-x="1820" 
d="M993 1196q-260 0 -260 186q0 179 260 179q258 0 258 -179q0 -186 -258 -186zM795 1382q0 -66 43.5 -97.5t154.5 -31.5t154 31.5t43 97.5q0 62 -43 91.5t-154 29.5t-154.5 -29.5t-43.5 -91.5zM1636 950v-950h-51l-8 217q-462 -237 -836 -237q-304 0 -451 129.5t-147 392.5
q0 143 53.5 246t155.5 163t235 87.5t306 27.5q359 0 743 -76zM205 502q0 -245 131.5 -355t411.5 -110q115 0 228 19.5t223 58.5t189.5 73.5t186.5 87.5v625q-331 68 -690 68q-159 0 -280.5 -25t-213 -78.5t-139 -145t-47.5 -218.5z" />
    <glyph glyph-name="ae" unicode="&#xe6;" horiz-adv-x="3229" 
d="M2372 37q188 0 376 28t273 54l14 -60q-122 -32 -302 -55.5t-361 -23.5q-328 0 -520 69.5t-261 237.5q-191 -130 -446.5 -218.5t-515.5 -88.5q-227 0 -336 65.5t-109 212.5q0 145 108 209.5t367 64.5h895q-1 77 -12 134t-38 108.5t-73.5 85.5t-117 59.5t-170.5 37.5
t-232 12q-290 0 -637 -99l-18 60q141 44 316 70t337 26q322 0 479.5 -74.5t202.5 -236.5q69 165 256.5 238t481.5 73q135 0 244.5 -14t207 -49t163.5 -90.5t104 -142.5t38 -200q0 -33 -6 -57h-1464q5 -103 41.5 -179.5t97.5 -125.5t156 -78.5t205 -41t256 -11.5zM2327 969
q-345 0 -523 -101t-188 -338h1413q-4 89 -28.5 157t-75.5 122t-131 89t-196.5 53t-270.5 18zM629 37q265 0 521 88.5t425 214.5q-18 62 -21 135h-852q-96 0 -162.5 -4.5t-125.5 -18t-93.5 -37.5t-54.5 -63t-20 -94q0 -124 90 -172.5t293 -48.5z" />
    <glyph glyph-name="ccedilla" unicode="&#xe7;" horiz-adv-x="1775" 
d="M143 506q0 283 208 401.5t687 118.5q325 0 594 -63l-14 -58q-262 64 -580 64q-454 0 -643.5 -102t-189.5 -361q0 -262 189.5 -365.5t643.5 -103.5q322 0 580 63l14 -57q-269 -63 -594 -63q-479 0 -687 120t-208 406zM1110 -102h61v-58q0 -101 -54.5 -149.5t-184.5 -48.5
q-83 0 -166 18l12 57q81 -18 162 -18q93 0 131.5 31.5t38.5 107.5v60z" />
    <glyph glyph-name="egrave" unicode="&#xe8;" horiz-adv-x="1818" 
d="M862 1219l-311 239h102l287 -239h-78zM961 37q188 0 376 28t273 54l14 -60q-122 -32 -302 -55.5t-361 -23.5q-163 0 -287 15.5t-226.5 52t-168 96.5t-101 150t-35.5 210q0 144 54 246.5t158.5 162t242.5 86.5t320 27q135 0 244.5 -14t207 -49t163.5 -90.5t104 -142.5
t38 -200q0 -33 -6 -57h-1464q5 -103 41.5 -179.5t97.5 -125.5t156 -78.5t205 -41t256 -11.5zM915 969q-345 0 -522.5 -101t-187.5 -338h1413q-5 112 -43 191t-119 136t-215 84.5t-326 27.5z" />
    <glyph glyph-name="eacute" unicode="&#xe9;" horiz-adv-x="1818" 
d="M1165 1458h103l-312 -239h-77zM961 37q188 0 376 28t273 54l14 -60q-122 -32 -302 -55.5t-361 -23.5q-163 0 -287 15.5t-226.5 52t-168 96.5t-101 150t-35.5 210q0 144 54 246.5t158.5 162t242.5 86.5t320 27q135 0 244.5 -14t207 -49t163.5 -90.5t104 -142.5t38 -200
q0 -33 -6 -57h-1464q5 -103 41.5 -179.5t97.5 -125.5t156 -78.5t205 -41t256 -11.5zM915 969q-345 0 -522.5 -101t-187.5 -338h1413q-5 112 -43 191t-119 136t-215 84.5t-326 27.5z" />
    <glyph glyph-name="ecircumflex" unicode="&#xea;" horiz-adv-x="1818" 
d="M1266 1219h-88l-267 190l-268 -190h-88l319 239h72zM961 37q188 0 376 28t273 54l14 -60q-122 -32 -302 -55.5t-361 -23.5q-163 0 -287 15.5t-226.5 52t-168 96.5t-101 150t-35.5 210q0 144 54 246.5t158.5 162t242.5 86.5t320 27q135 0 244.5 -14t207 -49t163.5 -90.5
t104 -142.5t38 -200q0 -33 -6 -57h-1464q5 -103 41.5 -179.5t97.5 -125.5t156 -78.5t205 -41t256 -11.5zM915 969q-345 0 -522.5 -101t-187.5 -338h1413q-5 112 -43 191t-119 136t-215 84.5t-326 27.5z" />
    <glyph glyph-name="edieresis" unicode="&#xeb;" horiz-adv-x="1818" 
d="M735 1446v-227h-61v227h61zM1145 1446v-227h-62v227h62zM961 37q188 0 376 28t273 54l14 -60q-122 -32 -302 -55.5t-361 -23.5q-163 0 -287 15.5t-226.5 52t-168 96.5t-101 150t-35.5 210q0 144 54 246.5t158.5 162t242.5 86.5t320 27q135 0 244.5 -14t207 -49
t163.5 -90.5t104 -142.5t38 -200q0 -33 -6 -57h-1464q5 -103 41.5 -179.5t97.5 -125.5t156 -78.5t205 -41t256 -11.5zM915 969q-345 0 -522.5 -101t-187.5 -338h1413q-5 112 -43 191t-119 136t-215 84.5t-326 27.5z" />
    <glyph glyph-name="igrave" unicode="&#xec;" 
d="M168 1219l-311 239h102l287 -239h-78zM184 0v1006h62v-1006h-62z" />
    <glyph glyph-name="iacute" unicode="&#xed;" 
d="M471 1458h102l-311 -239h-78zM184 0v1006h62v-1006h-62z" />
    <glyph glyph-name="icircumflex" unicode="&#xee;" 
d="M571 1219h-88l-266 190l-268 -190h-88l319 239h72zM184 0v1006h62v-1006h-62z" />
    <glyph glyph-name="idieresis" unicode="&#xef;" 
d="M41 1446v-227h-61v227h61zM451 1446v-227h-62v227h62zM184 0v1006h62v-1006h-62z" />
    <glyph glyph-name="eth" unicode="&#xf0;" horiz-adv-x="1945" 
d="M1145 1063h-82l188 170q-169 91 -409 164h137q160 -47 313 -127l187 168h80l-218 -197q92 -53 167 -116t139 -144t99.5 -184t35.5 -217q0 -129 -45.5 -235t-141 -189.5t-257.5 -129.5t-380 -46q-815 0 -815 512q0 238 183 355.5t524 117.5q151 0 289.5 -25.5t245.5 -69.5
t188 -94t141 -106q-45 319 -414 534zM958 37q197 0 345 40t238 113t134.5 171t44.5 219v10q-121 134 -355 225.5t-515 91.5q-645 0 -645 -415q0 -455 753 -455z" />
    <glyph glyph-name="ntilde" unicode="&#xf1;" horiz-adv-x="1783" 
d="M569 1233v57q79 68 172 68q76 0 194 -31t163 -31q41 0 73 13.5t74 40.5v-58q-67 -53 -143 -53q-49 0 -173 33t-184 33q-83 0 -176 -72zM184 0v1006h52l8 -164q417 184 778 184q588 0 588 -494v-532h-62v545q0 101 -28 176.5t-90 132.5t-168.5 86t-255.5 29
q-160 0 -360.5 -49t-399.5 -140v-780h-62z" />
    <glyph glyph-name="ograve" unicode="&#xf2;" horiz-adv-x="1945" 
d="M926 1219l-312 239h103l287 -239h-78zM143 502q0 273 199.5 398.5t630.5 125.5t630 -125.5t199 -398.5q0 -271 -199.5 -396.5t-629.5 -125.5t-630 125.5t-200 396.5zM205 502q0 -247 179.5 -356t588.5 -109t588.5 109t179.5 356q0 248 -180 357.5t-588 109.5t-588 -109.5
t-180 -357.5z" />
    <glyph glyph-name="oacute" unicode="&#xf3;" horiz-adv-x="1945" 
d="M1229 1458h102l-311 -239h-78zM143 502q0 273 199.5 398.5t630.5 125.5t630 -125.5t199 -398.5q0 -271 -199.5 -396.5t-629.5 -125.5t-630 125.5t-200 396.5zM205 502q0 -247 179.5 -356t588.5 -109t588.5 109t179.5 356q0 248 -180 357.5t-588 109.5t-588 -109.5
t-180 -357.5z" />
    <glyph glyph-name="ocircumflex" unicode="&#xf4;" horiz-adv-x="1945" 
d="M1329 1219h-88l-266 190l-268 -190h-89l320 239h72zM143 502q0 273 199.5 398.5t630.5 125.5t630 -125.5t199 -398.5q0 -271 -199.5 -396.5t-629.5 -125.5t-630 125.5t-200 396.5zM205 502q0 -247 179.5 -356t588.5 -109t588.5 109t179.5 356q0 248 -180 357.5
t-588 109.5t-588 -109.5t-180 -357.5z" />
    <glyph glyph-name="otilde" unicode="&#xf5;" horiz-adv-x="1945" 
d="M635 1212v58q78 67 172 67q76 0 193.5 -30.5t162.5 -30.5q66 0 148 53v-57q-67 -53 -144 -53q-49 0 -172.5 32.5t-183.5 32.5q-83 0 -176 -72zM143 502q0 273 199.5 398.5t630.5 125.5t630 -125.5t199 -398.5q0 -271 -199.5 -396.5t-629.5 -125.5t-630 125.5t-200 396.5z
M205 502q0 -247 179.5 -356t588.5 -109t588.5 109t179.5 356q0 248 -180 357.5t-588 109.5t-588 -109.5t-180 -357.5z" />
    <glyph glyph-name="odieresis" unicode="&#xf6;" horiz-adv-x="1945" 
d="M799 1446v-227h-62v227h62zM1208 1446v-227h-61v227h61zM143 502q0 273 199.5 398.5t630.5 125.5t630 -125.5t199 -398.5q0 -271 -199.5 -396.5t-629.5 -125.5t-630 125.5t-200 396.5zM205 502q0 -247 179.5 -356t588.5 -109t588.5 109t179.5 356q0 248 -180 357.5
t-588 109.5t-588 -109.5t-180 -357.5z" />
    <glyph glyph-name="divide" unicode="&#xf7;" horiz-adv-x="1517" 
d="M768 1069v-258h-61v258h61zM1354 590h-1190v57h1190v-57zM768 426v-258h-61v258h61z" />
    <glyph glyph-name="oslash" unicode="&#xf8;" horiz-adv-x="1986" 
d="M143 502q0 273 199.5 398.5t630.5 125.5q322 0 514 -70l137 119h84l-164 -143q258 -120 258 -430q0 -271 -199.5 -396.5t-629.5 -125.5q-281 0 -457 51l-110 -97h-87l134 117q-158 60 -234 171t-76 280zM205 502q0 -158 71.5 -257.5t225.5 -150.5l938 819
q-180 56 -467 56q-408 0 -588 -109.5t-180 -357.5zM1741 502q0 144 -59 240t-185 149l-932 -815q157 -39 408 -39q409 0 588.5 109t179.5 356z" />
    <glyph glyph-name="ugrave" unicode="&#xf9;" horiz-adv-x="1804" 
d="M932 1219l-311 239h102l287 -239h-78zM174 473v533h62v-545q0 -101 29.5 -176.5t94 -132.5t175 -86t264.5 -29q145 0 352.5 53t407.5 146v770h61v-1006h-51l-10 174q-443 -194 -777 -194q-608 0 -608 493z" />
    <glyph glyph-name="uacute" unicode="&#xfa;" horiz-adv-x="1804" 
d="M1235 1458h102l-311 -239h-78zM174 473v533h62v-545q0 -101 29.5 -176.5t94 -132.5t175 -86t264.5 -29q145 0 352.5 53t407.5 146v770h61v-1006h-51l-10 174q-443 -194 -777 -194q-608 0 -608 493z" />
    <glyph glyph-name="ucircumflex" unicode="&#xfb;" horiz-adv-x="1804" 
d="M1335 1219h-88l-266 190l-268 -190h-88l319 239h72zM174 473v533h62v-545q0 -101 29.5 -176.5t94 -132.5t175 -86t264.5 -29q145 0 352.5 53t407.5 146v770h61v-1006h-51l-10 174q-443 -194 -777 -194q-608 0 -608 493z" />
    <glyph glyph-name="udieresis" unicode="&#xfc;" horiz-adv-x="1804" 
d="M805 1446v-227h-62v227h62zM1214 1446v-227h-61v227h61zM174 473v533h62v-545q0 -101 29.5 -176.5t94 -132.5t175 -86t264.5 -29q145 0 352.5 53t407.5 146v770h61v-1006h-51l-10 174q-443 -194 -777 -194q-608 0 -608 493z" />
    <glyph glyph-name="yacute" unicode="&#xfd;" horiz-adv-x="1820" 
d="M1145 1458h102l-311 -239h-78zM174 518v488h62v-484q0 -216 136 -312.5t427 -96.5q227 0 418.5 52.5t388.5 145.5v695h61v-877q0 -150 -42 -248.5t-137.5 -159t-237.5 -85.5t-355 -25q-171 0 -345 24.5t-308 65.5l18 59q329 -92 635 -92q200 0 332 21.5t218.5 74
t123.5 136t37 211.5v141q-177 -90 -388 -143.5t-425 -53.5q-315 0 -467 114t-152 349z" />
    <glyph glyph-name="thorn" unicode="&#xfe;" horiz-adv-x="1820" 
d="M246 -379h-62v1915h62v-729q456 219 833 219q303 0 450.5 -126.5t147.5 -381.5q0 -147 -53.5 -252.5t-155 -167.5t-234.5 -90t-306 -28q-329 0 -682 65v-424zM1073 969q-115 0 -228 -18t-224.5 -55t-188.5 -68t-186 -80v-644q142 -29 329 -48t361 -19q127 0 230 15.5
t188 50.5t142 90t88.5 135.5t31.5 185.5q0 236 -132 345.5t-411 109.5z" />
    <glyph glyph-name="ydieresis" unicode="&#xff;" horiz-adv-x="1820" 
d="M715 1446v-227h-62v227h62zM1124 1446v-227h-61v227h61zM174 518v488h62v-484q0 -216 136 -312.5t427 -96.5q227 0 418.5 52.5t388.5 145.5v695h61v-877q0 -150 -42 -248.5t-137.5 -159t-237.5 -85.5t-355 -25q-171 0 -345 24.5t-308 65.5l18 59q329 -92 635 -92
q200 0 332 21.5t218.5 74t123.5 136t37 211.5v141q-177 -90 -388 -143.5t-425 -53.5q-315 0 -467 114t-152 349z" />
    <glyph glyph-name="Amacron" unicode="&#x100;" horiz-adv-x="2201" 
d="M1436 1604h-664v59h664v-59zM2107 0l-278 373h-1454l-279 -373h-76l1043 1397h76l1042 -1397h-74zM418 430h1368l-684 916z" />
    <glyph glyph-name="amacron" unicode="&#x101;" horiz-adv-x="1820" 
d="M1323 1317h-664v59h664v-59zM1636 950v-950h-51l-8 217q-462 -237 -836 -237q-304 0 -451 129.5t-147 392.5q0 143 53.5 246t155.5 163t235 87.5t306 27.5q359 0 743 -76zM205 502q0 -245 131.5 -355t411.5 -110q115 0 228 19.5t223 58.5t189.5 73.5t186.5 87.5v625
q-331 68 -690 68q-159 0 -280.5 -25t-213 -78.5t-139 -145t-47.5 -218.5z" />
    <glyph glyph-name="Abreve" unicode="&#x102;" horiz-adv-x="2201" 
d="M1348 1735h61q0 -104 -75 -170t-234 -66t-235.5 66t-76.5 170h62q0 -86 55 -132.5t195 -46.5t194 46.5t54 132.5zM2107 0l-278 373h-1454l-279 -373h-76l1043 1397h76l1042 -1397h-74zM418 430h1368l-684 916z" />
    <glyph glyph-name="abreve" unicode="&#x103;" horiz-adv-x="1820" 
d="M1241 1448h62q0 -104 -75.5 -170t-234.5 -66t-235 66t-76 170h61q0 -86 55 -132t195 -46t194 46t54 132zM1636 950v-950h-51l-8 217q-462 -237 -836 -237q-304 0 -451 129.5t-147 392.5q0 143 53.5 246t155.5 163t235 87.5t306 27.5q359 0 743 -76zM205 502
q0 -245 131.5 -355t411.5 -110q115 0 228 19.5t223 58.5t189.5 73.5t186.5 87.5v625q-331 68 -690 68q-159 0 -280.5 -25t-213 -78.5t-139 -145t-47.5 -218.5z" />
    <glyph glyph-name="Aogonek" unicode="&#x104;" horiz-adv-x="2201" 
d="M2107 0l-278 373h-1454l-279 -373h-76l1043 1397h76l1042 -1397q-86 -41 -143 -75t-98.5 -79t-41.5 -90q0 -65 97 -65q91 0 213 51l22 -49q-117 -60 -235 -60q-74 0 -116 30t-42 89q0 77 82.5 143t200.5 105h-13zM418 430h1368l-684 916z" />
    <glyph glyph-name="aogonek" unicode="&#x105;" horiz-adv-x="1820" 
d="M1571 8l14 -2l-8 211q-462 -237 -836 -237q-304 0 -451 129.5t-147 392.5q0 143 53.5 246t155.5 163t235 87.5t306 27.5q359 0 743 -76v-950h-20q-86 -41 -143 -75t-98.5 -79t-41.5 -90q0 -65 97 -65q90 0 212 51l23 -49q-117 -60 -235 -60q-74 0 -116 30t-42 89
q0 76 90 146.5t209 109.5zM205 502q0 -245 131.5 -355t411.5 -110q115 0 228 19.5t223 58.5t189.5 73.5t186.5 87.5v625q-331 68 -690 68q-159 0 -280.5 -25t-213 -78.5t-139 -145t-47.5 -218.5z" />
    <glyph glyph-name="Cacute" unicode="&#x106;" horiz-adv-x="2140" 
d="M1427 1745h103l-311 -240h-78zM205 698q0 -168 46.5 -289t148.5 -205t268 -124.5t401 -40.5q409 0 934 125l14 -58q-204 -53 -462 -89.5t-484 -36.5q-473 0 -700.5 171.5t-227.5 546.5t227.5 547t700.5 172q226 0 483.5 -36.5t462.5 -90.5l-14 -57q-525 125 -934 125
q-235 0 -401 -40.5t-268 -125t-148.5 -205.5t-46.5 -289z" />
    <glyph glyph-name="cacute" unicode="&#x107;" horiz-adv-x="1775" 
d="M1225 1458h102l-311 -239h-78zM143 506q0 283 208 401.5t687 118.5q325 0 594 -63l-14 -58q-262 64 -580 64q-454 0 -643.5 -102t-189.5 -361q0 -262 189.5 -365.5t643.5 -103.5q322 0 580 63l14 -57q-269 -63 -594 -63q-479 0 -687 120t-208 406z" />
    <glyph glyph-name="Ccircumflex" unicode="&#x108;" horiz-adv-x="2140" 
d="M1526 1505h-88l-267 191l-268 -191h-88l320 240h71zM205 698q0 -168 46.5 -289t148.5 -205t268 -124.5t401 -40.5q409 0 934 125l14 -58q-204 -53 -462 -89.5t-484 -36.5q-473 0 -700.5 171.5t-227.5 546.5t227.5 547t700.5 172q226 0 483.5 -36.5t462.5 -90.5l-14 -57
q-525 125 -934 125q-235 0 -401 -40.5t-268 -125t-148.5 -205.5t-46.5 -289z" />
    <glyph glyph-name="ccircumflex" unicode="&#x109;" horiz-adv-x="1775" 
d="M1239 1219h-88l-266 190l-269 -190h-88l320 239h72zM141 506q0 283 208 401.5t687 118.5q325 0 594 -63l-14 -58q-262 64 -580 64q-454 0 -643.5 -102t-189.5 -361q0 -262 189.5 -365.5t643.5 -103.5q322 0 580 63l14 -57q-269 -63 -594 -63q-479 0 -687 120t-208 406z
" />
    <glyph glyph-name="Cdotaccent" unicode="&#x10a;" horiz-adv-x="2140" 
d="M1202 1786v-227h-61v227h61zM205 698q0 -168 46.5 -289t148.5 -205t268 -124.5t401 -40.5q409 0 934 125l14 -58q-204 -53 -462 -89.5t-484 -36.5q-473 0 -700.5 171.5t-227.5 546.5t227.5 547t700.5 172q226 0 483.5 -36.5t462.5 -90.5l-14 -57q-525 125 -934 125
q-235 0 -401 -40.5t-268 -125t-148.5 -205.5t-46.5 -289z" />
    <glyph glyph-name="cdotaccent" unicode="&#x10b;" horiz-adv-x="1775" 
d="M999 1397v-228h-61v228h61zM143 506q0 283 208 401.5t687 118.5q325 0 594 -63l-14 -58q-262 64 -580 64q-454 0 -643.5 -102t-189.5 -361q0 -262 189.5 -365.5t643.5 -103.5q322 0 580 63l14 -57q-269 -63 -594 -63q-479 0 -687 120t-208 406z" />
    <glyph glyph-name="Ccaron" unicode="&#x10c;" horiz-adv-x="2140" 
d="M1528 1745l-320 -240h-71l-320 240h88l269 -191l266 191h88zM205 698q0 -168 46.5 -289t148.5 -205t268 -124.5t401 -40.5q409 0 934 125l14 -58q-204 -53 -462 -89.5t-484 -36.5q-473 0 -700.5 171.5t-227.5 546.5t227.5 547t700.5 172q226 0 483.5 -36.5t462.5 -90.5
l-14 -57q-525 125 -934 125q-235 0 -401 -40.5t-268 -125t-148.5 -205.5t-46.5 -289z" />
    <glyph glyph-name="ccaron" unicode="&#x10d;" horiz-adv-x="1775" 
d="M1325 1458l-319 -239h-72l-320 239h88l269 -190l266 190h88zM143 506q0 283 208 401.5t687 118.5q325 0 594 -63l-14 -58q-262 64 -580 64q-454 0 -643.5 -102t-189.5 -361q0 -262 189.5 -365.5t643.5 -103.5q322 0 580 63l14 -57q-269 -63 -594 -63q-479 0 -687 120
t-208 406z" />
    <glyph glyph-name="Dcaron" unicode="&#x10e;" horiz-adv-x="2281" 
d="M1405 1745l-320 -240h-71l-320 240h88l269 -191l266 191h88zM1303 0h-1119v1397h1119q444 0 639.5 -165.5t195.5 -531.5q0 -245 -84.5 -397.5t-268.5 -227.5t-482 -75zM246 1339v-1282h1057q214 0 361 37.5t239 118t133 199t41 288.5q0 229 -75 367t-244.5 205t-454.5 67
h-1057z" />
    <glyph glyph-name="dcaron" unicode="&#x10f;" horiz-adv-x="1820" 
d="M1575 1536h61v-1536h-51l-8 199q-456 -219 -836 -219q-303 0 -450.5 126t-147.5 381q0 118 35.5 210t99.5 153.5t158.5 101t206.5 57t250 17.5q340 0 682 -63v573zM1815 1270v49h-25v217h61v-276q0 -50 -49 -50q-17 0 -35 9l9 36q12 -4 22 -4q17 0 17 19zM205 492
q0 -236 132 -345.5t411 -109.5q115 0 228 18t224.5 55t188.5 68t186 80v643q-331 68 -690 68q-127 0 -230 -15.5t-188 -50.5t-142 -90t-88.5 -135.5t-31.5 -185.5z" />
    <glyph glyph-name="Dcroat" unicode="&#x110;" horiz-adv-x="2322" 
d="M225 666h-205v57h205v674h1118q444 0 640 -165.5t196 -531.5q0 -244 -85 -397t-269 -228t-482 -75h-1118v666zM287 666v-609h1056q284 0 454.5 69.5t245.5 208t75 365.5q0 229 -75.5 367t-245 205t-454.5 67h-1056v-616h706v-57h-706z" />
    <glyph glyph-name="dcroat" unicode="&#x111;" horiz-adv-x="1943" 
d="M1575 1536h61v-188h287v-58h-287v-1290h-51l-8 199q-456 -219 -836 -219q-303 0 -450.5 126t-147.5 381q0 118 35.5 210t99.5 153.5t158.5 101t206.5 57t250 17.5q340 0 682 -63v327h-590v58h590v188zM205 492q0 -236 132 -345.5t411 -109.5q115 0 228 18t224.5 55
t188.5 68t186 80v643q-331 68 -690 68q-127 0 -230 -15.5t-188 -50.5t-142 -90t-88.5 -135.5t-31.5 -185.5z" />
    <glyph glyph-name="Emacron" unicode="&#x112;" horiz-adv-x="2095" 
d="M1466 1604h-663v59h663v-59zM1931 0h-1747v1397h1747v-58h-1685v-591h1644v-58h-1644v-633h1685v-57z" />
    <glyph glyph-name="emacron" unicode="&#x113;" horiz-adv-x="1818" 
d="M1241 1317h-663v59h663v-59zM961 37q188 0 376 28t273 54l14 -60q-122 -32 -302 -55.5t-361 -23.5q-163 0 -287 15.5t-226.5 52t-168 96.5t-101 150t-35.5 210q0 144 54 246.5t158.5 162t242.5 86.5t320 27q135 0 244.5 -14t207 -49t163.5 -90.5t104 -142.5t38 -200
q0 -33 -6 -57h-1464q5 -103 41.5 -179.5t97.5 -125.5t156 -78.5t205 -41t256 -11.5zM915 969q-345 0 -522.5 -101t-187.5 -338h1413q-5 112 -43 191t-119 136t-215 84.5t-326 27.5z" />
    <glyph glyph-name="Ebreve" unicode="&#x114;" horiz-adv-x="2095" 
d="M1378 1735h62q0 -104 -75.5 -170t-234.5 -66t-235 66t-76 170h62q0 -86 54.5 -132.5t194.5 -46.5t194 46.5t54 132.5zM1931 0h-1747v1397h1747v-58h-1685v-591h1644v-58h-1644v-633h1685v-57z" />
    <glyph glyph-name="ebreve" unicode="&#x115;" horiz-adv-x="1818" 
d="M1159 1448h62q0 -104 -75.5 -170t-234.5 -66t-235 66t-76 170h62q0 -86 54.5 -132t194.5 -46t194 46t54 132zM961 37q188 0 376 28t273 54l14 -60q-122 -32 -302 -55.5t-361 -23.5q-163 0 -287 15.5t-226.5 52t-168 96.5t-101 150t-35.5 210q0 144 54 246.5t158.5 162
t242.5 86.5t320 27q135 0 244.5 -14t207 -49t163.5 -90.5t104 -142.5t38 -200q0 -33 -6 -57h-1464q5 -103 41.5 -179.5t97.5 -125.5t156 -78.5t205 -41t256 -11.5zM915 969q-345 0 -522.5 -101t-187.5 -338h1413q-5 112 -43 191t-119 136t-215 84.5t-326 27.5z" />
    <glyph glyph-name="Edotaccent" unicode="&#x116;" horiz-adv-x="2095" 
d="M1163 1786v-227h-61v227h61zM1931 0h-1747v1397h1747v-58h-1685v-591h1644v-58h-1644v-633h1685v-57z" />
    <glyph glyph-name="edotaccent" unicode="&#x117;" horiz-adv-x="1818" 
d="M940 1397v-228h-61v228h61zM961 37q188 0 376 28t273 54l14 -60q-122 -32 -302 -55.5t-361 -23.5q-163 0 -287 15.5t-226.5 52t-168 96.5t-101 150t-35.5 210q0 144 54 246.5t158.5 162t242.5 86.5t320 27q135 0 244.5 -14t207 -49t163.5 -90.5t104 -142.5t38 -200
q0 -33 -6 -57h-1464q5 -103 41.5 -179.5t97.5 -125.5t156 -78.5t205 -41t256 -11.5zM915 969q-345 0 -522.5 -101t-187.5 -338h1413q-5 112 -43 191t-119 136t-215 84.5t-326 27.5z" />
    <glyph glyph-name="Eogonek" unicode="&#x118;" horiz-adv-x="2095" 
d="M1868 0h-1684v1397h1747v-58h-1685v-591h1644v-58h-1644v-633h1685v-57h-2q-86 -41 -142.5 -75t-98 -79t-41.5 -90q0 -65 96 -65q91 0 213 51l22 -49q-117 -60 -235 -60q-74 0 -116 30t-42 89q0 77 82.5 143t200.5 105z" />
    <glyph glyph-name="eogonek" unicode="&#x119;" horiz-adv-x="1818" 
d="M961 37q188 0 376 28t273 54l14 -60q-133 -37 -340 -61q-131 -60 -205.5 -118.5t-74.5 -123.5t96 -65q91 0 213 51l22 -49q-117 -60 -235 -60q-74 0 -116 30t-42 89q0 67 71.5 130.5t176.5 107.5q-123 -10 -229 -10q-163 0 -287 15.5t-226.5 52t-168 96.5t-101 150
t-35.5 210q0 144 54 246.5t158.5 162t242.5 86.5t320 27q135 0 244.5 -14t207 -49t163.5 -90.5t104 -142.5t38 -200q0 -33 -6 -57h-1464q5 -103 41.5 -179.5t97.5 -125.5t156 -78.5t205 -41t256 -11.5zM915 969q-345 0 -522.5 -101t-187.5 -338h1413q-5 112 -43 191
t-119 136t-215 84.5t-326 27.5z" />
    <glyph glyph-name="Ecaron" unicode="&#x11a;" horiz-adv-x="2095" 
d="M1489 1745l-320 -240h-71l-320 240h88l269 -191l266 191h88zM1931 0h-1747v1397h1747v-58h-1685v-591h1644v-58h-1644v-633h1685v-57z" />
    <glyph glyph-name="ecaron" unicode="&#x11b;" horiz-adv-x="1818" 
d="M1266 1458l-320 -239h-72l-319 239h88l268 -190l267 190h88zM961 37q188 0 376 28t273 54l14 -60q-122 -32 -302 -55.5t-361 -23.5q-163 0 -287 15.5t-226.5 52t-168 96.5t-101 150t-35.5 210q0 144 54 246.5t158.5 162t242.5 86.5t320 27q135 0 244.5 -14t207 -49
t163.5 -90.5t104 -142.5t38 -200q0 -33 -6 -57h-1464q5 -103 41.5 -179.5t97.5 -125.5t156 -78.5t205 -41t256 -11.5zM915 969q-345 0 -522.5 -101t-187.5 -338h1413q-5 112 -43 191t-119 136t-215 84.5t-326 27.5z" />
    <glyph glyph-name="Gcircumflex" unicode="&#x11c;" horiz-adv-x="2201" 
d="M1559 1505h-89l-266 191l-268 -191h-88l319 240h72zM143 698q0 375 232.5 547t716.5 172q226 0 483.5 -36.5t462.5 -90.5l-15 -57q-525 125 -933 125q-241 0 -410.5 -40.5t-274 -125t-152.5 -205.5t-48 -289t48 -289t152.5 -205t274 -124.5t410.5 -40.5q365 0 886 115
v569h62v-617q-204 -53 -462 -89.5t-484 -36.5q-484 0 -716.5 171.5t-232.5 546.5z" />
    <glyph glyph-name="gcircumflex" unicode="&#x11d;" horiz-adv-x="1810" 
d="M1225 1198h-88l-267 191l-268 -191h-88l320 240h71zM1636 950v-821q0 -150 -42 -248.5t-137.5 -159t-237.5 -85.5t-355 -25q-151 0 -351 24.5t-343 67.5l18 61q328 -96 676 -96q200 0 332 21.5t218.5 74t123.5 136t37 211.5v141q-451 -238 -834 -238q-304 0 -451 124.5
t-147 379.5q0 112 35.5 198.5t99.5 144.5t158.5 95.5t206.5 53.5t250 16q359 0 743 -76zM205 522q0 -237 131.5 -343.5t411.5 -106.5q115 0 228 19.5t223 58.5t189.5 73.5t186.5 87.5v590q-331 68 -690 68q-160 0 -281 -23.5t-212.5 -75t-139 -139t-47.5 -209.5z" />
    <glyph glyph-name="Gbreve" unicode="&#x11e;" horiz-adv-x="2201" 
d="M1450 1735h61q0 -104 -75 -170t-234 -66t-235 66t-76 170h61q0 -86 55 -132.5t195 -46.5t194 46.5t54 132.5zM143 698q0 375 232.5 547t716.5 172q226 0 483.5 -36.5t462.5 -90.5l-15 -57q-525 125 -933 125q-241 0 -410.5 -40.5t-274 -125t-152.5 -205.5t-48 -289
t48 -289t152.5 -205t274 -124.5t410.5 -40.5q365 0 886 115v569h62v-617q-204 -53 -462 -89.5t-484 -36.5q-484 0 -716.5 171.5t-232.5 546.5z" />
    <glyph glyph-name="gbreve" unicode="&#x11f;" horiz-adv-x="1810" 
d="M1116 1427h62q0 -104 -75.5 -169.5t-234.5 -65.5t-235 65.5t-76 169.5h61q0 -86 55 -132t195 -46t194 46t54 132zM1636 950v-821q0 -150 -42 -248.5t-137.5 -159t-237.5 -85.5t-355 -25q-151 0 -351 24.5t-343 67.5l18 61q328 -96 676 -96q200 0 332 21.5t218.5 74
t123.5 136t37 211.5v141q-451 -238 -834 -238q-304 0 -451 124.5t-147 379.5q0 112 35.5 198.5t99.5 144.5t158.5 95.5t206.5 53.5t250 16q359 0 743 -76zM205 522q0 -237 131.5 -343.5t411.5 -106.5q115 0 228 19.5t223 58.5t189.5 73.5t186.5 87.5v590q-331 68 -690 68
q-160 0 -281 -23.5t-212.5 -75t-139 -139t-47.5 -209.5z" />
    <glyph glyph-name="Gdotaccent" unicode="&#x120;" horiz-adv-x="2201" 
d="M1235 1786v-227h-61v227h61zM143 698q0 375 232.5 547t716.5 172q226 0 483.5 -36.5t462.5 -90.5l-15 -57q-525 125 -933 125q-241 0 -410.5 -40.5t-274 -125t-152.5 -205.5t-48 -289t48 -289t152.5 -205t274 -124.5t410.5 -40.5q365 0 886 115v569h62v-617
q-204 -53 -462 -89.5t-484 -36.5q-484 0 -716.5 171.5t-232.5 546.5z" />
    <glyph glyph-name="gdotaccent" unicode="&#x121;" horiz-adv-x="1810" 
d="M901 1376v-227h-61v227h61zM1636 950v-821q0 -150 -42 -248.5t-137.5 -159t-237.5 -85.5t-355 -25q-151 0 -351 24.5t-343 67.5l18 61q328 -96 676 -96q200 0 332 21.5t218.5 74t123.5 136t37 211.5v141q-451 -238 -834 -238q-304 0 -451 124.5t-147 379.5
q0 112 35.5 198.5t99.5 144.5t158.5 95.5t206.5 53.5t250 16q359 0 743 -76zM205 522q0 -237 131.5 -343.5t411.5 -106.5q115 0 228 19.5t223 58.5t189.5 73.5t186.5 87.5v590q-331 68 -690 68q-160 0 -281 -23.5t-212.5 -75t-139 -139t-47.5 -209.5z" />
    <glyph glyph-name="Gcommaaccent" unicode="&#x122;" horiz-adv-x="2201" 
d="M143 698q0 375 232.5 547t716.5 172q226 0 483.5 -36.5t462.5 -90.5l-15 -57q-525 125 -933 125q-241 0 -410.5 -40.5t-274 -125t-152.5 -205.5t-48 -289t48 -289t152.5 -205t274 -124.5t410.5 -40.5q365 0 886 115v569h62v-617q-204 -53 -462 -89.5t-484 -36.5
q-484 0 -716.5 171.5t-232.5 546.5zM1196 -129h92l-188 -240h-68z" />
    <glyph glyph-name="gcommaaccent" unicode="&#x123;" horiz-adv-x="1810" 
d="M881 1219h-93l189 239h67zM1636 950v-821q0 -150 -42 -248.5t-137.5 -159t-237.5 -85.5t-355 -25q-151 0 -351 24.5t-343 67.5l18 61q328 -96 676 -96q200 0 332 21.5t218.5 74t123.5 136t37 211.5v141q-451 -238 -834 -238q-304 0 -451 124.5t-147 379.5
q0 112 35.5 198.5t99.5 144.5t158.5 95.5t206.5 53.5t250 16q359 0 743 -76zM205 522q0 -237 131.5 -343.5t411.5 -106.5q115 0 228 19.5t223 58.5t189.5 73.5t186.5 87.5v590q-331 68 -690 68q-160 0 -281 -23.5t-212.5 -75t-139 -139t-47.5 -209.5z" />
    <glyph glyph-name="Hcircumflex" unicode="&#x124;" horiz-adv-x="2148" 
d="M1430 1505h-89l-266 191l-268 -191h-88l319 240h72zM246 0h-62v1397h62v-633h1657v633h61v-1397h-61v707h-1657v-707z" />
    <glyph glyph-name="hcircumflex" unicode="&#x125;" horiz-adv-x="1783" 
d="M887 1608h-88l-267 190l-268 -190h-88l320 239h71zM184 0v1536h62v-694q413 184 778 184q586 0 586 -494v-532h-62v545q0 101 -28 176.5t-90 132.5t-168.5 86t-255.5 29q-160 0 -360.5 -49t-399.5 -140v-780h-62z" />
    <glyph glyph-name="Hbar" unicode="&#x126;" horiz-adv-x="2189" 
d="M205 1034h-172v58h172v305h61v-305h1657v305h62v-305h172v-58h-172v-1034h-62v707h-1657v-707h-61v1034zM266 1034v-270h1657v270h-1657z" />
    <glyph glyph-name="hbar" unicode="&#x127;" horiz-adv-x="1908" 
d="M309 0v1290h-289v58h289v188h62v-188h665v-58h-665v-448q413 184 778 184q586 0 586 -494v-532h-62v545q0 101 -28 176.5t-90.5 132.5t-169 86t-255.5 29q-160 0 -360 -49t-399 -140v-780h-62z" />
    <glyph glyph-name="Itilde" unicode="&#x128;" 
d="M-121 1520v57q79 68 172 68q76 0 194 -31t163 -31q41 0 73.5 13t73.5 40v-57q-67 -53 -143 -53q-49 0 -173 32.5t-184 32.5q-84 0 -176 -71zM246 0h-62v1397h62v-1397z" />
    <glyph glyph-name="itilde" unicode="&#x129;" 
d="M-113 1233v57q79 68 172 68q76 0 194 -31t163 -31q41 0 73 13.5t74 40.5v-58q-67 -53 -143 -53q-49 0 -173 33t-184 33q-83 0 -176 -72zM184 0v1006h62v-1006h-62z" />
    <glyph glyph-name="Imacron" unicode="&#x12a;" 
d="M549 1604h-664v59h664v-59zM246 0h-62v1397h62v-1397z" />
    <glyph glyph-name="imacron" unicode="&#x12b;" 
d="M547 1317h-664v59h664v-59zM184 0v1006h62v-1006h-62z" />
    <glyph glyph-name="Ibreve" unicode="&#x12c;" 
d="M461 1735h61q0 -104 -75 -170t-234 -66t-235 66t-76 170h61q0 -86 55 -132.5t195 -46.5t194 46.5t54 132.5zM246 0h-62v1397h62v-1397z" />
    <glyph glyph-name="ibreve" unicode="&#x12d;" 
d="M465 1448h61q0 -104 -75 -170t-234 -66t-235 66t-76 170h61q0 -86 55 -132t195 -46t194 46t54 132zM184 0v1006h62v-1006h-62z" />
    <glyph glyph-name="Iogonek" unicode="&#x12e;" 
d="M184 0v1397h62v-1397q-86 -41 -143 -75t-98.5 -79t-41.5 -90q0 -65 96 -65q91 0 213 51l23 -49q-117 -60 -236 -60q-74 0 -115.5 30t-41.5 89q0 77 82 143t200 105z" />
    <glyph glyph-name="iogonek" unicode="&#x12f;" 
d="M246 1397v-228h-62v228h62zM295 -307q-117 -60 -236 -60q-74 0 -115.5 30t-41.5 89q0 73 83.5 141t198.5 109v1004h62v-1006q-86 -41 -143 -75t-98.5 -79t-41.5 -90q0 -65 96 -65q91 0 213 51z" />
    <glyph glyph-name="Idotaccent" unicode="&#x130;" 
d="M246 1786v-227h-62v227h62zM246 0h-62v1397h62v-1397z" />
    <glyph glyph-name="dotlessi" unicode="&#x131;" 
d="M184 0v1006h62v-1006h-62z" />
    <glyph glyph-name="IJ" unicode="&#x132;" horiz-adv-x="1544" 
d="M623 27q202 0 332.5 25t213 86t116.5 155t34 239v865h61v-865q0 -153 -38 -257t-126.5 -174t-233 -101t-359.5 -31q-95 0 -216.5 15t-203.5 43l16 55q176 -55 404 -55zM246 395h-62v940h62v-940z" />
    <glyph glyph-name="ij" unicode="&#x133;" horiz-adv-x="1142" 
d="M246 1397v-228h-62v228h62zM698 1397v-228h-61v228h61zM184 0v1006h62v-1006h-62zM518 -369h-80q48 61 76.5 104t60.5 106t47 134.5t15 155.5v875h61v-877q0 -89 -14 -163t-43 -136t-55 -102.5t-68 -96.5z" />
    <glyph glyph-name="Jcircumflex" unicode="&#x134;" horiz-adv-x="1341" 
d="M1501 1505h-88l-266 191l-268 -191h-88l319 240h72zM420 27q202 0 332.5 25t213 86t116.5 155t34 239v865h62v-865q0 -153 -38 -257t-127 -173.5t-233.5 -101t-359.5 -31.5q-95 0 -216.5 15t-203.5 43l16 55q176 -55 404 -55z" />
    <glyph glyph-name="jcircumflex" unicode="&#x135;" horiz-adv-x="485" 
d="M635 1219h-88l-266 190l-269 -190h-88l320 239h71zM66 -369h-80q47 60 76 103.5t60.5 106.5t46.5 134.5t15 155.5v875h62v-877q0 -89 -14 -163t-43 -136t-55 -102.5t-68 -96.5z" />
    <glyph glyph-name="Kcommaaccent" unicode="&#x136;" horiz-adv-x="2027" 
d="M246 0h-62v1397h62v-873l479 281l1012 592h108l-936 -551l955 -846h-86l-926 813l-606 -358v-455zM956 -129h93l-189 -240h-67z" />
    <glyph glyph-name="kcommaaccent" unicode="&#x137;" horiz-adv-x="1572" 
d="M246 1536v-956h444l729 426h109l-787 -461l811 -545h-104l-776 522h-426v-522h-62v1536h62zM762 -129h92l-188 -240h-68z" />
    <glyph glyph-name="Lacute" unicode="&#x139;" horiz-adv-x="1972" 
d="M471 1745h102l-311 -240h-78zM246 57h1685v-57h-1747v1397h62v-1340z" />
    <glyph glyph-name="lacute" unicode="&#x13a;" 
d="M471 1827h102l-311 -240h-78zM246 1536v-1536h-62v1536h62z" />
    <glyph glyph-name="Lcommaaccent" unicode="&#x13b;" horiz-adv-x="1972" 
d="M246 57h1685v-57h-1747v1397h62v-1340zM1014 -129h92l-188 -240h-68z" />
    <glyph glyph-name="lcommaaccent" unicode="&#x13c;" 
d="M246 1536v-1536h-62v1536h62zM154 -129h92l-189 -240h-67z" />
    <glyph glyph-name="Lcaron" unicode="&#x13d;" horiz-adv-x="1972" 
d="M246 57h1685v-57h-1747v1397h62v-1340zM858 1130v50h-24v217h61v-277q0 -49 -49 -49q-19 0 -35 8l8 37q12 -4 23 -4q16 0 16 18z" />
    <glyph glyph-name="lcaron" unicode="&#x13e;" 
d="M246 1536v-1536h-62v1536h62zM422 1270v49h-25v217h62v-276q0 -50 -49 -50q-17 0 -35 9l8 36q12 -4 23 -4q16 0 16 19z" />
    <glyph glyph-name="Ldot" unicode="&#x13f;" horiz-adv-x="1972" 
d="M246 57h1685v-57h-1747v1397h62v-1340zM1174 885v-258h-62v258h62z" />
    <glyph glyph-name="ldot" unicode="&#x140;" 
d="M246 1536v-1536h-62v1536h62zM465 805v-227h-62v227h62z" />
    <glyph glyph-name="Lslash" unicode="&#x141;" horiz-adv-x="2091" 
d="M365 57h1685v-57h-1747v522l-283 -127v68l283 127v807h62v-779l872 396v-68l-872 -395v-494z" />
    <glyph glyph-name="lslash" unicode="&#x142;" horiz-adv-x="559" 
d="M250 647l-230 -104v63l230 105v825h61v-797l228 103v-64l-228 -102v-676h-61v647z" />
    <glyph glyph-name="Nacute" unicode="&#x143;" horiz-adv-x="2199" 
d="M1315 1745h102l-311 -240h-78zM246 0h-62v1397h76l1694 -1334v1334h61v-1397h-80l-1689 1333v-1333z" />
    <glyph glyph-name="nacute" unicode="&#x144;" horiz-adv-x="1783" 
d="M1153 1458h102l-311 -239h-78zM184 0v1006h52l8 -164q417 184 778 184q588 0 588 -494v-532h-62v545q0 101 -28 176.5t-90 132.5t-168.5 86t-255.5 29q-160 0 -360.5 -49t-399.5 -140v-780h-62z" />
    <glyph glyph-name="Ncommaaccent" unicode="&#x145;" horiz-adv-x="2199" 
d="M246 0h-62v1397h76l1694 -1334v1334h61v-1397h-80l-1689 1333v-1333zM1055 -129h92l-189 -240h-67z" />
    <glyph glyph-name="ncommaaccent" unicode="&#x146;" horiz-adv-x="1783" 
d="M184 0v1006h52l8 -164q417 184 778 184q588 0 588 -494v-532h-62v545q0 101 -28 176.5t-90 132.5t-168.5 86t-255.5 29q-160 0 -360.5 -49t-399.5 -140v-780h-62zM934 -129h92l-188 -240h-68z" />
    <glyph glyph-name="Ncaron" unicode="&#x147;" horiz-adv-x="2199" 
d="M1415 1745l-319 -240h-72l-319 240h88l268 -191l266 191h88zM246 0h-62v1397h76l1694 -1334v1334h61v-1397h-80l-1689 1333v-1333z" />
    <glyph glyph-name="ncaron" unicode="&#x148;" horiz-adv-x="1783" 
d="M1253 1458l-319 -239h-72l-319 239h88l268 -190l266 190h88zM184 0v1006h52l8 -164q417 184 778 184q588 0 588 -494v-532h-62v545q0 101 -28 176.5t-90 132.5t-168.5 86t-255.5 29q-160 0 -360.5 -49t-399.5 -140v-780h-62z" />
    <glyph glyph-name="Omacron" unicode="&#x14c;" horiz-adv-x="2387" 
d="M1530 1604h-664v59h664v-59zM1194 -20q-536 0 -793.5 171.5t-257.5 546.5t258 547t793 172t793 -172t258 -547t-257.5 -546.5t-793.5 -171.5zM1194 39q269 0 458.5 40.5t306.5 124.5t170.5 205t53.5 289t-53.5 289t-170.5 205.5t-306.5 125t-458.5 40.5t-458.5 -40.5
t-306.5 -125t-170.5 -205.5t-53.5 -289t53.5 -289t170.5 -205t306.5 -124.5t458.5 -40.5z" />
    <glyph glyph-name="omacron" unicode="&#x14d;" horiz-adv-x="1945" 
d="M1305 1296h-664v60h664v-60zM143 502q0 273 199.5 398.5t630.5 125.5t630 -125.5t199 -398.5q0 -271 -199.5 -396.5t-629.5 -125.5t-630 125.5t-200 396.5zM205 502q0 -247 179.5 -356t588.5 -109t588.5 109t179.5 356q0 248 -180 357.5t-588 109.5t-588 -109.5
t-180 -357.5z" />
    <glyph glyph-name="Obreve" unicode="&#x14e;" horiz-adv-x="2387" 
d="M1442 1735h61q0 -104 -75 -170t-234 -66t-235 66t-76 170h61q0 -86 55 -132.5t195 -46.5t194 46.5t54 132.5zM1194 -20q-536 0 -793.5 171.5t-257.5 546.5t258 547t793 172t793 -172t258 -547t-257.5 -546.5t-793.5 -171.5zM1194 39q269 0 458.5 40.5t306.5 124.5
t170.5 205t53.5 289t-53.5 289t-170.5 205.5t-306.5 125t-458.5 40.5t-458.5 -40.5t-306.5 -125t-170.5 -205.5t-53.5 -289t53.5 -289t170.5 -205t306.5 -124.5t458.5 -40.5z" />
    <glyph glyph-name="obreve" unicode="&#x14f;" horiz-adv-x="1945" 
d="M1223 1448h61q0 -104 -75 -170t-234 -66t-235 66t-76 170h61q0 -86 55 -132t195 -46t194 46t54 132zM143 502q0 273 199.5 398.5t630.5 125.5t630 -125.5t199 -398.5q0 -271 -199.5 -396.5t-629.5 -125.5t-630 125.5t-200 396.5zM205 502q0 -247 179.5 -356t588.5 -109
t588.5 109t179.5 356q0 248 -180 357.5t-588 109.5t-588 -109.5t-180 -357.5z" />
    <glyph glyph-name="Ohungarumlaut" unicode="&#x150;" horiz-adv-x="2387" 
d="M1194 1745h94l-256 -240h-69zM1542 1745h94l-256 -240h-69zM1194 -20q-536 0 -793.5 171.5t-257.5 546.5t258 547t793 172t793 -172t258 -547t-257.5 -546.5t-793.5 -171.5zM1194 39q269 0 458.5 40.5t306.5 124.5t170.5 205t53.5 289t-53.5 289t-170.5 205.5t-306.5 125
t-458.5 40.5t-458.5 -40.5t-306.5 -125t-170.5 -205.5t-53.5 -289t53.5 -289t170.5 -205t306.5 -124.5t458.5 -40.5z" />
    <glyph glyph-name="ohungarumlaut" unicode="&#x151;" horiz-adv-x="1945" 
d="M991 1458h94l-256 -239h-69zM1339 1458h95l-256 -239h-70zM143 502q0 273 199.5 398.5t630.5 125.5t630 -125.5t199 -398.5q0 -271 -199.5 -396.5t-629.5 -125.5t-630 125.5t-200 396.5zM205 502q0 -247 179.5 -356t588.5 -109t588.5 109t179.5 356q0 248 -180 357.5
t-588 109.5t-588 -109.5t-180 -357.5z" />
    <glyph glyph-name="OE" unicode="&#x152;" horiz-adv-x="3657" 
d="M143 698q0 375 258 547t793 172q194 0 340 -20h1960v-58h-1702q217 -72 329 -218t122 -373h1210v-58h-1208q-1 -245 -113.5 -401.5t-339.5 -231.5h1702v-57h-1960q-146 -20 -340 -20q-536 0 -793.5 171.5t-257.5 546.5zM205 698q0 -168 53.5 -289t170.5 -205
t306.5 -124.5t458.5 -40.5t458.5 40.5t306.5 124.5t170.5 205t53.5 289t-53.5 289t-170.5 205.5t-306.5 125t-458.5 40.5t-458.5 -40.5t-306.5 -125t-170.5 -205.5t-53.5 -289z" />
    <glyph glyph-name="oe" unicode="&#x153;" horiz-adv-x="3416" 
d="M143 502q0 273 199.5 398.5t630.5 125.5q346 0 541 -80t258 -250q32 90 98.5 154.5t163.5 102.5t215 55.5t266 17.5q112 0 206 -10t181 -32.5t153.5 -60.5t116 -92t75.5 -130t26 -171q0 -33 -6 -57h-1465q5 -103 41.5 -179.5t97.5 -125.5t156 -78.5t205 -41t256 -11.5
q188 0 376 28t273 54l15 -60q-122 -32 -302.5 -55.5t-361.5 -23.5q-338 0 -531 74t-255 253q-64 -168 -259 -247.5t-540 -79.5q-430 0 -630 125.5t-200 396.5zM205 502q0 -247 179.5 -356t588.5 -109t588.5 109t179.5 356q0 248 -180 357.5t-588 109.5t-588 -109.5
t-180 -357.5zM2513 969q-345 0 -523 -101t-188 -338h1413q-4 89 -28.5 157t-75.5 122t-131 89t-196.5 53t-270.5 18z" />
    <glyph glyph-name="Racute" unicode="&#x154;" horiz-adv-x="2119" 
d="M1204 1745h103l-312 -240h-77zM246 0h-62v1397h1278q252 0 368 -104t116 -318t-116 -318t-368 -104h-229l141 -111l522 -442h-88l-655 553h-907v-553zM246 1339v-729h1227q219 0 315 85.5t96 279.5t-96 279t-315 85h-1227z" />
    <glyph glyph-name="racute" unicode="&#x155;" horiz-adv-x="1153" 
d="M913 1458h103l-311 -239h-78zM184 0v1006h52l8 -252q181 129 373.5 200.5t416.5 71.5v-57q-394 0 -788 -277v-692h-62z" />
    <glyph glyph-name="Rcommaaccent" unicode="&#x156;" horiz-adv-x="2119" 
d="M246 0h-62v1397h1278q252 0 368 -104t116 -318t-116 -318t-368 -104h-229l141 -111l522 -442h-88l-655 553h-907v-553zM246 1339v-729h1227q219 0 315 85.5t96 279.5t-96 279t-315 85h-1227zM918 -129h92l-189 -240h-67z" />
    <glyph glyph-name="rcommaaccent" unicode="&#x157;" horiz-adv-x="1153" 
d="M184 0v1006h52l8 -252q181 129 373.5 200.5t416.5 71.5v-57q-394 0 -788 -277v-692h-62zM162 -129h92l-188 -240h-68z" />
    <glyph glyph-name="Rcaron" unicode="&#x158;" horiz-adv-x="2119" 
d="M1305 1745l-320 -240h-72l-319 240h88l268 -191l267 191h88zM246 0h-62v1397h1278q252 0 368 -104t116 -318t-116 -318t-368 -104h-229l141 -111l522 -442h-88l-655 553h-907v-553zM246 1339v-729h1227q219 0 315 85.5t96 279.5t-96 279t-315 85h-1227z" />
    <glyph glyph-name="rcaron" unicode="&#x159;" horiz-adv-x="1153" 
d="M1014 1458l-320 -239h-71l-320 239h88l268 -190l267 190h88zM184 0v1006h52l8 -252q181 129 373.5 200.5t416.5 71.5v-57q-394 0 -788 -277v-692h-62z" />
    <glyph glyph-name="Sacute" unicode="&#x15a;" horiz-adv-x="2035" 
d="M1235 1745h102l-311 -240h-78zM1892 340q0 -135 -72.5 -211t-253 -112.5t-507.5 -36.5q-211 0 -466 25t-429 61l10 57q175 -35 440 -60.5t445 -25.5q195 0 330 11.5t222 33t135.5 60t66.5 84.5t18 114t-17 117t-45.5 79.5t-81 51.5t-106 32t-139.5 21l-824 96
q-67 8 -112.5 15t-100 20t-89.5 28t-71 39.5t-56 55.5t-33 74t-13 96q0 132 72.5 207t244.5 110t480 35q211 0 466 -25t429 -61l-10 -57q-175 35 -440 60.5t-445 25.5q-227 0 -370.5 -16t-224.5 -54t-110.5 -90t-29.5 -135q0 -59 19 -102.5t50 -70.5t87 -46.5t112 -30
t143 -20.5l791 -93q75 -9 114.5 -14.5t100 -18.5t92.5 -28.5t72 -42t59 -61t33 -84.5t14 -113z" />
    <glyph glyph-name="sacute" unicode="&#x15b;" horiz-adv-x="1634" 
d="M1073 1458h103l-312 -239h-78zM1491 242q0 -102 -55 -157.5t-187.5 -80t-378.5 -24.5q-363 0 -704 57l10 55q350 -55 649 -55q123 0 207.5 3t156 12t114.5 23t73 37.5t42 54.5t12 75q0 43 -11.5 75t-40 55t-63.5 38.5t-94 27t-119.5 18t-151.5 13.5l-420 31
q-75 6 -125 13t-104 24t-85.5 43.5t-52 71t-20.5 106.5q0 65 27 112t78 77t136.5 47.5t188.5 24.5t248 7q292 0 582 -43l-10 -55q-323 41 -574 41q-348 0 -481 -42.5t-133 -168.5q0 -41 10.5 -71.5t34 -51.5t49.5 -34.5t68.5 -22t78.5 -13t91 -8.5l462 -35q107 -8 181 -19
t136.5 -31t99 -50t56 -74.5t19.5 -105.5z" />
    <glyph glyph-name="Scircumflex" unicode="&#x15c;" horiz-adv-x="2035" 
d="M1333 1505h-88l-266 191l-268 -191h-88l319 240h72zM1892 340q0 -135 -72.5 -211t-253 -112.5t-507.5 -36.5q-211 0 -466 25t-429 61l10 57q175 -35 440 -60.5t445 -25.5q195 0 330 11.5t222 33t135.5 60t66.5 84.5t18 114t-17 117t-45.5 79.5t-81 51.5t-106 32
t-139.5 21l-824 96q-67 8 -112.5 15t-100 20t-89.5 28t-71 39.5t-56 55.5t-33 74t-13 96q0 132 72.5 207t244.5 110t480 35q211 0 466 -25t429 -61l-10 -57q-175 35 -440 60.5t-445 25.5q-227 0 -370.5 -16t-224.5 -54t-110.5 -90t-29.5 -135q0 -59 19 -102.5t50 -70.5
t87 -46.5t112 -30t143 -20.5l791 -93q75 -9 114.5 -14.5t100 -18.5t92.5 -28.5t72 -42t59 -61t33 -84.5t14 -113z" />
    <glyph glyph-name="scircumflex" unicode="&#x15d;" horiz-adv-x="1634" 
d="M1174 1219h-89l-266 190l-268 -190h-88l319 239h72zM1491 242q0 -102 -55 -157.5t-187.5 -80t-378.5 -24.5q-363 0 -704 57l10 55q350 -55 649 -55q123 0 207.5 3t156 12t114.5 23t73 37.5t42 54.5t12 75q0 43 -11.5 75t-40 55t-63.5 38.5t-94 27t-119.5 18t-151.5 13.5
l-420 31q-75 6 -125 13t-104 24t-85.5 43.5t-52 71t-20.5 106.5q0 65 27 112t78 77t136.5 47.5t188.5 24.5t248 7q292 0 582 -43l-10 -55q-323 41 -574 41q-348 0 -481 -42.5t-133 -168.5q0 -41 10.5 -71.5t34 -51.5t49.5 -34.5t68.5 -22t78.5 -13t91 -8.5l462 -35
q107 -8 181 -19t136.5 -31t99 -50t56 -74.5t19.5 -105.5z" />
    <glyph glyph-name="Scedilla" unicode="&#x15e;" horiz-adv-x="2035" 
d="M1892 340q0 -135 -72.5 -211t-253 -112.5t-507.5 -36.5q-211 0 -466 25t-429 61l10 57q175 -35 440 -60.5t445 -25.5q195 0 330 11.5t222 33t135.5 60t66.5 84.5t18 114t-17 117t-45.5 79.5t-81 51.5t-106 32t-139.5 21l-824 96q-67 8 -112.5 15t-100 20t-89.5 28
t-71 39.5t-56 55.5t-33 74t-13 96q0 132 72.5 207t244.5 110t480 35q211 0 466 -25t429 -61l-10 -57q-175 35 -440 60.5t-445 25.5q-227 0 -370.5 -16t-224.5 -54t-110.5 -90t-29.5 -135q0 -59 19 -102.5t50 -70.5t87 -46.5t112 -30t143 -20.5l791 -93q75 -9 114.5 -14.5
t100 -18.5t92.5 -28.5t72 -42t59 -61t33 -84.5t14 -113zM999 -123h62v-57q0 -101 -55 -150t-185 -49q-78 0 -166 19l13 57q86 -19 161 -19q92 0 131 32t39 108v59z" />
    <glyph glyph-name="scedilla" unicode="&#x15f;" horiz-adv-x="1634" 
d="M1491 242q0 -102 -55 -157.5t-187.5 -80t-378.5 -24.5q-363 0 -704 57l10 55q350 -55 649 -55q123 0 207.5 3t156 12t114.5 23t73 37.5t42 54.5t12 75q0 43 -11.5 75t-40 55t-63.5 38.5t-94 27t-119.5 18t-151.5 13.5l-420 31q-75 6 -125 13t-104 24t-85.5 43.5t-52 71
t-20.5 106.5q0 65 27 112t78 77t136.5 47.5t188.5 24.5t248 7q292 0 582 -43l-10 -55q-323 41 -574 41q-348 0 -481 -42.5t-133 -168.5q0 -41 10.5 -71.5t34 -51.5t49.5 -34.5t68.5 -22t78.5 -13t91 -8.5l462 -35q107 -8 181 -19t136.5 -31t99 -50t56 -74.5t19.5 -105.5z
M958 -102h62v-58q0 -101 -54.5 -149.5t-185.5 -48.5q-83 0 -166 18l13 57q81 -18 161 -18q93 0 131.5 31.5t38.5 107.5v60z" />
    <glyph glyph-name="Scaron" unicode="&#x160;" horiz-adv-x="2035" 
d="M1335 1745l-319 -240h-72l-319 240h88l268 -191l266 191h88zM1892 340q0 -135 -72.5 -211t-253 -112.5t-507.5 -36.5q-211 0 -466 25t-429 61l10 57q175 -35 440 -60.5t445 -25.5q195 0 330 11.5t222 33t135.5 60t66.5 84.5t18 114t-17 117t-45.5 79.5t-81 51.5t-106 32
t-139.5 21l-824 96q-67 8 -112.5 15t-100 20t-89.5 28t-71 39.5t-56 55.5t-33 74t-13 96q0 132 72.5 207t244.5 110t480 35q211 0 466 -25t429 -61l-10 -57q-175 35 -440 60.5t-445 25.5q-227 0 -370.5 -16t-224.5 -54t-110.5 -90t-29.5 -135q0 -59 19 -102.5t50 -70.5
t87 -46.5t112 -30t143 -20.5l791 -93q75 -9 114.5 -14.5t100 -18.5t92.5 -28.5t72 -42t59 -61t33 -84.5t14 -113z" />
    <glyph glyph-name="scaron" unicode="&#x161;" horiz-adv-x="1634" 
d="M1174 1458l-320 -239h-72l-319 239h88l268 -190l266 190h89zM1491 242q0 -102 -55 -157.5t-187.5 -80t-378.5 -24.5q-363 0 -704 57l10 55q350 -55 649 -55q123 0 207.5 3t156 12t114.5 23t73 37.5t42 54.5t12 75q0 43 -11.5 75t-40 55t-63.5 38.5t-94 27t-119.5 18
t-151.5 13.5l-420 31q-75 6 -125 13t-104 24t-85.5 43.5t-52 71t-20.5 106.5q0 65 27 112t78 77t136.5 47.5t188.5 24.5t248 7q292 0 582 -43l-10 -55q-323 41 -574 41q-348 0 -481 -42.5t-133 -168.5q0 -41 10.5 -71.5t34 -51.5t49.5 -34.5t68.5 -22t78.5 -13t91 -8.5
l462 -35q107 -8 181 -19t136.5 -31t99 -50t56 -74.5t19.5 -105.5z" />
    <glyph glyph-name="Tcedilla" unicode="&#x162;" horiz-adv-x="1982" 
d="M961 1339h-859v58h1778v-58h-858v-1339h-61v1339zM965 -102h61v-58q0 -101 -54.5 -149.5t-185.5 -48.5q-82 0 -165 18l12 57q81 -18 162 -18q93 0 131.5 31.5t38.5 107.5v60z" />
    <glyph glyph-name="tcedilla" unicode="&#x163;" horiz-adv-x="1429" 
d="M324 526v422h-283v58h283l10 254h51v-254h920v-58h-920v-428q0 -137 22.5 -225t79 -148t150.5 -85t240 -25q218 0 456 59l15 -55q-246 -61 -471 -61q-160 0 -265 29t-169.5 96t-91.5 167.5t-27 253.5zM866 -102h62v-58q0 -101 -54.5 -149.5t-185.5 -48.5q-83 0 -166 18
l13 57q81 -18 161 -18q93 0 131.5 31.5t38.5 107.5v60z" />
    <glyph glyph-name="Tcaron" unicode="&#x164;" horiz-adv-x="1982" 
d="M1348 1745l-320 -240h-72l-319 240h88l268 -191l267 191h88zM961 1339h-859v58h1778v-58h-858v-1339h-61v1339z" />
    <glyph glyph-name="tcaron" unicode="&#x165;" horiz-adv-x="1429" 
d="M723 1270v49h-25v217h62v-276q0 -50 -49 -50q-17 0 -35 9l8 36q12 -4 23 -4q16 0 16 19zM324 526v422h-283v58h283l10 254h51v-254h920v-58h-920v-428q0 -137 22.5 -225t79 -148t150.5 -85t240 -25q218 0 456 59l15 -55q-246 -61 -471 -61q-160 0 -265 29t-169.5 96
t-91.5 167.5t-27 253.5z" />
    <glyph glyph-name="Tbar" unicode="&#x166;" horiz-adv-x="1982" 
d="M961 1339h-859v58h1778v-58h-858v-622h553v-58h-553v-659h-61v659h-551v58h551v622z" />
    <glyph glyph-name="tbar" unicode="&#x167;" horiz-adv-x="1521" 
d="M1356 496h-920q2 -129 26 -213t81 -141t149.5 -81t235.5 -24q218 0 456 59l15 -55q-246 -61 -471 -61q-156 0 -259.5 27.5t-168.5 90.5t-93.5 158.5t-31.5 239.5h-283v57h283v395h-283v58h283l10 254h51v-254h920v-58h-920v-395h920v-57z" />
    <glyph glyph-name="Utilde" unicode="&#x168;" horiz-adv-x="2170" 
d="M750 1520v57q79 68 172 68q76 0 193.5 -31t162.5 -31q41 0 73.5 13t73.5 40v-57q-67 -53 -143 -53q-49 0 -172.5 32.5t-183.5 32.5q-84 0 -176 -71zM1946 715v682h61v-682q0 -362 -239 -548.5t-683 -186.5q-443 0 -682 186t-239 549v682h61v-682q0 -678 860 -678
q861 0 861 678z" />
    <glyph glyph-name="utilde" unicode="&#x169;" horiz-adv-x="1804" 
d="M651 1233v57q79 68 172 68q76 0 194 -31t163 -31q41 0 73 13.5t74 40.5v-58q-67 -53 -143 -53q-49 0 -173 33t-184 33q-83 0 -176 -72zM174 473v533h62v-545q0 -101 29.5 -176.5t94 -132.5t175 -86t264.5 -29q145 0 352.5 53t407.5 146v770h61v-1006h-51l-10 174
q-443 -194 -777 -194q-608 0 -608 493z" />
    <glyph glyph-name="Umacron" unicode="&#x16a;" horiz-adv-x="2170" 
d="M1419 1604h-663v59h663v-59zM1946 715v682h61v-682q0 -362 -239 -548.5t-683 -186.5q-443 0 -682 186t-239 549v682h61v-682q0 -678 860 -678q861 0 861 678z" />
    <glyph glyph-name="umacron" unicode="&#x16b;" horiz-adv-x="1804" 
d="M1311 1317h-664v59h664v-59zM174 473v533h62v-545q0 -101 29.5 -176.5t94 -132.5t175 -86t264.5 -29q145 0 352.5 53t407.5 146v770h61v-1006h-51l-10 174q-443 -194 -777 -194q-608 0 -608 493z" />
    <glyph glyph-name="Ubreve" unicode="&#x16c;" horiz-adv-x="2170" 
d="M1331 1735h62q0 -104 -75.5 -170t-234.5 -66t-235 66t-76 170h62q0 -86 54.5 -132.5t194.5 -46.5t194 46.5t54 132.5zM1946 715v682h61v-682q0 -362 -239 -548.5t-683 -186.5q-443 0 -682 186t-239 549v682h61v-682q0 -678 860 -678q861 0 861 678z" />
    <glyph glyph-name="ubreve" unicode="&#x16d;" horiz-adv-x="1804" 
d="M1229 1448h61q0 -104 -75 -170t-234 -66t-235 66t-76 170h61q0 -86 55 -132t195 -46t194 46t54 132zM174 473v533h62v-545q0 -101 29.5 -176.5t94 -132.5t175 -86t264.5 -29q145 0 352.5 53t407.5 146v770h61v-1006h-51l-10 174q-443 -194 -777 -194q-608 0 -608 493z
" />
    <glyph glyph-name="Uring" unicode="&#x16e;" horiz-adv-x="2170" 
d="M1083 1493q-260 0 -260 186q0 179 260 179q258 0 258 -179q0 -186 -258 -186zM885 1679q0 -66 43.5 -97.5t154.5 -31.5t154 31.5t43 97.5q0 62 -43 91.5t-154 29.5t-154.5 -29.5t-43.5 -91.5zM1946 715v682h61v-682q0 -362 -239 -548.5t-683 -186.5q-443 0 -682 186
t-239 549v682h61v-682q0 -678 860 -678q861 0 861 678z" />
    <glyph glyph-name="uring" unicode="&#x16f;" horiz-adv-x="1804" 
d="M981 1196q-260 0 -260 186q0 179 260 179q258 0 258 -179q0 -186 -258 -186zM782 1382q0 -66 44 -97.5t155 -31.5t154 31.5t43 97.5q0 62 -43 91.5t-154 29.5t-155 -29.5t-44 -91.5zM174 473v533h62v-545q0 -101 29.5 -176.5t94 -132.5t175 -86t264.5 -29q145 0 352.5 53
t407.5 146v770h61v-1006h-51l-10 174q-443 -194 -777 -194q-608 0 -608 493z" />
    <glyph glyph-name="Uhungarumlaut" unicode="&#x170;" horiz-adv-x="2170" 
d="M1083 1745h95l-256 -240h-70zM1432 1745h94l-256 -240h-70zM1946 715v682h61v-682q0 -362 -239 -548.5t-683 -186.5q-443 0 -682 186t-239 549v682h61v-682q0 -678 860 -678q861 0 861 678z" />
    <glyph glyph-name="uhungarumlaut" unicode="&#x171;" horiz-adv-x="1804" 
d="M997 1458h95l-256 -239h-70zM1346 1458h94l-256 -239h-70zM174 473v533h62v-545q0 -101 29.5 -176.5t94 -132.5t175 -86t264.5 -29q145 0 352.5 53t407.5 146v770h61v-1006h-51l-10 174q-443 -194 -777 -194q-608 0 -608 493z" />
    <glyph glyph-name="Uogonek" unicode="&#x172;" horiz-adv-x="2170" 
d="M1946 715v682h61v-682q0 -304 -168 -483.5t-487 -231.5q-133 -64 -207 -122t-74 -122q0 -65 96 -65q91 0 213 51l23 -49q-117 -60 -236 -60q-74 0 -115.5 30t-41.5 89q0 70 69.5 132t175.5 104q-71 -8 -170 -8q-443 0 -682 186t-239 549v682h61v-682q0 -678 860 -678
q861 0 861 678z" />
    <glyph glyph-name="uogonek" unicode="&#x173;" horiz-adv-x="1804" 
d="M174 473v533h62v-545q0 -101 29.5 -176.5t94 -132.5t175 -86t264.5 -29q145 0 352.5 53t407.5 146v770h61v-1006q-86 -41 -143 -75t-98.5 -79t-41.5 -90q0 -65 97 -65q91 0 213 51l22 -49q-117 -60 -235 -60q-74 0 -116 30t-42 89q0 76 89 146t204 108l-10 168
q-443 -194 -777 -194q-608 0 -608 493z" />
    <glyph glyph-name="Wcircumflex" unicode="&#x174;" horiz-adv-x="3377" 
d="M2042 1505h-88l-266 191l-269 -191h-88l320 240h71zM825 0l-753 1397h67l723 -1340l783 1340h88l782 -1340l723 1340h67l-753 -1397h-70l-792 1354l-793 -1354h-72z" />
    <glyph glyph-name="wcircumflex" unicode="&#x175;" horiz-adv-x="2521" 
d="M1616 1219h-88l-266 190l-269 -190h-88l320 239h71zM1217 1006h79l641 -934l490 934h67l-526 -1006h-53l-660 958l-659 -958h-51l-525 1006h68l487 -934z" />
    <glyph glyph-name="Ycircumflex" unicode="&#x176;" horiz-adv-x="1953" 
d="M1331 1505h-88l-266 191l-268 -191h-88l319 240h72zM946 590l-936 807h90l877 -752l876 752h91l-936 -807v-590h-62v590z" />
    <glyph glyph-name="ycircumflex" unicode="&#x177;" horiz-adv-x="1820" 
d="M1245 1219h-88l-266 190l-268 -190h-88l319 239h72zM174 518v488h62v-484q0 -216 136 -312.5t427 -96.5q227 0 418.5 52.5t388.5 145.5v695h61v-877q0 -150 -42 -248.5t-137.5 -159t-237.5 -85.5t-355 -25q-171 0 -345 24.5t-308 65.5l18 59q329 -92 635 -92
q200 0 332 21.5t218.5 74t123.5 136t37 211.5v141q-177 -90 -388 -143.5t-425 -53.5q-315 0 -467 114t-152 349z" />
    <glyph glyph-name="Ydieresis" unicode="&#x178;" horiz-adv-x="1953" 
d="M803 1733v-228h-62v228h62zM1212 1733v-228h-61v228h61zM946 590l-936 807h90l877 -752l876 752h91l-936 -807v-590h-62v590z" />
    <glyph glyph-name="Zacute" unicode="&#x179;" horiz-adv-x="2207" 
d="M1360 1745h102l-311 -240h-78zM2023 57v-57h-1839v59l1508 1055q41 28 123.5 82.5t123.5 81.5h-1714v57h1798v-59l-1495 -1047l-258 -172h1753z" />
    <glyph glyph-name="zacute" unicode="&#x17a;" horiz-adv-x="1714" 
d="M1112 1458h102l-311 -239h-78zM1591 57v-57h-1468v57l893 584q272 177 483 307h-1356v58h1448v-58l-858 -561q-250 -164 -518 -330h1376z" />
    <glyph glyph-name="Zdotaccent" unicode="&#x17b;" horiz-adv-x="2207" 
d="M1135 1786v-227h-62v227h62zM2023 57v-57h-1839v59l1508 1055q41 28 123.5 82.5t123.5 81.5h-1714v57h1798v-59l-1495 -1047l-258 -172h1753z" />
    <glyph glyph-name="zdotaccent" unicode="&#x17c;" horiz-adv-x="1714" 
d="M887 1397v-228h-62v228h62zM1591 57v-57h-1468v57l893 584q272 177 483 307h-1356v58h1448v-58l-858 -561q-250 -164 -518 -330h1376z" />
    <glyph glyph-name="Zcaron" unicode="&#x17d;" horiz-adv-x="2207" 
d="M1460 1745l-319 -240h-72l-319 240h88l268 -191l266 191h88zM2023 57v-57h-1839v59l1508 1055q41 28 123.5 82.5t123.5 81.5h-1714v57h1798v-59l-1495 -1047l-258 -172h1753z" />
    <glyph glyph-name="zcaron" unicode="&#x17e;" horiz-adv-x="1714" 
d="M1212 1458l-319 -239h-72l-319 239h88l268 -190l266 190h88zM1591 57v-57h-1468v57l893 584q272 177 483 307h-1356v58h1448v-58l-858 -561q-250 -164 -518 -330h1376z" />
    <glyph glyph-name="florin" unicode="&#x192;" horiz-adv-x="1748" 
d="M770 88l107 612h-574l10 58h574l57 325q43 248 198 360.5t462 112.5q215 0 405 -38l-20 -56q-167 37 -396 37q-276 0 -412 -99t-175 -319l-58 -323h697l-11 -58h-696l-107 -614q-41 -234 -204.5 -353.5t-474.5 -119.5q-172 0 -385 39l20 55q181 -37 375 -37
q189 0 318 50.5t197.5 141t92.5 226.5z" />
    <glyph glyph-name="AEacute" unicode="&#x1fc;" horiz-adv-x="3534" 
d="M2050 1745h102l-311 -240h-78zM115 0h-95l1663 1397h1688v-58h-1604v-591h1563v-58h-1563v-633h1604v-57h-1665v373h-1147zM1706 1331l-1077 -901h1077v901z" />
    <glyph glyph-name="aeacute" unicode="&#x1fd;" horiz-adv-x="3229" 
d="M1862 1438h102l-311 -240h-78zM2372 37q188 0 376 28t273 54l14 -60q-122 -32 -302 -55.5t-361 -23.5q-328 0 -520 69.5t-261 237.5q-191 -130 -446.5 -218.5t-515.5 -88.5q-227 0 -336 65.5t-109 212.5q0 145 108 209.5t367 64.5h895q-1 77 -12 134t-38 108.5
t-73.5 85.5t-117 59.5t-170.5 37.5t-232 12q-290 0 -637 -99l-18 60q141 44 316 70t337 26q322 0 479.5 -74.5t202.5 -236.5q69 165 256.5 238t481.5 73q135 0 244.5 -14t207 -49t163.5 -90.5t104 -142.5t38 -200q0 -33 -6 -57h-1464q5 -103 41.5 -179.5t97.5 -125.5
t156 -78.5t205 -41t256 -11.5zM2327 969q-345 0 -523 -101t-188 -338h1413q-4 89 -28.5 157t-75.5 122t-131 89t-196.5 53t-270.5 18zM629 37q265 0 521 88.5t425 214.5q-18 62 -21 135h-852q-96 0 -162.5 -4.5t-125.5 -18t-93.5 -37.5t-54.5 -63t-20 -94q0 -124 90 -172.5
t293 -48.5z" />
    <glyph glyph-name="Scommaaccent" unicode="&#x218;" horiz-adv-x="2035" 
d="M1892 340q0 -135 -72.5 -211t-253 -112.5t-507.5 -36.5q-211 0 -466 25t-429 61l10 57q175 -35 440 -60.5t445 -25.5q195 0 330 11.5t222 33t135.5 60t66.5 84.5t18 114t-17 117t-45.5 79.5t-81 51.5t-106 32t-139.5 21l-824 96q-67 8 -112.5 15t-100 20t-89.5 28
t-71 39.5t-56 55.5t-33 74t-13 96q0 132 72.5 207t244.5 110t480 35q211 0 466 -25t429 -61l-10 -57q-175 35 -440 60.5t-445 25.5q-227 0 -370.5 -16t-224.5 -54t-110.5 -90t-29.5 -135q0 -59 19 -102.5t50 -70.5t87 -46.5t112 -30t143 -20.5l791 -93q75 -9 114.5 -14.5
t100 -18.5t92.5 -28.5t72 -42t59 -61t33 -84.5t14 -113zM1018 -150h92l-188 -239h-68z" />
    <glyph glyph-name="scommaaccent" unicode="&#x219;" horiz-adv-x="1634" 
d="M1491 242q0 -102 -55 -157.5t-187.5 -80t-378.5 -24.5q-363 0 -704 57l10 55q350 -55 649 -55q123 0 207.5 3t156 12t114.5 23t73 37.5t42 54.5t12 75q0 43 -11.5 75t-40 55t-63.5 38.5t-94 27t-119.5 18t-151.5 13.5l-420 31q-75 6 -125 13t-104 24t-85.5 43.5t-52 71
t-20.5 106.5q0 65 27 112t78 77t136.5 47.5t188.5 24.5t248 7q292 0 582 -43l-10 -55q-323 41 -574 41q-348 0 -481 -42.5t-133 -168.5q0 -41 10.5 -71.5t34 -51.5t49.5 -34.5t68.5 -22t78.5 -13t91 -8.5l462 -35q107 -8 181 -19t136.5 -31t99 -50t56 -74.5t19.5 -105.5z
M772 -129h92l-188 -240h-68z" />
    <glyph glyph-name="Tcommaaccent" unicode="&#x21a;" horiz-adv-x="1982" 
d="M961 1339h-859v58h1778v-58h-858v-1339h-61v1339zM983 -129h92l-188 -240h-68z" />
    <glyph glyph-name="tcommaaccent" unicode="&#x21b;" horiz-adv-x="1429" 
d="M324 526v422h-283v58h283l10 254h51v-254h920v-58h-920v-428q0 -137 22.5 -225t79 -148t150.5 -85t240 -25q218 0 456 59l15 -55q-246 -61 -471 -61q-160 0 -265 29t-169.5 96t-91.5 167.5t-27 253.5zM774 -129h92l-188 -240h-68z" />
    <glyph glyph-name="dotlessj" unicode="&#x237;" 
d="M66 -369h-80q47 60 76 103.5t60.5 106.5t46.5 134.5t15 155.5v875h62v-877q0 -89 -14 -163t-43 -136t-55 -102.5t-68 -96.5z" />
    <glyph glyph-name="circumflex" unicode="&#x2c6;" horiz-adv-x="1024" 
d="M866 1219h-88l-266 190l-268 -190h-88l319 239h72z" />
    <glyph glyph-name="caron" unicode="&#x2c7;" horiz-adv-x="1024" 
d="M866 1458l-319 -239h-72l-319 239h88l268 -190l266 190h88z" />
    <glyph glyph-name="breve" unicode="&#x2d8;" horiz-adv-x="948" 
d="M723 1448h61q0 -104 -75 -170t-234 -66t-235 66t-76 170h61q0 -86 55 -132t195 -46t194 46t54 132z" />
    <glyph glyph-name="dotaccent" unicode="&#x2d9;" horiz-adv-x="550" 
d="M307 1397v-228h-61v228h61z" />
    <glyph glyph-name="ring" unicode="&#x2da;" horiz-adv-x="845" 
d="M424 1196q-260 0 -260 186q0 179 260 179q258 0 258 -179q0 -186 -258 -186zM225 1382q0 -66 44 -97.5t155 -31.5t154 31.5t43 97.5q0 62 -43 91.5t-154 29.5t-155 -29.5t-44 -91.5z" />
    <glyph glyph-name="ogonek" unicode="&#x2db;" horiz-adv-x="720" 
d="M463 8l45 -8q-86 -41 -143 -75t-98.5 -79t-41.5 -90q0 -65 97 -65q91 0 213 51l22 -49q-117 -60 -235 -60q-74 0 -116 30t-42 89q0 76 90 146.5t209 109.5z" />
    <glyph glyph-name="tilde" unicode="&#x2dc;" horiz-adv-x="1024" 
d="M174 1233v57q79 68 172 68q76 0 193.5 -31t162.5 -31q29 0 56.5 8.5t45.5 18t46 27.5v-58q-67 -53 -143 -53q-49 0 -173 33t-184 33q-83 0 -176 -72z" />
    <glyph glyph-name="hungarumlaut" unicode="&#x2dd;" horiz-adv-x="1001" 
d="M395 1458h94l-256 -239h-69zM743 1458h95l-256 -239h-70z" />
    <glyph glyph-name="commaaccentcomb" unicode="&#x326;" horiz-adv-x="501" 
d="M287 -129h92l-189 -240h-67z" />
    <glyph glyph-name="pi" unicode="&#x3c0;" horiz-adv-x="2396" 
d="M571 0h-61v948h-305v58h1919v-58h-303v-657q0 -130 54.5 -191t197.5 -61q45 0 108 10l10 -55q-53 -12 -112 -12q-168 0 -244 75.5t-76 235.5v655h-1188v-948z" />
    <glyph glyph-name="Wgrave" unicode="&#x1e80;" horiz-adv-x="3377" 
d="M1696 1505l-312 240h103l287 -240h-78zM825 0l-753 1397h67l723 -1340l783 1340h88l782 -1340l723 1340h67l-753 -1397h-70l-792 1354l-793 -1354h-72z" />
    <glyph glyph-name="wgrave" unicode="&#x1e81;" horiz-adv-x="2521" 
d="M1212 1219l-311 239h103l286 -239h-78zM1217 1006h79l641 -934l490 934h67l-526 -1006h-53l-660 958l-659 -958h-51l-525 1006h68l487 -934z" />
    <glyph glyph-name="Wacute" unicode="&#x1e82;" horiz-adv-x="3377" 
d="M1944 1745h102l-311 -240h-78zM825 0l-753 1397h67l723 -1340l783 1340h88l782 -1340l723 1340h67l-753 -1397h-70l-792 1354l-793 -1354h-72z" />
    <glyph glyph-name="wacute" unicode="&#x1e83;" horiz-adv-x="2521" 
d="M1516 1458h102l-311 -239h-78zM1217 1006h79l641 -934l490 934h67l-526 -1006h-53l-660 958l-659 -958h-51l-525 1006h68l487 -934z" />
    <glyph glyph-name="Wdieresis" unicode="&#x1e84;" horiz-adv-x="3377" 
d="M1513 1733v-228h-61v228h61zM1923 1733v-228h-61v228h61zM825 0l-753 1397h67l723 -1340l783 1340h88l782 -1340l723 1340h67l-753 -1397h-70l-792 1354l-793 -1354h-72z" />
    <glyph glyph-name="wdieresis" unicode="&#x1e85;" horiz-adv-x="2521" 
d="M1085 1446v-227h-61v227h61zM1495 1446v-227h-61v227h61zM1217 1006h79l641 -934l490 934h67l-526 -1006h-53l-660 958l-659 -958h-51l-525 1006h68l487 -934z" />
    <glyph glyph-name="Etilde" unicode="&#x1ebc;" horiz-adv-x="2095" 
d="M797 1520v57q79 68 172 68q76 0 193.5 -31t162.5 -31q66 0 148 53v-57q-67 -53 -144 -53q-49 0 -172.5 32.5t-183.5 32.5q-84 0 -176 -71zM1931 0h-1747v1397h1747v-58h-1685v-591h1644v-58h-1644v-633h1685v-57z" />
    <glyph glyph-name="etilde" unicode="&#x1ebd;" horiz-adv-x="1818" 
d="M580 1212v58q78 67 172 67q76 0 193.5 -30.5t162.5 -30.5q41 0 73.5 13t73.5 40v-57q-67 -53 -143 -53q-49 0 -172.5 32.5t-183.5 32.5q-83 0 -176 -72zM961 37q188 0 376 28t273 54l14 -60q-122 -32 -302 -55.5t-361 -23.5q-163 0 -287 15.5t-226.5 52t-168 96.5
t-101 150t-35.5 210q0 144 54 246.5t158.5 162t242.5 86.5t320 27q135 0 244.5 -14t207 -49t163.5 -90.5t104 -142.5t38 -200q0 -33 -6 -57h-1464q5 -103 41.5 -179.5t97.5 -125.5t156 -78.5t205 -41t256 -11.5zM915 969q-345 0 -522.5 -101t-187.5 -338h1413
q-5 112 -43 191t-119 136t-215 84.5t-326 27.5z" />
    <glyph glyph-name="Ygrave" unicode="&#x1ef2;" horiz-adv-x="1953" 
d="M985 1505l-311 240h102l287 -240h-78zM946 590l-936 807h90l877 -752l876 752h91l-936 -807v-590h-62v590z" />
    <glyph glyph-name="ygrave" unicode="&#x1ef3;" horiz-adv-x="1820" 
d="M842 1219l-312 239h103l287 -239h-78zM174 518v488h62v-484q0 -216 136 -312.5t427 -96.5q227 0 418.5 52.5t388.5 145.5v695h61v-877q0 -150 -42 -248.5t-137.5 -159t-237.5 -85.5t-355 -25q-171 0 -345 24.5t-308 65.5l18 59q329 -92 635 -92q200 0 332 21.5t218.5 74
t123.5 136t37 211.5v141q-177 -90 -388 -143.5t-425 -53.5q-315 0 -467 114t-152 349z" />
    <glyph glyph-name="Ytilde" unicode="&#x1ef8;" horiz-adv-x="1953" 
d="M641 1520v57q79 68 172 68q76 0 193.5 -31t162.5 -31q66 0 148 53v-57q-67 -53 -143 -53q-49 0 -173 32.5t-184 32.5q-84 0 -176 -71zM946 590l-936 807h90l877 -752l876 752h91l-936 -807v-590h-62v590z" />
    <glyph glyph-name="ytilde" unicode="&#x1ef9;" horiz-adv-x="1851" 
d="M551 1212v58q78 67 172 67q76 0 193.5 -30.5t162.5 -30.5q66 0 148 53v-57q-67 -53 -144 -53q-49 0 -172.5 32.5t-183.5 32.5q-83 0 -176 -72zM174 518v488h62v-484q0 -216 136 -312.5t427 -96.5q227 0 418.5 52.5t388.5 145.5v695h61v-877q0 -150 -42 -248.5
t-137.5 -159t-237.5 -85.5t-355 -25q-171 0 -345 24.5t-308 65.5l18 59q329 -92 635 -92q200 0 332 21.5t218.5 74t123.5 136t37 211.5v141q-177 -90 -388 -143.5t-425 -53.5q-315 0 -467 114t-152 349z" />
    <glyph glyph-name="endash" unicode="&#x2013;" horiz-adv-x="1269" 
d="M1147 496h-1024v57h1024v-57z" />
    <glyph glyph-name="emdash" unicode="&#x2014;" horiz-adv-x="2293" 
d="M2171 496h-2048v57h2048v-57z" />
    <glyph glyph-name="quoteleft" unicode="&#x2018;" horiz-adv-x="411" 
d="M268 1548l-8 -37q-15 5 -22 5q-17 0 -17 -19v-59h25v-258h-62v327q0 49 49 49q19 0 35 -8z" />
    <glyph glyph-name="quoteright" unicode="&#x2019;" horiz-adv-x="411" 
d="M143 1167l9 37q12 -4 22 -4q16 0 16 19v59h-24v258h61v-328q0 -49 -49 -49q-19 0 -35 8z" />
    <glyph glyph-name="quotesinglbase" unicode="&#x201a;" horiz-adv-x="411" 
d="M143 -111l9 37q12 -4 22 -4q16 0 16 19v59h-24v258h61v-328q0 -49 -49 -49q-19 0 -35 8z" />
    <glyph glyph-name="quotedblleft" unicode="&#x201c;" horiz-adv-x="677" 
d="M268 1548l-8 -37q-15 5 -22 5q-17 0 -17 -19v-59h25v-258h-62v327q0 49 49 49q19 0 35 -8zM535 1548l-9 -37q-15 5 -22 5q-17 0 -17 -19v-59h25v-258h-61v327q0 49 49 49q19 0 35 -8z" />
    <glyph glyph-name="quotedblright" unicode="&#x201d;" horiz-adv-x="677" 
d="M143 1167l9 37q12 -4 22 -4q16 0 16 19v59h-24v258h61v-328q0 -49 -49 -49q-19 0 -35 8zM410 1167l8 37q12 -4 22 -4q17 0 17 19v59h-25v258h62v-328q0 -49 -50 -49q-18 0 -34 8z" />
    <glyph glyph-name="quotedblbase" unicode="&#x201e;" horiz-adv-x="677" 
d="M143 -111l9 37q12 -4 22 -4q16 0 16 19v59h-24v258h61v-328q0 -49 -49 -49q-19 0 -35 8zM410 -111l8 37q12 -4 22 -4q17 0 17 19v59h-25v258h62v-328q0 -49 -50 -49q-18 0 -34 8z" />
    <glyph glyph-name="dagger" unicode="&#x2020;" horiz-adv-x="1746" 
d="M844 948h-680v58h680v391h61v-391h678v-58h-678v-1214h-61v1214z" />
    <glyph glyph-name="daggerdbl" unicode="&#x2021;" horiz-adv-x="1746" 
d="M844 125h-680v57h680v766h-680v58h680v391h61v-391h678v-58h-678v-766h678v-57h-678v-391h-61v391z" />
    <glyph glyph-name="bullet" unicode="&#x2022;" horiz-adv-x="894" 
d="M449 479q-114 0 -161.5 36.5t-47.5 125.5q0 83 47.5 118.5t161.5 35.5q113 0 159.5 -35t46.5 -119q0 -89 -46 -125.5t-160 -36.5z" />
    <glyph glyph-name="ellipsis" unicode="&#x2026;" horiz-adv-x="1249" 
d="M225 258v-258h-61v258h61zM655 258v-258h-61v258h61zM1085 258v-258h-61v258h61z" />
    <glyph glyph-name="perthousand" unicode="&#x2030;" horiz-adv-x="3645" 
d="M123 1087q0 164 116.5 247t344.5 83t344 -83t116 -247q0 -329 -460 -329q-228 0 -344.5 82.5t-116.5 246.5zM596 0h-84l1475 1397h81zM983 1087q0 140 -96.5 206.5t-302.5 66.5t-303 -66.5t-97 -206.5t96.5 -206t303.5 -66q206 0 302.5 66t96.5 206zM1526 309
q0 164 116.5 247t344.5 83t344 -83t116 -247q0 -329 -460 -329q-228 0 -344.5 82.5t-116.5 246.5zM2560 309q0 164 116.5 247t344.5 83t344.5 -83t116.5 -247t-116.5 -246.5t-344.5 -82.5t-344.5 82.5t-116.5 246.5zM2386 309q0 140 -96.5 206.5t-302.5 66.5t-303 -66.5
t-97 -206.5t96.5 -206t303.5 -66q206 0 302.5 66t96.5 206zM3420 309q0 140 -96.5 206.5t-302.5 66.5t-303 -66.5t-97 -206.5t96.5 -206t303.5 -66q206 0 302.5 66t96.5 206z" />
    <glyph glyph-name="guilsinglleft" unicode="&#x2039;" horiz-adv-x="1062" 
d="M899 129l-735 369v65l735 369v-64l-676 -338l676 -337v-64z" />
    <glyph glyph-name="guilsinglright" unicode="&#x203a;" horiz-adv-x="1062" 
d="M164 932l735 -369v-65l-735 -369v64l676 337l-676 338v64z" />
    <glyph glyph-name="fraction" unicode="&#x2044;" horiz-adv-x="245" 
d="M-571 0h-84l1474 1397h82z" />
    <glyph glyph-name="zero.superior" unicode="&#x2070;" horiz-adv-x="1167" 
d="M123 1087q0 164 116.5 247t344.5 83t344 -83t116 -247q0 -329 -460 -329q-228 0 -344.5 82.5t-116.5 246.5zM983 1087q0 140 -96.5 206.5t-302.5 66.5t-303 -66.5t-97 -206.5t96.5 -206t303.5 -66q206 0 302.5 66t96.5 206z" />
    <glyph glyph-name="four.superior" unicode="&#x2074;" horiz-adv-x="1183" 
d="M872 776h-61v139h-688v58l688 424h61v-424h189v-58h-189v-139zM215 971v-6q31 1 93.5 4t94.5 4h408v358l-424 -262q-48 -31 -172 -98z" />
    <glyph glyph-name="Euro" unicode="&#x20ac;" horiz-adv-x="2324" 
d="M307 698q0 58 6 111h-293v57h299q49 286 274 418.5t642 132.5q226 0 483.5 -36.5t462.5 -90.5l-14 -57q-525 125 -934 125q-271 0 -450.5 -55.5t-275 -162.5t-124.5 -274h1053v-57h-1061q-6 -53 -6 -111q0 -64 6 -123h1061v-57h-1051q47 -244 248.5 -361.5t599.5 -117.5
q389 0 934 125l14 -58q-204 -53 -462 -89.5t-484 -36.5q-412 0 -636.5 129.5t-276.5 408.5h-302v57h293q-6 59 -6 123z" />
    <glyph glyph-name="litre" unicode="&#x2113;" horiz-adv-x="1337" 
d="M776 819l-530 -217v-254q0 -173 70.5 -245t248.5 -72q124 0 281 43l16 -56q-155 -45 -297 -45q-109 0 -183.5 23.5t-117.5 73t-61.5 116.5t-18.5 162v567q0 122 41 217t114.5 154.5t172.5 90t219 30.5q167 0 253.5 -77.5t86.5 -199.5q0 -58 -20.5 -105t-62.5 -84
t-91.5 -65t-120.5 -57zM246 915v-253l504 208q133 55 196.5 112.5t63.5 147.5q0 107 -71.5 163.5t-207.5 56.5q-220 0 -352.5 -110t-132.5 -325z" />
    <glyph glyph-name="trademark" unicode="&#x2122;" horiz-adv-x="4222" 
d="M2097 662h-61v735h71l881 -688l879 688h71v-735h-61v669l-858 -669h-64l-858 669v-669zM870 1339h-743v58h1546v-58h-741v-677h-62v677z" />
    <glyph glyph-name="partialdiff" unicode="&#x2202;" horiz-adv-x="2091" 
d="M1784 692q0 117 -26.5 215.5t-86 183t-150 143.5t-224.5 92.5t-304 33.5q-151 0 -280.5 -22t-278.5 -64l-18 55q280 88 573 88q140 0 258 -21.5t204.5 -59.5t154.5 -92t112 -116t72.5 -135.5t40.5 -146.5t12 -152q0 -155 -55 -284t-163.5 -225.5t-283.5 -150.5t-401 -54
q-733 0 -733 495q0 469 690 469q140 0 278 -26.5t251 -70t201.5 -91t156.5 -99.5v35zM268 475q0 -224 169 -331t503 -107q377 0 591 148t247 413q-139 115 -385.5 202t-495.5 87q-148 0 -260 -21.5t-196.5 -69t-128.5 -128t-44 -193.5z" />
    <glyph glyph-name="product" unicode="&#x220f;" horiz-adv-x="2490" 
d="M530 0h-61v1278h-305v57h2163v-57h-306v-1278h-61v1278h-1430v-1278z" />
    <glyph glyph-name="summation" unicode="&#x2211;" horiz-adv-x="2166" 
d="M2003 -362v-58h-1839v66l1413 843l-1413 842v66h1839v-58h-1739l1370 -813v-69l-1372 -819h1741z" />
    <glyph glyph-name="minus" unicode="&#x2212;" horiz-adv-x="1517" 
d="M1354 590h-1190v57h1190v-57z" />
    <glyph glyph-name="divisionslash" unicode="&#x2215;" horiz-adv-x="1638" 
d="M125 0h-84l1475 1397h81z" />
    <glyph glyph-name="radical" unicode="&#x221a;" horiz-adv-x="1634" 
d="M762 0h-21l-309 489h-350v58h379l287 -457l739 1286h65z" />
    <glyph glyph-name="infinity" unicode="&#x221e;" horiz-adv-x="2039" 
d="M512 307q-153 0 -250.5 85.5t-97.5 242.5t97.5 243.5t250.5 86.5q51 0 98.5 -10t84 -23t77.5 -40.5t66.5 -47.5t63.5 -59.5t56.5 -61t57.5 -66.5q121 127 176 173q167 132 336 135q153 0 250.5 -85.5t97.5 -242.5t-97.5 -243.5t-250.5 -86.5q-89 0 -165 21.5t-139.5 64.5
t-107.5 83.5t-100 103.5q-59 -62 -105.5 -103.5t-110 -84t-135.5 -64t-153 -21.5zM1528 907q-43 0 -85 -9.5t-73.5 -21t-72 -39t-62.5 -44t-64 -57t-57.5 -57t-60.5 -63.5q52 -58 94.5 -96t101.5 -77t128.5 -58.5t150.5 -19.5q130 0 208.5 68t78.5 204t-78.5 203t-208.5 67z
M512 365q74 0 140 19.5t125 58.5t103 77.5t101 97.5q-33 37 -43 48.5t-41 45.5t-45.5 46.5t-45 39t-50.5 37.5t-51.5 28.5t-59.5 24.5t-62.5 13t-70.5 6q-130 0 -208.5 -68t-78.5 -204t78.5 -203t208.5 -67z" />
    <glyph glyph-name="integral" unicode="&#x222b;" horiz-adv-x="1748" 
d="M1440 1499q-146 0 -250 -27.5t-166 -82t-90.5 -130.5t-28.5 -178v-1140q0 -224 -144 -348.5t-452 -124.5q-180 0 -391 38l10 56q189 -37 381 -37q146 0 250 27.5t166 82t90.5 130.5t28.5 178v1140q0 224 144 348.5t452 124.5q180 0 391 -38l-10 -56q-189 37 -381 37z" />
    <glyph glyph-name="approxequal" unicode="&#x2248;" horiz-adv-x="1552" 
d="M477 883q-147 0 -284 -90l-29 49q148 98 321 98q91 0 187.5 -25t198 -50t204.5 -25q148 0 285 90l29 -49q-149 -99 -322 -99q-82 0 -165 16t-141.5 34.5t-135.5 34.5t-148 16zM477 557q-147 0 -284 -90l-29 49q148 98 321 98q91 0 187.5 -25t198 -50t204.5 -25
q148 0 285 90l29 -49q-148 -98 -322 -98q-103 0 -205.5 25t-199.5 50t-185 25z" />
    <glyph glyph-name="notequal" unicode="&#x2260;" horiz-adv-x="1517" 
d="M1354 391h-721l-141 -182h-66l141 182h-403v58h448l224 288h-672v58h717l143 186h66l-144 -186h408v-58h-453l-223 -288h676v-58z" />
    <glyph glyph-name="lessequal" unicode="&#x2264;" horiz-adv-x="1517" 
d="M1354 225l-1190 357v65l1190 357v-58l-1104 -332l1104 -331v-58zM1354 47h-1190v57h1190v-57z" />
    <glyph glyph-name="greaterequal" unicode="&#x2265;" horiz-adv-x="1517" 
d="M1354 647v-65l-1190 -357v58l1104 331l-1104 332v58zM1354 104v-57h-1190v57h1190z" />
    <glyph glyph-name="lozenge" unicode="&#x25ca;" horiz-adv-x="1517" 
d="M1415 694v-53l-624 -641h-64l-625 641v53l625 641h64zM760 1282l-602 -614l602 -615l600 615z" />
    <glyph glyph-name="caron.alt" unicode="&#xe189;" horiz-adv-x="411" 
d="M211 1130v50h-25v217h62v-277q0 -49 -49 -49q-19 0 -35 8l8 37q12 -4 23 -4q16 0 16 18z" />
    <glyph glyph-name="commaaccentcomb.alt" horiz-adv-x="501" 
d="M215 1239h-92l188 240h68z" />
    <glyph glyph-name="dieresis.case" horiz-adv-x="798" 
d="M225 1815v-228h-61v228h61zM635 1815v-228h-62v228h62z" />
    <glyph glyph-name="dotaccent.case" horiz-adv-x="550" 
d="M307 1786v-227h-61v227h61z" />
    <glyph glyph-name="grave.case" horiz-adv-x="716" 
d="M475 1587l-311 240h102l287 -240h-78z" />
    <glyph glyph-name="acute.case" horiz-adv-x="716" 
d="M451 1827h102l-311 -240h-78z" />
    <glyph glyph-name="hungarumlaut.case" horiz-adv-x="1001" 
d="M395 1827h94l-256 -240h-69zM743 1827h95l-256 -240h-70z" />
    <glyph glyph-name="circumflex.case" horiz-adv-x="1024" 
d="M866 1587h-88l-266 191l-268 -191h-88l319 240h72z" />
    <glyph glyph-name="caron.case" horiz-adv-x="1024" 
d="M866 1827l-319 -240h-72l-319 240h88l268 -191l266 191h88z" />
    <glyph glyph-name="breve.case" horiz-adv-x="948" 
d="M723 1817h61q0 -104 -75 -170t-234 -66t-235 66t-76 170h61q0 -86 55 -132.5t195 -46.5t194 46.5t54 132.5z" />
    <glyph glyph-name="ring.case" horiz-adv-x="845" 
d="M424 1565q-260 0 -260 186q0 178 260 178q258 0 258 -178q0 -186 -258 -186zM225 1751q0 -66 44 -97.5t155 -31.5t154 31.5t43 97.5q0 62 -43 91.5t-154 29.5t-155 -29.5t-44 -91.5z" />
    <glyph glyph-name="tilde.case" horiz-adv-x="1003" 
d="M164 1602v57q78 67 172 67q76 0 193.5 -30.5t162.5 -30.5q66 0 148 53v-57q-67 -53 -144 -53q-49 0 -172.5 32.5t-183.5 32.5q-84 0 -176 -71z" />
    <glyph glyph-name="macron.case" horiz-adv-x="991" 
d="M827 1686h-663v59h663v-59z" />
    <glyph glyph-name="cedilla.case" horiz-adv-x="733" 
d="M397 -102h62v-58q0 -101 -54.5 -149.5t-185.5 -48.5q-83 0 -166 18l13 57q81 -18 161 -18q93 0 131.5 31.5t38.5 107.5v60z" />
    <glyph glyph-name="ogonek.case" horiz-adv-x="720" 
d="M446 0h62q-86 -41 -143 -75t-98.5 -79t-41.5 -90q0 -65 97 -65q91 0 213 51l22 -49q-117 -60 -235 -60q-74 0 -116 30t-42 89q0 77 82 143t200 105z" />
    <glyph glyph-name="ITF" horiz-adv-x="3561" 
d="M225 0v1434h443v-1434h-443zM760 1016v418h442v-418h-442zM1292 0v1434h445v-1434h-445zM1827 1016v418h442v-418h-442zM2359 0v1434h445v-1434h-445zM2894 1016v418h442v-418h-442zM2894 506v420h442v-420h-442z" />
    </font>
</defs>
</svg>
