<?xml version="1.0" standalone="no"?>
<!DOCTYPE svg PUBLIC "-//W3C//DTD SVG 1.1//EN" "http://www.w3.org/Graphics/SVG/1.1/DTD/svg11.dtd" >
<svg xmlns="http://www.w3.org/2000/svg" xmlns:xlink="http://www.w3.org/1999/xlink" version="1.1">
<metadata>
Created by FontForge 20170731 at Fri Apr  7 12:30:06 2023
 By Aleksey,,,
Copyright (c) 2023 by Fereshte Iranshahi and Reza Bakhtiarifard. All rights reserved.
</metadata>
<defs>
<font id="DoranFaNum-Medium" horiz-adv-x="0" >
  <font-face 
    font-family="Doran FaNum Medium"
    font-weight="500"
    font-stretch="normal"
    units-per-em="2000"
    panose-1="0 0 6 0 0 0 0 0 0 0"
    ascent="1600"
    descent="-400"
    x-height="900"
    cap-height="1442"
    bbox="-473 -1148 2956 2196"
    underline-thickness="65"
    underline-position="-284"
    unicode-range="U+0020-FFFC"
  />
<missing-glyph horiz-adv-x="1306" 
d="M124 0v1445h1058v-1445h-1058zM185 75h936v1297h-936v-1297z" />
    <glyph glyph-name="uni0622" unicode="&#x627;&#x653;" horiz-adv-x="470" 
d="M500.5 1817.5q-102.5 -84.5 -244.5 -84.5q-86 0 -154 22t-140 58q-20 10 -37.5 17.5t-26.5 7.5q-20 0 -46.5 -23.5t-93.5 -94.5l-33 -35v12q71 108 114.5 167t74.5 86.5t57 27.5q13 0 30.5 -6.5t47.5 -20.5q62 -30 117 -47t125 -17q123 0 204.5 38t150.5 132h12
q-55 -155 -157.5 -239.5zM292 1551q0 -49 8 -191q9 -197 14.5 -346.5t5.5 -304.5q0 -169 -8 -276t-21 -174.5t-38 -163.5q-10 -37 -33 -131h-12q1 23 1 79q0 169 -16.5 446.5t-39 525t-36.5 320.5q40 40 83.5 99t79.5 117h12z" />
    <glyph glyph-name="uni0623" unicode="&#x627;&#x654;" horiz-adv-x="470" 
d="M338 1834.5q70 10.5 100 22.5v-12q-13 -20 -25.5 -51t-18.5 -56q-122 -24 -220 -72t-151 -102h-12q19 53 57.5 95.5t90.5 72.5q-66 13 -101 49t-35 89q0 65 28 126t74.5 99t98.5 38t84 -34t32 -88q0 -19 -2.5 -33t-3.5 -18h-12q-4 41 -29 60t-71 19q-49 0 -88.5 -20
t-61.5 -48.5t-22 -53.5q0 -23 19.5 -44.5t56.5 -35t88 -13.5q54 0 124 10.5zM292 1551q0 -49 8 -191q9 -197 14.5 -346.5t5.5 -304.5q0 -169 -8 -276t-21 -174.5t-38 -163.5q-10 -37 -33 -131h-12q1 23 1 79q0 169 -16.5 446.5t-39 525t-36.5 320.5q40 40 83.5 99t79.5 117
h12z" />
    <glyph glyph-name="uni0625" unicode="&#x627;&#x655;" horiz-adv-x="473" 
d="M302 1450q21 -481 21 -741q0 -171 -8 -278.5t-21 -175t-39 -164.5q-22 -85 -32 -127h-12q1 22 1 76q0 176 -17.5 483.5t-40.5 585t-37 350.5q39 39 85.5 101t79.5 116h12q0 -52 8 -226zM341.5 -439.5q70.5 10.5 100.5 22.5v-12q-14 -20 -26 -49.5t-19 -58.5
q-121 -24 -219 -71t-151 -101h-12q18 52 57 95t92 72q-67 13 -102 49.5t-35 89.5q0 65 27.5 126.5t74 99.5t99.5 38q52 0 84 -35t32 -88q0 -17 -3 -32.5t-4 -20.5h-13q-4 82 -100 82q-49 0 -88 -20t-60.5 -49t-21.5 -54q0 -24 19.5 -45.5t56 -35t86.5 -13.5q55 0 125.5 10.5
z" />
    <glyph glyph-name="uniFE89" unicode="&#x64a;&#x654;" horiz-adv-x="1464" 
d="M1264.5 1035q54.5 -56 54.5 -152q0 -51 -14 -101h-12q1 57 -56 90.5t-150 33.5q-116 0 -216 -54t-159.5 -132t-59.5 -141q0 -70 68 -100.5t202 -35.5l139 -5q105 -4 164.5 -27t85.5 -71.5t26 -131.5q0 -193 -82 -335.5t-238.5 -219t-374.5 -76.5q-249 0 -380.5 131.5
t-131.5 374.5q0 242 103 471h19q-31 -82 -48 -171.5t-17 -164.5q0 -123 56.5 -210t164.5 -132.5t261 -45.5q201 0 345.5 48.5t218 120t73.5 139.5q0 24 -23 39t-80 24.5t-158 13.5l-142 5q-106 4 -169 26t-93.5 72t-30.5 140q0 140 71.5 288.5t188.5 246.5t245 98
q95 0 149.5 -56zM493.5 931.5q70.5 10.5 100.5 22.5v-12q-13 -19 -25.5 -49.5t-19.5 -57.5q-121 -25 -219 -72.5t-151 -101.5h-12q18 52 56 95t91 73q-65 13 -100 49.5t-35 88.5q0 65 28 126t74.5 99t98.5 38q51 0 83 -34t32 -88q0 -21 -5 -51h-12q-4 41 -29.5 60t-71.5 19
q-49 0 -88 -20t-61 -48.5t-22 -53.5q0 -23 19.5 -44.5t56.5 -35t87 -13.5q54 0 124.5 10.5z" />
    <glyph glyph-name="uni06C0" unicode="&#x647;&#x654;" horiz-adv-x="922" 
d="M278 1155q-33 10 -50 25.5t-35 41.5q-5 6 -14 18t-18 20v13q27 -11 89 -18t132 -7q208 0 208 67q0 16 -22 23t-80 10l-49 3q-62 4 -89 29t-27 77q0 59 32 123t88.5 107.5t125.5 45.5l-27 -109q-86 -4 -138.5 -35t-52.5 -77q0 -27 23 -42.5t77 -18.5l49 -2
q64 -4 90.5 -24.5t26.5 -63.5q0 -109 -59.5 -162.5t-190.5 -53.5q-56 0 -89 10zM425 946q103 -63 177.5 -123.5t132 -161t57.5 -237.5q0 -216 -98 -326t-289 -110q-131 0 -203 66t-72 184q0 107 45.5 231.5t142.5 287.5l-65 30q19 37 44 106.5t34 108.5h9q20 -17 85 -56z
M610 263q74 21 114 54.5t40 67.5q0 70 -108.5 165t-313.5 195q-76 -133 -109.5 -215.5t-33.5 -144.5q0 -40 27.5 -72.5t82 -51.5t131.5 -19q96 0 170 21z" />
    <glyph glyph-name="uniFBA5" unicode="&#xfeea;&#x654;" horiz-adv-x="1130" arabic-form="final" 
d="M279.5 1073q-33.5 10 -50 25t-35.5 41q-21 28 -30 37v12q27 -11 89 -17.5t132 -6.5q108 0 157.5 18t49.5 48q0 16 -21.5 23t-79.5 10l-49 3q-62 4 -89.5 30t-27.5 77q0 60 32 124t88.5 107t124.5 45l-27 -110q-85 -2 -138 -33t-53 -79q0 -27 23.5 -42t78.5 -16l49 -3
q62 -3 89 -24.5t27 -62.5q0 -109 -59.5 -162.5t-189.5 -53.5q-57 0 -90.5 10zM921.5 329.5q70.5 -75.5 208.5 -75.5l-42 -254q-169 0 -256 102.5t-96 333.5h-12q-23 -166 -107 -246.5t-243 -80.5q-121 0 -182.5 53t-61.5 150q0 95 48 178.5t167 181t338 232.5
q-11 71 -21 111q35 26 77 74t71 96h8l3 -22q14 -129 22 -253.5t8 -345.5q0 -159 70.5 -234.5zM565.5 376q71.5 21 111 58t39.5 84q0 131 -21 301q-276 -145 -384 -230.5t-108 -137.5q0 -49 45 -72.5t153 -23.5q93 0 164.5 21z" />
    <glyph glyph-name="uniFDFC" unicode="&#x631;&#xfbfe;&#xfe8e;&#x644;" horiz-adv-x="3073" arabic-form="isolated" 
d="M1288 1797q0 -13 4 -241q11 -453 11 -725q0 -341 -27.5 -539.5t-87.5 -336.5q-53 -178 -199 -278t-371 -100q-154 0 -263.5 59t-167 172.5t-57.5 274.5q0 242 103 471h19q-31 -82 -48 -171.5t-17 -164.5q0 -123 55 -210t158 -132.5t245 -45.5q152 0 283.5 46t209.5 128
t78 183q-3 163 -23 467t-44 579.5t-37 346.5q40 42 86 103.5t78 113.5h12zM1761.5 44.5q-71.5 40.5 -106 130t-38.5 243.5q-7 360 -15.5 546t-20 281.5t-34.5 213.5q40 39 87 101.5t78 115.5h12q0 -52 5 -135q7 -161 7 -262q0 -119 -6 -369q-6 -252 -6 -374q0 -101 29 -162
t92 -90t170 -30q121 1 213.5 16.5t143 40.5t50.5 56q0 32 -32 86t-82 112t-99 101q24 30 56 96t52 123h11q5 -16 20 -47q45 -100 74.5 -201t29.5 -231q0 -204 -112 -303t-359 -103h-9h-11h-7q-121 4 -192.5 44.5zM2869 539q30 -67 52 -150.5t22 -173.5q0 -205 -70.5 -366
t-186 -250t-245.5 -89q-54 0 -102.5 16.5t-113.5 47.5q-48 23 -82 35v12q173 26 354.5 118t300.5 206t119 200q0 43 -61 128t-179 196q26 38 57 103.5t48 117.5h12q45 -84 75 -151zM1973.5 -244.5q40.5 -17.5 40.5 -61.5q0 -24 -16 -68q-13 -42 -18 -70h-12q0 30 -34 42
t-118 12q-56 0 -190 -4t-211 -11q13 23 33.5 78.5t26.5 83.5q105 8 210.5 12t160.5 4q87 0 127.5 -17.5z" />
    <glyph glyph-name="uniFE82" unicode="&#xfe8e;&#x653;" horiz-adv-x="593" arabic-form="final" 
d="M528.5 1817.5q-102.5 -84.5 -245.5 -84.5q-86 0 -154 22t-139 58q-20 10 -38 17.5t-27 7.5q-20 0 -46 -23t-90 -91l-37 -39v12q73 109 115.5 167.5t73.5 86t57 27.5q13 0 29 -6t49 -21q62 -30 117 -47t126 -17q123 0 204.5 38t150.5 132h12q-55 -155 -157.5 -239.5z
M341.5 38.5q-77.5 38.5 -114 129t-40.5 250.5q-7 304 -15.5 469t-17.5 249t-28 203q40 42 87 104.5t77 113.5h13q0 -35 2 -135q3 -207 3 -261q0 -115 -7 -281q-8 -210 -8 -344q0 -102 29.5 -163.5t95 -90t175.5 -28.5l-42 -254q-132 0 -209.5 38.5z" />
    <glyph glyph-name="uniFE84" unicode="&#xfe8e;&#x654;" horiz-adv-x="593" arabic-form="final" 
d="M421.5 1794q-12.5 -31 -18.5 -56q-122 -24 -220 -72t-151 -102h-12q19 53 57.5 95.5t90.5 72.5q-66 13 -101 49t-35 89q0 65 28 126t74.5 99t98.5 38t84 -34t32 -88q0 -19 -2.5 -33t-3.5 -18h-12q-4 41 -29 60t-71 19q-49 0 -88.5 -20t-61.5 -48.5t-22 -53.5
q0 -23 19.5 -44.5t56.5 -35t88 -13.5q54 0 124 10.5t100 22.5v-12q-13 -20 -25.5 -51zM322.5 372.5q29.5 -61.5 95 -90t175.5 -28.5l-42 -254q-132 0 -209.5 38.5t-114 129t-40.5 250.5q-7 304 -15.5 469t-17.5 249t-28 203q40 42 87 104.5t77 113.5h13q0 -35 2 -135
q3 -207 3 -261q0 -115 -7 -281q-8 -210 -8 -344q0 -102 29.5 -163.5z" />
    <glyph glyph-name="uniFE88" unicode="&#xfe8e;&#x655;" horiz-adv-x="603" arabic-form="final" 
d="M350.5 38.5q-77.5 38.5 -114 129t-40.5 250.5q-7 360 -15.5 546t-20 281.5t-34.5 213.5q39 39 85.5 101t79.5 116h12q0 -52 5 -135q7 -161 7 -262q0 -119 -6 -369q-6 -252 -6 -374q0 -102 29.5 -163.5t95 -90t175.5 -28.5l-43 -254q-132 0 -209.5 38.5zM474.5 -430.5
q70.5 10.5 100.5 22.5v-12q-14 -20 -26 -49.5t-19 -58.5q-121 -24 -219 -71t-151 -101h-12q18 52 57 95t92 72q-67 13 -102 49.5t-35 89.5q0 65 27.5 126.5t74 99.5t99.5 38q52 0 84 -35t32 -88q0 -17 -3 -32.5t-4 -20.5h-13q-4 82 -100 82q-49 0 -88 -20t-60.5 -49
t-21.5 -54q0 -24 19.5 -45.5t56 -35t86.5 -13.5q55 0 125.5 10.5z" />
    <glyph glyph-name="uniFE8A" unicode="&#xfef2;&#x654;" horiz-adv-x="1422" arabic-form="final" 
d="M1379 0q-42 0 -68 1q22 -32 22 -76q0 -159 -79.5 -275.5t-234.5 -179.5t-377 -63q-164 0 -278.5 59.5t-174 173t-59.5 273.5q0 116 24 232.5t71 223.5h20q-27 -71 -42.5 -159t-15.5 -162q0 -122 56.5 -209t164.5 -133t261 -46q206 0 349 39.5t213 95t70 99.5
q0 33 -49.5 54.5t-121.5 34t-196 27.5q-118 15 -179.5 25t-112.5 25v12q85 116 122 210q100 -18 243 -23t415 -5zM714.5 616.5q70.5 10.5 100.5 22.5v-12q-13 -19 -25.5 -49.5t-19.5 -57.5q-121 -25 -219 -72.5t-151 -101.5h-12q18 52 56 95t91 73q-65 13 -100 49.5
t-35 88.5q0 65 28 126t74.5 99t98.5 38q51 0 83 -34t32 -88q0 -21 -5 -51h-12q-4 41 -29.5 60t-71.5 19q-49 0 -88 -20t-61 -48.5t-22 -53.5q0 -23 19.5 -44.5t56.5 -35t87 -13.5q54 0 124.5 10.5z" />
    <glyph glyph-name="uniFEF5" unicode="&#xfedf;&#xfe82;" horiz-adv-x="1232" arabic-form="isolated" 
d="M1045 989.5q-36 -150.5 -109 -271.5q109 -161 109 -315q0 -205 -106.5 -310t-295.5 -105q-77 0 -136.5 16.5t-104 41t-108.5 67.5q-78 53 -136 84v12q246 95 408.5 212.5t251.5 261.5q-113 109 -282.5 216t-399.5 202q12 38 20 98.5t8 115.5q0 17 -2 45h12
q492 -307 702 -562q59 149 59 331q0 66 -7 169.5t-20 181.5q37 33 81 90.5t68 105.5h12q0 -45 5 -122q7 -147 7 -227q0 -187 -36 -337.5zM981.5 476.5q-35.5 69.5 -108.5 149.5q-84 -105 -205 -188.5t-284 -152.5q62 -23 118 -33t125 -10q123 0 211 16t133.5 43.5t45.5 61.5
q0 44 -35.5 113.5zM744.5 1596.5q-102.5 -84.5 -244.5 -84.5q-86 0 -153 22t-140 58q-20 10 -38 17.5t-27 7.5q-20 0 -45.5 -22.5t-86.5 -87.5l-41 -43v12q73 109 115.5 167.5t73.5 86t57 27.5q13 0 30.5 -6.5t47.5 -20.5q62 -30 117 -47t125 -17q123 0 204.5 38t150.5 132
h12q-55 -155 -157.5 -239.5z" />
    <glyph glyph-name="uniFEF6" unicode="&#xfee0;&#xfe82;" horiz-adv-x="1373" arabic-form="final" 
d="M1110.5 379.5q31.5 -66.5 96 -96t166.5 -29.5l-43 -254q-130 0 -204.5 38t-110.5 141t-36 300v39h-10q-22 -168 -91.5 -284.5t-173 -175t-228.5 -58.5q-63 0 -124 18.5t-154 55.5l-59 23v12q435 95 636 219q-24 215 -193.5 402t-445.5 356q12 43 20 107t8 121q0 18 -2 46
h12q15 -17 44.5 -42t62.5 -51q141 -113 245.5 -223t184.5 -290t76 -418q168 109 168 246q0 268 -16 501.5t-37 381.5q43 43 89 102.5t75 108.5h13q0 -55 5 -138q7 -161 7 -259q0 -125 -6 -375q-6 -240 -6 -347q0 -111 31.5 -177.5zM744.5 1596.5q-102.5 -84.5 -244.5 -84.5
q-86 0 -153 22t-140 58q-20 10 -38 17.5t-27 7.5q-20 0 -45.5 -22.5t-86.5 -87.5l-41 -43v12q73 109 115.5 167.5t73.5 86t57 27.5q13 0 30.5 -6.5t47.5 -20.5q62 -30 117 -47t125 -17q123 0 204.5 38t150.5 132h12q-55 -155 -157.5 -239.5z" />
    <glyph glyph-name="uniFEF7" unicode="&#xfedf;&#xfe84;" horiz-adv-x="1232" arabic-form="isolated" 
d="M1045 989.5q-36 -150.5 -109 -271.5q109 -161 109 -315q0 -205 -106.5 -310t-295.5 -105q-77 0 -136.5 16.5t-104 41t-108.5 67.5q-78 53 -136 84v12q246 95 408.5 212.5t251.5 261.5q-113 109 -282.5 216t-399.5 202q12 38 20 98.5t8 115.5q0 17 -2 45h12
q492 -307 702 -562q59 149 59 331q0 66 -7 169.5t-20 181.5q37 33 81 90.5t68 105.5h12q0 -45 5 -122q7 -147 7 -227q0 -187 -36 -337.5zM981.5 476.5q-35.5 69.5 -108.5 149.5q-84 -105 -205 -188.5t-284 -152.5q62 -23 118 -33t125 -10q123 0 211 16t133.5 43.5t45.5 61.5
q0 44 -35.5 113.5zM353.5 1667.5q70.5 10.5 100.5 22.5v-12q-13 -19 -25.5 -49.5t-19.5 -57.5q-121 -25 -219 -72.5t-151 -101.5h-12q18 52 56 95t91 73q-65 13 -100 49.5t-35 88.5q0 65 28 126t74.5 99t98.5 38q51 0 83 -34t32 -88q0 -21 -5 -51h-12q-4 41 -29.5 60
t-71.5 19q-49 0 -88 -20t-61 -48.5t-22 -53.5q0 -23 19.5 -44.5t56.5 -35t87 -13.5q54 0 124.5 10.5z" />
    <glyph glyph-name="uniFEF8" unicode="&#xfee0;&#xfe84;" horiz-adv-x="1373" arabic-form="final" 
d="M1110.5 379.5q31.5 -66.5 96 -96t166.5 -29.5l-43 -254q-130 0 -204.5 38t-110.5 141t-36 300v39h-10q-22 -168 -91.5 -284.5t-173 -175t-228.5 -58.5q-63 0 -124 18.5t-154 55.5l-59 23v12q435 95 636 219q-24 215 -193.5 402t-445.5 356q12 43 20 107t8 121q0 18 -2 46
h12q15 -17 44.5 -42t62.5 -51q141 -113 245.5 -223t184.5 -290t76 -418q168 109 168 246q0 268 -16 501.5t-37 381.5q43 43 89 102.5t75 108.5h13q0 -55 5 -138q7 -161 7 -259q0 -125 -6 -375q-6 -240 -6 -347q0 -111 31.5 -177.5zM353.5 1667.5q70.5 10.5 100.5 22.5v-12
q-13 -19 -25.5 -49.5t-19.5 -57.5q-121 -25 -219 -72.5t-151 -101.5h-12q18 52 56 95t91 73q-65 13 -100 49.5t-35 88.5q0 65 28 126t74.5 99t98.5 38q51 0 83 -34t32 -88q0 -21 -5 -51h-12q-4 41 -29.5 60t-71.5 19q-49 0 -88 -20t-61 -48.5t-22 -53.5q0 -23 19.5 -44.5
t56.5 -35t87 -13.5q54 0 124.5 10.5z" />
    <glyph glyph-name="uniFEF9" unicode="&#xfedf;&#xfe88;" horiz-adv-x="1232" arabic-form="isolated" 
d="M1045.5 990q-35.5 -150 -108.5 -271q108 -171 108 -316q0 -205 -106.5 -310t-295.5 -105q-77 0 -136.5 16.5t-104 41t-108.5 67.5q-78 53 -136 84v12q250 97 414 216.5t252 266.5q-114 124 -285.5 257t-402.5 265q12 38 20 101.5t8 119.5q0 18 -2 46h12
q256 -208 429 -374.5t275 -302.5q57 145 57 325q0 66 -7 169.5t-20 181.5q37 33 81 90.5t68 105.5h12q0 -45 5 -122q7 -147 7 -227q0 -187 -35.5 -337zM981.5 475q-35.5 70 -105.5 156q-84 -106 -206 -191.5t-286 -154.5q62 -23 118 -33t125 -10q123 0 211 16t133.5 43.5
t45.5 61.5q0 42 -35.5 112zM529.5 -439.5q70.5 10.5 100.5 22.5v-12q-14 -20 -26 -49.5t-19 -58.5q-121 -24 -219 -71t-151 -101h-12q18 52 57 95t92 72q-67 13 -102 49.5t-35 89.5q0 65 27.5 126.5t74 99.5t99.5 38q52 0 84 -35t32 -88q0 -17 -3 -32.5t-4 -20.5h-13
q-4 82 -100 82q-49 0 -88 -20t-60.5 -49t-21.5 -54q0 -24 19.5 -45.5t56 -35t86.5 -13.5q55 0 125.5 10.5z" />
    <glyph glyph-name="uniFEFA" unicode="&#xfee0;&#xfe88;" horiz-adv-x="1373" arabic-form="final" 
d="M1110.5 379.5q31.5 -66.5 96 -96t166.5 -29.5l-43 -254q-130 0 -204.5 38t-110.5 141t-36 300v39h-10q-22 -168 -91.5 -284.5t-173 -175t-228.5 -58.5q-63 0 -124 18.5t-154 55.5l-59 23v12q435 95 636 219q-25 222 -189.5 445.5t-449.5 424.5q12 43 20 111t8 126
q0 18 -2 46h12q16 -19 80 -79q140 -130 251 -263t198.5 -340t83.5 -463q168 109 168 246q0 268 -16 501.5t-37 381.5q43 43 89 102.5t75 108.5h13q0 -55 5 -138q7 -161 7 -259q0 -125 -6 -375q-6 -240 -6 -347q0 -111 31.5 -177.5zM529.5 -439.5q70.5 10.5 100.5 22.5v-12
q-14 -20 -26 -49.5t-19 -58.5q-121 -24 -219 -71t-151 -101h-12q18 52 57 95t92 72q-67 13 -102 49.5t-35 89.5q0 65 27.5 126.5t74 99.5t99.5 38q52 0 84 -35t32 -88q0 -17 -3 -32.5t-4 -20.5h-13q-4 82 -100 82q-49 0 -88 -20t-60.5 -49t-21.5 -54q0 -24 19.5 -45.5
t56 -35t86.5 -13.5q55 0 125.5 10.5z" />
    <glyph glyph-name="uniFEFB" unicode="&#xfedf;&#xfe8e;" horiz-adv-x="1232" arabic-form="isolated" 
d="M1045.5 990q-35.5 -150 -108.5 -271q108 -171 108 -316q0 -205 -106.5 -310t-295.5 -105q-77 0 -136.5 16.5t-104 41t-108.5 67.5q-78 53 -136 84v12q250 97 414 216.5t252 266.5q-114 124 -285.5 257t-402.5 265q12 38 20 101.5t8 119.5q0 18 -2 46h12
q256 -208 429 -374.5t275 -302.5q57 145 57 325q0 66 -7 169.5t-20 181.5q37 33 81 90.5t68 105.5h12q0 -45 5 -122q7 -147 7 -227q0 -187 -35.5 -337zM981.5 475q-35.5 70 -105.5 156q-84 -106 -206 -191.5t-286 -154.5q62 -23 118 -33t125 -10q123 0 211 16t133.5 43.5
t45.5 61.5q0 42 -35.5 112z" />
    <glyph glyph-name="uniFEFC" unicode="&#xfee0;&#xfe8e;" horiz-adv-x="1373" arabic-form="final" 
d="M1110.5 379.5q31.5 -66.5 96 -96t166.5 -29.5l-43 -254q-130 0 -204.5 38t-110.5 141t-36 300v39h-10q-22 -168 -91.5 -284.5t-173 -175t-228.5 -58.5q-63 0 -124 18.5t-154 55.5l-59 23v12q435 95 636 219q-25 222 -189.5 445.5t-449.5 424.5q12 43 20 111t8 126
q0 18 -2 46h12q16 -19 80 -79q140 -130 251 -263t198.5 -340t83.5 -463q168 109 168 246q0 268 -16 501.5t-37 381.5q43 43 89 102.5t75 108.5h13q0 -55 5 -138q7 -161 7 -259q0 -125 -6 -375q-6 -240 -6 -347q0 -111 31.5 -177.5z" />
    <glyph glyph-name="aleffathatanar" unicode="&#x627;&#x64b;" horiz-adv-x="470" 
d="M456 1972l-464 -206l8 58l465 208zM444 1784l-464 -208l8 60l464 206zM300 1360q9 -197 14.5 -346.5t5.5 -304.5q0 -169 -8 -276t-21 -174.5t-38 -163.5q-10 -37 -33 -131h-12q1 23 1 79q0 169 -16.5 446.5t-39 525t-36.5 320.5q40 40 83.5 99t79.5 117h12q0 -49 8 -191z
" />
    <glyph glyph-name="aleffathatanar.fina" unicode="&#xfe8e;&#x64b;" horiz-adv-x="593" 
d="M463 1972l-464 -206l9 58l464 208zM451 1784l-464 -208l8 60l464 206zM341.5 38.5q-77.5 38.5 -114 129t-40.5 250.5q-7 304 -15.5 469t-17.5 249t-28 203q40 42 87 104.5t77 113.5h13q0 -35 2 -135q3 -207 3 -261q0 -115 -7 -281q-8 -210 -8 -344q0 -102 29.5 -163.5
t95 -90t175.5 -28.5l-42 -254q-132 0 -209.5 38.5z" />
    <glyph glyph-name="uniFEDFFEE0FEEA" unicode="&#xfedf;&#xfee0;&#xfeea;" horiz-adv-x="2594" 
d="M2435 1161q13 -167 20.5 -286.5t7.5 -246.5q0 -87 -19 -188t-54.5 -196t-83.5 -160q-33 -41 -89.5 -62.5t-119.5 -21.5q-148 0 -226 90.5t-78 284.5l1 34h-10q-44 -160 -114.5 -248.5t-179 -124.5t-278.5 -36q-167 0 -269.5 46t-151.5 141.5t-55 248.5h-10
q-23 -166 -107 -246.5t-243 -80.5q-122 0 -184 53t-62 150q0 90 43.5 172.5t165 183t346.5 226.5q-15 89 -22 121q34 27 76.5 75t70.5 95h8q15 -122 22 -209q125 63 194 102.5t114 75.5q-13 -28 -26.5 -64.5t-18.5 -62.5q-102 -50 -258 -130q6 -162 6 -303
q0 -118 39.5 -192.5t127 -111t234.5 -36.5q207 0 316.5 29t163.5 105.5t77 229.5q33 9 70 34q0 -156 32 -242.5t96.5 -121t170.5 -34.5q55 0 102 14t74.5 38.5t27.5 53.5q0 109 -26.5 276.5t-60 320.5t-50.5 205q40 42 86 103.5t78 113.5h12q0 -55 14 -218zM567.5 376
q71.5 21 110.5 58t39 84q0 138 -22 300q-201 -108 -309.5 -180t-145.5 -114t-37 -73q0 -49 45 -72.5t155 -23.5q93 0 164.5 21z" />
    <glyph glyph-name="uni0621" unicode="&#x621;" horiz-adv-x="903" arabic-form="isolated" 
d="M545.5 787q40.5 -25 63 -68.5t22.5 -97.5q0 -49 -8 -79h-17q0 59 -44.5 95t-119.5 36q-72 0 -132 -32t-94.5 -79t-34.5 -89q0 -38 28.5 -73t84.5 -57t134 -22t186 16t159 36v-15q-20 -28 -39.5 -73t-27.5 -82q-189 -39 -334.5 -110.5t-225.5 -156.5h-16q35 83 86.5 143.5
t123.5 99.5v12q-99 20 -147 76.5t-48 141.5q0 92 42 186t113 155.5t153 61.5q52 0 92.5 -25z" />
    <glyph glyph-name="uni0624" unicode="&#x624;" horiz-adv-x="994" arabic-form="isolated" 
d="M699 717.5q79 -70.5 122 -206t43 -327.5q0 -216 -75.5 -379t-200 -250t-269.5 -87q-57 0 -111.5 17t-131.5 49q-63 28 -101 39v12q190 16 391 98t333.5 198t132.5 231q0 79 -12 146l-4 -1q-20 -120 -112 -189t-232 -69q-148 0 -221 79t-73 229q0 131 43 241t119 175
t171 65q109 0 188 -70.5zM648.5 258q77.5 19 157.5 60q-37 135 -122.5 209.5t-206.5 74.5q-69 0 -130 -30.5t-97.5 -78.5t-36.5 -99q0 -65 64.5 -110t206.5 -45q87 0 164.5 19zM546.5 1131.5q70.5 10.5 100.5 22.5v-12q-13 -19 -25.5 -49.5t-19.5 -57.5q-121 -25 -219 -72.5
t-151 -101.5h-12q18 52 56 95t91 73q-65 13 -100 49.5t-35 88.5q0 65 28 126t74.5 99t98.5 38q51 0 83 -34t32 -88q0 -21 -5 -51h-12q-4 41 -29.5 60t-71.5 19q-49 0 -88 -20t-61 -48.5t-22 -53.5q0 -23 19.5 -44.5t56.5 -35t87 -13.5q54 0 124.5 10.5z" />
    <glyph glyph-name="uni0627" unicode="&#x627;" horiz-adv-x="473" arabic-form="isolated" 
d="M302 1450q21 -481 21 -741q0 -171 -8 -278.5t-21 -175t-39 -164.5q-22 -85 -32 -127h-12q1 22 1 76q0 176 -17.5 483.5t-40.5 585t-37 350.5q39 39 85.5 101t79.5 116h12q0 -52 8 -226z" />
    <glyph glyph-name="uni0628" unicode="&#x628;" horiz-adv-x="1836" arabic-form="isolated" 
d="M1617.5 209.5q-88.5 -110.5 -285 -166t-520.5 -55.5q-244 0 -394 47.5t-219 142t-69 239.5q0 80 16 168.5t56 196.5h19q-18 -63 -26.5 -115t-8.5 -109q0 -94 68.5 -165t214.5 -111t370 -40q285 0 474 35t276 83.5t87 90.5q0 48 -67 140.5t-144 159.5q24 29 54.5 94.5
t51.5 124.5h11q5 -16 20 -47q45 -100 74.5 -201t29.5 -231q0 -171 -88.5 -281.5zM802 -411q-47 39 -80 54v12l123 151q45 -20 94 -62.5t70 -79.5l-133 -146q-27 32 -74 71z" />
    <glyph glyph-name="uni0629" unicode="&#x629;" horiz-adv-x="922" arabic-form="isolated" 
d="M425 946q103 -63 177.5 -123.5t132 -161t57.5 -237.5q0 -216 -98 -326t-289 -110q-131 0 -203 66t-72 184q0 107 45.5 231.5t142.5 287.5l-65 30q19 37 44 106.5t34 108.5h9q20 -17 85 -56zM610 263q74 21 114 54.5t40 67.5q0 70 -108.5 165t-313.5 195
q-76 -133 -109.5 -215.5t-33.5 -144.5q0 -40 27.5 -72.5t82 -51.5t131.5 -19q96 0 170 21zM721 1257.5q-20 -54.5 -28 -84.5q-105 -8 -210.5 -12t-160.5 -4q-86 0 -126.5 17.5t-40.5 61.5q0 20 15 69q14 43 18 69h12q0 -30 34.5 -42t117.5 -12q56 0 190.5 4t211.5 11
q-13 -23 -33 -77.5z" />
    <glyph glyph-name="uni062A" unicode="&#x62a;" horiz-adv-x="1836" arabic-form="isolated" 
d="M1617.5 209.5q-88.5 -110.5 -285 -166t-520.5 -55.5q-244 0 -394 47.5t-219 142t-69 239.5q0 80 16 168.5t56 196.5h19q-18 -63 -26.5 -115t-8.5 -109q0 -94 68.5 -165t214.5 -111t370 -40q285 0 474 35t276 83.5t87 90.5q0 48 -67 140.5t-144 159.5q24 29 54.5 94.5
t51.5 124.5h11q5 -16 20 -47q45 -100 74.5 -201t29.5 -231q0 -171 -88.5 -281.5zM1148 794.5q-20 -54.5 -28 -84.5q-105 -8 -210.5 -12t-160.5 -4q-86 0 -126.5 17.5t-40.5 61.5q0 20 15 69q14 43 18 69h12q0 -30 34.5 -42t117.5 -12q56 0 190.5 4t211.5 11
q-13 -23 -33 -77.5z" />
    <glyph glyph-name="uni062B" unicode="&#x62b;" horiz-adv-x="1836" arabic-form="isolated" 
d="M1617.5 209.5q-88.5 -110.5 -285 -166t-520.5 -55.5q-244 0 -394 47.5t-219 142t-69 239.5q0 80 16 168.5t56 196.5h19q-18 -63 -26.5 -115t-8.5 -109q0 -94 68.5 -165t214.5 -111t370 -40q285 0 474 35t276 83.5t87 90.5q0 48 -67 140.5t-144 159.5q24 29 54.5 94.5
t51.5 124.5h11q5 -16 20 -47q45 -100 74.5 -201t29.5 -231q0 -171 -88.5 -281.5zM826 992.5q-43 33.5 -75 47.5v12l108 136q42 -19 85.5 -55t63.5 -63l-110 -140q-29 29 -72 62.5zM1147 789.5q-20 -51.5 -27 -79.5q-105 -8 -210.5 -12t-160.5 -4q-86 0 -126.5 17.5
t-40.5 61.5q0 21 15 64q13 38 18 65h12q0 -29 35 -41.5t117 -12.5q42 0 181.5 5t220.5 11q-14 -23 -34 -74.5z" />
    <glyph glyph-name="uni062C" unicode="&#x62c;" horiz-adv-x="1461" arabic-form="isolated" 
d="M704 -144q-47 39 -80 54v12l123 151q45 -20 94 -62.5t70 -79.5l-133 -146q-27 32 -74 71zM596 916.5q76 -22.5 204 -70.5q158 -60 280 -95t251 -42v-12q-30 -28 -70 -87t-64 -111q-321 -67 -553.5 -163.5t-356 -214t-123.5 -245.5q0 -115 84.5 -207t233 -144.5
t333.5 -52.5q130 0 272.5 10.5t240.5 31.5v-13l-78 -52q-88 -61 -159 -101t-173 -69t-230 -29q-169 0 -295 64.5t-194.5 184t-68.5 280.5q0 203 91.5 351.5t285 257t505.5 190.5v12q-64 8 -131.5 27.5t-160.5 52.5q-112 38 -179.5 56.5t-127.5 18.5q-75 0 -128.5 -36
t-90.5 -110h-12q37 135 76.5 208.5t86 102.5t110.5 29q65 0 141 -22.5z" />
    <glyph glyph-name="uni062D" unicode="&#x62d;" horiz-adv-x="1461" arabic-form="isolated" 
d="M596 916.5q76 -22.5 204 -70.5q158 -60 280 -95t251 -42v-12q-30 -28 -70 -87t-64 -111q-321 -67 -553.5 -163.5t-356 -214t-123.5 -245.5q0 -115 84.5 -207t233 -144.5t333.5 -52.5q130 0 272.5 10.5t240.5 31.5v-13l-78 -52q-88 -61 -159 -101t-173 -69t-230 -29
q-169 0 -295 64.5t-194.5 184t-68.5 280.5q0 203 91.5 351.5t285 257t505.5 190.5v12q-64 8 -131.5 27.5t-160.5 52.5q-112 38 -179.5 56.5t-127.5 18.5q-75 0 -128.5 -36t-90.5 -110h-12q37 135 76.5 208.5t86 102.5t110.5 29q65 0 141 -22.5z" />
    <glyph glyph-name="uni062E" unicode="&#x62e;" horiz-adv-x="1461" arabic-form="isolated" 
d="M596 916.5q76 -22.5 204 -70.5q158 -60 280 -95t251 -42v-12q-30 -28 -70 -87t-64 -111q-321 -67 -553.5 -163.5t-356 -214t-123.5 -245.5q0 -115 84.5 -207t233 -144.5t333.5 -52.5q130 0 272.5 10.5t240.5 31.5v-13l-78 -52q-88 -61 -159 -101t-173 -69t-230 -29
q-169 0 -295 64.5t-194.5 184t-68.5 280.5q0 203 91.5 351.5t285 257t505.5 190.5v12q-64 8 -131.5 27.5t-160.5 52.5q-112 38 -179.5 56.5t-127.5 18.5q-75 0 -128.5 -36t-90.5 -110h-12q37 135 76.5 208.5t86 102.5t110.5 29q65 0 141 -22.5zM519.5 1252
q-47.5 39 -82.5 55v12l123 151q45 -21 94 -63.5t70 -79.5l-133 -145q-24 31 -71.5 70z" />
    <glyph glyph-name="uni062F" unicode="&#x62f;" horiz-adv-x="990" arabic-form="isolated" 
d="M744 94.5q-116 -106.5 -355 -106.5q-140 0 -207.5 67.5t-67.5 195.5q0 75 20 206h18q-4 -81 18 -127t77.5 -67t157.5 -21q136 0 232.5 21.5t144.5 55.5t48 69q0 52 -62.5 139.5t-163.5 183t-211 170.5q21 54 44 120t28 96h12q8 -10 47 -47q84 -79 153.5 -160t126 -202
t56.5 -261q0 -226 -116 -332.5z" />
    <glyph glyph-name="uni0630" unicode="&#x630;" horiz-adv-x="990" arabic-form="isolated" 
d="M744 94.5q-116 -106.5 -355 -106.5q-140 0 -207.5 67.5t-67.5 195.5q0 75 20 206h18q-4 -81 18 -127t77.5 -67t157.5 -21q136 0 232.5 21.5t144.5 55.5t48 69q0 52 -62.5 139.5t-163.5 183t-211 170.5q21 54 44 120t28 96h12q8 -10 47 -47q84 -79 153.5 -160t126 -202
t56.5 -261q0 -226 -116 -332.5zM410.5 1376q-47.5 39 -82.5 55v12l123 151q45 -21 94 -63.5t70 -79.5l-133 -145q-24 31 -71.5 70z" />
    <glyph glyph-name="uni0631" unicode="&#x631;" horiz-adv-x="843" arabic-form="isolated" 
d="M107.5 -515.5q-48.5 16.5 -113.5 47.5q-48 23 -82 35v12q173 26 354.5 118t301 206t119.5 200q0 43 -61 128t-179 196q25 39 56 104t48 117h12q45 -84 75 -151t52 -150.5t22 -173.5q0 -205 -70 -366t-185.5 -250t-246.5 -89q-54 0 -102.5 16.5z" />
    <glyph glyph-name="uni0632" unicode="&#x632;" horiz-adv-x="843" arabic-form="isolated" 
d="M107.5 -515.5q-48.5 16.5 -113.5 47.5q-48 23 -82 35v12q173 26 354.5 118t301 206t119.5 200q0 43 -61 128t-179 196q25 39 56 104t48 117h12q45 -84 75 -151t52 -150.5t22 -173.5q0 -205 -70 -366t-185.5 -250t-246.5 -89q-54 0 -102.5 16.5zM467.5 903
q-47.5 39 -82.5 55v12l123 151q45 -21 94 -63.5t70 -79.5l-133 -145q-24 31 -71.5 70z" />
    <glyph glyph-name="uni0633" unicode="&#x633;" horiz-adv-x="2446" arabic-form="isolated" 
d="M2218 800q42 -101 69.5 -198t27.5 -225q0 -179 -70.5 -278t-201.5 -99q-111 0 -169.5 65t-51.5 186h-13q-24 -124 -98 -187.5t-183 -63.5q-133 0 -207 100q-10 -203 -96.5 -348t-236 -221t-346.5 -76q-164 0 -278.5 59.5t-174 173t-59.5 273.5q0 243 103 472h19
q-31 -82 -48 -171.5t-17 -164.5q0 -123 56.5 -210t164.5 -132.5t261 -45.5q179 0 321 55t221.5 144.5t79.5 188.5q0 39 -40.5 128.5t-124.5 238.5q19 26 45.5 85.5t43.5 114.5h13q47 -158 98.5 -248t108 -126t128.5 -36q92 0 150 27t91.5 88t49.5 167h19q-3 -31 -10.5 -86.5
t-16.5 -113.5q30 -39 87 -60.5t130 -21.5q59 0 110.5 14t82 36.5t30.5 46.5q0 44 -47 115.5t-146 157.5q26 38 54 96t46 116h10q11 -26 15 -36z" />
    <glyph glyph-name="uni0634" unicode="&#x634;" horiz-adv-x="2446" arabic-form="isolated" 
d="M2218 800q42 -101 69.5 -198t27.5 -225q0 -179 -70.5 -278t-201.5 -99q-111 0 -169.5 65t-51.5 186h-13q-24 -124 -98 -187.5t-183 -63.5q-133 0 -207 100q-10 -203 -96.5 -348t-236 -221t-346.5 -76q-164 0 -278.5 59.5t-174 173t-59.5 273.5q0 243 103 472h19
q-31 -82 -48 -171.5t-17 -164.5q0 -123 56.5 -210t164.5 -132.5t261 -45.5q179 0 321 55t221.5 144.5t79.5 188.5q0 39 -40.5 128.5t-124.5 238.5q19 26 45.5 85.5t43.5 114.5h13q47 -158 98.5 -248t108 -126t128.5 -36q92 0 150 27t91.5 88t49.5 167h19q-3 -31 -10.5 -86.5
t-16.5 -113.5q30 -39 87 -60.5t130 -21.5q59 0 110.5 14t82 36.5t30.5 46.5q0 44 -47 115.5t-146 157.5q26 38 54 96t46 116h10q11 -26 15 -36zM1660 1128.5q-43 33.5 -75 47.5v12l108 136q42 -19 85.5 -55t63.5 -63l-110 -140q-29 29 -72 62.5zM1981 925.5
q-20 -51.5 -27 -79.5q-105 -8 -210.5 -12t-160.5 -4q-86 0 -126.5 17.5t-40.5 61.5q0 21 15 64q13 38 18 65h12q0 -29 35 -41.5t117 -12.5q42 0 181.5 5t220.5 11q-14 -23 -34 -74.5z" />
    <glyph glyph-name="uni0635" unicode="&#x635;" horiz-adv-x="2476" arabic-form="isolated" 
d="M2209.5 830.5q65.5 -42.5 100.5 -120t35 -180.5q0 -159 -77.5 -279t-220.5 -185.5t-335 -65.5q-269 0 -390 139q-3 -215 -87.5 -369t-237 -234.5t-355.5 -80.5q-164 0 -278.5 59.5t-174 173t-59.5 273.5q0 243 103 472h19q-31 -82 -48 -171.5t-17 -164.5
q0 -123 56.5 -210t164.5 -132.5t261 -45.5q179 0 321 55t221.5 144.5t79.5 188.5q0 39 -40.5 128.5t-124.5 238.5q19 26 45.5 85.5t43.5 114.5h13q37 -125 88 -206.5t119 -127.5q175 285 323 414t296 129q90 0 155.5 -42.5zM2043 276.5q125 22.5 194 62.5t69 91
q0 54 -37 110.5t-106 94t-160 37.5q-87 0 -187.5 -45t-195.5 -125t-168 -182q59 -35 133 -50.5t170 -15.5q163 0 288 22.5z" />
    <glyph glyph-name="uni0636" unicode="&#x636;" horiz-adv-x="2476" arabic-form="isolated" 
d="M2209.5 830.5q65.5 -42.5 100.5 -120t35 -180.5q0 -159 -77.5 -279t-220.5 -185.5t-335 -65.5q-269 0 -390 139q-3 -215 -87.5 -369t-237 -234.5t-355.5 -80.5q-164 0 -278.5 59.5t-174 173t-59.5 273.5q0 243 103 472h19q-31 -82 -48 -171.5t-17 -164.5
q0 -123 56.5 -210t164.5 -132.5t261 -45.5q179 0 321 55t221.5 144.5t79.5 188.5q0 39 -40.5 128.5t-124.5 238.5q19 26 45.5 85.5t43.5 114.5h13q37 -125 88 -206.5t119 -127.5q175 285 323 414t296 129q90 0 155.5 -42.5zM2043 276.5q125 22.5 194 62.5t69 91
q0 54 -37 110.5t-106 94t-160 37.5q-87 0 -187.5 -45t-195.5 -125t-168 -182q59 -35 133 -50.5t170 -15.5q163 0 288 22.5zM1922.5 1149q-47.5 39 -82.5 55v12l123 151q45 -21 94 -63.5t70 -79.5l-133 -145q-24 31 -71.5 70z" />
    <glyph glyph-name="uni0637" unicode="&#x637;" horiz-adv-x="1442" arabic-form="isolated" 
d="M1176.5 830.5q65.5 -42.5 100.5 -120t35 -180.5q0 -159 -77.5 -279t-220.5 -185.5t-335 -65.5q-156 0 -250 28.5t-145.5 73.5t-117.5 129q-24 32 -51 63v12q113 -25 229 -37q57 91 91.5 168t52.5 167.5t18 207.5q0 113 -19.5 339t-34.5 308q39 41 85 102.5t79 114.5h12
q0 -25 8 -249q13 -323 13 -412q0 -106 -18 -190.5t-66.5 -189t-145.5 -265.5h12q116 181 213.5 291t189 161t187.5 51q90 0 155.5 -42.5zM1010 276.5q125 22.5 194 62.5t69 91q0 54 -37 110.5t-106 94t-160 37.5q-93 0 -199.5 -51t-208 -143.5t-178.5 -212.5
q135 -11 338 -11q163 0 288 22.5z" />
    <glyph glyph-name="uni0638" unicode="&#x638;" horiz-adv-x="1441" arabic-form="isolated" 
d="M1175.5 830.5q65.5 -42.5 100.5 -120t35 -180.5q0 -159 -77.5 -279t-220.5 -185.5t-335 -65.5q-156 0 -250 28.5t-145.5 73.5t-117.5 129q-24 32 -51 63v12q113 -25 229 -37q57 91 91.5 168t52.5 167.5t18 207.5q0 113 -19.5 339t-34.5 308q39 41 85 102.5t79 114.5h12
q0 -25 8 -249q13 -323 13 -412q0 -106 -18 -190.5t-66.5 -189t-145.5 -265.5h12q116 181 213.5 291t189 161t187.5 51q90 0 155.5 -42.5zM1009 276.5q125 22.5 194 62.5t69 91q0 54 -37 110.5t-106 94t-160 37.5q-93 0 -199.5 -51t-208 -143.5t-178.5 -212.5
q135 -11 338 -11q163 0 288 22.5zM955.5 1149q-47.5 39 -82.5 55v12l123 151q45 -21 94 -63.5t70 -79.5l-133 -145q-24 31 -71.5 70z" />
    <glyph glyph-name="uniFEC9" unicode="&#x639;" horiz-adv-x="1334" arabic-form="isolated" 
d="M1003 -516.5q136 11.5 231 32.5v-12l-66 -49q-83 -63 -149.5 -104.5t-162.5 -71t-216 -29.5q-158 0 -272.5 54t-176 158.5t-61.5 253.5q0 184 91 333.5t276 252.5q-142 25 -210.5 109t-68.5 218q0 137 59 253.5t157 184.5t209 68q115 0 179.5 -59t64.5 -156
q0 -48 -14 -94h-12q0 57 -63 90.5t-174 33.5q-88 0 -172.5 -33t-138 -88.5t-53.5 -121.5q0 -64 44 -117t124.5 -84.5t184.5 -31.5q124 0 253.5 20t228.5 55l2 -11q-24 -24 -64.5 -94t-69.5 -133q-248 -47 -429.5 -132t-275.5 -183.5t-94 -187.5q0 -100 68 -176t201.5 -118
t321.5 -42q112 0 248 11.5z" />
    <glyph glyph-name="uni063A" unicode="&#x63a;" horiz-adv-x="1334" arabic-form="isolated" 
d="M1003 -516.5q136 11.5 231 32.5v-12l-66 -49q-83 -63 -149.5 -104.5t-162.5 -71t-216 -29.5q-158 0 -272.5 54t-176 158.5t-61.5 253.5q0 184 91 333.5t276 252.5q-142 25 -210.5 109t-68.5 218q0 137 59 253.5t157 184.5t209 68q115 0 179.5 -59t64.5 -156
q0 -48 -14 -94h-12q0 57 -63 90.5t-174 33.5q-88 0 -172.5 -33t-138 -88.5t-53.5 -121.5q0 -64 44 -117t124.5 -84.5t184.5 -31.5q124 0 253.5 20t228.5 55l2 -11q-24 -24 -64.5 -94t-69.5 -133q-248 -47 -429.5 -132t-275.5 -183.5t-94 -187.5q0 -100 68 -176t201.5 -118
t321.5 -42q112 0 248 11.5zM534.5 1399q-47.5 39 -82.5 55v12l123 151q45 -21 94 -63.5t70 -79.5l-133 -145q-24 31 -71.5 70z" />
    <glyph glyph-name="uni0641" unicode="&#x641;" horiz-adv-x="1945" arabic-form="isolated" 
d="M1653 1108q78 -71 120 -213t42 -349q0 -204 -95.5 -325t-313.5 -177t-594 -56q-244 0 -394 47.5t-219 142t-69 239.5q0 80 16 168.5t56 196.5h19q-18 -63 -26.5 -115t-8.5 -109q0 -94 68.5 -165t214.5 -111t370 -40q311 0 523.5 35t316.5 91t106 119q1 17 1 49
q0 113 -28 198l5 -25l-8 -3q-21 -119 -113 -187t-231 -68q-137 0 -206 70t-69 194q0 127 40.5 233t115.5 168.5t174 62.5q109 0 187 -71zM1613.5 680q81.5 22 142.5 61q-40 123 -126 191t-200 68q-67 0 -127.5 -30t-97 -76.5t-36.5 -93.5q0 -32 26.5 -64.5t86.5 -55
t156 -22.5q94 0 175.5 22zM1369.5 1473q-47.5 39 -82.5 55v12l123 151q45 -21 94 -63.5t70 -79.5l-133 -145q-24 31 -71.5 70z" />
    <glyph glyph-name="uni0642" unicode="&#x642;" horiz-adv-x="1454" arabic-form="isolated" 
d="M1231.5 744q91.5 -165 91.5 -493q0 -226 -83.5 -384.5t-237 -239.5t-360.5 -81q-164 0 -278.5 59.5t-174 173t-59.5 273.5q0 237 103 472h21q-32 -81 -49 -170t-17 -166q0 -122 56.5 -209.5t164.5 -133t261 -45.5q180 0 323 55t223 144t80 188q0 103 -17 191h-1
q-13 -79 -59 -137t-119.5 -89t-166.5 -31q-148 0 -221 79.5t-73 229.5q0 130 43 240t119.5 174.5t171.5 64.5q167 0 258.5 -165zM1109.5 378.5q76.5 18.5 155.5 59.5q-39 140 -123.5 212.5t-203.5 72.5q-68 0 -129 -30.5t-97.5 -78.5t-36.5 -99q0 -66 64 -110.5t206 -44.5
q88 0 164.5 18.5zM1221 1245.5q-20 -54.5 -28 -84.5q-105 -8 -210.5 -12t-160.5 -4q-86 0 -126.5 17.5t-40.5 61.5q0 20 15 69q14 43 18 69h12q0 -30 34.5 -42t117.5 -12q56 0 190.5 4t211.5 11q-13 -23 -33 -77.5z" />
    <glyph glyph-name="uni0643" unicode="&#x643;" horiz-adv-x="1783" arabic-form="isolated" 
d="M1447 194q-87 -106 -262.5 -156t-444.5 -50q-313 0 -461.5 106.5t-148.5 322.5q0 82 15 170t55 195h21q-20 -61 -28.5 -113t-8.5 -111q0 -93 65 -164t196 -111.5t322 -40.5q265 0 431 31t237.5 75.5t71.5 88.5q0 49 -79.5 129t-230.5 174t-355 184q21 48 52.5 132
t45.5 132q9 30 15.5 44t18.5 23.5t38 20.5l848 354l10 -5q-37 -65 -65.5 -129.5t-41.5 -114.5l-821 -278v-13q236 -114 365 -212.5t178 -194.5t49 -214q0 -169 -87 -275z" />
    <glyph glyph-name="uni0644" unicode="&#x644;" horiz-adv-x="1453" arabic-form="isolated" 
d="M1275.5 291.5q-27.5 -198.5 -87.5 -336.5q-53 -178 -199 -278t-371 -100q-154 0 -263.5 59t-167 172.5t-57.5 274.5q0 242 103 471h19q-31 -82 -48 -171.5t-17 -164.5q0 -123 55 -210t158 -132.5t245 -45.5q152 0 283.5 46t209.5 128t78 183q-3 163 -23 467t-44 579.5
t-37 346.5q40 42 86 103.5t78 113.5h12q0 -13 4 -241q11 -453 11 -725q0 -341 -27.5 -539.5z" />
    <glyph glyph-name="uni0645" unicode="&#x645;" horiz-adv-x="1163" arabic-form="isolated" 
d="M899.5 785.5q65.5 -56.5 99.5 -157t34 -231.5q0 -190 -68 -275.5t-183 -85.5q-94 0 -170.5 13t-168.5 35q-29 7 -53.5 12.5t-37.5 5.5q-60 0 -96.5 -52t-36.5 -138q0 -541 12 -664q-20 -20 -43 -55t-39 -66h-10q4 27 4 85q0 38 -4 196q-9 277 -9 465q0 146 31.5 252.5
t86.5 166t126 69.5q55 241 146 361t222 120q92 0 157.5 -56.5zM974 312.5q32 21.5 32 63.5q0 62 -34.5 127.5t-102 109.5t-161.5 44q-111 0 -189 -76t-122 -220q84 -27 218 -48.5t263 -21.5q64 0 96 21.5z" />
    <glyph glyph-name="uni0646" unicode="&#x646;" horiz-adv-x="1454" arabic-form="isolated" 
d="M1239 -101.5q-84 -157.5 -237.5 -239.5t-359.5 -82q-164 0 -278.5 59.5t-174 172.5t-59.5 274q0 236 103 471h21q-32 -81 -49 -170t-17 -166q0 -122 56.5 -209.5t164.5 -133t261 -45.5q179 0 321 55t221 144.5t79 188.5q0 53 -49.5 141t-151.5 208q25 38 56.5 103.5
t48.5 117.5h12q1 -4 20 -53q27 -68 46.5 -127.5t34.5 -145.5t15 -186q0 -220 -84 -377.5zM615.5 482q-47.5 39 -82.5 55v12l123 151q45 -21 94 -63.5t70 -79.5l-133 -145q-24 31 -71.5 70z" />
    <glyph glyph-name="uniFEE9" unicode="&#x647;" horiz-adv-x="922" arabic-form="isolated" 
d="M425 946q103 -63 177.5 -123.5t132 -161t57.5 -237.5q0 -216 -98 -326t-289 -110q-131 0 -203 66t-72 184q0 107 45.5 231.5t142.5 287.5l-65 30q19 37 44 106.5t34 108.5h9q20 -17 85 -56zM610 263q74 21 114 54.5t40 67.5q0 70 -108.5 165t-313.5 195
q-76 -133 -109.5 -215.5t-33.5 -144.5q0 -40 27.5 -72.5t82 -51.5t131.5 -19q96 0 170 21z" />
    <glyph glyph-name="uni0648" unicode="&#x648;" horiz-adv-x="994" arabic-form="isolated" 
d="M699 717.5q79 -70.5 122 -206t43 -327.5q0 -216 -75.5 -379t-200 -250t-269.5 -87q-57 0 -111.5 17t-131.5 49q-63 28 -101 39v12q190 16 391 98t333.5 198t132.5 231q0 79 -12 146l-4 -1q-20 -120 -112 -189t-232 -69q-148 0 -221 79t-73 229q0 131 43 241t119 175
t171 65q109 0 188 -70.5zM648.5 258q77.5 19 157.5 60q-37 135 -122.5 209.5t-206.5 74.5q-69 0 -130 -30.5t-97.5 -78.5t-36.5 -99q0 -65 64.5 -110t206.5 -45q87 0 164.5 19z" />
    <glyph glyph-name="uni0649" unicode="&#x649;" horiz-adv-x="1464" arabic-form="isolated" 
d="M1264.5 1035q54.5 -56 54.5 -152q0 -51 -14 -101h-12q1 57 -56 90.5t-150 33.5q-116 0 -216 -54t-159.5 -132t-59.5 -141q0 -70 68 -100.5t202 -35.5l139 -5q105 -4 164.5 -27t85.5 -71.5t26 -131.5q0 -193 -82 -335.5t-238.5 -219t-374.5 -76.5q-249 0 -380.5 131.5
t-131.5 374.5q0 242 103 471h19q-31 -82 -48 -171.5t-17 -164.5q0 -123 56.5 -210t164.5 -132.5t261 -45.5q201 0 345.5 48.5t218 120t73.5 139.5q0 24 -23 39t-80 24.5t-158 13.5l-142 5q-106 4 -169 26t-93.5 72t-30.5 140q0 140 71.5 288.5t188.5 246.5t245 98
q95 0 149.5 -56z" />
    <glyph glyph-name="uniFEF1" unicode="&#x64a;" horiz-adv-x="1464" arabic-form="isolated" 
d="M1264.5 1035q54.5 -56 54.5 -152q0 -51 -14 -101h-12q1 57 -56 90.5t-150 33.5q-116 0 -216 -54t-159.5 -132t-59.5 -141q0 -70 68 -100.5t202 -35.5l139 -5q105 -4 164.5 -27t85.5 -71.5t26 -131.5q0 -193 -82 -335.5t-238.5 -219t-374.5 -76.5q-249 0 -380.5 131.5
t-131.5 374.5q0 242 103 471h19q-31 -82 -48 -171.5t-17 -164.5q0 -123 56.5 -210t164.5 -132.5t261 -45.5q201 0 345.5 48.5t218 120t73.5 139.5q0 24 -23 39t-80 24.5t-158 13.5l-142 5q-106 4 -169 26t-93.5 72t-30.5 140q0 140 71.5 288.5t188.5 246.5t245 98
q95 0 149.5 -56z" />
    <glyph glyph-name="uni066E.fina" unicode="&#x66e;" horiz-adv-x="1993" 
d="M1739 72.5q-69 72.5 -69 220.5q0 56 10 128h-12q-66 -224 -279.5 -328.5t-576.5 -104.5q-244 0 -394 47.5t-219 142t-69 239.5q0 80 16 168.5t56 196.5h19q-18 -63 -26.5 -115t-8.5 -109q0 -94 68.5 -165t214.5 -111t370 -40q377 0 590.5 76t282.5 239h16q-8 -80 -8 -103
q0 -94 62.5 -147t210.5 -53l-42 -254q-143 0 -212 72.5z" />
    <glyph glyph-name="uni066F.fina" unicode="&#x66f;" horiz-adv-x="1463" 
d="M1421 0h-106q-23 -185 -111.5 -314t-232 -195t-329.5 -66q-164 0 -278.5 59.5t-174 173t-59.5 273.5q0 235 103 472h21q-32 -81 -49 -170.5t-17 -166.5q0 -122 56.5 -209t164.5 -133t261 -46q164 0 298 46t218 122.5t104 166.5v21q-90 -19 -172 -26.5t-185 -7.5
q-148 0 -221 79t-73 229q0 130 43 240t119.5 175t171.5 65q150 0 239.5 -134t106.5 -400h144zM739 283.5q64 -44.5 206 -44.5q208 0 337 6q-31 174 -120.5 265.5t-223.5 91.5q-68 0 -129 -30.5t-97.5 -78.5t-36.5 -99q0 -66 64 -110.5z" />
    <glyph glyph-name="uni0671" unicode="&#x671;" horiz-adv-x="470" arabic-form="isolated" 
d="M440.5 1944q33.5 -36 33.5 -99q0 -85 -64 -129t-171 -44q-63 0 -107.5 21.5t-65.5 57.5q-16 -21 -56.5 -51t-66.5 -40l9 68q36 21 72.5 50.5t56.5 57.5h8q8 -34 35 -53q66 105 122 151t109 46q52 0 85.5 -36zM401 1771.5q52 17.5 52 47.5q0 19 -13 39t-38 33.5t-60 13.5
q-53 0 -104.5 -35t-92.5 -100q40 -16 103 -16q101 0 153 17.5zM292 1551q0 -49 8 -191q9 -197 14.5 -346.5t5.5 -304.5q0 -169 -8 -276t-21 -174.5t-38 -163.5q-10 -37 -33 -131h-12q1 23 1 79q0 169 -16.5 446.5t-39 525t-36.5 320.5q40 40 83.5 99t79.5 117h12z" />
    <glyph glyph-name="uni067E" unicode="&#x67e;" horiz-adv-x="1836" arabic-form="isolated" 
d="M1617.5 209.5q-88.5 -110.5 -285 -166t-520.5 -55.5q-244 0 -394 47.5t-219 142t-69 239.5q0 80 16 168.5t56 196.5h19q-18 -63 -26.5 -115t-8.5 -109q0 -94 68.5 -165t214.5 -111t370 -40q285 0 474 35t276 83.5t87 90.5q0 48 -67 140.5t-144 159.5q24 29 54.5 94.5
t51.5 124.5h11q5 -16 20 -47q45 -100 74.5 -201t29.5 -231q0 -171 -88.5 -281.5zM595 -313.5q20 51.5 27 79.5q105 8 210.5 12t160.5 4q86 0 126.5 -17.5t40.5 -61.5q0 -21 -15 -64q-13 -38 -18 -65h-12q0 29 -35 41.5t-117 12.5q-42 0 -181.5 -5t-220.5 -11q14 23 34 74.5z
M794 -630.5q-43 33.5 -75 47.5v12l107 135q42 -19 85.5 -54.5t63.5 -63.5l-111 -137q-27 27 -70 60.5z" />
    <glyph glyph-name="uni0686" unicode="&#x686;" horiz-adv-x="1461" arabic-form="isolated" 
d="M596 916.5q76 -22.5 204 -70.5q158 -60 280 -95t251 -42v-12q-30 -28 -70 -87t-64 -111q-321 -67 -553.5 -163.5t-356 -214t-123.5 -245.5q0 -115 84.5 -207t233 -144.5t333.5 -52.5q130 0 272.5 10.5t240.5 31.5v-13l-78 -52q-88 -61 -159 -101t-173 -69t-230 -29
q-169 0 -295 64.5t-194.5 184t-68.5 280.5q0 203 91.5 351.5t285 257t505.5 190.5v12q-64 8 -131.5 27.5t-160.5 52.5q-112 38 -179.5 56.5t-127.5 18.5q-75 0 -128.5 -36t-90.5 -110h-12q37 135 76.5 208.5t86 102.5t110.5 29q65 0 141 -22.5zM725.5 -34q129.5 4 171.5 4
q78 0 110 -11t32 -38h11q4 20 16 58q15 43 15 62q0 41 -38 57.5t-118 16.5q-53 0 -151.5 -3.5t-195.5 -10.5q-6 -26 -25 -74t-32 -70q75 5 204.5 9zM848 -139q-40 33 -79 51l-100 -127v-12q29 -13 69 -43.5t66 -56.5l105 128q-21 27 -61 60z" />
    <glyph glyph-name="uni0695.fina" unicode="&#x695;" horiz-adv-x="921" 
d="M879 0q-50 0 -92 13.5t-80 44.5q-18 -174 -91 -308.5t-180.5 -208t-225.5 -73.5q-54 0 -102.5 16.5t-113.5 47.5q-48 23 -82 35v12q161 24 333 107.5t294.5 191t145.5 200.5q-52 49 -103 139t-105 231q19 27 45.5 86.5t43.5 113.5h13q46 -153 96 -239t109 -120.5
t137 -34.5zM499.5 -719.5q6.5 -24.5 13.5 -42.5q-79 -98 -116 -185.5t-53 -198.5l-13 -2q-9 112 -63.5 208.5t-136.5 166.5q11 16 24 42t19 46h12q8 -14 39 -55q47 -61 78 -118.5t46 -144.5h9q13 96 34.5 151t57.5 117q5 9 13 22.5t18 33.5h12q0 -16 6.5 -40.5z" />
    <glyph glyph-name="uni0698" unicode="&#x698;" horiz-adv-x="843" arabic-form="isolated" 
d="M107.5 -515.5q-48.5 16.5 -113.5 47.5q-48 23 -82 35v12q173 26 354.5 118t301 206t119.5 200q0 43 -61 128t-179 196q25 39 56 104t48 117h12q45 -84 75 -151t52 -150.5t22 -173.5q0 -205 -70 -366t-185.5 -250t-246.5 -89q-54 0 -102.5 16.5zM475 1155.5
q-43 33.5 -75 47.5v12l108 136q42 -19 85.5 -55t63.5 -63l-110 -140q-29 29 -72 62.5zM796 952.5q-20 -51.5 -27 -79.5q-105 -8 -210.5 -12t-160.5 -4q-86 0 -126.5 17.5t-40.5 61.5q0 21 15 64q13 38 18 65h12q0 -29 35 -41.5t117 -12.5q42 0 181.5 5t220.5 11
q-14 -23 -34 -74.5z" />
    <glyph glyph-name="uni06A0.init" unicode="&#x6a0;" horiz-adv-x="1097" 
d="M967 399q-26 -26 -73.5 -100.5t-74.5 -131.5q-106 -24 -285 -72q-122 -33 -202 -52t-173.5 -31t-200.5 -12q-28 0 -40 21.5t-12 63.5q0 169 94 169q77 0 185 10q-48 36 -73 93.5t-25 130.5q0 137 59 253.5t156.5 184.5t208.5 68q116 0 180.5 -59t64.5 -156q0 -48 -14 -94
h-12q0 57 -63.5 90.5t-173.5 33.5q-89 0 -174 -32.5t-138.5 -88.5t-53.5 -122q0 -63 45 -116.5t126 -85t184 -31.5q124 0 253.5 20.5t229.5 56.5zM417 1516.5q-43 33.5 -75 47.5v12l108 136q42 -19 85.5 -55t63.5 -63l-110 -140q-29 29 -72 62.5zM738 1313.5
q-20 -51.5 -27 -79.5q-105 -8 -210.5 -12t-160.5 -4q-86 0 -126.5 17.5t-40.5 61.5q0 21 15 64q13 38 18 65h12q0 -29 35 -41.5t117 -12.5q42 0 181.5 5t220.5 11q-14 -23 -34 -74.5z" />
    <glyph glyph-name="uni06A0.medi" unicode="&#x6a0;" horiz-adv-x="1164" 
d="M1164 254l-43 -254h-55q-136 0 -230 16.5t-164 58.5t-120 119q-107 -77 -194.5 -118.5t-180.5 -58.5t-219 -17q-28 0 -40 21.5t-12 63.5q0 169 94 169q151 0 258 12t191 39q-56 81 -217 282l-46 57q-64 -22 -122 -50l-12 12q18 39 41.5 94t32.5 88q98 48 239.5 80
t260.5 32q244 0 455 -100q-14 -21 -36 -70.5t-40 -102.5q-102 -125 -315 -318q57 -32 150.5 -43.5t259.5 -11.5h64zM408.5 698.5q-102.5 -16.5 -197.5 -46.5l35 -29q226 -184 321 -268q197 111 423 290q-173 70 -387 70q-92 0 -194.5 -16.5zM526 1492.5q-43 33.5 -75 47.5
v12l108 136q42 -19 85.5 -55t63.5 -63l-110 -140q-29 29 -72 62.5zM847 1289.5q-20 -51.5 -27 -79.5q-105 -8 -210.5 -12t-160.5 -4q-86 0 -126.5 17.5t-40.5 61.5q0 21 15 64q13 38 18 65h12q0 -29 35 -41.5t117 -12.5q42 0 181.5 5t220.5 11q-14 -23 -34 -74.5z" />
    <glyph glyph-name="uni06A0.fina" unicode="&#x6a0;" horiz-adv-x="1290" 
d="M261 -360q68 -81 200.5 -124.5t322.5 -43.5q112 0 247.5 11.5t231.5 32.5v-12l-66 -49q-83 -63 -149.5 -104.5t-162.5 -71t-216 -29.5q-159 0 -273 55t-175.5 165t-61.5 270q0 174 80.5 319t267.5 293q-31 45 -79.5 107.5t-94.5 119.5l-70 88q-64 -22 -121 -50l-12 12
q15 29 39.5 88.5t33.5 93.5q100 48 241.5 80.5t258.5 32.5q234 0 455 -100q-14 -23 -36 -72.5t-38 -100.5q-105 -126 -323 -323q43 -31 99 -46.5t140 -21.5t224 -6h66l-42 -254h-60q-167 0 -271 20t-180 74t-137 159q-219 -120 -313 -222.5t-94 -198.5q0 -111 68 -192z
M485 722q-102 -17 -197 -47l84 -69q25 -21 117 -96.5t155 -130.5q209 117 423 288q-176 72 -388 72q-92 0 -194 -17zM599 1492.5q-43 33.5 -75 47.5v12l108 136q42 -19 85.5 -55t63.5 -63l-110 -140q-29 29 -72 62.5zM920 1289.5q-20 -51.5 -27 -79.5q-105 -8 -210.5 -12
t-160.5 -4q-86 0 -126.5 17.5t-40.5 61.5q0 21 15 64q13 38 18 65h12q0 -29 35 -41.5t117 -12.5q42 0 181.5 5t220.5 11q-14 -23 -34 -74.5z" />
    <glyph glyph-name="uni06A1.init" unicode="&#x6a1;" horiz-adv-x="897" 
d="M603.5 1107.5q78.5 -71.5 120.5 -214t42 -351.5q0 -193 -76.5 -311.5t-241.5 -174.5t-436 -56h-54q-52 0 -52 85q0 83 24.5 126t69.5 43h55q237 0 389.5 32.5t222 85t69.5 115.5q1 15 1 45q0 106 -26 192l2 -15l-7 -3q-21 -119 -113 -187t-232 -68q-136 0 -205 70
t-69 194q0 127 40 233t114.5 168.5t173.5 62.5q110 0 188.5 -71.5zM563.5 679.5q81.5 21.5 142.5 60.5q-40 123 -126 191.5t-199 68.5q-68 0 -128 -30t-96 -76.5t-36 -93.5q0 -32 26 -64.5t85.5 -55t155.5 -22.5q94 0 175.5 21.5z" />
    <glyph glyph-name="uni06A1.medi" unicode="&#x6a1;" horiz-adv-x="855" 
d="M855 254l-43 -254q-197 0 -298 33t-141 104q-55 -74 -151.5 -105.5t-263.5 -31.5q-52 0 -52 85q0 83 24.5 126t69.5 43q106 0 175 8q-63 68 -63 162q0 127 49 236t130 173t172 64q82 0 145.5 -44t98.5 -123.5t35 -184.5q0 -88 -33 -161t-95 -124q87 -6 241 -6zM181 435
q32 -46 90.5 -89t133.5 -71q99 23 166.5 56.5t101 70.5t33.5 73q0 61 -38 115.5t-101 88t-134 33.5q-69 0 -135 -29t-107.5 -74.5t-41.5 -90.5q0 -37 32 -83z" />
    <glyph glyph-name="uni06A1.fina" unicode="&#x6a1;" horiz-adv-x="1967" 
d="M1967 254l-43 -254q-192 0 -292.5 34t-139.5 104q-80 -78 -241.5 -114t-438.5 -36q-244 0 -394 47.5t-219 142t-69 239.5q0 80 16 168.5t56 196.5h19q-18 -63 -26.5 -115t-8.5 -109q0 -94 68.5 -165t214.5 -111t370 -40q148 0 258 4.5t198 15.5q-63 68 -63 162
q0 127 49 236t129.5 173t171.5 64q82 0 145 -44t98 -123.5t35 -184.5q0 -89 -33 -162t-96 -124q95 -5 236 -5zM1417.5 683q-66.5 -29 -107.5 -74.5t-41 -90.5q0 -37 32 -83t90.5 -89t133.5 -71q98 23 166 56.5t101.5 70.5t33.5 73q0 61 -38 115.5t-101 88t-133 33.5
t-136.5 -29z" />
    <glyph glyph-name="uni06A4" unicode="&#x6a4;" horiz-adv-x="1945" arabic-form="isolated" 
d="M1653 1108q78 -71 120 -213t42 -349q0 -204 -95.5 -325t-313.5 -177t-594 -56q-244 0 -394 47.5t-219 142t-69 239.5q0 80 16 168.5t56 196.5h19q-18 -63 -26.5 -115t-8.5 -109q0 -94 68.5 -165t214.5 -111t370 -40q311 0 523.5 35t316.5 91t106 119q1 17 1 49
q0 113 -28 198l5 -25l-8 -3q-21 -119 -113 -187t-231 -68q-137 0 -206 70t-69 194q0 127 40.5 233t115.5 168.5t174 62.5q109 0 187 -71zM1613.5 680q81.5 22 142.5 61q-40 123 -126 191t-200 68q-67 0 -127.5 -30t-97 -76.5t-36.5 -93.5q0 -32 26.5 -64.5t86.5 -55
t156 -22.5q94 0 175.5 22zM1377 1725.5q-43 33.5 -75 47.5v12l108 136q42 -19 85.5 -55t63.5 -63l-110 -140q-29 29 -72 62.5zM1698 1522.5q-20 -51.5 -27 -79.5q-105 -8 -210.5 -12t-160.5 -4q-86 0 -126.5 17.5t-40.5 61.5q0 21 15 64q13 38 18 65h12q0 -29 35 -41.5
t117 -12.5q42 0 181.5 5t220.5 11q-14 -23 -34 -74.5z" />
    <glyph glyph-name="uni06A9" unicode="&#x6a9;" horiz-adv-x="1783" arabic-form="isolated" 
d="M1447 194q-87 -106 -262.5 -156t-444.5 -50q-313 0 -461.5 106.5t-148.5 322.5q0 82 15 170t55 195h21q-20 -61 -28.5 -113t-8.5 -111q0 -93 65 -164t196 -111.5t322 -40.5q265 0 431 31t237.5 75.5t71.5 88.5q0 49 -79.5 129t-230.5 174t-355 184q21 48 52.5 132
t45.5 132q9 30 15.5 44t18.5 23.5t38 20.5l848 354l10 -5q-37 -65 -65.5 -129.5t-41.5 -114.5l-821 -278v-13q236 -114 365 -212.5t178 -194.5t49 -214q0 -169 -87 -275z" />
    <glyph glyph-name="uni06AA.init" unicode="&#x6aa;" horiz-adv-x="2009" 
d="M1709.5 730.5q78.5 -45.5 124 -122t45.5 -166.5q0 -162 -81 -259t-242 -140t-413 -43h-1185q-52 0 -52 85q0 83 24.5 126t69.5 43h1155q362 0 526 34t164 91q0 47 -40.5 98t-115.5 85.5t-172 34.5q-66 0 -208 -7q-166 -8 -336 -12.5t-441 -4.5q-173 0 -268 19t-134 60.5
t-39 113.5q0 93 37 161.5t99 97.5q298 130 453.5 201t234.5 114t115 75h12q-5 -21 -12 -67q-8 -53 -18.5 -86.5t-41.5 -66t-91 -61.5q-95 -47 -252 -103.5t-387 -133.5l-101 -34q-3 -42 32.5 -66t125.5 -35t254 -11q269 0 432.5 5t344.5 13q142 7 208 7q95 0 173.5 -45.5z
" />
    <glyph glyph-name="uni06AA.medi" unicode="&#x6aa;" horiz-adv-x="2096" 
d="M2096 254l-42 -254q-103 0 -158.5 57.5t-60.5 181.5q-66 -127 -235.5 -183t-456.5 -56h-1185q-52 0 -52 85q0 83 24.5 126t69.5 43h1155q362 0 526 34t164 91q0 47 -40.5 98t-115.5 85.5t-172 34.5q-66 0 -208 -7q-166 -8 -336 -12.5t-441 -4.5q-173 0 -268 19t-134 60.5
t-39 113.5q0 93 37 161.5t99 97.5q298 130 453.5 201t234.5 114t115 75h12q-5 -21 -12 -67q-8 -53 -18.5 -86.5t-41.5 -66t-91 -61.5q-95 -47 -252 -103.5t-387 -133.5l-101 -34q-3 -42 32.5 -66t125.5 -35t254 -11q269 0 432.5 5t344.5 13q142 7 208 7q95 0 173.5 -45.5
t124 -122t45.5 -166.5q0 -86 -22 -151q66 -37 222 -37h17z" />
    <glyph glyph-name="uni06AA.fina" unicode="&#x6aa;" horiz-adv-x="2444" 
d="M2444 254l-42 -254q-103 0 -158.5 58.5t-60.5 183.5q-28 -53 -70 -91t-96 -58q-141 -56 -458.5 -80.5t-826.5 -24.5q-174 0 -280.5 31t-162.5 76.5t-122 124.5q-34 42 -53 62v12q131 -29 277 -40.5t368 -11.5q485 0 806 18t474 49t153 70q0 47 -40.5 98t-115 85.5
t-171.5 34.5q-66 0 -208 -7q-166 -8 -336 -12.5t-441 -4.5q-172 0 -267 19t-134 60.5t-39 113.5q0 93 36.5 161.5t99.5 97.5q296 129 451.5 200t235 114t116.5 76h12q-5 -21 -12 -67q-8 -53 -18.5 -86.5t-41.5 -66t-91 -61.5q-98 -49 -264.5 -108.5t-391.5 -133.5l-86 -29
q-2 -42 34.5 -66t126.5 -35t254 -11q269 0 431.5 5t345.5 13q140 7 207 7q95 0 173.5 -45.5t124 -122t45.5 -166.5q0 -83 -24 -151q66 -37 224 -37h16z" />
    <glyph glyph-name="uni06AC.init" unicode="&#x6ac;" horiz-adv-x="948" 
d="M626.5 192.5q-72.5 -102.5 -222 -147.5t-392.5 -45h-54q-28 0 -40 21.5t-12 63.5q0 169 94 169h51q214 0 353 24t203.5 65t64.5 94q0 49 -79.5 128.5t-231 174t-355.5 184.5q21 48 53 132t47 132q8 29 14.5 43.5t19 24t38.5 20.5l846 354l12 -5q-36 -61 -64.5 -125.5
t-44.5 -118.5l-821 -278v-13q237 -114 365.5 -212.5t178 -194.5t49.5 -214q0 -174 -72.5 -276.5zM349.5 1612q-47.5 39 -82.5 55v12l123 151q45 -21 94 -63.5t70 -79.5l-133 -145q-24 31 -71.5 70z" />
    <glyph glyph-name="uni06AC.medi" unicode="&#x6ac;" horiz-adv-x="1296" 
d="M1048.5 48q-88.5 48 -173.5 153t-206 304h-12q4 -24 4 -36q-8 -167 -71.5 -268.5t-202.5 -151t-375 -49.5h-54q-28 0 -40 21.5t-12 63.5q0 169 94 169h51q204 0 334 24.5t188.5 64t58.5 86.5q0 93 -140.5 213.5t-485.5 281.5q21 48 53 132t47 132q8 30 14.5 44.5
t19.5 24.5t38 19l967 354l12 -5q-37 -62 -65 -126.5t-43 -117.5l-943 -278v-13q200 -90 331 -176.5t211 -165t189 -205.5q58 -67 95 -109q89 -99 171 -139.5t193 -40.5l-40 -254q-119 0 -207.5 48zM349.5 1612q-47.5 39 -82.5 55v12l123 151q45 -21 94 -63.5t70 -79.5
l-133 -145q-24 31 -71.5 70z" />
    <glyph glyph-name="uni06AC.fina" unicode="&#x6ac;" horiz-adv-x="2132" 
d="M1883.5 48q-88.5 48 -173.5 153t-206 304h-13q6 -18 6 -36q-9 -169 -83 -273.5t-236 -156t-438 -51.5q-313 0 -461.5 106.5t-148.5 322.5q0 82 15 170t55 195h21q-20 -61 -28.5 -113t-8.5 -111q0 -93 65 -164t196 -111.5t322 -40.5q259 0 416 30.5t221 73t64 83.5
q0 93 -140.5 213.5t-485.5 281.5q21 48 52.5 132t45.5 132q9 31 15.5 45t19 24t37.5 19l969 354l10 -5q-37 -65 -65 -129.5t-41 -114.5l-943 -278v-13q201 -91 332 -177.5t211.5 -165.5t187.5 -205q73 -85 94 -108q90 -99 172 -139.5t193 -40.5l-40 -254q-120 0 -208.5 48z
M413.5 1064q-47.5 39 -82.5 55v12l123 151q45 -21 94 -63.5t70 -79.5l-133 -145q-24 31 -71.5 70z" />
    <glyph glyph-name="uni06AF" unicode="&#x6af;" horiz-adv-x="1783" arabic-form="isolated" 
d="M1682 1697l-676 -297l27 76l697 312zM1447 194q-87 -106 -262.5 -156t-444.5 -50q-313 0 -461.5 106.5t-148.5 322.5q0 82 15 170t55 195h21q-20 -61 -28.5 -113t-8.5 -111q0 -93 65 -164t196 -111.5t322 -40.5q265 0 431 31t237.5 75.5t71.5 88.5q0 49 -79.5 129
t-230.5 174t-355 184q21 48 52.5 132t45.5 132q9 30 15.5 44t18.5 23.5t38 20.5l848 354l10 -5q-37 -65 -65.5 -129.5t-41.5 -114.5l-821 -278v-13q236 -114 365 -212.5t178 -194.5t49 -214q0 -169 -87 -275z" />
    <glyph glyph-name="uni06B5.init" unicode="&#x6b5;" horiz-adv-x="517" 
d="M348 434q-18 -102 -53.5 -196.5t-85.5 -158.5q-33 -44 -90.5 -61.5t-154.5 -17.5q-26 0 -42 23t-16 64q0 167 94 167q142 0 213.5 27.5t71.5 72.5q0 98 -24.5 329.5t-56 465t-46.5 310.5q40 41 86.5 102t79.5 115h12q0 -25 3 -111t5 -146q10 -257 16 -446.5t6 -348.5
q0 -88 -18 -190zM396.5 2155.5q6.5 -24.5 13.5 -42.5q-79 -98 -116 -185.5t-53 -198.5l-13 -2q-9 112 -63.5 208.5t-136.5 166.5q11 16 24 42t19 46h12q8 -14 39 -55q47 -61 78 -118.5t46 -144.5h9q13 96 34.5 151t57.5 117q5 9 13 22.5t18 33.5h12q0 -16 6.5 -40.5z" />
    <glyph glyph-name="uni06B5.medi" unicode="&#x6b5;" horiz-adv-x="693" 
d="M465.5 2155.5q6.5 -24.5 13.5 -42.5q-79 -98 -116 -185.5t-53 -198.5l-13 -2q-9 112 -63.5 208.5t-136.5 166.5q11 16 24 42t19 46h12q8 -14 39 -55q47 -61 78 -118.5t46 -144.5h9q13 96 34.5 151t57.5 117q5 9 13 22.5t18 33.5h12q0 -16 6.5 -40.5zM310 334q0 24 1 36
h-12q-3 -136 -41.5 -217.5t-111 -117t-182.5 -35.5q-26 0 -42 21.5t-16 63.5q0 169 94 169q285 0 285 200q-7 337 -15.5 512.5t-20 269.5t-34.5 212q65 64 166 228h12q0 -52 5 -135q7 -161 7 -262q0 -119 -6 -369q-6 -252 -6 -374q0 -103 29.5 -164t94.5 -89.5t176 -28.5
l-42 -254q-341 0 -341 334z" />
    <glyph glyph-name="uni06B5.fina" unicode="&#x6b5;" horiz-adv-x="1578" 
d="M1356 58q-65 58 -72 172h-12q1 -110 -21.5 -217.5t-62.5 -178.5q-53 -178 -199 -278.5t-371 -100.5q-154 0 -263.5 59.5t-167 173t-57.5 273.5q0 243 103 472h19q-31 -82 -48 -171.5t-17 -164.5q0 -123 55 -210t158 -132.5t245 -45.5q152 0 283.5 46t209.5 128t78 183
q-3 163 -23 467t-44 579t-37 347q40 42 86 103.5t78 113.5h12q0 -469 11 -869q4 -190 4 -226q0 -124 27 -195t86.5 -101.5t161.5 -30.5l-42 -254q-115 0 -180 58zM787.5 1131.5q6.5 -24.5 13.5 -42.5q-79 -98 -116 -185.5t-53 -198.5l-13 -2q-9 112 -63.5 208.5
t-136.5 166.5q11 16 24 42t19 46h12q8 -14 39 -55q47 -61 78 -118.5t46 -144.5h9q13 96 34.5 151t57.5 117q5 9 13 22.5t18 33.5h12q0 -16 6.5 -40.5z" />
    <glyph glyph-name="uni06BA" unicode="&#x6ba;" horiz-adv-x="1454" arabic-form="isolated" 
d="M1239 -101.5q-84 -157.5 -237.5 -239.5t-359.5 -82q-164 0 -278.5 59.5t-174 172.5t-59.5 274q0 236 103 471h21q-32 -81 -49 -170t-17 -166q0 -122 56.5 -209.5t164.5 -133t261 -45.5q179 0 321 55t221 144.5t79 188.5q0 53 -49.5 141t-151.5 208q25 38 56.5 103.5
t48.5 117.5h12q1 -4 20 -53q27 -68 46.5 -127.5t34.5 -145.5t15 -186q0 -220 -84 -377.5z" />
    <glyph glyph-name="uni06BD.init" unicode="&#x6bd;" horiz-adv-x="579" 
d="M397.5 178.5q-50.5 -89.5 -158.5 -134t-281 -44.5q-28 0 -40 21.5t-12 63.5q0 169 94 169q124 0 219.5 15t147.5 41t52 57q0 32 -32.5 86t-82.5 112.5t-99 100.5q24 30 56.5 96.5t52.5 122.5h10q3 -7 19 -44q44 -99 74.5 -201.5t30.5 -233.5q0 -138 -50.5 -227.5z
M-163 -313.5q20 51.5 27 79.5q105 8 210.5 12t160.5 4q86 0 126.5 -17.5t40.5 -61.5q0 -21 -15 -64q-13 -38 -18 -65h-12q0 29 -35 41.5t-117 12.5q-42 0 -181.5 -5t-220.5 -11q14 23 34 74.5zM36 -630.5q-43 33.5 -75 47.5v12l107 135q42 -19 85.5 -54.5t63.5 -63.5
l-111 -137q-27 27 -70 60.5z" />
    <glyph glyph-name="uni06BD.medi" unicode="&#x6bd;" horiz-adv-x="763" 
d="M514.5 67q-73.5 67 -73.5 228q0 21 4 75h-12q-9 -134 -60.5 -215t-152.5 -118t-262 -37q-28 0 -40 21.5t-12 63.5q0 169 94 169q184 0 276.5 29.5t133.5 100.5t62 216h19v-103q0 -86 25 -139t84 -78.5t163 -25.5l-42 -254q-133 0 -206.5 67zM-175 -313.5q20 51.5 27 79.5
q105 8 210.5 12t160.5 4q86 0 126.5 -17.5t40.5 -61.5q0 -21 -15 -64q-13 -38 -18 -65h-12q0 29 -35 41.5t-117 12.5q-42 0 -181.5 -5t-220.5 -11q14 23 34 74.5zM24 -630.5q-43 33.5 -75 47.5v12l107 135q42 -19 85.5 -54.5t63.5 -63.5l-111 -137q-27 27 -70 60.5z" />
    <glyph glyph-name="uni06BD.fina" unicode="&#x6bd;" horiz-adv-x="1554" 
d="M1326 415q48 -89 102.5 -125t125.5 -36l-43 -254q-118 0 -189 98q-11 -202 -97.5 -347t-236 -220.5t-346.5 -75.5q-164 0 -278.5 59.5t-174 173t-59.5 273.5q0 237 103 472h21q-32 -81 -49 -170t-17 -166q0 -122 56.5 -209.5t164.5 -133t261 -45.5q179 0 321 55
t221 144.5t79 188.5q0 79 -165 367q19 27 46.5 87t44.5 113h13q48 -160 96 -249zM603 992.5q-43 33.5 -75 47.5v12l108 136q42 -19 85.5 -55t63.5 -63l-110 -140q-29 29 -72 62.5zM924 789.5q-20 -51.5 -27 -79.5q-105 -8 -210.5 -12t-160.5 -4q-86 0 -126.5 17.5
t-40.5 61.5q0 21 15 64q13 38 18 65h12q0 -29 35 -41.5t117 -12.5q42 0 181.5 5t220.5 11q-14 -23 -34 -74.5z" />
    <glyph glyph-name="uni06C1" unicode="&#x6c1;" horiz-adv-x="922" arabic-form="isolated" 
d="M425 946q103 -63 177.5 -123.5t132 -161t57.5 -237.5q0 -216 -98 -326t-289 -110q-131 0 -203 66t-72 184q0 107 45.5 231.5t142.5 287.5l-65 30q19 37 44 106.5t34 108.5h9q20 -17 85 -56zM610 263q74 21 114 54.5t40 67.5q0 70 -108.5 165t-313.5 195
q-76 -133 -109.5 -215.5t-33.5 -144.5q0 -40 27.5 -72.5t82 -51.5t131.5 -19q96 0 170 21z" />
    <glyph glyph-name="uni06C2.fina" unicode="&#x6c2;" horiz-adv-x="1205" 
d="M886.5 389q35.5 -68 113.5 -101.5t205 -33.5l-43 -254q-215 0 -313 102.5t-98 312.5q0 108 5 190q-149 -90 -338 -227.5t-276 -220.5h-12q36 110 46 176q19 16 42 36t49 42q141 125 286.5 244t306.5 230h12q-21 -202 -21 -321q0 -107 35.5 -175zM703.5 1113.5
q70.5 10.5 100.5 22.5v-12q-13 -19 -25.5 -49.5t-19.5 -57.5q-121 -25 -219 -72.5t-151 -101.5h-12q18 52 56 95t91 73q-65 13 -100 49.5t-35 88.5q0 65 28 126t74.5 99t98.5 38q51 0 83 -34t32 -88q0 -21 -5 -51h-12q-4 41 -29.5 60t-71.5 19q-49 0 -88 -20t-61 -48.5
t-22 -53.5q0 -23 19.5 -44.5t56.5 -35t87 -13.5q54 0 124.5 10.5z" />
    <glyph glyph-name="uni06C3.fina" unicode="&#x6c3;" horiz-adv-x="1205" 
d="M886.5 389q35.5 -68 113.5 -101.5t205 -33.5l-43 -254q-215 0 -313 102.5t-98 312.5q0 108 5 190q-149 -90 -338 -227.5t-276 -220.5h-12q36 110 46 176q19 16 42 36t49 42q141 125 286.5 244t306.5 230h12q-21 -202 -21 -321q0 -107 35.5 -175zM833 1218.5
q-20 -54.5 -28 -84.5q-105 -8 -210.5 -12t-160.5 -4q-86 0 -126.5 17.5t-40.5 61.5q0 20 15 69q14 43 18 69h12q0 -30 34.5 -42t117.5 -12q56 0 190.5 4t211.5 11q-13 -23 -33 -77.5z" />
    <glyph glyph-name="uni06C6" unicode="&#x6c6;" horiz-adv-x="994" arabic-form="isolated" 
d="M699 717.5q79 -70.5 122 -206t43 -327.5q0 -216 -75.5 -379t-200 -250t-269.5 -87q-57 0 -111.5 17t-131.5 49q-63 28 -101 39v12q190 16 391 98t333.5 198t132.5 231q0 79 -12 146l-4 -1q-20 -120 -112 -189t-232 -69q-148 0 -221 79t-73 229q0 131 43 241t119 175
t171 65q109 0 188 -70.5zM648.5 258q77.5 19 157.5 60q-37 135 -122.5 209.5t-206.5 74.5q-69 0 -130 -30.5t-97.5 -78.5t-36.5 -99q0 -65 64.5 -110t206.5 -45q87 0 164.5 19zM664.5 1383.5q6.5 -24.5 13.5 -42.5q-79 -98 -116 -185.5t-53 -198.5l-13 -2
q-9 112 -63.5 208.5t-136.5 166.5q11 16 24 42t19 46h12q8 -14 39 -55q47 -61 78 -118.5t46 -144.5h9q13 96 34.5 151t57.5 117q5 9 13 22.5t18 33.5h12q0 -16 6.5 -40.5z" />
    <glyph glyph-name="uni06C9" unicode="&#x6c9;" horiz-adv-x="994" arabic-form="isolated" 
d="M339 1001q-6 20 -19 46t-24 42q82 69 136.5 165.5t63.5 208.5l13 -2q16 -111 53 -198t116 -186q-7 -16 -13.5 -41t-6.5 -41h-12q-12 24 -31 54q-36 62 -57.5 117t-34.5 153h-9q-15 -87 -46 -144.5t-78 -118.5q-31 -41 -39 -55h-12zM699 717.5q79 -70.5 122 -206
t43 -327.5q0 -216 -75.5 -379t-200 -250t-269.5 -87q-57 0 -111.5 17t-131.5 49q-63 28 -101 39v12q190 16 391 98t333.5 198t132.5 231q0 79 -12 146l-4 -1q-20 -120 -112 -189t-232 -69q-148 0 -221 79t-73 229q0 131 43 241t119 175t171 65q109 0 188 -70.5zM648.5 258
q77.5 19 157.5 60q-37 135 -122.5 209.5t-206.5 74.5q-69 0 -130 -30.5t-97.5 -78.5t-36.5 -99q0 -65 64.5 -110t206.5 -45q87 0 164.5 19z" />
    <glyph glyph-name="uniFBFC" unicode="&#x6cc;" horiz-adv-x="1464" arabic-form="isolated" 
d="M1264.5 1035q54.5 -56 54.5 -152q0 -51 -14 -101h-12q1 57 -56 90.5t-150 33.5q-116 0 -216 -54t-159.5 -132t-59.5 -141q0 -70 68 -100.5t202 -35.5l139 -5q105 -4 164.5 -27t85.5 -71.5t26 -131.5q0 -193 -82 -335.5t-238.5 -219t-374.5 -76.5q-249 0 -380.5 131.5
t-131.5 374.5q0 242 103 471h19q-31 -82 -48 -171.5t-17 -164.5q0 -123 56.5 -210t164.5 -132.5t261 -45.5q201 0 345.5 48.5t218 120t73.5 139.5q0 24 -23 39t-80 24.5t-158 13.5l-142 5q-106 4 -169 26t-93.5 72t-30.5 140q0 140 71.5 288.5t188.5 246.5t245 98
q95 0 149.5 -56z" />
    <glyph glyph-name="uni06CE.init" unicode="&#x6ce;" horiz-adv-x="579" 
d="M397.5 178.5q-50.5 -89.5 -158.5 -134t-281 -44.5q-28 0 -40 21.5t-12 63.5q0 169 94 169q124 0 219.5 15t147.5 41t52 57q0 32 -32.5 86t-82.5 112.5t-99 100.5q24 30 56.5 96.5t52.5 122.5h10q3 -7 19 -44q44 -99 74.5 -201.5t30.5 -233.5q0 -138 -50.5 -227.5z
M381.5 1461.5q6.5 -24.5 13.5 -42.5q-79 -98 -116 -185.5t-53 -198.5l-13 -2q-9 112 -63.5 208.5t-136.5 166.5q11 16 24 42t19 46h12q8 -14 39 -55q47 -61 78 -118.5t46 -144.5h9q13 96 34.5 151t57.5 117q5 9 13 22.5t18 33.5h12q0 -16 6.5 -40.5zM-173 -318.5
q20 54.5 28 84.5q105 8 210.5 12t160.5 4q86 0 126.5 -17.5t40.5 -61.5q0 -20 -15 -69q-14 -43 -18 -69h-12q0 30 -34.5 42t-117.5 12q-56 0 -190.5 -4t-211.5 -11q13 23 33 77.5z" />
    <glyph glyph-name="uni06CE.medi" unicode="&#x6ce;" horiz-adv-x="763" 
d="M514.5 67q-73.5 67 -73.5 228q0 21 4 75h-12q-9 -134 -60.5 -215t-152.5 -118t-262 -37q-28 0 -40 21.5t-12 63.5q0 169 94 169q184 0 276.5 29.5t133.5 100.5t62 216h19v-103q0 -86 25 -139t84 -78.5t163 -25.5l-42 -254q-133 0 -206.5 67zM490.5 1195.5
q6.5 -24.5 13.5 -42.5q-79 -98 -116 -185.5t-53 -198.5l-13 -2q-9 112 -63.5 208.5t-136.5 166.5q11 16 24 42t19 46h12q8 -14 39 -55q47 -61 78 -118.5t46 -144.5h9q13 96 34.5 151t57.5 117q5 9 13 22.5t18 33.5h12q0 -16 6.5 -40.5zM-176 -318.5q20 54.5 28 84.5
q105 8 210.5 12t160.5 4q86 0 126.5 -17.5t40.5 -61.5q0 -20 -15 -69q-14 -43 -18 -69h-12q0 30 -34.5 42t-117.5 12q-56 0 -190.5 -4t-211.5 -11q13 23 33 77.5z" />
    <glyph glyph-name="uni06CE.fina" unicode="&#x6ce;" horiz-adv-x="1422" 
d="M1379 0q-42 0 -68 1q22 -32 22 -76q0 -159 -79.5 -275.5t-234.5 -179.5t-377 -63q-164 0 -278.5 59.5t-174 173t-59.5 273.5q0 116 24 232.5t71 223.5h20q-27 -71 -42.5 -159t-15.5 -162q0 -122 56.5 -209t164.5 -133t261 -46q206 0 349 39.5t213 95t70 99.5
q0 33 -49.5 54.5t-121.5 34t-196 27.5q-118 15 -179.5 25t-112.5 25v12q85 116 122 210q100 -18 243 -23t415 -5zM663.5 704.5q6.5 -24.5 13.5 -42.5q-79 -98 -116 -185.5t-53 -198.5l-13 -2q-9 112 -63.5 208.5t-136.5 166.5q11 16 24 42t19 46h12q8 -14 39 -55
q47 -61 78 -118.5t46 -144.5h9q13 96 34.5 151t57.5 117q5 9 13 22.5t18 33.5h12q0 -16 6.5 -40.5z" />
    <glyph glyph-name="uni06CF.fina" unicode="&#x6cf;" horiz-adv-x="1002" 
d="M959 0h-111q-29 -164 -107.5 -284.5t-189 -184t-232.5 -63.5q-57 0 -111.5 17t-131.5 49q-63 28 -101 39v12q165 14 341.5 79t311.5 160.5t182 196.5q-80 -12 -159 -17t-179 -5q-148 0 -221 79t-73 229q0 131 43 241t119 175t171 65q102 0 178.5 -62t121 -182t51.5 -290
h140zM277.5 284q64.5 -45 206.5 -45q215 0 338 6q-26 168 -117.5 262.5t-227.5 94.5q-69 0 -130 -30.5t-97.5 -78.5t-36.5 -99q0 -65 64.5 -110zM432.5 1070q-47.5 39 -82.5 55v12l123 151q45 -21 94 -63.5t70 -79.5l-133 -145q-24 31 -71.5 70z" />
    <glyph glyph-name="uni06D2" unicode="&#x6d2;" horiz-adv-x="1608" arabic-form="isolated" 
d="M1197.5 256q181.5 2 289.5 10v-12q-38 -44 -97 -126.5t-82 -127.5q-51 5 -180 5q-128 0 -252 -3q-146 -2 -191 -2q-228 0 -347.5 28.5t-163.5 86t-44 158.5q0 141 69 289.5t182 246t235 97.5q99 0 156 -57.5t57 -154.5q0 -43 -14 -97h-12q-9 60 -63 87.5t-156 27.5
q-106 0 -201 -51.5t-153 -126t-58 -137.5q0 -66 123 -104.5t424 -38.5q297 0 478.5 2z" />
    <glyph glyph-name="uniFBB0" unicode="&#x6d3;" horiz-adv-x="1477" arabic-form="isolated" 
d="M335.5 1122q38.5 43 91.5 73q-66 13 -101 49.5t-35 88.5q0 66 28 127t74 99t99 38q52 0 84 -34.5t32 -88.5q0 -18 -2.5 -33t-3.5 -18h-12q-4 41 -29 60t-71 19q-50 0 -89 -20t-61 -48.5t-22 -52.5q0 -23 19.5 -45t56.5 -35.5t87 -13.5q54 0 124.5 10.5t100.5 22.5v-12
q-13 -20 -25.5 -51t-18.5 -56q-122 -24 -220 -72t-151 -102h-12q18 52 56.5 95zM1197.5 256q181.5 2 289.5 10v-12q-38 -44 -97 -126.5t-82 -127.5q-51 5 -180 5q-128 0 -252 -3q-146 -2 -191 -2q-228 0 -347.5 28.5t-163.5 86t-44 158.5q0 141 69 289.5t182 246t235 97.5
q99 0 156 -57.5t57 -154.5q0 -43 -14 -97h-12q-9 60 -63 87.5t-156 27.5q-106 0 -201 -51.5t-153 -126t-58 -137.5q0 -66 123 -104.5t424 -38.5q297 0 478.5 2z" />
    <glyph glyph-name="uni06D5.fina" unicode="&#x6d5;" horiz-adv-x="1130" 
d="M921.5 329.5q70.5 -75.5 208.5 -75.5l-42 -254q-169 0 -256 102.5t-96 333.5h-12q-23 -166 -107 -246.5t-243 -80.5q-121 0 -182.5 53t-61.5 150q0 95 48 178.5t167 181t338 232.5q-11 71 -21 111q35 26 77 74t71 96h8l3 -22q14 -129 22 -253.5t8 -345.5
q0 -159 70.5 -234.5zM565.5 376q71.5 21 111 58t39.5 84q0 131 -21 301q-276 -145 -384 -230.5t-108 -137.5q0 -49 45 -72.5t153 -23.5q93 0 164.5 21z" />
    <glyph glyph-name="uniFB51" unicode="&#x671;" horiz-adv-x="593" arabic-form="final" 
d="M418 1716q-64 -44 -171 -44q-63 0 -108 21.5t-65 57.5q-17 -21 -58 -51.5t-66 -39.5l9 68q36 21 72.5 50.5t57.5 57.5h8q8 -35 34 -53q66 106 122 151.5t110 45.5q52 0 85.5 -36t33.5 -99q0 -85 -64 -129zM245 1870q-51 -35 -93 -99q39 -17 104 -17q101 0 153 17.5
t52 47.5q0 19 -13 39t-38.5 33.5t-60.5 13.5q-53 0 -104 -35zM322.5 372.5q29.5 -61.5 95 -90t175.5 -28.5l-42 -254q-132 0 -209.5 38.5t-114 129t-40.5 250.5q-7 304 -15.5 469t-17.5 249t-28 203q40 42 87 104.5t77 113.5h13q0 -35 2 -135q3 -207 3 -261q0 -115 -7 -281
q-8 -210 -8 -344q0 -102 29.5 -163.5z" />
    <glyph glyph-name="uniFB57" unicode="&#x67e;" horiz-adv-x="1993" arabic-form="final" 
d="M1739 72.5q-69 72.5 -69 220.5q0 56 10 128h-12q-66 -224 -279.5 -328.5t-576.5 -104.5q-244 0 -394 47.5t-219 142t-69 239.5q0 80 16 168.5t56 196.5h19q-18 -63 -26.5 -115t-8.5 -109q0 -94 68.5 -165t214.5 -111t370 -40q377 0 590.5 76t282.5 239h16q-8 -80 -8 -103
q0 -94 62.5 -147t210.5 -53l-42 -254q-143 0 -212 72.5zM585 -313.5q20 51.5 27 79.5q105 8 210.5 12t160.5 4q86 0 126.5 -17.5t40.5 -61.5q0 -21 -15 -64q-13 -38 -18 -65h-12q0 29 -35 41.5t-117 12.5q-42 0 -181.5 -5t-220.5 -11q14 23 34 74.5zM784 -630.5
q-43 33.5 -75 47.5v12l107 135q42 -19 85.5 -54.5t63.5 -63.5l-111 -137q-27 27 -70 60.5z" />
    <glyph glyph-name="uniFB58" unicode="&#x67e;" horiz-adv-x="579" arabic-form="initial" 
d="M397.5 178.5q-50.5 -89.5 -158.5 -134t-281 -44.5q-28 0 -40 21.5t-12 63.5q0 169 94 169q124 0 219.5 15t147.5 41t52 57q0 32 -32.5 86t-82.5 112.5t-99 100.5q24 30 56.5 96.5t52.5 122.5h10q3 -7 19 -44q44 -99 74.5 -201.5t30.5 -233.5q0 -138 -50.5 -227.5z
M-172 -313.5q20 51.5 27 79.5q105 8 210.5 12t160.5 4q86 0 126.5 -17.5t40.5 -61.5q0 -21 -15 -64q-13 -38 -18 -65h-12q0 29 -35 41.5t-117 12.5q-42 0 -181.5 -5t-220.5 -11q14 23 34 74.5zM27 -630.5q-43 33.5 -75 47.5v12l107 135q42 -19 85.5 -54.5t63.5 -63.5
l-111 -137q-27 27 -70 60.5z" />
    <glyph glyph-name="uniFB59" unicode="&#x67e;" horiz-adv-x="763" arabic-form="medial" 
d="M514.5 67q-73.5 67 -73.5 228q0 21 4 75h-12q-9 -134 -60.5 -215t-152.5 -118t-262 -37q-28 0 -40 21.5t-12 63.5q0 169 94 169q184 0 276.5 29.5t133.5 100.5t62 216h19v-103q0 -86 25 -139t84 -78.5t163 -25.5l-42 -254q-133 0 -206.5 67zM-175 -313.5q20 51.5 27 79.5
q105 8 210.5 12t160.5 4q86 0 126.5 -17.5t40.5 -61.5q0 -21 -15 -64q-13 -38 -18 -65h-12q0 29 -35 41.5t-117 12.5q-42 0 -181.5 -5t-220.5 -11q14 23 34 74.5zM24 -630.5q-43 33.5 -75 47.5v12l107 135q42 -19 85.5 -54.5t63.5 -63.5l-111 -137q-27 27 -70 60.5z" />
    <glyph glyph-name="uniFB67" unicode="&#x679;" horiz-adv-x="1993" arabic-form="final" 
d="M1739 72.5q-69 72.5 -69 220.5q0 56 10 128h-12q-66 -224 -279.5 -328.5t-576.5 -104.5q-244 0 -394 47.5t-219 142t-69 239.5q0 80 16 168.5t56 196.5h19q-18 -63 -26.5 -115t-8.5 -109q0 -94 68.5 -165t214.5 -111t370 -40q377 0 590.5 76t282.5 239h16q-8 -80 -8 -103
q0 -94 62.5 -147t210.5 -53l-42 -254q-143 0 -212 72.5zM1101 954.5q33 -35.5 33 -99.5q0 -85 -63.5 -129t-172.5 -44q-53 0 -87.5 9.5t-54 23.5t-41.5 36q-16 16 -25 23v13q44 -12 79 -16q28 44 44 90.5t16 109.5q0 29 -5 67t-11 75l-6 40q37 37 54 84h12q0 -20 4 -84
q4 -68 4 -97q0 -63 -10 -104t-46 -101q93 139 191 139q52 0 85 -35.5zM1061.5 781.5q52.5 17.5 52.5 47.5q0 19 -13.5 39t-39 33.5t-61.5 13.5q-55 0 -108 -38.5t-96 -108.5q41 -4 111 -4q102 0 154.5 17.5z" />
    <glyph glyph-name="uniFB68" unicode="&#x679;" horiz-adv-x="579" arabic-form="initial" 
d="M397.5 178.5q-50.5 -89.5 -158.5 -134t-281 -44.5q-28 0 -40 21.5t-12 63.5q0 169 94 169q124 0 219.5 15t147.5 41t52 57q0 32 -32.5 86t-82.5 112.5t-99 100.5q24 30 56.5 96.5t52.5 122.5h10q3 -7 19 -44q44 -99 74.5 -201.5t30.5 -233.5q0 -138 -50.5 -227.5z
M378 1329.5q33 -35.5 33 -99.5q0 -85 -63.5 -129t-172.5 -44q-53 0 -87.5 9.5t-54 23.5t-41.5 36q-16 16 -25 23v13q44 -12 79 -16q28 44 44 90.5t16 109.5q0 29 -5 67t-11 75l-6 40q37 37 54 84h12q0 -20 4 -84q4 -68 4 -97q0 -63 -10 -104t-46 -101q93 139 191 139
q52 0 85 -35.5zM338.5 1156.5q52.5 17.5 52.5 47.5q0 19 -13.5 39t-39 33.5t-61.5 13.5q-55 0 -108 -38.5t-96 -108.5q41 -4 111 -4q102 0 154.5 17.5z" />
    <glyph glyph-name="uniFB69" unicode="&#x679;" horiz-adv-x="763" arabic-form="medial" 
d="M514.5 67q-73.5 67 -73.5 228q0 21 4 75h-12q-9 -134 -60.5 -215t-152.5 -118t-262 -37q-28 0 -40 21.5t-12 63.5q0 169 94 169q184 0 276.5 29.5t133.5 100.5t62 216h19v-103q0 -86 25 -139t84 -78.5t163 -25.5l-42 -254q-133 0 -206.5 67zM487 1063.5
q33 -35.5 33 -99.5q0 -85 -63.5 -129t-172.5 -44q-53 0 -87.5 9.5t-54 23.5t-41.5 36q-16 16 -25 23v13q44 -12 79 -16q28 44 44 90.5t16 109.5q0 29 -5 67t-11 75l-6 40q37 37 54 84h12q0 -20 4 -84q4 -68 4 -97q0 -63 -10 -104t-46 -101q93 139 191 139q52 0 85 -35.5z
M447.5 890.5q52.5 17.5 52.5 47.5q0 19 -13.5 39t-39 33.5t-61.5 13.5q-55 0 -108 -38.5t-96 -108.5q41 -4 111 -4q102 0 154.5 17.5z" />
    <glyph glyph-name="uniFB6B" unicode="&#x6a4;" horiz-adv-x="1967" arabic-form="final" 
d="M1967 254l-43 -254q-192 0 -292.5 34t-139.5 104q-80 -78 -241.5 -114t-438.5 -36q-244 0 -394 47.5t-219 142t-69 239.5q0 80 16 168.5t56 196.5h19q-18 -63 -26.5 -115t-8.5 -109q0 -94 68.5 -165t214.5 -111t370 -40q148 0 258 4.5t198 15.5q-63 68 -63 162
q0 127 49 236t129.5 173t171.5 64q82 0 145 -44t98 -123.5t35 -184.5q0 -89 -33 -162t-96 -124q95 -5 236 -5zM1417.5 683q-66.5 -29 -107.5 -74.5t-41 -90.5q0 -37 32 -83t90.5 -89t133.5 -71q98 23 166 56.5t101.5 70.5t33.5 73q0 61 -38 115.5t-101 88t-133 33.5
t-136.5 -29zM1509 1431.5q-43 33.5 -75 47.5v12l108 136q42 -19 85.5 -55t63.5 -63l-110 -140q-29 29 -72 62.5zM1830 1228.5q-20 -51.5 -27 -79.5q-105 -8 -210.5 -12t-160.5 -4q-86 0 -126.5 17.5t-40.5 61.5q0 21 15 64q13 38 18 65h12q0 -29 35 -41.5t117 -12.5
q42 0 181.5 5t220.5 11q-14 -23 -34 -74.5z" />
    <glyph glyph-name="uniFB6C" unicode="&#x6a4;" horiz-adv-x="897" arabic-form="initial" 
d="M603.5 1107.5q78.5 -71.5 120.5 -214t42 -351.5q0 -193 -76.5 -311.5t-241.5 -174.5t-436 -56h-54q-52 0 -52 85q0 83 24.5 126t69.5 43h55q237 0 389.5 32.5t222 85t69.5 115.5q1 15 1 45q0 106 -26 192l2 -15l-7 -3q-21 -119 -113 -187t-232 -68q-136 0 -205 70
t-69 194q0 127 40 233t114.5 168.5t173.5 62.5q110 0 188.5 -71.5zM563.5 679.5q81.5 21.5 142.5 60.5q-40 123 -126 191.5t-199 68.5q-68 0 -128 -30t-96 -76.5t-36 -93.5q0 -32 26 -64.5t85.5 -55t155.5 -22.5q94 0 175.5 21.5zM336 1725.5q-43 33.5 -75 47.5v12l108 136
q42 -19 85.5 -55t63.5 -63l-110 -140q-29 29 -72 62.5zM657 1522.5q-20 -51.5 -27 -79.5q-105 -8 -210.5 -12t-160.5 -4q-86 0 -126.5 17.5t-40.5 61.5q0 21 15 64q13 38 18 65h12q0 -29 35 -41.5t117 -12.5q42 0 181.5 5t220.5 11q-14 -23 -34 -74.5z" />
    <glyph glyph-name="uniFB6D" unicode="&#x6a4;" horiz-adv-x="855" arabic-form="medial" 
d="M855 254l-43 -254q-197 0 -298 33t-141 104q-55 -74 -151.5 -105.5t-263.5 -31.5q-52 0 -52 85q0 83 24.5 126t69.5 43q106 0 175 8q-63 68 -63 162q0 127 49 236t130 173t172 64q82 0 145.5 -44t98.5 -123.5t35 -184.5q0 -88 -33 -161t-95 -124q87 -6 241 -6zM181 435
q32 -46 90.5 -89t133.5 -71q99 23 166.5 56.5t101 70.5t33.5 73q0 61 -38 115.5t-101 88t-134 33.5q-69 0 -135 -29t-107.5 -74.5t-41.5 -90.5q0 -37 32 -83zM403 1431.5q-43 33.5 -75 47.5v12l108 136q42 -19 85.5 -55t63.5 -63l-110 -140q-29 29 -72 62.5zM724 1228.5
q-20 -51.5 -27 -79.5q-105 -8 -210.5 -12t-160.5 -4q-86 0 -126.5 17.5t-40.5 61.5q0 21 15 64q13 38 18 65h12q0 -29 35 -41.5t117 -12.5q42 0 181.5 5t220.5 11q-14 -23 -34 -74.5z" />
    <glyph glyph-name="uniFB7B" unicode="&#x686;" horiz-adv-x="1454" arabic-form="final" 
d="M1454 254l-42 -254h-33q-135 0 -213.5 32.5t-114 108t-35.5 208.5q0 63 5 109q-269 -69 -461.5 -160t-294 -198.5t-101.5 -223.5q0 -115 84.5 -207t233 -144.5t333.5 -52.5q130 0 272.5 10.5t240.5 31.5v-13l-78 -52q-88 -61 -159 -101t-173 -69t-230 -29
q-169 0 -295 64.5t-194.5 184t-68.5 280.5q0 203 91.5 351.5t285 257t505.5 190.5v12q-64 8 -131.5 27.5t-160.5 52.5q-112 38 -179.5 56.5t-127.5 18.5q-75 0 -128.5 -36t-90.5 -110h-12q37 135 76.5 208.5t86 102.5t110.5 29q65 0 141 -22.5t204 -70.5q158 -60 280 -95
t251 -42v-12q-30 -28 -70 -87t-64 -111q-83 -17 -158 -36q3 -84 39.5 -128.5t117 -62.5t226.5 -18h32zM874.5 -72.5q-30.5 10.5 -106.5 10.5q-41 0 -166 -4t-197 -9q12 20 30.5 67t24.5 73q223 13 335 13q79 0 115.5 -16t36.5 -56q0 -12 -4.5 -28t-9.5 -32q-11 -27 -17 -56
h-11q0 27 -30.5 37.5zM722 -167.5q39 -31.5 59 -57.5l-102 -124q-24 24 -63 54t-68 44v10l97 122q38 -17 77 -48.5z" />
    <glyph glyph-name="uniFB7C" unicode="&#x686;" horiz-adv-x="1374" arabic-form="initial" 
d="M122 -313.5q20 51.5 27 79.5q105 8 210.5 12t160.5 4q86 0 126.5 -17.5t40.5 -61.5q0 -21 -15 -64q-13 -38 -18 -65h-12q0 29 -35 41.5t-117 12.5q-42 0 -181.5 -5t-220.5 -11q14 23 34 74.5zM321 -630.5q-43 33.5 -75 47.5v12l107 135q42 -19 85.5 -54.5t63.5 -63.5
l-111 -137q-27 27 -70 60.5zM526 859.5q76 -22.5 201 -69.5q111 -41 187.5 -66.5t167.5 -45.5t182 -24v-12q-24 -22 -60.5 -73t-54.5 -88q-62 0 -118.5 -21.5t-105.5 -55t-125 -93.5q-125 -97 -226 -158.5t-256 -107t-360 -45.5q-28 0 -40 21.5t-12 63.5q0 169 94 169
q220 0 381 26t262 61t218 89q58 27 96.5 42.5t78.5 26.5v12q-107 19 -198.5 45t-200.5 64q-109 37 -171.5 53.5t-122.5 16.5q-74 0 -127.5 -36.5t-91.5 -109.5h-12q37 135 76.5 208t86 101.5t110.5 28.5q65 0 141 -22.5z" />
    <glyph glyph-name="uniFB7D" unicode="&#x686;" horiz-adv-x="1354" arabic-form="medial" 
d="M122 -313.5q20 51.5 27 79.5q105 8 210.5 12t160.5 4q86 0 126.5 -17.5t40.5 -61.5q0 -21 -15 -64q-13 -38 -18 -65h-12q0 29 -35 41.5t-117 12.5q-42 0 -181.5 -5t-220.5 -11q14 23 34 74.5zM321 -630.5q-43 33.5 -75 47.5v12l107 135q42 -19 85.5 -54.5t63.5 -63.5
l-111 -137q-27 27 -70 60.5zM1354 254l-43 -254h-29q-134 0 -208.5 28.5t-107.5 96t-33 189.5q0 37 7 100q-59 -37 -140 -103q-125 -97 -226 -158.5t-256 -107t-360 -45.5q-28 0 -40 21.5t-12 63.5q0 169 94 169q220 0 381 26t262 61t218 89q58 27 96.5 42.5t78.5 26.5v12
q-107 19 -198.5 45t-200.5 64q-109 37 -171.5 53.5t-122.5 16.5q-74 0 -127.5 -36.5t-91.5 -109.5h-12q37 135 76.5 208t86 101.5t110.5 28.5q65 0 141 -22.5t201 -69.5q111 -41 187.5 -66.5t167.5 -45.5t182 -24v-12q-24 -22 -60.5 -73t-54.5 -88q-94 0 -189 -55
q11 -71 51 -108t113.5 -50.5t199.5 -13.5h30z" />
    <glyph glyph-name="uniFB89" unicode="&#x688;" horiz-adv-x="1223" arabic-form="final" 
d="M817 436h-12q-24 -448 -416 -448q-140 0 -207.5 67.5t-67.5 195.5q0 75 20 206h18q-4 -81 18 -127t77.5 -67t157.5 -21q115 0 199.5 27t128.5 70.5t44 90.5q0 33 -22 125t-58 198t-77 186q24 32 69.5 117.5t52.5 110.5h12q13 -64 72 -284l84 -317q41 -165 117 -238.5
t196 -73.5l-42 -254q-292 0 -364 436zM879 1604.5q33 -35.5 33 -99.5q0 -85 -63.5 -129t-172.5 -44q-53 0 -87.5 9.5t-54 23.5t-41.5 36q-16 16 -25 23v13q44 -12 79 -16q28 44 44 90.5t16 109.5q0 29 -5 67t-11 75l-6 40q37 37 54 84h12q0 -20 4 -84q4 -68 4 -97
q0 -63 -10 -104t-46 -101q93 139 191 139q52 0 85 -35.5zM839.5 1431.5q52.5 17.5 52.5 47.5q0 19 -13.5 39t-39 33.5t-61.5 13.5q-55 0 -108 -38.5t-96 -108.5q41 -4 111 -4q102 0 154.5 17.5z" />
    <glyph glyph-name="uniFB8B" unicode="&#x698;" horiz-adv-x="921" arabic-form="final" 
d="M879 0q-50 0 -92 13.5t-80 44.5q-18 -174 -91 -308.5t-180.5 -208t-225.5 -73.5q-54 0 -102.5 16.5t-113.5 47.5q-48 23 -82 35v12q161 24 333 107.5t294.5 191t145.5 200.5q-52 49 -103 139t-105 231q19 27 45.5 86.5t43.5 113.5h13q46 -153 96 -239t109 -120.5
t137 -34.5zM490 1155.5q-43 33.5 -75 47.5v12l108 136q42 -19 85.5 -55t63.5 -63l-110 -140q-29 29 -72 62.5zM811 952.5q-20 -51.5 -27 -79.5q-105 -8 -210.5 -12t-160.5 -4q-86 0 -126.5 17.5t-40.5 61.5q0 21 15 64q13 38 18 65h12q0 -29 35 -41.5t117 -12.5
q42 0 181.5 5t220.5 11q-14 -23 -34 -74.5z" />
    <glyph glyph-name="uniFB8D" unicode="&#x691;" horiz-adv-x="921" arabic-form="final" 
d="M879 0q-50 0 -92 13.5t-80 44.5q-18 -174 -91 -308.5t-180.5 -208t-225.5 -73.5q-54 0 -102.5 16.5t-113.5 47.5q-48 23 -82 35v12q161 24 333 107.5t294.5 191t145.5 200.5q-52 49 -103 139t-105 231q19 27 45.5 86.5t43.5 113.5h13q46 -153 96 -239t109 -120.5
t137 -34.5zM711 1117.5q33 -35.5 33 -99.5q0 -85 -63.5 -129t-172.5 -44q-53 0 -87.5 9.5t-54 23.5t-41.5 36q-16 16 -25 23v13q44 -12 79 -16q28 44 44 90.5t16 109.5q0 29 -5 67t-11 75l-6 40q37 37 54 84h12q0 -20 4 -84q4 -68 4 -97q0 -63 -10 -104t-46 -101
q93 139 191 139q52 0 85 -35.5zM671.5 944.5q52.5 17.5 52.5 47.5q0 19 -13.5 39t-39 33.5t-61.5 13.5q-55 0 -108 -38.5t-96 -108.5q41 -4 111 -4q102 0 154.5 17.5z" />
    <glyph glyph-name="uniFB8F" unicode="&#x6a9;" horiz-adv-x="2132" arabic-form="final" 
d="M1883.5 48q-88.5 48 -173.5 153t-206 304h-13q6 -18 6 -36q-9 -169 -83 -273.5t-236 -156t-438 -51.5q-313 0 -461.5 106.5t-148.5 322.5q0 82 15 170t55 195h21q-20 -61 -28.5 -113t-8.5 -111q0 -93 65 -164t196 -111.5t322 -40.5q259 0 416 30.5t221 73t64 83.5
q0 93 -140.5 213.5t-485.5 281.5q21 48 52.5 132t45.5 132q9 31 15.5 45t19 24t37.5 19l969 354l10 -5q-37 -65 -65 -129.5t-41 -114.5l-943 -278v-13q201 -91 332 -177.5t211.5 -165.5t187.5 -205q73 -85 94 -108q90 -99 172 -139.5t193 -40.5l-40 -254q-120 0 -208.5 48z
" />
    <glyph glyph-name="uniFB90" unicode="&#x6a9;" horiz-adv-x="948" arabic-form="initial" 
d="M626.5 192.5q-72.5 -102.5 -222 -147.5t-392.5 -45h-54q-28 0 -40 21.5t-12 63.5q0 169 94 169h51q214 0 353 24t203.5 65t64.5 94q0 49 -79.5 128.5t-231 174t-355.5 184.5q21 48 53 132t47 132q8 29 14.5 43.5t19 24t38.5 20.5l846 354l12 -5q-36 -61 -64.5 -125.5
t-44.5 -118.5l-821 -278v-13q237 -114 365.5 -212.5t178 -194.5t49.5 -214q0 -174 -72.5 -276.5z" />
    <glyph glyph-name="uniFB91" unicode="&#x6a9;" horiz-adv-x="1296" arabic-form="medial" 
d="M1048.5 48q-88.5 48 -173.5 153t-206 304h-12q4 -24 4 -36q-8 -167 -71.5 -268.5t-202.5 -151t-375 -49.5h-54q-28 0 -40 21.5t-12 63.5q0 169 94 169h51q204 0 334 24.5t188.5 64t58.5 86.5q0 93 -140.5 213.5t-485.5 281.5q21 48 53 132t47 132q8 30 14.5 44.5
t19.5 24.5t38 19l967 354l12 -5q-37 -62 -65 -126.5t-43 -117.5l-943 -278v-13q200 -90 331 -176.5t211 -165t189 -205.5q58 -67 95 -109q89 -99 171 -139.5t193 -40.5l-40 -254q-119 0 -207.5 48z" />
    <glyph glyph-name="uniFB93" unicode="&#x6af;" horiz-adv-x="2132" arabic-form="final" 
d="M1803 1697l-797 -303l27 77l818 317zM1883.5 48q-88.5 48 -173.5 153t-206 304h-13q6 -18 6 -36q-9 -169 -83 -273.5t-236 -156t-438 -51.5q-313 0 -461.5 106.5t-148.5 322.5q0 82 15 170t55 195h21q-20 -61 -28.5 -113t-8.5 -111q0 -93 65 -164t196 -111.5t322 -40.5
q259 0 416 30.5t221 73t64 83.5q0 93 -140.5 213.5t-485.5 281.5q21 48 52.5 132t45.5 132q9 31 15.5 45t19 24t37.5 19l969 354l10 -5q-37 -65 -65 -129.5t-41 -114.5l-943 -278v-13q201 -91 332 -177.5t211.5 -165.5t187.5 -205q73 -85 94 -108q90 -99 172 -139.5
t193 -40.5l-40 -254q-120 0 -208.5 48z" />
    <glyph glyph-name="uniFB94" unicode="&#x6af;" horiz-adv-x="948" arabic-form="initial" 
d="M860 1697l-675 -297l27 76l697 312zM626.5 192.5q-72.5 -102.5 -222 -147.5t-392.5 -45h-54q-28 0 -40 21.5t-12 63.5q0 169 94 169h51q214 0 353 24t203.5 65t64.5 94q0 49 -79.5 128.5t-231 174t-355.5 184.5q21 48 53 132t47 132q8 29 14.5 43.5t19 24t38.5 20.5
l846 354l12 -5q-36 -61 -64.5 -125.5t-44.5 -118.5l-821 -278v-13q237 -114 365.5 -212.5t178 -194.5t49.5 -214q0 -174 -72.5 -276.5z" />
    <glyph glyph-name="uniFB95" unicode="&#x6af;" horiz-adv-x="1296" arabic-form="medial" 
d="M982 1697l-797 -303l27 77l818 317zM1048.5 48q-88.5 48 -173.5 153t-206 304h-12q4 -24 4 -36q-8 -167 -71.5 -268.5t-202.5 -151t-375 -49.5h-54q-28 0 -40 21.5t-12 63.5q0 169 94 169h51q204 0 334 24.5t188.5 64t58.5 86.5q0 93 -140.5 213.5t-485.5 281.5
q21 48 53 132t47 132q8 30 14.5 44.5t19.5 24.5t38 19l967 354l12 -5q-37 -62 -65 -126.5t-43 -117.5l-943 -278v-13q200 -90 331 -176.5t211 -165t189 -205.5q58 -67 95 -109q89 -99 171 -139.5t193 -40.5l-40 -254q-119 0 -207.5 48z" />
    <glyph glyph-name="uniFB9F" unicode="&#x6ba;" horiz-adv-x="1554" arabic-form="final" 
d="M1326 415q48 -89 102.5 -125t125.5 -36l-43 -254q-118 0 -189 98q-11 -202 -97.5 -347t-236 -220.5t-346.5 -75.5q-164 0 -278.5 59.5t-174 173t-59.5 273.5q0 237 103 472h21q-32 -81 -49 -170t-17 -166q0 -122 56.5 -209.5t164.5 -133t261 -45.5q179 0 321 55
t221 144.5t79 188.5q0 79 -165 367q19 27 46.5 87t44.5 113h13q48 -160 96 -249z" />
    <glyph glyph-name="uniFBA7" unicode="&#x6c1;" horiz-adv-x="1205" arabic-form="final" 
d="M886.5 389q35.5 -68 113.5 -101.5t205 -33.5l-43 -254q-215 0 -313 102.5t-98 312.5q0 108 5 190q-149 -90 -338 -227.5t-276 -220.5h-12q36 110 46 176q19 16 42 36t49 42q141 125 286.5 244t306.5 230h12q-21 -202 -21 -321q0 -107 35.5 -175z" />
    <glyph glyph-name="uniFBA8" unicode="&#x6c1;" horiz-adv-x="579" arabic-form="initial" 
d="M343 841q44 -99 74.5 -201.5t30.5 -233.5q0 -138 -50.5 -227.5t-158.5 -134t-281 -44.5q-28 0 -40 21.5t-12 63.5q0 169 94 169q124 0 219.5 15t147.5 41t52 57q0 32 -32.5 86t-82.5 112.5t-99 100.5q24 30 56.5 96.5t52.5 122.5h10q3 -7 19 -44zM110 -262
q50 0 82.5 -34.5t32.5 -87.5q0 -58 -35 -93t-92 -35q-58 0 -93 37.5t-35 99.5q0 84 60 174.5t175 163.5l9 -10q-55 -62 -88 -119.5t-40 -97.5q16 2 24 2z" />
    <glyph glyph-name="uniFBA9" unicode="&#x6c1;" horiz-adv-x="1036" arabic-form="medial" 
d="M745.5 -48.5q-63.5 -48.5 -63.5 -124.5q0 -52 16.5 -100t53.5 -101q-20 -33 -48.5 -104.5t-36.5 -109.5q-204 76 -299 198t-95 299q0 62 12.5 133t37.5 161h-12q-46 -112 -122 -157.5t-200 -45.5h-31q-31 0 -41.5 26.5t-10.5 58.5q0 61 19.5 115t74.5 54h33
q91 0 155.5 20.5t113.5 69t88 132.5h12q-44 -188 -44 -322q0 -119 32 -210t110 -168t214 -146l6 10q-48 70 -67.5 129t-19.5 123q0 99 43 182t124.5 131.5t192.5 48.5h43l-42 -254h-43q-142 0 -205.5 -48.5z" />
    <glyph glyph-name="uniFBAB" unicode="&#x6be;" horiz-adv-x="1538" arabic-form="final" 
d="M1538 254l-42 -254h-45q-142 0 -205 -48.5t-63 -124.5q0 -51 17 -99t53 -102q-19 -32 -48 -103.5t-39 -110.5q-230 57 -362.5 175.5t-170.5 282.5q-102 -34 -183 -34q-60 0 -105 14.5t-78 36t-81 61.5q-47 38 -72 56v12q74 0 217.5 20t289.5 53q14 137 70 277.5
t121 251.5t153 246q68 103 82 133h12q12 -74 28 -137.5t41 -149.5q27 -92 40 -149.5t13 -112.5q0 -68 -30.5 -146.5t-83.5 -147.5t-117 -109q-93 -75 -207 -129q62 -91 183 -165t289 -121l7 10q-49 70 -69 129t-20 123q0 98 43 180.5t124.5 132t192.5 49.5h45zM752.5 416.5
q-62.5 -160.5 -65.5 -312.5q197 50 321 111t124 130q0 28 -17.5 74t-56.5 131q-39 88 -60.5 139t-41.5 110q-141 -222 -203.5 -382.5z" />
    <glyph glyph-name="uniFBAC" unicode="&#x6be;" horiz-adv-x="1227" arabic-form="initial" 
d="M1051.5 164q-45.5 -110 -127.5 -200q-121 51 -523 159q-80 -63 -193.5 -93t-249.5 -30q-31 0 -41.5 26.5t-10.5 58.5q0 61 19.5 115t74.5 54q126 0 199 12q-42 32 -62 77t-20 108q0 112 52 215.5t131 163.5l-27 14q-64 32 -92 44q18 43 31 102.5t15 106.5h12
q49 -41 140.5 -93t259.5 -141q182 -94 279.5 -165t138 -141.5t40.5 -162.5q0 -120 -45.5 -230zM233 415q73 -60 205 -103q222 92 222 188q0 63 -38 118t-99.5 88t-125.5 33q-63 0 -117.5 -28t-87 -73.5t-32.5 -95.5q0 -67 73 -127zM1018.5 403q-32.5 46 -111 100t-226.5 135
q6 -33 6 -69q0 -165 -116 -292q264 -61 425 -120q25 34 40 74t15 72q0 54 -32.5 100z" />
    <glyph glyph-name="uniFBAD" unicode="&#x6be;" horiz-adv-x="1035" arabic-form="medial" 
d="M870.5 5.5q-50.5 5.5 -114.5 21.5v-12q58 -37 84 -77t26 -95q0 -101 -43.5 -181t-123.5 -125.5t-186 -45.5q-129 0 -221.5 60.5t-141 169.5t-48.5 252v27h-144q-31 0 -41.5 26.5t-10.5 58.5q0 61 19.5 115t74.5 54h144q39 130 104.5 251t130.5 211t149 195q28 34 50.5 64
t31.5 46h12q0 -88 10.5 -175.5t30.5 -218.5q13 -79 18.5 -121.5t5.5 -72.5q0 -55 -51.5 -106t-157.5 -88v-12q103 16 173 21.5t202 5.5h182l-42 -254q-72 0 -122.5 5.5zM553.5 420q-5.5 42 -10.5 71.5t-7 42.5q-32 190 -37 296q-119 -142 -201.5 -298t-114.5 -293
q188 1 282 31t94 84q0 24 -5.5 66zM786.5 -78q-51.5 47 -153.5 75.5t-246 28.5q-121 0 -214 -20q25 -140 128.5 -216.5t265.5 -76.5q86 0 147.5 16t92.5 40.5t31 49.5q0 56 -51.5 103z" />
    <glyph glyph-name="uniFBAF" unicode="&#x6d2;" horiz-adv-x="1343" arabic-form="final" 
d="M420 -30q-114 -30 -181 -77t-67 -93q0 -59 107 -90.5t330 -31.5q427 0 591 13v-13q-38 -43 -83.5 -106t-67.5 -108q-53 4 -141 4q-51 0 -165 -2q-116 -2 -174 -2q-165 0 -260 25t-137 79.5t-42 146.5q0 139 73.5 263t206 200t299.5 76h634l-43 -254h-634q-132 0 -246 -30
z" />
    <glyph glyph-name="uniFBB1" unicode="&#x6d3;" horiz-adv-x="845" arabic-form="final" 
d="M350.5 444q38.5 43 91.5 73q-66 13 -101 49.5t-35 88.5q0 66 28 127t74 99t99 38q52 0 84 -34.5t32 -88.5q0 -18 -2.5 -33t-3.5 -18h-12q-4 41 -29 60t-71 19q-50 0 -89 -20t-61 -48.5t-22 -52.5q0 -23 19.5 -45t56.5 -35.5t87 -13.5q54 0 124.5 10.5t100.5 22.5v-12
q-13 -20 -25.5 -51t-18.5 -56q-122 -24 -220 -72t-151 -102h-12q18 52 56.5 95zM420 -30q-114 -30 -181 -77t-67 -93q0 -59 107 -90.5t330 -31.5q427 0 591 13v-13q-38 -43 -83.5 -106t-67.5 -108q-53 4 -141 4q-51 0 -165 -2q-116 -2 -174 -2q-165 0 -260 25t-137 79.5
t-42 146.5q0 139 73.5 263t206 200t299.5 76h634l-43 -254h-634q-132 0 -246 -30z" />
    <glyph glyph-name="uniFBDA" unicode="&#x6c6;" horiz-adv-x="1002" arabic-form="final" 
d="M959 0h-111q-29 -164 -107.5 -284.5t-189 -184t-232.5 -63.5q-57 0 -111.5 17t-131.5 49q-63 28 -101 39v12q165 14 341.5 79t311.5 160.5t182 196.5q-80 -12 -159 -17t-179 -5q-148 0 -221 79t-73 229q0 131 43 241t119 175t171 65q102 0 178.5 -62t121 -182t51.5 -290
h140zM277.5 284q64.5 -45 206.5 -45q215 0 338 6q-26 168 -117.5 262.5t-227.5 94.5q-69 0 -130 -30.5t-97.5 -78.5t-36.5 -99q0 -65 64.5 -110zM664.5 1383.5q6.5 -24.5 13.5 -42.5q-79 -98 -116 -185.5t-53 -198.5l-13 -2q-9 112 -63.5 208.5t-136.5 166.5q11 16 24 42
t19 46h12q8 -14 39 -55q47 -61 78 -118.5t46 -144.5h9q13 96 34.5 151t57.5 117q5 9 13 22.5t18 33.5h12q0 -16 6.5 -40.5z" />
    <glyph glyph-name="uniFBE3" unicode="&#x6c9;" horiz-adv-x="1002" arabic-form="final" 
d="M339 1001q-6 20 -19 46t-24 42q82 69 136.5 165.5t63.5 208.5l13 -2q16 -111 53 -198t116 -186q-7 -16 -13.5 -41t-6.5 -41h-12q-12 24 -31 54q-36 62 -57.5 117t-34.5 153h-9q-15 -87 -46 -144.5t-78 -118.5q-31 -41 -39 -55h-12zM959 0h-111q-29 -164 -107.5 -284.5
t-189 -184t-232.5 -63.5q-57 0 -111.5 17t-131.5 49q-63 28 -101 39v12q165 14 341.5 79t311.5 160.5t182 196.5q-80 -12 -159 -17t-179 -5q-148 0 -221 79t-73 229q0 131 43 241t119 175t171 65q102 0 178.5 -62t121 -182t51.5 -290h140zM277.5 284q64.5 -45 206.5 -45
q215 0 338 6q-26 168 -117.5 262.5t-227.5 94.5q-69 0 -130 -30.5t-97.5 -78.5t-36.5 -99q0 -65 64.5 -110z" />
    <glyph glyph-name="uniFBE8" unicode="&#x649;" horiz-adv-x="579" arabic-form="initial" 
d="M397.5 178.5q-50.5 -89.5 -158.5 -134t-281 -44.5q-28 0 -40 21.5t-12 63.5q0 169 94 169q124 0 219.5 15t147.5 41t52 57q0 32 -32.5 86t-82.5 112.5t-99 100.5q24 30 56.5 96.5t52.5 122.5h10q3 -7 19 -44q44 -99 74.5 -201.5t30.5 -233.5q0 -138 -50.5 -227.5z" />
    <glyph glyph-name="uniFBE9" unicode="&#x649;" horiz-adv-x="763" arabic-form="medial" 
d="M514.5 67q-73.5 67 -73.5 228q0 21 4 75h-12q-9 -134 -60.5 -215t-152.5 -118t-262 -37q-28 0 -40 21.5t-12 63.5q0 169 94 169q184 0 276.5 29.5t133.5 100.5t62 216h19v-103q0 -86 25 -139t84 -78.5t163 -25.5l-42 -254q-133 0 -206.5 67z" />
    <glyph glyph-name="uniFBFD" unicode="&#x6cc;" horiz-adv-x="1422" arabic-form="final" 
d="M1379 0q-42 0 -68 1q22 -32 22 -76q0 -159 -79.5 -275.5t-234.5 -179.5t-377 -63q-164 0 -278.5 59.5t-174 173t-59.5 273.5q0 116 24 232.5t71 223.5h20q-27 -71 -42.5 -159t-15.5 -162q0 -122 56.5 -209t164.5 -133t261 -46q206 0 349 39.5t213 95t70 99.5
q0 33 -49.5 54.5t-121.5 34t-196 27.5q-118 15 -179.5 25t-112.5 25v12q85 116 122 210q100 -18 243 -23t415 -5z" />
    <glyph glyph-name="uniFBFE" unicode="&#x6cc;" horiz-adv-x="579" arabic-form="initial" 
d="M397.5 178.5q-50.5 -89.5 -158.5 -134t-281 -44.5q-28 0 -40 21.5t-12 63.5q0 169 94 169q124 0 219.5 15t147.5 41t52 57q0 32 -32.5 86t-82.5 112.5t-99 100.5q24 30 56.5 96.5t52.5 122.5h10q3 -7 19 -44q44 -99 74.5 -201.5t30.5 -233.5q0 -138 -50.5 -227.5z
M-173 -318.5q20 54.5 28 84.5q105 8 210.5 12t160.5 4q86 0 126.5 -17.5t40.5 -61.5q0 -20 -15 -69q-14 -43 -18 -69h-12q0 30 -34.5 42t-117.5 12q-56 0 -190.5 -4t-211.5 -11q13 23 33 77.5z" />
    <glyph glyph-name="uniFBFF" unicode="&#x6cc;" horiz-adv-x="763" arabic-form="medial" 
d="M514.5 67q-73.5 67 -73.5 228q0 21 4 75h-12q-9 -134 -60.5 -215t-152.5 -118t-262 -37q-28 0 -40 21.5t-12 63.5q0 169 94 169q184 0 276.5 29.5t133.5 100.5t62 216h19v-103q0 -86 25 -139t84 -78.5t163 -25.5l-42 -254q-133 0 -206.5 67zM-176 -318.5q20 54.5 28 84.5
q105 8 210.5 12t160.5 4q86 0 126.5 -17.5t40.5 -61.5q0 -20 -15 -69q-14 -43 -18 -69h-12q0 30 -34.5 42t-117.5 12q-56 0 -190.5 -4t-211.5 -11q13 23 33 77.5z" />
    <glyph glyph-name="uniFC5E" unicode="&#xfc5e;" arabic-form="isolated" 
d="M247 227q0 -69 -32 -111.5t-89 -42.5q-33 0 -61.5 18t-41.5 49q-12 -68 -53.5 -110t-105.5 -42q-54 0 -82 35t-28 92q0 31 7 60l33 15q-4 -32 -4 -45q0 -46 19.5 -71.5t58.5 -25.5q131 0 125 194l36 20q16 -130 99 -130q40 0 59 27.5t19 73.5q0 55 -24 118l32 21
q33 -73 33 -145zM186.5 785q28.5 -41 28.5 -109q0 -61 -24 -116.5t-69 -93.5q-55 -44 -140 -78t-212 -63l8 60q47 79 47 110q0 10 -8 15.5t-20 5.5q-15 0 -31 -5t-38 -14q-35 -13 -59 -19.5t-54 -6.5l11 54q26 1 50.5 7.5t53.5 17.5q27 10 46.5 15.5t39.5 5.5q23 0 37 -13
t14 -37q0 -48 -35 -123q71 19 137.5 45t116.5 54q-92 42 -129.5 76.5t-37.5 70.5q0 39 28.5 82.5t71.5 72.5t84 29q55 -2 83.5 -43zM173 655q0 53 -23 82.5t-60 29.5q-30 0 -61 -18t-51 -42.5t-20 -41.5q0 -20 43.5 -50.5t136.5 -67.5q35 57 35 108z" />
    <glyph glyph-name="uniFC5F" unicode="&#xfc5f;" arabic-form="isolated" 
d="M246 370l-464 -206l8 58l465 208zM234 182l-464 -208l8 60l464 206zM227 654q0 -69 -32 -111.5t-89 -42.5q-33 0 -61.5 18t-41.5 49q-12 -68 -53.5 -110t-105.5 -42q-54 0 -82 35t-28 92q0 31 7 60l33 15q-4 -32 -4 -45q0 -46 19.5 -71.5t58.5 -25.5q131 0 125 194l36 20
q16 -130 99 -130q40 0 59 27.5t19 73.5q0 55 -24 118l32 21q33 -73 33 -145z" />
    <glyph glyph-name="uniFC60" unicode="&#xfc60;" arabic-form="isolated" 
d="M247 227q0 -69 -32 -111.5t-89 -42.5q-33 0 -61.5 18t-41.5 49q-12 -68 -53.5 -110t-105.5 -42q-54 0 -82 35t-28 92q0 31 7 60l33 15q-4 -32 -4 -45q0 -46 19.5 -71.5t58.5 -25.5q131 0 125 194l36 20q16 -130 99 -130q40 0 59 27.5t19 73.5q0 55 -24 118l32 21
q33 -73 33 -145zM210 533l-464 -208l8 60l464 206z" />
    <glyph glyph-name="uniFC61" unicode="&#xfc61;" arabic-form="isolated" 
d="M247 227q0 -69 -32 -111.5t-89 -42.5q-33 0 -61.5 18t-41.5 49q-12 -68 -53.5 -110t-105.5 -42q-54 0 -82 35t-28 92q0 31 7 60l33 15q-4 -32 -4 -45q0 -46 19.5 -71.5t58.5 -25.5q131 0 125 194l36 20q16 -130 99 -130q40 0 59 27.5t19 73.5q0 55 -24 118l32 21
q33 -73 33 -145zM162 785q28 -41 28 -109q0 -61 -23.5 -116.5t-68.5 -93.5q-55 -44 -140 -78t-212 -63l8 60q84 19 166.5 49t140.5 63q-91 42 -128.5 76.5t-37.5 70.5q0 39 28.5 82.5t71.5 72.5t84 29q55 -2 83 -43zM149 655q0 53 -23 82.5t-60 29.5q-30 0 -61 -18
t-51.5 -42.5t-20.5 -41.5q0 -20 43.5 -50.5t136.5 -67.5q36 56 36 108z" />
    <glyph glyph-name="uniFC62" unicode="&#xfc62;" arabic-form="isolated" 
d="M234 181l-464 -208l8 60l464 208zM223 469q0 -69 -32 -111.5t-89 -42.5q-33 0 -61.5 18t-41.5 49q-12 -68 -53.5 -110t-105.5 -42q-54 0 -82 35t-28 92q0 31 7 60l33 15q-4 -32 -4 -45q0 -46 19.5 -71.5t58.5 -25.5q131 0 125 194l36 20q16 -130 99 -130q40 0 59 27.5
t19 73.5q0 55 -24 118l32 21q33 -73 33 -145z" />
    <glyph glyph-name="uniFC63" unicode="&#xfc63;" arabic-form="isolated" 
d="M247 227q0 -69 -32 -111.5t-89 -42.5q-33 0 -61.5 18t-41.5 49q-12 -68 -53.5 -110t-105.5 -42q-54 0 -82 35t-28 92q0 31 7 60l33 15q-4 -32 -4 -45q0 -46 19.5 -71.5t58.5 -25.5q131 0 125 194l36 20q16 -130 99 -130q40 0 59 27.5t19 73.5q0 55 -24 118l32 21
q33 -73 33 -145zM20 374l-39 -19l-10 397l60 39z" />
    <glyph glyph-name="uniFC64" unicode="&#xfc64;" horiz-adv-x="1587" arabic-form="final" 
d="M1213 651q0 -162 32.5 -246t111.5 -117.5t230 -33.5l-42 -254q-133 0 -211 46.5t-113.5 148t-35.5 274.5q0 23 2 79h-12q-55 -155 -503 -160q40 -100 40 -215q0 -205 -70 -366t-185 -250t-246 -89q-55 0 -104 16.5t-115 47.5q-52 26 -80 35v12q174 26 355 118t300 206
t119 200q0 43 -60.5 128t-178.5 196q27 39 54 93t44 107q209 0 342 13.5t207.5 40.5t107.5 70h13q-2 -72 -2 -100zM984.5 1110.5q70.5 10.5 100.5 22.5v-12q-13 -19 -25.5 -49.5t-19.5 -57.5q-121 -25 -219 -72.5t-151 -101.5h-12q18 52 56 95t91 73q-65 13 -100 49.5
t-35 88.5q0 65 28 126t74.5 99t98.5 38q51 0 83 -34t32 -88q0 -21 -5 -51h-12q-4 41 -29.5 60t-71.5 19q-49 0 -88 -20t-61 -48.5t-22 -53.5q0 -23 19.5 -44.5t56.5 -35t87 -13.5q54 0 124.5 10.5z" />
    <glyph glyph-name="uniFC65" unicode="&#xfc65;" horiz-adv-x="1587" arabic-form="final" 
d="M1213 651q0 -162 32.5 -246t111.5 -117.5t230 -33.5l-42 -254q-133 0 -211 46.5t-113.5 148t-35.5 274.5q0 23 2 79h-12q-55 -155 -503 -160q40 -100 40 -215q0 -205 -70 -366t-185 -250t-246 -89q-55 0 -104 16.5t-115 47.5q-52 26 -80 35v12q174 26 355 118t300 206
t119 200q0 43 -60.5 128t-178.5 196q27 39 54 93t44 107q209 0 342 13.5t207.5 40.5t107.5 70h13q-2 -72 -2 -100zM478.5 903q-47.5 39 -82.5 55v12l123 151q45 -21 94 -63.5t70 -79.5l-133 -145q-24 31 -71.5 70zM1193.5 1110.5q70.5 10.5 100.5 22.5v-12
q-13 -19 -25.5 -49.5t-19.5 -57.5q-121 -25 -219 -72.5t-151 -101.5h-12q18 52 56 95t91 73q-65 13 -100 49.5t-35 88.5q0 65 28 126t74.5 99t98.5 38q51 0 83 -34t32 -88q0 -21 -5 -51h-12q-4 41 -29.5 60t-71.5 19q-49 0 -88 -20t-61 -48.5t-22 -53.5q0 -23 19.5 -44.5
t56.5 -35t87 -13.5q54 0 124.5 10.5z" />
    <glyph glyph-name="uniFC67" unicode="&#xfc67;" horiz-adv-x="2206" arabic-form="final" 
d="M1831 656q0 -164 32.5 -249t111.5 -119t231 -34l-43 -254q-132 0 -210 46.5t-113.5 148t-35.5 274.5q0 23 2 79h-12q-57 -156 -511 -160q40 -127 40 -234q0 -219 -84 -376.5t-237.5 -240t-359.5 -82.5q-164 0 -278.5 59.5t-174 173t-59.5 273.5q0 237 103 472h21
q-32 -81 -49 -170t-17 -166q0 -122 56.5 -209.5t164.5 -133t261 -45.5q179 0 321 55t221 144.5t79 188.5q0 56 -54 134t-172 196q28 40 55 93.5t44 106.5q209 0 342 13.5t207.5 40.5t107.5 70h12q-2 -68 -2 -95zM1602.5 1110.5q70.5 10.5 100.5 22.5v-12
q-13 -19 -25.5 -49.5t-19.5 -57.5q-121 -25 -219 -72.5t-151 -101.5h-12q18 52 56 95t91 73q-65 13 -100 49.5t-35 88.5q0 65 28 126t74.5 99t98.5 38q51 0 83 -34t32 -88q0 -21 -5 -51h-12q-4 41 -29.5 60t-71.5 19q-49 0 -88 -20t-61 -48.5t-22 -53.5q0 -23 19.5 -44.5
t56.5 -35t87 -13.5q54 0 124.5 10.5zM615.5 361q-47.5 39 -82.5 55v12l123 151q45 -21 94 -63.5t70 -79.5l-133 -145q-24 31 -71.5 70z" />
    <glyph glyph-name="uniFC69" unicode="&#xfc69;" horiz-adv-x="1994" arabic-form="final" 
d="M1608 59.5q-117 59.5 -161 191t-44 373.5q-260 0 -428.5 -31t-245.5 -78.5t-77 -100.5q0 -62 68.5 -90t201.5 -33l139 -5q105 -4 164.5 -27t85.5 -71.5t26 -131.5q0 -193 -82 -335.5t-238.5 -219t-374.5 -76.5q-249 0 -380.5 131.5t-131.5 374.5q0 242 103 471h19
q-31 -82 -48 -171.5t-17 -164.5q0 -123 56.5 -210t164.5 -132.5t261 -45.5q201 0 345.5 48t218 119.5t73.5 139.5q0 24 -23 39.5t-80 25t-158 13.5l-142 5q-106 4 -169 26t-93.5 73t-30.5 142q0 244 198 376.5t607 132.5q5 -219 47.5 -336t164.5 -172.5t367 -55.5l-43 -254
q-226 0 -343 59.5zM1236.5 1228.5q70.5 10.5 100.5 22.5v-12q-13 -19 -25.5 -49.5t-19.5 -57.5q-121 -25 -219 -72.5t-151 -101.5h-12q18 52 56 95t91 73q-65 13 -100 49.5t-35 88.5q0 65 28 126t74.5 99t98.5 38q51 0 83 -34t32 -88q0 -21 -5 -51h-12q-4 41 -29.5 60
t-71.5 19q-49 0 -88 -20t-61 -48.5t-22 -53.5q0 -23 19.5 -44.5t56.5 -35t87 -13.5q54 0 124.5 10.5z" />
    <glyph glyph-name="uniFC6A" unicode="&#xfc6a;" horiz-adv-x="1587" arabic-form="final" 
d="M1213 651q0 -162 32.5 -246t111.5 -117.5t230 -33.5l-42 -254q-133 0 -211 46.5t-113.5 148t-35.5 274.5q0 23 2 79h-12q-55 -155 -503 -160q40 -100 40 -215q0 -205 -70 -366t-185 -250t-246 -89q-55 0 -104 16.5t-115 47.5q-52 26 -80 35v12q174 26 355 118t300 206
t119 200q0 43 -60.5 128t-178.5 196q27 39 54 93t44 107q209 0 342 13.5t207.5 40.5t107.5 70h13q-2 -72 -2 -100zM1004 -411q-47 39 -80 54v12l123 151q45 -20 94 -62.5t70 -79.5l-133 -146q-27 32 -74 71z" />
    <glyph glyph-name="uniFC6B" unicode="&#xfc6b;" horiz-adv-x="1587" arabic-form="final" 
d="M1213 651q0 -162 32.5 -246t111.5 -117.5t230 -33.5l-42 -254q-133 0 -211 46.5t-113.5 148t-35.5 274.5q0 23 2 79h-12q-55 -155 -503 -160q40 -100 40 -215q0 -205 -70 -366t-185 -250t-246 -89q-55 0 -104 16.5t-115 47.5q-52 26 -80 35v12q174 26 355 118t300 206
t119 200q0 43 -60.5 128t-178.5 196q27 39 54 93t44 107q209 0 342 13.5t207.5 40.5t107.5 70h13q-2 -72 -2 -100zM478.5 903q-47.5 39 -82.5 55v12l123 151q45 -21 94 -63.5t70 -79.5l-133 -145q-24 31 -71.5 70zM1004 -411q-47 39 -80 54v12l123 151q45 -20 94 -62.5
t70 -79.5l-133 -146q-27 32 -74 71z" />
    <glyph glyph-name="uniFC6D" unicode="&#xfc6d;" horiz-adv-x="2206" arabic-form="final" 
d="M1831 656q0 -164 32.5 -249t111.5 -119t231 -34l-43 -254q-132 0 -210 46.5t-113.5 148t-35.5 274.5q0 23 2 79h-12q-57 -156 -511 -160q40 -127 40 -234q0 -219 -84 -376.5t-237.5 -240t-359.5 -82.5q-164 0 -278.5 59.5t-174 173t-59.5 273.5q0 237 103 472h21
q-32 -81 -49 -170t-17 -166q0 -122 56.5 -209.5t164.5 -133t261 -45.5q179 0 321 55t221 144.5t79 188.5q0 56 -54 134t-172 196q28 40 55 93.5t44 106.5q209 0 342 13.5t207.5 40.5t107.5 70h12q-2 -68 -2 -95zM1592 -411q-47 39 -80 54v12l123 151q45 -20 94 -62.5
t70 -79.5l-133 -146q-27 32 -74 71zM615.5 361q-47.5 39 -82.5 55v12l123 151q45 -21 94 -63.5t70 -79.5l-133 -145q-24 31 -71.5 70z" />
    <glyph glyph-name="uniFC6F" unicode="&#xfc6f;" horiz-adv-x="1994" arabic-form="final" 
d="M1608 59.5q-117 59.5 -161 191t-44 373.5q-260 0 -428.5 -31t-245.5 -78.5t-77 -100.5q0 -62 68.5 -90t201.5 -33l139 -5q105 -4 164.5 -27t85.5 -71.5t26 -131.5q0 -193 -82 -335.5t-238.5 -219t-374.5 -76.5q-249 0 -380.5 131.5t-131.5 374.5q0 242 103 471h19
q-31 -82 -48 -171.5t-17 -164.5q0 -123 56.5 -210t164.5 -132.5t261 -45.5q201 0 345.5 48t218 119.5t73.5 139.5q0 24 -23 39.5t-80 25t-158 13.5l-142 5q-106 4 -169 26t-93.5 73t-30.5 142q0 244 198 376.5t607 132.5q5 -219 47.5 -336t164.5 -172.5t367 -55.5l-43 -254
q-226 0 -343 59.5zM1531 -411q-47 39 -80 54v12l123 151q45 -20 94 -62.5t70 -79.5l-133 -146q-27 32 -74 71z" />
    <glyph glyph-name="uniFC70" unicode="&#xfc70;" horiz-adv-x="1587" arabic-form="final" 
d="M1213 651q0 -162 32.5 -246t111.5 -117.5t230 -33.5l-42 -254q-133 0 -211 46.5t-113.5 148t-35.5 274.5q0 23 2 79h-12q-55 -155 -503 -160q40 -100 40 -215q0 -205 -70 -366t-185 -250t-246 -89q-55 0 -104 16.5t-115 47.5q-52 26 -80 35v12q174 26 355 118t300 206
t119 200q0 43 -60.5 128t-178.5 196q27 39 54 93t44 107q209 0 342 13.5t207.5 40.5t107.5 70h13q-2 -72 -2 -100zM1130 1060.5q-20 -54.5 -28 -84.5q-105 -8 -210.5 -12t-160.5 -4q-86 0 -126.5 17.5t-40.5 61.5q0 20 15 69q14 43 18 69h12q0 -30 34.5 -42t117.5 -12
q56 0 190.5 4t211.5 11q-13 -23 -33 -77.5z" />
    <glyph glyph-name="uniFC71" unicode="&#xfc71;" horiz-adv-x="1587" arabic-form="final" 
d="M1213 651q0 -162 32.5 -246t111.5 -117.5t230 -33.5l-42 -254q-133 0 -211 46.5t-113.5 148t-35.5 274.5q0 23 2 79h-12q-55 -155 -503 -160q40 -100 40 -215q0 -205 -70 -366t-185 -250t-246 -89q-55 0 -104 16.5t-115 47.5q-52 26 -80 35v12q174 26 355 118t300 206
t119 200q0 43 -60.5 128t-178.5 196q27 39 54 93t44 107q209 0 342 13.5t207.5 40.5t107.5 70h13q-2 -72 -2 -100zM454.5 903q-47.5 39 -82.5 55v12l123 151q45 -21 94 -63.5t70 -79.5l-133 -145q-24 31 -71.5 70zM1354 1060.5q-20 -54.5 -28 -84.5q-105 -8 -210.5 -12
t-160.5 -4q-86 0 -126.5 17.5t-40.5 61.5q0 20 15 69q14 43 18 69h12q0 -30 34.5 -42t117.5 -12q56 0 190.5 4t211.5 11q-13 -23 -33 -77.5z" />
    <glyph glyph-name="uniFC73" unicode="&#xfc73;" horiz-adv-x="2206" arabic-form="final" 
d="M1831 656q0 -164 32.5 -249t111.5 -119t231 -34l-43 -254q-132 0 -210 46.5t-113.5 148t-35.5 274.5q0 23 2 79h-12q-57 -156 -511 -160q40 -127 40 -234q0 -219 -84 -376.5t-237.5 -240t-359.5 -82.5q-164 0 -278.5 59.5t-174 173t-59.5 273.5q0 237 103 472h21
q-32 -81 -49 -170t-17 -166q0 -122 56.5 -209.5t164.5 -133t261 -45.5q179 0 321 55t221 144.5t79 188.5q0 56 -54 134t-172 196q28 40 55 93.5t44 106.5q209 0 342 13.5t207.5 40.5t107.5 70h12q-2 -68 -2 -95zM1748 1060.5q-20 -54.5 -28 -84.5q-105 -8 -210.5 -12
t-160.5 -4q-86 0 -126.5 17.5t-40.5 61.5q0 20 15 69q14 43 18 69h12q0 -30 34.5 -42t117.5 -12q56 0 190.5 4t211.5 11q-13 -23 -33 -77.5zM615.5 361q-47.5 39 -82.5 55v12l123 151q45 -21 94 -63.5t70 -79.5l-133 -145q-24 31 -71.5 70z" />
    <glyph glyph-name="uniFC75" unicode="&#xfc75;" horiz-adv-x="1994" arabic-form="final" 
d="M1608 59.5q-117 59.5 -161 191t-44 373.5q-260 0 -428.5 -31t-245.5 -78.5t-77 -100.5q0 -62 68.5 -90t201.5 -33l139 -5q105 -4 164.5 -27t85.5 -71.5t26 -131.5q0 -193 -82 -335.5t-238.5 -219t-374.5 -76.5q-249 0 -380.5 131.5t-131.5 374.5q0 242 103 471h19
q-31 -82 -48 -171.5t-17 -164.5q0 -123 56.5 -210t164.5 -132.5t261 -45.5q201 0 345.5 48t218 119.5t73.5 139.5q0 24 -23 39.5t-80 25t-158 13.5l-142 5q-106 4 -169 26t-93.5 73t-30.5 142q0 244 198 376.5t607 132.5q5 -219 47.5 -336t164.5 -172.5t367 -55.5l-43 -254
q-226 0 -343 59.5zM1382 1178.5q-20 -54.5 -28 -84.5q-105 -8 -210.5 -12t-160.5 -4q-86 0 -126.5 17.5t-40.5 61.5q0 20 15 69q14 43 18 69h12q0 -30 34.5 -42t117.5 -12q56 0 190.5 4t211.5 11q-13 -23 -33 -77.5z" />
    <glyph glyph-name="uniFC76" unicode="&#xfc76;" horiz-adv-x="1587" arabic-form="final" 
d="M1213 651q0 -162 32.5 -246t111.5 -117.5t230 -33.5l-42 -254q-133 0 -211 46.5t-113.5 148t-35.5 274.5q0 23 2 79h-12q-55 -155 -503 -160q40 -100 40 -215q0 -205 -70 -366t-185 -250t-246 -89q-55 0 -104 16.5t-115 47.5q-52 26 -80 35v12q174 26 355 118t300 206
t119 200q0 43 -60.5 128t-178.5 196q27 39 54 93t44 107q209 0 342 13.5t207.5 40.5t107.5 70h13q-2 -72 -2 -100zM808 1258.5q-43 33.5 -75 47.5v12l108 136q42 -19 85.5 -55t63.5 -63l-110 -140q-29 29 -72 62.5zM1129 1055.5q-20 -51.5 -27 -79.5q-105 -8 -210.5 -12
t-160.5 -4q-86 0 -126.5 17.5t-40.5 61.5q0 21 15 64q13 38 18 65h12q0 -29 35 -41.5t117 -12.5q42 0 181.5 5t220.5 11q-14 -23 -34 -74.5z" />
    <glyph glyph-name="uniFC77" unicode="&#xfc77;" horiz-adv-x="1587" arabic-form="final" 
d="M1213 651q0 -162 32.5 -246t111.5 -117.5t230 -33.5l-42 -254q-133 0 -211 46.5t-113.5 148t-35.5 274.5q0 23 2 79h-12q-55 -155 -503 -160q40 -100 40 -215q0 -205 -70 -366t-185 -250t-246 -89q-55 0 -104 16.5t-115 47.5q-52 26 -80 35v12q174 26 355 118t300 206
t119 200q0 43 -60.5 128t-178.5 196q27 39 54 93t44 107q209 0 342 13.5t207.5 40.5t107.5 70h13q-2 -72 -2 -100zM454.5 903q-47.5 39 -82.5 55v12l123 151q45 -21 94 -63.5t70 -79.5l-133 -145q-24 31 -71.5 70zM1032 1258.5q-43 33.5 -75 47.5v12l108 136
q42 -19 85.5 -55t63.5 -63l-110 -140q-29 29 -72 62.5zM1353 1055.5q-20 -51.5 -27 -79.5q-105 -8 -210.5 -12t-160.5 -4q-86 0 -126.5 17.5t-40.5 61.5q0 21 15 64q13 38 18 65h12q0 -29 35 -41.5t117 -12.5q42 0 181.5 5t220.5 11q-14 -23 -34 -74.5z" />
    <glyph glyph-name="uniFC79" unicode="&#xfc79;" horiz-adv-x="2206" arabic-form="final" 
d="M1831 656q0 -164 32.5 -249t111.5 -119t231 -34l-43 -254q-132 0 -210 46.5t-113.5 148t-35.5 274.5q0 23 2 79h-12q-57 -156 -511 -160q40 -127 40 -234q0 -219 -84 -376.5t-237.5 -240t-359.5 -82.5q-164 0 -278.5 59.5t-174 173t-59.5 273.5q0 237 103 472h21
q-32 -81 -49 -170t-17 -166q0 -122 56.5 -209.5t164.5 -133t261 -45.5q179 0 321 55t221 144.5t79 188.5q0 56 -54 134t-172 196q28 40 55 93.5t44 106.5q209 0 342 13.5t207.5 40.5t107.5 70h12q-2 -68 -2 -95zM1426 1258.5q-43 33.5 -75 47.5v12l108 136q42 -19 85.5 -55
t63.5 -63l-110 -140q-29 29 -72 62.5zM1747 1055.5q-20 -51.5 -27 -79.5q-105 -8 -210.5 -12t-160.5 -4q-86 0 -126.5 17.5t-40.5 61.5q0 21 15 64q13 38 18 65h12q0 -29 35 -41.5t117 -12.5q42 0 181.5 5t220.5 11q-14 -23 -34 -74.5zM615.5 361q-47.5 39 -82.5 55v12
l123 151q45 -21 94 -63.5t70 -79.5l-133 -145q-24 31 -71.5 70z" />
    <glyph glyph-name="uniFC7B" unicode="&#xfc7b;" horiz-adv-x="1994" arabic-form="final" 
d="M1608 59.5q-117 59.5 -161 191t-44 373.5q-260 0 -428.5 -31t-245.5 -78.5t-77 -100.5q0 -62 68.5 -90t201.5 -33l139 -5q105 -4 164.5 -27t85.5 -71.5t26 -131.5q0 -193 -82 -335.5t-238.5 -219t-374.5 -76.5q-249 0 -380.5 131.5t-131.5 374.5q0 242 103 471h19
q-31 -82 -48 -171.5t-17 -164.5q0 -123 56.5 -210t164.5 -132.5t261 -45.5q201 0 345.5 48t218 119.5t73.5 139.5q0 24 -23 39.5t-80 25t-158 13.5l-142 5q-106 4 -169 26t-93.5 73t-30.5 142q0 244 198 376.5t607 132.5q5 -219 47.5 -336t164.5 -172.5t367 -55.5l-43 -254
q-226 0 -343 59.5zM1060 1376.5q-43 33.5 -75 47.5v12l108 136q42 -19 85.5 -55t63.5 -63l-110 -140q-29 29 -72 62.5zM1381 1173.5q-20 -51.5 -27 -79.5q-105 -8 -210.5 -12t-160.5 -4q-86 0 -126.5 17.5t-40.5 61.5q0 21 15 64q13 38 18 65h12q0 -29 35 -41.5t117 -12.5
q42 0 181.5 5t220.5 11q-14 -23 -34 -74.5z" />
    <glyph glyph-name="uniFC8A" unicode="&#xfc8a;" horiz-adv-x="1587" arabic-form="final" 
d="M1213 651q0 -162 32.5 -246t111.5 -117.5t230 -33.5l-42 -254q-133 0 -211 46.5t-113.5 148t-35.5 274.5q0 23 2 79h-12q-55 -155 -503 -160q40 -100 40 -215q0 -205 -70 -366t-185 -250t-246 -89q-55 0 -104 16.5t-115 47.5q-52 26 -80 35v12q174 26 355 118t300 206
t119 200q0 43 -60.5 128t-178.5 196q27 39 54 93t44 107q209 0 342 13.5t207.5 40.5t107.5 70h13q-2 -72 -2 -100zM800.5 1006q-47.5 39 -82.5 55v12l123 151q45 -21 94 -63.5t70 -79.5l-133 -145q-24 31 -71.5 70z" />
    <glyph glyph-name="uniFC8B" unicode="&#xfc8b;" horiz-adv-x="1587" arabic-form="final" 
d="M1213 651q0 -162 32.5 -246t111.5 -117.5t230 -33.5l-42 -254q-133 0 -211 46.5t-113.5 148t-35.5 274.5q0 23 2 79h-12q-55 -155 -503 -160q40 -100 40 -215q0 -205 -70 -366t-185 -250t-246 -89q-55 0 -104 16.5t-115 47.5q-52 26 -80 35v12q174 26 355 118t300 206
t119 200q0 43 -60.5 128t-178.5 196q27 39 54 93t44 107q209 0 342 13.5t207.5 40.5t107.5 70h13q-2 -72 -2 -100zM454.5 903q-47.5 39 -82.5 55v12l123 151q45 -21 94 -63.5t70 -79.5l-133 -145q-24 31 -71.5 70zM1024.5 1006q-47.5 39 -82.5 55v12l123 151
q45 -21 94 -63.5t70 -79.5l-133 -145q-24 31 -71.5 70z" />
    <glyph glyph-name="uniFC8D" unicode="&#xfc8d;" horiz-adv-x="2206" arabic-form="final" 
d="M1831 656q0 -164 32.5 -249t111.5 -119t231 -34l-43 -254q-132 0 -210 46.5t-113.5 148t-35.5 274.5q0 23 2 79h-12q-57 -156 -511 -160q40 -127 40 -234q0 -219 -84 -376.5t-237.5 -240t-359.5 -82.5q-164 0 -278.5 59.5t-174 173t-59.5 273.5q0 237 103 472h21
q-32 -81 -49 -170t-17 -166q0 -122 56.5 -209.5t164.5 -133t261 -45.5q179 0 321 55t221 144.5t79 188.5q0 56 -54 134t-172 196q28 40 55 93.5t44 106.5q209 0 342 13.5t207.5 40.5t107.5 70h12q-2 -68 -2 -95zM1418.5 1006q-47.5 39 -82.5 55v12l123 151q45 -21 94 -63.5
t70 -79.5l-133 -145q-24 31 -71.5 70zM615.5 361q-47.5 39 -82.5 55v12l123 151q45 -21 94 -63.5t70 -79.5l-133 -145q-24 31 -71.5 70z" />
    <glyph glyph-name="uniFC8F" unicode="&#xfc8f;" horiz-adv-x="1994" arabic-form="final" 
d="M1608 59.5q-117 59.5 -161 191t-44 373.5q-260 0 -428.5 -31t-245.5 -78.5t-77 -100.5q0 -62 68.5 -90t201.5 -33l139 -5q105 -4 164.5 -27t85.5 -71.5t26 -131.5q0 -193 -82 -335.5t-238.5 -219t-374.5 -76.5q-249 0 -380.5 131.5t-131.5 374.5q0 242 103 471h19
q-31 -82 -48 -171.5t-17 -164.5q0 -123 56.5 -210t164.5 -132.5t261 -45.5q201 0 345.5 48t218 119.5t73.5 139.5q0 24 -23 39.5t-80 25t-158 13.5l-142 5q-106 4 -169 26t-93.5 73t-30.5 142q0 244 198 376.5t607 132.5q5 -219 47.5 -336t164.5 -172.5t367 -55.5l-43 -254
q-226 0 -343 59.5zM1052.5 1124q-47.5 39 -82.5 55v12l123 151q45 -21 94 -63.5t70 -79.5l-133 -145q-24 31 -71.5 70z" />
    <glyph glyph-name="uniFC91" unicode="&#xfc91;" horiz-adv-x="1587" arabic-form="final" 
d="M1213 651q0 -162 32.5 -246t111.5 -117.5t230 -33.5l-42 -254q-133 0 -211 46.5t-113.5 148t-35.5 274.5q0 23 2 79h-12q-55 -155 -503 -160q40 -100 40 -215q0 -205 -70 -366t-185 -250t-246 -89q-55 0 -104 16.5t-115 47.5q-52 26 -80 35v12q174 26 355 118t300 206
t119 200q0 43 -60.5 128t-178.5 196q27 39 54 93t44 107q209 0 342 13.5t207.5 40.5t107.5 70h13q-2 -72 -2 -100zM796 -318.5q20 54.5 28 84.5q105 8 210.5 12t160.5 4q86 0 126.5 -17.5t40.5 -61.5q0 -20 -15 -69q-14 -43 -18 -69h-12q0 30 -34.5 42t-117.5 12
q-56 0 -190.5 -4t-211.5 -11q13 23 33 77.5z" />
    <glyph glyph-name="uniFC92" unicode="&#xfc92;" horiz-adv-x="1587" arabic-form="final" 
d="M1213 651q0 -162 32.5 -246t111.5 -117.5t230 -33.5l-42 -254q-133 0 -211 46.5t-113.5 148t-35.5 274.5q0 23 2 79h-12q-55 -155 -503 -160q40 -100 40 -215q0 -205 -70 -366t-185 -250t-246 -89q-55 0 -104 16.5t-115 47.5q-52 26 -80 35v12q174 26 355 118t300 206
t119 200q0 43 -60.5 128t-178.5 196q27 39 54 93t44 107q209 0 342 13.5t207.5 40.5t107.5 70h13q-2 -72 -2 -100zM478.5 903q-47.5 39 -82.5 55v12l123 151q45 -21 94 -63.5t70 -79.5l-133 -145q-24 31 -71.5 70zM796 -318.5q20 54.5 28 84.5q105 8 210.5 12t160.5 4
q86 0 126.5 -17.5t40.5 -61.5q0 -20 -15 -69q-14 -43 -18 -69h-12q0 30 -34.5 42t-117.5 12q-56 0 -190.5 -4t-211.5 -11q13 23 33 77.5z" />
    <glyph glyph-name="uniFC94" unicode="&#xfc94;" horiz-adv-x="2206" arabic-form="final" 
d="M1831 656q0 -164 32.5 -249t111.5 -119t231 -34l-43 -254q-132 0 -210 46.5t-113.5 148t-35.5 274.5q0 23 2 79h-12q-57 -156 -511 -160q40 -127 40 -234q0 -219 -84 -376.5t-237.5 -240t-359.5 -82.5q-164 0 -278.5 59.5t-174 173t-59.5 273.5q0 237 103 472h21
q-32 -81 -49 -170t-17 -166q0 -122 56.5 -209.5t164.5 -133t261 -45.5q179 0 321 55t221 144.5t79 188.5q0 56 -54 134t-172 196q28 40 55 93.5t44 106.5q209 0 342 13.5t207.5 40.5t107.5 70h12q-2 -68 -2 -95zM1415 -318.5q20 54.5 28 84.5q105 8 210.5 12t160.5 4
q86 0 126.5 -17.5t40.5 -61.5q0 -20 -15 -69q-14 -43 -18 -69h-12q0 30 -34.5 42t-117.5 12q-56 0 -190.5 -4t-211.5 -11q13 23 33 77.5zM615.5 361q-47.5 39 -82.5 55v12l123 151q45 -21 94 -63.5t70 -79.5l-133 -145q-24 31 -71.5 70z" />
    <glyph glyph-name="uniFC96" unicode="&#xfc96;" horiz-adv-x="1994" arabic-form="final" 
d="M1608 59.5q-117 59.5 -161 191t-44 373.5q-260 0 -428.5 -31t-245.5 -78.5t-77 -100.5q0 -62 68.5 -90t201.5 -33l139 -5q105 -4 164.5 -27t85.5 -71.5t26 -131.5q0 -193 -82 -335.5t-238.5 -219t-374.5 -76.5q-249 0 -380.5 131.5t-131.5 374.5q0 242 103 471h19
q-31 -82 -48 -171.5t-17 -164.5q0 -123 56.5 -210t164.5 -132.5t261 -45.5q201 0 345.5 48t218 119.5t73.5 139.5q0 24 -23 39.5t-80 25t-158 13.5l-142 5q-106 4 -169 26t-93.5 73t-30.5 142q0 244 198 376.5t607 132.5q5 -219 47.5 -336t164.5 -172.5t367 -55.5l-43 -254
q-226 0 -343 59.5zM1363 -318.5q20 54.5 28 84.5q105 8 210.5 12t160.5 4q86 0 126.5 -17.5t40.5 -61.5q0 -20 -15 -69q-14 -43 -18 -69h-12q0 30 -34.5 42t-117.5 12q-56 0 -190.5 -4t-211.5 -11q13 23 33 77.5z" />
    <glyph glyph-name="uniFCFC" unicode="&#xfcfc;" horiz-adv-x="2649" arabic-form="isolated" 
d="M2423 795q41 -98 68 -195t27 -223q0 -179 -71 -278t-202 -99q-111 0 -169.5 65t-51.5 186h-12q-24 -124 -98 -187.5t-184 -63.5q-115 0 -186 61t-106 197.5t-35 365.5q-260 0 -428.5 -31t-245.5 -78.5t-77 -100.5q0 -62 68.5 -90t201.5 -33l139 -5q105 -4 164.5 -27
t85.5 -71.5t26 -131.5q0 -193 -82 -335.5t-238.5 -219t-374.5 -76.5q-249 0 -380.5 131.5t-131.5 374.5q0 242 103 471h19q-31 -82 -48 -171.5t-17 -164.5q0 -123 56.5 -210t164.5 -132.5t261 -45.5q201 0 345.5 48t218 119.5t73.5 139.5q0 24 -23 39.5t-80 25t-158 13.5
l-142 5q-106 4 -169 26t-93.5 73t-30.5 142q0 244 198 376.5t607 132.5q5 -208 38 -329.5t107.5 -178t205.5 -56.5q92 0 149.5 27t91 88t50.5 167h18q-3 -31 -11 -92t-16 -109q30 -39 87 -60t131 -21q59 0 110 14t81.5 36.5t30.5 46.5q0 44 -46.5 115.5t-145.5 157.5
q26 37 53.5 95t46.5 117h10q5 -13 17 -41z" />
    <glyph glyph-name="uniFCFE" unicode="&#xfcfe;" horiz-adv-x="2649" arabic-form="isolated" 
d="M2423 795q41 -98 68 -195t27 -223q0 -179 -71 -278t-202 -99q-111 0 -169.5 65t-51.5 186h-12q-24 -124 -98 -187.5t-184 -63.5q-115 0 -186 61t-106 197.5t-35 365.5q-260 0 -428.5 -31t-245.5 -78.5t-77 -100.5q0 -62 68.5 -90t201.5 -33l139 -5q105 -4 164.5 -27
t85.5 -71.5t26 -131.5q0 -193 -82 -335.5t-238.5 -219t-374.5 -76.5q-249 0 -380.5 131.5t-131.5 374.5q0 242 103 471h19q-31 -82 -48 -171.5t-17 -164.5q0 -123 56.5 -210t164.5 -132.5t261 -45.5q201 0 345.5 48t218 119.5t73.5 139.5q0 24 -23 39.5t-80 25t-158 13.5
l-142 5q-106 4 -169 26t-93.5 73t-30.5 142q0 244 198 376.5t607 132.5q5 -208 38 -329.5t107.5 -178t205.5 -56.5q92 0 149.5 27t91 88t50.5 167h18q-3 -31 -11 -92t-16 -109q30 -39 87 -60t131 -21q59 0 110 14t81.5 36.5t30.5 46.5q0 44 -46.5 115.5t-145.5 157.5
q26 37 53.5 95t46.5 117h10q5 -13 17 -41zM1905 1128.5q-43 33.5 -75 47.5v12l108 136q42 -19 85.5 -55t63.5 -63l-110 -140q-29 29 -72 62.5zM2226 925.5q-20 -51.5 -27 -79.5q-105 -8 -210.5 -12t-160.5 -4q-86 0 -126.5 17.5t-40.5 61.5q0 21 15 64q13 38 18 65h12
q0 -29 35 -41.5t117 -12.5q42 0 181.5 5t220.5 11q-14 -23 -34 -74.5z" />
    <glyph glyph-name="uniFD06" unicode="&#xfd06;" horiz-adv-x="2655" arabic-form="isolated" 
d="M2388.5 830.5q65.5 -42.5 100.5 -120t35 -180.5q0 -159 -77 -279t-219.5 -185.5t-334.5 -65.5q-183 0 -289.5 55t-154 175t-47.5 323q0 47 1 71q-260 0 -428.5 -31t-245.5 -78.5t-77 -100.5q0 -62 68.5 -90t201.5 -33l139 -5q105 -4 164.5 -27t85.5 -71.5t26 -131.5
q0 -193 -82 -335.5t-238.5 -219t-374.5 -76.5q-249 0 -380.5 131.5t-131.5 374.5q0 242 103 471h19q-31 -82 -48 -171.5t-17 -164.5q0 -123 56.5 -210t164.5 -132.5t261 -45.5q201 0 345.5 48t218 119.5t73.5 139.5q0 24 -23 39.5t-80 25t-158 13.5l-142 5q-106 4 -169 26
t-93.5 73t-30.5 142q0 244 198 376.5t607 132.5q3 -146 19 -241t56 -161.5t114 -104.5q177 295 328.5 428.5t300.5 133.5q90 0 155.5 -42.5zM2223.5 276.5q124.5 22.5 193 62.5t68.5 91q0 54 -36.5 110.5t-105.5 94t-159 37.5t-193.5 -47.5t-201 -131.5t-169.5 -190
q111 -49 316 -49q163 0 287.5 22.5z" />
    <glyph glyph-name="uniFD08" unicode="&#xfd08;" horiz-adv-x="2655" arabic-form="isolated" 
d="M2388.5 830.5q65.5 -42.5 100.5 -120t35 -180.5q0 -159 -77 -279t-219.5 -185.5t-334.5 -65.5q-183 0 -289.5 55t-154 175t-47.5 323q0 47 1 71q-260 0 -428.5 -31t-245.5 -78.5t-77 -100.5q0 -62 68.5 -90t201.5 -33l139 -5q105 -4 164.5 -27t85.5 -71.5t26 -131.5
q0 -193 -82 -335.5t-238.5 -219t-374.5 -76.5q-249 0 -380.5 131.5t-131.5 374.5q0 242 103 471h19q-31 -82 -48 -171.5t-17 -164.5q0 -123 56.5 -210t164.5 -132.5t261 -45.5q201 0 345.5 48t218 119.5t73.5 139.5q0 24 -23 39.5t-80 25t-158 13.5l-142 5q-106 4 -169 26
t-93.5 73t-30.5 142q0 244 198 376.5t607 132.5q3 -146 19 -241t56 -161.5t114 -104.5q177 295 328.5 428.5t300.5 133.5q90 0 155.5 -42.5zM2223.5 276.5q124.5 22.5 193 62.5t68.5 91q0 54 -36.5 110.5t-105.5 94t-159 37.5t-193.5 -47.5t-201 -131.5t-169.5 -190
q111 -49 316 -49q163 0 287.5 22.5zM2103.5 1149q-47.5 39 -82.5 55v12l123 151q45 -21 94 -63.5t70 -79.5l-133 -145q-24 31 -71.5 70z" />
    <glyph glyph-name="uniFD0D" unicode="&#xfd0d;" horiz-adv-x="2238" arabic-form="isolated" 
d="M2013 795q41 -98 68 -195t27 -223q0 -179 -71 -278t-202 -99q-112 0 -170.5 65t-50.5 186h-12q-25 -124 -99.5 -187.5t-182.5 -63.5q-142 0 -214 94t-72 312q0 23 2 79q-82 -18 -182 -50.5t-174 -62.5q32 -94 32 -199q0 -205 -70 -366t-185 -250t-246 -89
q-55 0 -104 16.5t-115 47.5q-52 26 -80 35v12q174 26 355 118t300 206t119 200q0 41 -56.5 115.5t-164.5 171.5q43 63 68 146q65 28 239.5 82t275.5 76q2 -172 32 -266.5t95 -134t179 -39.5q92 0 150 27t91.5 88t49.5 167h20q-3 -30 -11.5 -90.5t-16.5 -109.5
q30 -39 87 -60.5t130 -21.5q60 0 111 13t81.5 35.5t30.5 48.5q0 47 -46 116t-146 157q26 39 54 97t46 115h11q5 -13 17 -41zM1504 1128.5q-43 33.5 -75 47.5v12l108 136q42 -19 85.5 -55t63.5 -63l-110 -140q-29 29 -72 62.5zM1825 925.5q-20 -51.5 -27 -79.5
q-105 -8 -210.5 -12t-160.5 -4q-86 0 -126.5 17.5t-40.5 61.5q0 21 15 64q13 38 18 65h12q0 -29 35 -41.5t117 -12.5q42 0 181.5 5t220.5 11q-14 -23 -34 -74.5z" />
    <glyph glyph-name="uniFD0E" unicode="&#xfd0e;" horiz-adv-x="2238" arabic-form="isolated" 
d="M2013 795q41 -98 68 -195t27 -223q0 -179 -71 -278t-202 -99q-112 0 -170.5 65t-50.5 186h-12q-25 -124 -99.5 -187.5t-182.5 -63.5q-142 0 -214 94t-72 312q0 23 2 79q-82 -18 -182 -50.5t-174 -62.5q32 -94 32 -199q0 -205 -70 -366t-185 -250t-246 -89
q-55 0 -104 16.5t-115 47.5q-52 26 -80 35v12q174 26 355 118t300 206t119 200q0 41 -56.5 115.5t-164.5 171.5q43 63 68 146q65 28 239.5 82t275.5 76q2 -172 32 -266.5t95 -134t179 -39.5q92 0 150 27t91.5 88t49.5 167h20q-3 -30 -11.5 -90.5t-16.5 -109.5
q30 -39 87 -60.5t130 -21.5q60 0 111 13t81.5 35.5t30.5 48.5q0 47 -46 116t-146 157q26 39 54 97t46 115h11q5 -13 17 -41z" />
    <glyph glyph-name="uniFD0F" unicode="&#xfd0f;" horiz-adv-x="2248" arabic-form="isolated" 
d="M1982.5 830.5q65.5 -42.5 100.5 -120t35 -180.5q0 -159 -77 -279t-220 -185.5t-334 -65.5q-163 0 -261.5 40.5t-145 131.5t-46.5 247q0 20 2 66q-82 -18 -182 -50.5t-174 -62.5q32 -94 32 -199q0 -205 -70 -366t-185 -250t-246 -89q-55 0 -104 16.5t-115 47.5
q-52 26 -80 35v12q174 26 355 118t300 206t119 200q0 41 -56.5 115.5t-164.5 171.5q43 63 68 146q65 28 239.5 82t275.5 76q1 -110 14.5 -183.5t45 -123.5t87.5 -80q179 297 330.5 431.5t301.5 134.5q90 0 155.5 -42.5zM1816.5 276.5q124.5 22.5 193 62.5t68.5 91
q0 54 -36.5 110.5t-105 94t-158.5 37.5t-194.5 -48t-202.5 -132.5t-171 -191.5q54 -24 131.5 -35t187.5 -11q163 0 287.5 22.5z" />
    <glyph glyph-name="uniFD10" unicode="&#xfd10;" horiz-adv-x="2248" arabic-form="isolated" 
d="M1982.5 830.5q65.5 -42.5 100.5 -120t35 -180.5q0 -159 -77 -279t-220 -185.5t-334 -65.5q-163 0 -261.5 40.5t-145 131.5t-46.5 247q0 20 2 66q-82 -18 -182 -50.5t-174 -62.5q32 -94 32 -199q0 -205 -70 -366t-185 -250t-246 -89q-55 0 -104 16.5t-115 47.5
q-52 26 -80 35v12q174 26 355 118t300 206t119 200q0 41 -56.5 115.5t-164.5 171.5q43 63 68 146q65 28 239.5 82t275.5 76q1 -110 14.5 -183.5t45 -123.5t87.5 -80q179 297 330.5 431.5t301.5 134.5q90 0 155.5 -42.5zM1816.5 276.5q124.5 22.5 193 62.5t68.5 91
q0 54 -36.5 110.5t-105 94t-158.5 37.5t-194.5 -48t-202.5 -132.5t-171 -191.5q54 -24 131.5 -35t187.5 -11q163 0 287.5 22.5zM1712.5 1149q-47.5 39 -82.5 55v12l123 151q45 -21 94 -63.5t70 -79.5l-133 -145q-24 31 -71.5 70z" />
    <glyph glyph-name="uniFD18" unicode="&#xfd18;" horiz-adv-x="2752" arabic-form="final" 
d="M2547.5 304.5q64.5 -50.5 204.5 -50.5l-42 -254q-119 0 -183.5 58t-64.5 167q0 11 2 35h-10q-18 -132 -77.5 -196t-161.5 -64q-95 0 -146.5 65.5t-44.5 185.5h-12q-24 -124 -98 -187.5t-184 -63.5q-115 0 -186 61t-106 197.5t-35 365.5q-260 0 -428.5 -31t-245.5 -78.5
t-77 -100.5q0 -62 68.5 -90t201.5 -33l139 -5q105 -4 164.5 -27t85.5 -71.5t26 -131.5q0 -193 -82 -335.5t-238.5 -219t-374.5 -76.5q-249 0 -380.5 131.5t-131.5 374.5q0 242 103 471h19q-31 -82 -48 -171.5t-17 -164.5q0 -123 56.5 -210t164.5 -132.5t261 -45.5
q201 0 345.5 48t218 119.5t73.5 139.5q0 24 -23 39.5t-80 25t-158 13.5l-142 5q-106 4 -169 26t-93.5 73t-30.5 142q0 244 198 376.5t607 132.5q5 -208 38 -329.5t107.5 -178t205.5 -56.5q92 0 149.5 27t91 88t50.5 167h18q-3 -31 -11 -92t-16 -109q29 -39 77 -60t111 -21
q81 0 137.5 36t71.5 89q0 35 -10.5 98t-21.5 109q35 15 68 40l2 -185q0 -86 64.5 -136.5z" />
    <glyph glyph-name="uniFD1A" unicode="&#xfd1a;" horiz-adv-x="2752" arabic-form="final" 
d="M2547.5 304.5q64.5 -50.5 204.5 -50.5l-42 -254q-119 0 -183.5 58t-64.5 167q0 11 2 35h-10q-18 -132 -77.5 -196t-161.5 -64q-95 0 -146.5 65.5t-44.5 185.5h-12q-24 -124 -98 -187.5t-184 -63.5q-115 0 -186 61t-106 197.5t-35 365.5q-260 0 -428.5 -31t-245.5 -78.5
t-77 -100.5q0 -62 68.5 -90t201.5 -33l139 -5q105 -4 164.5 -27t85.5 -71.5t26 -131.5q0 -193 -82 -335.5t-238.5 -219t-374.5 -76.5q-249 0 -380.5 131.5t-131.5 374.5q0 242 103 471h19q-31 -82 -48 -171.5t-17 -164.5q0 -123 56.5 -210t164.5 -132.5t261 -45.5
q201 0 345.5 48t218 119.5t73.5 139.5q0 24 -23 39.5t-80 25t-158 13.5l-142 5q-106 4 -169 26t-93.5 73t-30.5 142q0 244 198 376.5t607 132.5q5 -208 38 -329.5t107.5 -178t205.5 -56.5q92 0 149.5 27t91 88t50.5 167h18q-3 -31 -11 -92t-16 -109q29 -39 77 -60t111 -21
q81 0 137.5 36t71.5 89q0 35 -10.5 98t-21.5 109q35 15 68 40l2 -185q0 -86 64.5 -136.5zM1969 1128.5q-43 33.5 -75 47.5v12l108 136q42 -19 85.5 -55t63.5 -63l-110 -140q-29 29 -72 62.5zM2290 925.5q-20 -51.5 -27 -79.5q-105 -8 -210.5 -12t-160.5 -4
q-86 0 -126.5 17.5t-40.5 61.5q0 21 15 64q13 38 18 65h12q0 -29 35 -41.5t117 -12.5q42 0 181.5 5t220.5 11q-14 -23 -34 -74.5z" />
    <glyph glyph-name="uniFD22" unicode="&#xfd22;" horiz-adv-x="2708" arabic-form="final" 
d="M2708 254l-42 -254q-104 0 -160 60.5t-59 190.5q-77 -120 -219.5 -185.5t-334.5 -65.5q-183 0 -289.5 55t-154 175t-47.5 323q0 47 1 71q-260 0 -428.5 -31t-245.5 -78.5t-77 -100.5q0 -62 68.5 -90t201.5 -33l139 -5q105 -4 164.5 -27t85.5 -71.5t26 -131.5
q0 -193 -82 -335.5t-238.5 -219t-374.5 -76.5q-249 0 -380.5 131.5t-131.5 374.5q0 242 103 471h19q-31 -82 -48 -171.5t-17 -164.5q0 -123 56.5 -210t164.5 -132.5t261 -45.5q201 0 345.5 48t218 119.5t73.5 139.5q0 24 -23 39.5t-80 25t-158 13.5l-142 5q-106 4 -169 26
t-93.5 73t-30.5 142q0 244 198 376.5t607 132.5q3 -146 19 -241t56 -161.5t114 -104.5q177 295 328.5 428.5t300.5 133.5q90 0 155.5 -42.5t100.5 -120t35 -180.5q0 -133 -54 -239q66 -37 221 -37h17zM2223.5 276.5q124.5 22.5 193 62.5t68.5 91q0 54 -36.5 110.5t-105.5 94
t-159 37.5t-193.5 -47.5t-201 -131.5t-169.5 -190q111 -49 316 -49q163 0 287.5 22.5z" />
    <glyph glyph-name="uniFD24" unicode="&#xfd24;" horiz-adv-x="2708" arabic-form="final" 
d="M2708 254l-42 -254q-104 0 -160 60.5t-59 190.5q-77 -120 -219.5 -185.5t-334.5 -65.5q-183 0 -289.5 55t-154 175t-47.5 323q0 47 1 71q-260 0 -428.5 -31t-245.5 -78.5t-77 -100.5q0 -62 68.5 -90t201.5 -33l139 -5q105 -4 164.5 -27t85.5 -71.5t26 -131.5
q0 -193 -82 -335.5t-238.5 -219t-374.5 -76.5q-249 0 -380.5 131.5t-131.5 374.5q0 242 103 471h19q-31 -82 -48 -171.5t-17 -164.5q0 -123 56.5 -210t164.5 -132.5t261 -45.5q201 0 345.5 48t218 119.5t73.5 139.5q0 24 -23 39.5t-80 25t-158 13.5l-142 5q-106 4 -169 26
t-93.5 73t-30.5 142q0 244 198 376.5t607 132.5q3 -146 19 -241t56 -161.5t114 -104.5q177 295 328.5 428.5t300.5 133.5q90 0 155.5 -42.5t100.5 -120t35 -180.5q0 -133 -54 -239q66 -37 221 -37h17zM2223.5 276.5q124.5 22.5 193 62.5t68.5 91q0 54 -36.5 110.5t-105.5 94
t-159 37.5t-193.5 -47.5t-201 -131.5t-169.5 -190q111 -49 316 -49q163 0 287.5 22.5zM2103.5 1149q-47.5 39 -82.5 55v12l123 151q45 -21 94 -63.5t70 -79.5l-133 -145q-24 31 -71.5 70z" />
    <glyph glyph-name="uniFD29" unicode="&#xfd29;" horiz-adv-x="2340" arabic-form="final" 
d="M2137.5 304.5q64.5 -50.5 202.5 -50.5l-43 -254q-118 0 -182.5 57.5t-64.5 165.5q0 11 2 37h-10q-18 -132 -76.5 -196t-160.5 -64q-89 0 -140.5 57.5t-51.5 163.5q0 20 1 30h-12q-25 -124 -99.5 -187.5t-182.5 -63.5q-142 0 -214 94t-72 312q0 23 2 79
q-82 -18 -182 -50.5t-174 -62.5q32 -94 32 -199q0 -205 -70 -366t-185 -250t-246 -89q-55 0 -104 16.5t-115 47.5q-52 26 -80 35v12q174 26 355 118t300 206t119 200q0 41 -56.5 115.5t-164.5 171.5q43 63 68 146q65 28 239.5 82t275.5 76q2 -172 32 -266.5t95 -134
t179 -39.5q92 0 150 27t91.5 88t49.5 167h20q-3 -31 -11.5 -91.5t-16.5 -108.5q29 -40 77 -61t110 -21q82 0 138.5 36t72.5 89q0 36 -11.5 99.5t-23.5 107.5q17 6 36 17t33 23l2 -185q2 -86 66.5 -136.5zM1566 1128.5q-43 33.5 -75 47.5v12l108 136q42 -19 85.5 -55
t63.5 -63l-110 -140q-29 29 -72 62.5zM1887 925.5q-20 -51.5 -27 -79.5q-105 -8 -210.5 -12t-160.5 -4q-86 0 -126.5 17.5t-40.5 61.5q0 21 15 64q13 38 18 65h12q0 -29 35 -41.5t117 -12.5q42 0 181.5 5t220.5 11q-14 -23 -34 -74.5z" />
    <glyph glyph-name="uniFD2A" unicode="&#xfd2a;" horiz-adv-x="2340" arabic-form="final" 
d="M2137.5 304.5q64.5 -50.5 202.5 -50.5l-43 -254q-118 0 -182.5 57.5t-64.5 165.5q0 11 2 37h-10q-18 -132 -76.5 -196t-160.5 -64q-89 0 -140.5 57.5t-51.5 163.5q0 20 1 30h-12q-25 -124 -99.5 -187.5t-182.5 -63.5q-142 0 -214 94t-72 312q0 23 2 79
q-82 -18 -182 -50.5t-174 -62.5q32 -94 32 -199q0 -205 -70 -366t-185 -250t-246 -89q-55 0 -104 16.5t-115 47.5q-52 26 -80 35v12q174 26 355 118t300 206t119 200q0 41 -56.5 115.5t-164.5 171.5q43 63 68 146q65 28 239.5 82t275.5 76q2 -172 32 -266.5t95 -134
t179 -39.5q92 0 150 27t91.5 88t49.5 167h20q-3 -31 -11.5 -91.5t-16.5 -108.5q29 -40 77 -61t110 -21q82 0 138.5 36t72.5 89q0 36 -11.5 99.5t-23.5 107.5q17 6 36 17t33 23l2 -185q2 -86 66.5 -136.5z" />
    <glyph glyph-name="uniFD2B" unicode="&#xfd2b;" horiz-adv-x="2302" arabic-form="final" 
d="M2302 254l-43 -254q-104 0 -159.5 60.5t-59.5 189.5q-77 -119 -219.5 -184.5t-333.5 -65.5q-163 0 -261.5 40.5t-145 131.5t-46.5 247q0 20 2 66q-82 -18 -182 -50.5t-174 -62.5q32 -94 32 -199q0 -205 -70 -366t-185 -250t-246 -89q-55 0 -104 16.5t-115 47.5
q-52 26 -80 35v12q174 26 355 118t300 206t119 200q0 41 -56.5 115.5t-164.5 171.5q43 63 68 146q65 28 239.5 82t275.5 76q1 -110 14.5 -183.5t45 -123.5t87.5 -80q179 297 330.5 431.5t301.5 134.5q90 0 155.5 -42.5t100.5 -120t35 -180.5q0 -132 -54 -240q66 -36 220 -36
h18zM1816.5 276.5q124.5 22.5 193 62.5t68.5 91q0 54 -36.5 110.5t-105 94t-158.5 37.5t-194.5 -48t-202.5 -132.5t-171 -191.5q54 -24 131.5 -35t187.5 -11q163 0 287.5 22.5z" />
    <glyph glyph-name="uniFD2C" unicode="&#xfd2c;" horiz-adv-x="2302" arabic-form="final" 
d="M2302 254l-43 -254q-104 0 -159.5 60.5t-59.5 189.5q-77 -119 -219.5 -184.5t-333.5 -65.5q-163 0 -261.5 40.5t-145 131.5t-46.5 247q0 20 2 66q-82 -18 -182 -50.5t-174 -62.5q32 -94 32 -199q0 -205 -70 -366t-185 -250t-246 -89q-55 0 -104 16.5t-115 47.5
q-52 26 -80 35v12q174 26 355 118t300 206t119 200q0 41 -56.5 115.5t-164.5 171.5q43 63 68 146q65 28 239.5 82t275.5 76q1 -110 14.5 -183.5t45 -123.5t87.5 -80q179 297 330.5 431.5t301.5 134.5q90 0 155.5 -42.5t100.5 -120t35 -180.5q0 -132 -54 -240q66 -36 220 -36
h18zM1816.5 276.5q124.5 22.5 193 62.5t68.5 91q0 54 -36.5 110.5t-105 94t-158.5 37.5t-194.5 -48t-202.5 -132.5t-171 -191.5q54 -24 131.5 -35t187.5 -11q163 0 287.5 22.5zM1712.5 1149q-47.5 39 -82.5 55v12l123 151q45 -21 94 -63.5t70 -79.5l-133 -145
q-24 31 -71.5 70z" />
    <glyph glyph-name="uniFDF2" unicode="&#xfdf2;" horiz-adv-x="3106" arabic-form="isolated" 
d="M2435 1161q13 -167 20.5 -286.5t7.5 -246.5q0 -87 -19 -188t-54.5 -196t-83.5 -160q-33 -41 -89.5 -62.5t-119.5 -21.5q-148 0 -226 90.5t-78 284.5l1 34h-10q-44 -160 -114.5 -248.5t-179 -124.5t-278.5 -36q-167 0 -269.5 46t-151.5 141.5t-55 248.5h-10
q-23 -166 -107 -246.5t-243 -80.5q-122 0 -184 53t-62 150q0 90 43.5 172.5t165 183t346.5 226.5q-15 89 -22 121q34 27 76.5 75t70.5 95h8q15 -122 22 -209q125 63 194 102.5t114 75.5q-13 -28 -26.5 -64.5t-18.5 -62.5q-102 -50 -258 -130q6 -162 6 -303
q0 -118 39.5 -192.5t127 -111t234.5 -36.5q207 0 316.5 29t163.5 105.5t77 229.5q33 9 70 34q0 -156 32 -242.5t96.5 -121t170.5 -34.5q55 0 102 14t74.5 38.5t27.5 53.5q0 109 -26.5 276.5t-60 320.5t-50.5 205q40 42 86 103.5t78 113.5h12q0 -55 14 -218zM567.5 376
q71.5 21 110.5 58t39 84q0 138 -22 300q-201 -108 -309.5 -180t-145.5 -114t-37 -73q0 -49 45 -72.5t155 -23.5q93 0 164.5 21zM2935 1450q21 -481 21 -741q0 -171 -8 -278.5t-21 -175t-39 -164.5q-22 -85 -32 -127h-12q1 22 1 76q0 176 -17.5 483.5t-40.5 585t-37 350.5
q39 39 85.5 101t79.5 116h12q0 -52 8 -226zM2035 1075q0 -69 -32 -111.5t-89 -42.5q-33 0 -61.5 18t-41.5 49q-12 -68 -53.5 -110t-105.5 -42q-54 0 -82 35t-28 92q0 31 7 60l33 15q-4 -32 -4 -45q0 -46 19.5 -71.5t58.5 -25.5q131 0 125 194l36 20q16 -130 99 -130
q40 0 59 27.5t19 73.5q0 55 -24 118l32 21q33 -73 33 -145zM1808 1222l-39 -19l-10 397l60 39z" />
    <glyph glyph-name="uniFE86" unicode="&#x624;" horiz-adv-x="1002" arabic-form="final" 
d="M959 0h-111q-29 -164 -107.5 -284.5t-189 -184t-232.5 -63.5q-57 0 -111.5 17t-131.5 49q-63 28 -101 39v12q165 14 341.5 79t311.5 160.5t182 196.5q-80 -12 -159 -17t-179 -5q-148 0 -221 79t-73 229q0 131 43 241t119 175t171 65q102 0 178.5 -62t121 -182t51.5 -290
h140zM277.5 284q64.5 -45 206.5 -45q215 0 338 6q-26 168 -117.5 262.5t-227.5 94.5q-69 0 -130 -30.5t-97.5 -78.5t-36.5 -99q0 -65 64.5 -110zM546.5 1131.5q70.5 10.5 100.5 22.5v-12q-13 -19 -25.5 -49.5t-19.5 -57.5q-121 -25 -219 -72.5t-151 -101.5h-12q18 52 56 95
t91 73q-65 13 -100 49.5t-35 88.5q0 65 28 126t74.5 99t98.5 38q51 0 83 -34t32 -88q0 -21 -5 -51h-12q-4 41 -29.5 60t-71.5 19q-49 0 -88 -20t-61 -48.5t-22 -53.5q0 -23 19.5 -44.5t56.5 -35t87 -13.5q54 0 124.5 10.5z" />
    <glyph glyph-name="uniFE8B" unicode="&#x626;" horiz-adv-x="579" arabic-form="initial" 
d="M397.5 178.5q-50.5 -89.5 -158.5 -134t-281 -44.5q-28 0 -40 21.5t-12 63.5q0 169 94 169q124 0 219.5 15t147.5 41t52 57q0 32 -32.5 86t-82.5 112.5t-99 100.5q24 30 56.5 96.5t52.5 122.5h10q3 -7 19 -44q44 -99 74.5 -201.5t30.5 -233.5q0 -138 -50.5 -227.5z
M333.5 1225.5q70.5 10.5 100.5 22.5v-12q-13 -19 -25.5 -49.5t-19.5 -57.5q-121 -25 -219 -72.5t-151 -101.5h-12q18 52 56 95t91 73q-65 13 -100 49.5t-35 88.5q0 65 28 126t74.5 99t98.5 38q51 0 83 -34t32 -88q0 -21 -5 -51h-12q-4 41 -29.5 60t-71.5 19q-49 0 -88 -20
t-61 -48.5t-22 -53.5q0 -23 19.5 -44.5t56.5 -35t87 -13.5q54 0 124.5 10.5z" />
    <glyph glyph-name="uniFE8C" unicode="&#x626;" horiz-adv-x="763" arabic-form="medial" 
d="M514.5 67q-73.5 67 -73.5 228q0 21 4 75h-12q-9 -134 -60.5 -215t-152.5 -118t-262 -37q-28 0 -40 21.5t-12 63.5q0 169 94 169q184 0 276.5 29.5t133.5 100.5t62 216h19v-103q0 -86 25 -139t84 -78.5t163 -25.5l-42 -254q-133 0 -206.5 67zM454.5 913.5
q70.5 10.5 100.5 22.5v-12q-13 -19 -25.5 -49.5t-19.5 -57.5q-121 -25 -219 -72.5t-151 -101.5h-12q18 52 56 95t91 73q-65 13 -100 49.5t-35 88.5q0 65 28 126t74.5 99t98.5 38q51 0 83 -34t32 -88q0 -21 -5 -51h-12q-4 41 -29.5 60t-71.5 19q-49 0 -88 -20t-61 -48.5
t-22 -53.5q0 -23 19.5 -44.5t56.5 -35t87 -13.5q54 0 124.5 10.5z" />
    <glyph glyph-name="uniFE8E" unicode="&#x627;" horiz-adv-x="603" arabic-form="final" 
d="M350.5 38.5q-77.5 38.5 -114 129t-40.5 250.5q-7 360 -15.5 546t-20 281.5t-34.5 213.5q39 39 85.5 101t79.5 116h12q0 -52 5 -135q7 -161 7 -262q0 -119 -6 -369q-6 -252 -6 -374q0 -102 29.5 -163.5t95 -90t175.5 -28.5l-43 -254q-132 0 -209.5 38.5z" />
    <glyph glyph-name="uniFE90" unicode="&#x628;" horiz-adv-x="1993" arabic-form="final" 
d="M1739 72.5q-69 72.5 -69 220.5q0 56 10 128h-12q-66 -224 -279.5 -328.5t-576.5 -104.5q-244 0 -394 47.5t-219 142t-69 239.5q0 80 16 168.5t56 196.5h19q-18 -63 -26.5 -115t-8.5 -109q0 -94 68.5 -165t214.5 -111t370 -40q377 0 590.5 76t282.5 239h16q-8 -80 -8 -103
q0 -94 62.5 -147t210.5 -53l-42 -254q-143 0 -212 72.5zM792 -411q-47 39 -80 54v12l123 151q45 -20 94 -62.5t70 -79.5l-133 -146q-27 32 -74 71z" />
    <glyph glyph-name="uniFE91" unicode="&#x628;" horiz-adv-x="579" arabic-form="initial" 
d="M397.5 178.5q-50.5 -89.5 -158.5 -134t-281 -44.5q-28 0 -40 21.5t-12 63.5q0 169 94 169q124 0 219.5 15t147.5 41t52 57q0 32 -32.5 86t-82.5 112.5t-99 100.5q24 30 56.5 96.5t52.5 122.5h10q3 -7 19 -44q44 -99 74.5 -201.5t30.5 -233.5q0 -138 -50.5 -227.5z
M44 -411q-47 39 -80 54v12l123 151q45 -20 94 -62.5t70 -79.5l-133 -146q-27 32 -74 71z" />
    <glyph glyph-name="uniFE92" unicode="&#x628;" horiz-adv-x="763" arabic-form="medial" 
d="M514.5 67q-73.5 67 -73.5 228q0 21 4 75h-12q-9 -134 -60.5 -215t-152.5 -118t-262 -37q-28 0 -40 21.5t-12 63.5q0 169 94 169q184 0 276.5 29.5t133.5 100.5t62 216h19v-103q0 -86 25 -139t84 -78.5t163 -25.5l-42 -254q-133 0 -206.5 67zM50 -411q-47 39 -80 54v12
l123 151q45 -20 94 -62.5t70 -79.5l-133 -146q-27 32 -74 71z" />
    <glyph glyph-name="uniFE94" unicode="&#x629;" horiz-adv-x="1130" arabic-form="final" 
d="M921.5 329.5q70.5 -75.5 208.5 -75.5l-42 -254q-169 0 -256 102.5t-96 333.5h-12q-23 -166 -107 -246.5t-243 -80.5q-121 0 -182.5 53t-61.5 150q0 95 48 178.5t167 181t338 232.5q-11 71 -21 111q35 26 77 74t71 96h8l3 -22q14 -129 22 -253.5t8 -345.5
q0 -159 70.5 -234.5zM565.5 376q71.5 21 111 58t39.5 84q0 131 -21 301q-276 -145 -384 -230.5t-108 -137.5q0 -49 45 -72.5t153 -23.5q93 0 164.5 21zM972 1427.5q-20 -54.5 -28 -84.5q-105 -8 -210.5 -12t-160.5 -4q-86 0 -126.5 17.5t-40.5 61.5q0 20 15 69q14 43 18 69
h12q0 -30 34.5 -42t117.5 -12q56 0 190.5 4t211.5 11q-13 -23 -33 -77.5z" />
    <glyph glyph-name="uniFE96" unicode="&#x62a;" horiz-adv-x="1993" arabic-form="final" 
d="M1739 72.5q-69 72.5 -69 220.5q0 56 10 128h-12q-66 -224 -279.5 -328.5t-576.5 -104.5q-244 0 -394 47.5t-219 142t-69 239.5q0 80 16 168.5t56 196.5h19q-18 -63 -26.5 -115t-8.5 -109q0 -94 68.5 -165t214.5 -111t370 -40q377 0 590.5 76t282.5 239h16q-8 -80 -8 -103
q0 -94 62.5 -147t210.5 -53l-42 -254q-143 0 -212 72.5zM1202 794.5q-20 -54.5 -28 -84.5q-105 -8 -210.5 -12t-160.5 -4q-86 0 -126.5 17.5t-40.5 61.5q0 20 15 69q14 43 18 69h12q0 -30 34.5 -42t117.5 -12q56 0 190.5 4t211.5 11q-13 -23 -33 -77.5z" />
    <glyph glyph-name="uniFE97" unicode="&#x62a;" horiz-adv-x="579" arabic-form="initial" 
d="M397.5 178.5q-50.5 -89.5 -158.5 -134t-281 -44.5q-28 0 -40 21.5t-12 63.5q0 169 94 169q124 0 219.5 15t147.5 41t52 57q0 32 -32.5 86t-82.5 112.5t-99 100.5q24 30 56.5 96.5t52.5 122.5h10q3 -7 19 -44q44 -99 74.5 -201.5t30.5 -233.5q0 -138 -50.5 -227.5z
M479 1169.5q-20 -54.5 -28 -84.5q-105 -8 -210.5 -12t-160.5 -4q-86 0 -126.5 17.5t-40.5 61.5q0 20 15 69q14 43 18 69h12q0 -30 34.5 -42t117.5 -12q56 0 190.5 4t211.5 11q-13 -23 -33 -77.5z" />
    <glyph glyph-name="uniFE98" unicode="&#x62a;" horiz-adv-x="763" arabic-form="medial" 
d="M514.5 67q-73.5 67 -73.5 228q0 21 4 75h-12q-9 -134 -60.5 -215t-152.5 -118t-262 -37q-28 0 -40 21.5t-12 63.5q0 169 94 169q184 0 276.5 29.5t133.5 100.5t62 216h19v-103q0 -86 25 -139t84 -78.5t163 -25.5l-42 -254q-133 0 -206.5 67zM588 903.5
q-20 -54.5 -28 -84.5q-105 -8 -210.5 -12t-160.5 -4q-86 0 -126.5 17.5t-40.5 61.5q0 20 15 69q14 43 18 69h12q0 -30 34.5 -42t117.5 -12q56 0 190.5 4t211.5 11q-13 -23 -33 -77.5z" />
    <glyph glyph-name="uniFE9A" unicode="&#x62b;" horiz-adv-x="1993" arabic-form="final" 
d="M1739 72.5q-69 72.5 -69 220.5q0 56 10 128h-12q-66 -224 -279.5 -328.5t-576.5 -104.5q-244 0 -394 47.5t-219 142t-69 239.5q0 80 16 168.5t56 196.5h19q-18 -63 -26.5 -115t-8.5 -109q0 -94 68.5 -165t214.5 -111t370 -40q377 0 590.5 76t282.5 239h16q-8 -80 -8 -103
q0 -94 62.5 -147t210.5 -53l-42 -254q-143 0 -212 72.5zM880 992.5q-43 33.5 -75 47.5v12l108 136q42 -19 85.5 -55t63.5 -63l-110 -140q-29 29 -72 62.5zM1201 789.5q-20 -51.5 -27 -79.5q-105 -8 -210.5 -12t-160.5 -4q-86 0 -126.5 17.5t-40.5 61.5q0 21 15 64
q13 38 18 65h12q0 -29 35 -41.5t117 -12.5q42 0 181.5 5t220.5 11q-14 -23 -34 -74.5z" />
    <glyph glyph-name="uniFE9B" unicode="&#x62b;" horiz-adv-x="579" arabic-form="initial" 
d="M397.5 178.5q-50.5 -89.5 -158.5 -134t-281 -44.5q-28 0 -40 21.5t-12 63.5q0 169 94 169q124 0 219.5 15t147.5 41t52 57q0 32 -32.5 86t-82.5 112.5t-99 100.5q24 30 56.5 96.5t52.5 122.5h10q3 -7 19 -44q44 -99 74.5 -201.5t30.5 -233.5q0 -138 -50.5 -227.5z
M157 1367.5q-43 33.5 -75 47.5v12l108 136q42 -19 85.5 -55t63.5 -63l-110 -140q-29 29 -72 62.5zM478 1164.5q-20 -51.5 -27 -79.5q-105 -8 -210.5 -12t-160.5 -4q-86 0 -126.5 17.5t-40.5 61.5q0 21 15 64q13 38 18 65h12q0 -29 35 -41.5t117 -12.5q42 0 181.5 5t220.5 11
q-14 -23 -34 -74.5z" />
    <glyph glyph-name="uniFE9C" unicode="&#x62b;" horiz-adv-x="763" arabic-form="medial" 
d="M514.5 67q-73.5 67 -73.5 228q0 21 4 75h-12q-9 -134 -60.5 -215t-152.5 -118t-262 -37q-28 0 -40 21.5t-12 63.5q0 169 94 169q184 0 276.5 29.5t133.5 100.5t62 216h19v-103q0 -86 25 -139t84 -78.5t163 -25.5l-42 -254q-133 0 -206.5 67zM266 1101.5
q-43 33.5 -75 47.5v12l108 136q42 -19 85.5 -55t63.5 -63l-110 -140q-29 29 -72 62.5zM587 898.5q-20 -51.5 -27 -79.5q-105 -8 -210.5 -12t-160.5 -4q-86 0 -126.5 17.5t-40.5 61.5q0 21 15 64q13 38 18 65h12q0 -29 35 -41.5t117 -12.5q42 0 181.5 5t220.5 11
q-14 -23 -34 -74.5z" />
    <glyph glyph-name="uniFE9E" unicode="&#x62c;" horiz-adv-x="1454" arabic-form="final" 
d="M633 -161q-47 39 -80 54v12l123 151q45 -20 94 -62.5t70 -79.5l-133 -146q-27 32 -74 71zM1454 254l-42 -254h-33q-135 0 -213.5 32.5t-114 108t-35.5 208.5q0 63 5 109q-269 -69 -461.5 -160t-294 -198.5t-101.5 -223.5q0 -115 84.5 -207t233 -144.5t333.5 -52.5
q130 0 272.5 10.5t240.5 31.5v-13l-78 -52q-88 -61 -159 -101t-173 -69t-230 -29q-169 0 -295 64.5t-194.5 184t-68.5 280.5q0 203 91.5 351.5t285 257t505.5 190.5v12q-64 8 -131.5 27.5t-160.5 52.5q-112 38 -179.5 56.5t-127.5 18.5q-75 0 -128.5 -36t-90.5 -110h-12
q37 135 76.5 208.5t86 102.5t110.5 29q65 0 141 -22.5t204 -70.5q158 -60 280 -95t251 -42v-12q-30 -28 -70 -87t-64 -111q-83 -17 -158 -36q3 -84 39.5 -128.5t117 -62.5t226.5 -18h32z" />
    <glyph glyph-name="uniFE9F" unicode="&#x62c;" horiz-adv-x="1374" arabic-form="initial" 
d="M329 -411q-47 39 -80 54v12l123 151q45 -20 94 -62.5t70 -79.5l-133 -146q-27 32 -74 71zM526 859.5q76 -22.5 201 -69.5q111 -41 187.5 -66.5t167.5 -45.5t182 -24v-12q-24 -22 -60.5 -73t-54.5 -88q-62 0 -118.5 -21.5t-105.5 -55t-125 -93.5q-125 -97 -226 -158.5
t-256 -107t-360 -45.5q-28 0 -40 21.5t-12 63.5q0 169 94 169q220 0 381 26t262 61t218 89q58 27 96.5 42.5t78.5 26.5v12q-107 19 -198.5 45t-200.5 64q-109 37 -171.5 53.5t-122.5 16.5q-74 0 -127.5 -36.5t-91.5 -109.5h-12q37 135 76.5 208t86 101.5t110.5 28.5
q65 0 141 -22.5z" />
    <glyph glyph-name="uniFEA0" unicode="&#x62c;" horiz-adv-x="1354" arabic-form="medial" 
d="M329 -411q-47 39 -80 54v12l123 151q45 -20 94 -62.5t70 -79.5l-133 -146q-27 32 -74 71zM1354 254l-43 -254h-29q-134 0 -208.5 28.5t-107.5 96t-33 189.5q0 37 7 100q-59 -37 -140 -103q-125 -97 -226 -158.5t-256 -107t-360 -45.5q-28 0 -40 21.5t-12 63.5
q0 169 94 169q220 0 381 26t262 61t218 89q58 27 96.5 42.5t78.5 26.5v12q-107 19 -198.5 45t-200.5 64q-109 37 -171.5 53.5t-122.5 16.5q-74 0 -127.5 -36.5t-91.5 -109.5h-12q37 135 76.5 208t86 101.5t110.5 28.5q65 0 141 -22.5t201 -69.5q111 -41 187.5 -66.5
t167.5 -45.5t182 -24v-12q-24 -22 -60.5 -73t-54.5 -88q-94 0 -189 -55q11 -71 51 -108t113.5 -50.5t199.5 -13.5h30z" />
    <glyph glyph-name="uniFEA2" unicode="&#x62d;" horiz-adv-x="1454" arabic-form="final" 
d="M1454 254l-42 -254h-33q-135 0 -213.5 32.5t-114 108t-35.5 208.5q0 63 5 109q-269 -69 -461.5 -160t-294 -198.5t-101.5 -223.5q0 -115 84.5 -207t233 -144.5t333.5 -52.5q130 0 272.5 10.5t240.5 31.5v-13l-78 -52q-88 -61 -159 -101t-173 -69t-230 -29
q-169 0 -295 64.5t-194.5 184t-68.5 280.5q0 203 91.5 351.5t285 257t505.5 190.5v12q-64 8 -131.5 27.5t-160.5 52.5q-112 38 -179.5 56.5t-127.5 18.5q-75 0 -128.5 -36t-90.5 -110h-12q37 135 76.5 208.5t86 102.5t110.5 29q65 0 141 -22.5t204 -70.5q158 -60 280 -95
t251 -42v-12q-30 -28 -70 -87t-64 -111q-83 -17 -158 -36q3 -84 39.5 -128.5t117 -62.5t226.5 -18h32z" />
    <glyph glyph-name="uniFEA3" unicode="&#x62d;" horiz-adv-x="1374" arabic-form="initial" 
d="M526 859.5q76 -22.5 201 -69.5q111 -41 187.5 -66.5t167.5 -45.5t182 -24v-12q-24 -22 -60.5 -73t-54.5 -88q-62 0 -118.5 -21.5t-105.5 -55t-125 -93.5q-125 -97 -226 -158.5t-256 -107t-360 -45.5q-28 0 -40 21.5t-12 63.5q0 169 94 169q220 0 381 26t262 61t218 89
q58 27 96.5 42.5t78.5 26.5v12q-107 19 -198.5 45t-200.5 64q-109 37 -171.5 53.5t-122.5 16.5q-74 0 -127.5 -36.5t-91.5 -109.5h-12q37 135 76.5 208t86 101.5t110.5 28.5q65 0 141 -22.5z" />
    <glyph glyph-name="uniFEA4" unicode="&#x62d;" horiz-adv-x="1354" arabic-form="medial" 
d="M1354 254l-43 -254h-29q-134 0 -208.5 28.5t-107.5 96t-33 189.5q0 37 7 100q-59 -37 -140 -103q-125 -97 -226 -158.5t-256 -107t-360 -45.5q-28 0 -40 21.5t-12 63.5q0 169 94 169q220 0 381 26t262 61t218 89q58 27 96.5 42.5t78.5 26.5v12q-107 19 -198.5 45
t-200.5 64q-109 37 -171.5 53.5t-122.5 16.5q-74 0 -127.5 -36.5t-91.5 -109.5h-12q37 135 76.5 208t86 101.5t110.5 28.5q65 0 141 -22.5t201 -69.5q111 -41 187.5 -66.5t167.5 -45.5t182 -24v-12q-24 -22 -60.5 -73t-54.5 -88q-94 0 -189 -55q11 -71 51 -108t113.5 -50.5
t199.5 -13.5h30z" />
    <glyph glyph-name="uniFEA6" unicode="&#x62e;" horiz-adv-x="1454" arabic-form="final" 
d="M1454 254l-42 -254h-33q-135 0 -213.5 32.5t-114 108t-35.5 208.5q0 63 5 109q-269 -69 -461.5 -160t-294 -198.5t-101.5 -223.5q0 -115 84.5 -207t233 -144.5t333.5 -52.5q130 0 272.5 10.5t240.5 31.5v-13l-78 -52q-88 -61 -159 -101t-173 -69t-230 -29
q-169 0 -295 64.5t-194.5 184t-68.5 280.5q0 203 91.5 351.5t285 257t505.5 190.5v12q-64 8 -131.5 27.5t-160.5 52.5q-112 38 -179.5 56.5t-127.5 18.5q-75 0 -128.5 -36t-90.5 -110h-12q37 135 76.5 208.5t86 102.5t110.5 29q65 0 141 -22.5t204 -70.5q158 -60 280 -95
t251 -42v-12q-30 -28 -70 -87t-64 -111q-83 -17 -158 -36q3 -84 39.5 -128.5t117 -62.5t226.5 -18h32zM519.5 1252q-47.5 39 -82.5 55v12l123 151q45 -21 94 -63.5t70 -79.5l-133 -145q-24 31 -71.5 70z" />
    <glyph glyph-name="uniFEA7" unicode="&#x62e;" horiz-adv-x="1374" arabic-form="initial" 
d="M526 859.5q76 -22.5 201 -69.5q111 -41 187.5 -66.5t167.5 -45.5t182 -24v-12q-24 -22 -60.5 -73t-54.5 -88q-62 0 -118.5 -21.5t-105.5 -55t-125 -93.5q-125 -97 -226 -158.5t-256 -107t-360 -45.5q-28 0 -40 21.5t-12 63.5q0 169 94 169q220 0 381 26t262 61t218 89
q58 27 96.5 42.5t78.5 26.5v12q-107 19 -198.5 45t-200.5 64q-109 37 -171.5 53.5t-122.5 16.5q-74 0 -127.5 -36.5t-91.5 -109.5h-12q37 135 76.5 208t86 101.5t110.5 28.5q65 0 141 -22.5zM446.5 1243q-47.5 39 -82.5 55v12l123 151q45 -21 94 -63.5t70 -79.5l-133 -145
q-24 31 -71.5 70z" />
    <glyph glyph-name="uniFEA8" unicode="&#x62e;" horiz-adv-x="1354" arabic-form="medial" 
d="M1354 254l-43 -254h-29q-134 0 -208.5 28.5t-107.5 96t-33 189.5q0 37 7 100q-59 -37 -140 -103q-125 -97 -226 -158.5t-256 -107t-360 -45.5q-28 0 -40 21.5t-12 63.5q0 169 94 169q220 0 381 26t262 61t218 89q58 27 96.5 42.5t78.5 26.5v12q-107 19 -198.5 45
t-200.5 64q-109 37 -171.5 53.5t-122.5 16.5q-74 0 -127.5 -36.5t-91.5 -109.5h-12q37 135 76.5 208t86 101.5t110.5 28.5q65 0 141 -22.5t201 -69.5q111 -41 187.5 -66.5t167.5 -45.5t182 -24v-12q-24 -22 -60.5 -73t-54.5 -88q-94 0 -189 -55q11 -71 51 -108t113.5 -50.5
t199.5 -13.5h30zM446.5 1243q-47.5 39 -82.5 55v12l123 151q45 -21 94 -63.5t70 -79.5l-133 -145q-24 31 -71.5 70z" />
    <glyph glyph-name="uniFEAA" unicode="&#x62f;" horiz-adv-x="1223" arabic-form="final" 
d="M817 436h-12q-24 -448 -416 -448q-140 0 -207.5 67.5t-67.5 195.5q0 75 20 206h18q-4 -81 18 -127t77.5 -67t157.5 -21q115 0 199.5 27t128.5 70.5t44 90.5q0 33 -22 125t-58 198t-77 186q24 32 69.5 117.5t52.5 110.5h12q13 -64 72 -284l84 -317q41 -165 117 -238.5
t196 -73.5l-42 -254q-292 0 -364 436z" />
    <glyph glyph-name="uniFEAC" unicode="&#x630;" horiz-adv-x="1223" arabic-form="final" 
d="M817 436h-12q-24 -448 -416 -448q-140 0 -207.5 67.5t-67.5 195.5q0 75 20 206h18q-4 -81 18 -127t77.5 -67t157.5 -21q115 0 199.5 27t128.5 70.5t44 90.5q0 33 -22 125t-58 198t-77 186q24 32 69.5 117.5t52.5 110.5h12q13 -64 72 -284l84 -317q41 -165 117 -238.5
t196 -73.5l-42 -254q-292 0 -364 436zM647.5 1406q-47.5 39 -82.5 55v12l123 151q45 -21 94 -63.5t70 -79.5l-133 -145q-24 31 -71.5 70z" />
    <glyph glyph-name="uniFEAE" unicode="&#x631;" horiz-adv-x="921" arabic-form="final" 
d="M879 0q-50 0 -92 13.5t-80 44.5q-18 -174 -91 -308.5t-180.5 -208t-225.5 -73.5q-54 0 -102.5 16.5t-113.5 47.5q-48 23 -82 35v12q161 24 333 107.5t294.5 191t145.5 200.5q-52 49 -103 139t-105 231q19 27 45.5 86.5t43.5 113.5h13q46 -153 96 -239t109 -120.5
t137 -34.5z" />
    <glyph glyph-name="uniFEB0" unicode="&#x632;" horiz-adv-x="921" arabic-form="final" 
d="M879 0q-50 0 -92 13.5t-80 44.5q-18 -174 -91 -308.5t-180.5 -208t-225.5 -73.5q-54 0 -102.5 16.5t-113.5 47.5q-48 23 -82 35v12q161 24 333 107.5t294.5 191t145.5 200.5q-52 49 -103 139t-105 231q19 27 45.5 86.5t43.5 113.5h13q46 -153 96 -239t109 -120.5
t137 -34.5zM482.5 903q-47.5 39 -82.5 55v12l123 151q45 -21 94 -63.5t70 -79.5l-133 -145q-24 31 -71.5 70z" />
    <glyph glyph-name="uniFEB2" unicode="&#x633;" horiz-adv-x="2550" arabic-form="final" 
d="M2345 304.5q64 -50.5 205 -50.5l-42 -254q-121 0 -184.5 58t-63.5 166q0 12 2 36h-11q-18 -132 -77 -196t-162 -64q-95 0 -146 65.5t-44 185.5h-13q-24 -124 -98 -187.5t-183 -63.5q-133 0 -207 100q-10 -203 -96.5 -348t-236 -221t-346.5 -76q-164 0 -278.5 59.5
t-174 173t-59.5 273.5q0 243 103 472h19q-31 -82 -48 -171.5t-17 -164.5q0 -123 56.5 -210t164.5 -132.5t261 -45.5q179 0 321 55t221.5 144.5t79.5 188.5q0 39 -40.5 128.5t-124.5 238.5q19 26 45.5 85.5t43.5 114.5h13q47 -158 98.5 -248t108 -126t128.5 -36q92 0 150 27
t91.5 88t49.5 167h19q-3 -31 -10.5 -86.5t-16.5 -113.5q29 -40 77 -61t110 -21q81 0 138 36t72 89q0 36 -10.5 99.5t-22.5 107.5q38 16 68 40l3 -185q0 -86 64 -136.5z" />
    <glyph glyph-name="uniFEB3" unicode="&#x633;" horiz-adv-x="1421" arabic-form="initial" 
d="M1195 795q41 -98 68 -195t27 -223q0 -179 -71 -278t-202 -99q-112 0 -170.5 65t-50.5 186h-12q-24 -124 -99 -187.5t-183 -63.5q-94 0 -147 55t-53 162q0 22 1 34h-12q-30 -127 -112.5 -189t-220.5 -62q-52 0 -52 85q0 83 24.5 126t69.5 43q108 0 175.5 26t107 87
t59.5 169h21q-3 -32 -11.5 -90.5t-18.5 -117.5q31 -36 83 -55t120 -19q92 0 150 27t91.5 88t49.5 167h21q-3 -30 -11 -85.5t-18 -113.5q31 -40 87.5 -61.5t129.5 -21.5q59 0 110.5 14t82.5 36.5t31 46.5q0 44 -47 115.5t-145 157.5q26 39 53.5 97.5t46.5 114.5h10
q5 -13 17 -41z" />
    <glyph glyph-name="uniFEB4" unicode="&#x633;" horiz-adv-x="1523" arabic-form="medial" 
d="M1318.5 304q63.5 -50 204.5 -50l-42 -254q-121 0 -184.5 58t-63.5 166q0 12 2 36h-11q-18 -132 -76.5 -196t-160.5 -64q-89 0 -140.5 57.5t-51.5 163.5q0 20 1 30h-12q-24 -124 -99 -187.5t-183 -63.5q-94 0 -147 55t-53 162q0 22 1 34h-12q-30 -127 -112.5 -189
t-220.5 -62q-52 0 -52 85q0 83 24.5 126t69.5 43q108 0 175.5 26t107 87t59.5 169h21q-3 -32 -11.5 -90.5t-18.5 -117.5q31 -36 83 -55t120 -19q92 0 150 27t91.5 88t49.5 167h21q-3 -30 -11 -86t-18 -114q29 -40 77 -61t110 -21q82 0 138.5 36t72.5 89q0 35 -11 98.5
t-23 108.5q17 6 36 17.5t32 22.5l3 -185q1 -87 64.5 -137z" />
    <glyph glyph-name="uniFEB6" unicode="&#x634;" horiz-adv-x="2550" arabic-form="final" 
d="M2345 304.5q64 -50.5 205 -50.5l-42 -254q-121 0 -184.5 58t-63.5 166q0 12 2 36h-11q-18 -132 -77 -196t-162 -64q-95 0 -146 65.5t-44 185.5h-13q-24 -124 -98 -187.5t-183 -63.5q-133 0 -207 100q-10 -203 -96.5 -348t-236 -221t-346.5 -76q-164 0 -278.5 59.5
t-174 173t-59.5 273.5q0 243 103 472h19q-31 -82 -48 -171.5t-17 -164.5q0 -123 56.5 -210t164.5 -132.5t261 -45.5q179 0 321 55t221.5 144.5t79.5 188.5q0 39 -40.5 128.5t-124.5 238.5q19 26 45.5 85.5t43.5 114.5h13q47 -158 98.5 -248t108 -126t128.5 -36q92 0 150 27
t91.5 88t49.5 167h19q-3 -31 -10.5 -86.5t-16.5 -113.5q29 -40 77 -61t110 -21q81 0 138 36t72 89q0 36 -10.5 99.5t-22.5 107.5q38 16 68 40l3 -185q0 -86 64 -136.5zM1724 1128.5q-43 33.5 -75 47.5v12l108 136q42 -19 85.5 -55t63.5 -63l-110 -140q-29 29 -72 62.5z
M2045 925.5q-20 -51.5 -27 -79.5q-105 -8 -210.5 -12t-160.5 -4q-86 0 -126.5 17.5t-40.5 61.5q0 21 15 64q13 38 18 65h12q0 -29 35 -41.5t117 -12.5q42 0 181.5 5t220.5 11q-14 -23 -34 -74.5z" />
    <glyph glyph-name="uniFEB7" unicode="&#x634;" horiz-adv-x="1421" arabic-form="initial" 
d="M1195 795q41 -98 68 -195t27 -223q0 -179 -71 -278t-202 -99q-112 0 -170.5 65t-50.5 186h-12q-24 -124 -99 -187.5t-183 -63.5q-94 0 -147 55t-53 162q0 22 1 34h-12q-30 -127 -112.5 -189t-220.5 -62q-52 0 -52 85q0 83 24.5 126t69.5 43q108 0 175.5 26t107 87
t59.5 169h21q-3 -32 -11.5 -90.5t-18.5 -117.5q31 -36 83 -55t120 -19q92 0 150 27t91.5 88t49.5 167h21q-3 -30 -11 -85.5t-18 -113.5q31 -40 87.5 -61.5t129.5 -21.5q59 0 110.5 14t82.5 36.5t31 46.5q0 44 -47 115.5t-145 157.5q26 39 53.5 97.5t46.5 114.5h10
q5 -13 17 -41zM690 1128.5q-43 33.5 -75 47.5v12l108 136q42 -19 85.5 -55t63.5 -63l-110 -140q-29 29 -72 62.5zM1011 925.5q-20 -51.5 -27 -79.5q-105 -8 -210.5 -12t-160.5 -4q-86 0 -126.5 17.5t-40.5 61.5q0 21 15 64q13 38 18 65h12q0 -29 35 -41.5t117 -12.5
q42 0 181.5 5t220.5 11q-14 -23 -34 -74.5z" />
    <glyph glyph-name="uniFEB8" unicode="&#x634;" horiz-adv-x="1523" arabic-form="medial" 
d="M1318.5 304q63.5 -50 204.5 -50l-42 -254q-121 0 -184.5 58t-63.5 166q0 12 2 36h-11q-18 -132 -76.5 -196t-160.5 -64q-89 0 -140.5 57.5t-51.5 163.5q0 20 1 30h-12q-24 -124 -99 -187.5t-183 -63.5q-94 0 -147 55t-53 162q0 22 1 34h-12q-30 -127 -112.5 -189
t-220.5 -62q-52 0 -52 85q0 83 24.5 126t69.5 43q108 0 175.5 26t107 87t59.5 169h21q-3 -32 -11.5 -90.5t-18.5 -117.5q31 -36 83 -55t120 -19q92 0 150 27t91.5 88t49.5 167h21q-3 -30 -11 -86t-18 -114q29 -40 77 -61t110 -21q82 0 138.5 36t72.5 89q0 35 -11 98.5
t-23 108.5q17 6 36 17.5t32 22.5l3 -185q1 -87 64.5 -137zM735 1128.5q-43 33.5 -75 47.5v12l108 136q42 -19 85.5 -55t63.5 -63l-110 -140q-29 29 -72 62.5zM1056 925.5q-20 -51.5 -27 -79.5q-105 -8 -210.5 -12t-160.5 -4q-86 0 -126.5 17.5t-40.5 61.5q0 21 15 64
q13 38 18 65h12q0 -29 35 -41.5t117 -12.5q42 0 181.5 5t220.5 11q-14 -23 -34 -74.5z" />
    <glyph glyph-name="uniFEBA" unicode="&#x635;" horiz-adv-x="2528" arabic-form="final" 
d="M2528 254l-43 -254q-103 0 -158.5 60t-59.5 189q-77 -118 -220.5 -183.5t-334.5 -65.5q-269 0 -390 139q-3 -215 -87.5 -369t-237 -234.5t-355.5 -80.5q-164 0 -278.5 59.5t-174 173t-59.5 273.5q0 243 103 472h19q-31 -82 -48 -171.5t-17 -164.5q0 -123 56.5 -210
t164.5 -132.5t261 -45.5q179 0 321 55t221.5 144.5t79.5 188.5q0 39 -40.5 128.5t-124.5 238.5q19 26 45.5 85.5t43.5 114.5h13q37 -125 88 -206.5t119 -127.5q175 285 323 414t296 129q90 0 155.5 -42.5t100.5 -120t35 -180.5q0 -133 -55 -240q69 -36 222 -36h16z
M2043 276.5q125 22.5 194 62.5t69 91q0 54 -37 110.5t-106 94t-160 37.5q-87 0 -187.5 -45t-195.5 -125t-168 -182q59 -35 133 -50.5t170 -15.5q163 0 288 22.5z" />
    <glyph glyph-name="uniFEBB" unicode="&#x635;" horiz-adv-x="1576" arabic-form="initial" 
d="M1309.5 830.5q65.5 -42.5 100.5 -120t35 -180.5q0 -159 -77.5 -279t-220.5 -185.5t-335 -65.5q-232 0 -359.5 75.5t-138.5 212.5h-12q-26 -142 -114.5 -215t-229.5 -73q-52 0 -52 85q0 83 24.5 126t69.5 43q107 0 177 28t111.5 89.5t59.5 164.5h19q8 -80 46 -136.5
t109 -90.5q179 297 330 430.5t302 133.5q90 0 155.5 -42.5zM1142.5 276.5q125.5 22.5 194.5 62.5t69 91q0 54 -37 110.5t-106 94t-160 37.5q-90 0 -193 -47.5t-200.5 -132t-169.5 -190.5q114 -48 314 -48q163 0 288.5 22.5z" />
    <glyph glyph-name="uniFEBC" unicode="&#x635;" horiz-adv-x="1627" arabic-form="medial" 
d="M1627 254l-42 -254q-104 0 -159.5 60t-59.5 189q-77 -118 -220 -183.5t-334 -65.5q-232 0 -359.5 75.5t-138.5 212.5h-12q-26 -142 -114.5 -215t-229.5 -73q-52 0 -52 85q0 83 24.5 126t69.5 43q107 0 177 28t111.5 89.5t59.5 164.5h19q8 -80 46 -136.5t109 -90.5
q179 297 330 430.5t302 133.5q90 0 155.5 -42.5t100.5 -120t35 -180.5q0 -133 -55 -240q67 -36 221 -36h16zM1142.5 276.5q125.5 22.5 194.5 62.5t69 91q0 54 -37 110.5t-106 94t-160 37.5q-90 0 -193 -47.5t-200.5 -132t-169.5 -190.5q114 -48 314 -48q163 0 288.5 22.5z
" />
    <glyph glyph-name="uniFEBE" unicode="&#x636;" horiz-adv-x="2528" arabic-form="final" 
d="M2528 254l-43 -254q-103 0 -158.5 60t-59.5 189q-77 -118 -220.5 -183.5t-334.5 -65.5q-269 0 -390 139q-3 -215 -87.5 -369t-237 -234.5t-355.5 -80.5q-164 0 -278.5 59.5t-174 173t-59.5 273.5q0 243 103 472h19q-31 -82 -48 -171.5t-17 -164.5q0 -123 56.5 -210
t164.5 -132.5t261 -45.5q179 0 321 55t221.5 144.5t79.5 188.5q0 39 -40.5 128.5t-124.5 238.5q19 26 45.5 85.5t43.5 114.5h13q37 -125 88 -206.5t119 -127.5q175 285 323 414t296 129q90 0 155.5 -42.5t100.5 -120t35 -180.5q0 -133 -55 -240q69 -36 222 -36h16z
M2043 276.5q125 22.5 194 62.5t69 91q0 54 -37 110.5t-106 94t-160 37.5q-87 0 -187.5 -45t-195.5 -125t-168 -182q59 -35 133 -50.5t170 -15.5q163 0 288 22.5zM1922.5 1149q-47.5 39 -82.5 55v12l123 151q45 -21 94 -63.5t70 -79.5l-133 -145q-24 31 -71.5 70z" />
    <glyph glyph-name="uniFEBF" unicode="&#x636;" horiz-adv-x="1576" arabic-form="initial" 
d="M1309.5 830.5q65.5 -42.5 100.5 -120t35 -180.5q0 -159 -77.5 -279t-220.5 -185.5t-335 -65.5q-232 0 -359.5 75.5t-138.5 212.5h-12q-26 -142 -114.5 -215t-229.5 -73q-52 0 -52 85q0 83 24.5 126t69.5 43q107 0 177 28t111.5 89.5t59.5 164.5h19q8 -80 46 -136.5
t109 -90.5q179 297 330 430.5t302 133.5q90 0 155.5 -42.5zM1142.5 276.5q125.5 22.5 194.5 62.5t69 91q0 54 -37 110.5t-106 94t-160 37.5q-90 0 -193 -47.5t-200.5 -132t-169.5 -190.5q114 -48 314 -48q163 0 288.5 22.5zM1037.5 1149q-47.5 39 -82.5 55v12l123 151
q45 -21 94 -63.5t70 -79.5l-133 -145q-24 31 -71.5 70z" />
    <glyph glyph-name="uniFEC0" unicode="&#x636;" horiz-adv-x="1627" arabic-form="medial" 
d="M1627 254l-42 -254q-104 0 -159.5 60t-59.5 189q-77 -118 -220 -183.5t-334 -65.5q-232 0 -359.5 75.5t-138.5 212.5h-12q-26 -142 -114.5 -215t-229.5 -73q-52 0 -52 85q0 83 24.5 126t69.5 43q107 0 177 28t111.5 89.5t59.5 164.5h19q8 -80 46 -136.5t109 -90.5
q179 297 330 430.5t302 133.5q90 0 155.5 -42.5t100.5 -120t35 -180.5q0 -133 -55 -240q67 -36 221 -36h16zM1142.5 276.5q125.5 22.5 194.5 62.5t69 91q0 54 -37 110.5t-106 94t-160 37.5q-90 0 -193 -47.5t-200.5 -132t-169.5 -190.5q114 -48 314 -48q163 0 288.5 22.5z
M1037.5 1149q-47.5 39 -82.5 55v12l123 151q45 -21 94 -63.5t70 -79.5l-133 -145q-24 31 -71.5 70z" />
    <glyph glyph-name="uniFEC2" unicode="&#x637;" horiz-adv-x="1495" arabic-form="final" 
d="M1495 254l-43 -254q-103 0 -158.5 60t-59.5 189q-77 -118 -220.5 -183.5t-334.5 -65.5q-156 0 -250 28.5t-145.5 73.5t-117.5 129q-24 32 -51 63v12q113 -25 229 -37q57 91 91.5 168t52.5 167.5t18 207.5q0 113 -19.5 339t-34.5 308q39 41 85 102.5t79 114.5h12
q0 -25 8 -249q13 -323 13 -412q0 -106 -18 -190.5t-66.5 -189t-145.5 -265.5h12q116 181 213.5 291t189 161t187.5 51q90 0 155.5 -42.5t100.5 -120t35 -180.5q0 -133 -55 -240q69 -36 222 -36h16zM1010 276.5q125 22.5 194 62.5t69 91q0 54 -37 110.5t-106 94t-160 37.5
q-93 0 -199.5 -51t-208 -143.5t-178.5 -212.5q135 -11 338 -11q163 0 288 22.5z" />
    <glyph glyph-name="uniFEC3" unicode="&#x637;" horiz-adv-x="1157" arabic-form="initial" 
d="M890.5 830.5q65.5 -42.5 100.5 -120t35 -180.5q0 -159 -77 -279t-220 -185.5t-335 -65.5h-436q-28 0 -40 21.5t-12 63.5q0 169 94 169h49q61 96 97.5 174t55.5 170.5t19 213.5q0 113 -20 339t-35 308q40 41 86 102.5t79 114.5h12q0 -25 8 -249q13 -323 13 -412
q0 -106 -18 -190.5t-66.5 -189t-146.5 -265.5h12q116 181 214 291t189.5 161t187.5 51q89 0 154.5 -42.5zM724.5 276.5q125.5 22.5 194.5 62.5t69 91q0 54 -37 110.5t-106 94t-160 37.5q-95 0 -203.5 -52.5t-210.5 -147.5t-180 -218h345q163 0 288.5 22.5z" />
    <glyph glyph-name="uniFEC4" unicode="&#x637;" horiz-adv-x="1209" arabic-form="medial" 
d="M1209 254l-42 -254q-104 0 -159.5 60t-59.5 189q-77 -118 -220 -183.5t-334 -65.5h-436q-28 0 -40 21.5t-12 63.5q0 169 94 169h49q61 96 97.5 174t55.5 170.5t19 213.5q0 113 -20 339t-35 308q40 41 86 102.5t79 114.5h12q0 -25 8 -249q13 -323 13 -412
q0 -106 -18 -190.5t-66.5 -189t-146.5 -265.5h12q116 181 214 291t189.5 161t187.5 51q89 0 154.5 -42.5t100.5 -120t35 -180.5q0 -133 -55 -240q69 -36 222 -36h16zM724.5 276.5q125.5 22.5 194.5 62.5t69 91q0 54 -37 110.5t-106 94t-160 37.5q-95 0 -203.5 -52.5
t-210.5 -147.5t-180 -218h345q163 0 288.5 22.5z" />
    <glyph glyph-name="uniFEC6" unicode="&#x638;" horiz-adv-x="1483" arabic-form="final" 
d="M1483 254l-43 -254q-103 0 -158.5 60t-59.5 189q-77 -118 -220.5 -183.5t-334.5 -65.5q-156 0 -250 28.5t-145.5 73.5t-117.5 129q-24 32 -51 63v12q113 -25 229 -37q57 91 91.5 168t52.5 167.5t18 207.5q0 113 -19.5 339t-34.5 308q39 41 85 102.5t79 114.5h12
q0 -25 8 -249q13 -323 13 -412q0 -106 -18 -190.5t-66.5 -189t-145.5 -265.5h12q116 181 213.5 291t189 161t187.5 51q90 0 155.5 -42.5t100.5 -120t35 -180.5q0 -133 -55 -240q69 -36 222 -36h16zM998 276.5q125 22.5 194 62.5t69 91q0 54 -37 110.5t-106 94t-160 37.5
q-93 0 -199.5 -51t-208 -143.5t-178.5 -212.5q135 -11 338 -11q163 0 288 22.5zM942.5 1149q-47.5 39 -82.5 55v12l123 151q45 -21 94 -63.5t70 -79.5l-133 -145q-24 31 -71.5 70z" />
    <glyph glyph-name="uniFEC7" unicode="&#x638;" horiz-adv-x="1157" arabic-form="initial" 
d="M890.5 830.5q65.5 -42.5 100.5 -120t35 -180.5q0 -159 -77 -279t-220 -185.5t-335 -65.5h-436q-28 0 -40 21.5t-12 63.5q0 169 94 169h49q61 96 97.5 174t55.5 170.5t19 213.5q0 113 -20 339t-35 308q40 41 86 102.5t79 114.5h12q0 -25 8 -249q13 -323 13 -412
q0 -106 -18 -190.5t-66.5 -189t-146.5 -265.5h12q116 181 214 291t189.5 161t187.5 51q89 0 154.5 -42.5zM724.5 276.5q125.5 22.5 194.5 62.5t69 91q0 54 -37 110.5t-106 94t-160 37.5q-95 0 -203.5 -52.5t-210.5 -147.5t-180 -218h345q163 0 288.5 22.5zM691.5 1149
q-47.5 39 -82.5 55v12l123 151q45 -21 94 -63.5t70 -79.5l-133 -145q-24 31 -71.5 70z" />
    <glyph glyph-name="uniFEC8" unicode="&#x638;" horiz-adv-x="1209" arabic-form="medial" 
d="M1209 254l-42 -254q-104 0 -159.5 60t-59.5 189q-77 -118 -220 -183.5t-334 -65.5h-436q-28 0 -40 21.5t-12 63.5q0 169 94 169h49q61 96 97.5 174t55.5 170.5t19 213.5q0 113 -20 339t-35 308q40 41 86 102.5t79 114.5h12q0 -25 8 -249q13 -323 13 -412
q0 -106 -18 -190.5t-66.5 -189t-146.5 -265.5h12q116 181 214 291t189.5 161t187.5 51q89 0 154.5 -42.5t100.5 -120t35 -180.5q0 -133 -55 -240q69 -36 222 -36h16zM724.5 276.5q125.5 22.5 194.5 62.5t69 91q0 54 -37 110.5t-106 94t-160 37.5q-95 0 -203.5 -52.5
t-210.5 -147.5t-180 -218h345q163 0 288.5 22.5zM691.5 1149q-47.5 39 -82.5 55v12l123 151q45 -21 94 -63.5t70 -79.5l-133 -145q-24 31 -71.5 70z" />
    <glyph glyph-name="uniFECA" unicode="&#x639;" horiz-adv-x="1290" arabic-form="final" 
d="M261 -360q68 -81 200.5 -124.5t322.5 -43.5q112 0 247.5 11.5t231.5 32.5v-12l-66 -49q-83 -63 -149.5 -104.5t-162.5 -71t-216 -29.5q-159 0 -273 55t-175.5 165t-61.5 270q0 174 80.5 319t267.5 293q-31 45 -79.5 107.5t-94.5 119.5l-70 88q-64 -22 -121 -50l-12 12
q15 29 39.5 88.5t33.5 93.5q100 48 241.5 80.5t258.5 32.5q234 0 455 -100q-14 -23 -36 -72.5t-38 -100.5q-105 -126 -323 -323q43 -31 99 -46.5t140 -21.5t224 -6h66l-42 -254h-60q-167 0 -271 20t-180 74t-137 159q-219 -120 -313 -222.5t-94 -198.5q0 -111 68 -192z
M485 722q-102 -17 -197 -47l84 -69q25 -21 117 -96.5t155 -130.5q209 117 423 288q-176 72 -388 72q-92 0 -194 -17z" />
    <glyph glyph-name="uniFECB" unicode="&#x639;" horiz-adv-x="1097" arabic-form="initial" 
d="M967 399q-26 -26 -73.5 -100.5t-74.5 -131.5q-106 -24 -285 -72q-122 -33 -202 -52t-173.5 -31t-200.5 -12q-28 0 -40 21.5t-12 63.5q0 169 94 169q77 0 185 10q-48 36 -73 93.5t-25 130.5q0 137 59 253.5t156.5 184.5t208.5 68q116 0 180.5 -59t64.5 -156q0 -48 -14 -94
h-12q0 57 -63.5 90.5t-173.5 33.5q-89 0 -174 -32.5t-138.5 -88.5t-53.5 -122q0 -63 45 -116.5t126 -85t184 -31.5q124 0 253.5 20.5t229.5 56.5z" />
    <glyph glyph-name="uniFECC" unicode="&#x639;" horiz-adv-x="1164" arabic-form="medial" 
d="M1164 254l-43 -254h-55q-136 0 -230 16.5t-164 58.5t-120 119q-107 -77 -194.5 -118.5t-180.5 -58.5t-219 -17q-28 0 -40 21.5t-12 63.5q0 169 94 169q151 0 258 12t191 39q-56 81 -217 282l-46 57q-64 -22 -122 -50l-12 12q18 39 41.5 94t32.5 88q98 48 239.5 80
t260.5 32q244 0 455 -100q-14 -21 -36 -70.5t-40 -102.5q-102 -125 -315 -318q57 -32 150.5 -43.5t259.5 -11.5h64zM408.5 698.5q-102.5 -16.5 -197.5 -46.5l35 -29q226 -184 321 -268q197 111 423 290q-173 70 -387 70q-92 0 -194.5 -16.5z" />
    <glyph glyph-name="uniFECE" unicode="&#x63a;" horiz-adv-x="1290" arabic-form="final" 
d="M261 -360q68 -81 200.5 -124.5t322.5 -43.5q112 0 247.5 11.5t231.5 32.5v-12l-66 -49q-83 -63 -149.5 -104.5t-162.5 -71t-216 -29.5q-159 0 -273 55t-175.5 165t-61.5 270q0 174 80.5 319t267.5 293q-31 45 -79.5 107.5t-94.5 119.5l-70 88q-64 -22 -121 -50l-12 12
q15 29 39.5 88.5t33.5 93.5q100 48 241.5 80.5t258.5 32.5q234 0 455 -100q-14 -23 -36 -72.5t-38 -100.5q-105 -126 -323 -323q43 -31 99 -46.5t140 -21.5t224 -6h66l-42 -254h-60q-167 0 -271 20t-180 74t-137 159q-219 -120 -313 -222.5t-94 -198.5q0 -111 68 -192z
M485 722q-102 -17 -197 -47l84 -69q25 -21 117 -96.5t155 -130.5q209 117 423 288q-176 72 -388 72q-92 0 -194 -17zM591.5 1236q-47.5 39 -82.5 55v12l123 151q45 -21 94 -63.5t70 -79.5l-133 -145q-24 31 -71.5 70z" />
    <glyph glyph-name="uniFECF" unicode="&#x63a;" horiz-adv-x="1097" arabic-form="initial" 
d="M967 399q-26 -26 -73.5 -100.5t-74.5 -131.5q-106 -24 -285 -72q-122 -33 -202 -52t-173.5 -31t-200.5 -12q-28 0 -40 21.5t-12 63.5q0 169 94 169q77 0 185 10q-48 36 -73 93.5t-25 130.5q0 137 59 253.5t156.5 184.5t208.5 68q116 0 180.5 -59t64.5 -156q0 -48 -14 -94
h-12q0 57 -63.5 90.5t-173.5 33.5q-89 0 -174 -32.5t-138.5 -88.5t-53.5 -122q0 -63 45 -116.5t126 -85t184 -31.5q124 0 253.5 20.5t229.5 56.5zM409.5 1264q-47.5 39 -82.5 55v12l123 151q45 -21 94 -63.5t70 -79.5l-133 -145q-24 31 -71.5 70z" />
    <glyph glyph-name="uniFED0" unicode="&#x63a;" horiz-adv-x="1164" arabic-form="medial" 
d="M1164 254l-43 -254h-55q-136 0 -230 16.5t-164 58.5t-120 119q-107 -77 -194.5 -118.5t-180.5 -58.5t-219 -17q-28 0 -40 21.5t-12 63.5q0 169 94 169q151 0 258 12t191 39q-56 81 -217 282l-46 57q-64 -22 -122 -50l-12 12q18 39 41.5 94t32.5 88q98 48 239.5 80
t260.5 32q244 0 455 -100q-14 -21 -36 -70.5t-40 -102.5q-102 -125 -315 -318q57 -32 150.5 -43.5t259.5 -11.5h64zM408.5 698.5q-102.5 -16.5 -197.5 -46.5l35 -29q226 -184 321 -268q197 111 423 290q-173 70 -387 70q-92 0 -194.5 -16.5zM515.5 1218q-47.5 39 -82.5 55
v12l123 151q45 -21 94 -63.5t70 -79.5l-133 -145q-24 31 -71.5 70z" />
    <glyph glyph-name="uniFED2" unicode="&#x641;" horiz-adv-x="1967" arabic-form="final" 
d="M1967 254l-43 -254q-192 0 -292.5 34t-139.5 104q-80 -78 -241.5 -114t-438.5 -36q-244 0 -394 47.5t-219 142t-69 239.5q0 80 16 168.5t56 196.5h19q-18 -63 -26.5 -115t-8.5 -109q0 -94 68.5 -165t214.5 -111t370 -40q148 0 258 4.5t198 15.5q-63 68 -63 162
q0 127 49 236t129.5 173t171.5 64q82 0 145 -44t98 -123.5t35 -184.5q0 -89 -33 -162t-96 -124q95 -5 236 -5zM1417.5 683q-66.5 -29 -107.5 -74.5t-41 -90.5q0 -37 32 -83t90.5 -89t133.5 -71q98 23 166 56.5t101.5 70.5t33.5 73q0 61 -38 115.5t-101 88t-133 33.5
t-136.5 -29zM1501.5 1179q-47.5 39 -82.5 55v12l123 151q45 -21 94 -63.5t70 -79.5l-133 -145q-24 31 -71.5 70z" />
    <glyph glyph-name="uniFED3" unicode="&#x641;" horiz-adv-x="897" arabic-form="initial" 
d="M603.5 1107.5q78.5 -71.5 120.5 -214t42 -351.5q0 -193 -76.5 -311.5t-241.5 -174.5t-436 -56h-54q-52 0 -52 85q0 83 24.5 126t69.5 43h55q237 0 389.5 32.5t222 85t69.5 115.5q1 15 1 45q0 106 -26 192l2 -15l-7 -3q-21 -119 -113 -187t-232 -68q-136 0 -205 70
t-69 194q0 127 40 233t114.5 168.5t173.5 62.5q110 0 188.5 -71.5zM563.5 679.5q81.5 21.5 142.5 60.5q-40 123 -126 191.5t-199 68.5q-68 0 -128 -30t-96 -76.5t-36 -93.5q0 -32 26 -64.5t85.5 -55t155.5 -22.5q94 0 175.5 21.5zM328.5 1473q-47.5 39 -82.5 55v12l123 151
q45 -21 94 -63.5t70 -79.5l-133 -145q-24 31 -71.5 70z" />
    <glyph glyph-name="uniFED4" unicode="&#x641;" horiz-adv-x="855" arabic-form="medial" 
d="M855 254l-43 -254q-197 0 -298 33t-141 104q-55 -74 -151.5 -105.5t-263.5 -31.5q-52 0 -52 85q0 83 24.5 126t69.5 43q106 0 175 8q-63 68 -63 162q0 127 49 236t130 173t172 64q82 0 145.5 -44t98.5 -123.5t35 -184.5q0 -88 -33 -161t-95 -124q87 -6 241 -6zM181 435
q32 -46 90.5 -89t133.5 -71q99 23 166.5 56.5t101 70.5t33.5 73q0 61 -38 115.5t-101 88t-134 33.5q-69 0 -135 -29t-107.5 -74.5t-41.5 -90.5q0 -37 32 -83zM395.5 1179q-47.5 39 -82.5 55v12l123 151q45 -21 94 -63.5t70 -79.5l-133 -145q-24 31 -71.5 70z" />
    <glyph glyph-name="uniFED6" unicode="&#x642;" horiz-adv-x="1463" arabic-form="final" 
d="M1421 0h-106q-23 -185 -111.5 -314t-232 -195t-329.5 -66q-164 0 -278.5 59.5t-174 173t-59.5 273.5q0 235 103 472h21q-32 -81 -49 -170.5t-17 -166.5q0 -122 56.5 -209t164.5 -133t261 -46q164 0 298 46t218 122.5t104 166.5v21q-90 -19 -172 -26.5t-185 -7.5
q-148 0 -221 79t-73 229q0 130 43 240t119.5 175t171.5 65q150 0 239.5 -134t106.5 -400h144zM739 283.5q64 -44.5 206 -44.5q208 0 337 6q-31 174 -120.5 265.5t-223.5 91.5q-68 0 -129 -30.5t-97.5 -78.5t-36.5 -99q0 -66 64 -110.5zM1221 1124.5q-20 -54.5 -28 -84.5
q-105 -8 -210.5 -12t-160.5 -4q-86 0 -126.5 17.5t-40.5 61.5q0 20 15 69q14 43 18 69h12q0 -30 34.5 -42t117.5 -12q56 0 190.5 4t211.5 11q-13 -23 -33 -77.5z" />
    <glyph glyph-name="uniFED7" unicode="&#x642;" horiz-adv-x="897" arabic-form="initial" 
d="M603.5 1107.5q78.5 -71.5 120.5 -214t42 -351.5q0 -193 -76.5 -311.5t-241.5 -174.5t-436 -56h-54q-52 0 -52 85q0 83 24.5 126t69.5 43h55q237 0 389.5 32.5t222 85t69.5 115.5q1 15 1 45q0 106 -26 192l2 -15l-7 -3q-21 -119 -113 -187t-232 -68q-136 0 -205 70
t-69 194q0 127 40 233t114.5 168.5t173.5 62.5q110 0 188.5 -71.5zM563.5 679.5q81.5 21.5 142.5 60.5q-40 123 -126 191.5t-199 68.5q-68 0 -128 -30t-96 -76.5t-36 -93.5q0 -32 26 -64.5t85.5 -55t155.5 -22.5q94 0 175.5 21.5zM658 1527.5q-20 -54.5 -28 -84.5
q-105 -8 -210.5 -12t-160.5 -4q-86 0 -126.5 17.5t-40.5 61.5q0 20 15 69q14 43 18 69h12q0 -30 34.5 -42t117.5 -12q56 0 190.5 4t211.5 11q-13 -23 -33 -77.5z" />
    <glyph glyph-name="uniFED8" unicode="&#x642;" horiz-adv-x="855" arabic-form="medial" 
d="M855 254l-43 -254q-197 0 -298 33t-141 104q-55 -74 -151.5 -105.5t-263.5 -31.5q-52 0 -52 85q0 83 24.5 126t69.5 43q106 0 175 8q-63 68 -63 162q0 127 49 236t130 173t172 64q82 0 145.5 -44t98.5 -123.5t35 -184.5q0 -88 -33 -161t-95 -124q87 -6 241 -6zM181 435
q32 -46 90.5 -89t133.5 -71q99 23 166.5 56.5t101 70.5t33.5 73q0 61 -38 115.5t-101 88t-134 33.5q-69 0 -135 -29t-107.5 -74.5t-41.5 -90.5q0 -37 32 -83zM725 1233.5q-20 -54.5 -28 -84.5q-105 -8 -210.5 -12t-160.5 -4q-86 0 -126.5 17.5t-40.5 61.5q0 20 15 69
q14 43 18 69h12q0 -30 34.5 -42t117.5 -12q56 0 190.5 4t211.5 11q-13 -23 -33 -77.5z" />
    <glyph glyph-name="uniFEDA" unicode="&#x643;" horiz-adv-x="2132" arabic-form="final" 
d="M1883.5 48q-88.5 48 -173.5 153t-206 304h-13q6 -18 6 -36q-9 -169 -83 -273.5t-236 -156t-438 -51.5q-313 0 -461.5 106.5t-148.5 322.5q0 82 15 170t55 195h21q-20 -61 -28.5 -113t-8.5 -111q0 -93 65 -164t196 -111.5t322 -40.5q259 0 416 30.5t221 73t64 83.5
q0 93 -140.5 213.5t-485.5 281.5q21 48 52.5 132t45.5 132q9 31 15.5 45t19 24t37.5 19l969 354l10 -5q-37 -65 -65 -129.5t-41 -114.5l-943 -278v-13q201 -91 332 -177.5t211.5 -165.5t187.5 -205q73 -85 94 -108q90 -99 172 -139.5t193 -40.5l-40 -254q-120 0 -208.5 48z
" />
    <glyph glyph-name="uniFEDB" unicode="&#x643;" horiz-adv-x="948" arabic-form="initial" 
d="M626.5 192.5q-72.5 -102.5 -222 -147.5t-392.5 -45h-54q-28 0 -40 21.5t-12 63.5q0 169 94 169h51q214 0 353 24t203.5 65t64.5 94q0 49 -79.5 128.5t-231 174t-355.5 184.5q21 48 53 132t47 132q8 29 14.5 43.5t19 24t38.5 20.5l846 354l12 -5q-36 -61 -64.5 -125.5
t-44.5 -118.5l-821 -278v-13q237 -114 365.5 -212.5t178 -194.5t49.5 -214q0 -174 -72.5 -276.5z" />
    <glyph glyph-name="uniFEDC" unicode="&#x643;" horiz-adv-x="1296" arabic-form="medial" 
d="M1048.5 48q-88.5 48 -173.5 153t-206 304h-12q4 -24 4 -36q-8 -167 -71.5 -268.5t-202.5 -151t-375 -49.5h-54q-28 0 -40 21.5t-12 63.5q0 169 94 169h51q204 0 334 24.5t188.5 64t58.5 86.5q0 93 -140.5 213.5t-485.5 281.5q21 48 53 132t47 132q8 30 14.5 44.5
t19.5 24.5t38 19l967 354l12 -5q-37 -62 -65 -126.5t-43 -117.5l-943 -278v-13q200 -90 331 -176.5t211 -165t189 -205.5q58 -67 95 -109q89 -99 171 -139.5t193 -40.5l-40 -254q-119 0 -207.5 48z" />
    <glyph glyph-name="uniFEDE" unicode="&#x644;" horiz-adv-x="1578" arabic-form="final" 
d="M1356 58q-65 58 -72 172h-12q1 -110 -21.5 -217.5t-62.5 -178.5q-53 -178 -199 -278.5t-371 -100.5q-154 0 -263.5 59.5t-167 173t-57.5 273.5q0 243 103 472h19q-31 -82 -48 -171.5t-17 -164.5q0 -123 55 -210t158 -132.5t245 -45.5q152 0 283.5 46t209.5 128t78 183
q-3 163 -23 467t-44 579t-37 347q40 42 86 103.5t78 113.5h12q0 -469 11 -869q4 -190 4 -226q0 -124 27 -195t86.5 -101.5t161.5 -30.5l-42 -254q-115 0 -180 58z" />
    <glyph glyph-name="uniFEDF" unicode="&#x644;" horiz-adv-x="517" arabic-form="initial" 
d="M348 434q-18 -102 -53.5 -196.5t-85.5 -158.5q-33 -44 -90.5 -61.5t-154.5 -17.5q-26 0 -42 23t-16 64q0 167 94 167q142 0 213.5 27.5t71.5 72.5q0 98 -24.5 329.5t-56 465t-46.5 310.5q40 41 86.5 102t79.5 115h12q0 -25 3 -111t5 -146q10 -257 16 -446.5t6 -348.5
q0 -88 -18 -190z" />
    <glyph glyph-name="uniFEE0" unicode="&#x644;" horiz-adv-x="693" arabic-form="medial" 
d="M310 334q0 24 1 36h-12q-3 -136 -41.5 -217.5t-111 -117t-182.5 -35.5q-26 0 -42 21.5t-16 63.5q0 169 94 169q285 0 285 200q-7 337 -15.5 512.5t-20 269.5t-34.5 212q65 64 166 228h12q0 -52 5 -135q7 -161 7 -262q0 -119 -6 -369q-6 -252 -6 -374q0 -103 29.5 -164
t94.5 -89.5t176 -28.5l-42 -254q-341 0 -341 334z" />
    <glyph glyph-name="uniFEE2" unicode="&#x645;" horiz-adv-x="1363" arabic-form="final" 
d="M1137 349q35 -52 87.5 -73.5t138.5 -21.5l-43 -254q-128 0 -196 76.5t-79 244.5h-12q-3 -107 -37 -179t-89.5 -107t-124.5 -35q-94 0 -170.5 13t-168.5 35q-29 7 -53.5 12.5t-37.5 5.5q-60 0 -96.5 -52t-36.5 -138q0 -541 12 -664q-20 -20 -43 -54.5t-39 -66.5h-10
q4 27 4 85q0 36 -4 196q-9 277 -9 464q0 146 31.5 252.5t86.5 166.5t126 70q55 242 147.5 361.5t229.5 119.5q104 0 185.5 -71t135.5 -238q30 -96 65 -148zM974 276q32 22 32 63q0 62 -34.5 127.5t-102 109.5t-161.5 44q-111 0 -189 -75.5t-122 -219.5q85 -27 218.5 -49
t262.5 -22q64 0 96 22z" />
    <glyph glyph-name="uniFEE3" unicode="&#x645;" horiz-adv-x="1106" arabic-form="initial" 
d="M833 766.5q68 -60.5 105 -165.5t37 -235q0 -111 -28.5 -194t-78.5 -127.5t-111 -44.5q-113 0 -213 34.5t-164.5 95.5t-76.5 137q-2 22 -2 36q0 47 10 109l-12 4l-21 -68q-33 -108 -64.5 -177.5t-93.5 -120t-162 -50.5q-52 0 -52 85q0 83 24.5 126t69.5 43
q78 0 131.5 20.5t94 74t71.5 151.5l39 -33q58 130 111 208.5t108 115t121 36.5q89 0 157 -60.5zM474 593.5q-66 -48.5 -110 -139.5q29 -54 101 -100t161 -73t165 -27q75 0 111.5 20.5t36.5 64.5q0 73 -40.5 143.5t-112 115t-159.5 44.5q-87 0 -153 -48.5z" />
    <glyph glyph-name="uniFEE4" unicode="&#x645;" horiz-adv-x="1305" arabic-form="medial" 
d="M1071.5 74.5q-73.5 74.5 -92.5 222.5h-12q-5 -165 -60 -249t-150 -84q-112 0 -212 36.5t-165 99.5t-77 139q-2 22 -2 35q0 48 10 108l-12 4q-2 -6 -20 -59q-33 -100 -65.5 -165.5t-95 -113.5t-160.5 -48q-52 0 -52 85q0 83 24.5 126t69.5 43q77 0 131 19t94 66t72 131
l39 -31q59 130 111.5 207.5t109.5 114t127 36.5q61 0 111.5 -26.5t98 -90.5t96.5 -174q39 -95 82 -149.5t99 -78.5t134 -24l-42 -254q-118 0 -191.5 74.5zM473.5 564.5q-66.5 -47.5 -109.5 -137.5q29 -55 101 -103.5t161 -77t165 -28.5q74 0 111 24t37 70q0 72 -40.5 141.5
t-112 114t-159.5 44.5q-87 0 -153.5 -47.5z" />
    <glyph glyph-name="uniFEE6" unicode="&#x646;" horiz-adv-x="1554" arabic-form="final" 
d="M1326 415q48 -89 102.5 -125t125.5 -36l-43 -254q-118 0 -189 98q-11 -202 -97.5 -347t-236 -220.5t-346.5 -75.5q-164 0 -278.5 59.5t-174 173t-59.5 273.5q0 237 103 472h21q-32 -81 -49 -170t-17 -166q0 -122 56.5 -209.5t164.5 -133t261 -45.5q179 0 321 55
t221 144.5t79 188.5q0 79 -165 367q19 27 46.5 87t44.5 113h13q48 -160 96 -249zM615.5 361q-47.5 39 -82.5 55v12l123 151q45 -21 94 -63.5t70 -79.5l-133 -145q-24 31 -71.5 70z" />
    <glyph glyph-name="uniFEE7" unicode="&#x646;" horiz-adv-x="579" arabic-form="initial" 
d="M397.5 178.5q-50.5 -89.5 -158.5 -134t-281 -44.5q-28 0 -40 21.5t-12 63.5q0 169 94 169q124 0 219.5 15t147.5 41t52 57q0 32 -32.5 86t-82.5 112.5t-99 100.5q24 30 56.5 96.5t52.5 122.5h10q3 -7 19 -44q44 -99 74.5 -201.5t30.5 -233.5q0 -138 -50.5 -227.5z
M149.5 1115q-47.5 39 -82.5 55v12l123 151q45 -21 94 -63.5t70 -79.5l-133 -145q-24 31 -71.5 70z" />
    <glyph glyph-name="uniFEE8" unicode="&#x646;" horiz-adv-x="763" arabic-form="medial" 
d="M514.5 67q-73.5 67 -73.5 228q0 21 4 75h-12q-9 -134 -60.5 -215t-152.5 -118t-262 -37q-28 0 -40 21.5t-12 63.5q0 169 94 169q184 0 276.5 29.5t133.5 100.5t62 216h19v-103q0 -86 25 -139t84 -78.5t163 -25.5l-42 -254q-133 0 -206.5 67zM258.5 849q-47.5 39 -82.5 55
v12l123 151q45 -21 94 -63.5t70 -79.5l-133 -145q-24 31 -71.5 70z" />
    <glyph glyph-name="uniFEEA" unicode="&#x647;" horiz-adv-x="1130" arabic-form="final" 
d="M921.5 329.5q70.5 -75.5 208.5 -75.5l-42 -254q-169 0 -256 102.5t-96 333.5h-12q-23 -166 -107 -246.5t-243 -80.5q-121 0 -182.5 53t-61.5 150q0 95 48 178.5t167 181t338 232.5q-11 71 -21 111q35 26 77 74t71 96h8l3 -22q14 -129 22 -253.5t8 -345.5
q0 -159 70.5 -234.5zM565.5 376q71.5 21 111 58t39.5 84q0 131 -21 301q-276 -145 -384 -230.5t-108 -137.5q0 -49 45 -72.5t153 -23.5q93 0 164.5 21z" />
    <glyph glyph-name="uniFEEB" unicode="&#x647;" horiz-adv-x="1227" arabic-form="initial" 
d="M1051.5 164q-45.5 -110 -127.5 -200q-121 51 -523 159q-80 -63 -193.5 -93t-249.5 -30q-31 0 -41.5 26.5t-10.5 58.5q0 61 19.5 115t74.5 54q126 0 199 12q-42 32 -62 77t-20 108q0 112 52 215.5t131 163.5l-27 14q-64 32 -92 44q18 43 31 102.5t15 106.5h12
q49 -41 140.5 -93t259.5 -141q182 -94 279.5 -165t138 -141.5t40.5 -162.5q0 -120 -45.5 -230zM233 415q73 -60 205 -103q222 92 222 188q0 63 -38 118t-99.5 88t-125.5 33q-63 0 -117.5 -28t-87 -73.5t-32.5 -95.5q0 -67 73 -127zM1018.5 403q-32.5 46 -111 100t-226.5 135
q6 -33 6 -69q0 -165 -116 -292q264 -61 425 -120q25 34 40 74t15 72q0 54 -32.5 100z" />
    <glyph glyph-name="uniFEEC" unicode="&#x647;" horiz-adv-x="1035" arabic-form="medial" 
d="M870.5 5.5q-50.5 5.5 -114.5 21.5v-12q58 -37 84 -77t26 -95q0 -101 -43.5 -181t-123.5 -125.5t-186 -45.5q-129 0 -221.5 60.5t-141 169.5t-48.5 252v27h-144q-31 0 -41.5 26.5t-10.5 58.5q0 61 19.5 115t74.5 54h144q39 130 104.5 251t130.5 211t149 195q28 34 50.5 64
t31.5 46h12q0 -88 10.5 -175.5t30.5 -218.5q13 -79 18.5 -121.5t5.5 -72.5q0 -55 -51.5 -106t-157.5 -88v-12q103 16 173 21.5t202 5.5h182l-42 -254q-72 0 -122.5 5.5zM553.5 420q-5.5 42 -10.5 71.5t-7 42.5q-32 190 -37 296q-119 -142 -201.5 -298t-114.5 -293
q188 1 282 31t94 84q0 24 -5.5 66zM786.5 -78q-51.5 47 -153.5 75.5t-246 28.5q-121 0 -214 -20q25 -140 128.5 -216.5t265.5 -76.5q86 0 147.5 16t92.5 40.5t31 49.5q0 56 -51.5 103z" />
    <glyph glyph-name="uniFEEE" unicode="&#x648;" horiz-adv-x="1002" arabic-form="final" 
d="M959 0h-111q-29 -164 -107.5 -284.5t-189 -184t-232.5 -63.5q-57 0 -111.5 17t-131.5 49q-63 28 -101 39v12q165 14 341.5 79t311.5 160.5t182 196.5q-80 -12 -159 -17t-179 -5q-148 0 -221 79t-73 229q0 131 43 241t119 175t171 65q102 0 178.5 -62t121 -182t51.5 -290
h140zM277.5 284q64.5 -45 206.5 -45q215 0 338 6q-26 168 -117.5 262.5t-227.5 94.5q-69 0 -130 -30.5t-97.5 -78.5t-36.5 -99q0 -65 64.5 -110z" />
    <glyph glyph-name="uniFEF0" unicode="&#x649;" horiz-adv-x="1422" arabic-form="final" 
d="M1379 0q-42 0 -68 1q22 -32 22 -76q0 -159 -79.5 -275.5t-234.5 -179.5t-377 -63q-164 0 -278.5 59.5t-174 173t-59.5 273.5q0 116 24 232.5t71 223.5h20q-27 -71 -42.5 -159t-15.5 -162q0 -122 56.5 -209t164.5 -133t261 -46q206 0 349 39.5t213 95t70 99.5
q0 33 -49.5 54.5t-121.5 34t-196 27.5q-118 15 -179.5 25t-112.5 25v12q85 116 122 210q100 -18 243 -23t415 -5z" />
    <glyph glyph-name="uniFEF2" unicode="&#x64a;" horiz-adv-x="1422" arabic-form="final" 
d="M1379 0q-42 0 -68 1q22 -32 22 -76q0 -159 -79.5 -275.5t-234.5 -179.5t-377 -63q-164 0 -278.5 59.5t-174 173t-59.5 273.5q0 116 24 232.5t71 223.5h20q-27 -71 -42.5 -159t-15.5 -162q0 -122 56.5 -209t164.5 -133t261 -46q206 0 349 39.5t213 95t70 99.5
q0 33 -49.5 54.5t-121.5 34t-196 27.5q-118 15 -179.5 25t-112.5 25v12q85 116 122 210q100 -18 243 -23t415 -5z" />
    <glyph glyph-name="uniFEF3" unicode="&#x64a;" horiz-adv-x="579" arabic-form="initial" 
d="M397.5 178.5q-50.5 -89.5 -158.5 -134t-281 -44.5q-28 0 -40 21.5t-12 63.5q0 169 94 169q124 0 219.5 15t147.5 41t52 57q0 32 -32.5 86t-82.5 112.5t-99 100.5q24 30 56.5 96.5t52.5 122.5h10q3 -7 19 -44q44 -99 74.5 -201.5t30.5 -233.5q0 -138 -50.5 -227.5z
M-173 -318.5q20 54.5 28 84.5q105 8 210.5 12t160.5 4q86 0 126.5 -17.5t40.5 -61.5q0 -20 -15 -69q-14 -43 -18 -69h-12q0 30 -34.5 42t-117.5 12q-56 0 -190.5 -4t-211.5 -11q13 23 33 77.5z" />
    <glyph glyph-name="uniFEF4" unicode="&#x64a;" horiz-adv-x="763" arabic-form="medial" 
d="M514.5 67q-73.5 67 -73.5 228q0 21 4 75h-12q-9 -134 -60.5 -215t-152.5 -118t-262 -37q-28 0 -40 21.5t-12 63.5q0 169 94 169q184 0 276.5 29.5t133.5 100.5t62 216h19v-103q0 -86 25 -139t84 -78.5t163 -25.5l-42 -254q-133 0 -206.5 67zM-176 -318.5q20 54.5 28 84.5
q105 8 210.5 12t160.5 4q86 0 126.5 -17.5t40.5 -61.5q0 -20 -15 -69q-14 -43 -18 -69h-12q0 30 -34.5 42t-117.5 12q-56 0 -190.5 -4t-211.5 -11q13 23 33 77.5z" />
    <glyph glyph-name=".notdef" horiz-adv-x="1306" 
d="M124 0v1445h1058v-1445h-1058zM185 75h936v1297h-936v-1297z" />
    <glyph glyph-name=".null" horiz-adv-x="2109" 
 />
    <glyph glyph-name="nonmarkingreturn" horiz-adv-x="2109" 
 />
    <glyph glyph-name="space" unicode=" " horiz-adv-x="343" 
 />
    <glyph glyph-name="exclam" unicode="!" horiz-adv-x="570" 
d="M294 1584q40 -138 64 -259.5t24 -279.5q0 -115 -14 -217t-41 -237q-4 -23 -10.5 -55t-13.5 -73h-19q13 110 13 216t-23.5 252.5t-62 288.5t-81.5 237q34 40 76 112.5t50 106.5h12q7 -32 26 -92zM196.5 39q-39.5 39 -39.5 103q0 62 39.5 101t102.5 39q62 0 101 -39
t39 -101q0 -63 -39 -102.5t-101 -39.5q-63 0 -102.5 39z" />
    <glyph glyph-name="quotedbl" unicode="&#x22;" horiz-adv-x="702" 
d="M198.5 1393q37.5 24 70.5 52q0 -151 -8 -235t-25 -187q-13 -73 -21 -134h-12l-73 468q31 12 68.5 36zM501.5 1393q37.5 24 70.5 52q0 -151 -8 -235t-25 -187q-13 -73 -21 -134h-12l-73 468q31 12 68.5 36z" />
    <glyph glyph-name="quotedbl" unicode="&#x2033;" horiz-adv-x="702" 
d="M198.5 1393q37.5 24 70.5 52q0 -151 -8 -235t-25 -187q-13 -73 -21 -134h-12l-73 468q31 12 68.5 36zM501.5 1393q37.5 24 70.5 52q0 -151 -8 -235t-25 -187q-13 -73 -21 -134h-12l-73 468q31 12 68.5 36z" />
    <glyph glyph-name="numbersign" unicode="#" horiz-adv-x="1363" 
d="M1214 951h-257l-62 -425l281 1l-19 -76h-273l-73 -499h-12l-23 138l48 361h-360l-74 -499h-12l-23 138l49 361h-274l21 73l263 1l58 426h-284l20 76l275 1l57 420l70 -21l-60 -399l352 1l56 419l68 -21l-58 -398l265 1zM834 526l57 425h-352l-64 -426z" />
    <glyph glyph-name="dollar" unicode="$" horiz-adv-x="1107" 
d="M845 697q89 -63 128 -140t39 -176q0 -106 -52.5 -189.5t-150.5 -132.5t-231 -53l2 -103q0 -30 -22 -30q-11 0 -17.5 7.5t-6.5 20.5q0 23 2 105q-131 3 -232.5 47t-157.5 118t-56 165q0 49 26.5 80t70.5 31t72.5 -28t28.5 -74v-77q0 -73 32.5 -126.5t88.5 -82.5t127 -33
l1 42q10 309 11 547q-14 6 -21 8q-154 55 -244 116.5t-130 136.5t-40 175q0 112 60 196t160 131.5t217 54.5v21q-2 70 -2 90q0 14 6.5 22.5t17.5 8.5q22 0 22 -33l-2 -108q131 -1 228.5 -42.5t150 -113.5t52.5 -161q0 -50 -24.5 -80t-70.5 -30q-49 0 -77 28t-28 74v58
q0 114 -63 179.5t-168 68.5q0 -19 -2 -67q-7 -277 -9 -527l26 -9q149 -52 238 -115zM351 962q64 -74 211 -133q-1 262 -9 494q0 35 -2 91q-79 -6 -139 -42t-92.5 -96t-32.5 -138q0 -102 64 -176zM762.5 103.5q67.5 71.5 67.5 192.5t-69 192t-194 120q2 -198 9 -496l2 -86
q117 6 184.5 77.5z" />
    <glyph glyph-name="percent" unicode="%" horiz-adv-x="1291" 
d="M217 1416.5q-69 -48.5 -103 -130t-34 -181.5q0 -180 80 -276t227 -96q85 0 153 43.5t107.5 127.5t39.5 202q0 97 -33 178.5t-100.5 131t-166.5 49.5q-101 0 -170 -48.5zM870 1044.5q180 272.5 247 373.5q5 10 5 16q0 10 -8 14q-5 4 -12 4q-10 0 -18 -12
q-66 -105 -205.5 -330t-214.5 -346q-2 -4 -2 -7q0 -7 6 -7q5 0 9 5q13 17 193 289.5zM495 832q-41 -80 -108 -80q-83 0 -119.5 90.5t-36.5 269.5q0 165 41 249t115 84q82 0 115.5 -90t33.5 -258q0 -185 -41 -265zM741 665q-69 -49 -102.5 -130.5t-33.5 -181.5
q0 -180 80 -276t226 -96q85 0 153 43.5t107.5 128t39.5 202.5q0 97 -33 178.5t-100.5 131t-166.5 49.5q-101 0 -170 -49zM379 331q-203 -308 -205 -310q-5 -8 -5 -16q0 -10 8 -15q5 -3 11 -3q12 0 19 10l157 255q13 22 25 41.5t23 37.5l108 174q96 153 108 176q3 6 3 10
q0 5 -5 5q-4 0 -10 -6zM1019 80.5q-41 -79.5 -108 -79.5q-84 0 -120 90t-36 270q0 165 41 249t115 84q83 0 116 -90.5t33 -258.5q0 -185 -41 -264.5z" />
    <glyph glyph-name="ampersand" unicode="&#x26;" horiz-adv-x="1846" 
d="M1257.5 1368q215.5 -147 343 -389.5t127.5 -514.5q0 -154 -52 -264t-150.5 -167.5t-235.5 -57.5q-105 0 -193.5 32.5t-168.5 102.5q-73 -63 -168.5 -98.5t-232.5 -35.5q-102 0 -184 33.5t-130.5 103t-48.5 172.5q0 106 51.5 190t152.5 136.5t245 64.5q-21 101 -21 199
q0 115 44.5 207.5t127.5 145t194 52.5q76 0 136 -32t93.5 -88.5t33.5 -127.5q0 -150 -109 -241.5t-296 -111.5q51 -165 158 -315q82 -117 144 -181q80 70 117.5 148.5t37.5 142.5q0 31 -7.5 54t-22.5 52q-12 24 -17.5 40t-5.5 36q0 42 31 69.5t73 27.5q49 0 81 -38.5
t32 -108.5q0 -125 -77.5 -235t-231.5 -200q66 -68 127.5 -98t134.5 -30q96 0 167 46.5t110.5 140.5t39.5 233q0 265 -125.5 503.5t-337 384t-455.5 145.5q-143 0 -248.5 -43t-162 -122.5t-56.5 -188.5q0 -43 12 -72.5t35 -63.5q20 -31 29.5 -53t9.5 -52q0 -39 -25.5 -65
t-64.5 -26q-64 0 -101 56t-37 157q0 148 75.5 259t214.5 172t322 61q250 0 465.5 -147zM851.5 1214q-38.5 -42 -59 -109t-20.5 -140q0 -135 40 -272q109 24 174 111.5t65 236.5q0 99 -27.5 157t-80.5 58t-91.5 -42zM801 66q60 19 111 58q-64 59 -127 152q-125 188 -169 387
q-66 -12 -121 -57t-87 -112t-32 -144q0 -143 74.5 -223t211.5 -80q79 0 139 19z" />
    <glyph glyph-name="quotesingle" unicode="'" horiz-adv-x="400" 
d="M198.5 1393q37.5 24 70.5 52q0 -151 -8 -235t-25 -187q-13 -73 -21 -134h-12l-73 468q31 12 68.5 36z" />
    <glyph glyph-name="quotesingle" unicode="&#x2032;" horiz-adv-x="400" 
d="M198.5 1393q37.5 24 70.5 52q0 -151 -8 -235t-25 -187q-13 -73 -21 -134h-12l-73 468q31 12 68.5 36z" />
    <glyph glyph-name="parenleft" unicode="(" horiz-adv-x="739" 
d="M179 1124.5q49 156.5 149 291t257 260.5h13q-113 -117 -180.5 -244.5t-98.5 -285.5t-31 -368t31 -368.5t98.5 -286.5t180.5 -244h-13q-157 127 -257 261.5t-149 291t-49 346.5t49 346.5z" />
    <glyph glyph-name="parenright" unicode=")" horiz-adv-x="739" 
d="M560 431.5q-49 -156.5 -149 -291t-257 -261.5h-13q113 116 180.5 244t98.5 286.5t31 368.5t-31 368t-98.5 285.5t-180.5 244.5h13q157 -126 257 -260.5t149 -291t49 -346.5t-49 -346.5z" />
    <glyph glyph-name="asterisk" unicode="*" horiz-adv-x="1191" 
d="M640 869q0 -125 -11 -199t-40 -153q33 14 121 62.5t183 101.5l45 25q53 -54 122 -100q-124 -46 -200 -69.5t-134.5 -32.5t-126.5 -9q22 -26 73.5 -76t141.5 -133l69 -64q-37 -64 -60 -151q-82 107 -126.5 172.5t-71 119t-46.5 118.5q-30 -46 -136 -272l-39 -81
q-52 11 -114 11q-15 0 -45 -2q76 111 124.5 174t91.5 105t99 81q-25 7 -86.5 16t-131.5 18q-105 14 -172 24q-2 35 -13 76t-27 78q128 -38 203.5 -65t127.5 -55t107 -70q-1 22 -9.5 72t-18.5 107q-29 169 -35 208q56 23 133 85q2 -92 2 -122z" />
    <glyph glyph-name="asterisk" unicode="&#x66d;" horiz-adv-x="1191" 
d="M640 869q0 -125 -11 -199t-40 -153q33 14 121 62.5t183 101.5l45 25q53 -54 122 -100q-124 -46 -200 -69.5t-134.5 -32.5t-126.5 -9q22 -26 73.5 -76t141.5 -133l69 -64q-37 -64 -60 -151q-82 107 -126.5 172.5t-71 119t-46.5 118.5q-30 -46 -136 -272l-39 -81
q-52 11 -114 11q-15 0 -45 -2q76 111 124.5 174t91.5 105t99 81q-25 7 -86.5 16t-131.5 18q-105 14 -172 24q-2 35 -13 76t-27 78q128 -38 203.5 -65t127.5 -55t107 -70q-1 22 -9.5 72t-18.5 107q-29 169 -35 208q56 23 133 85q2 -92 2 -122z" />
    <glyph glyph-name="plus" unicode="+" horiz-adv-x="1091" 
d="M573 12l-62 -12v376h-381l12 63l369 14v361l74 12v-373h375l-12 -77h-363z" />
    <glyph glyph-name="comma" unicode="," horiz-adv-x="424" 
d="M299 -33q0 -94 -45.5 -172t-139.5 -116q-16 -4 -13 -16q2 -3 7 -4.5t12 0.5q112 40 169 139.5t57 268.5q0 73 -31.5 122t-93.5 49q-51 0 -84.5 -34.5t-33.5 -87.5q0 -55 32.5 -86.5t94.5 -31.5h41q28 0 28 -31z" />
    <glyph glyph-name="hyphen" unicode="-" horiz-adv-x="1091" 
d="M130 376l12 63l818 14l-12 -77h-818z" />
    <glyph glyph-name="hyphen" unicode="&#x2010;" horiz-adv-x="1091" 
d="M130 376l12 63l818 14l-12 -77h-818z" />
    <glyph glyph-name="period" unicode="." horiz-adv-x="543" 
d="M169.5 39q-39.5 39 -39.5 103q0 62 39.5 101t102.5 39q62 0 101 -39t39 -101q0 -63 -39 -102.5t-101 -39.5q-63 0 -102.5 39z" />
    <glyph glyph-name="slash" unicode="/" horiz-adv-x="1079" 
d="M142 -48h-12l33 124l739 1369l46 -70z" />
    <glyph glyph-name="zero" unicode="0" horiz-adv-x="923" 
d="M722.5 349.5q-40.5 -81.5 -114 -125t-170.5 -43.5q-131 0 -204.5 78.5t-73.5 218.5q0 113 42 200.5t116.5 136.5t169.5 49q79 0 141.5 -38.5t98 -112t35.5 -173.5q0 -109 -40.5 -190.5zM223 435q36 -40 99.5 -62t142.5 -22q80 0 141.5 20t95.5 53.5t34 73.5
q0 55 -33.5 103.5t-96 78.5t-144.5 30q-78 0 -141 -27t-98.5 -69.5t-35.5 -86.5q0 -52 36 -92z" />
    <glyph glyph-name="one" unicode="1" horiz-adv-x="612" 
d="M261 1321q11 -30 33.5 -91.5t40.5 -114.5q73 -211 108.5 -373.5t35.5 -308.5q0 -90 -16.5 -205.5t-49.5 -275.5h-12q17 117 17 196q0 149 -23 280t-88 314t-194 476q18 28 47 100.5t46 126.5h12q5 -25 43 -124z" />
    <glyph glyph-name="two" unicode="2" horiz-adv-x="960" 
d="M830 1445q-2 -157 -45 -270.5t-117.5 -172.5t-170.5 -59q-63 0 -115 29q51 -165 74 -291.5t23 -247.5q0 -90 -16.5 -205.5t-49.5 -275.5h-12q17 117 17 196q0 150 -23 281t-87.5 313.5t-194.5 475.5q19 33 49.5 108t43.5 119h12q48 -132 114 -194.5t177 -62.5
q123 0 207 67.5t102 189.5h12z" />
    <glyph glyph-name="three" unicode="3" horiz-adv-x="1234" 
d="M1103 1357q0 -128 -31.5 -218.5t-85.5 -137t-122 -46.5q-70 0 -110 51t-35 146h-12q-18 -102 -80.5 -155.5t-153.5 -53.5q-48 0 -89 23q50 -162 72.5 -287.5t22.5 -245.5q0 -90 -16.5 -205.5t-49.5 -275.5h-12q17 117 17 196q0 150 -23 281t-87.5 313.5t-194.5 475.5
q19 33 49.5 108t43.5 119h12q29 -86 63 -141.5t85.5 -85.5t127.5 -30q108 0 173.5 62.5t82.5 179.5h12q0 -68 -13 -151q20 -43 58.5 -64t92.5 -21q57 0 100 31.5t66 91t22 140.5h13q2 -33 2 -100z" />
    <glyph glyph-name="four" unicode="4" horiz-adv-x="1167" 
d="M1038 1015v-8q-16 -23 -32 -50q-41 -65 -78.5 -109.5t-103.5 -78.5t-160 -35q-60 0 -119 20t-106 62q33 -117 45.5 -204.5t12.5 -178.5q0 -90 -16.5 -205.5t-49.5 -275.5h-12q17 117 17 196q0 150 -23 281t-87.5 313.5t-194.5 475.5q19 33 49.5 108t43.5 119h12
q56 -159 91.5 -241.5t73.5 -135t96 -98.5h2q-30 56 -30 142q0 82 34.5 159t97 125.5t142.5 48.5q95 0 150.5 -61.5t55.5 -166.5q0 -13 -2 -39h-11q-13 53 -62.5 83t-127.5 30q-71 0 -128 -31.5t-89 -78t-32 -87.5q0 -38 27.5 -76.5t83.5 -64.5t137 -26q180 0 293 88z" />
    <glyph glyph-name="five" unicode="5" horiz-adv-x="1294" 
d="M509.5 1389q31.5 -25 67.5 -53q157 -118 277 -231.5t215 -284t95 -376.5q0 -148 -32.5 -253.5t-90 -160t-132.5 -54.5q-76 0 -132.5 32.5t-85.5 93.5t-24 143h-13q-24 -129 -102.5 -199t-187.5 -70q-72 0 -125 34.5t-81 97t-28 143.5q0 163 93 376.5t288 503.5
q-62 41 -133 83q23 57 45 118.5t28 96.5h12q15 -15 46.5 -40zM1096 245q25 39 25 106q0 112 -69 241t-200.5 263t-315.5 259q-166 -255 -241 -425t-75 -283q0 -83 50.5 -134t135.5 -51q110 0 184 72t101 222h20l-25 -167q31 -38 90.5 -71t127 -52t120.5 -19q47 0 72 39z" />
    <glyph glyph-name="six" unicode="6" horiz-adv-x="1055" 
d="M925 938q-43 -84 -85 -219q-261 -140 -434 -323t-290 -444h-12q26 123 83.5 250t131.5 234.5t148 175.5q-96 -4 -167 28t-109.5 96.5t-38.5 153.5q0 136 51.5 264.5t140.5 209.5t195 81q61 0 108.5 -30.5t73.5 -82.5t26 -114q0 -28 -2.5 -47.5t-8.5 -47.5h-12
q-2 77 -57 119t-140 42q-90 0 -164.5 -41t-117 -101t-42.5 -115q0 -57 37 -102t107 -71.5t166 -26.5q108 0 209.5 29.5t190.5 91.5z" />
    <glyph glyph-name="seven" unicode="7" horiz-adv-x="1188" 
d="M771.5 655q-115.5 -324 -140.5 -691l-24 -12q-7 246 -83 503.5t-190 464.5t-230 310q21 39 46.5 102.5t42.5 112.5h12q167 -222 298.5 -521.5t131.5 -660.5q0 -34 -1 -51h12q24 312 82.5 538.5t127 371t173.5 323.5h12q6 -50 18 -108.5t25 -92.5q-197 -265 -312.5 -589z
" />
    <glyph glyph-name="eight" unicode="8" horiz-adv-x="1188" 
d="M663.5 941q75.5 -257 189.5 -463.5t231 -310.5q-23 -39 -49.5 -104.5t-41.5 -110.5h-13q-166 222 -297 523t-131 662l1 48h-12q-24 -311 -82.5 -537.5t-127 -372t-173.5 -323.5h-12q-7 48 -19 107.5t-23 94.5q195 265 310 588.5t143 690.5l24 12q7 -247 82.5 -504z" />
    <glyph glyph-name="nine" unicode="9" horiz-adv-x="1099" 
d="M633.5 1338q67.5 -107 80.5 -308q19 -256 49.5 -415.5t81 -262t133.5 -185.5q-22 -38 -50 -103t-38 -112h-12q-11 21 -35 56q-49 74 -85 156.5t-67.5 254t-42.5 447.5h-12q-7 -93 -77 -147.5t-181 -54.5q-120 0 -184 69t-64 191q0 140 45.5 260t121 190.5t160.5 70.5
q109 0 176.5 -107zM298.5 1242.5q-53.5 -33.5 -85.5 -87.5t-32 -113q0 -69 63.5 -108.5t175.5 -39.5q144 0 222 51q-42 331 -228 331q-62 0 -115.5 -33.5z" />
    <glyph glyph-name="colon" unicode=":" horiz-adv-x="543" 
d="M169.5 478q-39.5 39 -39.5 103q0 62 39.5 101t102.5 39q62 0 101 -39t39 -101q0 -63 -39 -102.5t-101 -39.5q-63 0 -102.5 39zM169.5 39q-39.5 39 -39.5 103q0 62 39.5 101t102.5 39q62 0 101 -39t39 -101q0 -63 -39 -102.5t-101 -39.5q-63 0 -102.5 39z" />
    <glyph glyph-name="semicolon" unicode=";" horiz-adv-x="410" 
d="M290.5 602.5q34.5 37.5 34.5 90.5t-34.5 90.5t-85.5 37.5q-32 0 -59 -17.5t-43 -47t-16 -63.5q0 -52 34 -90t84 -38q51 0 85.5 37.5zM278 -31q0 -94 -45.5 -172.5t-140.5 -115.5q-12 -3 -12 -12t10 -9q6 0 9 1q112 42 169 140t57 268q0 73 -31.5 122t-92.5 49
q-52 0 -85.5 -34t-33.5 -87q0 -56 32.5 -87.5t95.5 -31.5h40q28 0 28 -31z" />
    <glyph glyph-name="less" unicode="&#x3c;" horiz-adv-x="1027" 
d="M886 93l-756 306v12l737 297l9 -57l-610 -241l630 -243z" />
    <glyph glyph-name="equal" unicode="=" horiz-adv-x="1091" 
d="M130 497l12 63l819 14l-13 -77h-818zM130 255l12 62l819 15l-13 -77h-818z" />
    <glyph glyph-name="greater" unicode="&#x3e;" horiz-adv-x="1027" 
d="M160 708l736 -297v-12l-755 -306l-11 74l630 243l-609 241z" />
    <glyph glyph-name="question" unicode="?" horiz-adv-x="1026" 
d="M435 666.5q9 18.5 35 32.5l40 23q115 67 160 180t45 266q0 147 -51.5 221t-145.5 74q-76 0 -122.5 -35t-58.5 -98q-11 -19 -17.5 -56t-6.5 -65q0 -62 -25.5 -101.5t-71.5 -42.5q-6 -1 -16 -1q-39 0 -62.5 27.5t-23.5 77.5q0 53 35.5 101.5t99.5 83.5q35 58 109 95t165 37
q134 0 228.5 -41.5t143.5 -120.5t49 -188q0 -153 -90 -266t-274 -179l-57 -15q-28 -10 -40.5 -27.5t-14.5 -46.5l-4 -204q-4 -16 -14 -16q-7 0 -10 4t-5 12l-7 222q-2 28 7 46.5zM502 -0.5q28 17.5 44 47t16 63.5q0 53 -34.5 90t-86.5 37q-32 0 -58.5 -17t-42.5 -46t-16 -64
q0 -34 15.5 -63.5t42.5 -47t59 -17.5q33 0 61 17.5z" />
    <glyph glyph-name="at" unicode="@" horiz-adv-x="1605" 
d="M1530 117q0 -5 -5 -12q-121 -170 -301.5 -260.5t-393.5 -90.5q-219 0 -392.5 99.5t-272 284t-98.5 430.5q0 239 92 427.5t261.5 295t395.5 106.5q199 0 359.5 -90t253 -260t92.5 -402q0 -153 -49 -264.5t-136.5 -170.5t-201.5 -59q-76 0 -119.5 25t-56.5 78
q-44 -50 -112.5 -77t-146.5 -27q-65 0 -120.5 23t-89.5 69t-34 112q0 109 89 168.5t249 59.5q87 0 158 -26v286q0 177 -136 177q-46 0 -78.5 -15.5t-48.5 -40.5t-16 -53v-66q0 -41 -27 -66.5t-70 -25.5q-34 0 -55 20.5t-21 59.5q0 53 39 100t115.5 75.5t182.5 28.5
q146 0 220.5 -63t74.5 -181v-524q0 -40 18 -58t57 -18q75 0 142.5 54t109 156.5t41.5 242.5q0 208 -82.5 374.5t-237.5 261.5t-364 95q-218 0 -382 -104t-252.5 -288t-88.5 -416q0 -224 89 -404.5t256.5 -284t391.5 -103.5q207 0 384 88t294 255q7 7 11 8.5t9 -3.5
q3 -1 3 -7zM878.5 222.5q42.5 15.5 72.5 45.5v273q-64 25 -136 25q-79 0 -128.5 -47t-49.5 -137q0 -83 43 -129t113 -46q43 0 85.5 15.5z" />
    <glyph glyph-name="A" unicode="A" horiz-adv-x="1304" 
d="M1273.5 18q2.5 -2 2.5 -7t-3.5 -8t-9.5 -3h-387q-5 0 -8.5 3t-3.5 8t2.5 6.5t8.5 2.5l56 8q31 6 31 32q0 10 -5 25l-142 450h-498l-110 -368q-7 -22 -7 -43q0 -35 22.5 -57.5t66.5 -35.5l38 -11q7 -1 9 -3t2 -6q0 -11 -10 -11h-294q-5 0 -8.5 3t-3.5 8q0 6 4.5 7t5.5 2
l47 15q32 11 56.5 41.5t42.5 90.5l350 1172q5 14 5 29q0 19 -11.5 30.5t-37.5 19.5q-5 3 -12 7t-7 8q0 5 2.5 7t10.5 2h337q13 0 13 -9q0 -7 -18 -15q-22 -2 -30.5 -6.5t-8.5 -14.5q0 -8 6 -25l414 -1292q10 -28 27.5 -41.5t45.5 -15.5q7 -3 9.5 -5zM325 562h481l-247 781z
" />
    <glyph glyph-name="B" unicode="B" horiz-adv-x="1330" 
d="M1012 647q103 -41 166.5 -117t63.5 -181q0 -127 -73.5 -205t-185.5 -111t-237 -33h-633q-6 0 -9.5 3t-3.5 8q0 9 12 10l95 15q19 3 27.5 12t8.5 25v1306q0 13 -8 19.5t-28 9.5l-95 14q-12 1 -12 11q0 9 13 9h477q180 0 308 -50t194.5 -141t66.5 -211q0 -94 -46 -167.5
t-128.5 -119t-192.5 -58.5q117 -7 220 -48zM460 1419v-716h217q135 0 209 87.5t74 241.5q0 114 -48 202t-134 136.5t-197 48.5h-121zM872 66.5q73 41.5 112 115.5t39 170q0 106 -47 179.5t-129 110.5t-187 37h-200v-608q0 -46 59 -46h181q99 0 172 41.5z" />
    <glyph glyph-name="C" unicode="C" horiz-adv-x="1355" 
d="M1283 398q0 9 -7 9h-1q-6 0 -10 -10q-39 -157 -144.5 -245.5t-264.5 -88.5q-167 0 -287 89t-182.5 252t-62.5 381q0 204 61 352t168.5 225.5t246.5 77.5q150 0 262.5 -88.5t188.5 -281.5q9 -17 21 -17q14 0 14 13q0 6 -1 9l-109 379q-4 16 -15 16q-5 0 -35 -41l-21 -28
q-20 -23 -30 -23q-4 0 -26 12q-42 22 -80 37q-77 43 -211 43q-194 0 -346 -97.5t-237 -272t-85 -396.5q0 -209 77.5 -376.5t227 -264t356.5 -96.5q144 0 260 56t186.5 153.5t85.5 218.5v3z" />
    <glyph glyph-name="D" unicode="D" horiz-adv-x="1497" 
d="M103.5 3q3.5 -3 9.5 -3h584q207 0 367.5 78t251.5 226.5t91 352.5q0 236 -104 414t-293 274.5t-436 96.5h-461q-13 0 -13 -9q0 -10 10 -11l100 -14q18 -4 25.5 -11t7.5 -22v-1309q0 -13 -7.5 -20t-25.5 -10l-98 -15q-7 -1 -9.5 -3t-2.5 -7t3.5 -8zM473.5 35.5
q-10.5 10.5 -10.5 30.5v1353h109q190 0 325.5 -87t206 -252.5t70.5 -397.5q0 -202 -56 -350t-164 -227.5t-261 -79.5h-189q-20 0 -30.5 10.5z" />
    <glyph glyph-name="E" unicode="E" horiz-adv-x="1241" 
d="M1170 410q0 -3 -2 -9l-101 -406q-4 -16 -7 -21.5t-9 -5.5q-5 0 -12 3.5t-10 4.5q-43 24 -93 24h-823q-6 0 -9.5 3t-3.5 8q0 9 12 10l95 15q36 6 36 29v1314q0 24 -36 29l-95 14q-12 0 -12 11q0 9 13 9h832q21 0 38 6.5t33 16t20 9.5q5 0 9 -5t7 -20l85 -329l2 -9
q0 -7 -7 -8h-3q-5 0 -13 9q-69 122 -122 187.5t-101.5 91.5t-107.5 26h-322v-668h271q80 0 113 38t38 125q3 12 10 12q9 0 13 -15l98 -326q2 -4 2 -6q0 -7 -7 -11h-3q-7 0 -13 6q-41 63 -72 95t-66 44.5t-89 12.5h-295v-650q0 -23 14 -36t40 -13h278q59 0 105 29t89 79
q34 34 70 99.5t85 177.5q9 11 14 11q12 0 12 -11z" />
    <glyph glyph-name="F" unicode="F" horiz-adv-x="1133" 
d="M1084 1114q0 -11 -7 -11h-3q-8 0 -13 8q-59 117 -110.5 184t-102 94.5t-111.5 27.5h-274v-693h239q83 0 120 38t39 124q2 12 9 12h2q9 0 12 -14l83 -326q2 -6 2 -7q0 -9 -6 -9q-2 -1 -5 -1q-5 0 -11 7q-42 63 -71.5 94t-63 44t-86.5 13h-263v-634q0 -23 50 -29l125 -15
q7 -1 10 -3t3 -7t-4 -8t-10 -3h-524q-6 0 -9.5 3t-3.5 8q0 9 12 10l95 15q36 6 36 29v1314q0 24 -36 29l-95 14q-12 1 -12 11q0 9 13 9h778q21 0 39 7t33.5 16t17.5 9q5 0 8.5 -5t7.5 -20l87 -331v-4z" />
    <glyph glyph-name="G" unicode="G" horiz-adv-x="1466" 
d="M1296.5 567.5q6.5 6.5 21.5 8.5l75 15q2 1 7 4t5 6q0 10 -14 10h-478q-14 0 -14 -10q0 -4 3.5 -7t10.5 -3l138 -16q19 -1 27 -7.5t8 -20.5v-376q0 -48 -44 -82t-105.5 -51t-109.5 -17q-144 0 -259 87.5t-181 249.5q-68 166 -68 393q0 211 58 366.5t167 238.5t258 83
q159 0 283.5 -99t201.5 -305q8 -13 16 -9q7 3 7 9q0 5 -1 8l-77 403q-2 11 -5 14.5t-8 3.5q-8 0 -24.5 -12.5t-46.5 -38.5q-8 -8 -17 -20q-2 -2 -8.5 -10t-11.5 -12t-9 -4q-6 0 -35 17q-63 38 -111 56q-64 24 -161 24q-203 0 -363 -95t-250.5 -268t-90.5 -398
q0 -207 85 -372.5t240 -259t356 -93.5q99 0 166.5 25t124.5 60q4 2 17 9.5t19 7.5q16 0 42 -16t69 -47q21 -16 40.5 -28.5t26.5 -12.5t10 6t3 23v542q0 14 6.5 20.5z" />
    <glyph glyph-name="H" unicode="H" horiz-adv-x="1566" 
d="M1465 11q0 -5 -4 -8t-11 -3h-479q-13 0 -13 11q0 9 12 10l94 15q19 3 27.5 10t8.5 19v603h-632v-603q0 -23 36 -29l94 -15q13 -1 13 -10q0 -5 -3.5 -8t-10.5 -3h-481q-6 0 -9.5 3t-3.5 8q0 9 13 10l94 15q37 6 37 29v1314q0 25 -37 29l-94 14q-13 1 -13 11q0 9 13 9h481
q14 0 14 -9q0 -10 -13 -11l-94 -14q-36 -4 -36 -29v-685h632v685q0 25 -36 29l-94 14q-12 1 -12 11q0 9 13 9h479q15 0 15 -9q0 -10 -13 -11l-94 -14q-36 -4 -36 -29v-1314q0 -23 36 -29l94 -15q13 -1 13 -10z" />
    <glyph glyph-name="I" unicode="I" horiz-adv-x="706" 
d="M501 1408l94 14q12 2 12 11t-14 9h-480q-13 0 -13 -9q0 -10 12 -11l95 -14q36 -5 36 -29v-1314q0 -23 -36 -29l-95 -15q-12 -1 -12 -10q0 -5 3.5 -8t9.5 -3h480q7 0 10.5 3t3.5 8q0 9 -12 10l-94 15q-38 6 -38 29v1314q0 24 38 29z" />
    <glyph glyph-name="J" unicode="J" horiz-adv-x="813" 
d="M642.5 302.5q-9.5 37.5 -29.5 91.5q-22 59 -33.5 104.5t-11.5 102.5v774q0 26 32 31l91 15q19 6 19 12q0 9 -15 9h-478q-15 0 -15 -9q0 -5 3.5 -8t11.5 -5l103 -14q29 -3 29 -37v-772q0 -81 21.5 -142t62.5 -139q30 -57 43.5 -92.5t13.5 -74.5q0 -73 -35 -113t-94 -40
q-51 0 -74.5 30t-23.5 83v68q0 48 -24.5 79t-62.5 31q-49 0 -75.5 -30t-26.5 -81q0 -67 39.5 -111.5t101.5 -66t132 -21.5q80 0 149.5 26.5t112.5 82t43 136.5q0 43 -9.5 80.5z" />
    <glyph glyph-name="K" unicode="K" horiz-adv-x="1444" 
d="M1425 12q0 -12 -14 -12h-460q-6 0 -9.5 3t-3.5 9q0 5 3.5 7.5t8.5 3.5l93 12q24 3 24 21q0 13 -14 39l-375 670l-215 -257v-443q0 -12 9 -19t28 -10l93 -15q7 -2 9.5 -3.5t2.5 -6.5q0 -11 -13 -11h-479q-6 0 -9.5 3t-3.5 8q0 9 12 10l95 15q36 6 36 29v1314q0 24 -36 29
l-95 14q-12 1 -12 11q0 9 13 9h480q8 0 11 -2t3 -7q0 -9 -12 -11l-94 -14q-38 -4 -38 -29v-840l570 691q25 26 38 53t13 51q0 28 -16.5 48.5t-46.5 28.5l-68 11q-11 5 -11 11q0 9 13 9h387q13 0 13 -9t-13 -12q-59 -11 -119.5 -52.5t-159.5 -143.5l-254 -304l16 16l469 -832
q22 -42 47.5 -59.5t72.5 -21.5q11 -4 11 -12z" />
    <glyph glyph-name="L" unicode="L" horiz-adv-x="1164" 
d="M607 1433q0 9 -14 9h-480q-13 0 -13 -9q0 -10 12 -11l95 -14q36 -5 36 -29v-1314q0 -23 -36 -29l-95 -15q-12 -1 -12 -10q0 -5 3.5 -8t9.5 -3h783q31 0 51 -6.5t41 -16.5q18 -9 24 -9q5 0 7.5 5t7.5 22l95 408q1 3 1 8q0 10 -8 13h-3q-5 0 -9 -5t-5 -6l-82 -180
q-38 -82 -75.5 -127t-78 -63t-91.5 -18h-256q-52 0 -52 43v1311q0 24 38 29l94 14q12 2 12 11z" />
    <glyph glyph-name="M" unicode="M" horiz-adv-x="1694" 
d="M471 1436.5q-7 5.5 -23 5.5h-286q-23 0 -23 -11q0 -5 5.5 -7.5t21.5 -6.5l84 -12q23 -4 30.5 -27.5t4.5 -71.5l-78 -1168q-6 -71 -87 -97l-81 -20q-7 -2 -9.5 -3.5t-2.5 -6.5q0 -11 13 -11h387q6 0 9 3.5t3 7.5q0 9 -12 9l-116 21q-81 25 -78 96l76 1131l442 -1087
q6 -17 12 -23t13 -6t12.5 6t11.5 22l406 1091l85 -1194q0 -20 -7.5 -28.5t-27.5 -12.5l-94 -15q-8 -2 -10.5 -3.5t-2.5 -6.5q0 -11 15 -11h473q5 0 8.5 3.5t3.5 7.5q0 5 -2.5 7t-9.5 3l-93 15q-18 4 -24 11.5t-9 29.5l-90 1285q-2 38 29 44l101 16q12 0 12 11q0 9 -13 9
h-285q-15 0 -22.5 -6t-14.5 -27l-357 -935l-386 938q-7 19 -14 24.5z" />
    <glyph glyph-name="N" unicode="N" horiz-adv-x="1436" 
d="M477 21l-130 24q-76 24 -76 97v1072l764 -1166q11 -16 11 -31q0 -17 19 -17h220q15 0 15 9q0 8 -17 35l-70 107q-7 12 -10 21.5t-3 22.5v1106q0 41 19.5 64t55.5 33l81 24q13 4 13 11q0 5 -2.5 7t-10.5 2h-390q-13 0 -13 -9q0 -7 13 -11l127 -24q39 -10 59 -33t20 -64
v-1088l-779 1200q-10 17 -15.5 23t-14.5 6h-228q-6 0 -9 -1.5t-3 -5.5q0 -3 4 -9t7 -13l94 -142q12 -17 14 -25t2 -27v-1077q0 -39 -19.5 -62t-56.5 -35l-81 -24q-14 -5 -14 -10q0 -4 4 -7.5t9 -3.5h391q13 0 13 11q0 6 -13 10z" />
    <glyph glyph-name="O" unicode="O" horiz-adv-x="1557" 
d="M424.5 1371q-157.5 -93 -245.5 -260.5t-88 -384.5q0 -216 87 -386t243 -266t355 -96q202 0 358.5 93t243.5 262t87 390q0 206 -84 375t-239.5 267.5t-359.5 98.5q-200 0 -357.5 -93zM1193 270q-46 -125 -136 -192.5t-218 -67.5q-143 0 -263 117t-190 318t-70 442
q0 163 47.5 286.5t138.5 191t218 67.5q143 0 262 -116t188 -315t69 -437q0 -169 -46 -294z" />
    <glyph glyph-name="P" unicode="P" horiz-adv-x="1290" 
d="M895 1384.5q150 -57.5 243.5 -177t93.5 -296.5q0 -141 -65 -245.5t-178 -160t-254 -55.5q-157 0 -272 57v-442q0 -21 33 -29l101 -16q6 -1 9 -2.5t3 -6.5q0 -11 -14 -11h-481q-14 0 -14 11q0 4 2.5 6t9.5 4l99 16q32 6 32 28v1311q0 27 -31 30l-102 16q-10 1 -10 11
q0 9 13 9h460q172 0 322 -57.5zM850 536.5q78 53.5 122 152t44 228.5q0 154 -56.5 268t-157 174t-230.5 60h-109v-890q95 -46 209 -46q100 0 178 53.5z" />
    <glyph glyph-name="Q" unicode="Q" horiz-adv-x="1571" 
d="M1531 -81q7 0 7 -10q0 -7 -4 -14l-90 -138q-14 -21 -32 -30t-49 -9q-112 0 -201.5 68t-167.5 223q-104 -31 -217 -31q-202 0 -359 95t-244 265.5t-87 387.5t88.5 384.5t247 260.5t361.5 93q198 0 355.5 -95.5t246 -264.5t88.5 -381q0 -170 -53.5 -311t-152 -240.5
t-232.5 -149.5q65 -93 141 -130.5t172 -37.5q73 0 108 13.5t63 45.5q6 6 11 6zM982 32q-63 133 -125 347q-1 2 -1 7t3 8.5t7 3.5q3 0 6.5 -3t4.5 -9q66 -219 142 -338q109 59 166.5 192.5t57.5 323.5q0 237 -70 437t-190 317t-262 117q-128 0 -219 -68t-138.5 -191.5
t-47.5 -288.5q0 -242 70 -444t190.5 -319t265.5 -117q74 0 140 25z" />
    <glyph glyph-name="R" unicode="R" horiz-adv-x="1372" 
d="M1355 17.5q2 -1.5 2 -6.5q0 -11 -13 -11h-411q-13 0 -13 11q0 3 2.5 5t5 2.5t3.5 1.5l52 7q26 7 26 28q0 15 -13 40l-264 442q-166 2 -269 55v-519q0 -16 8.5 -24.5t27.5 -12.5l93 -15q8 -2 11 -3.5t3 -6.5t-4 -8t-10 -3h-479q-6 0 -9.5 3t-3.5 8q0 9 12 10l95 15
q19 3 27.5 12t8.5 25v1306q0 24 -36 29l-95 14q-12 1 -12 11q0 9 13 9h464q206 0 354 -61t226 -173t78 -262q0 -147 -82 -243t-216 -138l291 -471q23 -37 49 -51t69 -22q7 -2 9 -3.5zM689 567q109 0 181.5 49.5t107 134t34.5 191.5q0 123 -51.5 232.5t-150.5 177t-234 67.5
h-113v-801q92 -51 226 -51z" />
    <glyph glyph-name="S" unicode="S" horiz-adv-x="1197" 
d="M869.5 23q96.5 46 152.5 132.5t56 201.5q0 153 -106 258t-323 185q-127 48 -202 103.5t-106.5 118t-31.5 139.5q0 83 33.5 145.5t95 97t144.5 34.5q161 0 281 -113.5t202 -295.5q7 -10 14 -10q5 0 7 5t1 14l-105 411q-5 16 -18 16q-6 0 -18.5 -14t-26.5 -31.5t-20 -24.5
q-20 -25 -33 -25q-12 0 -47 20q-30 17 -58 29q-75 45 -194 45q-121 0 -223 -48.5t-163 -139.5t-61 -211q0 -104 41.5 -185t135 -147.5t250.5 -122.5q132 -48 208 -102.5t108 -115.5t32 -136q0 -120 -68.5 -186t-187.5 -66q-153 0 -272.5 114.5t-193.5 285.5q-9 15 -18 10
q-5 -4 -5 -18l83 -403q1 -8 7.5 -13t12.5 -5q7 0 17.5 14t28.5 42q36 56 46 56q8 0 36 -18q33 -23 71 -41q79 -51 202 -51q119 0 215.5 46z" />
    <glyph glyph-name="T" unicode="T" horiz-adv-x="1289" 
d="M190 1448.5q-14 6.5 -29 16t-19 9.5q-6 0 -9.5 -5.5t-5.5 -20.5l-66 -357q-1 -3 -1 -9q0 -11 7 -12h2q10 0 15 11q53 135 99 208.5t92 101.5q47 28 95 28h166v-1354q0 -23 -38 -29l-94 -15q-12 -1 -12 -10q0 -11 13 -11h480q13 0 13 11q0 9 -12 10l-94 15q-37 6 -37 29
v1354h164q55 0 99.5 -26.5t87.5 -95.5q45 -72 99 -216q9 -11 15 -11q13 0 9 21l-65 357q-4 16 -7.5 21t-8.5 5q-4 0 -22 -9q-41 -23 -70 -23h-835q-17 0 -31 6.5z" />
    <glyph glyph-name="U" unicode="U" horiz-adv-x="1408" 
d="M1183 398q0 -119 -49.5 -207.5t-138.5 -136.5t-208 -48q-174 0 -267 98t-94 292q1 18 1 63q2 121 7 188l42 727q1 17 8 23.5t27 10.5l97 14q14 1 14 11q0 9 -13 9h-484q-14 0 -14 -9t15 -11l94 -14q21 -4 29.5 -10.5t7.5 -20.5l-43 -736l-2 -39q-10 -182 -10 -217
q1 -121 60.5 -214.5t180.5 -146.5t297 -53q151 0 256.5 51.5t160 148t56.5 232.5q-1 53 -7 157l-4 64l-37 675q-2 34 17 60t55 37l83 25q18 3 18 12t-13 9h-374q-8 0 -10.5 -2t-2.5 -7q0 -10 12 -11l101 -24q44 -12 63 -36t21 -63l39 -684q9 -133 9 -217z" />
    <glyph glyph-name="V" unicode="V" horiz-adv-x="1281" 
d="M935 1422l69 -11q49 -12 70.5 -33.5t21.5 -54.5q0 -20 -8 -47l-349 -1118l-382 1199q-3 12 -3 22q0 24 28 30l107 13q12 5 12 11q0 9 -11 9h-457q-13 0 -13 -9q0 -7 13 -11l55 -14q13 -4 19.5 -12t11.5 -28l403 -1248q12 -36 12 -57v-47q0 -16 16 -16h186q6 0 9.5 4
t3.5 11v48q0 18 3 36t4 26l360 1151q17 56 41 88t57 45l49 13q9 5 9 11q0 9 -12 9h-326q-10 0 -10 -9q0 -7 11 -11z" />
    <glyph glyph-name="W" unicode="W" horiz-adv-x="1896" 
d="M1892 1433q0 -7 -10 -11l-43 -13q-74 -31 -96 -126l-304 -1183q-5 -22 -5 -37v-48q0 -15 -11 -15h-197q-5 0 -8 4t-3 11v48q0 12 -2.5 23t-3.5 16l-240 925l-261 -927q-5 -13 -5 -37v-48q0 -15 -13 -15h-196q-11 0 -11 15v48q0 14 -3.5 25t-4.5 14l-340 1274q-4 17 -9 24
t-19 10l-66 15q-8 1 -8 9q0 3 3 5.5t7 2.5h437q11 0 11 -8q0 -7 -9 -9l-98 -15q-22 -3 -22 -25q0 -3 2 -15l324 -1240l269 946l-78 300q-5 17 -10 24t-17 9l-65 14q-9 7 -9 10q0 9 10 9h434q6 0 8.5 -2t2.5 -7q0 -2 -3 -5.5t-7 -4.5l-93 -14q-23 -3 -23 -25q0 -4 2 -14
l311 -1238l297 1154q5 22 5 36q0 34 -22 56t-71 34l-49 10q-11 4 -11 11q0 9 12 9h299q12 0 12 -9z" />
    <glyph glyph-name="X" unicode="X" horiz-adv-x="1345" 
d="M1316 11q0 -11 -13 -11h-496q-8 0 -12 3.5t-4 7.5q0 5 4 7t14 5q67 8 95.5 19.5t28.5 30.5q0 14 -13 33l-323 554l-305 -486q-26 -43 -26 -71q0 -53 80 -70l76 -10q12 -4 12 -12q0 -11 -13 -11h-358q-6 0 -10.5 3t-4.5 8q0 8 14 12q56 12 89 30t57.5 47t60.5 86l315 497
l-391 670q-21 36 -48.5 49.5t-72.5 19.5q-12 4 -12 11q0 9 12 9h500q7 0 9.5 -1.5t2.5 -7.5q0 -10 -12 -10l-109 -9q-33 -4 -33 -25q0 -14 10 -31l310 -530l273 441q24 41 24 70t-20.5 47t-58.5 25l-72 10q-9 3 -9 11q0 5 2.5 7t8.5 2h355q13 0 13 -9q0 -3 -4 -7t-12 -6
q-81 -22 -124 -63q-39 -35 -77 -95l-285 -456l413 -707q17 -29 36 -44t38 -21t50 -12q15 -3 15 -10z" />
    <glyph glyph-name="Y" unicode="Y" horiz-adv-x="1280" 
d="M1252 1440q3 -2 3 -7q0 -9 -12 -13l-20 -5q-50 -12 -83.5 -48t-60.5 -100l-316 -726v-474q0 -14 8 -21t27 -10l95 -15q13 -3 13 -10q0 -11 -14 -11h-479q-14 0 -14 11q0 8 12 10l97 15q19 3 27 10t8 20v453l-388 852q-19 36 -54 42l-50 9q-12 1 -12 11q0 5 3 7t11 2h447
q9 0 12.5 -1.5t3.5 -7.5q0 -10 -15 -12l-87 -11q-18 -3 -25.5 -7.5t-7.5 -11.5q0 -3 4 -15l361 -805l305 697q12 29 12 52q0 68 -94 91l-43 10q-12 2 -12 11q0 6 3 8t10 2h314q8 0 11 -2z" />
    <glyph glyph-name="Z" unicode="Z" horiz-adv-x="1203" 
d="M1130 1435q0 7 -10 7h-859q-12 0 -21.5 3.5t-23.5 10.5q-12 7 -19 7q-14 0 -17 -20l-61 -331v-8q0 -10 7 -12h3q12 0 18 13l28 63q38 85 74.5 138t89 83t128.5 30h420l-814 -1397q-5 -7 -5 -13q0 -3 3 -6t7 -3h904q22 0 49 -16q14 -7 19 -7q7 0 9.5 4.5t6.5 16.5l62 381
l1 6q0 4 -2 7t-6 4l-4 1q-6 0 -13 -10l-18 -41q-64 -140 -108.5 -206.5t-94 -90.5t-131.5 -24h-438l811 1399q5 6 5 11z" />
    <glyph glyph-name="bracketleft" unicode="[" horiz-adv-x="575" 
d="M205 -90l228 -12v-19h-266q-37 0 -37 36v1724q0 37 37 37h266v-19l-228 -12v-1735z" />
    <glyph glyph-name="backslash" unicode="\" horiz-adv-x="1079" 
d="M130 1375l46 70l739 -1369l33 -124h-12z" />
    <glyph glyph-name="bracketright" unicode="]" horiz-adv-x="575" 
d="M141 1676h266q37 0 37 -37v-1724q0 -36 -37 -36h-266v19l228 12v1735l-228 12v19z" />
    <glyph glyph-name="underscore" unicode="_" horiz-adv-x="1091" 
d="M130 0l12 63l819 14l-13 -77h-818z" />
    <glyph glyph-name="a" unicode="a" horiz-adv-x="955" 
d="M908 84q0 -20 -16.5 -44t-50 -41t-83.5 -17q-68 0 -105 29.5t-39 80.5q-48 -53 -120.5 -82.5t-155.5 -29.5q-69 0 -128 25t-95 74.5t-36 119.5q0 116 95 179t264 63q94 0 167 -27v303q0 92 -36 139.5t-107 47.5q-52 0 -86 -17.5t-50 -43.5t-16 -53v-72q0 -44 -29 -71.5
t-75 -27.5q-36 0 -57.5 22t-21.5 63q0 55 42 105.5t123 82t193 31.5q155 0 233.5 -67.5t78.5 -192.5v-544q0 -78 47 -78q21 0 35.5 11.5t15.5 32.5q1 6 7 6t6 -7zM529 59q44 17 76 49v289q-73 27 -144 27q-83 0 -135 -50t-52 -145q0 -88 45.5 -137.5t119.5 -49.5q46 0 90 17
z" />
    <glyph glyph-name="b" unicode="b" horiz-adv-x="1060" 
d="M803.5 864q85.5 -58 132.5 -160t47 -229q0 -139 -50 -252t-146.5 -179t-228.5 -66q-151 0 -248 103l-145 -83q-18 -9 -26 -9q-5 0 -8 3.5t-3 9.5v1405q0 15 -14 15h-79q-9 2 -9 10q0 4 3.5 6.5t8.5 4.5l241 69q17 6 24 6q15 0 15 -16v-722q65 69 133 105.5t156 36.5
q111 0 196.5 -58zM659.5 64q61.5 52 94.5 151.5t33 237.5q0 136 -31.5 230.5t-87.5 142t-129 47.5q-54 0 -110 -29.5t-111 -92.5v-646q77 -93 197 -93q83 0 144.5 52z" />
    <glyph glyph-name="c" unicode="c" horiz-adv-x="893" 
d="M797.5 808.5q-39.5 53.5 -114 84t-174.5 30.5q-133 0 -233 -67t-153.5 -179t-53.5 -242q0 -143 52 -246t143.5 -156t206.5 -53q142 0 239 81t128 227l1 4q0 7 -7 9q-6 0 -9 -9q-30 -93 -97.5 -140.5t-163.5 -47.5q-90 0 -161 49.5t-112 144.5t-41 228q0 111 30.5 195.5
t85.5 131t126 46.5q72 0 112.5 -39t40.5 -106v-57q0 -50 26 -78t71 -28q44 0 70.5 27.5t26.5 71.5q0 65 -39.5 118.5z" />
    </font>
</defs>
</svg>
